<svg xmlns="http://www.w3.org/2000/svg" width="32" height="32" shape-rendering="crispEdges" viewBox="0 -0.5 32 32"><path stroke="gray" d="M0 1h31M0 2h1m29 0h1M0 3h1m29 0h1M0 4h1m29 0h1M0 5h1m29 0h1M0 6h1m29 0h1M0 7h1m29 0h1M0 8h1m1 0h27m1 0h1M0 9h1m1 0h1m27 0h1M0 10h1m1 0h1m27 0h1M0 11h1m1 0h1m22 0h1m4 0h1M0 12h1m1 0h1m27 0h1M0 13h1m1 0h1m27 0h1M0 14h1m1 0h1m27 0h1M0 15h1m1 0h1m7 0h1m4 0h1m14 0h1M0 16h1m1 0h1m14 0h1m12 0h1M0 17h1m1 0h1m5 0h1m8 0h2m11 0h1M0 18h1m1 0h1m15 0h1m11 0h1M0 19h1m1 0h1m15 0h2m10 0h1M0 20h1m1 0h1m15 0h2m10 0h1M0 21h1m1 0h1m15 0h2m10 0h1M0 22h1m1 0h1m5 0h1m8 0h1m12 0h1M0 23h1m1 0h1m27 0h1M0 24h1m1 0h1m7 0h1m4 0h1m14 0h1M0 25h1m1 0h1m27 0h1M0 26h1m1 0h1m27 0h1M0 27h1m29 0h1M0 28h31"/><path stroke="#000" d="M31 1h1m-1 1h1m-1 1h1m-9 1h1m2 0h1m2 0h1m1 0h1m-9 1h1m2 0h1m2 0h1m1 0h1M21 6h9m1 0h1m-1 1h1m-1 1h1m-1 1h1m-1 1h1m-1 1h1m-7 1h1m5 0h1m-7 1h1m5 0h1m-7 1h1m5 0h1m-7 1h1m5 0h1m-7 1h1m5 0h1m-7 1h1m5 0h1m-15 1h1m7 0h1m5 0h1m-15 1h1m7 0h1m5 0h1m-15 1h1m6 0h1m6 0h1m-15 1h1m5 0h1m7 0h1m-16 1h1m1 0h5m8 0h1m-17 1h2m14 0h1m-21 1h4m16 0h1m-1 1h1m-1 1h1m-1 1h1m-1 1h1M0 29h32"/><path stroke="silver" d="M1 2h29M1 3h1M1 4h1m19 0h2m1 0h2m1 0h2M1 5h1m19 0h2m1 0h2m1 0h2M1 6h1M1 7h29M1 8h1m27 0h1M1 9h1m27 0h1M1 10h1m27 0h1M1 11h1m27 0h1M1 12h1m22 0h1m4 0h1M1 13h1m21 0h1m5 0h1M1 14h1m27 0h1M1 15h1m27 0h1M1 16h1m9 0h1m17 0h1M1 17h1m8 0h1m18 0h1M1 18h1m7 0h1m19 0h1M1 19h1m7 0h1m16 0h4M1 20h1m7 0h1m15 0h5M1 21h1m7 0h1m14 0h4m1 0h1M1 22h1m8 0h1m12 0h4m2 0h1M1 23h1m15 0h4m8 0h1M1 24h1m14 0h3m10 0h1M1 25h1m27 0h1M1 26h1m27 0h1M1 27h29"/><path stroke="navy" d="M2 3h1m4 0h23M2 4h1m4 0h14M2 5h1m4 0h14M2 6h1m4 0h14"/><path stroke="red" d="M3 3h1m9 13h2m-3 1h4m-5 1h5m-5 1h5m-5 1h5m-5 1h4m-3 1h2"/><path stroke="maroon" d="M4 3h1M3 4h2m6 11h4m-6 1h2m4 0h2m-8 1h1m6 0h1m-9 1h1m7 0h1m-9 1h1m7 0h1m-9 1h1m7 0h1m-9 1h1m6 0h2m-8 1h1m4 0h2m-7 1h6"/><path stroke="#ff0" d="M5 3h1"/><path stroke="olive" d="M6 3h1M5 4h2"/><path stroke="#0ff" d="M3 5h1"/><path stroke="#00f" d="M4 5h1M3 6h2"/><path stroke="#0f0" d="M5 5h1m12 10h5m-5 1h5m-4 1h4m-4 1h4m-3 1h3m-3 1h3m-3 1h3"/><path stroke="green" d="M6 5h1M5 6h2m12 5h6m-7 1h6m-7 1h6m1 0h1m-9 1h1m6 0h2m-9 1h1m6 0h2m-2 1h2m-2 1h2m-2 1h2m-2 1h2m-2 1h1"/><path stroke="#fff" d="M3 9h26M3 10h26M3 11h16m7 0h3M3 12h15m8 0h3M3 13h14m9 0h3M3 14h13m1 0h6m3 0h3M3 15h7m7 0h1m8 0h3M3 16h6m17 0h3M3 17h5m18 0h3M3 18h5m18 0h3M3 19h5m-5 1h5m-5 1h5m20 0h1M3 22h5m19 0h2M3 23h6m12 0h8M3 24h7m9 0h10M3 25h26M3 26h26"/><path stroke="#f0f" d="M12 16h1m-2 1h1m-2 1h1m-1 1h1m-1 1h1m-1 1h1m0 1h1"/></svg>