<svg xmlns="http://www.w3.org/2000/svg" viewBox="0 -0.5 64 64" shape-rendering="crispEdges">
<path stroke="#000000" d="M0 0h1M13 2h7M11 3h11M10 4h13M9 5h15M8 6h16M8 7h16M8 8h16M8 9h16M8 10h16M8 11h15M9 12h13M9 13h11M9 14h9M10 15h8M10 16h8M10 17h9M10 18h9M11 19h8M11 20h8M11 21h22M11 22h22M12 23h21M12 24h21M12 25h21M12 26h21M13 27h8M13 28h8M13 29h9M9 30h1M13 30h9M8 31h3M14 31h8M7 32h4M14 32h8M6 33h5M14 33h34M5 34h6M14 34h34M5 35h7M15 35h33M4 36h8M15 36h33M4 37h8M15 37h34M3 38h9M15 38h34M3 39h7M41 39h8M3 40h7M41 40h8M3 41h7M41 41h9M3 42h7M41 42h9M3 43h7M42 43h8M3 44h7M42 44h8M3 45h7M42 45h9M3 46h7M42 46h9M3 47h8M43 47h8M3 48h8M38 48h1M43 48h8M3 49h9M37 49h2M43 49h9M56 49h4M4 50h9M36 50h3M43 50h17M5 51h9M35 51h5M44 51h16M5 52h11M33 52h7M44 52h17M6 53h12M31 53h9M44 53h17M7 54h13M29 54h11M44 54h17M8 55h33M45 55h16M9 56h31M45 56h13M10 57h29M45 57h9M12 58h26M45 58h5M13 59h23M16 60h15" />
</svg>