<svg xmlns="http://www.w3.org/2000/svg" viewBox="0 -0.5 32 32" shape-rendering="crispEdges">
<path stroke="#808080" d="M0 0h1M18 0h7M16 1h2M25 1h2M14 2h2M27 2h2M13 3h1M29 3h1M12 4h1M30 4h1M12 5h1M30 5h1M11 6h1M11 7h1M11 8h1M12 9h1M12 10h1M29 10h1M14 11h1M28 11h1M0 12h14M16 12h1M26 12h1M0 13h1M18 13h1M24 13h1M0 14h1M0 15h1M0 16h1M0 17h1M20 17h1M25 17h1M27 17h1M0 18h1M20 18h1M0 19h1M2 19h17M20 19h1M24 19h2M28 19h1M0 20h1M2 20h1M20 20h1M28 20h1M0 21h1M2 21h1M28 21h1M0 22h1M2 22h1M28 22h1M0 23h1M2 23h1M28 23h1M0 24h1M2 24h1M25 24h1M28 24h1M0 25h1M2 25h1M20 25h1M28 25h1M0 26h1M2 26h1M28 26h1M0 27h1M2 27h1M20 27h1M28 27h1M0 28h1M2 28h1M20 28h1M24 28h2M28 28h1M0 29h1M20 29h1M28 29h1M0 30h21M27 30h1" />
<path stroke="#ffffff" d="M0 0h1M18 1h7M16 2h11M14 3h6M21 3h2M24 3h4M13 4h4M18 4h4M23 4h6M13 5h6M21 5h4M26 5h3M12 6h6M22 6h8M12 7h4M17 7h1M22 7h1M24 7h6M12 8h7M21 8h4M26 8h4M13 9h5M19 9h3M23 9h6M14 10h6M21 10h2M24 10h5M16 11h11M18 12h7M20 13h2M20 14h1M27 19h1M3 20h16M23 20h1M26 20h2M3 21h16M22 21h1M26 21h2M3 22h15M19 22h1M21 22h1M23 22h1M26 22h2M3 23h15M22 23h1M27 23h1M3 24h15M21 24h1M23 24h1M27 24h1M3 25h15M22 25h1M26 25h2M3 26h16M23 26h1M26 26h2M3 27h16M26 27h2M3 28h16M26 28h2" />
<path stroke="#ff0000" d="M0 0h1M20 3h1M23 3h1M17 4h1M22 4h1M19 5h2M25 5h1M18 6h1M20 6h1M16 7h1M18 7h3M23 7h1M25 8h1M18 9h1M22 9h1M20 10h1M23 10h1M3 14h1" />
<path stroke="#c0c0c0" d="M0 0h1M28 3h1M29 4h1M29 5h1M30 6h1M30 7h1M30 8h1M29 9h1M13 10h1M15 11h1M27 11h1M17 12h1M25 12h1M1 13h15M19 13h1M22 13h2M1 14h1M21 14h1M1 15h1M14 15h2M17 15h2M20 15h1M1 16h1M14 16h2M17 16h2M1 17h1M1 18h19M26 18h2M1 19h1M19 19h1M26 19h1M1 20h1M19 20h1M25 20h1M1 21h1M25 21h1M1 22h1M20 22h1M1 23h1M20 23h1M25 23h1M1 24h1M20 24h1M1 25h1M1 26h1M25 26h1M1 27h1M19 27h1M25 27h1M1 28h1M19 28h1M1 29h19M26 29h2" />
<path stroke="#ff00ff" d="M0 0h1M19 6h1" />
<path stroke="#800000" d="M0 0h1M21 6h1M21 7h1M19 8h2M4 14h1M3 15h2" />
<path stroke="#000000" d="M0 0h1M31 6h1M31 7h1M31 8h1M30 9h1M30 10h1M13 11h1M29 11h1M14 12h2M27 12h2M16 13h2M25 13h2M18 14h2M22 14h3M16 15h1M19 15h1M21 15h1M16 16h1M19 16h3M25 16h2M14 17h6M21 17h1M26 17h1M21 18h1M25 18h1M21 19h1M24 20h1M24 21h1M24 22h2M24 23h1M26 23h1M24 24h1M26 24h1M18 25h1M24 25h2M19 26h2M24 26h1M21 27h1M24 27h1M21 28h2M21 29h1M23 29h1M25 29h1M21 30h1M24 30h1M26 30h1M0 31h22M25 31h2" />
<path stroke="#000080" d="M0 0h1M2 14h1M7 14h11M2 15h1M7 15h7M2 16h1M7 16h7M2 17h1M7 17h7" />
<path stroke="#ffff00" d="M0 0h1M5 14h1M24 18h1M23 19h1M22 20h1M21 21h1M23 21h1M22 22h1M19 23h1M21 23h1M23 23h1M19 24h1M22 24h1M21 25h1M23 25h1M22 26h1M23 27h1" />
<path stroke="#808000" d="M0 0h1M6 14h1M5 15h2M24 17h1M23 18h1M22 19h1M21 20h1M19 21h2M18 22h1M18 23h1M18 24h1M19 25h1M21 26h1M22 27h1M23 28h1M24 29h1M25 30h1" />
<path stroke="#00ffff" d="M0 0h1M3 16h1" />
<path stroke="#0000ff" d="M0 0h1M4 16h1M3 17h2" />
<path stroke="#00ff00" d="M0 0h1M5 16h1" />
<path stroke="#008000" d="M0 0h1M6 16h1M5 17h2" />
</svg>