<svg xmlns="http://www.w3.org/2000/svg" viewBox="0 -0.5 32 32" shape-rendering="crispEdges">
<path stroke="#000000" d="M0 0h1M20 0h1M19 1h1M21 1h1M20 2h2M22 3h3M25 4h1M25 5h1M5 6h2M8 6h2M11 6h2M14 6h2M17 6h2M20 6h2M25 6h1M3 7h2M6 7h2M9 7h2M12 7h2M15 7h2M18 7h2M21 7h4M2 8h1M2 9h1M31 11h1M31 12h1M5 13h1M8 13h1M11 13h1M14 13h1M17 13h1M20 13h1M23 13h1M26 13h1M29 13h1M31 13h1M5 14h1M8 14h1M11 14h1M14 14h1M17 14h1M20 14h1M23 14h1M26 14h1M29 14h1M31 14h1M3 15h27M31 15h1M7 16h1M10 16h1M13 16h1M16 16h1M19 16h1M22 16h1M25 16h1M29 16h1M31 16h1M7 17h1M10 17h1M13 17h1M16 17h1M19 17h1M22 17h1M25 17h1M29 17h1M31 17h1M3 18h27M31 18h1M5 19h1M8 19h1M11 19h1M14 19h1M17 19h1M29 19h1M31 19h1M5 20h1M8 20h1M11 20h1M14 20h1M17 20h1M25 20h1M29 20h1M31 20h1M3 21h14M22 21h8M31 21h1M7 22h1M10 22h1M27 22h1M29 22h1M31 22h1M7 23h1M10 23h1M28 23h2M31 23h1M3 24h13M29 24h1M31 24h1M29 25h1M31 25h1M1 26h17M29 26h2M29 27h1M29 28h1M29 29h1M28 30h1M22 31h6" />
<path stroke="#ffff00" d="M0 0h1M20 1h1" />
<path stroke="#808080" d="M0 0h1M1 10h30M0 11h1M30 11h1M0 12h1M2 12h29M0 13h1M2 13h1M30 13h1M0 14h1M2 14h1M30 14h1M0 15h1M2 15h1M30 15h1M0 16h1M2 16h1M30 16h1M0 17h1M2 17h1M30 17h1M0 18h1M2 18h1M30 18h1M0 19h1M2 19h1M19 19h6M30 19h1M0 20h1M2 20h1M18 20h1M20 20h1M24 20h1M30 20h1M0 21h1M2 21h1M17 21h1M21 21h1M30 21h1M0 22h1M2 22h1M16 22h1M20 22h1M26 22h1M30 22h1M0 23h1M2 23h1M16 23h1M19 23h1M27 23h1M30 23h1M0 24h1M2 24h1M16 24h1M28 24h1M30 24h1M0 25h18M28 25h1M30 25h1M18 26h1M28 26h1M19 27h1M28 27h1M19 28h1M28 28h1M20 29h1M27 29h2M20 30h2M23 30h5M21 31h1" />
<path stroke="#ffffff" d="M0 0h1M1 11h29M1 12h1M1 13h1M3 13h1M6 13h1M9 13h1M12 13h1M15 13h1M18 13h1M21 13h1M24 13h1M27 13h1M1 14h1M1 15h1M1 16h1M3 16h3M8 16h1M11 16h1M14 16h1M17 16h1M20 16h1M23 16h1M26 16h1M1 17h1M1 18h1M1 19h1M3 19h2M6 19h1M9 19h1M12 19h1M15 19h1M18 19h1M25 19h1M1 20h1M1 21h1M18 21h3M1 22h1M3 22h3M8 22h1M11 22h5M17 22h3M21 22h3M1 23h1M18 23h1M20 23h2M23 23h2M1 24h1M17 24h1M19 24h2M22 24h4M18 25h1M20 25h6M19 26h1M21 26h4M26 26h1M20 27h1M22 27h4M20 28h1M22 28h3M26 28h1M21 29h1M23 29h1" />
<path stroke="#c0c0c0" d="M0 0h1M4 13h1M7 13h1M10 13h1M13 13h1M16 13h1M19 13h1M22 13h1M25 13h1M28 13h1M3 14h2M6 14h2M9 14h2M12 14h2M15 14h2M18 14h2M21 14h2M24 14h2M27 14h2M6 16h1M9 16h1M12 16h1M15 16h1M18 16h1M21 16h1M24 16h1M27 16h2M3 17h4M8 17h2M11 17h2M14 17h2M17 17h2M20 17h2M23 17h2M26 17h3M7 19h1M10 19h1M13 19h1M16 19h1M26 19h3M3 20h2M6 20h2M9 20h2M12 20h2M15 20h2M19 20h1M21 20h3M26 20h3M6 22h1M9 22h1M24 22h2M28 22h1M3 23h4M8 23h2M11 23h5M17 23h1M25 23h2M18 24h1M26 24h2M19 25h1M26 25h2M20 26h1M25 26h1M27 26h1M21 27h1M26 27h2M21 28h1M25 28h1M27 28h1M22 29h1M24 29h3M22 30h1" />
<path stroke="#000080" d="M0 0h1M22 23h1M21 24h1" />
</svg>