<svg xmlns="http://www.w3.org/2000/svg" viewBox="0 -0.5 32 32" shape-rendering="crispEdges">
<path stroke="#808080" d="M0 0h1M7 0h6M7 1h1M2 3h1M10 3h1M17 3h2M1 4h1M17 4h1M0 5h1M3 6h1M17 6h1M6 9h1M14 9h1M19 14h3M17 15h2M22 15h2M15 16h2M24 16h2M6 17h1M12 17h3M26 17h3M12 18h1M28 18h1M11 19h1M27 19h2M11 20h1M25 20h4M10 21h1M23 21h7M10 22h1M21 22h9M10 23h1M21 23h9M9 24h1M21 24h10M9 25h1M21 25h10M9 26h1M21 26h10M10 27h2M21 27h8M12 28h2M21 28h6M14 29h2M21 29h4M16 30h2M21 30h2M18 31h3" />
<path stroke="#000000" d="M0 0h1M13 0h1M9 1h1M11 1h1M13 1h1M8 2h5M3 3h1M9 3h1M11 3h1M3 4h1M19 4h1M3 5h2M16 5h2M20 5h1M0 6h3M18 6h3M2 7h1M8 7h5M17 7h2M6 8h2M13 8h2M18 8h1M5 9h1M18 9h1M5 10h1M19 10h1M4 11h1M19 11h1M4 12h1M19 12h1M4 13h1M19 13h1M4 14h1M4 15h1M5 16h1M5 17h1M29 18h1M29 19h1M4 20h1M29 20h1M5 21h2M30 21h1M7 22h3M30 22h1M30 23h1M31 24h1M31 25h1M31 26h1M29 27h2M27 28h2M25 29h2M23 30h2M21 31h2" />
<path stroke="#ffffff" d="M0 0h1M8 1h1M10 1h1M12 1h1M2 4h1M18 4h1M1 5h1M19 5h1M9 8h3M7 9h3M11 9h3M6 10h4M11 10h4M6 11h4M11 11h4M5 12h5M11 12h5M5 13h5M11 13h5M5 14h5M11 14h5M6 15h9M6 16h9M7 17h5M9 18h3M13 18h1M27 18h1M12 19h4M25 19h2M12 20h1M15 20h3M23 20h2M11 21h1M17 21h6M11 22h1M20 22h1M11 23h1M20 23h1M10 24h1M20 24h1M10 25h1M20 25h1M20 26h1M20 27h1M20 28h1M20 29h1M20 30h1" />
<path stroke="#800000" d="M0 0h1M7 4h7M5 5h2M14 5h2M4 6h1M8 6h5M16 6h1M3 7h1M6 7h2M13 7h2M2 8h1M5 8h1M15 8h1M17 8h1M2 9h1M4 9h1M15 9h1M1 10h1M4 10h1M15 10h1M18 10h1M1 11h1M3 11h1M16 11h1M18 11h1M1 12h1M3 12h1M16 12h1M18 12h1M1 13h1M3 13h1M16 13h1M18 13h1M1 14h1M3 14h1M16 14h1M18 14h1M1 15h1M3 15h1M16 15h1M1 16h1M4 16h1M2 17h1M4 17h1M2 18h1M6 18h2M3 19h1M8 19h3M5 20h1M7 21h3" />
<path stroke="#c0c0c0" d="M0 0h1M2 5h1M18 5h1M8 8h1M12 8h1M5 11h1M15 11h1M5 15h1M15 15h1M19 15h3M17 16h7M15 17h11M8 18h1M14 18h13M16 19h9M13 20h2M18 20h5M12 21h5M12 22h8M12 23h8M11 24h9M11 25h9M10 26h10M12 27h8M14 28h6M16 29h4M18 30h2" />
<path stroke="#ff0000" d="M0 0h1M7 5h7M5 6h3M13 6h3M4 7h2M15 7h2M3 8h2M16 8h1M3 9h1M16 9h2M2 10h2M16 10h2M2 11h1M17 11h1M2 12h1M17 12h1M2 13h1M17 13h1M2 14h1M17 14h1M2 15h1M2 16h2M3 17h1M3 18h3M4 19h4M6 20h5" />
<path stroke="#0000ff" d="M0 0h1M10 9h1M10 10h1M10 11h1M10 12h1M10 13h1M10 14h1" />
</svg>