<svg xmlns="http://www.w3.org/2000/svg" viewBox="0 -0.5 32 32" shape-rendering="crispEdges">
<path stroke="#808080" d="M0 0h1M0 1h31M0 2h1M30 2h1M0 3h1M30 3h1M0 4h1M30 4h1M0 5h1M30 5h1M0 6h1M30 6h1M0 7h1M30 7h1M0 8h1M2 8h27M30 8h1M0 9h1M2 9h1M30 9h1M0 10h1M2 10h1M30 10h1M0 11h1M2 11h1M25 11h1M30 11h1M0 12h1M2 12h1M30 12h1M0 13h1M2 13h1M30 13h1M0 14h1M2 14h1M30 14h1M0 15h1M2 15h1M10 15h1M15 15h1M30 15h1M0 16h1M2 16h1M17 16h1M30 16h1M0 17h1M2 17h1M8 17h1M17 17h2M30 17h1M0 18h1M2 18h1M18 18h1M30 18h1M0 19h1M2 19h1M18 19h2M30 19h1M0 20h1M2 20h1M18 20h2M30 20h1M0 21h1M2 21h1M18 21h2M30 21h1M0 22h1M2 22h1M8 22h1M17 22h1M30 22h1M0 23h1M2 23h1M30 23h1M0 24h1M2 24h1M10 24h1M15 24h1M30 24h1M0 25h1M2 25h1M30 25h1M0 26h1M2 26h1M30 26h1M0 27h1M30 27h1M0 28h31" />
<path stroke="#000000" d="M0 0h1M31 1h1M31 2h1M31 3h1M23 4h1M26 4h1M29 4h1M31 4h1M23 5h1M26 5h1M29 5h1M31 5h1M21 6h9M31 6h1M31 7h1M31 8h1M31 9h1M31 10h1M31 11h1M25 12h1M31 12h1M25 13h1M31 13h1M25 14h1M31 14h1M25 15h1M31 15h1M25 16h1M31 16h1M25 17h1M31 17h1M17 18h1M25 18h1M31 18h1M17 19h1M25 19h1M31 19h1M17 20h1M24 20h1M31 20h1M17 21h1M23 21h1M31 21h1M16 22h1M18 22h5M31 22h1M15 23h2M31 23h1M11 24h4M31 24h1M31 25h1M31 26h1M31 27h1M31 28h1M0 29h32" />
<path stroke="#c0c0c0" d="M0 0h1M1 2h29M1 3h1M1 4h1M21 4h2M24 4h2M27 4h2M1 5h1M21 5h2M24 5h2M27 5h2M1 6h1M1 7h29M1 8h1M29 8h1M1 9h1M29 9h1M1 10h1M29 10h1M1 11h1M29 11h1M1 12h1M24 12h1M29 12h1M1 13h1M23 13h1M29 13h1M1 14h1M29 14h1M1 15h1M29 15h1M1 16h1M11 16h1M29 16h1M1 17h1M10 17h1M29 17h1M1 18h1M9 18h1M29 18h1M1 19h1M9 19h1M26 19h4M1 20h1M9 20h1M25 20h5M1 21h1M9 21h1M24 21h4M29 21h1M1 22h1M10 22h1M23 22h4M29 22h1M1 23h1M17 23h4M29 23h1M1 24h1M16 24h3M29 24h1M1 25h1M29 25h1M1 26h1M29 26h1M1 27h29" />
<path stroke="#000080" d="M0 0h1M2 3h1M7 3h23M2 4h1M7 4h14M2 5h1M7 5h14M2 6h1M7 6h14" />
<path stroke="#ff0000" d="M0 0h1M3 3h1M13 16h2M12 17h4M11 18h5M11 19h5M11 20h5M11 21h4M12 22h2" />
<path stroke="#800000" d="M0 0h1M4 3h1M3 4h2M11 15h4M9 16h2M15 16h2M9 17h1M16 17h1M8 18h1M16 18h1M8 19h1M16 19h1M8 20h1M16 20h1M8 21h1M15 21h2M9 22h1M14 22h2M9 23h6" />
<path stroke="#ffff00" d="M0 0h1M5 3h1" />
<path stroke="#808000" d="M0 0h1M6 3h1M5 4h2" />
<path stroke="#00ffff" d="M0 0h1M3 5h1" />
<path stroke="#0000ff" d="M0 0h1M4 5h1M3 6h2" />
<path stroke="#00ff00" d="M0 0h1M5 5h1M18 15h5M18 16h5M19 17h4M19 18h4M20 19h3M20 20h3M20 21h3" />
<path stroke="#008000" d="M0 0h1M6 5h1M5 6h2M19 11h6M18 12h6M17 13h6M24 13h1M16 14h1M23 14h2M16 15h1M23 15h2M23 16h2M23 17h2M23 18h2M23 19h2M23 20h1" />
<path stroke="#ffffff" d="M0 0h1M3 9h26M3 10h26M3 11h16M26 11h3M3 12h15M26 12h3M3 13h14M26 13h3M3 14h13M17 14h6M26 14h3M3 15h7M17 15h1M26 15h3M3 16h6M26 16h3M3 17h5M26 17h3M3 18h5M26 18h3M3 19h5M3 20h5M3 21h5M28 21h1M3 22h5M27 22h2M3 23h6M21 23h8M3 24h7M19 24h10M3 25h26M3 26h26" />
<path stroke="#ff00ff" d="M0 0h1M12 16h1M11 17h1M10 18h1M10 19h1M10 20h1M10 21h1M11 22h1" />
</svg>