<svg xmlns="http://www.w3.org/2000/svg" viewBox="0 -0.5 32 32" shape-rendering="crispEdges">
<path stroke="#800000" d="M0 0h1M17 2h5M15 3h2M19 3h5M14 4h1M21 4h2M13 5h1M22 5h2M13 6h2M24 6h1M15 7h2M24 7h1M25 8h1M25 9h1M26 10h1M26 11h1M26 12h1M23 13h1M24 14h1M25 15h1M26 16h1M27 17h1" />
<path stroke="#ff0000" d="M0 0h1M17 3h2M15 4h6M23 4h1M14 5h8M24 5h1M15 6h4M25 6h1M17 7h1M25 7h2M26 8h2M26 9h2M27 10h2M27 11h2M27 12h2M24 13h8M25 14h6M26 15h4M27 16h2" />
<path stroke="#000000" d="M0 0h1M24 4h1M25 5h1M19 6h5M26 6h1M18 7h1M27 7h1M17 8h1M28 8h1M28 9h1M29 10h1M29 11h1M20 12h1M29 12h1M20 13h1M20 14h1M31 14h1M20 15h1M30 15h1M29 16h1M28 17h1M30 21h1M30 22h1M30 23h1M30 24h1M30 25h1M28 26h2M26 27h2M24 28h2M22 29h2" />
<path stroke="#808080" d="M0 0h1M10 7h3M8 8h2M13 8h2M6 9h2M15 9h2M3 10h3M11 10h2M17 10h2M3 11h1M9 11h2M19 11h1M2 12h1M18 12h2M2 13h1M16 13h4M1 14h1M14 14h6M1 15h1M12 15h8M1 16h1M12 16h11M0 17h1M12 17h8M23 17h2M0 18h1M12 18h6M20 18h3M25 18h2M0 19h1M12 19h4M19 19h1M23 19h1M27 19h2M1 20h2M12 20h2M19 20h1M23 20h1M29 20h1M3 21h2M12 21h1M20 21h3M28 21h2M5 22h2M12 22h1M26 22h4M7 23h2M24 23h6M9 24h2M22 24h8M11 25h2M22 25h8M13 26h2M22 26h6M15 27h2M22 27h4M17 28h2M22 28h2M19 29h3" />
<path stroke="#c0c0c0" d="M0 0h1M10 8h3M8 9h7M6 10h5M13 10h4M5 11h4M11 11h7M7 12h9M4 13h2M9 13h5M3 14h5M3 15h8M3 16h8M2 17h9M20 17h3M2 18h9M18 18h2M23 18h2M1 19h10M16 19h3M20 19h3M24 19h3M3 20h8M15 20h4M20 20h3M24 20h4M5 21h6M17 21h3M23 21h3M7 22h4M14 22h2M19 22h5M9 23h2M13 23h5M13 24h8M13 25h8M15 26h6M17 27h4M19 28h2" />
<path stroke="#ffffff" d="M0 0h1M4 11h1M18 11h1M3 12h4M16 12h2M3 13h1M6 13h3M14 13h2M2 14h1M8 14h6M2 15h1M11 15h1M2 16h1M11 16h1M1 17h1M11 17h1M1 18h1M11 18h1M11 19h1M11 20h1M14 20h1M28 20h1M11 21h1M13 21h4M26 21h2M11 22h1M13 22h1M16 22h3M24 22h2M11 23h2M18 23h6M11 24h2M21 24h1M21 25h1M21 26h1M21 27h1M21 28h1" />
</svg>