<svg xmlns="http://www.w3.org/2000/svg" width="32" height="32" shape-rendering="crispEdges" viewBox="0 -0.5 32 32"><path stroke="gray" d="M18 0h7m-9 1h2m7 0h2M14 2h2m11 0h2M13 3h1m15 0h1M12 4h1m17 0h1M12 5h1m17 0h1M11 6h1m-1 1h1m-1 1h1m0 1h1m-1 1h1m16 0h1m-16 1h1m13 0h1M0 12h14m2 0h1m9 0h1M0 13h1m17 0h1m5 0h1M0 14h1m-1 1h1m-1 1h1m-1 1h1m19 0h1m4 0h1m1 0h1M0 18h1m19 0h1M0 19h1m1 0h17m1 0h1m3 0h2m2 0h1M0 20h1m1 0h1m17 0h1m7 0h1M0 21h1m1 0h1m25 0h1M0 22h1m1 0h1m25 0h1M0 23h1m1 0h1m25 0h1M0 24h1m1 0h1m22 0h1m2 0h1M0 25h1m1 0h1m17 0h1m7 0h1M0 26h1m1 0h1m25 0h1M0 27h1m1 0h1m17 0h1m7 0h1M0 28h1m1 0h1m17 0h1m3 0h2m2 0h1M0 29h1m19 0h1m7 0h1M0 30h21m6 0h1"/><path stroke="#fff" d="M18 1h7m-9 1h11M14 3h14M13 4h16M13 5h3m11 0h2M12 6h18M12 7h4m11 0h3M12 8h18M13 9h3m8 0h5m-15 1h15m-13 1h11m-9 1h7m-5 1h2m-2 1h1m6 5h1M3 20h16m4 0h1m2 0h2M3 21h16m3 0h1m3 0h2M3 22h15m1 0h1m1 0h1m1 0h1m2 0h2M3 23h15m4 0h1m4 0h1M3 24h15m3 0h1m1 0h1m3 0h1M3 25h15m4 0h1m3 0h2M3 26h16m4 0h1m2 0h2M3 27h16m7 0h2M3 28h16m7 0h2"/><path stroke="silver" d="M28 3h1m0 1h1m-1 1h1m0 1h1m-1 1h1m-1 1h1m-2 1h1m-17 1h1m1 1h1m11 0h1m-11 1h1m7 0h1M1 13h15m3 0h1m2 0h2M1 14h1m19 0h1M1 15h1m12 0h2m1 0h2m1 0h1M1 16h1m12 0h2m1 0h2M1 17h1m-1 1h19m6 0h2M1 19h1m17 0h1m6 0h1M1 20h1m17 0h1m5 0h1M1 21h1m23 0h1M1 22h1m18 0h1M1 23h1m18 0h1m4 0h1M1 24h1m18 0h1M1 25h1m-1 1h1m23 0h1M1 27h1m17 0h1m5 0h1M1 28h1m17 0h1M1 29h19m6 0h2"/><path stroke="#00f" d="M16 5h11M16 7h11M16 9h8M4 16h1m-2 1h2"/><path stroke="#000" d="M31 6h1m-1 1h1m-1 1h1m-2 1h1m-1 1h1m-18 1h1m15 0h1m-16 1h2m11 0h2m-13 1h2m7 0h2m-9 1h2m2 0h3m-9 1h1m2 0h1m1 0h1m-6 1h1m2 0h3m3 0h2m-13 1h6m1 0h1m4 0h1m-6 1h1m3 0h1m-5 1h1m2 1h1m-1 1h1m-1 1h2m-2 1h1m1 0h1m-3 1h1m1 0h1m-9 1h1m5 0h2m-7 1h2m3 0h1m-4 1h1m2 0h1m-4 1h2m-2 1h1m1 0h1m1 0h1m-5 1h1m2 0h1m1 0h1M0 31h22m3 0h2"/><path stroke="navy" d="M2 14h1m4 0h11M2 15h1m4 0h7M2 16h1m4 0h7M2 17h1m4 0h7"/><path stroke="red" d="M3 14h1"/><path stroke="maroon" d="M4 14h1m-2 1h2"/><path stroke="#ff0" d="M5 14h1m18 4h1m-2 1h1m-2 1h1m-2 1h1m1 0h1m-2 1h1m-4 1h1m1 0h1m1 0h1m-5 1h1m2 0h1m-2 1h1m1 0h1m-2 1h1m0 1h1"/><path stroke="olive" d="M6 14h1m-2 1h2m17 2h1m-2 1h1m-2 1h1m-2 1h1m-3 1h2m-3 1h1m-1 1h1m-1 1h1m0 1h1m1 1h1m0 1h1m0 1h1m0 1h1m0 1h1"/><path stroke="#0ff" d="M3 16h1"/><path stroke="#0f0" d="M5 16h1"/><path stroke="green" d="M6 16h1m-2 1h2"/></svg>