<svg xmlns="http://www.w3.org/2000/svg" viewBox="0 -0.5 32 32" shape-rendering="crispEdges">
<path stroke="#808080" d="M0 0h1M11 2h3M9 3h2M14 3h2M7 4h2M16 4h2M4 5h3M12 5h2M18 5h2M4 6h1M10 6h2M20 6h1M3 7h1M19 7h2M3 8h1M17 8h4M2 9h1M15 9h6M2 10h1M13 10h8M2 11h1M13 11h11M1 12h1M13 12h8M24 12h2M1 13h1M13 13h6M21 13h3M26 13h2M1 14h1M13 14h4M20 14h1M24 14h1M28 14h2M2 15h2M13 15h2M20 15h1M24 15h1M30 15h1M4 16h2M9 16h1M11 16h1M13 16h1M21 16h3M29 16h2M6 17h1M13 17h1M27 17h4M8 18h2M12 18h1M17 18h1M25 18h6M12 19h1M15 19h2M23 19h8M12 20h3M23 20h8M12 21h1M14 21h2M23 21h6M12 22h1M16 22h2M23 22h4M9 23h1M12 23h1M14 23h6M23 23h2M4 24h1M12 24h1M20 24h3M12 25h1M12 26h1M14 26h1M8 27h2M12 27h1M15 27h2M12 28h1M17 28h1M11 29h1" />
<path stroke="#c0c0c0" d="M0 0h1M11 3h3M9 4h7M7 5h5M14 5h4M6 6h4M12 6h7M8 7h9M5 8h2M10 8h5M4 9h5M4 10h8M4 11h8M3 12h9M21 12h3M3 13h9M19 13h2M24 13h2M2 14h10M17 14h3M21 14h3M25 14h3M4 15h5M11 15h1M16 15h4M21 15h3M25 15h4M6 16h2M18 16h3M24 16h3M10 17h2M15 17h2M20 17h5M10 18h1M14 18h3M18 18h1M9 19h1M14 19h1M17 19h5M9 20h1M15 20h7M4 21h1M16 21h6M4 22h1M9 22h1M18 22h4M4 23h1M20 23h2M9 25h1M9 26h1M10 28h2" />
<path stroke="#ff0000" d="M0 0h1M27 3h2M27 4h2M27 5h2M27 6h2M27 7h2M25 8h6M26 9h4M27 10h2" />
<path stroke="#800000" d="M0 0h1M29 3h1M29 4h1M29 5h1M29 6h1M29 7h1M31 8h1M30 9h1M29 10h1M28 11h1" />
<path stroke="#ffffff" d="M0 0h1M5 6h1M19 6h1M4 7h4M17 7h2M4 8h1M7 8h3M15 8h2M3 9h1M9 9h6M3 10h1M12 10h1M3 11h1M12 11h1M2 12h1M12 12h1M2 13h1M12 13h1M12 14h1M12 15h1M15 15h1M29 15h1M12 16h1M14 16h4M27 16h2M12 17h1M14 17h1M17 17h3M25 17h2M11 18h1M13 18h1M19 18h6M7 19h1M10 19h2M13 19h1M22 19h1M6 20h1M10 20h2M22 20h1M3 21h1M5 21h1M7 21h1M10 21h2M22 21h1M6 22h1M11 22h1M22 22h1M5 23h1M7 23h1M11 23h1M22 23h1M6 24h1M10 24h2M7 25h1M10 25h2M10 26h2M10 27h2" />
<path stroke="#000000" d="M0 0h1M21 7h1M21 8h1M21 9h1M21 10h1M9 15h2M10 16h1M31 16h1M9 17h1M31 17h1M31 18h1M8 19h1M31 19h1M8 20h1M31 20h1M8 21h2M29 21h2M8 22h1M10 22h1M27 22h2M8 23h1M10 23h1M25 23h2M2 24h1M8 24h2M23 24h2M3 25h2M8 25h1M5 26h1M8 26h1M6 27h1M7 28h1M9 28h1M8 29h1M10 29h1M9 30h2" />
<path stroke="#808000" d="M0 0h1M8 16h1M7 17h1M6 18h1M5 19h1M3 20h2M2 21h1M2 22h1M2 23h1M3 24h1M5 25h1M6 26h1M7 27h1M8 28h1M9 29h1" />
<path stroke="#ffff00" d="M0 0h1M8 17h1M7 18h1M6 19h1M5 20h1M7 20h1M6 21h1M3 22h1M5 22h1M7 22h1M3 23h1M6 23h1M5 24h1M7 24h1M6 25h1M7 26h1" />
</svg>