<svg xmlns="http://www.w3.org/2000/svg" width="16" height="16" shape-rendering="crispEdges" viewBox="0 -0.5 16 16"><path stroke="gray" d="M0 0h15M0 1h1M0 2h1M0 3h15M0 4h1m13 0h1M0 5h1m13 0h1M0 6h1m7 0h1m5 0h1M0 7h1m5 0h1m7 0h1M0 8h1m4 0h1m8 0h1M0 9h1m13 0h1M0 10h1m13 0h1M0 11h1m4 0h1m4 0h1m3 0h1M0 12h1m5 0h1m2 0h1m4 0h1M0 13h1m13 0h1M0 14h15"/><path stroke="#000" d="M15 0h1m-1 1h1m-6 1h1m1 0h1m1 0h2m-1 1h1m-1 1h1m-1 1h1m-1 1h1m-1 1h1m-1 1h1m-1 1h1m-1 1h1m-1 1h1m-1 1h1m-1 1h1m-1 1h1M0 15h16"/><path stroke="navy" d="M1 1h1m2 0h11M1 2h1m2 0h5"/><path stroke="red" d="M2 1h1"/><path stroke="#ff0" d="M3 1h1"/><path stroke="#0ff" d="M2 2h1"/><path stroke="#0f0" d="M3 2h1"/><path stroke="silver" d="M9 2h1m1 0h1m1 0h1M1 4h1M1 5h1M1 6h1M1 7h1M1 8h1M1 9h1m-1 1h1m-1 1h1m-1 1h1m-1 1h1"/><path stroke="#fff" d="M2 4h12M2 5h5m2 0h5M2 6h5m2 0h5M2 7h4m4 0h4M2 8h3m3 0h6M2 9h3m1 0h1m4 0h3M2 10h3m1 0h4m2 0h2M2 11h3m2 0h2m4 0h1M2 12h4m4 0h4M2 13h12"/><path stroke="#00f" d="M7 5h2M7 6h1M7 7h3M6 8h2M5 9h1m1 0h4m-6 1h1m4 0h2m-6 1h1m2 0h1m1 0h2m-6 1h2"/></svg>