<svg xmlns="http://www.w3.org/2000/svg" width="32" height="32" shape-rendering="crispEdges" viewBox="0 -0.5 32 32"><path stroke="#000" d="M20 0h1m-2 1h1m1 0h1m-2 1h2m0 1h3m0 1h1m-1 1h1M5 6h2m1 0h2m1 0h2m1 0h2m1 0h2m1 0h2m3 0h1M3 7h2m1 0h2m1 0h2m1 0h2m1 0h2m1 0h2m1 0h4M2 8h1M2 9h1m28 2h1m-1 1h1M5 13h1m2 0h1m2 0h1m2 0h1m2 0h1m2 0h1m2 0h1m2 0h1m2 0h1m1 0h1M5 14h1m2 0h1m2 0h1m2 0h1m2 0h1m2 0h1m2 0h1m2 0h1m2 0h1m1 0h1M3 15h27m1 0h1M7 16h1m2 0h1m2 0h1m2 0h1m2 0h1m2 0h1m2 0h1m3 0h1m1 0h1M7 17h1m2 0h1m2 0h1m2 0h1m2 0h1m2 0h1m2 0h1m3 0h1m1 0h1M3 18h27m1 0h1M5 19h1m2 0h1m2 0h1m2 0h1m2 0h1m11 0h1m1 0h1M5 20h1m2 0h1m2 0h1m2 0h1m2 0h1m7 0h1m3 0h1m1 0h1M3 21h14m5 0h8m1 0h1M7 22h1m2 0h1m16 0h1m1 0h1m1 0h1M7 23h1m2 0h1m17 0h2m1 0h1M3 24h13m13 0h1m1 0h1m-3 1h1m1 0h1M1 26h17m11 0h2m-2 1h1m-1 1h1m-1 1h1m-2 1h1m-7 1h6"/><path stroke="#ff0" d="M20 1h1"/><path stroke="gray" d="M1 10h30M0 11h1m29 0h1M0 12h1m1 0h29M0 13h1m1 0h1m27 0h1M0 14h1m1 0h1m27 0h1M0 15h1m1 0h1m27 0h1M0 16h1m1 0h1m27 0h1M0 17h1m1 0h1m27 0h1M0 18h1m1 0h1m27 0h1M0 19h1m1 0h1m16 0h6m5 0h1M0 20h1m1 0h1m15 0h1m1 0h1m3 0h1m5 0h1M0 21h1m1 0h1m14 0h1m3 0h1m8 0h1M0 22h1m1 0h1m13 0h1m3 0h1m5 0h1m3 0h1M0 23h1m1 0h1m13 0h1m2 0h1m7 0h1m2 0h1M0 24h1m1 0h1m13 0h1m11 0h1m1 0h1M0 25h18m10 0h1m1 0h1m-13 1h1m9 0h1m-10 1h1m8 0h1m-10 1h1m8 0h1m-9 1h1m6 0h2m-9 1h2m1 0h5m-7 1h1"/><path stroke="#fff" d="M1 11h29M1 12h1m-1 1h1m1 0h1m2 0h1m2 0h1m2 0h1m2 0h1m2 0h1m2 0h1m2 0h1m2 0h1M1 14h1m-1 1h1m-1 1h1m1 0h3m2 0h1m2 0h1m2 0h1m2 0h1m2 0h1m2 0h1m2 0h1M1 17h1m-1 1h1m-1 1h1m1 0h2m1 0h1m2 0h1m2 0h1m2 0h1m2 0h1m6 0h1M1 20h1m-1 1h1m16 0h3M1 22h1m1 0h3m2 0h1m2 0h5m1 0h3m1 0h3M1 23h1m16 0h1m1 0h2m1 0h2M1 24h1m15 0h1m1 0h2m1 0h4m-8 1h1m1 0h6m-7 1h1m1 0h4m1 0h1m-7 1h1m1 0h4m-6 1h1m1 0h3m1 0h1m-6 1h1m1 0h1"/><path stroke="silver" d="M4 13h1m2 0h1m2 0h1m2 0h1m2 0h1m2 0h1m2 0h1m2 0h1m2 0h1M3 14h2m1 0h2m1 0h2m1 0h2m1 0h2m1 0h2m1 0h2m1 0h2m1 0h2M6 16h1m2 0h1m2 0h1m2 0h1m2 0h1m2 0h1m2 0h1m2 0h2M3 17h4m1 0h2m1 0h2m1 0h2m1 0h2m1 0h2m1 0h2m1 0h3M7 19h1m2 0h1m2 0h1m2 0h1m9 0h3M3 20h2m1 0h2m1 0h2m1 0h2m1 0h2m2 0h1m1 0h3m2 0h3M6 22h1m2 0h1m14 0h2m2 0h1M3 23h4m1 0h2m1 0h5m1 0h1m7 0h2m-9 1h1m7 0h2m-9 1h1m6 0h2m-8 1h1m4 0h1m1 0h1m-7 1h1m4 0h2m-7 1h1m3 0h1m1 0h1m-6 1h1m1 0h3m-5 1h1"/><path stroke="navy" d="M22 23h1m-2 1h1"/></svg>