<svg xmlns="http://www.w3.org/2000/svg" viewBox="0 -0.5 32 32" shape-rendering="crispEdges">
<path stroke="#808080" d="M0 0h1M10 5h3M8 6h2M13 6h2M6 7h2M15 7h2M3 8h3M11 8h2M17 8h2M3 9h1M9 9h2M19 9h1M2 10h1M18 10h2M2 11h1M16 11h4M1 12h1M14 12h6M1 13h1M12 13h8M1 14h1M12 14h11M0 15h1M12 15h8M23 15h2M0 16h1M12 16h6M20 16h3M25 16h2M0 17h1M12 17h4M19 17h1M23 17h1M27 17h2M1 18h2M12 18h2M19 18h1M23 18h1M29 18h1M3 19h2M12 19h1M20 19h3M28 19h2M5 20h2M12 20h1M26 20h4M7 21h2M24 21h6M9 22h2M22 22h8M11 23h2M22 23h8M13 24h2M22 24h6M15 25h2M22 25h4M17 26h2M22 26h2M19 27h3" />
<path stroke="#c0c0c0" d="M0 0h1M10 6h3M8 7h7M6 8h5M13 8h4M5 9h4M11 9h7M7 10h9M4 11h2M9 11h5M3 12h5M3 13h8M3 14h8M2 15h9M20 15h3M2 16h9M18 16h2M23 16h2M1 17h10M16 17h3M20 17h3M24 17h3M3 18h8M15 18h4M20 18h3M24 18h4M5 19h6M17 19h3M23 19h3M7 20h4M14 20h2M19 20h5M9 21h2M13 21h5M13 22h8M13 23h8M15 24h6M17 25h4M19 26h2" />
<path stroke="#ff0000" d="M0 0h1M26 6h2M26 7h2M26 8h2M26 9h2M26 10h2M24 11h6M25 12h4M26 13h2" />
<path stroke="#800000" d="M0 0h1M28 6h1M28 7h1M28 8h1M28 9h1M28 10h1M30 11h1M29 12h1M28 13h1M27 14h1" />
<path stroke="#ffffff" d="M0 0h1M4 9h1M18 9h1M3 10h4M16 10h2M3 11h1M6 11h3M14 11h2M2 12h1M8 12h6M2 13h1M11 13h1M2 14h1M11 14h1M1 15h1M11 15h1M1 16h1M11 16h1M11 17h1M11 18h1M14 18h1M28 18h1M11 19h1M13 19h4M26 19h2M11 20h1M13 20h1M16 20h3M24 20h2M11 21h2M18 21h6M11 22h2M21 22h1M21 23h1M21 24h1M21 25h1M21 26h1" />
<path stroke="#000000" d="M0 0h1M20 10h1M20 11h1M20 12h1M20 13h1M30 19h1M30 20h1M30 21h1M30 22h1M30 23h1M28 24h2M26 25h2M24 26h2M22 27h2" />
</svg>