<svg xmlns="http://www.w3.org/2000/svg" width="32" height="32" shape-rendering="crispEdges" viewBox="0 -0.5 32 32"><path stroke="gray" d="M0 1h31M0 2h1m29 0h1M0 3h1m29 0h1M0 4h1m29 0h1M0 5h1m29 0h1M0 6h1m29 0h1M0 7h1m29 0h1M0 8h1m1 0h27m1 0h1M0 9h1m1 0h1m27 0h1M0 10h1m1 0h1m27 0h1M0 11h1m1 0h1m27 0h1M0 12h1m1 0h1m27 0h1M0 13h1m1 0h1m27 0h1M0 14h1m1 0h1m27 0h1M0 15h1m1 0h1m27 0h1M0 16h1m1 0h1m10 0h1m16 0h1M0 17h1m1 0h1m27 0h1M0 18h1m1 0h1m27 0h1M0 19h1m1 0h1m7 0h1m10 0h1m8 0h1M0 20h1m1 0h1m27 0h1M0 21h1m1 0h1m19 0h1m7 0h1M0 22h1m1 0h1m27 0h1M0 23h1m1 0h1m7 0h1m12 0h1m6 0h1M0 24h1m1 0h1m17 0h1m4 0h1m4 0h1M0 25h1m1 0h1m16 0h1m4 0h1m5 0h1M0 26h1m1 0h1m27 0h1M0 27h1m1 0h1m27 0h1M0 28h1m29 0h1M0 29h31"/><path stroke="#000" d="M31 1h1m-1 1h1m-1 1h1m-9 1h1m2 0h1m2 0h1m1 0h1m-9 1h1m2 0h1m2 0h1m1 0h1M21 6h9m1 0h1m-1 1h1m-1 1h1m-1 1h1m-1 1h1m-1 1h1m-1 1h1m-1 1h1m-1 1h1m-1 1h1m-1 1h1m-1 1h1m-1 1h1m-1 1h1m-1 1h1m-1 1h1m-1 1h1m-1 1h1m-1 1h1m-1 1h1m-1 1h1m-1 1h1m-1 1h1m-1 1h1M0 30h32"/><path stroke="silver" d="M1 2h29M1 3h1M1 4h1m19 0h2m1 0h2m1 0h2M1 5h1m19 0h2m1 0h2m1 0h2M1 6h1M1 7h29M1 8h1m27 0h1M1 9h1m27 0h1M1 10h1m12 0h1m2 0h1m11 0h1M1 11h1m27 0h1M1 12h1m27 0h1M1 13h1m15 0h1m11 0h1M1 14h1m27 0h1M1 15h1m27 0h1M1 16h1m27 0h1M1 17h1m9 0h1m17 0h1M1 18h1m8 0h1m3 0h1m14 0h1M1 19h1m11 0h1m15 0h1M1 20h1m10 0h1m16 0h1M1 21h1m27 0h1M1 22h1m10 0h1m16 0h1M1 23h1m11 0h1m4 0h1m10 0h1M1 24h1m12 0h1m2 0h1m3 0h1m7 0h1M1 25h1m27 0h1M1 26h1m11 0h1m4 0h1m10 0h1M1 27h1m27 0h1M1 28h29"/><path stroke="navy" d="M2 3h1m4 0h23M2 4h1m4 0h14M2 5h1m4 0h14M2 6h1m4 0h14"/><path stroke="red" d="M3 3h1"/><path stroke="maroon" d="M4 3h1M3 4h2"/><path stroke="#ff0" d="M5 3h1"/><path stroke="olive" d="M6 3h1M5 4h2"/><path stroke="#0ff" d="M3 5h1"/><path stroke="#00f" d="M4 5h1M3 6h2m10 4h2m-3 1h4m-4 1h4m-4 1h3m-3 1h2m-2 1h2m-2 1h6m-8 1h8m-9 1h3m1 0h2m-6 1h2m2 0h6m-11 1h2m3 0h7m-12 1h2m8 0h2m-12 1h2m9 0h2m-12 1h2m6 0h1m1 0h2m1 0h2m-15 1h3m4 0h2m2 0h3m-13 1h7m3 0h2m-10 1h4"/><path stroke="#0f0" d="M5 5h1"/><path stroke="green" d="M6 5h1M5 6h2"/><path stroke="#fff" d="M3 9h26M3 10h11m4 0h11M3 11h11m4 0h11M3 12h11m4 0h11M3 13h11m4 0h11M3 14h11m2 0h13M3 15h11m2 0h13M3 16h10m7 0h9M3 17h8m9 0h9M3 18h7m7 0h12M3 19h7m4 0h1m7 0h7M3 20h7m3 0h2m7 0h7M3 21h7m2 0h8m3 0h6M3 22h7m3 0h8m2 0h6M3 23h7m4 0h4m2 0h1m5 0h3M3 24h8m4 0h2m9 0h3M3 25h9m8 0h2m3 0h4M3 26h10m6 0h10M3 27h26"/></svg>