<svg xmlns="http://www.w3.org/2000/svg" viewBox="0 -0.5 32 32" shape-rendering="crispEdges">
<path stroke="#808080" d="M0 0h1M0 0h24M0 1h1M23 1h1M0 2h1M23 2h1M0 3h1M23 3h1M0 4h1M23 4h1M0 5h1M23 5h1M0 6h1M23 6h1M0 7h1M2 7h20M23 7h1M0 8h1M2 8h1M23 8h1M0 9h1M2 9h1M23 9h1M0 10h1M2 10h1M7 10h24M0 11h1M2 11h1M7 11h1M30 11h1M0 12h1M2 12h1M7 12h1M30 12h1M0 13h1M2 13h1M7 13h1M30 13h1M0 14h1M2 14h1M7 14h1M30 14h1M0 15h1M2 15h1M7 15h1M30 15h1M0 16h1M2 16h1M7 16h1M30 16h1M0 17h1M2 17h1M7 17h1M9 17h20M30 17h1M0 18h1M2 18h1M7 18h1M9 18h1M30 18h1M0 19h1M2 19h1M7 19h1M9 19h1M30 19h1M0 20h1M7 20h1M9 20h1M30 20h1M0 21h8M9 21h1M30 21h1M7 22h1M9 22h1M30 22h1M7 23h1M9 23h1M30 23h1M7 24h1M9 24h1M30 24h1M7 25h1M9 25h1M30 25h1M7 26h1M9 26h1M30 26h1M7 27h1M9 27h1M30 27h1M7 28h1M9 28h1M30 28h1M7 29h1M30 29h1M7 30h24" />
<path stroke="#000000" d="M0 0h1M24 0h1M24 1h1M24 2h1M16 3h1M19 3h1M22 3h1M24 3h1M16 4h1M19 4h1M22 4h1M24 4h1M14 5h9M24 5h1M24 6h1M24 7h1M24 8h1M24 9h1M31 10h1M31 11h1M31 12h1M23 13h1M26 13h1M29 13h1M31 13h1M23 14h1M26 14h1M29 14h1M31 14h1M21 15h9M31 15h1M31 16h1M31 17h1M31 18h1M31 19h1M31 20h1M31 21h1M0 22h7M31 22h1M31 23h1M31 24h1M31 25h1M31 26h1M31 27h1M31 28h1M31 29h1M31 30h1M7 31h25" />
<path stroke="#c0c0c0" d="M0 0h1M1 1h22M1 2h1M1 3h1M14 3h2M17 3h2M20 3h2M1 4h1M14 4h2M17 4h2M20 4h2M1 5h1M1 6h22M1 7h1M22 7h1M1 8h1M22 8h1M1 9h1M22 9h1M1 10h1M1 11h1M8 11h22M1 12h1M8 12h1M1 13h1M8 13h1M21 13h2M24 13h2M27 13h2M1 14h1M8 14h1M21 14h2M24 14h2M27 14h2M1 15h1M8 15h1M1 16h1M8 16h22M1 17h1M8 17h1M29 17h1M1 18h1M8 18h1M29 18h1M1 19h1M8 19h1M29 19h1M1 20h6M8 20h1M29 20h1M8 21h1M29 21h1M8 22h1M29 22h1M8 23h1M29 23h1M8 24h1M29 24h1M8 25h1M29 25h1M8 26h1M29 26h1M8 27h1M29 27h1M8 28h1M29 28h1M8 29h22" />
<path stroke="#000080" d="M0 0h1M2 2h21M2 3h12M2 4h12M2 5h12M9 12h1M14 12h16M9 13h1M14 13h7M9 14h1M14 14h7M9 15h1M14 15h7" />
<path stroke="#ffffff" d="M0 0h1M3 8h19M3 9h19M3 10h4M3 11h4M3 12h4M3 13h4M3 14h4M3 15h4M3 16h4M3 17h4M3 18h4M10 18h19M3 19h4M10 19h19M10 20h19M10 21h19M10 22h19M10 23h19M10 24h19M10 25h19M10 26h19M10 27h19M10 28h19" />
<path stroke="#ff0000" d="M0 0h1M10 12h1" />
<path stroke="#800000" d="M0 0h1M11 12h1M10 13h2" />
<path stroke="#ffff00" d="M0 0h1M12 12h1" />
<path stroke="#808000" d="M0 0h1M13 12h1M12 13h2" />
<path stroke="#00ffff" d="M0 0h1M10 14h1" />
<path stroke="#0000ff" d="M0 0h1M11 14h1M10 15h2" />
<path stroke="#00ff00" d="M0 0h1M12 14h1" />
<path stroke="#008000" d="M0 0h1M13 14h1M12 15h2" />
</svg>