<svg xmlns="http://www.w3.org/2000/svg" viewBox="0 -0.5 32 32" shape-rendering="crispEdges">
<path stroke="#000000" d="M0 0h1M21 2h1M22 3h1M23 4h1M24 5h1M25 6h1M26 7h1M27 8h1M28 9h1M29 10h1M30 11h1M25 12h7M24 13h1M27 13h1M23 14h1M28 14h1M22 15h1M28 15h1M20 16h2M29 16h1M20 17h1M29 17h1M20 18h1M30 18h1M21 19h1M30 19h1M21 20h1M28 20h3M21 21h1M22 22h1M22 23h1M22 24h1M20 25h2M18 26h2M16 27h2M14 28h2M12 29h2" />
<path stroke="#008080" d="M0 0h1M21 3h1M21 4h2M21 5h3M21 6h1M23 6h2M21 7h1M23 7h3M21 8h1M24 8h3M21 9h1M24 9h4M21 10h1M25 10h4M21 11h1M25 11h5M21 12h1M24 12h1M21 13h1M23 13h1M26 13h1M21 14h2M25 14h1M27 14h1M21 15h1M25 15h1M27 15h1M26 16h1M28 16h1M26 17h1M28 17h1M27 18h1M29 18h1M27 19h3" />
<path stroke="#00ffff" d="M0 0h1M22 6h1M22 7h1M22 8h2M22 9h2M22 10h3M22 11h3M22 12h2M22 13h1M25 13h1M26 14h1M26 15h1M27 16h1M27 17h1M28 18h1" />
<path stroke="#808080" d="M0 0h1M10 12h3M8 13h2M13 13h2M6 14h2M15 14h2M3 15h3M17 15h3M3 16h1M19 16h1M2 17h1M18 17h2M2 18h1M16 18h4M1 19h1M14 19h7M1 20h1M12 20h9M1 21h1M12 21h9M0 22h1M12 22h10M0 23h1M12 23h10M0 24h1M12 24h10M1 25h2M12 25h8M3 26h2M12 26h6M5 27h2M12 27h4M7 28h2M12 28h2M9 29h3" />
<path stroke="#c0c0c0" d="M0 0h1M10 13h3M8 14h7M6 15h11M5 16h13M7 17h9M4 18h2M9 18h5M3 19h5M3 20h8M3 21h8M2 22h9M2 23h9M1 24h10M3 25h8M5 26h6M7 27h4M9 28h2" />
<path stroke="#ffffff" d="M0 0h1M4 16h1M18 16h1M3 17h4M16 17h2M3 18h1M6 18h3M14 18h2M2 19h1M8 19h6M2 20h1M11 20h1M2 21h1M11 21h1M1 22h1M11 22h1M1 23h1M11 23h1M11 24h1M11 25h1M11 26h1M11 27h1M11 28h1" />
</svg>