<svg xmlns="http://www.w3.org/2000/svg" viewBox="0 -0.5 32 32" shape-rendering="crispEdges">
<path stroke="#808080" d="M0 0h1M0 2h31M0 3h1M30 3h1M0 4h1M30 4h1M0 5h1M30 5h1M0 6h1M30 6h1M0 7h1M30 7h1M0 8h1M30 8h1M0 9h1M2 9h27M30 9h1M0 10h1M2 10h1M30 10h1M0 11h1M2 11h1M30 11h1M0 12h1M2 12h1M30 12h1M0 13h1M2 13h1M30 13h1M0 14h1M2 14h1M30 14h1M0 15h1M2 15h1M30 15h1M0 16h1M2 16h1M30 16h1M0 17h1M2 17h1M30 17h1M0 18h1M2 18h1M30 18h1M0 19h1M2 19h1M30 19h1M0 20h1M2 20h1M30 20h1M0 21h1M2 21h1M30 21h1M0 22h1M2 22h1M30 22h1M0 23h1M2 23h1M30 23h1M0 24h1M2 24h1M30 24h1M0 25h1M2 25h1M30 25h1M0 26h1M2 26h1M30 26h1M0 27h1M30 27h1M0 28h31" />
<path stroke="#000000" d="M0 0h1M31 2h1M31 3h1M31 4h1M23 5h1M26 5h1M29 5h1M31 5h1M23 6h1M26 6h1M29 6h1M31 6h1M21 7h9M31 7h1M31 8h1M31 9h1M31 10h1M31 11h1M31 12h1M31 13h1M31 14h1M31 15h1M31 16h1M31 17h1M31 18h1M31 19h1M31 20h1M31 21h1M31 22h1M31 23h1M31 24h1M31 25h1M31 26h1M31 27h1M31 28h1M0 29h32" />
<path stroke="#c0c0c0" d="M0 0h1M1 3h29M1 4h1M1 5h1M21 5h2M24 5h2M27 5h2M1 6h1M21 6h2M24 6h2M27 6h2M1 7h1M1 8h29M1 9h1M29 9h1M1 10h1M29 10h1M1 11h1M29 11h1M1 12h1M29 12h1M1 13h1M29 13h1M1 14h1M29 14h1M1 15h1M15 15h1M20 15h1M29 15h1M1 16h1M16 16h1M29 16h1M1 17h1M7 17h1M29 17h1M1 18h1M6 18h1M29 18h1M1 19h1M29 19h1M1 20h1M8 20h1M16 20h1M29 20h1M1 21h1M15 21h1M20 21h1M29 21h1M1 22h1M29 22h1M1 23h1M29 23h1M1 24h1M29 24h1M1 25h1M29 25h1M1 26h1M29 26h1M1 27h29" />
<path stroke="#000080" d="M0 0h1M2 4h1M7 4h23M2 5h1M7 5h14M2 6h1M7 6h14M2 7h1M7 7h14" />
<path stroke="#ff0000" d="M0 0h1M3 4h1" />
<path stroke="#800000" d="M0 0h1M4 4h1M3 5h2" />
<path stroke="#ffff00" d="M0 0h1M5 4h1" />
<path stroke="#808000" d="M0 0h1M6 4h1M5 5h2" />
<path stroke="#00ffff" d="M0 0h1M3 6h1" />
<path stroke="#0000ff" d="M0 0h1M4 6h1M3 7h2" />
<path stroke="#00ff00" d="M0 0h1M5 6h1" />
<path stroke="#008000" d="M0 0h1M6 6h1M5 7h2" />
<path stroke="#ffffff" d="M0 0h1M3 10h26M3 11h26M3 12h26M3 13h10M15 13h14M3 14h10M15 14h14M3 15h4M11 15h2M18 15h2M25 15h4M3 16h3M7 16h3M12 16h1M19 16h1M22 16h2M26 16h3M3 17h4M12 17h1M15 17h2M19 17h1M22 17h7M3 18h3M9 18h1M12 18h1M15 18h2M19 18h1M22 18h7M3 19h3M8 19h2M12 19h1M15 19h2M19 19h1M22 19h7M3 20h3M9 20h1M12 20h1M19 20h1M22 20h2M26 20h3M3 21h4M12 21h1M18 21h2M25 21h4M3 22h26M3 23h26M3 24h26M3 25h26M3 26h26" />
<path stroke="#800080" d="M0 0h1M13 13h2M13 14h2M7 15h4M13 15h2M16 15h2M21 15h4M6 16h1M10 16h2M13 16h3M17 16h2M20 16h2M24 16h2M8 17h4M13 17h2M17 17h2M20 17h2M7 18h2M10 18h2M13 18h2M17 18h2M20 18h2M6 19h2M10 19h2M13 19h2M17 19h2M20 19h2M6 20h2M10 20h2M13 20h3M17 20h2M20 20h2M24 20h2M7 21h5M13 21h2M16 21h2M21 21h4" />
</svg>