<svg xmlns="http://www.w3.org/2000/svg" viewBox="0 -0.5 32 32" shape-rendering="crispEdges">
<path stroke="#000000" d="M0 0h1M20 0h1M19 1h1M21 1h1M20 2h2M22 3h3M25 4h1M25 5h1M5 6h2M8 6h2M11 6h2M14 6h2M17 6h2M20 6h2M25 6h1M3 7h2M6 7h2M9 7h2M12 7h2M15 7h2M18 7h2M21 7h4M2 8h1M2 9h1M28 11h1M28 12h1M8 13h1M14 13h1M20 13h1M26 13h1M28 13h1M8 14h1M14 14h1M20 14h1M26 14h1M28 14h1M8 15h1M14 15h1M20 15h1M26 15h1M28 15h1M8 16h1M14 16h1M20 16h1M26 16h1M28 16h1M8 17h1M14 17h1M20 17h1M26 17h1M28 17h1M3 18h24M28 18h1M8 19h1M14 19h1M20 19h1M26 19h1M28 19h1M8 20h1M14 20h1M20 20h1M26 20h1M28 20h1M8 21h1M14 21h1M20 21h1M26 21h1M28 21h1M8 22h1M14 22h1M20 22h1M26 22h1M28 22h1M8 23h1M14 23h1M20 23h1M26 23h1M28 23h1M3 24h24M28 24h1M28 25h1M1 26h27" />
<path stroke="#ffff00" d="M0 0h1M20 1h1" />
<path stroke="#808080" d="M0 0h1M1 10h27M0 11h1M27 11h1M0 12h1M2 12h26M0 13h1M2 13h1M27 13h1M0 14h1M2 14h1M27 14h1M0 15h1M2 15h1M27 15h1M0 16h1M2 16h1M27 16h1M0 17h1M2 17h1M27 17h1M0 18h1M2 18h1M27 18h1M0 19h1M2 19h1M27 19h1M0 20h1M2 20h1M27 20h1M0 21h1M2 21h1M27 21h1M0 22h1M2 22h1M27 22h1M0 23h1M2 23h1M27 23h1M0 24h1M2 24h1M27 24h1M0 25h28" />
<path stroke="#ffffff" d="M0 0h1M1 11h26M1 12h1M1 13h1M3 13h5M9 13h5M15 13h5M21 13h5M1 14h1M3 14h1M9 14h1M15 14h1M21 14h1M1 15h1M3 15h1M9 15h1M15 15h1M21 15h1M1 16h1M3 16h1M9 16h1M15 16h1M21 16h1M1 17h1M3 17h1M9 17h1M15 17h1M21 17h1M1 18h1M1 19h1M3 19h5M9 19h5M15 19h5M21 19h5M1 20h1M3 20h1M9 20h1M15 20h1M21 20h1M1 21h1M3 21h1M9 21h1M15 21h1M21 21h1M1 22h1M3 22h1M9 22h1M15 22h1M21 22h1M1 23h1M3 23h1M9 23h1M15 23h1M21 23h1M1 24h1" />
<path stroke="#c0c0c0" d="M0 0h1M4 14h4M10 14h4M16 14h4M22 14h4M4 15h4M10 15h4M16 15h4M22 15h4M4 16h4M10 16h4M16 16h4M22 16h4M4 17h4M10 17h4M16 17h4M22 17h4M4 20h4M10 20h4M16 20h4M22 20h4M4 21h4M10 21h4M16 21h4M22 21h4M4 22h4M10 22h4M16 22h4M22 22h4M4 23h4M10 23h4M16 23h4M22 23h4" />
</svg>