<svg xmlns="http://www.w3.org/2000/svg" width="16" height="16" shape-rendering="crispEdges" viewBox="0 -0.5 16 16"><path stroke="gray" d="M11 0h3M8 1h3M5 2h3m5 0h1M3 3h2M2 4h1m0 1h1m2 0h1m1 0h1m1 0h1m1 0h1m1 0h1m-1 2h1m-1 1h1m-1 1h1m-1 1h1m-1 1h1m-1 1h1m-1 1h1m-9 1h9"/><path stroke="#fff" d="M11 1h2M8 2h2M5 3h2M3 4h2m2 2h1m1 0h1m1 0h1m1 0h1M8 7h1m1 0h1m1 0h1M8 8h6M8 9h6m-6 1h6m-6 1h6m-6 1h6m-7 1h7"/><path stroke="#000" d="M13 1h1m-4 1h3M7 3h3M5 4h2M2 5h1m2 0h1m1 0h1m1 0h1m1 0h1m1 0h1M2 6h1m3 0h1m1 0h1m1 0h1m1 0h1m1 0h2M7 7h1m1 0h1m1 0h1m1 0h1m1 0h1m-1 1h1M7 9h1m7 0h1m-9 1h1m7 0h1m-9 1h1m7 0h1m-9 1h1m7 0h1M6 13h1m8 0h1M5 14h1m9 0h1M3 15h13"/><path stroke="olive" d="M4 5h1M3 6h1m1 0h1M2 7h1m3 0h1M1 8h1m5 0h1"/><path stroke="#ff0" d="M4 6h1M3 7h3M2 8h5M2 9h5m-4 1h3m-2 1h1"/><path stroke="maroon" d="M1 9h1m-1 1h1m-1 1h1m-1 1h1m0 1h1m0 1h1"/><path stroke="red" d="M2 10h1m-1 1h2m-2 1h2m-1 1h1"/><path stroke="#00f" d="M6 10h1m-2 1h2m-3 1h3m-3 1h2m-2 1h1"/></svg>