<svg xmlns="http://www.w3.org/2000/svg" width="32" height="32" shape-rendering="crispEdges" viewBox="0 -0.5 32 32"><path stroke="olive" d="M5 1h1M4 2h1m1 0h1M3 3h1m3 0h1M2 4h1m5 0h1M7 14h1m-2 1h1m1 0h1m-4 1h1m3 0h1m-6 1h1m5 0h1m-8 1h1m7 0h1M2 19h1m9 0h1m4 1h1m-2 1h1m1 0h1m-4 1h1m3 0h1m-6 1h1m5 0h1"/><path stroke="#ff0" d="M5 2h1M4 3h3M3 4h5M3 5h5M4 6h3M5 7h1m1 6h1m1 0h1m-2 1h1m-2 1h1m1 0h1m-4 1h3m-4 1h5m-6 1h7m-8 1h9m-9 1h9m-8 1h7m6 0h1M5 22h5m6 0h3M6 23h3m6 0h5M7 24h1m7 0h5m-4 1h3m-2 1h1"/><path stroke="#000" d="M27 2h1m-3 1h3m-5 1h3m2 0h1M8 5h1m12 0h9M8 6h1m10 0h3m5 0h2M8 7h1m8 0h10M8 8h1m6 0h3m5 0h2M7 9h1m5 0h10M6 10h1m5 0h2m4 0h3M5 11h1m4 0h9M7 12h3m5 0h2M6 13h1m3 0h5m-9 1h1m3 0h3m-3 1h4m2 0h3m2 0h3m2 0h3m-19 1h2m2 0h3m2 0h3m2 0h3m2 0h1m1 0h1m-20 1h3m2 0h3m2 0h3m2 0h3m1 0h1m-20 1h1m2 0h3m2 0h3m2 0h3m3 0h1m-19 1h3m2 0h3m2 0h3m2 0h2m1 0h1m-20 1h1m18 0h1m-20 1h1m18 0h1m-20 1h1m18 0h1m-20 1h1m18 0h1m-20 1h1m7 0h1m10 0h1m-21 1h1m8 0h1m10 0h1m-22 1h1m9 0h1m10 0h1M9 27h1m10 0h1m10 0h1M8 28h1m10 0h1m11 0h1M7 29h1m10 0h1m12 0h1M7 30h1m9 0h1m13 0h1M7 31h25"/><path stroke="#fff" d="M26 4h2m-6 2h5m-9 2h5m-9 2h4m-8 2h5m-7 1h1m0 1h1m2 2h2m3 0h2m3 0h2m3 0h2m-18 1h1m3 0h2m3 0h2m3 0h2m-14 1h2m3 0h2m3 0h2m3 0h2m-14 1h2m3 0h2m3 0h2m-15 1h4m1 0h12m-17 1h3m3 0h11m-17 1h2m5 0h10m-17 1h1m7 0h9m-17 1h1m7 0h9m-18 1h2m7 0h9m-19 1h3m7 0h9m-20 1h4m7 0h9M9 28h6m5 0h10M8 29h8m3 0h11"/><path stroke="maroon" d="M2 5h1M2 6h1M2 7h1M2 8h1m0 1h1m0 1h1M2 20h1m-1 1h1m-1 1h1m-1 1h1m-1 1h1m11 0h1M3 25h1m10 0h1M4 26h1m9 0h1M5 27h1m8 0h1m-9 1h1m8 0h1m0 1h1"/><path stroke="red" d="M3 6h1M3 7h2M3 8h2M4 9h1M3 21h1m-1 1h2m-2 1h3m-3 1h4m-3 1h3m8 0h1M5 26h2m8 0h2M6 27h1m8 0h2m-1 1h1"/><path stroke="#00f" d="M7 6h1M6 7h2M5 8h3M5 9h2m-2 1h1m5 11h1m-2 1h2m-3 1h3m-4 1h4m-5 1h4m8 0h1M7 26h3m8 0h2M7 27h2m8 0h3M7 28h1m9 0h2m-2 1h1"/><path stroke="gray" d="M14 15h2m3 0h2m3 0h2m3 0h2m-1 1h1m-1 1h1m-1 1h1m-1 1h1m-1 1h1m-1 1h1m-1 1h1m-1 1h1m-1 1h1m-1 1h1m-1 1h1m-1 1h1m-1 1h1m-1 1h1M8 30h9m1 0h13"/></svg>