<svg xmlns="http://www.w3.org/2000/svg" viewBox="0 -0.5 16 16" shape-rendering="crispEdges">
<path stroke="#000000" d="M0 0h1M2 2h4M9 2h4M0 3h3M6 3h1M8 3h1M12 3h3M0 4h1M2 4h1M4 4h2M7 4h1M12 4h1M14 4h1M0 5h1M2 5h1M6 5h2M9 5h2M12 5h3M0 6h1M2 6h1M4 6h2M7 6h2M12 6h1M14 6h1M0 7h1M2 7h1M6 7h2M9 7h2M12 7h3M0 8h1M2 8h1M7 8h2M12 8h1M14 8h1M0 9h1M2 9h1M4 9h2M7 9h1M12 9h3M0 10h1M2 10h1M6 10h2M12 10h1M14 10h1M0 11h1M2 11h4M7 11h1M9 11h6M0 12h1M6 12h3M14 12h1M0 13h15" />
<path stroke="#ffffff" d="M0 0h1M3 3h3M9 3h3M3 4h1M6 4h1M8 4h4M3 5h3M8 5h1M11 5h1M3 6h1M6 6h1M9 6h3M13 6h1M3 7h3M8 7h1M11 7h1M3 8h4M9 8h3M3 9h1M6 9h1M8 9h4M3 10h3M8 10h4M6 11h1M8 11h1" />
<path stroke="#c0c0c0" d="M0 0h1M1 4h1M1 5h1M1 6h1M1 7h1M1 8h1M1 9h1M1 10h1M1 11h1M1 12h1M13 12h1" />
<path stroke="#ff0000" d="M0 0h1M13 4h1" />
<path stroke="#ffff00" d="M0 0h1M13 8h1" />
<path stroke="#00ffff" d="M0 0h1M13 10h1" />
<path stroke="#808080" d="M0 0h1M2 12h4M9 12h4" />
</svg>