<svg xmlns="http://www.w3.org/2000/svg" viewBox="0 -0.5 16 16" shape-rendering="crispEdges">
<path stroke="#808080" d="M0 0h1M11 0h3M8 1h3M5 2h3M13 2h1M3 3h2M2 4h1M3 5h1M6 5h1M8 5h1M10 5h1M12 5h1M14 5h1M14 7h1M14 8h1M14 9h1M14 10h1M14 11h1M14 12h1M14 13h1M6 14h9" />
<path stroke="#ffffff" d="M0 0h1M11 1h2M8 2h2M5 3h2M3 4h2M7 6h1M9 6h1M11 6h1M13 6h1M8 7h1M10 7h1M12 7h1M8 8h6M8 9h6M8 10h6M8 11h6M8 12h6M7 13h7" />
<path stroke="#000000" d="M0 0h1M13 1h1M10 2h3M7 3h3M5 4h2M2 5h1M5 5h1M7 5h1M9 5h1M11 5h1M13 5h1M2 6h1M6 6h1M8 6h1M10 6h1M12 6h1M14 6h2M7 7h1M9 7h1M11 7h1M13 7h1M15 7h1M15 8h1M7 9h1M15 9h1M7 10h1M15 10h1M7 11h1M15 11h1M7 12h1M15 12h1M6 13h1M15 13h1M5 14h1M15 14h1M3 15h13" />
<path stroke="#808000" d="M0 0h1M4 5h1M3 6h1M5 6h1M2 7h1M6 7h1M1 8h1M7 8h1" />
<path stroke="#ffff00" d="M0 0h1M4 6h1M3 7h3M2 8h5M2 9h5M3 10h3M4 11h1" />
<path stroke="#800000" d="M0 0h1M1 9h1M1 10h1M1 11h1M1 12h1M2 13h1M3 14h1" />
<path stroke="#ff0000" d="M0 0h1M2 10h1M2 11h2M2 12h2M3 13h1" />
<path stroke="#0000ff" d="M0 0h1M6 10h1M5 11h2M4 12h3M4 13h2M4 14h1" />
</svg>