<svg xmlns="http://www.w3.org/2000/svg" viewBox="0 -0.5 16 16" shape-rendering="crispEdges">
<path stroke="#808080" d="M0 0h1M0 0h11M0 1h1M0 2h1M0 3h1M0 4h1M0 5h1M7 5h8M0 6h1M0 7h1M0 8h1M4 8h1M0 9h1M4 9h1M4 10h1M4 11h1M4 12h1M4 13h1M4 14h1" />
<path stroke="#000000" d="M0 0h1M11 0h1M11 1h1M11 2h1M11 3h1M11 4h1M15 5h1M15 6h1M15 7h1M15 8h1M15 9h1M0 10h4M15 10h1M15 11h1M15 12h1M15 13h1M15 14h1M4 15h12" />
<path stroke="#000080" d="M0 0h1M1 1h10M1 2h10M5 6h10M5 7h10" />
<path stroke="#c0c0c0" d="M0 0h1M1 3h3M5 3h6M10 4h1M5 8h10M1 9h3M14 9h1M14 10h1M14 11h1M14 12h1M14 13h1M5 14h10" />
<path stroke="#ff0000" d="M0 0h1M4 3h1M4 4h1M2 5h2M5 5h2M3 6h2M2 7h1M4 7h1M10 11h1M12 11h1M11 12h2" />
<path stroke="#ffffff" d="M0 0h1M1 4h3M5 4h5M1 5h1M4 5h1M1 6h2M1 7h1M3 7h1M1 8h3M5 9h9M5 10h1M9 10h2M13 10h1M5 11h1M9 11h1M13 11h1M5 12h2M9 12h2M13 12h1M5 13h9" />
<path stroke="#00ff00" d="M0 0h1M6 10h1" />
<path stroke="#008000" d="M0 0h1M7 10h2M6 11h1M8 11h1M7 12h2" />
<path stroke="#ff00ff" d="M0 0h1M11 10h2" />
<path stroke="#ffff00" d="M0 0h1M7 11h1M11 11h1" />
</svg>