<svg xmlns="http://www.w3.org/2000/svg" width="32" height="32" shape-rendering="crispEdges" viewBox="0 -0.5 32 32"><path stroke="gray" d="M8 0h23M8 1h1M8 2h1M8 3h1M8 4h1M8 5h1M8 6h1M8 7h1M8 8h1M8 9h1m-1 1h1m1 0h3m-5 1h2m3 0h3m-9 1h1m8 0h4m3 0h4M6 13h1m12 0h1M6 14h1m10 0h3M5 15h1m10 0h1M5 16h1m9 0h1M5 17h1m8 0h1M5 18h1m-1 1h1m17 0h4M5 20h1m-1 1h1m-1 1h1m-2 1h1m-1 1h1m-2 1h1m-2 1h1m-1 1h1"/><path stroke="#000" d="M31 0h1m-1 1h1m-1 1h1m-1 1h1m-1 1h1m-1 1h1m-1 1h1m-1 1h1m-1 1h1m-6 1h1m4 0h1m-8 1h3m4 0h1m-1 1h1m-1 1h1m-1 1h1m-12 1h1m10 0h1m-11 1h1m9 0h1m-16 1h2m3 0h1m9 0h1m-17 1h1m2 0h2m1 0h1m2 0h3m4 0h1m-18 1h1m5 0h2m9 0h1m-18 1h1m6 0h1m9 0h1m-18 1h1m16 0h1m-18 1h18m-18 1h1m-1 1h1m-1 1h1m-1 1h1m-1 1h1M0 27h2m11 0h1M2 28h2m9 0h1M4 29h2m6 0h1m-7 1h2m2 0h2m-4 1h2"/><path stroke="silver" d="M9 1h22M9 2h1m20 0h1M9 3h1m20 0h1M9 4h1m20 0h1M9 5h22M9 6h1m20 0h1M9 7h1m20 0h1M9 8h1m20 0h1M9 9h1m20 0h1M9 10h1m20 0h1m-19 1h1m17 0h1m-16 1h1m14 0h1m-13 1h1m11 0h1m-1 1h1m-11 1h1m9 0h1m-11 1h1m9 0h1m-11 1h1m9 0h1m-18 1h1m16 0h1M6 19h1m6 0h1m16 0h1m-18 1h1m1 0h16m-18 1h1m-8 1h1m6 0h1m-1 1h1m-9 1h1m7 0h1m-1 1h1m-1 1h1M3 27h1m8 0h1m-9 1h2m6 0h1m-7 1h2m2 0h2m-4 1h2"/><path stroke="navy" d="M10 2h20M10 3h20M10 4h20M19 9h1m-3 1h3"/><path stroke="#fff" d="M10 6h20M10 7h8m2 0h5m2 0h3M10 8h7m3 0h4m3 0h3M10 9h6m4 0h3m4 0h3m-17 1h4m3 0h4m3 0h3m-19 1h1m4 0h14M9 12h3m1 0h2m5 0h3m4 0h3M7 13h1m3 0h3m1 0h3m2 0h10M7 14h1m1 0h1m3 0h3m5 0h4m2 0h3M9 15h1m1 0h1m3 0h1m1 0h3m2 0h2m3 0h3M6 16h2m3 0h1m1 0h2m3 0h2m2 0h1m4 0h3M8 17h2m3 0h1m2 0h2m4 0h2m3 0h3M6 18h2m2 0h2m3 0h5m2 0h8M7 19h3m2 0h1m2 0h6m1 0h1m4 0h3M6 20h1m2 0h3m-5 1h2m2 0h2m-4 1h2m-4 1h1m3 0h2m-6 1h1m1 0h1m-6 1h2m3 0h1m1 0h2M3 26h1m1 0h3m3 0h1m-8 1h2m1 0h3m1 0h1m-6 1h2m1 0h3m-4 1h2"/><path stroke="teal" d="M18 7h2m-3 1h1m1 0h1m-4 1h3"/><path stroke="#f0f" d="M25 7h2m-3 1h1m1 0h1m-4 1h3"/><path stroke="#0ff" d="M18 8h1m6 6h1m-1 1h1"/><path stroke="#ff0" d="M25 8h1m-16 3h1m-3 1h1m3 0h1m-3 1h1m3 0h1m-7 1h1m3 0h1m3 0h1M6 15h1m3 0h1m3 0h1m-7 1h1m3 0h1m-7 1h1m3 0h1m1 1h1m-1 2h1m-7 1h1m1 1h1m3 0h1m-7 1h1m3 0h1m-3 1h1m3 0h1m-7 1h1m3 0h1m-7 1h1m3 0h1m3 0h1m-7 1h1m3 0h1m-3 1h1"/><path stroke="#00f" d="M8 13h2m0 1h2m-5 1h2m3 0h2m-5 1h2m-4 1h1m3 0h2m-5 1h2m0 1h2m-5 1h2m0 1h2m-4 1h1m3 0h1m-4 1h2m-4 1h1m3 0h2m-5 1h2m0 1h2"/><path stroke="red" d="M26 14h1m-3 1h1m1 0h1m-2 1h1"/><path stroke="maroon" d="M23 16h2m1 0h1"/></svg>