<svg xmlns="http://www.w3.org/2000/svg" viewBox="0 -0.5 32 32" shape-rendering="crispEdges">
<path stroke="#808080" d="M0 0h1M8 0h23M8 1h1M8 2h1M8 3h1M8 4h1M8 5h1M8 6h1M8 7h1M8 8h1M8 9h1M8 10h1M10 10h3M8 11h2M13 11h3M7 12h1M16 12h4M23 12h4M6 13h1M19 13h1M6 14h1M17 14h3M5 15h1M16 15h1M5 16h1M15 16h1M5 17h1M14 17h1M5 18h1M5 19h1M23 19h4M5 20h1M5 21h1M5 22h1M4 23h1M4 24h1M3 25h1M2 26h1M2 27h1" />
<path stroke="#000000" d="M0 0h1M31 0h1M31 1h1M31 2h1M31 3h1M31 4h1M31 5h1M31 6h1M31 7h1M31 8h1M26 9h1M31 9h1M24 10h3M31 10h1M31 11h1M31 12h1M31 13h1M20 14h1M31 14h1M21 15h1M31 15h1M16 16h2M21 16h1M31 16h1M15 17h1M18 17h2M21 17h1M24 17h3M31 17h1M14 18h1M20 18h2M31 18h1M14 19h1M21 19h1M31 19h1M14 20h1M31 20h1M14 21h18M14 22h1M14 23h1M14 24h1M14 25h1M14 26h1M0 27h2M13 27h1M2 28h2M13 28h1M4 29h2M12 29h1M6 30h2M10 30h2M8 31h2" />
<path stroke="#c0c0c0" d="M0 0h1M9 1h22M9 2h1M30 2h1M9 3h1M30 3h1M9 4h1M30 4h1M9 5h22M9 6h1M30 6h1M9 7h1M30 7h1M9 8h1M30 8h1M9 9h1M30 9h1M9 10h1M30 10h1M12 11h1M30 11h1M15 12h1M30 12h1M18 13h1M30 13h1M30 14h1M20 15h1M30 15h1M20 16h1M30 16h1M20 17h1M30 17h1M13 18h1M30 18h1M6 19h1M13 19h1M30 19h1M13 20h1M15 20h16M13 21h1M6 22h1M13 22h1M13 23h1M5 24h1M13 24h1M13 25h1M13 26h1M3 27h1M12 27h1M4 28h2M12 28h1M6 29h2M10 29h2M8 30h2" />
<path stroke="#000080" d="M0 0h1M10 2h20M10 3h20M10 4h20M19 9h1M17 10h3" />
<path stroke="#ffffff" d="M0 0h1M10 6h20M10 7h8M20 7h5M27 7h3M10 8h7M20 8h4M27 8h3M10 9h6M20 9h3M27 9h3M13 10h4M20 10h4M27 10h3M11 11h1M16 11h14M9 12h3M13 12h2M20 12h3M27 12h3M7 13h1M11 13h3M15 13h3M20 13h10M7 14h1M9 14h1M13 14h3M21 14h4M27 14h3M9 15h1M11 15h1M15 15h1M17 15h3M22 15h2M27 15h3M6 16h2M11 16h1M13 16h2M18 16h2M22 16h1M27 16h3M8 17h2M13 17h1M16 17h2M22 17h2M27 17h3M6 18h2M10 18h2M15 18h5M22 18h8M7 19h3M12 19h1M15 19h6M22 19h1M27 19h3M6 20h1M9 20h3M7 21h2M11 21h2M9 22h2M7 23h1M11 23h2M7 24h1M9 24h1M4 25h2M9 25h1M11 25h2M3 26h1M5 26h3M11 26h1M4 27h2M7 27h3M11 27h1M6 28h2M9 28h3M8 29h2" />
<path stroke="#008080" d="M0 0h1M18 7h2M17 8h1M19 8h1M16 9h3" />
<path stroke="#ff00ff" d="M0 0h1M25 7h2M24 8h1M26 8h1M23 9h3" />
<path stroke="#00ffff" d="M0 0h1M18 8h1M25 14h1M25 15h1" />
<path stroke="#ffff00" d="M0 0h1M25 8h1M10 11h1M8 12h1M12 12h1M10 13h1M14 13h1M8 14h1M12 14h1M16 14h1M6 15h1M10 15h1M14 15h1M8 16h1M12 16h1M6 17h1M10 17h1M12 18h1M12 20h1M6 21h1M8 22h1M12 22h1M6 23h1M10 23h1M8 24h1M12 24h1M6 25h1M10 25h1M4 26h1M8 26h1M12 26h1M6 27h1M10 27h1M8 28h1" />
<path stroke="#0000ff" d="M0 0h1M8 13h2M10 14h2M7 15h2M12 15h2M9 16h2M7 17h1M11 17h2M8 18h2M10 19h2M7 20h2M9 21h2M7 22h1M11 22h1M8 23h2M6 24h1M10 24h2M7 25h2M9 26h2" />
<path stroke="#ff0000" d="M0 0h1M26 14h1M24 15h1M26 15h1M25 16h1" />
<path stroke="#800000" d="M0 0h1M23 16h2M26 16h1" />
</svg>