<svg xmlns="http://www.w3.org/2000/svg" width="32" height="32" shape-rendering="crispEdges" viewBox="0 -0.5 32 32"><path stroke="gray" d="M0 1h23M0 2h1M0 3h1M0 4h1M0 5h1M0 6h1M0 7h1M0 8h1M0 9h1m9 0h21M0 10h1m-1 1h1m7 0h1m-9 1h1m-1 1h1m7 0h1m-9 1h1m-1 1h1m7 0h1m-9 1h1m7 0h1m-9 1h1m7 0h1m-9 1h1m7 0h1m-9 1h1m7 0h1m-9 1h1m7 0h1m2 0h4m3 0h4m3 0h4M0 21h1m7 0h1m-1 1h1m-1 1h1m-1 1h1m-1 1h1m-1 1h1m-1 1h1m2 0h4m3 0h4m3 0h4M8 28h1m-1 1h1"/><path stroke="#000" d="M23 1h1m-1 1h1m-6 1h1m1 0h1m1 0h2m-7 1h7m-1 1h1m-1 1h1m-1 1h1m-1 1h1m7 1h1m-1 1h1m-6 1h1m1 0h1m1 0h2m-7 1h7m-1 1h1m-1 1h1m-1 1h1m-1 1h1m-1 1h1m-20 1h3m11 0h3m2 0h1m-1 1h1m-1 1h1m-1 1h1M0 22h8m23 0h1m-1 1h1m-11 1h1m9 0h1m-20 1h3m4 0h3m4 0h3m2 0h1m-1 1h1m-1 1h1m-1 1h1m-1 1h1M8 30h24"/><path stroke="navy" d="M1 2h22M1 3h16M1 4h16m-5 6h19m-21 1h15M9 12h1m1 0h14m3 3h1m-1 1h1m-8 1h1m3 0h4m-10 1h3"/><path stroke="#fff" d="M17 3h1m1 0h1m1 0h1M2 6h1m1 0h4m1 0h3m1 0h9M2 7h3m1 0h2m1 0h2m1 0h10M2 8h3m2 0h1m1 0h1m2 0h10M2 9h4m2 0h1m-6 1h1m-2 1h5m18 0h1m1 0h1m1 0h1M2 12h4m-4 1h3m2 0h1m-6 1h2m1 0h3m2 0h2m1 0h17M2 15h6m2 0h2m3 0h4m3 0h4m3 0h1M2 16h6m2 0h2m3 0h4m3 0h4m3 0h1M2 17h6m2 0h1m4 0h3m4 0h3m4 0h1M2 18h6m2 0h2m3 0h4m3 0h4m3 0h1M2 19h6m2 0h20M2 20h6m2 0h1m4 0h3m4 0h3m4 0h1m-20 1h20m-20 1h3m2 0h5m2 0h4m3 0h1m-20 1h2m3 0h4m3 0h4m3 0h1m-20 1h1m4 0h3m4 0h3m4 0h1m-20 1h2m3 0h4m3 0h4m3 0h1m-20 1h20m-20 1h1m4 0h3m4 0h3m4 0h1m-20 1h20"/><path stroke="silver" d="M1 5h22M1 6h1m20 0h1M1 7h1m6 0h1m13 0h1M1 8h1m3 0h1m5 0h1m10 0h1M1 9h1m4 0h1m-6 1h1m5 0h1m1 0h1m-9 1h1m-1 1h1m5 0h1m-7 1h1m4 0h1m2 0h2m1 0h19M1 14h1m7 0h1m20 0h1M1 15h1m7 0h1m20 0h1M1 16h1m7 0h1m20 0h1M1 17h1m7 0h1m20 0h1M1 18h1m7 0h1m20 0h1M1 19h1m7 0h1m20 0h1M1 20h1m7 0h1m20 0h1M1 21h7m1 0h1m20 0h1M9 22h1m20 0h1M9 23h1m20 0h1M9 24h1m20 0h1M9 25h1m20 0h1M9 26h1m20 0h1M9 27h1m20 0h1M9 28h1m20 0h1M9 29h22"/><path stroke="#ff0" d="M3 6h1m8 0h1M2 10h1m1 0h1m3 0h1m-5 4h1m7 0h1m0 2h1m-1 7h1m6 0h1m6 0h1"/><path stroke="red" d="M8 6h1M5 7h1m5 0h1M6 8h1m1 0h1m1 0h1M7 9h1m1 0h1m-5 1h2m3 0h2m-5 1h1m1 0h1m-4 1h1m1 0h1m1 0h1m-6 1h1m5 0h1m-4 1h1m17 8h2m-2 1h1"/><path stroke="#0f0" d="M12 15h2m-2 1h1"/><path stroke="green" d="M14 15h1m-1 1h1m-4 1h4"/><path stroke="teal" d="M19 15h3m-3 1h1m1 0h1m-4 1h3"/><path stroke="#00f" d="M26 15h2m-2 1h1"/><path stroke="#0ff" d="M20 16h1m6 0h1"/><path stroke="#f0f" d="M13 22h2m-3 1h1m1 0h1m-2 1h1"/><path stroke="olive" d="M20 22h2m-3 1h1m1 0h1m-4 1h3"/><path stroke="maroon" d="M28 22h1m-1 1h1m-4 1h4"/><path stroke="purple" d="M11 24h2m1 0h1"/></svg>