<svg xmlns="http://www.w3.org/2000/svg" width="16" height="16" shape-rendering="crispEdges" viewBox="0 -0.5 16 16"><path stroke="gray" d="M0 0h11M0 1h1M0 2h1M0 3h1M0 4h1M0 5h1m6 0h8M0 6h1M0 7h1M0 8h1m3 0h1M0 9h1m3 0h1m-1 1h1m-1 1h1m-1 1h1m-1 1h1m-1 1h1"/><path stroke="#000" d="M11 0h1m-1 1h1m-1 1h1m-1 1h1m-1 1h1m3 1h1m-1 1h1m-1 1h1m-1 1h1m-1 1h1M0 10h4m11 0h1m-1 1h1m-1 1h1m-1 1h1m-1 1h1M4 15h12"/><path stroke="navy" d="M1 1h10M1 2h10M5 6h10M5 7h10"/><path stroke="silver" d="M1 3h3m1 0h6m-1 1h1M5 8h10M1 9h3m10 0h1m-1 1h1m-1 1h1m-1 1h1m-1 1h1M5 14h10"/><path stroke="red" d="M4 3h1M4 4h1M2 5h2m1 0h2M3 6h2M2 7h1m1 0h1m5 4h1m1 0h1m-2 1h2"/><path stroke="#fff" d="M1 4h3m1 0h5M1 5h1m2 0h1M1 6h2M1 7h1m1 0h1M1 8h3m1 1h9m-9 1h1m3 0h2m2 0h1m-9 1h1m3 0h1m3 0h1m-9 1h2m2 0h2m2 0h1m-9 1h9"/><path stroke="#0f0" d="M6 10h1"/><path stroke="green" d="M7 10h2m-3 1h1m1 0h1m-2 1h2"/><path stroke="#f0f" d="M11 10h2"/><path stroke="#ff0" d="M7 11h1m3 0h1"/></svg>