<svg xmlns="http://www.w3.org/2000/svg" viewBox="0 -0.5 32 32" shape-rendering="crispEdges">
<path stroke="#808080" d="M0 0h1M4 0h20M4 1h1M13 1h2M24 1h2M4 2h1M12 2h1M15 2h1M27 2h1M2 3h3M11 3h1M16 3h1M1 4h1M4 4h1M10 4h1M17 4h1M28 4h1M1 5h1M3 5h2M9 5h1M28 5h1M1 6h1M8 6h1M26 6h2M1 7h1M7 7h1M24 7h2M1 8h1M21 8h3M28 8h1M2 9h1M21 9h1M2 10h1M21 10h1M2 11h1M21 11h1M27 11h2M2 12h1M24 12h5M3 13h1M21 13h7M3 14h1M19 14h9M3 15h1M19 15h9M3 16h1M19 16h9M4 17h1M19 17h8M4 18h1M19 18h8M4 19h1M19 19h8M4 20h1M19 20h8M5 21h1M15 21h1M19 21h7M5 22h1M19 22h7M5 23h1M19 23h7M5 24h3M19 24h7M8 25h2M19 25h6M10 26h2M19 26h6M12 27h2M19 27h6M14 28h2M19 28h6M16 29h2M19 29h4M18 30h3" />
<path stroke="#000080" d="M0 0h1M5 1h8M5 2h7" />
<path stroke="#ffffff" d="M0 0h1M15 1h8M13 2h1M16 2h8M12 3h3M17 3h5M24 3h3M2 4h2M6 4h3M11 4h5M18 4h2M22 4h1M24 4h4M2 5h1M6 5h2M10 5h6M20 5h2M23 5h2M26 5h2M2 6h2M6 6h1M9 6h6M16 6h2M19 6h2M22 6h2M25 6h1M4 7h2M8 7h6M15 7h2M18 7h2M21 7h2M26 7h2M6 8h2M10 8h3M14 8h2M17 8h2M20 8h1M24 8h3M8 9h2M13 9h2M16 9h2M19 9h2M22 9h4M10 10h2M15 10h2M18 10h2M22 10h2M27 10h2M12 11h2M17 11h2M20 11h1M24 11h3M14 12h2M21 12h3M16 13h5" />
<path stroke="#c0c0c0" d="M0 0h1M23 1h1M14 2h1M5 3h6M15 3h1M27 3h1M5 4h1M9 4h1M16 4h1M5 5h1M8 5h1M17 5h1M4 6h2M7 6h1M28 6h1M2 7h2M6 7h1M28 7h1M2 8h4M8 8h2M27 8h1M3 9h5M10 9h2M26 9h3M3 10h7M12 10h2M24 10h3M3 11h9M14 11h2M22 11h2M3 12h11M16 12h5M4 13h8M14 13h2M4 14h6M15 14h1M17 14h2M4 15h2M10 15h3M17 15h2M4 16h3M10 16h4M17 16h2M5 17h1M10 17h3M17 17h2M5 18h1M8 18h1M10 18h9M5 19h1M8 19h8M17 19h2M5 20h1M8 20h4M13 20h3M17 20h2M6 21h1M8 21h3M13 21h2M17 21h2M6 22h2M9 22h1M17 22h2M6 23h5M16 23h3M8 24h4M13 24h6M10 25h9M12 26h7M14 27h5M16 28h3M18 29h1" />
<path stroke="#000000" d="M0 0h1M24 2h3M22 3h2M28 3h1M20 4h2M29 4h1M18 5h2M29 5h1M29 6h1M29 7h1M29 8h1M29 9h1M29 10h1M29 11h1M29 12h1M28 13h1M28 14h1M28 15h1M28 16h1M27 17h1M27 18h1M27 19h1M27 20h1M26 21h1M26 22h1M26 23h1M26 24h1M6 25h2M25 25h1M8 26h2M25 26h1M10 27h2M25 27h1M12 28h2M25 28h1M14 29h2M23 29h2M16 30h2M21 30h2M18 31h3" />
<path stroke="#0000ff" d="M0 0h1M23 4h1M16 5h1M22 5h1M25 5h1M15 6h1M18 6h1M21 6h1M24 6h1M14 7h1M17 7h1M20 7h1M23 7h1M13 8h1M16 8h1M19 8h1M12 9h1M15 9h1M18 9h1M14 10h1M17 10h1M20 10h1M16 11h1M19 11h1" />
<path stroke="#008000" d="M0 0h1M12 13h2M10 14h5M16 14h1M6 15h4M13 15h4M7 16h3M14 16h3M6 17h4M13 17h4M6 18h2M9 18h1M6 19h2M16 19h1M6 20h2M12 20h1M16 20h1M7 21h1M11 21h2M16 21h1M8 22h1M10 22h7M11 23h5M12 24h1" />
</svg>