<svg xmlns="http://www.w3.org/2000/svg" width="32" height="32" shape-rendering="crispEdges" viewBox="0 -0.5 32 32"><path stroke="#000" d="M16 4h15M16 5h1m13 0h1M16 6h1m13 0h1M15 7h1m13 0h1M15 8h1m13 0h1M14 9h1m13 0h1m-16 1h1m13 0h1M8 11h4m1 0h1m13 0h1M7 12h1m4 0h1m14 0h1M6 13h1m20 0h2m2 0h1M5 14h1m25 0h1M4 15h1m26 0h1M3 16h1m7 0h1m1 0h1m1 0h1m1 0h1m13 0h1M2 17h1m28 0h1M1 18h1m7 0h1m1 0h1m1 0h1m1 0h1m15 0h1M0 19h1m30 0h1M0 20h1m1 0h1m28 0h1M0 21h1m1 0h1m27 0h1M0 22h1m2 0h1m24 0h2M1 23h3m22 0h2M3 24h1m1 0h1m18 0h2M4 25h1m1 0h18M2 26h1m1 0h1m3 0h1m-8 1h1m1 0h1m2 0h2m-6 1h1m1 0h2"/><path stroke="#fff" d="M17 5h13M17 6h13M16 7h2m9 0h2M16 8h13M15 9h2m9 0h2m-14 1h13m-13 1h2m9 0h2M8 12h3m3 0h13M7 13h1m22 0h1M6 14h1m22 0h1M5 15h1m22 0h1M4 16h1m5 0h1m1 0h1m1 0h1m1 0h1m7 0h1m2 0h1M3 17h1m17 0h1m1 0h1m2 0h1M2 18h1m7 0h1m1 0h1m1 0h1m10 0h1M1 19h1m22 0h1M1 20h1m3 0h19M1 21h1m3 0h1m14 0h2M5 22h1m-2 2h1m0 1h1m-1 1h3m-6 1h1m1 0h2"/><path stroke="gray" d="M18 7h9M17 9h9m-10 2h9m-14 1h1m1 0h1m14 0h3m-21 1h1m2 0h14M9 14h1m-2 1h1m2 0h1m1 0h1m1 0h1m1 0h1m3 0h5m4 0h1M7 16h1m12 0h1m8 0h2M6 17h1m2 0h1m1 0h1m1 0h1m1 0h1m3 0h1m8 0h3M5 18h1m21 0h4M4 19h1m21 0h5M4 20h1m20 0h6M4 21h1m19 0h6M1 22h2m1 0h1m19 0h4M4 23h2m17 0h3M6 24h18"/><path stroke="silver" d="M8 13h2m1 0h2m16 0h1M7 14h2m1 0h19m1 0h1M6 15h2m1 0h2m1 0h1m1 0h1m1 0h1m1 0h3m5 0h2m1 0h1M5 16h2m1 0h2m8 0h2m1 0h3m1 0h2m1 0h1M4 17h2m1 0h2m1 0h1m1 0h1m1 0h1m1 0h3m1 0h1m1 0h1m1 0h2m1 0h1M3 18h2m1 0h3m7 0h9m1 0h1M2 19h2m1 0h19m1 0h1M3 20h1m20 0h1M3 21h1m2 0h14m2 0h2M6 22h14m2 0h2M6 23h17"/><path stroke="green" d="M20 22h2"/></svg>