<svg xmlns="http://www.w3.org/2000/svg" viewBox="0 -0.5 16 16" shape-rendering="crispEdges">
<path stroke="#808080" d="M0 0h1M10 1h3M9 2h1M13 2h2M5 3h4M3 4h2M7 4h1M2 5h1M6 5h2M1 6h1M4 6h2M14 6h1M0 7h1M3 7h1M6 7h1M8 7h1M15 7h1M0 8h1M2 8h1M5 8h1M7 8h1M9 8h1M14 8h1M0 9h2M4 9h1M6 9h1M8 9h1M12 9h3M0 10h2M7 10h1M10 10h5M1 11h1M9 11h6M5 12h1M8 12h5M7 13h4M7 14h2" />
<path stroke="#ffffff" d="M0 0h1M10 2h3M9 3h6M5 4h2M8 4h6M3 5h1M8 5h5M2 6h1M6 6h1M11 6h1M1 7h1M4 7h1M1 8h1M3 8h1M2 9h1M2 10h2M4 11h2M6 12h1" />
<path stroke="#000000" d="M0 0h1M15 3h1M14 4h1M13 5h2M12 6h1M7 7h1M12 7h1M6 8h1M8 8h1M15 8h1M5 9h1M7 9h1M15 9h1M6 10h1M15 10h1M0 11h1M15 11h1M1 12h1M13 12h2M2 13h2M11 13h2M4 14h2M9 14h2M6 15h3" />
<path stroke="#c0c0c0" d="M0 0h1M4 5h2M3 6h1M7 6h4M13 6h1M2 7h1M5 7h1M9 7h3M13 7h2M4 8h1M10 8h4M3 9h1M9 9h3M4 10h2M8 10h2M2 11h2M6 11h3M2 12h3M7 12h1M4 13h3M6 14h1" />
</svg>