<svg xmlns="http://www.w3.org/2000/svg" width="32" height="32" shape-rendering="crispEdges" viewBox="0 -0.5 32 32"><path stroke="gray" d="M7 0h18M7 1h1m16 0h1M7 2h1m16 0h2M7 3h1m16 0h1m1 0h1M1 4h15m8 0h1m2 0h1M1 5h1m22 0h1m3 0h1M1 6h1m22 0h1M1 7h1M1 8h1M1 9h1m-1 1h1m-1 1h1m-1 1h1m-1 1h1m-1 1h1m7 0h5M1 15h1m6 0h1m5 0h1M1 16h1m5 0h1m7 0h1M1 17h1m4 0h1m9 0h9M1 18h1m4 0h1m18 0h1M1 19h1m4 0h1m18 0h1m4 0h1M1 20h1m4 0h1m18 0h1m3 0h2M1 21h1m4 0h1m18 0h1m2 0h3M0 22h7m14 0h10M0 23h1m5 0h1m13 0h1m6 0h4M0 24h1m6 0h1m11 0h1m7 0h4M0 25h1m7 0h1m9 0h1m8 0h4M0 26h1m8 0h9m9 0h4M0 27h1m26 0h3M0 28h1m26 0h2M0 29h1m26 0h1M0 30h1m-1 1h1"/><path stroke="#fff" d="M8 1h16M8 2h16m-7 1h7m-7 1h7m1 0h1M2 5h12m3 0h7m1 0h2M2 6h1m3 0h8m7 0h3M2 7h1m3 0h8m3 0h12M2 8h1m3 0h8m3 0h12M2 9h12m12 0h3M2 10h12m3 0h12M2 11h6m1 0h5m12 0h3M2 12h6m1 0h1m1 0h3m3 0h12M2 13h6m1 0h1m1 0h3m12 0h3M2 14h6m9 0h12M2 15h6m1 0h5m12 0h3M2 16h5m19 0h3M2 17h4m22 0h1M2 18h4m1 0h18m3 0h1M2 19h1m1 0h2m1 0h1m20 0h1M2 20h1m1 0h2m1 0h1m-6 1h1m1 0h2m1 0h1m-1 1h1m-7 1h5m1 0h1m13 0h6M1 24h1m4 0h1m13 0h1M1 25h1m5 0h1m11 0h1M1 26h1m6 0h1m9 0h1M1 27h1m7 0h9M1 28h1m-1 1h1m-1 1h1"/><path stroke="#000" d="M25 1h1m0 1h1m0 1h1m0 1h1M15 5h1m13 0h1M15 6h1m9 0h6M15 7h1m14 0h1M15 8h1m14 0h1M15 9h1m14 0h1m-16 1h1m14 0h1m-16 1h1m14 0h1m-16 1h1m14 0h1m-16 1h1m14 0h1m-16 1h1m14 0h1m-16 1h1m14 0h1m-1 1h1m-1 1h2m-6 1h1m3 0h2m-6 1h1m2 0h1m1 0h1m-6 1h1m1 0h1m2 0h1m-6 1h2m3 0h1m-1 1h1m-1 1h1m-1 1h1m-1 1h1m-1 1h1m-2 1h1m-2 1h1m-2 1h1m-2 1h1M1 31h26"/><path stroke="silver" d="M8 3h9m8 0h1M16 4h1m9 0h1M14 5h1m1 0h1m10 0h1M14 6h1m-1 1h1m1 0h1m12 0h1M14 8h1m1 0h1m12 0h1M14 9h1m14 0h1m-16 1h1m1 0h1m12 0h1m-16 1h1m14 0h1m-16 1h1m1 0h1m12 0h1m-16 1h1m14 0h1m-16 1h1m1 0h1m12 0h1m-1 1h1M8 16h1m1 0h1m1 0h1m1 0h1m1 0h10m3 0h1M7 17h1m1 0h1m1 0h1m1 0h1m1 0h1m9 0h3m1 0h1m-3 1h1m1 0h1M9 19h1m1 0h1m1 0h1m1 0h1m1 0h1m1 0h1m1 0h1m1 0h1m3 0h1M8 20h1m1 0h1m1 0h1m1 0h1m1 0h1m1 0h1m1 0h1m1 0h1m1 0h1m2 0h1M9 21h1m1 0h1m1 0h1m1 0h1m1 0h1m1 0h1m1 0h1m1 0h1M8 22h1m1 0h1m1 0h1m1 0h1m1 0h1m1 0h1m1 0h1M9 23h1m1 0h1m1 0h1m1 0h1m1 0h1m1 0h1M2 24h4m2 0h1m1 0h1m1 0h1m1 0h1m1 0h1m1 0h1m2 0h6M2 25h5m2 0h1m1 0h1m1 0h1m1 0h1m1 0h1m2 0h7M2 26h6m11 0h8M2 27h7m9 0h9M2 28h25M2 29h25M2 30h25"/><path stroke="maroon" d="M3 6h1m1 0h1M4 7h1M3 8h1m1 0h1"/><path stroke="red" d="M4 6h1M3 7h1m1 0h1M4 8h1"/><path stroke="navy" d="M16 6h1m-1 3h1m-1 2h1m-1 2h1m-1 2h1"/><path stroke="#00f" d="M17 6h4m-4 3h9M8 11h1m8 0h9M8 12h1m1 0h1m-3 1h1m1 0h1m6 0h9M8 14h1m8 1h9M3 19h1m-1 1h1m-1 1h1"/><path stroke="#ff0" d="M9 16h1m1 0h1m1 0h1m-6 1h1m1 0h1m1 0h1m1 0h1m-7 2h1m1 0h1m1 0h1m1 0h1m1 0h1m1 0h1m1 0h1m1 0h1m1 0h1M9 20h1m1 0h1m1 0h1m1 0h1m1 0h1m1 0h1m1 0h1m1 0h1M8 21h1m1 0h1m1 0h1m1 0h1m1 0h1m1 0h1m1 0h1m1 0h1m1 0h1M9 22h1m1 0h1m1 0h1m1 0h1m1 0h1m1 0h1M8 23h1m1 0h1m1 0h1m1 0h1m1 0h1m1 0h1M9 24h1m1 0h1m1 0h1m1 0h1m1 0h1m-8 1h1m1 0h1m1 0h1m1 0h1"/></svg>