<svg xmlns="http://www.w3.org/2000/svg" viewBox="0 -0.5 32 32" shape-rendering="crispEdges">
<path stroke="#000000" d="M0 0h1M16 4h15M16 5h1M30 5h1M16 6h1M30 6h1M15 7h1M29 7h1M15 8h1M29 8h1M14 9h1M28 9h1M13 10h1M27 10h1M8 11h4M13 11h1M27 11h1M7 12h1M12 12h1M27 12h1M6 13h1M27 13h2M31 13h1M5 14h1M31 14h1M4 15h1M31 15h1M3 16h1M11 16h1M13 16h1M15 16h1M17 16h1M31 16h1M2 17h1M31 17h1M1 18h1M9 18h1M11 18h1M13 18h1M15 18h1M31 18h1M0 19h1M31 19h1M0 20h1M2 20h1M31 20h1M0 21h1M2 21h1M30 21h1M0 22h1M3 22h1M28 22h2M1 23h3M26 23h2M3 24h1M5 24h1M24 24h2M4 25h1M6 25h18M2 26h1M4 26h1M8 26h1M1 27h1M3 27h1M6 27h2M2 28h1M4 28h2" />
<path stroke="#ffffff" d="M0 0h1M17 5h13M17 6h13M16 7h2M27 7h2M16 8h13M15 9h2M26 9h2M14 10h13M14 11h2M25 11h2M8 12h3M14 12h13M7 13h1M30 13h1M6 14h1M29 14h1M5 15h1M28 15h1M4 16h1M10 16h1M12 16h1M14 16h1M16 16h1M24 16h1M27 16h1M3 17h1M21 17h1M23 17h1M26 17h1M2 18h1M10 18h1M12 18h1M14 18h1M25 18h1M1 19h1M24 19h1M1 20h1M5 20h19M1 21h1M5 21h1M20 21h2M5 22h1M4 24h1M5 25h1M5 26h3M2 27h1M4 27h2" />
<path stroke="#808080" d="M0 0h1M18 7h9M17 9h9M16 11h9M11 12h1M13 12h1M28 12h3M10 13h1M13 13h14M9 14h1M8 15h1M11 15h1M13 15h1M15 15h1M17 15h1M21 15h5M30 15h1M7 16h1M20 16h1M29 16h2M6 17h1M9 17h1M11 17h1M13 17h1M15 17h1M19 17h1M28 17h3M5 18h1M27 18h4M4 19h1M26 19h5M4 20h1M25 20h6M4 21h1M24 21h6M1 22h2M4 22h1M24 22h4M4 23h2M23 23h3M6 24h18" />
<path stroke="#c0c0c0" d="M0 0h1M8 13h2M11 13h2M29 13h1M7 14h2M10 14h19M30 14h1M6 15h2M9 15h2M12 15h1M14 15h1M16 15h1M18 15h3M26 15h2M29 15h1M5 16h2M8 16h2M18 16h2M21 16h3M25 16h2M28 16h1M4 17h2M7 17h2M10 17h1M12 17h1M14 17h1M16 17h3M20 17h1M22 17h1M24 17h2M27 17h1M3 18h2M6 18h3M16 18h9M26 18h1M2 19h2M5 19h19M25 19h1M3 20h1M24 20h1M3 21h1M6 21h14M22 21h2M6 22h14M22 22h2M6 23h17" />
<path stroke="#008000" d="M0 0h1M20 22h2" />
</svg>