<svg xmlns="http://www.w3.org/2000/svg" viewBox="0 -0.5 32 32" shape-rendering="crispEdges">
<path stroke="#808080" d="M0 0h1M22 4h2M21 5h1M24 5h2M20 6h1M26 6h2M12 7h4M19 7h1M28 7h2M10 8h2M16 8h3M30 8h1M8 9h2M14 9h2M17 9h1M31 9h1M7 10h1M12 10h2M16 10h2M6 11h1M11 11h1M18 11h2M5 12h1M10 12h1M20 12h2M28 12h2M4 13h1M9 13h1M13 13h1M22 13h2M30 13h1M3 14h1M8 14h1M15 14h1M24 14h2M28 14h3M2 15h1M7 15h1M11 15h1M17 15h1M26 15h5M1 16h1M6 16h1M13 16h1M24 16h7M0 17h1M2 17h1M5 17h1M9 17h1M15 17h1M22 17h9M0 18h1M4 18h1M11 18h1M21 18h10M0 19h3M4 19h1M13 19h1M20 19h11M0 20h1M4 20h1M19 20h12M4 21h1M18 21h12M17 22h11M16 23h10M16 24h8M16 25h6M16 26h4M16 27h2" />
<path stroke="#ffffff" d="M0 0h1M22 5h2M21 6h5M20 7h8M12 8h1M19 8h11M10 9h1M16 9h1M18 9h12M8 10h1M14 10h1M18 10h11M7 11h1M12 11h1M20 11h8M6 12h1M11 12h1M22 12h5M5 13h1M10 13h1M24 13h2M4 14h1M9 14h1M13 14h1M3 15h1M8 15h1M15 15h1M2 16h1M7 16h1M11 16h1M17 16h1M1 17h1M3 17h1M6 17h1M13 17h1M1 18h2M5 18h1M9 18h1M15 18h1M5 19h3M11 19h1M5 20h1M8 20h2M13 20h1M5 21h1M10 21h2M5 22h1M12 22h2M14 23h2" />
<path stroke="#c0c0c0" d="M0 0h1M13 8h3M11 9h3M9 10h3M15 10h1M8 11h3M13 11h5M7 12h3M12 12h8M6 13h3M11 13h2M15 13h7M27 13h3M5 14h3M10 14h3M17 14h7M26 14h2M4 15h3M9 15h2M13 15h2M19 15h7M3 16h3M8 16h3M15 16h2M19 16h5M4 17h1M7 17h2M11 17h2M17 17h5M3 18h1M6 18h3M13 18h2M17 18h4M3 19h1M8 19h3M15 19h5M2 20h2M6 20h2M10 20h3M15 20h4M6 21h4M12 21h6M6 22h6M14 22h3M6 23h8M8 24h8M10 25h6M12 26h4M14 27h2" />
<path stroke="#000000" d="M0 0h1M31 8h1M30 9h1M29 10h1M28 11h1M27 12h1M14 13h1M26 13h1M14 14h1M16 14h1M31 14h1M12 15h1M16 15h1M18 15h1M31 15h1M12 16h1M14 16h1M18 16h1M31 16h1M10 17h1M14 17h1M16 17h1M31 17h1M10 18h1M12 18h1M16 18h1M31 18h1M12 19h1M14 19h1M31 19h1M1 20h1M14 20h1M31 20h1M0 21h1M2 21h2M30 21h1M1 22h1M4 22h1M28 22h2M2 23h1M5 23h1M26 23h2M1 24h1M3 24h1M6 24h2M24 24h2M0 25h1M2 25h1M8 25h2M22 25h2M1 26h1M10 26h2M20 26h2M12 27h2M18 27h2M14 28h4" />
</svg>