<svg xmlns="http://www.w3.org/2000/svg" viewBox="0 -0.5 32 32" shape-rendering="crispEdges">
<path stroke="#808080" d="M0 0h1M7 0h18M7 1h1M24 1h1M7 2h1M24 2h2M7 3h1M24 3h1M26 3h1M1 4h15M24 4h1M27 4h1M1 5h1M24 5h1M28 5h1M1 6h1M24 6h1M1 7h1M1 8h1M1 9h1M1 10h1M1 11h1M1 12h1M1 13h1M1 14h1M9 14h5M1 15h1M8 15h1M14 15h1M1 16h1M7 16h1M15 16h1M1 17h1M6 17h1M16 17h9M1 18h1M6 18h1M25 18h1M1 19h1M6 19h1M25 19h1M30 19h1M1 20h1M6 20h1M25 20h1M29 20h2M1 21h1M6 21h1M25 21h1M28 21h3M0 22h7M21 22h10M0 23h1M6 23h1M20 23h1M27 23h4M0 24h1M7 24h1M19 24h1M27 24h4M0 25h1M8 25h1M18 25h1M27 25h4M0 26h1M9 26h9M27 26h4M0 27h1M27 27h3M0 28h1M27 28h2M0 29h1M27 29h1M0 30h1M0 31h1" />
<path stroke="#ffffff" d="M0 0h1M8 1h16M8 2h16M17 3h7M17 4h7M25 4h1M2 5h12M17 5h7M25 5h2M2 6h1M6 6h8M21 6h3M2 7h1M6 7h8M17 7h12M2 8h1M6 8h8M17 8h12M2 9h12M26 9h3M2 10h12M17 10h12M2 11h6M9 11h5M26 11h3M2 12h6M9 12h1M11 12h3M17 12h12M2 13h6M9 13h1M11 13h3M26 13h3M2 14h6M17 14h12M2 15h6M9 15h5M26 15h3M2 16h5M26 16h3M2 17h4M28 17h1M2 18h4M7 18h18M28 18h1M2 19h1M4 19h2M7 19h1M28 19h1M2 20h1M4 20h2M7 20h1M2 21h1M4 21h2M7 21h1M7 22h1M1 23h5M7 23h1M21 23h6M1 24h1M6 24h1M20 24h1M1 25h1M7 25h1M19 25h1M1 26h1M8 26h1M18 26h1M1 27h1M9 27h9M1 28h1M1 29h1M1 30h1" />
<path stroke="#000000" d="M0 0h1M25 1h1M26 2h1M27 3h1M28 4h1M15 5h1M29 5h1M15 6h1M25 6h6M15 7h1M30 7h1M15 8h1M30 8h1M15 9h1M30 9h1M15 10h1M30 10h1M15 11h1M30 11h1M15 12h1M30 12h1M15 13h1M30 13h1M15 14h1M30 14h1M15 15h1M30 15h1M30 16h1M30 17h2M26 18h1M30 18h2M26 19h1M29 19h1M31 19h1M26 20h1M28 20h1M31 20h1M26 21h2M31 21h1M31 22h1M31 23h1M31 24h1M31 25h1M31 26h1M30 27h1M29 28h1M28 29h1M27 30h1M1 31h26" />
<path stroke="#c0c0c0" d="M0 0h1M8 3h9M25 3h1M16 4h1M26 4h1M14 5h1M16 5h1M27 5h1M14 6h1M14 7h1M16 7h1M29 7h1M14 8h1M16 8h1M29 8h1M14 9h1M29 9h1M14 10h1M16 10h1M29 10h1M14 11h1M29 11h1M14 12h1M16 12h1M29 12h1M14 13h1M29 13h1M14 14h1M16 14h1M29 14h1M29 15h1M8 16h1M10 16h1M12 16h1M14 16h1M16 16h10M29 16h1M7 17h1M9 17h1M11 17h1M13 17h1M15 17h1M25 17h3M29 17h1M27 18h1M29 18h1M9 19h1M11 19h1M13 19h1M15 19h1M17 19h1M19 19h1M21 19h1M23 19h1M27 19h1M8 20h1M10 20h1M12 20h1M14 20h1M16 20h1M18 20h1M20 20h1M22 20h1M24 20h1M27 20h1M9 21h1M11 21h1M13 21h1M15 21h1M17 21h1M19 21h1M21 21h1M23 21h1M8 22h1M10 22h1M12 22h1M14 22h1M16 22h1M18 22h1M20 22h1M9 23h1M11 23h1M13 23h1M15 23h1M17 23h1M19 23h1M2 24h4M8 24h1M10 24h1M12 24h1M14 24h1M16 24h1M18 24h1M21 24h6M2 25h5M9 25h1M11 25h1M13 25h1M15 25h1M17 25h1M20 25h7M2 26h6M19 26h8M2 27h7M18 27h9M2 28h25M2 29h25M2 30h25" />
<path stroke="#800000" d="M0 0h1M3 6h1M5 6h1M4 7h1M3 8h1M5 8h1" />
<path stroke="#ff0000" d="M0 0h1M4 6h1M3 7h1M5 7h1M4 8h1" />
<path stroke="#000080" d="M0 0h1M16 6h1M16 9h1M16 11h1M16 13h1M16 15h1" />
<path stroke="#0000ff" d="M0 0h1M17 6h4M17 9h9M8 11h1M17 11h9M8 12h1M10 12h1M8 13h1M10 13h1M17 13h9M8 14h1M17 15h9M3 19h1M3 20h1M3 21h1" />
<path stroke="#ffff00" d="M0 0h1M9 16h1M11 16h1M13 16h1M8 17h1M10 17h1M12 17h1M14 17h1M8 19h1M10 19h1M12 19h1M14 19h1M16 19h1M18 19h1M20 19h1M22 19h1M24 19h1M9 20h1M11 20h1M13 20h1M15 20h1M17 20h1M19 20h1M21 20h1M23 20h1M8 21h1M10 21h1M12 21h1M14 21h1M16 21h1M18 21h1M20 21h1M22 21h1M24 21h1M9 22h1M11 22h1M13 22h1M15 22h1M17 22h1M19 22h1M8 23h1M10 23h1M12 23h1M14 23h1M16 23h1M18 23h1M9 24h1M11 24h1M13 24h1M15 24h1M17 24h1M10 25h1M12 25h1M14 25h1M16 25h1" />
</svg>