<svg xmlns="http://www.w3.org/2000/svg" width="32" height="32" shape-rendering="crispEdges" viewBox="0 -0.5 32 32"><path stroke="olive" d="M6 0h4M4 1h2m4 0h2M3 2h1m8 0h2M3 3h1m5 0h1m4 0h1m-5 1h1m4 0h1M3 5h1m2 0h1M2 6h1m2 0h1m1 0h1m5 0h1M1 7h1m2 0h1m1 0h1m4 0h2M1 8h1m3 0h1m4 0h5M1 9h1m7 0h6m-7 1h5m-6 1h4m-4 1h2"/><path stroke="#ff0" d="M6 1h4M4 2h2m3 0h3M4 3h2m1 0h1m2 0h4M6 4h2m5 0h2M4 5h1m3 0h1m2 0h1m1 0h2M3 6h1m5 0h2m3 0h1M2 7h1m5 0h2M4 8h1m2 0h2M2 9h2m2 0h2m-6 1h4m-2 1h3m-1 1h1"/><path stroke="gray" d="M6 2h1m1 0h1m3 2h1M9 5h1M0 9h1m-1 1h1m-1 1h1m14 0h1M0 12h1m12 0h3M0 13h1m10 0h5M0 14h1m7 0h7m-7 1h5m-5 1h3m-3 1h1m17 0h3m-4 1h1m3 0h2m-10 1h4m-6 1h2m2 0h1m-6 1h1m3 0h2m-7 1h1m2 0h2m8 0h1m-15 1h1m2 0h1m2 0h1m8 0h1m-16 1h1m1 0h1m2 0h1m3 0h1m4 0h1m-15 1h2m2 0h1m3 0h1m3 0h3m-15 1h2m5 0h1m2 0h5m-14 1h1m7 0h6m-7 1h5m-6 1h4m-4 1h2m-8 1h1"/><path stroke="#000" d="M7 2h1M6 3h1m1 0h1M3 4h3m2 0h2m1 0h1m-2 1h1m1 0h1m2 0h1m-4 1h1m2 0h1m-3 1h3m-1 1h1m-1 1h1M1 10h1m11 0h2m1 0h1M2 11h2m7 0h2m3 0h1M4 12h2m3 0h2m5 0h1M6 13h3m7 0h1m-2 1h2M1 15h2m10 0h2M3 16h2m6 0h2m-8 1h2m2 0h2m-9 1h1m4 0h2m22 1h1M2 20h1m27 0h1m-2 1h1M2 22h1m25 0h1m-6 1h1m4 0h1M2 24h1m19 0h1m1 0h1m6 0h1m-11 1h1m1 0h1m7 0h1M2 26h1m1 0h1m1 0h1m1 0h1m1 0h1m1 0h1m1 0h1m7 0h1m8 0h1m-16 1h1m14 0h1m-15 1h1m11 0h2m-15 1h1m1 0h2m7 0h2m-12 1h1m2 0h2m3 0h2m-11 1h1m5 0h3"/><path stroke="silver" d="M5 5h1m1 0h1M4 6h1m1 0h1m1 0h1m2 0h1M3 7h1m1 0h1m1 0h1m2 0h1M6 8h1m2 0h1M8 9h1m-2 1h1m7 0h1m-3 1h2M1 12h1m9 0h2M1 13h1m1 0h1m5 0h2M1 14h3m1 0h1m-3 1h3m1 0h1m-3 1h3m-1 1h1m14 3h1m-3 1h2m-3 1h1m3 0h3m3 0h1m-12 1h1m2 0h1m2 0h4m1 0h2m-11 1h1m5 0h4m-11 1h1m5 0h3m-8 1h2m2 0h2m-8 1h2m2 0h3m-7 1h4m1 0h1m-7 1h1m2 0h3m-1 1h1"/><path stroke="#fff" d="M2 8h2m0 1h2m0 1h1m-6 1h1m0 1h2m0 1h2m0 1h2m18 4h3m-4 1h6m-10 1h1m2 0h6m-11 1h1m4 0h5m-11 1h1m3 0h1m3 0h2m-11 1h1m2 0h1m-4 1h1m1 0h1m3 0h1m-6 1h1m3 0h1m-5 1h2m0 1h2m0 1h1"/><path stroke="green" d="M2 13h1"/><path stroke="red" d="M4 14h1m1 1h1m-1 9h5m-5 1h5m-4 1h1m1 0h1m-4 1h5m-5 1h5"/></svg>