<svg xmlns="http://www.w3.org/2000/svg" viewBox="0 -0.5 32 32" shape-rendering="crispEdges">
<path stroke="#808000" d="M0 0h1M6 0h4M4 1h2M10 1h2M3 2h1M12 2h2M3 3h1M9 3h1M14 3h1M10 4h1M15 4h1M3 5h1M6 5h1M2 6h1M5 6h1M7 6h1M13 6h1M1 7h1M4 7h1M6 7h1M11 7h2M1 8h1M5 8h1M10 8h5M1 9h1M9 9h6M8 10h5M7 11h4M7 12h2" />
<path stroke="#ffff00" d="M0 0h1M6 1h4M4 2h2M9 2h3M4 3h2M7 3h1M10 3h4M6 4h2M13 4h2M4 5h1M8 5h1M11 5h1M13 5h2M3 6h1M9 6h2M14 6h1M2 7h1M8 7h2M4 8h1M7 8h2M2 9h2M6 9h2M2 10h4M4 11h3M6 12h1" />
<path stroke="#808080" d="M0 0h1M6 2h1M8 2h1M12 4h1M9 5h1M0 9h1M0 10h1M0 11h1M15 11h1M0 12h1M13 12h3M0 13h1M11 13h5M0 14h1M8 14h7M8 15h5M8 16h3M8 17h1M26 17h3M25 18h1M29 18h2M21 19h4M19 20h2M23 20h1M18 21h1M22 21h2M17 22h1M20 22h2M30 22h1M16 23h1M19 23h1M22 23h1M31 23h1M16 24h1M18 24h1M21 24h1M25 24h1M30 24h1M16 25h2M20 25h1M24 25h1M28 25h3M16 26h2M23 26h1M26 26h5M17 27h1M25 27h6M24 28h5M23 29h4M23 30h2M17 31h1" />
<path stroke="#000000" d="M0 0h1M7 2h1M6 3h1M8 3h1M3 4h3M8 4h2M11 4h1M10 5h1M12 5h1M15 5h1M12 6h1M15 6h1M13 7h3M15 8h1M15 9h1M1 10h1M13 10h2M16 10h1M2 11h2M11 11h2M16 11h1M4 12h2M9 12h2M16 12h1M6 13h3M16 13h1M15 14h2M1 15h2M13 15h2M3 16h2M11 16h2M5 17h2M9 17h2M2 18h1M7 18h2M31 19h1M2 20h1M30 20h1M29 21h1M2 22h1M28 22h1M23 23h1M28 23h1M2 24h1M22 24h1M24 24h1M31 24h1M21 25h1M23 25h1M31 25h1M2 26h1M4 26h1M6 26h1M8 26h1M10 26h1M12 26h1M14 26h1M22 26h1M31 26h1M16 27h1M31 27h1M17 28h1M29 28h2M16 29h1M18 29h2M27 29h2M17 30h1M20 30h2M25 30h2M16 31h1M22 31h3" />
<path stroke="#c0c0c0" d="M0 0h1M5 5h1M7 5h1M4 6h1M6 6h1M8 6h1M11 6h1M3 7h1M5 7h1M7 7h1M10 7h1M6 8h1M9 8h1M8 9h1M7 10h1M15 10h1M13 11h2M1 12h1M11 12h2M1 13h1M3 13h1M9 13h2M1 14h3M5 14h1M3 15h3M7 15h1M5 16h3M7 17h1M22 20h1M20 21h2M19 22h1M23 22h3M29 22h1M18 23h1M21 23h1M24 23h4M29 23h2M20 24h1M26 24h4M19 25h1M25 25h3M20 26h2M24 26h2M18 27h2M22 27h3M18 28h4M23 28h1M17 29h1M20 29h3M22 30h1" />
<path stroke="#ffffff" d="M0 0h1M2 8h2M4 9h2M6 10h1M1 11h1M2 12h2M4 13h2M6 14h2M26 18h3M25 19h6M21 20h1M24 20h6M19 21h1M24 21h5M18 22h1M22 22h1M26 22h2M17 23h1M20 23h1M17 24h1M19 24h1M23 24h1M18 25h1M22 25h1M18 26h2M20 27h2M22 28h1" />
<path stroke="#008000" d="M0 0h1M2 13h1" />
<path stroke="#ff0000" d="M0 0h1M4 14h1M6 15h1M10 24h5M10 25h5M11 26h1M13 26h1M10 27h5M10 28h5" />
</svg>