<svg xmlns="http://www.w3.org/2000/svg" viewBox="0 -0.5 32 32" shape-rendering="crispEdges">
<path stroke="#808080" d="M0 0h1M0 0h18M0 1h1M6 1h1M12 1h1M0 2h1M2 2h3M6 2h1M8 2h3M12 2h1M14 2h3M0 3h1M2 3h1M4 3h1M6 3h1M8 3h1M10 3h1M12 3h1M14 3h1M16 3h1M0 4h1M2 4h3M6 4h1M8 4h3M12 4h1M14 4h3M0 5h1M6 5h1M12 5h1M0 6h1M6 6h1M12 6h1M0 7h1M2 7h3M6 7h1M8 7h3M12 7h1M14 7h3M0 8h1M2 8h1M4 8h1M6 8h1M8 8h1M10 8h1M12 8h3M16 8h1M0 9h1M2 9h3M6 9h1M8 9h3M14 9h3M0 10h1M6 10h1M15 10h1M17 10h6M0 11h1M6 11h1M16 11h1M0 12h1M2 12h3M6 12h1M8 12h3M12 12h1M17 12h1M0 13h1M2 13h1M4 13h1M6 13h1M8 13h1M10 13h1M12 13h1M18 13h1M0 14h1M2 14h3M6 14h1M8 14h3M12 14h1M14 14h1M19 14h1M0 15h1M6 15h1M12 15h1M16 15h1M0 16h1M6 16h1M11 16h1M16 16h1M0 17h1M2 17h3M6 17h1M8 17h1M12 17h1M14 17h3M0 18h1M2 18h1M4 18h1M6 18h1M8 18h1M13 18h1M0 19h1M2 19h3M6 19h1M8 19h3M0 20h1M6 20h1" />
<path stroke="#ffffff" d="M0 0h1M1 1h4M7 1h4M13 1h4M1 2h1M7 2h1M13 2h1M1 3h1M7 3h1M13 3h1M1 4h1M7 4h1M13 4h1M1 6h4M7 6h4M13 6h4M1 7h1M7 7h1M13 7h1M1 8h1M7 8h1M1 9h1M7 9h1M11 9h2M11 10h4M1 11h4M7 11h4M13 11h3M18 11h1M21 11h1M1 12h1M7 12h1M14 12h3M19 12h1M22 12h1M1 13h1M7 13h1M13 13h1M15 13h3M20 13h1M23 13h1M1 14h1M7 14h1M13 14h1M16 14h3M21 14h1M24 14h1M17 15h8M1 16h4M7 16h2M10 16h1M13 16h3M17 16h8M1 17h1M7 17h1M11 17h1M17 17h8M1 18h1M7 18h1M12 18h1M17 18h8M1 19h1M7 19h1M13 19h12M14 20h11M15 21h10M16 22h10M18 23h8M21 24h5M22 25h3M23 26h1" />
<path stroke="#000000" d="M0 0h1M5 1h1M11 1h1M17 1h1M5 2h1M11 2h1M17 2h1M3 3h1M5 3h1M9 3h1M11 3h1M15 3h1M17 3h1M5 4h1M11 4h1M17 4h1M1 5h5M7 5h5M13 5h5M5 6h1M11 6h1M17 6h1M5 7h1M11 7h1M17 7h1M3 8h1M5 8h1M9 8h1M11 8h1M15 8h1M17 8h1M5 9h1M17 9h1M1 10h5M7 10h4M16 10h1M5 11h1M11 11h2M17 11h1M20 11h1M23 11h1M5 12h1M11 12h1M13 12h1M18 12h1M21 12h1M24 12h1M3 13h1M5 13h1M9 13h1M11 13h1M14 13h1M19 13h1M22 13h1M25 13h1M5 14h1M11 14h1M15 14h1M20 14h1M23 14h1M26 14h1M1 15h5M7 15h5M13 15h3M26 15h1M5 16h1M9 16h1M12 16h1M26 16h1M5 17h1M9 17h1M13 17h1M26 17h1M3 18h1M5 18h1M9 18h2M14 18h3M26 18h1M5 19h1M11 19h1M26 19h1M1 20h5M7 20h6M26 20h1M13 21h1M26 21h1M14 22h1M15 23h2M29 23h1M17 24h3M30 24h1M20 25h1M31 25h1M21 26h1M30 26h1M29 27h1M28 28h1M27 29h1M26 30h1M25 31h1" />
<path stroke="#c0c0c0" d="M0 0h1M13 9h1M19 11h1M22 11h1M20 12h1M23 12h1M21 13h1M24 13h1M22 14h1M25 14h1M25 15h1M25 16h1M10 17h1M25 17h1M11 18h1M25 18h1M12 19h1M25 19h1M13 20h1M25 20h1M14 21h1M25 21h1M15 22h1M26 22h1M17 23h1M26 23h1M20 24h1M21 25h1M22 26h1" />
<path stroke="#800000" d="M0 0h1M27 22h2M27 23h1M26 24h1M29 24h1M25 25h1M30 25h1M24 26h1M29 26h1M22 27h2M28 27h1M22 28h1M27 28h1M23 29h1M26 29h1M24 30h2" />
<path stroke="#ff0000" d="M0 0h1M28 23h1M27 24h2M26 25h4M25 26h4M24 27h4M23 28h4M24 29h2" />
</svg>