<svg xmlns="http://www.w3.org/2000/svg" viewBox="0 -0.5 16 16" shape-rendering="crispEdges">
<path stroke="#808080" d="M0 0h1M10 0h3M9 1h1M13 1h2M5 2h4M3 3h2M7 3h1M2 4h1M6 4h2M1 5h1M4 5h2M14 5h1M0 6h1M3 6h1M6 6h1M8 6h1M15 6h1M0 7h1M2 7h1M5 7h1M9 7h1M14 7h1M0 8h2M4 8h1M8 8h1M12 8h3M0 9h2M7 9h1M10 9h5M1 10h1M9 10h6M8 11h5M7 12h4M7 13h2M1 14h1" />
<path stroke="#ffffff" d="M0 0h1M10 1h3M9 2h6M5 3h2M8 3h6M3 4h1M8 4h5M2 5h1M6 5h1M10 5h2M1 6h1M4 6h1M1 7h1M3 7h1M7 7h1M2 8h1M6 8h1M2 9h2M4 10h2M6 11h1" />
<path stroke="#000000" d="M0 0h1M15 2h1M14 3h1M13 4h1M12 5h1M7 6h1M12 6h1M6 7h1M8 7h1M15 7h1M5 8h1M7 8h1M15 8h1M6 9h1M15 9h1M0 10h1M15 10h1M1 11h1M13 11h2M0 12h1M2 12h2M11 12h2M1 13h1M4 13h2M9 13h2M0 14h1M6 14h3" />
<path stroke="#c0c0c0" d="M0 0h1M4 4h2M3 5h1M7 5h3M13 5h1M2 6h1M5 6h1M9 6h3M13 6h2M4 7h1M10 7h4M3 8h1M9 8h3M4 9h2M8 9h2M2 10h2M6 10h3M2 11h4M7 11h1M4 12h3M6 13h1" />
</svg>