<svg xmlns="http://www.w3.org/2000/svg" viewBox="0 -0.5 32 32" shape-rendering="crispEdges">
<path stroke="#808080" d="M0 0h1M5 0h20M5 1h1M5 2h1M5 3h1M10 3h14M5 4h1M10 4h1M23 4h1M5 5h1M10 5h1M23 5h2M5 6h1M10 6h1M23 6h1M25 6h1M5 7h1M10 7h1M23 7h1M26 7h1M5 8h1M10 8h1M23 8h1M27 8h1M5 9h1M10 9h1M23 9h1M5 10h1M10 10h1M5 11h1M10 11h1M5 12h1M10 12h1M5 13h1M10 13h1M5 14h1M10 14h1M5 15h1M10 15h1M4 27h1M10 27h1" />
<path stroke="#ffffff" d="M0 0h1M6 1h17M6 2h17M6 3h4M6 4h4M11 4h12M6 5h4M11 5h12M6 6h4M11 6h12M6 7h2M11 7h12M24 7h1M6 8h4M11 8h12M24 8h2M6 9h2M11 9h12M6 10h4M11 10h2M17 10h1M26 10h2M6 11h2M11 11h17M6 12h4M11 12h7M26 12h2M6 13h2M11 13h17M6 14h4M11 14h2M17 14h1M26 14h2M6 15h2M11 15h17M11 16h7M26 16h2M13 17h15M17 18h1M26 18h2M11 19h1M13 19h15M8 20h1M10 20h1M12 20h6M26 20h2M7 21h1M9 21h1M12 21h16M6 22h1M8 22h1M10 22h1M17 22h1M26 22h2M7 23h1M9 23h1M12 23h16M8 24h1M10 24h1M12 24h6M26 24h2M7 25h1M9 25h1M12 25h16M6 26h1M11 26h17M5 27h1M7 27h1M6 28h1M8 28h1" />
<path stroke="#c0c0c0" d="M0 0h1M23 1h1M23 2h1M24 6h1M25 7h1M26 8h1M28 10h1M28 11h1M28 12h1M28 13h1M28 14h1M28 15h1M28 16h1M28 17h1M28 18h1M10 19h1M28 19h1M9 20h1M28 20h1M8 21h1M28 21h1M7 22h1M9 22h1M11 22h1M28 22h1M6 23h1M8 23h1M10 23h1M28 23h1M7 24h1M9 24h1M28 24h1M6 25h1M8 25h1M10 25h1M28 25h1M7 26h1M28 26h1M6 27h1M8 27h1M11 27h18M7 28h1" />
<path stroke="#000000" d="M0 0h1M24 1h1M24 2h1M24 3h1M24 4h1M25 5h1M26 6h1M27 7h1M28 8h1M24 9h6M29 10h1M29 11h1M29 12h1M29 13h1M29 14h1M29 15h1M4 16h7M29 16h1M3 17h10M29 17h1M3 18h10M29 18h1M2 19h8M12 19h1M29 19h1M2 20h6M11 20h1M29 20h1M2 21h5M11 21h1M29 21h1M2 22h4M12 22h1M29 22h1M2 23h4M11 23h1M29 23h1M2 24h5M11 24h1M29 24h1M3 25h3M11 25h1M29 25h1M4 26h2M8 26h3M29 26h1M9 27h1M29 27h1M11 28h19" />
<path stroke="#0000ff" d="M0 0h1M8 7h2M8 9h2M13 10h4M18 10h8M8 11h2M18 12h8M8 13h2M13 14h4M18 14h8M8 15h2M18 16h8M13 18h4M18 18h8M18 20h8M10 21h1M13 22h4M18 22h8M18 24h8" />
<path stroke="#800000" d="M0 0h1M3 28h3M9 28h2M2 29h1M6 29h3M10 29h2M1 30h1M11 30h2M1 31h12" />
<path stroke="#ff0000" d="M0 0h1M3 29h3M9 29h1M2 30h9" />
</svg>