<svg xmlns="http://www.w3.org/2000/svg" width="32" height="32" shape-rendering="crispEdges" viewBox="0 -0.5 32 32"><path stroke="gray" d="M0 0h18M0 1h1m5 0h1m5 0h1M0 2h1m1 0h3m1 0h1m1 0h3m1 0h1m1 0h3M0 3h1m1 0h1m1 0h1m1 0h1m1 0h1m1 0h1m1 0h1m1 0h1m1 0h1M0 4h1m1 0h3m1 0h1m1 0h3m1 0h1m1 0h3M0 5h1m5 0h1m5 0h1M0 6h1m5 0h1m5 0h1M0 7h1m1 0h3m1 0h1m1 0h3m1 0h1m1 0h3M0 8h1m1 0h1m1 0h1m1 0h1m1 0h1m1 0h1m1 0h3m1 0h1M0 9h1m1 0h3m1 0h1m1 0h3m3 0h3M0 10h1m5 0h1m8 0h1m1 0h6M0 11h1m5 0h1m9 0h1M0 12h1m1 0h3m1 0h1m1 0h3m1 0h1m4 0h1M0 13h1m1 0h1m1 0h1m1 0h1m1 0h1m1 0h1m1 0h1m5 0h1M0 14h1m1 0h3m1 0h1m1 0h3m1 0h1m1 0h1m4 0h1M0 15h1m5 0h1m5 0h1m3 0h1M0 16h1m5 0h1m4 0h1m4 0h1M0 17h1m1 0h3m1 0h1m1 0h1m3 0h1m1 0h3M0 18h1m1 0h1m1 0h1m1 0h1m1 0h1m4 0h1M0 19h1m1 0h3m1 0h1m1 0h3M0 20h1m5 0h1"/><path stroke="#fff" d="M1 1h4m2 0h4m2 0h4M1 2h1m5 0h1m5 0h1M1 3h1m5 0h1m5 0h1M1 4h1m5 0h1m5 0h1M1 6h4m2 0h4m2 0h4M1 7h1m5 0h1m5 0h1M1 8h1m5 0h1M1 9h1m5 0h1m3 0h2m-2 1h4M1 11h4m2 0h4m2 0h3m2 0h1m2 0h1M1 12h1m5 0h1m6 0h3m2 0h1m2 0h1M1 13h1m5 0h1m5 0h1m1 0h3m2 0h1m2 0h1M1 14h1m5 0h1m5 0h1m2 0h3m2 0h1m2 0h1m-8 1h8M1 16h4m2 0h2m1 0h1m2 0h3m1 0h8M1 17h1m5 0h1m3 0h1m5 0h8M1 18h1m5 0h1m4 0h1m4 0h8M1 19h1m5 0h1m5 0h12m-11 1h11m-10 1h10m-9 1h10m-8 1h8m-5 1h5m-4 1h3m-2 1h1"/><path stroke="#000" d="M5 1h1m5 0h1m5 0h1M5 2h1m5 0h1m5 0h1M3 3h1m1 0h1m3 0h1m1 0h1m3 0h1m1 0h1M5 4h1m5 0h1m5 0h1M1 5h5m1 0h5m1 0h5M5 6h1m5 0h1m5 0h1M5 7h1m5 0h1m5 0h1M3 8h1m1 0h1m3 0h1m1 0h1m3 0h1m1 0h1M5 9h1m11 0h1M1 10h5m1 0h4m5 0h1M5 11h1m5 0h2m4 0h1m2 0h1m2 0h1M5 12h1m5 0h1m1 0h1m4 0h1m2 0h1m2 0h1M3 13h1m1 0h1m3 0h1m1 0h1m2 0h1m4 0h1m2 0h1m2 0h1M5 14h1m5 0h1m3 0h1m4 0h1m2 0h1m2 0h1M1 15h5m1 0h5m1 0h3m10 0h1M5 16h1m3 0h1m2 0h1m13 0h1M5 17h1m3 0h1m3 0h1m12 0h1M3 18h1m1 0h1m3 0h2m3 0h3m9 0h1M5 19h1m5 0h1m14 0h1M1 20h5m1 0h6m13 0h1m-14 1h1m12 0h1m-13 1h1m0 1h2m12 0h1m-13 1h3m10 0h1m-11 1h1m10 0h1m-11 1h1m8 0h1m-2 1h1m-2 1h1m-2 1h1m-2 1h1m-2 1h1"/><path stroke="silver" d="M13 9h1m5 2h1m2 0h1m-3 1h1m2 0h1m-3 1h1m2 0h1m-3 1h1m2 0h1m-1 1h1m-1 1h1m-16 1h1m14 0h1m-15 1h1m13 0h1m-14 1h1m12 0h1m-13 1h1m11 0h1m-12 1h1m10 0h1m-11 1h1m10 0h1m-10 1h1m8 0h1m-7 1h1m0 1h1m0 1h1"/><path stroke="maroon" d="M27 22h2m-2 1h1m-2 1h1m2 0h1m-5 1h1m4 0h1m-7 1h1m4 0h1m-8 1h2m4 0h1m-7 1h1m4 0h1m-5 1h1m2 0h1m-3 1h2"/><path stroke="red" d="M28 23h1m-2 1h2m-3 1h4m-5 1h4m-5 1h4m-5 1h4m-3 1h2"/></svg>