<svg xmlns="http://www.w3.org/2000/svg" width="32" height="32" shape-rendering="crispEdges" viewBox="0 -0.5 32 32"><path stroke="olive" d="M10 0h6M9 1h1m6 0h3M8 2h1m10 0h3M7 3h1m3 0h2m9 0h2M6 4h1m3 0h2m12 0h1M6 5h2m1 0h3m3 0h1m9 0h2M6 6h1m1 0h3m4 0h1m1 0h1m4 0h1m4 0h1M6 7h1m2 0h1m5 0h1m1 0h2m4 0h1m4 0h1m-7 1h1m1 0h1m4 0h1M13 9h1m8 0h1m1 0h1m5 0h1M7 10h1m3 0h1m3 0h1m6 0h1m1 0h1M6 11h1m6 0h1m3 0h1m6 0h1m5 0h1M5 12h1m3 0h1m5 0h1m8 0h1m3 0h3M4 13h1m4 0h1m1 0h1m10 0h1m5 0h3M3 14h1m3 0h1m3 0h1m1 0h1m7 0h2m1 0h2m2 0h2M3 15h1m5 0h1m3 0h1m5 0h4m1 0h1m1 0h2m2 0h1M3 16h1m7 0h1m6 0h6m4 0h3M3 17h1m13 0h7m3 0h3m-14 1h8m-9 1h7m-8 1h6m-6 1h4m-4 1h2"/><path stroke="#fff" d="M10 1h1M9 2h1m1 0h5M8 3h1m1 0h1m5 0h3M7 4h1m1 0h1m3 0h1m3 0h1m1 0h2m-3 1h1m2 0h2M7 6h1m5 0h1m9 0h1m1 0h1M7 7h1m4 0h1m7 0h1m3 0h1m1 0h1M10 8h1m2 0h1m1 0h1m9 0h1m1 0h1M11 9h2m3 0h1m1 0h1m1 0h1m5 0h1m1 0h1m-16 1h2m2 0h1m1 0h1m6 0h2m1 0h1M9 11h2m4 0h2m1 0h1m1 0h1m4 0h1m1 0h2m-18 1h2m6 0h1m1 0h1m4 0h1M7 13h2m4 0h2m3 0h1m1 0h1m4 0h1M5 14h1m3 0h2m4 0h1m1 0h1m8 0h1M5 15h3m3 0h2m3 0h1m8 0h1M7 16h3m5 0h1m9 0h1M9 17h3m2 0h1m-4 1h3M1 19h2m10 0h1M1 20h1m1 0h2m-4 1h1m3 0h2m-6 1h1m5 0h2m-8 1h1m7 0h2m0 1h2m0 1h2"/><path stroke="#ff0" d="M11 1h5m-6 1h1m5 0h3M9 3h1m5 0h1m3 0h3M8 4h1m5 0h1m1 0h1m1 0h1m2 0h3M8 5h1m4 0h1m3 0h1m1 0h2m2 0h2m-7 1h2m4 0h1m1 0h1M8 7h1m2 0h1m1 0h1m7 0h1m3 0h1m1 0h1M8 8h1m2 0h2m1 0h1m1 0h1m3 0h1m5 0h1m1 0h1M10 9h1m3 0h2m1 0h1m7 0h1m1 0h1m1 0h1M9 10h2m5 0h1m1 0h1m1 0h1m4 0h1m2 0h1M8 11h1m3 0h1m6 0h1m1 0h2m3 0h1M7 12h2m5 0h1m3 0h1m1 0h1m4 0h1M6 13h1m3 0h1m6 0h1m1 0h1m6 0h1M4 14h1m1 0h1m5 0h1m3 0h1m1 0h1M8 15h1m6 0h1m1 0h1M4 16h1m1 0h1m3 0h1m3 0h1m1 0h1m9 0h1M5 17h1m1 0h1m4 0h2m1 0h1m10 0h1M6 18h1m1 0h1m1 0h1m3 0h1m-8 1h1m1 0h1m1 0h1m-2 1h1m1 0h1m-2 1h1m1 0h1"/><path stroke="#000" d="M13 3h2m-3 1h1m2 0h1m-4 1h1m3 0h1m-6 1h2m3 0h1m3 0h2M10 7h1m5 0h1m2 0h1m2 0h1M7 8h1m1 0h1m7 0h3m3 0h1M8 9h1m10 0h1m3 0h1m-12 1h1m10 0h1m7 0h1m-18 1h1m8 0h1m7 0h1m-22 1h1m5 0h1m6 0h1m7 0h1m-20 1h1m10 0h2m6 0h1M8 14h1m5 0h1m8 0h1m6 0h2m-22 1h1m12 0h1m4 0h2m1 0h1m-20 1h1m11 0h1m6 0h1m-8 1h2m4 0h1M3 18h2m19 0h6m1 0h1M5 19h2m15 0h2m7 0h1M7 20h2m11 0h2m9 0h1M9 21h2m7 0h2m11 0h1m-21 1h2m3 0h2m13 0h1m-19 1h3m14 0h2m-4 1h2M1 25h2m23 0h2M3 26h2m19 0h2M5 27h2m15 0h2M7 28h2m11 0h2M9 29h2m7 0h2m-9 1h2m3 0h2m-5 1h3"/><path stroke="silver" d="M14 5h1m-1 1h1m-1 1h1m6 1h1M9 9h1m11 0h1M8 10h1m12 0h1m8 0h1M7 11h1m21 0h1M6 12h1m10 0h1m4 0h1m4 0h1M5 13h1m10 0h1m10 0h1m-9 1h1m7 0h1M4 15h1m9 0h1m3 0h1M5 16h1m7 0h1m3 0h1m9 0h1M4 17h1m1 0h1m1 0h1m7 0h1M2 18h1m2 0h1m1 0h1m1 0h1m5 0h1M3 19h2m3 0h1m1 0h1m1 0h1m1 0h1m11 0h2M2 20h1m2 0h2m2 0h1m1 0h1m1 0h1m10 0h2M2 21h3m2 0h2m3 0h1m9 0h2M2 22h2m1 0h2m2 0h2m2 0h1m6 0h2M2 23h2m1 0h1m1 0h2m2 0h2m5 0h2M3 24h3m1 0h1m1 0h2m2 0h1m2 0h2M5 25h3m1 0h1m1 0h2m2 0h1m-9 1h3m1 0h1m1 0h2m-6 1h3m1 0h2m-4 1h4m-2 1h2"/><path stroke="gray" d="M11 11h1m1 1h1m1 1h1m5 0h1m-2 1h1M2 17h1m-2 1h1m28 0h1M0 19h1m23 0h2m2 0h3M0 20h1m21 0h2m2 0h5M0 21h1m19 0h2m2 0h7M0 22h1m17 0h2m2 0h9M0 23h1m15 0h2m2 0h10M0 24h3m11 0h2m2 0h10M3 25h2m11 0h10M5 26h2m8 0h9M7 27h2m6 0h7M9 28h2m4 0h5m-9 1h2m2 0h3m-5 1h3"/><path stroke="#0f0" d="M4 22h1m-1 1h1m1 0h1m-1 1h1"/><path stroke="red" d="M8 24h1m-1 1h1m1 0h1m-1 1h1m1 0h1m-1 1h1"/></svg>