<svg xmlns="http://www.w3.org/2000/svg" width="32" height="32" shape-rendering="crispEdges" viewBox="0 -0.5 32 32"><path stroke="gray" d="M5 0h20M5 1h1M5 2h1M5 3h1m4 0h14M5 4h1m4 0h1m12 0h1M5 5h1m4 0h1m12 0h2M5 6h1m4 0h1m12 0h1m1 0h1M5 7h1m4 0h1m12 0h1m2 0h1M5 8h1m4 0h1m12 0h1m3 0h1M5 9h1m4 0h1m12 0h1M5 10h1m4 0h1m-6 1h1m4 0h1m-6 1h1m4 0h1m-6 1h1m4 0h1m-6 1h1m4 0h1m-6 1h1m4 0h1M4 27h1m5 0h1"/><path stroke="#fff" d="M6 1h17M6 2h17M6 3h4M6 4h4m1 0h12M6 5h4m1 0h12M6 6h4m1 0h12M6 7h2m3 0h12m1 0h1M6 8h4m1 0h12m1 0h2M6 9h2m3 0h12M6 10h4m1 0h2m4 0h1m8 0h2M6 11h2m3 0h17M6 12h4m1 0h7m8 0h2M6 13h2m3 0h17M6 14h4m1 0h2m4 0h1m8 0h2M6 15h2m3 0h17m-17 1h7m8 0h2m-15 1h15m-11 1h1m8 0h2m-17 1h1m1 0h15M8 20h1m1 0h1m1 0h6m8 0h2M7 21h1m1 0h1m2 0h16M6 22h1m1 0h1m1 0h1m6 0h1m8 0h2M7 23h1m1 0h1m2 0h16M8 24h1m1 0h1m1 0h6m8 0h2M7 25h1m1 0h1m2 0h16M6 26h1m4 0h17M5 27h1m1 0h1m-2 1h1m1 0h1"/><path stroke="silver" d="M23 1h1m-1 1h1m0 4h1m0 1h1m0 1h1m1 2h1m-1 1h1m-1 1h1m-1 1h1m-1 1h1m-1 1h1m-1 1h1m-1 1h1m-1 1h1m-19 1h1m17 0h1M9 20h1m18 0h1M8 21h1m19 0h1M7 22h1m1 0h1m1 0h1m16 0h1M6 23h1m1 0h1m1 0h1m17 0h1M7 24h1m1 0h1m18 0h1M6 25h1m1 0h1m1 0h1m17 0h1M7 26h1m20 0h1M6 27h1m1 0h1m2 0h18M7 28h1"/><path stroke="#000" d="M24 1h1m-1 1h1m-1 1h1m-1 1h1m0 1h1m0 1h1m0 1h1m0 1h1m-5 1h6m-1 1h1m-1 1h1m-1 1h1m-1 1h1m-1 1h1m-1 1h1M4 16h7m18 0h1M3 17h10m16 0h1M3 18h10m16 0h1M2 19h8m2 0h1m16 0h1M2 20h6m3 0h1m17 0h1M2 21h5m4 0h1m17 0h1M2 22h4m6 0h1m16 0h1M2 23h4m5 0h1m17 0h1M2 24h5m4 0h1m17 0h1M3 25h3m5 0h1m17 0h1M4 26h2m2 0h3m18 0h1M9 27h1m19 0h1m-19 1h19"/><path stroke="#00f" d="M8 7h2M8 9h2m3 1h4m1 0h8M8 11h2m8 1h8M8 13h2m3 1h4m1 0h8M8 15h2m8 1h8m-13 2h4m1 0h8m-8 2h8m-16 1h1m2 1h4m1 0h8m-8 2h8"/><path stroke="maroon" d="M3 28h3m3 0h2m-9 1h1m3 0h3m1 0h2M1 30h1m9 0h2M1 31h12"/><path stroke="red" d="M3 29h3m3 0h1m-8 1h9"/></svg>