<svg xmlns="http://www.w3.org/2000/svg" viewBox="0 -0.5 32 32" shape-rendering="crispEdges">
<path stroke="#808080" d="M0 0h1M14 1h10M13 2h1M24 2h2M12 3h1M0 4h12M0 5h1M10 5h1M0 6h1M9 6h1M0 7h1M8 7h1M0 8h1M7 8h1M0 9h1M6 9h1M0 10h1M5 10h1M24 10h1M0 11h1M4 11h1M11 11h1M23 11h1M0 12h1M4 12h1M12 12h1M0 13h1M13 13h1M0 14h1M14 14h1M0 15h1M0 16h1M0 17h1M0 18h1M0 19h1M0 20h1M0 21h1M0 22h1M0 23h1M0 24h1M0 25h1M0 26h1M0 27h1M0 28h1M0 29h1" />
<path stroke="#800000" d="M0 0h1M26 1h4M26 2h1M29 2h1M26 3h1M29 3h1M26 4h1M29 4h1M26 5h1M29 5h1M26 6h1M29 6h1M26 7h1M29 7h1M26 8h1M29 8h1M26 9h1M29 9h1M26 10h1M29 10h1M26 11h1M29 11h1M26 12h4" />
<path stroke="#000000" d="M0 0h1M30 1h1M30 2h1M30 3h1M30 4h1M14 5h1M30 5h1M13 6h1M30 6h1M12 7h1M16 7h1M30 7h1M11 8h1M15 8h1M30 8h1M10 9h1M14 9h1M18 9h1M30 9h1M9 10h2M13 10h1M17 10h1M25 10h1M30 10h1M8 11h1M12 11h1M16 11h1M24 11h1M30 11h1M7 12h1M15 12h1M19 12h5M30 12h1M5 13h2M14 13h1M18 13h1M21 13h1M26 13h5M3 14h1M5 14h1M7 14h1M9 14h1M11 14h1M13 14h1M17 14h1M21 14h1M15 15h2M21 15h1M21 16h1M3 17h15M21 17h1M21 18h1M21 19h1M3 20h15M21 20h1M21 21h1M21 22h1M3 23h15M21 23h1M21 24h1M21 25h1M3 26h15M21 26h1M21 27h1M21 28h1M21 29h1M0 30h22" />
<path stroke="#c0c0c0" d="M0 0h1M14 2h1M13 5h1M12 6h1M11 7h1M15 7h1M10 8h1M14 8h1M9 9h1M13 9h1M17 9h1M8 10h1M11 10h2M16 10h1M7 11h1M15 11h1M19 11h4M5 12h2M13 12h2M18 12h1M17 13h1M20 13h1M15 14h2M20 14h1M20 15h1M20 16h1M20 17h1M20 18h1M20 19h1M20 20h1M20 21h1M20 22h1M20 23h1M20 24h1M20 25h1M20 26h1M20 27h1M20 28h1M1 29h20" />
<path stroke="#ffffff" d="M0 0h1M15 2h9M13 3h13M12 4h14M1 5h1M3 5h3M7 5h3M11 5h2M15 5h11M1 6h3M5 6h3M10 6h2M14 6h12M1 7h1M3 7h3M7 7h1M9 7h2M13 7h2M17 7h9M1 8h3M5 8h2M8 8h2M12 8h2M16 8h10M1 9h1M3 9h3M7 9h2M11 9h2M15 9h2M19 9h7M1 10h3M6 10h2M14 10h2M18 10h6M1 11h1M3 11h1M5 11h2M9 11h1M13 11h2M17 11h2M1 12h3M9 12h3M16 12h2M1 13h1M3 13h2M7 13h3M11 13h2M15 13h2M19 13h1M1 14h2M6 14h1M10 14h1M18 14h2M1 15h1M3 15h3M7 15h3M11 15h3M17 15h1M19 15h1M1 16h3M5 16h3M9 16h3M13 16h3M17 16h3M1 17h1M19 17h1M1 18h3M5 18h3M9 18h3M13 18h3M17 18h3M1 19h1M3 19h3M7 19h3M11 19h3M15 19h3M19 19h1M1 20h2M18 20h2M1 21h1M3 21h3M7 21h3M11 21h3M15 21h3M19 21h1M1 22h3M5 22h3M9 22h3M13 22h3M17 22h3M1 23h1M19 23h1M1 24h3M5 24h3M9 24h3M13 24h3M17 24h3M1 25h1M3 25h3M7 25h3M11 25h3M15 25h3M19 25h1M1 26h2M18 26h2M1 27h1M3 27h3M7 27h3M11 27h3M15 27h3M19 27h1M1 28h3M5 28h3M9 28h3M13 28h3M17 28h3" />
<path stroke="#ff0000" d="M0 0h1M27 2h2M27 3h2M27 4h2M27 5h2M27 6h2M27 7h2M27 8h2M27 9h2M27 10h2M27 11h2" />
<path stroke="#ffff00" d="M0 0h1M2 5h1M6 5h1M4 6h1M8 6h1M2 7h1M6 7h1M4 8h1M2 9h1M4 10h1M2 11h1M10 11h1M8 12h1M2 13h1M10 13h1M4 14h1M8 14h1M12 14h1M2 15h1M6 15h1M10 15h1M14 15h1M18 15h1M4 16h1M8 16h1M12 16h1M16 16h1M2 17h1M18 17h1M4 18h1M8 18h1M12 18h1M16 18h1M2 19h1M6 19h1M10 19h1M14 19h1M18 19h1M2 21h1M6 21h1M10 21h1M14 21h1M18 21h1M4 22h1M8 22h1M12 22h1M16 22h1M2 23h1M18 23h1M4 24h1M8 24h1M12 24h1M16 24h1M2 25h1M6 25h1M10 25h1M14 25h1M18 25h1M2 27h1M6 27h1M10 27h1M14 27h1M18 27h1M4 28h1M8 28h1M12 28h1M16 28h1" />
</svg>