<svg xmlns="http://www.w3.org/2000/svg" viewBox="0 -0.5 16 16" shape-rendering="crispEdges">
<path stroke="#808080" d="M0 0h1M10 1h3M9 2h1M13 2h2M5 3h4M3 4h1M7 4h1M2 5h1M7 5h1M1 6h1M4 6h1M14 6h1M0 7h1M3 7h1M15 7h1M0 8h1M2 8h1M5 8h1M14 8h1M0 9h2M4 9h1M6 9h1M12 9h3M0 10h2M12 10h3M1 11h1M9 11h1M13 11h2M8 12h3M7 13h4M7 14h2" />
<path stroke="#ffffff" d="M0 0h1M10 2h3M9 3h6M6 4h1M8 4h5M3 5h1M8 5h4M2 6h1M1 7h1M4 7h1M1 8h1M3 8h1M2 9h1M2 10h2M4 11h2" />
<path stroke="#000000" d="M0 0h1M15 3h1M6 8h1M15 8h1M5 9h1M7 9h1M15 9h1M6 10h1M15 10h1M0 11h1M15 11h1M1 12h1M14 12h1M2 13h2M11 13h1M9 14h2M6 15h3" />
<path stroke="#ff0000" d="M0 0h1M4 4h2M13 4h2M4 5h3M12 5h3M5 6h3M11 6h3M6 7h3M10 7h3M7 8h5M8 9h3M7 10h5M6 11h3M10 11h3M5 12h3M11 12h3M4 13h3M12 13h3M4 14h2M13 14h2" />
<path stroke="#c0c0c0" d="M0 0h1M3 6h1M8 6h3M2 7h1M5 7h1M9 7h1M13 7h2M4 8h1M12 8h2M3 9h1M11 9h1M4 10h2M2 11h2M2 12h3M6 14h1" />
</svg>