<svg xmlns="http://www.w3.org/2000/svg" width="16" height="16" shape-rendering="crispEdges" viewBox="0 -0.5 16 16"><path stroke="gray" d="M10 1h3M9 2h1m3 0h2M5 3h4M3 4h1m3 0h1M2 5h1m4 0h1M1 6h1m2 0h1m9 0h1M0 7h1m2 0h1m11 0h1M0 8h1m1 0h1m2 0h1m8 0h1M0 9h2m2 0h1m1 0h1m5 0h3M0 10h2m10 0h3M1 11h1m7 0h1m3 0h2m-7 1h3m-4 1h4m-4 1h2"/><path stroke="#fff" d="M10 2h3M9 3h6M6 4h1m1 0h5M3 5h1m4 0h4M2 6h1M1 7h1m2 0h1M1 8h1m1 0h1M2 9h1m-1 1h2m0 1h2"/><path stroke="#000" d="M15 3h1M6 8h1m8 0h1M5 9h1m1 0h1m7 0h1M6 10h1m8 0h1M0 11h1m14 0h1M1 12h1m12 0h1M2 13h2m7 0h1m-3 1h2m-5 1h3"/><path stroke="red" d="M4 4h2m7 0h2M4 5h3m5 0h3M5 6h3m3 0h3M6 7h3m1 0h3M7 8h5M8 9h3m-4 1h5m-6 1h3m1 0h3m-8 1h3m3 0h3M4 13h3m5 0h3M4 14h2m7 0h2"/><path stroke="silver" d="M3 6h1m4 0h3M2 7h1m2 0h1m3 0h1m3 0h2M4 8h1m7 0h2M3 9h1m7 0h1m-8 1h2m-4 1h2m-2 1h3m1 2h1"/></svg>