<svg xmlns="http://www.w3.org/2000/svg" width="16" height="16" shape-rendering="crispEdges" viewBox="0 -0.5 16 16"><path stroke="gray" d="M4 0h9M4 1h1m8 0h1M4 2h1m9 0h1M4 3h1M4 4h1M4 5h1M4 6h1M4 7h1M4 8h1M4 9h1m-1 1h1m-1 1h1m-1 1h1m-1 1h1m-1 1h1"/><path stroke="#fff" d="M5 1h7M5 2h7m1 0h1M5 3h7M5 4h1m3 0h5M5 5h9M5 6h1m1 0h1m1 0h1m1 0h1m1 0h1M5 7h9M5 8h1m7 0h1M5 9h9m-9 1h1m7 0h1m-9 1h9m-9 1h1m7 0h1m-9 1h9"/><path stroke="silver" d="M12 1h1m-1 1h1m1 2h1m-1 1h1m-1 1h1m-1 1h1m-1 1h1m-1 1h1m-1 1h1m-1 1h1m-1 1h1m-1 1h1M5 14h10"/><path stroke="#000" d="M0 3h1m1 0h2m8 0h4m-1 1h1m-1 1h1M0 6h1m1 0h2m2 0h1m1 0h1m1 0h1m1 0h1m2 0h1m-1 1h1m-1 1h1M0 9h1m1 0h2m11 0h1m-1 1h1m-1 1h1M0 12h1m1 0h2m11 0h1m-1 1h1m-1 1h1M4 15h12"/><path stroke="#00f" d="M6 4h3M6 8h7m-7 2h7m-7 2h7"/></svg>