<svg xmlns="http://www.w3.org/2000/svg" width="32" height="32" shape-rendering="crispEdges" viewBox="0 -0.5 32 32"><path stroke="gray" d="M7 0h19M7 1h1m17 0h1M7 2h1m17 0h2M7 3h1m17 0h1m1 0h1M7 4h1m17 0h1m2 0h1M7 5h1m17 0h1m3 0h1M7 6h1m17 0h1M7 7h1M7 8h1M7 9h1m-1 1h1m-1 1h1m-1 1h1m-1 1h1m-1 1h1m-1 1h1m-1 1h1m-1 1h1m-1 1h1m-1 1h1m-1 1h1m-1 1h1m-1 1h1m-1 1h1m-1 1h1m-1 1h1m-1 1h1m-1 1h1m-1 1h1m-1 1h1m-1 1h1"/><path stroke="#fff" d="M8 1h17M8 2h17M8 3h17M8 4h17m1 0h1M8 5h17m1 0h2M8 6h2m8 0h7M8 7h22M8 8h2m8 0h12M8 9h22M8 10h22M8 11h2m1 0h1m1 0h1m1 0h1m1 0h1m1 0h1m1 0h1m1 0h1m1 0h1m1 0h3M8 12h22M8 13h22M8 14h22M8 15h2m18 0h2M8 16h22M8 17h2m18 0h2M8 18h22M8 19h2m18 0h2M8 20h22M8 21h2m18 0h2M8 22h22M8 23h2m18 0h2M8 24h22M8 25h2m8 0h12M8 26h22M8 27h22M8 28h22M8 29h22"/><path stroke="#000" d="M26 1h1m0 1h1m0 1h1m0 1h1m0 1h1M0 6h1m2 0h4m19 0h6m-1 1h1m-1 1h1m-1 1h1M0 10h1m2 0h4m24 0h1m-22 1h1m1 0h1m1 0h1m1 0h1m1 0h1m1 0h1m1 0h1m1 0h1m1 0h1m4 0h1m-1 1h1m-1 1h1M0 14h1m2 0h4m24 0h1m-1 1h1m-1 1h1m-1 1h1M0 18h1m2 0h4m24 0h1m-1 1h1m-1 1h1m-1 1h1M0 22h1m2 0h4m24 0h1m-1 1h1m-1 1h1m-1 1h1M0 26h1m2 0h4m24 0h1m-1 1h1m-1 1h1m-1 1h1m-1 1h1M7 31h25"/><path stroke="silver" d="M26 3h1m0 1h1m0 1h1m1 2h1m-1 1h1m-1 1h1m-1 1h1m-1 1h1m-1 1h1m-1 1h1m-1 1h1m-1 1h1m-1 1h1m-1 1h1m-1 1h1m-1 1h1m-1 1h1m-1 1h1m-1 1h1m-1 1h1m-1 1h1m-1 1h1m-1 1h1m-1 1h1m-1 1h1m-1 1h1M8 30h23"/><path stroke="#00f" d="M10 6h8m-8 2h8m-8 7h18m-18 2h18m-18 2h18m-18 2h18m-18 2h18m-18 2h8"/></svg>