<svg xmlns="http://www.w3.org/2000/svg" viewBox="0 -0.5 16 16" shape-rendering="crispEdges">
<path stroke="#808080" d="M0 0h1M4 0h9M4 1h1M13 1h1M4 2h1M14 2h1M4 3h1M4 4h1M4 5h1M4 6h1M4 7h1M4 8h1M4 9h1M4 10h1M4 11h1M4 12h1M4 13h1M4 14h1" />
<path stroke="#ffffff" d="M0 0h1M5 1h7M5 2h7M13 2h1M5 3h7M5 4h1M9 4h5M5 5h9M5 6h1M7 6h1M9 6h1M11 6h1M13 6h1M5 7h9M5 8h1M13 8h1M5 9h9M5 10h1M13 10h1M5 11h9M5 12h1M13 12h1M5 13h9" />
<path stroke="#c0c0c0" d="M0 0h1M12 1h1M12 2h1M14 4h1M14 5h1M14 6h1M14 7h1M14 8h1M14 9h1M14 10h1M14 11h1M14 12h1M14 13h1M5 14h10" />
<path stroke="#000000" d="M0 0h1M0 3h1M2 3h2M12 3h4M15 4h1M15 5h1M0 6h1M2 6h2M6 6h1M8 6h1M10 6h1M12 6h1M15 6h1M15 7h1M15 8h1M0 9h1M2 9h2M15 9h1M15 10h1M15 11h1M0 12h1M2 12h2M15 12h1M15 13h1M15 14h1M4 15h12" />
<path stroke="#0000ff" d="M0 0h1M6 4h3M6 8h7M6 10h7M6 12h7" />
</svg>