<svg xmlns="http://www.w3.org/2000/svg" viewBox="0 -0.5 16 16" shape-rendering="crispEdges">
<path stroke="#808080" d="M0 0h1M2 0h4M1 1h1M4 1h1M0 2h1M3 2h2M3 3h2M0 4h1M3 4h2M12 4h2M3 5h2M11 5h1M14 5h1M0 6h1M3 6h1M7 6h1M9 6h2M6 7h1M8 7h2M5 8h1M7 8h1M14 8h1M4 9h1M6 9h1M15 9h1M4 10h2M14 10h1M4 11h2M12 11h3M5 12h1M11 12h4M6 13h1M10 13h3M8 14h3" />
<path stroke="#000000" d="M0 0h1M7 0h1M5 1h1M8 1h1M10 1h1M5 2h1M9 2h2M5 3h1M8 3h3M5 4h1M5 5h1M4 6h1M15 6h1M0 7h4M14 7h1M13 8h1M9 9h1M13 9h1M0 10h3M8 10h1M10 10h1M15 10h1M0 11h2M9 11h1M15 11h1M0 12h1M2 12h1M4 12h1M15 12h1M5 13h1M13 13h2M6 14h2M11 14h2M8 15h3" />
<path stroke="#c0c0c0" d="M0 0h1M2 1h2M1 2h2M1 4h2M1 6h2M8 8h4M7 9h2M10 9h3M14 9h1M6 10h2M11 10h3M7 11h2M10 11h2M6 12h1M8 12h3M7 13h2" />
<path stroke="#800000" d="M0 0h1M0 3h1" />
<path stroke="#ff0000" d="M0 0h1M1 3h1" />
<path stroke="#ffffff" d="M0 0h1M2 3h1M2 5h1M12 5h2M11 6h4M7 7h1M10 7h4M6 8h1M12 8h1M5 9h1M9 10h1M6 11h1M7 12h1M9 13h1" />
<path stroke="#008000" d="M0 0h1M0 5h1" />
<path stroke="#00ff00" d="M0 0h1M1 5h1" />
</svg>