<svg xmlns="http://www.w3.org/2000/svg" width="32" height="32" shape-rendering="crispEdges" viewBox="0 -0.5 32 32"><path stroke="gray" d="M8 0h2M6 1h2m2 0h2M4 2h2m6 0h2M2 3h2m7 0h2M0 4h2m7 0h4M0 5h1m6 0h6M0 6h1m4 0h8M0 7h1m4 0h8M0 8h1m4 0h5m1 0h2M0 9h1m4 0h3m1 0h1m1 0h2M0 10h1m4 0h3m1 0h4M0 11h1m4 0h5m1 0h2M0 12h1m4 0h3m1 0h1m1 0h2M0 13h1m4 0h3m1 0h4m10 0h3M0 14h1m4 0h8m9 0h1m3 0h2M0 15h1m4 0h6m10 0h1m6 0h2M5 16h4m5 0h3m1 0h3M5 17h2m5 0h2m3 0h1m2 0h1m-10 1h1m3 0h2m4 0h2m-13 1h1m3 0h1m8 0h2m3 0h2M9 20h1m3 0h1m11 0h1M8 21h1m3 0h1m15 0h2M7 22h1m3 0h1m14 0h4M6 23h1m3 0h1m13 0h6M6 24h1m2 0h1m13 0h7M6 25h4m12 0h8M8 26h2m11 0h8m-19 1h1m9 0h7m-15 1h1m6 0h6m-11 1h1m3 0h5m-7 1h1m1 0h3"/><path stroke="silver" d="M8 1h2M6 2h6M4 3h7M2 4h7M3 5h4M1 6h2M1 7h1m1 0h2M1 8h1m2 0h1M1 9h2m1 0h1m-4 1h1m1 0h2m-4 1h1m2 0h1m-4 1h2m1 0h1m-4 1h1m1 0h2m-4 1h1m2 0h1m-4 1h2m1 0h1m-4 1h4m-2 1h2m10 0h2m1 0h2m-7 1h2m3 0h3m-9 1h2m2 0h7m-12 1h2m2 0h1m2 0h7m2 0h3m-20 1h2m1 0h5m2 0h8M9 22h2m2 0h1m2 0h4m2 0h4M9 23h1m2 0h4m2 0h6M8 24h1m2 0h1m2 0h4m2 0h3m-11 1h2m2 0h6m-11 1h1m2 0h2m2 0h3m-10 1h3m2 0h4m-7 1h3m2 0h1m-4 1h3m-1 1h1"/><path stroke="#000" d="M13 3h1m-1 1h1m-1 1h1m2 0h1m-4 1h1m3 0h1m-5 1h1m4 0h1m-9 1h1m2 0h1m5 0h1M8 9h1m1 0h1m2 0h1m6 0h1m1 0h1M8 10h1m4 0h1m7 0h2m-13 1h1m2 0h1m6 0h3M8 12h1m1 0h1m2 0h1m-6 1h1m4 0h1m-1 1h1m-3 1h2M0 16h1m8 0h2m19 0h1M1 17h2m4 0h2m20 0h1m1 0h1M3 18h4m21 0h1m-2 1h1M1 20h3m13 0h1m8 0h1m3 0h1M1 21h2m16 0h1m10 0h1M1 22h1m1 0h1m11 0h1m5 0h1m8 0h1M4 23h1m12 0h1m12 0h1m-18 1h1m5 0h1m10 0h1m-16 1h1m14 0h1M7 26h1m9 0h1m11 0h1M6 27h1m1 0h2m17 0h2M7 28h1m2 0h2m13 0h2M6 29h1m1 0h1m3 0h2m9 0h2M7 30h1m6 0h2m5 0h2m-7 1h5"/><path stroke="#fff" d="M1 5h2m0 1h2m18 8h3m-4 1h6m-7 1h9m-16 1h1m6 0h8m-17 1h1m4 0h1m5 0h5m-17 1h1m3 0h1m9 0h2m-17 1h1m3 0h1m1 0h1m-8 1h1m8 0h1M8 22h1m3 0h1m1 0h1m5 0h1M7 23h2m2 0h1m4 0h1M7 24h1m2 0h1m1 0h1m5 0h1m-9 1h2m2 0h1m-5 1h1m1 0h2m2 0h1m-3 1h2m0 1h2"/><path stroke="#0f0" d="M2 7h1m-1 3h1m0 2h1m-1 3h1"/><path stroke="red" d="M2 8h1m-1 5h1"/><path stroke="green" d="M3 8h1m-2 3h2m-2 3h1"/><path stroke="maroon" d="M3 9h1m-1 5h1"/></svg>