<svg xmlns="http://www.w3.org/2000/svg" width="16" height="16" shape-rendering="crispEdges" viewBox="0 -0.5 16 16"><path stroke="gray" d="M2 0h4M1 1h1m2 0h1M0 2h1m2 0h2M3 3h2M0 4h1m2 0h2m7 0h2M3 5h2m6 0h1m2 0h1M0 6h1m2 0h1m3 0h1m1 0h2M6 7h1m1 0h2M5 8h1m1 0h1m6 0h1M4 9h1m1 0h1m8 0h1M4 10h2m8 0h1M4 11h2m6 0h3M5 12h1m5 0h4m-9 1h1m3 0h3m-5 1h3"/><path stroke="#000" d="M7 0h1M5 1h1m2 0h1m1 0h1M5 2h1m3 0h2M5 3h1m2 0h3M5 4h1M5 5h1M4 6h1m10 0h1M0 7h4m10 0h1m-2 1h1M9 9h1m3 0h1M0 10h3m5 0h1m1 0h1m4 0h1M0 11h2m7 0h1m5 0h1M0 12h1m1 0h1m1 0h1m10 0h1M5 13h1m7 0h2m-9 1h2m3 0h2m-5 1h3"/><path stroke="silver" d="M2 1h2M1 2h2M1 4h2M1 6h2m5 2h4M7 9h2m1 0h3m1 0h1m-9 1h2m3 0h3m-7 1h2m1 0h2m-6 1h1m1 0h3m-4 1h2"/><path stroke="maroon" d="M0 3h1"/><path stroke="red" d="M1 3h1"/><path stroke="#fff" d="M2 3h1M2 5h1m9 0h2m-3 1h4M7 7h1m2 0h4M6 8h1m5 0h1M5 9h1m3 1h1m-4 1h1m0 1h1m1 1h1"/><path stroke="green" d="M0 5h1"/><path stroke="#0f0" d="M1 5h1"/></svg>