<svg xmlns="http://www.w3.org/2000/svg" viewBox="0 -0.5 16 16" shape-rendering="crispEdges">
<path stroke="#000000" d="M0 0h1M2 1h5M1 2h1M7 2h1M0 3h14M0 4h1M14 4h1M0 5h1M5 5h1M14 5h1M0 6h1M4 6h3M14 6h1M0 7h1M3 7h5M14 7h1M0 8h1M5 8h1M14 8h1M0 9h1M5 9h1M14 9h1M0 10h1M5 10h6M14 10h1M0 11h1M14 11h1M0 12h1M14 12h1M0 13h15" />
<path stroke="#ffff00" d="M0 0h1M2 2h1M4 2h1M6 2h1M2 4h1M4 4h1M6 4h1M8 4h1M10 4h1M12 4h1M1 5h1M3 5h1M7 5h1M9 5h1M11 5h1M13 5h1M2 6h1M8 6h1M10 6h1M12 6h1M1 7h1M9 7h1M11 7h1M13 7h1M2 8h1M4 8h1M6 8h1M8 8h1M10 8h1M12 8h1M1 9h1M3 9h1M7 9h1M9 9h1M11 9h1M13 9h1M2 10h1M4 10h1M12 10h1M1 11h1M3 11h1M5 11h1M7 11h1M9 11h1M11 11h1M13 11h1M2 12h1M4 12h1M6 12h1M8 12h1M10 12h1M12 12h1" />
<path stroke="#ffffff" d="M0 0h1M3 2h1M5 2h1M1 4h1M3 4h1M5 4h1M7 4h1M9 4h1M11 4h1M13 4h1M2 5h1M4 5h1M6 5h1M8 5h1M10 5h1M12 5h1M1 6h1M3 6h1M7 6h1M9 6h1M11 6h1M13 6h1M2 7h1M8 7h1M10 7h1M12 7h1M1 8h1M3 8h1M7 8h1M9 8h1M11 8h1M13 8h1M2 9h1M4 9h1M6 9h1M8 9h1M10 9h1M12 9h1M1 10h1M3 10h1M11 10h1M13 10h1M2 11h1M4 11h1M6 11h1M8 11h1M10 11h1M12 11h1M1 12h1M3 12h1M5 12h1M7 12h1M9 12h1M11 12h1M13 12h1" />
</svg>