<svg xmlns="http://www.w3.org/2000/svg" width="16" height="16" shape-rendering="crispEdges" viewBox="0 -0.5 16 16"><path stroke="gray" d="M2 0h10M2 1h1m9 0h1M2 2h1m10 0h1M2 3h1M2 4h1M2 5h1M2 6h1M2 7h1M2 8h1M2 9h1m-1 1h1m-1 1h1m4 0h1m-6 1h1m-1 1h1m-1 1h1"/><path stroke="#fff" d="M3 1h8M3 2h8m1 0h1M3 3h8M3 4h10M3 5h10M3 6h1m1 0h3m3 0h2M3 7h2m7 0h1M3 8h1m1 0h1m6 0h1M3 9h2m7 0h1M3 10h1m1 0h1m6 0h1M3 11h2m4 0h1m2 0h1M3 12h10M3 13h10"/><path stroke="silver" d="M11 1h1m-1 1h1m1 2h1m-1 1h1m-1 1h1m-1 1h1M6 8h1m6 0h1m-1 1h1m-8 1h1m6 0h1m-6 1h1m1 0h1m2 0h1m-1 1h1m-1 1h1M3 14h11"/><path stroke="#000" d="M11 3h4m-1 1h1m-1 1h1M8 6h3m3 0h1M7 7h1m1 0h1m1 0h1m2 0h1M7 8h5m2 0h1M7 9h1m1 0h1m1 0h1m2 0h1M4 10h1m2 0h5m2 0h1M5 11h2m4 0h1m2 0h1m-1 1h1m-1 1h1m-1 1h1M2 15h13"/><path stroke="red" d="M4 6h1m0 1h2m1 0h1"/><path stroke="green" d="M10 7h1"/><path stroke="#00f" d="M4 8h1m0 1h2m1 0h1"/><path stroke="#ff0" d="M10 9h1"/></svg>