<svg xmlns="http://www.w3.org/2000/svg" width="16" height="16" shape-rendering="crispEdges" viewBox="0 -0.5 16 16"><path stroke="gray" d="M0 1h16M0 2h1m13 0h1M0 3h1m13 0h1M0 4h1m13 0h1M0 5h1m1 0h13M0 6h1m13 0h1M0 7h1m13 0h1M0 8h1m13 0h1M0 9h1m13 0h1M0 10h1m13 0h1M0 11h1m13 0h1M0 12h1m13 0h1M0 13h15"/><path stroke="silver" d="M1 2h13M1 3h1M1 4h1M1 5h1M1 6h1M1 7h1M1 8h1M1 9h1m-1 1h1m-1 1h1m-1 1h1"/><path stroke="#000" d="M15 2h1m-1 1h1M9 4h1m1 0h1m1 0h1m1 0h1m-1 1h1m-1 1h1m-1 1h1m-1 1h1m-1 1h1m-1 1h1m-1 1h1m-1 1h1m-1 1h1M0 14h16"/><path stroke="#0000bf" d="M2 3h12M2 4h6"/><path stroke="#fff" d="M8 4h1m1 0h1m1 0h1M2 6h12M2 7h12M2 8h12M2 9h12M2 10h12M2 11h12M2 12h12"/></svg>