<svg xmlns="http://www.w3.org/2000/svg" viewBox="0 -0.5 32 32" shape-rendering="crispEdges">
<path stroke="#808080" d="M0 0h1M0 4h31M0 5h1M30 5h1M0 6h1M0 7h2M30 7h1M0 8h1M2 8h1M30 8h1M0 9h1M3 9h1M7 9h4M12 9h1M14 9h10M30 9h1M0 10h1M4 10h1M30 10h1M0 11h1M5 11h1M10 11h3M14 11h7M30 11h1M0 12h1M6 12h1M30 12h1M0 13h1M7 13h1M11 13h3M15 13h1M17 13h3M30 13h1M0 14h1M8 14h1M30 14h1M0 15h1M9 15h1M30 15h1M0 16h1M10 16h1M30 16h1M0 17h1M11 17h1M30 17h1M0 18h1M12 18h1M30 18h1M0 19h1M13 19h1M30 19h1M0 20h1M30 20h1M0 21h1M30 21h1M0 22h1M30 22h1M0 23h1M30 23h1M0 24h1M30 24h1M0 25h1M30 25h1M0 26h31" />
<path stroke="#000000" d="M0 0h1M31 4h1M31 5h1M30 6h2M29 7h1M31 7h1M28 8h1M31 8h1M27 9h1M31 9h1M26 10h1M31 10h1M25 11h1M31 11h1M24 12h1M31 12h1M23 13h1M31 13h1M22 14h1M31 14h1M21 15h1M31 15h1M20 16h1M31 16h1M19 17h1M31 17h1M18 18h1M31 18h1M14 19h4M31 19h1M31 20h1M31 21h1M31 22h1M31 23h1M31 24h1M31 25h1M31 26h1M0 27h32" />
<path stroke="#ffffff" d="M0 0h1M1 5h29M1 6h29M2 7h27M1 8h1M3 8h25M29 8h1M1 9h2M4 9h3M11 9h1M13 9h1M24 9h3M28 9h2M1 10h3M5 10h21M27 10h3M1 11h4M6 11h4M13 11h1M21 11h4M26 11h4M1 12h5M7 12h17M25 12h5M1 13h6M8 13h3M14 13h1M16 13h1M20 13h3M24 13h6M1 14h7M9 14h13M23 14h7M1 15h8M10 15h11M22 15h8M1 16h9M11 16h9M21 16h9M1 17h10M12 17h7M20 17h10M1 18h11M13 18h5M19 18h11M1 19h12M18 19h12M1 20h29M1 21h29M1 22h29M1 23h29M1 24h29M1 25h29" />
</svg>