<svg xmlns="http://www.w3.org/2000/svg" width="16" height="16" shape-rendering="crispEdges" viewBox="0 -0.5 16 16"><path stroke="gray" d="M2 0h12M1 1h1m11 0h1M0 2h1m11 0h2M0 3h1m11 0h2M0 4h1m11 0h2M0 5h1m11 0h2M0 6h1m11 0h2M0 7h1m11 0h2M0 8h1m11 0h2M0 9h1m11 0h2M0 10h13m-8 2h1m2 0h1m-6 1h2m4 0h3m-1 1h1"/><path stroke="silver" d="M2 1h10M1 2h1m9 1h1m-1 1h1m-1 1h1m-1 1h1m-1 1h1m-1 1h1m-1 1h1m-5 3h1m-2 1h3m-6 1h8"/><path stroke="#fff" d="M12 1h1M2 2h10M1 3h1M1 4h1M1 5h1M1 6h1M1 7h1M1 8h1M1 9h10m-5 3h1m-2 1h1"/><path stroke="#000" d="M14 1h1m-1 1h1M2 3h9m3 0h1M2 4h9m3 0h1M2 5h9m3 0h1M2 6h9m3 0h1M2 7h9m3 0h1M2 8h9m3 0h1m-1 1h1m-2 1h1M1 11h12m-4 1h1m-8 2h1m9 0h1M3 15h9"/></svg>