<svg xmlns="http://www.w3.org/2000/svg" width="16" height="16" shape-rendering="crispEdges" viewBox="0 -0.5 16 16"><path stroke="gray" d="M2 1h5M1 2h1m5 0h1M0 3h1m7 0h6M0 4h1m2 0h7M0 5h1m2 0h1M0 6h1m2 0h1M0 7h1m2 0h1M0 8h1m2 0h1M0 9h1m2 0h1m-4 1h1m2 0h1m-4 1h1m-1 1h1"/><path stroke="silver" d="M2 2h1m1 0h1m1 0h1M1 3h1m1 0h1m1 0h1m1 0h1m3 2h1M2 6h1m2 0h1m2 0h1m3 0h1M6 7h1m4 0h1M2 8h1m9 0h1M5 9h1m2 0h1m2 0h1M2 10h1m9 0h1m-2 1h1"/><path stroke="#ff0" d="M3 2h1m1 0h1M2 3h1m1 0h1m1 0h1M2 5h1m2 0h1m2 0h1m3 0h1m-2 1h1M2 7h1m1 0h1m4 0h1m2 0h1m-2 1h1M2 9h1m9 0h1m-8 1h1m2 0h1m2 0h1M2 11h1m9 0h1"/><path stroke="#fff" d="M1 4h2m8 0h2M1 5h1m2 0h1m1 0h2m1 0h1M1 6h1m2 0h1m4 0h1M1 7h1M1 8h1m2 0h1m4 0h1M1 9h1m2 0h1m4 0h1m-9 1h1m2 0h1m1 0h2m1 0h1m-9 1h1"/><path stroke="#000" d="M10 4h1m3 0h1m-5 1h1m3 0h1m-5 1h1m3 0h1m-5 1h1m3 0h1m-5 1h1m3 0h1m-5 1h1m3 0h1m-5 1h1m3 0h1M3 11h8m3 0h1m-1 1h1M1 13h14"/><path stroke="olive" d="M13 4h1m-1 1h1m-1 1h1m-1 1h1m-1 1h1m-1 1h1m-1 1h1m-1 1h1M1 12h13"/><path stroke="teal" d="M6 6h2M5 7h1M5 8h1"/><path stroke="green" d="M7 7h1"/><path stroke="navy" d="M8 7h1M8 8h1M6 9h2"/><path stroke="#00f" d="M6 8h2"/></svg>