<svg xmlns="http://www.w3.org/2000/svg" width="32" height="32" shape-rendering="crispEdges" viewBox="0 -0.5 32 32"><path stroke="gray" d="M4 2h9M3 3h1m9 0h1M2 4h1m11 0h1M1 5h1m13 0h1M0 6h1m15 0h14M0 7h1M0 8h1m10 0h10M0 9h1m10 0h1m9 0h1M0 10h1m7 0h10m4 0h1M0 11h1m7 0h1m9 0h1M0 12h1m7 0h1m10 0h1M0 13h1m7 0h1m-9 1h1m7 0h1m-9 1h1m7 0h1m4 0h1M0 16h1m7 0h1m8 0h1M0 17h1m7 0h1m-9 1h1m7 0h1m4 0h1M0 19h1m7 0h1m2 0h1M0 20h1m7 0h1m-9 1h1m7 0h1m-9 1h1m7 0h1m-9 1h1m7 0h1m-9 1h1m7 0h1m-9 1h1m-1 1h1m-1 1h1"/><path stroke="#fff" d="M4 3h9M3 4h1M2 5h1M1 7h29M1 8h1M1 9h1m10 0h3m1 0h3M1 10h1m16 0h2m1 0h1M1 11h1m7 0h3m1 0h3m3 0h1M1 12h1m7 0h1m1 0h3m1 0h2m1 0h1m1 0h1M1 13h1m7 0h3m1 0h3m5 0h1M1 14h1m7 0h1m1 0h1m5 0h1M1 15h1m7 0h2m7 0h1m2 0h1M1 16h1m7 0h1m11 0h1M1 17h1m7 0h2m1 0h1m5 0h1M1 18h1m7 0h1m11 0h1M1 19h1m7 0h2m7 0h1m2 0h1M1 20h1m7 0h1m-9 1h1m7 0h3m5 0h2m2 0h1M1 22h1m7 0h1m1 0h3m1 0h3m3 0h1M1 23h1m7 0h3m1 0h3m1 0h2M1 24h1m-1 1h1m-1 1h1"/><path stroke="#ff0" d="M4 4h1m1 0h1m1 0h1m1 0h1m1 0h1M3 5h1m1 0h1m1 0h1m1 0h1m1 0h1m1 0h1M2 8h1m1 0h1m1 0h1m1 0h1m1 0h1m11 0h1m1 0h1m1 0h1m1 0h1M3 9h1m1 0h1m1 0h1m1 0h1m5 0h1m3 0h1m3 0h1m1 0h1m1 0h1m1 0h1M2 10h1m1 0h1m1 0h1m17 0h1m1 0h1m1 0h1M3 11h1m1 0h1m1 0h1m4 0h1m3 0h1m8 0h1m1 0h1m1 0h1M2 12h1m1 0h1m1 0h1m3 0h1m3 0h1m6 0h1m2 0h1m1 0h1m1 0h1M3 13h1m1 0h1m1 0h1m4 0h1m3 0h1m8 0h1m1 0h1m1 0h1M2 14h1m1 0h1m1 0h1m3 0h1m7 0h1m2 0h1m2 0h1m1 0h1m1 0h1M3 15h1m1 0h1m1 0h1m17 0h1m1 0h1m1 0h1M2 16h1m1 0h1m1 0h1m3 0h1m7 0h1m5 0h1m1 0h1m1 0h1M3 17h1m1 0h1m1 0h1m13 0h1m3 0h1m1 0h1m1 0h1M2 18h1m1 0h1m1 0h1m3 0h1m7 0h1m5 0h1m1 0h1m1 0h1M3 19h1m1 0h1m1 0h1m17 0h1m1 0h1m1 0h1M2 20h1m1 0h1m1 0h1m3 0h1m7 0h1m2 0h1m2 0h1m1 0h1m1 0h1M3 21h1m1 0h1m1 0h1m17 0h1m1 0h1m1 0h1M2 22h1m1 0h1m1 0h1m3 0h1m3 0h1m3 0h1m5 0h1m1 0h1m1 0h1M3 23h1m1 0h1m1 0h1m4 0h1m3 0h1m8 0h1m1 0h1m1 0h1M2 24h1m1 0h1m1 0h1m15 0h1m1 0h1m1 0h1m1 0h1M3 25h1m1 0h1m1 0h1m13 0h1m1 0h1m1 0h1m1 0h1m1 0h1M2 26h1m1 0h1m1 0h1m1 0h1m1 0h1m1 0h1m1 0h1m1 0h1m1 0h1m1 0h1m1 0h1m1 0h1m1 0h1m1 0h1"/><path stroke="silver" d="M5 4h1m1 0h1m1 0h1m1 0h1m1 0h1M4 5h1m1 0h1m1 0h1m1 0h1m1 0h1m1 0h1M1 6h15M3 8h1m1 0h1m1 0h1m1 0h1m11 0h1m1 0h1m1 0h1m1 0h1m1 0h1M2 9h1m1 0h1m1 0h1m1 0h1m1 0h1m9 0h1m1 0h1m1 0h1m1 0h1m1 0h1M3 10h1m1 0h1m1 0h1m12 0h1m2 0h1m1 0h1m1 0h1m1 0h1M2 11h1m1 0h1m1 0h1m10 0h1m6 0h1m1 0h1m1 0h1M3 12h1m1 0h1m1 0h1m9 0h1m4 0h1m2 0h1m1 0h1m1 0h1M2 13h1m1 0h1m1 0h1m15 0h1m1 0h1m1 0h1m1 0h1M3 14h1m1 0h1m1 0h1m4 0h1m3 0h1m2 0h1m2 0h1m2 0h1m1 0h1m1 0h1M2 15h1m1 0h1m1 0h1m4 0h1m5 0h1m1 0h1m2 0h1m1 0h1m1 0h1m1 0h1M3 16h1m1 0h1m1 0h1m4 0h1m6 0h1m2 0h1m2 0h1m1 0h1m1 0h1M2 17h1m1 0h1m1 0h1m6 0h1m5 0h1m2 0h1m1 0h1m1 0h1m1 0h1M3 18h1m1 0h1m1 0h1m4 0h1m6 0h1m2 0h1m2 0h1m1 0h1m1 0h1M2 19h1m1 0h1m1 0h1m12 0h1m2 0h1m1 0h1m1 0h1m1 0h1M3 20h1m1 0h1m1 0h1m3 0h1m5 0h1m1 0h1m2 0h1m2 0h1m1 0h1m1 0h1M2 21h1m1 0h1m1 0h1m5 0h1m3 0h1m2 0h1m2 0h1m1 0h1m1 0h1m1 0h1M3 22h1m1 0h1m1 0h1m11 0h1m2 0h1m2 0h1m1 0h1m1 0h1M2 23h1m1 0h1m1 0h1m12 0h1m4 0h1m1 0h1m1 0h1M3 24h1m1 0h1m1 0h1m1 0h11m1 0h1m1 0h1m1 0h1m1 0h1m1 0h1M2 25h1m1 0h1m1 0h1m15 0h1m1 0h1m1 0h1m1 0h1M3 26h1m1 0h1m1 0h1m1 0h1m1 0h1m1 0h1m1 0h1m1 0h1m1 0h1m1 0h1m1 0h1m1 0h1m1 0h1m1 0h1"/><path stroke="#000" d="M30 7h1m0 1h1m-1 1h1m-1 1h1m-12 1h4m7 0h1m-9 1h1m7 0h1m-15 1h4m2 0h1m7 0h1m-12 1h1m2 0h1m7 0h1m-12 1h1m2 0h1m7 0h1m-12 1h1m2 0h1m7 0h1m-12 1h1m2 0h1m7 0h1m-12 1h1m2 0h1m7 0h1m-12 1h1m2 0h1m7 0h1m-16 1h1m3 0h1m2 0h1m7 0h1m-19 1h3m4 0h1m2 0h1m7 0h1m-12 1h1m2 0h1m7 0h1m-12 1h4m7 0h1m-12 1h1m10 0h1M8 25h13m10 0h1m-1 1h1m-1 1h1M1 28h30"/><path stroke="olive" d="M30 8h1m-1 1h1m-1 1h1m-1 1h1m-1 1h1m-1 1h1m-1 1h1m-1 1h1m-1 1h1m-1 1h1m-1 1h1m-1 1h1m-1 1h1m-1 1h1m-1 1h1m-1 1h1m-1 1h1m-1 1h1m-1 1h1M1 27h30"/><path stroke="teal" d="M13 14h3m-4 1h1m1 0h1m1 0h1m-6 1h1m1 0h1m1 0h1m-5 1h1m-1 1h1m3 0h1"/><path stroke="green" d="M15 15h1m0 1h1m-3 1h1m-1 1h1m-1 1h1"/><path stroke="#00f" d="M14 16h1m1 1h1m-1 1h1m-5 1h2m1 0h1m-3 1h1"/><path stroke="navy" d="M15 17h1m1 0h1m-1 1h1m-2 1h2m-6 1h1m1 0h2"/></svg>