<svg xmlns="http://www.w3.org/2000/svg" width="32" height="32" shape-rendering="crispEdges" viewBox="0 -0.5 32 32"><path stroke="teal" d="M2 6h29M1 7h1M1 8h1m1 0h2m15 0h10M1 9h1m1 0h2m15 0h10M1 10h1m1 0h2m15 0h10M1 11h1m1 0h2m15 0h10M1 12h1m1 0h27M1 13h1m1 0h2m3 0h1m3 0h1m3 0h1m3 0h1m3 0h1m3 0h2M1 14h1m1 0h2m3 0h1m3 0h1m3 0h1m3 0h1m3 0h1m3 0h2M1 15h1m1 0h2m3 0h1m3 0h1m3 0h1m3 0h1m3 0h1m3 0h2M1 16h1m1 0h27M1 17h1m1 0h2m3 0h1m3 0h1m3 0h1m3 0h1m3 0h1m3 0h2M1 18h1m1 0h2m3 0h1m3 0h1m3 0h1m3 0h1m3 0h1m3 0h2M1 19h1m1 0h2m3 0h1m3 0h1m3 0h1m3 0h1m3 0h1m3 0h2M1 20h1m1 0h27M1 21h1m1 0h2m3 0h1m3 0h1m3 0h1m3 0h1m7 0h2M1 22h1m1 0h2m3 0h1m3 0h1m3 0h1m3 0h1m7 0h2M1 23h1m1 0h2m3 0h1m3 0h1m3 0h1m3 0h1m7 0h2M1 24h1m1 0h27M1 25h2"/><path stroke="#fff" d="M2 7h1m1 0h1m1 0h1m1 0h1m1 0h1m1 0h1m1 0h1m1 0h1m1 0h1m1 0h1m1 0h1m1 0h1m1 0h1m1 0h1M2 9h1m3 1h13M2 11h1m-1 2h1m2 0h2m2 0h2m2 0h2m2 0h2m2 0h2m2 0h2M5 14h1m3 0h1m3 0h1m3 0h1m3 0h1m3 0h1M2 15h1m-1 2h1m2 0h2m2 0h2m2 0h2m2 0h2m2 0h2m2 0h2M5 18h1m3 0h1m3 0h1m3 0h1m3 0h1m3 0h1M2 19h1m-1 2h1m2 0h2m2 0h2m2 0h2m2 0h2m2 0h6M5 22h1m3 0h1m3 0h1m3 0h1m3 0h1M2 23h1"/><path stroke="#0ff" d="M3 7h1m1 0h1m1 0h1m1 0h1m1 0h1m1 0h1m1 0h1m1 0h1m1 0h1m1 0h1m1 0h1m1 0h1m1 0h1m1 0h1M2 8h1m-1 2h1m-1 2h1m-1 2h1m-1 2h1m-1 2h1m-1 2h1m-1 2h1m-1 2h1"/><path stroke="navy" d="M30 7h1m-1 1h1m-1 1h1m-1 1h1m-1 1h1m-1 1h1m-1 1h1m-1 1h1m-1 1h1m-1 1h1m-1 1h1m-1 1h1m-1 1h1m-1 1h1m-1 1h1m-1 1h1m-1 1h1m-1 1h1M3 25h28"/><path stroke="#000" d="M31 7h1M5 8h15m11 0h1M5 9h1m25 0h1M5 10h1m25 0h1M5 11h1m25 0h1m-1 1h1M7 13h1m3 0h1m3 0h1m3 0h1m3 0h1m3 0h1m3 0h1M7 14h1m3 0h1m3 0h1m3 0h1m3 0h1m3 0h1m3 0h1M5 15h3m1 0h3m1 0h3m1 0h3m1 0h3m1 0h3m3 0h1m-1 1h1M7 17h1m3 0h1m3 0h1m3 0h1m3 0h1m3 0h1m3 0h1M7 18h1m3 0h1m3 0h1m3 0h1m3 0h1m3 0h1m3 0h1M5 19h3m1 0h3m1 0h3m1 0h3m1 0h3m1 0h3m3 0h1m-1 1h1M7 21h1m3 0h1m3 0h1m3 0h1m7 0h1m3 0h1M7 22h1m3 0h1m3 0h1m3 0h1m7 0h1m3 0h1M5 23h3m1 0h3m1 0h3m1 0h3m1 0h7m3 0h1m-1 1h1m-1 1h1M2 26h29"/><path stroke="silver" d="M6 9h14m-1 1h1M6 11h14M6 14h1m3 0h1m3 0h1m3 0h1m3 0h1m3 0h1M6 18h1m3 0h1m3 0h1m3 0h1m3 0h1m3 0h1M6 22h1m3 0h1m3 0h1m3 0h1m3 0h5"/></svg>