<svg xmlns="http://www.w3.org/2000/svg" viewBox="0 -0.5 16 16" shape-rendering="crispEdges">
<path stroke="#008080" d="M0 0h1M1 2h14M0 3h1M14 3h1M0 4h1M10 4h4M0 5h1M10 5h4M0 6h1M10 6h4M0 7h1M2 7h12M0 8h1M2 8h1M0 9h1M2 9h12M0 10h1M2 10h1M0 11h1M2 11h12M0 12h2" />
<path stroke="#ffffff" d="M0 0h1M1 3h1M3 3h1M5 3h1M7 3h1M9 3h1M11 3h1M13 3h1M1 5h1M3 5h6M1 7h1M4 8h1M6 8h1M8 8h1M10 8h1M12 8h1M1 9h1M4 10h1M6 10h1M8 10h1M10 10h2M1 11h1" />
<path stroke="#00ffff" d="M0 0h1M2 3h1M4 3h1M6 3h1M8 3h1M10 3h1M12 3h1M1 4h1M1 6h1M1 8h1M1 10h1" />
<path stroke="#000000" d="M0 0h1M15 3h1M2 4h8M15 4h1M2 5h1M15 5h1M2 6h1M15 6h1M15 7h1M3 8h1M5 8h1M7 8h1M9 8h1M11 8h1M13 8h1M15 8h1M15 9h1M3 10h1M5 10h1M7 10h1M9 10h1M13 10h1M15 10h1M15 11h1M15 12h1M1 13h14" />
<path stroke="#000080" d="M0 0h1M14 4h1M14 5h1M14 6h1M14 7h1M14 8h1M14 9h1M14 10h1M14 11h1M2 12h13" />
<path stroke="#c0c0c0" d="M0 0h1M9 5h1M3 6h7M12 10h1" />
</svg>