<svg xmlns="http://www.w3.org/2000/svg" width="16" height="16" shape-rendering="crispEdges" viewBox="0 -0.5 16 16"><path stroke="teal" d="M1 2h14M0 3h1m13 0h1M0 4h1m9 0h4M0 5h1m9 0h4M0 6h1m9 0h4M0 7h1m1 0h12M0 8h1m1 0h1M0 9h1m1 0h12M0 10h1m1 0h1m-3 1h1m1 0h12M0 12h2"/><path stroke="#fff" d="M1 3h1m1 0h1m1 0h1m1 0h1m1 0h1m1 0h1m1 0h1M1 5h1m1 0h6M1 7h1m2 1h1m1 0h1m1 0h1m1 0h1m1 0h1M1 9h1m2 1h1m1 0h1m1 0h1m1 0h2M1 11h1"/><path stroke="#0ff" d="M2 3h1m1 0h1m1 0h1m1 0h1m1 0h1m1 0h1M1 4h1M1 6h1M1 8h1m-1 2h1"/><path stroke="#000" d="M15 3h1M2 4h8m5 0h1M2 5h1m12 0h1M2 6h1m12 0h1m-1 1h1M3 8h1m1 0h1m1 0h1m1 0h1m1 0h1m1 0h1m1 0h1m-1 1h1M3 10h1m1 0h1m1 0h1m1 0h1m3 0h1m1 0h1m-1 1h1m-1 1h1M1 13h14"/><path stroke="navy" d="M14 4h1m-1 1h1m-1 1h1m-1 1h1m-1 1h1m-1 1h1m-1 1h1m-1 1h1M2 12h13"/><path stroke="silver" d="M9 5h1M3 6h7m2 4h1"/></svg>