<svg xmlns="http://www.w3.org/2000/svg" viewBox="0 -0.5 16 16" shape-rendering="crispEdges">
<path stroke="#808080" d="M0 0h1M0 4h1M0 5h2M3 5h9M0 6h1M11 6h1M14 6h2M0 7h1M11 7h1M13 7h1M11 8h1M2 9h1M11 9h1M14 9h1M2 10h1M11 10h1M2 11h10" />
<path stroke="#ffffff" d="M0 0h1M1 6h1M3 6h4M14 7h1M13 8h1" />
<path stroke="#000000" d="M0 0h1M2 6h1M8 6h1M12 6h1M1 7h2M8 7h1M12 7h1M15 7h1M0 8h1M2 8h6M12 8h1M15 8h1M12 9h2M15 9h1M8 10h1M10 10h1M12 10h1M14 10h2M12 11h1M2 12h11" />
<path stroke="#c0c0c0" d="M0 0h1M7 6h1M9 6h2M3 7h5M9 7h2M8 8h3M14 8h1M3 9h8M4 10h4M9 10h1" />
<path stroke="#ff0000" d="M0 0h1M3 10h1" />
</svg>