<svg xmlns="http://www.w3.org/2000/svg" width="32" height="32" shape-rendering="crispEdges" viewBox="0 -0.5 32 32"><path stroke="#000" d="M0 0h31M0 1h1m29 0h1M0 2h1m29 0h1M0 3h1m29 0h1M0 4h1m3 0h1m1 0h2m1 0h2m3 0h2m14 0h1M0 5h1m3 0h8m1 0h4m13 0h1M0 6h1m3 0h2m1 0h2m1 0h4m2 0h2m12 0h1M0 7h1m3 0h2m1 0h2m1 0h5m15 0h1M0 8h1m3 0h2m1 0h2m1 0h2m1 0h4m13 0h1M0 9h1m3 0h2m1 0h2m1 0h2m3 0h3m12 0h1M0 10h1m3 0h2m1 0h2m1 0h4m2 0h2m12 0h1M0 11h1m3 0h2m1 0h2m1 0h2m1 0h4m8 0h2m3 0h1M0 12h1m3 0h2m1 0h2m1 0h2m2 0h2m9 0h2m3 0h1M0 13h1m29 0h1M0 14h1m29 0h1M0 15h1m29 0h1M0 16h1m29 0h1M0 17h1m19 0h2m8 0h1M0 18h1m21 0h2m6 0h1M0 19h1m23 0h1m5 0h1M0 20h1m24 0h1m4 0h1M0 21h1m25 0h1m3 0h1M0 22h1m25 0h1m3 0h1M0 23h1m2 0h1m23 0h1m2 0h1M0 24h1m26 0h1m2 0h1M0 25h1m1 0h1m24 0h2m1 0h1M0 26h1m27 0h1m1 0h1M0 27h1m1 0h1m25 0h1m1 0h1M0 28h1m26 0h2m1 0h1M0 29h1m1 0h1m1 0h1m23 0h1m1 0h1M0 30h31"/><path stroke="silver" d="M1 1h29M1 2h1m26 0h1M1 3h1M1 4h1m26 0h1M1 5h1M1 6h1m26 0h1M1 7h1M1 8h1m26 0h1M1 9h1m-1 1h1m26 0h1M1 11h1m-1 1h1m26 0h1M1 13h1m-1 1h1m26 0h1M1 15h1m-1 1h1m26 0h1M1 17h1m9 0h1m1 0h1m1 0h1m1 0h1m1 0h1M1 18h1m8 0h1m1 0h1m1 0h1m1 0h1m1 0h1m1 0h1m7 0h1M1 19h1m5 0h1m1 0h1m1 0h1m1 0h1m1 0h1m1 0h1m1 0h1m1 0h1M1 20h1m4 0h1m1 0h1m1 0h1m3 0h1m1 0h1m1 0h1m1 0h1m7 0h1M1 21h1m3 0h1m1 0h1m1 0h1m7 0h1m1 0h1m1 0h1M1 22h1m4 0h1m11 0h1m1 0h1m1 0h1m2 0h1m2 0h1M1 23h1m17 0h1m1 0h1M1 24h1m26 0h1M1 25h1m-1 1h1m-1 1h1m-1 1h1"/><path stroke="gray" d="M31 1h1m-3 1h1m1 0h1m-3 1h1m1 0h1m-3 1h1m1 0h1m-3 1h1m1 0h1m-3 1h1m1 0h1m-3 1h1m1 0h1m-3 1h1m1 0h1m-3 1h1m1 0h1m-3 1h1m1 0h1m-3 1h1m1 0h1m-3 1h1m1 0h1m-3 1h1m1 0h1m-3 1h1m1 0h1m-3 1h1m1 0h1m-21 1h9m9 0h1m1 0h1M9 17h2m18 0h1m1 0h1M7 18h2m20 0h1m1 0h1M6 19h1m22 0h1m1 0h1M5 20h1m6 0h1m16 0h1m1 0h1M4 21h1m8 0h1m15 0h1m1 0h1M4 22h1m7 0h1m3 0h1m12 0h1m1 0h1M5 23h1m5 0h1m5 0h1m2 0h1m1 0h1m6 0h1m1 0h1M3 24h1m12 0h1m1 0h4m7 0h1m1 0h1m-15 1h1m1 0h2m1 0h1m1 0h1m4 0h1m1 0h1M2 26h1m10 0h1m5 0h1m9 0h1m1 0h1m-12 1h1m8 0h1m1 0h1M2 28h1m18 0h1m7 0h1m1 0h1M1 29h1m18 0h1m1 0h1m6 0h1m1 0h1m-1 1h1M1 31h31"/><path stroke="#fff" d="M2 2h26M2 3h27M2 4h2m1 0h1m2 0h1m2 0h3m2 0h2m2 0h1m3 0h4M2 5h2m8 0h1m4 0h1m7 0h4M2 6h2m2 0h1m2 0h1m4 0h2m5 0h1m3 0h3M2 7h2m2 0h1m2 0h1m5 0h3m3 0h1m3 0h4M2 8h2m2 0h1m2 0h1m2 0h1m4 0h1m3 0h1m3 0h3M2 9h2m2 0h1m2 0h1m2 0h3m6 0h1m3 0h4M2 10h2m2 0h1m2 0h1m4 0h2m5 0h1m3 0h3M2 11h2m2 0h1m2 0h1m2 0h1m4 0h1m3 0h1m5 0h2M2 12h2m2 0h1m2 0h1m2 0h2m2 0h2m3 0h1m5 0h1M2 13h27M2 14h26M2 15h27M2 16h9m9 0h8M2 17h7m3 0h1m1 0h1m1 0h1m1 0h1m3 0h7M2 18h5m2 0h1m1 0h1m12 0h4M2 19h4m2 0h1m1 0h1m1 0h1m9 0h1m2 0h4M2 20h3m2 0h1m1 0h1m1 0h1m9 0h1m1 0h1m2 0h2M2 21h2m2 0h1m1 0h1m6 0h1m2 0h1m1 0h1m1 0h1m1 0h1m2 0h2M2 22h2m1 0h1m8 0h1m4 0h1m1 0h1m1 0h1m3 0h1M2 23h1m10 0h1m1 0h1m2 0h1m9 0h1M2 24h1m15 1h1"/><path stroke="red" d="M18 4h2m1 0h3m-6 1h7m-7 1h3m1 0h3m-7 1h3m1 0h3m-7 1h3m1 0h3m-7 1h3m1 0h3m-7 1h3m1 0h3m-7 1h3m1 0h3m-7 1h3m1 0h3"/><path stroke="#0ff" d="M13 18h1m1 0h1m1 0h1m1 0h1m-6 1h1m1 0h1m-4 1h1m-4 1h1"/><path stroke="teal" d="M21 18h1m1 1h1m-2 1h1m1 0h1m-2 1h1m1 0h1M7 22h1m1 0h1m14 0h1M6 23h1m1 0h1m14 0h2m1 0h1M5 24h1m1 0h1m4 0h1m9 0h2m1 0h1M6 25h1m19 0h1m-2 1h1m1 0h1m-2 3h1"/><path stroke="#00f" d="M18 19h1m-4 1h1m1 0h1m1 0h1m-9 1h2m1 0h1m1 0h1m-9 1h1m1 0h1m6 0h1M7 23h1m1 0h1m-6 1h1m1 0h1m-4 1h1m1 0h1m0 1h1m-2 1h1m-2 1h1m0 1h1"/><path stroke="navy" d="M11 22h1m1 0h1m1 0h1M4 23h1m5 0h1m1 0h1m1 0h1m1 0h1m-9 1h2m1 0h1m1 0h3m1 0h1M4 25h1m2 0h2m3 0h5M3 26h3m1 0h1m8 0h2M3 27h2m1 0h1m11 0h1m3 0h3m2 0h1M3 28h1m1 0h1m9 0h1m2 0h2m3 0h4M3 29h1m2 0h1m7 0h1m1 0h1m1 0h2m3 0h3m1 0h1"/><path stroke="maroon" d="M25 23h1m-16 1h1m13 0h1m1 0h1M9 25h1m1 0h1m9 0h1m1 0h1m1 0h1M8 26h1m1 0h1m1 0h1m1 0h1m3 0h1m1 0h1m1 0h1m1 0h1m1 0h1M7 27h1m1 0h1m1 0h1m1 0h1m1 0h1m1 0h1m3 0h1m3 0h1M6 28h1m1 0h1m1 0h1m1 0h1m1 0h1m1 0h1m3 0h1m1 0h1M7 29h1m1 0h1m1 0h1m1 0h1m1 0h1m1 0h1m3 0h1"/><path stroke="olive" d="M10 25h1m-2 1h1m1 0h1m9 0h1m1 0h1M8 27h1m1 0h1m1 0h1m6 0h1M7 28h1"/><path stroke="green" d="M15 26h1m-2 1h1m1 0h1m9 0h1M9 28h1m1 0h1m1 0h1m3 0h1M8 29h1m1 0h1m1 0h1"/></svg>