<svg xmlns="http://www.w3.org/2000/svg" viewBox="0 -0.5 32 32" shape-rendering="crispEdges">
<path stroke="#808080" d="M0 0h1M16 5h6M11 7h1M10 8h1M9 9h1M8 11h1M28 11h1M27 12h1M29 12h1M7 13h1M26 13h1M28 13h1M6 14h1M19 14h2M25 14h1M27 14h1M29 14h1M6 15h1M21 15h1M24 15h1M26 15h1M28 15h1M30 15h1M6 16h1M15 16h1M22 16h2M25 16h1M27 16h1M29 16h1M6 17h1M15 17h1M22 17h1M6 18h2M9 18h1M11 18h1M13 18h1M15 18h1M22 18h1M6 19h1M8 19h1M10 19h1M12 19h1M14 19h2M22 19h1M6 20h2M9 20h1M11 20h1M13 20h1M16 20h1M21 20h1M6 21h1M8 21h1M10 21h1M12 21h1M17 21h4M6 22h2M9 22h1M11 22h1M7 23h2M10 23h1M8 24h2M8 25h1M9 26h2M10 27h1M11 28h2M24 28h1M13 29h3M22 30h3" />
<path stroke="#000000" d="M0 0h1M12 6h6M22 6h3M4 7h1M10 7h1M12 7h1M15 7h1M17 7h2M25 7h2M5 8h1M7 8h2M12 8h1M15 8h1M18 8h1M27 8h1M10 9h1M12 9h1M15 9h1M18 9h1M28 9h1M12 10h7M29 10h1M4 11h1M10 11h1M12 11h1M15 11h1M17 11h2M29 11h1M5 12h1M7 12h2M12 12h1M15 12h1M18 12h1M30 12h1M10 13h1M12 13h1M15 13h1M18 13h1M30 13h1M12 14h7M31 14h1M4 15h1M10 15h1M12 15h2M17 15h4M31 15h1M5 16h1M7 16h2M16 16h2M20 16h2M31 16h1M16 17h1M21 17h1M31 17h1M16 18h1M21 18h1M31 18h1M16 19h2M20 19h2M31 19h1M17 20h4M31 20h1M31 21h1M30 22h1M30 23h1M27 27h1M25 28h2M22 29h3M16 30h6" />
<path stroke="#c0c0c0" d="M0 0h1M18 6h4M19 7h6M11 8h1M19 8h8M11 9h1M19 9h8M9 10h3M19 10h7M27 10h1M9 11h1M11 11h1M19 11h6M26 11h1M9 12h3M19 12h5M25 12h1M28 12h1M8 13h2M11 13h1M19 13h4M24 13h1M27 13h1M29 13h1M9 14h3M21 14h1M23 14h1M26 14h1M28 14h1M30 14h1M7 15h3M11 15h1M14 15h3M25 15h1M27 15h1M29 15h1M9 16h6M24 16h1M26 16h1M28 16h1M30 16h1M7 17h8M23 17h8M8 18h1M10 18h1M12 18h1M14 18h1M23 18h8M7 19h1M9 19h1M11 19h1M13 19h1M23 19h8M8 20h1M10 20h1M12 20h1M15 20h1M22 20h9M7 21h1M9 21h1M11 21h1M14 21h1M16 21h1M22 21h9M8 22h1M10 22h1M13 22h1M15 22h4M20 22h1M23 22h7M9 23h1M12 23h1M14 23h4M21 23h1M24 23h6M11 24h1M13 24h6M21 24h1M25 24h4M10 25h1M12 25h6M22 25h1M26 25h3M11 26h8M22 26h1M27 26h1M11 27h7M23 27h1M13 28h6M23 28h1M16 29h2" />
<path stroke="#800000" d="M0 0h1M13 7h1" />
<path stroke="#ff0000" d="M0 0h1M14 7h1M13 8h2M4 9h1M13 9h2M5 10h1M7 10h2" />
<path stroke="#00ff00" d="M0 0h1M16 7h1M16 8h2M16 9h2M20 23h1M20 24h1M20 25h2M20 26h2M21 27h2M21 28h2M21 29h1" />
<path stroke="#ffffff" d="M0 0h1M27 9h1M26 10h1M28 10h1M25 11h1M27 11h1M24 12h1M26 12h1M23 13h1M25 13h1M22 14h1M24 14h1M22 15h2M14 20h1M13 21h1M15 21h1M12 22h1M14 22h1M11 23h1M13 23h1M10 24h1M12 24h1M9 25h1M11 25h1" />
<path stroke="#000080" d="M0 0h1M13 11h1" />
<path stroke="#0000ff" d="M0 0h1M14 11h1M13 12h2M4 13h1M13 13h2M5 14h1M7 14h2" />
<path stroke="#ffff00" d="M0 0h1M16 11h1M16 12h2M16 13h2M19 22h1M18 23h2M19 24h1M18 25h2M19 26h1M18 27h3M19 28h2M18 29h3" />
<path stroke="#00ffff" d="M0 0h1M21 21h1M21 22h2M22 23h2M22 24h3M23 25h3M23 26h4M24 27h3" />
</svg>