<svg xmlns="http://www.w3.org/2000/svg" width="32" height="32" shape-rendering="crispEdges" viewBox="0 -0.5 32 32"><path stroke="gray" d="M16 5h6M11 7h1m-2 1h1M9 9h1m-2 2h1m19 0h1m-2 1h1m1 0h1M7 13h1m18 0h1m1 0h1M6 14h1m12 0h2m4 0h1m1 0h1m1 0h1M6 15h1m14 0h1m2 0h1m1 0h1m1 0h1m1 0h1M6 16h1m8 0h1m6 0h2m1 0h1m1 0h1m1 0h1M6 17h1m8 0h1m6 0h1M6 18h2m1 0h1m1 0h1m1 0h1m1 0h1m6 0h1M6 19h1m1 0h1m1 0h1m1 0h1m1 0h2m6 0h1M6 20h2m1 0h1m1 0h1m1 0h1m2 0h1m4 0h1M6 21h1m1 0h1m1 0h1m1 0h1m4 0h4M6 22h2m1 0h1m1 0h1m-5 1h2m1 0h1m-3 1h2m-2 1h1m0 1h2m-1 1h1m0 1h2m11 0h1m-12 1h3m6 1h3"/><path stroke="#000" d="M12 6h6m4 0h3M4 7h1m5 0h1m1 0h1m2 0h1m1 0h2m6 0h2M5 8h1m1 0h2m3 0h1m2 0h1m2 0h1m8 0h1M10 9h1m1 0h1m2 0h1m2 0h1m9 0h1m-17 1h7m10 0h1M4 11h1m5 0h1m1 0h1m2 0h1m1 0h2m10 0h1M5 12h1m1 0h2m3 0h1m2 0h1m2 0h1m11 0h1m-21 1h1m1 0h1m2 0h1m2 0h1m11 0h1m-19 1h7m12 0h1M4 15h1m5 0h1m1 0h2m3 0h4m10 0h1M5 16h1m1 0h2m7 0h2m2 0h2m9 0h1m-16 1h1m4 0h1m9 0h1m-16 1h1m4 0h1m9 0h1m-16 1h2m2 0h2m9 0h1m-15 1h4m10 0h1m-1 1h1m-2 1h1m-1 1h1m-4 4h1m-3 1h2m-5 1h3m-9 1h6"/><path stroke="silver" d="M18 6h4m-3 1h6M11 8h1m7 0h8M11 9h1m7 0h8M9 10h3m7 0h7m1 0h1M9 11h1m1 0h1m7 0h6m1 0h1M9 12h3m7 0h5m1 0h1m2 0h1M8 13h2m1 0h1m7 0h4m1 0h1m2 0h1m1 0h1M9 14h3m9 0h1m1 0h1m2 0h1m1 0h1m1 0h1M7 15h3m1 0h1m2 0h3m8 0h1m1 0h1m1 0h1M9 16h6m9 0h1m1 0h1m1 0h1m1 0h1M7 17h8m8 0h8M8 18h1m1 0h1m1 0h1m1 0h1m8 0h8M7 19h1m1 0h1m1 0h1m1 0h1m9 0h8M8 20h1m1 0h1m1 0h1m2 0h1m6 0h9M7 21h1m1 0h1m1 0h1m2 0h1m1 0h1m5 0h9M8 22h1m1 0h1m2 0h1m1 0h4m1 0h1m2 0h7M9 23h1m2 0h1m1 0h4m3 0h1m2 0h6m-19 1h1m1 0h6m2 0h1m3 0h4m-19 1h1m1 0h6m4 0h1m3 0h3m-18 1h8m3 0h1m4 0h1m-17 1h7m5 0h1m-11 1h6m4 0h1m-8 1h2"/><path stroke="maroon" d="M13 7h1"/><path stroke="red" d="M14 7h1m-2 1h2M4 9h1m8 0h2M5 10h1m1 0h2"/><path stroke="#0f0" d="M16 7h1m-1 1h2m-2 1h2m2 14h1m-1 1h1m-1 1h2m-2 1h2m-1 1h2m-2 1h2m-2 1h1"/><path stroke="#fff" d="M27 9h1m-2 1h1m1 0h1m-4 1h1m1 0h1m-4 1h1m1 0h1m-4 1h1m1 0h1m-4 1h1m1 0h1m-3 1h2m-10 5h1m-2 1h1m1 0h1m-4 1h1m1 0h1m-4 1h1m1 0h1m-4 1h1m1 0h1m-4 1h1m1 0h1"/><path stroke="navy" d="M13 11h1"/><path stroke="#00f" d="M14 11h1m-2 1h2M4 13h1m8 0h2M5 14h1m1 0h2"/><path stroke="#ff0" d="M16 11h1m-1 1h2m-2 1h2m1 9h1m-2 1h2m-1 1h1m-2 1h2m-1 1h1m-2 1h3m-2 1h2m-3 1h3"/><path stroke="#0ff" d="M21 21h1m-1 1h2m-1 1h2m-2 1h3m-2 1h3m-3 1h4m-3 1h3"/></svg>