<svg xmlns="http://www.w3.org/2000/svg" width="32" height="32" shape-rendering="crispEdges" viewBox="0 -0.5 32 32"><path stroke="gray" d="M10 3h6M7 4h3m6 0h3M5 5h3M4 6h1M3 7h1M2 8h1M2 9h1m-2 1h1m-1 1h1m-2 1h1m10 0h4M0 13h1m9 0h1M0 14h1m8 0h1m6 0h1M0 15h1m8 0h1m6 0h1M0 16h2m1 0h1m1 0h1m1 0h1m1 0h1m6 0h1M0 17h1m1 0h1m1 0h1m1 0h1m1 0h2m6 0h1M0 18h2m1 0h1m1 0h1m1 0h1m2 0h1m4 0h1M0 19h1m1 0h1m1 0h1m1 0h1m4 0h4M1 20h1m1 0h1m1 0h1m-5 1h2m1 0h1m-3 1h2m-2 1h1m0 1h1m0 1h1m0 1h2m11 0h1M7 27h2"/><path stroke="#000" d="M24 3h6m-6 1h6M19 5h2m3 0h1m4 0h1m-9 1h1m2 0h1m4 0h1M15 7h17M15 8h1m3 0h1m4 0h1m4 0h1m1 0h1M15 9h17m-17 1h1m3 0h1m2 0h3m2 0h3m1 0h1m-17 1h17m-17 1h1m3 0h1m11 0h1m-21 1h21m-22 1h1m4 0h1m1 0h3m5 0h1m-16 1h1m4 0h1m1 0h2m6 0h1m-16 1h1m4 0h1m9 0h1m-16 1h1m4 0h1m9 0h1m-15 1h4m10 0h1m-1 1h1m-2 1h1m-1 1h1m-2 1h1m-1 1h1m-2 1h1m-2 1h1m-3 1h2m-5 1h3M9 28h7"/><path stroke="#ff0" d="M10 4h3m-3 1h3m-3 1h3m-2 1h2m-2 1h2m-2 1h2m-2 1h2m-2 1h2m0 9h1m-2 1h2m-1 1h1m-2 1h2m-1 1h1m-2 1h3m-2 1h2m-3 1h3"/><path stroke="silver" d="M13 4h3m-3 1h6m-6 1h8m-8 1h2M3 8h2m8 0h2M4 9h2m7 0h2M5 10h2m6 0h2M2 11h2m2 0h2m5 0h2M1 12h5m1 0h2m-8 1h6m1 0h2m-9 1h7m12 0h5M1 15h8m10 0h6M2 16h1m1 0h1m1 0h1m1 0h1m8 0h8M1 17h1m1 0h1m1 0h1m1 0h1m9 0h8M2 18h1m1 0h1m1 0h1m2 0h1m6 0h9M1 19h1m1 0h1m1 0h1m2 0h1m1 0h1m5 0h9M2 20h1m1 0h1m2 0h1m1 0h4m1 0h1m2 0h7M3 21h1m2 0h1m1 0h4m3 0h1m2 0h6M5 22h1m1 0h6m2 0h1m3 0h4M4 23h1m1 0h6m4 0h1m3 0h3M5 24h8m3 0h1m4 0h1M5 25h7m5 0h1M7 26h6m4 0h1m-9 1h3"/><path stroke="#0ff" d="M8 5h2M7 6h3M8 7h3M8 8h3M3 9h1m5 0h2m-9 1h3m4 0h2m-7 1h2m4 0h1m-5 1h1m0 1h1m0 1h1m6 5h1m-1 1h2m-1 1h2m-2 1h3m-2 1h3m-3 1h4m-3 1h3"/><path stroke="#0f0" d="M5 6h2M4 7h4M5 8h3M6 9h3m-2 1h2m-1 1h2m-1 1h2m3 9h1m-1 1h1m-1 1h2m-2 1h2m-1 1h2m-2 1h2m-2 1h1"/><path stroke="#fff" d="M16 8h3m1 0h4m1 0h4m1 0h1m-15 2h3m1 0h2m3 0h2m3 0h1m-15 2h3m1 0h11M8 18h1m-2 1h1m1 0h1m-4 1h1m1 0h1m-4 1h1m1 0h1m-4 1h1m1 0h1m-4 1h1m1 0h1m-2 1h1"/></svg>