<svg xmlns="http://www.w3.org/2000/svg" viewBox="0 -0.5 16 16" shape-rendering="crispEdges">
<path stroke="#000000" d="M0 0h1M12 0h2M12 1h4M12 2h1M14 2h2M12 3h1M15 3h1M11 4h2M15 4h1M10 5h3M15 5h1M10 6h2M14 6h2M7 7h1M13 7h3M6 8h1M8 8h1M13 8h2M7 9h1M14 9h1M14 10h1M13 11h1M13 12h1M12 13h1M10 14h2M7 15h3" />
<path stroke="#808080" d="M0 0h1M5 1h5M3 2h2M10 2h2M2 3h1M1 4h1M13 4h1M1 5h1M13 5h1M0 6h1M0 7h1M6 7h1M8 7h1M0 8h1M0 9h1M6 9h1M8 9h1M0 10h1M1 11h1M1 12h1M2 13h1M3 14h2M5 15h2" />
<path stroke="#ffff00" d="M0 0h1M5 2h2M4 3h3M5 4h2M5 5h2M6 6h1M9 10h1M9 11h1M9 12h2M10 13h2" />
<path stroke="#c0c0c0" d="M0 0h1M7 2h3M7 3h5M7 4h4M7 5h3M1 6h2M7 6h2M12 6h2M1 7h3M9 7h4M1 8h4M9 8h4M1 9h4M10 9h4M1 10h3M5 10h2M11 10h3M2 11h1M4 11h4M12 11h1M3 12h5M3 13h5M5 14h3" />
<path stroke="#00ffff" d="M0 0h1M3 3h1M3 4h2M4 5h1M5 6h1M5 7h1M9 9h1M10 10h1M10 11h2M11 12h2" />
<path stroke="#00ff00" d="M0 0h1M2 4h1M2 5h2M3 6h2M4 7h1M5 8h1M8 10h1M8 11h1M8 12h1M8 13h2M8 14h2" />
<path stroke="#ffffff" d="M0 0h1M9 6h1M7 8h1M5 9h1M4 10h1M7 10h1M3 11h1M2 12h1" />
</svg>