<svg xmlns="http://www.w3.org/2000/svg" viewBox="0 -0.5 32 32" shape-rendering="crispEdges">
<path stroke="#808080" d="M0 0h1M8 2h15M8 3h1M22 3h1M8 4h1M22 4h2M8 5h1M22 5h1M24 5h1M8 6h1M22 6h1M25 6h1M8 7h1M22 7h1M8 8h6M7 9h2M6 10h1M5 11h1M5 12h1M4 13h1M4 14h1M10 14h1M12 14h1M4 15h1M4 16h1M10 16h1M12 16h1M4 17h1M5 18h1M5 19h1M6 20h1M7 21h2M8 22h3M8 23h1M8 24h1M8 25h1M8 26h1M8 27h1M8 28h1" />
<path stroke="#ffffff" d="M0 0h1M9 3h13M9 4h13M9 5h13M23 5h1M9 6h13M23 6h2M9 7h13M14 8h12M16 9h10M17 10h9M15 11h1M18 11h8M14 12h1M20 12h6M13 13h1M20 13h6M21 14h5M11 15h1M21 15h5M9 16h1M21 16h5M8 17h1M11 17h1M21 17h5M7 18h1M21 18h5M6 19h1M21 19h5M21 20h5M20 21h6M19 22h7M9 23h1M18 23h8M9 24h3M17 24h9M9 25h17M9 26h17M9 27h17" />
<path stroke="#000000" d="M0 0h1M23 3h1M24 4h1M25 5h1M26 6h1M23 7h5M27 8h1M14 9h2M27 9h1M16 10h1M27 10h1M17 11h1M27 11h1M17 12h1M27 12h1M18 13h1M27 13h1M11 14h1M18 14h1M27 14h1M10 15h1M12 15h1M18 15h1M27 15h1M11 16h1M18 16h1M27 16h1M18 17h1M27 17h1M17 18h1M27 18h1M17 19h1M27 19h1M16 20h1M27 20h1M14 21h2M27 21h1M11 22h3M27 22h1M27 23h1M27 24h1M27 25h1M27 26h1M27 27h1M27 28h1M8 29h20" />
<path stroke="#c0c0c0" d="M0 0h1M26 8h1M11 9h3M26 9h1M11 10h5M26 10h1M11 11h4M16 11h1M26 11h1M11 12h3M15 12h2M18 12h2M26 12h1M5 13h2M11 13h2M14 13h4M19 13h1M26 13h1M5 14h3M13 14h5M19 14h2M26 14h1M5 15h4M13 15h5M19 15h2M26 15h1M5 16h4M14 16h4M19 16h2M26 16h1M5 17h3M9 17h2M15 17h3M19 17h2M26 17h1M6 18h1M8 18h4M16 18h1M18 18h3M26 18h1M7 19h5M18 19h3M26 19h1M7 20h5M17 20h4M26 20h1M9 21h3M16 21h4M26 21h1M14 22h5M26 22h1M10 23h8M26 23h1M12 24h5M26 24h1M26 25h1M26 26h1M26 27h1M9 28h18" />
<path stroke="#ffff00" d="M0 0h1M9 9h2M8 10h3M9 11h2M9 12h2M10 13h1M13 17h1M13 18h1M13 19h2M14 20h2" />
<path stroke="#00ffff" d="M0 0h1M7 10h1M7 11h2M8 12h1M9 13h1M9 14h1M13 16h1M14 17h1M14 18h2M15 19h2" />
<path stroke="#00ff00" d="M0 0h1M6 11h1M6 12h2M7 13h2M8 14h1M9 15h1M12 17h1M12 18h1M12 19h1M12 20h2M12 21h2" />
</svg>