<svg xmlns="http://www.w3.org/2000/svg" width="16" height="16" shape-rendering="crispEdges" viewBox="0 -0.5 16 16"><path stroke="#000" d="M12 0h2m-2 1h4m-4 1h1m1 0h2m-4 1h1m2 0h1m-5 1h2m2 0h1m-6 1h3m2 0h1m-6 1h2m2 0h2M7 7h1m5 0h3M6 8h1m1 0h1m4 0h2M7 9h1m6 0h1m-1 1h1m-2 1h1m-1 1h1m-2 1h1m-3 1h2m-5 1h3"/><path stroke="gray" d="M5 1h5M3 2h2m5 0h2M2 3h1M1 4h1m11 0h1M1 5h1m11 0h1M0 6h1M0 7h1m5 0h1m1 0h1M0 8h1M0 9h1m5 0h1m1 0h1m-9 1h1m0 1h1m-1 1h1m0 1h1m0 1h2m0 1h2"/><path stroke="#ff0" d="M5 2h2M4 3h3M5 4h2M5 5h2M6 6h1m2 4h1m-1 1h1m-1 1h2m-1 1h2"/><path stroke="silver" d="M7 2h3M7 3h5M7 4h4M7 5h3M1 6h2m4 0h2m3 0h2M1 7h3m5 0h4M1 8h4m4 0h4M1 9h4m5 0h4M1 10h3m1 0h2m4 0h3M2 11h1m1 0h4m4 0h1M3 12h5m-5 1h5m-3 1h3"/><path stroke="#0ff" d="M3 3h1M3 4h2M4 5h1m0 1h1M5 7h1m3 2h1m0 1h1m-1 1h2m-1 1h2"/><path stroke="#0f0" d="M2 4h1M2 5h2M3 6h2M4 7h1m0 1h1m2 2h1m-1 1h1m-1 1h1m-1 1h2m-2 1h2"/><path stroke="#fff" d="M9 6h1M7 8h1M5 9h1m-2 1h1m2 0h1m-5 1h1m-2 1h1"/></svg>