<svg xmlns="http://www.w3.org/2000/svg" width="32" height="32" shape-rendering="crispEdges" viewBox="0 -0.5 32 32"><path stroke="gray" d="M16 0h6m-9 1h3m-5 1h3m-4 1h1M9 4h1M8 5h1M8 6h1m19 0h1M7 7h1m19 0h1m1 0h1M7 8h1m18 0h1m1 0h1M6 9h1m10 0h4m4 0h1m1 0h1m1 0h1M5 10h4m1 0h1m5 0h1m4 0h1m2 0h1m1 0h1m1 0h1m1 0h1M3 11h2m7 0h1m2 0h1m6 0h2m1 0h1m1 0h1m1 0h1M2 12h1m10 0h1m1 0h1m6 0h1M1 13h1m12 0h2m6 0h1M1 14h1m12 0h1m7 0h1M0 15h1m14 0h2m4 0h1M0 16h1m14 0h1m1 0h4M0 17h1m14 0h1M0 18h1m14 0h1M1 19h1m12 0h1M1 20h1m12 0h1M2 21h1m10 0h1m1 0h1m-3 1h2m1 0h1m-7 1h1m3 0h1m2 0h1m6 0h1m-14 1h1m6 0h1m-7 1h1"/><path stroke="#ff0" d="M16 1h3m-3 1h3m-3 1h3m-2 1h2m-2 1h2m-2 1h2m-2 1h2m-2 1h2m0 9h1m-2 1h2m-1 1h1m-2 1h2m-1 1h1m-2 1h3m-2 1h2m-2 1h2"/><path stroke="silver" d="M19 1h3m-3 1h6m-6 1h8m-8 1h8M9 5h2m8 0h7m1 0h1M10 6h2m7 0h6m1 0h1M11 7h2m6 0h5m1 0h1m2 0h1M8 8h2m2 0h2m5 0h4m1 0h1m2 0h1m1 0h1M7 9h5m1 0h2m6 0h1m1 0h1m2 0h1m1 0h1m1 0h1m-20 1h2m1 0h2m9 0h1m1 0h1m1 0h1m-17 1h1m10 0h1m1 0h1m1 0h1m1 0h1m-17 1h1m8 0h8m-8 1h8m-16 1h1m7 0h8m-9 1h9m-15 1h1m5 0h9m-15 1h3m1 0h1m2 0h7m-14 1h2m3 0h1m2 0h6m-15 1h4m2 0h1m3 0h4M2 20h1m12 0h3m4 0h1m3 0h3M3 21h1m12 0h3m3 0h1m4 0h1m-16 1h1m4 0h1m5 0h1m-13 1h1m1 0h1m9 0h1m-12 1h1"/><path stroke="#000" d="M22 1h3m0 1h2m0 1h1m0 1h1m0 1h1m-1 1h1m0 1h1m-1 1h1m0 1h1M9 10h1m7 0h4m10 0h1m-22 1h2m4 0h1m4 0h1m9 0h1m-20 1h1m3 0h1m4 0h1m9 0h1m-19 1h1m2 0h1m4 0h1m9 0h1m-19 1h1m2 0h1m4 0h1m9 0h1m-18 1h1m2 0h4m10 0h1m-18 1h1m16 0h1m-18 1h1m15 0h1m-17 1h1m15 0h1m-18 1h1m15 0h1m-17 1h1m15 0h1m-18 1h1m1 0h1m13 0h1M3 22h2m5 0h2m3 0h1m11 0h1M5 23h5m6 0h1m8 0h2m-10 1h1m4 0h3m-7 1h4m-3 1h1m0 1h1m0 1h1m-1 1h1m-1 1h1m-4 1h3"/><path stroke="#0ff" d="M14 2h2m-3 1h3m-2 1h3m-3 1h3M9 6h1m5 0h2M8 7h3m4 0h2m-7 1h2m4 0h1m-5 1h1m0 1h1m-7 1h1m1 0h1m4 0h1M4 12h1m1 0h1m1 0h1m1 0h1m-8 1h1m1 0h1m1 0h1m1 0h1m1 0h1M2 14h1m1 0h1m1 0h1m1 0h1m1 0h1m1 0h1M1 15h1m1 0h1m1 0h1m1 0h1m1 0h1m1 0h1M2 16h1m1 0h1m1 0h1m1 0h1m1 0h1m1 0h1m8 0h1M1 17h1m1 0h1m1 0h1m1 0h1m1 0h1m1 0h1m9 0h2M2 18h1m1 0h1m1 0h1m1 0h1m1 0h1m1 0h1m9 0h2M3 19h1m1 0h1m1 0h1m1 0h1m1 0h1m10 0h3M4 20h1m1 0h1m1 0h1m1 0h1m12 0h3M5 21h1m1 0h1m1 0h1m13 0h4m-3 1h3m-13 2h1m-1 1h2m-1 1h2m-1 1h2m-1 1h2m-1 1h2m-1 1h1"/><path stroke="#0f0" d="M11 3h2m-3 1h4m-3 1h3m-2 1h3m-2 1h2m-1 1h2m-1 1h2m3 9h1m-1 1h1m-1 1h2m-2 1h2m-1 1h2m-2 1h2m-2 1h1"/><path stroke="#fff" d="M27 4h1m-2 1h1m1 0h1m-4 1h1m1 0h1m-4 1h1m1 0h1m-4 1h1m1 0h1m-4 1h1m1 0h1m-3 1h2M5 11h2m1 0h1m-6 1h1m1 0h1m1 0h1m1 0h1m-8 1h1m1 0h1m1 0h1m1 0h1m1 0h1m-8 1h1m1 0h1m1 0h1m1 0h1m1 0h1M2 15h1m1 0h1m1 0h1m1 0h1m1 0h1m1 0h1M1 16h1m1 0h1m1 0h1m1 0h1m1 0h1m1 0h1M2 17h1m1 0h1m1 0h1m1 0h1m1 0h1m1 0h1M1 18h1m1 0h1m1 0h1m1 0h1m1 0h1m1 0h1M2 19h1m1 0h1m1 0h1m1 0h1m1 0h1m-8 1h1m1 0h1m1 0h1m1 0h1m-6 1h1m1 0h1m1 0h1m3 2h1m5 0h1m-6 1h1"/><path stroke="teal" d="M11 12h1m0 1h1m0 2h1m-1 1h1m-1 1h1m-1 1h1m-2 1h1m-2 1h2m-3 1h2m-7 1h5"/><path stroke="#00f" d="M15 23h1m-1 1h2m-4 1h1m2 0h2m-4 1h1m2 0h2m-4 1h1m2 0h2m-4 1h1m2 0h2m-4 1h1m2 0h1m-3 1h1m1 0h1"/><path stroke="navy" d="M13 26h1m0 1h1m0 1h1m0 1h1m0 1h1"/></svg>