<svg xmlns="http://www.w3.org/2000/svg" viewBox="0 -0.5 32 32" shape-rendering="crispEdges">
<path stroke="#808080" d="M0 0h1M16 0h6M13 1h3M11 2h3M10 3h1M9 4h1M8 5h1M8 6h1M28 6h1M7 7h1M27 7h1M29 7h1M7 8h1M26 8h1M28 8h1M6 9h1M17 9h4M25 9h1M27 9h1M29 9h1M5 10h4M10 10h1M16 10h1M21 10h1M24 10h1M26 10h1M28 10h1M30 10h1M3 11h2M12 11h1M15 11h1M22 11h2M25 11h1M27 11h1M29 11h1M2 12h1M13 12h1M15 12h1M22 12h1M1 13h1M14 13h2M22 13h1M1 14h1M14 14h1M22 14h1M0 15h1M15 15h2M21 15h1M0 16h1M15 16h1M17 16h4M0 17h1M15 17h1M0 18h1M15 18h1M1 19h1M14 19h1M1 20h1M14 20h1M2 21h1M13 21h1M15 21h1M13 22h2M16 22h1M10 23h1M14 23h1M17 23h1M24 23h1M11 24h1M18 24h1M12 25h1" />
<path stroke="#ffff00" d="M0 0h1M16 1h3M16 2h3M16 3h3M17 4h2M17 5h2M17 6h2M17 7h2M17 8h2M19 17h1M18 18h2M19 19h1M18 20h2M19 21h1M18 22h3M19 23h2M19 24h2" />
<path stroke="#c0c0c0" d="M0 0h1M19 1h3M19 2h6M19 3h8M19 4h8M9 5h2M19 5h7M27 5h1M10 6h2M19 6h6M26 6h1M11 7h2M19 7h5M25 7h1M28 7h1M8 8h2M12 8h2M19 8h4M24 8h1M27 8h1M29 8h1M7 9h5M13 9h2M21 9h1M23 9h1M26 9h1M28 9h1M30 9h1M11 10h2M14 10h2M25 10h1M27 10h1M29 10h1M13 11h1M24 11h1M26 11h1M28 11h1M30 11h1M14 12h1M23 12h8M23 13h8M15 14h1M23 14h8M22 15h9M16 16h1M22 16h9M16 17h3M20 17h1M23 17h7M16 18h2M21 18h1M24 18h6M15 19h4M21 19h1M25 19h4M2 20h1M15 20h3M22 20h1M26 20h3M3 21h1M16 21h3M22 21h1M27 21h1M12 22h1M17 22h1M23 22h1M11 23h1M13 23h1M23 23h1M12 24h1" />
<path stroke="#000000" d="M0 0h1M22 1h3M25 2h2M27 3h1M28 4h1M29 5h1M29 6h1M30 7h1M30 8h1M31 9h1M9 10h1M17 10h4M31 10h1M10 11h2M16 11h1M21 11h1M31 11h1M12 12h1M16 12h1M21 12h1M31 12h1M13 13h1M16 13h1M21 13h1M31 13h1M13 14h1M16 14h1M21 14h1M31 14h1M14 15h1M17 15h4M31 15h1M14 16h1M31 16h1M14 17h1M30 17h1M14 18h1M30 18h1M13 19h1M29 19h1M13 20h1M29 20h1M12 21h1M14 21h1M28 21h1M3 22h2M10 22h2M15 22h1M27 22h1M5 23h5M16 23h1M25 23h2M17 24h1M22 24h3M18 25h4M19 26h1M20 27h1M21 28h1M21 29h1M21 30h1M18 31h3" />
<path stroke="#00ffff" d="M0 0h1M14 2h2M13 3h3M14 4h3M14 5h3M9 6h1M15 6h2M8 7h3M15 7h2M10 8h2M16 8h1M12 9h1M13 10h1M7 11h1M9 11h1M14 11h1M4 12h1M6 12h1M8 12h1M10 12h1M3 13h1M5 13h1M7 13h1M9 13h1M11 13h1M2 14h1M4 14h1M6 14h1M8 14h1M10 14h1M12 14h1M1 15h1M3 15h1M5 15h1M7 15h1M9 15h1M11 15h1M2 16h1M4 16h1M6 16h1M8 16h1M10 16h1M12 16h1M21 16h1M1 17h1M3 17h1M5 17h1M7 17h1M9 17h1M11 17h1M21 17h2M2 18h1M4 18h1M6 18h1M8 18h1M10 18h1M12 18h1M22 18h2M3 19h1M5 19h1M7 19h1M9 19h1M11 19h1M22 19h3M4 20h1M6 20h1M8 20h1M10 20h1M23 20h3M5 21h1M7 21h1M9 21h1M23 21h4M24 22h3M14 24h1M14 25h2M15 26h2M16 27h2M17 28h2M18 29h2M19 30h1" />
<path stroke="#00ff00" d="M0 0h1M11 3h2M10 4h4M11 5h3M12 6h3M13 7h2M14 8h2M15 9h2M20 18h1M20 19h1M20 20h2M20 21h2M21 22h2M21 23h2M21 24h1" />
<path stroke="#ffffff" d="M0 0h1M27 4h1M26 5h1M28 5h1M25 6h1M27 6h1M24 7h1M26 7h1M23 8h1M25 8h1M22 9h1M24 9h1M22 10h2M5 11h2M8 11h1M3 12h1M5 12h1M7 12h1M9 12h1M2 13h1M4 13h1M6 13h1M8 13h1M10 13h1M3 14h1M5 14h1M7 14h1M9 14h1M11 14h1M2 15h1M4 15h1M6 15h1M8 15h1M10 15h1M12 15h1M1 16h1M3 16h1M5 16h1M7 16h1M9 16h1M11 16h1M2 17h1M4 17h1M6 17h1M8 17h1M10 17h1M12 17h1M1 18h1M3 18h1M5 18h1M7 18h1M9 18h1M11 18h1M2 19h1M4 19h1M6 19h1M8 19h1M10 19h1M3 20h1M5 20h1M7 20h1M9 20h1M4 21h1M6 21h1M8 21h1M12 23h1M18 23h1M13 24h1" />
<path stroke="#008080" d="M0 0h1M11 12h1M12 13h1M13 15h1M13 16h1M13 17h1M13 18h1M12 19h1M11 20h2M10 21h2M5 22h5" />
<path stroke="#0000ff" d="M0 0h1M15 23h1M15 24h2M13 25h1M16 25h2M14 26h1M17 26h2M15 27h1M18 27h2M16 28h1M19 28h2M17 29h1M20 29h1M18 30h1M20 30h1" />
<path stroke="#000080" d="M0 0h1M13 26h1M14 27h1M15 28h1M16 29h1M17 30h1" />
</svg>