<svg xmlns="http://www.w3.org/2000/svg" width="16" height="16" shape-rendering="crispEdges" viewBox="0 -0.5 16 16"><path stroke="gray" d="M7 1h3M5 2h2m3 0h2M3 3h2m7 0h2M2 4h1m3 0h1m3 0h1m3 0h1M2 5h1m4 0h3m5 0h1M1 6h1m11 0h2M1 7h1m9 0h1m1 0h2M0 8h1m4 0h1m3 0h3m2 0h1M0 9h1m3 0h1m4 0h2m2 0h2M0 10h1m5 0h1m2 0h3m1 0h2M1 11h2m6 0h5M3 12h2m4 0h3m-7 1h2m2 0h1m-3 1h2"/><path stroke="silver" d="M7 2h3M5 3h2m3 0h2M4 4h2m5 0h3M4 5h3m3 0h3M2 6h2m2 0h5M2 7h1m2 0h1m2 0h1M1 8h3m2 0h2M1 9h1m4 0h2m-7 1h4m2 0h1m-5 1h3m1 0h1m-3 1h3m-1 1h1"/><path stroke="red" d="M7 3h3M7 4h3"/><path stroke="#fff" d="M3 4h1M3 5h1m9 0h2M4 6h2m5 0h2M6 7h2m1 0h2M8 8h1M8 9h1m-1 1h1m-1 1h1m-1 1h1m-1 1h1"/><path stroke="#000" d="M15 6h1m-1 1h1m-1 1h1m-1 1h1m-1 1h1m-2 1h2m-4 1h2m-4 1h2m-3 1h1"/><path stroke="#00f" d="M3 7h2M4 8h1M2 9h2m1 0h1m-1 1h1m0 1h1"/><path stroke="purple" d="M12 7h1m-1 1h2m-3 1h2m-1 1h1"/></svg>