<svg xmlns="http://www.w3.org/2000/svg" width="32" height="32" shape-rendering="crispEdges" viewBox="0 -0.5 32 32"><path stroke="gray" d="M15 2h4m-6 1h2m4 0h2M11 4h2m8 0h2M9 5h2m12 0h2M6 6h3m16 0h3M5 7h1m22 0h1M5 8h1m21 0h2M4 9h1m21 0h3M4 10h1m19 0h5M3 11h1m19 0h7M3 12h1m16 0h10M2 13h1m15 0h6m1 0h5M2 14h1m4 0h1m9 0h5m1 0h1m1 0h1m1 0h4M1 15h1m15 0h5m1 0h1m2 0h5M1 16h1m6 0h1m8 0h5m3 0h6M0 17h1m16 0h4m2 0h1m1 0h1m1 0h4M0 18h1m8 0h1m7 0h3m1 0h1m1 0h1m2 0h5M1 19h1m15 0h5m3 0h6M1 20h1m8 0h1m6 0h4m2 0h1m1 0h6M2 21h2m13 0h3m1 0h1m1 0h1m1 0h5M4 22h2m5 0h1m5 0h5m1 0h5M6 23h2m9 0h9M8 24h2m7 0h7m-14 1h2m5 0h5m-10 1h2m3 0h3m-6 1h2m1 0h1m-3 1h2"/><path stroke="silver" d="M15 3h4m-6 1h8M11 5h12M9 6h6m4 0h6M7 7h7m6 0h8M9 8h6m4 0h6m1 0h1M6 9h2m2 0h14m1 0h1M6 10h3m3 0h10M5 11h6m4 0h4m3 0h1M5 12h9m5 0h1M4 13h2m3 0h7m1 0h1M4 14h3m3 0h6M3 15h5m2 0h6M3 16h5m3 0h5M2 17h6m3 0h5M2 18h5m5 0h4M2 19h3m3 0h2m2 0h4M2 20h8m3 0h3M4 21h7m2 0h3M6 22h5m4 0h1m-8 1h8m-6 1h6m-4 1h4m-2 1h2"/><path stroke="red" d="M15 6h4m-5 1h6m-5 1h4"/><path stroke="#fff" d="M6 7h1M6 8h3m16 0h1M5 9h1m2 0h2m14 0h1M5 10h1m3 0h3m10 0h2M4 11h1m6 0h4m4 0h3M4 12h1m9 0h5M3 13h1m12 0h1M3 14h1m12 0h1M2 15h1m13 0h1M2 16h1m13 0h1M1 17h1m14 0h1M1 18h1m14 0h1m-1 1h1m-1 1h1m-1 1h1m-1 1h1m-1 1h1m-1 1h1m-1 1h1m-1 1h1m-1 1h1"/><path stroke="#000" d="M29 9h1m-1 1h1m0 1h1m-1 1h1m-1 1h1m0 1h1m-1 1h1m-1 1h1m-1 1h1m-1 1h1m-1 1h1m-1 1h1m-2 1h1m-3 1h2m-4 1h2m-4 1h2m-4 1h2m-4 1h2m-4 1h2m-3 1h1"/><path stroke="#00f" d="M6 13h3m-1 1h2m-2 1h2m-1 1h2m-3 1h3m-4 1h2m1 0h2m-7 1h3m2 0h2m-1 1h2m-2 1h2m-1 1h3"/><path stroke="purple" d="M24 13h1m-3 1h1m1 0h1m1 0h1m-5 1h1m1 0h2m-4 1h3m-4 1h2m1 0h1m1 0h1m-7 1h1m1 0h1m1 0h2m-4 1h3m-4 1h2m1 0h1m-5 1h1m1 0h1m1 0h1m-3 1h1"/></svg>