<svg xmlns="http://www.w3.org/2000/svg" viewBox="0 -0.5 16 16" shape-rendering="crispEdges">
<path stroke="#808080" d="M0 0h1M7 1h3M5 2h2M10 2h2M3 3h2M12 3h2M2 4h1M6 4h1M10 4h1M14 4h1M2 5h1M7 5h3M15 5h1M1 6h1M13 6h2M1 7h1M11 7h1M13 7h2M0 8h1M5 8h1M9 8h3M14 8h1M0 9h1M4 9h1M9 9h2M13 9h2M0 10h1M6 10h1M9 10h3M13 10h2M1 11h2M9 11h5M3 12h2M9 12h3M5 13h2M9 13h1M7 14h2" />
<path stroke="#c0c0c0" d="M0 0h1M7 2h3M5 3h2M10 3h2M4 4h2M11 4h3M4 5h3M10 5h3M2 6h2M6 6h5M2 7h1M5 7h1M8 7h1M1 8h3M6 8h2M1 9h1M6 9h2M1 10h4M7 10h1M3 11h3M7 11h1M5 12h3M7 13h1" />
<path stroke="#ff0000" d="M0 0h1M7 3h3M7 4h3" />
<path stroke="#ffffff" d="M0 0h1M3 4h1M3 5h1M13 5h2M4 6h2M11 6h2M6 7h2M9 7h2M8 8h1M8 9h1M8 10h1M8 11h1M8 12h1M8 13h1" />
<path stroke="#000000" d="M0 0h1M15 6h1M15 7h1M15 8h1M15 9h1M15 10h1M14 11h2M12 12h2M10 13h2M9 14h1" />
<path stroke="#0000ff" d="M0 0h1M3 7h2M4 8h1M2 9h2M5 9h1M5 10h1M6 11h1" />
<path stroke="#800080" d="M0 0h1M12 7h1M12 8h2M11 9h2M12 10h1" />
</svg>