<svg xmlns="http://www.w3.org/2000/svg" viewBox="0 -0.5 16 16" shape-rendering="crispEdges">
<path stroke="#000080" d="M0 0h1M12 1h3M12 2h2M12 3h1M14 3h1M15 4h1M15 5h1" />
<path stroke="#808080" d="M0 0h1M3 4h3M2 5h1M2 6h11M1 7h1M1 8h1M1 9h1M1 10h1M1 11h1M1 12h1M1 13h1" />
<path stroke="#ffffff" d="M0 0h1M3 5h3M2 7h10" />
<path stroke="#000000" d="M0 0h1M6 5h1M13 7h1M13 8h1M13 9h1M13 10h1M13 11h1M13 12h1M13 13h1M1 14h13" />
<path stroke="#808000" d="M0 0h1M12 7h1M12 8h1M12 9h1M12 10h1M12 11h1M12 12h1M2 13h11" />
<path stroke="#c0c0c0" d="M0 0h1M2 8h1M4 8h1M6 8h1M8 8h1M10 8h1M3 9h1M5 9h1M7 9h1M9 9h1M11 9h1M2 10h1M4 10h1M6 10h1M8 10h1M10 10h1M3 11h1M5 11h1M7 11h1M9 11h1M11 11h1M2 12h1M4 12h1M6 12h1M8 12h1M10 12h1" />
<path stroke="#ffff00" d="M0 0h1M3 8h1M5 8h1M7 8h1M9 8h1M11 8h1M2 9h1M4 9h1M6 9h1M8 9h1M10 9h1M3 10h1M5 10h1M7 10h1M9 10h1M11 10h1M2 11h1M4 11h1M6 11h1M8 11h1M10 11h1M3 12h1M5 12h1M7 12h1M9 12h1M11 12h1" />
</svg>