<svg xmlns="http://www.w3.org/2000/svg" viewBox="0 -0.5 32 32" shape-rendering="crispEdges">
<path stroke="#000000" d="M0 0h1M3 0h19M3 1h1M21 1h2M3 2h1M21 2h1M23 2h1M3 3h1M21 3h1M24 3h1M3 4h1M21 4h1M25 4h1M3 5h1M21 5h1M26 5h1M3 6h1M21 6h7M3 7h1M15 7h2M27 7h1M3 8h1M15 8h2M27 8h1M3 9h1M14 9h4M27 9h1M3 10h1M14 10h4M27 10h1M3 11h1M13 11h2M16 11h3M27 11h1M3 12h1M13 12h1M16 12h3M27 12h1M3 13h1M12 13h2M16 13h4M27 13h1M3 14h1M12 14h1M17 14h3M27 14h1M3 15h1M11 15h2M17 15h4M27 15h1M3 16h1M11 16h1M18 16h3M27 16h1M3 17h1M10 17h12M27 17h1M3 18h1M10 18h1M19 18h3M27 18h1M3 19h1M9 19h2M19 19h4M27 19h1M3 20h1M9 20h1M20 20h3M27 20h1M3 21h1M8 21h2M20 21h4M27 21h1M3 22h1M6 22h6M18 22h8M27 22h1M3 23h1M27 23h1M3 24h1M27 24h1M3 25h1M27 25h1M3 26h1M27 26h1M3 27h1M27 27h1M3 28h1M27 28h1M3 29h1M27 29h1M3 30h25" />
<path stroke="#ffffff" d="M0 0h1M4 1h17M4 2h17M22 2h1M4 3h17M22 3h2M4 4h17M22 4h3M4 5h17M22 5h4M4 6h17M4 7h11M17 7h10M4 8h11M17 8h10M4 9h10M18 9h9M4 10h10M18 10h9M4 11h9M15 11h1M19 11h8M4 12h9M14 12h2M19 12h8M4 13h8M14 13h2M20 13h7M4 14h8M13 14h4M20 14h7M4 15h7M13 15h4M21 15h6M4 16h7M12 16h6M21 16h6M4 17h6M22 17h5M4 18h6M11 18h8M22 18h5M4 19h5M11 19h8M23 19h4M4 20h5M10 20h10M23 20h4M4 21h4M10 21h10M24 21h3M4 22h2M12 22h6M26 22h1M4 23h23M4 24h23M4 25h23M4 26h23M4 27h23M4 28h23M4 29h23" />
<path stroke="#c0c0c0" d="M0 0h1M28 7h1M28 8h1M28 9h1M28 10h1M28 11h1M28 12h1M28 13h1M28 14h1M28 15h1M28 16h1M28 17h1M28 18h1M28 19h1M28 20h1M28 21h1M28 22h1M28 23h1M28 24h1M28 25h1M28 26h1M28 27h1M28 28h1M28 29h1M28 30h1M4 31h25" />
</svg>