<svg xmlns="http://www.w3.org/2000/svg" viewBox="0 -0.5 32 32" shape-rendering="crispEdges">
<path stroke="#000000" d="M0 0h1M8 6h14M8 7h1M21 7h1M8 8h1M21 8h1M8 9h1M11 9h7M21 9h1M8 10h1M21 10h1M8 11h1M21 11h1M8 12h1M11 12h8M21 12h1M8 13h1M21 13h1M8 14h1M21 14h1M8 15h1M11 15h7M21 15h1M8 16h1M21 16h1M8 17h1M21 17h1M8 18h1M11 18h8M21 18h1M8 19h1M21 19h1M8 20h1M21 20h1M8 21h1M11 21h7M21 21h1M8 22h1M21 22h1M8 23h1M21 23h1M8 24h14" />
<path stroke="#ffffff" d="M0 0h1M9 7h12M9 8h12M9 9h2M18 9h3M9 10h12M9 11h12M9 12h2M19 12h2M9 13h12M9 14h12M9 15h2M18 15h3M9 16h12M9 17h12M9 18h2M19 18h2M9 19h12M9 20h12M9 21h2M18 21h3M9 22h12M9 23h12" />
<path stroke="#808080" d="M0 0h1M22 7h1M22 8h1M22 9h1M22 10h1M22 11h1M22 12h1M22 13h1M22 14h1M22 15h1M22 16h1M22 17h1M22 18h1M22 19h1M22 20h1M22 21h1M22 22h1M22 23h1M22 24h1M9 25h14" />
</svg>