<svg xmlns="http://www.w3.org/2000/svg" viewBox="0 -0.5 32 32" shape-rendering="crispEdges">
<path stroke="#000000" d="M0 0h1M8 0h14M8 1h1M21 1h1M8 2h1M21 2h1M8 3h1M11 3h7M21 3h1M8 4h1M21 4h1M8 5h1M21 5h1M8 6h1M11 6h8M21 6h1M8 7h1M21 7h1M8 8h1M21 8h1M8 9h1M11 9h7M21 9h1M8 10h1M21 10h1M8 11h1M21 11h1M8 12h1M11 12h8M21 12h1M8 13h1M21 13h1M8 14h1M21 14h1M8 15h1M10 15h1M12 15h1M14 15h1M16 15h1M18 15h1M20 15h2M8 16h1M21 16h1M8 17h1M21 17h1M8 18h1M11 18h7M21 18h1M8 19h1M21 19h1M8 20h1M21 20h1M8 21h1M11 21h8M21 21h1M8 22h1M21 22h1M8 23h1M21 23h1M8 24h1M11 24h7M21 24h1M8 25h1M21 25h1M8 26h1M21 26h1M8 27h1M11 27h8M21 27h1M8 28h1M21 28h1M8 29h1M21 29h1M8 30h14" />
<path stroke="#ffffff" d="M0 0h1M9 1h12M9 2h12M9 3h2M18 3h3M9 4h12M9 5h12M9 6h2M19 6h2M9 7h12M9 8h12M9 9h2M18 9h3M9 10h12M9 11h12M9 12h2M19 12h2M9 13h12M9 14h12M9 15h1M11 15h1M13 15h1M15 15h1M17 15h1M19 15h1M9 16h12M9 17h12M9 18h2M18 18h3M9 19h12M9 20h12M9 21h2M19 21h2M9 22h12M9 23h12M9 24h2M18 24h3M9 25h12M9 26h12M9 27h2M19 27h2M9 28h12M9 29h12" />
<path stroke="#808080" d="M0 0h1M22 1h1M22 2h1M22 3h1M22 4h1M22 5h1M22 6h1M22 7h1M22 8h1M22 9h1M22 10h1M22 11h1M22 12h1M22 13h1M22 14h1M22 15h1M22 16h1M22 17h1M22 18h1M22 19h1M22 20h1M22 21h1M22 22h1M22 23h1M22 24h1M22 25h1M22 26h1M22 27h1M22 28h1M22 29h1M22 30h1M9 31h14" />
</svg>