<svg xmlns="http://www.w3.org/2000/svg" viewBox="0 -0.5 91 36" shape-rendering="crispEdges">
<path stroke="#808080" d="M0 0h1M24 0h17M73 0h17M24 1h1M73 1h1M24 2h1M73 2h1M24 3h1M73 3h1M24 4h1M73 4h1M24 5h1M73 5h1M12 6h17M61 6h17M12 7h1M61 7h1M12 8h1M61 8h1M12 9h1M61 9h1M12 10h1M61 10h1M12 11h1M61 11h1M0 12h17M49 12h17M0 13h1M49 13h1M0 14h1M49 14h1M0 15h1M49 15h1M0 16h1M49 16h1M0 17h1M49 17h1M0 18h1M49 18h1M0 19h1M49 19h1M0 20h1M49 20h1M0 21h1M49 21h1M0 22h1M49 22h1M0 23h1M49 23h1M0 24h1M49 24h1M0 25h1M49 25h1M0 26h1M49 26h1M0 27h1M49 27h1M0 28h1M49 28h1M0 29h1M49 29h1M0 30h1M49 30h1M0 31h1M49 31h1M0 32h1M49 32h1M0 33h1M49 33h1M0 34h1M49 34h1" />
<path stroke="#000000" d="M0 0h1M41 0h1M90 0h1M41 1h1M90 1h1M41 2h1M90 2h1M41 3h1M90 3h1M41 4h1M90 4h1M41 5h1M90 5h1M29 6h1M41 6h1M78 6h1M90 6h1M29 7h1M41 7h1M78 7h1M90 7h1M29 8h1M41 8h1M78 8h1M90 8h1M29 9h1M41 9h1M78 9h1M90 9h1M29 10h1M41 10h1M78 10h1M90 10h1M29 11h1M34 11h2M41 11h1M78 11h1M83 11h2M90 11h1M17 12h1M29 12h1M33 12h1M36 12h1M41 12h1M66 12h1M78 12h1M82 12h1M85 12h1M90 12h1M17 13h1M29 13h1M36 13h1M41 13h1M66 13h1M78 13h1M85 13h1M90 13h1M17 14h1M29 14h1M35 14h1M41 14h1M66 14h1M78 14h1M84 14h1M90 14h1M17 15h1M29 15h1M36 15h1M41 15h1M66 15h1M78 15h1M85 15h1M90 15h1M17 16h1M29 16h1M33 16h1M36 16h1M41 16h1M66 16h1M78 16h1M82 16h1M85 16h1M90 16h1M17 17h1M22 17h2M29 17h1M34 17h2M41 17h1M66 17h1M71 17h2M78 17h1M83 17h2M90 17h1M17 18h1M21 18h1M24 18h1M29 18h1M41 18h1M66 18h1M70 18h1M73 18h1M78 18h1M90 18h1M17 19h1M24 19h1M29 19h1M41 19h1M66 19h1M73 19h1M78 19h1M90 19h1M17 20h1M23 20h1M29 20h1M41 20h1M66 20h1M72 20h1M78 20h1M90 20h1M17 21h1M22 21h1M29 21h1M41 21h1M66 21h1M71 21h1M78 21h1M90 21h1M17 22h1M21 22h1M29 22h1M41 22h1M66 22h1M70 22h1M78 22h1M90 22h1M10 23h2M17 23h1M21 23h4M29 23h13M59 23h2M66 23h1M70 23h4M78 23h13M11 24h1M17 24h1M29 24h1M60 24h1M66 24h1M78 24h1M11 25h1M17 25h1M29 25h1M60 25h1M66 25h1M78 25h1M11 26h1M17 26h1M29 26h1M60 26h1M66 26h1M78 26h1M11 27h1M17 27h1M29 27h1M60 27h1M66 27h1M78 27h1M11 28h1M17 28h1M29 28h1M60 28h1M66 28h1M78 28h1M11 29h1M17 29h13M60 29h1M66 29h13M17 30h1M66 30h1M17 31h1M66 31h1M17 32h1M66 32h1M17 33h1M66 33h1M17 34h1M66 34h1M0 35h18M49 35h18" />
<path stroke="#ffffff" d="M0 0h1M25 1h15M74 1h15M25 2h15M74 2h15M25 3h15M74 3h15M25 4h15M74 4h15M25 5h15M74 5h15M30 6h10M79 6h10M13 7h15M30 7h10M62 7h15M79 7h10M13 8h15M30 8h10M62 8h15M79 8h10M13 9h15M30 9h10M62 9h15M79 9h10M13 10h15M30 10h10M62 10h15M79 10h10M13 11h15M30 11h4M36 11h4M62 11h15M79 11h4M85 11h4M18 12h10M30 12h3M34 12h2M37 12h3M67 12h10M79 12h3M83 12h2M86 12h3M1 13h15M18 13h10M30 13h6M37 13h3M50 13h15M67 13h10M79 13h6M86 13h3M1 14h15M18 14h10M30 14h5M36 14h4M50 14h15M67 14h10M79 14h5M85 14h4M1 15h15M18 15h10M30 15h6M37 15h3M50 15h15M67 15h10M79 15h6M86 15h3M1 16h15M18 16h10M30 16h3M34 16h2M37 16h3M50 16h15M67 16h10M79 16h3M83 16h2M86 16h3M1 17h15M18 17h4M24 17h4M30 17h4M36 17h4M50 17h15M67 17h4M73 17h4M79 17h4M85 17h4M1 18h15M18 18h3M22 18h2M25 18h3M30 18h10M50 18h15M67 18h3M71 18h2M74 18h3M79 18h10M1 19h15M18 19h6M25 19h3M30 19h10M50 19h15M67 19h6M74 19h3M79 19h10M1 20h15M18 20h5M24 20h4M30 20h10M50 20h15M67 20h5M73 20h4M79 20h10M1 21h15M18 21h4M23 21h5M30 21h10M50 21h15M67 21h4M72 21h5M79 21h10M1 22h15M18 22h3M22 22h6M50 22h15M67 22h3M71 22h6M1 23h9M12 23h4M18 23h3M25 23h3M50 23h9M61 23h4M67 23h3M74 23h3M1 24h10M12 24h4M18 24h10M50 24h10M61 24h4M67 24h10M1 25h10M12 25h4M18 25h10M50 25h10M61 25h4M67 25h10M1 26h10M12 26h4M18 26h10M50 26h10M61 26h4M67 26h10M1 27h10M12 27h4M18 27h10M50 27h10M61 27h4M67 27h10M1 28h10M12 28h4M50 28h10M61 28h4M1 29h10M12 29h4M50 29h10M61 29h4M1 30h15M50 30h15M1 31h15M50 31h15M1 32h15M50 32h15M1 33h15M50 33h15" />
<path stroke="#c0c0c0" d="M0 0h1M40 1h1M89 1h1M40 2h1M89 2h1M40 3h1M89 3h1M40 4h1M89 4h1M40 5h1M89 5h1M40 6h1M89 6h1M28 7h1M40 7h1M77 7h1M89 7h1M28 8h1M40 8h1M77 8h1M89 8h1M28 9h1M40 9h1M77 9h1M89 9h1M28 10h1M40 10h1M77 10h1M89 10h1M28 11h1M40 11h1M77 11h1M89 11h1M28 12h1M40 12h1M77 12h1M89 12h1M16 13h1M28 13h1M40 13h1M65 13h1M77 13h1M89 13h1M16 14h1M28 14h1M40 14h1M65 14h1M77 14h1M89 14h1M16 15h1M28 15h1M40 15h1M65 15h1M77 15h1M89 15h1M16 16h1M28 16h1M40 16h1M65 16h1M77 16h1M89 16h1M16 17h1M28 17h1M40 17h1M65 17h1M77 17h1M89 17h1M16 18h1M28 18h1M40 18h1M65 18h1M77 18h1M89 18h1M16 19h1M28 19h1M40 19h1M65 19h1M77 19h1M89 19h1M16 20h1M28 20h1M40 20h1M65 20h1M77 20h1M89 20h1M16 21h1M28 21h1M40 21h1M65 21h1M77 21h1M89 21h1M16 22h1M28 22h1M30 22h11M65 22h1M77 22h1M79 22h11M16 23h1M28 23h1M65 23h1M77 23h1M16 24h1M28 24h1M65 24h1M77 24h1M16 25h1M28 25h1M65 25h1M77 25h1M16 26h1M28 26h1M65 26h1M77 26h1M16 27h1M28 27h1M65 27h1M77 27h1M16 28h1M18 28h11M65 28h1M67 28h11M16 29h1M65 29h1M16 30h1M65 30h1M16 31h1M65 31h1M16 32h1M65 32h1M16 33h1M65 33h1M1 34h16M50 34h16" />
</svg>