<svg xmlns="http://www.w3.org/2000/svg" viewBox="0 -0.5 32 32" shape-rendering="crispEdges">
<path stroke="#000000" d="M0 0h1M3 3h10M19 3h1M22 3h1M25 3h1M28 3h1M3 4h1M12 4h1M19 4h1M22 4h1M25 4h1M28 4h1M3 5h1M12 5h1M19 5h1M22 5h1M25 5h1M28 5h1M3 6h1M12 6h1M19 6h1M22 6h1M25 6h1M28 6h1M3 7h1M12 7h1M19 7h1M22 7h1M25 7h1M28 7h1M3 8h1M12 8h1M19 8h1M22 8h1M25 8h1M28 8h1M3 9h1M12 9h1M19 9h1M22 9h1M25 9h1M28 9h1M3 10h1M12 10h1M19 10h1M22 10h1M25 10h1M28 10h1M3 11h1M12 11h1M19 11h1M22 11h1M25 11h1M28 11h1M3 12h10M19 12h1M22 12h1M25 12h1M28 12h1M19 13h1M22 13h1M25 13h1M28 13h1M19 14h1M22 14h1M25 14h1M28 14h1M19 15h1M22 15h1M25 15h1M28 15h1M3 16h1M6 16h1M9 16h1M12 16h1M3 17h1M6 17h1M9 17h1M12 17h1M3 18h1M6 18h1M9 18h1M12 18h1M3 19h1M6 19h1M9 19h1M12 19h1M19 19h10M3 20h1M6 20h1M9 20h1M12 20h1M19 20h1M28 20h1M3 21h1M6 21h1M9 21h1M12 21h1M19 21h1M28 21h1M3 22h1M6 22h1M9 22h1M12 22h1M19 22h1M28 22h1M3 23h1M6 23h1M9 23h1M12 23h1M19 23h1M28 23h1M3 24h1M6 24h1M9 24h1M12 24h1M19 24h1M28 24h1M3 25h1M6 25h1M9 25h1M12 25h1M19 25h1M28 25h1M3 26h1M6 26h1M9 26h1M12 26h1M19 26h1M28 26h1M3 27h1M6 27h1M9 27h1M12 27h1M19 27h1M28 27h1M3 28h1M6 28h1M9 28h1M12 28h1M19 28h10" />
</svg>