<svg xmlns="http://www.w3.org/2000/svg" viewBox="0 -0.5 32 32" shape-rendering="crispEdges">
<path stroke="#000000" d="M0 0h1M6 3h19M6 4h1M24 4h1M6 5h1M24 5h1M6 6h1M9 6h13M24 6h1M6 7h1M24 7h1M6 8h1M24 8h1M6 9h1M9 9h12M24 9h1M6 10h1M24 10h1M6 11h1M24 11h1M6 12h1M9 12h13M24 12h1M6 13h1M24 13h1M6 14h1M24 14h1M6 15h2M9 15h1M11 15h1M13 15h1M15 15h1M17 15h1M19 15h1M21 15h1M23 15h2M6 16h1M24 16h1M6 17h1M24 17h1M6 18h1M9 18h13M24 18h1M6 19h1M24 19h1M6 20h1M24 20h1M6 21h1M9 21h12M24 21h1M6 22h1M24 22h1M6 23h1M24 23h1M6 24h1M9 24h13M24 24h1M6 25h1M24 25h1M6 26h1M24 26h1M6 27h19" />
<path stroke="#ffffff" d="M0 0h1M7 4h17M7 5h17M7 6h2M22 6h2M7 7h17M7 8h17M7 9h2M21 9h3M7 10h17M7 11h17M7 12h2M22 12h2M7 13h17M7 14h17M8 15h1M10 15h1M12 15h1M14 15h1M16 15h1M18 15h1M20 15h1M22 15h1M7 16h17M7 17h17M7 18h2M22 18h2M7 19h17M7 20h17M7 21h2M21 21h3M7 22h17M7 23h17M7 24h2M22 24h2M7 25h17M7 26h17" />
<path stroke="#808080" d="M0 0h1M25 4h1M25 5h1M25 6h1M25 7h1M25 8h1M25 9h1M25 10h1M25 11h1M25 12h1M25 13h1M25 14h1M25 15h1M25 16h1M25 17h1M25 18h1M25 19h1M25 20h1M25 21h1M25 22h1M25 23h1M25 24h1M25 25h1M25 26h1M25 27h1M7 28h19" />
</svg>