<svg xmlns="http://www.w3.org/2000/svg" viewBox="0 -0.5 32 32" shape-rendering="crispEdges">
<path stroke="#000000" d="M0 0h1M6 9h19M6 10h1M24 10h1M6 11h1M24 11h1M6 12h1M9 12h13M24 12h1M6 13h1M24 13h1M6 14h1M24 14h1M6 15h1M9 15h12M24 15h1M6 16h1M24 16h1M6 17h1M24 17h1M6 18h1M9 18h13M24 18h1M6 19h1M24 19h1M6 20h1M24 20h1M6 21h19" />
<path stroke="#ffffff" d="M0 0h1M7 10h17M7 11h17M7 12h2M22 12h2M7 13h17M7 14h17M7 15h2M21 15h3M7 16h17M7 17h17M7 18h2M22 18h2M7 19h17M7 20h17" />
<path stroke="#808080" d="M0 0h1M25 10h1M25 11h1M25 12h1M25 13h1M25 14h1M25 15h1M25 16h1M25 17h1M25 18h1M25 19h1M25 20h1M25 21h1M7 22h19" />
</svg>