<svg xmlns="http://www.w3.org/2000/svg" width="91" height="36" shape-rendering="crispEdges" viewBox="0 -0.5 91 36"><path stroke="gray" d="M24 0h17m32 0h17M24 1h1m48 0h1M24 2h1m48 0h1M24 3h1m48 0h1M24 4h1m48 0h1M24 5h1m48 0h1M12 6h17m32 0h17M12 7h1m48 0h1M12 8h1m48 0h1M12 9h1m48 0h1m-50 1h1m48 0h1m-50 1h1m48 0h1M0 12h17m32 0h17M0 13h1m48 0h1M0 14h1m48 0h1M0 15h1m48 0h1M0 16h1m48 0h1M0 17h1m48 0h1M0 18h1m48 0h1M0 19h1m48 0h1M0 20h1m48 0h1M0 21h1m48 0h1M0 22h1m48 0h1M0 23h1m48 0h1M0 24h1m48 0h1M0 25h1m48 0h1M0 26h1m48 0h1M0 27h1m48 0h1M0 28h1m48 0h1M0 29h1m48 0h1M0 30h1m48 0h1M0 31h1m48 0h1M0 32h1m48 0h1M0 33h1m48 0h1M0 34h1m48 0h1"/><path stroke="#000" d="M41 0h1m48 0h1M41 1h1m48 0h1M41 2h1m48 0h1M41 3h1m48 0h1M41 4h1m48 0h1M41 5h1m48 0h1M29 6h1m11 0h1m36 0h1m11 0h1M29 7h1m11 0h1m36 0h1m11 0h1M29 8h1m11 0h1m36 0h1m11 0h1M29 9h1m11 0h1m36 0h1m11 0h1m-62 1h1m11 0h1m36 0h1m11 0h1m-62 1h1m4 0h2m5 0h1m36 0h1m4 0h2m5 0h1m-74 1h1m11 0h1m3 0h1m2 0h1m4 0h1m24 0h1m11 0h1m3 0h1m2 0h1m4 0h1m-74 1h1m11 0h1m6 0h1m4 0h1m24 0h1m11 0h1m6 0h1m4 0h1m-74 1h1m11 0h1m5 0h1m5 0h1m24 0h1m11 0h1m5 0h1m5 0h1m-74 1h1m11 0h1m6 0h1m4 0h1m24 0h1m11 0h1m6 0h1m4 0h1m-74 1h1m11 0h1m3 0h1m2 0h1m4 0h1m24 0h1m11 0h1m3 0h1m2 0h1m4 0h1m-74 1h1m4 0h2m5 0h1m4 0h2m5 0h1m24 0h1m4 0h2m5 0h1m4 0h2m5 0h1m-74 1h1m3 0h1m2 0h1m4 0h1m11 0h1m24 0h1m3 0h1m2 0h1m4 0h1m11 0h1m-74 1h1m6 0h1m4 0h1m11 0h1m24 0h1m6 0h1m4 0h1m11 0h1m-74 1h1m5 0h1m5 0h1m11 0h1m24 0h1m5 0h1m5 0h1m11 0h1m-74 1h1m4 0h1m6 0h1m11 0h1m24 0h1m4 0h1m6 0h1m11 0h1m-74 1h1m3 0h1m7 0h1m11 0h1m24 0h1m3 0h1m7 0h1m11 0h1m-81 1h2m5 0h1m3 0h4m4 0h13m17 0h2m5 0h1m3 0h4m4 0h13m-80 1h1m5 0h1m11 0h1m30 0h1m5 0h1m11 0h1m-68 1h1m5 0h1m11 0h1m30 0h1m5 0h1m11 0h1m-68 1h1m5 0h1m11 0h1m30 0h1m5 0h1m11 0h1m-68 1h1m5 0h1m11 0h1m30 0h1m5 0h1m11 0h1m-68 1h1m5 0h1m11 0h1m30 0h1m5 0h1m11 0h1m-68 1h1m5 0h13m30 0h1m5 0h13m-62 1h1m48 0h1m-50 1h1m48 0h1m-50 1h1m48 0h1m-50 1h1m48 0h1m-50 1h1m48 0h1M0 35h18m31 0h18"/><path stroke="#fff" d="M25 1h15m34 0h15M25 2h15m34 0h15M25 3h15m34 0h15M25 4h15m34 0h15M25 5h15m34 0h15M30 6h10m39 0h10M13 7h15m2 0h10m22 0h15m2 0h10M13 8h15m2 0h10m22 0h15m2 0h10M13 9h15m2 0h10m22 0h15m2 0h10m-76 1h15m2 0h10m22 0h15m2 0h10m-76 1h15m2 0h4m2 0h4m22 0h15m2 0h4m2 0h4m-71 1h10m2 0h3m1 0h2m1 0h3m27 0h10m2 0h3m1 0h2m1 0h3M1 13h15m2 0h10m2 0h6m1 0h3m10 0h15m2 0h10m2 0h6m1 0h3M1 14h15m2 0h10m2 0h5m1 0h4m10 0h15m2 0h10m2 0h5m1 0h4M1 15h15m2 0h10m2 0h6m1 0h3m10 0h15m2 0h10m2 0h6m1 0h3M1 16h15m2 0h10m2 0h3m1 0h2m1 0h3m10 0h15m2 0h10m2 0h3m1 0h2m1 0h3M1 17h15m2 0h4m2 0h4m2 0h4m2 0h4m10 0h15m2 0h4m2 0h4m2 0h4m2 0h4M1 18h15m2 0h3m1 0h2m1 0h3m2 0h10m10 0h15m2 0h3m1 0h2m1 0h3m2 0h10M1 19h15m2 0h6m1 0h3m2 0h10m10 0h15m2 0h6m1 0h3m2 0h10M1 20h15m2 0h5m1 0h4m2 0h10m10 0h15m2 0h5m1 0h4m2 0h10M1 21h15m2 0h4m1 0h5m2 0h10m10 0h15m2 0h4m1 0h5m2 0h10M1 22h15m2 0h3m1 0h6m22 0h15m2 0h3m1 0h6M1 23h9m2 0h4m2 0h3m4 0h3m22 0h9m2 0h4m2 0h3m4 0h3M1 24h10m1 0h4m2 0h10m22 0h10m1 0h4m2 0h10M1 25h10m1 0h4m2 0h10m22 0h10m1 0h4m2 0h10M1 26h10m1 0h4m2 0h10m22 0h10m1 0h4m2 0h10M1 27h10m1 0h4m2 0h10m22 0h10m1 0h4m2 0h10M1 28h10m1 0h4m34 0h10m1 0h4M1 29h10m1 0h4m34 0h10m1 0h4M1 30h15m34 0h15M1 31h15m34 0h15M1 32h15m34 0h15M1 33h15m34 0h15"/><path stroke="silver" d="M40 1h1m48 0h1M40 2h1m48 0h1M40 3h1m48 0h1M40 4h1m48 0h1M40 5h1m48 0h1M40 6h1m48 0h1M28 7h1m11 0h1m36 0h1m11 0h1M28 8h1m11 0h1m36 0h1m11 0h1M28 9h1m11 0h1m36 0h1m11 0h1m-62 1h1m11 0h1m36 0h1m11 0h1m-62 1h1m11 0h1m36 0h1m11 0h1m-62 1h1m11 0h1m36 0h1m11 0h1m-74 1h1m11 0h1m11 0h1m24 0h1m11 0h1m11 0h1m-74 1h1m11 0h1m11 0h1m24 0h1m11 0h1m11 0h1m-74 1h1m11 0h1m11 0h1m24 0h1m11 0h1m11 0h1m-74 1h1m11 0h1m11 0h1m24 0h1m11 0h1m11 0h1m-74 1h1m11 0h1m11 0h1m24 0h1m11 0h1m11 0h1m-74 1h1m11 0h1m11 0h1m24 0h1m11 0h1m11 0h1m-74 1h1m11 0h1m11 0h1m24 0h1m11 0h1m11 0h1m-74 1h1m11 0h1m11 0h1m24 0h1m11 0h1m11 0h1m-74 1h1m11 0h1m11 0h1m24 0h1m11 0h1m11 0h1m-74 1h1m11 0h1m1 0h11m24 0h1m11 0h1m1 0h11m-74 1h1m11 0h1m36 0h1m11 0h1m-62 1h1m11 0h1m36 0h1m11 0h1m-62 1h1m11 0h1m36 0h1m11 0h1m-62 1h1m11 0h1m36 0h1m11 0h1m-62 1h1m11 0h1m36 0h1m11 0h1m-62 1h1m1 0h11m36 0h1m1 0h11m-62 1h1m48 0h1m-50 1h1m48 0h1m-50 1h1m48 0h1m-50 1h1m48 0h1m-50 1h1m48 0h1M1 34h16m33 0h16"/></svg>