<svg xmlns="http://www.w3.org/2000/svg" viewBox="0 -0.5 98 30" shape-rendering="crispEdges">
<path stroke="#808080" d="M0 0h1M12 0h17M46 0h17M80 0h17M12 1h1M46 1h1M80 1h1M12 2h1M46 2h1M80 2h1M12 3h1M46 3h1M80 3h1M12 4h1M46 4h1M80 4h1M12 5h1M46 5h1M80 5h1M0 6h17M34 6h17M68 6h17M0 7h1M34 7h1M68 7h1M0 8h1M34 8h1M68 8h1M0 9h1M34 9h1M68 9h1M0 10h1M34 10h1M68 10h1M0 11h1M34 11h1M68 11h1M0 12h1M34 12h1M68 12h1M0 13h1M34 13h1M68 13h1M0 14h1M34 14h1M68 14h1M0 15h1M34 15h1M68 15h1M0 16h1M34 16h1M68 16h1M0 17h1M34 17h1M68 17h1M0 18h1M34 18h1M68 18h1M0 19h1M34 19h1M68 19h1M0 20h1M34 20h1M68 20h1M0 21h1M34 21h1M68 21h1M0 22h1M34 22h1M68 22h1M0 23h1M34 23h1M68 23h1M0 24h1M34 24h1M68 24h1M0 25h1M34 25h1M68 25h1M0 26h1M34 26h1M68 26h1M0 27h1M34 27h1M68 27h1M0 28h1M34 28h1M68 28h1" />
<path stroke="#000000" d="M0 0h1M29 0h1M63 0h1M97 0h1M29 1h1M63 1h1M97 1h1M29 2h1M63 2h1M97 2h1M29 3h1M63 3h1M97 3h1M29 4h1M63 4h1M97 4h1M29 5h1M63 5h1M97 5h1M17 6h1M29 6h1M51 6h1M63 6h1M85 6h1M97 6h1M17 7h1M29 7h1M51 7h1M63 7h1M85 7h1M97 7h1M17 8h1M29 8h1M51 8h1M63 8h1M85 8h1M97 8h1M17 9h1M29 9h1M51 9h1M63 9h1M85 9h1M97 9h1M17 10h1M29 10h1M51 10h1M63 10h1M85 10h1M97 10h1M17 11h1M22 11h2M29 11h1M51 11h1M56 11h2M63 11h1M85 11h1M90 11h2M97 11h1M17 12h1M23 12h1M29 12h1M51 12h1M55 12h1M58 12h1M63 12h1M85 12h1M89 12h1M92 12h1M97 12h1M17 13h1M23 13h1M29 13h1M51 13h1M58 13h1M63 13h1M85 13h1M92 13h1M97 13h1M17 14h1M23 14h1M29 14h1M51 14h1M57 14h1M63 14h1M85 14h1M91 14h1M97 14h1M17 15h1M23 15h1M29 15h1M51 15h1M56 15h1M63 15h1M85 15h1M92 15h1M97 15h1M17 16h1M23 16h1M29 16h1M51 16h1M55 16h1M63 16h1M85 16h1M89 16h1M92 16h1M97 16h1M10 17h2M17 17h1M23 17h1M29 17h1M44 17h2M51 17h1M55 17h4M63 17h1M78 17h2M85 17h1M90 17h2M97 17h1M11 18h1M17 18h1M29 18h1M43 18h1M46 18h1M51 18h1M63 18h1M77 18h1M80 18h1M85 18h1M97 18h1M11 19h1M17 19h1M29 19h1M46 19h1M51 19h1M63 19h1M80 19h1M85 19h1M97 19h1M11 20h1M17 20h1M29 20h1M45 20h1M51 20h1M63 20h1M79 20h1M85 20h1M97 20h1M11 21h1M17 21h1M29 21h1M44 21h1M51 21h1M63 21h1M80 21h1M85 21h1M97 21h1M11 22h1M17 22h1M29 22h1M43 22h1M51 22h1M63 22h1M77 22h1M80 22h1M85 22h1M97 22h1M11 23h1M17 23h13M43 23h4M51 23h13M78 23h2M85 23h13M17 24h1M51 24h1M85 24h1M17 25h1M51 25h1M85 25h1M17 26h1M51 26h1M85 26h1M17 27h1M51 27h1M85 27h1M17 28h1M51 28h1M85 28h1M0 29h18M34 29h18M68 29h18" />
<path stroke="#ffffff" d="M0 0h1M13 1h15M47 1h15M81 1h15M13 2h15M47 2h15M81 2h15M13 3h15M47 3h15M81 3h15M13 4h15M47 4h15M81 4h15M13 5h15M47 5h15M81 5h15M18 6h10M52 6h10M86 6h10M1 7h15M18 7h10M35 7h15M52 7h10M69 7h15M86 7h10M1 8h15M18 8h10M35 8h15M52 8h10M69 8h15M86 8h10M1 9h15M18 9h10M35 9h15M52 9h10M69 9h15M86 9h10M1 10h15M18 10h10M35 10h15M52 10h10M69 10h15M86 10h10M1 11h15M18 11h4M24 11h4M35 11h15M52 11h4M58 11h4M69 11h15M86 11h4M92 11h4M1 12h15M18 12h5M24 12h4M35 12h15M52 12h3M56 12h2M59 12h3M69 12h15M86 12h3M90 12h2M93 12h3M1 13h15M18 13h5M24 13h4M35 13h15M52 13h6M59 13h3M69 13h15M86 13h6M93 13h3M1 14h15M18 14h5M24 14h4M35 14h15M52 14h5M58 14h4M69 14h15M86 14h5M92 14h4M1 15h15M18 15h5M24 15h4M35 15h15M52 15h4M57 15h5M69 15h15M86 15h6M93 15h3M1 16h15M18 16h5M24 16h4M35 16h15M52 16h3M56 16h6M69 16h15M86 16h3M90 16h2M93 16h3M1 17h9M12 17h4M18 17h5M24 17h4M35 17h9M46 17h4M52 17h3M59 17h3M69 17h9M80 17h4M86 17h4M92 17h4M1 18h10M12 18h4M18 18h10M35 18h8M44 18h2M47 18h3M52 18h10M69 18h8M78 18h2M81 18h3M86 18h10M1 19h10M12 19h4M18 19h10M35 19h11M47 19h3M52 19h10M69 19h11M81 19h3M86 19h10M1 20h10M12 20h4M18 20h10M35 20h10M46 20h4M52 20h10M69 20h10M80 20h4M86 20h10M1 21h10M12 21h4M18 21h10M35 21h9M45 21h5M52 21h10M69 21h11M81 21h3M86 21h10M1 22h10M12 22h4M35 22h8M44 22h6M69 22h8M78 22h2M81 22h3M1 23h10M12 23h4M35 23h8M47 23h3M69 23h9M80 23h4M1 24h15M35 24h15M69 24h15M1 25h15M35 25h15M69 25h15M1 26h15M35 26h15M69 26h15M1 27h15M35 27h15M69 27h15" />
<path stroke="#c0c0c0" d="M0 0h1M28 1h1M62 1h1M96 1h1M28 2h1M62 2h1M96 2h1M28 3h1M62 3h1M96 3h1M28 4h1M62 4h1M96 4h1M28 5h1M62 5h1M96 5h1M28 6h1M62 6h1M96 6h1M16 7h1M28 7h1M50 7h1M62 7h1M84 7h1M96 7h1M16 8h1M28 8h1M50 8h1M62 8h1M84 8h1M96 8h1M16 9h1M28 9h1M50 9h1M62 9h1M84 9h1M96 9h1M16 10h1M28 10h1M50 10h1M62 10h1M84 10h1M96 10h1M16 11h1M28 11h1M50 11h1M62 11h1M84 11h1M96 11h1M16 12h1M28 12h1M50 12h1M62 12h1M84 12h1M96 12h1M16 13h1M28 13h1M50 13h1M62 13h1M84 13h1M96 13h1M16 14h1M28 14h1M50 14h1M62 14h1M84 14h1M96 14h1M16 15h1M28 15h1M50 15h1M62 15h1M84 15h1M96 15h1M16 16h1M28 16h1M50 16h1M62 16h1M84 16h1M96 16h1M16 17h1M28 17h1M50 17h1M62 17h1M84 17h1M96 17h1M16 18h1M28 18h1M50 18h1M62 18h1M84 18h1M96 18h1M16 19h1M28 19h1M50 19h1M62 19h1M84 19h1M96 19h1M16 20h1M28 20h1M50 20h1M62 20h1M84 20h1M96 20h1M16 21h1M28 21h1M50 21h1M62 21h1M84 21h1M96 21h1M16 22h1M18 22h11M50 22h1M52 22h11M84 22h1M86 22h11M16 23h1M50 23h1M84 23h1M16 24h1M50 24h1M84 24h1M16 25h1M50 25h1M84 25h1M16 26h1M50 26h1M84 26h1M16 27h1M50 27h1M84 27h1M1 28h16M35 28h16M69 28h16" />
</svg>