<svg xmlns="http://www.w3.org/2000/svg" viewBox="0 -0.5 32 32" shape-rendering="crispEdges">
<path stroke="#000000" d="M0 0h1M2 6h27M2 7h1M28 7h1M2 8h1M15 8h1M28 8h1M2 9h1M5 9h7M18 9h7M28 9h1M2 10h1M15 10h1M28 10h1M2 11h1M28 11h1M2 12h1M5 12h8M15 12h1M18 12h8M28 12h1M2 13h1M28 13h1M2 14h1M15 14h1M28 14h1M2 15h1M5 15h7M18 15h7M28 15h1M2 16h1M15 16h1M28 16h1M2 17h1M28 17h1M2 18h1M5 18h8M15 18h1M18 18h8M28 18h1M2 19h1M28 19h1M2 20h1M15 20h1M28 20h1M2 21h1M5 21h7M18 21h7M28 21h1M2 22h1M15 22h1M28 22h1M2 23h1M28 23h1M2 24h27" />
<path stroke="#ffffff" d="M0 0h1M3 7h25M3 8h12M16 8h12M3 9h2M12 9h6M25 9h3M3 10h12M16 10h12M3 11h25M3 12h2M13 12h2M16 12h2M26 12h2M3 13h25M3 14h12M16 14h12M3 15h2M12 15h6M25 15h3M3 16h12M16 16h12M3 17h25M3 18h2M13 18h2M16 18h2M26 18h2M3 19h25M3 20h12M16 20h12M3 21h2M12 21h6M25 21h3M3 22h12M16 22h12M3 23h25" />
<path stroke="#808080" d="M0 0h1M29 7h1M29 8h1M29 9h1M29 10h1M29 11h1M29 12h1M29 13h1M29 14h1M29 15h1M29 16h1M29 17h1M29 18h1M29 19h1M29 20h1M29 21h1M29 22h1M29 23h1M29 24h1M3 25h27" />
</svg>