<svg xmlns="http://www.w3.org/2000/svg" viewBox="0 -0.5 32 32" shape-rendering="crispEdges">
<path stroke="#000000" d="M0 0h1M0 4h25M0 5h1M24 5h2M0 6h1M24 6h1M26 6h1M0 7h1M14 7h2M24 7h1M27 7h1M0 8h1M14 8h2M24 8h1M28 8h1M0 9h1M13 9h4M24 9h1M29 9h1M0 10h1M13 10h4M24 10h7M0 11h1M12 11h2M15 11h3M30 11h1M0 12h1M12 12h1M15 12h3M30 12h1M0 13h1M11 13h2M15 13h4M30 13h1M0 14h1M11 14h1M16 14h3M30 14h1M0 15h1M10 15h2M16 15h4M30 15h1M0 16h1M10 16h1M17 16h3M30 16h1M0 17h1M9 17h12M30 17h1M0 18h1M9 18h1M18 18h3M30 18h1M0 19h1M8 19h2M18 19h4M30 19h1M0 20h1M8 20h1M19 20h3M30 20h1M0 21h1M7 21h2M19 21h4M30 21h1M0 22h1M5 22h6M17 22h8M30 22h1M0 23h1M30 23h1M0 24h1M30 24h1M0 25h1M30 25h1M0 26h31" />
<path stroke="#ffffff" d="M0 0h1M1 5h23M1 6h23M25 6h1M1 7h13M16 7h8M25 7h2M1 8h13M16 8h8M25 8h3M1 9h12M17 9h7M25 9h4M1 10h12M17 10h7M1 11h11M14 11h1M18 11h12M1 12h11M13 12h2M18 12h12M1 13h10M13 13h2M19 13h11M1 14h10M12 14h4M19 14h11M1 15h9M12 15h4M20 15h10M1 16h9M11 16h6M20 16h10M1 17h8M21 17h9M1 18h8M10 18h8M21 18h9M1 19h7M10 19h8M22 19h8M1 20h7M9 20h10M22 20h8M1 21h6M9 21h10M23 21h7M1 22h4M11 22h6M25 22h5M1 23h29M1 24h29M1 25h29" />
<path stroke="#c0c0c0" d="M0 0h1M31 11h1M31 12h1M31 13h1M31 14h1M31 15h1M31 16h1M31 17h1M31 18h1M31 19h1M31 20h1M31 21h1M31 22h1M31 23h1M31 24h1M31 25h1M31 26h1M1 27h31" />
</svg>