<svg xmlns="http://www.w3.org/2000/svg" viewBox="0 -0.5 32 32" shape-rendering="crispEdges">
<path stroke="#000000" d="M0 0h1M0 9h31M0 10h1M30 10h1M0 11h1M15 11h1M30 11h1M0 12h1M3 12h10M18 12h10M30 12h1M0 13h1M15 13h1M30 13h1M0 14h1M30 14h1M0 15h1M3 15h9M15 15h1M18 15h9M30 15h1M0 16h1M30 16h1M0 17h1M15 17h1M30 17h1M0 18h1M3 18h10M18 18h10M30 18h1M0 19h1M15 19h1M30 19h1M0 20h1M30 20h1M0 21h31" />
<path stroke="#ffffff" d="M0 0h1M1 10h29M1 11h14M16 11h14M1 12h2M13 12h5M28 12h2M1 13h14M16 13h14M1 14h29M1 15h2M12 15h3M16 15h2M27 15h3M1 16h29M1 17h14M16 17h14M1 18h2M13 18h5M28 18h2M1 19h14M16 19h14M1 20h29" />
<path stroke="#808080" d="M0 0h1M31 10h1M31 11h1M31 12h1M31 13h1M31 14h1M31 15h1M31 16h1M31 17h1M31 18h1M31 19h1M31 20h1M31 21h1M1 22h31" />
</svg>