<svg xmlns="http://www.w3.org/2000/svg" width="98" height="30" shape-rendering="crispEdges" viewBox="0 -0.5 98 30"><path stroke="gray" d="M12 0h17m17 0h17m17 0h17M12 1h1m33 0h1m33 0h1M12 2h1m33 0h1m33 0h1M12 3h1m33 0h1m33 0h1M12 4h1m33 0h1m33 0h1M12 5h1m33 0h1m33 0h1M0 6h17m17 0h17m17 0h17M0 7h1m33 0h1m33 0h1M0 8h1m33 0h1m33 0h1M0 9h1m33 0h1m33 0h1M0 10h1m33 0h1m33 0h1M0 11h1m33 0h1m33 0h1M0 12h1m33 0h1m33 0h1M0 13h1m33 0h1m33 0h1M0 14h1m33 0h1m33 0h1M0 15h1m33 0h1m33 0h1M0 16h1m33 0h1m33 0h1M0 17h1m33 0h1m33 0h1M0 18h1m33 0h1m33 0h1M0 19h1m33 0h1m33 0h1M0 20h1m33 0h1m33 0h1M0 21h1m33 0h1m33 0h1M0 22h1m33 0h1m33 0h1M0 23h1m33 0h1m33 0h1M0 24h1m33 0h1m33 0h1M0 25h1m33 0h1m33 0h1M0 26h1m33 0h1m33 0h1M0 27h1m33 0h1m33 0h1M0 28h1m33 0h1m33 0h1"/><path stroke="#000" d="M29 0h1m33 0h1m33 0h1M29 1h1m33 0h1m33 0h1M29 2h1m33 0h1m33 0h1M29 3h1m33 0h1m33 0h1M29 4h1m33 0h1m33 0h1M29 5h1m33 0h1m33 0h1M17 6h1m11 0h1m21 0h1m11 0h1m21 0h1m11 0h1M17 7h1m11 0h1m21 0h1m11 0h1m21 0h1m11 0h1M17 8h1m11 0h1m21 0h1m11 0h1m21 0h1m11 0h1M17 9h1m11 0h1m21 0h1m11 0h1m21 0h1m11 0h1m-81 1h1m11 0h1m21 0h1m11 0h1m21 0h1m11 0h1m-81 1h1m4 0h2m5 0h1m21 0h1m4 0h2m5 0h1m21 0h1m4 0h2m5 0h1m-81 1h1m5 0h1m5 0h1m21 0h1m3 0h1m2 0h1m4 0h1m21 0h1m3 0h1m2 0h1m4 0h1m-81 1h1m5 0h1m5 0h1m21 0h1m6 0h1m4 0h1m21 0h1m6 0h1m4 0h1m-81 1h1m5 0h1m5 0h1m21 0h1m5 0h1m5 0h1m21 0h1m5 0h1m5 0h1m-81 1h1m5 0h1m5 0h1m21 0h1m4 0h1m6 0h1m21 0h1m6 0h1m4 0h1m-81 1h1m5 0h1m5 0h1m21 0h1m3 0h1m7 0h1m21 0h1m3 0h1m2 0h1m4 0h1m-88 1h2m5 0h1m5 0h1m5 0h1m14 0h2m5 0h1m3 0h4m4 0h1m14 0h2m5 0h1m4 0h2m5 0h1m-87 1h1m5 0h1m11 0h1m13 0h1m2 0h1m4 0h1m11 0h1m13 0h1m2 0h1m4 0h1m11 0h1m-87 1h1m5 0h1m11 0h1m16 0h1m4 0h1m11 0h1m16 0h1m4 0h1m11 0h1m-87 1h1m5 0h1m11 0h1m15 0h1m5 0h1m11 0h1m15 0h1m5 0h1m11 0h1m-87 1h1m5 0h1m11 0h1m14 0h1m6 0h1m11 0h1m16 0h1m4 0h1m11 0h1m-87 1h1m5 0h1m11 0h1m13 0h1m7 0h1m11 0h1m13 0h1m2 0h1m4 0h1m11 0h1m-87 1h1m5 0h13m13 0h4m4 0h13m14 0h2m5 0h13m-81 1h1m33 0h1m33 0h1m-69 1h1m33 0h1m33 0h1m-69 1h1m33 0h1m33 0h1m-69 1h1m33 0h1m33 0h1m-69 1h1m33 0h1m33 0h1M0 29h18m16 0h18m16 0h18"/><path stroke="#fff" d="M13 1h15m19 0h15m19 0h15M13 2h15m19 0h15m19 0h15M13 3h15m19 0h15m19 0h15M13 4h15m19 0h15m19 0h15M13 5h15m19 0h15m19 0h15M18 6h10m24 0h10m24 0h10M1 7h15m2 0h10m7 0h15m2 0h10m7 0h15m2 0h10M1 8h15m2 0h10m7 0h15m2 0h10m7 0h15m2 0h10M1 9h15m2 0h10m7 0h15m2 0h10m7 0h15m2 0h10M1 10h15m2 0h10m7 0h15m2 0h10m7 0h15m2 0h10M1 11h15m2 0h4m2 0h4m7 0h15m2 0h4m2 0h4m7 0h15m2 0h4m2 0h4M1 12h15m2 0h5m1 0h4m7 0h15m2 0h3m1 0h2m1 0h3m7 0h15m2 0h3m1 0h2m1 0h3M1 13h15m2 0h5m1 0h4m7 0h15m2 0h6m1 0h3m7 0h15m2 0h6m1 0h3M1 14h15m2 0h5m1 0h4m7 0h15m2 0h5m1 0h4m7 0h15m2 0h5m1 0h4M1 15h15m2 0h5m1 0h4m7 0h15m2 0h4m1 0h5m7 0h15m2 0h6m1 0h3M1 16h15m2 0h5m1 0h4m7 0h15m2 0h3m1 0h6m7 0h15m2 0h3m1 0h2m1 0h3M1 17h9m2 0h4m2 0h5m1 0h4m7 0h9m2 0h4m2 0h3m4 0h3m7 0h9m2 0h4m2 0h4m2 0h4M1 18h10m1 0h4m2 0h10m7 0h8m1 0h2m1 0h3m2 0h10m7 0h8m1 0h2m1 0h3m2 0h10M1 19h10m1 0h4m2 0h10m7 0h11m1 0h3m2 0h10m7 0h11m1 0h3m2 0h10M1 20h10m1 0h4m2 0h10m7 0h10m1 0h4m2 0h10m7 0h10m1 0h4m2 0h10M1 21h10m1 0h4m2 0h10m7 0h9m1 0h5m2 0h10m7 0h11m1 0h3m2 0h10M1 22h10m1 0h4m19 0h8m1 0h6m19 0h8m1 0h2m1 0h3M1 23h10m1 0h4m19 0h8m4 0h3m19 0h9m2 0h4M1 24h15m19 0h15m19 0h15M1 25h15m19 0h15m19 0h15M1 26h15m19 0h15m19 0h15M1 27h15m19 0h15m19 0h15"/><path stroke="silver" d="M28 1h1m33 0h1m33 0h1M28 2h1m33 0h1m33 0h1M28 3h1m33 0h1m33 0h1M28 4h1m33 0h1m33 0h1M28 5h1m33 0h1m33 0h1M28 6h1m33 0h1m33 0h1M16 7h1m11 0h1m21 0h1m11 0h1m21 0h1m11 0h1M16 8h1m11 0h1m21 0h1m11 0h1m21 0h1m11 0h1M16 9h1m11 0h1m21 0h1m11 0h1m21 0h1m11 0h1m-81 1h1m11 0h1m21 0h1m11 0h1m21 0h1m11 0h1m-81 1h1m11 0h1m21 0h1m11 0h1m21 0h1m11 0h1m-81 1h1m11 0h1m21 0h1m11 0h1m21 0h1m11 0h1m-81 1h1m11 0h1m21 0h1m11 0h1m21 0h1m11 0h1m-81 1h1m11 0h1m21 0h1m11 0h1m21 0h1m11 0h1m-81 1h1m11 0h1m21 0h1m11 0h1m21 0h1m11 0h1m-81 1h1m11 0h1m21 0h1m11 0h1m21 0h1m11 0h1m-81 1h1m11 0h1m21 0h1m11 0h1m21 0h1m11 0h1m-81 1h1m11 0h1m21 0h1m11 0h1m21 0h1m11 0h1m-81 1h1m11 0h1m21 0h1m11 0h1m21 0h1m11 0h1m-81 1h1m11 0h1m21 0h1m11 0h1m21 0h1m11 0h1m-81 1h1m11 0h1m21 0h1m11 0h1m21 0h1m11 0h1m-81 1h1m1 0h11m21 0h1m1 0h11m21 0h1m1 0h11m-81 1h1m33 0h1m33 0h1m-69 1h1m33 0h1m33 0h1m-69 1h1m33 0h1m33 0h1m-69 1h1m33 0h1m33 0h1m-69 1h1m33 0h1m33 0h1M1 28h16m18 0h16m18 0h16"/></svg>