<svg xmlns="http://www.w3.org/2000/svg" viewBox="0 -0.5 16 16" shape-rendering="crispEdges">
<path stroke="#808080" d="M0 0h1M3 0h11M2 1h1M13 1h1M1 2h1M12 2h2M1 3h1M12 3h2M1 4h3M12 4h2M1 5h1M12 5h2M0 6h1M12 6h2M0 7h1M12 7h2M0 8h1M12 8h2M1 9h1M6 9h2M12 9h1M14 9h1M2 10h1M5 10h1M14 10h1M0 11h1M13 11h2M0 12h1M13 12h2M0 13h1M13 13h2M0 14h1M13 14h1" />
<path stroke="#c0c0c0" d="M0 0h1M3 1h9M3 3h9M11 4h1M11 5h1M3 6h1M5 6h1M11 6h1M4 7h1M11 7h1M3 8h1M5 8h1M11 8h1M2 9h1M4 9h1M8 9h4M6 10h1M13 10h1M2 12h5M11 12h2M2 13h1M4 13h4M12 13h1M2 14h1M4 14h5M12 14h1" />
<path stroke="#ffffff" d="M0 0h1M12 1h1M2 2h10M2 3h1M2 5h1M4 5h1M1 6h1M2 7h1M1 8h1M1 11h5M10 11h3M1 12h1M1 13h1M1 14h1" />
<path stroke="#000000" d="M0 0h1M14 1h1M14 2h1M14 3h1M4 4h6M14 4h1M5 5h1M14 5h1M6 6h1M14 6h1M6 7h1M14 7h1M6 8h1M14 8h1M5 9h1M13 9h1M1 10h1M3 10h2M9 10h4M15 10h1M15 11h1M15 12h1M15 13h1M14 14h1M1 15h13" />
<path stroke="#000080" d="M0 0h1M10 4h1M10 5h1M10 6h1M10 7h1M7 8h4M6 11h1M7 12h1M8 13h1M9 14h1" />
<path stroke="#00ffff" d="M0 0h1M3 5h1M2 6h1M4 6h1M1 7h1M3 7h1M5 7h1M2 8h1M4 8h1M3 9h1M7 11h1M8 12h1M9 13h1M10 14h1" />
<path stroke="#0000ff" d="M0 0h1M6 5h4M7 6h3M7 7h3M7 10h2M8 11h2M9 12h2M10 13h2M11 14h1" />
<path stroke="#00ff00" d="M0 0h1M3 13h1" />
<path stroke="#008000" d="M0 0h1M3 14h1" />
</svg>