<svg xmlns="http://www.w3.org/2000/svg" width="16" height="16" shape-rendering="crispEdges" viewBox="0 -0.5 16 16"><path stroke="gray" d="M3 0h11M2 1h1m10 0h1M1 2h1m10 0h2M1 3h1m10 0h2M1 4h3m8 0h2M1 5h1m10 0h2M0 6h1m11 0h2M0 7h1m11 0h2M0 8h1m11 0h2M1 9h1m4 0h2m4 0h1m1 0h1M2 10h1m2 0h1m8 0h1M0 11h1m12 0h2M0 12h1m12 0h2M0 13h1m12 0h2M0 14h1m12 0h1"/><path stroke="silver" d="M3 1h9M3 3h9m-1 1h1m-1 1h1M3 6h1m1 0h1m5 0h1M4 7h1m6 0h1M3 8h1m1 0h1m5 0h1M2 9h1m1 0h1m3 0h4m-6 1h1m6 0h1M2 12h5m4 0h2M2 13h1m1 0h4m4 0h1M2 14h1m1 0h5m3 0h1"/><path stroke="#fff" d="M12 1h1M2 2h10M2 3h1M2 5h1m1 0h1M1 6h1m0 1h1M1 8h1m-1 3h5m4 0h3M1 12h1m-1 1h1m-1 1h1"/><path stroke="#000" d="M14 1h1m-1 1h1m-1 1h1M4 4h6m4 0h1M5 5h1m8 0h1M6 6h1m7 0h1M6 7h1m7 0h1M6 8h1m7 0h1M5 9h1m7 0h1M1 10h1m1 0h2m4 0h4m2 0h1m-1 1h1m-1 1h1m-1 1h1m-2 1h1M1 15h13"/><path stroke="navy" d="M10 4h1m-1 1h1m-1 1h1m-1 1h1M7 8h4m-5 3h1m0 1h1m0 1h1m0 1h1"/><path stroke="#0ff" d="M3 5h1M2 6h1m1 0h1M1 7h1m1 0h1m1 0h1M2 8h1m1 0h1M3 9h1m3 2h1m0 1h1m0 1h1m0 1h1"/><path stroke="#00f" d="M6 5h4M7 6h3M7 7h3m-3 3h2m-1 1h2m-1 1h2m-1 1h2m-1 1h1"/><path stroke="#0f0" d="M3 13h1"/><path stroke="green" d="M3 14h1"/></svg>