<svg xmlns="http://www.w3.org/2000/svg" viewBox="0 -0.5 16 16" shape-rendering="crispEdges">
<path stroke="#808080" d="M0 0h1M3 0h11M2 1h1M13 1h1M1 2h1M12 2h2M1 3h1M12 3h2M1 4h1M12 4h2M1 5h1M12 5h2M1 6h1M12 6h2M1 7h1M12 7h2M1 8h1M12 8h2M1 9h12M14 9h1M13 10h2M0 11h1M13 11h2M0 12h1M13 12h2M0 13h1M10 13h1M13 13h2M0 14h14" />
<path stroke="#c0c0c0" d="M0 0h1M3 1h9M3 3h1M11 3h1M3 4h1M11 4h1M3 5h1M11 5h1M3 6h1M11 6h1M3 7h1M11 7h1M3 8h9M2 12h5M12 12h1M2 13h1M4 13h6M11 13h2" />
<path stroke="#ffffff" d="M0 0h1M12 1h1M2 2h10M2 3h1M2 4h1M2 5h1M2 6h1M2 7h1M2 8h1M1 11h12M1 12h1M1 13h1" />
<path stroke="#000000" d="M0 0h1M14 1h1M14 2h1M4 3h7M14 3h1M4 4h1M14 4h1M4 5h1M14 5h1M4 6h1M14 6h1M4 7h1M14 7h1M14 8h1M13 9h1M1 10h12M15 10h1M15 11h1M7 12h5M15 12h1M15 13h1M14 14h1M1 15h13" />
<path stroke="#0000ff" d="M0 0h1M5 4h5M5 5h5M5 6h5" />
<path stroke="#000080" d="M0 0h1M10 4h1M10 5h1M10 6h1M5 7h6" />
<path stroke="#00ff00" d="M0 0h1M3 13h1" />
</svg>