<svg xmlns="http://www.w3.org/2000/svg" width="32" height="32" shape-rendering="crispEdges" viewBox="0 -0.5 32 32"><path stroke="gray" d="M8 0h4M6 1h2m4 0h2M4 2h2m8 0h8M3 3h1m12 0h2m4 0h2M3 4h1m14 0h2m4 0h2M3 5h1m3 0h2m11 0h2m4 0h1M3 6h1m5 0h2m13 0h3M3 7h1m7 0h2m7 0h2m1 0h4M3 8h1m9 0h2m3 0h4m1 0h4M3 9h1m11 0h2m1 0h4m1 0h4M3 10h1m14 0h4m1 0h4M3 11h1m14 0h4m1 0h4M3 12h1m14 0h4m1 0h4M3 13h1m14 0h4m1 0h4M3 14h1m14 0h4m1 0h4M3 15h1m1 0h3m10 0h4m1 0h4M3 16h1m4 0h2m8 0h4m1 0h3M2 17h1m7 0h2m6 0h4m1 0h2M2 18h1m9 0h2m4 0h4m1 0h1M2 19h1m11 0h2m2 0h4m2 0h2M2 20h1m13 0h1m1 0h4m1 0h5M2 21h1m15 0h4m1 0h3M2 22h1m15 0h2m2 0h2m2 0h2m-8 1h2m2 0h4m-10 1h2m2 0h6m-8 1h8m-10 1h8m-8 1h6m-6 1h4m-4 1h2"/><path stroke="silver" d="M8 1h4M6 2h8M9 3h7m2 0h4M5 4h4m2 0h7m2 0h4M5 5h1m3 0h2m2 0h7m2 0h4M5 6h1m5 0h2m2 0h7m1 0h1M5 7h1m7 0h2m2 0h3M5 8h1m9 0h3M5 9h1m11 0h1M5 10h1m11 0h1M5 11h1m11 0h1M5 12h1m11 0h1M5 13h1m11 0h1M5 14h1m11 0h1M4 15h1m12 0h1M5 16h3m9 0h1M3 17h2m2 0h3m7 0h1M5 18h2m2 0h3m5 0h1M4 19h1m2 0h2m2 0h3m3 0h1M4 20h3m2 0h2m2 0h3m1 0h1M4 21h1m2 0h2m2 0h2m2 0h3m8 0h2M4 22h1m2 0h4m2 0h2m2 0h1m6 0h2M5 23h8m2 0h2m5 0h2M7 24h8m2 0h1m2 0h2M9 25h8m1 0h2m-9 1h7m-5 1h5m-3 1h3m-1 1h1"/><path stroke="#fff" d="M4 3h5M4 4h1m4 0h2M4 5h1m6 0h2M4 6h1m8 0h2M4 7h1m10 0h2M4 8h1M4 9h1m-1 1h1m-1 1h1m5 0h1m-7 1h1m-1 1h1m-1 1h1m-2 4h2m-2 1h1m1 0h2m-4 1h1m3 0h2m-6 1h1m5 0h2m-8 1h1m7 0h2m0 1h2m0 1h2m0 1h1"/><path stroke="#000" d="M6 5h1M6 6h1m15 0h1m4 0h1M6 7h1m15 0h1m4 0h1M6 8h1m15 0h1m4 0h1M6 9h1m15 0h1m4 0h1M6 10h1m15 0h1m4 0h1M6 11h1m15 0h1m4 0h1M6 12h1m15 0h1m4 0h1M6 13h1m15 0h1m4 0h1M6 14h1m15 0h1m4 0h1m-6 1h1m4 0h1M4 16h1m17 0h1m3 0h1M5 17h2m15 0h1m2 0h1M7 18h2m13 0h1m1 0h2M9 19h2m11 0h2m2 0h2m-17 1h2m9 0h1m5 0h1m-16 1h2m7 0h1m5 0h1m-14 1h2m3 0h2m6 0h1M3 23h2m12 0h3m8 0h1M5 24h2m21 0h1M7 25h2m19 0h1M9 26h2m15 0h2m-17 1h2m11 0h2m-13 1h2m7 0h2m-9 1h2m3 0h2m-5 1h3"/><path stroke="navy" d="M7 6h2m0 1h2m0 1h2m0 1h2m0 1h2m-1 1h1m-1 1h1m-1 1h1M7 14h1m8 0h1m-9 1h2m6 0h1m-7 1h2m4 0h1m-5 1h2m2 0h1m-3 1h3m-1 1h1"/><path stroke="#00f" d="M7 7h2M7 8h4M7 9h3m1 0h2m-6 1h1m1 0h1m1 0h2m1 0h1m-8 1h2m2 0h1m1 0h3m-9 1h1m1 0h1m2 0h4m-9 1h3m1 0h5m-8 1h2m1 0h1m1 0h3m-6 1h6m-4 1h4m-2 1h2"/><path stroke="#0ff" d="M10 9h1m-3 1h1m1 0h1m2 0h1m-5 1h1m2 0h1m-5 1h1m2 0h1m-2 1h1m-1 1h1m1 0h1"/><path stroke="#ff0" d="M10 12h1"/><path stroke="#0f0" d="M5 21h2"/><path stroke="green" d="M5 22h2"/></svg>