<svg xmlns="http://www.w3.org/2000/svg" width="16" height="16" shape-rendering="crispEdges" viewBox="0 -0.5 16 16"><path stroke="gray" d="M4 0h4M2 1h2m4 0h4M1 2h1m8 0h1m1 0h1M1 3h1m1 0h2M1 4h1m4 0h1m2 0h1m1 0h2M1 5h1m6 0h2m1 0h2M1 6h1m6 0h2m1 0h2M1 7h1m6 0h2m1 0h1M1 8h1m6 0h2M0 9h1m7 0h2m1 0h1M0 10h1m7 0h1m2 0h1M0 11h1m8 0h1m2 0h1m-3 1h3m-5 1h4m-4 1h2"/><path stroke="silver" d="M4 1h4M2 2h1m2 0h5m1 0h1M2 3h1m4 0h3m1 0h2M2 4h1m5 0h1M2 5h1m4 0h1M2 6h1m4 0h1M2 7h1m4 0h1M3 8h2m2 0h1M2 9h1m2 0h3m-7 1h1m2 0h1m2 0h1m4 0h1M1 11h3m2 0h1m3 0h2m-9 1h3m2 0h2m-5 1h3m-1 1h1"/><path stroke="#fff" d="M3 2h2m0 1h2m0 1h1M1 9h1m0 1h2m0 1h2m0 1h2"/><path stroke="#000" d="M10 3h1m2 0h1m-4 1h1m2 0h1m-4 1h1m2 0h1m-4 1h1m2 0h1m-4 1h1m1 0h1M2 8h1m7 0h2M3 9h2m5 0h1m1 0h1m-8 1h2m2 0h2m2 0h1m-7 1h2m4 0h1M1 12h2m10 0h1M3 13h2m7 0h2m-9 1h2m3 0h2m-5 1h3"/><path stroke="#00f" d="M3 4h1M3 5h1m1 0h1M3 6h2m1 0h1M3 7h4M5 8h2"/><path stroke="navy" d="M4 4h2m0 1h1"/><path stroke="#0ff" d="M4 5h1m0 1h1"/></svg>