<svg xmlns="http://www.w3.org/2000/svg" width="32" height="32" shape-rendering="crispEdges" viewBox="0 -0.5 32 32"><path stroke="gray" d="M7 0h21M6 1h1m20 0h1M5 2h1m20 0h2M4 3h1m20 0h3M3 4h1m21 0h3M3 5h1m2 0h17m2 0h3M3 6h1m1 0h5m15 0h3M3 7h2m5 0h1m14 0h3M2 8h1m22 0h3M1 9h1m23 0h3M1 10h1m23 0h3M0 11h1m24 0h3M0 12h1m24 0h3M0 13h1m24 0h3M0 14h1m24 0h3M0 15h1m24 0h3M1 16h1m23 0h3M1 17h1m23 0h3M2 18h1m11 0h1m10 0h3m-14 1h2m9 0h2m1 0h3M3 20h2m6 0h1m3 0h1m2 0h8m1 0h2m1 0h1m-19 1h1m13 0h2m1 0h2M1 22h13m6 0h7m1 0h3M0 23h1m26 0h4M0 24h1m26 0h4M0 25h1m14 0h1m7 0h2m2 0h4M0 26h1m26 0h4M0 27h1m26 0h4M0 28h1m26 0h3M0 29h1m26 0h2M0 30h21m5 0h2"/><path stroke="silver" d="M7 1h19M6 2h19M5 4h20M5 5h1m18 0h1m-1 1h1m-1 1h1M3 8h1m3 0h1m1 0h1m1 0h1m12 0h1M3 9h1m2 0h1m1 0h1m1 0h1m1 0h1m11 0h1M3 10h1m1 0h1m1 0h1m1 0h1m1 0h1m1 0h1m10 0h1M3 11h2m1 0h1m1 0h1m1 0h1m1 0h1m11 0h1M3 12h1m1 0h1m1 0h1m1 0h1m1 0h1m1 0h1m10 0h1M3 13h2m1 0h1m1 0h1m1 0h1m1 0h1m11 0h1M3 14h1m1 0h1m1 0h1m1 0h1m1 0h1m1 0h1m10 0h1M3 15h2m1 0h1m1 0h1m1 0h1m1 0h1m11 0h1M3 16h1m1 0h1m1 0h1m1 0h1m1 0h1m12 0h1M2 17h3m1 0h1m1 0h1m1 0h1m13 0h1M3 18h1m1 0h1m1 0h1m1 0h1m14 0h1m-12 1h1m3 0h8m-13 1h1m1 0h1m14 0h1m-17 1h1m14 0h1m-2 1h1M2 24h13m7 0h5M2 25h13m10 0h2M2 26h2m2 0h9m10 0h2M2 27h2m2 0h12m7 0h2M2 28h17m7 0h1M2 29h18m6 0h1"/><path stroke="#fff" d="M26 1h1m-2 1h1M5 3h20M4 4h1M4 5h1m18 0h1M4 6h1m18 0h1M6 7h1m1 0h1m14 0h1M5 8h1m17 0h1M4 9h1m18 0h1M2 10h1m1 0h1m18 0h1M2 11h1m20 0h1M1 12h2m20 0h1M2 13h1m20 0h1M1 14h1m21 0h1M2 15h1m20 0h1m-1 1h1m-1 1h1m-8 1h8m-11 2h1m0 1h1M1 23h13m7 0h6M1 24h1m-1 1h1m-1 1h1m-1 1h1m-1 1h1m-1 1h1"/><path stroke="#000" d="M28 1h1m-1 1h1m-1 1h1m-1 1h1m-1 1h1M10 6h12m6 0h1M11 7h2m15 0h1M13 8h1m14 0h1M14 9h1m13 0h1m-15 1h1m13 0h1m-14 1h1m12 0h1m-14 1h1m12 0h1m-14 1h1m12 0h1m-14 1h1m12 0h1m-14 1h1m12 0h1m-15 1h1m13 0h1m-15 1h1m13 0h1m-16 1h1m1 0h1m12 0h1M3 19h2m6 0h2m3 0h1m10 0h1M5 20h6m6 0h1m8 0h1m4 0h1M3 21h9m6 0h8m5 0h1m-13 1h1m11 0h1m-12 1h1m10 0h1m-11 1h1m9 0h1m-10 1h1m8 0h1m-17 1h2m6 0h2m6 0h1m-8 1h1m6 0h1m-7 1h1m4 0h1m-6 1h1m3 0h1m-5 1h1m2 0h1M1 31h27"/><path stroke="navy" d="M22 6h1m-1 1h1m-1 1h1m-1 1h1m-1 1h1m-1 1h1m-1 1h1m-1 1h1m-1 1h1m-1 1h1m-1 1h1m-8 1h8m-9 6h1m0 1h1m0 1h1m0 1h1m0 1h1m0 1h1m0 1h1m0 1h1"/><path stroke="#0ff" d="M5 7h1m1 0h1m1 0h1M4 8h1m1 0h1m1 0h1m1 0h1M2 9h1m2 0h1m1 0h1m1 0h1m1 0h1m-6 1h1m1 0h1m1 0h1m1 0h1M1 11h1m3 0h1m1 0h1m1 0h1m1 0h1m1 0h1M4 12h1m1 0h1m1 0h1m1 0h1m1 0h1M1 13h1m3 0h1m1 0h1m1 0h1m1 0h1m1 0h1M2 14h1m1 0h1m1 0h1m1 0h1m1 0h1m1 0h1M1 15h1m3 0h1m1 0h1m1 0h1m1 0h1m1 0h1M2 16h1m1 0h1m1 0h1m1 0h1m1 0h1m1 0h1m-8 1h1m1 0h1m1 0h1m1 0h1m-6 1h1m1 0h1m1 0h1m4 3h1m-1 1h2m-1 1h2m-1 1h2m-1 1h2m-1 1h2m-1 1h2m-1 1h2m-1 1h2m-1 1h1"/><path stroke="#00f" d="M13 7h9m-8 1h8m-7 1h7m-7 1h7m-6 1h6m-6 1h6m-6 1h6m-6 1h6m-6 1h6m-7 1h7m-6 4h1m-1 1h2m-4 1h1m2 0h2m-4 1h1m2 0h2m-4 1h1m2 0h2m-4 1h1m2 0h2m-4 1h1m2 0h2m-4 1h1m2 0h2m-4 1h1m2 0h2m-4 1h1m2 0h1m-3 1h1m1 0h1"/><path stroke="teal" d="M12 8h1m0 1h1m0 2h1m-1 1h1m-1 1h1m-1 1h1m-1 1h1m-2 1h1m-2 1h2M4 18h1m6 0h2m-8 1h6"/><path stroke="#0f0" d="M4 26h2"/><path stroke="green" d="M4 27h2"/></svg>