<svg xmlns="http://www.w3.org/2000/svg" viewBox="0 -0.5 32 32" shape-rendering="crispEdges">
<path stroke="#000000" d="M0 0h1M12 1h7M10 2h2M19 2h2M9 3h1M21 3h2M9 4h1M20 4h1M23 4h1M9 5h1M20 5h1M23 5h1M9 6h1M20 6h1M23 6h1M9 7h1M20 7h1M23 7h1M9 8h1M20 8h1M23 8h1M9 9h1M20 9h1M22 9h1M8 10h2M20 10h1M22 10h1M7 11h1M10 11h2M20 11h4M25 11h2M7 12h1M12 12h2M20 12h1M24 12h1M27 12h2M4 13h4M14 13h2M18 13h2M24 13h1M29 13h2M3 14h1M8 14h2M16 14h2M24 14h1M31 14h1M3 15h1M10 15h2M22 15h2M31 15h1M4 16h2M12 16h2M20 16h2M31 16h1M2 17h2M6 17h2M14 17h2M18 17h2M29 17h2M1 18h1M8 18h2M16 18h2M27 18h2M0 19h1M10 19h2M19 19h4M25 19h2M1 20h2M12 20h2M18 20h1M23 20h2M3 21h2M10 21h2M13 21h1M18 21h1M21 21h1M25 21h2M5 22h2M9 22h1M18 22h4M23 22h1M27 22h1M7 23h2M17 23h1M22 23h2M27 23h2M16 24h1M24 24h1M27 24h2M15 25h1M25 25h2M28 25h1M15 26h1M27 26h1M16 27h2M25 27h2M18 28h2M23 28h2M20 29h3" />
<path stroke="#c0c0c0" d="M0 0h1M12 2h2M16 2h3M12 3h4M18 3h3M11 4h1M14 4h4M12 5h2M16 5h3M14 6h2M16 7h2M17 8h1M17 9h1M11 10h2M17 10h1M8 11h1M12 11h3M17 11h1M8 12h3M14 12h4M8 13h5M16 13h2M10 14h5M12 15h5M16 16h2M5 17h1M16 17h2M2 18h1M4 18h1M6 18h1M1 19h1M5 19h1M7 19h1M9 19h1M3 20h1M6 20h1M8 20h1M10 20h1M5 21h1M9 21h1M7 22h1M18 23h4M17 24h1M19 24h1M21 24h3M16 25h1M20 25h1M22 25h1M16 26h3M21 26h1M18 27h3M20 28h1" />
<path stroke="#808080" d="M0 0h1M14 2h2M16 3h2M10 4h1M18 4h2M21 4h2M10 5h1M19 5h1M21 5h2M24 5h1M10 6h1M18 6h2M21 6h2M24 6h4M10 7h1M18 7h2M21 7h2M24 7h7M10 8h1M18 8h2M21 8h2M24 8h8M10 9h1M18 9h2M21 9h1M23 9h7M10 10h1M18 10h2M21 10h1M23 10h5M18 11h2M24 11h1M27 11h2M18 12h2M21 12h3M25 12h2M29 12h1M20 13h4M25 13h4M18 14h6M25 14h3M18 15h4M24 15h2M3 16h1M6 16h1M15 16h1M18 16h2M22 16h1M4 17h1M8 17h1M20 17h1M3 18h1M5 18h1M7 18h1M10 18h1M18 18h1M4 19h1M6 19h1M8 19h1M12 19h1M7 20h1M9 20h1M11 20h1M14 20h1M8 21h1M12 21h1M14 21h2M20 21h1M8 22h1M10 22h4M22 22h1M26 22h1M9 23h2M25 23h2M18 24h1M20 24h1M25 24h2M29 24h2M19 25h1M21 25h1M23 25h2M27 25h1M29 25h3M22 26h5M28 26h3M21 27h4M27 27h2M21 28h2M25 28h1M23 29h1" />
<path stroke="#ffffff" d="M0 0h1M10 3h2M12 4h2M14 5h2M16 6h2M9 11h1M11 12h1M13 13h1M15 14h1M17 15h1M14 16h1M2 19h2M4 20h2M19 20h4M6 21h2M19 21h1M22 21h3M24 22h2M24 23h1M17 25h2M19 26h2" />
<path stroke="#0000ff" d="M0 0h1M11 5h1M11 6h3M11 7h5M11 8h6M11 9h6M13 10h4M15 11h2" />
</svg>