<svg xmlns="http://www.w3.org/2000/svg" width="32" height="32" shape-rendering="crispEdges" viewBox="0 -0.5 32 32"><path stroke="green" d="M13 3h6m-7 1h1m-1 1h1m1 0h5m-7 1h1m1 0h5"/><path stroke="#0f0" d="M13 4h6m-6 1h1m-1 1h1"/><path stroke="#000" d="M19 4h1m-1 1h1m-1 1h1m5 3h1M2 10h1m23 0h1m1 0h1M2 11h1m24 0h2M2 12h1m24 0h2M2 13h1m24 0h2M2 14h1m23 0h1m1 0h1M2 15h1m2 0h2m12 0h1m4 0h2m2 0h1M1 16h1m4 0h4m9 0h1m1 0h4m4 0h1M1 17h6m1 0h1m1 0h2m7 0h2m1 0h1m1 0h6M6 18h3m10 0h1m2 0h3M1 19h6m1 0h1m10 0h1m2 0h1m1 0h6M2 20h2m2 0h1m1 0h1m10 0h1m2 0h1m1 0h1m2 0h2M2 21h2m2 0h1m1 0h1m4 0h6m3 0h1m1 0h1m2 0h2M2 22h2m2 0h1m1 0h1m10 0h1m2 0h1m1 0h1m2 0h2M1 23h2m1 0h1m1 0h1m1 0h1m4 0h6m3 0h1m1 0h1m1 0h2m1 0h1M0 24h1m4 0h2m8 0h2m7 0h2m4 0h1M6 25h1m7 0h4m6 0h1m-10 1h2m-3 1h2m1 0h1m-5 1h1m4 0h1"/><path stroke="gray" d="M10 7h11M7 8h3m11 0h3M5 9h2m17 0h1M4 10h1m-2 1h1m-1 1h1m-1 1h1m0 1h1"/><path stroke="olive" d="M10 8h1m1 0h1m1 0h1m1 0h1m1 0h1m1 0h1M7 9h1m1 0h1m1 0h1m1 0h1m1 0h1m1 0h1m1 0h1m1 0h1m1 0h1M6 10h1m1 0h1m1 0h1m1 0h1m1 0h1m1 0h1m1 0h1m1 0h1m1 0h1m1 0h1M5 11h1m1 0h1m1 0h1m1 0h1m1 0h1m1 0h1m1 0h1m1 0h1m1 0h1m1 0h1m1 0h1M4 12h1m1 0h1m1 0h1m1 0h1m1 0h1m1 0h1m1 0h1m1 0h1m1 0h1m1 0h1m1 0h1m1 0h1M5 13h1m1 0h1m1 0h1m1 0h1m1 0h1m1 0h1m1 0h1m1 0h1m1 0h1m1 0h1m1 0h1M6 14h1m1 0h1m1 0h1m1 0h1m7 0h1m1 0h1m1 0h1M7 15h1m1 0h1m1 0h1m9 0h1m1 0h1m-14 1h1m9 0h1"/><path stroke="silver" d="M11 8h1m1 0h1m1 0h1m1 0h1m1 0h1M8 9h1m1 0h1m1 0h1m1 0h1m1 0h1m1 0h1m1 0h1m1 0h1M5 10h1m1 0h1m1 0h1m1 0h1m1 0h1m1 0h1m1 0h1m1 0h1m1 0h1m1 0h1m1 0h1M4 11h1m1 0h1m1 0h1m1 0h1m1 0h1m1 0h1m1 0h1m1 0h1m1 0h1m1 0h1m1 0h1m1 0h1M5 12h1m1 0h1m1 0h1m1 0h1m1 0h1m1 0h1m1 0h1m1 0h1m1 0h1m1 0h1m1 0h1M4 13h1m1 0h1m1 0h1m1 0h1m1 0h1m1 0h1m1 0h1m1 0h1m1 0h1m1 0h1m1 0h1m1 0h1M5 14h1m1 0h1m1 0h1m1 0h1m7 0h1m1 0h1m1 0h1m1 0h1M8 15h1m1 0h1m9 0h1m1 0h1m-12 1h1"/><path stroke="purple" d="M1 9h1m-2 1h1m-1 1h1m-1 1h1m-1 1h1m-1 1h1m-1 1h1m-1 3h1m1 0h4"/><path stroke="navy" d="M29 9h1m0 1h1m-1 1h1m-1 1h1m-1 1h1m-1 1h1m-1 1h1m-6 3h4m1 0h1"/><path stroke="#f0f" d="M1 10h1m-1 1h1m-1 1h1m-1 1h1m-1 1h1m-1 1h1m-1 3h1"/><path stroke="#00f" d="M29 10h1m-1 1h1m-1 1h1m-1 1h1m-1 1h1m-1 1h1m-1 3h1"/><path stroke="teal" d="M13 14h6m-7 1h1m-1 1h1m1 0h5m-7 1h1m1 0h5m-7 1h1m1 0h5m-7 1h1m1 0h5m-7 1h1m1 0h5m-7 2h1m1 0h5"/><path stroke="#0ff" d="M13 15h6m-6 1h1m-1 1h1m-1 1h1m-1 1h1m-1 1h1m-1 2h1"/></svg>