<svg xmlns="http://www.w3.org/2000/svg" width="16" height="16" shape-rendering="crispEdges" viewBox="0 -0.5 16 16"><path stroke="navy" d="M0 4h2M0 5h2M0 6h2M0 7h2"/><path stroke="gray" d="M2 4h4M5 6h2m6 3h1"/><path stroke="olive" d="M6 4h4m0 1h2m0 1h2M6 7h1m3 0h1m3 0h1M5 8h1m9 0h1M4 9h1m2 0h1m6 0h1M3 10h1m2 0h1m1 0h1m3 0h1M3 11h1m3 0h1m3 0h4m-6 1h4m-4 1h2"/><path stroke="#fff" d="M2 5h4m2 0h1M2 6h2m3 0h1m1 0h1m1 0h1M4 7h1m3 0h1m4 0h1m0 1h1M9 9h1m1 0h1m-2 1h1m-6 1h1m3 0h1m-3 1h2"/><path stroke="#000" d="M6 5h2M4 6h1m3 0h1M2 7h1m2 0h1m1 0h1m1 0h1m1 0h1M3 8h2m3 0h1m1 0h1m1 0h1m-1 1h1m2 0h1m-3 1h3m-1 1h1M3 12h2m8 0h2M5 13h2m4 0h2m-6 1h4"/><path stroke="#ff0" d="M9 5h1m0 1h1m1 1h1M7 8h1m1 0h1m1 0h1m1 0h1M6 9h1m3 0h1m-6 1h1m-2 1h1m0 1h2m0 1h2"/><path stroke="silver" d="M3 7h1m2 1h1M5 9h1m2 0h1m-5 1h1m2 0h1m1 0h1m1 0h1m-6 1h1m1 0h1m1 0h1"/></svg>