<svg xmlns="http://www.w3.org/2000/svg" viewBox="0 -0.5 16 16" shape-rendering="crispEdges">
<path stroke="#808080" d="M0 0h1M0 2h4M7 2h9M6 3h1M7 4h1M6 5h1M4 6h1M4 7h1M4 12h1M4 13h1" />
<path stroke="#c0c0c0" d="M0 0h1M0 3h3M8 3h8M3 4h1M4 5h1M5 6h1M5 7h1M5 12h1M5 13h1" />
<path stroke="#000000" d="M0 0h1M4 3h1M0 4h3M5 4h1M8 4h8M3 5h1M7 5h1M6 6h1M6 7h1M7 8h1M7 9h1M7 10h1M3 11h5M6 12h1M6 13h1" />
<path stroke="#808000" d="M0 0h1M3 8h4M3 9h1M6 9h1M3 10h1M6 10h1" />
<path stroke="#ffff00" d="M0 0h1M5 9h1M5 10h1" />
</svg>