<svg xmlns="http://www.w3.org/2000/svg" width="32" height="32" shape-rendering="crispEdges" viewBox="0 -0.5 32 32"><path stroke="gray" d="M13 5h7m-9 1h2m7 0h2M9 7h2m2 0h1m8 0h1M8 8h1M7 9h1m2 0h1m-5 1h1m3 0h1m-5 1h1m-2 1h1m-1 1h1m-2 1h1m-1 1h1m-1 1h1m-1 1h1m-1 1h1m-1 1h1m-1 1h1"/><path stroke="#fff" d="M13 6h1m1 0h1m-5 1h1M9 8h1m1 0h1M8 9h2m18 0h1M7 10h1m19 0h1M8 11h1m17 0h1m1 0h1M6 12h2m17 0h1m1 0h1m-4 1h1m1 0h1M5 14h1m3 0h1m1 0h1m11 0h1m1 0h1M6 15h1m3 0h1m11 0h1m1 0h1M9 16h1m1 0h1m7 0h1m1 0h1m1 0h1M8 17h1m1 0h1m9 0h1m1 0h1M7 18h1m1 0h1m9 0h1M6 19h1m1 0h1m-2 1h1m-2 1h1m-2 1h1m-2 1h1m0 1h1m-2 1h1"/><path stroke="teal" d="M14 6h1m1 0h1m1 0h2m-2 1h1m-7 2h1m-5 1h1m7 1h1m4 0h1m-5 2h1M5 15h1m-1 1h1m-1 1h2m-2 1h1m5 2h3m5 2h1M7 24h1m14 0h1m-9 1h1m0 1h1"/><path stroke="#00f" d="M17 6h1m-4 1h1m4 0h1m-7 1h1m0 1h1m-4 1h1m-3 1h1m3 1h4m1 0h2m1 0h1m-7 1h2m1 0h1m-4 1h3m1 0h1m1 0h1m-7 1h3m2 0h1m-4 1h1m8 1h1m-2 1h1m-2 1h2m-16 2h4m-5 1h5m6 0h3m1 0h1M8 23h6m5 0h3m1 0h1M8 24h7m5 0h2M8 25h1m1 0h4m4 0h2M9 26h1m1 0h1m1 0h1m3 0h1m2 0h1m-9 1h1m1 0h1"/><path stroke="olive" d="M24 6h3m0 1h1m-1 1h1m-2 1h2m-2 1h1m-2 1h1m-2 1h1M7 13h7m9 0h1m-6 1h1m3 0h1m-5 1h2m1 0h1M8 16h1m9 0h1m1 0h1M7 17h1m10 0h1M6 18h1m11 0h1M5 19h1m12 0h1M5 20h1m12 0h1M4 21h1m-1 1h1m-2 1h1m-1 1h1m-1 1h1m2 0h1m-4 1h1m0 1h1m1 0h1"/><path stroke="silver" d="M12 7h1m-3 1h1m1 0h1m-2 1h1m-5 2h1m2 0h1m-3 1h3m-5 1h1m-1 1h2m-1 1h2m-3 1h2"/><path stroke="green" d="M15 7h3m2 0h2m-7 1h9M13 9h1m1 0h9M9 10h1m2 0h13m-14 1h4m2 0h1m1 0h1m2 0h2m-13 1h2m4 0h1m4 0h2m-5 1h4m-3 1h1m-6 2h2m-2 1h3m-3 1h3m-6 1h1m2 0h3m-3 1h3m-4 1h4m-4 1h5m-5 1h5m-4 1h4m-4 1h3m3 0h2m-7 1h1m-2 1h1"/><path stroke="#000" d="M23 7h1m4 0h1m-5 1h1m4 0h1m-5 1h1m3 0h1m-1 1h1m-1 1h1m-2 1h1m-15 1h1m13 0h1M8 14h1m5 0h1m12 0h2M9 15h1m4 0h1m12 0h2m-15 1h1m11 0h1m1 0h1m-15 1h1m10 0h1m2 0h1m-17 1h1m1 0h1m9 0h1m3 0h1m-18 1h1m1 0h2m8 0h1m4 0h1m-19 1h1m3 0h1m9 0h1m3 0h1M9 21h1m8 0h8m1 0h1M8 22h1m18 0h1M7 23h1m18 0h1M6 24h1m16 0h1m2 0h1M5 25h1m1 0h1m17 0h1M5 26h1m2 0h1m15 0h1M5 27h1m3 0h2m11 0h2M6 28h3m2 0h2m7 0h2m-9 1h7"/><path stroke="#ff0" d="M24 7h3m-2 1h2m1 0h1m-1 2h1m-2 1h1m-2 1h1m-2 1h1m1 0h1m-18 1h1m1 0h2m10 0h1m1 0h1m-16 1h3m9 0h1m1 0h2m-17 1h1m1 0h2m8 0h1m1 0h2M9 17h1m1 0h3m5 0h1m1 0h1m1 0h2M8 18h1m1 0h2m1 0h1m6 0h4M7 19h1m1 0h2m8 0h4M6 20h1m1 0h2m9 0h5M5 21h1m1 0h2m-3 1h2m-3 1h2m-3 1h1m-1 2h1m1 0h2m-1 1h2"/><path stroke="navy" d="M14 8h1m9 1h1m0 1h1m-11 1h1m2 0h1m1 0h1m3 0h1m-5 1h1m6 4h1m-1 1h1m-2 1h2m-2 1h2m-3 1h3m-2 1h1m-4 1h1m1 0h2m-5 1h1m1 0h2m-7 1h1m4 0h2M9 25h1m10 0h1m2 0h2m-15 1h1m1 0h1m1 0h1m3 0h2m1 0h3m-13 1h1m1 0h1m2 0h6m-9 1h7"/></svg>