<svg xmlns="http://www.w3.org/2000/svg" viewBox="0 -0.5 16 16" shape-rendering="crispEdges">
<path stroke="#808080" d="M0 0h1M6 2h4M4 3h2M10 3h1M3 4h1M6 4h1" />
<path stroke="#808000" d="M0 0h1M12 2h2M13 4h1M0 5h6M9 5h1M13 5h1M9 6h2M12 6h1M9 7h1M11 7h1M1 8h1M9 8h1M0 9h1M9 9h1M0 10h1M9 10h1M0 11h1M0 12h1" />
<path stroke="#c0c0c0" d="M0 0h1M6 3h1M4 4h2" />
<path stroke="#0000ff" d="M0 0h1M7 3h2M9 4h1M11 4h1M8 5h1M10 5h1M7 6h2M11 6h1M7 7h1M4 10h1M4 11h2M4 12h3M8 12h3" />
<path stroke="#008080" d="M0 0h1M9 3h1M7 4h2M7 5h1" />
<path stroke="#000000" d="M0 0h1M11 3h1M14 3h1M12 4h1M15 4h1M6 5h1M12 5h1M15 5h1M1 6h1M6 6h1M15 6h1M2 7h1M6 7h1M15 7h1M6 8h1M14 8h1M4 9h1M6 9h1M13 9h1M3 10h1M5 10h2M14 10h1M2 11h2M6 11h1M9 11h7M2 12h2M12 12h1M1 13h1M4 13h2M10 13h2M2 14h2M6 14h4" />
<path stroke="#ffff00" d="M0 0h1M12 3h2M14 4h1M3 6h1M5 6h1M14 6h1M4 7h2M13 7h2M3 8h3M10 8h1M12 8h2M2 9h2M5 9h1M11 9h2M1 10h2M10 10h4M1 12h1M2 13h2" />
<path stroke="#008000" d="M0 0h1M10 4h1M11 5h1M8 7h1M7 8h2M7 9h2M7 10h2M7 11h2M7 12h1" />
<path stroke="#ffffff" d="M0 0h1M14 5h1M2 6h1M4 6h1M13 6h1M3 7h1M10 7h1M12 7h1M2 8h1M11 8h1M1 9h1M10 9h1M1 11h1" />
<path stroke="#000080" d="M0 0h1M11 12h1M6 13h4" />
</svg>