<svg xmlns="http://www.w3.org/2000/svg" viewBox="0 -0.5 32 32" shape-rendering="crispEdges">
<path stroke="#808000" d="M0 0h1M13 0h3M12 1h1M11 2h1M11 3h1M10 4h1M10 5h1M9 6h1M9 7h1M8 8h1M8 9h1M7 10h1M7 11h1M6 12h1M6 13h1M5 14h1M5 15h1M12 15h1M16 15h1M4 16h1M4 17h1M3 18h1M13 18h1M15 18h1M3 19h1M2 20h1M2 21h1M1 22h1M1 23h1M0 24h1M0 25h1M0 26h1M0 27h1M1 28h1M2 29h1" />
<path stroke="#ffff00" d="M0 0h1M13 1h2M12 2h4M12 3h5M11 4h6M11 5h7M10 6h8M10 7h9M9 8h10M9 9h3M17 9h3M8 10h4M17 10h3M8 11h4M17 11h4M7 12h5M17 12h4M7 13h5M17 13h5M6 14h6M17 14h5M6 15h6M17 15h6M5 16h7M17 16h6M5 17h8M16 17h8M4 18h9M16 18h8M4 19h9M16 19h9M3 20h11M15 20h10M3 21h23M2 22h11M17 22h9M2 23h11M17 23h10M1 24h12M17 24h10M1 25h12M17 25h11M1 26h27M1 27h26M2 28h24" />
<path stroke="#c0c0c0" d="M0 0h1M15 1h1M16 2h1M17 4h1M18 6h1M19 8h1M12 9h1M16 9h1M20 10h1M21 12h1M22 14h1M12 16h1M16 16h1M23 16h1M24 18h1M13 19h1M15 19h1M25 20h1M13 22h1M16 22h1M26 22h1M27 24h1M13 25h1M16 25h1M27 27h1M26 28h1" />
<path stroke="#000000" d="M0 0h1M16 1h1M17 2h1M17 3h1M18 4h1M18 5h1M19 6h1M19 7h1M20 8h1M13 9h3M20 9h1M12 10h5M21 10h1M12 11h5M21 11h1M12 12h5M22 12h1M12 13h5M22 13h1M12 14h5M23 14h1M13 15h3M23 15h1M13 16h3M24 16h1M13 17h3M24 17h1M14 18h1M25 18h1M14 19h1M25 19h1M14 20h1M26 20h1M26 21h1M14 22h2M27 22h1M13 23h4M27 23h1M13 24h4M28 24h1M14 25h2M28 25h1M28 26h1M28 27h1M27 28h1M3 29h24" />
<path stroke="#808080" d="M0 0h1M18 2h1M18 3h2M19 4h2M19 5h2M20 6h2M20 7h2M21 8h2M21 9h2M22 10h2M22 11h2M23 12h2M23 13h2M24 14h2M24 15h2M25 16h2M25 17h2M26 18h2M26 19h2M27 20h2M27 21h2M28 22h2M28 23h2M29 24h2M29 25h2M29 26h3M29 27h3M28 28h4M27 29h5M4 30h27M5 31h25" />
</svg>