<svg xmlns="http://www.w3.org/2000/svg" viewBox="0 -0.5 16 16" shape-rendering="crispEdges">
<path stroke="#ffff00" d="M0 0h1M5 2h4M4 3h2M8 3h2M3 4h3M8 4h3M2 5h4M8 5h4M2 6h4M8 6h4M2 7h4M8 7h4M2 8h10M3 9h3M8 9h3M4 10h2M8 10h2M5 11h4" />
<path stroke="#000000" d="M0 0h1M3 3h1M6 3h2M10 3h4M6 4h2M13 4h1M6 5h2M13 5h1M6 6h2M13 6h1M6 7h2M13 7h1M13 8h1M6 9h2M13 9h1M3 10h1M6 10h2M13 10h1M3 11h1M13 11h1M3 12h1M13 12h1M3 13h11" />
<path stroke="#ffffff" d="M0 0h1M11 4h2M12 5h1M12 6h1M12 7h1M12 8h1M11 9h2M10 10h3M4 11h1M9 11h4M4 12h9" />
</svg>