<svg xmlns="http://www.w3.org/2000/svg" viewBox="0 -0.5 16 16" shape-rendering="crispEdges">
<path stroke="#000080" d="M0 0h1M0 4h2M0 5h2M0 6h2M0 7h2" />
<path stroke="#808080" d="M0 0h1M2 4h4M5 6h2M13 9h1" />
<path stroke="#808000" d="M0 0h1M6 4h4M10 5h2M12 6h2M6 7h1M10 7h1M14 7h1M5 8h1M15 8h1M4 9h1M7 9h1M14 9h1M3 10h1M6 10h1M8 10h1M12 10h1M3 11h1M7 11h1M11 11h4M9 12h4M9 13h2" />
<path stroke="#ffffff" d="M0 0h1M2 5h4M8 5h1M2 6h2M7 6h1M9 6h1M11 6h1M4 7h1M8 7h1M13 7h1M14 8h1M9 9h1M11 9h1M10 10h1M5 11h1M9 11h1M7 12h2" />
<path stroke="#000000" d="M0 0h1M6 5h2M4 6h1M8 6h1M2 7h1M5 7h1M7 7h1M9 7h1M11 7h1M3 8h2M8 8h1M10 8h1M12 8h1M12 9h1M15 9h1M13 10h3M15 11h1M3 12h2M13 12h2M5 13h2M11 13h2M7 14h4" />
<path stroke="#ffff00" d="M0 0h1M9 5h1M10 6h1M12 7h1M7 8h1M9 8h1M11 8h1M13 8h1M6 9h1M10 9h1M5 10h1M4 11h1M5 12h2M7 13h2" />
<path stroke="#c0c0c0" d="M0 0h1M3 7h1M6 8h1M5 9h1M8 9h1M4 10h1M7 10h1M9 10h1M11 10h1M6 11h1M8 11h1M10 11h1" />
</svg>