<svg xmlns="http://www.w3.org/2000/svg" width="16" height="16" shape-rendering="crispEdges" viewBox="0 -0.5 16 16"><path stroke="green" d="M6 2h4M5 3h1"/><path stroke="#0f0" d="M6 3h4"/><path stroke="#000" d="M10 3h1M1 4h1m12 0h1M1 5h1m11 0h2M1 6h1m11 0h2M0 7h1m2 0h2m5 0h3m2 0h1M3 8h1m6 0h1m1 0h1M1 9h1m1 0h1m6 0h1m1 0h1m1 0h1M1 10h1m1 0h1m2 0h4m2 0h1m1 0h1M0 11h1m1 0h2m6 0h1m1 0h2m1 0h1M3 12h1m3 0h2m3 0h1m-7 1h1m2 0h1"/><path stroke="purple" d="M0 4h1M0 5h1M0 6h1m0 2h2"/><path stroke="gray" d="M3 4h10M2 5h1M2 6h1M0 8h1m14 0h1"/><path stroke="navy" d="M15 4h1m-1 1h1m-1 1h1m-3 2h2"/><path stroke="olive" d="M3 5h1m1 0h1m1 0h1m1 0h1m1 0h1M4 6h1m5 0h1m1 0h1"/><path stroke="silver" d="M4 5h1m1 0h1m1 0h1m1 0h1m1 0h1M3 6h1m1 0h1m5 0h1"/><path stroke="teal" d="M6 6h4M5 7h1M5 8h1m1 0h3M5 9h1m1 0h3m-5 2h5"/><path stroke="#0ff" d="M6 7h4M6 8h1M6 9h1"/></svg>