<svg xmlns="http://www.w3.org/2000/svg" width="32" height="32" shape-rendering="crispEdges" viewBox="0 -0.5 32 32"><path stroke="red" d="M13 0h5M9 1h13M8 2h5m5 0h5M6 3h4m12 0h3M5 4h3m15 0h3M4 5h3m16 0h4M3 6h3m16 0h3m1 0h2M3 7h2m16 0h4m1 0h2M2 8h2m16 0h4m3 0h2M1 9h3m15 0h4m5 0h2M1 10h2m15 0h4m6 0h2M1 11h2m14 0h4m7 0h2M1 12h2m13 0h4m8 0h2M0 13h2m13 0h4m10 0h2M0 14h2m12 0h4m11 0h2M0 15h2m12 0h3m12 0h2M0 16h2m11 0h3m13 0h2M0 17h2m10 0h4m13 0h2M1 18h2m8 0h4m13 0h2M1 19h2m7 0h4m14 0h2M1 20h2m6 0h4m15 0h2M1 21h3m4 0h4m16 0h2M2 22h2m3 0h4m16 0h2M3 23h2m1 0h4m16 0h2M3 24h6m17 0h2M4 25h4m16 0h3M5 26h3m15 0h3M6 27h4m11 0h4M8 28h5m5 0h5M9 29h13m-9 1h5"/><path stroke="gray" d="M27 1h1M17 2h1m7 0h2m-9 1h1m-1 1h1m2 0h2M13 5h2m4 0h1m-1 1h1m-1 1h1m10 0h1M19 8h1m9 0h1M13 9h1m10 0h3m-14 1h1m9 0h1m-11 1h1m0 1h2m4 0h1m-8 1h1m6 0h1m-8 1h1m6 0h1m-8 1h1m6 0h1m2 0h6m2 0h1m-12 1h1m-1 1h1m-1 1h1m-7 1h2m4 0h1m-8 1h2m5 0h1m2 0h1m-11 1h1m6 0h1m3 0h3m-15 1h1m6 0h1m9 0h1m-11 1h1m10 0h1m-12 1h1m-7 1h2m4 0h1m-2 1h1m2 0h2m-5 1h1m-2 1h1m7 0h2m0 1h1"/><path stroke="olive" d="M13 2h1m-2 1h1m-2 1h1m-2 1h1M9 6h1M8 7h1M7 8h1M6 9h1m-4 1h3m-1 1h1m-6 1h1m3 0h1m-1 1h1m-1 1h1m-1 1h1m-1 1h1m-1 1h1m-5 1h1m3 0h1m-2 1h3m0 1h1m0 1h1m2 2h2m-2 1h3m-2 1h2m-1 1h2m-1 1h1m0 1h1"/><path stroke="silver" d="M14 2h1m1 0h1m-4 1h1m1 0h1m1 0h1m-6 1h2m-3 1h1m-2 1h1m3 0h1M9 7h1m2 0h1m1 0h1M8 8h1m3 0h1m1 0h1M7 9h1m6 0h1m-1 1h1M3 11h2m9 0h1M2 16h1m3 0h1m1 0h1m1 0h1m-8 1h1m1 0h1m1 0h1m1 0h1m1 0h1m-6 1h1m1 0h1m1 0h1m5 0h1M7 19h1m1 0h1m6 0h1m-9 1h1m6 0h1m-2 1h1m-1 1h1m-3 1h1m1 0h1m-1 1h1m0 3h1m1 0h1m-2 1h1"/><path stroke="#000" d="M15 2h1m-2 1h1m-1 1h1m-2 2h1m-1 1h1m-1 1h1m-2 1h1m-1 1h1m-1 1h1m-1 1h2m-2 1h1m-1 1h1m-1 1h1m-1 1h1m3 0h1m-1 1h1m-2 1h1M3 20h3m0 1h1m5 0h1m0 1h1m-1 1h1m-5 1h1m3 0h1m-4 1h1m0 1h1m2 0h1m-3 1h1m1 0h1m-2 1h1m1 0h1"/><path stroke="#fff" d="M16 3h1m-2 1h3m-3 1h4m-7 1h1m2 0h4m-8 1h1m3 0h4m-9 1h1m4 0h4M9 9h1m1 0h1m3 0h4M8 10h1m1 0h2m3 0h3M7 11h5m3 0h2M5 12h7M2 13h2m1 0h7m2 0h1m4 0h1M2 14h1m3 0h1m1 0h1m1 0h1m7 0h2M3 15h1m1 0h1m1 0h1m1 0h1m1 0h1m5 0h3m-3 1h3m-3 1h3m-3 1h3m-3 1h3m-4 1h4m-5 1h5m-5 1h4m-4 1h4m-4 1h4m-4 1h4m-4 1h3m-2 1h1"/><path stroke="#ff0" d="M12 5h1m-2 1h1m-2 1h1M9 8h1m1 0h1M8 9h1m1 0h1m-5 1h2m1 0h1m-4 1h1m-4 1h1m-1 2h1m1 0h1m1 0h1m1 0h1m1 0h1M2 15h1m3 0h1m1 0h1m1 0h1m-8 1h1m1 0h1m1 0h1m1 0h1m1 0h1M2 17h1m3 0h1m1 0h1m1 0h1m-8 1h1m1 0h1m1 0h1m1 0h1m-4 1h1m1 0h1m-2 1h1m3 2h1"/></svg>