<svg xmlns="http://www.w3.org/2000/svg" width="32" height="32" shape-rendering="crispEdges" viewBox="0 -0.5 32 32"><path stroke="navy" d="M0 11h4m-4 1h4m-4 1h4m-4 1h4m-4 1h4m-4 1h4m-4 1h4m-4 1h4"/><path stroke="olive" d="M15 11h5m-6 1h1m5 0h3m0 1h2m-9 1h1m8 0h2m-9 1h1m1 0h1m6 0h2m-11 1h1m1 0h1m2 0h1m5 0h1m-11 1h1m3 0h1m1 0h1m4 0h1m-8 1h1m1 0h2m-7 1h1m5 0h1m3 0h1m-9 1h1m3 0h1m2 0h2m-21 1h1m3 0h1m5 0h1m8 0h1M9 22h1m6 0h1m10 0h1M8 23h1m3 0h1m5 0h1m1 0h1m3 0h1m4 0h1M8 24h1m5 0h1m8 0h3m3 0h1M8 25h1m7 0h1m1 0h1m3 0h5M8 26h1m12 0h8m-9 1h7m-8 1h6m-6 1h4m-4 1h2"/><path stroke="gray" d="M4 12h9m4 2h1m-2 1h1m5 0h1m-2 1h1m-6 4h1m1 1h1m-5 1h1m5 0h1m9 0h1m-15 1h1m13 0h1m-13 1h1"/><path stroke="#fff" d="M15 12h1m-2 1h1m1 0h4M4 14h9m2 0h1m4 0h3M4 15h8m1 0h2m2 0h1m6 0h1m1 0h1M4 16h6m1 0h2m1 0h2m6 0h1m2 0h1m1 0h1M4 17h7m1 0h2m1 0h2m9 0h1m1 0h1M5 18h4m1 0h2m1 0h1m2 0h2m2 0h1m6 0h1m1 0h1M8 19h2m1 0h1m2 0h1m2 0h2m4 0h1m4 0h1M9 20h1m3 0h1m1 0h1m4 0h2m2 0h1m2 0h1m-16 1h1m3 0h2m5 0h1m-13 1h1m1 0h1m4 0h2m2 0h1m3 0h1M9 23h2m3 0h2m5 0h1m4 0h1m-16 1h2m3 0h2m2 0h1m-8 1h2m4 0h1m-5 1h2m0 1h2"/><path stroke="#ff0" d="M16 12h4m-5 1h1m4 0h3m0 1h2m-4 1h1m3 0h1m-9 1h1m8 0h1m1 0h1m-11 1h1m3 0h1m4 0h1m1 0h1m-11 1h1m1 0h1m6 0h1m-14 1h1m5 0h2m1 0h1m2 0h1m-14 1h1m8 0h1m-11 1h1m5 0h1m2 0h1m1 0h1m2 0h1m-16 1h1m2 0h1m5 0h1m1 0h1m-13 1h1m5 0h1m4 0h1m4 0h1M9 24h1m3 0h1m5 0h1m1 0h1m5 0h1m-18 1h1m1 0h1m2 0h1m4 0h1M9 26h1m1 0h1m1 0h1m3 0h3m-8 1h1m1 0h1m1 0h1m-4 1h1m1 0h1m1 0h1m-2 1h1m1 0h1m-2 1h1"/><path stroke="silver" d="M4 13h9m0 1h1m5 0h1m2 4h1m7 0h1m-2 1h1m-18 1h1m15 0h1m-18 1h1m16 0h1m-19 1h1m13 0h1m-2 1h1m4 0h1m-19 1h1m11 0h1m5 0h1M9 25h1m1 0h1m9 0h1m-12 1h1m1 0h1m1 0h1m5 0h1m-10 1h1m1 0h1m1 0h1m3 0h1m-6 1h1m1 0h1m1 0h1m-4 1h1m1 0h1m0 1h1"/><path stroke="#000" d="M13 13h1m0 1h1m3 0h1m-7 1h1m2 0h1m3 0h1m3 0h1m-14 1h1m2 0h1m2 0h1m2 0h1m4 0h1m-14 1h1m2 0h1m2 0h1m2 0h2m2 0h1M4 18h1m4 0h1m2 0h1m1 0h2m2 0h1m5 0h1m6 0h1M0 19h4m1 0h3m2 0h1m1 0h2m2 0h1m2 0h1m5 0h1m5 0h1M8 20h1m1 0h2m5 0h3m5 0h1m5 0h1M9 21h1m5 0h1m5 0h1m3 0h2m3 0h2m-15 1h1m7 0h1m2 0h2m1 0h1m-19 1h1m5 0h1m5 0h1m5 0h1m-17 1h1m10 0h1m3 0h1m-14 1h1m9 0h4m-2 1h2M9 27h2m16 0h2m-18 1h2m12 0h2m-14 1h2m8 0h2m-10 1h2m4 0h2m-6 1h4"/></svg>