<svg xmlns="http://www.w3.org/2000/svg" width="16" height="16" shape-rendering="crispEdges" viewBox="0 -0.5 16 16"><path stroke="#ff0" d="M5 2h4M4 3h2m2 0h2M3 4h3m2 0h3M2 5h4m2 0h4M2 6h4m2 0h4M2 7h4m2 0h4M2 8h10M3 9h3m2 0h3m-7 1h2m2 0h2m-5 1h4"/><path stroke="#000" d="M3 3h1m2 0h2m2 0h4M6 4h2m5 0h1M6 5h2m5 0h1M6 6h2m5 0h1M6 7h2m5 0h1m-1 1h1M6 9h2m5 0h1M3 10h1m2 0h2m5 0h1M3 11h1m9 0h1M3 12h1m9 0h1M3 13h11"/><path stroke="#fff" d="M11 4h2m-1 1h1m-1 1h1m-1 1h1m-1 1h1m-2 1h2m-3 1h3m-9 1h1m4 0h4m-9 1h9"/></svg>