<svg xmlns="http://www.w3.org/2000/svg" width="16" height="16" shape-rendering="crispEdges" viewBox="0 -0.5 16 16"><path stroke="gray" d="M6 2h4M4 3h2m4 0h1M3 4h1m2 0h1"/><path stroke="olive" d="M12 2h2m-1 2h1M0 5h6m3 0h1m3 0h1M9 6h2m1 0h1M9 7h1m1 0h1M1 8h1m7 0h1M0 9h1m8 0h1M0 10h1m8 0h1M0 11h1m-1 1h1"/><path stroke="silver" d="M6 3h1M4 4h2"/><path stroke="#00f" d="M7 3h2m0 1h1m1 0h1M8 5h1m1 0h1M7 6h2m2 0h1M7 7h1m-4 3h1m-1 1h2m-2 1h3m1 0h3"/><path stroke="teal" d="M9 3h1M7 4h2M7 5h1"/><path stroke="#000" d="M11 3h1m2 0h1m-3 1h1m2 0h1M6 5h1m5 0h1m2 0h1M1 6h1m4 0h1m8 0h1M2 7h1m3 0h1m8 0h1M6 8h1m7 0h1M4 9h1m1 0h1m6 0h1M3 10h1m1 0h2m7 0h1M2 11h2m2 0h1m2 0h7M2 12h2m8 0h1M1 13h1m2 0h2m4 0h2M2 14h2m2 0h4"/><path stroke="#ff0" d="M12 3h2m0 1h1M3 6h1m1 0h1m8 0h1M4 7h2m7 0h2M3 8h3m4 0h1m1 0h2M2 9h2m1 0h1m5 0h2M1 10h2m7 0h4M1 12h1m0 1h2"/><path stroke="green" d="M10 4h1m0 1h1M8 7h1M7 8h2M7 9h2m-2 1h2m-2 1h2m-2 1h1"/><path stroke="#fff" d="M14 5h1M2 6h1m1 0h1m8 0h1M3 7h1m6 0h1m1 0h1M2 8h1m8 0h1M1 9h1m8 0h1M1 11h1"/><path stroke="navy" d="M11 12h1m-6 1h4"/></svg>