<svg xmlns="http://www.w3.org/2000/svg" width="32" height="32" shape-rendering="crispEdges" viewBox="0 -0.5 32 32"><path stroke="gray" d="M6 0h25M6 1h1m23 0h1M6 2h1m23 0h1M6 3h1m23 0h1M6 4h1m23 0h1M6 5h1m23 0h1M6 6h1m23 0h1M6 7h1m1 0h21m1 0h1M6 8h1m1 0h1m21 0h1M6 9h1m1 0h1m21 0h1M6 10h1m1 0h1m21 0h1M6 11h1m1 0h1m21 0h1M6 12h1m1 0h1m21 0h1M6 13h1m1 0h1m21 0h1M8 14h1m1 0h4m3 0h4m6 0h1m2 0h1M8 15h1m21 0h1M0 16h1m29 0h1M1 17h1m28 0h1M2 18h1m27 0h1M3 19h1m26 0h1M4 20h1m25 0h1M4 21h1m21 0h5M4 22h1m-1 1h1m-1 1h1m-1 1h1m-1 1h1m-1 1h1m-1 1h1m-1 1h1m-1 1h1"/><path stroke="#000" d="M31 0h1m-1 1h1m-1 1h1m-9 1h1m2 0h1m2 0h1m1 0h1m-9 1h1m2 0h1m2 0h1m1 0h1M21 5h9m1 0h1m-1 1h1m-1 1h1m-1 1h1m-1 1h1m-1 1h1m-1 1h1m-21 1h3m11 0h1m1 0h1m3 0h1m-6 1h1m4 0h1m-6 1h1m4 0h1m-7 1h1m5 0h1m-8 1h2m5 0h1m-9 1h1m1 0h1m5 0h1m-10 1h1m2 0h1m5 0h1m-11 1h1m3 0h1m5 0h1m-12 1h1m4 0h1m5 0h1m-7 1h1m5 0h1m-7 1h7m-7 1h1m-1 1h1m-1 1h1m-1 1h1m-2 1h1m-2 1h1m-2 1h1m-2 1h1M4 31h17"/><path stroke="silver" d="M7 1h23M7 2h1M7 3h1m13 0h2m1 0h2m1 0h2M7 4h1m13 0h2m1 0h2m1 0h2M7 5h1M7 6h23M7 7h1m21 0h1M7 8h1m21 0h1M7 9h1m21 0h1M7 10h1m21 0h1M7 11h1m21 0h1M7 12h1m21 0h1M7 13h1m21 0h1M4 14h1m2 0h1m21 0h1M3 15h1m1 0h1m23 0h1M2 16h1m1 0h1m1 0h1m22 0h1M3 17h1m1 0h1m23 0h1M4 18h1m24 0h1m-1 1h1m-4 1h4M6 21h1m1 0h1m1 0h1m1 0h1m1 0h1m1 0h1m1 0h1M7 22h1m1 0h1m1 0h1m1 0h1m1 0h1m1 0h1m1 0h1M6 23h1m1 0h1m1 0h1m1 0h1m1 0h1m1 0h1m1 0h1M7 24h1m1 0h1m1 0h1m1 0h1m1 0h1m1 0h1m1 0h1M6 25h1m1 0h1m1 0h1m1 0h1m1 0h1m1 0h1m1 0h1M7 26h1m1 0h1m1 0h1m1 0h1m1 0h1m1 0h1m1 0h1M6 27h1m1 0h1m1 0h1m1 0h1m1 0h1m1 0h1m1 0h1M7 28h1m1 0h1m1 0h1m1 0h1m1 0h1m1 0h1m1 0h1M6 29h1m1 0h1m1 0h1m1 0h1m1 0h1m1 0h1m1 0h1"/><path stroke="navy" d="M8 2h22M8 3h13M8 4h13M8 5h13m6 4h1m-1 1h1m-8 1h1m3 0h4m-10 1h3"/><path stroke="#fff" d="M9 8h20M9 9h2m3 0h4m3 0h4m3 0h1M9 10h2m3 0h4m3 0h4m3 0h1M9 11h1m4 0h3m4 0h3m4 0h1M9 12h2m3 0h4m3 0h4m3 0h1M4 13h1m4 0h16m2 0h2M3 14h1m1 0h1m3 0h1m4 0h3m4 0h3m4 0h1M2 15h1m1 0h1m1 0h1m2 0h14m3 0h3M3 16h1m1 0h1m1 0h1m18 0h3M4 17h1m1 0h1m2 0h12m5 0h3M5 18h1m3 0h12m5 0h3M9 19h11m6 0h3M5 21h1m-1 1h1m-1 1h1m-1 1h1m-1 1h1m-1 1h1m-1 1h1m-1 1h1m-1 1h1"/><path stroke="red" d="M11 9h2m-2 1h1"/><path stroke="maroon" d="M13 9h1m-1 1h1m-4 1h4"/><path stroke="teal" d="M18 9h3m-3 1h1m1 0h1m-4 1h3"/><path stroke="#00f" d="M25 9h2m-2 1h1"/><path stroke="#ff0" d="M12 10h1M7 21h1m1 0h1m1 0h1m1 0h1m1 0h1m1 0h1m1 0h1M6 22h1m1 0h1m1 0h1m1 0h1m1 0h1m1 0h1m1 0h1M7 23h1m1 0h1m1 0h1m1 0h1m1 0h1m1 0h1m1 0h1M6 24h1m1 0h1m1 0h1m1 0h1m1 0h1m1 0h1m1 0h1M7 25h1m1 0h1m1 0h1m1 0h1m1 0h1m1 0h1m1 0h1M6 26h1m1 0h1m1 0h1m1 0h1m1 0h1m1 0h1m1 0h1M7 27h1m1 0h1m1 0h1m1 0h1m1 0h1m1 0h1m1 0h1M6 28h1m1 0h1m1 0h1m1 0h1m1 0h1m1 0h1m1 0h1M7 29h1m1 0h1m1 0h1m1 0h1m1 0h1m1 0h1m1 0h1"/><path stroke="#0ff" d="M19 10h1m6 0h1"/><path stroke="olive" d="M4 12h1m21 0h1M3 13h1m1 0h1m19 0h1M2 14h1m3 0h1m17 0h2M1 15h1m5 0h1m15 0h2M1 16h1m6 0h16M2 17h1m4 0h2m12 0h2m1 0h1M3 18h1m2 0h3m12 0h1m1 0h2M4 19h5m11 0h1m1 0h3M5 20h15m1 0h4m-5 1h5m-5 1h5m-5 1h5m-5 1h5m-5 1h5m-5 1h5m-5 1h4m-4 1h3m-3 1h2M5 30h16"/></svg>