<svg xmlns="http://www.w3.org/2000/svg" width="16" height="16" shape-rendering="crispEdges" viewBox="0 -0.5 16 16"><path stroke="gray" d="M3 0h12M3 1h1m10 0h1M3 2h1m10 0h1M3 3h1m10 0h1M3 4h1m10 0h1M3 5h1m10 0h1m-1 1h1m-1 1h1M0 8h1m13 0h1M1 9h1m12 0h1M2 10h1m10 0h2M2 11h1m-1 1h1m-1 1h1m-1 1h1"/><path stroke="#000" d="M15 0h1m-5 1h1m1 0h1m1 0h1m-6 1h4m1 0h1m-1 1h1m-1 1h1m-1 1h1m-1 1h1m-1 1h1m-4 1h1m2 0h1m-5 1h2m2 0h1m-6 1h1m1 0h1m2 0h1m-4 1h4m-4 1h1m-1 1h1m-2 1h1M2 15h9"/><path stroke="navy" d="M4 1h6M4 2h6m2 2h1m-2 1h2"/><path stroke="silver" d="M10 1h1m1 0h1M5 6h2m1 0h2m1 0h1M2 7h1m0 1h1m0 3h1m1 0h1m1 0h1m-4 1h1m1 0h1m1 0h1m-6 1h1m1 0h1m1 0h1"/><path stroke="#fff" d="M4 3h10M4 4h1m2 0h1m2 0h1m2 0h1M4 5h1m2 0h1m2 0h1m2 0h1M4 6h1m2 0h1m2 0h1M3 7h1m1 0h6m2 0h1M2 8h1m10 0h1M5 9h5m3 0h1M3 11h1m-1 1h1m-1 1h1"/><path stroke="red" d="M5 4h1"/><path stroke="maroon" d="M6 4h1M5 5h2"/><path stroke="#0ff" d="M8 4h1"/><path stroke="teal" d="M9 4h1M8 5h2"/><path stroke="#00f" d="M11 4h1"/><path stroke="olive" d="M2 6h2m8 0h2M1 7h1m2 0h1m6 0h2M1 8h1m2 0h8M2 9h3m5 0h1m-8 1h7m1 0h1m-2 1h2m-2 1h2m-2 1h2m-9 1h8"/><path stroke="#ff0" d="M5 11h1m1 0h1m1 0h1m-6 1h1m1 0h1m1 0h1m-4 1h1m1 0h1m1 0h1"/></svg>