<svg xmlns="http://www.w3.org/2000/svg" width="32" height="32" shape-rendering="crispEdges" viewBox="0 -0.5 32 32"><path stroke="gray" d="M5 0h24M4 1h1m23 0h1M3 2h1m23 0h2M2 3h1m23 0h3M1 4h1m24 0h3M1 5h1m2 0h20m2 0h3M1 6h1m24 0h3M1 7h1m24 0h3M1 8h1m24 0h3M1 9h1m24 0h3M1 10h1m24 0h3M1 11h1m24 0h3M1 12h1m24 0h3M1 13h1m24 0h3M1 14h1m24 0h3M1 15h1m24 0h3M1 16h1m24 0h3M1 17h1m24 0h3M1 18h1m24 0h3M1 19h1m24 0h3M1 20h1m24 0h3M1 21h1m24 0h3M1 22h1m24 0h2M1 23h26m-17 2h1m6 0h1M7 26h4m7 0h4M5 27h2m14 0h2M4 28h1m17 0h2M4 29h1m17 0h2m-4 1h2"/><path stroke="silver" d="M5 1h22M4 2h22M3 4h23M3 5h1m21 0h1M3 6h1m21 0h1M3 7h1m21 0h1M3 8h1m21 0h1M3 9h1m21 0h1M3 10h1m21 0h1M3 11h1m21 0h1M3 12h1m21 0h1M3 13h1m21 0h1M3 14h1m21 0h1M3 15h1m21 0h1M3 16h1m21 0h1M3 17h1m21 0h1M3 18h1m21 0h1M3 19h1m21 0h1M3 20h1m21 0h1M3 21h1m21 0h1M3 22h23m-14 3h5m-5 1h6M7 27h3m1 0h10m-11 1h12M8 29h14M7 30h1m10 0h2"/><path stroke="#fff" d="M27 1h1m-2 1h1M3 3h23M2 4h1M2 5h1m21 0h1M2 6h1m21 0h1M2 7h1m21 0h1M2 8h1m21 0h1M2 9h1m21 0h1M2 10h1m21 0h1M2 11h1m21 0h1M2 12h1m21 0h1M2 13h1m21 0h1M2 14h1m21 0h1M2 15h1m21 0h1M2 16h1m21 0h1M2 17h1m21 0h1M2 18h1m21 0h1M2 19h1m21 0h1M2 20h1m21 0h1M2 21h1m1 0h21M2 22h1m8 3h1m-1 1h1m-2 1h1m-6 1h5m-5 1h3m0 1h10"/><path stroke="#000" d="M29 1h1m-1 1h1m-1 1h1m-1 1h1m-1 1h1M4 6h20m5 0h1M4 7h20m5 0h1M4 8h8m2 0h10m5 0h1M4 9h7m5 0h8m5 0h1M4 10h6m2 0h4m5 0h3m5 0h1M4 11h3m2 0h2m1 0h8m2 0h2m5 0h1M4 12h2m2 0h1m1 0h1m1 0h1m1 0h7m1 0h2m5 0h1M4 13h3m1 0h2m6 0h4m1 0h3m5 0h1M4 14h4m2 0h1m1 0h1m2 0h1m4 0h4m5 0h1M4 15h4m1 0h1m1 0h3m2 0h2m1 0h1m1 0h3m5 0h1M4 16h4m1 0h7m2 0h3m1 0h2m5 0h1M4 17h4m2 0h3m4 0h1m3 0h3m5 0h1M4 18h5m4 0h11m5 0h1M4 19h20m5 0h1M4 20h20m5 0h1m-1 1h1m-2 1h1m-2 1h1M2 24h25m-9 1h1m4 2h1m0 1h1m-1 1h1M5 30h2m15 0h2M7 31h15"/><path stroke="green" d="M12 8h2m-3 1h1m1 0h3m-6 1h1m5 0h5M7 11h2m2 0h1m8 0h2M6 12h2m1 0h1m3 0h1m7 0h1M7 13h1m5 0h3m4 0h1M8 14h1m2 0h1m2 0h1m1 0h4M8 15h1m11 0h1M8 16h1m12 0h1M8 17h2m3 0h2m1 0h1m2 0h2M9 18h4"/><path stroke="#0f0" d="M12 9h1m-2 1h1m-1 2h1m-2 1h3m-4 1h1m3 0h1m-4 1h1m3 0h2m2 0h1m-3 1h2m-3 1h1m2 0h1"/></svg>