<svg xmlns="http://www.w3.org/2000/svg" viewBox="0 -0.5 16 16" shape-rendering="crispEdges">
<path stroke="#808080" d="M0 0h1M2 0h12M1 1h1M13 1h1M0 2h1M12 2h2M0 3h1M12 3h2M0 4h1M12 4h2M0 5h1M12 5h2M0 6h1M12 6h2M0 7h1M12 7h2M0 8h1M12 8h2M0 9h1M12 9h2M0 10h13M5 12h1M8 12h1M3 13h2M9 13h3M11 14h1" />
<path stroke="#c0c0c0" d="M0 0h1M2 1h10M1 2h1M11 3h1M11 4h1M11 5h1M11 6h1M11 7h1M11 8h1M11 9h1M7 12h1M6 13h3M3 14h8" />
<path stroke="#ffffff" d="M0 0h1M12 1h1M2 2h10M1 3h1M1 4h1M1 5h1M1 6h1M1 7h1M1 8h1M1 9h10M6 12h1M5 13h1" />
<path stroke="#000000" d="M0 0h1M14 1h1M14 2h1M2 3h9M14 3h1M2 4h3M6 4h5M14 4h1M2 5h2M5 5h1M9 5h2M14 5h1M2 6h3M6 6h1M8 6h1M10 6h1M14 6h1M2 7h2M5 7h2M9 7h2M14 7h1M2 8h3M7 8h4M14 8h1M14 9h1M13 10h1M1 11h12M9 12h1M2 14h1M12 14h1M3 15h9" />
<path stroke="#008000" d="M0 0h1M5 4h1M4 5h1M7 5h1M9 6h1M4 7h1M7 7h1M5 8h2" />
<path stroke="#00ff00" d="M0 0h1M6 5h1M8 5h1M5 6h1M7 6h1M8 7h1" />
</svg>