<svg xmlns="http://www.w3.org/2000/svg" width="32" height="32" shape-rendering="crispEdges" viewBox="0 -0.5 32 32"><path stroke="#000" d="M4 0h23M3 1h2m21 0h2M3 2h1m1 0h21m1 0h1M3 3h1m1 0h2m1 0h18m1 0h1M3 4h1m1 0h3m1 0h3m1 0h1m1 0h3m1 0h7m1 0h1M3 5h1m1 0h2m1 0h1m1 0h1m1 0h1m1 0h4m1 0h7m1 0h1M3 6h1m1 0h3m1 0h1m1 0h1m1 0h5m1 0h1m1 0h5m1 0h1M3 7h1m1 0h4m1 0h1m1 0h6m1 0h1m1 0h5m1 0h1M3 8h1m1 0h3m1 0h1m1 0h1m1 0h5m1 0h1m1 0h5m1 0h1M3 9h1m1 0h2m1 0h1m1 0h1m1 0h1m1 0h4m1 0h1m1 0h5m1 0h1M3 10h1m1 0h3m1 0h3m1 0h1m1 0h3m1 0h1m1 0h5m1 0h1M3 11h1m1 0h2m1 0h5m1 0h1m1 0h2m1 0h1m1 0h5m1 0h1M3 12h1m1 0h5m13 0h3m1 0h1M3 13h1m1 0h10m1 0h1m2 0h1m1 0h5m1 0h1M3 14h1m1 0h7m10 0h4m1 0h1M3 15h1m1 0h12m4 0h5m1 0h1M3 16h1m1 0h13m1 0h1m1 0h5m1 0h1M3 17h1m1 0h13m1 0h2m1 0h4m1 0h1M3 18h1m1 0h21m1 0h1M3 19h2m21 0h2M4 20h23M8 21h15M1 22h30M0 23h1m30 0h1M0 24h1m30 0h1M0 25h1m3 0h11m16 0h1M0 26h1m8 0h1m21 0h1M0 27h1m30 0h1M0 28h1m30 0h1M0 29h1m30 0h1M0 30h1m30 0h1M1 31h30"/><path stroke="#fff" d="M5 1h21M4 2h1M4 3h1M4 4h1M4 5h1M4 6h1M4 7h1M4 8h1M4 9h1m-1 1h1m-1 1h1m-1 1h1m-1 1h1m-1 1h1m-1 1h1m-1 1h1m-1 1h1m-1 1h1m-4 5h29M1 24h1m-1 1h1m-1 1h1m-1 1h1m-1 1h1m-1 1h1m-1 1h1"/><path stroke="gray" d="M26 2h1m-1 1h1m-1 1h1m-1 1h1m-1 1h1m-1 1h1m-1 1h1m-1 1h1m-1 1h1m-1 1h1m-1 1h1m-1 1h1m-1 1h1m-1 1h1m-1 1h1m-1 1h1m-1 1h1M5 19h21m4 4h1m-1 1h1m-1 1h1M4 26h5m1 0h5m15 0h1M9 27h1m20 0h1m-1 1h1m-1 1h1M2 30h29"/><path stroke="red" d="M7 3h1m0 1h1M7 5h1m1 0h1M8 6h1m0 1h1m2 1h1m-2 1h1m1 0h1m-2 1h1m1 0h1m-2 1h1m1 0h1m-2 1h1m0 1h1m1 0h1m-2 1h1m0 1h1m1 0h1m0 1h1m0 1h1"/><path stroke="#ff0" d="M12 4h1m1 0h1m-4 1h1m1 0h1m-4 1h1m1 0h1m-2 1h1M8 8h1m1 0h1M7 9h1m1 0h1m-2 1h1m-2 1h1"/><path stroke="#0f0" d="M18 4h1m-1 1h1m-1 1h1m1 0h1m-3 1h1m1 0h1m-3 1h1m1 0h1m-3 1h1m1 0h1m-3 1h1m1 0h1m-3 1h1m1 0h1m-3 2h1m1 0h1m-3 2h1m1 0h1m-3 1h1m-1 1h1"/><path stroke="#00f" d="M10 12h4m1 0h8m-11 2h4m1 0h5"/><path stroke="silver" d="M2 24h28M2 25h2m11 0h15M2 26h2m11 0h15M2 27h7m1 0h20M2 28h28M2 29h28"/></svg>