<svg xmlns="http://www.w3.org/2000/svg" width="32" height="32" shape-rendering="crispEdges" viewBox="0 -0.5 32 32"><path stroke="#000" d="M4 0h23M3 1h2m21 0h2M3 2h1m1 0h21m1 0h1M3 3h1m1 0h2m1 0h18m1 0h1M3 4h1m1 0h3m1 0h3m1 0h1m1 0h3m1 0h7m1 0h1M3 5h1m1 0h2m1 0h1m1 0h1m1 0h1m1 0h4m1 0h7m1 0h1M3 6h1m1 0h3m1 0h1m1 0h1m1 0h5m1 0h1m1 0h5m1 0h1M3 7h1m1 0h4m1 0h1m1 0h6m1 0h1m1 0h5m1 0h1M3 8h1m1 0h3m1 0h1m1 0h1m1 0h5m1 0h1m1 0h5m1 0h1M3 9h1m1 0h2m1 0h1m1 0h1m1 0h1m1 0h4m1 0h1m1 0h5m1 0h1M3 10h1m1 0h3m1 0h3m1 0h1m1 0h3m1 0h1m1 0h5m1 0h1M3 11h1m1 0h2m1 0h5m1 0h1m1 0h2m1 0h1m1 0h5m1 0h1M3 12h1m1 0h5m13 0h3m1 0h1M3 13h1m1 0h10m1 0h1m2 0h1m1 0h5m1 0h1M3 14h1m1 0h7m10 0h4m1 0h1M3 15h1m1 0h12m2 0h1m1 0h5m1 0h1M3 16h1m1 0h13m1 0h1m1 0h5m1 0h1M3 17h1m1 0h13m1 0h7m1 0h1M3 18h1m1 0h21m1 0h1M3 19h2m21 0h2M4 20h23M8 21h15M1 22h30M0 23h1m29 0h2M0 24h1m29 0h2M0 25h1m3 0h11m15 0h2M0 26h1m3 0h11m15 0h2M0 27h1m8 0h1m20 0h2M0 28h1m29 0h2M0 29h1m29 0h2M0 30h32M1 31h30"/><path stroke="#fff" d="M5 1h21M4 2h1m21 0h1M4 3h1m2 0h1m18 0h1M4 4h1m3 0h1m3 0h1m1 0h1m3 0h1m7 0h1M4 5h1m2 0h1m1 0h1m1 0h1m1 0h1m4 0h1m7 0h1M4 6h1m3 0h1m1 0h1m1 0h1m5 0h1m1 0h1m5 0h1M4 7h1m4 0h1m1 0h1m6 0h1m1 0h1m5 0h1M4 8h1m3 0h1m1 0h1m1 0h1m5 0h1m1 0h1m5 0h1M4 9h1m2 0h1m1 0h1m1 0h1m1 0h1m4 0h1m1 0h1m5 0h1M4 10h1m3 0h1m3 0h1m1 0h1m3 0h1m1 0h1m5 0h1M4 11h1m2 0h1m5 0h1m1 0h1m2 0h1m1 0h1m5 0h1M4 12h1m5 0h13m3 0h1M4 13h1m10 0h1m1 0h2m1 0h1m5 0h1M4 14h1m7 0h10m4 0h1M4 15h1m12 0h2m1 0h1m5 0h1M4 16h1m13 0h1m1 0h1m5 0h1M4 17h1m13 0h1m7 0h1M4 18h1m21 0h1M5 19h21M1 23h29M1 24h29M1 25h3m11 0h15M1 26h3m11 0h15M1 27h8m1 0h20M1 28h29M1 29h29"/></svg>