<svg xmlns="http://www.w3.org/2000/svg" viewBox="0 -0.5 32 32" shape-rendering="crispEdges">
<path stroke="#000000" d="M0 0h1M4 0h23M3 1h2M26 1h2M3 2h1M5 2h21M27 2h1M3 3h1M5 3h2M8 3h18M27 3h1M3 4h1M5 4h3M9 4h3M13 4h1M15 4h3M19 4h7M27 4h1M3 5h1M5 5h2M8 5h1M10 5h1M12 5h1M14 5h4M19 5h7M27 5h1M3 6h1M5 6h3M9 6h1M11 6h1M13 6h5M19 6h1M21 6h5M27 6h1M3 7h1M5 7h4M10 7h1M12 7h6M19 7h1M21 7h5M27 7h1M3 8h1M5 8h3M9 8h1M11 8h1M13 8h5M19 8h1M21 8h5M27 8h1M3 9h1M5 9h2M8 9h1M10 9h1M12 9h1M14 9h4M19 9h1M21 9h5M27 9h1M3 10h1M5 10h3M9 10h3M13 10h1M15 10h3M19 10h1M21 10h5M27 10h1M3 11h1M5 11h2M8 11h5M14 11h1M16 11h2M19 11h1M21 11h5M27 11h1M3 12h1M5 12h5M23 12h3M27 12h1M3 13h1M5 13h10M16 13h1M19 13h1M21 13h5M27 13h1M3 14h1M5 14h7M22 14h4M27 14h1M3 15h1M5 15h12M21 15h5M27 15h1M3 16h1M5 16h13M19 16h1M21 16h5M27 16h1M3 17h1M5 17h13M19 17h2M22 17h4M27 17h1M3 18h1M5 18h21M27 18h1M3 19h2M26 19h2M4 20h23M8 21h15M1 22h30M0 23h1M31 23h1M0 24h1M31 24h1M0 25h1M4 25h11M31 25h1M0 26h1M9 26h1M31 26h1M0 27h1M31 27h1M0 28h1M31 28h1M0 29h1M31 29h1M0 30h1M31 30h1M1 31h30" />
<path stroke="#ffffff" d="M0 0h1M5 1h21M4 2h1M4 3h1M4 4h1M4 5h1M4 6h1M4 7h1M4 8h1M4 9h1M4 10h1M4 11h1M4 12h1M4 13h1M4 14h1M4 15h1M4 16h1M4 17h1M4 18h1M1 23h29M1 24h1M1 25h1M1 26h1M1 27h1M1 28h1M1 29h1M1 30h1" />
<path stroke="#808080" d="M0 0h1M26 2h1M26 3h1M26 4h1M26 5h1M26 6h1M26 7h1M26 8h1M26 9h1M26 10h1M26 11h1M26 12h1M26 13h1M26 14h1M26 15h1M26 16h1M26 17h1M26 18h1M5 19h21M30 23h1M30 24h1M30 25h1M4 26h5M10 26h5M30 26h1M9 27h1M30 27h1M30 28h1M30 29h1M2 30h29" />
<path stroke="#ff0000" d="M0 0h1M7 3h1M8 4h1M7 5h1M9 5h1M8 6h1M9 7h1M12 8h1M11 9h1M13 9h1M12 10h1M14 10h1M13 11h1M15 11h1M14 12h1M15 13h1M17 13h1M16 14h1M17 15h1M19 15h1M20 16h1M21 17h1" />
<path stroke="#ffff00" d="M0 0h1M12 4h1M14 4h1M11 5h1M13 5h1M10 6h1M12 6h1M11 7h1M8 8h1M10 8h1M7 9h1M9 9h1M8 10h1M7 11h1" />
<path stroke="#00ff00" d="M0 0h1M18 4h1M18 5h1M18 6h1M20 6h1M18 7h1M20 7h1M18 8h1M20 8h1M18 9h1M20 9h1M18 10h1M20 10h1M18 11h1M20 11h1M18 13h1M20 13h1M18 15h1M20 15h1M18 16h1M18 17h1" />
<path stroke="#0000ff" d="M0 0h1M10 12h4M15 12h8M12 14h4M17 14h5" />
<path stroke="#c0c0c0" d="M0 0h1M2 24h28M2 25h2M15 25h15M2 26h2M15 26h15M2 27h7M10 27h20M2 28h28M2 29h28" />
</svg>