<svg xmlns="http://www.w3.org/2000/svg" width="16" height="16" shape-rendering="crispEdges" viewBox="0 -0.5 16 16"><path stroke="#000" d="M1 1h14M1 2h1m12 0h1M1 3h1m12 0h1M1 4h1m12 0h1M1 5h1m12 0h1M1 6h1m12 0h1M1 7h1m12 0h1M1 8h1m12 0h1M1 9h1m12 0h1M1 10h1m12 0h1M1 11h1m12 0h1M1 12h1m12 0h1M1 13h1m12 0h1"/><path stroke="#fff" d="M2 2h12M2 3h1m10 0h1M2 4h12M2 5h1m3 0h1m3 0h1m2 0h1M2 6h12M2 7h1m3 0h1m3 0h1m2 0h1M2 8h12M2 9h1m3 0h1m3 0h1m2 0h1M2 10h12M2 11h1m3 0h1m3 0h1m2 0h1M2 12h7m3 0h2M2 13h3m8 0h1"/><path stroke="olive" d="M3 3h10"/><path stroke="gray" d="M3 5h3m1 0h3m1 0h2M3 7h3m1 0h3m1 0h2M3 9h3m1 0h3m1 0h2M3 11h3m1 0h3m1 0h2"/></svg>