<svg xmlns="http://www.w3.org/2000/svg" viewBox="0 -0.5 16 16" shape-rendering="crispEdges">
<path stroke="#000000" d="M0 0h1M0 0h11M0 1h1M10 1h1M0 2h1M5 2h11M0 3h1M5 3h1M15 3h1M0 4h1M5 4h1M15 4h1M0 5h1M5 5h1M15 5h1M0 6h1M5 6h1M15 6h1M0 7h1M5 7h1M15 7h1M0 8h1M5 8h1M15 8h1M0 9h1M5 9h1M15 9h1M0 10h1M2 10h4M15 10h1M0 11h1M5 11h1M15 11h1M0 12h6M7 12h7M15 12h1M5 13h1M15 13h1M5 14h11" />
<path stroke="#000080" d="M0 0h1M1 1h9M1 2h4M6 3h9M6 4h9" />
<path stroke="#c0c0c0" d="M0 0h1M1 3h1M3 3h1M1 5h1M7 5h1M9 5h1M11 5h1M13 5h1M6 6h1M14 6h1M1 7h1M7 7h1M9 7h1M13 7h1M6 8h1M8 8h1M12 8h1M14 8h1M1 9h1M3 9h1M7 9h1M11 9h1M13 9h1M6 10h1M8 10h1M12 10h1M14 10h1M1 11h1M3 11h1M7 11h1M9 11h1M11 11h1M13 11h1M6 12h1M14 12h1M7 13h1M9 13h1M11 13h1M13 13h1" />
<path stroke="#ffffff" d="M0 0h1M2 3h1M4 3h1M1 4h1M4 5h1M6 5h1M8 5h1M10 5h1M12 5h1M14 5h1M1 6h1M7 6h1M13 6h1M4 7h1M6 7h1M8 7h1M10 7h1M14 7h1M1 8h1M7 8h1M9 8h1M13 8h1M2 9h1M4 9h1M6 9h1M8 9h1M12 9h1M14 9h1M1 10h1M7 10h1M11 10h1M13 10h1M2 11h1M4 11h1M6 11h1M8 11h1M10 11h1M12 11h1M14 11h1M6 13h1M8 13h1M10 13h1M12 13h1M14 13h1" />
<path stroke="#808080" d="M0 0h1M2 4h1M2 6h1M2 8h1" />
<path stroke="#800000" d="M0 0h1M3 4h2M2 5h2M3 6h2M8 6h5M2 7h2M11 7h2M3 8h2M10 8h2M9 9h2M9 10h2" />
</svg>