<svg xmlns="http://www.w3.org/2000/svg" viewBox="0 -0.5 16 16" shape-rendering="crispEdges">
<path stroke="#808080" d="M0 0h1M3 2h1M14 2h1M2 3h1M13 3h2M2 4h1M13 4h2M2 5h1M13 5h2M2 6h1M4 6h8M13 6h2M1 7h2M13 7h2M0 8h1M2 8h12M0 9h1M0 10h1M11 10h2M0 11h1M3 11h7M11 11h2M0 12h1M11 12h2M0 13h12" />
<path stroke="#c0c0c0" d="M0 0h1M4 2h10M3 4h7M12 4h1M3 5h10M3 6h1M12 6h1M3 7h1M12 7h1M1 9h2M1 10h10M1 11h2M10 11h1M1 12h1M10 12h1" />
<path stroke="#000000" d="M0 0h1M15 2h1M15 3h1M15 4h1M15 5h1M15 6h1M15 7h1M14 8h1M3 9h11M13 10h1M13 11h1M13 12h1M12 13h1M1 14h11" />
<path stroke="#ffffff" d="M0 0h1M3 3h10M4 7h8M1 8h1M2 12h8" />
<path stroke="#008000" d="M0 0h1M10 4h2" />
</svg>