<svg xmlns="http://www.w3.org/2000/svg" width="32" height="32" shape-rendering="crispEdges" viewBox="0 -0.5 32 32"><path stroke="gray" d="M7 6h23M6 7h1m22 0h1M5 8h1m22 0h2M4 9h1m22 0h3M4 10h1m22 0h3M4 11h1m22 0h3M4 12h1m22 0h3M4 13h1m2 0h18m2 0h3M3 14h2m22 0h3M2 15h1m1 0h1m2 0h18m2 0h3M1 16h1m2 0h1m22 0h3M1 17h1m2 0h1m22 0h2M1 18h1m2 0h24M1 19h1m-1 1h1m2 0h18m2 0h3M1 21h1m22 0h3M1 22h1m2 0h18m2 0h3M1 23h1m22 0h3M1 24h1m22 0h2M1 25h24"/><path stroke="silver" d="M7 7h22M6 8h22M6 10h16m3 0h2M6 11h16m3 0h2M6 12h21M6 13h1m18 0h2M6 14h1m18 0h2M3 15h1m2 0h1m18 0h2M6 16h1m18 0h2M3 17h1m2 0h21M3 18h1m-1 1h2m-2 1h1m18 0h2M3 21h1m18 0h2M3 22h1m18 0h2M3 23h1m18 0h2M3 24h21"/><path stroke="#000" d="M30 7h1m-1 1h1m-1 1h1m-1 1h1m-1 1h1m-1 1h1m-1 1h1m-1 1h1m-1 1h1m-1 1h1m-2 1h1m-2 1h1M5 19h23m-1 1h1m-1 1h1m-1 1h1m-1 1h1m-2 1h1m-2 1h1M2 26h23"/><path stroke="#fff" d="M5 9h22M5 10h1m-1 1h1m-1 1h1m-1 1h1m-1 1h1m1 0h18M5 15h1m-4 1h2m1 0h1m1 0h18M2 17h1m2 0h1m-4 1h1m-1 1h1m-1 1h1m-1 1h1m1 0h18M2 22h1m-1 1h1m1 0h18M2 24h1"/><path stroke="green" d="M22 10h3m-3 1h3"/></svg>