<svg xmlns="http://www.w3.org/2000/svg" width="32" height="32" shape-rendering="crispEdges" viewBox="0 -0.5 32 32"><path stroke="gray" d="M4 15h26M3 16h1m25 0h1M2 17h1m25 0h2M1 18h1m25 0h3M1 19h1m25 0h3M1 20h1m25 0h3M1 21h1m7 0h8m10 0h3M1 22h1m3 0h4m8 0h4m6 0h3M1 23h1m25 0h3M1 24h1m25 0h3M1 25h1m25 0h3M1 26h1m25 0h2M1 27h27"/><path stroke="silver" d="M4 16h25M3 17h25M3 19h24M3 20h19m2 0h3M3 21h6m8 0h5m2 0h3M3 22h2m16 0h6M3 23h2m16 0h6M3 24h6m8 0h10M3 25h24M3 26h24"/><path stroke="#000" d="M30 16h1m-1 1h1m-1 1h1m-1 1h1m-1 1h1m-1 1h1M9 22h8m13 0h1M9 23h8m13 0h1m-1 1h1m-1 1h1m-2 1h1m-2 1h1M2 28h26"/><path stroke="#fff" d="M2 18h25M2 19h1m-1 1h1m-1 1h1m-1 1h1m-1 1h1m2 0h4m8 0h4M2 24h1m6 0h8M2 25h1m-1 1h1"/><path stroke="red" d="M22 20h2m-2 1h2"/></svg>