<svg xmlns="http://www.w3.org/2000/svg" viewBox="0 -0.5 32 32" shape-rendering="crispEdges">
<path stroke="#808000" d="M0 0h1M5 0h3M4 1h1M4 2h3M4 3h1M7 3h2M4 4h1M9 4h1M15 4h1M6 5h1M8 6h1M10 7h1" />
<path stroke="#800000" d="M0 0h1M9 0h2M8 1h2M11 1h1M10 2h1M12 2h1M11 3h1M13 3h1M1 4h3M12 4h1M14 4h1M0 5h1M4 5h2M12 5h1M0 6h3M6 6h2M0 7h1M3 7h2M0 8h1M5 8h1M0 9h1M0 10h1M0 11h1M0 12h1M0 13h1M0 14h1M0 15h1M0 16h1M0 17h1M0 18h1M0 19h1M0 20h1M0 21h1M0 22h1M0 23h1M17 27h2M15 28h4M15 29h3M15 30h1" />
<path stroke="#008000" d="M0 0h1M18 0h2M17 1h2M20 1h1M19 2h1M21 2h1M20 3h1M22 3h1M21 4h1M23 4h1M22 5h1M24 5h1M22 6h1M7 7h3M6 8h1M10 8h1M6 9h3M6 10h1M9 10h2M6 11h1M6 12h1M6 13h1M6 14h1M6 15h1M6 16h1M7 17h1M9 18h1" />
<path stroke="#ffffff" d="M0 0h1M5 1h1M7 2h1" />
<path stroke="#ffff00" d="M0 0h1M6 1h2M5 3h2M5 4h4M7 5h4M14 5h1M9 6h3" />
<path stroke="#c0c0c0" d="M0 0h1M10 1h1M19 1h1M11 2h1M20 2h1M12 3h1M21 3h1M13 4h1M22 4h1M23 5h1" />
<path stroke="#000000" d="M0 0h1M8 2h1M17 2h1M9 3h1M18 3h1M10 4h1M19 4h1M11 5h1M13 5h1M20 5h1M12 6h1M21 6h1M23 6h1M22 7h1M22 8h1M22 9h1M22 10h1M22 11h1M22 12h1M22 13h1M22 14h1M22 15h1M22 16h1M22 17h1M22 18h1M22 19h1M22 20h1M22 21h1M22 22h1M22 23h1M0 24h2M22 24h1M2 25h2M22 25h1M4 26h2M22 26h1M6 27h2M22 27h1M8 28h2M20 28h2M10 29h2M18 29h2M12 30h2M16 30h2M14 31h2" />
<path stroke="#ff0000" d="M0 0h1M9 2h1M10 3h1M11 4h1M2 5h2M4 6h2M1 7h2M6 7h1M1 8h4M1 9h5M1 10h5M1 11h5M1 12h5M1 13h5M1 14h5M1 15h5M1 16h5M1 17h5M1 18h5M1 19h5M1 20h5M1 21h5M1 22h5M1 23h5M2 24h6M4 25h6M6 26h6M8 27h6M10 28h5M12 29h3M14 30h1" />
<path stroke="#00ff00" d="M0 0h1M18 2h1M19 3h1M20 4h1M21 5h1M7 8h3M9 9h2M7 10h2M7 11h4M7 12h4M7 13h4M7 14h4M7 15h4M7 16h4M8 17h3M10 18h1" />
<path stroke="#ff00ff" d="M0 0h1M1 5h1M3 6h1M15 6h3M5 7h1M17 7h3M19 8h2" />
<path stroke="#800080" d="M0 0h1M15 5h3M14 6h1M18 6h2M16 7h1M20 7h2M18 8h1M21 8h1M19 9h3M19 10h3M19 11h3M19 12h3M19 13h3M19 14h3M19 15h3M19 16h3M19 17h3M19 18h3M19 19h3M19 20h3M19 21h3M19 22h3M19 23h3M19 24h3M19 25h3M18 26h4M16 27h1M19 27h3M19 28h1" />
<path stroke="#008080" d="M0 0h1M13 6h1M11 7h1M14 7h2M11 8h2M16 8h2M11 9h1M13 9h2M18 9h1M11 10h1M15 10h4M11 11h1M16 11h3M11 12h1M16 12h3M11 13h1M16 13h3M11 14h1M16 14h3M11 15h1M16 15h3M11 16h1M16 16h3M11 17h1M16 17h3M11 18h1M16 18h3M11 19h1M16 19h3M11 20h1M16 20h3M11 21h1M16 21h3M11 22h1M16 22h3M11 23h1M16 23h3M11 24h1M16 24h3M11 25h1M16 25h3M12 26h1M16 26h2M14 27h2" />
<path stroke="#00ffff" d="M0 0h1M12 7h2M13 8h3M12 9h1M15 9h3M12 10h3M12 11h4M12 12h4M12 13h4M12 14h4M12 15h4M12 16h4M12 17h4M12 18h4M12 19h4M12 20h4M12 21h4M12 22h4M12 23h4M12 24h4M12 25h4M13 26h3" />
<path stroke="#000080" d="M0 0h1M6 17h1M6 18h1M6 19h1M6 20h1M6 21h1M6 22h1M6 23h2M8 24h2M10 25h1" />
<path stroke="#0000ff" d="M0 0h1M7 18h2M7 19h4M7 20h4M7 21h4M7 22h4M8 23h3M10 24h1" />
</svg>