<svg xmlns="http://www.w3.org/2000/svg" viewBox="0 -0.5 16 16" shape-rendering="crispEdges">
<path stroke="#808080" d="M0 0h1M2 5h13M1 6h1M14 6h1M0 7h1M13 7h2M0 8h1M5 8h4M13 8h2M0 9h1M2 9h3M9 9h3M13 9h2M0 10h1M13 10h2M0 11h1M13 11h2M0 12h14" />
<path stroke="#c0c0c0" d="M0 0h1M2 6h12M1 8h4M9 8h2M12 8h1M1 9h1M12 9h1M1 10h4M9 10h4M1 11h12" />
<path stroke="#000000" d="M0 0h1M15 6h1M15 7h1M15 8h1M5 9h4M15 9h1M15 10h1M15 11h1M14 12h1M1 13h13" />
<path stroke="#ffffff" d="M0 0h1M1 7h12M5 10h4" />
<path stroke="#ff0000" d="M0 0h1M11 8h1" />
</svg>