<svg xmlns="http://www.w3.org/2000/svg" width="16" height="16" shape-rendering="crispEdges" viewBox="0 -0.5 16 16"><path stroke="gray" d="M3 2h1m10 0h1M2 3h1m10 0h2M2 4h1m10 0h2M2 5h1m10 0h2M2 6h1m1 0h8m1 0h2M1 7h2m10 0h2M0 8h1m1 0h12M0 9h1m-1 1h1m10 0h2M0 11h1m2 0h7m1 0h2M0 12h1m10 0h2M0 13h12"/><path stroke="silver" d="M4 2h10M3 4h7m2 0h1M3 5h10M3 6h1m8 0h1M3 7h1m8 0h1M1 9h2m-2 1h10M1 11h2m7 0h1M1 12h1m8 0h1"/><path stroke="#000" d="M15 2h1m-1 1h1m-1 1h1m-1 1h1m-1 1h1m-1 1h1m-2 1h1M3 9h11m-1 1h1m-1 1h1m-1 1h1m-2 1h1M1 14h11"/><path stroke="#fff" d="M3 3h10M4 7h8M1 8h1m0 4h8"/><path stroke="green" d="M10 4h2"/></svg>