<svg xmlns="http://www.w3.org/2000/svg" viewBox="0 -0.5 16 16" shape-rendering="crispEdges">
<path stroke="#808080" d="M0 0h1M2 2h13M1 3h1M14 3h1M0 4h1M13 4h2M0 5h1M13 5h2M0 6h1M13 6h2M0 7h1M2 7h10M13 7h2M0 8h1M13 8h1" />
<path stroke="#c0c0c0" d="M0 0h1M2 3h12M1 5h10M12 5h1M1 6h12M1 7h1M12 7h1M1 8h1M12 8h1M7 11h1M0 12h6M10 12h6" />
<path stroke="#000000" d="M0 0h1M15 3h1M15 4h1M15 5h1M15 6h1M15 7h1M14 8h1M1 9h13M7 10h2M8 11h1M9 12h1M0 13h6M9 13h7M6 14h4" />
<path stroke="#ffffff" d="M0 0h1M1 4h12M2 8h10M7 13h1" />
<path stroke="#008000" d="M0 0h1M11 5h1" />
<path stroke="#808000" d="M0 0h1M6 12h3M8 13h1" />
<path stroke="#ffff00" d="M0 0h1M6 13h1" />
</svg>