<svg xmlns="http://www.w3.org/2000/svg" viewBox="0 -0.5 16 16" shape-rendering="crispEdges">
<path stroke="#808000" d="M0 0h1M3 0h2M3 1h1M5 1h2M4 2h2M7 2h2M6 3h2M7 4h1M7 5h1M7 6h1" />
<path stroke="#800080" d="M0 0h1M11 0h1M12 1h1M13 2h1M14 3h1M9 7h2M8 8h1M11 8h1M9 9h2M10 10h1M10 11h1M10 12h1M9 13h2" />
<path stroke="#800000" d="M0 0h1M0 1h2M0 2h1M2 2h2M0 3h3M4 3h1M0 4h1M3 4h1M0 5h1M0 6h1M0 7h1M0 8h1M0 9h1M0 10h1M0 11h1M8 13h1M7 14h2" />
<path stroke="#ffffff" d="M0 0h1M4 1h1M6 2h1M7 10h1" />
<path stroke="#c0c0c0" d="M0 0h1M10 1h1M11 2h1M12 3h1M13 4h1M10 5h1M11 6h1M12 7h1" />
<path stroke="#ff00ff" d="M0 0h1M11 1h1M1 2h1M12 2h1M3 3h1M13 3h1M8 7h1M9 8h2M9 10h1M9 11h1M9 12h1" />
<path stroke="#ffff00" d="M0 0h1M5 3h1M5 4h2M5 5h2" />
<path stroke="#000000" d="M0 0h1M8 3h1M4 4h1M8 4h1M8 5h1M8 6h1M7 7h1M7 8h1M11 9h1M11 10h1M11 11h1M0 12h2M11 12h1M2 13h2M11 13h1M4 14h2M9 14h2M6 15h3" />
<path stroke="#ff0000" d="M0 0h1M1 4h2M1 5h2M1 6h2M1 7h2M1 8h2M1 9h2M1 10h2M1 11h2M2 12h3M4 13h3M6 14h1" />
<path stroke="#00ff00" d="M0 0h1M10 4h1M11 5h1M4 6h1M12 6h1M3 7h1M6 7h1M3 8h3M4 9h2" />
<path stroke="#008000" d="M0 0h1M11 4h1M3 5h2M12 5h1M3 6h1M5 6h2M13 6h1M4 7h2M6 8h1M6 9h1" />
<path stroke="#808080" d="M0 0h1M14 4h1M13 7h1M15 10h1" />
<path stroke="#0000ff" d="M0 0h1M3 9h1M3 10h3M3 11h3M5 12h1" />
<path stroke="#008080" d="M0 0h1M7 9h2M15 9h1M6 10h1M8 10h1M12 10h3M7 11h2M7 12h2M7 13h1" />
<path stroke="#00ffff" d="M0 0h1M12 9h3M6 11h1M6 12h1" />
</svg>