<svg xmlns="http://www.w3.org/2000/svg" width="32" height="32" shape-rendering="crispEdges" viewBox="0 -0.5 32 32"><path stroke="olive" d="M5 0h3M4 1h1M4 2h3M4 3h1m2 0h2M4 4h1m4 0h1m5 0h1M4 5h1M4 6h1M4 7h1M4 8h1m10 0h1M4 9h1m9 0h2M4 10h1m9 0h2M6 11h1m7 0h2m-8 1h1m5 0h1m-5 4h1"/><path stroke="maroon" d="M9 0h2M8 1h2m1 0h1m-2 1h1m1 0h1m-2 1h1m1 0h1m-2 1h1m1 0h1m-2 1h1m1 0h1m-2 1h1m1 0h1m-3 1h1M1 10h3m-4 1h1m3 0h2m-6 1h3m3 0h2m-8 1h1m2 0h2m3 0h2M0 14h1m4 0h5M0 15h1m5 0h4M0 16h1m5 0h4M0 17h1m5 0h3m-9 1h1m5 0h1m-7 1h1m-1 1h1m-1 1h1m-1 1h1m-1 1h1m16 4h2m-4 1h4m-4 1h3m-3 1h1"/><path stroke="green" d="M21 0h1m-2 1h1m-2 1h1m1 0h2m-5 1h1m1 0h1m-4 1h1m1 0h1m-3 1h2m-1 1h1m-4 6h1m-2 1h1m-2 1h1m1 0h2m-5 1h1m1 0h1m-4 1h1m1 0h1m-3 1h2m-1 1h1"/><path stroke="#fff" d="M5 1h1m1 1h1"/><path stroke="#ff0" d="M6 1h2M5 3h2M5 4h4M5 5h6M5 6h7M5 7h8M5 8h9M5 9h9m-9 1h9m-7 1h7m-5 1h5m-4 1h4m-4 1h3m-3 1h2"/><path stroke="silver" d="M10 1h1m10 0h1M11 2h1m8 0h1m-9 1h1m6 0h1m-7 1h1m4 0h1m-5 1h1m0 1h1m6 3h1m0 1h1m0 1h1m0 1h1m-11 1h1m10 0h1m-13 1h1m-2 1h1m-2 1h1"/><path stroke="#000" d="M22 1h1M8 2h1m14 0h1M9 3h1m12 0h1M10 4h1m10 0h1M11 5h1m4 0h1m3 0h1m-9 1h1m6 0h1m-7 1h1m1 0h2m-3 1h1m1 0h1m-1 1h1m-1 1h1m3 0h1m-5 1h1m4 0h1m-6 1h1m5 0h1m-7 1h1m6 0h1m-7 1h1m6 0h1m1 0h1m-11 1h1m8 0h1m-11 1h1m6 0h1m-9 1h1m7 0h1m-10 1h1m8 0h1m-1 1h1m8 0h1m-10 1h1m8 0h1m-10 1h1m2 0h6m-9 1h1m-1 1h1M0 24h2m20 0h1M2 25h2m18 0h1M4 26h2m16 0h1M6 27h2m14 0h1M8 28h2m10 0h2m-12 1h2m6 0h2m-8 1h2m2 0h2m-4 1h2"/><path stroke="red" d="M9 2h1m0 1h1m0 1h1m0 1h1m0 1h1M2 11h2m0 1h2m-5 1h2m3 0h2m-7 1h4m-4 1h5m-5 1h5m-5 1h5m-5 1h5m-5 1h5m-5 1h5m-5 1h5m-5 1h5m-5 1h5m-4 1h6m-4 1h6m-4 1h6m-4 1h6m-4 1h5m-3 1h3m-1 1h1"/><path stroke="#0f0" d="M21 3h1m-2 1h1m-2 1h1m-5 10h1m-2 1h1m-2 1h1"/><path stroke="purple" d="M21 8h2m-3 1h2m1 0h1m-2 1h1m1 0h1m-2 1h1m1 0h1m-2 1h1m1 0h1m-2 1h1m1 0h1m-10 1h2m5 0h1m-6 1h2m-5 1h2m2 0h1m-3 1h3m-3 1h3m-3 1h3m-3 1h3m-3 1h3m-8 1h1m4 0h3m-6 1h1m2 0h3m-4 1h4m-3 1h3m-4 1h4m-6 1h1m2 0h3m-3 1h1"/><path stroke="#f0f" d="M21 10h1M1 11h1m20 0h1M3 12h1m19 0h1M5 13h1m18 0h1m-8 2h3m-4 1h1m2 0h2m-6 1h4m-5 1h5m-5 1h5m-5 1h5m-5 1h5m-4 1h4m-2 1h2"/><path stroke="navy" d="M9 17h2m-4 1h2m-3 1h1m6 0h1m-8 1h1m4 0h3m-8 1h1m4 0h3m-8 1h1m4 0h2m-7 1h2m0 1h2m0 1h1"/><path stroke="#00f" d="M9 18h3m-5 1h6m-6 1h4m-4 1h4m-4 1h4m2 0h1m-6 1h4m-2 1h1"/><path stroke="teal" d="M26 18h6m-7 1h6m-6 1h1m-11 3h1m-5 1h3m3 0h1m-7 1h1m2 0h5m-7 1h1m2 0h3m-4 1h2"/><path stroke="#0ff" d="M26 20h5m-19 3h3m-1 1h3m-5 1h2m-1 1h2"/></svg>