<svg xmlns="http://www.w3.org/2000/svg" width="32" height="32" shape-rendering="crispEdges" viewBox="0 -0.5 32 32"><path stroke="olive" d="M5 0h3M4 1h1M4 2h3M4 3h1m2 0h2M4 4h1m4 0h1m5 0h1M6 5h1m1 1h1m1 1h1"/><path stroke="maroon" d="M9 0h2M8 1h2m1 0h1m-2 1h1m1 0h1m-2 1h1m1 0h1M1 4h3m8 0h1m1 0h1M0 5h1m3 0h2m6 0h1M0 6h3m3 0h2M0 7h1m2 0h2M0 8h1m4 0h1M0 9h1m-1 1h1m-1 1h1m-1 1h1m-1 1h1m-1 1h1m-1 1h1m-1 1h1m-1 1h1m-1 1h1m-1 1h1m-1 1h1m-1 1h1m-1 1h1m-1 1h1m16 4h2m-4 1h4m-4 1h3m-3 1h1"/><path stroke="green" d="M18 0h2m-3 1h2m1 0h1m-2 1h1m1 0h1m-2 1h1m1 0h1m-2 1h1m1 0h1m-2 1h1m1 0h1m-3 1h1M7 7h3M6 8h1m3 0h1M6 9h3m-3 1h1m2 0h2m-5 1h1m-1 1h1m-1 1h1m-1 1h1m-1 1h1m-1 1h1m0 1h1m1 1h1"/><path stroke="#fff" d="M5 1h1m1 1h1"/><path stroke="#ff0" d="M6 1h2M5 3h2M5 4h4M7 5h4m3 0h1M9 6h3"/><path stroke="silver" d="M10 1h1m8 0h1m-9 1h1m8 0h1m-9 1h1m8 0h1m-9 1h1m8 0h1m0 1h1"/><path stroke="#000" d="M8 2h1m8 0h1M9 3h1m8 0h1m-9 1h1m8 0h1m-9 1h1m1 0h1m6 0h1m-9 1h1m8 0h1m1 0h1m-2 1h1m-1 1h1m-1 1h1m-1 1h1m-1 1h1m-1 1h1m-1 1h1m-1 1h1m-1 1h1m-1 1h1m-1 1h1m-1 1h1m-1 1h1m-1 1h1m-1 1h1m-1 1h1m-1 1h1M0 24h2m20 0h1M2 25h2m18 0h1M4 26h2m16 0h1M6 27h2m14 0h1M8 28h2m10 0h2m-12 1h2m6 0h2m-8 1h2m2 0h2m-4 1h2"/><path stroke="red" d="M9 2h1m0 1h1m0 1h1M2 5h2m0 1h2M1 7h2m3 0h1M1 8h4M1 9h5m-5 1h5m-5 1h5m-5 1h5m-5 1h5m-5 1h5m-5 1h5m-5 1h5m-5 1h5m-5 1h5m-5 1h5m-5 1h5m-5 1h5m-5 1h5m-5 1h5m-4 1h6m-4 1h6m-4 1h6m-4 1h6m-4 1h5m-3 1h3m-1 1h1"/><path stroke="#0f0" d="M18 2h1m0 1h1m0 1h1m0 1h1M7 8h3M9 9h2m-4 1h2m-2 1h4m-4 1h4m-4 1h4m-4 1h4m-4 1h4m-4 1h4m-3 1h3m-1 1h1"/><path stroke="#f0f" d="M1 5h1m1 1h1m11 0h3M5 7h1m11 0h3m-1 1h2"/><path stroke="purple" d="M15 5h3m-4 1h1m3 0h2m-4 1h1m3 0h2m-4 1h1m2 0h1m-3 1h3m-3 1h3m-3 1h3m-3 1h3m-3 1h3m-3 1h3m-3 1h3m-3 1h3m-3 1h3m-3 1h3m-3 1h3m-3 1h3m-3 1h3m-3 1h3m-3 1h3m-3 1h3m-3 1h3m-4 1h4m-6 1h1m2 0h3m-3 1h1"/><path stroke="teal" d="M13 6h1m-3 1h1m2 0h2m-5 1h2m3 0h2m-7 1h1m1 0h2m3 0h1m-8 1h1m3 0h4m-8 1h1m4 0h3m-8 1h1m4 0h3m-8 1h1m4 0h3m-8 1h1m4 0h3m-8 1h1m4 0h3m-8 1h1m4 0h3m-8 1h1m4 0h3m-8 1h1m4 0h3m-8 1h1m4 0h3m-8 1h1m4 0h3m-8 1h1m4 0h3m-8 1h1m4 0h3m-8 1h1m4 0h3m-8 1h1m4 0h3m-8 1h1m4 0h3m-7 1h1m3 0h2m-4 1h2"/><path stroke="#0ff" d="M12 7h2m-1 1h3m-4 1h1m2 0h3m-6 1h3m-3 1h4m-4 1h4m-4 1h4m-4 1h4m-4 1h4m-4 1h4m-4 1h4m-4 1h4m-4 1h4m-4 1h4m-4 1h4m-4 1h4m-4 1h4m-4 1h4m-4 1h4m-3 1h3"/><path stroke="navy" d="M6 17h1m-1 1h1m-1 1h1m-1 1h1m-1 1h1m-1 1h1m-1 1h2m0 1h2m0 1h1"/><path stroke="#00f" d="M7 18h2m-2 1h4m-4 1h4m-4 1h4m-4 1h4m-3 1h3m-1 1h1"/></svg>