<svg xmlns="http://www.w3.org/2000/svg" viewBox="0 -0.5 32 32" shape-rendering="crispEdges">
<path stroke="#808000" d="M0 0h1M5 0h3M4 1h1M4 2h3M4 3h1M7 3h2M4 4h1M9 4h1M15 4h1M4 5h1M4 6h1M4 7h1M4 8h1M15 8h1M4 9h1M14 9h2M4 10h1M14 10h2M6 11h1M14 11h2M8 12h1M14 12h1M10 16h1" />
<path stroke="#800000" d="M0 0h1M9 0h2M8 1h2M11 1h1M10 2h1M12 2h1M11 3h1M13 3h1M12 4h1M14 4h1M13 5h1M15 5h1M14 6h1M16 6h1M14 7h1M1 10h3M0 11h1M4 11h2M0 12h3M6 12h2M0 13h1M3 13h2M8 13h2M0 14h1M5 14h5M0 15h1M6 15h4M0 16h1M6 16h4M0 17h1M6 17h3M0 18h1M6 18h1M0 19h1M0 20h1M0 21h1M0 22h1M0 23h1M17 27h2M15 28h4M15 29h3M15 30h1" />
<path stroke="#008000" d="M0 0h1M21 0h1M20 1h1M19 2h1M21 2h2M18 3h1M20 3h1M17 4h1M19 4h1M17 5h2M18 6h1M15 12h1M14 13h1M13 14h1M15 14h2M12 15h1M14 15h1M11 16h1M13 16h1M11 17h2M12 18h1" />
<path stroke="#ffffff" d="M0 0h1M5 1h1M7 2h1" />
<path stroke="#ffff00" d="M0 0h1M6 1h2M5 3h2M5 4h4M5 5h6M5 6h7M5 7h8M5 8h9M5 9h9M5 10h9M7 11h7M9 12h5M10 13h4M10 14h3M10 15h2" />
<path stroke="#c0c0c0" d="M0 0h1M10 1h1M21 1h1M11 2h1M20 2h1M12 3h1M19 3h1M13 4h1M18 4h1M14 5h1M15 6h1M22 9h1M23 10h1M24 11h1M25 12h1M15 13h1M26 13h1M14 14h1M13 15h1M12 16h1" />
<path stroke="#000000" d="M0 0h1M22 1h1M8 2h1M23 2h1M9 3h1M22 3h1M10 4h1M21 4h1M11 5h1M16 5h1M20 5h1M12 6h1M19 6h1M13 7h1M15 7h2M14 8h1M16 8h1M16 9h1M16 10h1M20 10h1M16 11h1M21 11h1M16 12h1M22 12h1M16 13h1M23 13h1M17 14h1M24 14h1M26 14h1M16 15h1M25 15h1M15 16h1M22 16h1M14 17h1M22 17h1M13 18h1M22 18h1M22 19h1M31 19h1M22 20h1M31 20h1M22 21h1M25 21h6M22 22h1M22 23h1M0 24h2M22 24h1M2 25h2M22 25h1M4 26h2M22 26h1M6 27h2M22 27h1M8 28h2M20 28h2M10 29h2M18 29h2M12 30h2M16 30h2M14 31h2" />
<path stroke="#ff0000" d="M0 0h1M9 2h1M10 3h1M11 4h1M12 5h1M13 6h1M2 11h2M4 12h2M1 13h2M6 13h2M1 14h4M1 15h5M1 16h5M1 17h5M1 18h5M1 19h5M1 20h5M1 21h5M1 22h5M1 23h5M2 24h6M4 25h6M6 26h6M8 27h6M10 28h5M12 29h3M14 30h1" />
<path stroke="#00ff00" d="M0 0h1M21 3h1M20 4h1M19 5h1M15 15h1M14 16h1M13 17h1" />
<path stroke="#800080" d="M0 0h1M21 8h2M20 9h2M23 9h1M22 10h1M24 10h1M23 11h1M25 11h1M24 12h1M26 12h1M25 13h1M27 13h1M18 14h2M25 14h1M20 15h2M17 16h2M21 16h1M19 17h3M19 18h3M19 19h3M19 20h3M19 21h3M14 22h1M19 22h3M16 23h1M19 23h3M18 24h4M19 25h3M18 26h4M16 27h1M19 27h3M19 28h1" />
<path stroke="#ff00ff" d="M0 0h1M21 10h1M1 11h1M22 11h1M3 12h1M23 12h1M5 13h1M24 13h1M17 15h3M16 16h1M19 16h2M15 17h4M14 18h5M14 19h5M14 20h5M14 21h5M15 22h4M17 23h2" />
<path stroke="#000080" d="M0 0h1M9 17h2M7 18h2M6 19h1M13 19h1M6 20h1M11 20h3M6 21h1M11 21h3M6 22h1M11 22h2M6 23h2M8 24h2M10 25h1" />
<path stroke="#0000ff" d="M0 0h1M9 18h3M7 19h6M7 20h4M7 21h4M7 22h4M13 22h1M8 23h4M10 24h1" />
<path stroke="#008080" d="M0 0h1M26 18h6M25 19h6M25 20h1M15 23h1M11 24h3M17 24h1M11 25h1M14 25h5M12 26h1M15 26h3M14 27h2" />
<path stroke="#00ffff" d="M0 0h1M26 20h5M12 23h3M14 24h3M12 25h2M13 26h2" />
</svg>