<svg xmlns="http://www.w3.org/2000/svg" width="16" height="16" shape-rendering="crispEdges" viewBox="0 -0.5 16 16"><path stroke="teal" d="M7 0h1M7 1h2M7 2h2M6 3h1m1 0h2"/><path stroke="#000" d="M8 0h1m0 1h2M9 2h1m1 0h2m-3 1h1m2 0h2M5 4h7m3 0h1m-2 1h1m-1 1h1m-2 1h1m-1 1h1m1 0h1M7 9h1m7 0h1m-9 1h1m5 0h1m1 0h1M6 11h1m6 0h1m1 0h1M2 12h5m1 0h5m2 0h1m-2 1h1m-1 1h1M0 15h14"/><path stroke="#0ff" d="M7 3h1"/><path stroke="gray" d="M2 8h11m1 0h1M2 9h1m1 0h1m-4 1h1m1 0h1m-3 1h1m1 0h1m10 0h1M0 12h1m12 0h2M0 13h1m12 0h1M0 14h14"/><path stroke="silver" d="M3 9h1m4 0h1m2 0h4M2 10h1m5 0h1m5 0h1M2 11h1m4 0h1m-7 1h1m5 0h1"/><path stroke="#fff" d="M5 9h2m-3 1h3m-3 1h2m-5 2h12"/><path stroke="olive" d="M9 9h2m-2 1h1m1 0h2m-5 1h1"/><path stroke="#ff0" d="M10 10h1m-2 1h4"/></svg>