<svg xmlns="http://www.w3.org/2000/svg" width="32" height="32" shape-rendering="crispEdges" viewBox="0 -0.5 32 32"><path stroke="#000" d="M16 0h1m0 1h1m0 1h1m-1 1h1m2 0h2m-5 1h2m3 0h2m-7 1h1m6 0h2m-8 1h1m7 0h2m-9 1h1m8 0h2M21 8h1m8 0h1M19 9h3m8 0h1m-13 1h1m10 0h1m-14 1h2m11 0h1m-2 1h1m-1 1h1m-2 1h1m-1 1h1m0 1h1m-1 1h1m2 0h1m-7 1h4m2 0h1m-19 1h1m17 0h1m-19 1h1m12 0h1m4 0h1M9 21h1m2 0h1m13 0h1m4 0h1m-22 1h1m1 0h1m13 0h1m4 0h1m-21 1h1m13 0h1m5 0h1m-20 1h1m2 0h11m4 0h1M4 25h7m2 0h1m16 0h1m-17 1h1m14 0h1m-1 1h1m-2 1h1m-1 1h1m-2 1h1M0 31h28"/><path stroke="teal" d="M15 1h2m-3 1h1m2 0h1m-4 1h1m2 0h1m2 0h1m-7 1h1m2 0h1m2 0h1m-7 1h1m2 0h1m3 0h2M13 6h1m3 0h2m4 0h2M12 7h1m4 0h3m5 0h2M11 8h1m6 0h3m6 0h2M11 9h8m9 0h1m-2 1h1m-1 1h1m-2 1h1m-1 1h1m-2 1h1m-1 1h1m-2 1h4m-4 1h1m2 0h1m-4 1h1"/><path stroke="#fff" d="M15 2h1m-1 2h1m-1 2h1m-2 1h1m-2 1h1m1 0h1M5 19h1m-1 1h1m1 0h6m5 0h1M4 21h1m2 0h1m2 0h2m5 0h1m1 0h1m1 0h1m1 0h1m1 0h1M4 22h1m1 0h2m3 0h1m4 0h1m1 0h1m1 0h1m1 0h1m1 0h1M3 23h1m2 0h2m9 0h1m1 0h1m1 0h1m1 0h1M3 24h1m1 0h4m-7 1h1m-1 1h1m-2 1h1m-1 1h25"/><path stroke="#0ff" d="M16 2h1m-2 1h2m-1 1h1m4 0h2m-8 1h2m6 0h2M14 6h1m1 0h1m8 0h2M13 7h1m1 0h2m10 0h2M12 8h1m1 0h1m1 0h2m11 0h1m-1 1h1m-2 1h1m-1 1h1m-2 1h1m-1 1h1m-2 1h1m-1 1h1m-2 2h2"/><path stroke="olive" d="M14 10h1m0 1h1"/><path stroke="#ff0" d="M15 10h3m-1 10h1m1 0h1m-2 1h1m1 0h1m1 0h1m1 0h1M9 22h1m7 0h1m1 0h1m1 0h1m1 0h1m1 0h1m-16 1h1m5 0h1m1 0h1m1 0h1m1 0h1m1 0h1m-14 1h1m0 1h1"/><path stroke="gray" d="M5 17h19m5 0h2M5 18h1m23 0h2M4 19h1m2 0h6m4 0h3m5 0h5M4 20h1m1 0h1m9 0h1m3 0h6m4 0h1M3 21h1m2 0h1m1 0h1m4 0h1m2 0h1m10 0h1m2 0h1M3 22h1m1 0h1m2 0h1m4 0h1m1 0h1m11 0h1m1 0h2M2 23h1m2 0h1m3 0h1m2 0h1m2 0h1m10 0h1m2 0h2M2 24h1m1 0h1m5 0h1m15 0h1m1 0h2M1 25h1m9 0h1m4 0h10m2 0h2M1 26h1m3 0h8m14 0h2M0 27h1m26 0h2M0 28h1m25 0h2M0 29h1m25 0h2M0 30h27"/><path stroke="silver" d="M6 18h18M6 19h1m7 0h3m3 0h5m5 0h1m-17 1h2m11 0h3M5 21h1m8 0h2m12 0h2m-16 1h1m13 0h1M4 23h1m3 0h1m4 0h2m12 0h2M9 24h1m3 0h2m12 0h1M3 25h1m10 0h2m10 0h2M3 26h2m10 0h12M2 27h11m2 0h12M1 29h25"/><path stroke="red" d="M13 26h1"/><path stroke="maroon" d="M13 27h2"/></svg>