<svg xmlns="http://www.w3.org/2000/svg" width="32" height="32" shape-rendering="crispEdges" viewBox="0 -0.5 32 32"><path stroke="gray" d="M5 0h24M4 1h1m23 0h1M3 2h1m23 0h2M2 3h1m23 0h3M1 4h1m24 0h3M1 5h1m2 0h15m2 0h1m4 0h3M1 6h1m20 0h1m3 0h3M1 7h1m19 0h1m4 0h3M1 8h1m24 0h3M1 9h1m24 0h3M1 10h1m24 0h3M1 11h1m25 0h2M1 12h1m26 0h1M1 13h1m-1 1h1m26 0h1M1 15h1m25 0h2M1 16h1m24 0h3M1 17h1m24 0h3M1 18h1m24 0h3M1 19h1m24 0h3M1 20h1m24 0h3M1 21h1m24 0h3M1 22h1m24 0h2M1 23h11m12 0h3m-10 2h1M7 26h2m9 0h1M5 27h2m3 0h1m-7 1h1m6 0h1m-8 1h1m7 0h1m10 0h1m-4 1h2"/><path stroke="silver" d="M5 1h16m1 0h5M4 2h17m1 0h4M3 4h16m4 0h3M3 5h1m21 0h1M3 6h1m21 0h1M3 7h1m21 0h1M3 8h1m21 0h1M3 9h1m21 0h1M3 10h1m-1 1h1m16 0h1M3 12h1m-1 1h1m-1 1h1m-1 1h1m-1 1h1m-1 1h1m21 0h1M3 18h1m21 0h1M3 19h1m21 0h1M3 20h1m21 0h1M3 21h1m21 0h1M3 22h10m7 0h1m3 0h2m-6 1h1m-1 1h1m-1 1h1m-5 1h2m2 0h1M7 27h3m5 0h4m1 0h1m-11 1h1m3 0h5M8 29h4m1 0h7M7 30h1m10 0h2"/><path stroke="#0f0" d="M21 1h1m-1 1h1m-2 1h2m-3 1h2m-2 1h2m-2 1h1M6 8h1m0 1h1"/><path stroke="#fff" d="M27 1h1m-2 1h1M3 3h17m3 0h3M2 4h1M2 5h1m21 0h1M2 6h1m21 0h1M2 7h1m21 0h1M2 8h1m21 0h1M2 9h1m17 0h1m3 0h1M2 10h1m21 0h1M2 11h1m-1 1h1m17 0h1M2 13h1m17 0h1M2 14h1m17 0h1M2 15h1m-1 1h1m-1 1h1m-1 1h1m21 0h1M2 19h1m21 0h1M2 20h1m21 0h1M2 21h1m1 0h10m10 0h1M2 22h1m2 6h5m-5 1h3m0 1h10"/><path stroke="#000" d="M29 1h1m-1 1h1m-8 1h1m6 0h1m-8 1h1m6 0h1m-7 1h1m5 0h1M4 6h15m4 0h1m5 0h1M4 7h1m18 0h1m5 0h1M4 8h1m15 0h3m6 0h1M4 9h1m18 0h1m5 0h1M4 10h1m18 0h1m5 0h1M4 11h1m18 0h1m2 0h1m2 0h1M4 12h1m22 0h1m1 0h1M4 13h1m23 0h2M4 14h1m20 0h1m1 0h1m1 0h1M4 15h1m21 0h1m2 0h1M4 16h1m18 0h1m1 0h1m3 0h1M4 17h1m19 0h1m4 0h1M4 18h1m16 0h1m1 0h1m5 0h1M4 19h1m17 0h2m5 0h1m-11 1h1m1 0h1m1 0h1m5 0h1m-10 1h1m2 0h1m5 0h1m-13 1h1m1 0h1m3 0h1m4 0h1m-11 1h1m4 0h1m3 0h1M2 24h9m4 0h1m1 0h2m4 0h4m-11 1h1m1 0h1m4 0h1m-11 1h1m1 0h1m7 0h1m-10 1h1m8 0h1m-11 1h1m9 0h2m-5 1h3m1 0h1M5 30h2m15 0h2M7 31h15"/><path stroke="#ff0" d="M21 4h1m-2 2h1m4 5h1m-2 1h2m-3 1h1m1 0h2m-5 1h3m-4 1h4m-5 1h3m-4 1h1m1 0h2m-5 1h3m-4 1h4m-5 1h3m-4 1h1m1 0h2m-5 1h3m-4 1h4m-5 1h3m-4 1h1m1 0h2m-5 1h3m-2 1h2"/><path stroke="olive" d="M22 5h1m-2 1h1m-3 1h2m1 0h1m2 3h1m-2 1h1m-2 1h1m2 0h1m-5 1h1m1 0h1m2 0h1m-7 1h1m4 0h1m-7 1h1m4 0h1m-7 1h1m4 0h1m-7 1h1m1 0h1m2 0h1m-7 1h1m4 0h1m-7 1h1m4 0h1m-7 1h1m4 0h1m-7 1h1m1 0h1m2 0h1m-7 1h1m4 0h1m-7 1h1m4 0h1m-7 1h1m4 0h1m-7 1h1m1 0h1m2 0h1m-7 1h1m4 0h1m-2 1h1m-2 1h1"/><path stroke="#00f" d="M5 7h14M5 8h1m2 0h12M5 9h1m2 0h11M5 10h14M5 11h14M5 12h1m2 0h11M5 13h1m2 0h11M5 14h14M5 15h14M5 16h14M5 17h13M5 18h12M5 19h11"/><path stroke="#f0f" d="M7 8h1M6 9h1"/><path stroke="navy" d="M23 8h1M4 20h11"/><path stroke="maroon" d="M19 9h1m-1 1h4m-4 1h1m-1 1h1m-1 1h1m-1 1h1m-1 1h1m-1 8h1m-1 1h1m-1 1h1m-1 1h1m-1 1h1m-1 1h1"/><path stroke="purple" d="M21 9h2"/><path stroke="red" d="M21 11h2M7 12h1m13 0h2M6 13h1m14 0h1m0 7h1m-2 1h2m-2 1h2m-2 1h2m-2 1h2m-2 1h2m-2 1h2m-2 1h2m-3 1h3"/><path stroke="#0ff" d="M6 12h1m0 1h1"/></svg>