<svg xmlns="http://www.w3.org/2000/svg" viewBox="0 -0.5 16 16" shape-rendering="crispEdges">
<path stroke="#808080" d="M0 0h1M2 0h12M1 1h1M13 1h1M0 2h1M13 2h1M0 3h1M11 3h1M13 3h1M0 4h1M13 4h1M0 5h1M13 5h1M0 6h1M0 7h1M13 7h1M0 8h1M12 8h2M0 9h1M13 9h1M0 10h1M13 10h1M4 12h1M8 12h1M2 13h2M7 13h1M1 14h1M9 14h1M11 14h1" />
<path stroke="#c0c0c0" d="M0 0h1M2 1h8M11 1h1M12 2h1M12 3h1M12 4h1M10 6h1M12 9h1M1 10h6M10 10h1M12 10h1M10 11h1M10 12h1M5 13h1M8 13h1M4 14h5" />
<path stroke="#00ff00" d="M0 0h1M10 1h1M9 2h1" />
<path stroke="#ffffff" d="M0 0h1M12 1h1M1 2h8M11 2h1M1 3h1M1 4h1M1 5h1M1 6h1M1 7h1M1 8h1M1 9h1M4 13h1M2 14h2" />
<path stroke="#000000" d="M0 0h1M14 1h1M14 2h1M2 3h7M14 3h1M2 4h1M10 4h2M14 4h1M2 5h1M12 5h1M14 5h1M2 6h1M13 6h2M2 7h1M12 7h1M14 7h1M2 8h1M11 8h1M14 8h1M10 9h1M14 9h1M9 10h1M14 10h1M1 11h5M8 11h1M12 11h2M7 12h1M6 13h1M12 13h1M12 14h1M2 15h10" />
<path stroke="#ffff00" d="M0 0h1M10 2h1M10 3h1M12 6h1M11 7h1M10 8h1M9 9h1M8 10h1M7 11h1M6 12h1" />
<path stroke="#008000" d="M0 0h1M9 3h1" />
<path stroke="#0000ff" d="M0 0h1M3 4h7M3 5h1M5 5h4M3 6h6M3 7h6M3 8h6" />
<path stroke="#00ffff" d="M0 0h1M4 5h1" />
<path stroke="#ff0000" d="M0 0h1M9 5h2M9 6h1M9 7h1M9 11h1M9 12h1M9 13h2" />
<path stroke="#800000" d="M0 0h1M11 5h1M11 9h1M11 10h1M11 11h1M11 12h1M11 13h1M10 14h1" />
<path stroke="#808000" d="M0 0h1M11 6h1M10 7h1M9 8h1M8 9h1M7 10h1M6 11h1M5 12h1" />
<path stroke="#000080" d="M0 0h1M2 9h6" />
</svg>