<svg xmlns="http://www.w3.org/2000/svg" width="16" height="16" shape-rendering="crispEdges" viewBox="0 -0.5 16 16"><path stroke="gray" d="M2 0h12M1 1h1m11 0h1M0 2h1m12 0h1M0 3h1m10 0h1m1 0h1M0 4h1m12 0h1M0 5h1m12 0h1M0 6h1M0 7h1m12 0h1M0 8h1m11 0h2M0 9h1m12 0h1M0 10h1m12 0h1M4 12h1m3 0h1m-7 1h2m3 0h1m-7 1h1m7 0h1m1 0h1"/><path stroke="silver" d="M2 1h8m1 0h1m0 1h1m-1 1h1m-1 1h1m-3 2h1m1 3h1M1 10h6m3 0h1m1 0h1m-3 1h1m-1 1h1m-6 1h1m2 0h1m-5 1h5"/><path stroke="#0f0" d="M10 1h1M9 2h1"/><path stroke="#fff" d="M12 1h1M1 2h8m2 0h1M1 3h1M1 4h1M1 5h1M1 6h1M1 7h1M1 8h1M1 9h1m2 4h1m-3 1h2"/><path stroke="#000" d="M14 1h1m-1 1h1M2 3h7m5 0h1M2 4h1m7 0h2m2 0h1M2 5h1m9 0h1m1 0h1M2 6h1m10 0h2M2 7h1m9 0h1m1 0h1M2 8h1m8 0h1m2 0h1m-5 1h1m3 0h1m-6 1h1m4 0h1M1 11h5m2 0h1m3 0h2m-7 1h1m-2 1h1m5 0h1m-1 1h1M2 15h10"/><path stroke="#ff0" d="M10 2h1m-1 1h1m1 3h1m-2 1h1m-2 1h1M9 9h1m-2 1h1m-2 1h1m-2 1h1"/><path stroke="green" d="M9 3h1"/><path stroke="#00f" d="M3 4h7M3 5h1m1 0h4M3 6h6M3 7h6M3 8h6"/><path stroke="#0ff" d="M4 5h1"/><path stroke="red" d="M9 5h2M9 6h1M9 7h1m-1 4h1m-1 1h1m-1 1h2"/><path stroke="maroon" d="M11 5h1m-1 4h1m-1 1h1m-1 1h1m-1 1h1m-1 1h1m-2 1h1"/><path stroke="olive" d="M11 6h1m-2 1h1M9 8h1M8 9h1m-2 1h1m-2 1h1m-2 1h1"/><path stroke="navy" d="M2 9h6"/></svg>