<svg xmlns="http://www.w3.org/2000/svg" width="32" height="32" shape-rendering="crispEdges" viewBox="0 -0.5 32 32"><path stroke="olive" d="M7 0h6M6 1h1m6 0h3M5 2h1m10 0h3M4 3h1m3 0h2m9 0h2M3 4h1m3 0h2m12 0h1M3 5h2m1 0h3m3 0h1m9 0h2M3 6h1m1 0h3m4 0h1m1 0h1m4 0h1m4 0h1M3 7h1m2 0h1m5 0h1m1 0h2m4 0h1m4 0h1m-7 1h1m1 0h1m4 0h1m-8 1h1m1 0h1m5 0h1M4 10h1m3 0h1m-6 1h1m6 0h1m16 0h1M2 12h1m3 0h1m5 0h1m12 0h3M1 13h1m4 0h1m1 0h1m17 0h2M0 14h1m3 0h1m3 0h1m1 0h1M0 15h1m5 0h1m20 0h1M0 16h1m7 0h1m6 0h1m11 0h1M0 17h1m13 0h2M0 18h1m-1 1h1m10 1h1m-1 1h2m-2 1h3m-3 1h2"/><path stroke="#fff" d="M7 1h1m0 1h5m0 1h3m-6 1h1m5 0h2m0 1h2m0 1h1m-4 1h1m3 0h1m0 1h1M8 9h2m1 0h2m10 0h1m-13 1h4m8 0h1m3 0h1M6 11h2m5 0h3m2 0h1m2 0h1m2 0h3M8 12h2m4 0h3m2 0h1m2 0h1M4 13h2m4 0h2m3 0h3m2 0h1m2 0h1M2 14h1m3 0h2m8 0h3m2 0h1m2 0h1M2 15h3m3 0h2m7 0h8M3 16h4m3 0h1m6 0h8M5 17h3m3 0h1m5 0h8M7 18h3m2 0h1m4 0h8M8 19h3m2 0h12m-15 1h1m3 0h11m-10 1h10m-9 1h10m-8 1h8m-5 1h5m-4 1h3m-2 1h1"/><path stroke="#ff0" d="M8 1h5M6 2h2m5 0h3M5 3h3m4 0h1m3 0h3M4 4h3m4 0h1m1 0h3m2 0h3M5 5h1m4 0h1m3 0h4m2 0h2M4 6h1m5 0h1m4 0h2m4 0h3M4 7h2m2 0h3m7 0h1m3 0h3M5 8h1m1 0h4m6 0h1m5 0h3M7 9h1m9 0h1m4 0h1m1 0h3M6 10h2m16 0h3M5 11h1m3 0h1m-6 1h2m5 0h1m-9 1h1m3 0h1m5 0h1M3 14h1m5 0h1m2 0h3M5 15h1m6 0h3m-8 1h1m5 0h1M2 17h1m1 0h1m3 0h1m-6 1h1m1 0h1m-4 1h1m1 0h1m1 0h1m-2 1h1m1 0h1m1 0h1m-4 1h1m1 0h1m1 0h1m-2 1h1m0 1h1"/><path stroke="#000" d="M10 3h2M9 4h1m2 0h1M9 5h1m3 0h1M8 6h2m3 0h1m3 0h2M7 7h1m5 0h1m2 0h1m2 0h1M4 8h1m1 0h1m7 0h3m3 0h1M5 9h1m10 0h1m3 0h1M9 10h1m6 0h1m11 0h1m-18 1h2m4 0h1m2 0h1m2 0h1m4 0h1M7 12h1m5 0h1m4 0h1m2 0h1m2 0h1m3 0h1M9 13h1m4 0h1m4 0h1m2 0h1m2 0h1m2 0h1M5 14h1m5 0h1m3 0h1m4 0h1m2 0h1m2 0h3M7 15h1m2 0h2m14 0h1m1 0h1M9 16h1m2 0h1m13 0h1m1 0h1M9 17h1m3 0h1m12 0h2m-18 1h1m3 0h3m9 0h2M1 19h1m9 0h1m14 0h1M2 20h2m8 0h1m13 0h1M4 21h2m7 0h1m12 0h1M6 22h2m6 0h1m-7 1h2m3 0h4m12 0h1m-20 1h3m4 0h3m10 0h1m-11 1h1m10 0h1m-11 1h1m8 0h1m-2 1h1m-2 1h1m-2 1h1m-2 1h1"/><path stroke="silver" d="M11 5h1m-1 1h1m-1 1h1m6 1h1M6 9h1m6 0h1m4 0h1M5 10h1m-2 1h1m14 0h1m2 0h1M3 12h1m16 0h1m2 0h1M2 13h1m18 0h1m2 0h1M1 14h1m20 0h1m2 0h1M1 15h1m13 0h1m9 0h1M1 16h2m11 0h1m10 0h1M1 17h1m1 0h1m6 0h1m14 0h1M1 18h2m1 0h1m1 0h1m4 0h1m13 0h1M3 19h1m1 0h1m1 0h1m4 0h1m12 0h1M4 20h1m1 0h1m1 0h1m4 0h1m11 0h1M7 21h1m1 0h1m4 0h1m10 0h1M8 22h1m1 0h1m4 0h1m10 0h1m-10 1h1m8 0h1m-7 1h1m0 1h1m0 1h1"/><path stroke="gray" d="M11 8h3m-4 1h1m3 0h2m-6 1h1m4 0h1m1 0h6M8 11h1m7 0h1m-7 1h1m6 0h1m-6 1h1m5 0h1m0 1h1m-4 1h1m-6 1h1m4 0h1m-5 1h1m3 0h1m-4 1h1"/><path stroke="maroon" d="M27 22h2m-2 1h1m-2 1h1m2 0h1m-5 1h1m4 0h1m-7 1h1m4 0h1m-8 1h2m4 0h1m-7 1h1m4 0h1m-5 1h1m2 0h1m-3 1h1m0 1h1"/><path stroke="#f0f" d="M28 23h1m-2 1h1m-2 1h1m-2 1h1m-2 1h1m-2 1h1m0 1h1m0 1h1"/><path stroke="red" d="M28 24h1m-2 1h3m-4 1h3m-4 1h3m-4 1h3m-2 1h1"/></svg>