<svg xmlns="http://www.w3.org/2000/svg" viewBox="0 -0.5 16 16" shape-rendering="crispEdges">
<path stroke="#808000" d="M0 0h1M4 0h4M3 1h1M8 1h2M2 2h1M10 2h2M2 3h1M12 3h2M8 4h1M14 4h1M2 5h1M15 5h1M1 6h1M4 6h1M13 6h2M0 7h1M3 7h1M5 7h1M14 7h1M0 8h1M0 9h1M14 9h1" />
<path stroke="#c0c0c0" d="M0 0h1M4 1h1M7 1h1M3 2h1M5 2h1M9 2h1M3 3h1M6 3h1M11 3h1M13 4h1M4 5h1M14 5h1M3 6h1M5 6h1M11 6h1M2 7h1M4 7h1M6 7h1M12 7h1M12 8h1M12 9h1M1 10h2M12 10h1M3 11h2M8 11h1M13 11h1M5 12h3M10 12h1M11 13h1" />
<path stroke="#ffff00" d="M0 0h1M5 1h2M4 2h1M7 2h2M4 3h1M8 3h3M11 4h2M3 5h1M12 5h2M2 6h1M1 7h1M3 8h1M6 8h1M1 9h2M3 10h2M5 11h1" />
<path stroke="#808080" d="M0 0h1M6 2h1M5 4h1M7 4h1M9 4h2M4 8h1M7 8h1M7 9h1" />
<path stroke="#000000" d="M0 0h1M5 3h1M7 3h1M3 4h2M6 4h1M5 5h1M7 5h5M6 6h1M8 6h1M10 6h1M12 6h1M15 6h1M7 7h1M9 7h1M11 7h1M13 7h1M15 7h1M5 8h1M13 8h3M4 9h1M6 9h1M13 9h1M15 9h1M0 10h1M5 10h1M13 10h2M1 11h2M6 11h2M3 12h2M8 12h2M15 12h1M5 13h3M10 13h1M15 13h1M14 14h1M13 15h1" />
<path stroke="#ffffff" d="M0 0h1M6 5h1M7 6h1M9 6h1M8 7h1M10 7h1M1 8h2M8 8h4M3 9h1M5 9h1M8 9h4M6 10h6M9 11h4M11 12h2" />
<path stroke="#800000" d="M0 0h1M14 11h1M13 12h1M12 13h1M11 14h1M12 15h1" />
<path stroke="#ff0000" d="M0 0h1M14 12h1M13 13h2M13 14h1" />
<path stroke="#ff00ff" d="M0 0h1M12 14h1" />
</svg>