<svg xmlns="http://www.w3.org/2000/svg" viewBox="0 -0.5 32 32" shape-rendering="crispEdges">
<path stroke="#000000" d="M0 0h1M8 0h3M7 1h2M11 1h1M6 2h5M12 2h1M5 3h3M11 3h1M13 3h1M4 4h3M9 4h1M12 4h1M14 4h1M4 5h3M8 5h1M10 5h1M12 5h1M14 5h1M4 6h3M9 6h1M12 6h1M14 6h1M5 7h3M11 7h1M13 7h2M6 8h5M12 8h2M15 8h1M7 9h3M11 9h4M16 9h1M8 10h8M17 10h1M11 11h6M18 11h2M23 11h2M10 12h5M16 12h2M19 12h3M23 12h1M25 12h1M10 13h1M12 13h3M16 13h4M21 13h3M25 13h1M10 14h1M12 14h3M19 14h1M21 14h2M25 14h1M10 15h1M12 15h8M21 15h3M25 15h2M9 16h2M12 16h1M19 16h1M22 16h3M26 16h1M8 17h2M23 17h5M7 18h15M23 18h6M6 19h2M10 19h1M13 19h1M16 19h1M20 19h1M22 19h8M5 20h2M9 20h1M12 20h1M15 20h1M19 20h1M21 20h9M4 21h2M8 21h1M11 21h1M14 21h1M18 21h1M20 21h11M3 22h2M7 22h1M10 22h1M13 22h1M17 22h1M19 22h11M31 22h1M2 23h2M14 23h1M16 23h1M18 23h10M29 23h2M1 24h2M15 24h1M17 24h12M30 24h1M0 25h15M16 25h14M0 26h3M4 26h1M6 26h1M15 26h13M0 27h14M15 27h11M0 28h14M15 28h9M0 29h14M15 29h7M0 30h14M15 30h5M0 31h18" />
<path stroke="#808080" d="M0 0h1M9 1h2M8 3h3M10 4h2M11 5h1M11 6h1M12 7h1M11 8h1M10 9h1M15 12h1M24 12h1M15 14h1M17 14h1M24 14h1M13 16h1M8 19h1M11 19h1M14 19h1M17 19h2M7 20h1M10 20h1M13 20h1M16 20h2M6 21h1M9 21h1M12 21h1M15 21h2M5 22h1M8 22h1M11 22h1M14 22h2M4 23h9M3 24h1M5 24h1M7 24h1M9 24h1M11 24h1M13 24h1" />
<path stroke="#ffffff" d="M0 0h1M11 2h1M12 3h1M7 4h2M13 4h1M7 5h1M9 5h1M13 5h1M7 6h2M10 6h1M13 6h1M8 7h3M14 8h1M15 9h1M16 10h1M17 11h1M18 12h1M11 13h1M15 13h1M20 13h1M24 13h1M11 14h1M16 14h1M18 14h1M20 14h1M23 14h1M11 15h1M20 15h1M24 15h1M11 16h1M14 16h5M20 16h2M25 16h1M10 17h13M22 18h1M9 19h1M12 19h1M15 19h1M21 19h1M8 20h1M11 20h1M14 20h1M20 20h1M7 21h1M10 21h1M13 21h1M19 21h1M6 22h1M9 22h1M12 22h1M18 22h1M30 22h1M13 23h1M17 23h1M28 23h1M16 24h1M29 24h1M15 25h1M3 26h1M5 26h1M7 26h8M14 27h1M14 28h1M14 29h1" />
<path stroke="#c0c0c0" d="M0 0h1M19 19h1M18 20h1M17 21h1M16 22h1M15 23h1M4 24h1M6 24h1M8 24h1M10 24h1M12 24h1M14 24h1M14 30h1" />
</svg>