<svg xmlns="http://www.w3.org/2000/svg" width="16" height="16" shape-rendering="crispEdges" viewBox="0 -0.5 16 16"><path stroke="olive" d="M4 0h4M3 1h1m4 0h2M2 2h1m7 0h2M2 3h1m9 0h2M8 4h1m5 0h1M2 5h1m12 0h1M1 6h1m2 0h1m8 0h2M0 7h1m2 0h1m1 0h1m8 0h1M0 8h1M0 9h1m13 0h1"/><path stroke="silver" d="M4 1h1m2 0h1M3 2h1m1 0h1m3 0h1M3 3h1m2 0h1m4 0h1m1 1h1M4 5h1m9 0h1M3 6h1m1 0h1m5 0h1M2 7h1m1 0h1m1 0h1m5 0h1m-1 1h1m-1 1h1M1 10h2m9 0h1M3 11h2m3 0h1m4 0h1m-9 1h3m2 0h1m0 1h1"/><path stroke="#ff0" d="M5 1h2M4 2h1m2 0h2M4 3h1m3 0h3m0 1h2M3 5h1m8 0h2M2 6h1M1 7h1m1 1h1m2 0h1M1 9h2m0 1h2m0 1h1"/><path stroke="gray" d="M6 2h1M5 4h1m1 0h1m1 0h2M4 8h1m2 0h1M7 9h1"/><path stroke="#000" d="M5 3h1m1 0h1M3 4h2m1 0h1M5 5h1m1 0h5M6 6h1m1 0h1m1 0h1m1 0h1m2 0h1M7 7h1m1 0h1m1 0h1m1 0h1m1 0h1M5 8h1m7 0h3M4 9h1m1 0h1m6 0h1m1 0h1M0 10h1m4 0h1m7 0h2M1 11h2m3 0h2m-5 1h2m3 0h2m5 0h1M5 13h3m2 0h1m4 0h1m-2 1h1m-2 1h1"/><path stroke="#fff" d="M6 5h1m0 1h1m1 0h1M8 7h1m1 0h1M1 8h2m5 0h4M3 9h1m1 0h1m2 0h4m-6 1h6m-3 1h4m-2 1h2"/><path stroke="maroon" d="M14 11h1m-2 1h1m-2 1h1m-2 1h1m0 1h1"/><path stroke="red" d="M14 12h1m-2 1h2m-2 1h1"/><path stroke="#f0f" d="M12 14h1"/></svg>