<svg xmlns="http://www.w3.org/2000/svg" viewBox="0 -0.5 32 32" shape-rendering="crispEdges">
<path stroke="#808080" d="M0 0h1M2 0h10M20 0h10M1 1h1M11 1h1M19 1h1M29 1h1M1 2h1M11 2h1M19 2h1M29 2h1M1 3h1M11 3h1M19 3h1M29 3h1M1 4h1M11 4h1M19 4h1M29 4h1M1 5h1M11 5h1M19 5h1M29 5h1M1 6h1M11 6h1M19 6h1M29 6h1M1 7h1M4 7h6M11 7h1M19 7h1M22 7h6M29 7h1M1 8h1M11 8h1M19 8h1M29 8h1M0 9h2M12 9h1M18 9h2M30 9h1M0 10h1M12 10h1M18 10h1M30 10h1M0 11h1M12 11h1M18 11h1M30 11h1M0 12h13M18 12h13M25 14h1M25 15h1M25 16h1M25 17h1M25 18h1M2 19h12M25 19h1M1 20h1M13 20h1M25 20h1M1 21h1M13 21h1M25 21h1M1 22h1M13 22h1M25 22h1M1 23h1M13 23h1M25 23h1M1 24h1M13 24h1M25 24h1M1 25h1M13 25h1M25 25h1M1 26h1M13 26h1M25 26h1M1 27h9M12 27h2M25 27h1M1 28h2M5 28h1M8 28h1M11 28h1M15 28h2M19 28h2M23 28h3M0 29h2M4 29h1M7 29h1M10 29h1M13 29h2M0 30h1" />
<path stroke="#c0c0c0" d="M0 0h1M2 1h9M20 1h9M2 2h1M10 2h1M20 2h1M28 2h1M2 3h1M10 3h1M20 3h1M28 3h1M2 4h1M10 4h1M20 4h1M28 4h1M2 5h1M10 5h1M20 5h1M28 5h1M2 6h1M10 6h1M20 6h1M28 6h1M2 7h1M10 7h1M20 7h1M28 7h1M2 8h9M20 8h9M2 11h1M5 11h3M11 11h1M20 11h1M23 11h3M29 11h1M2 20h11M2 21h1M12 21h1M2 22h1M12 22h1M2 23h1M12 23h1M2 24h1M12 24h1M2 25h1M12 25h1M2 26h11M4 28h1M7 28h1M10 28h1M13 28h1M3 29h1M6 29h1M9 29h1M12 29h1M1 30h14" />
<path stroke="#000000" d="M0 0h1M12 1h1M30 1h1M3 2h7M12 2h1M21 2h7M30 2h1M3 3h1M12 3h1M21 3h1M30 3h1M3 4h1M12 4h1M21 4h1M30 4h1M3 5h1M12 5h1M21 5h1M30 5h1M3 6h1M12 6h1M21 6h1M30 6h1M3 7h1M12 7h1M21 7h1M30 7h1M12 8h1M30 8h1M2 9h10M13 9h1M20 9h10M31 9h1M13 10h1M31 10h1M8 11h3M13 11h1M21 11h2M26 11h3M31 11h1M13 12h1M31 12h1M1 13h12M19 13h12M26 14h1M26 15h1M26 16h1M26 17h1M26 18h1M26 19h1M14 20h1M26 20h1M3 21h9M14 21h1M26 21h1M3 22h1M14 22h1M26 22h1M3 23h1M14 23h1M26 23h1M3 24h1M14 24h1M26 24h1M3 25h1M14 25h1M26 25h1M14 26h1M26 26h1M14 27h1M26 27h1M3 28h1M6 28h1M9 28h1M12 28h1M14 28h1M26 28h1M2 29h1M5 29h1M8 29h1M11 29h1M15 29h2M19 29h2M23 29h3M15 30h1M0 31h16" />
<path stroke="#00ffff" d="M0 0h1M4 3h1M22 3h1M4 4h1M22 4h1M4 22h1M4 23h1" />
<path stroke="#008080" d="M0 0h1M5 3h5M23 3h5M5 4h5M23 4h5M4 5h6M22 5h6M4 6h6M22 6h6M5 22h7M5 23h7M4 24h8M4 25h8" />
<path stroke="#ffffff" d="M0 0h1M1 10h11M19 10h11M1 11h1M19 11h1" />
<path stroke="#00ff00" d="M0 0h1M3 11h2M10 27h2" />
<path stroke="#0000ff" d="M0 0h1M14 11h4" />
<path stroke="#ff0000" d="M0 0h1M17 26h6M17 27h6M17 28h2M21 28h2M17 29h2M21 29h2M17 30h6M17 31h6" />
</svg>