<svg xmlns="http://www.w3.org/2000/svg" width="16" height="16" shape-rendering="crispEdges" viewBox="0 -0.5 16 16"><path stroke="gray" d="M1 0h6M1 1h1m3 0h1M1 2h1m3 0h1M1 3h5m3 0h3M0 4h1m5 0h1m2 0h1m2 0h3M0 5h1m2 0h4m2 0h1m4 0h1m-1 1h1m-1 1h1m-1 1h1M1 9h6m7 0h1M1 10h1m3 0h1m8 0h1M1 11h1m3 0h1m3 0h3m2 0h1M1 12h5m3 0h1m2 0h3M0 13h1m5 0h1m2 0h1M0 14h1m2 0h4"/><path stroke="#0ff" d="M2 1h3M2 2h3m-3 8h3m-3 1h3"/><path stroke="#000" d="M6 1h1M6 2h1M6 3h1m0 1h1M7 5h1m4 0h2m1 0h1M1 6h7m1 0h3m3 0h1m-1 1h1m-1 1h1m-1 1h1M6 10h1m8 0h1M6 11h1m8 0h1M6 12h1m8 0h1m-9 1h1m4 0h3m-8 1h1m1 0h3M1 15h7"/><path stroke="silver" d="M1 4h5m4 0h2m-2 1h2m-2 7h2M1 13h5m4 0h2"/><path stroke="#0f0" d="M1 5h2m-2 9h2"/></svg>