<svg xmlns="http://www.w3.org/2000/svg" viewBox="0 -0.5 16 16" shape-rendering="crispEdges">
<path stroke="#808080" d="M0 0h7M1 1h1M5 1h1M1 2h1M5 2h1M1 3h5M9 3h3M0 4h1M6 4h1M9 4h1M12 4h3M0 5h1M3 5h4M9 5h1M14 5h1M14 6h1M14 7h1M14 8h1M1 9h6M14 9h1M1 10h1M5 10h1M14 10h1M1 11h1M5 11h1M9 11h3M14 11h1M1 12h5M9 12h1M12 12h3M0 13h1M6 13h1M9 13h1M0 14h1M3 14h4" />
<path stroke="#00ffff" d="M0 0h1M2 1h3M2 2h3M2 10h3M2 11h3" />
<path stroke="#000000" d="M0 0h1M6 1h1M6 2h1M6 3h1M7 4h1M7 5h1M12 5h2M15 5h1M1 6h7M9 6h3M15 6h1M15 7h1M15 8h1M15 9h1M6 10h1M15 10h1M6 11h1M15 11h1M6 12h1M15 12h1M7 13h1M12 13h3M7 14h1M9 14h3M1 15h7" />
<path stroke="#c0c0c0" d="M0 0h1M1 4h5M10 4h2M10 5h2M10 12h2M1 13h5M10 13h2" />
<path stroke="#00ff00" d="M0 0h1M1 5h2M1 14h2" />
</svg>