<svg xmlns="http://www.w3.org/2000/svg" width="32" height="32" shape-rendering="crispEdges" viewBox="0 -0.5 32 32"><path stroke="gray" d="M3 0h10M2 1h1m9 0h1M2 2h1m9 0h1M2 3h1m9 0h1m6 0h5M2 4h1m9 0h1m6 0h1m4 0h1M2 5h1m9 0h1m6 0h1m1 0h1m1 0h1m1 0h1M2 6h1m9 0h1m6 0h1m1 0h1m1 0h1m2 0h5M2 7h1m2 0h6m1 0h1m6 0h1m1 0h1m1 0h1m1 0h1M2 8h1m9 0h1m6 0h1m1 0h1m1 0h1m1 0h1M2 9h1m10 0h1m5 0h1m4 0h1m4 0h1M1 10h1m11 0h1m5 0h5m5 0h1M1 11h1m11 0h1m15 0h1M1 12h13m15 0h1m-1 1h1m-1 1h1m-1 1h1m-1 1h1M3 17h10m16 0h1M2 18h1m9 0h1m16 0h1M2 19h1m9 0h1m16 0h1M2 20h1m9 0h1m6 0h5m5 0h1M2 21h1m9 0h1m6 0h1m4 0h1m4 0h1M2 22h1m9 0h1m6 0h1m1 0h1m1 0h1m1 0h1m3 0h1M2 23h1m9 0h1m6 0h1m1 0h1m1 0h1m2 0h3M2 24h1m2 0h6m1 0h1m6 0h1m1 0h1m1 0h1m1 0h1M2 25h1m9 0h1m6 0h1m1 0h1m1 0h1m1 0h1M2 26h1m10 0h1m5 0h1m4 0h1M1 27h1m17 0h5M1 28h1m1 0h1m1 0h1m1 0h1m1 0h1m1 0h1m1 0h1M0 29h1m1 0h1m1 0h1m1 0h1m1 0h1m1 0h1m1 0h2M0 30h1"/><path stroke="silver" d="M3 1h9M3 2h1m7 0h1M3 3h1m7 0h1M3 4h1m7 0h1M3 5h1m7 0h1m10 0h1m1 0h1M3 6h1m7 0h1m10 0h1m1 0h2M3 7h1m7 0h1m10 0h1m1 0h1m1 0h5M3 8h9m10 0h1m1 0h1m4 0h2M21 9h3m6 0h1m-1 1h1M3 11h1m2 0h3m3 0h1m17 0h1m-1 1h1m-1 1h1m-1 1h1m-1 1h1m-1 1h1m-1 1h1M3 18h9m18 0h1M3 19h1m7 0h1m18 0h1M3 20h1m7 0h1m18 0h1M3 21h1m7 0h1m18 0h1M3 22h1m7 0h1m10 0h1m1 0h1m5 0h1M3 23h1m7 0h1m10 0h1m1 0h2m3 0h2M3 24h1m7 0h1m10 0h1m1 0h1m1 0h5M3 25h9m10 0h1m1 0h1m-4 1h3M2 27h12M1 30h12"/><path stroke="#000" d="M13 1h1M4 2h7m2 0h1M4 3h1m8 0h1M4 4h1m8 0h1M4 5h1m8 0h1M4 6h1m8 0h1M4 7h1m8 0h1m17 0h1M13 8h1m12 0h3m2 0h1M3 9h10m1 0h1m10 0h1m5 0h1m-18 1h1m2 0h2m5 0h1m6 0h1M9 11h3m2 0h1m4 0h5m7 0h1m-18 1h1m16 0h1M2 13h12m17 0h1m-1 1h1m-1 1h1m-1 1h1m-1 1h1m-19 1h1m17 0h1M4 19h7m2 0h1m17 0h1M4 20h1m8 0h1m17 0h1M4 21h1m8 0h1m17 0h1M4 22h1m8 0h1m17 0h1M4 23h1m8 0h1m17 0h1M4 24h1m8 0h1m17 0h1m-19 1h1m12 0h5M3 26h10m1 0h1m10 0h1m-12 1h1m2 0h2m5 0h1M2 28h1m1 0h1m1 0h1m1 0h1m1 0h1m1 0h1m1 0h1m4 0h5M1 29h1m1 0h1m1 0h1m1 0h1m1 0h1m1 0h1m2 0h1m-2 1h1M0 31h13"/><path stroke="#0ff" d="M5 3h1M5 4h1M5 20h1m-1 1h1"/><path stroke="teal" d="M6 3h5M6 4h5M5 5h6M5 6h6M6 20h5m-5 1h5m-6 1h6m-6 1h6"/><path stroke="olive" d="M17 4h2m-2 1h1m-1 1h2m-2 1h1m-1 1h2m-2 1h1m-1 12h2m-2 1h1m-1 1h2m-2 1h1m-1 1h2m-2 1h1"/><path stroke="#fff" d="M20 4h4m-4 1h1m-1 1h1m-1 1h1m-1 1h1m-1 1h1M2 10h11M2 11h1m17 10h4m-4 1h1m-1 1h1m-1 1h1m-1 1h1m-1 1h1"/><path stroke="#ff0" d="M18 5h1m-1 2h1m-1 2h1m-1 13h1m-1 2h1m-1 2h1"/><path stroke="#0f0" d="M4 11h2"/></svg>