<svg xmlns="http://www.w3.org/2000/svg" width="32" height="32" shape-rendering="crispEdges" viewBox="0 -0.5 32 32"><path stroke="gray" d="M3 1h16M2 2h1m15 0h1M2 3h1m15 0h1m-1 1h1M2 5h1m15 0h1M2 6h1m15 0h1M2 7h1m6 0h16M2 8h1m5 0h1m15 0h1M2 9h1m5 0h1m15 0h1M8 10h1m15 0h1M2 11h1m21 0h1M2 12h1m5 0h1m15 0h1M2 13h1m5 0h1m6 0h16M2 14h1m5 0h1m5 0h1m15 0h1M2 15h1m5 0h1m5 0h1m15 0h1M2 16h1m5 0h1m5 0h1m15 0h1M2 17h6m6 0h1m15 0h1M8 18h1m21 0h1M8 19h1m5 0h1m15 0h1M8 20h1m5 0h1m15 0h1M8 21h1m5 0h1m15 0h1M8 22h1m5 0h1m15 0h1M8 23h5m1 0h1m15 0h1m-1 1h1m-17 1h1m6 0h7m2 0h1m-17 1h1m6 0h1m2 0h1m5 0h1m-17 1h1m6 0h1m2 0h1m5 0h1m-17 1h1m6 0h4m5 0h1m-17 1h7m5 0h5"/><path stroke="#fff" d="M3 2h1m1 0h12M3 3h1m1 0h12M3 4h1m1 0h12M3 5h1m1 0h12M3 6h1m1 0h12M3 7h1m1 0h4M3 8h1m1 0h3m1 0h1m1 0h12M3 9h1m2 0h2m1 0h1m1 0h12M9 10h1m1 0h12M3 11h1m5 0h1m1 0h12M3 12h1m5 0h1m1 0h12M3 13h1m5 0h1m1 0h4M3 14h1m5 0h1m1 0h3m1 0h1m1 0h12M3 15h1m5 0h1m1 0h3m1 0h1m1 0h12M3 16h1m5 0h1m5 0h1m1 0h12m-14 1h1m1 0h12M9 18h1m5 0h1m1 0h12M9 19h1m5 0h1m1 0h12M9 20h1m5 0h1m1 0h12M9 21h1m5 0h1m1 0h12M9 22h1m5 0h1m-1 1h1m-1 2h1m-1 1h1m12 0h1m-14 1h1m12 0h1m-14 1h1m12 0h1"/><path stroke="silver" d="M4 2h1m12 0h1M4 3h1M4 4h1m12 0h1M4 5h1m12 0h1M4 6h1m12 0h1M4 7h1m5 1h1m12 0h1M10 9h1m-4 1h1m2 0h1m12 0h1M6 11h2m2 0h1m12 0h1M5 12h2m3 0h1m12 0h1M4 13h2m1 0h1m2 0h1m-7 1h2m1 0h1m2 0h1m5 0h1m12 0h1M4 15h2m1 0h1m8 0h1M4 16h3m5 0h2m2 0h1m12 0h1m-17 1h1m2 0h1m12 0h1m-18 1h2m2 0h1m12 0h1m-19 1h2m3 0h1m12 0h1m-20 1h2m1 0h1m2 0h1m12 0h1m-20 1h2m1 0h1m2 0h1m12 0h1m-20 1h2m1 0h1m3 0h13m-12 1h12m-11 1h11m-12 1h3m7 0h2m-13 1h4m2 0h1m2 0h2m1 0h1m-14 1h5m2 0h1m2 0h2m1 0h1m-14 1h5m5 0h2m1 0h1"/><path stroke="#000" d="M19 2h1m-3 1h1m1 0h1m-1 1h1m-1 1h1m-1 1h1m5 2h1m-3 1h1m1 0h1m-1 1h1m-1 1h1m-1 1h1m5 2h1m-3 1h1m1 0h1m-1 1h1m-1 1h1M3 18h5m23 0h1m-1 1h1m-1 1h1m-1 1h1m-1 1h1m-1 1h1M9 24h5m17 0h1m-1 1h1m-10 1h1m2 0h1m5 0h1m-10 1h1m2 0h1m5 0h1m-7 1h1m5 0h1m-11 1h5m5 0h1m-17 1h16"/><path stroke="red" d="M2 4h1M1 5h1M0 6h1M0 7h1M0 8h1m3 0h1M1 9h1m2 0h2m-4 1h5m-3 1h2m2 0h1m-5 1h1m2 0h1m-2 1h1m-1 1h1m-1 1h1m3 0h1m-4 1h1m2 0h2m-4 1h5m-3 1h2m2 0h1m-5 1h1m2 0h1m-2 1h1m-1 1h1m-1 1h1m3 0h1m-4 1h1m2 0h2m-4 1h5m-3 1h2m-2 1h1"/></svg>