<svg xmlns="http://www.w3.org/2000/svg" width="16" height="16" shape-rendering="crispEdges" viewBox="0 -0.5 16 16"><path stroke="gray" d="M2 1h6M1 2h1M1 4h1m3 0h6M4 5h1M1 6h1m1 0h1M1 7h1m2 0h1m3 0h6M1 8h1m5 0h1M4 9h1m1 0h1m-3 1h1m2 0h1m-4 1h1m2 1h1m1 0h4m-6 1h1m1 0h1m1 0h1m1 0h1m-7 1h1"/><path stroke="silver" d="M2 2h1m4 0h1M2 3h1m4 0h1M2 4h1m0 1h1m1 0h1m4 0h1M2 6h1m2 0h1m4 0h1M2 7h1m2 0h1m0 1h1m1 0h1m4 0h1M5 9h1m2 0h1m4 0h1m-9 1h1m2 0h1m4 0h1m-5 1h5m-6 1h1m4 0h1m-6 1h1"/><path stroke="#fff" d="M3 2h4M3 3h4M3 4h2m1 1h4M6 6h4M6 7h2m1 1h4M9 9h4m-4 1h4m-1 3h1"/><path stroke="#000" d="M8 2h1M8 3h1m2 2h1m-1 1h1M2 8h2m10 0h1m-1 1h1m-1 1h1M5 11h2m7 0h1m-1 1h1m-5 1h1m3 0h1m-7 1h7"/><path stroke="red" d="M1 3h1M0 4h1m0 1h2m1 1h1M3 7h1m0 1h2m1 1h1m-2 1h1m0 1h2"/></svg>