<svg xmlns="http://www.w3.org/2000/svg" viewBox="0 -0.5 16 16" shape-rendering="crispEdges">
<path stroke="#808080" d="M0 0h1M2 1h6M1 2h1M1 4h1M5 4h6M4 5h1M1 6h1M3 6h1M1 7h1M4 7h1M8 7h6M1 8h1M7 8h1M4 9h1M6 9h1M4 10h1M7 10h1M4 11h1M7 12h1M9 12h4M7 13h1M9 13h1M11 13h1M13 13h1M7 14h1" />
<path stroke="#c0c0c0" d="M0 0h1M2 2h1M7 2h1M2 3h1M7 3h1M2 4h1M3 5h1M5 5h1M10 5h1M2 6h1M5 6h1M10 6h1M2 7h1M5 7h1M6 8h1M8 8h1M13 8h1M5 9h1M8 9h1M13 9h1M5 10h1M8 10h1M13 10h1M9 11h5M8 12h1M13 12h1M8 13h1" />
<path stroke="#ffffff" d="M0 0h1M3 2h4M3 3h4M3 4h2M6 5h4M6 6h4M6 7h2M9 8h4M9 9h4M9 10h4M12 13h1" />
<path stroke="#000000" d="M0 0h1M8 2h1M8 3h1M11 5h1M11 6h1M2 8h2M14 8h1M14 9h1M14 10h1M5 11h2M14 11h1M14 12h1M10 13h1M14 13h1M8 14h7" />
<path stroke="#ff0000" d="M0 0h1M1 3h1M0 4h1M1 5h2M4 6h1M3 7h1M4 8h2M7 9h1M6 10h1M7 11h2" />
</svg>