<svg xmlns="http://www.w3.org/2000/svg" viewBox="0 -0.5 16 16" shape-rendering="crispEdges">
<path stroke="#000000" d="M0 0h1M2 0h10M2 1h1M11 1h2M2 2h1M11 2h1M13 2h1M2 3h1M11 3h4M2 4h1M14 4h1M2 5h1M14 5h1M2 6h1M14 6h1M2 7h1M14 7h1M2 8h1M14 8h1M2 9h1M14 9h1M2 10h1M14 10h1M2 11h1M14 11h1M2 12h1M14 12h1M2 13h1M14 13h1M2 14h1M14 14h1M2 15h13" />
<path stroke="#c0c0c0" d="M0 0h1M3 1h8M3 2h8M3 3h8M3 4h11M3 5h11M3 6h11M3 7h11M3 8h11M3 9h11M3 10h11M3 11h11M3 12h11M3 13h11M3 14h11" />
<path stroke="#ffffff" d="M0 0h1M12 2h1" />
</svg>