<svg xmlns="http://www.w3.org/2000/svg" viewBox="0 -0.5 16 16" shape-rendering="crispEdges">
<path stroke="#808080" d="M0 0h1M3 0h5M2 1h1M5 1h1M1 2h1M0 3h2M10 3h1M0 4h1M0 5h1M0 6h1M0 7h1M10 7h1M1 8h1" />
<path stroke="#0000ff" d="M0 0h1M3 1h1M2 3h1M6 3h2M1 4h1M5 4h1M7 4h1M1 5h1M7 5h1M9 5h1M1 6h3M9 6h1M1 7h2M8 7h1" />
<path stroke="#008000" d="M0 0h1M6 1h2M6 2h3M5 3h1M8 3h2M3 4h2M6 4h1M8 4h2M2 5h5M8 5h1M4 6h4M6 7h2" />
<path stroke="#000000" d="M0 0h1M8 1h1M9 2h1M10 4h1M10 5h1M10 6h3M3 7h3M9 7h1M13 7h1M15 7h1M2 8h1M6 8h6M14 8h2M2 9h1M11 9h1M13 9h3M2 10h1M11 10h1M2 11h1M6 11h10M2 12h1M5 12h1M14 12h1M2 13h1M4 13h1M13 13h1M2 14h2M12 14h1M2 15h10" />
<path stroke="#ffffff" d="M0 0h1M2 2h1M3 3h1M4 8h1M3 9h1M5 9h1M7 9h1M9 9h1M4 10h1M6 10h1M8 10h1M10 10h1M3 11h1M5 11h1M4 12h1M3 13h1" />
<path stroke="#008080" d="M0 0h1M4 2h1M4 3h1M8 6h1" />
<path stroke="#ffff00" d="M0 0h1M3 8h1M5 8h1M4 9h1M6 9h1M8 9h1M10 9h1M3 10h1M5 10h1M7 10h1M9 10h1M4 11h1M3 12h1" />
<path stroke="#808000" d="M0 0h1M6 12h8M5 13h8M4 14h8" />
</svg>