<svg xmlns="http://www.w3.org/2000/svg" viewBox="0 -0.5 16 16" shape-rendering="crispEdges">
<path stroke="#808000" d="M0 0h1M4 0h5M3 1h1M9 1h2M2 2h1M11 2h2M2 3h1M8 3h1M13 3h1M2 4h1M9 4h1M14 4h1M2 5h1M5 5h1M1 6h1M4 6h1M6 6h1M13 6h1M1 7h1M5 7h1M10 7h1M12 7h2M9 8h3M7 9h4M7 10h2" />
<path stroke="#ffff00" d="M0 0h1M4 1h5M3 2h2M8 2h3M3 3h1M9 3h4M4 4h1M6 4h1M12 4h2M3 5h1M7 5h1M10 5h1M12 5h2M2 6h1M9 6h1M12 6h1M4 7h1M8 7h1M2 8h2M6 8h2M4 9h2M6 10h1" />
<path stroke="#808080" d="M0 0h1M5 2h1M7 2h1M11 4h1M8 5h1M1 8h1M0 9h1M2 9h2M0 10h1M4 10h2M13 10h1M0 11h1M6 11h1M11 11h3M9 12h3M7 13h3M7 14h1" />
<path stroke="#000000" d="M0 0h1M6 2h1M4 3h2M7 3h1M3 4h1M7 4h2M10 4h1M9 5h1M11 5h1M14 5h1M11 6h1M14 6h1M11 7h1M14 7h1M12 8h2M11 9h2M14 9h1M9 10h2M14 10h1M7 11h2M14 11h1M0 12h2M12 12h2M2 13h2M10 13h2M4 14h2M8 14h2M6 15h2" />
<path stroke="#ffffff" d="M0 0h1M6 3h1M8 6h1M2 7h2M7 7h1M4 8h2M1 9h1M6 9h1M2 10h2M4 11h2M6 12h1" />
<path stroke="#c0c0c0" d="M0 0h1M5 4h1M4 5h1M6 5h1M3 6h1M5 6h1M7 6h1M10 6h1M6 7h1M9 7h1M8 8h1M13 9h1M11 10h2M1 11h2M9 11h2M2 12h3M7 12h2M4 13h3M6 14h1" />
<path stroke="#00ff00" d="M0 0h1M1 10h1" />
<path stroke="#ff0000" d="M0 0h1M3 11h1M5 12h1" />
</svg>