<svg xmlns="http://www.w3.org/2000/svg" width="16" height="16" shape-rendering="crispEdges" viewBox="0 -0.5 16 16"><path stroke="olive" d="M4 0h5M3 1h1m5 0h2M2 2h1m8 0h2M2 3h1m5 0h1m4 0h1M2 4h1m6 0h1m4 0h1M2 5h1m2 0h1M1 6h1m2 0h1m1 0h1m6 0h1M1 7h1m3 0h1m4 0h1m1 0h2M9 8h3M7 9h4m-4 1h2"/><path stroke="#ff0" d="M4 1h5M3 2h2m3 0h3M3 3h1m5 0h4M4 4h1m1 0h1m5 0h2M3 5h1m3 0h1m2 0h1m1 0h2M2 6h1m6 0h1m2 0h1M4 7h1m3 0h1M2 8h2m2 0h2M4 9h2m0 1h1"/><path stroke="gray" d="M5 2h1m1 0h1m3 2h1M8 5h1M1 8h1M0 9h1m1 0h2m-4 1h1m3 0h2m7 0h1M0 11h1m5 0h1m4 0h3m-5 1h3m-5 1h3m-3 1h1"/><path stroke="#000" d="M6 2h1M4 3h2m1 0h1M3 4h1m3 0h2m1 0h1M9 5h1m1 0h1m2 0h1m-4 1h1m2 0h1m-4 1h1m2 0h1m-3 1h2m-3 1h2m1 0h1m-6 1h2m3 0h1m-8 1h2m5 0h1M0 12h2m10 0h2M2 13h2m6 0h2m-8 1h2m2 0h2m-4 1h2"/><path stroke="#fff" d="M6 3h1m1 3h1M2 7h2m3 0h1M4 8h2M1 9h1m4 0h1m-5 1h2m0 1h2m0 1h1"/><path stroke="silver" d="M5 4h1M4 5h1m1 0h1M3 6h1m1 0h1m1 0h1m2 0h1M6 7h1m2 0h1M8 8h1m4 1h1m-3 1h2M1 11h2m6 0h2m-9 1h3m2 0h2m-5 1h3m-1 1h1"/><path stroke="#0f0" d="M1 10h1"/><path stroke="red" d="M3 11h1m1 1h1"/></svg>