<svg xmlns="http://www.w3.org/2000/svg" width="16" height="16" shape-rendering="crispEdges" viewBox="0 -0.5 16 16"><path stroke="gray" d="M2 2h13M1 3h1m12 0h1M0 4h1m12 0h2M0 5h1m12 0h2M0 6h1m12 0h2M0 7h1m1 0h10m1 0h2M0 8h1m12 0h1"/><path stroke="silver" d="M2 3h12M1 5h10m1 0h1M1 6h12M1 7h1m10 0h1M1 8h1m10 0h1m-6 3h1m-8 1h6m4 0h6"/><path stroke="#000" d="M15 3h1m-1 1h1m-1 1h1m-1 1h1m-1 1h1m-2 1h1M1 9h13m-7 1h2m-1 1h1m0 1h1M0 13h6m3 0h7M6 14h4"/><path stroke="#fff" d="M1 4h12M2 8h10m-5 5h1"/><path stroke="green" d="M11 5h1"/><path stroke="olive" d="M6 12h3m-1 1h1"/><path stroke="#ff0" d="M6 13h1"/></svg>