<svg xmlns="http://www.w3.org/2000/svg" width="32" height="32" shape-rendering="crispEdges" viewBox="0 -0.5 32 32"><path stroke="gray" d="M4 9h26M3 10h1m25 0h1M2 11h1m25 0h2M1 12h1m25 0h3M1 13h1m25 0h3M1 14h1m25 0h3M1 15h1m25 0h3M1 16h1m2 0h21m2 0h3M1 17h1m25 0h3M1 18h1m2 0h21m2 0h3M1 19h1m25 0h3M1 20h1m25 0h2M1 21h27m-13 2h1m-2 1h1m-1 1h1M0 26h1m1 0h10m7 0h11m1 0h1"/><path stroke="silver" d="M4 10h25M3 11h25M3 13h19m3 0h2M3 14h19m3 0h2M3 15h24M3 16h1m21 0h2M3 17h1m21 0h2M3 18h1m21 0h2M3 19h1m21 0h2M3 20h24"/><path stroke="#000" d="M30 10h1m-1 1h1m-1 1h1m-1 1h1m-1 1h1m-1 1h1m-1 1h1m-1 1h1m-1 1h1m-1 1h1m-2 1h1m-2 1h1M2 22h26m-14 1h1m1 0h1m-1 1h1m-1 1h1m1 1h1m-1 1h1M0 28h1m1 0h10m6 0h12m1 0h1m-20 1h7"/><path stroke="#fff" d="M2 12h25M2 13h1m-1 1h1m-1 1h1m-1 1h1m-1 1h1m1 0h21M2 18h1m-1 1h1m1 0h21M2 20h1m12 4h1m-1 1h1M0 27h1m1 0h10m2 0h1m4 0h11m1 0h1m-18 1h1"/><path stroke="green" d="M22 13h3m-3 1h3"/><path stroke="olive" d="M12 26h6m-6 1h1m3 0h2m-6 1h1m3 0h2"/><path stroke="#ff0" d="M13 27h1m1 0h1m-3 1h1m1 0h1"/></svg>