<svg xmlns="http://www.w3.org/2000/svg" width="32" height="32" shape-rendering="crispEdges" viewBox="0 -0.5 32 32"><path stroke="navy" d="M13 0h9M10 1h3m-2 1h1m0 1h1m0 1h1m0 1h1m0 1h1m0 1h1m0 1h14M5 16h2m-4 1h2m2 0h2m-7 1h1m6 0h4M1 19h1m11 0h8M0 20h1m-1 1h1m-1 1h1m10 0h9M0 23h1m10 0h1M0 24h1m10 0h1M0 25h1m10 0h1M1 26h1m9 0h1M2 27h1m8 0h1m-9 1h2m6 0h1m-7 1h3m0 1h4"/><path stroke="purple" d="M9 1h1M7 2h2M6 3h1M5 4h1M4 5h1M3 6h1M3 7h1M3 8h1M3 9h1m-1 1h1m-1 1h1m0 1h1m25 0h1M5 13h1m23 0h1M6 14h1m21 0h1M7 15h2m17 0h2M9 16h4m9 0h4m-13 1h9m-4 11h2m-5 1h3m-6 1h3"/><path stroke="#00f" d="M13 1h9M12 2h14M13 3h15M14 4h15M15 5h15M16 6h15M17 7h14M5 17h2m-4 1h6m-7 1h11M1 20h20M1 21h19M1 22h10M1 23h10M1 24h10m-9 1h9m-8 1h8m-6 1h6m-3 1h3"/><path stroke="#000" d="M22 1h4m0 1h2m0 1h1m0 1h1m0 1h1m0 1h1m-1 1h1m-1 1h1m-1 1h1m-1 1h1M4 11h1m25 0h2M3 12h1m1 0h1m23 0h1m1 0h1M4 13h1m1 0h1m21 0h1m1 0h1M5 14h1m1 0h2m17 0h2m1 0h1M6 15h1m2 0h4m9 0h4m2 0h1M7 16h2m4 0h9m4 0h2M9 17h4m9 0h4m-13 1h9m-1 1h1M1 25h1m-2 1h1m1 0h1m-2 1h1m1 0h2m13 0h1M2 28h1m2 0h3m7 0h3M3 29h2m3 0h7m3 0h2M5 30h3m7 0h3M8 31h7"/><path stroke="#f0f" d="M9 2h2M7 3h5M6 4h7M5 5h9M4 6h11M4 7h12M4 8h13M4 9h27M4 10h27M5 11h25M6 12h23M7 13h21M9 14h17m-13 1h9m-10 8h7m-7 1h7m-7 1h7m-7 1h7m-7 1h6m-6 1h3"/><path stroke="teal" d="M23 19h5m-7 1h9m-10 1h4m3 0h4m-11 1h3m2 0h1m2 0h3m-12 1h7m2 0h4m-13 1h7m2 0h4m-13 1h5m3 0h5m-13 1h7m2 0h4m-13 1h7m2 0h4m-12 1h3m2 0h1m2 0h3m-11 1h4m3 0h4m-10 1h9m-7 1h5"/><path stroke="#fff" d="M24 21h3m-4 1h2m1 0h2m-2 1h2m-2 1h2m-4 1h3m-1 1h2m-2 1h2m-5 1h2m1 0h2m-4 1h3"/></svg>