<svg xmlns="http://www.w3.org/2000/svg" viewBox="0 -0.5 32 32" shape-rendering="crispEdges">
<path stroke="#ffff00" d="M0 0h1M12 3h6M10 4h10M8 5h13M7 6h15M6 7h17M5 8h19M5 9h20M4 10h7M13 10h4M19 10h6M4 11h6M14 11h2M20 11h5M3 12h7M14 12h2M20 12h6M3 13h8M13 13h4M19 13h7M3 14h3M7 14h17M25 14h1M3 15h3M7 15h17M25 15h1M3 16h3M7 16h17M25 16h1M3 17h4M8 17h15M24 17h2M3 18h4M8 18h15M24 18h2M3 19h5M9 19h13M23 19h3M4 20h4M9 20h13M23 20h2M4 21h5M11 21h9M22 21h3M5 22h6M13 22h5M20 22h4M5 23h8M18 23h5M6 24h16M7 25h14M11 26h8" />
<path stroke="#808000" d="M0 0h1M18 3h2M20 4h2M21 5h3M22 6h3M23 7h3M24 8h3M25 9h2M25 10h3M25 11h3M26 12h3M26 13h3M26 14h3M26 15h3M26 16h3M26 17h3M26 18h3M26 19h3M25 20h3M25 21h3M24 22h3M23 23h4M22 24h4M21 25h4M8 26h3M19 26h5M10 27h12M12 28h8" />
<path stroke="#000000" d="M0 0h1M11 10h2M17 10h2M10 11h4M16 11h4M10 12h4M16 12h4M11 13h2M17 13h2M6 14h1M24 14h1M6 15h1M24 15h1M6 16h1M24 16h1M7 17h1M23 17h1M7 18h1M23 18h1M8 19h1M22 19h1M8 20h1M22 20h1M9 21h2M20 21h2M11 22h2M18 22h2M13 23h5" />
</svg>