<svg xmlns="http://www.w3.org/2000/svg" width="16" height="16" shape-rendering="crispEdges" viewBox="0 -0.5 16 16"><path stroke="gray" d="M2 3h13M1 4h1m12 0h1M0 5h1m12 0h2M0 6h1m12 0h2M0 7h1m4 0h4m4 0h2M0 8h1m1 0h3m4 0h3m1 0h2M0 9h1m12 0h2M0 10h14"/><path stroke="silver" d="M2 4h12M1 6h10m1 0h1M1 7h4m4 0h4M1 8h1m10 0h1M1 9h4m4 0h4"/><path stroke="#000" d="M15 4h1m-1 1h1m-1 1h1m-1 1h1M5 8h4m6 0h1m-1 1h1m-2 1h1M1 11h13"/><path stroke="#fff" d="M1 5h12M5 9h4"/><path stroke="red" d="M11 6h1"/></svg>