<svg xmlns="http://www.w3.org/2000/svg" width="16" height="16" shape-rendering="crispEdges" viewBox="0 -0.5 16 16"><path stroke="red" d="M5 1h6M4 2h1m6 0h1M3 3h1m8 0h1M2 4h1m1 0h1m8 0h1M1 5h1m3 0h1m8 0h1M1 6h1m4 0h1m7 0h1M1 7h1m5 0h1m6 0h1M1 8h1m6 0h1m5 0h1M1 9h1m7 0h1m4 0h1M1 10h1m8 0h1m3 0h1M2 11h1m8 0h1m1 0h1M3 12h1m8 0h1m-9 1h1m6 0h1m-7 1h6"/><path stroke="gray" d="M2 5h3m1 0h8M0 7h1m12 0h1M0 8h1m12 0h1M0 9h1m12 0h1M0 10h1m1 0h8m1 0h1m1 0h1M0 11h1m13 0h1M0 12h3m1 0h8m1 0h1"/><path stroke="silver" d="M2 6h4m1 0h7M2 8h6m1 0h1m2 0h1M2 9h7m1 0h3m-1 1h1M1 11h1m10 0h1"/><path stroke="#000" d="M15 6h1m-1 1h1m-1 1h1m-1 1h1m-1 1h1m-1 1h1m-2 1h1M1 13h3m1 0h6m1 0h2"/><path stroke="#fff" d="M2 7h5m1 0h5M3 11h8"/><path stroke="green" d="M10 8h2"/></svg>