<svg xmlns="http://www.w3.org/2000/svg" viewBox="0 -0.5 16 16" shape-rendering="crispEdges">
<path stroke="#000080" d="M0 0h1M5 0h7M5 1h1M6 2h1M7 3h1M8 4h7M2 8h1M1 9h1M0 10h1M0 11h1M5 11h2M0 12h1M5 12h1M0 13h3M5 13h1M3 14h2" />
<path stroke="#800080" d="M0 0h1M3 1h2M2 2h1M1 3h1M1 4h1M1 5h1M1 6h2M3 7h2M5 8h3M6 14h2" />
<path stroke="#0000ff" d="M0 0h1M6 1h6M7 2h7M8 3h7M2 9h3M1 10h6M1 11h4M1 12h4M3 13h2" />
<path stroke="#000000" d="M0 0h1M12 1h2M14 2h1M15 3h1M15 4h1M15 5h1M15 6h1M2 7h1M14 7h1M3 8h2M5 9h2M1 14h2M5 14h1M3 15h6" />
<path stroke="#ff00ff" d="M0 0h1M3 2h3M2 3h5M2 4h6M2 5h13M3 6h12M5 7h4M6 12h1M6 13h1" />
<path stroke="#008080" d="M0 0h1M9 7h5M8 8h2M13 8h2M7 9h2M11 9h1M14 9h2M7 10h5M14 10h2M7 11h3M13 11h3M7 12h5M14 12h2M7 13h2M11 13h1M14 13h2M8 14h2M13 14h2M9 15h5" />
<path stroke="#ffffff" d="M0 0h1M10 8h3M9 9h2M12 9h2M12 10h2M10 11h3M12 12h2M9 13h2M12 13h2M10 14h3" />
</svg>