<svg xmlns="http://www.w3.org/2000/svg" width="16" height="16" shape-rendering="crispEdges" viewBox="0 -0.5 16 16"><path stroke="navy" d="M5 0h7M5 1h1m0 1h1m0 1h1m0 1h7M2 8h1M1 9h1m-2 1h1m-1 1h1m4 0h2m-7 1h1m4 0h1m-6 1h3m2 0h1m-3 1h2"/><path stroke="purple" d="M3 1h2M2 2h1M1 3h1M1 4h1M1 5h1M1 6h2m0 1h2m0 1h3m-2 6h2"/><path stroke="#00f" d="M6 1h6M7 2h7M8 3h7M2 9h3m-4 1h6m-6 1h4m-4 1h4m-2 1h2"/><path stroke="#000" d="M12 1h2m0 1h1m0 1h1m-1 1h1m-1 1h1m-1 1h1M2 7h1m11 0h1M3 8h2m0 1h2m-6 5h2m2 0h1m-3 1h6"/><path stroke="#f0f" d="M3 2h3M2 3h5M2 4h6M2 5h13M3 6h12M5 7h4m-3 5h1m-1 1h1"/><path stroke="teal" d="M9 7h5M8 8h2m3 0h2M7 9h2m2 0h1m2 0h2m-9 1h5m2 0h2m-9 1h3m3 0h3m-9 1h5m2 0h2m-9 1h2m2 0h1m2 0h2m-8 1h2m3 0h2m-6 1h5"/><path stroke="#fff" d="M10 8h3M9 9h2m1 0h2m-2 1h2m-4 1h3m-1 1h2m-5 1h2m1 0h2m-4 1h3"/></svg>