<svg xmlns="http://www.w3.org/2000/svg" width="32" height="32" shape-rendering="crispEdges" viewBox="0 -0.5 32 32"><path stroke="gray" d="M16 3h15M16 4h1m-1 1h1m-1 1h1m-1 1h1m-1 1h7m2 0h6M16 9h6m1 0h8m-15 1h6m1 0h1m1 0h1m1 0h4m-15 1h10m1 0h4m-15 1h8m2 0h5m-15 1h15M3 14h21m2 0h5M2 15h1m13 0h8m2 0h5M1 16h1m14 0h8m2 0h5M0 17h1m15 0h15M0 18h1m-1 1h1m25 0h3M0 20h1m25 0h3M0 21h1m8 0h8m9 0h3M0 22h1m2 0h6m8 0h6m3 0h3M0 23h1m25 0h3M0 24h1m25 0h3M0 25h1m25 0h2M0 26h27"/><path stroke="#000" d="M31 3h1m-1 1h1m-1 1h1m-1 1h1m-1 1h1m-9 1h2m6 0h1M22 9h1m8 0h1m-10 1h1m8 0h1m-1 1h1m-1 1h1m-1 1h1m-8 1h1m6 0h1m-8 1h1m6 0h1m-8 1h1m6 0h1m-1 1h1m-16 1h16m-3 1h1m-1 1h1m-1 1h1M9 22h8m12 0h1M9 23h8m12 0h1m-1 1h1m-2 1h1m-2 1h1M1 27h26"/><path stroke="#fff" d="M17 4h14M17 5h14M17 6h14M17 7h14m-7 3h1m1 0h1m-1 1h1m-3 1h2m-1 2h1m-1 1h1m-1 1h1M1 17h15M1 18h1m-1 1h1m-1 1h1m-1 1h1m-1 1h1m-1 1h1m1 0h6m8 0h6M1 24h1m7 0h8M1 25h1"/><path stroke="silver" d="M3 15h13M2 16h14M2 18h14M2 19h19m2 0h3M2 20h19m2 0h3M2 21h7m8 0h9M2 22h1m20 0h3M2 23h1m20 0h3M2 24h7m8 0h9M2 25h24"/><path stroke="red" d="M21 19h2m-2 1h2"/></svg>