<svg xmlns="http://www.w3.org/2000/svg" viewBox="0 -0.5 16 16" shape-rendering="crispEdges">
<path stroke="#ff0000" d="M0 0h1M5 1h6M4 2h1M11 2h1M3 3h1M12 3h1M2 4h1M4 4h1M13 4h1M1 5h1M5 5h1M14 5h1M1 6h1M6 6h1M14 6h1M1 7h1M7 7h1M14 7h1M1 8h1M8 8h1M14 8h1M1 9h1M9 9h1M14 9h1M1 10h1M10 10h1M14 10h1M2 11h1M11 11h1M13 11h1M3 12h1M12 12h1M4 13h1M11 13h1M5 14h6" />
<path stroke="#808080" d="M0 0h1M2 5h3M6 5h8M0 7h1M13 7h1M0 8h1M13 8h1M0 9h1M13 9h1M0 10h1M2 10h8M11 10h1M13 10h1M0 11h1M14 11h1M0 12h3M4 12h8M13 12h1" />
<path stroke="#c0c0c0" d="M0 0h1M2 6h4M7 6h7M2 8h6M9 8h1M12 8h1M2 9h7M10 9h3M12 10h1M1 11h1M12 11h1" />
<path stroke="#000000" d="M0 0h1M15 6h1M15 7h1M15 8h1M15 9h1M15 10h1M15 11h1M14 12h1M1 13h3M5 13h6M12 13h2" />
<path stroke="#ffffff" d="M0 0h1M2 7h5M8 7h5M3 11h8" />
<path stroke="#008000" d="M0 0h1M10 8h2" />
</svg>