<svg xmlns="http://www.w3.org/2000/svg" viewBox="0 -0.5 16 16" shape-rendering="crispEdges">
<path stroke="#808080" d="M0 0h1M9 0h3M8 1h1M12 1h2M7 2h1M5 3h2M3 4h2M6 4h1M1 5h2M7 5h2M13 5h2M0 6h1M9 6h2M13 6h2M0 7h1M11 7h4M0 8h1M9 8h1M14 8h1M0 9h1M7 9h2M0 10h2M7 10h1M1 11h3M7 11h1M4 12h2M7 12h1M6 13h1M7 14h2" />
<path stroke="#ffffff" d="M0 0h1M9 1h3M8 2h6M7 3h6M5 4h1M8 4h4M3 5h1M10 5h1M1 6h1M1 7h3M1 8h1M4 8h2M1 9h1M6 9h1M11 9h2M10 10h1M13 10h1M12 11h2M11 12h2M11 14h2" />
<path stroke="#000000" d="M0 0h1M14 2h2M13 3h1M12 4h1M11 5h1M11 6h1M15 6h1M15 7h1M15 8h1M15 9h1M1 12h1M2 13h2M7 13h1M4 14h2M6 15h3" />
<path stroke="#c0c0c0" d="M0 0h1M7 4h1M4 5h3M9 5h1M12 5h1M2 6h2M6 6h3M12 6h1M4 7h2M8 7h3M2 8h2M6 8h3M2 9h4M2 10h5M4 11h3M2 12h2M6 12h1M4 13h2M6 14h1" />
<path stroke="#00ff00" d="M0 0h1M4 6h2" />
<path stroke="#ff0000" d="M0 0h1M6 7h2M10 8h4M9 9h2M13 9h2M8 10h2M11 10h2M14 10h2M8 11h4M14 11h2M8 12h3M13 12h3M8 13h8M9 14h2M13 14h2M10 15h4" />
</svg>