<svg xmlns="http://www.w3.org/2000/svg" viewBox="0 -0.5 32 32" shape-rendering="crispEdges">
<path stroke="#808080" d="M0 0h1M0 0h17M0 1h4M0 2h4M0 3h4M0 4h4M8 4h7M0 5h4M0 6h4M0 7h4M0 8h4M8 8h7M0 9h4M0 10h4M8 10h23M0 11h4M8 11h1M0 12h4M8 12h1M0 13h4M8 13h1M0 14h4M8 14h1M0 15h4M8 15h1M0 16h4M8 16h1M0 17h4M8 17h1M0 18h4M8 18h1M0 19h4M8 19h1M0 20h4M8 20h1M0 21h4M6 21h10M18 21h4M25 21h4M0 22h4M6 22h1M0 23h4M6 23h1M0 24h4M6 24h1M6 25h1M6 26h1M6 27h1M6 28h1M18 28h4M25 28h4M6 29h1M6 30h1" />
<path stroke="#000000" d="M0 0h1M17 0h1M17 1h1M17 2h1M17 3h1M17 4h1M17 5h1M17 6h1M17 7h1M17 8h1M17 9h1M31 10h1M31 11h1M26 12h1M28 12h1M30 12h2M25 13h7M31 14h1M31 15h1M31 16h1M31 17h1M31 18h1M26 19h3M31 19h1M31 20h1M16 21h1M31 21h1M16 22h1M31 22h1M10 23h4M16 23h1M31 23h1M11 24h3M16 24h1M31 24h1M0 25h6M10 25h4M16 25h1M21 25h1M31 25h1M9 26h3M13 26h1M16 26h1M19 26h3M26 26h3M31 26h1M9 27h2M16 27h1M31 27h1M9 28h1M16 28h1M31 28h1M10 29h1M16 29h1M31 29h1M16 30h1M31 30h1M6 31h26" />
<path stroke="#c0c0c0" d="M0 0h1M4 1h13M4 2h13M4 3h13M4 4h1M7 4h1M15 4h2M4 5h1M7 5h10M4 6h13M4 7h13M4 8h1M7 8h1M15 8h2M4 9h1M7 9h10M4 10h4M4 11h4M4 12h1M7 12h1M4 13h1M7 13h1M4 14h4M9 14h22M4 15h4M9 15h1M30 15h1M4 16h1M7 16h1M9 16h1M30 16h1M4 17h1M7 17h1M9 17h1M30 17h1M4 18h4M9 18h1M30 18h1M4 19h4M9 19h1M30 19h1M4 20h1M7 20h1M9 20h1M30 20h1M4 21h1M30 21h1M4 22h2M30 22h1M4 23h2M30 23h1M4 24h2M30 24h1M30 25h1M30 26h1M30 27h1M30 28h1M30 29h1M17 30h14" />
<path stroke="#ffff00" d="M0 0h1M5 4h1M13 17h1M20 24h1M27 24h1" />
<path stroke="#808000" d="M0 0h1M6 4h1M5 5h2M20 23h2M19 24h1M21 24h1M18 25h3" />
<path stroke="#ff0000" d="M0 0h1M5 8h1M12 16h3M12 17h1M14 17h1M11 18h3" />
<path stroke="#800000" d="M0 0h1M6 8h1M5 9h2M14 18h1M12 19h3" />
<path stroke="#000080" d="M0 0h1M9 11h22M9 12h16M9 13h16M28 16h1M28 17h1M21 18h1M25 18h4M19 19h3" />
<path stroke="#00ffff" d="M0 0h1M5 12h1M20 17h1M27 17h1" />
<path stroke="#0000ff" d="M0 0h1M6 12h1M5 13h2M26 16h2M26 17h1" />
<path stroke="#ffffff" d="M0 0h1M25 12h1M27 12h1M29 12h1M10 15h20M10 16h2M15 16h4M22 16h4M29 16h1M10 17h2M15 17h4M22 17h4M29 17h1M10 18h1M15 18h3M22 18h3M29 18h1M10 19h2M15 19h4M22 19h4M29 19h1M10 20h20M17 21h1M22 21h3M29 21h1M7 22h9M17 22h13M7 23h3M14 23h2M17 23h3M22 23h5M29 23h1M7 24h4M14 24h2M17 24h2M22 24h4M29 24h1M7 25h3M14 25h2M17 25h1M22 25h3M29 25h1M7 26h2M12 26h1M14 26h2M17 26h2M22 26h4M29 26h1M7 27h2M11 27h5M17 27h13M7 28h2M10 28h6M17 28h1M22 28h3M29 28h1M7 29h3M11 29h5M17 29h13M7 30h9" />
<path stroke="#00ff00" d="M0 0h1M5 16h1" />
<path stroke="#008080" d="M0 0h1M6 16h1M19 16h3M5 17h2M19 17h1M21 17h1M18 18h3" />
<path stroke="#ff00ff" d="M0 0h1M5 20h1M27 23h2M26 24h1M28 24h1M27 25h1" />
<path stroke="#800080" d="M0 0h1M6 20h1M5 21h1M25 25h2M28 25h1" />
</svg>