<svg xmlns="http://www.w3.org/2000/svg" width="32" height="32" shape-rendering="crispEdges" viewBox="0 -0.5 32 32"><path stroke="gray" d="M9 0h18M8 1h1m17 0h1M7 2h1m17 0h2M6 3h1m18 0h2M6 4h1m2 0h14m2 0h2M6 5h1m15 0h1m2 0h2M6 6h1m15 0h1m2 0h2M6 7h1m15 0h1m2 0h2M6 8h1m5 0h1m9 0h1m2 0h2M6 9h1m5 0h1m9 0h1m2 0h2M6 10h1m5 0h1m1 0h1m7 0h1m2 0h2M6 11h1m7 0h1m7 0h1m2 0h2M6 12h1m7 0h1m7 0h1m2 0h2M6 13h1m15 0h1m2 0h2M6 14h1m2 0h14m2 0h2M6 15h1m18 0h2M6 16h1m18 0h2m1 0h2M6 17h20m1 0h2m-3 1h2m1 0h1M4 19h23m1 0h2M3 20h1m23 0h3M3 21h1m23 0h3M3 22h1m11 0h10m2 0h3M3 23h1m23 0h3M3 24h1m17 0h1m5 0h3M3 25h1m23 0h3M3 26h3m2 0h1m2 0h1m2 0h1m2 0h1m2 0h1m2 0h1m3 0h2M2 27h1m1 0h1m2 0h1m2 0h1m2 0h1m2 0h1m2 0h1m2 0h1m2 0h2M1 28h1m1 0h1m1 0h2m1 0h2m1 0h2m1 0h2m1 0h2m1 0h2m1 0h4M0 29h1m24 0h1M0 30h1m23 0h1"/><path stroke="silver" d="M9 1h16M8 3h17M8 4h1m15 0h1M8 5h1m15 0h1M8 6h1m15 0h1M8 7h1m15 0h1M8 8h1m15 0h1M8 9h1m15 0h1M8 10h1m15 0h1M8 11h1m15 0h1M8 12h1m15 0h1M8 13h1m15 0h1M8 14h1m15 0h1M8 15h1m15 0h1M8 16h17m4 1h1m-2 1h1m-2 1h1M5 21h22M5 22h10m10 0h2M5 23h2m2 0h6m10 0h2M5 24h2m2 0h12m1 0h5M5 25h22m-3 4h1M1 30h23"/><path stroke="#fff" d="M25 1h1M8 2h17M7 3h1M7 4h1m15 0h1M7 5h1m15 0h1M7 6h1m15 0h1M7 7h1m15 0h1M7 8h1m5 0h4m6 0h1M7 9h1m5 0h1m9 0h1M7 10h1m5 0h1m1 0h4m4 0h1M7 11h1m7 0h4m4 0h1M7 12h1m7 0h4m4 0h1M7 13h1m15 0h1M7 14h1m15 0h1M7 15h1m1 0h15M7 16h1m-4 4h23M4 21h1m-1 1h1m-1 1h1m-1 1h1m-1 1h1m2 1h1m2 0h1m2 0h1m2 0h1m2 0h1m2 0h1m2 0h1M3 27h1m2 0h1m2 0h1m2 0h1m2 0h1m2 0h1m2 0h1m2 0h1M2 28h1m-2 1h23"/><path stroke="#000" d="M27 1h1m-1 1h1m-1 1h1m-1 1h1M9 5h13m5 0h1M9 6h1m17 0h1M9 7h1m2 0h6m9 0h1M9 8h1m7 0h1m9 0h1M9 9h1m9 0h1m7 0h1M9 10h1m9 0h1m7 0h1M9 11h1m2 0h2m5 0h1m7 0h1M9 12h1m9 0h1m7 0h1M9 13h1m4 0h6m7 0h1m-1 1h1m-1 1h1m-1 1h1m-2 1h1m3 0h1M6 18h20m4 0h1m-1 1h1m-1 1h1m-1 1h1m-1 1h1m-16 1h10m5 0h1m-1 1h1m-1 1h1M6 26h1m2 0h1m2 0h1m2 0h1m2 0h1m2 0h1m2 0h1m1 0h1m2 0h1M5 27h1m2 0h1m2 0h1m2 0h1m2 0h1m2 0h1m2 0h1m3 0h2M4 28h1m2 0h1m2 0h1m2 0h1m2 0h1m2 0h1m2 0h1m4 0h1m-2 1h1m-2 1h1M1 31h24"/><path stroke="teal" d="M10 6h12M10 7h1m7 0h4M10 8h1m7 0h4M10 9h2m8 0h2m-12 1h2m8 0h2m-12 1h2m8 0h2m-12 1h4m6 0h2m-12 1h4m6 0h2"/><path stroke="#0ff" d="M11 7h1m-1 1h1"/><path stroke="navy" d="M14 9h1"/><path stroke="#00f" d="M15 9h4"/><path stroke="#0f0" d="M7 23h2"/><path stroke="green" d="M7 24h2"/></svg>