<svg xmlns="http://www.w3.org/2000/svg" width="16" height="16" shape-rendering="crispEdges" viewBox="0 -0.5 16 16"><path stroke="gray" d="M2 0h5M1 1h1m5 0h1M0 2h1m7 0h6M0 3h1M0 4h1m3 0h2m1 0h1M0 5h1m2 0h1m4 0h1M0 6h1m1 0h1m6 0h1M0 7h1m1 0h1M0 8h1m1 0h1M0 9h1m2 0h1m4 0h1m-9 1h1m3 0h1m2 0h1m-8 1h1"/><path stroke="silver" d="M2 1h1m1 0h1m1 0h1M1 2h1m1 0h1m1 0h1m1 0h1M3 4h1m5 0h1m1 0h1M2 5h1m7 0h1m1 0h1M7 6h1m3 0h1M6 7h1m3 0h1m1 0h1M5 8h1m1 0h1m3 0h1M2 9h1m1 0h1m1 0h1m5 0h1M3 10h1m4 0h1"/><path stroke="#ff0" d="M3 1h1m1 0h1M2 2h1m1 0h1m1 0h1M2 4h1m5 0h1m1 0h1m1 0h1M9 5h1m1 0h1m-2 1h1m1 0h1m-2 1h1m-2 1h1m1 0h1m-2 1h1M2 10h1m9 0h1"/><path stroke="#fff" d="M1 3h12M1 4h1M1 5h1m2 0h1m1 0h1M1 6h1m1 0h1m1 0h1M1 7h1m2 0h1M1 8h1m1 0h1M1 9h1m-1 1h1"/><path stroke="olive" d="M13 3h1m-1 1h1m-1 1h1m-1 1h1M9 7h1m3 0h1M9 8h1m3 0h1M9 9h2m2 0h1m-3 1h1m1 0h1M1 11h7m4 0h2"/><path stroke="#000" d="M14 3h1M6 4h1m7 0h1M7 5h1m6 0h1M8 6h1m5 0h1M8 7h1m5 0h1M8 8h1m5 0h1M7 9h1m6 0h1M5 10h2m7 0h1m-1 1h1M1 12h8m4 0h1m0 1h1m-1 1h1m-3 1h2"/><path stroke="#0ff" d="M5 5h1M4 6h1m1 0h1M3 7h1m1 0h1m1 0h1M4 8h1m1 0h1M5 9h1m3 2h1m0 1h1m0 1h1m0 1h1"/><path stroke="#00f" d="M9 10h2m-1 1h2m-1 1h2m-1 1h2m-1 1h1"/><path stroke="navy" d="M8 11h1m0 1h1m0 1h1m0 1h1"/></svg>