<svg xmlns="http://www.w3.org/2000/svg" width="32" height="32" shape-rendering="crispEdges" viewBox="0 -0.5 32 32"><path stroke="gray" d="M0 0h17M0 1h4M0 2h4M0 3h4M0 4h4m4 0h7M0 5h4M0 6h4M0 7h4M0 8h4m4 0h7M0 9h4m-4 1h4m4 0h23M0 11h4m4 0h1m-9 1h4m4 0h1m-9 1h4m4 0h1m-9 1h4m4 0h1m-9 1h4m4 0h1m-9 1h4m4 0h1m-9 1h4m4 0h1m-9 1h4m4 0h1m-9 1h4m4 0h1m-9 1h4m4 0h1m-9 1h4m2 0h10m2 0h4m3 0h4M0 22h4m2 0h1m-7 1h4m2 0h1m-7 1h4m2 0h1m-1 1h1m-1 1h1m-1 1h1m-1 1h1m11 0h4m3 0h4M6 29h1m-1 1h1"/><path stroke="#000" d="M17 0h1m-1 1h1m-1 1h1m-1 1h1m-1 1h1m-1 1h1m-1 1h1m-1 1h1m-1 1h1m-1 1h1m13 1h1m-1 1h1m-6 1h1m1 0h1m1 0h2m-7 1h7m-1 1h1m-1 1h1m-1 1h1m-1 1h1m-1 1h1m-6 1h3m2 0h1m-1 1h1m-16 1h1m14 0h1m-16 1h1m14 0h1m-22 1h4m2 0h1m14 0h1m-21 1h3m2 0h1m14 0h1M0 25h6m4 0h4m2 0h1m4 0h1m9 0h1M9 26h3m1 0h1m2 0h1m2 0h3m4 0h3m2 0h1M9 27h2m5 0h1m14 0h1M9 28h1m6 0h1m14 0h1m-22 1h1m5 0h1m14 0h1m-16 1h1m14 0h1M6 31h26"/><path stroke="silver" d="M4 1h13M4 2h13M4 3h13M4 4h1m2 0h1m7 0h2M4 5h1m2 0h10M4 6h13M4 7h13M4 8h1m2 0h1m7 0h2M4 9h1m2 0h10M4 10h4m-4 1h4m-4 1h1m2 0h1m-4 1h1m2 0h1m-4 1h4m1 0h22M4 15h4m1 0h1m20 0h1M4 16h1m2 0h1m1 0h1m20 0h1M4 17h1m2 0h1m1 0h1m20 0h1M4 18h4m1 0h1m20 0h1M4 19h4m1 0h1m20 0h1M4 20h1m2 0h1m1 0h1m20 0h1M4 21h1m25 0h1M4 22h2m24 0h1M4 23h2m24 0h1M4 24h2m24 0h1m-1 1h1m-1 1h1m-1 1h1m-1 1h1m-1 1h1m-14 1h14"/><path stroke="#ff0" d="M5 4h1m7 13h1m6 7h1m6 0h1"/><path stroke="olive" d="M6 4h1M5 5h2m13 18h2m-3 1h1m1 0h1m-4 1h3"/><path stroke="red" d="M5 8h1m6 8h3m-3 1h1m1 0h1m-4 1h3"/><path stroke="maroon" d="M6 8h1M5 9h2m7 9h1m-3 1h3"/><path stroke="navy" d="M9 11h22M9 12h16M9 13h16m3 3h1m-1 1h1m-8 1h1m3 0h4m-10 1h3"/><path stroke="#0ff" d="M5 12h1m14 5h1m6 0h1"/><path stroke="#00f" d="M6 12h1m-2 1h2m19 3h2m-2 1h1"/><path stroke="#fff" d="M25 12h1m1 0h1m1 0h1m-20 3h20m-20 1h2m3 0h4m3 0h4m3 0h1m-20 1h2m3 0h4m3 0h4m3 0h1m-20 1h1m4 0h3m4 0h3m4 0h1m-20 1h2m3 0h4m3 0h4m3 0h1m-20 1h20m-13 1h1m4 0h3m4 0h1M7 22h9m1 0h13M7 23h3m4 0h2m1 0h3m2 0h5m2 0h1M7 24h4m3 0h2m1 0h2m3 0h4m3 0h1M7 25h3m4 0h2m1 0h1m4 0h3m4 0h1M7 26h2m3 0h1m1 0h2m1 0h2m3 0h4m3 0h1M7 27h2m2 0h5m1 0h13M7 28h2m1 0h6m1 0h1m4 0h3m4 0h1M7 29h3m1 0h5m1 0h13M7 30h9"/><path stroke="#0f0" d="M5 16h1"/><path stroke="teal" d="M6 16h1m12 0h3M5 17h2m12 0h1m1 0h1m-4 1h3"/><path stroke="#f0f" d="M5 20h1m21 3h2m-3 1h1m1 0h1m-2 1h1"/><path stroke="purple" d="M6 20h1m-2 1h1m19 4h2m1 0h1"/></svg>