<svg xmlns="http://www.w3.org/2000/svg" viewBox="0 -0.5 32 32" shape-rendering="crispEdges">
<path stroke="#808080" d="M0 0h1M11 0h9M9 1h2M20 1h2M7 2h2M22 2h2M6 3h1M5 4h1M4 5h1M3 6h1M2 7h1M2 8h1M1 9h1M1 10h1M0 11h1M0 12h1M18 12h3M0 13h1M16 13h2M21 13h1M0 14h1M15 14h1M0 15h1M14 15h1M0 16h1M14 16h1M0 17h1M13 17h1M0 18h1M13 18h1M0 19h1M13 19h1M1 20h1M14 20h1M1 21h1M14 21h1M2 22h1M15 22h1M24 22h1M2 23h1M24 23h2M3 24h1M21 24h1M25 24h1M4 25h1M22 25h1M5 26h1M23 26h1M6 27h1" />
<path stroke="#ffffff" d="M0 0h1M11 1h1M14 1h1M9 2h1M12 2h1M7 3h2M11 3h1M6 4h1M8 4h3M5 5h3M9 5h1M4 6h1M3 7h1M7 7h2M4 8h2M7 8h1M2 9h1M4 9h5M3 10h3M1 11h1M3 11h3M2 12h4M9 12h1M3 13h5M2 14h4M8 14h1M17 14h1M19 14h1M3 15h3M7 15h1M16 15h1M18 15h1M4 16h1M6 16h1M8 16h1M15 16h1M17 16h1M16 17h2M15 18h1M17 18h1M16 19h1M15 20h1M17 20h1M16 21h1M23 24h1M24 25h1" />
<path stroke="#008080" d="M0 0h1M12 1h2M15 1h1M17 1h3M17 2h1M9 3h2M10 5h1M5 6h1M4 7h1M16 8h1M21 8h1M9 10h1M2 11h1M22 11h1M1 12h1M1 13h1M1 14h1M22 14h1M2 15h1M23 15h1M1 16h1M3 16h1M2 17h1M24 17h1M1 18h1M3 18h1M24 18h1M2 19h1M10 19h2M24 19h1M4 20h1M23 20h1M4 21h1M15 21h1M22 21h2M16 22h1M21 22h2M3 23h1M18 23h3M4 24h1M12 24h1M12 25h1M13 26h1" />
<path stroke="#0000ff" d="M0 0h1M16 1h1M13 2h1M18 2h1M12 3h2M11 4h1M13 4h1M12 5h1M9 6h1M6 7h1M14 8h2M17 8h2M20 8h1M11 9h5M17 9h3M21 9h1M11 10h2M15 10h1M8 11h2M11 11h8M21 11h1M7 12h2M13 12h3M22 12h3M26 12h1M24 13h4M6 14h1M24 14h3M28 14h1M25 15h1M5 16h1M25 16h2M4 17h2M27 17h1M5 18h2M26 18h1M4 19h5M3 20h1M5 20h7M26 20h1M5 21h7M25 21h1M4 22h8M4 23h9M5 24h7M5 25h7M18 25h2M21 25h1M7 26h5M16 26h1M18 26h1M20 26h1M22 26h1M8 27h1M10 27h1M12 27h1M9 28h1M11 28h1" />
<path stroke="#c0c0c0" d="M0 0h1M10 2h1M7 4h1M7 6h1M5 7h1M3 8h1M6 8h1M3 9h1M2 10h1M6 10h1M10 11h1M6 12h1M2 13h1M18 13h1M20 13h1M16 14h1M21 14h1M1 15h1M6 15h1M15 15h1M20 15h1M22 15h1M2 16h1M7 16h1M19 16h1M21 16h1M23 16h1M1 17h1M3 17h1M6 17h1M14 17h1M18 17h1M20 17h1M22 17h1M2 18h1M4 18h1M7 18h2M19 18h1M21 18h1M23 18h1M1 19h1M3 19h1M9 19h1M14 19h1M18 19h1M20 19h1M22 19h1M19 20h1M21 20h1M18 21h1M20 21h1M17 22h1M19 22h1M23 23h1M22 24h1M24 24h1M23 25h1M25 26h1M26 27h1" />
<path stroke="#008000" d="M0 0h1M11 2h1M14 2h3M19 2h3M14 3h10M14 4h11M8 5h1M11 5h1M13 5h12M6 6h1M8 6h1M10 6h16M9 7h16M26 7h1M8 8h6M19 8h1M22 8h4M27 8h1M9 9h2M16 9h1M22 9h5M28 9h1M7 10h2M14 10h1M16 10h10M27 10h1M6 11h2M19 11h1M23 11h4M28 11h1M10 12h3M16 12h2M27 12h1M29 12h1M8 13h8M28 13h1M7 14h1M9 14h6M29 14h1M8 15h6M28 15h1M9 16h5M28 16h1M7 17h6M9 18h4M12 19h1M2 20h1M12 20h2M2 21h2M12 21h2M3 22h1M12 22h3M13 23h3M13 24h5M13 25h4M15 26h1M14 27h1" />
<path stroke="#000000" d="M0 0h1M24 3h1M25 4h1M26 5h1M27 6h1M28 7h1M28 8h1M29 9h1M29 10h1M30 11h1M30 12h1M22 13h1M30 13h1M23 14h1M30 14h1M24 15h1M30 15h1M24 16h1M30 16h1M25 17h1M30 17h1M25 18h1M30 18h1M25 19h1M30 19h1M24 20h1M29 20h1M24 21h1M29 21h1M23 22h1M25 22h1M28 22h1M16 23h2M21 23h2M26 23h1M28 23h1M18 24h3M27 24h1M28 25h1M29 26h1M30 27h1M7 28h2M22 28h2M31 28h1M9 29h2M20 29h2M31 29h1M11 30h9M31 30h1M28 31h3" />
<path stroke="#000080" d="M0 0h1M12 4h1M25 5h1M26 6h1M25 7h1M27 7h1M26 8h1M20 9h1M27 9h1M10 10h1M13 10h1M26 10h1M28 10h1M20 11h1M27 11h1M29 11h1M21 12h1M25 12h1M28 12h1M23 13h1M29 13h1M27 14h1M26 15h2M29 15h1M27 16h1M29 16h1M26 17h1M28 17h2M27 18h3M26 19h4M25 20h1M27 20h2M26 21h3M26 22h2M27 23h1M17 25h1M20 25h1M6 26h1M12 26h1M14 26h1M17 26h1M19 26h1M21 26h1M7 27h1M9 27h1M11 27h1M13 27h1M15 27h9M10 28h1M12 28h10M11 29h9" />
<path stroke="#00ffff" d="M0 0h1M19 13h1M18 14h1M20 14h1M17 15h1M19 15h1M21 15h1M16 16h1M18 16h1M20 16h1M22 16h1M15 17h1M19 17h1M21 17h1M23 17h1M14 18h1M16 18h1M18 18h1M20 18h1M22 18h1M15 19h1M17 19h1M19 19h1M21 19h1M23 19h1M16 20h1M18 20h1M20 20h1M22 20h1M17 21h1M19 21h1M21 21h1M18 22h1M20 22h1" />
<path stroke="#800000" d="M0 0h1M26 24h1M26 25h2M27 26h2M24 27h1M28 27h2M25 28h1M29 28h2M26 29h1M30 29h1M27 30h1M30 30h1" />
<path stroke="#ff0000" d="M0 0h1M25 25h1M24 26h1M26 26h1M25 27h1M27 27h1M26 28h1M28 28h1M27 29h1M29 29h1M28 30h2" />
<path stroke="#ff00ff" d="M0 0h1M27 28h1M28 29h1" />
</svg>