<svg xmlns="http://www.w3.org/2000/svg" viewBox="0 -0.5 16 16" shape-rendering="crispEdges">
<path stroke="#808080" d="M0 0h1M6 1h8M5 2h1M13 2h1M4 3h1M12 3h2M4 4h1M12 4h2M4 5h1M10 5h1M12 5h2M4 6h1M10 6h1M12 6h2M4 7h1M7 7h4M12 7h2M4 8h1M12 8h1M14 8h2M4 9h1M13 9h1M3 10h1M12 10h1M14 10h1M3 11h1M5 11h1M7 11h1M9 11h1M11 11h1M13 11h2M2 12h1M1 13h1" />
<path stroke="#c0c0c0" d="M0 0h1M6 2h7M11 3h1M11 4h1M11 5h1M11 6h1M11 7h1M6 8h6M14 9h1M4 10h8M13 10h1M4 12h1M6 12h1M8 12h1M10 12h1M12 12h1M12 13h1" />
<path stroke="#000000" d="M0 0h1M14 2h1M14 3h1M6 4h5M14 4h1M6 5h1M14 5h1M6 6h1M14 6h1M6 7h1M14 7h1M13 8h1M5 9h8M15 9h1M15 10h1M4 11h1M6 11h1M8 11h1M10 11h1M12 11h1M15 11h1M3 12h1M5 12h1M7 12h1M9 12h1M11 12h1M13 12h2M13 13h1M1 14h12" />
<path stroke="#ffffff" d="M0 0h1M5 3h6M5 4h1M5 5h1M5 6h1M5 7h1M5 8h1M2 13h10" />
<path stroke="#00ffff" d="M0 0h1M7 5h1" />
<path stroke="#008080" d="M0 0h1M8 5h2M7 6h3" />
</svg>