<svg xmlns="http://www.w3.org/2000/svg" viewBox="0 -0.5 32 32" shape-rendering="crispEdges">
<path stroke="#808080" d="M0 0h1M17 0h7M17 1h1M17 2h1M17 3h1M17 4h1M21 5h6M21 6h6M21 7h1M21 8h1M21 9h1M21 10h1M21 11h1M21 12h1M21 13h1M21 14h1M21 15h1M17 16h1M21 16h2M17 17h1M21 17h3M17 18h1M21 18h4M17 19h1M21 19h5M17 20h1M21 20h6M17 21h1M21 21h6M17 22h1M21 22h6M17 23h1M21 23h6M17 24h1M21 24h6M17 25h1M21 25h6M17 26h1M21 26h6M17 27h1M21 27h6M17 28h2M21 28h6M19 29h1M21 29h6M20 30h7" />
<path stroke="#ffffff" d="M0 0h1M18 1h1M18 2h2M18 3h1M20 3h1M18 4h1M21 4h6M18 5h1M4 6h2M18 6h1M3 7h1M2 8h1M4 8h4M1 9h1M3 9h1M2 10h1M23 11h1M23 12h2M24 13h1M26 13h1M26 14h1M25 15h1M18 16h1M26 16h1M18 17h1M18 18h1M18 19h1M18 20h1M18 21h1M18 22h1M18 23h1M18 24h1M18 25h1M18 26h1" />
<path stroke="#c0c0c0" d="M0 0h1M19 1h5M20 2h5M19 3h1M21 3h5M19 4h2M19 5h2M19 6h2M19 7h2M19 8h2M19 9h2M19 10h2M19 11h2M19 12h2M19 13h2M19 14h2M19 15h2M19 16h2M19 17h2M19 18h2M19 19h2M19 20h2M19 21h2M19 22h2M19 23h2M19 24h2M19 25h2M19 26h2M18 27h3M19 28h2M20 29h1" />
<path stroke="#000000" d="M0 0h1M24 1h1M25 2h1M26 3h1M27 4h1M27 5h1M27 6h1M18 7h1M26 7h2M18 8h1M27 8h1M18 9h1M28 9h1M18 10h1M29 10h1M0 11h1M18 11h1M30 11h1M1 12h1M18 12h1M31 12h1M2 13h1M18 13h1M31 13h1M3 14h1M18 14h1M31 14h1M4 15h15M22 15h1M31 15h1M23 16h1M31 16h1M24 17h1M31 17h1M25 18h1M31 18h1M26 19h6M27 20h1M27 21h1M27 22h1M27 23h1M27 24h1M27 25h1M27 26h1M27 27h1M27 28h1M18 29h1M27 29h1M19 30h1M27 30h1M20 31h8" />
<path stroke="#808000" d="M0 0h1M4 5h14M3 6h1M17 6h1M2 7h1M4 7h14M1 8h1M3 8h1M17 8h1M0 9h1M2 9h1M7 9h1M12 9h1M17 9h1M0 10h2M5 10h2M9 10h2M12 10h1M14 10h1M17 10h1M1 11h1M5 11h1M8 11h1M11 11h1M13 11h1M15 11h1M17 11h1M2 12h1M7 12h1M10 12h1M12 12h1M14 12h1M17 12h1M3 13h1M17 13h1M4 14h14" />
<path stroke="#ffff00" d="M0 0h1M6 6h11M8 8h9M4 9h3M8 9h4M13 9h4M3 10h2M7 10h2M11 10h1M13 10h1M15 10h2M2 11h3M6 11h2M9 11h2M12 11h1M14 11h1M16 11h1M3 12h4M8 12h2M11 12h1M13 12h1M15 12h2M4 13h13" />
<path stroke="#008000" d="M0 0h1M22 7h4M22 8h2M26 8h1M22 9h3M27 9h1M22 10h4M28 10h1M22 11h1M24 11h3M29 11h1M22 12h1M25 12h3M30 12h1M22 13h2M25 13h1M27 13h2M30 13h1M22 14h4M27 14h2M30 14h1M23 15h2M26 15h3M30 15h1M24 16h2M27 16h2M30 16h1M25 17h4M30 17h1M26 18h3M30 18h1" />
<path stroke="#00ff00" d="M0 0h1M24 8h2M25 9h2M26 10h2M27 11h2M28 12h2M29 13h1M29 14h1M29 15h1M29 16h1M29 17h1M29 18h1" />
</svg>