<svg xmlns="http://www.w3.org/2000/svg" width="32" height="32" shape-rendering="crispEdges" viewBox="0 -0.5 32 32"><path stroke="#000" d="M11 0h6M8 1h3m6 0h3M6 2h2m12 0h2M5 3h1m16 0h1M4 4h1m18 0h1M3 5h1m20 0h1M3 6h1m20 0h1M2 7h1m22 0h1M2 8h1m22 0h1M1 9h1m24 0h1M1 10h1m24 0h1M1 11h1m2 0h4m18 0h1M1 12h1m1 0h1m4 0h1m17 0h1M1 13h1m1 0h1m5 0h1m10 0h2m4 0h1M1 14h1m2 0h1m5 0h1m7 0h2m1 0h1m4 0h1M1 15h1m2 0h1m6 0h1m3 0h3m4 0h1m3 0h1M1 16h1m3 0h1m6 0h1m1 0h1m7 0h1m3 0h1M1 17h3m1 0h1m6 0h1m10 0h1m1 0h1M1 18h1m4 0h1m6 0h1m9 0h1m1 0h1M6 19h1m6 0h1m10 0h2M0 20h2m5 0h1m6 0h1m9 0h2M0 21h1m1 0h1m4 0h1m6 0h1m10 0h1M0 22h1m1 0h1m5 0h1m6 0h1m9 0h2M1 23h1m1 0h1m4 0h5m2 0h1m10 0h1M1 24h1m1 0h1m9 0h1m2 0h1m9 0h2M2 25h1m1 0h1m9 0h1m1 0h1m9 0h3M2 26h1m1 0h1m10 0h1m1 0h1m6 0h2m2 0h1M3 27h1m1 0h1m3 0h3m4 0h2m3 0h3m2 0h3M3 28h1m1 0h1m1 0h2m3 0h3m2 0h4m2 0h3M4 29h1m1 0h1m8 0h3m2 0h3M4 30h1m3 0h12M5 31h3"/><path stroke="#0f0" d="M11 1h1m0 2h1m-1 1h1m-1 1h1m-1 1h1M3 7h1m8 0h1M4 8h1m7 0h1M3 9h1m1 0h1m-4 1h1m1 0h1m1 0h1m-4 1h1"/><path stroke="#ff0" d="M12 1h3m-3 1h2m-1 1h2M6 4h1m6 0h1M5 5h1m1 0h1m5 0h2M4 6h1m1 0h1m1 0h1m4 0h1M5 7h1m1 0h1m1 0h1m3 0h2M6 8h1m1 0h1m1 0h1m2 0h1M7 9h1m1 0h1m1 0h1m1 0h2m-7 1h1m1 0h1m-2 1h1m-4 1h2m2 0h1m-4 1h2m-2 2h2m-5 1h1m6 0h1m-8 1h1m8 0h3m5 0h1M3 18h1m5 0h1m4 0h1m1 0h1m5 0h1M4 19h1m9 0h2m3 0h2M5 20h1m9 0h1m1 0h2m4 0h1M6 21h1m3 0h2m3 0h2m6 0h1M5 22h1m6 0h1m3 0h1m3 0h2m2 0h1M6 23h1m6 0h1m2 0h1m1 0h2M7 24h1m6 0h1m2 0h1m3 0h2m2 0h1M6 25h1m1 0h1m1 0h1m1 0h1m4 0h1m2 0h1m4 0h1M7 26h1m1 0h1m1 0h1m1 0h1m4 0h2m1 0h3M8 27h1m3 0h1m1 0h1m3 0h3m-6 1h1"/><path stroke="silver" d="M15 1h2m-7 1h1m3 0h4m1 0h1m-9 1h1m3 0h2m1 0h1m1 0h1m-7 1h2m1 0h1m1 0h1m1 0h1M4 5h1m10 0h2m1 0h1m1 0h1m2 0h1M5 6h1m8 0h2m1 0h1m1 0h1m2 0h1M4 7h1m1 0h1m8 0h2m1 0h1m2 0h1m1 0h1M3 8h1m1 0h1m1 0h1m6 0h2m1 0h1m2 0h1m1 0h1m1 0h1M2 9h1m1 0h1m1 0h1m1 0h1m6 0h2m2 0h1m1 0h1m1 0h1m1 0h1M3 10h1m1 0h1m1 0h1m1 0h1m1 0h1m3 0h1m2 0h1m1 0h1m1 0h1m1 0h1M2 11h1m5 0h1m1 0h1m2 0h2m2 0h1m1 0h1m1 0h1m1 0h1m1 0h1M9 12h1m2 0h1m2 0h1m1 0h9m-14 1h1m2 0h1m-3 1h2m-3 5h1M1 21h1m11 0h1M1 22h1m0 1h1m11 0h1M2 24h1m0 1h1m11 0h1M3 26h1m0 1h1m-1 1h1m22 0h1M5 29h1m18 0h1M5 30h2m14 0h1M9 31h1"/><path stroke="#0ff" d="M8 2h1m9 0h1M7 3h1m1 0h1m7 0h1m1 0h1m1 0h1M5 4h1m2 0h1m1 0h1m5 0h1m1 0h1m1 0h1m1 0h1M6 5h1m2 0h1m1 0h1m5 0h1m1 0h1m1 0h2M7 6h1m2 0h1m5 0h1m1 0h1m1 0h2M8 7h1m2 0h1m5 0h1m1 0h2M9 8h1m6 0h1m1 0h2M10 9h1m1 0h1m4 0h2m-7 1h1m3 0h2m-2 1h1"/><path stroke="teal" d="M9 2h1m1 0h1M6 3h1m1 0h1m1 0h1M7 4h1m1 0h1m1 0h1M8 5h1m1 0h1M9 6h1m1 0h1m-2 1h1m0 1h1"/><path stroke="gray" d="M23 6h1m-2 1h1m1 0h1m-4 1h1m1 0h1m-4 1h1m1 0h1m1 0h1m-12 1h2m4 0h1m1 0h1m1 0h1m1 0h1m-14 1h1m2 0h1m2 0h1m1 0h1m1 0h1m1 0h1m-14 1h1m4 0h1m-6 1h1m4 0h1M2 14h1m4 0h2m2 0h2m2 0h1M2 15h2m5 0h1m2 0h3M2 16h2m9 0h1m9 0h1M8 17h2m10 0h1m3 0h1m-15 1h1m7 0h2m4 0h1M1 19h1m14 0h2m-8 1h2m9 0h1m-10 1h1m6 0h2m5 0h1m-10 1h2m3 0h1m-3 1h2m5 0h1m-10 1h2m6 2h2m-4 1h2M9 28h3m9 0h2m3 0h1M7 29h8m3 0h2m3 0h1M7 30h1m12 0h1M8 31h1"/><path stroke="#f0f" d="M2 12h1m-1 1h1m7 0h1m6 0h3m2 0h4M3 14h1m12 0h2m4 0h4m-3 1h3m-2 1h2"/><path stroke="#fff" d="M4 12h2m-2 1h3m-2 1h2m2 0h1m10 0h1M5 15h2m3 0h1m7 0h4M6 16h5m4 0h7M6 17h2m2 0h2m4 0h4m2 0h1M2 18h1m1 0h1m2 0h2m2 0h1m3 0h1m1 0h1m2 0h2M2 19h2m1 0h1m1 0h5m6 0h1m2 0h3M2 20h3m3 0h2m2 0h1m3 0h1m2 0h2m1 0h1M3 21h3m2 0h2m7 0h2m2 0h2m1 0h1M3 22h2m1 0h1m2 0h3m1 0h1m5 0h1m3 0h1M4 23h2m1 0h1m9 0h1m4 0h4M4 24h3m1 0h1m11 0h1m2 0h2M5 25h1m1 0h1m1 0h1m1 0h1m6 0h2m1 0h4M5 26h2m1 0h1m1 0h1m1 0h1m7 0h1M6 27h2m5 0h1m-8 1h1"/><path stroke="olive" d="M5 18h1m6 0h1m-7 2h1m6 0h1m-7 2h1m6 0h1m-6 2h4m2 0h1m-3 1h1m0 1h1m1 0h1m-2 1h1m0 1h1"/></svg>