<svg xmlns="http://www.w3.org/2000/svg" width="16" height="16" shape-rendering="crispEdges" viewBox="0 -0.5 16 16"><path stroke="#000" d="M6 0h3M4 1h2m3 0h2M3 2h1m7 0h1M2 3h1m9 0h1M2 4h1m9 0h1M1 5h1m11 0h1M1 6h4m4 0h2m2 0h1M1 7h2m2 0h1m1 0h2m1 0h1m2 0h1M0 8h2m1 0h1m2 0h1m4 0h2M0 9h1m2 0h1m3 0h1m4 0h1M0 10h1m3 0h1m2 0h1m5 0h1M1 11h1m2 0h1m3 0h1m4 0h1M1 12h1m3 0h2m2 0h1m4 0h1M2 13h1m4 0h3m2 0h3M2 14h1m1 0h8m-9 1h2"/><path stroke="#ff0" d="M6 1h1M6 2h1M3 3h1m2 0h1M3 4h2m1 0h1M2 5h1m1 0h1M4 8h2m4 0h1M2 9h1m3 0h1m-4 1h1m1 0h1m5 0h1m-9 1h1m3 0h1m1 0h1m-6 1h1m3 0h1m1 0h1m1 0h2m-4 1h1"/><path stroke="silver" d="M7 1h2M7 2h1M7 3h1m2 0h2M7 4h1m1 0h3M6 5h1m1 0h5M8 6h1M6 7h1m4 0h1M2 8h1M1 9h1m11 0h1M1 10h1m6 0h1m-7 1h1m11 0h1M2 12h1m0 1h1m1 0h2m-4 1h1m2 1h1"/><path stroke="#0ff" d="M4 2h2m2 0h3M4 3h2m2 0h2M5 4h1m2 0h1"/><path stroke="#0f0" d="M3 5h1"/><path stroke="gray" d="M7 5h1M5 6h1m3 3h2m-9 1h1m7 1h2m-9 1h1m0 1h1m6 0h1m-7 2h1"/><path stroke="#fff" d="M6 6h2M3 7h2m4 0h1M7 8h3M4 9h2m2 0h1m2 0h1m-6 1h1m2 0h2m1 0h1m-8 1h2m5 0h1m-6 1h1m3 0h1"/><path stroke="#f0f" d="M11 6h2m-1 1h1"/></svg>