<svg xmlns="http://www.w3.org/2000/svg" viewBox="0 -0.5 16 16" shape-rendering="crispEdges">
<path stroke="#000000" d="M0 0h1M6 0h3M4 1h2M9 1h2M3 2h1M11 2h1M2 3h1M12 3h1M2 4h1M12 4h1M1 5h1M13 5h1M1 6h4M9 6h2M13 6h1M1 7h2M5 7h1M7 7h2M10 7h1M13 7h1M0 8h2M3 8h1M6 8h1M11 8h2M0 9h1M3 9h1M7 9h1M12 9h1M0 10h1M4 10h1M7 10h1M13 10h1M1 11h1M4 11h1M8 11h1M13 11h1M1 12h1M5 12h2M9 12h1M14 12h1M2 13h1M7 13h3M12 13h3M2 14h1M4 14h8M3 15h2" />
<path stroke="#ffff00" d="M0 0h1M6 1h1M6 2h1M3 3h1M6 3h1M3 4h2M6 4h1M2 5h1M4 5h1M4 8h2M10 8h1M2 9h1M6 9h1M3 10h1M5 10h1M11 10h1M3 11h1M7 11h1M9 11h1M4 12h1M8 12h1M10 12h1M12 12h2M10 13h1" />
<path stroke="#c0c0c0" d="M0 0h1M7 1h2M7 2h1M7 3h1M10 3h2M7 4h1M9 4h3M6 5h1M8 5h5M8 6h1M6 7h1M11 7h1M2 8h1M1 9h1M13 9h1M1 10h1M8 10h1M2 11h1M14 11h1M2 12h1M3 13h1M5 13h2M3 14h1M6 15h1" />
<path stroke="#00ffff" d="M0 0h1M4 2h2M8 2h3M4 3h2M8 3h2M5 4h1M8 4h1" />
<path stroke="#00ff00" d="M0 0h1M3 5h1" />
<path stroke="#808080" d="M0 0h1M7 5h1M5 6h1M9 9h2M2 10h1M10 11h2M3 12h1M4 13h1M11 13h1M5 15h1" />
<path stroke="#ffffff" d="M0 0h1M6 6h2M3 7h2M9 7h1M7 8h3M4 9h2M8 9h1M11 9h1M6 10h1M9 10h2M12 10h1M5 11h2M12 11h1M7 12h1M11 12h1" />
<path stroke="#ff00ff" d="M0 0h1M11 6h2M12 7h1" />
</svg>