<svg xmlns="http://www.w3.org/2000/svg" width="32" height="32" shape-rendering="crispEdges" viewBox="0 -0.5 32 32"><path stroke="#000" d="M3 0h15M3 1h1m13 0h2M3 2h1m13 0h1m1 0h1M3 3h1m13 0h1m2 0h1M3 4h1m2 0h16M3 5h1m2 0h3m9 0h1m2 0h1M3 6h1m2 0h3m9 0h1m2 0h1M3 7h1m2 0h13m2 0h3M3 8h1m17 0h1m2 0h2M3 9h1m17 0h1m4 0h2M3 10h1m2 0h13m2 0h1m6 0h2M3 11h1m2 0h5m4 0h2m1 0h1m2 0h1m8 0h2M3 12h1m2 0h3m1 0h2m2 0h1m2 0h2m2 0h1m8 0h1M3 13h1m2 0h8m5 0h3m7 0h1M3 14h1m10 0h2m5 0h2m5 0h1M3 15h1m12 0h2m5 0h2m2 0h1m1 0h1M3 16h1m2 0h14m4 0h3m3 0h1M3 17h1m2 0h3m9 0h1m1 0h2m1 0h2m1 0h1m1 0h2m1 0h1M2 18h2m2 0h3m9 0h1m2 0h7m3 0h1M1 19h1m1 0h1m2 0h13m2 0h1m1 0h3m5 0h1M0 20h1m1 0h2m17 0h3m7 0h1M0 21h1m2 0h1m17 0h1m9 0h1M0 22h1m1 0h2m17 0h1m9 0h1M0 23h2m1 0h19m9 0h1M0 24h1m1 0h2m6 0h2m6 0h1m11 0h1M1 25h1m2 0h1m7 0h2m3 0h1m10 0h2M2 26h1m2 0h1m8 0h3m9 0h2M1 27h1m1 0h1m2 0h2m8 0h1m7 0h2M0 28h1m1 0h1m5 0h2m6 0h1m5 0h2M1 29h1m8 0h2m4 0h1m3 0h2m-10 1h2m2 0h1m1 0h2m-6 1h4"/><path stroke="#fff" d="M4 1h13M4 2h13m1 0h1M4 3h13m1 0h2M4 4h2M4 5h2m3 0h9m1 0h2M4 6h2m3 0h9m1 0h2M4 7h2m13 0h2M4 8h17m1 0h2M4 9h17m1 0h4M4 10h2m13 0h2m1 0h6M4 11h2m5 0h4m2 0h1m1 0h2m1 0h8M4 12h2m3 0h1m2 0h2m1 0h2m2 0h2m1 0h8M4 13h2m8 0h5m3 0h7M4 14h10m2 0h5m2 0h5M4 15h12m2 0h5m2 0h2m1 0h1M4 16h2m14 0h4m3 0h3M4 17h2m3 0h9m1 0h1m2 0h1m2 0h1m1 0h1m2 0h1M4 18h2m3 0h9m1 0h2m7 0h3M2 19h1m1 0h2m13 0h2m1 0h1m3 0h5M1 20h1m2 0h17m3 0h7M1 21h2m1 0h17m1 0h9M1 22h1m2 0h17m1 0h9M2 23h1m19 0h9M4 24h6m2 0h6m1 0h11M5 25h7m2 0h3m1 0h10M6 26h8m3 0h9M8 27h8m1 0h7m-14 1h6m1 0h5m-10 1h4m1 0h3m-6 1h2m1 0h1"/></svg>