<svg xmlns="http://www.w3.org/2000/svg" width="32" height="32" shape-rendering="crispEdges" viewBox="0 -0.5 32 32"><path stroke="gray" d="M3 0h15M3 1h1m13 0h1M3 2h1m13 0h2M3 3h1m13 0h1m1 0h1M3 4h1m2 0h12M3 5h1m2 0h3m9 0h1M3 6h1m2 0h3m9 0h1M3 7h1m2 0h13m3 0h2M3 8h1m20 0h2M3 9h1m22 0h2M3 10h1m2 0h2m7 0h4m9 0h2M3 11h1m2 0h3m2 0h1m6 0h1m11 0h1M3 12h1m2 0h3m3 0h1M3 13h1m2 0h6m-9 1h1m-1 1h1m24 0h2M3 16h1m2 0h12m12 0h1M3 17h1m2 0h3m9 0h1m9 0h3M2 18h2m2 0h3m9 0h1m8 0h4M1 19h1m1 0h1m2 0h13m7 0h5M0 20h1m1 0h2m18 0h9M0 21h1m2 0h1m18 0h9M0 22h4m18 0h9M0 23h1m21 0h9M4 24h1m13 0h12m-13 1h11m-12 1h10m-10 1h8m-8 1h6m-6 1h4m-4 1h2"/><path stroke="#fff" d="M4 1h13M4 2h13M4 3h13m1 0h1M4 4h2M4 5h2m3 0h9m1 0h1M4 6h2m3 0h9m1 0h1M4 7h2m13 0h1M4 8h16m2 0h2M4 9h16m2 0h4M4 10h2m13 0h1m2 0h6M4 11h2m8 0h1m2 0h1m1 0h1m2 0h8M4 12h2m3 0h1m6 0h1m2 0h1m2 0h8M4 13h2m12 0h1m3 0h7M4 14h10m6 0h1m2 0h5M4 15h12m6 0h1m2 0h2M4 16h2m18 0h1M4 17h2m3 0h9m1 0h1M4 18h2m3 0h9m1 0h1M2 19h1m1 0h2m13 0h1M1 20h1m2 0h16M1 21h2m1 0h16M5 24h1m4 0h2m-7 1h1m6 0h2m0 1h2"/><path stroke="#000" d="M18 1h1m0 1h1m0 1h1m-3 1h4m-1 1h1m-1 1h1m-1 1h1m-1 1h1m-1 1h1M8 10h7m6 0h1M9 11h2m10 0h1m9 0h1m-22 1h2m9 0h1m8 0h1m-19 1h2m7 0h1m7 0h1m-16 1h2m12 0h1m-13 1h2m9 0h1m-10 1h2m6 0h1m-7 1h2m4 0h1m4 0h1m-11 1h3m2 0h1m4 0h1m-11 1h1m2 0h2m5 0h1m-11 1h1m9 0h1m-11 1h1m9 0h1m-11 1h1m9 0h1M1 23h1m1 0h19m9 0h1M0 24h1m1 0h2m26 0h1M1 25h1m2 0h1m23 0h2M2 26h1m2 0h1m20 0h2M1 27h1m1 0h1m2 0h2m16 0h2M0 28h1m1 0h1m5 0h2m12 0h2M1 29h1m8 0h2m8 0h2m-10 1h2m4 0h2m-6 1h4"/><path stroke="silver" d="M20 5h1m-1 1h1m-1 1h1m-1 1h1m-1 1h1m-1 1h1m-9 1h2m6 0h1m-1 1h1m6 4h3m-3 1h1m-8 1h1m-1 1h1m1 0h2m-4 1h1m-1 1h1M4 22h17M2 23h1m3 1h4m2 0h6M6 25h6m2 0h3M6 26h8m-6 1h8m-6 1h6m-4 1h4m-2 1h2"/><path stroke="olive" d="M15 11h2m-4 1h2m2 0h2m-5 1h1m4 0h2m-5 1h1m4 0h2m-5 1h1m4 0h2m-5 1h1m1 1h1"/><path stroke="#ff0" d="M15 12h1m-1 1h3m-1 1h3m-1 1h3m-1 1h3m-1 1h1"/><path stroke="maroon" d="M25 16h1m-2 1h1m-1 1h2"/><path stroke="red" d="M25 17h1"/></svg>