<svg xmlns="http://www.w3.org/2000/svg" width="32" height="32" shape-rendering="crispEdges" viewBox="0 -0.5 32 32"><path stroke="#000" d="M3 0h20M3 1h1m18 0h2M3 2h1m18 0h1m1 0h1M3 3h1m18 0h1m2 0h1M3 4h1m18 0h1m3 0h1M3 5h1m18 0h1m4 0h1M3 6h1m3 0h22M3 7h1m3 0h4m13 0h1m3 0h1M3 8h1m3 0h4m13 0h1m3 0h1M3 9h1m3 0h18m3 0h1M3 10h1m24 0h1M3 11h1m24 0h1M3 12h1m24 0h1M3 13h1m24 0h1M3 14h1m3 0h18m3 0h1M3 15h1m3 0h6m4 0h2m5 0h1m3 0h1M3 16h1m3 0h4m1 0h1m3 0h1m2 0h2m3 0h1m3 0h1M3 17h1m3 0h7m1 0h1m5 0h4m3 0h1M3 18h1m10 0h2m7 0h2m3 0h1M3 19h1m12 0h2m7 0h2m1 0h1M3 20h1m14 0h2m7 0h2M3 21h1m16 0h2m7 0h2M3 22h1m3 0h17m4 0h2m1 0h1M3 23h1m3 0h4m13 0h2m2 0h4M3 24h1m3 0h4m13 0h1m1 0h6M3 25h1m3 0h18m3 0h3M3 26h1m24 0h1M3 27h1m24 0h1M3 28h1m24 0h1M3 29h1m24 0h1M3 30h1m24 0h1M3 31h26"/><path stroke="#fff" d="M4 1h18M4 2h18m1 0h1M4 3h18m1 0h2M4 4h18m1 0h3M4 5h18m1 0h4M4 6h3M4 7h3m4 0h13m1 0h3M4 8h3m4 0h13m1 0h3M4 9h3m18 0h3M4 10h24M4 11h24M4 12h24M4 13h24M4 14h3m18 0h3M4 15h3m6 0h4m2 0h5m1 0h3M4 16h3m4 0h1m1 0h3m1 0h2m2 0h3m1 0h3M4 17h3m7 0h1m1 0h5m4 0h3M4 18h10m2 0h7m2 0h3M4 19h12m2 0h7m2 0h1M4 20h14m2 0h7M4 21h16m2 0h7M4 22h3m17 0h4m2 0h1M4 23h3m4 0h13m2 0h2M4 24h3m4 0h13m1 0h1M4 25h3m18 0h3M4 26h24M4 27h24M4 28h24M4 29h24M4 30h24"/></svg>