<svg xmlns="http://www.w3.org/2000/svg" width="16" height="16" shape-rendering="crispEdges" viewBox="0 -0.5 16 16"><path stroke="#000" d="M0 0h11M0 1h1m9 0h2M0 2h1m9 0h1m1 0h1M0 3h1m2 0h11M0 4h1m2 0h2m8 0h1M0 5h1m12 0h1M0 6h1m12 0h1M0 7h1m2 0h8m2 0h1M0 8h1m2 0h4m2 0h2m2 0h1M0 9h1m5 0h1m1 0h1m2 0h3M0 10h1m6 0h2m4 0h2M0 11h1m2 0h8m1 0h2m1 0h1M0 12h1m2 0h2m6 0h5M0 13h1m12 0h2M0 14h1m12 0h1M0 15h14"/><path stroke="#fff" d="M1 1h9M1 2h9m1 0h1M1 3h2M1 4h2m2 0h8M1 5h12M1 6h12M1 7h2m8 0h2M1 8h2m4 0h2m2 0h2M1 9h5m1 0h1m1 0h2M1 10h6m2 0h4M1 11h2m8 0h1m2 0h1M1 12h2m2 0h6M1 13h12M1 14h12"/></svg>