<svg xmlns="http://www.w3.org/2000/svg" width="16" height="16" shape-rendering="crispEdges" viewBox="0 -0.5 16 16"><path stroke="gray" d="M0 0h11M0 1h1m10 0h1M0 2h1m11 0h1M0 3h1m2 0h6M0 4h1m2 0h2M0 5h1M0 6h1M0 7h1m2 0h1m5 0h2M0 8h1m2 0h2m1 0h1M0 9h1m-1 1h1m-1 1h1m2 0h6m-9 1h1m2 0h2m-5 1h1m-1 1h1"/><path stroke="#fff" d="M1 1h9M1 2h9m1 0h1M1 3h2M1 4h2m8 0h1M1 5h11M1 6h11M1 7h2m8 0h1M1 8h2m4 0h2m2 0h1M1 9h5m4 0h1M1 10h6m5 0h1M1 11h2m-2 1h2m-2 1h11"/><path stroke="silver" d="M10 1h1m-1 1h1M9 3h1M5 4h6m1 0h1m-1 1h1m-1 1h1m-1 1h1m-1 1h1m-8 4h6m1 1h1M1 14h12"/><path stroke="#000" d="M10 3h4m-1 1h1m-1 1h1m-1 1h1M4 7h5m4 0h1M5 8h1m7 0h1M6 9h1m6 0h1m-7 1h2m5 0h1m-6 1h2m4 0h1m-5 1h2m2 0h1m-3 1h2m-2 1h1M0 15h14"/><path stroke="olive" d="M9 8h2M7 9h2m2 0h2m-4 1h1m3 0h1m-3 1h1m1 1h1"/><path stroke="#ff0" d="M9 9h1m0 1h2m0 1h1"/><path stroke="maroon" d="M13 11h1m0 1h1"/><path stroke="red" d="M14 11h1"/></svg>