<svg xmlns="http://www.w3.org/2000/svg" viewBox="0 -0.5 16 16" shape-rendering="crispEdges">
<path stroke="#000000" d="M0 0h1M0 0h11M0 1h1M10 1h2M0 2h1M10 2h1M12 2h1M0 3h1M3 3h11M0 4h1M3 4h2M13 4h1M0 5h1M13 5h1M0 6h1M13 6h1M0 7h1M3 7h8M13 7h1M0 8h1M3 8h4M9 8h2M13 8h1M0 9h1M6 9h1M8 9h1M11 9h3M0 10h1M7 10h2M13 10h2M0 11h1M3 11h8M12 11h2M15 11h1M0 12h1M3 12h2M11 12h5M0 13h1M13 13h2M0 14h1M13 14h1M0 15h14" />
<path stroke="#ffffff" d="M0 0h1M1 1h9M1 2h9M11 2h1M1 3h2M1 4h2M5 4h8M1 5h12M1 6h12M1 7h2M11 7h2M1 8h2M7 8h2M11 8h2M1 9h5M7 9h1M9 9h2M1 10h6M9 10h4M1 11h2M11 11h1M14 11h1M1 12h2M5 12h6M1 13h12M1 14h12" />
</svg>