<svg xmlns="http://www.w3.org/2000/svg" width="16" height="16" shape-rendering="crispEdges" viewBox="0 -0.5 16 16"><path stroke="gray" d="M0 0h8M0 1h1m7 0h1m1 0h3M0 2h1m1 0h6m5 0h2M0 3h1m1 0h1M0 4h1M0 5h1m5 0h2M0 6h1m1 0h1m1 0h1m9 0h1M0 7h1m14 0h1M0 8h1m1 0h4m8 0h1M0 9h1m1 0h1m10 0h2M0 10h1m11 0h3m-5 1h5M5 12h1m2 0h5m-6 1h4m-4 1h2"/><path stroke="#fff" d="M1 1h6M1 2h1m8 0h3M1 3h1m6 0h1m1 0h5M1 4h8m1 0h4M1 5h1m6 0h1m1 0h3M1 6h1m3 0h1m2 0h1m2 0h1M1 7h3M1 8h1M1 9h1m-1 1h8m-3 2h1"/><path stroke="silver" d="M7 1h1M3 3h5m2 3h1m2 0h1m-4 1h2m1 0h2m-3 1h2M3 9h5m-6 3h3m2 0h1m-4 1h3m-1 1h1"/><path stroke="#000" d="M8 2h2M9 3h1m5 0h1M9 4h1m4 0h1M2 5h4m3 0h1m3 0h1M3 6h1m5 0h1m2 0h1M4 7h2m6 0h1M6 8h2m2 0h2m3 0h1M8 9h2m2 0h1m2 0h1m-7 1h3m3 0h1M0 11h10m5 0h1M1 12h1m11 0h2M2 13h2m7 0h2m-9 1h2m3 0h2m-5 1h3"/><path stroke="olive" d="M6 6h2m0 1h2"/><path stroke="#ff0" d="M6 7h2m0 1h2"/><path stroke="maroon" d="M10 9h1"/><path stroke="red" d="M11 9h1"/></svg>