<svg xmlns="http://www.w3.org/2000/svg" viewBox="0 -0.5 16 16" shape-rendering="crispEdges">
<path stroke="#000000" d="M0 0h1M0 0h8M0 1h1M7 1h1M10 1h3M0 2h1M2 2h8M13 2h2M0 3h1M2 3h1M9 3h1M15 3h1M0 4h1M9 4h1M14 4h1M0 5h1M2 5h6M9 5h2M13 5h1M0 6h1M2 6h1M4 6h1M6 6h2M9 6h1M11 6h2M14 6h1M0 7h1M5 7h1M8 7h2M15 7h1M0 8h1M2 8h6M10 8h2M14 8h2M0 9h1M2 9h1M8 9h6M15 9h1M0 10h1M9 10h1M11 10h1M15 10h1M0 11h10M15 11h1M1 12h1M7 12h1M13 12h2M2 13h2M7 13h1M11 13h2M4 14h2M7 14h1M9 14h2M6 15h3" />
<path stroke="#ffffff" d="M0 0h1M1 1h6M1 2h1M10 2h3M1 3h1M3 3h6M10 3h5M1 4h8M10 4h4M1 5h1M8 5h1M11 5h2M1 6h1M3 6h1M5 6h1M8 6h1M10 6h1M13 6h1M1 7h4M6 7h2M10 7h5M1 8h1M8 8h2M12 8h2M1 9h1M3 9h5M14 9h1M1 10h8M10 10h1M12 10h3M10 11h5M2 12h5M8 12h5M4 13h3M8 13h3M6 14h1M8 14h1" />
</svg>