<svg xmlns="http://www.w3.org/2000/svg" width="16" height="16" shape-rendering="crispEdges" viewBox="0 -0.5 16 16"><path stroke="#000" d="M0 0h8M0 1h1m6 0h1m2 0h3M0 2h1m1 0h8m3 0h2M0 3h1m1 0h1m6 0h1m5 0h1M0 4h1m8 0h1m4 0h1M0 5h1m1 0h6m1 0h2m2 0h1M0 6h1m1 0h1m1 0h1m1 0h2m1 0h1m1 0h2m1 0h1M0 7h1m4 0h1m2 0h2m5 0h1M0 8h1m1 0h6m2 0h2m2 0h2M0 9h1m1 0h1m5 0h6m1 0h1M0 10h1m8 0h1m1 0h1m3 0h1M0 11h10m5 0h1M1 12h1m5 0h1m5 0h2M2 13h2m3 0h1m3 0h2m-9 1h2m1 0h1m1 0h2m-5 1h3"/><path stroke="#fff" d="M1 1h6M1 2h1m8 0h3M1 3h1m1 0h6m1 0h5M1 4h8m1 0h4M1 5h1m6 0h1m2 0h2M1 6h1m1 0h1m1 0h1m2 0h1m1 0h1m2 0h1M1 7h4m1 0h2m2 0h5M1 8h1m6 0h2m2 0h2M1 9h1m1 0h5m6 0h1M1 10h8m1 0h1m1 0h3m-5 1h5M2 12h5m1 0h5m-9 1h3m1 0h3m-5 1h1m1 0h1"/></svg>