<svg xmlns="http://www.w3.org/2000/svg" width="32" height="32" shape-rendering="crispEdges" viewBox="0 -0.5 32 32"><path stroke="gray" d="M3 0h20M3 1h1m18 0h1M3 2h1m18 0h2M3 3h1m18 0h1m1 0h1M3 4h1m18 0h1m2 0h1M3 5h1m18 0h1m3 0h1M3 6h1m3 0h16M3 7h1m3 0h4m13 0h1M3 8h1m3 0h4m13 0h1M3 9h1m3 0h18M3 10h1m-1 1h1m-1 1h1m-1 1h1m-1 1h1m3 0h3m7 0h8M3 15h1m3 0h4m2 0h1m10 0h1M3 16h1m3 0h4m2 0h2m9 0h1M3 17h1m3 0h6m1 0h1m8 0h2M3 18h1m-1 1h1m-1 1h1m-1 1h1m-1 1h1m3 0h15M3 23h1m3 0h4m-8 1h1m3 0h4m13 0h1M3 25h1m3 0h18M3 26h1m-1 1h1m-1 1h1m-1 1h1m-1 1h1"/><path stroke="#fff" d="M4 1h18M4 2h18M4 3h18M4 4h18m1 0h1M4 5h18m1 0h2M4 6h3M4 7h3m4 0h13m1 0h2M4 8h3m4 0h13m1 0h2M4 9h3m18 0h2M4 10h23M4 11h23M4 12h23M4 13h23M4 14h3m18 0h2M4 15h3m9 0h1m2 0h5m1 0h2M4 16h3m4 0h1m6 0h1m2 0h3m1 0h2M4 17h3m13 0h1m4 0h2M4 18h10m8 0h1m2 0h2M4 19h12m8 0h1M4 20h14m8 0h1M4 21h16m8 0h1M4 22h3m-3 1h3m4 0h13M4 24h3m4 0h13m1 0h1M4 25h3m18 0h2M4 26h23M4 27h23M4 28h23M4 29h23"/><path stroke="#000" d="M23 1h1m0 1h1m0 1h1m0 1h1m0 1h1m-5 1h6m-1 1h1m-1 1h1m-1 1h1m-1 1h1m-1 1h1m-1 1h1m-1 1h1m-19 1h7m11 0h1m-18 1h2m15 0h1m-17 1h1m15 0h1m-16 1h1m14 0h1m-15 1h2m12 0h1m-13 1h2m10 0h1m-11 1h2m0 1h2m7 0h2m-9 1h2m4 0h1m2 0h1m-8 1h2m2 0h1m2 0h1m-6 1h3m2 0h1m-4 1h3m-3 1h1m-1 1h1m-1 1h1m-1 1h1m-1 1h1M3 31h26"/><path stroke="silver" d="M23 3h1m0 1h1m0 1h1m1 2h1m-1 1h1m-1 1h1m-1 1h1m-1 1h1m-1 1h1m-1 1h1m-1 1h1m-14 1h2m11 0h1m-13 1h1m11 0h1m-1 1h1m-1 1h1m-1 1h1m-1 6h1m-1 1h1m-1 1h1m-1 1h1m-1 1h1M4 30h24"/><path stroke="olive" d="M17 15h2m-3 1h1m2 0h2m-6 1h2m4 0h2m-7 1h2m5 0h2m-7 1h2m5 0h2m-7 1h2m5 0h2m-7 1h2m0 1h2m0 1h2"/><path stroke="#ff0" d="M17 16h1m-1 1h3m-2 1h4m-2 1h4m-2 1h4m-2 1h4m-2 1h2"/><path stroke="maroon" d="M29 22h1m-1 1h2m-2 1h2"/><path stroke="red" d="M30 22h1"/></svg>