<svg xmlns="http://www.w3.org/2000/svg" width="16" height="16" shape-rendering="crispEdges" viewBox="0 -0.5 16 16"><path stroke="gray" d="M10 0h3M9 1h1m3 0h2M5 2h4M3 3h2m2 0h1M2 4h1m3 0h2M1 5h1m2 0h2m8 0h1M0 6h1m2 0h1m2 0h1m1 0h1m6 0h1M0 7h1m1 0h1m2 0h1m3 0h1m4 0h1M0 8h2m2 0h1m3 0h1m5 0h1M0 9h2m5 0h1m-7 1h1m5 2h1m-1 1h1m-7 1h1"/><path stroke="#fff" d="M10 1h3M9 2h6M5 3h2m1 0h6M3 4h1m4 0h5M2 5h1m3 0h1m3 0h2M1 6h1m2 0h1M1 7h1m1 0h1m3 0h1M2 8h1m3 0h1M2 9h2m7 0h2m-9 1h2m5 0h2m-7 1h1m4 0h2m-2 1h2m-2 1h2"/><path stroke="#000" d="M15 2h1m-2 1h1m-2 1h1m-2 1h1M7 6h1m4 0h1M6 7h1m1 0h1m6 0h1M5 8h1m1 0h1m7 0h1M6 9h1m8 0h1M0 10h1m0 1h1m-2 1h1m1 0h2m-3 1h1m2 0h2m-6 1h1m5 0h3"/><path stroke="silver" d="M4 4h2M3 5h1m3 0h3m3 0h1M2 6h1m2 0h1m3 0h3m1 0h2M4 7h1m5 0h4M3 8h1m5 0h1M4 9h2m2 0h1m-7 1h2m2 0h2m-6 1h4m1 0h1m-4 1h3m-1 1h1"/><path stroke="red" d="M10 8h4M9 9h2m2 0h2m-7 1h3m2 0h3m-8 1h3m2 0h3m-8 1h3m2 0h3m-8 1h3m2 0h3m-7 1h6m-5 1h4"/></svg>