<svg xmlns="http://www.w3.org/2000/svg" viewBox="0 -0.5 16 16" shape-rendering="crispEdges">
<path stroke="#808080" d="M0 0h1M4 0h7M3 1h1M2 2h7M2 3h1M9 3h1M2 4h1M9 4h1M2 5h1M2 6h1M2 7h1M2 8h1M2 9h1M2 10h1M2 11h1M2 12h1M2 13h1M2 14h1" />
<path stroke="#000000" d="M0 0h1M11 0h2M10 1h1M12 1h2M9 2h1M11 2h1M13 2h2M10 3h1M12 3h1M14 3h1M11 4h1M13 4h2M9 5h4M14 5h1M12 6h1M14 6h1M12 7h1M14 7h1M12 8h1M14 8h1M12 9h1M14 9h1M12 10h1M14 10h1M12 11h1M14 11h1M12 12h1M14 12h1M12 13h1M14 13h1M12 14h2M2 15h11" />
<path stroke="#c0c0c0" d="M0 0h1M4 1h6M11 1h1M10 2h1M12 2h1M11 3h1M13 3h1M12 4h1M13 5h1M11 6h1M13 6h1M11 7h1M13 7h1M11 8h1M13 8h1M11 9h1M13 9h1M11 10h1M13 10h1M11 11h1M13 11h1M11 12h1M13 12h1M11 13h1M13 13h1M3 14h9" />
<path stroke="#ffffff" d="M0 0h1M3 3h6M3 4h6M10 4h1M3 5h6M3 6h8M3 7h8M3 8h8M3 9h8M3 10h8M3 11h8M3 12h8M3 13h8" />
</svg>