<svg xmlns="http://www.w3.org/2000/svg" viewBox="0 -0.5 32 32" shape-rendering="crispEdges">
<path stroke="#808080" d="M0 0h1M0 0h17M0 1h1M16 1h1M0 2h1M16 2h2M0 3h1M16 3h1M18 3h1M0 4h1M16 4h1M19 4h1M0 5h1M16 5h1M20 5h1M0 6h1M16 6h1M0 7h1M0 8h1M0 9h1M0 10h1M0 11h1M0 12h1M0 13h1M0 14h1M0 15h1M0 16h1M0 17h1M0 18h1M7 18h1M9 18h1M0 19h1M0 20h1M13 20h1M0 21h1M10 21h1M0 22h1M0 23h1M0 24h1M3 24h1M0 25h1M2 25h1M4 25h2M0 26h1M2 26h1M6 26h2M15 26h1M0 27h1M2 27h1M8 27h1M13 27h3M11 28h3M9 29h3M9 30h1" />
<path stroke="#ffffff" d="M0 0h1M1 1h15M1 2h15M1 3h15M1 4h15M17 4h1M1 5h7M13 5h3M17 5h2M1 6h15M1 7h20M1 8h20M1 9h2M19 9h2M1 10h20M1 11h2M19 11h2M1 12h20M1 13h2M19 13h2M1 14h20M1 15h2M27 15h1M1 16h5M11 16h5M17 16h12M1 17h2M1 18h3M15 18h1M1 19h2M8 19h1M1 20h3M17 20h4M1 21h2M19 21h2M1 22h2M10 22h1M17 22h4M1 23h2M4 23h2M9 23h1M19 23h2M1 24h2M6 24h2M16 24h5M1 25h1M3 25h1M8 25h1M17 25h4M1 26h1M4 26h2M17 26h4M6 27h2M8 28h1" />
<path stroke="#000000" d="M0 0h1M17 1h1M18 2h1M19 3h1M20 4h1M21 5h1M17 6h6M22 7h1M22 8h1M22 9h1M22 10h1M22 11h1M22 12h1M22 13h1M22 14h1M31 17h1M8 18h1M30 18h1M6 19h2M9 19h1M16 19h10M29 19h1M5 20h1M9 20h2M12 20h1M22 20h1M28 20h1M11 21h1M13 21h1M16 21h1M22 21h1M27 21h1M13 22h1M16 22h1M22 22h1M26 22h1M13 23h1M16 23h1M22 23h1M14 24h2M22 24h1M13 25h2M16 25h1M22 25h1M11 26h2M16 26h1M22 26h1M9 27h2M16 27h1M22 27h1M0 28h4M14 28h9M4 29h2M12 29h2M6 30h2M10 30h2M8 31h2" />
<path stroke="#c0c0c0" d="M0 0h1M17 3h1M18 4h1M19 5h1M21 7h1M21 8h1M21 9h1M21 10h1M21 11h1M21 12h1M21 13h1M21 14h1M7 20h1M21 20h1M6 21h1M8 21h1M21 21h1M5 22h1M7 22h1M9 22h1M12 22h1M21 22h1M8 23h1M11 23h1M21 23h1M10 24h1M21 24h1M15 25h1M21 25h1M13 26h2M21 26h1M1 27h1M3 27h2M11 27h2M17 27h5M4 28h3M9 28h2M6 29h3M8 30h1" />
<path stroke="#0000ff" d="M0 0h1M8 5h5M3 9h16M3 11h16M3 13h16M3 15h13M3 17h2M13 17h3M3 19h1M3 21h1M17 21h2M17 23h2" />
<path stroke="#008000" d="M0 0h1M26 12h1M26 13h2M26 14h1M28 14h1M16 15h11M29 15h1M16 16h1M30 16h1M16 17h1M16 18h14M26 19h3M26 20h2M26 21h1" />
<path stroke="#00ff00" d="M0 0h1M27 14h1M28 15h1M29 16h1M17 17h14M3 26h1" />
<path stroke="#808000" d="M0 0h1M6 16h5M5 17h1M11 17h2M4 18h1M13 18h2M4 19h1M10 19h1M15 19h1M4 20h1M11 20h1M16 20h1M4 21h1M7 21h1M3 22h1M6 22h1M8 22h1M15 22h1M3 23h1M7 23h1M12 23h1M14 23h2M11 24h3M9 25h4M9 26h2" />
<path stroke="#ffff00" d="M0 0h1M6 17h5M5 18h2M10 18h3M5 19h1M11 19h4M6 20h1M8 20h1M14 20h2M5 21h1M9 21h1M12 21h1M14 21h2M4 22h1M11 22h1M14 22h1M6 23h1M10 23h1M4 24h2M8 24h2M6 25h2M8 26h1" />
<path stroke="#ff0000" d="M0 0h1M5 27h1M7 28h1" />
</svg>