<svg xmlns="http://www.w3.org/2000/svg" width="16" height="16" shape-rendering="crispEdges" viewBox="0 -0.5 16 16"><path stroke="gray" d="M1 0h10M1 1h1m9 0h1M1 2h1m10 0h1M1 3h1M1 4h1M1 5h1M1 6h1M1 7h1m4 0h2M1 8h1m6 0h1M1 9h1m3 0h1m2 0h2m-9 1h1m-1 1h1m-1 1h1m-1 1h1m-1 1h1"/><path stroke="#fff" d="M2 1h8M2 2h8m1 0h1M2 3h8M2 4h10M2 5h2m3 0h5M2 6h2m4 0h4M2 7h1m6 0h3M2 8h2m3 0h1m2 0h2M2 9h3m1 0h1m4 0h1M2 10h4m4 0h2M2 11h5m2 0h3M2 12h10M2 13h10"/><path stroke="silver" d="M10 1h1m-1 1h1m1 2h1m-1 1h1m-1 1h1m-1 1h1M5 8h1m6 0h1m-1 1h1m-6 1h2m3 0h1m-1 1h1m-1 1h1m-1 1h1M2 14h11"/><path stroke="#000" d="M10 3h4m-1 1h1M6 5h1m6 0h1M4 6h1m2 0h1m5 0h1M5 7h1m2 0h1m4 0h1M4 8h1m1 0h1m2 0h1m3 0h1M7 9h1m2 0h1m2 0h1m-8 1h1m2 0h1m3 0h1m-7 1h2m4 0h1m-1 1h1m-1 1h1m-1 1h1M1 15h13"/><path stroke="olive" d="M4 5h2m0 1h1M3 7h1"/><path stroke="#ff0" d="M5 6h1M4 7h1"/></svg>