<svg xmlns="http://www.w3.org/2000/svg" width="32" height="32" shape-rendering="crispEdges" viewBox="0 -0.5 32 32"><path stroke="gray" d="M0 0h17M0 1h1m15 0h1M0 2h1m15 0h2M0 3h1m15 0h1m1 0h1M0 4h1m15 0h1m2 0h1M0 5h1m15 0h1m3 0h1M0 6h1m15 0h1M0 7h1M0 8h1M0 9h1m-1 1h1m-1 1h1m-1 1h1m-1 1h1m-1 1h1m-1 1h1m-1 1h1m-1 1h1m-1 1h1m6 0h1m1 0h1M0 19h1m-1 1h1m12 0h1M0 21h1m9 0h1M0 22h1m-1 1h1m-1 1h1m2 0h1m-4 1h1m1 0h1m1 0h2m-6 1h1m1 0h1m3 0h2m7 0h1M0 27h1m1 0h1m5 0h1m4 0h3m-5 1h3m-5 1h3m-3 1h1"/><path stroke="#fff" d="M1 1h15M1 2h15M1 3h15M1 4h15m1 0h1M1 5h7m5 0h3m1 0h2M1 6h15M1 7h20M1 8h20M1 9h2m16 0h2M1 10h20M1 11h2m16 0h2M1 12h20M1 13h2m16 0h2M1 14h20M1 15h2m24 0h1M1 16h5m5 0h5m1 0h12M1 17h2m-2 1h3m11 0h1M1 19h2m5 0h1m-8 1h3m13 0h4M1 21h2m16 0h2M1 22h2m7 0h1m6 0h4M1 23h2m1 0h2m3 0h1m9 0h2M1 24h2m3 0h2m8 0h5M1 25h1m1 0h1m4 0h1m8 0h4M1 26h1m2 0h2m11 0h4M6 27h2m0 1h1"/><path stroke="#000" d="M17 1h1m0 1h1m0 1h1m0 1h1m0 1h1m-5 1h6m-1 1h1m-1 1h1m-1 1h1m-1 1h1m-1 1h1m-1 1h1m-1 1h1m-1 1h1m8 3h1M8 18h1m21 0h1M6 19h2m1 0h1m6 0h10m3 0h1M5 20h1m3 0h2m1 0h1m9 0h1m5 0h1m-18 1h1m1 0h1m2 0h1m5 0h1m4 0h1m-15 1h1m2 0h1m5 0h1m3 0h1m-14 1h1m2 0h1m5 0h1m-9 1h2m6 0h1m-10 1h2m1 0h1m5 0h1m-12 1h2m3 0h1m5 0h1M9 27h2m5 0h1m5 0h1M0 28h4m10 0h9M4 29h2m6 0h2m-8 1h2m2 0h2m-4 1h2"/><path stroke="silver" d="M17 3h1m0 1h1m0 1h1m1 2h1m-1 1h1m-1 1h1m-1 1h1m-1 1h1m-1 1h1m-1 1h1m-1 1h1M7 20h1m13 0h1M6 21h1m1 0h1m12 0h1M5 22h1m1 0h1m1 0h1m2 0h1m8 0h1M8 23h1m2 0h1m9 0h1m-12 1h1m10 0h1m-7 1h1m5 0h1m-9 1h2m6 0h1M1 27h1m1 0h2m6 0h2m4 0h5M4 28h3m2 0h2m-5 1h3m-1 1h1"/><path stroke="#00f" d="M8 5h5M3 9h16M3 11h16M3 13h16M3 15h13M3 17h2m8 0h3M3 19h1m-1 2h1m13 0h2m-2 2h2"/><path stroke="green" d="M26 12h1m-1 1h2m-2 1h1m1 0h1m-13 1h11m2 0h1m-14 1h1m13 0h1m-15 1h1m-1 1h14m-4 1h3m-3 1h2m-2 1h1"/><path stroke="#0f0" d="M27 14h1m0 1h1m0 1h1m-13 1h14M3 26h1"/><path stroke="olive" d="M6 16h5m-6 1h1m5 0h2m-9 1h1m8 0h2M4 19h1m5 0h1m4 0h1M4 20h1m6 0h1m4 0h1M4 21h1m2 0h1m-5 1h1m2 0h1m1 0h1m6 0h1M3 23h1m3 0h1m4 0h1m1 0h2m-5 1h3m-5 1h4m-4 1h2"/><path stroke="#ff0" d="M6 17h5m-6 1h2m3 0h3m-8 1h1m5 0h4m-9 1h1m1 0h1m5 0h2M5 21h1m3 0h1m2 0h1m1 0h2M4 22h1m6 0h1m2 0h1m-9 1h1m3 0h1m-7 1h2m2 0h2m-4 1h2m0 1h1"/><path stroke="red" d="M5 27h1m1 1h1"/></svg>