<svg xmlns="http://www.w3.org/2000/svg" width="16" height="16" shape-rendering="crispEdges" viewBox="0 -0.5 16 16"><path stroke="#000" d="M2 0h1m1 0h1m1 0h1m1 0h1m1 0h1M1 1h1m9 0h1M2 2h1m1 0h1m1 0h1m1 0h1m1 0h1m1 0h1m-1 1h1m-1 1h1m-1 1h1m-1 1h2m-2 1h3m-2 1h3m-2 1h1m-3 1h2m-6 1h5m-7 1h2m4 0h1m-1 1h1m-1 1h1M1 15h11"/><path stroke="#fff" d="M2 1h1m1 0h1m1 0h1m1 0h1m1 0h1M1 2h1m1 0h1m1 0h1m1 0h1m1 0h1m1 0h1M1 3h10M1 4h10m4 0h1m-2 1h1M1 6h10M1 7h10M1 9h8m2 0h1M1 10h7m2 0h1M1 12h5m2 0h3M1 13h10"/><path stroke="gray" d="M3 1h1m1 0h1m1 0h1m1 0h1M0 2h1M0 3h1M0 4h1M0 5h1M0 6h1M0 7h1M0 8h1M0 9h1m12 0h1M0 10h1m-1 1h1m-1 1h1m-1 1h1m-1 1h1"/><path stroke="navy" d="M15 2h1m-2 1h1m-2 1h1m-1 1h1m1 1h1m-1 1h1"/><path stroke="silver" d="M11 3h1m-1 1h1M1 5h11m-1 1h1M1 8h9m-9 3h6m4 1h1m-1 1h1M1 14h11"/><path stroke="#00f" d="M15 3h1m-2 1h1m0 1h1m-2 1h1"/><path stroke="olive" d="M11 7h1m-2 1h1m1 0h1M9 9h1m2 0h1m-5 1h1m2 0h1m-5 1h1"/><path stroke="#ff0" d="M11 8h1m-2 1h1m-2 1h1"/></svg>