<svg xmlns="http://www.w3.org/2000/svg" width="32" height="32" shape-rendering="crispEdges" viewBox="0 -0.5 32 32"><path stroke="gray" d="M9 0h17M9 1h1m15 0h1M9 2h1m15 0h2M9 3h1m15 0h1m1 0h1M9 4h1m15 0h1m2 0h1M9 5h1m15 0h1m3 0h1M9 6h1m15 0h1M9 7h1m0 3h1m3 2h1m-2 1h1m-6 3h1m7 0h1m-7 1h1m-5 1h1m5 0h1m-5 1h1m13 0h1m-13 1h1m11 0h1M0 22h1m21 0h1M0 23h1m17 0h1m2 0h2M0 24h1m15 0h1m2 0h4M0 25h1m13 0h1m2 0h5m-10 1h1m2 0h5m-7 1h5m-6 1h4m-4 1h2"/><path stroke="#fff" d="M10 1h15M10 2h15M10 3h15M10 4h15m1 0h1M10 5h7m5 0h3m1 0h2M10 6h15M10 7h20M13 8h17M7 9h1m20 0h2M6 10h1m5 0h1m4 0h13M5 11h1m4 0h1m2 0h2m13 0h2m-14 1h1m4 0h9M5 13h1m2 0h1m5 0h1m2 0h1m10 0h2M9 14h1m13 0h7m-20 1h2m7 0h1m1 0h1m6 0h2M7 16h1m4 0h2m6 0h1m3 0h6M8 17h2m4 0h1m4 0h1m8 0h2M5 18h1m4 0h2m12 0h6M2 19h2m2 0h2m10 0h1m9 0h2M4 20h2m2 0h2m8 0h1m5 0h6M6 21h2m20 0h2M8 22h2m14 0h6M1 23h1m8 0h1m17 0h2M2 24h2m20 0h6M4 25h2m18 0h6M6 26h2m14 0h8M8 27h2m0 1h2"/><path stroke="#000" d="M26 1h1m0 1h1m0 1h1m0 1h1m0 1h1m-5 1h6m-1 1h1m-1 1h1m-1 1h1m-21 1h1m19 0h1M9 11h1m2 0h1m18 0h1M8 12h2m2 0h1m2 0h1m15 0h1M7 13h1m4 0h1m3 0h1m14 0h1M5 14h2m6 0h1m2 0h1m14 0h1M9 15h1m6 0h1m14 0h1m-21 1h1m5 0h1m5 0h1m7 0h1M7 17h1m5 0h1m3 0h1m5 0h1m7 0h1M9 18h1m7 0h2m3 0h2m7 0h1M5 19h1m5 0h1m5 0h1m1 0h3m1 0h1m7 0h1M7 20h1m9 0h1m5 0h1m7 0h1M9 21h1m8 0h1m3 0h1m8 0h1M2 22h2m14 0h4m1 0h1m7 0h1M4 23h2m10 0h2m5 0h1m7 0h1M6 24h2m6 0h2m7 0h1m7 0h1M8 25h2m2 0h2m8 0h2m7 0h1M0 26h2m8 0h2m8 0h2m9 0h1M2 27h2m14 0h2m11 0h1M4 28h2m10 0h16M6 29h2m6 0h2m-8 1h2m2 0h2m-4 1h2"/><path stroke="silver" d="M26 3h1m0 1h1m0 1h1m1 2h1m-1 1h1m-1 1h1M8 10h1m21 0h1M7 11h1m22 0h1M6 12h1m6 0h1m16 0h1m-21 1h1m19 0h1M7 14h1m22 0h1M6 15h1m7 0h1m7 0h1m7 0h1M5 16h1m15 0h1m8 0h1M4 17h1m11 0h1m3 0h1m9 0h1M3 18h1m11 0h1m4 0h1m9 0h1m-17 1h1m15 0h1M2 20h1m10 0h1m6 0h1m9 0h1M3 21h1m1 0h1m6 0h1m17 0h1M1 22h1m2 0h1m1 0h1m4 0h1m18 0h1M2 23h2m3 0h1m1 0h1m9 0h2m9 0h1M1 24h1m2 0h2m2 0h1m1 0h1m6 0h2m11 0h1M1 25h2m3 0h2m7 0h2m13 0h1M2 26h3m3 0h2m3 0h2m15 0h1M4 27h3m3 0h3m7 0h11M6 28h3m-1 1h4m-2 1h2"/><path stroke="#00f" d="M17 5h5m-7 4h13m-9 2h9m-6 2h6m-4 2h4m-4 2h4m-4 2h4m-5 2h5m-4 2h4"/><path stroke="olive" d="M7 8h6M6 9h1m6 0h2M5 10h1m3 0h1m5 0h2M4 11h1m3 0h1m2 0h1m5 0h2M4 12h2m1 0h1m3 0h1m7 0h2M4 13h1m1 0h1m2 0h1m1 0h1m3 0h1m5 0h1m-10 1h1m2 0h1m1 0h1m4 0h1M5 15h1m2 0h1m6 0h1m1 0h2m4 0h1M4 16h1m5 0h1m7 0h1m3 0h1M3 17h1m2 0h1m5 0h1m5 0h1m2 0h2M2 18h1m5 0h1m7 0h1m4 0h1M1 19h1m2 0h1m5 0h1m1 0h1m2 0h2M1 20h1m4 0h1m4 0h1m2 0h3m4 0h1M1 21h1m6 0h1m1 0h1m2 0h5m2 0h2m-10 1h6m-7 1h5m-5 1h3m-3 1h1"/><path stroke="#ff0" d="M8 9h5m-6 1h1m5 0h2m-9 1h1m8 0h2m-7 1h1m6 0h2m-1 1h3M8 14h1m1 0h2m2 0h1m3 0h4M7 15h1m4 0h2m6 0h1M6 16h1m2 0h1m4 0h2m3 0h1M5 17h1m5 0h1m3 0h1M4 18h1m2 0h1m5 0h2m4 0h1M9 19h1m3 0h1M3 20h1m8 0h1m6 0h1M2 21h1m1 0h1m6 0h1m7 0h1M5 22h1m1 0h1m2 0h1m-5 1h1m1 0h1m0 1h1m0 1h1"/><path stroke="green" d="M3 25h1m1 1h1"/><path stroke="red" d="M7 27h1m1 1h1"/></svg>