<svg xmlns="http://www.w3.org/2000/svg" width="16" height="16" shape-rendering="crispEdges" viewBox="0 -0.5 16 16"><path stroke="gray" d="M3 0h10M3 1h1m9 0h1M3 2h1m10 0h1M3 3h1m11 0h1M3 4h1m7 0h5M3 5h1m11 0h1m-1 1h1m-1 1h1m-1 1h1m-1 1h1m-1 1h1M3 11h1m11 0h1M3 12h1m11 0h1M3 13h1m11 0h1M3 14h1m11 0h1M3 15h13"/><path stroke="#fff" d="M4 1h7M4 2h1m3 0h3m1 0h1M4 3h7m1 0h2M4 4h1m4 0h2M4 5h11M4 6h1m8 0h2M8 7h7m-3 1h3M8 9h7m-2 1h2M4 11h1m2 0h8M4 12h1m7 0h3M4 13h11M4 14h11"/><path stroke="silver" d="M11 1h2M5 2h3m3 0h1m1 0h1m-3 1h1m2 0h1M5 4h4M3 6h1m3 0h6m-2 2h1m-9 2h1m4 0h5m-8 2h7"/><path stroke="#000" d="M1 6h2m2 0h2M0 7h1m2 0h2m2 0h1M0 8h1m2 0h1m1 0h1m1 0h4M0 9h1m2 0h3m1 0h1m-7 1h2m1 0h1m1 0h2m-3 1h2"/><path stroke="#0ff" d="M1 7h2m2 0h2M1 8h1m2 0h1"/><path stroke="teal" d="M2 8h1m3 0h1M1 9h2m3 0h1m-2 1h1"/></svg>