<svg xmlns="http://www.w3.org/2000/svg" width="32" height="32" shape-rendering="crispEdges" viewBox="0 -0.5 32 32"><path stroke="gray" d="M14 1h10M13 2h1m10 0h2M12 3h1M0 4h12M0 5h1m9 0h1M0 6h1m8 0h1M0 7h1m7 0h1M0 8h1m6 0h1M0 9h1m5 0h1m-7 1h1m4 0h1m18 0h1M0 11h1m3 0h1m6 0h1m11 0h1M0 12h1m3 0h1m7 0h1M0 13h1m12 0h1M0 14h1m13 0h1M0 15h1m-1 1h1m-1 1h1m-1 1h1m-1 1h1m-1 1h1m-1 1h1m-1 1h1m-1 1h1m-1 1h1m-1 1h1m-1 1h1m-1 1h1m-1 1h1m-1 1h1"/><path stroke="maroon" d="M26 1h4m-4 1h1m2 0h1m-4 1h1m2 0h1m-4 1h1m2 0h1m-4 1h1m2 0h1m-4 1h1m2 0h1m-4 1h1m2 0h1m-4 1h1m2 0h1m-4 1h1m2 0h1m-4 1h1m2 0h1m-4 1h1m2 0h1m-4 1h4"/><path stroke="#000" d="M30 1h1m-1 1h1m-1 1h1m-1 1h1M14 5h1m15 0h1M13 6h1m16 0h1M12 7h1m3 0h1m13 0h1M11 8h1m3 0h1m14 0h1M10 9h1m3 0h1m3 0h1m11 0h1M9 10h2m2 0h1m3 0h1m7 0h1m4 0h1M8 11h1m3 0h1m3 0h1m7 0h1m5 0h1M7 12h1m7 0h1m3 0h5m6 0h1M5 13h2m7 0h1m3 0h1m2 0h1m4 0h5M3 14h1m1 0h1m1 0h1m1 0h1m1 0h1m1 0h1m3 0h1m3 0h1m-7 1h2m4 0h1m-1 1h1M3 17h15m3 0h1m-1 1h1m-1 1h1M3 20h15m3 0h1m-1 1h1m-1 1h1M3 23h15m3 0h1m-1 1h1m-1 1h1M3 26h15m3 0h1m-1 1h1m-1 1h1m-1 1h1M0 30h22"/><path stroke="silver" d="M14 2h1m-2 3h1m-2 1h1m-2 1h1m3 0h1m-6 1h1m3 0h1M9 9h1m3 0h1m3 0h1M8 10h1m2 0h2m3 0h1M7 11h1m7 0h1m3 0h4M5 12h2m6 0h2m3 0h1m-2 1h1m2 0h1m-6 1h2m3 0h1m-1 1h1m-1 1h1m-1 1h1m-1 1h1m-1 1h1m-1 1h1m-1 1h1m-1 1h1m-1 1h1m-1 1h1m-1 1h1m-1 1h1m-1 1h1m-1 1h1M1 29h20"/><path stroke="#fff" d="M15 2h9M13 3h13M12 4h14M1 5h1m1 0h3m1 0h3m1 0h2m2 0h11M1 6h3m1 0h3m2 0h2m2 0h12M1 7h1m1 0h3m1 0h1m1 0h2m2 0h2m2 0h9M1 8h3m1 0h2m1 0h2m2 0h2m2 0h10M1 9h1m1 0h3m1 0h2m2 0h2m2 0h2m2 0h7M1 10h3m2 0h2m6 0h2m2 0h6M1 11h1m1 0h1m1 0h2m2 0h1m3 0h2m2 0h2M1 12h3m5 0h3m4 0h2M1 13h1m1 0h2m2 0h3m1 0h2m2 0h2m2 0h1M1 14h2m3 0h1m3 0h1m7 0h2M1 15h1m1 0h3m1 0h3m1 0h3m3 0h1m1 0h1M1 16h3m1 0h3m1 0h3m1 0h3m1 0h3M1 17h1m17 0h1M1 18h3m1 0h3m1 0h3m1 0h3m1 0h3M1 19h1m1 0h3m1 0h3m1 0h3m1 0h3m1 0h1M1 20h2m15 0h2M1 21h1m1 0h3m1 0h3m1 0h3m1 0h3m1 0h1M1 22h3m1 0h3m1 0h3m1 0h3m1 0h3M1 23h1m17 0h1M1 24h3m1 0h3m1 0h3m1 0h3m1 0h3M1 25h1m1 0h3m1 0h3m1 0h3m1 0h3m1 0h1M1 26h2m15 0h2M1 27h1m1 0h3m1 0h3m1 0h3m1 0h3m1 0h1M1 28h3m1 0h3m1 0h3m1 0h3m1 0h3"/><path stroke="red" d="M27 2h2m-2 1h2m-2 1h2m-2 1h2m-2 1h2m-2 1h2m-2 1h2m-2 1h2m-2 1h2m-2 1h2"/><path stroke="#ff0" d="M2 5h1m3 0h1M4 6h1m3 0h1M2 7h1m3 0h1M4 8h1M2 9h1m1 1h1m-3 1h1m7 0h1m-3 1h1m-7 1h1m7 0h1m-7 1h1m3 0h1m3 0h1M2 15h1m3 0h1m3 0h1m3 0h1m3 0h1M4 16h1m3 0h1m3 0h1m3 0h1M2 17h1m15 0h1M4 18h1m3 0h1m3 0h1m3 0h1M2 19h1m3 0h1m3 0h1m3 0h1m3 0h1M2 21h1m3 0h1m3 0h1m3 0h1m3 0h1M4 22h1m3 0h1m3 0h1m3 0h1M2 23h1m15 0h1M4 24h1m3 0h1m3 0h1m3 0h1M2 25h1m3 0h1m3 0h1m3 0h1m3 0h1M2 27h1m3 0h1m3 0h1m3 0h1m3 0h1M4 28h1m3 0h1m3 0h1m3 0h1"/></svg>