<svg xmlns="http://www.w3.org/2000/svg" viewBox="0 -0.5 32 32" shape-rendering="crispEdges">
<path stroke="#808080" d="M0 0h1M0 1h18M0 2h1M17 2h1M0 3h1M17 3h2M0 4h1M17 4h1M19 4h1M0 5h1M17 5h1M20 5h1M0 6h1M17 6h1M21 6h1M0 7h1M17 7h1M22 7h1M0 8h1M17 8h1M0 9h1M0 10h1M0 11h1M0 12h1M15 12h1M20 12h1M0 13h1M0 14h1M13 14h1M0 15h1M0 16h1M0 17h1M0 18h1M0 19h1M13 19h1M0 20h1M0 21h1M0 22h1M14 22h1M0 23h1M13 23h1M15 23h1M0 24h1M12 24h1M14 24h1M0 25h1M13 25h1M0 26h1M0 27h1M0 28h1M0 29h1" />
<path stroke="#ffffff" d="M0 0h1M1 2h16M1 3h16M1 4h16M1 5h2M12 5h5M18 5h1M1 6h2M12 6h5M18 6h2M1 7h2M12 7h5M18 7h3M1 8h2M12 8h5M1 9h2M12 9h11M1 10h2M12 10h11M1 11h2M12 11h11M1 12h2M12 12h3M21 12h1M1 13h2M12 13h2M1 14h12M1 15h12M1 16h12M1 17h12M1 18h8M10 18h3M1 19h7M11 19h2M22 19h1M1 20h6M12 20h2M21 20h2M1 21h5M13 21h1M20 21h3M1 22h4M19 22h4M1 23h3M18 23h5M1 24h2M16 24h7M1 25h11M15 25h8M1 26h10M14 26h9M1 27h10M13 27h10M1 28h22" />
<path stroke="#000000" d="M0 0h1M18 2h1M19 3h1M20 4h1M21 5h1M11 6h1M22 6h1M11 7h1M23 7h1M11 8h1M18 8h7M31 8h1M11 9h1M24 9h1M31 9h1M11 10h1M30 10h1M11 11h1M29 11h1M11 12h1M28 12h1M4 13h8M27 13h1M26 14h1M25 15h1M24 16h1M23 17h2M9 18h1M22 18h1M24 18h1M10 19h1M21 19h1M24 19h1M11 20h1M20 20h1M24 20h1M12 21h1M19 21h1M24 21h1M13 22h1M18 22h1M24 22h1M16 23h2M24 23h1M3 24h9M15 24h1M24 24h1M12 25h1M14 25h1M24 25h1M13 26h1M24 26h1M24 27h1M24 28h1M24 29h1M0 30h25" />
<path stroke="#c0c0c0" d="M0 0h1M18 4h1M19 5h1M20 6h1M21 7h1M23 9h1M23 10h1M16 13h1M15 14h1M14 15h1M14 16h1M14 17h1M14 18h1M23 18h1M23 19h1M23 20h1M23 21h1M23 22h1M14 23h1M23 23h1M13 24h1M23 24h1M23 25h1M23 26h1M23 27h1M23 28h1M1 29h23" />
<path stroke="#800000" d="M0 0h1M3 5h9M3 6h1M3 7h1M3 8h1M3 9h1M3 10h1M3 11h1M3 12h1M3 13h1" />
<path stroke="#ff0000" d="M0 0h1M4 6h7M4 7h7M4 8h7M4 9h7M4 10h7M4 11h7M4 12h7" />
<path stroke="#000080" d="M0 0h1M28 6h2M27 7h1M30 7h1M26 8h1M25 9h1M30 9h1M24 10h1M29 10h1M23 11h1M28 11h1M22 12h1M27 12h1M21 13h1M26 13h1M20 14h1M25 14h1M19 15h1M24 15h1M18 16h1M23 16h1M17 17h1M22 17h1M16 18h1M21 18h1M8 19h1M15 19h1M20 19h1M7 20h1M14 20h1M19 20h1M6 21h1M11 21h1M14 21h1M18 21h1M5 22h1M12 22h1M17 22h1M4 23h9M11 26h2M11 27h2" />
<path stroke="#00ffff" d="M0 0h1M29 7h1M28 8h1M27 9h1M26 10h1M25 11h1M24 12h1M23 13h1M22 14h1M21 15h1M20 16h1M19 17h1M18 18h1M17 19h1M16 20h1M15 21h1" />
<path stroke="#008080" d="M0 0h1M29 8h1M28 9h1M27 10h1M26 11h1M25 12h1M24 13h1M23 14h1M22 15h1M21 16h1M20 17h1M19 18h1M18 19h1M17 20h1M16 21h1M15 22h1" />
<path stroke="#0000ff" d="M0 0h1M30 8h1M29 9h1M28 10h1M27 11h1M26 12h1M25 13h1M24 14h1M23 15h1M22 16h1M21 17h1M20 18h1M9 19h1M19 19h1M8 20h3M18 20h1M7 21h4M17 21h1M6 22h6M16 22h1" />
<path stroke="#008000" d="M0 0h1M16 12h4M14 13h2M20 13h1M14 14h1M13 15h1M13 16h1M13 17h1M13 18h1M14 19h1" />
<path stroke="#ffff00" d="M0 0h1M17 13h1M16 14h1M15 15h1M15 16h1M15 17h1" />
<path stroke="#00ff00" d="M0 0h1M18 13h2M17 14h3M16 15h3M16 16h2M16 17h1M15 18h1" />
</svg>