<svg xmlns="http://www.w3.org/2000/svg" viewBox="0 -0.5 32 32" shape-rendering="crispEdges">
<path stroke="#ff0000" d="M0 0h1M9 1h1M9 2h2M7 3h5M6 4h1M9 4h2M5 5h1M9 5h1M5 6h1M5 7h1M15 7h2M26 7h2M15 8h4M25 8h2M16 9h4M24 9h2M18 10h3M23 10h1M19 11h5M20 12h3M19 13h5M19 14h2M23 14h2M19 15h1M24 15h2M25 16h1M26 17h1M27 19h1M24 24h1M23 25h3M22 26h5M24 27h1M24 28h1M23 29h1M20 30h3" />
<path stroke="#808080" d="M0 0h1M13 1h13M13 2h1M25 2h2M13 3h1M25 3h1M27 3h1M13 4h1M25 4h1M28 4h1M13 5h1M13 6h1M26 6h3M30 6h1M13 7h1M30 7h1M13 8h1M30 8h1M1 9h13M30 9h1M1 10h1M13 10h2M30 10h1M1 11h1M13 11h1M15 11h1M30 11h1M1 12h1M13 12h1M16 12h1M30 12h1M1 13h1M30 13h1M1 14h1M14 14h3M18 14h1M30 14h1M1 15h1M18 15h1M30 15h1M1 16h1M18 16h1M30 16h1M1 17h1M18 17h1M30 17h1M1 18h1M18 18h1M30 18h1M1 19h1M18 19h1M30 19h1M1 20h1M18 20h1M30 20h1M1 21h1M18 21h1M30 21h1M1 22h1M18 22h13M1 23h1M18 23h1M1 24h1M18 24h1M1 25h1M18 25h1M1 26h1M18 26h1M1 27h1M18 27h1M1 28h1M18 28h1M18 29h1M2 30h17" />
<path stroke="#ffffff" d="M0 0h1M14 2h11M14 3h11M14 4h11M26 4h1M14 5h11M14 6h2M24 6h2M14 7h1M17 7h9M28 7h1M14 8h1M27 8h2M14 9h2M20 9h4M26 9h3M2 10h11M15 10h1M27 10h2M2 11h11M16 11h3M24 11h5M2 12h11M14 12h1M27 12h2M2 13h11M18 13h1M24 13h5M2 14h2M12 14h2M27 14h2M2 15h15M20 15h4M26 15h3M2 16h2M15 16h2M27 16h2M2 17h15M19 17h7M27 17h2M2 18h2M15 18h2M27 18h2M2 19h15M19 19h8M28 19h1M2 20h2M15 20h2M19 20h10M2 21h15M2 22h2M15 22h2M2 23h15M2 24h2M15 24h2M2 25h15M2 26h2M15 26h2M2 27h15M2 28h15" />
<path stroke="#c0c0c0" d="M0 0h1M26 3h1M27 4h1M14 11h1M15 12h1" />
<path stroke="#000000" d="M0 0h1M25 5h5M29 6h1M29 7h1M29 8h1M29 9h1M29 10h1M29 11h1M29 12h1M13 13h5M29 13h1M17 14h1M29 14h1M17 15h1M29 15h1M17 16h1M29 16h1M17 17h1M29 17h1M17 18h1M29 18h1M17 19h1M29 19h1M17 20h1M29 20h1M17 21h1M19 21h11M17 22h1M17 23h1M17 24h1M17 25h1M17 26h1M17 27h1M17 28h1M1 29h17" />
<path stroke="#0000ff" d="M0 0h1M16 6h8M19 8h6M16 10h2M21 10h2M24 10h3M17 12h3M23 12h4M4 14h8M21 14h2M25 14h2M4 16h11M19 16h6M26 16h1M4 18h11M19 18h8M4 20h11M4 22h11M4 24h11M4 26h11" />
</svg>