<svg xmlns="http://www.w3.org/2000/svg" width="32" height="32" shape-rendering="crispEdges" viewBox="0 -0.5 32 32"><path stroke="gray" d="M0 1h18M0 2h1m16 0h1M0 3h1m16 0h2M0 4h1m16 0h1m1 0h1M0 5h1m16 0h1m2 0h1M0 6h1m16 0h1m3 0h1M0 7h1m16 0h1m4 0h1M0 8h1m16 0h1M0 9h1m-1 1h1m-1 1h1m-1 1h1m14 0h1m4 0h1M0 13h1m-1 1h1m12 0h1M0 15h1m-1 1h1m-1 1h1m-1 1h1m-1 1h1m12 0h1M0 20h1m-1 1h1m-1 1h1m13 0h1M0 23h1m12 0h1m1 0h1M0 24h1m11 0h1m1 0h1M0 25h1m12 0h1M0 26h1m-1 1h1m-1 1h1m-1 1h1"/><path stroke="#fff" d="M1 2h16M1 3h16M1 4h16M1 5h2m9 0h5m1 0h1M1 6h2m9 0h5m1 0h2M1 7h2m9 0h5m1 0h3M1 8h2m9 0h5M1 9h2m9 0h11M1 10h2m9 0h11M1 11h2m9 0h11M1 12h2m9 0h3m6 0h1M1 13h2m9 0h2M1 14h12M1 15h12M1 16h12M1 17h12M1 18h8m1 0h3M1 19h7m3 0h2m9 0h1M1 20h6m5 0h2m7 0h2M1 21h5m7 0h1m6 0h3M1 22h4m14 0h4M1 23h3m14 0h5M1 24h2m13 0h7M1 25h11m3 0h8M1 26h10m3 0h9M1 27h10m2 0h10M1 28h22"/><path stroke="#000" d="M18 2h1m0 1h1m0 1h1m0 1h1M11 6h1m10 0h1M11 7h1m11 0h1M11 8h1m6 0h7m6 0h1M11 9h1m12 0h1m6 0h1m-21 1h1m18 0h1m-20 1h1m17 0h1m-19 1h1m16 0h1M4 13h8m15 0h1m-2 1h1m-2 1h1m-2 1h1m-2 1h2M9 18h1m12 0h1m1 0h1m-15 1h1m10 0h1m2 0h1m-14 1h1m8 0h1m3 0h1m-13 1h1m6 0h1m4 0h1m-12 1h1m4 0h1m5 0h1m-9 1h2m6 0h1M3 24h9m3 0h1m8 0h1m-13 1h1m1 0h1m9 0h1m-12 1h1m10 0h1m-1 1h1m-1 1h1m-1 1h1M0 30h25"/><path stroke="silver" d="M18 4h1m0 1h1m0 1h1m0 1h1m1 2h1m-1 1h1m-8 3h1m-2 1h1m-2 1h1m-1 1h1m-1 1h1m-1 1h1m8 0h1m-1 1h1m-1 1h1m-1 1h1m-1 1h1m-10 1h1m8 0h1m-11 1h1m9 0h1m-1 1h1m-1 1h1m-1 1h1m-1 1h1M1 29h23"/><path stroke="maroon" d="M3 5h9M3 6h1M3 7h1M3 8h1M3 9h1m-1 1h1m-1 1h1m-1 1h1m-1 1h1"/><path stroke="red" d="M4 6h7M4 7h7M4 8h7M4 9h7m-7 1h7m-7 1h7m-7 1h7"/><path stroke="navy" d="M28 6h2m-3 1h1m2 0h1m-5 1h1m-2 1h1m4 0h1m-7 1h1m4 0h1m-7 1h1m4 0h1m-7 1h1m4 0h1m-7 1h1m4 0h1m-7 1h1m4 0h1m-7 1h1m4 0h1m-7 1h1m4 0h1m-7 1h1m4 0h1m-7 1h1m4 0h1M8 19h1m6 0h1m4 0h1M7 20h1m6 0h1m4 0h1M6 21h1m4 0h1m2 0h1m3 0h1M5 22h1m6 0h1m4 0h1M4 23h9m-2 3h2m-2 1h2"/><path stroke="#0ff" d="M29 7h1m-2 1h1m-2 1h1m-2 1h1m-2 1h1m-2 1h1m-2 1h1m-2 1h1m-2 1h1m-2 1h1m-2 1h1m-2 1h1m-2 1h1m-2 1h1m-2 1h1"/><path stroke="teal" d="M29 8h1m-2 1h1m-2 1h1m-2 1h1m-2 1h1m-2 1h1m-2 1h1m-2 1h1m-2 1h1m-2 1h1m-2 1h1m-2 1h1m-2 1h1m-2 1h1m-2 1h1"/><path stroke="#00f" d="M30 8h1m-2 1h1m-2 1h1m-2 1h1m-2 1h1m-2 1h1m-2 1h1m-2 1h1m-2 1h1m-2 1h1m-2 1h1M9 19h1m9 0h1M8 20h3m7 0h1M7 21h4m6 0h1M6 22h6m4 0h1"/><path stroke="green" d="M16 12h4m-6 1h2m4 0h1m-7 1h1m-2 1h1m-1 1h1m-1 1h1m-1 1h1m0 1h1"/><path stroke="#ff0" d="M17 13h1m-2 1h1m-2 1h1m-1 1h1m-1 1h1"/><path stroke="#0f0" d="M18 13h2m-3 1h3m-4 1h3m-3 1h2m-2 1h1m-2 1h1"/></svg>