<svg xmlns="http://www.w3.org/2000/svg" viewBox="0 -0.5 32 32" shape-rendering="crispEdges">
<path stroke="#808080" d="M0 0h1M5 0h17M5 1h1M21 1h1M5 2h1M21 2h2M5 3h1M21 3h1M23 3h1M5 4h1M21 4h1M24 4h1M5 5h1M21 5h1M25 5h1M5 6h1M21 6h1M5 7h1M5 8h1M5 9h1M5 10h1M5 11h1M5 12h1M5 13h1M5 14h1M20 18h1M22 18h1M5 20h1M26 20h1M5 21h1M23 21h1M5 22h1M5 23h1M5 24h1M16 24h1M5 25h1M15 25h1M17 25h2M5 26h1M15 26h1M19 26h2M28 26h1M5 27h1M15 27h1M21 27h1M26 27h3M24 28h3M22 29h3M22 30h1" />
<path stroke="#ffffff" d="M0 0h1M6 1h15M6 2h15M6 3h15M6 4h15M22 4h1M6 5h7M18 5h3M22 5h2M6 6h15M6 7h20M6 8h20M6 9h2M24 9h2M6 10h20M6 11h2M24 11h2M6 12h4M11 12h15M6 13h2M24 13h2M6 14h4M13 14h13M24 15h2M15 16h4M24 16h2M15 18h2M21 19h1M6 20h4M13 20h4M6 21h2M6 22h4M11 22h5M23 22h1M6 23h2M17 23h2M22 23h1M6 24h10M19 24h2M6 25h9M16 25h1M21 25h1M6 26h9M17 26h2M19 27h2M21 28h1" />
<path stroke="#000000" d="M0 0h1M22 1h1M23 2h1M24 3h1M25 4h1M26 5h1M22 6h6M27 7h1M27 8h1M27 9h1M27 10h1M27 11h1M27 12h1M27 13h1M27 14h1M27 15h1M27 16h1M15 17h1M27 17h1M14 18h1M21 18h1M0 19h10M13 19h1M19 19h2M22 19h1M12 20h1M18 20h1M22 20h2M25 20h1M11 21h1M24 21h1M26 21h1M29 21h1M10 22h1M26 22h1M29 22h1M26 23h1M29 23h1M27 24h2M26 25h2M29 25h1M24 26h2M29 26h1M22 27h2M29 27h1M5 28h12M27 28h2M17 29h2M25 29h2M19 30h2M23 30h2M21 31h2" />
<path stroke="#c0c0c0" d="M0 0h1M22 3h1M23 4h1M24 5h1M26 7h1M26 8h1M26 9h1M26 10h1M26 11h1M26 12h1M26 13h1M26 14h1M26 15h1M26 16h1M26 17h1M20 20h1M19 21h1M21 21h1M18 22h1M20 22h1M22 22h1M25 22h1M21 23h1M24 23h1M23 24h1M28 25h1M26 26h2M6 27h9M16 27h2M24 27h2M17 28h3M22 28h2M19 29h3M21 30h1" />
<path stroke="#0000ff" d="M0 0h1M13 5h5M8 9h16M8 11h16M8 13h2M12 13h12M14 15h10M16 17h2M14 19h3M8 21h2M12 21h5M8 23h8" />
<path stroke="#800000" d="M0 0h1M10 12h1M10 13h2M10 14h1M12 14h1M0 15h11M13 15h1M0 16h1M14 16h1M0 17h1M0 18h14M10 19h3M10 20h2M10 21h1" />
<path stroke="#ff0000" d="M0 0h1M11 14h1M12 15h1M13 16h1M1 17h14M18 27h1M20 28h1" />
<path stroke="#ff00ff" d="M0 0h1M11 15h1M1 16h12" />
<path stroke="#808000" d="M0 0h1M19 16h5M18 17h1M24 17h2M17 18h1M26 18h2M17 19h1M23 19h1M28 19h1M17 20h1M24 20h1M29 20h1M17 21h1M20 21h1M16 22h1M19 22h1M21 22h1M28 22h1M16 23h1M20 23h1M25 23h1M27 23h2M24 24h3M22 25h4M22 26h2" />
<path stroke="#ffff00" d="M0 0h1M19 17h5M18 18h2M23 18h3M18 19h1M24 19h4M19 20h1M21 20h1M27 20h2M18 21h1M22 21h1M25 21h1M27 21h2M17 22h1M24 22h1M27 22h1M19 23h1M23 23h1M17 24h2M21 24h2M19 25h2M21 26h1" />
<path stroke="#00ff00" d="M0 0h1M16 26h1" />
</svg>