<svg xmlns="http://www.w3.org/2000/svg" width="32" height="32" shape-rendering="crispEdges" viewBox="0 -0.5 32 32"><path stroke="gray" d="M8 0h17M8 1h1m15 0h1M6 2h17m1 0h2M6 3h1m15 0h1m1 0h1m1 0h1M4 4h17m1 0h2m3 0h1M4 5h1m15 0h1m1 0h1m1 0h1m3 0h1M4 6h1m15 0h2m3 0h1M4 7h1m15 0h1m1 0h1m3 0h1M4 8h1m15 0h1m2 0h1M4 9h1m15 0h1m3 0h1M4 10h1m15 0h1M4 11h1m-1 1h1m-1 1h1m-1 1h1m-1 1h1m-1 1h1m-1 1h1m-1 1h1m-1 1h1m-1 1h1m-1 1h1m-1 1h1m-1 1h1m-1 1h1m-1 1h1m-1 1h1m-1 1h1m-1 1h1m-1 1h1m-1 1h1"/><path stroke="#fff" d="M9 1h15m-1 1h1M7 3h15m-1 1h1m3 0h1M5 5h15m6 0h1M5 6h15m3 0h1M5 7h15m4 0h1m3 0h1M5 8h15m1 0h1M5 9h15m1 0h2m3 0h1M5 10h15M5 11h20M5 12h20M5 13h20M5 14h20M5 15h20M5 16h20M5 17h20M5 18h20M5 19h20M5 20h20M5 21h20M5 22h20M5 23h20M5 24h20M5 25h20M5 26h20M5 27h20M5 28h20M5 29h20"/><path stroke="#000" d="M25 1h1m0 1h1m-4 1h1m3 0h1m-4 1h1m3 0h1m-8 1h1m3 0h1m3 0h1m-8 1h1m3 0h5m-8 1h1m3 0h1m2 0h1m-7 1h5m1 0h1m-6 1h1m2 0h1m1 0h1m-10 1h6m1 0h1m1 0h1m-5 1h1m1 0h1m1 0h1m-5 1h1m1 0h1m1 0h1m-5 1h1m1 0h1m1 0h1m-5 1h1m1 0h1m1 0h1m-5 1h1m1 0h1m1 0h1m-5 1h1m1 0h1m1 0h1m-5 1h1m1 0h1m1 0h1m-5 1h1m1 0h1m1 0h1m-5 1h1m1 0h1m1 0h1m-5 1h1m1 0h1m1 0h1m-5 1h1m1 0h1m1 0h1m-5 1h1m1 0h1m1 0h1m-5 1h1m1 0h1m1 0h1m-5 1h1m1 0h1m1 0h1m-5 1h1m1 0h1m1 0h1m-5 1h1m1 0h1m1 0h1m-5 1h1m1 0h3m-5 1h1m1 0h1m-3 1h3m-3 1h1M4 31h23"/><path stroke="silver" d="M25 3h1m0 1h1m-4 1h1m3 0h1m-4 1h1m-4 1h1m3 0h1m3 0h1m-8 1h1m6 0h1m-7 1h1m3 0h1m1 0h1m-3 1h1m1 0h1m-5 1h1m1 0h1m1 0h1m-5 1h1m1 0h1m1 0h1m-5 1h1m1 0h1m1 0h1m-5 1h1m1 0h1m1 0h1m-5 1h1m1 0h1m1 0h1m-5 1h1m1 0h1m1 0h1m-5 1h1m1 0h1m1 0h1m-5 1h1m1 0h1m1 0h1m-5 1h1m1 0h1m1 0h1m-5 1h1m1 0h1m1 0h1m-5 1h1m1 0h1m1 0h1m-5 1h1m1 0h1m1 0h1m-5 1h1m1 0h1m1 0h1m-5 1h1m1 0h1m1 0h1m-5 1h1m1 0h1m1 0h1m-5 1h1m1 0h1m1 0h1m-5 1h1m1 0h1m-3 1h1m1 0h1m-3 1h1M5 30h21"/></svg>