<svg xmlns="http://www.w3.org/2000/svg" viewBox="0 -0.5 16 16" shape-rendering="crispEdges">
<path stroke="#808080" d="M0 0h1M3 0h10M3 1h1M13 1h1M3 2h1M14 2h1M3 3h1M5 5h1M0 10h3M0 11h1M3 11h2M10 11h2M5 12h1M8 12h3M6 13h3M6 14h1" />
<path stroke="#ffffff" d="M0 0h1M4 1h8M4 2h8M13 2h1M7 3h1M11 3h1M9 4h5M13 5h1M12 6h2M13 7h1M2 8h1M13 8h1M3 9h2M12 9h2M5 10h1M13 10h1M1 11h2M13 11h1M3 12h2M13 12h1M5 13h1" />
<path stroke="#c0c0c0" d="M0 0h1M12 1h1M12 2h1M14 4h1M14 5h1M5 6h1M14 6h1M4 7h1M6 7h1M14 7h1M3 8h1M5 8h1M7 8h1M14 8h1M14 9h1M3 10h1M11 10h1M14 10h1M9 11h1M14 11h1M1 12h1M7 12h1M14 12h1M3 13h1M11 13h4M5 14h1" />
<path stroke="#808000" d="M0 0h1M4 3h3M2 4h2M7 4h2M2 5h1M9 5h2M2 6h1M4 6h1M7 6h1M11 6h1M2 7h2M5 7h1M11 7h1M1 8h1M4 8h1M8 8h1M10 8h2M1 9h1M7 9h3M6 10h3M6 11h1" />
<path stroke="#0000ff" d="M0 0h1M8 3h3M11 5h2" />
<path stroke="#000000" d="M0 0h1M12 3h4M15 4h1M4 5h1M6 5h1M15 5h1M3 6h1M6 6h1M8 6h1M15 6h1M7 7h1M9 7h1M12 7h1M15 7h1M9 8h1M12 8h1M15 8h1M10 9h2M15 9h1M9 10h2M12 10h1M15 10h1M7 11h2M12 11h1M15 11h1M0 12h1M6 12h1M11 12h2M15 12h1M1 13h2M9 13h2M15 13h1M2 14h3M7 14h9M5 15h2" />
<path stroke="#ffff00" d="M0 0h1M4 4h3M3 5h1M7 5h2M9 6h2M8 7h1M10 7h1M6 8h1M2 9h1M5 9h2M4 10h1M5 11h1" />
<path stroke="#ff0000" d="M0 0h1M2 12h1M4 13h1" />
</svg>