<svg xmlns="http://www.w3.org/2000/svg" width="16" height="16" shape-rendering="crispEdges" viewBox="0 -0.5 16 16"><path stroke="gray" d="M3 0h10M3 1h1m9 0h1M3 2h1m10 0h1M3 3h1m1 2h1m-6 5h3m-3 1h1m2 0h2m5 0h2m-7 1h1m2 0h3m-5 1h3m-3 1h1"/><path stroke="#fff" d="M4 1h8M4 2h8m1 0h1M7 3h1m3 0h1M9 4h5m-1 1h1m-2 1h2m-1 1h1M2 8h1m10 0h1M3 9h2m7 0h2m-9 1h1m7 0h1M1 11h2m10 0h1M3 12h2m8 0h1m-9 1h1"/><path stroke="silver" d="M12 1h1m-1 1h1m1 2h1m-1 1h1M5 6h1m8 0h1M4 7h1m1 0h1m7 0h1M3 8h1m1 0h1m1 0h1m6 0h1m-1 1h1M3 10h1m7 0h1m2 0h1m-6 1h1m4 0h1M1 12h1m5 0h1m6 0h1M3 13h1m7 0h4M5 14h1"/><path stroke="olive" d="M4 3h3M2 4h2m3 0h2M2 5h1m6 0h2M2 6h1m1 0h1m2 0h1m3 0h1M2 7h2m1 0h1m5 0h1M1 8h1m2 0h1m3 0h1m1 0h2M1 9h1m5 0h3m-4 1h3m-3 1h1"/><path stroke="#00f" d="M8 3h3m0 2h2"/><path stroke="#000" d="M12 3h4m-1 1h1M4 5h1m1 0h1m8 0h1M3 6h1m2 0h1m1 0h1m6 0h1M7 7h1m1 0h1m2 0h1m2 0h1M9 8h1m2 0h1m2 0h1m-6 1h2m3 0h1m-7 1h2m1 0h1m2 0h1m-9 1h2m3 0h1m2 0h1M0 12h1m5 0h1m4 0h2m2 0h1M1 13h2m6 0h2m4 0h1M2 14h3m2 0h9M5 15h2"/><path stroke="#ff0" d="M4 4h3M3 5h1m3 0h2m0 1h2M8 7h1m1 0h1M6 8h1M2 9h1m2 0h2m-3 1h1m0 1h1"/><path stroke="red" d="M2 12h1m1 1h1"/></svg>