<svg xmlns="http://www.w3.org/2000/svg" viewBox="0 -0.5 16 16" shape-rendering="crispEdges">
<path stroke="#808080" d="M0 0h1M1 1h8M1 2h1M1 3h1M1 4h1M1 5h1M1 6h1M1 7h1M9 7h1M12 7h1M1 8h1M8 8h1M12 8h2M1 9h1M12 9h1M1 10h1M12 10h1M1 11h1M8 11h1M12 11h2M1 12h1M9 12h1M12 12h1M1 13h1M1 14h1" />
<path stroke="#000000" d="M0 0h1M9 1h1M9 2h2M9 3h1M11 3h1M9 4h4M12 5h1M9 6h4M8 7h1M13 7h1M7 8h1M14 8h1M7 9h1M14 9h1M7 10h1M14 10h1M7 11h1M14 11h1M8 12h1M13 12h2M9 13h7M12 14h1M14 14h2M1 15h12M15 15h1" />
<path stroke="#ffffff" d="M0 0h1M2 2h7M2 3h7M2 4h7M2 5h10M2 6h7M2 7h6M2 8h5M2 9h5M2 10h5M2 11h5M2 12h6M2 13h7" />
<path stroke="#c0c0c0" d="M0 0h1M10 3h1M10 7h2M11 8h1M8 9h1M10 9h2M13 9h1M8 10h4M13 10h1M9 11h2M10 12h2M2 14h10" />
<path stroke="#00ffff" d="M0 0h1M9 8h2M9 9h1M11 11h1" />
</svg>