<svg xmlns="http://www.w3.org/2000/svg" viewBox="0 -0.5 16 16" shape-rendering="crispEdges">
<path stroke="#808080" d="M0 0h1M6 0h1M10 0h1M11 2h1M3 3h1M13 3h1M3 7h1M13 7h1M5 8h1M11 8h1M6 10h1M10 10h1" />
<path stroke="#000000" d="M0 0h1M7 0h3M5 1h2M10 1h2M4 2h2M12 2h1M4 3h7M12 3h1M1 4h3M10 4h1M13 4h1M1 5h1M3 5h1M5 5h4M10 5h1M13 5h1M1 6h1M3 6h1M10 6h1M13 6h1M1 7h1M4 7h1M6 7h3M10 7h1M12 7h1M1 8h1M4 8h1M10 8h1M12 8h1M1 9h1M5 9h2M10 9h4M1 10h1M7 10h3M12 10h3M1 11h1M9 11h1M13 11h3M1 12h1M9 12h1M14 12h2M1 13h1M9 13h1M15 13h1M1 14h9" />
<path stroke="#00ffff" d="M0 0h1M4 4h1M6 4h1M4 6h1M6 6h1M8 6h1M5 7h1" />
<path stroke="#ffffff" d="M0 0h1M5 4h1M7 4h3M2 5h1M4 5h1M9 5h1M2 6h1M5 6h1M7 6h1M9 6h1M2 7h1M9 7h1M2 8h2M6 8h4M2 9h3M7 9h3M2 10h4M2 11h7M2 12h7M2 13h7" />
</svg>