<svg xmlns="http://www.w3.org/2000/svg" viewBox="0 -0.5 32 32" shape-rendering="crispEdges">
<path stroke="#ffffff" d="M0 0h1M0 0h32M0 1h1M0 2h1M0 3h1M0 4h1M0 5h1M0 6h1M0 7h1M0 8h1M21 8h7M0 9h1M18 9h1M21 9h1M0 10h1M6 10h11M18 10h1M21 10h1M0 11h1M6 11h1M15 11h2M18 11h1M21 11h1M0 12h1M6 12h11M18 12h1M0 13h1M6 13h1M13 13h4M18 13h1M0 14h1M6 14h11M18 14h1M21 14h7M0 15h1M6 15h1M13 15h4M18 15h1M21 15h1M0 16h1M6 16h11M18 16h1M21 16h1M0 17h1M18 17h1M21 17h1M0 18h1M5 18h14M0 19h1M0 20h1M0 21h1M0 22h1M9 22h1M0 23h1M6 23h1M9 23h1M0 24h1M7 24h1M9 24h1M0 25h1M9 25h1M0 26h1M5 26h5M0 27h1M0 28h1M0 29h1M0 30h1" />
<path stroke="#c0c0c0" d="M0 0h1M1 1h29M1 2h1M29 2h1M1 3h1M29 3h1M1 4h1M29 4h1M1 5h1M29 5h1M1 6h29M1 7h29M1 8h3M19 8h2M28 8h2M1 9h3M19 9h2M22 9h4M28 9h2M1 10h3M17 10h1M19 10h2M22 10h4M28 10h2M1 11h3M17 11h1M19 11h2M28 11h2M1 12h3M17 12h1M19 12h2M28 12h2M1 13h3M17 13h1M19 13h11M1 14h3M17 14h1M19 14h2M28 14h2M1 15h3M17 15h1M19 15h2M22 15h4M28 15h2M1 16h3M17 16h1M19 16h2M22 16h4M28 16h2M1 17h3M6 17h12M19 17h2M28 17h2M1 18h3M19 18h2M28 18h2M1 19h29M1 20h29M1 21h3M10 21h20M1 22h3M10 22h20M1 23h3M7 23h1M10 23h2M27 23h3M1 24h3M6 24h1M10 24h2M13 24h1M15 24h1M17 24h1M19 24h1M21 24h1M23 24h1M25 24h1M27 24h3M1 25h3M10 25h2M27 25h3M1 26h3M10 26h20M1 27h29M1 28h29M1 29h29" />
<path stroke="#808080" d="M0 0h1M30 1h1M30 2h1M3 3h2M30 3h1M3 4h2M30 4h1M30 5h1M30 6h1M30 7h1M4 8h15M30 8h1M4 9h1M26 9h1M30 9h1M4 10h1M26 10h1M30 10h1M4 11h1M7 11h8M22 11h5M30 11h1M4 12h1M30 12h1M4 13h1M7 13h6M30 13h1M4 14h1M30 14h1M4 15h1M7 15h6M26 15h1M30 15h1M4 16h1M26 16h1M30 16h1M4 17h1M22 17h5M30 17h1M4 18h1M30 18h1M30 19h1M30 20h1M4 21h6M30 21h1M4 22h1M30 22h1M4 23h1M8 23h1M12 23h15M30 23h1M4 24h1M8 24h1M12 24h1M14 24h1M16 24h1M18 24h1M20 24h1M22 24h1M24 24h1M26 24h1M30 24h1M4 25h1M6 25h3M12 25h15M30 25h1M4 26h1M30 26h1M30 27h1M30 28h1M30 29h1M1 30h30" />
<path stroke="#000000" d="M0 0h1M31 1h1M31 2h1M31 3h1M31 4h1M31 5h1M31 6h1M31 7h1M31 8h1M5 9h13M27 9h1M31 9h1M5 10h1M27 10h1M31 10h1M5 11h1M27 11h1M31 11h1M5 12h1M21 12h7M31 12h1M5 13h1M31 13h1M5 14h1M31 14h1M5 15h1M27 15h1M31 15h1M5 16h1M27 16h1M31 16h1M5 17h1M27 17h1M31 17h1M21 18h7M31 18h1M31 19h1M31 20h1M31 21h1M5 22h4M31 22h1M5 23h1M31 23h1M5 24h1M31 24h1M5 25h1M31 25h1M31 26h1M31 27h1M31 28h1M31 29h1M31 30h1M0 31h32" />
<path stroke="#000080" d="M0 0h1M2 2h27M2 3h1M5 3h24M2 4h1M5 4h24M2 5h27" />
</svg>