<svg xmlns="http://www.w3.org/2000/svg" viewBox="0 -0.5 16 16" shape-rendering="crispEdges">
<path stroke="#808080" d="M0 0h1M2 1h5M1 2h1M7 2h1M0 3h1M8 3h6M0 4h1M13 4h1M0 5h1M8 5h2M13 5h1M0 6h1M7 6h1M13 6h1M0 7h1M6 7h1M13 7h1M0 8h1M4 8h2M9 8h1M13 8h1M0 9h1M4 9h1M7 9h3M13 9h1M0 10h1M7 10h1M13 10h1M0 11h1M13 11h1M0 12h14" />
<path stroke="#ffff00" d="M0 0h1M2 2h1M4 2h1M6 2h1M1 3h1M3 3h1M5 3h1M7 3h1M2 5h1M4 5h1M6 5h1M10 5h1M12 5h1M3 6h1M5 6h1M11 6h1M2 7h1M4 7h1M10 7h1M12 7h1M3 8h1M11 8h1M2 9h1M12 9h1M3 10h1M11 10h1M2 11h1M4 11h1M8 11h1M10 11h1M12 11h1" />
<path stroke="#c0c0c0" d="M0 0h1M3 2h1M5 2h1M2 3h1M4 3h1M6 3h1M3 5h1M5 5h1M7 5h1M11 5h1M2 6h1M4 6h1M6 6h1M12 6h1M3 7h1M5 7h1M11 7h1M2 8h1M12 8h1M3 9h1M11 9h1M2 10h1M6 10h1M10 10h1M12 10h1M3 11h1M5 11h1M9 11h1M11 11h1" />
<path stroke="#ffffff" d="M0 0h1M1 4h12M1 5h1M1 6h1M8 6h2M1 7h1M7 7h2M1 8h1M1 9h1M5 9h2M1 10h1M1 11h1" />
<path stroke="#000000" d="M0 0h1M14 4h1M14 5h1M10 6h1M14 6h1M9 7h1M14 7h1M8 8h1M10 8h1M14 8h1M10 9h1M14 9h1M4 10h2M8 10h2M14 10h1M6 11h2M14 11h1M14 12h1M1 13h14" />
<path stroke="#00ff00" d="M0 0h1M6 8h1" />
<path stroke="#ff0000" d="M0 0h1M7 8h1" />
</svg>