<svg xmlns="http://www.w3.org/2000/svg" viewBox="0 -0.5 16 16" shape-rendering="crispEdges">
<path stroke="#808080" d="M0 0h1M3 1h4M2 2h1M7 2h2M1 3h1M7 3h1M12 3h2M1 4h1M6 4h1M13 4h1M1 5h1M5 5h1M0 6h12M0 7h1M10 7h1M0 8h1M1 9h1M11 9h1M1 10h1M13 10h1M2 11h1M12 11h1M2 12h11" />
<path stroke="#000000" d="M0 0h1M9 1h1M10 2h1M11 3h1M12 4h1M14 4h1M13 5h2M14 6h1M11 7h1M15 7h1M11 8h1M14 8h1M12 9h3M12 10h1M14 10h1M13 11h2M13 12h2M3 13h12" />
<path stroke="#ffffff" d="M0 0h1M3 2h4M9 2h1M2 3h1M8 3h3M2 4h1M7 4h2M10 4h2M2 5h1M6 5h2M9 5h1M11 5h2M12 6h2M1 7h9M13 7h1M1 8h1M2 9h1M2 10h1M3 11h1" />
<path stroke="#ffff00" d="M0 0h1M3 3h1M5 3h1M4 4h1M3 5h1M2 8h1M4 8h1M6 8h1M8 8h1M10 8h1M3 9h1M5 9h1M7 9h1M9 9h1M4 10h1M6 10h1M8 10h1M10 10h1M5 11h1M7 11h1M9 11h1M11 11h1" />
<path stroke="#c0c0c0" d="M0 0h1M4 3h1M6 3h1M3 4h1M5 4h1M4 5h1M14 7h1M3 8h1M5 8h1M7 8h1M9 8h1M13 8h1M4 9h1M6 9h1M8 9h1M10 9h1M3 10h1M5 10h1M7 10h1M9 10h1M11 10h1M4 11h1M6 11h1M8 11h1M10 11h1" />
<path stroke="#0000ff" d="M0 0h1M9 4h1M8 5h1M10 5h1M12 7h1" />
</svg>