<svg xmlns="http://www.w3.org/2000/svg" width="16" height="16" shape-rendering="crispEdges" viewBox="0 -0.5 16 16"><path stroke="gray" d="M3 1h4M2 2h1m4 0h2M1 3h1m5 0h1m4 0h2M1 4h1m4 0h1m6 0h1M1 5h1m3 0h1M0 6h12M0 7h1m9 0h1M0 8h1m0 1h1m9 0h1M1 10h1m11 0h1M2 11h1m9 0h1M2 12h11"/><path stroke="#000" d="M9 1h1m0 1h1m0 1h1m0 1h1m1 0h1m-2 1h2m-1 1h1m-4 1h1m3 0h1m-5 1h1m2 0h1m-3 1h3m-3 1h1m1 0h1m-2 1h2m-2 1h2M3 13h12"/><path stroke="#fff" d="M3 2h4m2 0h1M2 3h1m5 0h3M2 4h1m4 0h2m1 0h2M2 5h1m3 0h2m1 0h1m1 0h2m-1 1h2M1 7h9m3 0h1M1 8h1m0 1h1m-1 1h1m0 1h1"/><path stroke="#ff0" d="M3 3h1m1 0h1M4 4h1M3 5h1M2 8h1m1 0h1m1 0h1m1 0h1m1 0h1M3 9h1m1 0h1m1 0h1m1 0h1m-6 1h1m1 0h1m1 0h1m1 0h1m-6 1h1m1 0h1m1 0h1m1 0h1"/><path stroke="silver" d="M4 3h1m1 0h1M3 4h1m1 0h1M4 5h1m9 2h1M3 8h1m1 0h1m1 0h1m1 0h1m3 0h1M4 9h1m1 0h1m1 0h1m1 0h1m-8 1h1m1 0h1m1 0h1m1 0h1m1 0h1m-8 1h1m1 0h1m1 0h1m1 0h1"/><path stroke="#00f" d="M9 4h1M8 5h1m1 0h1m1 2h1"/></svg>