<svg xmlns="http://www.w3.org/2000/svg" viewBox="0 -0.5 32 32" shape-rendering="crispEdges">
<path stroke="#808080" d="M0 0h1M9 0h8M8 1h1M16 1h1M8 2h1M10 2h5M16 2h1M8 3h1M10 3h1M16 3h1M8 4h1M10 4h1M16 4h1M8 5h1M10 5h1M16 5h1M8 6h1M16 6h1M8 7h8M7 8h1M7 9h1M7 10h11M3 19h5M2 20h1M8 20h1M1 21h1M9 21h6M1 22h1M14 22h1M1 23h1M14 23h1M0 24h13M14 24h1M0 25h1M11 25h1M14 25h1M0 26h1M13 26h2M1 27h1M12 27h1M14 27h1M1 28h1M14 28h1M2 29h1M13 29h1M2 30h12" />
<path stroke="#808000" d="M0 0h1M22 0h2M21 1h1M24 1h3M18 2h2M21 2h1M24 2h1M17 3h1M27 3h3M17 4h1M27 4h3M18 5h1M21 5h2M27 5h1M17 6h2M20 6h1M22 6h2M16 7h1M20 7h1M23 7h1M28 7h3M16 8h1M20 8h1M23 8h1M28 8h3M20 9h1M22 9h2M21 10h2M27 10h1M17 11h1M27 11h3M17 12h1M27 12h3M24 13h1M24 14h3" />
<path stroke="#000000" d="M0 0h1M24 0h3M17 1h1M27 1h1M17 2h1M20 2h1M25 2h5M20 3h2M24 3h1M30 3h1M30 4h1M17 5h1M23 5h1M26 5h1M28 5h2M24 6h1M26 6h5M21 7h1M24 7h1M31 7h1M21 8h1M24 8h1M31 8h1M13 9h3M17 9h2M24 9h1M26 9h5M18 10h1M23 10h1M26 10h1M28 10h2M8 11h9M30 11h1M20 12h2M24 12h1M30 12h1M18 13h4M25 13h5M21 14h1M27 14h1M22 15h5M15 22h1M15 23h1M15 24h1M12 25h1M15 25h1M12 26h1M15 26h1M13 27h1M15 27h1M13 28h1M15 28h1M14 29h2M14 30h2M3 31h13" />
<path stroke="#c0c0c0" d="M0 0h1M9 1h7M9 2h1M15 2h1M9 3h1M15 3h1M9 4h1M15 4h1M9 5h1M15 5h1M9 6h7M9 9h4M16 9h1M3 21h1M5 21h1M7 21h1M4 22h1M6 22h1M8 22h1M3 23h1M5 23h1M7 23h1M9 23h1M11 23h1M13 23h1M13 25h1M2 26h1M4 26h1M6 26h1M8 26h1M10 26h1M3 27h1M5 27h1M7 27h1M9 27h1M11 27h1M4 28h1M6 28h1M8 28h1M10 28h1M12 28h1M5 29h1M7 29h1M9 29h1M11 29h1" />
<path stroke="#ffffff" d="M0 0h1M22 1h1M23 2h1M18 3h1M22 3h1M25 3h1M19 4h1M21 4h1M23 4h1M26 4h1M20 5h1M25 5h1M19 6h1M21 6h1M18 7h1M22 7h1M25 7h1M27 7h1M8 8h8M17 8h1M19 8h1M26 8h1M8 9h1M25 9h1M19 10h1M18 11h1M20 11h1M22 11h1M25 11h1M19 12h1M23 12h1M26 12h1M22 13h1M23 14h1M3 20h5M2 21h1M8 21h1M2 22h1M9 22h5M2 23h1M1 25h10M1 26h1M2 27h1M2 28h1M3 29h1" />
<path stroke="#ffff00" d="M0 0h1M23 1h1M22 2h1M19 3h1M23 3h1M26 3h1M18 4h1M20 4h1M22 4h1M24 4h2M19 5h1M24 5h1M25 6h1M17 7h1M19 7h1M26 7h1M18 8h1M22 8h1M25 8h1M27 8h1M19 9h1M21 9h1M20 10h1M24 10h2M19 11h1M21 11h1M23 11h2M26 11h1M18 12h1M22 12h1M25 12h1M23 13h1M22 14h1M4 21h1M6 21h1M3 22h1M5 22h1M7 22h1M4 23h1M6 23h1M8 23h1M10 23h1M12 23h1M13 24h1M3 26h1M5 26h1M7 26h1M9 26h1M11 26h1M4 27h1M6 27h1M8 27h1M10 27h1M3 28h1M5 28h1M7 28h1M9 28h1M11 28h1M4 29h1M6 29h1M8 29h1M10 29h1M12 29h1" />
<path stroke="#00ffff" d="M0 0h1M11 3h4M11 4h4M11 5h4" />
<path stroke="#ff0000" d="M0 0h1M14 13h1M13 14h1M13 15h1M12 16h1M12 17h1M10 18h5M11 19h3M12 20h1" />
</svg>