<svg xmlns="http://www.w3.org/2000/svg" viewBox="0 -0.5 16 16" shape-rendering="crispEdges">
<path stroke="#808080" d="M0 0h1M2 0h5M1 1h1M7 1h1M0 2h1M8 2h5M0 3h1M12 3h1M0 4h1M0 5h1M0 6h1M0 7h1M0 8h1M0 9h1M0 10h9M12 10h1" />
<path stroke="#c0c0c0" d="M0 0h1M2 1h1M4 1h1M6 1h1M1 2h1M3 2h1M5 2h1M7 2h1M3 4h1M5 4h1M7 4h1M9 4h1M11 4h1M2 5h1M4 5h1M6 5h1M8 5h1M10 5h1M3 6h1M5 6h1M7 6h1M9 6h1M2 7h1M4 7h1M6 7h1M8 7h1M10 7h1M3 8h1M5 8h1M7 8h1M9 8h1M2 9h1M4 9h1M6 9h1M8 9h1M9 12h1" />
<path stroke="#ffff00" d="M0 0h1M3 1h1M5 1h1M2 2h1M4 2h1M6 2h1M2 4h1M4 4h1M6 4h1M8 4h1M10 4h1M3 5h1M5 5h1M7 5h1M9 5h1M11 5h1M2 6h1M4 6h1M6 6h1M8 6h1M10 6h1M3 7h1M5 7h1M7 7h1M9 7h1M2 8h1M4 8h1M6 8h1M8 8h1M3 9h1M5 9h1M7 9h1M9 9h1" />
<path stroke="#ffffff" d="M0 0h1M1 3h11M1 4h1M1 5h1M1 6h1M1 7h1M1 8h1M1 9h1M1 14h1M3 14h1M5 14h1M7 14h1" />
<path stroke="#800000" d="M0 0h1M13 3h1M14 4h1" />
<path stroke="#008080" d="M0 0h1M12 4h1M12 5h2M11 6h1M11 7h1M10 8h1M10 9h1M9 10h1M9 11h1" />
<path stroke="#ff0000" d="M0 0h1M13 4h1" />
<path stroke="#000000" d="M0 0h1M14 5h1M13 6h1M13 7h1M12 8h2M12 9h2M11 10h1M13 10h1M1 11h8M11 11h3M10 12h1M9 13h1M13 13h1M13 14h1M0 15h14" />
<path stroke="#00ffff" d="M0 0h1M12 6h1M12 7h1M11 8h1M11 9h1M10 10h1M10 11h1" />
<path stroke="#0000ff" d="M0 0h1M0 13h9M10 13h3M0 14h1M2 14h1M4 14h1M6 14h1M8 14h5" />
</svg>