<svg xmlns="http://www.w3.org/2000/svg" width="32" height="32" shape-rendering="crispEdges" viewBox="0 -0.5 32 32"><path stroke="gray" d="M3 1h8M2 2h1m8 0h1M1 3h1m10 0h1M0 4h1m12 0h13M0 5h1M0 6h1M0 7h1M0 8h1M0 9h1m-1 1h1m7 0h23M0 11h1m7 0h1m-9 1h1m7 0h1m-9 1h1m7 0h1m-9 1h1m7 0h1m-9 1h1m7 0h1m-9 1h1m7 0h1m-9 1h1m7 0h1m-9 1h1m7 0h1m-9 1h1m7 0h1m-9 1h1m7 0h1m-9 1h1m7 0h1m-9 1h1m7 0h1m-1 1h1m-1 1h1m-1 1h1m-1 1h1m-1 1h1m-1 1h1m-1 1h1"/><path stroke="#fff" d="M3 2h8M2 3h1M1 5h25M1 6h1M1 7h1M1 8h1M1 9h1m-1 1h1m-1 1h1m-1 1h1m22 0h1m1 0h1m1 0h1M1 13h1m-1 1h1m-1 1h1m8 0h20M1 16h1m8 0h20M1 17h1m8 0h4m2 0h3m1 0h5m2 0h3M1 18h1m8 0h2m4 0h3m3 0h2m4 0h2M1 19h1m8 0h2m3 0h3m4 0h3m3 0h2M1 20h1m8 0h20M1 21h1m8 0h20m-20 1h20m-20 1h3m2 0h5m1 0h3m2 0h4m-20 1h2m4 0h2m3 0h3m4 0h2m-20 1h2m3 0h3m4 0h3m3 0h2m-20 1h20m-20 1h20m-20 1h20"/><path stroke="#ff0" d="M3 3h1m1 0h1m1 0h1m1 0h1m1 0h1M2 6h1m1 0h1m1 0h1m1 0h1m1 0h1m1 0h1m1 0h1m1 0h1m1 0h1m1 0h1m1 0h1m1 0h1M3 7h1m1 0h1m1 0h1m1 0h1m1 0h1m1 0h1m1 0h1m1 0h1m1 0h1m1 0h1m1 0h1m1 0h1M2 8h1m1 0h1m1 0h1m1 0h1m1 0h1m1 0h1m1 0h1m1 0h1m1 0h1m1 0h1m1 0h1m1 0h1M3 9h1m1 0h1m1 0h1m1 0h1m1 0h1m1 0h1m1 0h1m1 0h1m1 0h1m1 0h1m1 0h1m1 0h1M2 10h1m1 0h1m1 0h1m-4 1h1m1 0h1m1 0h1m-6 1h1m1 0h1m1 0h1m-4 1h1m1 0h1m1 0h1m-6 1h1m1 0h1m1 0h1m-4 1h1m1 0h1m1 0h1m-6 1h1m1 0h1m1 0h1m-4 1h1m1 0h1m1 0h1m-6 1h1m1 0h1m1 0h1m7 0h1M3 19h1m1 0h1m1 0h1m-6 1h1m1 0h1m1 0h1m-4 1h1m1 0h1m1 0h1m17 3h1"/><path stroke="silver" d="M4 3h1m1 0h1m1 0h1m1 0h1M1 4h12M3 6h1m1 0h1m1 0h1m1 0h1m1 0h1m1 0h1m1 0h1m1 0h1m1 0h1m1 0h1m1 0h1m1 0h1M2 7h1m1 0h1m1 0h1m1 0h1m1 0h1m1 0h1m1 0h1m1 0h1m1 0h1m1 0h1m1 0h1m1 0h1M3 8h1m1 0h1m1 0h1m1 0h1m1 0h1m1 0h1m1 0h1m1 0h1m1 0h1m1 0h1m1 0h1m1 0h1M2 9h1m1 0h1m1 0h1m1 0h1m1 0h1m1 0h1m1 0h1m1 0h1m1 0h1m1 0h1m1 0h1m1 0h1M3 10h1m1 0h1m1 0h1m-6 1h1m1 0h1m1 0h1m2 0h22M3 12h1m1 0h1m1 0h1m1 0h1m20 0h1M2 13h1m1 0h1m1 0h1m2 0h1m20 0h1M3 14h1m1 0h1m1 0h1m1 0h22M2 15h1m1 0h1m1 0h1m2 0h1m20 0h1M3 16h1m1 0h1m1 0h1m1 0h1m20 0h1M2 17h1m1 0h1m1 0h1m2 0h1m20 0h1M3 18h1m1 0h1m1 0h1m1 0h1m20 0h1M2 19h1m1 0h1m1 0h1m2 0h1m2 0h1m6 0h1m10 0h1M3 20h1m1 0h1m1 0h1m1 0h1m20 0h1M2 21h1m1 0h1m1 0h1m2 0h1m20 0h1M9 22h1m20 0h1M9 23h1m20 0h1M9 24h1m20 0h1M9 25h1m10 0h1m6 0h1m2 0h1M9 26h1m20 0h1M9 27h1m20 0h1M9 28h1m20 0h1M9 29h22"/><path stroke="#000" d="M26 5h1m0 1h1m-1 1h1m-1 1h1m-1 1h1m3 1h1m-1 1h1m-7 1h1m1 0h1m1 0h1m1 0h1m-8 1h6m1 0h1m-1 1h1m-1 1h1m-1 1h1m-1 1h1m-1 1h1m-1 1h1m-1 1h1m-1 1h1m-1 1h1M1 23h7m23 0h1m-1 1h1m-1 1h1m-1 1h1m-1 1h1m-1 1h1m-1 1h1M8 30h24"/><path stroke="olive" d="M26 6h1m-1 1h1m-1 1h1m-1 1h1M1 22h7"/><path stroke="navy" d="M10 12h14m-14 1h14"/><path stroke="red" d="M14 17h1m-2 1h1m11 5h1"/><path stroke="maroon" d="M15 17h1m-4 1h1m2 0h1m-3 1h2m9 4h1m-1 1h1m1 1h1"/><path stroke="#00f" d="M19 17h1m0 1h2m4 1h2m-14 4h1m5 0h1m-7 1h2m2 0h2m-8 1h2"/><path stroke="green" d="M25 17h1m-2 1h3m-14 6h1"/><path stroke="#0f0" d="M26 17h1m0 1h1m-3 1h1m-13 4h1m-2 1h1m1 1h1"/><path stroke="#0ff" d="M19 18h1m0 6h1"/><path stroke="purple" d="M18 19h1m1 0h2m-4 6h2m1 0h1"/><path stroke="#f0f" d="M26 24h2m-3 1h1"/></svg>