<svg xmlns="http://www.w3.org/2000/svg" viewBox="0 -0.5 16 16" shape-rendering="crispEdges">
<path stroke="#808080" d="M0 0h1M2 0h10M2 1h1M12 1h1M2 2h1M13 2h1M2 3h1M2 4h1M2 5h1M2 6h1M2 7h1M2 8h1M2 9h1M2 10h1M2 11h1M2 12h1M2 13h1M2 14h1" />
<path stroke="#ffffff" d="M0 0h1M3 1h8M3 2h8M12 2h1M3 3h8M3 4h5M10 4h3M3 5h4M10 5h3M3 6h4M11 6h2M3 7h3M8 7h1M11 7h2M3 8h3M7 8h2M12 8h1M3 9h2M12 9h1M3 10h2M6 10h4M3 11h1M7 11h2M3 12h10M3 13h10" />
<path stroke="#c0c0c0" d="M0 0h1M11 1h1M11 2h1M9 4h1M13 4h1M7 5h1M13 5h1M10 6h1M13 6h1M6 7h1M13 7h1M11 8h1M13 8h1M5 9h1M13 9h1M12 10h2M13 11h1M13 12h1M13 13h1M3 14h11" />
<path stroke="#000000" d="M0 0h1M11 3h4M14 4h1M14 5h1M14 6h1M14 7h1M14 8h1M14 9h1M14 10h1M14 11h1M14 12h1M14 13h1M14 14h1M2 15h13" />
<path stroke="#ff0000" d="M0 0h1M8 4h1M8 5h2M7 6h3M7 7h1M9 7h2M6 8h1M9 8h2M6 9h6M5 10h1M10 10h2M4 11h3M9 11h4" />
</svg>