<svg xmlns="http://www.w3.org/2000/svg" width="32" height="32" shape-rendering="crispEdges" viewBox="0 -0.5 32 32"><path stroke="gray" d="M3 0h20M3 1h1m18 0h1M3 2h1m18 0h2M3 3h1m18 0h1m1 0h1M3 4h1m18 0h1m2 0h1M3 5h1m18 0h1m3 0h1M3 6h1m18 0h1M3 7h1M3 8h1M3 9h1m-1 1h1m3 0h11M3 11h1m3 0h2m2 0h3m2 0h2M3 12h1m3 0h1m3 0h3m3 0h1M3 13h1m3 0h1m3 0h3m3 0h1M3 14h1m7 0h2M3 15h1m7 0h2M3 16h1m7 0h2M3 17h1m7 0h2M3 18h1m7 0h3M3 19h1m7 0h3M3 20h1m5 0h7M3 21h1m-1 1h1m-1 1h1m-1 1h1m-1 1h1m-1 1h1m-1 1h1m-1 1h1m-1 1h1m-1 1h1"/><path stroke="#fff" d="M4 1h18M4 2h18M4 3h18M4 4h18m1 0h1M4 5h18m1 0h2M4 6h18M4 7h23M4 8h23M4 9h23M4 10h3m11 0h9M4 11h3m12 0h8M4 12h3m2 0h2m4 0h2m2 0h8M4 13h3m2 0h2m4 0h2m2 0h8M4 14h4m1 0h2m13 0h3M4 15h7m14 0h2M4 16h7m4 0h2m4 0h2m2 0h2M4 17h7m4 0h2m4 0h2m2 0h2M4 18h7m4 0h2m4 0h3m1 0h2M4 19h7m4 0h2m4 0h6M4 20h5m7 0h1m4 0h6M4 21h6m11 0h6M4 22h13m4 0h6M4 23h13m4 0h6M4 24h11m7 0h5M4 25h12m7 0h4M4 26h23M4 27h23M4 28h23M4 29h23"/><path stroke="#000" d="M23 1h1m0 1h1m0 1h1m0 1h1m0 1h1m-5 1h6m-1 1h1m-1 1h1m-1 1h1m-1 1h1m-1 1h1m-1 1h1m-1 1h1m-1 1h1m-1 1h1m-1 1h1m-1 1h1m-1 1h1m-1 1h1m-1 1h1m-1 1h1m-1 1h1m-1 1h1m-1 1h1m-1 1h1m-1 1h1m-1 1h1m-1 1h1m-1 1h1m-1 1h1M3 31h26"/><path stroke="silver" d="M23 3h1m0 1h1m0 1h1m1 2h1m-1 1h1m-1 1h1m-1 1h1M9 11h2m3 0h2m2 0h1m8 0h1M8 12h1m5 0h1m3 0h1m8 0h1M8 13h1m5 0h1m3 0h1m8 0h1M8 14h1m18 0h1m-13 1h2m3 0h2m2 0h1m2 0h1m-14 1h1m5 0h1m3 0h1m2 0h1m-14 1h1m5 0h1m3 0h1m2 0h1m-14 1h1m5 0h1m3 0h1m2 0h1m-14 1h1m5 0h1m6 0h1m-8 1h1m6 0h1m-18 1h7m3 0h1m6 0h1m-8 1h1m6 0h1m-8 1h1m6 0h1m-1 1h1m-12 1h7m4 0h1m-1 1h1m-1 1h1m-1 1h1m-1 1h1M4 30h24"/><path stroke="green" d="M13 14h11m-11 1h2m2 0h3m2 0h2m-11 1h1m3 0h3m3 0h1m-11 1h1m3 0h3m3 0h1m-7 1h3m-3 1h3m-3 1h3m-3 1h3m-3 1h3m-3 1h3m-5 1h7"/></svg>