<svg xmlns="http://www.w3.org/2000/svg" viewBox="0 -0.5 32 32" shape-rendering="crispEdges">
<path stroke="#808080" d="M0 0h1M9 7h1M9 8h1M8 9h3M8 10h1M7 11h1M9 11h3M7 12h1M6 13h1M10 13h3M6 14h1M5 15h1M11 15h3M5 16h1M4 17h1M12 17h3M4 18h1M3 19h1M13 19h2M3 20h1M2 21h1M0 22h2" />
<path stroke="#000000" d="M0 0h1M10 7h1M22 7h1M23 8h1M11 9h1M23 9h1M24 10h1M8 11h1M12 11h1M20 11h1M24 11h1M20 12h1M25 12h1M7 13h1M13 13h1M19 13h1M25 13h1M19 14h1M26 14h1M6 15h1M14 15h1M18 15h1M26 15h1M18 16h1M27 16h1M5 17h1M15 17h1M17 17h1M27 17h1M28 18h1M4 19h9M16 19h8M28 19h1M16 20h1M29 20h1M3 21h1M15 21h3M29 21h1M31 22h1M0 23h7M11 23h8M22 23h10" />
<path stroke="#808000" d="M0 0h1M21 7h1M20 8h1M19 10h1M18 12h1M21 13h1M17 14h1M21 14h1M22 15h1M16 16h1M22 16h1M23 17h1M15 18h1M14 20h1M24 20h1M13 21h1M24 21h1M18 22h1M22 22h1" />
<path stroke="#ffffff" d="M0 0h1M12 8h8M13 10h6M14 12h4M8 14h2M15 14h2M7 16h4M5 20h8M7 22h4" />
<path stroke="#ffff00" d="M0 0h1M21 8h2M20 9h3M20 10h4M19 11h1M21 11h3M19 12h1M21 12h4M18 13h1M22 13h3M18 14h1M22 14h4M17 15h1M23 15h3M17 16h1M23 16h4M16 17h1M24 17h3M16 18h12M15 19h1M24 19h4M15 20h1M25 20h4M14 21h1M25 21h4M12 22h6M23 22h8" />
<path stroke="#c0c0c0" d="M0 0h1M9 10h3M8 12h5M8 13h2M7 14h1M10 14h4M7 15h4M6 16h1M11 16h4M6 17h6M5 18h10M4 20h1M13 20h1M4 21h9M2 22h5M11 22h1" />
</svg>