<svg xmlns="http://www.w3.org/2000/svg" viewBox="0 -0.5 16 16" shape-rendering="crispEdges">
<path stroke="#808080" d="M0 0h11M1 1h1M11 1h1M1 2h1M12 2h1M1 3h1M1 4h1M3 4h5M1 5h1M3 5h1M5 5h1M7 5h1M1 6h1M5 6h1M1 7h1M5 7h1M1 8h1M5 8h1M1 9h1M4 9h3M1 10h1M1 11h1M1 12h1M1 13h1M1 14h1" />
<path stroke="#ffffff" d="M0 0h1M2 1h8M2 2h8M11 2h1M2 3h8M2 4h1M8 4h4M2 5h1M9 5h3M2 6h2M11 6h1M2 7h3M2 8h3M6 8h1M10 8h1M2 9h2M7 9h1M10 9h2M2 10h6M10 10h2M2 11h5M10 11h2M2 12h6M11 12h1M2 13h10" />
<path stroke="#c0c0c0" d="M0 0h1M10 1h1M10 2h1M12 4h1M4 5h1M6 5h1M8 5h1M12 5h1M4 6h1M12 6h1M7 7h1M9 7h1M11 7h2M7 8h1M9 8h1M11 8h2M9 9h1M12 9h1M9 10h1M12 10h1M12 11h1M8 12h3M12 12h1M12 13h1M2 14h11" />
<path stroke="#000000" d="M0 0h1M10 3h4M13 4h1M13 5h1M13 6h1M13 7h1M13 8h1M13 9h1M13 10h1M13 11h1M13 12h1M13 13h1M13 14h1M1 15h13" />
<path stroke="#008000" d="M0 0h1M6 6h5M6 7h1M8 7h1M10 7h1M8 8h1M8 9h1M8 10h1M7 11h3" />
</svg>