<svg xmlns="http://www.w3.org/2000/svg" width="16" height="16" shape-rendering="crispEdges" viewBox="0 -0.5 16 16"><path stroke="#000" d="M1 1h14M1 2h1m12 0h1M1 3h1m12 0h1M1 4h1m12 0h1M1 5h1m12 0h1M1 6h1m12 0h1M1 7h1m12 0h1M1 8h1m12 0h1M1 9h1m12 0h1M1 10h1m12 0h1M1 11h1m12 0h1M1 12h1m12 0h1M1 13h1m12 0h1M1 14h14"/><path stroke="#fff" d="M2 2h12M2 3h5m2 0h5M2 4h3m2 0h2m2 0h3M2 5h2m1 0h5m2 0h2M2 6h2m1 0h4m1 0h1m1 0h2M2 7h1m1 0h4m1 0h3m1 0h1M2 8h1m1 0h3m1 0h4m1 0h1M2 9h2m1 0h1m1 0h4m1 0h2M2 10h2m2 0h5m1 0h2M2 11h3m2 0h2m2 0h3M2 12h5m2 0h5M2 13h12"/><path stroke="red" d="M7 3h2M5 4h2m2 0h2M4 5h1m5 0h2M4 6h1m4 0h1m1 0h1M3 7h1m4 0h1m3 0h1M3 8h1m3 0h1m4 0h1M4 9h1m1 0h1m4 0h1m-8 1h2m5 0h1m-7 1h2m2 0h2m-4 1h2"/></svg>