<svg xmlns="http://www.w3.org/2000/svg" viewBox="0 -0.5 16 16" shape-rendering="crispEdges">
<path stroke="#000000" d="M0 0h1M1 1h14M1 2h1M14 2h1M1 3h1M14 3h1M1 4h1M14 4h1M1 5h1M14 5h1M1 6h1M14 6h1M1 7h1M14 7h1M1 8h1M14 8h1M1 9h1M14 9h1M1 10h1M14 10h1M1 11h1M14 11h1M1 12h1M14 12h1M1 13h1M14 13h1M1 14h14" />
<path stroke="#ffffff" d="M0 0h1M2 2h12M2 3h5M9 3h5M2 4h3M7 4h2M11 4h3M2 5h2M5 5h5M12 5h2M2 6h2M5 6h4M10 6h1M12 6h2M2 7h1M4 7h4M9 7h3M13 7h1M2 8h1M4 8h3M8 8h4M13 8h1M2 9h2M5 9h1M7 9h4M12 9h2M2 10h2M6 10h5M12 10h2M2 11h3M7 11h2M11 11h3M2 12h5M9 12h5M2 13h12" />
<path stroke="#ff0000" d="M0 0h1M7 3h2M5 4h2M9 4h2M4 5h1M10 5h2M4 6h1M9 6h1M11 6h1M3 7h1M8 7h1M12 7h1M3 8h1M7 8h1M12 8h1M4 9h1M6 9h1M11 9h1M4 10h2M11 10h1M5 11h2M9 11h2M7 12h2" />
</svg>