<svg xmlns="http://www.w3.org/2000/svg" viewBox="0 -0.5 16 16" shape-rendering="crispEdges">
<path stroke="#000000" d="M0 0h2M14 0h1M1 1h1M14 1h1M1 2h1M14 2h1M1 3h1M14 3h1M1 4h1M14 4h1M1 5h1M14 5h1M1 6h10M12 6h3M1 10h10M12 10h3M1 11h1M14 11h1M1 12h1M14 12h1M1 13h1M14 13h1M1 14h1M14 14h1M1 15h1M14 15h1" />
<path stroke="#ffffff" d="M0 0h1M2 0h12M2 1h12M2 2h1M6 2h1M10 2h1M13 2h1M2 3h12M2 4h1M6 4h1M10 4h1M13 4h1M2 5h12M2 11h12M2 12h1M13 12h1M2 13h12M2 14h1M6 14h1M10 14h1M13 14h1M2 15h12" />
<path stroke="#808080" d="M0 0h1M3 2h3M7 2h3M11 2h2M3 4h3M7 4h3M11 4h2M3 14h3M7 14h3M11 14h2" />
<path stroke="#0000ff" d="M0 0h1M11 6h1M10 7h2M9 8h7M10 9h2M11 10h1" />
<path stroke="#808000" d="M0 0h1M3 12h10" />
</svg>