<svg xmlns="http://www.w3.org/2000/svg" width="32" height="32" shape-rendering="crispEdges" viewBox="0 -0.5 32 32"><path stroke="#000" d="M8 0h22M9 1h1m7 0h1m1 0h1m1 0h1m1 0h1m1 0h1m1 0h2M10 2h2m1 0h1m1 0h1m1 0h1m1 0h1m1 0h1m1 0h1m1 0h1m1 0h1M11 3h1m1 0h1m1 0h1m10 0h1M11 4h1m6 0h9M3 5h12m2 0h1m8 0h2M2 6h1m11 0h2m10 0h1m1 0h1M2 7h15m2 0h3m1 0h4m1 0h1M3 8h2m11 0h1m1 0h1m1 0h3m1 0h4M2 9h11m3 0h1m5 0h1m3 0h1m1 0h1M1 10h1m11 0h1m2 0h1m5 0h1m3 0h1m1 0h1M1 11h1m2 0h1m5 0h1m2 0h1m2 0h1m5 0h1m3 0h1m1 0h1M1 12h1m1 0h3m3 0h3m1 0h1m2 0h1m4 0h3m2 0h1m1 0h1M1 13h1m1 0h3m3 0h3m1 0h1m1 0h3m1 0h2m3 0h1m1 0h1m1 0h2M1 14h1m2 0h1m5 0h1m2 0h2m2 0h1m1 0h1m1 0h3m2 0h2m2 0h1M0 15h6m2 0h6m4 0h1m7 0h1m4 0h1M0 16h1m4 0h1m2 0h1m4 0h2m2 0h2m1 0h1m3 0h1m1 0h1m4 0h1M0 17h1m1 0h10m1 0h1m1 0h3m2 0h1m1 0h1m1 0h1m1 0h1m2 0h3M0 18h1m1 0h10m1 0h1m2 0h1m3 0h1m1 0h1m1 0h1m2 0h3m1 0h1M0 19h1m1 0h10m1 0h1m2 0h1m2 0h1m1 0h1m1 0h1m1 0h1m1 0h2m1 0h2M0 20h1m1 0h10m1 0h1m2 0h2m2 0h1m1 0h2m1 0h3m1 0h3M0 21h1m1 0h10m1 0h1m2 0h1m1 0h5m1 0h1m1 0h1m1 0h2m1 0h1M0 22h1m1 0h10m1 0h1m2 0h1m2 0h1m1 0h2m1 0h3m1 0h2m1 0h1M0 23h1m1 0h10m1 0h1m2 0h6m1 0h1m1 0h1m1 0h2m1 0h2M0 24h1m1 0h10m1 0h1m2 0h1m4 0h1m1 0h3m1 0h2m1 0h2M0 25h1m1 0h10m1 0h1m2 0h1m4 0h1m1 0h2m1 0h2m1 0h1m1 0h1M0 26h1m1 0h10m1 0h1m2 0h5m1 0h1m1 0h1m1 0h2m1 0h1m1 0h1M0 27h1m1 0h10m1 0h1m2 0h1m2 0h2m1 0h3m1 0h2m1 0h1m1 0h1M0 28h1m1 0h10m1 0h1m1 0h1m1 0h1m2 0h1m1 0h2m1 0h2m1 0h1m1 0h2M0 29h1m1 0h10m1 0h3m1 0h1m2 0h1m1 0h2m1 0h2m1 0h1m1 0h2M0 30h1m12 0h19M0 31h14"/><path stroke="#fff" d="M10 1h7m1 0h1m1 0h1m1 0h1m1 0h1m1 0h1M12 2h1m1 0h1m1 0h1m1 0h1m1 0h1m1 0h1m1 0h1m1 0h1M12 3h1m1 0h1m1 0h10M12 4h6m-3 1h2m1 0h8M3 6h11m2 0h10m1 0h1M17 7h2m3 0h1m4 0h1M5 8h11m1 0h1m1 0h1m3 0h1M13 9h3m1 0h5m1 0h3m1 0h1M2 10h11m1 0h2m1 0h5m1 0h3m1 0h1M2 11h2m1 0h5m1 0h2m1 0h2m1 0h5m1 0h3m1 0h1M2 12h1m3 0h3m3 0h1m1 0h2m1 0h4m3 0h2m1 0h1M2 13h1m3 0h3m3 0h1m1 0h1m3 0h1m2 0h3m1 0h1m1 0h1M2 14h2m1 0h5m1 0h2m2 0h2m1 0h1m1 0h1m3 0h2m2 0h2M6 15h2m6 0h4m1 0h7m1 0h4M1 16h4m1 0h2m1 0h4m2 0h2m2 0h1m1 0h3m1 0h1m1 0h4M1 17h1m10 0h1m1 0h1m3 0h2m1 0h1m1 0h1m1 0h1m1 0h2M1 18h1m10 0h1m1 0h2m1 0h3m1 0h1m1 0h1m1 0h2m3 0h1M1 19h1m10 0h1m1 0h2m1 0h2m1 0h1m1 0h1m1 0h1m1 0h1m2 0h1M1 20h1m10 0h1m1 0h2m2 0h2m1 0h1m2 0h1m3 0h1M1 21h1m10 0h1m1 0h2m1 0h1m5 0h1m1 0h1m1 0h1m2 0h1M1 22h1m10 0h1m1 0h2m1 0h2m1 0h1m2 0h1m3 0h1m2 0h1M1 23h1m10 0h1m1 0h2m6 0h1m1 0h1m1 0h1m2 0h1M1 24h1m10 0h1m1 0h2m1 0h4m1 0h1m3 0h1m2 0h1M1 25h1m10 0h1m1 0h2m1 0h4m1 0h1m2 0h1m2 0h1m1 0h1M1 26h1m10 0h1m1 0h2m5 0h1m1 0h1m1 0h1m2 0h1m1 0h1M1 27h1m10 0h1m1 0h2m1 0h2m2 0h1m3 0h1m2 0h1m1 0h1M1 28h1m10 0h1m1 0h1m1 0h1m1 0h2m1 0h1m2 0h1m2 0h1m1 0h1M1 29h1m10 0h1m3 0h1m1 0h2m1 0h1m2 0h1m2 0h1m1 0h1M1 30h12"/></svg>