<svg xmlns="http://www.w3.org/2000/svg" viewBox="0 -0.5 32 32" shape-rendering="crispEdges">
<path stroke="#000000" d="M0 0h1M8 0h22M9 1h1M17 1h1M19 1h1M21 1h1M23 1h1M25 1h1M27 1h2M10 2h2M13 2h1M15 2h1M17 2h1M19 2h1M21 2h1M23 2h1M25 2h1M27 2h1M11 3h1M13 3h1M15 3h1M26 3h1M11 4h1M18 4h9M3 5h12M17 5h1M26 5h2M2 6h1M14 6h2M26 6h1M28 6h1M2 7h15M19 7h3M23 7h4M28 7h1M3 8h2M16 8h1M18 8h1M21 8h2M25 8h3M2 9h11M16 9h1M22 9h1M26 9h1M28 9h1M1 10h1M13 10h1M16 10h1M22 10h1M26 10h1M28 10h1M1 11h1M13 11h1M16 11h1M22 11h1M26 11h1M28 11h1M1 12h1M13 12h1M16 12h1M21 12h3M26 12h1M28 12h1M1 13h1M13 13h1M15 13h3M19 13h2M24 13h1M26 13h1M28 13h2M1 14h1M13 14h2M17 14h1M19 14h1M21 14h3M26 14h2M30 14h1M0 15h6M8 15h6M18 15h1M26 15h1M31 15h1M0 16h1M5 16h1M8 16h1M13 16h2M17 16h2M20 16h1M24 16h1M26 16h1M31 16h1M0 17h1M2 17h3M6 17h2M9 17h3M13 17h1M15 17h3M20 17h1M22 17h1M24 17h1M26 17h1M29 17h3M0 18h1M2 18h1M11 18h1M13 18h1M16 18h1M20 18h1M22 18h1M24 18h1M27 18h3M31 18h1M0 19h1M2 19h1M11 19h1M13 19h1M16 19h1M19 19h1M21 19h1M23 19h1M25 19h1M27 19h2M30 19h2M0 20h1M2 20h1M11 20h1M13 20h1M16 20h2M20 20h1M22 20h2M25 20h3M29 20h3M0 21h1M2 21h1M11 21h1M13 21h1M16 21h1M18 21h5M24 21h1M26 21h1M28 21h2M31 21h1M0 22h1M2 22h1M11 22h1M13 22h1M16 22h1M19 22h1M21 22h2M24 22h3M28 22h2M31 22h1M0 23h1M2 23h1M11 23h1M13 23h1M16 23h6M23 23h1M25 23h1M27 23h2M30 23h2M0 24h1M2 24h1M11 24h1M13 24h1M16 24h1M21 24h1M23 24h3M27 24h2M30 24h2M0 25h1M2 25h1M11 25h1M13 25h1M16 25h1M21 25h1M23 25h2M26 25h2M29 25h1M31 25h1M0 26h1M2 26h1M11 26h1M13 26h1M16 26h5M22 26h1M24 26h1M26 26h2M29 26h1M31 26h1M0 27h1M2 27h1M11 27h1M13 27h1M16 27h1M19 27h2M22 27h3M26 27h2M29 27h1M31 27h1M0 28h1M2 28h1M11 28h1M13 28h1M15 28h1M17 28h1M20 28h1M22 28h2M25 28h2M28 28h1M30 28h2M0 29h1M2 29h10M13 29h3M17 29h1M20 29h1M22 29h2M25 29h2M28 29h1M30 29h2M0 30h1M13 30h19M0 31h14" />
<path stroke="#ffff00" d="M0 0h1M10 1h7M18 1h1M20 1h1M22 1h1M24 1h1M26 1h1M12 2h1M14 2h1M16 2h1M30 18h1M24 19h1M29 19h1M24 20h1M28 20h1M17 21h1M23 21h1M27 21h1M17 22h2M20 22h1M23 22h1M27 22h1M22 23h1M26 23h1M17 24h2M22 24h1M26 24h1M17 25h2M22 25h1M25 25h1M21 26h1M25 26h1M21 27h1M25 27h1M21 28h1M24 28h1M21 29h1M24 29h1" />
<path stroke="#ff0000" d="M0 0h1M18 2h1M20 2h1M22 2h1M24 2h1M26 2h1M12 3h1M14 3h1M16 3h10M12 4h6M15 5h2M16 6h1M4 11h1M10 11h1M3 12h3M9 12h3M3 13h3M9 13h3M4 14h1M10 14h1M26 19h1M25 21h1M24 23h1M19 24h2M19 25h2M30 25h1M23 26h1M30 26h1M30 27h1M29 28h1M29 29h1" />
<path stroke="#ffffff" d="M0 0h1M18 5h8M3 6h11M17 6h9M27 6h1M17 7h2M22 7h1M27 7h1M5 8h11M17 8h1M19 8h1M23 8h1M13 9h3M17 9h5M23 9h3M27 9h1M2 10h11M14 10h2M17 10h5M23 10h3M27 10h1M2 11h2M5 11h5M11 11h2M14 11h2M17 11h5M23 11h3M27 11h1M2 12h1M6 12h3M12 12h1M14 12h2M17 12h4M24 12h2M27 12h1M2 13h1M6 13h3M12 13h1M14 13h1M18 13h1M21 13h3M25 13h1M27 13h1M2 14h2M5 14h5M11 14h2M18 14h1M20 14h1M24 14h2M28 14h2M6 15h2M19 15h7M27 15h4M6 16h2M19 16h1M21 16h3M25 16h1M27 16h4M18 17h2M21 17h1M23 17h1M25 17h1M27 17h2M17 18h3M21 18h1M23 18h1M25 18h2M17 19h2M20 19h1M22 19h1M18 20h2M21 20h1M30 21h1M30 22h1M29 23h1M29 24h1M28 25h1M28 26h1M17 27h2M28 27h1M16 28h1M18 28h2M27 28h1M16 29h1M18 29h2M27 29h1" />
<path stroke="#0000ff" d="M0 0h1M20 8h1M24 8h1M3 18h8M3 19h8M3 20h8M3 21h8M3 22h8M3 23h8M3 24h8M3 25h8M3 26h8M3 27h8M3 28h8" />
<path stroke="#c0c0c0" d="M0 0h1M15 14h2M14 15h4M1 16h4M9 16h4M15 16h2M1 17h1M5 17h1M8 17h1M12 17h1M14 17h1M1 18h1M12 18h1M14 18h2M1 19h1M12 19h1M14 19h2M1 20h1M12 20h1M14 20h2M1 21h1M12 21h1M14 21h2M1 22h1M12 22h1M14 22h2M1 23h1M12 23h1M14 23h2M1 24h1M12 24h1M14 24h2M1 25h1M12 25h1M14 25h2M1 26h1M12 26h1M14 26h2M1 27h1M12 27h1M14 27h2M1 28h1M12 28h1M14 28h1M1 29h1M12 29h1M1 30h12" />
</svg>