<svg xmlns="http://www.w3.org/2000/svg" viewBox="0 -0.5 16 16" shape-rendering="crispEdges">
<path stroke="#808000" d="M0 0h1M2 0h5M1 1h1M7 1h2M0 2h1M9 2h1M0 3h3M10 3h1M0 4h1M11 4h1M1 5h2M12 5h1M9 6h1M11 6h1M9 7h2M11 8h1" />
<path stroke="#ffffff" d="M0 0h1M2 1h1M1 2h1M6 2h1M8 3h1M10 5h1M6 8h1M1 9h2M5 9h1M7 9h1M13 9h2M3 10h2M11 10h1M5 11h2M9 11h2M7 12h2" />
<path stroke="#ffff00" d="M0 0h1M3 1h4M2 2h1M7 2h2M9 3h1M2 4h1M10 4h1M9 8h1" />
<path stroke="#808080" d="M0 0h1M3 2h2M3 3h1M6 3h1M3 4h1M4 5h1M6 5h2M9 5h1M4 6h2M2 7h2M13 7h1M0 8h2M13 8h3M0 9h1M9 9h1M0 10h1M12 10h1M14 10h1M0 11h1M11 11h2M14 11h1M9 12h4M15 12h1M8 13h3M14 13h1M8 14h1M12 15h1" />
<path stroke="#c0c0c0" d="M0 0h1M5 2h1M7 3h1M1 4h1M8 4h2M11 5h1M6 6h2M10 6h1M4 7h4M2 8h4M7 8h1M10 8h1M3 9h2M6 9h1M8 9h1M1 10h2M5 10h6M1 11h1M3 11h2M7 11h2M2 12h2M5 12h2M4 13h2M7 13h1M6 14h2" />
<path stroke="#000000" d="M0 0h1M4 3h2M4 4h1M6 4h2M3 5h1M8 5h1M8 6h1M12 6h1M8 7h1M11 7h2M8 8h1M12 8h1M10 9h3M15 9h1M13 10h1M15 10h1M13 11h1M15 11h1M0 12h2M13 12h2M2 13h2M11 13h2M15 13h1M4 14h2M9 14h2M12 14h1M15 14h1M6 15h3M13 15h2" />
<path stroke="#00ff00" d="M0 0h1M2 11h1" />
<path stroke="#ff0000" d="M0 0h1M4 12h1M6 13h1" />
</svg>