<svg xmlns="http://www.w3.org/2000/svg" width="16" height="16" shape-rendering="crispEdges" viewBox="0 -0.5 16 16"><path stroke="olive" d="M2 0h5M1 1h1m5 0h2M0 2h1m8 0h1M0 3h3m7 0h1M0 4h1m10 0h1M1 5h2m9 0h1M9 6h1m1 0h1M9 7h2m0 1h1"/><path stroke="#fff" d="M2 1h1M1 2h1m4 0h1m1 1h1m1 2h1M6 8h1M1 9h2m2 0h1m1 0h1m5 0h2M3 10h2m6 0h1m-7 1h2m2 0h2m-4 1h2"/><path stroke="#ff0" d="M3 1h4M2 2h1m4 0h2m0 1h1M2 4h1m7 0h1M9 8h1"/><path stroke="gray" d="M3 2h2M3 3h1m2 0h1M3 4h1m0 1h1m1 0h2m1 0h1M4 6h2M2 7h2m9 0h1M0 8h2m11 0h3M0 9h1m8 0h1M0 10h1m11 0h1m1 0h1M0 11h1m10 0h2m1 0h1m-6 1h4m2 0h1m-8 1h3m3 0h1m-7 1h1m3 1h1"/><path stroke="silver" d="M5 2h1m1 1h1M1 4h1m6 0h2m1 1h1M6 6h2m2 0h1M4 7h4M2 8h4m1 0h1m2 0h1M3 9h2m1 0h1m1 0h1m-8 1h2m2 0h6M1 11h1m1 0h2m2 0h2m-7 1h2m1 0h2m-3 1h2m1 0h1m-2 1h2"/><path stroke="#000" d="M4 3h2M4 4h1m1 0h2M3 5h1m4 0h1M8 6h1m3 0h1M8 7h1m2 0h2M8 8h1m3 0h1m-3 1h3m2 0h1m-3 1h1m1 0h1m-3 1h1m1 0h1M0 12h2m11 0h2M2 13h2m7 0h2m2 0h1M4 14h2m3 0h2m1 0h1m2 0h1M6 15h3m4 0h2"/><path stroke="#0f0" d="M2 11h1"/><path stroke="red" d="M4 12h1m1 1h1"/></svg>