<svg xmlns="http://www.w3.org/2000/svg" width="32" height="32" shape-rendering="crispEdges" viewBox="0 -0.5 32 32"><path stroke="olive" d="M3 0h7M2 1h1m7 0h3M1 2h1m11 0h3M0 3h1m15 0h2M0 4h1m17 0h1M0 5h2m7 0h2m8 0h2M0 6h1m1 0h1m2 0h1m5 0h2m8 0h1M0 7h1m2 0h2m8 0h2m7 0h1M0 8h2m3 0h2m8 0h2m6 0h1M1 9h2m1 0h3m10 0h1m6 0h1m-8 1h2m6 0h1m-8 1h1m5 0h1m-7 1h1m3 0h3m-1 1h1m-7 1h2m-2 1h1m1 0h1m-3 1h1m3 0h1m-4 1h1m1 0h3"/><path stroke="#fff" d="M3 1h1M2 2h1m1 0h1m1 0h1m1 0h1M1 3h1m1 0h1m1 0h1m1 0h1m1 0h1m1 0h2M1 4h1m2 0h1m8 0h2M2 5h2m11 0h2m0 1h1m1 0h1M1 7h1m16 0h1m1 0h1m-2 1h1m1 0h1m-2 1h1m1 0h1m-3 1h2m1 0h1m-5 1h1m1 0h2m-3 1h1m-2 1h1m2 0h1m-3 1h1m1 0h1m-9 1h2m3 0h1m-4 1h1m2 0h1m3 0h1m-12 1h2m12 0h1M1 18h2m5 0h2m4 0h2m11 0h1m1 0h1M1 19h1m1 0h2m5 0h2m4 0h2m8 0h1m1 0h1M1 20h1m3 0h2m5 0h2m4 0h2m4 0h2m3 0h1M1 21h1m5 0h2m5 0h2m4 0h4m6 0h1M1 22h1m7 0h2m5 0h2m2 0h2M1 23h1m9 0h2m5 0h2m10 0h1m-18 1h2m1 0h2m-3 1h1m14 0h1"/><path stroke="#ff0" d="M4 1h6M3 2h1m1 0h1m1 0h1m1 0h4M2 3h1m1 0h1m1 0h1m1 0h1m1 0h1m2 0h3M2 4h2m7 0h2m2 0h3m-5 1h2m2 0h2M3 6h1m11 0h2m1 0h1m1 0h1M2 7h1m14 0h1m1 0h1m1 0h1M2 8h1m15 0h1m1 0h1m1 0h1m-4 1h1m1 0h1m1 0h1m-5 1h1m2 0h1m-3 1h1m-2 1h1m0 1h1m-1 3h1m-1 1h1"/><path stroke="silver" d="M5 4h1m3 0h2M4 5h1m6 0h2M1 6h1m2 0h1m8 0h2m0 1h2M3 8h2m12 0h1M3 9h1m14 0h1m5 1h1m-11 1h3m6 0h1m-12 1h5m4 0h1m-12 1h7m4 0h1M8 14h9m4 0h1M6 15h8m2 0h1m7 0h1M4 16h12m5 0h1m3 0h1M2 17h10m2 0h3M3 18h5m2 0h4m2 0h1M2 19h1m2 0h5m2 0h4M2 20h3m2 0h5m2 0h4M2 21h5m2 0h5m2 0h4M2 22h2m1 0h4m2 0h5m2 0h2M2 23h2m1 0h1m1 0h4m2 0h5M3 24h3m1 0h1m1 0h4m2 0h1M5 25h3m1 0h1m1 0h4m-8 1h3m1 0h1m1 0h2m14 0h1M9 27h3m1 0h2m9 0h1m5 0h1m-20 1h4m10 0h1m1 0h1m1 0h1m-17 1h2"/><path stroke="gray" d="M6 4h3M5 5h1m0 1h1m0 1h1M7 8h1m6 2h2m-4 1h2m-4 1h2m-4 1h2m-4 1h2m18 0h1M4 15h2m20 0h3M2 16h2m23 0h4M1 17h1m15 0h1m10 0h3M0 18h1m16 0h2m5 0h2m4 0h1M0 19h1m17 0h8m4 0h1M0 20h1m19 0h4m2 0h2m3 0h1M0 21h1m23 0h5M0 22h1m21 0h8m1 0h1M0 23h1m19 0h9M0 24h3m15 0h10m3 0h1M3 25h2m11 0h10M5 26h2m8 0h9m7 0h1M7 27h2m6 0h7M9 28h2m4 0h5m-9 1h2m2 0h3m8 0h1m1 0h1m-16 1h3"/><path stroke="#000" d="M6 5h3M7 6h4M5 7h2m1 0h1m2 0h2M8 8h1m4 0h2M7 9h1m7 0h2M2 10h5m9 0h1m0 1h1m7 0h1m-9 1h1m7 0h1m-9 1h2m4 0h1m1 0h1m-9 1h1m5 0h3m-9 1h1m3 0h3m1 0h1m-9 1h1m6 0h1m1 0h1m-9 1h1m5 0h2m1 0h1m3 0h1m-13 1h5m2 0h1m1 0h1m2 0h1m-5 1h1m1 0h1m1 0h1m-4 1h1m1 0h1m-2 1h1m1 0h1m-2 1h1m-2 1h1m1 0h1m-4 1h3M1 25h2m23 0h2m1 0h1m1 0h1M3 26h2m19 0h2m4 0h1M5 27h2m15 0h2m1 0h1m1 0h1m1 0h1m1 0h1M7 28h2m11 0h2m2 0h1m1 0h1m1 0h1m1 0h1M9 29h2m7 0h2m5 0h1m1 0h1m1 0h1m-19 1h2m3 0h2m-5 1h3"/><path stroke="#0f0" d="M4 22h1m-1 1h1m1 0h1m-1 1h1"/><path stroke="red" d="M8 24h1m-1 1h1m1 0h1m-1 1h1m1 0h1m-1 1h1"/></svg>