<svg xmlns="http://www.w3.org/2000/svg" width="48" height="48" shape-rendering="crispEdges" viewBox="0 -0.5 48 48"><path stroke="#fff" d="M0 0h48"/><path stroke="#868686" d="M25 1h8m-9 1h1m-1 1h1M12 4h8m4 0h1M9 5h3m8 0h2m2 0h1M7 6h2m13 0h3M6 7h1m17 0h1M5 8h1m18 0h1M4 9h1m19 0h1M3 10h1m20 0h1M3 11h1m20 0h1M2 12h1m21 0h1M2 13h1m21 0h1M1 14h1m6 0h1m1 0h1m13 0h1M1 15h1m7 0h1m1 0h1m12 0h1M1 16h1m20 0h1m1 0h1M1 17h1m3 0h1m6 0h1m8 0h1m2 0h1M0 18h1m19 0h1m3 0h1M0 19h1m9 0h1m8 0h1m4 0h1M0 20h1m16 0h2m5 0h1M0 21h1m14 0h2m7 0h1M0 22h1m12 0h2m9 0h1M0 23h1m8 0h4m11 0h1M0 24h1m-1 1h1m6 0h1m14 0h4M0 26h1m6 0h1m12 0h2m3 0h1m4 0h1M1 27h1m5 0h1m10 0h2m4 0h1m5 0h1m3 0h1M1 28h1m5 0h1m8 0h2m5 0h1m1 0h1m4 0h1m9 0h1M1 29h1m5 0h1m6 0h2m7 0h1m2 0h1m3 0h1m1 0h1m8 0h3M2 30h1m3 0h1m5 0h2m9 0h1m8 0h1m8 0h5M2 31h1m1 0h3m3 0h2m12 0h1m7 0h1m1 0h1m6 0h5m-36 1h1m14 0h2m6 0h1m8 0h3m-35 1h1m16 0h3m1 0h1m4 0h1m5 0h1m-33 1h1m-1 1h1m-1 1h1m-1 1h1m24 0h2m-27 1h1m24 0h1m1 0h1m-28 1h1m23 0h1m1 0h1m-4 1h1m1 0h1m-2 1h1m1 0h1m-4 1h1m1 0h1m-2 1h1m-2 1h1m-3 1h3"/><path stroke="silver" d="M25 2h8m-5 2h1m-1 1h1M12 6h2m1 0h1m12 0h1M10 7h1m1 0h1m1 0h1m8 0h1m4 0h1M11 8h3m1 0h1m12 0h1M10 9h1m1 0h1m1 0h1m13 0h1m-18 1h3m14 0h1m-19 1h1m1 0h1m1 0h1m13 0h1m-18 1h3m14 0h1m-19 1h1m1 0h1m1 0h1m13 0h1m-18 1h3m14 0h1M7 15h1m4 0h1m1 0h1m13 0h1M6 16h1m1 0h1m4 0h1m14 0h1M6 17h1m2 0h1m4 0h1m13 0h1M7 18h1m1 0h1m3 0h1m14 0h1M8 19h2m2 0h1m1 0h1m13 0h1m-18 1h3m14 0h1M9 21h4m15 0h1M8 22h1m1 0h2m16 0h1m-1 1h1m-1 3h1m-6 1h1m4 0h1m-1 1h1m-1 1h1M3 31h1m19 0h1m4 0h2m-6 1h1m3 0h2m-4 1h1m1 1h3m-2 1h1m1 0h1m-4 1h1m1 0h1m-2 1h1m1 0h1m-2 1h1"/><path stroke="#000" d="M33 2h1m-1 1h1m-1 1h1m-1 1h1m-1 1h1m-1 1h1m-1 1h1m-1 1h1m-1 1h1m-1 1h1m-1 1h1m-1 1h1m-1 1h1m-24 1h1m22 0h1m-23 1h1m21 0h1m-23 1h1m10 0h2m9 0h1m-23 1h1m9 0h1m11 0h1m-23 1h1m8 0h1m12 0h1m-24 1h1m8 0h1m13 0h1m-17 1h2m14 0h1m-19 1h2m16 0h1m-21 1h2m18 0h1M9 24h4m12 0h1m6 0h1M8 25h1m17 0h7M8 26h1m23 0h1M8 27h1m23 0h2M8 28h1m23 0h1m1 0h1M8 29h1m22 0h1m2 0h1M7 30h1m19 0h4m3 0h1M7 31h1m25 0h1m6 0h1m6 0h1M3 32h4m24 0h2m7 0h1m6 0h1m-18 1h1m8 0h1m7 0h1m-1 1h1m-1 1h1m-1 1h1m-1 1h1m-1 1h1m-2 1h1m-36 1h2m31 0h2m-33 1h3m26 0h2m-28 1h3m21 0h2m-23 1h3m16 0h2m-18 1h3m11 0h2m-13 1h3m6 0h2m-8 1h6"/><path stroke="#f8f8f8" d="M25 3h7m-7 1h1M12 5h8m5 0h1M9 6h3m8 0h2m3 0h1M7 7h2m13 0h1m2 0h1M6 8h1m18 0h1M5 9h1m19 0h1M4 10h1m20 0h1M4 11h1m20 0h1M3 12h1m21 0h1M3 13h1m21 0h1M2 14h1m22 0h1M2 15h1m22 0h1M2 16h1m4 0h1m17 0h1M2 17h1m4 0h2m16 0h1M1 18h1m6 0h1m16 0h1M1 19h1m23 0h1M1 20h1m23 0h1M1 21h1m23 0h1M1 22h1m23 0h1M1 23h1m23 0h1M1 24h1m-1 1h1m-1 1h1m24 0h1M2 27h1m23 0h1M2 28h1m21 0h1m1 0h1M2 29h1m21 0h2M3 30h1m20 0h2m-1 1h1m-15 1h3m-3 1h5m-5 1h1m2 0h4m-7 1h1m5 0h4m-10 1h1m8 0h4m-13 1h1m11 0h4m-16 1h1m14 0h4m-1 1h2"/><path stroke="#a0a0a4" d="M32 3h1m-3 1h1m-1 1h1M19 6h1m10 0h1M18 7h1m1 0h2m8 0h1M19 8h1m1 0h2m7 0h1M18 9h1m1 0h3m7 0h1m-9 1h1m7 0h1m-13 1h1m3 0h1m7 0h1m-9 1h1m7 0h1m-13 1h1m1 0h3m7 0h1m-12 1h1m1 0h2m7 0h1m-13 1h1m1 0h3m7 0h1m-12 1h1m1 0h1m8 0h1m-13 1h1m1 0h1m9 0h1m-12 1h1m10 0h1m-13 1h1m11 0h1m-1 1h1m-1 1h1m-1 1h1m-1 1h1m2 2h1m-5 1h1m3 0h2m-6 1h1m5 0h2m-8 1h1m5 0h2m-8 1h1m5 0h2m-6 1h1m3 0h2m-7 1h2m3 0h1m-6 1h1m3 0h2m-4 1h1m2 0h1m-1 1h3m-4 1h4m-2 1h1m-6 3h1m-1 2h1m-1 2h1"/><path stroke="#eaeaea" d="M26 4h1m-1 1h1m-1 1h1m-1 1h1m-1 1h1m-1 1h1m-1 1h1m-1 1h1m-1 1h1m-1 1h1m-1 1h1m-1 1h1m-1 1h1m-1 1h1m-1 1h1m-1 1h1m-1 1h1m-1 1h1m-1 1h1m-1 1h1m-11 6h3m-5 1h5m-7 1h7m-5 1h5m-3 1h3m2 0h1m-10 1h2m4 0h3m1 0h1m-11 1h5m4 0h1m-10 1h7m-7 1h6m-6 1h5m1 0h1m-6 1h3m1 0h1m-2 1h1"/><path stroke="#d7d7d7" d="M27 4h1m-1 1h1m-1 1h1M9 7h1m17 0h1m-1 1h1M6 9h1m1 0h1m18 0h1M6 10h2m19 0h1M6 11h1m1 0h1m18 0h1M5 12h3m19 0h1M5 13h2m1 0h1m18 0h1M5 14h2m20 0h1M4 15h2m21 0h1m-1 1h1m-1 1h1M3 18h1m23 0h1M4 19h2m21 0h1M3 20h3m21 0h1M4 21h3m20 0h1M3 22h3m21 0h1M4 23h1m1 0h1m20 0h1M3 24h3m-2 1h1m1 0h1m-3 1h2m16 0h1M4 27h1m1 0h1m14 0h2M4 28h2m16 0h1M4 29h1m16 0h1M5 30h1m16 0h1m-2 1h1m0 1h2m-1 1h2m-2 1h2m-1 1h2m-2 1h1m1 3h1m1 0h1m-4 1h1m1 0h4m-7 1h1m1 0h1m1 0h3m-7 1h2m1 0h4m-6 1h6m-3 1h3"/><path stroke="#b2b2b2" d="M29 4h1m-1 1h1M14 6h1m1 0h3m10 0h1M13 7h1m1 0h3m1 0h1m9 0h1M14 8h1m1 0h3m1 0h1m8 0h1M13 9h1m5 0h1m9 0h1m-16 1h1m3 0h1m10 0h1m-17 1h1m15 0h1m-16 1h5m10 0h1m-17 1h1m5 0h1m9 0h1m-16 1h1m3 0h1m1 0h1m8 0h1m-17 1h1m5 0h1m9 0h1m-18 1h1m1 0h5m1 0h1m8 0h1m-17 1h1m1 0h3m1 0h1m9 0h1m-16 1h5m10 0h1m-17 1h1m1 0h3m11 0h1m-16 1h3m12 0h1m-17 1h2m14 0h1m-18 1h1m16 0h1m-1 1h1m3 10h2m-4 1h4m-3 1h2m-3 1h5m-4 1h3m-4 1h2m-22 1h2m0 1h3m0 1h3m0 1h3m0 1h3m0 1h3m0 1h3"/><path stroke="#969696" d="M31 4h1m-1 1h1m-1 1h1m-1 1h1m-1 1h1m-1 1h1m-1 1h1m-1 1h1m-1 1h1m-1 1h1m-1 1h1M8 15h1m22 0h1m-1 1h1m-22 1h1m20 0h1M6 18h1m3 0h1m20 0h1M7 19h1m23 0h1m-1 1h1m-1 1h1m-1 1h1m-1 1h1m6 5h2m-2 1h3m-1 1h1m0 2h1m-1 1h1m-2 1h1m-8 4h2m-2 1h1m0 1h1m-2 1h1m0 1h1m-2 1h1"/><path stroke="#777" d="M32 4h1m-1 1h1m-1 1h1m-1 1h1M23 8h1m8 0h1M23 9h1m8 0h1m-10 1h1m8 0h1m-10 1h1m8 0h1m-10 1h1m8 0h1m-10 1h1m8 0h1M7 14h1m1 0h1m13 0h1m8 0h1M6 15h1m16 0h1m8 0h1M5 16h1m4 0h1m12 0h1m8 0h1m-1 1h1M5 18h1m26 0h1M6 19h1m25 0h1M7 20h3m22 0h1m-1 1h1m-1 1h1m-1 1h1M8 24h1m17 0h6m-1 2h1m-7 1h1m5 0h1m-1 1h1m1 0h1m-1 1h1m-1 1h1m6 3h1m-2 2h2m-4 1h3m-3 1h2m1 0h1m-5 1h1m1 0h2m-5 1h1m1 0h2m1 0h1m-5 1h2m1 0h1m1 0h1m-7 1h1m1 0h2m-3 1h2m-3 1h1m-2 1h2"/><path stroke="#ccc" d="M11 7h1M8 8h3M7 9h1m1 0h1m1 0h1m-4 1h3m-4 1h1m1 0h1m1 0h1m-4 1h3m-4 1h1m1 0h1m1 0h1m-6 7h1m0 1h2m-3 1h2m1 0h1m-5 1h1m1 0h2m-3 1h2m-3 1h1m0 1h1m16 0h2M5 27h1m0 1h1m-2 1h2m18 4h1m-1 1h3m-2 1h3m1 0h1m-6 1h3m1 0h1m-3 1h2m1 0h1"/><path stroke="#ddd" d="M7 8h1m-3 2h1m-1 1h1m-2 1h1m-1 1h1m-2 1h2m-2 1h1m-1 1h2m-2 1h2m-1 1h1m-2 1h1m-1 2h1m-1 2h1m-1 2h1m23 1h1m-8 1h1m6 0h1m-8 1h2m5 0h1m-8 1h1m1 0h1m4 0h1m-9 1h1m1 0h1m4 0h1m-7 1h1m1 0h1m3 0h2m-9 1h1m1 0h1m5 0h1m-8 1h1m1 0h1m-2 1h1m0 1h2m-5 1h1m-2 1h1m1 0h1m-4 1h1m1 0h1m1 0h5m-10 1h1m1 0h1m1 0h1m1 0h4m1 0h1m-11 1h1m1 0h1m1 0h4m1 0h1m-7 1h1m1 0h2m1 0h1m1 0h1m-6 1h2m2 0h1"/><path stroke="#f99" d="M15 9h1m21 22h1"/><path stroke="red" d="M16 9h1m-2 1h1m22 21h1"/><path stroke="#930" d="M17 9h1m-2 1h1m-2 1h1m1 0h1m20 21h1"/><path stroke="maroon" d="M17 10h1m-2 1h1m20 19h3m-4 1h1m2 0h1m-4 1h1m2 0h1m-3 1h2"/><path stroke="#3cf" d="M19 10h1"/><path stroke="#00f" d="M20 10h1m-2 1h2"/><path stroke="#069" d="M21 10h1m-3 2h1m1 0h1"/><path stroke="navy" d="M21 11h1m-2 1h1"/><path stroke="#9c6" d="M15 13h1"/><path stroke="#0f0" d="M16 13h1m-2 1h1"/><path stroke="#093" d="M17 13h1m-3 2h1m1 0h1"/><path stroke="#690" d="M16 14h1"/><path stroke="green" d="M17 14h1m-2 1h1"/><path stroke="#999" d="M9 16h1m2 2h1m22 8h1m1 1h1m-1 1h1m-1 1h1m0 5h2m-2 1h1m-7 4h1m-2 1h2m-1 1h1m-2 1h2m-1 1h1m-2 1h2"/><path stroke="#e3e3e3" d="M2 18h1m-1 1h1m-1 1h1m-1 1h1m-1 1h1m-1 1h1m-1 1h1m-1 1h1m-1 1h2m-1 1h1m-1 1h1m14 0h2M3 29h1m15 0h1M4 30h1m15 0h1m-2 1h1m0 1h1m-2 1h1m-1 4h1m1 0h2m-3 1h1m-2 1h1m1 0h1m-4 1h1m1 0h1m-2 1h1m1 0h1"/><path stroke="#666" d="M33 24h1m0 1h2m0 1h2m0 1h3m0 1h3m0 1h2m0 1h2m-7 4h2m-2 1h1m1 0h1m-4 1h3m-4 1h1m1 0h1m1 0h1m-4 1h3m-4 1h1m1 0h1m-4 1h1m1 0h1m-2 1h1m-2 1h2m-4 1h2"/><path stroke="#4d4d4d" d="M46 31h1m-2 1h2m-2 1h2m-1 1h1m-2 1h2m-1 1h1m-2 1h2m-1 1h1m-3 1h2m-4 1h2"/><path stroke="#c03" d="M37 32h1"/><path stroke="#5f5f5f" d="M43 33h1m-1 1h1m-2 1h1m0 1h1m-2 1h1m0 1h1m-2 1h2m-4 2h2"/><path stroke="#555" d="M44 33h1m-1 1h2m-2 1h1m-1 1h2m-2 1h1m-1 1h2"/></svg>