<svg xmlns="http://www.w3.org/2000/svg" viewBox="0 -0.5 48 48" shape-rendering="crispEdges">
<path stroke="#800000" d="M0 0h1M24 1h1M23 2h3M22 3h5M21 4h7M20 5h9M19 6h11M18 7h13M8 8h9M32 8h9M8 9h8M33 9h8M8 10h7M34 10h7M8 11h6M35 11h6M8 12h5M36 12h5M8 13h4M37 13h4M8 14h3M38 14h3M8 15h2M39 15h2M8 16h1M40 16h1M7 18h1M6 19h2M5 20h3M4 21h4M3 22h5M2 23h6M1 24h7M2 25h6M3 26h5M4 27h4M5 28h3M6 29h2M7 30h1M8 32h1M40 32h1M8 33h2M39 33h2M8 34h3M38 34h3M8 35h4M37 35h4M8 36h5M36 36h5M8 37h6M35 37h6M8 38h7M34 38h7M8 39h8M33 39h8M8 40h9M32 40h9M18 41h13M19 42h11M20 43h9M21 44h7M22 45h5M23 46h3M24 47h1" />
<path stroke="#ff0000" d="M0 0h1M41 18h1M41 19h2M41 20h3M41 21h4M41 22h5M41 23h6M41 24h7M41 25h6M41 26h5M41 27h4M41 28h3M41 29h2M41 30h1" />
</svg>