<svg xmlns="http://www.w3.org/2000/svg" width="64" height="64" shape-rendering="crispEdges" viewBox="0 -0.5 64 64"><path stroke="#000" d="M31 0h1m-3 1h2m2 0h1m2 0h1M27 2h2m3 0h1m4 0h1M27 3h1m3 0h1m1 0h1m-6 1h2m2 0h2m3 0h1M28 5h2m4 0h2m2 0h1M28 6h1m1 0h1m1 0h2m2 0h1m2 0h1M28 7h1m1 0h2m4 0h2m1 0h1M28 8h1m2 0h1m5 0h2m1 0h1M28 9h1m1 0h1m1 0h1m7 0h1m-13 1h1m1 0h1m9 0h1m-13 1h1m1 0h1m10 0h1m-14 1h2m3 0h1m7 0h1m-1 1h1m-13 1h2m10 0h1m-13 1h2m2 0h1m7 0h1m-12 1h2m9 0h1m-11 1h1m10 0h1m-1 1h1m-11 1h1m2 0h1m6 0h1m-11 1h1m9 0h1m-11 1h2m8 0h1m-11 1h1m2 0h1m6 0h1m-11 1h2m8 0h1m-11 1h1m2 0h1m6 0h1m-10 1h1m1 0h1m6 0h1m-10 1h1m9 0h1m-11 1h1m1 0h1m7 0h1m-11 1h1m1 0h1m7 0h1m-16 1h7m8 0h1m-18 1h2m7 0h1m7 0h2m-12 1h2m8 0h1m1 0h1m-22 1h1m7 0h2m9 0h1m2 0h1m-24 1h1m7 0h1m2 0h1m8 0h1m3 0h1m-18 1h1m3 0h2m7 0h1m4 0h1m-28 1h2m6 0h1m6 0h2m5 0h1m4 0h3m-31 1h1m1 0h1m6 0h1m9 0h4m5 0h1m2 0h1m-33 1h1m2 0h1m7 0h1m10 0h1m6 0h1m3 0h1m-36 1h2m3 0h1m7 0h2m16 0h1m3 0h1m-37 1h1m5 0h2m8 0h2m12 0h1m3 0h4m-39 1h1m7 0h2m9 0h3m7 0h2m3 0h1m1 0h1m2 0h1m-41 1h1m9 0h1m12 0h7m4 0h2m5 0h1m-43 1h1m11 0h1m14 0h2m5 0h1m8 0h1m-46 1h2m17 0h1m17 0h1m8 0h1m-48 1h1m15 0h1m2 0h2m13 0h2M9 45h1m16 0h1m1 0h1m16 0h1m6 0h1m5 0h1M8 46h1m17 0h2m14 0h2m4 0h1m2 0h1m6 0h1M7 47h1m31 0h2m1 0h1m7 0h1m7 0h1M6 48h1m30 0h2m2 0h1M5 49h1m31 0h1m1 0h1m7 0h1m3 0h1m2 0h1m3 0h1M4 50h1m30 0h1m1 0h2m7 0h1m11 0h1M4 51h1m39 0h2m11 0h1M4 52h2m44 0h1m6 0h1M4 53h3m42 0h1m6 0h1M5 54h1m1 0h1m39 0h2m7 0h1M6 55h1m2 0h1m45 0h1M7 56h2m1 0h1m17 0h1m24 0h2M8 57h2m42 0h2M9 58h3m1 0h1m36 0h3m-43 1h1m12 0h1m25 0h2m-40 1h3m1 0h1m5 0h1m25 0h2m-36 1h1m6 0h3m21 0h3m-34 1h3m1 0h3m3 0h3m15 0h3m-28 1h1m13 0h6"/><path stroke="navy" d="M32 0h2m0 1h1m-2 1h1m-2 1h1m-6 1h1m6 0h1m0 2h1m-2 1h1m-5 1h1m3 0h1m-3 4h1m-5 1h1m3 1h1m2 1h1m-4 3h1m0 2h1m1 0h1m-2 6h1m-2 4h1m-9 1h1m9 1h1m-14 2h1m28 4h1m-18 1h1m15 1h1m-16 1h1m10 1h1m1 0h1m-25 1h1m21 0h2m-5 1h1m2 0h1m10 0h1m-15 1h2m-4 1h1m2 0h1m-4 1h1m7 0h1m-11 1h1m18 0h1m-23 1h1M5 50h1m28 0h1m7 0h1m9 0h2m-22 1h2m2 0h1m6 0h1m-13 1h1m-3 1h1m3 0h1m11 0h1M6 54h1m25 0h1m13 0h1m8 0h1M8 55h1m18 0h1m2 0h1m23 0h1m-26 1h1m-19 1h1m14 0h2m-4 1h2m-14 1h1m9 0h1m25 0h1m-3 1h1m-35 1h1m2 0h1m27 0h1m-18 1h1m12 0h2m-27 1h2m11 0h3m6 0h4"/><path stroke="teal" d="M31 1h2m-4 1h3m-4 1h2m0 1h1m0 1h1m-3 1h1m1 0h1m-3 1h1m5 0h1m-7 1h1m5 0h1m3 0h1M29 9h1m1 0h1m4 0h1m1 0h2m-11 1h1m1 0h5m3 0h1m-11 1h1m1 0h1m2 0h2m3 0h2m-11 1h2m3 0h1m3 0h2m-11 1h2m3 0h1m3 0h2m-10 1h1m4 0h1m2 0h2m-10 1h2m6 0h1m-8 1h4m4 0h1m-8 1h2m2 0h1m2 0h2m-9 1h5m2 0h2m-8 1h1m1 0h2m3 0h1m-6 1h2m2 0h2m-6 1h2m3 0h1m-6 1h2m2 0h2m-7 1h4m2 0h1m-9 1h2m1 0h2m3 0h1m-8 1h1m1 0h3m2 0h1m-6 1h2m3 0h2m-7 1h2m3 0h2m-9 1h1m1 0h3m2 0h2m-8 1h3m3 0h2m-9 1h1m1 0h3m2 0h1m-12 1h1m4 0h3m3 0h2m-9 1h1m1 0h3m2 0h2m-7 1h2m3 0h2m-7 1h3m2 0h2m4 0h1m-7 1h2m-13 1h1m7 0h1m4 0h1m1 0h1m4 0h1m-20 1h1m7 0h2m5 0h2m1 0h1m1 0h1m-20 1h1m10 0h2m2 0h1m-23 1h1m9 0h1m11 0h1m1 0h1m-28 1h1m7 0h1m2 0h1m3 0h1m1 0h1m3 0h1m2 0h1m6 0h1m-37 1h1m2 0h1m2 0h1m4 0h2m2 0h1m11 0h1m2 0h1m6 0h1m-39 1h1m2 0h1m2 0h1m4 0h1m2 0h1m8 0h1m-23 1h1m1 0h1m1 0h1m1 0h1m2 0h1m5 0h1m1 0h1m1 0h1m1 0h1m5 0h2m4 0h1m5 0h1m-43 1h3m3 0h1m2 0h1m1 0h1m5 0h1m1 0h1m1 0h1m1 0h2m1 0h3m6 0h1m-38 1h1m3 0h5m1 0h1m1 0h2m5 0h2m1 0h1m1 0h1m1 0h2m1 0h2m3 0h1m1 0h1m6 0h1m-44 1h5m1 0h2m1 0h2m1 0h1m3 0h2m1 0h1m1 0h1m1 0h3m1 0h1m5 0h1m1 0h1m4 0h2m-43 1h1m2 0h1m1 0h1m2 0h4m2 0h4m2 0h1m1 0h4m1 0h1m5 0h1m2 0h1m7 0h3M9 48h2m1 0h1m1 0h2m1 0h1m3 0h1m5 0h1m3 0h1m1 0h1m1 0h2m7 0h1m3 0h1m2 0h1m3 0h1M6 49h1m1 0h2m2 0h3m1 0h1m1 0h1m2 0h4m1 0h1m1 0h1m1 0h1m2 0h1m1 0h1m2 0h1m2 0h2m5 0h2m5 0h3M6 50h1m1 0h1m1 0h3m2 0h1m3 0h1m1 0h1m2 0h1m1 0h1m1 0h2m1 0h2m3 0h1m3 0h1m6 0h1m1 0h1m4 0h2M7 51h2m1 0h1m3 0h3m1 0h1m1 0h1m1 0h2m1 0h2m1 0h1m1 0h2m6 0h2m1 0h2m3 0h1m3 0h2m1 0h1m2 0h1M7 52h1m1 0h4m1 0h1m1 0h2m1 0h1m1 0h2m1 0h2m4 0h1m1 0h1m3 0h2m1 0h1m2 0h1m2 0h1m6 0h2m1 0h1M9 53h1m1 0h1m1 0h1m3 0h1m2 0h3m1 0h1m2 0h2m2 0h2m1 0h3m1 0h3m1 0h3m6 0h2m1 0h1m-45 1h2m2 0h3m1 0h2m3 0h2m1 0h1m3 0h2m2 0h1m1 0h2m3 0h1m1 0h1m5 0h2m1 0h1M7 55h1m2 0h2m1 0h1m1 0h1m1 0h1m1 0h1m1 0h1m1 0h3m2 0h2m1 0h1m2 0h1m3 0h1m2 0h1m2 0h2m4 0h4M9 56h1m1 0h1m2 0h3m1 0h3m4 0h3m3 0h1m1 0h2m2 0h1m1 0h3m1 0h1m1 0h7m-42 1h1m3 0h1m1 0h3m5 0h2m4 0h1m1 0h2m1 0h2m1 0h1m1 0h1m2 0h1m1 0h1m4 0h1m-39 1h1m3 0h2m5 0h1m3 0h2m2 0h1m2 0h1m2 0h1m3 0h4m4 0h1m-39 1h1m1 0h2m9 0h1m1 0h4m1 0h1m1 0h4m1 0h3m-16 1h1m1 0h1m1 0h3m1 0h1m1 0h1m1 0h3m5 0h1m-16 1h6m6 0h1m-16 1h1"/><path stroke="gray" d="M35 1h1m-6 2h1m0 1h1m-2 1h1m1 0h2m2 0h1m-3 1h1m2 0h1m0 1h1m-3 1h1m-2 1h1m2 1h1m-3 1h1m1 0h1m-3 1h1m1 0h1m-3 1h2m-1 1h1m-2 1h2m-2 1h2m1 0h1m-5 1h2m1 1h1m-6 1h1m4 0h1m1 0h1m-3 1h1m-5 1h1m3 0h1m1 0h1m-3 1h1m-5 1h1m3 1h1m-1 2h1m-1 1h1m1 0h1m-3 2h1m1 0h1m-9 2h1m5 0h1m-12 2h1m2 0h1m1 0h2m4 0h1m1 0h1m-18 1h1m8 0h1m7 0h1m5 0h1m-23 1h1m1 0h1m1 0h1m9 0h1m6 0h1m1 0h1m-27 1h1m4 0h1m7 0h1m1 0h1m7 0h1m2 0h1m1 0h1m-30 1h2m2 0h1m4 0h1m2 0h1m4 0h2m3 0h2m1 0h1m4 0h1m-32 1h1m1 0h1m1 0h2m8 0h1m2 0h1m8 0h1m3 0h2m-34 1h3m7 0h1m1 0h2m7 0h1m2 0h1m3 0h1m-30 1h2m1 0h3m3 0h2m1 0h1m3 0h1m5 0h1m1 0h1m1 0h1m5 0h1m3 0h1m-38 1h1m3 0h1m1 0h2m2 0h2m18 0h2m5 0h2m-40 1h2m1 0h2m2 0h1m1 0h2m1 0h1m1 0h1m2 0h4m2 0h2m3 0h2m11 0h1m-43 1h4m1 0h1m1 0h1m1 0h1m2 0h1m1 0h1m1 0h1m12 0h2m5 0h1m1 0h1m1 0h1m-43 1h3m3 0h1m3 0h2m13 0h1m2 0h1m13 0h3m-46 1h2m1 0h3m5 0h1m1 0h1m6 0h1m4 0h1m4 0h1m12 0h1m2 0h2M9 46h3m5 0h1m2 0h1m4 0h1m4 0h1m1 0h1m1 0h1m5 0h1m5 0h1m7 0h1m2 0h1M8 47h3m1 0h2m1 0h1m1 0h2m4 0h2m4 0h1m2 0h1m4 0h1m5 0h1m1 0h2m4 0h1M7 48h2m2 0h1m1 0h1m2 0h1m1 0h3m1 0h5m1 0h3m1 0h1m1 0h1m7 0h2m5 0h2m6 0h1M7 49h1m2 0h2m3 0h1m1 0h1m1 0h2m4 0h1m1 0h1m1 0h1m1 0h2m1 0h1m5 0h1M7 50h1m1 0h1m3 0h2m1 0h3m1 0h1m1 0h2m1 0h1m1 0h1m2 0h1m2 0h1m5 0h1m1 0h1m6 0h1m1 0h2m4 0h2M6 51h1m2 0h1m1 0h2m6 0h1m1 0h1m2 0h1m2 0h1m1 0h1m10 0h1m6 0h1m4 0h1m1 0h2M6 52h1m1 0h1m4 0h1m1 0h1m2 0h1m1 0h1m2 0h1m2 0h1m1 0h2m4 0h2m2 0h1m1 0h2m1 0h2m6 0h1m2 0h1m1 0h1M7 53h2m1 0h1m1 0h1m1 0h3m1 0h2m3 0h1m1 0h2m10 0h1m3 0h1m4 0h1m3 0h1m2 0h1m1 0h1m-44 1h2m3 0h1m2 0h3m4 0h1m7 0h1m2 0h3m1 0h1m1 0h2m5 0h1m1 0h2m-43 1h1m1 0h1m1 0h1m1 0h1m1 0h1m1 0h1m9 0h2m1 0h1m1 0h1m1 0h1m2 0h2m2 0h4m-38 1h1m4 0h1m3 0h3m6 0h1m1 0h1m2 0h2m5 0h1m1 0h1m7 0h1m-40 1h1m1 0h1m3 0h4m5 0h2m1 0h1m2 0h1m2 0h1m1 0h1m1 0h2m1 0h1m1 0h4m1 0h1m-38 1h2m2 0h3m5 0h1m2 0h2m1 0h2m1 0h2m1 0h1m1 0h1m4 0h2m1 0h1m-33 1h3m6 0h1m4 0h1m1 0h1m4 0h1m3 0h4m1 0h1m-31 1h1m6 0h2m1 0h1m1 0h1m3 0h1m1 0h1m1 0h1m3 0h2m2 0h1m-26 1h1m3 0h1m2 0h1m10 0h1m3 0h1m-4 1h1"/><path stroke="silver" d="M34 2h1m0 1h1m1 2h1m0 1h1m-7 1h1m-1 1h1m4 1h1m-2 1h2m-1 1h1m-1 1h1m-5 1h1m4 0h1m-1 1h1m-1 1h1m-1 1h1m-1 1h2m-1 1h1m-1 1h1m-1 1h1m-1 1h1m-1 1h1m-1 1h2m-2 1h2m-2 1h2m-2 1h2m-2 1h1m-1 1h2m-2 1h1m-1 1h2m-13 1h2m1 0h1m7 0h2m-15 1h3m1 0h2m7 0h2m3 0h1m-20 1h2m1 0h2m9 0h1m4 0h2m-22 1h6m1 0h1m1 0h1m5 0h1m4 0h2m-23 1h1m1 0h1m1 0h1m2 0h2m1 0h1m1 0h1m3 0h2m3 0h1m1 0h1m-24 1h2m2 0h1m3 0h2m2 0h1m1 0h1m8 0h1m-24 1h1m1 0h4m4 0h4m7 0h1m-25 1h1m5 0h2m1 0h1m4 0h2m2 0h4m4 0h1m-27 1h2m2 0h1m1 0h1m1 0h1m2 0h1m4 0h2m1 0h2m1 0h3m3 0h1m-31 1h1m8 0h1m1 0h1m1 0h1m9 0h1m5 0h1m-32 1h1m1 0h1m8 0h1m2 0h1m2 0h2m15 0h1m-31 1h1m8 0h1m5 0h2m7 0h2m3 0h2m2 0h1m-23 1h1m1 0h1m1 0h1m1 0h1m1 0h2m11 0h1m-35 1h1m5 0h1m7 0h1m1 0h1m12 0h2m1 0h3m-26 1h1m9 0h1m9 0h1m1 0h2m3 0h1m-32 1h1m14 0h1m16 0h1m-8 1h1m3 0h3m-10 1h3m5 0h1m2 0h1m-14 1h2m3 2h2m-3 1h2m-25 4h1m-2 1h1m-3 1h2m24 0h1m-29 1h3m23 0h1m-29 1h4m21 0h2m-28 1h3m6 0h1m1 0h1m1 0h1m6 0h1m2 0h2m-25 1h1m11 0h10"/><path stroke="#ff0" d="M35 2h1m0 1h1m-4 4h1m0 6h1m-2 1h2m-8 30h1m23 1h1m-3 1h1m2 2h1m-8 1h1m-3 1h2m1 2h1m0 1h1"/><path stroke="olive" d="M37 3h1m-3 1h2m-4 5h2m0 5h1m-2 1h1m-7 29h1m21 2h1m3 2h1m-9 1h1m5 0h2m-9 1h1m3 2h1m-2 1h1m-9 2h1m-3 1h1"/><path stroke="green" d="M32 11h2m-5 2h1m2 0h1m7 2h1m-9 2h1m1 3h1m0 1h1m-3 1h2m0 4h1m-2 1h1m7 3h1m-8 3h1m0 8h1m-8 4h1m10 3h1M5 51h1m7 0h1m3 0h1m16 0h2m1 0h1m-11 1h1m5 0h1M8 54h2m15 0h1m3 0h1m3 0h1m2 1h1m-24 1h1m-2 1h1m26 1h1m-25 1h1m31 0h1m-34 1h1m7 0h1"/><path stroke="purple" d="M34 12h1M14 61h1"/><path stroke="#0ff" d="M28 30h5m-7 1h2m16 0h1m-20 1h1m3 0h1m15 0h1m-22 1h1m21 0h1m-15 2h1m1 0h1m-10 1h1m2 0h1m4 0h1m-9 2h1m2 0h1m8 0h1m-7 3h1m19 0h1m-1 1h2m1 0h1m-14 1h1m12 0h2m-37 1h1m36 0h1m-24 1h1m22 1h1m-27 1h1m19 2h1m-21 4h1m-3 1h1m-3 1h1m1 6h1m9 0h1"/></svg>