<svg xmlns="http://www.w3.org/2000/svg" width="16" height="16" shape-rendering="crispEdges" viewBox="0 -0.5 16 16"><path stroke="#868686" d="M5 0h6M3 1h2m2 0h1m2 0h1M2 2h1m4 0h1m2 0h1M1 3h1m5 0h1m2 0h1m1 0h1M0 4h1m6 0h1m2 0h1M0 5h1m2 0h1m2 0h2m2 0h1M0 6h1m3 0h1m2 0h1m2 0h1M0 7h1m2 0h1m4 0h1M0 8h1m1 0h1m3 0h3m2 0h2M0 9h1m3 0h2m2 0h1m4 0h2M0 10h1m2 0h1m4 0h3m-8 1h1m7 1h1m1 0h1m-4 1h1m1 0h1m-2 1h1"/><path stroke="#f8f8f8" d="M5 1h1m2 0h1M3 2h2m3 0h1M2 3h1m5 0h1M1 4h1m1 0h1m4 0h1M1 5h1m6 0h1M1 6h1m6 0h1M1 7h1M1 8h1m2 2h2m0 1h2m0 1h2"/><path stroke="#ddd" d="M6 1h1M3 3h1M2 5h1"/><path stroke="#b2b2b2" d="M9 1h1M9 2h1M9 3h1M2 4h1m1 0h1m1 0h1m2 0h1M9 5h1M9 6h1M9 7h1M9 8h1M9 9h1m2 0h1m-4 2h1m-6 1h2m0 1h2m0 1h2"/><path stroke="#000" d="M11 1h1m-1 1h2m-2 1h1m1 0h1m-3 1h3m-3 1h1M5 6h2m4 0h1M4 7h1m5 0h1M3 8h1m6 0h1M2 9h1m7 0h2M1 10h1m13 0h1m-1 1h1m-1 1h1M4 13h2m8 0h2M6 14h2m4 0h2m-6 1h4"/><path stroke="silver" d="M5 2h1M4 3h1M4 5h2M2 6h2M2 7h1M1 9h1m4 0h1m-1 1h2m3 0h1m2 0h1m-7 1h1m1 0h3m-3 1h1"/><path stroke="#00f" d="M6 2h1"/><path stroke="red" d="M5 3h1m6 7h1"/><path stroke="navy" d="M6 3h1"/><path stroke="maroon" d="M5 4h1m7 6h1"/><path stroke="#777" d="M7 9h1m5 2h2M3 12h1m8 0h1m1 0h1m-2 1h1"/><path stroke="#eaeaea" d="M4 11h1"/><path stroke="#e3e3e3" d="M5 11h1"/><path stroke="#ccc" d="M6 12h2m0 1h2"/><path stroke="#969696" d="M11 13h1m-2 1h1"/></svg>