<svg xmlns="http://www.w3.org/2000/svg" viewBox="0 -0.5 32 32" shape-rendering="crispEdges">
<path stroke="#808080" d="M0 0h1M13 6h6M11 7h10M9 8h4M19 8h3M8 9h3M21 9h1M8 10h2M22 10h1M7 11h2M23 11h1M7 12h2M23 12h1M6 13h2M24 13h1M6 14h2M24 14h1M6 15h2M24 15h1M6 16h2M24 16h1M6 17h2M24 17h1M6 18h2M24 18h1M7 19h2M23 19h1M7 20h2M23 20h1M8 21h2M22 21h1M10 22h1M21 22h1M11 23h2M19 23h2M13 24h6" />
<path stroke="#ff0000" d="M0 0h1M13 8h6M11 9h10M10 10h12M9 11h5M15 11h4M20 11h3M9 12h4M15 12h3M20 12h3M8 13h4M13 13h1M15 13h2M18 13h1M20 13h4M8 14h6M15 14h4M20 14h4M8 15h6M15 15h4M20 15h4M8 16h6M15 16h4M20 16h4M8 17h6M15 17h4M20 17h3M8 18h6M15 18h4M20 18h3M9 19h5M15 19h4M20 19h2M9 20h13M10 21h11M11 22h9M13 23h4" />
<path stroke="#c0c0c0" d="M0 0h1M22 8h1M22 9h2M8 22h2M9 23h1" />
<path stroke="#ffffff" d="M0 0h1M23 10h1M14 11h1M19 11h1M24 11h1M13 12h2M18 12h2M24 12h1M12 13h1M14 13h1M17 13h1M19 13h1M25 13h1M14 14h1M19 14h1M25 14h1M14 15h1M19 15h1M25 15h1M14 16h1M19 16h1M25 16h1M14 17h1M19 17h1M25 17h1M14 18h1M19 18h1M25 18h1M14 19h1M19 19h1M24 19h1M24 20h1M23 21h1M22 22h2M10 23h1M21 23h2M11 24h2M19 24h2M13 25h6" />
<path stroke="#800000" d="M0 0h1M23 17h1M23 18h1M22 19h1M22 20h1M21 21h1M20 22h1M17 23h2" />
</svg>