<svg xmlns="http://www.w3.org/2000/svg" viewBox="0 -0.5 48 48" shape-rendering="crispEdges">
<path stroke="#c0c0c0" d="M0 0h1M24 0h1M25 1h1M26 2h1M27 3h1M28 4h1M29 5h1M30 6h1M31 7h1M31 8h1M32 9h1M33 10h1M14 11h1M34 11h1M15 12h1M16 13h1M11 14h1M17 14h1M22 14h1M37 14h1M12 15h1M18 15h1M30 15h1M38 15h1M13 16h1M31 16h1M39 16h1M14 17h1M32 17h1M40 17h2M15 18h1M33 18h1M42 18h1M43 19h1M44 20h1M45 21h1M14 22h1M46 22h1M47 23h1M0 24h1M1 25h1M2 26h1M34 26h1M3 27h1M4 28h1M5 29h1M6 30h1M15 30h1M33 30h1M7 31h2M16 31h1M34 31h1M9 32h1M17 32h1M35 32h1M10 33h1M18 33h1M30 33h1M36 33h1M11 34h1M26 34h1M31 34h1M37 34h1M32 35h1M33 36h1M14 37h1M34 37h1M15 38h1M16 39h1M17 40h1M17 41h1M18 42h1M19 43h1M20 44h1M21 45h1M22 46h1M23 47h1" />
<path stroke="#808080" d="M0 0h1M23 1h1M22 2h1M21 3h1M20 4h1M19 5h1M18 6h1M7 7h11M32 7h9M7 8h1M22 8h1M7 9h1M22 9h1M7 10h1M22 10h1M7 11h1M22 11h1M7 12h1M22 12h1M33 12h1M7 13h1M22 13h1M32 13h1M7 14h1M31 14h1M7 15h1M7 16h1M7 17h1M6 18h1M40 18h1M5 19h1M40 19h1M4 20h1M40 20h1M3 21h1M40 21h1M2 22h1M8 22h6M34 22h7M1 23h1M34 23h1M34 24h1M34 25h1M40 26h1M40 27h1M40 28h1M40 29h1M40 30h1M14 31h1M32 31h1M40 31h1M7 32h1M13 32h1M31 32h1M39 32h1M7 33h1M12 33h1M38 33h1M7 34h1M22 34h4M7 35h1M22 35h1M7 36h1M22 36h1M7 37h1M22 37h1M7 38h1M22 38h1M33 38h1M7 39h1M22 39h1M32 39h1M7 40h1M18 40h5M26 40h6" />
<path stroke="#800000" d="M0 0h1M24 1h1M23 2h3M22 3h5M21 4h7M20 5h9M19 6h11M18 7h13M8 8h9M23 8h3M32 8h9M8 9h8M23 9h3M33 9h8M8 10h7M23 10h3M34 10h7M8 11h6M23 11h3M35 11h6M8 12h7M23 12h3M34 12h7M8 13h8M23 13h3M33 13h8M8 14h3M12 14h5M32 14h5M38 14h3M8 15h2M13 15h5M31 15h5M39 15h2M8 16h1M14 16h3M32 16h3M40 16h1M15 17h1M33 17h1M7 18h1M41 18h1M6 19h2M41 19h2M5 20h3M41 20h3M4 21h4M41 21h4M3 22h5M41 22h5M2 23h12M35 23h12M1 24h13M35 24h13M2 25h12M35 25h12M3 26h5M41 26h5M4 27h4M41 27h4M5 28h3M41 28h3M6 29h2M41 29h2M7 30h1M41 30h1M15 31h1M33 31h1M8 32h1M14 32h3M32 32h3M40 32h1M8 33h2M13 33h5M31 33h5M39 33h2M8 34h3M12 34h5M32 34h5M38 34h3M8 35h8M23 35h3M33 35h8M8 36h7M23 36h3M34 36h7M8 37h6M23 37h3M35 37h6M8 38h7M23 38h3M34 38h7M8 39h8M23 39h3M33 39h8M8 40h9M23 40h3M32 40h9M18 41h13M19 42h11M20 43h9M21 44h7M22 45h5M23 46h3M24 47h1" />
<path stroke="#ffffff" d="M0 0h1M17 8h5M26 8h5M41 8h1M16 9h1M26 9h1M41 9h1M15 10h1M26 10h1M41 10h1M26 11h1M41 11h1M26 12h1M41 12h1M26 13h1M41 13h1M23 14h4M41 14h1M10 15h1M36 15h1M41 15h1M9 16h1M17 16h1M35 16h1M41 16h1M8 17h1M16 17h1M34 17h1M8 18h1M8 19h1M8 20h1M8 21h1M14 23h1M14 24h1M14 25h1M47 25h1M8 26h7M35 26h5M46 26h1M8 27h1M45 27h1M8 28h1M44 28h1M8 29h1M43 29h1M8 30h1M42 30h1M41 31h1M41 32h1M41 33h1M17 34h1M41 34h1M16 35h1M26 35h1M41 35h1M15 36h1M26 36h1M41 36h1M26 37h1M41 37h1M26 38h1M41 38h1M26 39h1M41 39h1M41 40h1M8 41h9M31 41h11M30 42h1M29 43h1M28 44h1M27 45h1M26 46h1M25 47h1" />
</svg>