<svg xmlns="http://www.w3.org/2000/svg" viewBox="0 -0.5 32 32" shape-rendering="crispEdges">
<path stroke="#800000" d="M0 0h1M15 0h1M14 1h3M13 2h5M12 3h7M11 4h9M10 5h11M9 6h13M13 7h5M13 8h5M6 9h1M13 9h5M5 10h2M13 10h5M4 11h3M13 11h5M3 12h4M2 13h10M1 14h11M0 15h12M1 16h11M2 17h10M3 18h4M4 19h3M13 19h5M5 20h2M13 20h5M6 21h1M13 21h5M13 22h5M13 23h5M9 24h13M10 25h11M11 26h9M12 27h7M13 28h5M14 29h3M15 30h1" />
<path stroke="#ff0000" d="M0 0h1M24 9h1M24 10h2M24 11h3M24 12h4M19 13h10M19 14h11M19 15h12M19 16h11M19 17h10M24 18h4M24 19h3M24 20h2M24 21h1" />
</svg>