<svg xmlns="http://www.w3.org/2000/svg" viewBox="0 -0.5 32 32" shape-rendering="crispEdges">
<path stroke="#808080" d="M0 0h1M13 0h5M12 1h1M12 2h1M12 3h1M16 3h2M12 4h1M16 4h2M12 5h1M16 5h2M12 6h1M16 6h2M12 7h1M16 7h2M12 8h1M16 8h2M12 9h1M16 9h2M12 10h1M16 10h2M12 11h1M16 11h2M11 12h3M16 12h2M19 12h1M9 13h2M20 13h3M7 14h2M13 14h1M16 14h1M23 14h3M5 15h2M12 15h2M16 15h1M26 15h3M3 16h2M11 16h1M13 16h1M16 16h1M18 16h1M29 16h1M2 17h1M11 17h1M17 17h2M29 17h1M1 18h1M12 18h1M17 18h1M29 18h1M0 19h1M4 19h1M7 19h1M13 19h2M23 19h1M26 19h4M0 20h1M25 20h5M0 21h1M23 21h7M0 22h1M21 22h9M0 23h1M14 23h1M17 23h1M19 23h11M0 24h1M18 24h12M0 25h3M17 25h11M0 26h1M3 26h3M16 26h10M6 27h3M16 27h8M9 28h3M16 28h6M12 29h3M16 29h4M15 30h3" />
<path stroke="#c0c0c0" d="M0 0h1M13 1h5M14 3h2M14 4h2M14 5h2M14 6h2M14 7h2M14 8h2M14 9h2M14 10h2M14 11h2M14 12h2M11 13h2M18 13h2M9 14h4M15 14h1M18 14h5M7 15h5M15 15h1M19 15h7M5 16h6M15 16h1M20 16h9M3 17h2M7 17h4M20 17h4M26 17h3M2 18h2M8 18h4M15 18h2M19 18h4M27 18h2M3 19h1M8 19h5M18 19h5M6 20h19M1 21h2M9 21h6M17 21h6M1 22h5M12 22h2M18 22h3M1 23h8M18 23h1M1 24h11M3 25h12M6 26h10M9 27h7M12 28h4M15 29h1" />
<path stroke="#000000" d="M0 0h1M18 1h1M18 2h1M18 3h1M18 4h1M18 5h1M18 6h1M18 7h1M18 8h1M18 9h1M18 10h1M18 11h1M18 12h1M13 13h5M17 14h1M17 15h2M17 16h1M19 16h1M14 17h3M19 17h1M30 17h1M7 18h1M18 18h1M26 18h1M30 18h1M15 19h3M30 19h1M30 20h1M30 21h1M17 22h1M30 22h1M30 23h1M30 24h1M28 25h2M1 26h2M26 26h2M3 27h3M24 27h2M6 28h3M22 28h2M9 29h3M20 29h2M12 30h3M18 30h2M15 31h3" />
<path stroke="#ff0000" d="M0 0h1M24 1h2M24 2h2M24 3h2M24 4h2M24 5h2M24 6h2M22 7h6M23 8h4M24 9h2M25 18h1" />
<path stroke="#800000" d="M0 0h1M26 1h1M26 2h1M26 3h1M26 4h1M26 5h1M26 6h1M28 7h1M27 8h1M26 9h1M25 10h1M24 17h2M23 18h1M24 19h2" />
<path stroke="#ffffff" d="M0 0h1M13 2h5M13 3h1M13 4h1M13 5h1M13 6h1M13 7h1M13 8h1M13 9h1M13 10h1M13 11h1M14 14h1M14 15h1M12 16h1M14 16h1M12 17h2M5 18h1M13 18h2M24 18h1M1 19h2M1 20h5M3 21h6M6 22h6M15 22h1M9 23h5M12 24h6M15 25h2" />
<path stroke="#008000" d="M0 0h1M5 17h2M4 18h1M5 19h2M15 21h2M14 22h1M15 23h2" />
<path stroke="#00ff00" d="M0 0h1M6 18h1M16 22h1" />
</svg>