<svg xmlns="http://www.w3.org/2000/svg" width="48" height="48" shape-rendering="crispEdges" viewBox="0 -0.5 48 48"><path stroke="silver" d="M24 0h1m0 1h1m0 1h1m0 1h1m0 1h1m0 1h1m0 1h1m0 1h1m-1 1h1m0 1h1m0 1h1m-20 1h1m19 0h1m-20 1h1m0 1h1m-6 1h1m5 0h1m4 0h1m14 0h1m-26 1h1m5 0h1m11 0h1m7 0h1m-26 1h1m17 0h1m7 0h1m-26 1h1m17 0h1m7 0h2m-27 1h1m17 0h1m8 0h1m0 1h1m0 1h1m0 1h1m-32 1h1m31 0h1m0 1h1M0 24h1m0 1h1m0 1h1m31 0h1M3 27h1m0 1h1m0 1h1m0 1h1m8 0h1m17 0h1M7 31h2m7 0h1m17 0h1M9 32h1m7 0h1m17 0h1m-26 1h1m7 0h1m11 0h1m5 0h1m-26 1h1m14 0h1m4 0h1m5 0h1m-6 1h1m0 1h1m-20 1h1m19 0h1m-20 1h1m0 1h1m0 1h1m-1 1h1m0 1h1m0 1h1m0 1h1m0 1h1m0 1h1m0 1h1"/><path stroke="gray" d="M23 1h1m-2 1h1m-2 1h1m-2 1h1m-2 1h1m-2 1h1M7 7h11m14 0h9M7 8h1m14 0h1M7 9h1m14 0h1M7 10h1m14 0h1M7 11h1m14 0h1M7 12h1m14 0h1m10 0h1M7 13h1m14 0h1m9 0h1M7 14h1m23 0h1M7 15h1m-1 1h1m-1 1h1m-2 1h1m33 0h1M5 19h1m34 0h1M4 20h1m35 0h1M3 21h1m36 0h1M2 22h1m5 0h6m20 0h7M1 23h1m32 0h1m-1 1h1m-1 1h1m5 1h1m-1 1h1m-1 1h1m-1 1h1m-1 1h1m-27 1h1m17 0h1m7 0h1M7 32h1m5 0h1m17 0h1m7 0h1M7 33h1m4 0h1m25 0h1M7 34h1m14 0h4M7 35h1m14 0h1M7 36h1m14 0h1M7 37h1m14 0h1M7 38h1m14 0h1m10 0h1M7 39h1m14 0h1m9 0h1M7 40h1m10 0h5m3 0h6"/><path stroke="maroon" d="M24 1h1m-2 1h3m-4 1h5m-6 1h7m-8 1h9M19 6h11M18 7h13M8 8h9m6 0h3m6 0h9M8 9h8m7 0h3m7 0h8M8 10h7m8 0h3m8 0h7M8 11h6m9 0h3m9 0h6M8 12h7m8 0h3m8 0h7M8 13h8m7 0h3m7 0h8M8 14h3m1 0h5m15 0h5m1 0h3M8 15h2m3 0h5m13 0h5m3 0h2M8 16h1m5 0h3m15 0h3m5 0h1m-26 1h1m17 0h1M7 18h1m33 0h1M6 19h2m33 0h2M5 20h3m33 0h3M4 21h4m33 0h4M3 22h5m33 0h5M2 23h12m21 0h12M1 24h13m21 0h13M2 25h12m21 0h12M3 26h5m33 0h5M4 27h4m33 0h4M5 28h3m33 0h3M6 29h2m33 0h2M7 30h1m33 0h1m-27 1h1m17 0h1M8 32h1m5 0h3m15 0h3m5 0h1M8 33h2m3 0h5m13 0h5m3 0h2M8 34h3m1 0h5m15 0h5m1 0h3M8 35h8m7 0h3m7 0h8M8 36h7m8 0h3m8 0h7M8 37h6m9 0h3m9 0h6M8 38h7m8 0h3m8 0h7M8 39h8m7 0h3m7 0h8M8 40h9m6 0h3m6 0h9m-23 1h13m-12 1h11m-10 1h9m-8 1h7m-6 1h5m-4 1h3m-2 1h1"/><path stroke="#fff" d="M17 8h5m4 0h5m10 0h1M16 9h1m9 0h1m14 0h1m-27 1h1m10 0h1m14 0h1m-16 1h1m14 0h1m-16 1h1m14 0h1m-16 1h1m14 0h1m-19 1h4m14 0h1m-32 1h1m25 0h1m4 0h1M9 16h1m7 0h1m17 0h1m5 0h1M8 17h1m7 0h1m17 0h1M8 18h1m-1 1h1m-1 1h1m-1 1h1m5 2h1m-1 1h1m-1 1h1m32 0h1M8 26h7m20 0h5m6 0h1M8 27h1m36 0h1M8 28h1m35 0h1M8 29h1m34 0h1M8 30h1m33 0h1m-2 1h1m-1 1h1m-1 1h1m-25 1h1m23 0h1m-26 1h1m9 0h1m14 0h1m-27 1h1m10 0h1m14 0h1m-16 1h1m14 0h1m-16 1h1m14 0h1m-16 1h1m14 0h1m-1 1h1M8 41h9m14 0h11m-12 1h1m-2 1h1m-2 1h1m-2 1h1m-2 1h1m-2 1h1"/></svg>