<svg xmlns="http://www.w3.org/2000/svg" width="32" height="32" shape-rendering="crispEdges" viewBox="0 -0.5 32 32"><path stroke="gray" d="M13 6h6m-8 1h10M9 8h4m6 0h3M8 9h3m10 0h1M8 10h2m12 0h1M7 11h2m14 0h1M7 12h2m14 0h1M6 13h2m16 0h1M6 14h2m16 0h1M6 15h2m16 0h1M6 16h2m16 0h1M6 17h2m16 0h1M6 18h2m16 0h1M7 19h2m14 0h1M7 20h2m14 0h1M8 21h2m12 0h1m-13 1h1m10 0h1m-11 1h2m6 0h2m-8 1h6"/><path stroke="red" d="M13 8h6m-8 1h10m-11 1h12M9 11h7m1 0h6M9 12h6m2 0h6M8 13h7m2 0h7M8 14h6m1 0h1m1 0h7M8 15h6m1 0h1m1 0h7M8 16h5m1 0h2m1 0h7M8 17h5m5 0h5M8 18h8m1 0h6M9 19h7m1 0h6M9 20h13m-12 1h11m-10 1h9m-7 1h4"/><path stroke="silver" d="M22 8h1m-1 1h2m-1 1h1M8 22h2m-1 1h1"/><path stroke="#fff" d="M16 11h1m7 0h1m-10 1h2m7 0h1m-10 1h2m8 0h1m-12 1h1m1 0h1m8 0h1m-12 1h1m1 0h1m8 0h1m-13 1h1m2 0h1m8 0h1m-13 1h5m7 0h1m-10 1h1m8 0h1m-10 1h1m7 0h1m-1 1h1m-2 1h1m-2 1h2m-14 1h1m10 0h2m-12 1h2m6 0h2m-8 1h6"/><path stroke="maroon" d="M23 17h1m-1 1h1m-2 2h1m-2 1h1m-2 1h1m-4 1h2"/></svg>