<svg xmlns="http://www.w3.org/2000/svg" width="48" height="48" shape-rendering="crispEdges" viewBox="0 -0.5 48 48"><path stroke="gray" d="M25 1h8m-9 1h1m-1 1h1M12 4h8m4 0h1m6 0h2M9 5h3m8 0h2m2 0h1m5 0h1m1 0h1M7 6h2m13 0h3m6 0h2M6 7h1m17 0h1m5 0h1m1 0h1M5 8h1m17 0h2m6 0h2M4 9h1m10 0h1m7 0h2m5 0h1m1 0h1M3 10h1m15 0h1m3 0h2m6 0h2M3 11h1m13 0h1m5 0h2m5 0h1m1 0h1M2 12h1m18 0h1m1 0h2m6 0h2M2 13h1m12 0h1m7 0h2m5 0h1m1 0h1M1 14h1m5 0h4m12 0h2m6 0h2M1 15h1m4 0h1m2 0h1m1 0h1m5 0h1m5 0h2m5 0h1m1 0h1M1 16h1m3 0h1m4 0h1m1 0h1m9 0h3m6 0h2M1 17h1m3 0h1m6 0h1m8 0h1m2 0h1m5 0h1m1 0h1M0 18h1m4 0h1m6 0h1m7 0h1m3 0h1m6 0h2M0 19h1m5 0h1m3 0h1m8 0h1m4 0h1m5 0h1m1 0h1M0 20h1m6 0h3m7 0h2m5 0h1m6 0h2M0 21h1m14 0h2m7 0h1m5 0h1m1 0h1M0 22h1m12 0h2m9 0h1m6 0h2M0 23h1m8 0h4m11 0h1m5 0h1m1 0h1M0 24h1m7 0h1m17 0h6m1 0h1M0 25h1m6 0h1m14 0h4m8 0h2M0 26h1m6 0h1m12 0h2m3 0h1m4 0h2m4 0h2M1 27h1m5 0h1m10 0h2m4 0h2m3 0h1m1 0h1m6 0h3M1 28h1m5 0h1m8 0h2m5 0h1m1 0h1m4 0h2m1 0h1m7 0h3M1 29h1m5 0h1m6 0h2m7 0h1m2 0h1m2 0h1m2 0h2m10 0h2M2 30h1m3 0h1m5 0h2m9 0h1m7 0h3M2 31h1m1 0h3m3 0h2m12 0h1m6 0h2m13 0h1m-37 1h1m14 0h2m18 0h2m-37 1h1m16 0h3m6 0h1m3 0h1m2 0h4m-37 1h1m30 0h6m-37 1h1m28 0h8m-37 1h1m26 0h10m-37 1h1m24 0h12m-37 1h1m22 0h14m-37 1h3m18 0h15m-33 1h3m14 0h14m-28 1h3m11 0h12m-23 1h3m8 0h10m-18 1h3m5 0h8m-13 1h3m2 0h6m-8 1h6"/><path stroke="silver" d="M25 2h8m-1 1h1m-7 1h5m-4 1h3m1 0h1M12 6h8m6 0h1m1 0h3M9 7h13m1 0h1m3 0h3m1 0h1M7 8h16m3 0h1m1 0h3M6 9h9m3 0h5m4 0h3m1 0h1M5 10h10m3 0h1m3 0h1m3 0h1m1 0h3M5 11h10m3 0h1m3 0h1m4 0h3m1 0h1M4 12h15m3 0h1m3 0h1m1 0h3M4 13h11m3 0h5m4 0h3m1 0h1M3 14h4m4 0h4m3 0h5m3 0h1m1 0h3M3 15h3m1 0h2m3 0h3m3 0h5m4 0h3m1 0h1M3 16h2m1 0h1m1 0h2m3 0h9m4 0h1m1 0h3M3 17h2m1 0h1m2 0h2m2 0h8m6 0h3m1 0h1M2 18h3m1 0h2m1 0h2m2 0h7m6 0h1m1 0h3M2 19h4m1 0h3m2 0h7m8 0h3m1 0h1M2 20h5m4 0h6m9 0h1m1 0h3M2 21h13m12 0h3m1 0h1M2 22h11m13 0h1m1 0h3M2 23h7m18 0h3m1 0h1M2 24h6m-6 1h5m26 0h1M2 26h5m15 0h3m2 0h3m3 0h3M3 27h4m13 0h4m4 0h1m1 0h1m3 0h4M3 28h4m11 0h5m4 0h3m5 0h6M3 29h4m9 0h7m5 0h1m1 0h1m4 0h9M4 30h2m8 0h9m12 0h2m3 0h6M3 31h1m8 0h12m3 0h4m3 0h2m1 0h1m3 0h5m-33 1h12m2 0h4m2 0h3m5 0h4m-30 1h12m4 0h5m5 0h2m-31 1h2m4 0h23m-29 1h5m4 0h18m-27 1h8m4 0h13m-25 1h11m4 0h8m-23 1h14m4 0h3m-20 1h16m-13 1h14m-11 1h11m-8 1h8m-5 1h5m-2 1h2"/><path stroke="#000" d="M33 2h1m-1 1h1m-1 1h1m-1 1h1m-1 1h1m-1 1h1m-1 1h1m-1 1h1m-1 1h1m-1 1h1m-1 1h1m-1 1h1m-1 1h1m-24 1h1m22 0h1m-23 1h1m21 0h1m-23 1h1m10 0h2m9 0h1m-23 1h1m9 0h1m11 0h1m-23 1h1m8 0h1m12 0h1m-24 1h1m8 0h1m13 0h1m-17 1h2m14 0h1m-19 1h2m16 0h1m-21 1h2m18 0h1M9 24h4m12 0h1m6 0h1M8 25h1m17 0h7M8 26h1m23 0h1M8 27h1m23 0h2M8 28h1m23 0h1m1 0h1M8 29h1m22 0h1m2 0h1M7 30h1m19 0h4m3 0h1m11 0h1M7 31h1m25 0h1m6 0h1m6 0h1M3 32h4m24 0h2m7 0h1m6 0h1m-18 1h1m8 0h1m7 0h1m-1 1h1m-1 1h1m-1 1h1m-1 1h1m-1 1h1m-2 1h1m-36 1h2m31 0h2m-33 1h3m26 0h2m-28 1h3m21 0h2m-23 1h3m16 0h2m-18 1h3m11 0h2m-13 1h3m6 0h2m-8 1h6"/><path stroke="#fff" d="M25 3h7m-7 1h1M12 5h8m5 0h2M9 6h3m8 0h2m3 0h1m1 0h1M7 7h2m13 0h1m2 0h2M6 8h1m18 0h1m1 0h1M5 9h1m19 0h2M4 10h1m20 0h1m1 0h1M4 11h1m20 0h2M3 12h1m21 0h1m1 0h1M3 13h1m21 0h2M2 14h1m22 0h1m1 0h1M2 15h1m22 0h2M2 16h1m4 0h1m17 0h1m1 0h1M2 17h1m4 0h2m16 0h2M1 18h1m6 0h1m16 0h1m1 0h1M1 19h1m23 0h2M1 20h1m23 0h1m1 0h1M1 21h1m23 0h2M1 22h1m23 0h1m1 0h1M1 23h1m23 0h2M1 24h1m-1 1h1m-1 1h1m24 0h1M2 27h1m23 0h2M2 28h1m21 0h1m1 0h1M2 29h1m21 0h2m1 0h1M3 30h1m20 0h3m-2 1h2m-16 1h2m-2 1h4m-4 1h1m2 0h4m-7 1h1m5 0h4m-10 1h1m8 0h4m-13 1h1m11 0h4m-16 1h1m14 0h4m-1 1h2"/><path stroke="red" d="M16 9h1m-2 1h2m21 21h1m-1 1h1"/><path stroke="maroon" d="M17 9h1m-1 1h1m-3 1h2m20 19h3m-4 1h1m2 0h1m-4 1h2m1 0h1m-3 1h2"/><path stroke="#00f" d="M20 10h1m-2 1h2"/><path stroke="navy" d="M21 10h1m-1 1h1m-3 1h2"/><path stroke="#0f0" d="M16 13h1m-2 1h2"/><path stroke="green" d="M17 13h1m-1 1h1m-3 1h2"/></svg>