<svg xmlns="http://www.w3.org/2000/svg" viewBox="0 -0.5 32 32" shape-rendering="crispEdges">
<path stroke="#808080" d="M0 0h1M13 6h6M11 7h2M19 7h2M9 8h2M21 8h1M8 9h2M8 10h1M22 10h1M7 11h1M23 11h1M7 12h1M23 12h1M6 13h1M24 13h1M6 14h1M24 14h1M6 15h1M24 15h1M6 16h1M24 16h1M6 17h1M24 17h1M6 18h1M24 18h1M7 19h1M23 19h1M7 20h1M23 20h1M8 21h1M22 21h1M10 22h1M21 22h1M11 23h2M19 23h2M13 24h6" />
<path stroke="#000000" d="M0 0h1M13 7h6M11 8h2M20 8h1M10 9h1M21 9h1M9 10h1M8 11h1M8 12h1M7 13h1M7 14h1M7 15h1M7 16h1M22 16h1M7 17h1M7 18h1M22 18h1M8 19h1M8 20h1M20 20h1M22 20h1M9 21h1M21 21h1M16 22h1M18 22h1M20 22h1" />
<path stroke="#800000" d="M0 0h1M13 8h7M11 9h10M10 10h12M9 11h3M13 11h4M20 11h3M9 12h2M13 12h4M18 12h2M21 12h2M8 13h2M11 13h1M13 13h3M17 13h7M8 14h4M13 14h3M17 14h1M19 14h5M8 15h4M13 15h3M18 15h1M20 15h4M8 16h4M13 16h3M17 16h3M21 16h1M23 16h1M8 17h4M13 17h3M17 17h3M21 17h3M8 18h4M13 18h4M18 18h1M20 18h2M23 18h1M9 19h3M13 19h5M19 19h4M9 20h11M21 20h1M10 21h11M11 22h5M17 22h1M19 22h1M13 23h6" />
<path stroke="#c0c0c0" d="M0 0h1M22 8h1M22 9h2M12 11h1M17 11h3M11 12h2M17 12h1M20 12h1M10 13h1M12 13h1M16 13h1M12 14h1M16 14h1M18 14h1M12 15h1M16 15h2M19 15h1M12 16h1M16 16h1M20 16h1M12 17h1M16 17h1M20 17h1M12 18h1M17 18h1M19 18h1M12 19h1M18 19h1M8 22h2M9 23h1" />
<path stroke="#ffffff" d="M0 0h1M23 10h1M24 11h1M24 12h1M25 13h1M25 14h1M25 15h1M25 16h1M25 17h1M25 18h1M24 19h1M24 20h1M23 21h1M22 22h2M10 23h1M21 23h2M11 24h2M19 24h2M13 25h6" />
</svg>