<svg xmlns="http://www.w3.org/2000/svg" viewBox="0 -0.5 64 64" shape-rendering="crispEdges">
<path stroke="#000000" d="M0 0h1M31 0h1M29 1h2M33 1h1M36 1h1M27 2h2M32 2h1M37 2h1M27 3h1M31 3h1M33 3h1M28 4h2M32 4h2M37 4h1M28 5h2M34 5h2M38 5h1M28 6h1M30 6h1M32 6h2M36 6h1M39 6h1M28 7h1M30 7h2M36 7h2M39 7h1M28 8h1M31 8h1M37 8h2M40 8h1M28 9h1M30 9h1M32 9h1M40 9h1M28 10h1M30 10h1M40 10h1M28 11h1M30 11h1M41 11h1M28 12h2M33 12h1M41 12h1M41 13h1M29 14h2M41 14h1M29 15h2M33 15h1M41 15h1M30 16h2M41 16h1M31 17h1M42 17h1M42 18h1M32 19h1M35 19h1M42 19h1M32 20h1M42 20h1M32 21h2M42 21h1M32 22h1M35 22h1M42 22h1M32 23h2M42 23h1M32 24h1M35 24h1M42 24h1M33 25h1M35 25h1M42 25h1M33 26h1M43 26h1M33 27h1M35 27h1M43 27h1M33 28h1M35 28h1M43 28h1M28 29h7M43 29h1M26 30h2M35 30h1M43 30h2M33 31h2M43 31h1M45 31h1M24 32h1M32 32h2M43 32h1M46 32h1M23 33h1M31 33h1M34 33h1M43 33h1M47 33h1M30 34h1M34 34h2M43 34h1M48 34h1M21 35h2M29 35h1M36 35h2M43 35h1M48 35h3M20 36h1M22 36h1M29 36h1M39 36h4M48 36h1M51 36h1M19 37h1M22 37h1M30 37h1M41 37h1M48 37h1M52 37h1M17 38h2M22 38h1M30 38h2M48 38h1M52 38h1M16 39h1M22 39h2M32 39h2M46 39h1M50 39h4M15 40h1M23 40h2M34 40h3M44 40h2M49 40h1M51 40h1M54 40h1M14 41h1M24 41h1M37 41h7M48 41h2M55 41h1M13 42h1M25 42h1M40 42h2M47 42h1M56 42h1M11 43h2M30 43h1M48 43h1M57 43h1M10 44h1M26 44h1M29 44h2M44 44h2M9 45h1M26 45h1M28 45h1M45 45h1M52 45h1M58 45h1M8 46h1M26 46h2M42 46h2M48 46h1M51 46h1M58 46h1M7 47h1M39 47h2M42 47h1M50 47h1M58 47h1M6 48h1M37 48h2M41 48h1M5 49h1M37 49h1M39 49h1M47 49h1M51 49h1M54 49h1M58 49h1M4 50h1M35 50h1M37 50h2M46 50h1M58 50h1M4 51h1M44 51h2M57 51h1M4 52h2M50 52h1M57 52h1M4 53h3M49 53h1M56 53h1M5 54h1M7 54h1M47 54h2M56 54h1M6 55h1M9 55h1M55 55h1M7 56h2M10 56h1M28 56h1M53 56h2M8 57h2M52 57h2M9 58h3M13 58h1M50 58h3M10 59h1M23 59h1M49 59h2M11 60h3M15 60h1M21 60h1M47 60h2M13 61h1M20 61h3M44 61h3M13 62h3M17 62h3M23 62h3M41 62h3M16 63h1M30 63h6" />
<path stroke="#000080" d="M0 0h1M32 0h2M34 1h1M33 2h1M32 3h1M27 4h1M34 4h1M35 6h1M34 7h1M30 8h1M34 8h1M32 12h1M28 13h1M32 14h1M35 15h1M32 18h1M33 20h1M35 20h1M34 26h1M33 30h1M25 31h1M35 32h1M22 34h1M51 38h1M34 39h1M50 40h1M35 41h1M46 42h1M48 42h1M24 43h1M46 43h2M43 44h1M46 44h1M57 44h1M43 45h2M41 46h1M44 46h1M41 47h1M49 47h1M39 48h1M58 48h1M36 49h1M5 50h1M34 50h1M42 50h1M52 50h2M32 51h2M36 51h1M43 51h1M31 52h1M29 53h1M33 53h1M45 53h1M6 54h1M32 54h1M46 54h1M55 54h1M8 55h1M27 55h1M30 55h1M54 55h1M29 56h1M11 57h1M26 57h2M24 58h2M12 59h1M22 59h1M48 59h1M46 60h1M12 61h1M15 61h1M43 61h1M26 62h1M39 62h2M14 63h2M27 63h3M36 63h4" />
<path stroke="#008080" d="M0 0h1M31 1h2M29 2h3M28 3h2M30 4h1M31 5h1M29 6h1M31 6h1M29 7h1M35 7h1M29 8h1M35 8h1M39 8h1M29 9h1M31 9h1M36 9h1M38 9h2M29 10h1M31 10h5M39 10h1M29 11h1M31 11h1M34 11h2M39 11h2M30 12h2M35 12h1M39 12h2M30 13h2M35 13h1M39 13h2M31 14h1M36 14h1M39 14h2M31 15h2M39 15h1M32 16h4M40 16h1M33 17h2M37 17h1M40 17h2M33 18h5M40 18h2M34 19h1M36 19h2M41 19h1M36 20h2M40 20h2M36 21h2M41 21h1M36 22h2M40 22h2M35 23h4M41 23h1M33 24h2M36 24h2M41 24h1M34 25h1M36 25h3M41 25h1M36 26h2M41 26h2M36 27h2M41 27h2M34 28h1M36 28h3M41 28h2M35 29h3M41 29h2M34 30h1M36 30h3M41 30h1M30 31h1M35 31h3M41 31h2M34 32h1M36 32h3M41 32h2M36 33h2M41 33h2M36 34h3M41 34h2M47 34h1M41 35h2M30 36h1M38 36h1M43 36h1M45 36h1M50 36h1M31 37h1M39 37h2M46 37h2M49 37h1M51 37h1M32 38h1M43 38h2M47 38h1M25 39h1M35 39h1M47 39h1M49 39h1M22 40h1M30 40h1M33 40h1M37 40h1M39 40h1M43 40h1M46 40h1M53 40h1M17 41h1M20 41h1M23 41h1M28 41h2M32 41h1M44 41h1M47 41h1M54 41h1M16 42h1M19 42h1M22 42h1M27 42h1M30 42h1M39 42h1M17 43h1M19 43h1M21 43h1M23 43h1M26 43h1M32 43h1M34 43h1M36 43h1M38 43h1M44 43h2M50 43h1M56 43h1M14 44h3M20 44h1M23 44h1M25 44h1M31 44h1M33 44h1M35 44h1M37 44h2M40 44h3M49 44h1M12 45h1M16 45h5M22 45h1M24 45h2M31 45h2M34 45h1M36 45h1M38 45h2M41 45h2M46 45h1M48 45h1M55 45h1M12 46h5M18 46h2M21 46h2M24 46h1M28 46h2M31 46h1M33 46h1M35 46h3M39 46h1M45 46h1M47 46h1M52 46h2M11 47h1M14 47h1M16 47h1M19 47h4M25 47h4M31 47h1M33 47h4M38 47h1M44 47h1M47 47h1M55 47h3M9 48h2M12 48h1M14 48h2M17 48h1M21 48h1M27 48h1M31 48h1M33 48h1M35 48h2M44 48h1M48 48h1M51 48h1M55 48h1M6 49h1M8 49h2M12 49h3M16 49h1M18 49h1M21 49h4M26 49h1M28 49h1M30 49h1M33 49h1M35 49h1M38 49h1M41 49h2M48 49h2M55 49h3M6 50h1M8 50h1M10 50h3M15 50h1M19 50h1M21 50h1M24 50h1M26 50h1M28 50h2M31 50h2M36 50h1M40 50h1M47 50h1M49 50h1M54 50h2M7 51h2M10 51h1M14 51h3M18 51h1M20 51h1M22 51h2M25 51h2M28 51h1M30 51h2M38 51h2M41 51h2M46 51h1M50 51h2M53 51h1M56 51h1M7 52h1M9 52h4M14 52h1M16 52h2M19 52h1M21 52h2M24 52h2M30 52h1M32 52h1M36 52h2M39 52h1M42 52h1M45 52h1M52 52h2M55 52h1M9 53h1M11 53h1M13 53h1M17 53h1M20 53h3M24 53h1M27 53h2M31 53h2M34 53h3M38 53h3M42 53h3M51 53h2M54 53h1M10 54h2M14 54h3M18 54h2M23 54h2M26 54h1M30 54h2M34 54h1M36 54h2M41 54h1M43 54h1M49 54h2M52 54h1M7 55h1M10 55h2M13 55h1M15 55h1M17 55h1M19 55h1M21 55h1M23 55h3M28 55h2M31 55h1M34 55h1M38 55h1M41 55h1M44 55h2M50 55h4M9 56h1M11 56h1M14 56h3M18 56h3M25 56h3M31 56h1M33 56h2M37 56h1M39 56h3M43 56h1M45 56h7M10 57h1M14 57h1M16 57h3M24 57h2M30 57h1M32 57h2M35 57h2M38 57h1M40 57h1M43 57h1M45 57h1M50 57h1M12 58h1M16 58h2M23 58h1M27 58h2M31 58h1M34 58h1M37 58h1M41 58h4M49 58h1M11 59h1M13 59h2M24 59h1M26 59h4M31 59h1M33 59h4M38 59h3M25 60h1M27 60h1M29 60h3M33 60h1M35 60h1M37 60h3M45 60h1M30 61h6M42 61h1M27 62h1" />
<path stroke="#808080" d="M0 0h1M35 1h1M30 3h1M31 4h1M30 5h1M32 5h2M36 5h1M34 6h1M37 6h1M38 7h1M36 8h1M35 9h1M38 10h1M36 11h1M38 11h1M36 12h1M38 12h1M36 13h2M37 14h1M36 15h2M36 16h2M39 16h1M35 17h2M38 18h1M33 19h1M38 19h1M40 19h1M38 20h1M34 21h1M38 21h1M40 21h1M38 22h1M34 23h1M38 24h1M38 26h1M38 27h1M40 27h1M38 29h1M40 29h1M32 31h1M38 31h1M27 33h1M30 33h1M32 33h2M38 33h1M40 33h1M23 34h1M32 34h1M40 34h1M46 34h1M24 35h1M26 35h1M28 35h1M38 35h1M45 35h1M47 35h1M21 36h1M26 36h1M34 36h1M36 36h1M44 36h1M47 36h1M49 36h1M20 37h2M24 37h1M29 37h1M32 37h1M37 37h2M42 37h2M45 37h1M50 37h1M19 38h1M21 38h1M23 38h2M33 38h1M36 38h1M45 38h1M49 38h2M17 39h3M27 39h1M29 39h2M38 39h1M41 39h1M45 39h1M16 40h2M19 40h3M25 40h2M28 40h1M32 40h1M38 40h1M40 40h1M42 40h1M48 40h1M52 40h1M15 41h1M19 41h1M21 41h2M25 41h2M45 41h2M52 41h2M14 42h2M17 42h2M21 42h1M23 42h2M26 42h1M28 42h1M31 42h4M37 42h2M42 42h2M55 42h1M13 43h4M18 43h1M20 43h1M22 43h1M25 43h1M27 43h1M29 43h1M42 43h2M49 43h1M51 43h1M53 43h1M11 44h3M17 44h1M21 44h2M36 44h1M39 44h1M53 44h3M10 45h2M13 45h3M21 45h1M23 45h1M30 45h1M35 45h1M40 45h1M53 45h1M56 45h2M9 46h3M17 46h1M20 46h1M25 46h1M30 46h1M32 46h1M34 46h1M40 46h1M46 46h1M54 46h1M57 46h1M8 47h3M12 47h2M15 47h1M17 47h2M23 47h2M29 47h1M32 47h1M37 47h1M43 47h1M45 47h2M51 47h1M7 48h2M11 48h1M13 48h1M16 48h1M18 48h3M22 48h5M28 48h3M32 48h1M34 48h1M42 48h2M49 48h2M57 48h1M7 49h1M10 49h2M15 49h1M17 49h1M19 49h2M25 49h1M27 49h1M29 49h1M31 49h2M34 49h1M40 49h1M7 50h1M9 50h1M13 50h2M16 50h3M20 50h1M22 50h2M25 50h1M27 50h1M30 50h1M33 50h1M39 50h1M41 50h1M48 50h1M50 50h2M56 50h2M6 51h1M9 51h1M11 51h2M19 51h1M21 51h1M24 51h1M27 51h1M29 51h1M40 51h1M47 51h1M52 51h1M54 51h2M6 52h1M8 52h1M13 52h1M15 52h1M18 52h1M20 52h1M23 52h1M26 52h1M28 52h2M34 52h2M38 52h1M40 52h2M43 52h2M51 52h1M54 52h1M56 52h1M7 53h2M10 53h1M12 53h1M14 53h3M18 53h2M23 53h1M25 53h2M37 53h1M41 53h1M46 53h1M50 53h1M53 53h1M55 53h1M12 54h2M17 54h1M20 54h3M27 54h1M35 54h1M38 54h3M42 54h1M44 54h2M51 54h1M53 54h2M12 55h1M14 55h1M16 55h1M18 55h1M20 55h1M22 55h1M32 55h2M35 55h1M37 55h1M39 55h1M42 55h2M46 55h4M12 56h1M17 56h1M21 56h3M30 56h1M32 56h1M35 56h2M42 56h1M44 56h1M52 56h1M13 57h1M15 57h1M19 57h4M28 57h2M31 57h1M34 57h1M37 57h1M39 57h1M41 57h2M44 57h1M46 57h4M51 57h1M14 58h2M18 58h3M26 58h1M29 58h2M32 58h2M35 58h2M38 58h1M40 58h1M45 58h2M48 58h1M16 59h3M25 59h1M30 59h1M32 59h1M37 59h1M41 59h4M46 59h1M16 60h1M23 60h2M26 60h1M28 60h1M32 60h1M34 60h1M36 60h1M40 60h2M44 60h1M19 61h1M23 61h1M26 61h1M37 61h1M41 61h1M38 62h1" />
<path stroke="#c0c0c0" d="M0 0h1M34 2h1M35 3h1M37 5h1M38 6h1M32 7h1M32 8h1M37 9h1M36 10h2M37 11h1M37 12h1M33 13h1M38 13h1M38 14h1M38 15h1M38 16h1M38 17h2M39 18h1M39 19h1M39 20h1M39 21h1M39 22h1M39 23h2M39 24h2M39 25h2M39 26h2M39 27h1M39 28h2M39 29h1M39 30h2M28 31h2M31 31h1M39 31h2M26 32h3M30 32h2M39 32h2M44 32h1M25 33h2M28 33h2M39 33h1M44 33h2M24 34h6M31 34h1M33 34h1M39 34h1M44 34h2M23 35h1M25 35h1M27 35h1M30 35h2M33 35h1M35 35h1M39 35h2M44 35h1M46 35h1M23 36h2M27 36h1M31 36h2M35 36h1M37 36h1M46 36h1M23 37h1M25 37h4M33 37h4M44 37h1M20 38h1M26 38h2M29 38h1M34 38h2M38 38h4M46 38h1M20 39h2M24 39h1M26 39h1M28 39h1M31 39h1M36 39h2M39 39h2M42 39h3M48 39h1M18 40h1M27 40h1M29 40h1M31 40h1M41 40h1M47 40h1M16 41h1M18 41h1M27 41h1M30 41h1M33 41h2M50 41h1M20 42h1M29 42h1M35 42h2M44 42h2M49 42h2M53 42h1M31 43h1M33 43h1M35 43h1M37 43h1M39 43h2M52 43h1M18 44h1M24 44h1M32 44h1M34 44h1M47 44h2M50 44h3M27 45h1M37 45h1M47 45h1M49 45h2M54 45h1M23 46h1M38 46h1M55 46h1M48 47h1M52 47h3M45 48h3M53 48h1M56 48h1M43 49h2M48 51h2M47 52h2M24 56h1M23 57h1M21 58h2M47 58h1M19 59h3M45 59h1M17 60h4M42 60h2M16 61h3M25 61h1M27 61h1M29 61h1M36 61h1M39 61h2M16 62h1M28 62h10" />
<path stroke="#ffff00" d="M0 0h1M35 2h1M36 3h1M33 7h1M34 13h1M33 14h2M27 44h1M51 45h1M49 46h1M52 48h1M45 49h1M43 50h2M46 52h1M47 53h1" />
<path stroke="#808000" d="M0 0h1M37 3h1M35 4h2M33 9h2M35 14h1M34 15h1M28 44h1M50 46h1M54 48h1M46 49h1M52 49h2M45 50h1M49 52h1M48 53h1M40 55h1M38 56h1" />
<path stroke="#008000" d="M0 0h1M32 11h2M29 13h1M32 13h1M40 15h1M32 17h1M34 20h1M35 21h1M33 22h2M35 26h1M34 27h1M42 30h1M35 33h1M36 41h1M29 45h1M40 48h1M5 51h1M13 51h1M17 51h1M34 51h2M37 51h1M27 52h1M33 52h1M8 54h2M25 54h1M29 54h1M33 54h1M36 55h1M13 56h1M12 57h1M39 58h1M15 59h1M47 59h1M14 60h1M22 60h1" />
<path stroke="#800080" d="M0 0h1M34 12h1M14 61h1" />
<path stroke="#00ffff" d="M0 0h1M28 30h5M26 31h2M44 31h1M25 32h1M29 32h1M45 32h1M24 33h1M46 33h1M32 35h1M34 35h1M25 36h1M28 36h1M33 36h1M25 38h1M28 38h1M37 38h1M31 41h1M51 41h1M51 42h2M54 42h1M41 43h1M54 43h2M19 44h1M56 44h1M33 45h1M56 46h1M30 47h1M50 49h1M30 53h1M28 54h1M26 55h1M28 61h1M38 61h1" />
</svg>