<svg xmlns="http://www.w3.org/2000/svg" width="32" height="32" shape-rendering="crispEdges" viewBox="0 -0.5 32 32"><path stroke="gray" d="M17 0h5m-6 1h1M8 2h6m2 0h1M6 3h2m6 0h3m3 0h2M4 4h2m10 0h1m3 0h2M3 5h1m11 0h2m3 0h2M2 6h1m12 0h2m3 0h2M2 7h1m12 0h2m3 0h2M1 8h1m13 0h2m3 0h2M1 9h1m3 0h2m8 0h2m3 0h2M1 10h1m2 0h1m2 0h1m6 0h1m1 0h1m3 0h2M0 11h1m2 0h1m2 0h1m6 0h1m2 0h1m3 0h2M0 12h1m3 0h1m6 0h2m3 0h1m3 0h2M0 13h1m4 0h1m3 0h2m5 0h1m3 0h2M0 14h1m6 0h2m7 0h1m3 0h2M0 15h1m4 0h1m16 0h1M0 16h1m3 0h1m9 0h4m2 0h1m1 0h4M1 17h1m2 0h1m7 0h2m2 0h2m2 0h1m5 0h2M1 18h1m2 0h1m5 0h2m3 0h1m1 0h1m2 0h1m1 0h1m5 0h3M1 19h1m2 0h1m3 0h2m5 0h1m5 0h2m7 0h1M7 20h1m8 0h1m4 0h1m8 0h1M7 21h1m9 0h3m4 0h1m2 0h1m1 0h2M7 22h1m19 0h4M7 23h1m17 0h6M7 24h1m15 0h8M7 25h3m11 0h9m-20 1h3m7 0h8m-15 1h3m4 0h6m-10 1h3m1 0h4m-5 1h3"/><path stroke="silver" d="M17 1h5m-2 1h2m-4 1h2M8 4h6m1 0h1m2 0h2M6 5h4m2 0h3m3 0h2M5 6h5m2 0h1m5 0h2M4 7h9m5 0h2M4 8h6m2 0h3m3 0h2M3 9h2m2 0h3m2 0h3m3 0h2M3 10h1m1 0h1m2 0h6m4 0h2M2 11h1m1 0h1m3 0h5m5 0h2M2 12h2m1 0h1m1 0h4m7 0h2M2 13h3m1 0h3m9 0h2M2 14h5m11 0h2M2 15h3m-3 1h2m15 0h1M3 17h1m10 0h2m3 0h1m3 0h3M3 18h1m8 0h3m4 0h1m4 0h4M3 19h1m6 0h5m9 0h1m2 0h3M9 20h7m3 0h2m2 0h1m1 0h1m2 0h2m-18 1h5m5 0h2m4 0h1M8 22h2m4 0h13M8 23h5m4 0h8M8 24h8m4 0h3m-13 1h9m-6 1h7m-4 1h4m-1 1h1"/><path stroke="#000" d="M22 1h1m-1 1h1m-1 1h1m-1 1h1m-1 1h1m-1 1h1m-1 1h1m-1 1h1m-1 1h1M6 10h1m8 0h1m6 0h1M7 11h1m6 0h1m7 0h1M6 12h1m6 0h1m8 0h1m-12 1h2m9 0h1M9 14h2m11 0h1M6 15h3m8 0h5M5 16h1m15 0h1M5 17h1m15 0h2M5 18h1m15 0h1m1 0h1M5 19h1m12 0h3m2 0h1m7 0h1M2 20h3m17 0h1m4 0h1m3 0h1m-12 1h2m9 0h1m-1 1h1m-1 1h1m-1 1h1m-2 1h1M8 26h2m18 0h2m-20 1h3m13 0h2m-15 1h3m8 0h2m-10 1h3m3 0h2m-5 1h3"/><path stroke="#fff" d="M17 2h3M8 3h6m3 0h1M6 4h2m6 0h1m2 0h1M4 5h2m11 0h1M3 6h2m12 0h1M3 7h1m13 0h1M2 8h2m13 0h1M2 9h1m14 0h1M2 10h1m14 0h1M1 11h1m3 0h1m11 0h1M1 12h1m15 0h1M1 13h1m15 0h1M1 14h1m15 0h1M1 15h1m-1 1h1m16 0h1M2 17h1m15 0h1M2 18h1m13 0h1m1 0h1M2 19h1m13 0h2M8 20h1m8 0h2M8 21h4m-2 1h4m-1 1h4m-1 1h4m-1 1h2"/><path stroke="red" d="M10 5h1m15 15h1"/><path stroke="maroon" d="M11 5h1m-2 1h2m13 13h2m-3 1h1m0 1h2"/><path stroke="#00f" d="M13 6h1"/><path stroke="navy" d="M14 6h1m-2 1h2"/><path stroke="#0f0" d="M10 8h1"/><path stroke="green" d="M11 8h1m-2 1h2"/></svg>