<svg xmlns="http://www.w3.org/2000/svg" width="32" height="32" shape-rendering="crispEdges" viewBox="0 -0.5 32 32"><path stroke="gray" d="M13 6h6m-8 1h10M9 8h4m6 0h3M8 9h3m10 0h1M8 10h2m12 0h1M7 11h2m14 0h1M7 12h2m14 0h1M6 13h2m16 0h1M6 14h2m16 0h1M6 15h2m16 0h1M6 16h2m16 0h1M6 17h2m16 0h1M6 18h2m16 0h1M7 19h2m14 0h1M7 20h2m14 0h1M8 21h2m12 0h1m-13 1h1m10 0h1m-11 1h2m6 0h2m-8 1h6"/><path stroke="red" d="M13 8h6m-8 1h10m-11 1h12M9 11h3m1 0h4m3 0h3M9 12h2m2 0h4m1 0h5M8 13h2m1 0h1m1 0h3m1 0h7M8 14h4m1 0h3m3 0h5M8 15h4m1 0h3m1 0h2m1 0h4M8 16h4m1 0h7m1 0h3M8 17h4m1 0h7m1 0h2M8 18h4m1 0h3m1 0h2m1 0h3M9 19h3m1 0h4m2 0h3M9 20h13m-12 1h11m-10 1h9m-7 1h4"/><path stroke="silver" d="M22 8h1m-1 1h2m-1 1h1M8 22h2m-1 1h1"/><path stroke="#fff" d="M12 11h1m4 0h3m4 0h1m-14 1h2m4 0h1m6 0h1m-15 1h1m1 0h1m3 0h1m8 0h1m-14 1h1m3 0h3m6 0h1m-14 1h1m3 0h1m2 0h1m5 0h1m-14 1h1m7 0h1m4 0h1m-14 1h1m7 0h1m4 0h1m-14 1h1m3 0h1m2 0h1m5 0h1m-14 1h1m4 0h2m5 0h1m-1 1h1m-2 1h1m-2 1h2m-14 1h1m10 0h2m-12 1h2m6 0h2m-8 1h6"/><path stroke="maroon" d="M23 17h1m-1 1h1m-2 1h1m-1 1h1m-2 1h1m-2 1h1m-4 1h2"/></svg>