<svg xmlns="http://www.w3.org/2000/svg" width="16" height="16" shape-rendering="crispEdges" viewBox="0 -0.5 16 16"><path stroke="silver" d="M6 0h1m2 0h1m2 4h1M8 7h1"/><path stroke="teal" d="M7 0h2M5 1h1m3 0h1M4 2h1m5 0h1M3 3h1M3 4h1m5 0h1M3 5h1m6 0h1M6 8h3"/><path stroke="olive" d="M10 0h2m0 1h1m0 1h1m-1 1h1m-1 1h1m-2 1h1m-1 1h1M3 7h1m7 0h2M3 8h1m6 0h2M4 9h1m1 0h1m2 0h2m-6 1h4m-2 1h1m-2 1h3m-5 1h2m2 0h2m-7 1h1m2 0h6"/><path stroke="#0ff" d="M6 1h1M5 2h1m1 0h2M8 3h1M5 4h1M5 5h2m1 0h1M4 6h2m1 0h1M6 7h2"/><path stroke="#f0f" d="M7 1h2M6 2h1m2 0h1M5 3h1m4 0h1M4 4h1m1 0h1m1 0h1M7 5h1M3 6h1m2 0h1m1 0h1m0 1h1"/><path stroke="#000" d="M10 1h1m0 1h1m-1 1h1m-1 1h1m-1 1h1m1 0h1m-3 1h1m1 0h1M4 7h1m5 0h1m2 0h1M5 8h1m3 0h1m2 0h1M7 9h2m2 0h1m-3 1h2m-3 1h1m0 1h1m0 1h2m0 1h1m-9 1h8"/><path stroke="#ff0" d="M11 1h1m0 1h1m-1 1h1M4 8h1m0 1h1m0 4h2m-3 1h1"/><path stroke="#0f0" d="M4 3h1"/><path stroke="#fff" d="M6 3h2M7 4h1M4 14h1"/><path stroke="purple" d="M9 3h1M9 5h1"/><path stroke="gray" d="M10 4h1M4 5h1m5 1h1"/><path stroke="green" d="M9 6h1M5 7h1"/></svg>