<svg xmlns="http://www.w3.org/2000/svg" width="32" height="32" shape-rendering="crispEdges" viewBox="0 -0.5 32 32"><path stroke="#000" d="M4 0h22M4 1h1m20 0h1M4 2h22M4 3h1m20 0h1M4 4h1m20 0h1M4 5h1m20 0h1M4 6h1m20 0h1M4 7h1m9 0h16M4 8h1m9 0h1m14 0h1M4 9h1m9 0h16M4 10h1m9 0h1m14 0h1M4 11h1m9 0h1m9 0h4m1 0h1M0 12h23m6 0h1M0 13h1m21 0h1m1 0h4m1 0h1M0 14h23m6 0h1M0 15h1m21 0h1m1 0h4m1 0h1M0 16h1m3 0h3m3 0h3m5 0h1m3 0h1m6 0h1M0 17h1m3 0h1m1 0h1m3 0h1m1 0h1m5 0h1m3 0h1m1 0h4m1 0h1M0 18h1m2 0h4m2 0h4m2 0h1m2 0h2m2 0h1m6 0h1M0 19h1m3 0h3m3 0h3m2 0h5m2 0h1m1 0h4m1 0h1M0 20h1m21 0h1m6 0h1M0 21h1m2 0h4m2 0h5m2 0h4m2 0h1m1 0h4m1 0h1M0 22h1m21 0h1m6 0h1M0 23h1m5 0h1m2 0h5m2 0h4m2 0h8M0 24h1m3 0h1m4 0h2m1 0h1m3 0h1m2 0h1m2 0h1M0 25h1m5 0h1m3 0h2m4 0h4m2 0h1M0 26h1m21 0h1M0 27h1m2 0h4m2 0h5m2 0h4m2 0h1M0 28h1m21 0h1M0 29h23"/><path stroke="#0ff" d="M5 1h20M15 8h14M1 13h21m-5 11h1"/><path stroke="gray" d="M26 1h1m-1 1h1m-1 1h1m-1 1h1m-1 1h1m-1 1h1m3 3h1m-1 1h1m-1 1h1m-1 1h1m-1 1h1m-1 1h1m-1 1h1m-15 1h2m12 0h1m-15 1h1m13 0h1m-15 1h2m12 0h1M3 19h1m26 0h1m-1 1h1m-1 1h1m-1 1h1m-1 1h1m-8 1h8m-8 1h1m-1 1h1m-1 1h1m-1 1h1m-1 1h1M1 30h23"/><path stroke="navy" d="M5 3h1m1 0h1m1 0h1m1 0h1m1 0h1m1 0h1m1 0h1m1 0h1m1 0h1m1 0h1M6 4h1m3 0h1m1 0h1m1 0h1m1 0h1m1 0h1m1 0h1m1 0h1m1 0h1M5 5h1m1 0h1m5 0h1m1 0h1m1 0h1m1 0h1m1 0h1m1 0h1M8 6h1m1 0h1m1 0h1m1 0h1m1 0h1m1 0h1m1 0h1m1 0h1m1 0h1M5 7h1m1 0h1m5 0h1M6 8h1m3 0h1m1 0h1M5 9h1m1 0h1m1 0h1m1 0h1m1 0h1m-8 1h1m1 0h1m1 0h1m1 0h1m-8 1h1m1 0h1m1 0h1m1 0h1m1 0h1"/><path stroke="#00f" d="M6 3h1m1 0h1m1 0h1m1 0h1m1 0h1m1 0h1m1 0h1m1 0h1m1 0h1m1 0h1M5 4h1m3 0h1m1 0h1m1 0h1m1 0h1m1 0h1m1 0h1m1 0h1m1 0h1M8 5h1m1 0h1m1 0h1m1 0h1m1 0h1m1 0h1m1 0h1m1 0h1m1 0h1M5 6h1m1 0h1m1 0h1m1 0h1m1 0h1m1 0h1m1 0h1m1 0h1m1 0h1m1 0h1M8 7h1m1 0h1m1 0h1M5 8h1m3 0h1m1 0h1m1 0h1M6 9h1m1 0h1m1 0h1m1 0h1m-8 1h1m1 0h1m1 0h1m1 0h1m1 0h1m-8 1h1m1 0h1m1 0h1m1 0h1m4 6h1m0 7h1"/><path stroke="#fff" d="M7 4h2M6 5h1m2 0h1m1 0h1M6 6h1M6 7h1m2 0h1m1 0h1M7 8h2m6 2h14m-14 1h9m4 0h1m-6 1h6m-1 1h1m-5 1h5M1 15h21m6 0h1M1 16h3m3 0h3m3 0h3m3 0h3m2 0h5M1 17h3m1 0h1m1 0h3m3 0h3m3 0h3m6 0h1M1 18h2m4 0h2m4 0h2m5 0h2m2 0h5M1 19h2m4 0h3m3 0h2m5 0h2m6 0h1M1 20h21m2 0h5M1 21h2m4 0h2m5 0h2m4 0h2m6 0h1M1 22h21m2 0h5M1 23h4m2 0h2m5 0h2m4 0h2M1 24h3m1 0h1m1 0h2m4 0h3m4 0h2M1 25h2m4 0h3m2 0h4m4 0h2M1 26h21M1 27h2m4 0h2m5 0h2m4 0h2M1 28h21"/><path stroke="silver" d="M23 13h1m-1 1h1m-1 1h1m-1 1h1m-1 1h1m-1 1h1m-1 1h1m-1 1h1m-1 1h1m-1 1h1"/><path stroke="teal" d="M11 17h1"/><path stroke="purple" d="M5 23h1m0 1h1m-4 1h3"/><path stroke="#ff0" d="M11 24h1"/></svg>