<svg xmlns="http://www.w3.org/2000/svg" viewBox="0 -0.5 32 32" shape-rendering="crispEdges">
<path stroke="#000000" d="M0 0h1M4 0h22M4 1h1M25 1h1M4 2h22M4 3h1M25 3h1M4 4h1M25 4h1M4 5h1M25 5h1M4 6h1M25 6h1M4 7h1M14 7h16M4 8h1M14 8h1M29 8h1M4 9h1M14 9h16M4 10h1M14 10h1M29 10h1M4 11h1M14 11h1M24 11h4M29 11h1M0 12h23M29 12h1M0 13h1M22 13h1M24 13h4M29 13h1M0 14h23M29 14h1M0 15h1M22 15h1M24 15h4M29 15h1M0 16h1M4 16h3M10 16h3M18 16h1M22 16h1M29 16h1M0 17h1M4 17h1M6 17h1M10 17h1M12 17h1M18 17h1M22 17h1M24 17h4M29 17h1M0 18h1M3 18h4M9 18h4M15 18h1M18 18h2M22 18h1M29 18h1M0 19h1M4 19h3M10 19h3M15 19h5M22 19h1M24 19h4M29 19h1M0 20h1M22 20h1M29 20h1M0 21h1M3 21h4M9 21h5M16 21h4M22 21h1M24 21h4M29 21h1M0 22h1M22 22h1M29 22h1M0 23h1M6 23h1M9 23h5M16 23h4M22 23h8M0 24h1M4 24h1M9 24h2M12 24h1M16 24h1M19 24h1M22 24h1M0 25h1M6 25h1M10 25h2M16 25h4M22 25h1M0 26h1M22 26h1M0 27h1M3 27h4M9 27h5M16 27h4M22 27h1M0 28h1M22 28h1M0 29h23" />
<path stroke="#00ffff" d="M0 0h1M5 1h20M15 8h14M1 13h21M17 24h1" />
<path stroke="#808080" d="M0 0h1M26 1h1M26 2h1M26 3h1M26 4h1M26 5h1M26 6h1M30 9h1M30 10h1M30 11h1M30 12h1M30 13h1M30 14h1M30 15h1M16 16h2M30 16h1M16 17h1M30 17h1M16 18h2M30 18h1M3 19h1M30 19h1M30 20h1M30 21h1M30 22h1M30 23h1M23 24h8M23 25h1M23 26h1M23 27h1M23 28h1M23 29h1M1 30h23" />
<path stroke="#000080" d="M0 0h1M5 3h1M7 3h1M9 3h1M11 3h1M13 3h1M15 3h1M17 3h1M19 3h1M21 3h1M23 3h1M6 4h1M10 4h1M12 4h1M14 4h1M16 4h1M18 4h1M20 4h1M22 4h1M24 4h1M5 5h1M7 5h1M13 5h1M15 5h1M17 5h1M19 5h1M21 5h1M23 5h1M8 6h1M10 6h1M12 6h1M14 6h1M16 6h1M18 6h1M20 6h1M22 6h1M24 6h1M5 7h1M7 7h1M13 7h1M6 8h1M10 8h1M12 8h1M5 9h1M7 9h1M9 9h1M11 9h1M13 9h1M6 10h1M8 10h1M10 10h1M12 10h1M5 11h1M7 11h1M9 11h1M11 11h1M13 11h1" />
<path stroke="#0000ff" d="M0 0h1M6 3h1M8 3h1M10 3h1M12 3h1M14 3h1M16 3h1M18 3h1M20 3h1M22 3h1M24 3h1M5 4h1M9 4h1M11 4h1M13 4h1M15 4h1M17 4h1M19 4h1M21 4h1M23 4h1M8 5h1M10 5h1M12 5h1M14 5h1M16 5h1M18 5h1M20 5h1M22 5h1M24 5h1M5 6h1M7 6h1M9 6h1M11 6h1M13 6h1M15 6h1M17 6h1M19 6h1M21 6h1M23 6h1M8 7h1M10 7h1M12 7h1M5 8h1M9 8h1M11 8h1M13 8h1M6 9h1M8 9h1M10 9h1M12 9h1M5 10h1M7 10h1M9 10h1M11 10h1M13 10h1M6 11h1M8 11h1M10 11h1M12 11h1M17 17h1M18 24h1" />
<path stroke="#ffffff" d="M0 0h1M7 4h2M6 5h1M9 5h1M11 5h1M6 6h1M6 7h1M9 7h1M11 7h1M7 8h2M15 10h14M15 11h9M28 11h1M23 12h6M28 13h1M24 14h5M1 15h21M28 15h1M1 16h3M7 16h3M13 16h3M19 16h3M24 16h5M1 17h3M5 17h1M7 17h3M13 17h3M19 17h3M28 17h1M1 18h2M7 18h2M13 18h2M20 18h2M24 18h5M1 19h2M7 19h3M13 19h2M20 19h2M28 19h1M1 20h21M24 20h5M1 21h2M7 21h2M14 21h2M20 21h2M28 21h1M1 22h21M24 22h5M1 23h4M7 23h2M14 23h2M20 23h2M1 24h3M5 24h1M7 24h2M13 24h3M20 24h2M1 25h2M7 25h3M12 25h4M20 25h2M1 26h21M1 27h2M7 27h2M14 27h2M20 27h2M1 28h21" />
<path stroke="#c0c0c0" d="M0 0h1M23 13h1M23 14h1M23 15h1M23 16h1M23 17h1M23 18h1M23 19h1M23 20h1M23 21h1M23 22h1" />
<path stroke="#008080" d="M0 0h1M11 17h1" />
<path stroke="#800080" d="M0 0h1M5 23h1M6 24h1M3 25h3" />
<path stroke="#ffff00" d="M0 0h1M11 24h1" />
</svg>