<svg xmlns="http://www.w3.org/2000/svg" viewBox="0 -0.5 32 32" shape-rendering="crispEdges">
<path stroke="#000000" d="M0 0h1M30 0h1M30 1h1M30 2h1M1 3h28M30 3h1M1 4h1M7 4h1M28 4h1M30 4h1M1 5h7M28 5h1M30 5h1M1 6h1M7 6h1M28 6h3M1 7h7M28 7h1M30 7h2M1 8h1M7 8h1M28 8h1M30 8h1M1 9h7M13 9h2M18 9h1M28 9h1M30 9h1M1 10h1M7 10h1M13 10h2M18 10h1M28 10h1M30 10h1M1 11h7M28 11h1M30 11h1M1 12h1M7 12h1M10 12h5M16 12h1M20 12h5M28 12h1M30 12h2M1 13h7M10 13h1M14 13h1M16 13h1M20 13h1M24 13h1M28 13h1M30 13h1M1 14h1M7 14h1M10 14h1M14 14h1M20 14h1M24 14h1M28 14h1M30 14h1M1 15h7M10 15h5M20 15h5M28 15h1M30 15h1M1 16h1M7 16h1M28 16h1M30 16h1M1 17h7M28 17h1M30 17h1M1 18h1M7 18h1M10 18h2M15 18h6M23 18h2M28 18h1M30 18h1M1 19h7M10 19h2M15 19h1M20 19h1M23 19h2M26 19h1M28 19h1M30 19h1M1 20h1M7 20h1M10 20h2M15 20h1M20 20h1M23 20h2M28 20h1M30 20h1M1 21h7M15 21h6M28 21h1M30 21h1M1 22h1M7 22h1M28 22h3M1 23h7M13 23h1M18 23h1M28 23h1M30 23h1M1 24h1M7 24h1M28 24h1M30 24h1M1 25h28M30 25h1M30 26h1M30 27h1M30 28h1" />
<path stroke="#808000" d="M0 0h1M2 4h5M2 6h5M2 8h5M2 10h5M2 12h5M2 14h5M2 16h5M2 18h5M2 20h5M2 22h5M2 24h5" />
<path stroke="#00ff00" d="M0 0h1M8 4h20M8 5h1M12 5h7M21 5h7M8 6h1M12 6h4M17 6h2M21 6h7M8 7h1M12 7h4M17 7h2M21 7h2M24 7h4M8 8h15M24 8h4M8 9h5M15 9h3M19 9h9M8 10h5M15 10h3M19 10h9M8 11h20M8 12h2M15 12h1M17 12h3M25 12h3M8 13h2M15 13h1M17 13h3M25 13h3M8 14h2M15 14h5M25 14h3M8 15h2M15 15h5M25 15h3M8 16h20M8 17h20M8 18h2M12 18h3M21 18h2M25 18h3M8 19h2M12 19h3M21 19h2M25 19h1M27 19h1M8 20h2M12 20h3M21 20h2M25 20h3M8 21h7M21 21h7M8 22h20M8 23h5M14 23h4M19 23h9M8 24h20" />
<path stroke="#ff0000" d="M0 0h1M9 5h3M9 6h3M9 7h3" />
<path stroke="#808080" d="M0 0h1M19 5h2M16 6h1M19 6h2M16 7h1M19 7h2M23 7h1M29 7h1M23 8h1M29 8h1M31 8h1M29 9h1M31 9h1M29 10h1M31 10h1M29 11h1M31 11h1M29 12h1M11 13h3M21 13h3M29 13h1M11 14h3M21 14h3M29 14h1M29 15h1M29 16h1M29 17h1M29 18h1M16 19h4M29 19h1M16 20h4M29 20h1M29 21h1" />
</svg>