<svg xmlns="http://www.w3.org/2000/svg" viewBox="0 -0.5 16 16" shape-rendering="crispEdges">
<path stroke="#868686" d="M0 0h1M3 0h9M3 1h1M3 2h1M3 3h1" />
<path stroke="#ffffff" d="M0 0h1M4 1h7M4 2h1M12 2h1M4 3h1M4 12h1" />
<path stroke="#9e9e9e" d="M0 0h1M11 1h1M11 2h1M12 4h1M13 5h1" />
<path stroke="#565656" d="M0 0h1M12 1h1M13 2h1M11 3h1M14 4h1M14 5h1M14 6h1M14 7h1M14 8h1M14 9h1M14 10h1M14 11h1M14 12h1M14 13h1M4 14h11" />
<path stroke="#fffbf0" d="M0 0h1M5 2h6M5 3h2M9 3h2M8 4h1M10 5h1M5 6h2M5 8h2M8 8h1" />
<path stroke="#007ab9" d="M0 0h1M7 3h2M4 4h4M8 5h1M4 6h1M9 6h1M4 7h6M4 8h1" />
<path stroke="#323232" d="M0 0h1M12 3h3M2 10h1" />
<path stroke="#000080" d="M0 0h1M3 4h1M2 5h1M1 6h1" />
<path stroke="#2557ff" d="M0 0h1M9 4h1M3 7h1M2 8h2M3 9h2M8 9h1M4 10h4" />
<path stroke="#f2f2f2" d="M0 0h1M10 4h1M9 5h1M10 6h1M7 8h1" />
<path stroke="#cecece" d="M0 0h1M11 4h1M12 5h1M13 6h1M13 7h1M13 8h1M13 9h1M13 10h1M13 11h1M13 12h1M4 13h10" />
<path stroke="#7a7a7a" d="M0 0h1M13 4h1M1 7h1M0 8h1M3 12h1M3 13h1M3 14h1" />
<path stroke="#929292" d="M0 0h1M3 5h1M2 6h1M1 9h1" />
<path stroke="#a6caf0" d="M0 0h1M4 5h1" />
<path stroke="#2525ff" d="M0 0h1M5 5h2M7 6h1M7 9h1M1 10h1M3 10h1M1 11h1M2 12h1" />
<path stroke="#6bffff" d="M0 0h1M7 5h1" />
<path stroke="#e6e6e6" d="M0 0h1M11 5h1M11 6h2M10 7h3M9 8h4M10 9h3M9 10h4M8 11h5M5 12h8" />
<path stroke="#ffff8e" d="M0 0h1M3 6h1" />
<path stroke="#00aaff" d="M0 0h1M8 6h1" />
<path stroke="#ffd48e" d="M0 0h1M2 7h1" />
<path stroke="#ff8f6b" d="M0 0h1M1 8h1" />
<path stroke="#626262" d="M0 0h1M0 9h1" />
<path stroke="#003196" d="M0 0h1M2 9h1" />
<path stroke="#c0c0c0" d="M0 0h1M5 9h2" />
<path stroke="#006296" d="M0 0h1M9 9h1M8 10h1M5 11h3" />
<path stroke="#808000" d="M0 0h1M0 10h1" />
<path stroke="#000000" d="M0 0h1M3 11h2" />
</svg>