<svg xmlns="http://www.w3.org/2000/svg" width="16" height="16" shape-rendering="crispEdges" viewBox="0 -0.5 16 16"><path stroke="gray" d="M1 0h10M1 1h1m9 0h1M1 2h1m10 0h1M1 3h1M1 4h1m5 0h1M1 5h1M1 6h1M1 7h1m2 0h1M1 8h1M1 9h1m-1 1h1m-1 1h1m-1 1h1m-1 1h1m-1 1h1"/><path stroke="#fff" d="M2 1h8M2 2h8m1 0h1M2 3h8M2 4h4m2 0h4M2 5h3m4 0h3M2 6h3m4 0h3M2 7h2m6 0h2M2 8h1m3 0h2m3 0h1M2 9h1m8 0h1M2 11h10M2 12h10M2 13h10"/><path stroke="silver" d="M10 1h1m-1 1h1m1 2h1M5 5h1m2 0h1m3 0h1m-1 1h1M9 7h1m2 0h1M3 8h1m6 0h1m1 0h1m-1 1h1M2 10h1m8 0h2m-1 1h1m-1 1h1m-1 1h1M2 14h11"/><path stroke="#000" d="M10 3h4m-1 1h1m-1 1h1m-1 1h1m-1 1h1m-1 1h1m-1 1h1m-1 1h1m-1 1h1m-1 1h1m-1 1h1m-1 1h1M1 15h13"/><path stroke="#00f" d="M6 4h1M6 5h2M6 6h1"/><path stroke="#f0f" d="M5 6h1M5 7h2M5 8h1"/><path stroke="teal" d="M7 6h1"/><path stroke="#0ff" d="M8 6h1M7 7h2M8 8h1"/><path stroke="red" d="M4 8h1M3 9h2m-2 1h2"/><path stroke="#0f0" d="M9 8h1M8 9h3m-3 1h3"/><path stroke="olive" d="M5 9h1"/><path stroke="#ff0" d="M6 9h2m-3 1h3"/></svg>