<svg xmlns="http://www.w3.org/2000/svg" width="16" height="16" shape-rendering="crispEdges" viewBox="0 -0.5 16 16"><path stroke="gray" d="M1 0h10M1 1h1m8 0h2M1 2h1m8 0h1m1 0h1M1 3h1M1 4h1m5 0h1m4 0h1M1 5h1m3 0h1m2 0h1m3 0h1M1 6h1m10 0h1M1 7h1m2 0h1m4 0h1m2 0h1M1 8h1m1 0h1m6 0h1m1 0h1M1 9h1m10 0h1M1 10h2m8 0h2M1 11h1m10 0h1M1 12h1m10 0h1M1 13h1m10 0h1M1 14h12"/><path stroke="silver" d="M2 1h8M2 2h8M2 3h8M2 4h4m2 0h4M2 5h3m4 0h3M2 6h3m4 0h3M2 7h2m6 0h2M2 8h1m3 0h2m3 0h1M2 9h1m8 0h1M2 11h10M2 12h10M2 13h10"/><path stroke="#fff" d="M11 2h1"/><path stroke="#000" d="M10 3h4m-1 1h1m-1 1h1m-1 1h1m-1 1h1m-1 1h1m-1 1h1m-1 1h1m-1 1h1m-1 1h1m-1 1h1m-1 1h1M1 15h13"/><path stroke="#00f" d="M6 4h1M6 5h2M6 6h2"/><path stroke="purple" d="M5 6h1M5 7h2M5 8h1"/><path stroke="teal" d="M8 6h1M7 7h2M8 8h2"/><path stroke="red" d="M4 8h1M3 9h3m-3 1h2"/><path stroke="olive" d="M6 9h2m-3 1h4"/><path stroke="green" d="M8 9h3m-2 1h2"/></svg>