<svg xmlns="http://www.w3.org/2000/svg" width="32" height="32" shape-rendering="crispEdges" viewBox="0 -0.5 32 32"><path stroke="gray" d="M3 0h20M3 1h1m18 0h1M3 2h1m18 0h2M3 3h1m18 0h1m1 0h1M3 4h1m18 0h1m2 0h1M3 5h1m18 0h1m3 0h1M3 6h1m18 0h1M3 7h1M3 8h1M3 9h1m-1 1h1m-1 1h1m-1 1h1m-1 1h1m-1 1h1m-1 1h1m-1 1h1m-1 1h1m-1 1h1m-1 1h1m-1 1h1m-1 1h1m-1 1h1m-1 1h1m-1 1h1m-1 1h1m-1 1h1m-1 1h1m-1 1h1m-1 1h1m-1 1h1"/><path stroke="#fff" d="M4 1h18M4 2h18M4 3h18M4 4h18m1 0h1M4 5h18m1 0h2M4 6h18M4 7h23M4 8h23M4 9h11m2 0h10M4 10h10m4 0h9M4 11h10m4 0h9M4 12h9m6 0h8M4 13h9m6 0h8M4 14h8m8 0h7M4 15h7m10 0h6M4 16h7m10 0h6M4 17h6m12 0h5M4 18h5m6 0h2m6 0h4M4 19h5m6 0h2m6 0h4M4 20h4m16 0h3M4 21h3m18 0h2M4 22h3m18 0h2M4 23h2m20 0h1M4 24h23M4 25h23M4 26h23M4 27h23M4 28h23M4 29h23"/><path stroke="#000" d="M23 1h1m0 1h1m0 1h1m0 1h1m0 1h1m-5 1h6m-1 1h1m-1 1h1m-1 1h1m-1 1h1m-1 1h1m-1 1h1m-1 1h1m-1 1h1m-1 1h1m-1 1h1m-1 1h1m-1 1h1m-1 1h1m-1 1h1m-1 1h1m-1 1h1m-1 1h1m-1 1h1m-1 1h1m-1 1h1m-1 1h1m-1 1h1m-1 1h1m-1 1h1M3 31h26"/><path stroke="silver" d="M23 3h1m0 1h1m0 1h1m1 2h1m-1 1h1m-1 1h1m-14 1h1m2 0h1m9 0h1m-1 1h1m-15 1h1m4 0h1m8 0h1m-1 1h1m-1 1h1m-17 1h1m8 0h1m6 0h1m-1 1h1m-13 1h2m10 0h1M9 18h1m12 0h1m4 0h1m-14 1h1m2 0h1m9 0h1m-1 1h1M7 21h1m16 0h1m2 0h1m-1 1h1m-1 1h1m-1 1h1m-1 1h1m-1 1h1m-1 1h1m-1 1h1m-1 1h1M4 30h24"/><path stroke="#00f" d="M15 9h2m-2 1h2m-3 1h4m-4 1h4m-5 1h1m1 0h2m1 0h1m-5 1h1m2 0h1m-5 1h1m1 0h2m-3 1h1"/><path stroke="purple" d="M14 13h1m0 1h1"/><path stroke="teal" d="M17 13h1m-2 1h1m1 1h1m-2 1h1"/><path stroke="#f0f" d="M12 14h2m-2 1h1m1 0h1m-4 1h3m1 0h1m-6 1h1m1 0h3m-4 1h1m1 0h2m-5 1h1m1 0h1m-2 1h1"/><path stroke="#0ff" d="M18 14h2m-3 1h1m1 0h1m-4 1h1m1 0h3m-4 1h3m1 0h1m-5 1h2m1 0h1m-2 1h1m1 0h1m-4 1h1m1 0h1"/><path stroke="red" d="M11 17h1m-2 1h1m1 0h1m-4 1h1m1 0h1m1 0h1m-6 1h3m1 0h1m1 0h1m-7 1h4m1 0h1m-7 1h4m1 0h1m1 0h1m-9 1h6m1 0h1"/><path stroke="#0f0" d="M20 17h1m-2 1h1m1 0h1m-4 1h1m1 0h1m1 0h1m-6 1h1m1 0h1m1 0h3m-6 1h1m1 0h4m-7 1h1m1 0h6m-7 1h1m1 0h6"/><path stroke="olive" d="M13 20h1m-2 1h1m-2 1h1m0 1h1"/><path stroke="#ff0" d="M15 20h2m-3 1h4m1 0h1m-7 1h1m1 0h2m1 0h1m-5 1h4m1 0h1"/></svg>