<svg xmlns="http://www.w3.org/2000/svg" width="32" height="32" shape-rendering="crispEdges" viewBox="0 -0.5 32 32"><path stroke="gray" d="M5 0h5M3 1h2m5 0h2M2 2h1M1 3h1M1 4h1M0 5h1M0 6h1M0 7h1M0 8h1M0 9h1m-1 1h1m17 5h1m3 2h1m-2 1h1m-6 3h1m7 0h1m-7 1h1m-5 1h1m5 0h1m-5 1h1m13 0h1m-13 1h1m11 0h1"/><path stroke="silver" d="M5 1h1M4 2h1M3 3h1M2 4h1M1 5h1m1 0h1M1 7h1m1 0h1m1 0h1M2 8h1m1 0h1M2 9h1m2 1h1m10 5h1m-2 1h1m-2 1h1m6 0h1m-4 1h1m-4 1h1m-2 1h1m7 0h1m7 0h1m-18 1h1m15 0h1m-18 1h1m11 0h1m3 0h1m-18 1h1m11 0h1m4 0h1m-7 1h1m-13 1h1m10 0h1m6 0h1m-18 1h1m1 0h1m6 0h1m-9 1h1m1 0h1m4 0h1m-5 1h1m1 0h1m-2 1h1m1 0h1"/><path stroke="#fff" d="M6 1h1M3 2h1m1 0h1M2 3h1m0 1h1M2 5h1m1 0h1M1 6h3M2 7h1m1 0h1M3 8h1m1 0h1m9 6h1m-2 1h1m5 0h1m-8 1h1m4 0h1m2 0h2m1 1h1m-12 1h1m2 0h1m5 0h1m2 0h1m-9 1h1m0 1h2m7 0h1m1 0h1m-15 1h1m4 0h2m6 0h1m-13 1h2m4 0h1m4 0h1m-15 1h1m4 0h2m-10 1h2m2 0h2m10 0h1m-15 1h2m2 0h2m8 0h1m-13 1h2m0 1h2m0 1h1"/><path stroke="#00f" d="M7 1h1M6 2h1M6 4h3M5 5h2m1 0h2m3 0h1M4 6h1m2 0h1m2 0h3M9 7h1m1 0h2m-3 1h2M3 9h1m7 0h2M2 10h3m5 0h2M1 11h1m1 0h3m3 0h1m-8 1h5m1 0h1m-6 1h2m2 0h1m1 0h1"/><path stroke="teal" d="M8 1h2M4 3h1m5 1h1M7 5h1m2 0h1m2 1h1M8 7h1m1 0h1M1 8h1M1 9h1m2 0h2m4 0h1m-1 3h1"/><path stroke="green" d="M7 2h5M5 3h8M4 4h2m3 0h1m1 0h2m-2 1h2M5 6h2m1 0h2M6 7h2M6 8h4M6 9h4m-9 1h1m4 0h3m-7 1h1m3 0h3m-2 1h1m3 0h1"/><path stroke="navy" d="M12 2h1m0 5h1m-2 1h2m-1 1h1m-5 1h1m2 0h2m-4 1h3M1 12h1m7 0h1m2 0h1M2 13h1m2 0h2m1 0h1m1 0h2m-9 1h7"/><path stroke="#000" d="M13 3h1m-1 1h1m0 1h1m-1 1h1m-1 1h1m2 0h1m1 0h1m1 0h1m1 0h1m1 0h1m1 0h1m1 0h1M14 8h1m-1 1h1m14 0h1m-16 1h1m-2 1h1m15 0h1m-17 1h1m-2 1h1m16 0h1m-20 1h2m-7 1h5m9 0h1m9 0h1m-13 1h1m2 0h1m-5 1h2m2 0h1m2 0h1m5 0h1m-15 1h1m4 0h1m3 0h1m-12 1h2m6 0h1m2 0h1m-8 1h1m6 0h1m-6 1h1m5 0h1m5 0h1m-17 1h1m5 0h1m3 0h1m5 0h1m-15 1h1m7 0h2m3 0h2m-19 1h1m5 0h1m5 0h1m1 0h3m1 0h1m-17 1h1m9 0h1m5 0h1m-15 1h1m8 0h1m3 0h1m-21 1h2m14 0h4m-18 1h2m10 0h2m-12 1h2m6 0h2m-8 1h2m2 0h2m-4 1h2"/><path stroke="#0ff" d="M16 6h1m1 0h1m1 0h1m1 0h1m1 0h1m1 0h1m1 0h1m-1 2h1m-1 2h1m-1 2h1m-1 2h1m-1 2h1"/><path stroke="olive" d="M15 13h6m-7 1h1m6 0h2m-10 1h1m3 0h1m5 0h2m-13 1h1m3 0h1m2 0h1m5 0h2m-15 1h2m1 0h1m3 0h1m7 0h2m-17 1h1m1 0h1m2 0h1m1 0h1m3 0h1m5 0h1m-10 1h1m2 0h1m1 0h1m4 0h1m-18 1h1m2 0h1m6 0h1m1 0h2m4 0h1m-20 1h1m5 0h1m7 0h1m3 0h1m-20 1h1m2 0h1m5 0h1m5 0h1m2 0h2m-21 1h1m5 0h1m7 0h1m4 0h1M9 24h1m2 0h1m5 0h1m1 0h1m2 0h2M9 25h1m4 0h1m4 0h1m2 0h3m4 0h1M9 26h1m6 0h1m1 0h1m2 0h5m2 0h2m-10 1h6m-7 1h5m-5 1h3m-3 1h1"/><path stroke="#ff0" d="M16 14h5m-6 1h1m5 0h2m-9 1h1m8 0h2m-7 1h1m6 0h2m-1 1h3m-13 1h1m1 0h2m2 0h1m3 0h4m-15 1h1m4 0h2m6 0h1m-15 1h1m2 0h1m4 0h2m3 0h1m-15 1h1m5 0h1m3 0h1m-12 1h1m2 0h1m5 0h2m4 0h1m-11 1h1m3 0h1m-11 1h1m8 0h1m6 0h1m-18 1h1m1 0h1m6 0h1m7 0h1m-15 1h1m1 0h1m2 0h1m-5 1h1m1 0h1m0 1h1m0 1h1"/></svg>