<svg xmlns="http://www.w3.org/2000/svg" viewBox="0 -0.5 32 32" shape-rendering="crispEdges">
<path stroke="#000000" d="M0 0h1M13 0h3M12 1h1M15 1h2M11 2h1M16 2h2M11 3h1M17 3h1M10 4h1M17 4h2M10 5h1M18 5h1M9 6h1M18 6h2M9 7h1M19 7h1M8 8h1M19 8h2M8 9h1M13 9h3M20 9h1M7 10h1M12 10h5M20 10h2M7 11h1M12 11h5M21 11h1M6 12h1M12 12h5M21 12h2M6 13h1M12 13h5M22 13h1M5 14h1M12 14h5M22 14h2M5 15h1M13 15h3M23 15h1M4 16h1M13 16h3M23 16h2M4 17h1M13 17h3M24 17h1M3 18h1M14 18h1M24 18h2M3 19h1M14 19h1M25 19h1M2 20h1M14 20h1M25 20h2M2 21h1M26 21h1M1 22h1M14 22h2M26 22h2M1 23h1M13 23h4M27 23h1M0 24h1M13 24h4M27 24h2M0 25h1M14 25h2M28 25h1M0 26h1M28 26h1M0 27h1M27 27h2M1 28h1M26 28h2M2 29h25" />
<path stroke="#ffffff" d="M0 0h1M13 1h2M12 2h4M12 3h5M11 4h6M11 5h7M10 6h8M10 7h9M9 8h10M9 9h4M16 9h4M8 10h4M17 10h3M8 11h4M17 11h4M7 12h5M17 12h4M7 13h5M17 13h5M6 14h6M17 14h5M6 15h7M16 15h7M5 16h8M16 16h7M5 17h8M16 17h8M4 18h10M15 18h9M4 19h10M15 19h10M3 20h11M15 20h10M3 21h23M2 22h12M16 22h10M2 23h11M17 23h10M1 24h12M17 24h10M1 25h13M16 25h12M1 26h27M1 27h26M2 28h24" />
</svg>