<svg xmlns="http://www.w3.org/2000/svg" viewBox="0 -0.5 16 16" shape-rendering="crispEdges">
<path stroke="#0066cc" d="M0 0h1M11 0h4M6 1h6M15 1h1M4 2h2M12 2h1M4 3h1M7 3h2M13 3h1M6 4h2M10 4h1M14 4h1M6 5h2M14 5h1M6 6h1M15 6h1M15 7h1M6 8h10M6 9h1M5 10h1M7 11h1M8 12h1M9 13h1" />
<path stroke="#3366ff" d="M0 0h1M6 2h4M15 2h1M15 3h1M5 5h1M4 6h2M5 7h4M5 8h1M2 9h1M5 9h1M6 10h1M12 10h3M6 11h1M11 11h4M7 12h1M9 12h5M10 13h2" />
<path stroke="#3399cc" d="M0 0h1M10 2h1M9 3h1M11 3h1M11 5h1M9 7h2" />
<path stroke="#0099ff" d="M0 0h1M11 2h1M10 3h1M12 3h1M13 4h1M14 6h1M11 7h4" />
<path stroke="#3333cc" d="M0 0h1M3 3h1M2 4h1M8 4h2M10 5h1M1 6h1M11 6h1M3 9h1M11 10h1M4 11h1M10 11h1M1 12h1M5 12h1M1 13h1M6 13h1M1 14h1M8 14h1M2 15h3" />
<path stroke="#6699cc" d="M0 0h1M5 3h1" />
<path stroke="#99cccc" d="M0 0h1M6 3h1" />
<path stroke="#333399" d="M0 0h1M3 4h1M2 5h1M3 10h1M4 12h1" />
<path stroke="#669999" d="M0 0h1M4 4h1M3 5h1" />
<path stroke="#c0c0c0" d="M0 0h1M5 4h1" />
<path stroke="#00ccff" d="M0 0h1M11 4h1M13 6h1" />
<path stroke="#66ffff" d="M0 0h1M12 4h1M13 5h1M12 6h1" />
<path stroke="#ffff99" d="M0 0h1M4 5h1" />
<path stroke="#99ffff" d="M0 0h1M12 5h1" />
<path stroke="#999966" d="M0 0h1M2 6h1M1 10h1" />
<path stroke="#ffcc99" d="M0 0h1M3 6h1" />
<path stroke="#777777" d="M0 0h1M1 7h1M0 8h1M0 9h1M0 13h1" />
<path stroke="#cccc99" d="M0 0h1M2 7h1M1 8h1" />
<path stroke="#6666cc" d="M0 0h1M3 7h1" />
<path stroke="#3366cc" d="M0 0h1M4 7h1M3 8h1M2 10h1M1 11h1" />
<path stroke="#cc9966" d="M0 0h1M2 8h1M1 9h1" />
<path stroke="#336699" d="M0 0h1M4 8h1M4 9h1M4 10h1M5 11h1M6 12h1M7 13h2M9 14h1" />
<path stroke="#5f5f5f" d="M0 0h1M0 10h1M0 11h1M0 12h1" />
<path stroke="#006699" d="M0 0h1M15 10h1M15 11h1M14 12h1M12 13h2M2 14h1M10 14h2" />
<path stroke="#003399" d="M0 0h1M2 11h1M5 14h1" />
<path stroke="#000080" d="M0 0h1M3 11h1" />
<path stroke="#333366" d="M0 0h1M3 12h1" />
<path stroke="#161616" d="M0 0h1M4 13h2M6 14h1" />
<path stroke="#000099" d="M0 0h1M7 14h1" />
</svg>