<svg xmlns="http://www.w3.org/2000/svg" width="32" height="32" shape-rendering="crispEdges" viewBox="0 -0.5 32 32"><path stroke="silver" d="M2 2h1m26 0h1M4 4h23M4 5h23M4 6h1m20 0h2M4 7h1m1 0h1m16 0h1m1 0h2M4 8h1m20 0h2M4 9h1m1 0h18m1 0h2M4 10h1m1 0h1m10 0h7m1 0h2M4 11h1m1 0h1m1 0h8m1 0h2m3 0h2m1 0h2M4 12h1m1 0h1m10 0h7m1 0h2M4 13h1m1 0h13m3 0h2m1 0h2M4 14h1m1 0h1m10 0h7m1 0h2M4 15h1m1 0h1m1 0h8m1 0h2m3 0h2m1 0h2M4 16h1m1 0h1m1 0h8m1 0h7m1 0h2M4 17h1m1 0h1m1 0h3m14 0h2M4 18h1m1 0h1m1 0h3m1 0h12m1 0h2M4 19h1m1 0h1m1 0h3m1 0h1m3 0h1m6 0h1m1 0h2M4 20h1m1 0h1m1 0h3m1 0h4m1 0h7m1 0h2M4 21h1m1 0h1m5 0h3m1 0h1m1 0h6m1 0h2M4 22h1m1 0h5m1 0h3m3 0h6m1 0h2M4 23h1m1 0h5m1 0h12m1 0h2M4 24h1m20 0h2M4 25h23M4 26h23M2 29h1m26 0h1"/><path stroke="#000" d="M3 2h26M2 3h1m26 0h1M2 4h1m26 0h1M2 5h1m26 0h1M2 6h1m2 0h20m4 0h1M2 7h1m2 0h1m1 0h16m1 0h1m4 0h1M2 8h1m2 0h20m4 0h1M2 9h1m2 0h1m18 0h1m4 0h1M2 10h1m2 0h1m1 0h10m7 0h1m4 0h1M2 11h1m2 0h1m1 0h1m8 0h1m2 0h3m2 0h1m4 0h1M2 12h1m2 0h1m1 0h10m7 0h1m4 0h1M2 13h1m2 0h1m13 0h3m2 0h1m4 0h1M2 14h1m2 0h1m1 0h10m7 0h1m4 0h1M2 15h1m2 0h1m1 0h1m8 0h1m2 0h3m2 0h1m4 0h1M2 16h1m2 0h1m1 0h1m8 0h1m7 0h1m4 0h1M2 17h1m2 0h1m1 0h1m3 0h14m4 0h1M2 18h1m2 0h1m1 0h1m3 0h1m12 0h1m4 0h1M2 19h1m2 0h1m1 0h1m3 0h1m1 0h3m1 0h6m1 0h1m4 0h1M2 20h1m2 0h1m1 0h1m3 0h1m4 0h1m7 0h1m4 0h1M2 21h1m2 0h1m1 0h5m3 0h1m1 0h1m6 0h1m4 0h1M2 22h1m2 0h1m5 0h1m3 0h3m6 0h1m4 0h1M2 23h1m2 0h1m5 0h1m12 0h1m4 0h1M2 24h1m2 0h20m4 0h1M2 25h1m26 0h1M2 26h1m26 0h1M2 27h1m26 0h1M2 28h1m26 0h1M3 29h26"/><path stroke="#fff" d="M3 3h25M3 4h1M3 5h1M3 6h1M3 7h1M3 8h1M3 9h1m-1 1h1m-1 1h1m-1 1h1m-1 1h1m-1 1h1m-1 1h1m-1 1h1m-1 1h1m-1 1h1m-1 1h1m-1 1h1m-1 1h1m-1 1h1m-1 1h1m-1 1h1m-1 1h1m-1 1h1m-1 1h1"/><path stroke="gray" d="M28 3h1m-2 1h2m-2 1h2m-2 1h2m-2 1h2m-2 1h2m-2 1h2m-2 1h2m-2 1h2m-2 1h2m-2 1h2m-2 1h2m-2 1h2m-2 1h2m-2 1h2m-2 1h2m-2 1h2m-2 1h2m-2 1h2m-2 1h2m-2 1h2m-2 1h2m-2 1h2m-2 1h2M4 27h25M3 28h26"/></svg>