<svg xmlns="http://www.w3.org/2000/svg" viewBox="0 -0.5 16 16" shape-rendering="crispEdges">
<path stroke="#c0c0c0" d="M0 0h1M0 0h16M0 1h1M15 1h1M0 2h1M2 2h1M13 2h1M15 2h1M0 3h1M15 3h1M0 4h1M2 4h12M15 4h1M0 5h1M2 5h1M9 5h2M13 5h1M15 5h1M0 6h1M2 6h12M15 6h1M0 7h1M2 7h1M10 7h1M13 7h1M15 7h1M0 8h1M2 8h1M4 8h5M10 8h4M15 8h1M0 9h1M2 9h1M4 9h1M15 9h1M0 10h1M2 10h1M4 10h1M6 10h8M15 10h1M0 11h1M2 11h1M6 11h1M9 11h1M13 11h1M15 11h1M0 12h1M2 12h3M6 12h3M10 12h4M15 12h1M0 13h1M15 13h1M0 14h16" />
<path stroke="#000000" d="M0 0h1M1 1h14M1 2h1M3 2h10M14 2h1M1 3h14M1 4h1M14 4h1M1 5h1M3 5h6M11 5h2M14 5h1M1 6h1M14 6h1M1 7h1M3 7h7M11 7h2M14 7h1M1 8h1M3 8h1M9 8h1M14 8h1M1 9h1M3 9h1M5 9h10M1 10h1M3 10h1M5 10h1M14 10h1M1 11h1M3 11h3M7 11h2M10 11h3M14 11h1M1 12h1M5 12h1M9 12h1M14 12h1M1 13h14" />
</svg>