<svg xmlns="http://www.w3.org/2000/svg" width="16" height="16" shape-rendering="crispEdges" viewBox="0 -0.5 16 16"><path stroke="silver" d="M0 0h16M0 1h1m14 0h1M0 2h1m1 0h1m10 0h1m1 0h1M0 3h1m14 0h1M0 4h1m1 0h12m1 0h1M0 5h1m1 0h1m6 0h2m2 0h1m1 0h1M0 6h1m1 0h12m1 0h1M0 7h1m1 0h1m7 0h1m2 0h1m1 0h1M0 8h1m1 0h1m1 0h5m1 0h4m1 0h1M0 9h1m1 0h1m1 0h1m10 0h1M0 10h1m1 0h1m1 0h1m1 0h8m1 0h1M0 11h1m1 0h1m3 0h1m2 0h1m3 0h1m1 0h1M0 12h1m1 0h3m1 0h3m1 0h4m1 0h1M0 13h1m14 0h1M0 14h16"/><path stroke="#000" d="M1 1h14M1 2h1m1 0h10m1 0h1M1 3h14M1 4h1m12 0h1M1 5h1m1 0h6m2 0h2m1 0h1M1 6h1m12 0h1M1 7h1m1 0h7m1 0h2m1 0h1M1 8h1m1 0h1m5 0h1m4 0h1M1 9h1m1 0h1m1 0h10M1 10h1m1 0h1m1 0h1m8 0h1M1 11h1m1 0h3m1 0h2m1 0h3m1 0h1M1 12h1m3 0h1m3 0h1m4 0h1M1 13h14"/></svg>