<svg xmlns="http://www.w3.org/2000/svg" viewBox="0 -0.5 32 32" shape-rendering="crispEdges">
<path stroke="#c0c0c0" d="M0 0h1M0 0h32M0 1h32M0 2h32M0 3h32M0 4h32M0 5h5M6 5h1M8 5h1M10 5h1M12 5h1M14 5h1M16 5h1M18 5h1M20 5h1M22 5h1M24 5h1M26 5h6M0 6h6M7 6h1M9 6h1M11 6h1M13 6h1M15 6h1M17 6h1M19 6h1M21 6h1M23 6h1M25 6h7M0 7h5M6 7h1M8 7h1M10 7h1M16 7h1M18 7h1M20 7h1M22 7h1M24 7h1M26 7h6M0 8h6M7 8h1M9 8h1M11 8h1M15 8h1M17 8h1M19 8h1M21 8h1M23 8h1M25 8h7M0 9h5M6 9h1M8 9h1M10 9h1M12 9h1M14 9h1M16 9h1M20 9h1M22 9h1M24 9h1M26 9h6M0 10h6M7 10h1M9 10h1M11 10h1M13 10h1M15 10h1M21 10h1M23 10h1M25 10h7M0 11h5M6 11h1M8 11h1M10 11h1M12 11h1M14 11h1M22 11h1M24 11h1M26 11h6M0 12h6M7 12h1M9 12h1M13 12h1M23 12h1M25 12h7M0 13h5M6 13h1M8 13h1M11 13h1M13 13h2M22 13h1M24 13h1M26 13h6M0 14h6M7 14h1M9 14h1M11 14h1M13 14h1M23 14h1M25 14h7M0 15h5M6 15h1M10 15h1M12 15h1M14 15h1M21 15h2M24 15h1M26 15h6M0 16h6M11 16h1M13 16h1M15 16h1M21 16h1M23 16h1M25 16h7M0 17h5M6 17h1M8 17h1M10 17h1M12 17h1M14 17h1M16 17h1M20 17h1M22 17h1M24 17h1M26 17h6M0 18h6M7 18h1M9 18h1M11 18h1M13 18h1M15 18h1M21 18h1M23 18h1M25 18h7M0 19h5M6 19h1M8 19h1M10 19h1M12 19h1M14 19h1M16 19h1M24 19h1M26 19h6M0 20h6M7 20h1M9 20h1M11 20h1M13 20h1M15 20h1M25 20h7M0 21h5M6 21h1M8 21h1M10 21h1M14 21h1M18 21h1M20 21h1M22 21h1M24 21h1M26 21h6M0 22h6M7 22h1M9 22h1M15 22h1M17 22h1M19 22h1M21 22h1M23 22h1M25 22h7M0 23h5M6 23h1M8 23h1M10 23h1M12 23h1M14 23h1M16 23h1M18 23h1M20 23h1M22 23h1M24 23h1M26 23h6M0 24h6M7 24h1M9 24h1M11 24h1M13 24h1M15 24h1M17 24h1M19 24h1M21 24h1M23 24h1M25 24h7M0 25h5M6 25h1M8 25h1M10 25h1M12 25h1M14 25h1M16 25h1M18 25h1M20 25h1M22 25h1M24 25h1M26 25h6M0 26h32M0 27h32M0 28h32M0 29h32M0 30h32M0 31h32" />
<path stroke="#00ffff" d="M0 0h1M5 5h1M7 5h1M9 5h1M11 5h1M13 5h1M15 5h1M17 5h1M19 5h1M21 5h1M23 5h1M25 5h1M6 6h1M8 6h1M10 6h1M12 6h1M14 6h1M16 6h1M18 6h1M20 6h1M22 6h1M24 6h1M5 7h1M7 7h1M9 7h1M11 7h1M15 7h1M17 7h1M19 7h1M21 7h1M23 7h1M25 7h1M6 8h1M8 8h1M10 8h1M12 8h1M14 8h1M16 8h1M20 8h1M22 8h1M24 8h1M5 9h1M7 9h1M9 9h1M11 9h1M13 9h1M15 9h1M21 9h1M23 9h1M25 9h1M6 10h1M8 10h1M10 10h1M12 10h1M14 10h1M22 10h1M24 10h1M5 11h1M7 11h1M9 11h1M11 11h1M13 11h1M23 11h1M25 11h1M6 12h1M8 12h1M24 12h1M5 13h1M7 13h1M9 13h1M12 13h1M23 13h1M25 13h1M6 14h1M8 14h1M10 14h1M12 14h1M14 14h1M22 14h1M24 14h1M5 15h1M7 15h1M9 15h1M11 15h1M13 15h1M23 15h1M25 15h1M6 16h1M10 16h1M12 16h1M22 16h1M24 16h1M5 17h1M9 17h1M11 17h1M15 17h1M21 17h1M23 17h1M25 17h1M6 18h1M8 18h1M10 18h1M14 18h1M16 18h1M20 18h1M22 18h1M24 18h1M5 19h1M7 19h1M9 19h1M13 19h1M15 19h1M17 19h1M19 19h1M23 19h1M25 19h1M6 20h1M8 20h1M12 20h1M14 20h1M16 20h1M18 20h1M21 20h1M24 20h1M5 21h1M7 21h1M11 21h1M13 21h1M15 21h1M17 21h1M19 21h1M21 21h1M23 21h1M25 21h1M6 22h1M10 22h1M14 22h1M16 22h1M18 22h1M20 22h1M22 22h1M24 22h1M5 23h1M9 23h1M11 23h1M13 23h1M15 23h1M17 23h1M19 23h1M21 23h1M23 23h1M25 23h1M8 24h1M10 24h1M12 24h1M14 24h1M16 24h1M18 24h1M20 24h1M22 24h1M24 24h1M7 25h1M9 25h1M11 25h1M13 25h1M15 25h1M17 25h1M19 25h1M21 25h1M23 25h1M25 25h1" />
<path stroke="#ffffff" d="M0 0h1M12 7h3M13 8h1M10 12h3M10 13h1M8 15h1M7 16h3M7 17h1M20 19h3M19 20h2M22 20h2M12 21h1M11 22h3" />
<path stroke="#000000" d="M0 0h1M18 8h1M17 9h1M19 9h1M16 10h1M20 10h1M15 11h1M20 11h2M14 12h1M22 12h1M15 13h1M21 13h1M15 14h1M21 14h1M16 15h1M20 15h1M16 16h1M20 16h1M17 17h1M19 17h1M17 18h1M19 18h1M18 19h1M17 20h1M16 21h1" />
<path stroke="#808080" d="M0 0h1M18 9h1M18 10h1M18 11h1M18 12h1M18 13h1M18 14h1M15 15h1M18 15h1M14 16h1M18 16h1M13 17h1M18 17h1M12 18h1M18 18h1M11 19h1M10 20h1M9 21h1M8 22h1M7 23h1M6 24h1M5 25h1" />
<path stroke="#ffff00" d="M0 0h1M17 10h1M16 11h2M15 12h3M19 13h2M19 14h2M19 15h1M19 16h1" />
<path stroke="#ff00ff" d="M0 0h1M19 10h1M19 11h1M19 12h3M16 13h2M16 14h2M17 15h1M17 16h1" />
</svg>