<svg xmlns="http://www.w3.org/2000/svg" width="32" height="32" shape-rendering="crispEdges" viewBox="0 -0.5 32 32"><path stroke="silver" d="M0 0h32M0 1h32M0 2h32M0 3h32M0 4h32M0 5h5m1 0h1m1 0h1m1 0h1m1 0h1m1 0h1m1 0h1m1 0h1m1 0h1m1 0h1m1 0h1m1 0h6M0 6h6m1 0h1m1 0h1m1 0h1m1 0h1m1 0h1m1 0h1m1 0h1m1 0h1m1 0h1m1 0h7M0 7h5m1 0h1m1 0h1m1 0h1m5 0h1m1 0h1m1 0h1m1 0h1m1 0h1m1 0h6M0 8h6m1 0h1m1 0h1m1 0h1m3 0h1m1 0h1m1 0h1m1 0h1m1 0h1m1 0h7M0 9h5m1 0h1m1 0h1m1 0h1m1 0h1m1 0h1m1 0h1m3 0h1m1 0h1m1 0h1m1 0h6M0 10h6m1 0h1m1 0h1m1 0h1m1 0h1m1 0h1m5 0h1m1 0h1m1 0h7M0 11h5m1 0h1m1 0h1m1 0h1m1 0h1m1 0h1m7 0h1m1 0h1m1 0h6M0 12h6m1 0h1m1 0h1m3 0h1m9 0h1m1 0h7M0 13h5m1 0h1m1 0h1m2 0h1m1 0h2m7 0h1m1 0h1m1 0h6M0 14h6m1 0h1m1 0h1m1 0h1m1 0h1m9 0h1m1 0h7M0 15h5m1 0h1m3 0h1m1 0h1m1 0h1m6 0h2m1 0h1m1 0h6M0 16h6m5 0h1m1 0h1m1 0h1m5 0h1m1 0h1m1 0h7M0 17h5m1 0h1m1 0h1m1 0h1m1 0h1m1 0h1m1 0h1m3 0h1m1 0h1m1 0h1m1 0h6M0 18h6m1 0h1m1 0h1m1 0h1m1 0h1m1 0h1m5 0h1m1 0h1m1 0h7M0 19h5m1 0h1m1 0h1m1 0h1m1 0h1m1 0h1m1 0h1m7 0h1m1 0h6M0 20h6m1 0h1m1 0h1m1 0h1m1 0h1m1 0h1m9 0h7M0 21h5m1 0h1m1 0h1m1 0h1m3 0h1m3 0h1m1 0h1m1 0h1m1 0h1m1 0h6M0 22h6m1 0h1m1 0h1m5 0h1m1 0h1m1 0h1m1 0h1m1 0h1m1 0h7M0 23h5m1 0h1m1 0h1m1 0h1m1 0h1m1 0h1m1 0h1m1 0h1m1 0h1m1 0h1m1 0h1m1 0h6M0 24h6m1 0h1m1 0h1m1 0h1m1 0h1m1 0h1m1 0h1m1 0h1m1 0h1m1 0h1m1 0h7M0 25h5m1 0h1m1 0h1m1 0h1m1 0h1m1 0h1m1 0h1m1 0h1m1 0h1m1 0h1m1 0h1m1 0h6M0 26h32M0 27h32M0 28h32M0 29h32M0 30h32M0 31h32"/><path stroke="#0ff" d="M5 5h1m1 0h1m1 0h1m1 0h1m1 0h1m1 0h1m1 0h1m1 0h1m1 0h1m1 0h1m1 0h1M6 6h1m1 0h1m1 0h1m1 0h1m1 0h1m1 0h1m1 0h1m1 0h1m1 0h1m1 0h1M5 7h1m1 0h1m1 0h1m1 0h1m3 0h1m1 0h1m1 0h1m1 0h1m1 0h1m1 0h1M6 8h1m1 0h1m1 0h1m1 0h1m1 0h1m1 0h1m3 0h1m1 0h1m1 0h1M5 9h1m1 0h1m1 0h1m1 0h1m1 0h1m1 0h1m5 0h1m1 0h1m1 0h1M6 10h1m1 0h1m1 0h1m1 0h1m1 0h1m7 0h1m1 0h1M5 11h1m1 0h1m1 0h1m1 0h1m1 0h1m9 0h1m1 0h1M6 12h1m1 0h1m15 0h1M5 13h1m1 0h1m1 0h1m2 0h1m10 0h1m1 0h1M6 14h1m1 0h1m1 0h1m1 0h1m1 0h1m7 0h1m1 0h1M5 15h1m1 0h1m1 0h1m1 0h1m1 0h1m9 0h1m1 0h1M6 16h1m3 0h1m1 0h1m9 0h1m1 0h1M5 17h1m3 0h1m1 0h1m3 0h1m5 0h1m1 0h1m1 0h1M6 18h1m1 0h1m1 0h1m3 0h1m1 0h1m3 0h1m1 0h1m1 0h1M5 19h1m1 0h1m1 0h1m3 0h1m1 0h1m1 0h1m1 0h1m3 0h1m1 0h1M6 20h1m1 0h1m3 0h1m1 0h1m1 0h1m1 0h1m2 0h1m2 0h1M5 21h1m1 0h1m3 0h1m1 0h1m1 0h1m1 0h1m1 0h1m1 0h1m1 0h1m1 0h1M6 22h1m3 0h1m3 0h1m1 0h1m1 0h1m1 0h1m1 0h1m1 0h1M5 23h1m3 0h1m1 0h1m1 0h1m1 0h1m1 0h1m1 0h1m1 0h1m1 0h1m1 0h1M8 24h1m1 0h1m1 0h1m1 0h1m1 0h1m1 0h1m1 0h1m1 0h1m1 0h1M7 25h1m1 0h1m1 0h1m1 0h1m1 0h1m1 0h1m1 0h1m1 0h1m1 0h1m1 0h1"/><path stroke="#fff" d="M12 7h3m-2 1h1m-4 4h3m-3 1h1m-3 2h1m-2 1h3m-3 1h1m12 2h3m-4 1h2m1 0h2m-12 1h1m-2 1h3"/><path stroke="#000" d="M18 8h1m-2 1h1m1 0h1m-4 1h1m3 0h1m-6 1h1m4 0h2m-8 1h1m7 0h1m-8 1h1m5 0h1m-7 1h1m5 0h1m-6 1h1m3 0h1m-5 1h1m3 0h1m-4 1h1m1 0h1m-3 1h1m1 0h1m-2 1h1m-2 1h1m-2 1h1"/><path stroke="gray" d="M18 9h1m-1 1h1m-1 1h1m-1 1h1m-1 1h1m-1 1h1m-4 1h1m2 0h1m-5 1h1m3 0h1m-6 1h1m4 0h1m-7 1h1m5 0h1m-8 1h1m-2 1h1m-2 1h1m-2 1h1m-2 1h1m-2 1h1m-2 1h1"/><path stroke="#ff0" d="M17 10h1m-2 1h2m-3 1h3m1 1h2m-2 1h2m-2 1h1m-1 1h1"/><path stroke="#f0f" d="M19 10h1m-1 1h1m-1 1h3m-6 1h2m-2 1h2m-1 1h1m-1 1h1"/></svg>