<svg xmlns="http://www.w3.org/2000/svg" viewBox="0 -0.5 32 32" shape-rendering="crispEdges">
<path stroke="#c0c0c0" d="M0 0h1M0 0h32M0 1h32M0 2h32M0 3h32M0 4h32M0 5h32M0 6h32M0 7h32M0 8h24M25 8h7M0 9h23M26 9h6M0 10h11M14 10h8M25 10h7M0 11h10M11 11h3M15 11h6M24 11h8M0 12h10M11 12h3M15 12h5M23 12h9M0 13h10M11 13h3M15 13h4M22 13h10M0 14h13M14 14h4M21 14h11M0 15h12M13 15h4M20 15h12M0 16h12M13 16h3M19 16h13M0 17h12M13 17h3M18 17h1M24 17h8M0 18h13M16 18h3M24 18h8M0 19h11M12 19h9M22 19h10M0 20h12M13 20h8M22 20h10M0 21h13M14 21h7M22 21h10M0 22h14M15 22h4M24 22h8M0 23h15M16 23h3M24 23h8M0 24h16M17 24h2M24 24h8M0 25h17M18 25h14M0 26h32M0 27h32M0 28h32M0 29h32M0 30h32M0 31h32" />
<path stroke="#000000" d="M0 0h1M24 8h1M23 9h1M25 9h1M11 10h3M22 10h1M24 10h1M10 11h1M14 11h1M21 11h1M23 11h1M10 12h1M14 12h1M20 12h1M22 12h1M10 13h1M14 13h1M19 13h1M21 13h1M13 14h1M18 14h1M20 14h1M12 15h1M17 15h1M19 15h1M12 16h1M16 16h1M18 16h1M12 17h1M16 17h2M13 18h3M11 19h1M12 20h1M13 21h1M14 22h1M19 22h5M15 23h1M19 23h2M22 23h2M16 24h1M17 25h1" />
<path stroke="#800080" d="M0 0h1M24 9h1" />
<path stroke="#ffff00" d="M0 0h1M23 10h1M22 11h1M21 12h1M20 13h1M19 14h1M18 15h1M17 16h1" />
<path stroke="#808080" d="M0 0h1M19 17h2M22 17h2" />
<path stroke="#000080" d="M0 0h1M21 17h1M19 18h5M21 19h1M21 20h1M21 21h1" />
<path stroke="#800000" d="M0 0h1M21 23h1M19 24h1M21 24h1M23 24h1" />
<path stroke="#ff0000" d="M0 0h1M20 24h1M22 24h1" />
</svg>