<svg xmlns="http://www.w3.org/2000/svg" width="32" height="32" shape-rendering="crispEdges" viewBox="0 -0.5 32 32"><path stroke="#000" d="M0 0h32M0 1h1m30 0h1M0 2h1m30 0h1M0 3h1m30 0h1M0 4h1m30 0h1M0 5h1m30 0h1M0 6h1m30 0h1M0 7h1m30 0h1M0 8h1m30 0h1M0 9h1m30 0h1M0 10h1m30 0h1M0 11h1m30 0h1M0 12h1m30 0h1M0 13h1m30 0h1M0 14h1m30 0h1M0 15h1m30 0h1M0 16h1m30 0h1M0 17h1m30 0h1M0 18h1m30 0h1M0 19h1m30 0h1M0 20h1m30 0h1M0 21h1m30 0h1M0 22h1m30 0h1M0 23h1m30 0h1M0 24h1m30 0h1M0 25h1m30 0h1M0 26h1m30 0h1M0 27h1m30 0h1M0 28h1m30 0h1M0 29h1m30 0h1M0 30h1m30 0h1M0 31h32"/><path stroke="gray" d="M1 1h30M1 2h30M1 3h2m26 0h2M1 4h2m26 0h2M1 5h2m26 0h2M1 6h2m26 0h2M1 7h2m26 0h2M1 8h2m13 0h2m11 0h2M1 9h2m11 0h2m13 0h2M1 10h2m9 0h2m15 0h2M1 11h2m7 0h2m17 0h2M1 12h2m5 0h3m18 0h2M1 13h2m26 0h2M1 14h2m4 0h1m21 0h2M1 15h2m4 0h2m20 0h2M1 16h2m4 0h3m19 0h2M1 17h2m5 0h3m18 0h2M1 18h2m6 0h3m17 0h2M1 19h2m7 0h3m16 0h2M1 20h2m8 0h3m15 0h2M1 21h2m9 0h2m15 0h2M1 22h2m10 0h1m15 0h2M1 23h2m26 0h2M1 24h2m26 0h2M1 25h2m26 0h2M1 26h2m26 0h2M1 27h2m26 0h2M1 28h2m26 0h2M1 29h30M1 30h30"/><path stroke="silver" d="M3 3h1m1 0h1m1 0h1m1 0h1m1 0h1m1 0h1m1 0h1m1 0h1m1 0h1m1 0h1m1 0h1m1 0h1m1 0h1M4 4h1m1 0h1m1 0h1m1 0h1m1 0h1m1 0h1m1 0h1m1 0h1m1 0h1m1 0h1m1 0h1m1 0h1m1 0h1M3 5h1m1 0h1m1 0h1m1 0h1m1 0h1m1 0h1m1 0h1m1 0h1m1 0h1m1 0h1m1 0h1m1 0h1m1 0h1M4 6h1m1 0h1m1 0h1m1 0h1m1 0h1m1 0h1m1 0h1m1 0h1m1 0h1m1 0h1m1 0h1m1 0h1m1 0h1M3 7h1m1 0h1m1 0h1m1 0h1m1 0h1m7 0h1m1 0h1m1 0h1m1 0h1m1 0h1M4 8h1m1 0h1m1 0h1m1 0h1m2 0h3m4 0h1m1 0h1m1 0h1m1 0h1m1 0h1M3 9h1m1 0h1m1 0h1m3 0h3m2 0h4m3 0h1m1 0h1m1 0h1M4 10h1m1 0h1m2 0h3m2 0h8m2 0h1m1 0h1m1 0h1M3 11h1m1 0h1m2 0h2m2 0h12m1 0h1m1 0h1M4 12h1m6 0h12m1 0h1m1 0h1m1 0h1M3 13h1m1 0h1m6 0h9m2 0h1m1 0h1m1 0h1M4 14h1m9 0h5m5 0h1m1 0h1m1 0h1M3 15h1m1 0h1m10 0h1m8 0h1m1 0h1M4 16h1m18 0h1m2 0h1m1 0h1M3 17h1m1 0h1m16 0h2m1 0h1m1 0h1M4 18h1m1 0h1m13 0h4m2 0h1m1 0h1M3 19h1m1 0h1m1 0h1m10 0h6m1 0h1m1 0h1M4 20h1m1 0h1m1 0h1m7 0h6m2 0h1m1 0h1m1 0h1M3 21h1m1 0h1m1 0h1m1 0h1m5 0h5m3 0h1m1 0h1m1 0h1M4 22h1m1 0h1m1 0h1m1 0h1m4 0h3m2 0h1m1 0h1m1 0h1m1 0h1m1 0h1M3 23h1m1 0h1m1 0h1m1 0h1m1 0h1m3 0h1m3 0h1m1 0h1m1 0h1m1 0h1m1 0h1M4 24h1m1 0h1m1 0h1m1 0h1m1 0h1m3 0h1m1 0h1m1 0h1m1 0h1m1 0h1m1 0h1m1 0h1M3 25h1m1 0h1m1 0h1m1 0h1m1 0h1m1 0h1m1 0h1m1 0h1m1 0h1m1 0h1m1 0h1m1 0h1m1 0h1M4 26h1m1 0h1m1 0h1m1 0h1m1 0h1m1 0h1m1 0h1m1 0h1m1 0h1m1 0h1m1 0h1m1 0h1m1 0h1M3 27h1m1 0h1m1 0h1m1 0h1m1 0h1m1 0h1m1 0h1m1 0h1m1 0h1m1 0h1m1 0h1m1 0h1m1 0h1M4 28h1m1 0h1m1 0h1m1 0h1m1 0h1m1 0h1m1 0h1m1 0h1m1 0h1m1 0h1m1 0h1m1 0h1m1 0h1"/><path stroke="#fff" d="M4 3h1m1 0h1m1 0h1m1 0h1m1 0h1m1 0h1m1 0h1m1 0h1m1 0h1m1 0h1m1 0h1m1 0h1m1 0h1M3 4h1m1 0h1m1 0h1m1 0h1m1 0h1m1 0h1m1 0h1m1 0h1m1 0h1m1 0h1m1 0h1m1 0h1m1 0h1M4 5h1m1 0h1m1 0h1m1 0h1m1 0h1m1 0h1m1 0h1m1 0h1m1 0h1m1 0h1m1 0h1m1 0h1m1 0h1M3 6h1m1 0h1m1 0h1m1 0h1m1 0h1m1 0h1m1 0h1m1 0h1m1 0h1m1 0h1m1 0h1m1 0h1m1 0h1M4 7h1m1 0h1m1 0h1m1 0h1m1 0h1m5 0h1m1 0h1m1 0h1m1 0h1m1 0h1m1 0h1M3 8h1m1 0h1m1 0h1m1 0h1m11 0h1m1 0h1m1 0h1m1 0h1M4 9h1m1 0h1m1 0h1m13 0h1m1 0h1m1 0h1m1 0h1M3 10h1m1 0h1m19 0h1m1 0h1M4 11h1m21 0h1m1 0h1M3 12h1m1 0h1m19 0h1m1 0h1M4 13h1m19 0h1m1 0h1m1 0h1M3 14h1m1 0h1m3 0h3m9 0h2m2 0h1m1 0h1M4 15h1m5 0h4m5 0h4m3 0h1m1 0h1M3 16h1m1 0h1m5 0h5m1 0h5m3 0h1m1 0h1M4 17h1m1 0h1m5 0h8m6 0h1m1 0h1M3 18h1m1 0h1m1 0h1m5 0h5m7 0h1m1 0h1M4 19h1m1 0h1m1 0h1m5 0h2m10 0h1m1 0h1M3 20h1m1 0h1m1 0h1m1 0h1m15 0h1m1 0h1M4 21h1m1 0h1m1 0h1m1 0h1m11 0h1m1 0h1m1 0h1m1 0h1M3 22h1m1 0h1m1 0h1m1 0h1m1 0h1m9 0h1m1 0h1m1 0h1m1 0h1M4 23h1m1 0h1m1 0h1m1 0h1m1 0h1m5 0h1m1 0h1m1 0h1m1 0h1m1 0h1m1 0h1M3 24h1m1 0h1m1 0h1m1 0h1m1 0h1m1 0h1m3 0h1m1 0h1m1 0h1m1 0h1m1 0h1m1 0h1M4 25h1m1 0h1m1 0h1m1 0h1m1 0h1m1 0h1m1 0h1m1 0h1m1 0h1m1 0h1m1 0h1m1 0h1m1 0h1M3 26h1m1 0h1m1 0h1m1 0h1m1 0h1m1 0h1m1 0h1m1 0h1m1 0h1m1 0h1m1 0h1m1 0h1m1 0h1M4 27h1m1 0h1m1 0h1m1 0h1m1 0h1m1 0h1m1 0h1m1 0h1m1 0h1m1 0h1m1 0h1m1 0h1m1 0h1M3 28h1m1 0h1m1 0h1m1 0h1m1 0h1m1 0h1m1 0h1m1 0h1m1 0h1m1 0h1m1 0h1m1 0h1m1 0h1"/><path stroke="maroon" d="M13 7h5m-7 1h2m5 0h2M9 9h2m9 0h2M7 10h2m13 0h2M6 11h2m16 0h1M6 12h2m15 0h1M6 13h6m9 0h2M6 14h1m1 0h1m3 0h2m5 0h2m2 0h1M6 15h1m2 0h1m4 0h2m1 0h2m4 0h2M6 16h1m3 0h1m5 0h1m5 0h1m1 0h1M7 17h1m3 0h1m8 0h2m2 0h1M8 18h1m3 0h1m5 0h2m4 0h1M9 19h1m3 0h1m2 0h2m6 0h1m-15 1h1m3 0h2m6 0h2m-13 1h1m2 0h1m5 0h2m-10 1h1m1 0h1m3 0h2m-7 1h2m1 0h2m-4 1h2"/></svg>