<svg xmlns="http://www.w3.org/2000/svg" viewBox="0 -0.5 32 32" shape-rendering="crispEdges">
<path stroke="#000000" d="M0 0h1M0 0h32M0 1h1M31 1h1M0 2h1M31 2h1M0 3h1M31 3h1M0 4h1M31 4h1M0 5h1M31 5h1M0 6h1M31 6h1M0 7h1M31 7h1M0 8h1M31 8h1M0 9h1M31 9h1M0 10h1M31 10h1M0 11h1M31 11h1M0 12h1M31 12h1M0 13h1M31 13h1M0 14h1M31 14h1M0 15h1M31 15h1M0 16h1M31 16h1M0 17h1M31 17h1M0 18h1M31 18h1M0 19h1M31 19h1M0 20h1M31 20h1M0 21h1M31 21h1M0 22h1M31 22h1M0 23h1M31 23h1M0 24h1M31 24h1M0 25h1M31 25h1M0 26h1M31 26h1M0 27h1M31 27h1M0 28h1M31 28h1M0 29h1M31 29h1M0 30h1M31 30h1M0 31h32" />
<path stroke="#808080" d="M0 0h1M1 1h30M1 2h30M1 3h2M29 3h2M1 4h2M29 4h2M1 5h2M29 5h2M1 6h2M29 6h2M1 7h2M29 7h2M1 8h2M16 8h2M29 8h2M1 9h2M14 9h2M29 9h2M1 10h2M12 10h2M29 10h2M1 11h2M10 11h2M29 11h2M1 12h2M8 12h3M29 12h2M1 13h2M29 13h2M1 14h2M7 14h1M29 14h2M1 15h2M7 15h2M29 15h2M1 16h2M7 16h3M29 16h2M1 17h2M8 17h3M29 17h2M1 18h2M9 18h3M29 18h2M1 19h2M10 19h3M29 19h2M1 20h2M11 20h3M29 20h2M1 21h2M12 21h2M29 21h2M1 22h2M13 22h1M29 22h2M1 23h2M29 23h2M1 24h2M29 24h2M1 25h2M29 25h2M1 26h2M29 26h2M1 27h2M29 27h2M1 28h2M29 28h2M1 29h30M1 30h30" />
<path stroke="#c0c0c0" d="M0 0h1M3 3h1M5 3h1M7 3h1M9 3h1M11 3h1M13 3h1M15 3h1M17 3h1M19 3h1M21 3h1M23 3h1M25 3h1M27 3h1M4 4h1M6 4h1M8 4h1M10 4h1M12 4h1M14 4h1M16 4h1M18 4h1M20 4h1M22 4h1M24 4h1M26 4h1M28 4h1M3 5h1M5 5h1M7 5h1M9 5h1M11 5h1M13 5h1M15 5h1M17 5h1M19 5h1M21 5h1M23 5h1M25 5h1M27 5h1M4 6h1M6 6h1M8 6h1M10 6h1M12 6h1M14 6h1M16 6h1M18 6h1M20 6h1M22 6h1M24 6h1M26 6h1M28 6h1M3 7h1M5 7h1M7 7h1M9 7h1M11 7h1M19 7h1M21 7h1M23 7h1M25 7h1M27 7h1M4 8h1M6 8h1M8 8h1M10 8h1M13 8h3M20 8h1M22 8h1M24 8h1M26 8h1M28 8h1M3 9h1M5 9h1M7 9h1M11 9h3M16 9h4M23 9h1M25 9h1M27 9h1M4 10h1M6 10h1M9 10h3M14 10h8M24 10h1M26 10h1M28 10h1M3 11h1M5 11h1M8 11h2M12 11h12M25 11h1M27 11h1M4 12h1M11 12h12M24 12h1M26 12h1M28 12h1M3 13h1M5 13h1M12 13h9M23 13h1M25 13h1M27 13h1M4 14h1M14 14h5M24 14h1M26 14h1M28 14h1M3 15h1M5 15h1M16 15h1M25 15h1M27 15h1M4 16h1M23 16h1M26 16h1M28 16h1M3 17h1M5 17h1M22 17h2M25 17h1M27 17h1M4 18h1M6 18h1M20 18h4M26 18h1M28 18h1M3 19h1M5 19h1M7 19h1M18 19h6M25 19h1M27 19h1M4 20h1M6 20h1M8 20h1M16 20h6M24 20h1M26 20h1M28 20h1M3 21h1M5 21h1M7 21h1M9 21h1M15 21h5M23 21h1M25 21h1M27 21h1M4 22h1M6 22h1M8 22h1M10 22h1M15 22h3M20 22h1M22 22h1M24 22h1M26 22h1M28 22h1M3 23h1M5 23h1M7 23h1M9 23h1M11 23h1M15 23h1M19 23h1M21 23h1M23 23h1M25 23h1M27 23h1M4 24h1M6 24h1M8 24h1M10 24h1M12 24h1M16 24h1M18 24h1M20 24h1M22 24h1M24 24h1M26 24h1M28 24h1M3 25h1M5 25h1M7 25h1M9 25h1M11 25h1M13 25h1M15 25h1M17 25h1M19 25h1M21 25h1M23 25h1M25 25h1M27 25h1M4 26h1M6 26h1M8 26h1M10 26h1M12 26h1M14 26h1M16 26h1M18 26h1M20 26h1M22 26h1M24 26h1M26 26h1M28 26h1M3 27h1M5 27h1M7 27h1M9 27h1M11 27h1M13 27h1M15 27h1M17 27h1M19 27h1M21 27h1M23 27h1M25 27h1M27 27h1M4 28h1M6 28h1M8 28h1M10 28h1M12 28h1M14 28h1M16 28h1M18 28h1M20 28h1M22 28h1M24 28h1M26 28h1M28 28h1" />
<path stroke="#ffffff" d="M0 0h1M4 3h1M6 3h1M8 3h1M10 3h1M12 3h1M14 3h1M16 3h1M18 3h1M20 3h1M22 3h1M24 3h1M26 3h1M28 3h1M3 4h1M5 4h1M7 4h1M9 4h1M11 4h1M13 4h1M15 4h1M17 4h1M19 4h1M21 4h1M23 4h1M25 4h1M27 4h1M4 5h1M6 5h1M8 5h1M10 5h1M12 5h1M14 5h1M16 5h1M18 5h1M20 5h1M22 5h1M24 5h1M26 5h1M28 5h1M3 6h1M5 6h1M7 6h1M9 6h1M11 6h1M13 6h1M15 6h1M17 6h1M19 6h1M21 6h1M23 6h1M25 6h1M27 6h1M4 7h1M6 7h1M8 7h1M10 7h1M12 7h1M18 7h1M20 7h1M22 7h1M24 7h1M26 7h1M28 7h1M3 8h1M5 8h1M7 8h1M9 8h1M21 8h1M23 8h1M25 8h1M27 8h1M4 9h1M6 9h1M8 9h1M22 9h1M24 9h1M26 9h1M28 9h1M3 10h1M5 10h1M25 10h1M27 10h1M4 11h1M26 11h1M28 11h1M3 12h1M5 12h1M25 12h1M27 12h1M4 13h1M24 13h1M26 13h1M28 13h1M3 14h1M5 14h1M9 14h3M21 14h2M25 14h1M27 14h1M4 15h1M10 15h4M19 15h4M26 15h1M28 15h1M3 16h1M5 16h1M11 16h5M17 16h5M25 16h1M27 16h1M4 17h1M6 17h1M12 17h8M26 17h1M28 17h1M3 18h1M5 18h1M7 18h1M13 18h5M25 18h1M27 18h1M4 19h1M6 19h1M8 19h1M14 19h2M26 19h1M28 19h1M3 20h1M5 20h1M7 20h1M9 20h1M25 20h1M27 20h1M4 21h1M6 21h1M8 21h1M10 21h1M22 21h1M24 21h1M26 21h1M28 21h1M3 22h1M5 22h1M7 22h1M9 22h1M11 22h1M21 22h1M23 22h1M25 22h1M27 22h1M4 23h1M6 23h1M8 23h1M10 23h1M12 23h1M18 23h1M20 23h1M22 23h1M24 23h1M26 23h1M28 23h1M3 24h1M5 24h1M7 24h1M9 24h1M11 24h1M13 24h1M17 24h1M19 24h1M21 24h1M23 24h1M25 24h1M27 24h1M4 25h1M6 25h1M8 25h1M10 25h1M12 25h1M14 25h1M16 25h1M18 25h1M20 25h1M22 25h1M24 25h1M26 25h1M28 25h1M3 26h1M5 26h1M7 26h1M9 26h1M11 26h1M13 26h1M15 26h1M17 26h1M19 26h1M21 26h1M23 26h1M25 26h1M27 26h1M4 27h1M6 27h1M8 27h1M10 27h1M12 27h1M14 27h1M16 27h1M18 27h1M20 27h1M22 27h1M24 27h1M26 27h1M28 27h1M3 28h1M5 28h1M7 28h1M9 28h1M11 28h1M13 28h1M15 28h1M17 28h1M19 28h1M21 28h1M23 28h1M25 28h1M27 28h1" />
<path stroke="#800000" d="M0 0h1M13 7h5M11 8h2M18 8h2M9 9h2M20 9h2M7 10h2M22 10h2M6 11h2M24 11h1M6 12h2M23 12h1M6 13h6M21 13h2M6 14h1M8 14h1M12 14h2M19 14h2M23 14h1M6 15h1M9 15h1M14 15h2M17 15h2M23 15h2M6 16h1M10 16h1M16 16h1M22 16h1M24 16h1M7 17h1M11 17h1M20 17h2M24 17h1M8 18h1M12 18h1M18 18h2M24 18h1M9 19h1M13 19h1M16 19h2M24 19h1M10 20h1M14 20h2M22 20h2M11 21h1M14 21h1M20 21h2M12 22h1M14 22h1M18 22h2M13 23h2M16 23h2M14 24h2" />
</svg>