<svg xmlns="http://www.w3.org/2000/svg" width="32" height="32" shape-rendering="crispEdges" viewBox="0 -0.5 32 32"><path stroke="#fff" d="M0 0h31M0 1h1M0 2h1M0 3h1M0 4h1M0 5h1M0 6h1M0 7h1m6 0h1m1 0h2m3 0h2m1 0h1m3 0h1m1 0h2M0 8h1m9 0h1m3 0h1m9 0h1M0 9h1m6 0h3m5 0h3m3 0h2M0 10h1m9 0h1m3 0h1m9 0h1M0 11h1m6 0h2m5 0h4m3 0h1M0 12h1m6 0h1m2 0h1m3 0h1m6 0h1m2 0h1M0 13h1m6 0h1m1 0h1m5 0h1m1 0h1m3 0h1m1 0h1M0 14h1m-1 1h1m-1 1h1m-1 1h1m6 0h1m1 0h2m3 0h2m1 0h1m3 0h3M0 18h1m9 0h1m3 0h1m9 0h1M0 19h1m6 0h3m7 0h1m3 0h3M0 20h1m9 0h1m3 0h1m2 0h1m6 0h1M0 21h1m6 0h1m2 0h1m4 0h3m3 0h1m2 0h1M0 22h1m6 0h1m2 0h1m3 0h1m6 0h1m2 0h1M0 23h1m6 0h1m1 0h1m4 0h2m1 0h1m3 0h1m1 0h1M0 24h1m-1 1h1m-1 1h1m-1 1h1m-1 1h1m-1 1h1m-1 1h1"/><path stroke="#000" d="M31 0h1m-1 1h1m-1 1h1m-1 1h1m-1 1h1m-1 1h1M6 6h6m1 0h6m1 0h6m5 0h1M6 7h1m4 0h1m1 0h1m4 0h1m1 0h1m4 0h1m5 0h1M6 8h1m1 0h2m1 0h1m1 0h1m1 0h2m1 0h1m1 0h1m1 0h2m1 0h1m5 0h1M6 9h1m4 0h1m1 0h1m4 0h1m1 0h1m4 0h1m5 0h1M6 10h1m4 0h1m1 0h1m1 0h2m1 0h1m1 0h1m4 0h1m5 0h1M6 11h1m4 0h1m1 0h1m4 0h1m1 0h1m4 0h1m5 0h1M6 12h1m1 0h2m1 0h1m1 0h1m1 0h2m1 0h1m1 0h1m1 0h2m1 0h1m5 0h1M6 13h1m4 0h1m1 0h1m4 0h1m1 0h1m4 0h1m5 0h1M6 14h6m1 0h6m1 0h6m5 0h1m-1 1h1M6 16h6m1 0h6m1 0h6m5 0h1M6 17h1m4 0h1m1 0h1m4 0h1m1 0h1m4 0h1m5 0h1M6 18h1m1 0h2m1 0h1m1 0h1m4 0h1m1 0h1m4 0h1m5 0h1M6 19h1m4 0h1m1 0h1m4 0h1m1 0h1m4 0h1m5 0h1M6 20h1m1 0h2m1 0h1m1 0h1m4 0h1m1 0h1m4 0h1m5 0h1M6 21h1m4 0h1m1 0h1m4 0h1m1 0h1m4 0h1m5 0h1M6 22h1m4 0h1m1 0h1m1 0h2m1 0h1m1 0h1m2 0h1m1 0h1m5 0h1M6 23h1m4 0h1m1 0h1m4 0h1m1 0h1m4 0h1m5 0h1M6 24h6m1 0h6m1 0h6m5 0h1m-1 1h1m-1 1h1m-1 1h1m-1 1h1m-1 1h1m-1 1h1M0 31h32"/><path stroke="silver" d="M1 1h29M1 2h29M1 3h29M1 4h29M1 5h29M1 6h5m6 0h1m6 0h1m6 0h4M1 7h5m6 0h1m6 0h1m6 0h4M1 8h5m6 0h1m6 0h1m6 0h4M1 9h5m6 0h1m6 0h1m6 0h4M1 10h5m6 0h1m6 0h1m6 0h4M1 11h5m6 0h1m6 0h1m6 0h4M1 12h5m6 0h1m6 0h1m6 0h4M1 13h5m6 0h1m6 0h1m6 0h4M1 14h5m6 0h1m6 0h1m6 0h4M1 15h29M1 16h5m6 0h1m6 0h1m6 0h4M1 17h5m6 0h1m6 0h1m6 0h4M1 18h5m6 0h1m6 0h1m6 0h4M1 19h5m6 0h1m6 0h1m6 0h4M1 20h5m6 0h1m6 0h1m6 0h4M1 21h5m6 0h1m6 0h1m6 0h4M1 22h5m6 0h1m6 0h1m6 0h4M1 23h5m6 0h1m6 0h1m6 0h4M1 24h5m6 0h1m6 0h1m6 0h4M1 25h29M1 26h29M1 27h29M1 28h29M1 29h29"/><path stroke="gray" d="M30 1h1m-1 1h1m-1 1h1m-1 1h1m-1 1h1m-1 1h1m-1 1h1m-1 1h1m-1 1h1m-1 1h1m-1 1h1m-1 1h1m-1 1h1m-1 1h1m-1 1h1m-1 1h1m-1 1h1m-1 1h1m-1 1h1m-1 1h1m-1 1h1m-1 1h1m-1 1h1m-1 1h1m-1 1h1m-1 1h1m-1 1h1m-1 1h1m-1 1h1M1 30h30"/><path stroke="#ff0" d="M8 7h1m7 0h1m5 0h1M7 8h1m9 0h1m3 0h1M10 9h1m3 0h1m9 0h1M7 10h1m9 0h1m3 0h1m-12 1h1m13 0h1m-8 1h1M8 13h1m1 0h1m3 0h1m1 0h1m5 0h1m1 0h1M8 17h1m7 0h1m7 0h1M7 18h1m9 0h1m3 0h1m-12 1h1m3 0h1m9 0h1M7 20h1m13 0h1m-8 1h1m2 1h1M8 23h1m1 0h1m5 0h1m5 0h1m1 0h1"/><path stroke="teal" d="M23 9h1M8 10h1m13 1h2m-9 7h2m-1 1h1m5 1h1m-1 1h1M8 22h2m12 0h1"/><path stroke="red" d="M9 10h1m12 0h2M9 11h1m5 8h1m-1 1h2m6 0h1M8 21h2m13 0h1"/><path stroke="navy" d="M22 18h2"/></svg>