<svg xmlns="http://www.w3.org/2000/svg" viewBox="0 -0.5 32 32" shape-rendering="crispEdges">
<path stroke="#ffffff" d="M0 0h1M0 0h31M0 1h1M0 2h1M0 3h1M0 4h1M0 5h1M0 6h1M0 7h1M7 7h1M9 7h2M14 7h2M17 7h1M21 7h1M23 7h2M0 8h1M10 8h1M14 8h1M24 8h1M0 9h1M7 9h3M15 9h3M21 9h2M0 10h1M10 10h1M14 10h1M24 10h1M0 11h1M7 11h2M14 11h4M21 11h1M0 12h1M7 12h1M10 12h1M14 12h1M21 12h1M24 12h1M0 13h1M7 13h1M9 13h1M15 13h1M17 13h1M21 13h1M23 13h1M0 14h1M0 15h1M0 16h1M0 17h1M7 17h1M9 17h2M14 17h2M17 17h1M21 17h3M0 18h1M10 18h1M14 18h1M24 18h1M0 19h1M7 19h3M17 19h1M21 19h3M0 20h1M10 20h1M14 20h1M17 20h1M24 20h1M0 21h1M7 21h1M10 21h1M15 21h3M21 21h1M24 21h1M0 22h1M7 22h1M10 22h1M14 22h1M21 22h1M24 22h1M0 23h1M7 23h1M9 23h1M14 23h2M17 23h1M21 23h1M23 23h1M0 24h1M0 25h1M0 26h1M0 27h1M0 28h1M0 29h1M0 30h1" />
<path stroke="#000000" d="M0 0h1M31 0h1M31 1h1M31 2h1M31 3h1M31 4h1M31 5h1M6 6h6M13 6h6M20 6h6M31 6h1M6 7h1M11 7h1M13 7h1M18 7h1M20 7h1M25 7h1M31 7h1M6 8h1M8 8h2M11 8h1M13 8h1M15 8h2M18 8h1M20 8h1M22 8h2M25 8h1M31 8h1M6 9h1M11 9h1M13 9h1M18 9h1M20 9h1M25 9h1M31 9h1M6 10h1M11 10h1M13 10h1M15 10h2M18 10h1M20 10h1M25 10h1M31 10h1M6 11h1M11 11h1M13 11h1M18 11h1M20 11h1M25 11h1M31 11h1M6 12h1M8 12h2M11 12h1M13 12h1M15 12h2M18 12h1M20 12h1M22 12h2M25 12h1M31 12h1M6 13h1M11 13h1M13 13h1M18 13h1M20 13h1M25 13h1M31 13h1M6 14h6M13 14h6M20 14h6M31 14h1M31 15h1M6 16h6M13 16h6M20 16h6M31 16h1M6 17h1M11 17h1M13 17h1M18 17h1M20 17h1M25 17h1M31 17h1M6 18h1M8 18h2M11 18h1M13 18h1M18 18h1M20 18h1M25 18h1M31 18h1M6 19h1M11 19h1M13 19h1M18 19h1M20 19h1M25 19h1M31 19h1M6 20h1M8 20h2M11 20h1M13 20h1M18 20h1M20 20h1M25 20h1M31 20h1M6 21h1M11 21h1M13 21h1M18 21h1M20 21h1M25 21h1M31 21h1M6 22h1M11 22h1M13 22h1M15 22h2M18 22h1M20 22h1M23 22h1M25 22h1M31 22h1M6 23h1M11 23h1M13 23h1M18 23h1M20 23h1M25 23h1M31 23h1M6 24h6M13 24h6M20 24h6M31 24h1M31 25h1M31 26h1M31 27h1M31 28h1M31 29h1M31 30h1M0 31h32" />
<path stroke="#c0c0c0" d="M0 0h1M1 1h29M1 2h29M1 3h29M1 4h29M1 5h29M1 6h5M12 6h1M19 6h1M26 6h4M1 7h5M12 7h1M19 7h1M26 7h4M1 8h5M12 8h1M19 8h1M26 8h4M1 9h5M12 9h1M19 9h1M26 9h4M1 10h5M12 10h1M19 10h1M26 10h4M1 11h5M12 11h1M19 11h1M26 11h4M1 12h5M12 12h1M19 12h1M26 12h4M1 13h5M12 13h1M19 13h1M26 13h4M1 14h5M12 14h1M19 14h1M26 14h4M1 15h29M1 16h5M12 16h1M19 16h1M26 16h4M1 17h5M12 17h1M19 17h1M26 17h4M1 18h5M12 18h1M19 18h1M26 18h4M1 19h5M12 19h1M19 19h1M26 19h4M1 20h5M12 20h1M19 20h1M26 20h4M1 21h5M12 21h1M19 21h1M26 21h4M1 22h5M12 22h1M19 22h1M26 22h4M1 23h5M12 23h1M19 23h1M26 23h4M1 24h5M12 24h1M19 24h1M26 24h4M1 25h29M1 26h29M1 27h29M1 28h29M1 29h29" />
<path stroke="#808080" d="M0 0h1M30 1h1M30 2h1M30 3h1M30 4h1M30 5h1M30 6h1M30 7h1M30 8h1M30 9h1M30 10h1M30 11h1M30 12h1M30 13h1M30 14h1M30 15h1M30 16h1M30 17h1M30 18h1M30 19h1M30 20h1M30 21h1M30 22h1M30 23h1M30 24h1M30 25h1M30 26h1M30 27h1M30 28h1M30 29h1M1 30h30" />
<path stroke="#ffff00" d="M0 0h1M8 7h1M16 7h1M22 7h1M7 8h1M17 8h1M21 8h1M10 9h1M14 9h1M24 9h1M7 10h1M17 10h1M21 10h1M10 11h1M24 11h1M17 12h1M8 13h1M10 13h1M14 13h1M16 13h1M22 13h1M24 13h1M8 17h1M16 17h1M24 17h1M7 18h1M17 18h1M21 18h1M10 19h1M14 19h1M24 19h1M7 20h1M21 20h1M14 21h1M17 22h1M8 23h1M10 23h1M16 23h1M22 23h1M24 23h1" />
<path stroke="#008080" d="M0 0h1M23 9h1M8 10h1M22 11h2M15 18h2M16 19h1M22 20h1M22 21h1M8 22h2M22 22h1" />
<path stroke="#ff0000" d="M0 0h1M9 10h1M22 10h2M9 11h1M15 19h1M15 20h2M23 20h1M8 21h2M23 21h1" />
<path stroke="#000080" d="M0 0h1M22 18h2" />
</svg>