<svg xmlns="http://www.w3.org/2000/svg" width="16" height="16" shape-rendering="crispEdges" viewBox="0 -0.5 16 16"><path stroke="gray" d="M5 0h5m0 1h2M8 3h1m1 1h1M7 5h2M6 6h1M5 7h1M5 8h1M5 9h1m0 1h1m4 0h1m-2 1h1"/><path stroke="silver" d="M3 1h2M2 2h1m3 7h1"/><path stroke="#c0e0c0" d="M5 1h1M4 3h1m1 1h1"/><path stroke="#a8c8f0" d="M6 1h1M5 2h1m1 0h2M5 3h1M2 4h2"/><path stroke="#80ffff" d="M7 1h1M2 5h1"/><path stroke="#68d0ff" d="M8 1h1M1 6h1"/><path stroke="#b0b0b0" d="M9 1h1M5 4h1"/><path stroke="#fff" d="M3 2h2M2 3h1m4 3h1M6 7h1m4 4h1"/><path stroke="#98d0ff" d="M6 2h1M6 3h1M1 5h1m1 0h1"/><path stroke="#689868" d="M9 2h1m1 0h1M9 3h1M8 4h1m-6 6h1"/><path stroke="#689830" d="M10 2h1"/><path stroke="#303000" d="M12 2h1m0 1h1m-1 1h1m0 1h1m-2 1h2m-1 1h1m-2 1h2m-3 1h1m1 0h1m-1 1h1m-9 2h1m1 0h1m1 0h1m-2 1h1m1 0h1m-3 1h1"/><path stroke="#6898d0" d="M1 3h1M1 4h1M0 5h1M0 6h1m0 2h1"/><path stroke="#d8d8d8" d="M3 3h1"/><path stroke="#d0d098" d="M7 3h1"/><path stroke="#808040" d="M10 3h1M9 4h1"/><path stroke="#309830" d="M11 3h1m0 1h1m0 1h1m-2 1h1m-8 4h1"/><path stroke="#686830" d="M12 3h1m-2 1h1M4 9h1m-1 2h1"/><path stroke="#d0d0ff" d="M4 4h1"/><path stroke="#689898" d="M7 4h1M4 7h1"/><path stroke="#98d0d0" d="M4 5h1M4 6h1"/><path stroke="#989868" d="M5 5h1"/><path stroke="#a0a0a8" d="M6 5h1"/><path stroke="#303030" d="M9 5h1m2 0h1m-3 1h2m-1 1h1m1 0h1m-3 1h2m-2 1h1m1 0h1M4 10h1m5 0h1m1 0h2m-7 1h3m-5 1h1m3 0h1m-3 1h2m1 0h1m-1 1h2m-7 1h5m4 0h2"/><path stroke="#007880" d="M10 5h1"/><path stroke="#009830" d="M11 5h1"/><path stroke="#6898ff" d="M2 6h1"/><path stroke="#3098ff" d="M3 6h1"/><path stroke="#989898" d="M5 6h1"/><path stroke="#0ff" d="M8 6h1M7 7h1m1 0h1M6 8h1m1 0h1m1 0h1M7 9h1m1 0h1m-2 1h1"/><path stroke="#d0ffd0" d="M9 6h1M8 7h1M7 8h1"/><path stroke="#3098d0" d="M0 7h1m1 0h2M0 8h1m1 0h1M0 9h2"/><path stroke="#8080ff" d="M1 7h1"/><path stroke="#00d0ff" d="M10 7h1M9 8h1M8 9h1m1 0h1m-4 1h1m1 0h1"/><path stroke="#606060" d="M12 7h1"/><path stroke="#3068d0" d="M3 8h1M2 9h1"/><path stroke="#686898" d="M4 8h1"/><path stroke="#306898" d="M3 9h1m-4 1h3m-3 1h1"/><path stroke="#3030ff" d="M1 11h1"/><path stroke="#306868" d="M2 11h2m1 0h1"/><path stroke="#004040" d="M6 11h1m-4 1h2m2 0h1m-2 1h1m-2 1h1m1 0h2"/><path stroke="#d00000" d="M12 11h1m-2 1h1m1 0h1m-2 1h1m1 0h1m-2 1h2"/><path stroke="#980000" d="M13 11h1m0 1h1m0 1h1m-1 1h1"/><path stroke="#000068" d="M1 12h1m0 1h1m0 1h2"/><path stroke="#303068" d="M2 12h1m1 1h1"/><path stroke="#ff9898" d="M12 12h1m0 1h1"/><path stroke="#003068" d="M3 13h1m1 0h1"/><path stroke="#004080" d="M6 14h1"/></svg>