<svg xmlns="http://www.w3.org/2000/svg" viewBox="0 -0.5 32 32" shape-rendering="crispEdges">
<path stroke="#808080" d="M0 0h1M4 5h23M4 6h1M4 7h1M4 8h1M4 9h1M4 10h1M4 11h1M4 12h1M4 13h1M4 14h1M4 15h1M4 16h1M4 17h1M4 18h1M4 19h1M4 20h1M4 21h1M4 22h1M4 23h1M4 24h1M4 25h1" />
<path stroke="#000000" d="M0 0h1M27 5h1M27 6h1M20 7h1M22 7h1M24 7h1M27 7h1M19 8h6M27 8h1M27 9h1M27 10h1M27 11h1M27 12h1M27 13h1M27 14h1M27 15h1M27 16h1M27 17h1M27 18h1M27 19h1M27 20h1M27 21h1M27 22h1M27 23h1M27 24h1M27 25h1M4 26h24" />
<path stroke="#000080" d="M0 0h1M5 6h22M5 7h14M25 7h2M5 8h14M25 8h2" />
<path stroke="#ffffff" d="M0 0h1M19 7h1M21 7h1M23 7h1M6 10h20M6 11h1M25 11h1M6 12h20M6 13h1M25 13h1M6 14h20M6 15h1M25 15h1M6 16h20M6 17h1M25 17h1M6 18h20M6 19h1M25 19h1M6 20h20M6 21h1M25 21h1M6 22h20M6 23h20M6 24h20" />
<path stroke="#c0c0c0" d="M0 0h1M5 9h22M5 10h1M26 10h1M5 11h1M7 11h18M26 11h1M5 12h1M26 12h1M5 13h1M11 13h10M26 13h1M5 14h1M26 14h1M5 15h1M7 15h14M26 15h1M5 16h1M26 16h1M5 17h1M7 17h7M18 17h7M26 17h1M5 18h1M26 18h1M5 19h1M11 19h14M26 19h1M5 20h1M26 20h1M5 21h1M7 21h7M18 21h3M26 21h1M5 22h1M26 22h1M5 23h1M26 23h1M5 24h1M26 24h1M5 25h22" />
<path stroke="#ff0000" d="M0 0h1M7 13h4M21 13h4M21 15h4M14 17h4M7 19h4M14 21h4M21 21h4" />
</svg>