<svg xmlns="http://www.w3.org/2000/svg" width="32" height="32" shape-rendering="crispEdges" viewBox="0 -0.5 32 32"><path stroke="gray" d="M7 1h15M7 2h1m13 0h1M5 3h15m1 0h2M5 4h1m13 0h1m1 0h1m1 0h1M3 5h15m1 0h2m3 0h1M3 6h1m13 0h1m1 0h1m1 0h1m3 0h1M3 7h1m13 0h2m3 0h1M3 8h1m13 0h1m1 0h1m3 0h1M3 9h1m13 0h1m2 0h1M3 10h1m13 0h1m3 0h1M3 11h1m13 0h1M3 12h1m-1 1h1m-1 1h1m-1 1h1m-1 1h1m-1 1h1m7 0h1m-9 1h1m7 0h1m-9 1h1m4 0h1m-6 1h1m-1 1h1m-1 1h1m-1 1h1m-1 1h1m-1 1h1m-1 1h1m-1 1h1m-1 1h1m-1 1h1"/><path stroke="#ff0" d="M8 2h1m3 0h1m3 0h1m3 0h1M6 4h1m3 0h1m3 0h1m3 0h1M4 6h1m3 0h1m3 0h1m3 0h1M6 7h1m3 0h1m3 0h1M4 8h1m3 0h1m3 0h1m3 0h1M6 9h1m3 0h1m3 0h1M4 10h1m3 0h1m3 0h1m3 0h1M6 11h1m3 0h1m3 0h1M4 12h1m3 0h1m7 0h1m3 0h1M6 13h1m11 0h1M4 14h1m15 0h1M6 15h1m11 0h1M4 16h1m15 0h1M6 17h1m11 0h1M4 18h1m15 0h1M6 19h1m11 0h1M4 20h1m15 0h1M6 21h1m11 0h1M4 22h1m3 0h1m7 0h1m3 0h1M6 23h1m3 0h1m3 0h1m3 0h1M4 24h1m3 0h1m3 0h1m3 0h1m3 0h1M6 25h1m3 0h1m3 0h1m3 0h1M4 26h1m3 0h1m3 0h1m3 0h1m3 0h1M6 27h1m3 0h1m3 0h1m3 0h1M4 28h1m3 0h1m3 0h1m3 0h1m3 0h1M6 29h1m3 0h1m3 0h1m3 0h1"/><path stroke="#fff" d="M9 2h3m1 0h3m1 0h3m0 1h1M7 4h3m1 0h3m1 0h3m0 1h1m3 0h1M5 6h3m1 0h3m1 0h3m7 0h1M4 7h2m1 0h3m1 0h3m1 0h2m3 0h1M5 8h3m1 0h3m1 0h3m5 0h1m3 0h1M4 9h2m1 0h3m1 0h3m1 0h2m1 0h1M5 10h3m1 0h3m1 0h3m2 0h2m3 0h1M4 11h2m1 0h3m1 0h3m1 0h2M5 12h3m1 0h2m3 0h2m1 0h3m1 0h1M4 13h2m1 0h2m7 0h2m1 0h3M5 14h3m9 0h3m1 0h1M4 15h2m1 0h1m1 0h1m7 0h1m1 0h3M5 16h2m1 0h1m9 0h2m1 0h1M4 17h2m2 0h1m1 0h1m8 0h3M5 18h2m2 0h1m8 0h2m1 0h1M4 19h2m13 0h3M5 20h3m9 0h3m1 0h1M4 21h2m1 0h1m9 0h1m1 0h3M5 22h3m9 0h3m1 0h1M4 23h2m1 0h3m5 0h3m1 0h3M5 24h3m1 0h3m1 0h3m1 0h3m1 0h1M4 25h2m1 0h3m1 0h3m1 0h3m1 0h3M5 26h3m1 0h3m1 0h3m1 0h3m1 0h1M4 27h2m1 0h3m1 0h3m1 0h3m1 0h3M5 28h3m1 0h3m1 0h3m1 0h3m1 0h1M4 29h2m1 0h3m1 0h3m1 0h3m1 0h3"/><path stroke="#000" d="M22 2h1m0 1h1m-4 1h1m3 0h1m-4 1h1m3 0h1m-8 1h1m3 0h1m3 0h1m-8 1h1m3 0h5m-8 1h1m3 0h1m2 0h1m-7 1h5m1 0h1m-6 1h1m2 0h1m1 0h1m-10 1h6m1 0h1m1 0h1m-5 1h1m1 0h1m1 0h1m-5 1h1m1 0h1m1 0h1m-5 1h1m1 0h1m1 0h1m-12 1h1m6 0h1m1 0h1m1 0h1m-11 1h1m5 0h1m1 0h1m1 0h1m-11 1h1m5 0h1m1 0h1m1 0h1m-11 1h1m5 0h1m1 0h1m1 0h1m-11 1h1m5 0h1m1 0h1m1 0h1m-5 1h1m1 0h1m1 0h1m-12 1h1m6 0h1m1 0h1m1 0h1m-14 1h2m7 0h1m1 0h1m1 0h1m-17 1h3m9 0h1m1 0h1m1 0h1m-5 1h1m1 0h1m1 0h1m-5 1h1m1 0h1m1 0h1m-5 1h1m1 0h3m-5 1h1m1 0h1m-3 1h3m-3 1h1M3 30h21"/><path stroke="silver" d="M22 4h1m0 1h1m-4 1h1m3 0h1m-4 1h1m-4 1h1m3 0h1m3 0h1m-8 1h1m6 0h1m-7 1h1m3 0h1m1 0h1m-3 1h1m1 0h1m-5 1h1m1 0h1m1 0h1m-16 1h1m10 0h1m1 0h1m1 0h1M9 14h1m12 0h1m1 0h1m1 0h1m-5 1h1m1 0h1m1 0h1M9 16h2m11 0h1m1 0h1m1 0h1M9 17h1m12 0h1m1 0h1m1 0h1m-17 1h1m11 0h1m1 0h1m1 0h1m-5 1h1m1 0h1m1 0h1m-5 1h1m1 0h1m1 0h1m-5 1h1m1 0h1m1 0h1m-5 1h1m1 0h1m1 0h1m-5 1h1m1 0h1m1 0h1m-5 1h1m1 0h1m1 0h1m-5 1h1m1 0h1m1 0h1m-5 1h1m1 0h1m-3 1h1m1 0h1m-3 1h1m-1 1h1"/><path stroke="teal" d="M11 12h3m-5 1h2m2 0h1m1 0h1m-8 1h1m1 0h1m5 0h1m-9 1h1m4 0h2m-8 1h1m3 0h1m2 0h1m1 0h1M7 17h1m5 0h2m-8 1h2m-2 1h1m5 0h1m-6 1h1m2 0h1m-4 1h1m5 0h1"/><path stroke="navy" d="M12 13h1m-2 2h1m1 1h1m1 0h1m0 2h1m-3 1h1m1 0h1m-4 1h4m-2 1h1m-7 1h3m1 0h1"/><path stroke="green" d="M14 13h1m-4 1h5m-6 1h1m4 0h1m-4 2h1m-1 1h2m-3 1h2m-1 1h1m-1 1h1"/><path stroke="#00f" d="M12 15h1m-1 1h1m2 1h2m-3 1h2m-7 1h2m4 0h1m-7 1h2m-2 1h3m1 0h1m-2 1h1"/></svg>