<svg xmlns="http://www.w3.org/2000/svg" width="32" height="32" shape-rendering="crispEdges" viewBox="0 -0.5 32 32"><path stroke="#000" d="M4 1h4m8 0h6M3 2h1m1 0h1m1 0h1m7 0h2m1 0h1m1 0h1m1 0h1M2 3h1m1 0h4m6 0h1m1 0h6m1 0h1M1 4h1m1 0h2m2 0h1m5 0h3m5 0h3M1 5h3m3 0h1m4 0h1m1 0h1m1 0h1m5 0h2M0 6h1m1 0h1m4 0h1m3 0h1m1 0h1m1 0h2m5 0h2M0 7h2m1 0h1m3 0h1m2 0h3m2 0h2m4 0h1m1 0h1M0 8h3m4 0h1m1 0h1m1 0h1m3 0h1m1 0h4m1 0h2M0 9h1m1 0h2m1 0h1m1 0h2m1 0h1m4 0h2m1 0h1m1 0h4M1 10h6m1 0h2m5 0h1m1 0h4m2 0h1M1 11h1m1 0h1m1 0h1m1 0h2m6 0h1m7 0h1M2 12h5m1 0h1m6 0h1m7 0h1M8 13h1m6 0h1m7 0h1M8 14h1m5 0h2m7 0h1M8 15h1m4 0h1m1 0h1m7 0h1M8 16h1m3 0h1m1 0h2m7 0h1M8 17h1m2 0h1m1 0h1m1 0h2m4 0h2M0 18h1m7 0h1m1 0h1m1 0h1m2 0h1m1 0h4M1 19h1m6 0h2m1 0h1m4 0h2m1 0h1M0 20h1m1 0h6m1 0h2m6 0h4M1 21h2m1 0h1m1 0h1m1 0h2m-7 1h5m3 0h10m1 0h4m1 0h2m-18 1h1m16 0h1m-18 1h5m1 0h3m2 0h3m2 0h2m-18 1h1m16 0h1m-18 1h5m1 0h12m-18 1h1m16 0h1m-18 1h4m2 0h12"/><path stroke="#fff" d="M4 2h1m1 0h1m10 0h1m1 0h1m1 0h1m-7 1h1m6 0h1M13 5h1m-2 1h1m-3 2h1m5 0h1m4 0h1M1 9h1m7 0h1m7 0h1m1 0h1M7 10h1m8 0h1M2 11h1m1 0h1m1 0h1m9 0h1m1 0h1m-3 1h2m1 0h1M3 13h1m12 0h1m1 0h1M2 14h1m1 0h1m11 0h2m1 0h1M3 15h1m10 0h1m1 0h1m1 0h1M2 16h1m1 0h1m8 0h1m2 0h2m1 0h1M3 17h1m8 0h1m5 0h1M2 18h1m1 0h1m6 0h1m4 0h1M3 19h1m6 0h1m7 0h1m1 0h1M1 20h1m6 0h1m-6 1h1m1 0h1m1 0h1"/><path stroke="silver" d="M3 3h1M2 4h1m17 0h1m-2 1h3M1 6h1m18 0h2m-9 1h1m5 0h2m1 0h1M12 8h1m-2 1h1m1 0h1m-4 1h3m8 0h1m-12 1h2m1 0h1m5 0h3M1 12h1m8 0h3m7 0h2M1 13h1m2 0h3m3 0h2m1 0h1m5 0h3M1 14h1m3 0h2m3 0h3m7 0h2M1 15h1m2 0h3m3 0h2m7 0h3M1 16h1m3 0h2m3 0h2m8 0h2M1 17h1m2 0h3m3 0h1m8 0h2M1 18h1m3 0h2m-3 1h3m20 0h2m-6 1h3m1 0h2m-6 1h1m4 0h1m-11 2h1m4 0h1m5 0h3m-1 1h1m-14 1h1m4 0h1m5 0h3m-1 1h1m-14 1h1m2 0h3m2 0h2m1 0h3m-1 1h1m-15 1h15m-16 1h3m-3 1h2"/><path stroke="gray" d="M5 4h2m9 0h4M4 5h3m8 0h1m1 0h2M3 6h4m7 0h1m2 0h3M2 7h1m1 0h3m7 0h1m2 0h2M3 8h4m6 0h2M4 9h1m1 0h1m5 0h1m1 0h1M0 10h1m12 0h2m7 0h1M0 11h1m8 0h1m2 0h1m1 0h1m7 0h1M0 12h1m6 0h1m1 0h1m3 0h2m7 0h1M0 13h1m6 0h1m1 0h1m2 0h1m1 0h1m7 0h1M0 14h1m6 0h1m1 0h1m3 0h1m8 0h1M0 15h1m6 0h1m1 0h1m2 0h1m9 0h1M0 16h1m6 0h1m1 0h1m12 0h1M0 17h1m6 0h1m1 0h1m13 0h1M7 18h1m1 0h1M0 19h1m6 0h1"/><path stroke="#ff0" d="M17 11h1m0 1h1M2 13h1m14 0h1M3 14h1m14 0h1M2 15h1m14 0h1M3 16h1m14 0h1M2 17h1m14 0h1M3 18h1m-2 1h1"/><path stroke="navy" d="M21 18h6m-6 1h6m-6 1h1m4 0h1m-6 1h1m4 0h1m-6 1h1m4 0h1m-11 1h1m4 0h1m4 0h1m-11 1h1m3 0h2m3 0h2m-11 1h1m2 0h3m2 0h3m-11 1h1m-1 1h1m-2 1h2m-3 1h3m-3 1h2"/></svg>