<svg xmlns="http://www.w3.org/2000/svg" width="16" height="16" shape-rendering="crispEdges" viewBox="0 -0.5 16 16"><path stroke="gray" d="M0 0h9M0 1h1m8 0h1M0 2h1m9 0h1M0 3h1M0 4h1M0 5h1M0 6h1M0 7h1M0 8h1M0 9h1m-1 1h1m-1 1h1m-1 1h1m5 0h1m-7 1h1"/><path stroke="#fff" d="M1 1h7M1 2h4m1 0h2m1 0h1M1 3h3m3 0h1M1 4h2m5 0h2M1 5h1M1 6h1M1 7h1m8 0h2M1 8h1M1 9h1m-1 1h1m6 0h1m-8 1h2m5 0h1m-8 1h3m4 0h1m-1 1h1m-1 1h1"/><path stroke="silver" d="M8 1h1M8 2h1m1 3h1M9 6h1m-8 4h1m0 1h1m0 1h1m-4 1h6"/><path stroke="olive" d="M5 2h1M4 3h1m1 0h1M3 4h1m3 0h1m2 0h1M2 5h1m6 0h1m1 0h1M8 6h1m3 0h1M8 7h1m3 0h1M8 8h1m1 0h3m1 0h1M7 9h8m-8 1h1m6 0h1m-8 1h1m2 0h3m1 0h1m-8 1h1m6 0h1m-8 1h1m2 0h3m1 0h1m-8 1h1m6 0h1"/><path stroke="#ff0" d="M5 3h1M4 4h3M3 5h5M3 6h5M4 7h3M5 8h1m3 2h5m-5 1h1m3 0h1m-5 1h5m-5 1h1m3 0h1m-5 1h5"/><path stroke="#000" d="M8 3h4m-1 1h1M8 5h1m3 0h1m-3 1h2m1 0h1M9 7h1m3 0h1M9 8h1m3 0h1m1 1h1m-1 1h1M6 11h1m8 0h1M5 12h1m9 0h1m-1 1h1M0 14h7m8 0h1m-9 1h8"/><path stroke="maroon" d="M2 6h1M2 7h1M2 8h1M2 9h1m0 1h1m0 1h1"/><path stroke="red" d="M3 7h1M3 8h2M3 9h2m-1 1h1"/><path stroke="#00f" d="M7 7h1M6 8h2M5 9h2m-2 1h2m-2 1h1"/></svg>