<svg xmlns="http://www.w3.org/2000/svg" viewBox="0 -0.5 32 32" shape-rendering="crispEdges">
<path stroke="#000000" d="M0 0h1M20 0h3M18 1h2M23 1h2M17 2h1M22 2h2M25 2h1M16 3h1M21 3h1M23 3h1M26 3h1M15 4h1M20 4h1M23 4h1M27 4h1M14 5h1M19 5h1M23 5h1M27 5h1M13 6h1M19 6h1M23 6h1M28 6h1M12 7h1M19 7h1M23 7h1M28 7h1M11 8h1M19 8h1M23 8h1M28 8h1M10 9h1M19 9h1M22 9h1M28 9h1M9 10h1M19 10h1M21 10h1M28 10h1M8 11h4M19 11h1M21 11h1M28 11h1M7 12h7M19 12h1M21 12h1M28 12h1M6 13h9M19 13h1M21 13h1M28 13h1M5 14h11M19 14h1M21 14h1M28 14h1M4 15h13M19 15h1M21 15h1M28 15h1M4 16h13M19 16h1M21 16h1M28 16h1M3 17h15M19 17h1M21 17h1M28 17h1M3 18h15M19 18h1M21 18h1M28 18h1M3 19h15M19 19h1M21 19h1M28 19h1M3 20h15M19 20h1M21 20h1M28 20h1M3 21h15M19 21h2M27 21h1M3 22h15M26 22h1M3 23h11M17 23h1M25 23h1M3 24h8M12 24h1M15 24h1M17 24h1M24 24h1M3 25h7M11 25h1M14 25h1M17 25h1M23 25h1M3 26h6M10 26h1M13 26h1M17 26h1M22 26h1M3 27h5M9 27h1M17 27h1M21 27h1M3 28h4M8 28h10M20 28h1M3 29h3M17 29h1M19 29h1M3 30h2M17 30h2M3 31h15" />
<path stroke="#c0c0c0" d="M0 0h1M20 1h2M19 2h2M18 3h2M24 3h2M17 4h2M24 4h3M16 5h2M24 5h3M15 6h2M24 6h2M27 6h1M14 7h2M18 7h1M24 7h1M26 7h1M13 8h2M17 8h1M25 8h1M12 9h2M16 9h1M18 9h1M24 9h1M11 10h2M15 10h1M17 10h2M23 10h1M14 11h1M16 11h3M22 11h1M15 12h4M15 13h4M16 14h2M18 15h1M17 16h1M11 24h1M10 25h1M9 26h1M8 27h1M7 28h1M6 29h11M5 30h12" />
<path stroke="#ffffff" d="M0 0h1M22 1h1M21 2h1M24 2h1M20 3h1M19 4h1M18 5h1M17 6h2M16 7h2M15 8h2M18 8h1M14 9h2M17 9h1M13 10h2M16 10h1M12 11h2M15 11h1M20 11h1M14 12h1M20 12h1M20 13h1M20 14h1M20 15h1M20 16h1M20 17h1M20 18h1M20 19h1M20 20h1M14 23h3M13 24h2M16 24h1M12 25h2M15 25h2M11 26h2M14 26h3M10 27h7" />
<path stroke="#808080" d="M0 0h1M18 2h1M17 3h1M16 4h1M15 5h1M14 6h1M26 6h1M13 7h1M25 7h1M27 7h1M12 8h1M24 8h1M26 8h2M11 9h1M23 9h1M25 9h3M10 10h1M22 10h1M24 10h4M23 11h5M22 12h6M22 13h6M18 14h1M22 14h6M17 15h1M22 15h6M18 16h1M22 16h6M18 17h1M22 17h6M18 18h1M22 18h6M18 19h1M22 19h6M18 20h1M22 20h6M18 21h1M21 21h6M18 22h8M18 23h7M18 24h6M18 25h5M18 26h4M18 27h3M18 28h2M18 29h1" />
<path stroke="#ff0000" d="M0 0h1M22 3h1M21 4h2M20 5h3M20 6h3M20 7h3M20 8h3M20 9h2M20 10h1" />
</svg>