<svg xmlns="http://www.w3.org/2000/svg" width="32" height="32" shape-rendering="crispEdges" viewBox="0 -0.5 32 32"><path stroke="#000" d="M14 0h1m-2 1h1m1 0h1m-4 1h1m3 0h1m-6 1h1m5 0h1m-8 1h1m2 0h1m4 0h1M9 5h1m2 0h1m1 0h1m4 0h1M8 6h1m2 0h1m1 0h1m1 0h1m4 0h1M7 7h1m2 0h1m1 0h1m3 0h1m4 0h1M6 8h1m2 0h1m1 0h1m3 0h1m6 0h1M5 9h1m2 0h1m1 0h1m3 0h1m8 0h1M4 10h1m2 0h1m1 0h1m3 0h1m10 0h1M3 11h1m2 0h1m1 0h1m3 0h1m12 0h1M2 12h1m2 0h1m1 0h1m3 0h1m14 0h1M1 13h1m2 0h1m1 0h1m3 0h1m3 0h1m9 0h1m2 0h1M0 14h1m4 0h1m3 0h1m3 0h1m1 0h1m7 0h1m1 0h1m1 0h1M1 15h1m4 0h1m1 0h1m3 0h1m1 0h1m1 0h1m5 0h1m1 0h1m2 0h1M1 16h2m4 0h1m3 0h1m1 0h1m1 0h1m1 0h1m3 0h1m1 0h1m2 0h1M0 17h1m2 0h1m6 0h1m1 0h1m1 0h1m1 0h1m1 0h1m1 0h1m1 0h1m2 0h1M0 18h1m3 0h1m4 0h1m1 0h1m1 0h1m1 0h1m1 0h1m1 0h1m1 0h1m2 0h1M0 19h2m3 0h1m4 0h1m1 0h1m18 0h1M0 20h1m1 0h1m3 0h1m4 0h1m1 0h1m17 0h1M0 21h1m2 0h1m3 0h1m4 0h1m18 0h1M1 22h1m2 0h1m3 0h1m4 0h1m17 0h1M1 23h2m2 0h1m3 0h1m21 0h1M0 24h1m2 0h1m2 0h1m3 0h1m20 0h1M1 25h1m2 0h1m2 0h1m3 0h1m19 0h1M2 26h2m1 0h1m2 0h1m2 0h1m19 0h1M4 27h1m2 0h1m1 0h1m1 0h1m19 0h1M5 28h2m2 0h1m1 0h1m1 0h1m17 0h1M7 29h6m18 0h1m-1 1h1m-18 1h18"/><path stroke="#fff" d="M14 1h1m-2 1h3m-4 1h5m-6 1h2m1 0h4m-8 1h2m1 0h1m1 0h4M9 6h2m1 0h1m1 0h1m1 0h4M8 7h2m1 0h1m1 0h3m1 0h4M7 8h2m3 0h3m1 0h6M6 9h2m3 0h3m1 0h3m2 0h3M5 10h2m3 0h1m1 0h1m1 0h3m4 0h3M4 11h2m3 0h1m1 0h1m1 0h3m6 0h3M3 12h2m1 0h1m1 0h3m1 0h4m3 0h1m2 0h4M2 13h2m1 0h1m1 0h3m1 0h3m1 0h2m5 0h2m1 0h1M1 14h4m1 0h3m1 0h3m1 0h1m1 0h2m3 0h2m1 0h1M2 15h4m1 0h1m1 0h3m1 0h1m1 0h1m1 0h2m1 0h2m1 0h1M3 16h4m1 0h3m1 0h1m1 0h1m1 0h1m1 0h3m1 0h1M4 17h6m1 0h1m1 0h1m1 0h1m1 0h1m1 0h1m1 0h1M1 18h1m3 0h4m1 0h1m1 0h1m1 0h1m1 0h1m1 0h1m1 0h1M2 19h1m3 0h4m1 0h1m1 0h1M3 20h1m3 0h4m1 0h1m4 0h1m1 0h1m1 0h1m1 0h1m1 0h1m1 0h1M4 21h1m3 0h4m1 0h1m4 0h1m1 0h1m1 0h1m1 0h1m1 0h1M2 22h1m2 0h1m3 0h4m2 0h1m3 0h1m1 0h1m1 0h1m1 0h1m3 0h1M3 23h1m2 0h1m3 0h4m2 0h1m3 0h1m1 0h1m1 0h1m3 0h1M4 24h1m2 0h1m3 0h3m1 0h1m1 0h1m3 0h1m1 0h1m3 0h1m1 0h1M2 25h1m2 0h1m2 0h1m3 0h1m3 0h1m5 0h1m5 0h1M4 26h1m1 0h1m2 0h1m5 0h1m3 0h1m2 0h1m2 0h1m3 0h1M5 27h1m12 0h1m1 0h1m3 0h1m1 0h1M7 28h1m9 0h1m1 0h1m1 0h1m1 0h1m1 0h1m1 0h1m-12 1h1m1 0h1m1 0h1m1 0h1m1 0h1m1 0h1m1 0h1"/><path stroke="gray" d="M10 8h1M9 9h1m8 0h2M8 10h1m2 0h1m5 0h1m1 0h2M7 11h1m2 0h1m5 0h2m3 0h1m-6 1h1m1 0h1m1 0h2m-3 1h1m1 0h1m-4 1h3m-2 1h1m6 0h1m-2 1h1M1 17h2m21 0h1M3 18h1m19 0h1M4 19h1m9 0h17M1 20h1m3 0h1m8 0h2m13 0h1M2 21h1m3 0h1m7 0h1m1 0h1m11 0h1M7 22h1m6 0h1m2 0h1m9 0h1M8 23h1m5 0h1m3 0h1m7 0h1M1 24h1m7 0h1m4 0h1m4 0h1m5 0h1M3 25h1m6 0h1m3 0h1m3 0h1m1 0h1m3 0h1m1 0h1m-13 1h1m2 0h1m3 0h1m1 0h1m3 0h1M6 27h1m3 0h1m1 0h3m1 0h1m5 0h1m5 0h1M8 28h1m1 0h1m1 0h1m1 0h2m13 0h1m-16 1h1m15 0h1m-17 1h1"/><path stroke="silver" d="M18 10h1m-1 1h3m-4 1h1m-1 1h2m1 0h1m5 0h1m-1 1h1m-2 1h1m-2 1h1m-2 1h1M2 18h1m19 0h1M3 19h1m0 1h1m25 0h1M1 21h1m3 0h1m23 0h2M3 22h1m2 0h1m21 0h1m1 0h1M4 23h1m2 0h1m19 0h1m2 0h1M2 24h1m2 0h1m2 0h1m17 0h1m3 0h1M6 25h1m2 0h1m3 0h1m11 0h1m4 0h1M7 26h1m2 0h1m1 0h2m10 0h1m1 0h1m3 0h1M8 27h1m14 0h1m3 0h1m2 0h1m-3 1h1m1 0h1m-2 1h1m-15 1h16"/><path stroke="#ff0" d="M16 20h1m1 0h1m1 0h1m1 0h1m1 0h1m1 0h1m1 0h1m-14 1h1m1 0h1m1 0h1m1 0h1m1 0h1m1 0h1m1 0h1m-12 1h1m1 0h1m1 0h1m1 0h1m1 0h1m1 0h1m-12 1h1m1 0h1m1 0h1m1 0h1m1 0h1m1 0h1m3 0h1m-14 1h1m1 0h1m1 0h1m1 0h1m1 0h1m3 0h1m-14 1h1m1 0h1m1 0h1m1 0h1m1 0h1m3 0h1m1 0h1m-14 1h1m1 0h1m1 0h1m7 0h1m-14 1h1m1 0h1m1 0h1m1 0h1m3 0h1m3 0h1m-14 1h1m1 0h1m1 0h1m1 0h1m1 0h1m1 0h1m-12 1h1m1 0h1m1 0h1m1 0h1m1 0h1m1 0h1m1 0h1"/></svg>