<svg xmlns="http://www.w3.org/2000/svg" width="16" height="16" shape-rendering="crispEdges" viewBox="0 -0.5 16 16"><path stroke="gray" d="M6 1h4M4 2h2m1 0h1m2 0h2M2 9h1"/><path stroke="silver" d="M6 2h1M4 3h2"/><path stroke="teal" d="M8 2h2M7 3h1m2 1h1M3 8h1m2 0h1M3 9h1m6 2h1"/><path stroke="#000" d="M3 3h1m2 0h1m2 0h1m2 0h1M3 4h1m2 0h1m2 0h1m2 0h1M4 5h1m2 0h1m2 0h1m2 0h1m0 1h2M4 7h1m2 0h1m2 0h1m2 0h1M2 8h1m2 0h1m2 0h1m2 0h1m1 0h2M1 9h1m2 0h1m2 0h1m2 0h1m2 0h2M3 10h1m8 0h1M3 11h1m8 0h1m-9 1h2m4 0h2m-6 1h4"/><path stroke="green" d="M8 3h1m1 0h2M5 4h1m5 0h1M9 8h1M8 9h1m-2 1h1"/><path stroke="#fff" d="M4 4h1"/><path stroke="#00f" d="M7 4h2M5 9h2m-3 1h3m1 0h2m-6 1h3m1 0h1m0 1h1"/><path stroke="olive" d="M2 5h1m2 0h1m2 0h1m2 0h1M0 6h2m2 0h1m2 0h1m2 0h1M2 7h2m1 0h2m1 0h2m1 0h2M1 8h1m2 0h1m2 0h1m2 0h1"/><path stroke="#ff0" d="M3 5h1m2 0h1m2 0h1m2 0h1M2 6h2m1 0h2m1 0h2m1 0h3"/><path stroke="navy" d="M12 8h1M9 9h1m1 0h2m-3 1h2m-5 1h1m1 0h1m1 0h1m-6 1h3"/></svg>