<svg xmlns="http://www.w3.org/2000/svg" width="48" height="48" shape-rendering="crispEdges" viewBox="0 -0.5 48 48"><path stroke="gray" d="M19 0h10M16 1h3m10 0h3M14 2h2m16 0h2M12 3h2m20 0h2M10 4h2m24 0h2M9 5h1m28 0h1M8 6h1m30 0h1M7 7h1M6 8h1M5 9h1m-2 1h1m-1 1h1m-2 1h1m-2 1h2m-2 1h1m-1 1h1m-2 1h1m-1 1h1m-1 1h1m25 0h6M0 19h1m24 0h2m6 0h2M0 20h1m23 0h1M0 21h1m22 0h1M0 22h1m21 0h1M0 23h1m20 0h1M0 24h1m20 0h1M0 25h1m19 0h1M0 26h1m19 0h1M0 27h1m19 0h1M0 28h1m19 0h1M1 29h1m18 0h1M1 30h1m18 0h1M1 31h1m19 0h1M2 32h1m18 0h1m14 0h1M2 33h1m19 0h1m12 0h1M3 34h1m19 0h1m10 0h1m2 0h1M3 35h1m20 0h1m11 0h3M4 36h1m32 0h2M4 37h1m28 0h1m4 0h1M5 38h1m27 0h1M6 39h1m27 0h1M7 40h1m27 0h1M8 41h1"/><path stroke="silver" d="M19 1h1m-4 1h1m1 0h1m1 0h1m-6 1h1m1 0h1m1 0h1m-6 1h1m1 0h1m-4 1h1m1 0h1m-4 1h1M9 7h1m1 0h1m-2 1h1m0 1h1m-7 3h1m4 0h1m-7 1h1m1 0h1m4 0h1m1 0h1M3 14h1m1 0h1m4 0h1m1 0h1m-9 1h1m6 0h1m1 0h1M2 16h2m6 0h1m1 0h1m-9 1h1m6 0h1m-9 1h1m6 0h1m6 0h1M4 19h1m7 0h1m5 0h1m8 0h1m1 0h1m1 0h1M2 20h2m7 0h1m13 0h1M3 21h2m5 0h1m1 0h1m11 0h1M2 22h1m2 0h1m10 0h1m6 0h1m8 0h1m1 0h1M1 23h1m1 0h2m1 0h1m3 0h1m11 0h1m6 0h1m1 0h1m1 0h1m1 0h1M2 24h1m1 0h1m4 0h1m1 0h1m1 0h1m14 0h1m1 0h1m1 0h1m1 0h1m1 0h1M1 25h1m1 0h1m1 0h1m2 0h1m3 0h1m1 0h1m6 0h1m5 0h1m1 0h1m1 0h1m1 0h1m1 0h1M2 26h1m1 0h1m1 0h1m2 0h1m1 0h1m1 0h1m14 0h1m1 0h1m1 0h1m1 0h1m1 0h1M1 27h1m1 0h1m1 0h1m1 0h1m2 0h3m1 0h1m12 0h1m1 0h1m1 0h1m1 0h1m1 0h1m1 0h1M4 28h1m1 0h1m1 0h1m4 0h1m14 0h1m1 0h1m1 0h1m1 0h1m1 0h1M3 29h1m1 0h1m1 0h1m1 0h1m3 0h3m11 0h1m1 0h1m1 0h1m1 0h1m1 0h1m1 0h1M4 30h1m1 0h1m9 0h1m4 0h1m6 0h1m1 0h1m1 0h1m1 0h1m1 0h1M3 31h1m23 0h1m1 0h1m1 0h1m1 0h1m1 0h1M4 32h1m1 0h1m21 0h1m1 0h1m1 0h1m1 0h1m-8 1h1m1 0h1m1 0h1m1 0h1M6 34h1m21 0h1m1 0h1m1 0h1m-6 1h1m1 0h1m1 0h1m3 1h2m-1 1h2m-4 1h1m2 0h1m-3 1h2m0 1h1m0 1h1m0 1h1m0 1h1m0 1h1m0 1h1"/><path stroke="teal" d="M20 1h2m3 0h2m1 0h1m0 1h3M11 6h1m-2 1h1m1 0h1M6 9h1m1 0h1m-2 1h1m2 0h1m-1 1h1m-2 1h1m24 2h1M2 17h1m-1 1h1m-2 1h2m-2 1h1m32 0h1M1 21h2m32 0h1M1 22h1m1 0h1m32 0h1M2 23h1m33 0h2M1 24h1m1 0h1m1 0h1m31 0h1M2 25h1m1 0h1m1 0h1m30 0h2M1 26h1m1 0h1m1 0h1m1 0h1m30 0h1M2 27h1m1 0h1m1 0h1m31 0h1M1 28h3m1 0h1m1 0h1m30 0h1M2 29h1m1 0h1m1 0h1m1 0h1m29 0h1M2 30h2m1 0h1m1 0h1m29 0h2M2 31h1m1 0h2m2 0h2m27 0h1M3 32h1m1 0h1m2 0h2m27 0h1M3 33h4m1 0h1m27 0h1M4 34h2m1 0h1m27 0h1M4 35h4m17 0h1m7 0h2M5 36h3m19 0h6M5 37h3m-2 1h2m-1 1h2m-1 1h2"/><path stroke="#00f" d="M22 1h3m2 0h1m-6 1h5m-2 1h2m5 0h2m-1 1h1m1 1h1M18 6h1m-2 1h2m-7 1h1m2 0h3m-5 1h1m6 1h3M9 11h1m9 0h2M8 12h1m2 0h2m16 1h1m2 0h2m-15 1h1m8 0h3m1 0h2m-16 1h6m2 0h1m2 0h6m-18 1h6m4 0h1m1 0h1m5 0h1m-19 1h5m1 0h1m1 0h2m9 0h1m-23 1h3m2 0h8m-14 1h3m6 0h3m14 0h2m-28 1h3m22 0h4m-4 1h5m-32 1h2m25 0h5m1 0h1m-34 1h2m26 0h5m1 0h1m-7 1h6m-35 1h1m29 0h4m1 0h1m-36 1h1m29 0h3m1 0h1M8 27h2m30 0h2m1 0h1M9 28h4m27 0h3m-33 1h3m27 0h2M8 30h8m24 0h1m1 0h1M7 31h1m2 0h8m21 0h3M7 32h1m2 0h9m20 0h1m2 0h1M9 33h11M8 34h12M8 35h13M8 36h14M8 37h13M8 38h12M9 39h11m9 0h3m-22 1h10m6 0h5m1 0h1m-22 1h9m1 0h1m5 0h1m1 0h1m1 0h1m1 0h1m-22 1h3m1 0h1m1 0h1m1 0h1m5 0h1m1 0h1m1 0h1m-16 1h1m1 0h1m1 0h1"/><path stroke="#fff" d="M17 2h1m1 0h1m-6 1h1m1 0h1m1 0h1m-7 1h2m1 0h1m-6 1h3m4 0h1M9 6h2M8 7h1m4 0h2M7 8h3m1 0h1M7 9h1m1 0h1m-5 1h2m1 0h1m-4 1h3m-4 1h1m1 0h1m-2 1h1m1 0h1m1 0h1m2 0h1m-9 1h1m1 0h4m1 0h1m1 0h1M3 15h1m1 0h6m1 0h1m1 0h2M4 16h6m1 0h1m-9 1h1m1 0h6m1 0h1m-9 1h6m-7 1h1m1 0h7m-8 1h7m1 0h1m3 0h1m9 0h1m1 0h1m1 0h1m1 0h1M5 21h5m1 0h1m1 0h1m1 0h1m9 0h1m1 0h3m1 0h1m1 0h1M4 22h1m1 0h5m3 0h1m9 0h1m1 0h3m1 0h1M5 23h1m1 0h3m3 0h1m9 0h1m1 0h3M6 24h3m1 0h1m1 0h1m9 0h1m1 0h3M7 25h1m1 0h1m1 0h1m1 0h1m9 0h3M8 26h1m3 0h1m9 0h5m-6 1h1m1 0h3m-4 1h1m1 0h3m-6 1h1m1 0h1m1 0h1m-4 1h1m1 0h1m1 0h1m-4 1h1m1 0h1m-4 1h1m1 0h1m1 0h1m-4 1h1m1 0h1m-2 1h1m1 0h1m7 3h2m-1 1h2"/><path stroke="green" d="M21 2h1m5 0h2m-9 1h5m2 0h5M17 4h16m1 0h2M14 5h1m1 0h1m1 0h17m1 0h2M13 6h5m1 0h20M15 7h2m2 0h21M13 8h2m3 0h22M10 9h1m1 0h1m1 0h27M9 10h1m1 0h9m3 0h18m1 0h1M8 11h1m2 0h8m2 0h19m1 0h1M7 12h1m5 0h28m1 0h1M8 13h1m1 0h1m3 0h15m1 0h2m2 0h8m1 0h1m-30 1h5m1 0h8m3 0h1m3 0h6m1 0h1m1 0h1m-29 1h2m6 0h2m1 0h2m6 0h7m1 0h1m-31 1h4m6 0h4m1 0h1m1 0h5m1 0h5m1 0h1m1 0h1m-32 1h4m5 0h1m1 0h1m2 0h9m1 0h5m1 0h1m1 0h1m-35 1h3m4 0h1m15 0h9m1 0h1m-29 1h2m1 0h3m13 0h4m2 0h3m1 0h1m-29 1h7m12 0h2m4 0h1m1 0h1m1 0h1m-33 1h1m1 0h7m14 0h1m5 0h1m1 0h1m-33 1h1m1 0h1m1 0h5m24 0h1m-33 1h7m-7 1h7m-6 1h5m-6 1h6m-7 1h1m1 0h5m-6 1h6m-4 1h4m-3 1h3M6 31h1m11 0h3m-2 1h2M7 33h1m12 0h2m-2 1h3m-2 1h3m-2 1h3m-4 1h6m-7 1h9m-9 1h8m-7 1h5m-3 1h3m-4 1h3"/><path stroke="#000" d="M40 7h1m0 1h1m0 1h1m0 1h1m-1 1h1m0 1h1m-1 1h1m0 1h1m-1 1h1m0 1h1m-1 1h1m-1 1h1m0 1h1m-13 1h1m11 0h1m-12 1h1m10 0h1m-11 1h1m9 0h1m-10 1h1m8 0h1m-10 1h1m8 0h1m-9 1h1m7 0h1m-9 1h1m7 0h1m-9 1h1m7 0h1m-9 1h1m7 0h1m-9 1h1m6 0h1m-8 1h1m6 0h1m-9 1h1m7 0h1m-9 1h1m6 0h1m-9 1h2m6 0h1m-10 1h1m1 0h1m5 0h1m-10 1h1m3 0h1m4 0h1m-20 1h2m6 0h2m5 0h1m2 0h1m-17 1h6m8 0h3m-2 1h1m0 1h1m0 1h1m0 1h1M9 42h1m36 0h1m-37 1h2m24 0h2m9 0h1m-36 1h2m20 0h2m11 0h1m-34 1h2m16 0h2m13 0h1m-32 1h3m10 0h3m14 0h1m-28 1h10m14 0h3"/><path stroke="navy" d="M40 8h1m0 1h1m-1 1h1m-2 1h1m1 0h1m-2 1h1m1 0h1m-2 1h1m-2 1h1m1 0h1m-2 1h1m1 0h1m-4 1h1m1 0h1m1 0h1m-4 1h1m1 0h1m-12 1h1m9 0h1m1 0h1m-2 1h1m1 0h1m-4 1h1m1 0h1m-2 1h1m1 0h1m-4 1h1m1 0h1m-2 1h1m1 0h1m-2 1h2m-3 1h1m1 0h1m-4 1h1m1 0h2m-5 1h1m1 0h3m-4 1h4m-5 1h4m-5 1h1m1 0h3m-4 1h4m-6 1h2m1 0h2m-6 1h6m-6 1h5m-4 1h4m-3 1h2m-14 2h4m-5 1h1m3 0h2m-14 1h1m10 0h1m1 0h2M9 41h2m9 0h1m1 0h1m3 0h1m1 0h1m1 0h1m1 0h1m1 0h2m-26 1h2m3 0h1m1 0h1m1 0h1m1 0h1m3 0h1m1 0h1m1 0h1m1 0h6m-25 1h3m1 0h1m1 0h1m1 0h16m-22 1h20m-18 1h16m-13 1h10"/><path stroke="#0ff" d="M28 19h1m1 0h1m1 0h1m-6 1h1m1 0h1m1 0h1m1 0h1m-8 1h1m3 0h1m1 0h1m1 0h1m-10 1h1m3 0h1m1 0h1m1 0h1m1 0h1m-12 1h1m3 0h1m1 0h1m1 0h1m1 0h1m-12 1h1m3 0h1m1 0h1m1 0h1m1 0h1m1 0h1m-14 1h1m3 0h1m1 0h1m1 0h1m1 0h1m1 0h1m1 0h1m-16 1h1m5 0h1m1 0h1m1 0h1m1 0h1m1 0h1m1 0h1m-16 1h1m3 0h1m1 0h1m1 0h1m1 0h1m1 0h1m1 0h1m-16 1h1m1 0h1m3 0h1m1 0h1m1 0h1m1 0h1m1 0h1m1 0h1m-16 1h1m1 0h1m1 0h1m1 0h1m1 0h1m1 0h1m1 0h1m1 0h1m-14 1h1m1 0h1m1 0h1m1 0h1m1 0h1m1 0h1m1 0h1m-14 1h1m1 0h1m1 0h1m1 0h1m1 0h1m1 0h1m1 0h1m1 0h1m-14 1h1m1 0h1m1 0h1m1 0h1m1 0h1m1 0h1m1 0h1m-12 1h1m1 0h1m1 0h1m1 0h1m1 0h1m1 0h1m-10 1h1m1 0h1m1 0h1m1 0h1m1 0h1m-8 1h1m1 0h1m1 0h1m1 0h1"/><path stroke="maroon" d="M39 36h1m-1 1h2m-2 1h3m-2 1h3m-2 1h3m-8 1h1m5 0h3m-8 1h1m5 0h3m-8 1h1m5 0h3m-8 1h1m5 0h2m-7 1h1m4 0h2m-6 1h1m2 0h2m-4 1h1"/><path stroke="red" d="M38 38h1m-1 1h2m-4 1h1m2 0h2m-4 1h1m2 0h2m-4 1h1m2 0h2m-4 1h1m2 0h2m-4 1h1m2 0h2m-4 1h1m2 0h1m-3 1h1"/><path stroke="#f0f" d="M37 39h1m0 1h1m0 1h1m0 1h1m0 1h1m0 1h1m0 1h1m-1 1h1"/></svg>