<svg xmlns="http://www.w3.org/2000/svg" width="32" height="32" shape-rendering="crispEdges" viewBox="0 -0.5 32 32"><path stroke="gray" d="M16 1h1m-2 1h1m-2 1h1m-2 1h1m-2 1h1M6 6h6M5 7h1m4 0h1m4 0h3M4 8h1m4 0h1m3 0h2m3 0h2M3 9h1m4 0h1m3 0h1m12 0h3M3 10h1m3 0h1m3 0h1m-9 1h1m2 0h1m4 0h1m-9 1h1m1 0h1m4 0h1M1 13h2m-3 1h1m-1 1h1m24 0h1M0 16h1m24 0h1M0 17h1m26 0h1M1 18h1m24 0h1M1 19h1m24 0h1M1 20h1m-1 1h1m0 1h1m24 0h1M2 23h1m24 0h1M2 24h1m-1 1h1m0 1h1m-1 1h1m-1 1h1"/><path stroke="silver" d="M16 2h1m0 1h1m0 1h1m0 1h1m0 1h1m0 1h1M6 8h1m1 0h1m13 0h1M5 9h1m1 0h1m5 0h1m9 0h1M6 10h1m5 0h1m1 0h1m9 0h1M5 11h1m7 0h1m11 0h1m-14 1h1m13 0h1M3 13h23m1 0h1m0 1h1M1 15h1m1 0h1m1 0h1m1 0h1m1 0h1m1 0h1m1 0h1m1 0h1m1 0h1m1 0h1m1 0h1m1 0h2m4 0h1M2 16h1m1 0h1m1 0h1m1 0h1m1 0h1m1 0h1m1 0h1m1 0h1m1 0h1m1 0h1m1 0h1m1 0h1m5 0h1M1 17h1m1 0h1m1 0h1m1 0h1m1 0h1m1 0h1m1 0h1m1 0h1m1 0h1m1 0h1m1 0h1m1 0h1m1 0h1m3 0h1M2 18h1m1 0h1m1 0h1m1 0h1m1 0h1m1 0h1m1 0h1m1 0h1m1 0h1m1 0h1m1 0h1m1 0h1m3 0h1M3 19h1m1 0h1m1 0h1m1 0h1m1 0h1m1 0h1m1 0h1m1 0h1m1 0h1m1 0h1m1 0h1m1 0h1M2 20h1m1 0h1m1 0h1m1 0h1m1 0h1m1 0h1m1 0h1m1 0h1m1 0h1m1 0h1m1 0h1m1 0h1m1 0h1M3 21h1m1 0h1m1 0h1m1 0h1m1 0h1m1 0h1m1 0h1m1 0h1m1 0h1m1 0h1m1 0h1m1 0h1M4 22h1m1 0h1m1 0h1m1 0h1m1 0h1m1 0h1m1 0h1m1 0h1m1 0h1m1 0h1m1 0h1m1 0h1M3 23h1m1 0h1m1 0h1m1 0h1m1 0h1m1 0h1m1 0h1m1 0h1m1 0h1m1 0h1m1 0h1m1 0h1M4 24h1m1 0h1m1 0h1m1 0h1m1 0h1m1 0h1m1 0h1m1 0h1m1 0h1m1 0h1m1 0h1m1 0h2M3 25h1m1 0h1m1 0h1m1 0h1m1 0h1m1 0h1m1 0h1m1 0h1m1 0h1m1 0h1m1 0h1m1 0h1m1 0h1M4 26h1m1 0h1m1 0h1m1 0h1m1 0h1m1 0h1m1 0h1m1 0h1m1 0h1m1 0h1m1 0h1m1 0h1M5 27h1m1 0h1m1 0h1m1 0h1m1 0h1m1 0h1m1 0h1m1 0h1m1 0h1m1 0h1m1 0h1m1 0h1"/><path stroke="#000" d="M17 2h1m0 1h1m0 1h1m0 1h1m0 1h1m0 1h1m0 1h1m-4 1h1m3 0h1m-4 1h1m3 0h1m2 0h2m-4 1h1m2 0h1m-8 1h1m4 0h1m1 0h1m-2 1h2m-5 1h1m3 0h1m-4 1h1m3 0h1m-5 1h1m4 0h1m-6 1h1m3 0h1m-4 1h1m1 0h1m-3 1h3m-3 1h1m1 0h1m-3 1h3m-2 1h2m-2 1h2m-2 1h2m-2 1h2m-1 1h1m-1 1h1m-1 1h1M4 29h25"/><path stroke="#fff" d="M15 3h2m-3 1h4m-5 1h6m-7 1h8M6 7h4m1 0h4m3 0h3M5 8h1m4 0h3m2 0h1m4 0h2M4 9h1m4 0h3m2 0h1m6 0h2M4 10h1m3 0h3m2 0h1m8 0h2M4 11h1m2 0h4m1 0h1m9 0h3M4 12h1m1 0h4m1 0h1m11 0h3m0 1h1M1 14h24m1 0h2m-1 1h2m-2 1h3m-2 1h1"/><path stroke="#ff0" d="M7 8h1M6 9h1m-2 1h1m20 0h2m-1 1h1M2 15h1m1 0h1m1 0h1m1 0h1m1 0h1m1 0h1m1 0h1m1 0h1m1 0h1m1 0h1m1 0h1M1 16h1m1 0h1m1 0h1m1 0h1m1 0h1m1 0h1m1 0h1m1 0h1m1 0h1m1 0h1m1 0h1m1 0h1M2 17h1m1 0h1m1 0h1m1 0h1m1 0h1m1 0h1m1 0h1m1 0h1m1 0h1m1 0h1m1 0h1m1 0h1M3 18h1m1 0h1m1 0h1m1 0h1m1 0h1m1 0h1m1 0h1m1 0h1m1 0h1m1 0h1m1 0h1m1 0h1M2 19h1m1 0h1m1 0h1m1 0h1m1 0h1m1 0h1m1 0h1m1 0h1m1 0h1m1 0h1m1 0h1m1 0h1M3 20h1m1 0h1m1 0h1m1 0h1m1 0h1m1 0h1m1 0h1m1 0h1m1 0h1m1 0h1m1 0h1m1 0h1M2 21h1m1 0h1m1 0h1m1 0h1m1 0h1m1 0h1m1 0h1m1 0h1m1 0h1m1 0h1m1 0h1m1 0h1m1 0h1M3 22h1m1 0h1m1 0h1m1 0h1m1 0h1m1 0h1m1 0h1m1 0h1m1 0h1m1 0h1m1 0h1m1 0h1M4 23h1m1 0h1m1 0h1m1 0h1m1 0h1m1 0h1m1 0h1m1 0h1m1 0h1m1 0h1m1 0h1m1 0h1M3 24h1m1 0h1m1 0h1m1 0h1m1 0h1m1 0h1m1 0h1m1 0h1m1 0h1m1 0h1m1 0h1m1 0h1M4 25h1m1 0h1m1 0h1m1 0h1m1 0h1m1 0h1m1 0h1m1 0h1m1 0h1m1 0h1m1 0h1m1 0h1M5 26h1m1 0h1m1 0h1m1 0h1m1 0h1m1 0h1m1 0h1m1 0h1m1 0h1m1 0h1m1 0h1m1 0h1M4 27h1m1 0h1m1 0h1m1 0h1m1 0h1m1 0h1m1 0h1m1 0h1m1 0h1m1 0h1m1 0h1m1 0h1"/><path stroke="green" d="M16 8h1m-1 1h4m-4 1h3m-5 1h1m2 0h4m-5 1h1m3 0h1"/><path stroke="teal" d="M17 8h1m-3 2h1m3 0h2m-8 2h1m4 0h2"/><path stroke="#00f" d="M15 9h1m-1 2h2m-3 1h2m1 0h1m3 0h1"/><path stroke="navy" d="M21 11h1"/><path stroke="olive" d="M28 11h1m-1 1h1m-1 8h1m-1 6h1m-1 1h1M4 28h25"/></svg>