<svg xmlns="http://www.w3.org/2000/svg" width="48" height="48" shape-rendering="crispEdges" viewBox="0 -0.5 48 48"><path stroke="#818181" d="M19 0h7M15 1h3m10 0h1M12 2h3M9 4h2m17 1h1m2 1h1m1 1h1M4 9h1m18 0h1M3 11h1m22 0h1m5 0h1M3 12h1m-2 1h1m19 0h1m-8 1h1M1 15h1m13 0h1m9 0h1m-13 1h1m4 0h1M0 17h1m15 2h1m-4 4h1m4 0h1m-6 1h1"/><path stroke="#fff" d="M18 1h1m-3 1h1m2 0h1m1 0h1M12 3h1m5 0h1m1 0h1M11 4h1m2 0h1m4 0h1M9 5h2m2 0h2m2 0h1M8 6h3m2 0h1m2 0h1m1 0h1M7 7h7M6 8h4M5 9h1m2 0h2m-2 1h2m-3 1h1m1 1h1m-5 1h1m-2 1h1m1 0h1m-2 1h1m20 5h1m1 0h1m1 0h1m1 0h1m-8 1h1m1 0h3m1 0h1m1 0h1m-10 1h1m1 0h3m1 0h1m-8 1h1m1 0h3m-6 1h1m1 0h3m-4 1h3m-4 1h5m-6 1h1m1 0h3m-4 1h1m1 0h3m-6 1h1m1 0h1m1 0h1m-4 1h1m1 0h1m1 0h1m-4 1h1m1 0h1m-4 1h1m1 0h1m1 0h1m-4 1h1m1 0h1m-2 1h1m9 3h2m-1 1h2"/><path stroke="#cff" d="M19 1h1m-3 1h1m7 0h1M15 3h1m-1 2h1m-2 1h1m-1 1h1m-1 1h2m4 0h1M7 9h1m6 0h1m-9 1h2m5 0h2m-7 1h1m-3 1h2m1 2h1m4 0h1m-3 2h1"/><path stroke="#9cf" d="M20 1h2m-4 1h1m3 0h2m-1 1h1m-4 1h1m2 0h1m-8 1h1m2 0h2m-6 1h1m1 0h1m1 0h5m-8 1h1m2 0h1m-4 1h1m2 0h1m-4 1h4M5 11h1m5 0h1m-8 1h2m2 0h1m1 0h1m-8 1h2m2 0h3m3 0h1M3 14h1m3 0h2m4 0h1M4 15h1m1 0h2m1 0h4m-9 1h2m-5 1h1m2 0h2m-5 1h1m2 0h2m-2 1h2m-2 1h1"/><path stroke="#a6caf0" d="M22 1h1m3 0h1m0 1h1m1 0h1M16 3h1m7 0h1m2 0h4M15 4h1m8 0h1m2 0h4m-6 1h1M15 7h1m6 0h1m-8 2h1m6 0h1m-7 1h3M6 11h1m2 0h2m1 0h1m2 0h1m-5 1h1m-6 1h1m-2 1h1m5 0h1m-1 2h1m0 1h1"/><path stroke="silver" d="M23 1h1m1 0h1m2 1h1M12 4h1M7 6h1m15 2h1m4 1h1m-12 2h1m-2 1h2m-1 1h1m2 0h1m-1 2h1m-2 1h1M0 19h1m21 4h1m-2 2h1m-1 5h1"/><path stroke="#b2b2b2" d="M24 1h1M14 3h1m-2 1h1m19 2h2M6 7h1m16 0h1M5 8h1m-2 2h1m22 0h1m-1 1h1m-8 1h1m-4 2h3m7 0h1m-10 1h1m-6 2h1m1 0h1m-1 1h2m-2 1h1"/><path stroke="#9cc" d="M27 1h1m2 1h1m0 1h1m-1 1h1m-6 1h1m3 0h2m-12 6h1m-8 4h1m-3 2h1m0 1h1"/><path stroke="#666" d="M29 1h1m1 1h2m-4 10h2m-2 1h1m-10 8h1m1 0h1m-5 1h2m-3 2h1m2 0h1m-4 1h1m-5 1h1M1 30h1m-1 1h1m-1 1h1m0 1h1m-1 1h1m34 0h1M3 35h1m34 0h1m0 1h1m-7 1h1"/><path stroke="#e3e3e3" d="M15 2h1m-3 1h1m-2 3h1M6 9h1m-2 1h1m4 0h1m7 2h2m-2 1h2"/><path stroke="#6cf" d="M20 2h1m-2 1h1m1 0h2m-5 1h1m2 0h2m-5 1h1m2 0h4m-8 2h2m-2 1h2m-7 6h1M2 15h2m4 0h1m-7 1h2m2 0h2m1 0h2m-9 1h2m2 0h1m-4 1h1m3 0h1m-5 1h1m2 0h1m1 0h1m-7 1h1m2 0h1m1 0h1m-2 1h1"/><path stroke="#c0dcc0" d="M24 2h1m1 2h1M11 5h1m-1 3h1m1 0h1m8 0h1M13 9h1m-3 1h1m3 0h1M4 11h1m10 1h1m-2 1h1"/><path stroke="#ccf" d="M26 2h1m-2 1h2m-2 1h1m-6 3h2m-1 1h1m-2 1h2m-10 1h1m6 0h1m-7 1h2m1 0h1m1 0h2m-8 1h3m-5 1h3m-3 1h1"/><path stroke="#a0a0a4" d="M11 3h1m20 0h1M8 5h1m18 0h1m5 0h2M25 6h1m6 0h1m2 0h1m-15 4h1m5 2h2m-14 1h1m5 0h1m1 0h1m3 0h1m-2 1h1m-12 2h1"/><path stroke="#80ffff" d="M17 3h1m-2 1h2m18 20h1m-1 2h1m-1 2h1m-2 1h1m-2 1h1m-2 1h1m1 0h1m-4 1h1m1 0h1m-4 1h1m1 0h1m-8 1h1m1 0h1m1 0h1m1 0h1m-6 1h1m1 0h1m1 0h1"/><path stroke="#5f5f5f" d="M33 3h1m2 17h1m3 0h1m0 1h1m-1 1h1m-25 1h1m-2 1h1m-6 10h1"/><path stroke="#99c" d="M32 4h2m-2 1h1m-9 1h1m-1 1h1M2 14h1m-2 2h1m-2 2h1m15 2h1M4 21h1m-1 1h1m-1 1h1"/><path stroke="#777" d="M34 4h1m0 3h2m-14 7h2m-6 10h1m-6 1h1m1 0h1m-5 2h1m-3 1h2m-3 2h1m-1 2h1"/><path stroke="#333" d="M35 4h1m0 1h1m0 1h1m0 1h1m0 1h1m0 2h1m-1 2h1m-6 1h1m5 0h1m-7 1h1m1 0h2m1 0h1m1 0h1m-4 1h1m1 0h1m-11 1h1m8 0h1m1 0h1m-2 1h1m1 0h1m-10 1h1m1 0h1m2 0h1m4 0h1m-10 1h1m1 0h1m5 0h1m-9 1h1m2 0h1m3 0h1m1 0h1m-9 1h2m5 0h1m-7 1h2m1 0h1m1 0h1m1 0h1m-7 1h2m1 0h1m1 0h1m-6 1h1m1 0h1m1 0h1m-4 1h1m1 0h1m1 0h1m-5 1h2m1 0h1m1 0h1m-6 1h1m1 0h1m1 0h1m-5 1h2m1 0h1m1 0h1m-6 1h1m1 0h1m-3 1h2m-3 1h2m1 0h1m-4 1h1m1 0h1m-31 1h1m2 0h1m7 0h1m15 0h3m-28 1h1m1 0h1m1 0h1m1 0h1m1 0h1m1 0h1m13 0h1m1 0h1m-26 1h1m1 0h1m3 0h1m3 0h1m11 0h1m3 0h1M4 36h1m17 0h1m1 0h3m6 0h2m5 0h1M4 37h3m16 0h1m1 0h1m1 0h6m8 0h1M6 38h1m19 0h1m1 0h1m1 0h1m1 0h1m9 0h1M6 39h1m16 0h1m1 0h1m1 0h1m1 0h1m1 0h1m1 0h1m9 0h1M7 40h1m16 0h1m1 0h1m1 0h1m1 0h1m1 0h1m1 0h1m9 0h1m-22 1h1m1 0h1m1 0h1m1 0h1m1 0h1m13 0h1m-22 1h1m3 0h1m1 0h1m15 0h1m-22 1h1m1 0h1m1 0h1m17 0h1m-24 1h1m1 0h1m1 0h1m18 0h1m-1 1h1m-2 1h1m-4 1h3"/><path stroke="#cc9" d="M12 5h1m-3 4h1"/><path stroke="#999" d="M29 5h1m5 0h1m0 1h1m-3 1h1M12 9h1m20 0h1m-8 4h1m1 0h1m-3 2h1m-7 1h1m-8 6h1"/><path stroke="#d7d7d7" d="M11 6h1m-2 2h1m9 2h1m-1 4h2m-3 1h1m1 0h1m-8 2h1m-2 1h2m12 1h1m1 0h1m1 0h1m-7 1h1m-2 1h1m-2 1h1m11 14h2m-1 1h2m-4 1h1m2 0h1m-3 1h2"/><path stroke="#996" d="M26 6h2m-3 1h1m-2 1h2m2 0h1M11 9h1m10 1h1m5 4h1m-13 1h1m2 2h1m-3 1h1m-4 4h1"/><path stroke="#093" d="M28 6h1m-2 1h1m1 0h1m7 0h1m-8 1h1m5 0h1m1 0h1M25 9h1m11 0h1m-14 1h1m5 0h1m1 0h1m1 0h1m1 0h1m1 0h1m-16 1h1m1 0h1m5 0h1m3 0h1m1 0h1m1 0h1m-18 1h1m1 0h1m7 0h1m1 0h1m1 0h1m1 0h1m-8 1h1m1 0h1m3 0h1m1 0h1m-10 1h1m1 0h1m1 0h1m1 0h1m-14 1h1m5 0h1m1 0h1m1 0h1m1 0h1m1 0h1m-16 1h1m1 0h1m3 0h1m1 0h1m1 0h1m1 0h1m1 0h1m1 0h1m-18 1h1m1 0h1m1 0h1m3 0h1m1 0h1m1 0h1m1 0h1m1 0h1m-18 1h1m1 0h1m1 0h1m1 0h1m-10 1h1m1 0h1m1 0h1m-4 1h1m1 0h1m-8 1h1m1 0h1m1 0h1m-2 1h1m-2 1h1m0 3h1m1 0h1m-4 1h1m1 0h1m1 0h1m-8 1h1m1 0h1m1 0h1m-2 1h1m1 0h1m-2 1h1"/><path stroke="#808040" d="M29 6h1m-4 1h1m1 0h1m3 0h1m-4 1h1m4 0h2m-9 1h1m4 0h1m1 0h1m-12 1h1m-3 1h2m7 0h1m2 0h1m-11 1h1m-7 3h1m10 0h1m-13 1h1m4 0h1m-5 1h1m9 0h2m-8 1h1m-2 1h1m2 0h2m-8 1h1m1 0h1m-6 1h1m1 0h1m-2 1h1m1 0h1m-4 1h1m1 0h1m-2 1h1m2 1h1m-2 1h1m1 0h1m-4 1h1m1 0h1m-6 1h1m1 0h1m1 0h1m-2 1h1m-7 1h1m3 0h1m3 0h1m-9 1h1m5 0h1"/><path stroke="#696" d="M30 6h1m-5 2h1m5 0h2m-8 2h1m-3 1h1m3 0h1m-8 1h1m9 0h1m-16 1h1m5 1h1m2 0h1m-4 1h1m1 0h1m2 0h1m-12 2h1m1 0h1"/><path stroke="#693" d="M30 7h2m-5 1h1m3 0h1m-6 1h1m2 0h1m1 0h1m3 0h1m-8 1h2m-5 3h1m0 3h2m-2 1h1m-9 1h1m-1 1h1m-6 11h1"/><path stroke="#9c9" d="M12 8h1"/><path stroke="#663" d="M37 8h1M24 9h1m5 0h1m5 0h1m2 0h1m-15 1h1m5 0h1m1 0h1m1 0h1m1 0h1m-9 1h1m4 0h1m1 0h1m1 0h1m-14 1h2m6 0h1m1 0h1m1 0h1m1 0h1m-16 1h1m5 0h1m1 0h1m1 0h1m1 0h1m1 0h1m-23 1h1m12 0h1m1 0h1m1 0h1m5 0h1m-26 1h1m15 0h1m1 0h1m1 0h1m1 0h1m1 0h1m-25 1h1m2 0h1m5 0h1m1 0h1m3 0h1m3 0h1m1 0h1m1 0h1m-18 1h1m1 0h1m1 0h1m5 0h1m1 0h1m1 0h1m-16 1h1m3 0h1m1 0h1m-4 1h1m-2 1h1m1 0h1m-6 1h2m-6 3h1m0 1h1m3 0h1m-6 1h2m-3 1h2m4 1h1m-10 1h1m1 0h1m1 0h1m3 0h1m-8 1h1m3 0h1m1 0h1m1 0h1m-8 1h1m1 0h1m3 0h1m1 0h1m-10 1h1m1 0h1m1 0h1m1 0h1m1 0h1m-6 1h1m1 0h1m1 0h1m1 0h1m-6 1h1"/><path stroke="#330" d="M38 9h1m1 0h1m-2 1h1m0 1h2m-1 1h1m-2 1h1m1 0h1m-2 1h1m-2 1h1m1 0h2m-5 1h1m1 0h1m1 0h1m-8 1h1m1 0h3m1 0h1m1 0h1m-12 1h1m1 0h1m1 0h2m1 0h4m-8 1h1m1 0h1m3 0h1m1 0h1m-8 1h1m1 0h1m1 0h1m1 0h1m-6 1h3m1 0h1m-4 1h1m3 0h1m-4 1h1m1 0h1m1 0h1m-6 1h1m1 0h1m2 0h1m-5 1h1m1 0h1m1 0h1m-4 1h1m1 0h1m-4 1h1m1 0h1m1 0h1m-4 1h1m-2 1h1m1 0h1m1 0h1m-4 1h1m-2 1h1m-2 1h1m-29 1h2m0 1h1m3 0h1m1 0h1m1 0h1m-8 1h1m1 0h3m1 0h3m-4 1h1m1 0h1m1 0h1m-2 1h1m1 0h1m1 0h1M5 38h1m17 0h3m1 0h1m1 0h1m1 0h1m-8 1h1m1 0h1m1 0h1m1 0h1m1 0h1m-8 1h1m1 0h1m1 0h1m1 0h1m1 0h1m-10 1h1m1 0h1m1 0h1m1 0h1m1 0h1m1 0h2m-11 1h1m1 0h1m1 0h1m1 0h1m2 0h1m-11 1h1m1 0h1m1 0h1m1 0h4m-9 1h1m1 0h1m1 0h3m-7 1h4"/><path stroke="#69f" d="M8 16h1m-2 1h2m-7 1h1m3 0h1m0 1h1m-5 1h1m2 0h1m-4 1h1m1 0h1"/><path stroke="#39f" d="M9 17h1m-2 1h2m-1 1h1"/><path stroke="#69c" d="M10 17h1m0 1h1M1 19h2m10 0h2M0 20h1m11 1h1M2 22h2m1 0h1m6 0h1M2 23h2m1 0h1m-4 1h4m-4 1h3m-2 1h2"/><path stroke="#39c" d="M10 18h1m-1 1h3M1 20h1m6 0h7M0 21h3m4 0h5M0 22h2m4 0h6M0 23h2m4 0h4m-9 1h1m4 0h1m1 0h1m-8 1h1m3 0h1m1 0h1m-6 1h1m2 0h2m-5 1h1m1 0h1m-2 1h1"/><path stroke="gray" d="M27 18h6m-8 1h2m6 0h2m-11 1h1m-2 1h1m-2 1h1m-2 1h1m-1 1h1m-2 1h1m-1 1h1m-1 1h1m-1 1h1m-1 1h1m-1 1h1m16 0h1m-17 1h1m-1 1h1m14 0h1m-15 1h1m12 0h1m-13 1h1m10 0h1m-11 1h1m11 0h2m-1 1h2m-1 1h1m-6 1h1m0 1h1m0 1h1"/><path stroke="#0ff" d="M28 19h1m1 0h1m1 0h1m-6 1h1m1 0h1m1 0h1m1 0h1m-8 1h1m3 0h1m1 0h1m1 0h1m-10 1h1m3 0h1m1 0h1m1 0h1m1 0h1m-12 1h1m3 0h1m1 0h1m1 0h1m1 0h1m-12 1h1m3 0h1m1 0h1m1 0h1m1 0h1m1 0h1m-14 1h1m3 0h1m1 0h1m1 0h1m1 0h1m1 0h1m-14 1h1m5 0h1m1 0h1m1 0h1m1 0h1m1 0h1m-14 1h1m3 0h1m1 0h1m1 0h1m1 0h1m1 0h1m2 0h1m-17 1h1m1 0h1m3 0h1m1 0h1m1 0h1m1 0h1m1 0h1m-14 1h1m1 0h1m1 0h1m1 0h1m1 0h1m1 0h1m1 0h1m-12 1h1m1 0h1m1 0h1m1 0h1m1 0h1m1 0h1m2 0h1m-15 1h1m1 0h1m1 0h1m1 0h1m1 0h1m1 0h1m-10 1h1m1 0h1m1 0h1m1 0h1m1 0h1m-8 1h1m1 0h1m1 0h1m1 0h1m-6 1h1m1 0h1"/><path stroke="#633" d="M39 19h3m-20 1h1m21 1h1m-2 3h1M26 42h1"/><path stroke="#36c" d="M15 20h1m-6 3h2M0 24h1m6 0h1m1 0h1m1 0h1m-6 1h1m1 0h1m-2 1h2m-6 1h1m1 0h2m-3 1h1"/><path stroke="teal" d="M34 20h1m0 1h1m0 1h1m-1 1h2m-1 1h1m-1 1h2m-1 1h1m-1 1h1m-1 1h1m-1 1h1m-1 1h1m-2 1h1m-1 1h1m-2 1h1m-2 1h1m-11 1h1m7 0h2m-8 1h6"/><path stroke="#366" d="M21 21h1M0 28h1m1 4h1m0 1h1m5 0h1m-7 1h4m1 0h2m-5 1h5m-3 1h1"/><path stroke="#699" d="M20 22h1m-9 1h1m6 0h1M9 29h1"/><path stroke="#669" d="M21 22h1m-4 2h1m-6 1h1m-2 1h1m-2 1h1m-3 4h1"/><path stroke="#cfc" d="M32 22h1m1 0h1m-6 1h1m1 0h1m1 0h1m1 0h1m-8 1h1m1 0h1m1 0h1m1 0h1m-8 1h1m1 0h1m1 0h1m1 0h1m1 0h1m-8 1h1m1 0h1m1 0h1m1 0h1m-8 1h1m1 0h1m1 0h1m1 0h1m1 0h1m-8 1h1m1 0h1m1 0h1m1 0h1m-8 1h1m1 0h1m1 0h1m1 0h1m-6 1h1m1 0h1m1 0h1m-6 1h1m1 0h1m1 0h1m-4 1h1m1 0h1m-4 1h1m1 0h1"/><path stroke="#369" d="M20 23h1m-11 1h1m1 0h1M0 25h1m8 0h4M1 26h1m7 0h3M0 27h2m5 0h4M1 28h2m2 0h5M0 29h9m-7 1h7m-7 1h7m-6 1h4m1 0h1m-5 1h3m1 0h1"/><path stroke="#0cf" d="M36 25h1m0 1h1m-2 1h1m0 1h1m-2 1h2m-3 1h1m-2 1h1m1 0h1m-4 1h1m1 0h1m-4 1h1m1 0h1m-6 1h1m1 0h1m1 0h1m-8 1h1m1 0h1m1 0h1m1 0h1"/><path stroke="#069" d="M0 26h1"/><path stroke="#066" d="M18 28h1m-8 1h1m1 0h1m5 0h1m-8 1h1m-2 1h1m1 0h1m1 0h1m1 0h1m1 0h1m-10 1h1m1 0h1m1 0h1m1 0h1m1 0h1m1 0h1m-6 1h1m1 0h1m1 0h1"/><path stroke="#336" d="M43 28h1m-3 4h1m-31 3h1m-7 1h2m1 0h2m2 0h1m-6 1h2m12 0h1M7 38h2m3 0h2m8 0h1M7 39h2m3 0h3m-7 1h2m2 0h3m-7 1h3m1 0h2m-4 1h2m1 0h1m-3 1h3"/><path stroke="#004040" d="M43 29h1m-2 1h1m-3 3h2m-32 1h1m28 0h1m1 0h1M4 35h1m7 0h1m27 0h1m-28 1h4m3 0h1m-9 1h6m1 0h2M9 38h1m1 0h1m2 0h3m2 0h3m-4 1h1m1 0h2m-5 1h2m2 0h3m-10 1h1m1 0h1m3 0h3m10 0h1m-22 1h1m1 0h2m1 0h1m2 0h4m8 0h2m-20 1h3m3 0h2m1 0h1m-11 1h4m2 0h1m3 0h1"/><path stroke="#036" d="M43 30h1m-2 1h2m-2 1h2m-2 1h1m-3 1h1m1 0h1m-2 1h1m-32 1h2m-3 1h3m6 0h1m-9 1h1m6 0h2M9 39h3m3 0h3m1 0h1m2 0h1m-13 1h2m3 0h2m2 0h2m-10 1h1m3 0h1m1 0h3m-4 1h1m1 0h2m-3 1h3m2 0h1m-6 1h2m1 0h3m-7 1h9"/><path stroke="#004080" d="M7 32h1m-1 1h1m-1 1h1m2 1h1"/><path stroke="#033" d="M17 36h2"/><path stroke="#900" d="M39 37h1m-1 1h2m-1 1h2m-1 1h2m-7 1h1m5 0h2m-7 1h1m5 0h2m-7 1h1m5 0h2m-7 1h1m5 0h1m-6 1h1m4 0h1m-5 1h1m0 1h1"/><path stroke="maroon" d="M40 37h1m0 1h1m0 1h1m0 1h1m0 1h1m0 1h1m0 1h1m-1 1h1m-1 1h1m-3 1h2"/><path stroke="#c00" d="M38 38h1m0 1h1m-4 1h1m3 0h1m-4 1h1m3 0h1m-4 1h1m3 0h1m-4 1h1m3 0h1m-4 1h1m3 0h1m-4 1h1m0 1h2"/><path stroke="#f99" d="M37 39h1m0 1h1m0 1h1m0 1h1m0 1h1m0 1h1m0 1h1"/><path stroke="#c33" d="M38 39h1m0 1h1m0 1h1m0 1h1m0 1h1m0 1h1m0 1h1"/><path stroke="#fcc" d="M37 40h1m0 1h1m0 1h1m0 1h1m0 1h1m0 1h1"/></svg>