<svg xmlns="http://www.w3.org/2000/svg" viewBox="0 -0.5 32 32" shape-rendering="crispEdges">
<path stroke="#808080" d="M0 0h1M1 3h28M1 4h1M1 5h1M1 6h1M1 7h1M1 8h1M3 8h25M1 9h1M3 9h1M27 9h1M1 10h1M3 10h1M27 10h1M1 11h1M3 11h1M18 11h1M27 11h1M1 12h1M3 12h1M20 12h1M27 12h1M1 13h1M3 13h1M7 13h2M10 13h2M13 13h2M16 13h3M20 13h1M27 13h1M1 14h1M3 14h1M27 14h1M1 15h1M3 15h25M1 16h1M1 17h1M1 18h1M1 19h1M1 20h1M1 21h1M1 22h1M1 23h1M1 24h1M1 25h1M1 26h1M1 27h1" />
<path stroke="#000000" d="M0 0h1M29 3h1M29 4h1M24 5h1M26 5h1M28 5h2M23 6h7M29 7h1M29 8h1M29 9h1M29 10h1M29 11h1M29 12h1M29 13h1M29 14h1M29 15h1M29 16h1M29 17h1M29 18h1M29 19h1M29 20h1M29 21h1M29 22h1M29 23h1M29 24h1M29 25h1M29 26h1M29 27h1M1 28h29" />
<path stroke="#000080" d="M0 0h1M2 4h27M2 5h21M2 6h21M22 11h1M24 11h1M22 12h1M24 12h1M22 13h1M24 13h1" />
<path stroke="#ffffff" d="M0 0h1M23 5h1M25 5h1M27 5h1M4 9h23M4 10h1M4 11h1M10 11h1M16 11h1M20 11h1M4 12h1M11 12h1M4 13h1M4 14h1M3 16h25M3 17h25M3 18h2M26 18h2M3 19h25M3 20h2M26 20h2M3 21h25M3 22h2M26 22h2M3 23h25M3 24h2M26 24h2M3 25h25M3 26h25" />
<path stroke="#c0c0c0" d="M0 0h1M2 7h27M2 8h1M28 8h1M2 9h1M28 9h1M2 10h1M5 10h22M28 10h1M2 11h1M5 11h2M9 11h1M12 11h1M15 11h1M19 11h1M21 11h1M25 11h2M28 11h1M2 12h1M5 12h2M9 12h1M12 12h1M15 12h1M19 12h1M21 12h1M25 12h2M28 12h1M2 13h1M5 13h2M9 13h1M12 13h1M15 13h1M19 13h1M21 13h1M25 13h2M28 13h1M2 14h1M5 14h22M28 14h1M2 15h1M28 15h1M2 16h1M28 16h1M2 17h1M28 17h1M2 18h1M5 18h21M28 18h1M2 19h1M28 19h1M2 20h1M5 20h21M28 20h1M2 21h1M28 21h1M2 22h1M5 22h21M28 22h1M2 23h1M28 23h1M2 24h1M5 24h21M28 24h1M2 25h1M28 25h1M2 26h1M28 26h1M2 27h27" />
<path stroke="#ff0000" d="M0 0h1M7 11h1" />
<path stroke="#800000" d="M0 0h1M8 11h1M7 12h2" />
<path stroke="#008000" d="M0 0h1M11 11h1M10 12h1" />
<path stroke="#ffff00" d="M0 0h1M13 11h1" />
<path stroke="#808000" d="M0 0h1M14 11h1M13 12h2" />
<path stroke="#008080" d="M0 0h1M17 11h1M16 12h2" />
<path stroke="#0000ff" d="M0 0h1M23 11h1M23 12h1M23 13h1" />
<path stroke="#800080" d="M0 0h1M18 12h1" />
</svg>