<svg xmlns="http://www.w3.org/2000/svg" width="32" height="32" shape-rendering="crispEdges" viewBox="0 -0.5 32 32"><path stroke="gray" d="M6 0h17M6 1h1m15 0h1M6 2h1m15 0h2m-2 1h1m-1 1h1m2 0h1m-4 1h1m3 0h1m-5 1h1m-3 2h1M11 9h1m8 0h1m-10 1h1m8 0h1m-10 1h1m-1 1h1m-1 1h1m-1 1h1m5 0h1m-8 1h2m5 0h1m7 0h1M9 16h2m14 0h1M8 17h2m-3 1h2m-3 1h2m17 0h1M6 20h1m11 0h1m5 0h1M6 21h1m11 0h1m5 0h1M6 22h1m11 0h1M6 23h1m11 0h1M6 24h1m10 0h2M6 25h1m9 0h2M6 26h1m8 0h2M6 27h1m8 0h1M6 28h1"/><path stroke="#fff" d="M7 1h15M7 2h15M7 3h9m1 0h5M8 4h7m3 0h4m1 0h1M9 5h5m5 0h3m1 0h2M10 6h3m7 0h2M11 7h2m7 0h7M11 8h2m8 0h6M12 9h1m8 0h6m-15 1h1m9 0h5m-15 1h1m10 0h4m-15 1h1m11 0h3m-15 1h2m11 0h2m-15 1h3m10 0h2m-15 1h2m1 0h1m10 0h1m-16 1h2m3 0h2m8 0h1m-16 1h1m5 0h1m-8 1h1m-2 1h2m15 0h1M8 20h3m14 0h3M7 21h4m8 0h1m5 0h3M7 22h4m8 0h2M7 23h4m8 0h2M7 24h4m8 0h1m1 0h9M7 25h5m7 0h1m1 0h1M7 26h6m5 0h2m1 0h1M7 27h7m3 0h3m1 0h1m-1 1h1m-1 1h1"/><path stroke="#000" d="M23 1h1m0 1h1m0 1h1m0 1h1m0 1h1m-5 1h6M19 7h1m8 0h1M10 8h1m8 0h1m8 0h1M10 9h1m8 0h1m8 0h1m-19 1h1m8 0h1m8 0h1m-19 1h1m8 0h1m8 0h1m-19 1h1m7 0h1m9 0h1m-19 1h1m6 0h1m10 0h1m-19 1h1m5 0h1m7 0h1m3 0h1M9 15h1m14 0h1m3 0h1M8 16h1m15 0h1m3 0h1M7 17h1m20 0h1M6 18h1m18 0h2m1 0h1M5 19h1m11 0h1m6 0h1m4 0h1m-13 1h1m5 0h1m5 0h1m-13 1h1m3 0h1m1 0h1m5 0h1m-13 1h1m5 0h1m5 0h1m-13 1h1m13 0h1m-16 1h1m14 0h1m-17 1h1m15 0h1m-18 1h1m16 0h1m-1 1h1m-1 1h1M6 29h14m11 0h1m-1 1h1m-12 1h11"/><path stroke="olive" d="M5 2h1M4 3h1m1 0h1m9 0h1M3 4h1m3 0h1m7 0h1m1 0h1M2 5h1m5 0h1m5 0h1m3 0h1M1 6h1m7 0h1m3 0h1m5 0h1M0 7h1m9 0h1m10 3h1m-2 1h1m1 0h1m-4 1h1m3 0h1m-6 1h1m5 0h1m-11 2h1m-2 1h1m1 0h1m-4 1h1m3 0h1m7 0h4m-17 1h1m5 0h1m5 0h1m3 0h1m-6 1h1m4 0h2m-7 1h1m5 0h1m-7 1h1m5 0h1m-7 1h1m1 0h5m1 0h1m-10 1h10m-11 1h1m9 0h1m-11 1h1m9 0h1m-11 1h1m1 0h7m1 0h1m-11 1h1m9 0h1m-11 1h1m1 0h7m1 0h1m-11 1h1m9 0h1m-11 1h11"/><path stroke="#ff0" d="M5 3h1M4 4h3m9 0h1M3 5h5m7 0h3M2 6h7m5 0h5M1 7h9m4 0h5M1 8h9m5 0h3M2 9h7m7 0h1M3 10h5m-4 1h3m14 0h1M5 12h1m14 0h3m-4 1h5m-5 1h5m-4 1h3m-9 1h1m6 0h1m-9 1h3m-4 1h5m-5 1h5m-4 1h3m-2 1h1m7 4h8m-8 2h8m-8 2h8"/><path stroke="silver" d="M23 3h2m-1 1h1m0 1h1m1 2h1m-1 1h1m-1 1h1m-1 1h1m-1 1h1m-15 1h1m13 0h1m-14 1h1m12 0h1m-13 1h1m11 0h1m-12 1h1m10 0h1m-1 1h1m-18 1h1m-2 1h1m14 0h1M8 19h1m9 0h1m4 0h1M7 20h1m11 0h1m0 1h1m0 1h1m-11 2h1m0 1h1m5 0h1m-6 1h1m3 0h1m11 0h1m-16 1h1m1 0h1M7 28h13m9 0h1"/><path stroke="maroon" d="M13 7h1M0 8h1m12 0h1M0 9h1m12 0h1M0 10h1m12 0h1M0 11h1m12 0h1M0 12h1m13 0h1M0 13h1m14 0h1M0 14h1m17 0h1M1 15h1m16 0h1M2 16h1m15 0h1M3 17h1m14 0h1M4 18h1m13 0h1m-8 1h1m7 0h1m-9 1h1m8 0h1m-10 1h1m-1 1h1m-1 1h1m0 1h1m0 1h1"/><path stroke="red" d="M14 8h1M1 9h1m12 0h2M1 10h2m11 0h2M1 11h3m10 0h2M1 12h4m10 0h1M1 13h5m-5 1h5m-4 1h4m13 0h1M3 16h3m13 0h2M4 17h2m13 0h2M5 18h1m13 0h2m-1 1h1m-9 1h1m-1 1h2m-2 1h2m-2 1h2m-1 1h1"/><path stroke="#00f" d="M18 8h1M9 9h1m7 0h2M8 10h2m6 0h3M7 11h3m6 0h3M6 12h4m6 0h2M6 13h4m6 0h1M6 14h4m-4 1h3m14 0h1M6 16h2m14 0h2M6 17h1m14 0h3m-3 1h2m-2 1h1m-6 1h1m4 0h1m-7 1h2m-3 1h3m-3 1h3m-3 1h2m-2 1h1"/></svg>