<svg xmlns="http://www.w3.org/2000/svg" width="32" height="32" shape-rendering="crispEdges" viewBox="0 -0.5 32 32"><path stroke="gray" d="M2 1h17M2 2h17M2 3h3m4 0h4m3 0h3M2 4h3m4 0h4m3 0h3M2 5h2m5 0h4m4 0h2M2 6h2m5 0h4m4 0h2M2 7h2m5 0h4m4 0h2M9 8h1M9 9h1m-1 1h1m-1 1h1m-1 1h1m2 0h1m-4 1h1m2 0h1m-4 1h1m2 0h1m-4 1h4m-4 1h4m-4 1h4m-4 1h4m-8 1h11M5 20h11"/><path stroke="silver" d="M5 3h4m4 0h3m3 0h2M5 4h4m4 0h3m3 0h2M4 5h2m7 0h2m4 0h2M4 6h2m7 0h2m4 0h2M4 7h2m7 0h2m4 0h2M4 8h2M4 9h2m7 1h5m4 0h4m3 0h2m-18 1h5m4 0h4m3 0h2m-18 1h2m7 0h2m5 0h2m-18 1h2m7 0h2m5 0h2m-18 1h2m7 0h2m5 0h2m-18 1h2m7 0h2m5 0h2m-18 1h2m7 0h2m5 0h2m-18 1h2m7 0h2m-11 1h2m7 0h2m-2 1h2m-2 1h2M6 21h12m4 0h2M6 22h12m4 0h2m-2 1h2m-2 1h2m-2 1h2m-8 3h11m-11 1h11"/><path stroke="#00f" d="M10 8h19M10 9h19m-19 1h3m5 0h4m4 0h3m-19 1h3m5 0h4m4 0h3m-19 1h2m6 0h4m5 0h2m-19 1h2m6 0h4m5 0h2m-19 1h2m6 0h4m5 0h2m-11 1h4m-4 1h4m-4 1h4m-4 1h4m-4 1h4m-4 1h4m-4 1h4m-4 1h4m-4 1h4m-4 1h4m-4 1h4m-8 1h11m-11 1h11"/></svg>