<svg xmlns="http://www.w3.org/2000/svg" width="32" height="32" shape-rendering="crispEdges" viewBox="0 -0.5 32 32"><path stroke="gray" d="M10 1h7M8 2h2m7 0h2M6 3h2m2 0h1m8 0h2M5 4h1m15 0h1M4 5h1m2 0h1M3 6h1m3 0h1M3 7h1M2 8h1M2 9h1m19 0h3M1 10h1m18 0h2m4 0h1M1 11h1m17 0h2m6 0h1M1 12h1m17 0h1m4 0h1m3 0h1M1 13h1m5 0h1m11 0h1m8 0h1M1 14h1m17 0h1m8 0h1M1 15h1m17 0h1m8 0h1M1 16h1m5 0h2m11 0h1m6 0h1M2 17h1m18 0h1M2 18h1m19 0h1m2 0h1M3 19h1m19 0h2M3 20h1m18 0h1m1 0h1M4 21h1m19 0h1M5 22h1m17 0h2m-1 1h1m-3 1h1m1 0h1m-1 1h1m-1 1h1m-1 1h1m-3 1h1"/><path stroke="#fff" d="M10 2h1m1 0h1M8 3h1M6 4h1m1 0h2M5 5h2m1 0h1M4 6h1m0 1h1M3 8h5m10 0h3M4 9h2m-4 1h1m1 0h2m10 0h1m2 0h1m2 0h3M3 11h3m10 0h1m4 0h1M3 12h3m10 0h1m1 0h1m1 0h1M4 13h2m10 0h1m3 0h1m3 0h1M4 14h1m1 0h2m8 0h1m1 0h1m1 0h1m2 0h1m2 0h1m-7 1h1m4 0h1m-8 1h1m2 0h1m2 0h1m1 0h1m-5 1h1m0 1h2m-7 1h1m2 0h1m-1 1h1m-1 1h2m-4 1h1m-2 1h1m2 0h1m-1 1h1m-1 1h2m-1 2h1"/><path stroke="teal" d="M11 2h1m1 0h1m1 0h2m-2 1h1M9 5h1m3 2h1M8 9h1m-7 2h1m4 0h1m5 0h1M2 12h1m0 1h1m-2 1h1m0 1h1m-2 1h1m1 0h1m4 0h2m6 1h1M4 18h1m11 0h1M4 20h1m6 1h1m0 1h1"/><path stroke="#00f" d="M14 2h1m-4 1h1m4 0h1m-7 1h1m0 1h1M8 6h1M6 7h1m3 1h4m1 0h2m-7 1h1m2 0h1m-6 1h1m1 0h5m-9 2h1m-2 2h1m-2 1h2m-1 1h2m-4 1h1m1 0h6m-6 1h6m6 0h1M5 19h6m5 0h1M5 20h7m5 0h1M5 21h1m1 0h4m4 0h2M6 22h1m1 0h1m1 0h1m3 0h1m2 0h1m-9 1h1m1 0h1"/><path stroke="silver" d="M9 3h1M7 4h1M4 7h1m2 0h1M3 9h1m2 0h1m-4 1h1m5 0h1m-4 1h1m1 0h1m13 0h2m1 0h2M7 12h1m13 0h2m3 0h2M2 13h1m3 0h1m14 0h2m3 0h2M3 14h1m17 0h2m2 0h1m1 0h1M2 15h1m3 0h1m14 0h4m1 0h2M3 16h1m18 0h2m1 0h1M4 17h1m18 0h4m-2 2h1m-3 1h1m1 0h1m-3 1h1m1 0h1m-1 1h1m-1 1h1m-3 1h1m1 0h1m-3 1h1m1 0h1m-3 1h1m1 0h1m-1 1h1m-3 1h3m-2 1h1"/><path stroke="green" d="M12 3h3m2 0h2m-7 1h9M10 5h1m1 0h8M6 6h1m2 0h10M8 7h4m2 0h1m1 0h1M8 8h2m4 0h1M7 9h1m4 0h1m1 0h2M6 10h1m2 1h3m2 0h1m-7 1h7m-7 1h7m-7 1h7m-8 1h9m-5 1h6m-6 1h6M3 18h1m7 0h5M4 19h1m6 0h5m-4 1h4m-4 1h3m3 0h1m-6 1h1m-2 1h1"/><path stroke="navy" d="M11 4h1m9 2h1M12 7h1m2 0h1m1 0h1m5 0h1M9 9h1m1 0h1m-5 1h1m4 1h1m3 9h1M6 21h1m10 0h1M7 22h1m1 0h1m1 0h1m3 0h2m-9 1h1m1 0h1m2 0h4m-7 1h7"/><path stroke="#000" d="M20 5h4m-5 1h1m2 0h1m1 0h1m0 1h1m-3 1h1m1 0h1m-7 1h2m4 0h2m-9 1h1m6 0h1m1 0h1m-10 1h1m5 0h1m3 0h1m-6 1h1m1 0h1m3 0h1m-7 1h1m1 0h1m3 0h1m-6 1h1m4 0h1m-1 1h1m-2 1h1m-11 1h1m8 0h1m-2 1h1m-5 1h1m3 0h1m-9 1h1m7 0h1m-8 1h1m6 0h1m-5 1h1m3 0h1M6 23h2m15 0h1m2 0h1M8 24h2m7 0h2m7 0h1m-17 1h7m2 0h1m6 0h1m-5 1h1m3 0h1m-8 1h1m3 0h1m2 0h1m-7 1h1m5 0h1m-4 1h1m1 0h1m-2 1h1"/><path stroke="olive" d="M20 6h1m-3 1h5m-6 1h1m4 0h1m-7 1h1m-2 1h1m-1 1h1m-1 1h1m-1 1h1m-1 1h1m0 1h1m0 1h1m0 2h1m1 0h1m-4 1h1m2 0h1m-2 1h2m-1 1h1m-3 1h1m1 0h1m-4 1h1m2 0h1m-1 1h1m-1 1h1m-3 1h1m2 1h1"/><path stroke="#ff0" d="M21 8h1m-5 1h2m2 0h1m-5 1h1m-1 1h1m-1 1h1m-1 1h2m-2 1h1m-1 1h2m0 1h1m-1 1h2m-2 1h1m1 0h1m-3 1h1m1 3h1m-3 1h1m2 0h1m-4 1h1m-1 2h3m-2 1h1"/></svg>