<svg xmlns="http://www.w3.org/2000/svg" viewBox="0 -0.5 32 32" shape-rendering="crispEdges">
<path stroke="#000000" d="M0 0h1M14 0h1M13 1h1M15 1h1M12 2h1M16 2h1M11 3h1M17 3h1M10 4h1M13 4h1M18 4h1M9 5h1M12 5h1M14 5h1M19 5h1M8 6h1M11 6h1M13 6h1M15 6h1M20 6h1M7 7h1M10 7h1M12 7h1M16 7h1M21 7h1M6 8h1M9 8h1M11 8h1M15 8h1M22 8h1M5 9h1M8 9h1M10 9h1M14 9h1M23 9h1M4 10h1M7 10h1M9 10h1M13 10h1M24 10h1M3 11h1M6 11h1M8 11h1M12 11h1M25 11h1M2 12h1M5 12h1M7 12h1M11 12h1M26 12h1M1 13h1M4 13h1M6 13h1M10 13h1M14 13h1M24 13h1M27 13h1M0 14h1M5 14h1M9 14h1M13 14h1M15 14h1M23 14h1M25 14h1M27 14h1M1 15h1M6 15h1M8 15h1M12 15h1M14 15h1M16 15h1M22 15h1M24 15h1M27 15h1M1 16h2M7 16h1M11 16h1M13 16h1M15 16h1M17 16h1M21 16h1M23 16h1M26 16h1M0 17h1M3 17h1M10 17h1M12 17h1M14 17h1M16 17h1M18 17h1M20 17h1M22 17h1M25 17h1M0 18h1M4 18h1M9 18h1M11 18h1M13 18h1M15 18h1M17 18h1M19 18h1M21 18h1M24 18h1M0 19h2M5 19h1M10 19h1M12 19h1M31 19h1M0 20h1M2 20h1M6 20h1M11 20h1M13 20h1M31 20h1M0 21h1M3 21h1M7 21h1M12 21h1M31 21h1M1 22h1M4 22h1M8 22h1M13 22h1M31 22h1M1 23h2M5 23h1M9 23h1M31 23h1M0 24h1M3 24h1M6 24h1M10 24h1M31 24h1M1 25h1M4 25h1M7 25h1M11 25h1M31 25h1M2 26h2M5 26h1M8 26h1M11 26h1M31 26h1M4 27h1M7 27h1M9 27h1M11 27h1M31 27h1M5 28h2M9 28h1M11 28h1M13 28h1M31 28h1M7 29h6M31 29h1M31 30h1M14 31h18" />
<path stroke="#ffffff" d="M0 0h1M14 1h1M13 2h3M12 3h5M11 4h2M14 4h4M10 5h2M13 5h1M15 5h4M9 6h2M12 6h1M14 6h1M16 6h4M8 7h2M11 7h1M13 7h3M17 7h4M7 8h2M12 8h3M16 8h6M6 9h2M11 9h3M15 9h3M20 9h3M5 10h2M10 10h1M12 10h1M14 10h3M21 10h3M4 11h2M9 11h1M11 11h1M13 11h3M22 11h3M3 12h2M6 12h1M8 12h3M12 12h4M19 12h1M22 12h4M2 13h2M5 13h1M7 13h3M11 13h3M15 13h2M22 13h2M25 13h1M1 14h4M6 14h3M10 14h3M14 14h1M16 14h2M21 14h2M24 14h1M2 15h4M7 15h1M9 15h3M13 15h1M15 15h1M17 15h2M20 15h2M23 15h1M3 16h4M8 16h3M12 16h1M14 16h1M16 16h1M18 16h3M22 16h1M4 17h6M11 17h1M13 17h1M15 17h1M17 17h1M19 17h1M21 17h1M1 18h1M5 18h4M10 18h1M12 18h1M14 18h1M16 18h1M18 18h1M20 18h1M2 19h1M6 19h4M11 19h1M13 19h1M3 20h1M7 20h4M12 20h1M17 20h1M19 20h1M21 20h1M23 20h1M25 20h1M27 20h1M4 21h1M8 21h4M13 21h1M18 21h1M20 21h1M22 21h1M24 21h1M26 21h1M2 22h1M5 22h1M9 22h4M15 22h1M19 22h1M21 22h1M23 22h1M25 22h1M29 22h1M3 23h1M6 23h1M10 23h4M16 23h1M20 23h1M22 23h1M24 23h1M28 23h1M4 24h1M7 24h1M11 24h3M15 24h1M17 24h1M21 24h1M23 24h1M27 24h1M29 24h1M2 25h1M5 25h1M8 25h1M12 25h1M16 25h1M22 25h1M28 25h1M4 26h1M6 26h1M9 26h1M15 26h1M19 26h1M22 26h1M25 26h1M29 26h1M5 27h1M18 27h1M20 27h1M24 27h1M26 27h1M7 28h1M17 28h1M19 28h1M21 28h1M23 28h1M25 28h1M27 28h1M16 29h1M18 29h1M20 29h1M22 29h1M24 29h1M26 29h1M28 29h1" />
<path stroke="#808080" d="M0 0h1M10 8h1M9 9h1M18 9h2M8 10h1M11 10h1M17 10h1M19 10h2M7 11h1M10 11h1M16 11h2M21 11h1M16 12h1M18 12h1M20 12h2M19 13h1M21 13h1M18 14h3M19 15h1M26 15h1M25 16h1M1 17h2M24 17h1M3 18h1M23 18h1M4 19h1M14 19h17M1 20h1M5 20h1M14 20h2M29 20h1M2 21h1M6 21h1M14 21h1M16 21h1M28 21h1M7 22h1M14 22h1M17 22h1M27 22h1M8 23h1M14 23h1M18 23h1M26 23h1M1 24h1M9 24h1M14 24h1M19 24h1M25 24h1M3 25h1M10 25h1M14 25h1M18 25h1M20 25h1M24 25h1M26 25h1M14 26h1M17 26h1M21 26h1M23 26h1M27 26h1M6 27h1M10 27h1M12 27h3M16 27h1M22 27h1M28 27h1M8 28h1M10 28h1M12 28h1M14 28h2M29 28h1M14 29h1M30 29h1M14 30h1" />
<path stroke="#c0c0c0" d="M0 0h1M18 10h1M18 11h3M17 12h1M17 13h2M20 13h1M26 13h1M26 14h1M25 15h1M24 16h1M23 17h1M2 18h1M22 18h1M3 19h1M4 20h1M30 20h1M1 21h1M5 21h1M29 21h2M3 22h1M6 22h1M28 22h1M30 22h1M4 23h1M7 23h1M27 23h1M30 23h1M2 24h1M5 24h1M8 24h1M26 24h1M30 24h1M6 25h1M9 25h1M13 25h1M25 25h1M30 25h1M7 26h1M10 26h1M12 26h2M24 26h1M26 26h1M30 26h1M8 27h1M23 27h1M27 27h1M30 27h1M28 28h1M30 28h1M29 29h1M15 30h16" />
<path stroke="#ffff00" d="M0 0h1M16 20h1M18 20h1M20 20h1M22 20h1M24 20h1M26 20h1M28 20h1M15 21h1M17 21h1M19 21h1M21 21h1M23 21h1M25 21h1M27 21h1M16 22h1M18 22h1M20 22h1M22 22h1M24 22h1M26 22h1M15 23h1M17 23h1M19 23h1M21 23h1M23 23h1M25 23h1M29 23h1M16 24h1M18 24h1M20 24h1M22 24h1M24 24h1M28 24h1M15 25h1M17 25h1M19 25h1M21 25h1M23 25h1M27 25h1M29 25h1M16 26h1M18 26h1M20 26h1M28 26h1M15 27h1M17 27h1M19 27h1M21 27h1M25 27h1M29 27h1M16 28h1M18 28h1M20 28h1M22 28h1M24 28h1M26 28h1M15 29h1M17 29h1M19 29h1M21 29h1M23 29h1M25 29h1M27 29h1" />
</svg>