<svg xmlns="http://www.w3.org/2000/svg" viewBox="0 -0.5 32 32" shape-rendering="crispEdges">
<path stroke="#808080" d="M0 0h1M5 0h14M4 1h1M18 1h1M3 2h1M17 2h2M2 3h1M17 3h2M2 4h1M4 4h11M17 4h2M2 5h1M4 5h1M17 5h2M2 6h1M4 6h1M17 6h2M2 7h1M4 7h1M17 7h2M2 8h1M4 8h1M17 8h2M2 9h1M4 9h1M17 9h2M2 10h1M4 10h1M11 10h16M2 11h1M4 11h1M11 11h1M2 12h1M11 12h1M2 13h1M11 13h1M16 13h16M11 14h1M16 14h1M1 15h11M16 15h1M0 16h1M11 16h1M16 16h1M0 17h1M10 17h2M16 17h1M0 18h1M11 18h1M16 18h1M0 19h1M11 19h1M16 19h1M0 20h12M16 20h1M11 21h1M16 21h1M11 22h1M16 22h1M11 23h1M16 23h1M11 24h1M16 24h1M11 25h1M16 25h1M11 26h1M16 26h1M11 27h1M16 27h1M16 28h1M16 29h1M16 30h1" />
<path stroke="#c0c0c0" d="M0 0h1M5 1h12M4 3h13M16 4h1M16 5h1M16 6h1M16 7h1M16 8h1M16 9h1M25 11h1M25 12h1M3 13h8M30 14h1M30 15h1M30 16h1M2 17h8M30 17h1M2 18h2M6 18h4M30 18h1M2 19h2M6 19h5M30 19h1M30 20h1M30 21h1M30 22h1M30 23h1M30 24h1M30 25h1M30 26h1M12 27h4M30 27h1M30 28h1M30 29h1M17 30h14" />
<path stroke="#ffffff" d="M0 0h1M17 1h1M4 2h13M3 3h1M3 4h1M15 4h1M3 5h1M15 5h1M3 6h1M15 6h1M3 7h1M15 7h1M3 8h1M15 8h1M3 9h1M15 9h1M3 10h1M3 11h1M12 11h13M3 12h8M12 12h13M12 13h4M12 14h4M17 14h13M12 15h4M17 15h13M1 16h10M12 16h2M17 16h13M1 17h1M12 17h4M17 17h5M25 17h5M1 18h1M12 18h2M17 18h13M1 19h1M12 19h4M17 19h2M28 19h2M12 20h2M17 20h13M12 21h4M17 21h2M28 21h2M12 22h2M17 22h13M12 23h4M17 23h2M28 23h2M12 24h2M17 24h13M12 25h4M17 25h2M28 25h2M12 26h4M17 26h13M17 27h2M28 27h2M17 28h13M17 29h13" />
<path stroke="#000000" d="M0 0h1M19 1h1M19 2h1M19 3h1M19 4h1M5 5h9M19 5h1M5 6h1M19 6h1M5 7h1M19 7h1M5 8h1M19 8h1M5 9h1M19 9h1M5 10h1M26 11h1M26 12h1M3 14h8M31 14h1M31 15h1M31 16h1M31 17h1M10 18h1M31 18h1M31 19h1M31 20h1M1 21h10M31 21h1M31 22h1M31 23h1M31 24h1M31 25h1M31 26h1M31 27h1M11 28h5M31 28h1M31 29h1M31 30h1M16 31h16" />
<path stroke="#000080" d="M0 0h1M14 5h1M14 6h1M14 7h1M14 8h1M14 9h1M5 11h6" />
<path stroke="#0000ff" d="M0 0h1M6 6h8M6 7h1M8 7h6M6 8h1M8 8h6M6 9h8M6 10h5M14 16h2M22 17h3M14 18h2M19 19h9M14 20h2M19 21h9M14 22h2M19 23h9M14 24h2M19 25h9M19 27h9" />
<path stroke="#00ffff" d="M0 0h1M7 7h1M7 8h1" />
<path stroke="#00ff00" d="M0 0h1M4 18h2" />
<path stroke="#008000" d="M0 0h1M4 19h2" />
<path stroke="#ff0000" d="M0 0h1M4 23h1M3 24h1M3 25h1M3 26h1M7 26h1M4 27h1M7 27h2M5 28h5M7 29h2M7 30h1" />
</svg>