<svg xmlns="http://www.w3.org/2000/svg" viewBox="0 -0.5 32 32" shape-rendering="crispEdges">
<path stroke="#000000" d="M0 0h1M12 0h8M9 1h3M20 1h3M7 2h2M23 2h2M6 3h1M25 3h1M5 4h1M26 4h1M4 5h1M27 5h1M3 6h1M28 6h1M2 7h1M29 7h1M2 8h1M29 8h1M1 9h1M30 9h1M1 10h1M30 10h1M1 11h1M30 11h1M0 12h1M31 12h1M0 13h1M31 13h1M0 14h1M31 14h1M0 15h1M31 15h1M0 16h1M31 16h1M0 17h1M31 17h1M0 18h1M31 18h1M0 19h1M31 19h1M1 20h1M30 20h1M1 21h1M30 21h1M1 22h1M30 22h1M2 23h1M29 23h1M2 24h1M29 24h1M3 25h1M28 25h1M4 26h1M27 26h1M5 27h1M26 27h1M6 28h1M25 28h1M7 29h2M23 29h2M9 30h3M20 30h3M12 31h8" />
<path stroke="#0000ff" d="M0 0h1M12 1h2M15 1h5M13 2h5M20 2h3M12 3h4M18 3h1M20 3h4M12 4h4M18 4h1M20 4h4M13 5h1M15 5h1M20 5h4M19 6h6M3 7h2M19 7h6M3 8h2M19 8h7M27 8h2M2 9h3M18 9h11M2 10h3M18 10h10M2 11h3M12 11h1M18 11h9M1 12h5M12 12h1M15 12h1M18 12h9M1 13h6M10 13h7M19 13h8M1 14h6M11 14h7M19 14h9M1 15h7M11 15h18M1 16h9M12 16h18M1 17h11M15 17h15M1 18h11M15 18h16M1 19h13M16 19h1M20 19h11M2 20h12M24 20h6M2 21h12M25 21h5M2 22h12M25 22h5M3 23h11M25 23h4M3 24h13M23 24h6M4 25h12M23 25h5M5 26h13M22 26h5M6 27h12M21 27h5M7 28h11M21 28h4M9 29h10M21 29h2M12 30h8" />
<path stroke="#00ff00" d="M0 0h1M14 1h1M9 2h4M18 2h2M7 3h5M16 3h2M19 3h1M24 3h1M6 4h6M16 4h2M19 4h1M24 4h2M5 5h8M14 5h1M16 5h4M24 5h3M4 6h15M25 6h3M5 7h14M25 7h4M5 8h14M26 8h1M5 9h13M29 9h1M5 10h13M28 10h2M5 11h7M13 11h5M27 11h3M6 12h6M13 12h2M16 12h2M27 12h4M7 13h3M17 13h2M27 13h4M7 14h4M18 14h1M28 14h3M8 15h3M29 15h2M10 16h2M30 16h1M12 17h3M30 17h1M12 18h3M14 19h2M17 19h3M14 20h10M14 21h11M14 22h11M14 23h11M16 24h7M16 25h7M18 26h4M18 27h3M18 28h3M19 29h2" />
</svg>