<svg xmlns="http://www.w3.org/2000/svg" viewBox="0 -0.5 32 32" shape-rendering="crispEdges">
<path stroke="#808080" d="M0 0h1M10 1h7M8 2h2M17 2h2M6 3h2M10 3h1M19 3h2M5 4h1M21 4h1M4 5h1M7 5h1M3 6h1M7 6h1M3 7h1M2 8h1M2 9h1M22 9h3M1 10h1M20 10h2M26 10h1M1 11h1M19 11h2M27 11h1M1 12h1M19 12h1M24 12h1M28 12h1M1 13h1M7 13h1M19 13h1M28 13h1M1 14h1M19 14h1M28 14h1M1 15h1M19 15h1M28 15h1M1 16h1M7 16h2M20 16h1M27 16h1M2 17h1M21 17h1M2 18h1M22 18h1M25 18h1M3 19h1M23 19h2M3 20h1M22 20h1M24 20h1M4 21h1M24 21h1M5 22h1M23 22h2M24 23h1M22 24h1M24 24h1M24 25h1M24 26h1M24 27h1M22 28h1" />
<path stroke="#ffffff" d="M0 0h1M10 2h1M12 2h1M8 3h1M6 4h1M8 4h2M5 5h2M8 5h1M4 6h1M5 7h1M3 8h5M18 8h3M4 9h2M2 10h1M4 10h2M16 10h1M19 10h1M22 10h3M3 11h3M16 11h1M21 11h1M3 12h3M16 12h1M18 12h1M20 12h1M4 13h2M16 13h1M20 13h1M24 13h1M4 14h1M6 14h2M16 14h1M18 14h1M20 14h1M23 14h1M26 14h1M20 15h1M25 15h1M18 16h1M21 16h1M24 16h1M26 16h1M22 17h1M23 18h2M18 19h1M21 19h1M21 20h1M21 21h2M19 22h1M18 23h1M21 23h1M21 24h1M21 25h2M22 27h1" />
<path stroke="#008080" d="M0 0h1M11 2h1M13 2h1M15 2h2M15 3h1M9 5h1M13 7h1M8 9h1M2 11h1M7 11h1M13 11h1M2 12h1M3 13h1M2 14h1M3 15h1M2 16h1M4 16h1M9 16h2M17 17h1M4 18h1M16 18h1M4 20h1M11 21h1M12 22h1" />
<path stroke="#0000ff" d="M0 0h1M14 2h1M11 3h1M16 3h1M10 4h1M11 5h1M8 6h1M6 7h1M10 8h4M15 8h2M10 9h1M13 9h1M8 10h1M10 10h5M6 12h1M5 14h1M4 15h2M5 16h2M3 17h1M5 17h6M5 18h6M17 18h1M5 19h6M16 19h1M5 20h7M17 20h1M5 21h1M7 21h4M15 21h2M6 22h1M8 22h1M10 22h1M14 22h1M17 22h1M9 23h1M11 23h1" />
<path stroke="#c0c0c0" d="M0 0h1M9 3h1M7 4h1M4 7h1M7 7h1M3 9h1M6 9h1M3 10h1M9 10h1M6 11h1M8 11h1M22 11h2M25 11h2M7 12h1M21 12h2M26 12h2M2 13h1M6 13h1M21 13h2M26 13h2M3 14h1M21 14h2M25 14h1M27 14h1M2 15h1M6 15h1M21 15h4M26 15h2M3 16h1M22 16h2M25 16h1M4 17h1M23 17h4M25 19h1M23 20h1M25 20h1M23 21h1M25 21h1M25 22h1M25 23h1M23 24h1M25 24h1M23 25h1M25 25h1M23 26h1M25 26h1M25 27h1M23 28h3M24 29h1" />
<path stroke="#008000" d="M0 0h1M12 3h3M17 3h2M12 4h9M10 5h1M12 5h8M6 6h1M9 6h10M8 7h4M14 7h1M16 7h1M8 8h2M14 8h1M7 9h1M12 9h1M14 9h2M6 10h1M9 11h3M14 11h1M8 12h7M8 13h7M8 14h7M7 15h9M11 16h6M11 17h6M3 18h1M11 18h5M4 19h1M11 19h5M12 20h4M12 21h3M18 21h1M13 22h1M12 23h1" />
<path stroke="#000080" d="M0 0h1M11 4h1M21 6h1M12 7h1M15 7h1M17 7h1M23 7h1M9 9h1M11 9h1M7 10h1M12 11h1M16 20h1M6 21h1M17 21h1M7 22h1M9 22h1M11 22h1M15 22h2M8 23h1M10 23h1M13 23h4M10 24h7" />
<path stroke="#000000" d="M0 0h1M20 5h4M19 6h1M22 6h1M24 6h1M25 7h1M23 8h1M25 8h1M19 9h2M25 9h2M18 10h1M25 10h1M27 10h1M18 11h1M24 11h1M28 11h1M23 12h1M25 12h1M29 12h1M23 13h1M25 13h1M29 13h1M24 14h1M29 14h1M29 15h1M28 16h1M18 17h1M27 17h1M26 18h1M22 19h1M26 19h1M18 20h1M26 20h1M19 21h1M26 21h1M22 22h1M26 22h1M6 23h2M23 23h1M26 23h1M8 24h2M17 24h2M26 24h1M10 25h7M19 25h1M26 25h1M22 26h1M26 26h1M19 27h1M23 27h1M26 27h1M20 28h1M26 28h1M23 29h1M25 29h1M24 30h1" />
<path stroke="#808000" d="M0 0h1M20 6h1M18 7h5M17 8h1M22 8h1M16 9h1M15 10h1M15 11h1M15 12h1M15 13h1M15 14h1M16 15h1M17 16h1M18 18h1M20 18h1M17 19h1M20 19h1M19 20h2M20 21h1M18 22h1M20 22h1M17 23h1M20 23h1M20 24h1M20 25h1M18 26h1M21 27h1" />
<path stroke="#ffff00" d="M0 0h1M21 8h1M17 9h2M21 9h1M17 10h1M17 11h1M17 12h1M17 13h2M17 14h1M17 15h2M19 16h1M19 17h2M19 18h1M21 18h1M19 19h1M21 22h1M19 23h1M22 23h1M19 24h1M19 26h3M20 27h1" />
</svg>