<svg xmlns="http://www.w3.org/2000/svg" viewBox="0 -0.5 32 32" shape-rendering="crispEdges">
<path stroke="#808080" d="M0 0h1M16 1h1M15 2h1M14 3h1M13 4h1M12 5h1M6 6h6M5 7h1M10 7h1M15 7h3M4 8h1M9 8h1M13 8h2M18 8h2M3 9h1M8 9h1M12 9h1M25 9h3M3 10h1M7 10h1M11 10h1M3 11h1M6 11h1M11 11h1M3 12h1M5 12h1M10 12h1M1 13h2M0 14h1M0 15h1M25 15h1M0 16h1M25 16h1M0 17h1M27 17h1M1 18h1M26 18h1M1 19h1M26 19h1M1 20h1M1 21h1M2 22h1M27 22h1M2 23h1M27 23h1M2 24h1M2 25h1M3 26h1M3 27h1M3 28h1" />
<path stroke="#c0c0c0" d="M0 0h1M16 2h1M17 3h1M18 4h1M19 5h1M20 6h1M21 7h1M6 8h1M8 8h1M22 8h1M5 9h1M7 9h1M13 9h1M23 9h1M6 10h1M12 10h1M14 10h1M24 10h1M5 11h1M13 11h1M25 11h1M12 12h1M26 12h1M3 13h23M27 13h1M28 14h1M1 15h1M3 15h1M5 15h1M7 15h1M9 15h1M11 15h1M13 15h1M15 15h1M17 15h1M19 15h1M21 15h1M23 15h2M29 15h1M2 16h1M4 16h1M6 16h1M8 16h1M10 16h1M12 16h1M14 16h1M16 16h1M18 16h1M20 16h1M22 16h1M24 16h1M30 16h1M1 17h1M3 17h1M5 17h1M7 17h1M9 17h1M11 17h1M13 17h1M15 17h1M17 17h1M19 17h1M21 17h1M23 17h1M25 17h1M29 17h1M2 18h1M4 18h1M6 18h1M8 18h1M10 18h1M12 18h1M14 18h1M16 18h1M18 18h1M20 18h1M22 18h1M24 18h1M28 18h1M3 19h1M5 19h1M7 19h1M9 19h1M11 19h1M13 19h1M15 19h1M17 19h1M19 19h1M21 19h1M23 19h1M25 19h1M2 20h1M4 20h1M6 20h1M8 20h1M10 20h1M12 20h1M14 20h1M16 20h1M18 20h1M20 20h1M22 20h1M24 20h1M26 20h1M3 21h1M5 21h1M7 21h1M9 21h1M11 21h1M13 21h1M15 21h1M17 21h1M19 21h1M21 21h1M23 21h1M25 21h1M4 22h1M6 22h1M8 22h1M10 22h1M12 22h1M14 22h1M16 22h1M18 22h1M20 22h1M22 22h1M24 22h1M26 22h1M3 23h1M5 23h1M7 23h1M9 23h1M11 23h1M13 23h1M15 23h1M17 23h1M19 23h1M21 23h1M23 23h1M25 23h1M4 24h1M6 24h1M8 24h1M10 24h1M12 24h1M14 24h1M16 24h1M18 24h1M20 24h1M22 24h1M24 24h1M26 24h2M3 25h1M5 25h1M7 25h1M9 25h1M11 25h1M13 25h1M15 25h1M17 25h1M19 25h1M21 25h1M23 25h1M25 25h1M27 25h1M4 26h1M6 26h1M8 26h1M10 26h1M12 26h1M14 26h1M16 26h1M18 26h1M20 26h1M22 26h1M24 26h1M26 26h1M5 27h1M7 27h1M9 27h1M11 27h1M13 27h1M15 27h1M17 27h1M19 27h1M21 27h1M23 27h1M25 27h1M27 27h1" />
<path stroke="#000000" d="M0 0h1M17 2h1M18 3h1M19 4h1M20 5h1M21 6h1M22 7h1M23 8h1M20 9h1M24 9h1M21 10h1M25 10h1M28 10h2M26 11h1M29 11h1M22 12h1M27 12h1M29 12h1M28 13h2M25 14h1M29 14h1M26 15h1M30 15h1M26 16h1M31 16h1M26 17h1M30 17h1M27 18h1M29 18h1M27 19h3M27 20h1M29 20h1M27 21h3M28 22h2M28 23h2M28 24h2M28 25h2M29 26h1M29 27h1M29 28h1M4 29h25" />
<path stroke="#ffffff" d="M0 0h1M15 3h2M14 4h4M13 5h6M12 6h8M6 7h4M11 7h4M18 7h3M5 8h1M10 8h3M15 8h1M20 8h2M4 9h1M9 9h3M14 9h1M21 9h2M4 10h1M8 10h3M13 10h1M22 10h2M4 11h1M7 11h4M12 11h1M22 11h3M4 12h1M6 12h4M11 12h1M23 12h3M26 13h1M1 14h24M26 14h2M27 15h2M27 16h3M28 17h1" />
<path stroke="#ffff00" d="M0 0h1M7 8h1M6 9h1M5 10h1M26 10h2M27 11h1M2 15h1M4 15h1M6 15h1M8 15h1M10 15h1M12 15h1M14 15h1M16 15h1M18 15h1M20 15h1M22 15h1M1 16h1M3 16h1M5 16h1M7 16h1M9 16h1M11 16h1M13 16h1M15 16h1M17 16h1M19 16h1M21 16h1M23 16h1M2 17h1M4 17h1M6 17h1M8 17h1M10 17h1M12 17h1M14 17h1M16 17h1M18 17h1M20 17h1M22 17h1M24 17h1M3 18h1M5 18h1M7 18h1M9 18h1M11 18h1M13 18h1M15 18h1M17 18h1M19 18h1M21 18h1M23 18h1M25 18h1M2 19h1M4 19h1M6 19h1M8 19h1M10 19h1M12 19h1M14 19h1M16 19h1M18 19h1M20 19h1M22 19h1M24 19h1M3 20h1M5 20h1M7 20h1M9 20h1M11 20h1M13 20h1M15 20h1M17 20h1M19 20h1M21 20h1M23 20h1M25 20h1M2 21h1M4 21h1M6 21h1M8 21h1M10 21h1M12 21h1M14 21h1M16 21h1M18 21h1M20 21h1M22 21h1M24 21h1M26 21h1M3 22h1M5 22h1M7 22h1M9 22h1M11 22h1M13 22h1M15 22h1M17 22h1M19 22h1M21 22h1M23 22h1M25 22h1M4 23h1M6 23h1M8 23h1M10 23h1M12 23h1M14 23h1M16 23h1M18 23h1M20 23h1M22 23h1M24 23h1M26 23h1M3 24h1M5 24h1M7 24h1M9 24h1M11 24h1M13 24h1M15 24h1M17 24h1M19 24h1M21 24h1M23 24h1M25 24h1M4 25h1M6 25h1M8 25h1M10 25h1M12 25h1M14 25h1M16 25h1M18 25h1M20 25h1M22 25h1M24 25h1M26 25h1M5 26h1M7 26h1M9 26h1M11 26h1M13 26h1M15 26h1M17 26h1M19 26h1M21 26h1M23 26h1M25 26h1M27 26h1M4 27h1M6 27h1M8 27h1M10 27h1M12 27h1M14 27h1M16 27h1M18 27h1M20 27h1M22 27h1M24 27h1M26 27h1" />
<path stroke="#008000" d="M0 0h1M16 8h1M16 9h4M16 10h3M14 11h1M17 11h4M16 12h1M20 12h1" />
<path stroke="#008080" d="M0 0h1M17 8h1M15 10h1M19 10h2M13 12h1M18 12h2" />
<path stroke="#0000ff" d="M0 0h1M15 9h1M15 11h2M14 12h2M17 12h1M21 12h1" />
<path stroke="#000080" d="M0 0h1M21 11h1" />
<path stroke="#808000" d="M0 0h1M28 11h1M28 12h1M28 20h1M28 26h1M28 27h1M4 28h25" />
</svg>