<svg xmlns="http://www.w3.org/2000/svg" width="16" height="16" shape-rendering="crispEdges" viewBox="0 -0.5 16 16"><path stroke="#7f7f7f" d="M5 0h5m0 1h2M8 3h1m1 1h1M7 5h2M6 6h1M5 7h1M5 8h1M5 9h1m0 1h1m4 0h1m-2 1h1"/><path stroke="silver" d="M3 1h2M2 2h1m3 7h1"/><path stroke="#c0dcc0" d="M5 1h1M4 3h1m1 1h1"/><path stroke="#a6caf0" d="M6 1h1M5 2h1m1 0h2M5 3h1M2 4h2"/><path stroke="#80ffff" d="M7 1h1M2 5h1"/><path stroke="#6cf" d="M8 1h1M1 6h1"/><path stroke="#b2b2b2" d="M9 1h1M5 4h1"/><path stroke="#fff" d="M3 2h2M2 3h1m4 3h1M6 7h1m4 4h1"/><path stroke="#9cf" d="M6 2h1M6 3h1M1 5h1m1 0h1"/><path stroke="#696" d="M9 2h1m1 0h1M9 3h1M8 4h1m-6 6h1"/><path stroke="#693" d="M10 2h1"/><path stroke="#330" d="M12 2h1m0 1h1m-1 1h1m0 1h1m-2 1h2m-1 1h1m-2 1h2m-3 1h1m1 0h1m-1 1h1m-9 2h1m1 0h1m1 0h1m-2 1h1m1 0h1m-3 1h1"/><path stroke="#69c" d="M1 3h1M1 4h1M0 5h1M0 6h1m0 2h1"/><path stroke="#d7d7d7" d="M3 3h1"/><path stroke="#cc9" d="M7 3h1"/><path stroke="#808040" d="M10 3h1M9 4h1"/><path stroke="#393" d="M11 3h1m0 1h1m0 1h1m-2 1h1m-8 4h1"/><path stroke="#663" d="M12 3h1m-2 1h1M4 9h1m-1 2h1"/><path stroke="#ccf" d="M4 4h1"/><path stroke="#699" d="M7 4h1M4 7h1"/><path stroke="#9cc" d="M4 5h1M4 6h1"/><path stroke="#996" d="M5 5h1"/><path stroke="#a0a0a4" d="M6 5h1"/><path stroke="#333" d="M9 5h1m2 0h1m-3 1h2m-1 1h1m1 0h1m-3 1h2m-2 1h1m1 0h1M4 10h1m5 0h1m1 0h2m-7 1h3m-5 1h1m3 0h1m-3 1h2m1 0h1m-1 1h2m-7 1h5m4 0h2"/><path stroke="#00787d" d="M10 5h1"/><path stroke="#093" d="M11 5h1"/><path stroke="#69f" d="M2 6h1"/><path stroke="#39f" d="M3 6h1"/><path stroke="#969696" d="M5 6h1"/><path stroke="#0ff" d="M8 6h1M7 7h1m1 0h1M6 8h1m1 0h1m1 0h1M7 9h1m1 0h1m-2 1h1"/><path stroke="#cfc" d="M9 6h1M8 7h1M7 8h1"/><path stroke="#39c" d="M0 7h1m1 0h2M0 8h1m1 0h1M0 9h2"/><path stroke="#8080ff" d="M1 7h1"/><path stroke="#0cf" d="M10 7h1M9 8h1M8 9h1m1 0h1m-4 1h1m1 0h1"/><path stroke="#5f5f5f" d="M12 7h1"/><path stroke="#36c" d="M3 8h1M2 9h1"/><path stroke="#669" d="M4 8h1"/><path stroke="#369" d="M3 9h1m-4 1h3m-3 1h1"/><path stroke="#33f" d="M1 11h1"/><path stroke="#366" d="M2 11h2m1 0h1"/><path stroke="#004040" d="M6 11h1m-4 1h2m2 0h1m-2 1h1m-2 1h1m1 0h2"/><path stroke="#c00" d="M12 11h1m-2 1h1m1 0h1m-2 1h1m1 0h1m-2 1h2"/><path stroke="#900" d="M13 11h1m0 1h1m0 1h1m-1 1h1"/><path stroke="#006" d="M1 12h1m0 1h1m0 1h2"/><path stroke="#336" d="M2 12h1m1 1h1"/><path stroke="#f99" d="M12 12h1m0 1h1"/><path stroke="#036" d="M3 13h1m1 0h1"/><path stroke="#004080" d="M6 14h1"/></svg>