<svg xmlns="http://www.w3.org/2000/svg" width="32" height="32" shape-rendering="crispEdges" viewBox="0 -0.5 32 32"><path stroke="gray" d="M0 0h18M0 1h1m16 0h1M0 2h1m16 0h2M0 3h1m16 0h1m1 0h1M0 4h1m16 0h1m2 0h1M0 5h1m16 0h1m3 0h1M0 6h1m16 0h1M0 7h1M0 8h1M0 9h1m-1 1h1m-1 1h1m-1 1h1m-1 1h1m-1 1h1m-1 1h1m-1 1h1m-1 1h1m-1 1h1m19 0h1m1 0h1m5 0h1M0 19h1m14 0h1m3 0h1m1 0h1m1 0h1m3 0h1m1 0h1M0 20h1m15 0h1m1 0h1m1 0h1m1 0h1m1 0h1m1 0h1m1 0h1M0 21h1m28 0h1M0 22h1m27 0h1M0 23h1m28 0h1M0 24h1m27 0h1M0 25h1m28 0h1M0 26h1m27 0h1M0 27h1m28 0h1M0 28h1m27 0h1m0 1h1m-2 1h1"/><path stroke="#fff" d="M1 1h16M1 2h16M1 3h16M1 4h16m1 0h1M1 5h16m1 0h2M1 6h3m9 0h4M1 7h21M1 8h18M1 9h17M1 10h3m-3 1h15M1 12h3m16 0h2M1 13h14m4 0h4M1 14h3m16 0h3M1 15h14m4 0h4M1 16h3m16 0h3M1 17h14m4 0h4M1 18h3m-3 1h13M1 20h3m-3 1h11m3 0h11M1 22h3m10 0h1m11 0h1M1 23h11M1 24h3m-3 1h11M1 26h11M1 27h11"/><path stroke="#000" d="M18 1h1m0 1h1m0 1h1m0 1h1m0 1h1m-5 1h6m-1 1h1m-1 1h1m-1 1h1m0 1h1m-6 1h4m2 0h1m-7 1h1m6 0h1m-9 1h1m7 0h1m-9 1h1m7 0h1m-9 1h1m7 0h1m-9 1h1m7 0h1m-9 1h1m7 0h1m-12 1h1m2 0h1m7 0h1m-11 1h2m6 0h2m4 1h1m-1 1h1m-1 1h1m-1 1h1m-1 1h1m-1 1h1m-1 1h1m-1 1h1m-1 1h1M0 29h12m18 0h1m-2 1h1m-17 1h16"/><path stroke="silver" d="M18 3h1m0 1h1m0 1h1M4 6h9m9 1h1M4 10h13m1 1h1m4 0h1M4 12h11m2 0h1m6 0h1m-1 1h1M4 14h11m4 0h1m4 0h1m-1 1h1M4 16h11m4 0h1m4 0h1m-1 1h1M4 18h11m9 0h1M4 20h9m0 1h2m11 0h2M4 22h8m1 0h1m13 0h1m-15 1h1m1 0h11m1 0h1M4 24h8m1 0h1m13 0h1m-15 1h1m1 0h11m1 0h1m-15 1h1m13 0h1m-15 1h1m1 0h11m1 0h1M1 28h11m1 0h1m13 0h1m-15 1h1m13 0h1"/><path stroke="olive" d="M19 8h4m-5 1h1m-2 1h1m1 0h5m-8 1h1m7 0h1m-10 1h1m2 0h1m3 0h1m2 0h1m-11 1h1m1 0h1m5 0h1m1 0h1m-11 1h1m1 0h1m5 0h1m1 0h1m-11 1h1m1 0h1m5 0h1m1 0h1m-11 1h1m1 0h1m5 0h1m1 0h1m-11 1h1m1 0h1m5 0h1m1 0h1m-9 1h1m1 0h1m1 0h1m1 0h1m1 0h1m1 0h1m-14 1h1m3 0h1m1 0h1m1 0h1m3 0h1m1 0h1m-16 1h3m1 0h1m1 0h1m1 0h1m1 0h1m1 0h1m1 0h1m1 0h1m-18 1h1m15 0h1m-17 1h1m16 0h1m-18 1h1m15 0h1m-17 1h1m16 0h1m-18 1h1m15 0h1m-17 1h1m16 0h1m-18 1h1m15 0h1m-17 1h1m16 0h1m-18 1h1m15 0h1m-17 1h16"/><path stroke="#ff0" d="M19 9h4m-5 1h1m-2 1h1m-2 1h1m6 0h1m-8 1h1m-1 1h1m-1 1h1m-1 1h1m-1 1h1m-1 1h1m-2 4h11m-12 1h1m11 0h1m-13 1h13m-13 1h1m11 0h1m-13 1h13m-13 1h1m11 0h1m-13 1h13m-13 1h13"/></svg>