<svg xmlns="http://www.w3.org/2000/svg" viewBox="0 -0.5 32 32" shape-rendering="crispEdges">
<path stroke="#808080" d="M0 0h1M0 0h18M0 1h1M17 1h1M0 2h1M17 2h2M0 3h1M17 3h1M19 3h1M0 4h1M17 4h1M20 4h1M0 5h1M17 5h1M21 5h1M0 6h1M17 6h1M0 7h1M0 8h1M0 9h1M0 10h1M0 11h1M0 12h1M0 13h1M0 14h1M0 15h1M0 16h1M0 17h1M0 18h1M20 18h1M22 18h1M28 18h1M0 19h1M15 19h1M19 19h1M21 19h1M23 19h1M27 19h1M29 19h1M0 20h1M16 20h1M18 20h1M20 20h1M22 20h1M24 20h1M26 20h1M28 20h1M0 21h1M29 21h1M0 22h1M28 22h1M0 23h1M29 23h1M0 24h1M28 24h1M0 25h1M29 25h1M0 26h1M28 26h1M0 27h1M29 27h1M0 28h1M28 28h1M29 29h1M28 30h1" />
<path stroke="#ffffff" d="M0 0h1M1 1h16M1 2h16M1 3h16M1 4h16M18 4h1M1 5h16M18 5h2M1 6h3M13 6h4M1 7h21M1 8h18M1 9h17M1 10h3M1 11h15M1 12h3M20 12h2M1 13h14M19 13h4M1 14h3M20 14h3M1 15h14M19 15h4M1 16h3M20 16h3M1 17h14M19 17h4M1 18h3M1 19h13M1 20h3M1 21h11M15 21h11M1 22h3M14 22h1M26 22h1M1 23h11M1 24h3M1 25h11M1 26h11M1 27h11" />
<path stroke="#000000" d="M0 0h1M18 1h1M19 2h1M20 3h1M21 4h1M22 5h1M18 6h6M23 7h1M23 8h1M23 9h1M24 10h1M19 11h4M25 11h1M19 12h1M26 12h1M18 13h1M26 13h1M18 14h1M26 14h1M18 15h1M26 15h1M18 16h1M26 16h1M18 17h1M26 17h1M15 18h1M18 18h1M26 18h1M16 19h2M24 19h2M30 20h1M30 21h1M30 22h1M30 23h1M30 24h1M30 25h1M30 26h1M30 27h1M30 28h1M0 29h12M30 29h1M29 30h1M13 31h16" />
<path stroke="#c0c0c0" d="M0 0h1M18 3h1M19 4h1M20 5h1M4 6h9M22 7h1M4 10h13M18 11h1M23 11h1M4 12h11M17 12h1M24 12h1M24 13h1M4 14h11M19 14h1M24 14h1M24 15h1M4 16h11M19 16h1M24 16h1M24 17h1M4 18h11M24 18h1M4 20h9M13 21h2M26 21h2M4 22h8M13 22h1M27 22h1M13 23h1M15 23h11M27 23h1M4 24h8M13 24h1M27 24h1M13 25h1M15 25h11M27 25h1M13 26h1M27 26h1M13 27h1M15 27h11M27 27h1M1 28h11M13 28h1M27 28h1M13 29h1M27 29h1" />
<path stroke="#808000" d="M0 0h1M19 8h4M18 9h1M17 10h1M19 10h5M16 11h1M24 11h1M15 12h1M18 12h1M22 12h1M25 12h1M15 13h1M17 13h1M23 13h1M25 13h1M15 14h1M17 14h1M23 14h1M25 14h1M15 15h1M17 15h1M23 15h1M25 15h1M15 16h1M17 16h1M23 16h1M25 16h1M15 17h1M17 17h1M23 17h1M25 17h1M17 18h1M19 18h1M21 18h1M23 18h1M25 18h1M27 18h1M14 19h1M18 19h1M20 19h1M22 19h1M26 19h1M28 19h1M13 20h3M17 20h1M19 20h1M21 20h1M23 20h1M25 20h1M27 20h1M29 20h1M12 21h1M28 21h1M12 22h1M29 22h1M12 23h1M28 23h1M12 24h1M29 24h1M12 25h1M28 25h1M12 26h1M29 26h1M12 27h1M28 27h1M12 28h1M29 28h1M12 29h1M28 29h1M12 30h16" />
<path stroke="#ffff00" d="M0 0h1M19 9h4M18 10h1M17 11h1M16 12h1M23 12h1M16 13h1M16 14h1M16 15h1M16 16h1M16 17h1M16 18h1M15 22h11M14 23h1M26 23h1M14 24h13M14 25h1M26 25h1M14 26h13M14 27h1M26 27h1M14 28h13M14 29h13" />
</svg>