<svg xmlns="http://www.w3.org/2000/svg" viewBox="0 -0.5 16 16" shape-rendering="crispEdges">
<path stroke="#808080" d="M0 0h1M0 0h9M0 1h1M9 1h1M0 2h1M10 2h1M0 3h1M0 4h1M0 5h1M0 6h1M0 7h1M0 8h1M0 9h1M0 10h1M0 11h1M0 12h1M6 12h1M0 13h1" />
<path stroke="#ffffff" d="M0 0h1M1 1h7M1 2h4M6 2h2M9 2h1M1 3h3M7 3h1M1 4h2M8 4h2M1 5h1M1 6h1M1 7h1M10 7h2M1 8h1M1 9h1M1 10h1M8 10h1M1 11h2M8 11h1M1 12h3M8 12h1M8 13h1M8 14h1" />
<path stroke="#c0c0c0" d="M0 0h1M8 1h1M8 2h1M10 5h1M9 6h1M2 10h1M3 11h1M4 12h1M1 13h6" />
<path stroke="#808000" d="M0 0h1M5 2h1M4 3h1M6 3h1M3 4h1M7 4h1M10 4h1M2 5h1M9 5h1M11 5h1M8 6h1M12 6h1M8 7h1M12 7h1M8 8h1M10 8h3M14 8h1M7 9h8M7 10h1M14 10h1M7 11h1M10 11h3M14 11h1M7 12h1M14 12h1M7 13h1M10 13h3M14 13h1M7 14h1M14 14h1" />
<path stroke="#ffff00" d="M0 0h1M5 3h1M4 4h3M3 5h5M3 6h5M4 7h3M5 8h1M9 10h5M9 11h1M13 11h1M9 12h5M9 13h1M13 13h1M9 14h5" />
<path stroke="#000000" d="M0 0h1M8 3h4M11 4h1M8 5h1M12 5h1M10 6h2M13 6h1M9 7h1M13 7h1M9 8h1M13 8h1M15 9h1M15 10h1M6 11h1M15 11h1M5 12h1M15 12h1M15 13h1M0 14h7M15 14h1M7 15h8" />
<path stroke="#800000" d="M0 0h1M2 6h1M2 7h1M2 8h1M2 9h1M3 10h1M4 11h1" />
<path stroke="#ff0000" d="M0 0h1M3 7h1M3 8h2M3 9h2M4 10h1" />
<path stroke="#0000ff" d="M0 0h1M7 7h1M6 8h2M5 9h2M5 10h2M5 11h1" />
</svg>