<svg xmlns="http://www.w3.org/2000/svg" viewBox="0 -0.5 32 32" shape-rendering="crispEdges">
<path stroke="#000000" d="M0 0h1M6 0h20M4 1h2M26 1h2M2 2h2M28 2h2M1 3h1M11 3h3M18 3h3M30 3h1M1 4h1M11 4h1M13 4h1M18 4h1M20 4h1M30 4h1M0 5h1M9 5h3M13 5h6M20 5h3M31 5h1M0 6h1M8 6h1M23 6h1M31 6h1M0 7h8M13 7h1M16 7h1M19 7h1M24 7h8M0 8h1M7 8h1M12 8h2M15 8h2M18 8h2M24 8h1M31 8h1M0 9h1M7 9h1M24 9h1M31 9h1M1 10h6M13 10h1M16 10h1M19 10h1M25 10h6M6 11h1M12 11h2M15 11h2M18 11h2M25 11h1M6 12h1M25 12h1M5 13h1M13 13h1M16 13h1M19 13h1M26 13h1M5 14h1M12 14h2M15 14h2M18 14h2M26 14h1M5 15h1M26 15h1M5 16h1M13 16h1M16 16h1M19 16h1M26 16h1M4 17h1M12 17h2M15 17h2M18 17h2M27 17h1M4 18h2M26 18h2M4 19h1M6 19h20M27 19h1M4 20h1M27 20h1M4 21h1M27 21h1M4 22h1M27 22h1M4 23h1M27 23h1M5 24h1M26 24h1M4 25h24M4 26h2M26 26h2M4 27h1M27 27h1M4 28h1M18 28h1M22 28h1M24 28h1M27 28h1M4 29h1M27 29h1M4 30h1M27 30h1M5 31h22" />
<path stroke="#ffffff" d="M0 0h1M6 1h16M4 2h5M2 3h4M2 4h3M12 4h1M19 4h1M1 5h3M12 5h1M19 5h1M1 6h2M9 6h13M8 7h4M14 7h1M17 7h1M20 7h2M8 8h4M14 8h1M17 8h1M20 8h3M8 9h15M7 10h5M14 10h1M17 10h1M20 10h3M7 11h5M14 11h1M17 11h1M20 11h4M7 12h17M6 13h6M14 13h1M17 13h1M20 13h4M6 14h6M14 14h1M17 14h1M20 14h5M6 15h19M6 16h6M14 16h1M17 16h1M20 16h5M5 17h7M14 17h1M17 17h1M20 17h5M6 18h18M6 20h1M6 21h1M6 22h1M6 23h1M6 24h1" />
<path stroke="#c0c0c0" d="M0 0h1M22 1h4M9 2h18M6 3h5M14 3h4M21 3h8M5 4h4M23 4h6M4 5h4M24 5h6M3 6h4M22 6h1M25 6h5M22 7h2M1 8h4M23 8h1M25 8h4M1 9h4M23 9h1M25 9h4M23 10h2M24 11h1M24 12h1M24 13h2M25 14h1M25 15h1M25 16h1M25 17h2M24 18h2M6 26h20M5 27h22M5 28h3M17 28h1M19 28h1M21 28h1M23 28h1M25 28h2M5 29h3M17 29h10M5 30h22" />
<path stroke="#808080" d="M0 0h1M27 2h1M29 3h1M9 4h2M14 4h4M21 4h2M29 4h1M8 5h1M23 5h1M30 5h1M7 6h1M24 6h1M30 6h1M12 7h1M15 7h1M18 7h1M5 8h2M29 8h2M5 9h2M29 9h2M12 10h1M15 10h1M18 10h1M12 13h1M15 13h1M18 13h1M12 16h1M15 16h1M18 16h1M5 19h1M26 19h1M5 20h1M7 20h20M5 21h1M7 21h20M5 22h1M7 22h20M5 23h1M7 23h20M7 24h19M8 28h9M8 29h9" />
<path stroke="#ff0000" d="M0 0h1M20 28h1" />
</svg>