<svg xmlns="http://www.w3.org/2000/svg" viewBox="0 -0.5 32 32" shape-rendering="crispEdges">
<path stroke="#808080" d="M0 0h1M7 1h15M7 2h1M21 2h1M5 3h15M21 3h2M5 4h1M19 4h1M21 4h1M23 4h1M3 5h15M19 5h2M24 5h1M3 6h1M17 6h1M19 6h1M21 6h1M25 6h1M3 7h1M17 7h2M22 7h1M3 8h1M17 8h1M19 8h1M23 8h1M3 9h1M17 9h1M20 9h1M3 10h1M17 10h1M21 10h1M3 11h1M17 11h1M3 12h1M3 13h1M3 14h1M3 15h1M3 16h1M3 17h1M11 17h1M3 18h1M11 18h1M3 19h1M8 19h1M3 20h1M3 21h1M3 22h1M3 23h1M3 24h1M3 25h1M3 26h1M3 27h1M3 28h1M3 29h1" />
<path stroke="#ffff00" d="M0 0h1M8 2h1M12 2h1M16 2h1M20 2h1M6 4h1M10 4h1M14 4h1M18 4h1M4 6h1M8 6h1M12 6h1M16 6h1M6 7h1M10 7h1M14 7h1M4 8h1M8 8h1M12 8h1M16 8h1M6 9h1M10 9h1M14 9h1M4 10h1M8 10h1M12 10h1M16 10h1M6 11h1M10 11h1M14 11h1M4 12h1M8 12h1M16 12h1M20 12h1M6 13h1M18 13h1M4 14h1M20 14h1M6 15h1M18 15h1M4 16h1M20 16h1M6 17h1M18 17h1M4 18h1M20 18h1M6 19h1M18 19h1M4 20h1M20 20h1M6 21h1M18 21h1M4 22h1M8 22h1M16 22h1M20 22h1M6 23h1M10 23h1M14 23h1M18 23h1M4 24h1M8 24h1M12 24h1M16 24h1M20 24h1M6 25h1M10 25h1M14 25h1M18 25h1M4 26h1M8 26h1M12 26h1M16 26h1M20 26h1M6 27h1M10 27h1M14 27h1M18 27h1M4 28h1M8 28h1M12 28h1M16 28h1M20 28h1M6 29h1M10 29h1M14 29h1M18 29h1" />
<path stroke="#ffffff" d="M0 0h1M9 2h3M13 2h3M17 2h3M20 3h1M7 4h3M11 4h3M15 4h3M18 5h1M22 5h1M5 6h3M9 6h3M13 6h3M23 6h1M4 7h2M7 7h3M11 7h3M15 7h2M20 7h1M5 8h3M9 8h3M13 8h3M21 8h1M25 8h1M4 9h2M7 9h3M11 9h3M15 9h2M18 9h1M5 10h3M9 10h3M13 10h3M18 10h2M23 10h1M4 11h2M7 11h3M11 11h3M15 11h2M5 12h3M9 12h2M14 12h2M17 12h3M21 12h1M4 13h2M7 13h2M16 13h2M19 13h3M5 14h3M17 14h3M21 14h1M4 15h2M7 15h1M9 15h1M17 15h1M19 15h3M5 16h2M8 16h1M18 16h2M21 16h1M4 17h2M8 17h1M10 17h1M19 17h3M5 18h2M9 18h1M18 18h2M21 18h1M4 19h2M19 19h3M5 20h3M17 20h3M21 20h1M4 21h2M7 21h1M17 21h1M19 21h3M5 22h3M17 22h3M21 22h1M4 23h2M7 23h3M15 23h3M19 23h3M5 24h3M9 24h3M13 24h3M17 24h3M21 24h1M4 25h2M7 25h3M11 25h3M15 25h3M19 25h3M5 26h3M9 26h3M13 26h3M17 26h3M21 26h1M4 27h2M7 27h3M11 27h3M15 27h3M19 27h3M5 28h3M9 28h3M13 28h3M17 28h3M21 28h1M4 29h2M7 29h3M11 29h3M15 29h3M19 29h3" />
<path stroke="#000000" d="M0 0h1M22 2h1M23 3h1M20 4h1M24 4h1M21 5h1M25 5h1M18 6h1M22 6h1M26 6h1M19 7h1M23 7h5M20 8h1M24 8h1M27 8h1M21 9h5M27 9h1M22 10h1M25 10h1M27 10h1M18 11h6M25 11h1M27 11h1M23 12h1M25 12h1M27 12h1M23 13h1M25 13h1M27 13h1M23 14h1M25 14h1M27 14h1M16 15h1M23 15h1M25 15h1M27 15h1M17 16h1M23 16h1M25 16h1M27 16h1M17 17h1M23 17h1M25 17h1M27 17h1M17 18h1M23 18h1M25 18h1M27 18h1M17 19h1M23 19h1M25 19h1M27 19h1M23 20h1M25 20h1M27 20h1M16 21h1M23 21h1M25 21h1M27 21h1M14 22h2M23 22h1M25 22h1M27 22h1M11 23h3M23 23h1M25 23h1M27 23h1M23 24h1M25 24h1M27 24h1M23 25h1M25 25h1M27 25h1M23 26h1M25 26h3M23 27h1M25 27h1M23 28h3M23 29h1M3 30h21" />
<path stroke="#c0c0c0" d="M0 0h1M22 4h1M23 5h1M20 6h1M24 6h1M21 7h1M18 8h1M22 8h1M26 8h1M19 9h1M26 9h1M20 10h1M24 10h1M26 10h1M24 11h1M26 11h1M22 12h1M24 12h1M26 12h1M11 13h1M22 13h1M24 13h1M26 13h1M9 14h1M22 14h1M24 14h1M26 14h1M22 15h1M24 15h1M26 15h1M9 16h2M22 16h1M24 16h1M26 16h1M9 17h1M22 17h1M24 17h1M26 17h1M10 18h1M22 18h1M24 18h1M26 18h1M22 19h1M24 19h1M26 19h1M22 20h1M24 20h1M26 20h1M22 21h1M24 21h1M26 21h1M22 22h1M24 22h1M26 22h1M22 23h1M24 23h1M26 23h1M22 24h1M24 24h1M26 24h1M22 25h1M24 25h1M26 25h1M22 26h1M24 26h1M22 27h1M24 27h1M22 28h1M22 29h1" />
<path stroke="#008080" d="M0 0h1M11 12h3M9 13h2M13 13h1M15 13h1M8 14h1M10 14h1M16 14h1M8 15h1M13 15h2M7 16h1M11 16h1M14 16h1M16 16h1M7 17h1M13 17h2M7 18h2M7 19h1M13 19h1M8 20h1M11 20h1M8 21h1M14 21h1" />
<path stroke="#000080" d="M0 0h1M12 13h1M11 15h1M13 16h1M15 16h1M16 18h1M14 19h1M16 19h1M13 20h4M15 21h1M9 22h3M13 22h1" />
<path stroke="#008000" d="M0 0h1M14 13h1M11 14h5M10 15h1M15 15h1M12 17h1M12 18h2M11 19h2M12 20h1M12 21h1" />
<path stroke="#0000ff" d="M0 0h1M12 15h1M12 16h1M15 17h2M14 18h2M9 19h2M15 19h1M9 20h2M9 21h3M13 21h1M12 22h1" />
</svg>