<svg xmlns="http://www.w3.org/2000/svg" width="32" height="32" shape-rendering="crispEdges" viewBox="0 -0.5 32 32"><path stroke="#000" d="M10 0h6M9 1h1m6 0h3M8 2h1m10 0h3M7 3h1m5 0h2m7 0h2M6 4h1m5 0h1m2 0h1m8 0h1M6 5h2m4 0h1m3 0h1m8 0h2M6 6h1m1 0h2m1 0h2m3 0h1m3 0h2m5 0h1M6 7h1m3 0h1m5 0h1m2 0h1m2 0h1m5 0h1M7 8h1m1 0h1m7 0h3m3 0h1m5 0h1M8 9h1m10 0h1m3 0h1m6 0h1M7 10h1m4 0h1m10 0h1m7 0h1M6 11h1m7 0h1m8 0h1m7 0h1M5 12h1m4 0h1m5 0h1m6 0h1m7 0h1M4 13h1m7 0h1m10 0h2m6 0h1M3 14h1m4 0h1m5 0h1m8 0h1m6 0h2M3 15h1m6 0h1m12 0h1m4 0h2m1 0h1M3 16h1m8 0h1m11 0h1m6 0h1M3 17h1m20 0h2m4 0h1M2 18h2m21 0h6M1 19h1m1 0h2m19 0h2m5 0h1M0 20h1m4 0h2m15 0h2m7 0h1M0 21h1m6 0h2m11 0h2m9 0h1M0 22h1m8 0h2m7 0h2m11 0h1M0 23h1m10 0h2m3 0h2m12 0h1M1 24h1m11 0h3m12 0h2M1 25h2m23 0h2M3 26h2m19 0h2M5 27h2m15 0h2M7 28h2m11 0h2M9 29h2m7 0h2m-9 1h2m3 0h2m-5 1h3"/><path stroke="#fff" d="M10 1h1m0 1h5m0 1h3m-6 1h1m5 0h2m0 1h2m0 1h1m-4 1h1m3 0h1m0 1h1M11 9h2m13 0h1m-14 1h2m11 0h1m3 0h1M9 11h2m4 0h2m10 0h3m-19 1h2m-6 1h2m4 0h2M5 14h1m3 0h2m-6 1h3m3 0h2m-7 1h4m-2 1h3m-1 1h3m-2 1h3M2 20h1m10 0h1M3 21h2m0 1h2m0 1h2m0 1h2m0 1h2m0 1h2"/><path stroke="#ff0" d="M11 1h5M9 2h2m5 0h3M8 3h3m4 0h1m3 0h3M7 4h3m4 0h1m1 0h3m2 0h3M8 5h1m4 0h1m3 0h4m2 0h2M7 6h1m5 0h1m4 0h2m4 0h3M7 7h2m2 0h3m7 0h1m3 0h3M8 8h1m1 0h7m3 0h1m5 0h3M10 9h1m3 0h5m1 0h1m4 0h1m1 0h3M9 10h2m5 0h5m4 0h1m1 0h3M8 11h1m3 0h1m5 0h5m2 0h2M7 12h2m5 0h1m2 0h5m3 0h2M6 13h1m3 0h1m5 0h5m4 0h2M6 14h1m5 0h1m2 0h4m7 0h1M8 15h1m5 0h4m7 0h1M5 16h1m4 0h1m2 0h4m8 0h2M5 17h3m3 0h5m10 0h1M5 18h5m3 0h2M5 19h6m-4 1h6m-4 1h5m-3 1h3m-1 1h1"/><path stroke="#bfbf00" d="M11 3h2m-3 1h2M9 5h3m3 0h1m-6 1h1m4 0h1m1 0h1m4 0h1M9 7h1m5 0h1m1 0h2m4 0h1m-2 1h1m1 0h1M13 9h1m8 0h1m1 0h1m-14 1h1m3 0h1m6 0h1m1 0h1m-12 1h1m3 0h1m6 0h1m5 0h1M9 12h1m5 0h1m8 0h1m3 0h3M9 13h1m1 0h1m10 0h1m5 0h3M7 14h1m3 0h1m1 0h1m7 0h2m1 0h2m2 0h2M9 15h1m3 0h1m5 0h4m1 0h1m1 0h2m2 0h1m-20 1h1m6 0h6m4 0h3m-14 1h7m3 0h3m-14 1h9m-10 1h9m-10 1h8m-8 1h6m-6 1h4m-4 1h2"/><path stroke="silver" d="M14 5h1m-1 1h1m-1 1h1m6 1h1M9 9h1m11 0h1M8 10h1m12 0h1M7 11h1m-2 1h1m15 0h1m4 0h1M5 13h1m21 0h1M4 14h1m14 0h1m7 0h1M4 15h1m13 0h1M4 16h1m12 0h1m9 0h1M4 17h1m11 0h1M4 18h1m10 0h1M2 19h1m11 0h1m13 0h2M1 20h1m1 0h2m21 0h2M1 21h2m2 0h2m17 0h2M1 22h3m3 0h2m13 0h2M1 23h3m1 0h1m3 0h2m9 0h2M2 24h4m1 0h1m3 0h2m5 0h2M3 25h5m1 0h1m3 0h1m2 0h2M5 26h5m1 0h1m3 0h1m-9 1h5m1 0h2m-6 1h6m-4 1h4m-2 1h1"/><path stroke="gray" d="M11 11h1m1 1h1m1 1h1m5 0h1m-2 1h1m5 5h2m2 0h1m-7 1h2m2 0h3m-9 1h2m2 0h5m-11 1h2m2 0h7m-13 1h2m2 0h8m-14 1h2m2 0h8m-14 1h2m2 0h8m-10 1h8m-9 1h7m-7 1h5m-5 1h3m-4 1h2"/><path stroke="red" d="M4 22h1m-1 1h1m1 0h1m-1 1h1m1 0h1m-1 1h1m1 0h1m-1 1h1m1 0h1m-1 1h1"/></svg>