<svg xmlns="http://www.w3.org/2000/svg" width="16" height="16" shape-rendering="crispEdges" viewBox="0 -0.5 16 16"><path stroke="gray" d="M1 0h10M1 1h1m9 0h1M1 2h1m10 0h1M1 3h1M1 4h1M1 5h1M1 6h1M1 7h1M1 8h1M1 9h1m-1 1h1m-1 1h1m-1 1h1m-1 1h1m-1 1h1"/><path stroke="#fff" d="M2 1h8M2 2h5m1 0h2m1 0h1M2 3h4m3 0h1M2 4h3m5 0h2M2 5h2m7 0h1M2 6h2m7 0h1M2 7h2M2 8h2M2 9h2m-2 1h2m-2 1h2m7 0h1M2 12h3m5 0h2M2 13h4m3 0h3"/><path stroke="silver" d="M10 1h1m-1 1h1m1 2h1m-1 1h1m-1 1h1m-2 1h2m-2 1h2m-2 1h2m-2 1h2m-9 1h1m5 0h1m1 0h1m-8 1h1m3 0h1m2 0h1m-7 1h1m1 0h1m3 0h1M2 14h11"/><path stroke="olive" d="M7 2h1M6 3h1m1 0h1M5 4h1m3 0h1M4 5h1m5 0h1"/><path stroke="#ff0" d="M7 3h1M6 4h3M5 5h5M5 6h5M6 7h3M7 8h1"/><path stroke="#000" d="M10 3h4m-1 1h1m-1 1h1m-4 1h1m2 0h1m-4 1h1m2 0h1m-4 1h1m2 0h1m-4 1h1m2 0h1m-4 1h1m2 0h1m-5 1h1m3 0h1m-6 1h1m4 0h1m-7 1h1m5 0h1m-1 1h1M1 15h13"/><path stroke="maroon" d="M4 6h1M4 7h1M4 8h1M4 9h1m-1 1h1m0 1h1m0 1h1"/><path stroke="red" d="M5 7h1M5 8h2M5 9h2m-2 1h2m-1 1h1"/><path stroke="#00f" d="M9 7h1M8 8h2M7 9h3m-3 1h3m-3 1h2m-2 1h1"/></svg>