<svg xmlns="http://www.w3.org/2000/svg" viewBox="0 -0.5 32 32" shape-rendering="crispEdges">
<path stroke="#000000" d="M0 0h1M10 0h6M9 1h1M16 1h3M8 2h1M19 2h3M7 3h1M13 3h2M22 3h2M6 4h1M12 4h1M15 4h1M24 4h1M6 5h2M12 5h1M16 5h1M25 5h2M6 6h1M8 6h2M11 6h2M16 6h1M20 6h2M27 6h1M6 7h1M10 7h1M16 7h1M19 7h1M22 7h1M28 7h1M7 8h1M9 8h1M17 8h3M23 8h1M29 8h1M8 9h1M19 9h1M23 9h1M30 9h1M7 10h1M12 10h1M23 10h1M31 10h1M6 11h1M14 11h1M23 11h1M31 11h1M5 12h1M10 12h1M16 12h1M23 12h1M31 12h1M4 13h1M12 13h1M23 13h2M31 13h1M3 14h1M8 14h1M14 14h1M23 14h1M30 14h2M3 15h1M10 15h1M23 15h1M28 15h2M31 15h1M3 16h1M12 16h1M24 16h1M31 16h1M3 17h1M24 17h2M30 17h1M2 18h2M25 18h6M1 19h1M3 19h2M24 19h2M31 19h1M0 20h1M5 20h2M22 20h2M31 20h1M0 21h1M7 21h2M20 21h2M31 21h1M0 22h1M9 22h2M18 22h2M31 22h1M0 23h1M11 23h2M16 23h2M30 23h1M1 24h1M13 24h3M28 24h2M1 25h2M26 25h2M3 26h2M24 26h2M5 27h2M22 27h2M7 28h2M20 28h2M9 29h2M18 29h2M11 30h2M16 30h2M13 31h3" />
<path stroke="#ffffff" d="M0 0h1M10 1h1M11 2h5M16 3h3M13 4h1M19 4h2M21 5h2M23 6h1M20 7h1M24 7h1M25 8h1M11 9h2M26 9h1M13 10h2M26 10h1M30 10h1M9 11h2M15 11h2M27 11h3M11 12h2M7 13h2M13 13h2M5 14h1M9 14h2M5 15h3M11 15h2M6 16h4M8 17h3M10 18h3M11 19h3M2 20h1M13 20h1M3 21h2M5 22h2M7 23h2M9 24h2M11 25h2M13 26h2" />
<path stroke="#ffff00" d="M0 0h1M11 1h5M9 2h2M16 2h3M8 3h3M15 3h1M19 3h3M7 4h3M14 4h1M16 4h3M21 4h3M8 5h1M13 5h1M17 5h4M23 5h2M7 6h1M13 6h1M18 6h2M24 6h3M7 7h2M11 7h3M21 7h1M25 7h3M8 8h1M10 8h7M20 8h1M26 8h3M10 9h1M14 9h5M20 9h1M25 9h1M27 9h3M9 10h2M16 10h5M25 10h1M27 10h3M8 11h1M12 11h1M18 11h5M25 11h2M7 12h2M14 12h1M17 12h5M25 12h2M6 13h1M10 13h1M16 13h5M25 13h2M6 14h1M12 14h1M15 14h4M26 14h1M8 15h1M14 15h4M25 15h1M5 16h1M10 16h1M13 16h4M25 16h2M5 17h3M11 17h5M26 17h1M5 18h5M13 18h2M5 19h6M7 20h6M9 21h5M11 22h3M13 23h1" />
<path stroke="#bfbf00" d="M0 0h1M11 3h2M10 4h2M9 5h3M15 5h1M10 6h1M15 6h1M17 6h1M22 6h1M9 7h1M15 7h1M17 7h2M23 7h1M22 8h1M24 8h1M13 9h1M22 9h1M24 9h1M11 10h1M15 10h1M22 10h1M24 10h1M13 11h1M17 11h1M24 11h1M30 11h1M9 12h1M15 12h1M24 12h1M28 12h3M9 13h1M11 13h1M22 13h1M28 13h3M7 14h1M11 14h1M13 14h1M21 14h2M24 14h2M28 14h2M9 15h1M13 15h1M19 15h4M24 15h1M26 15h2M30 15h1M11 16h1M18 16h6M28 16h3M17 17h7M27 17h3M16 18h9M15 19h9M14 20h8M14 21h6M14 22h4M14 23h2" />
<path stroke="#c0c0c0" d="M0 0h1M14 5h1M14 6h1M14 7h1M21 8h1M9 9h1M21 9h1M8 10h1M21 10h1M7 11h1M6 12h1M22 12h1M27 12h1M5 13h1M27 13h1M4 14h1M19 14h1M27 14h1M4 15h1M18 15h1M4 16h1M17 16h1M27 16h1M4 17h1M16 17h1M4 18h1M15 18h1M2 19h1M14 19h1M28 19h2M1 20h1M3 20h2M26 20h2M1 21h2M5 21h2M24 21h2M1 22h3M7 22h2M22 22h2M1 23h3M5 23h1M9 23h2M20 23h2M2 24h4M7 24h1M11 24h2M18 24h2M3 25h5M9 25h1M13 25h1M16 25h2M5 26h5M11 26h1M15 26h1M7 27h5M13 27h2M9 28h6M11 29h4M13 30h1" />
<path stroke="#808080" d="M0 0h1M11 11h1M13 12h1M15 13h1M21 13h1M20 14h1M26 19h2M30 19h1M24 20h2M28 20h3M22 21h2M26 21h5M20 22h2M24 22h7M18 23h2M22 23h8M16 24h2M20 24h8M14 25h2M18 25h8M16 26h8M15 27h7M15 28h5M15 29h3M14 30h2" />
<path stroke="#ff0000" d="M0 0h1M4 22h1M4 23h1M6 23h1M6 24h1M8 24h1M8 25h1M10 25h1M10 26h1M12 26h1M12 27h1" />
</svg>