<svg xmlns="http://www.w3.org/2000/svg" width="16" height="16" shape-rendering="crispEdges" viewBox="0 -0.5 16 16"><path stroke="gray" d="M0 0h9M0 1h1m8 0h1M0 2h1m9 0h1M0 3h1M0 4h1M0 5h1M0 6h1M0 7h1M0 8h1M0 9h1m-1 1h1m5 0h1m-7 1h1m5 0h1m-7 1h1m5 0h1m-7 1h1m5 0h1m-1 1h1"/><path stroke="#fff" d="M1 1h7M1 2h7m1 0h1M1 3h7M1 4h1m3 0h5M1 5h8M1 6h1M1 7h6M1 8h1M1 9h4m-4 1h1m5 0h6M1 11h5m1 0h6M1 12h5m1 0h2m3 0h1m-6 1h2m3 0h1m-6 1h2m3 0h1"/><path stroke="silver" d="M8 1h1M8 2h1M2 4h3m5 1h1M2 6h6m1 0h1M8 7h1M2 8h4m1 0h1m-6 2h4m7 0h1m-1 1h1m-1 1h1M1 13h5m7 0h1m-1 1h1"/><path stroke="#000" d="M8 3h4m-2 1h2m-1 1h1m0 1h1m0 1h1m0 1h1M5 9h11m-2 1h1m-1 1h1m-1 1h1m-4 1h1m2 0h1M0 14h6m5 0h1m2 0h1m-9 1h9"/><path stroke="red" d="M12 4h1m-1 1h1"/><path stroke="maroon" d="M13 4h1m-1 1h1m-1 1h1"/><path stroke="olive" d="M9 5h1M8 6h1m2 0h1M7 7h1m2 0h1m1 0h1M6 8h1m2 0h1m1 0h1m1 0h1m-5 4h3m-3 1h1m-1 1h1"/><path stroke="#ff0" d="M10 6h1M9 7h1m1 0h1M8 8h1m1 0h1m1 0h1m-3 5h1m-1 1h1"/></svg>