<svg xmlns="http://www.w3.org/2000/svg" width="32" height="32" shape-rendering="crispEdges" viewBox="0 -0.5 32 32"><path stroke="gray" d="M0 0h16M0 1h1m14 0h1M0 2h1m14 0h2M0 3h1m14 0h1m1 0h1M0 4h1m14 0h1m2 0h1M0 5h1m14 0h1m3 0h1M0 6h1m14 0h1M0 7h1M0 8h1M0 9h1m-1 1h1m-1 1h1m-1 1h1m8 0h1M0 13h1m8 0h1m1 0h20M0 14h1m5 0h1m4 0h1M0 15h1m10 0h1M0 16h1m10 0h1M0 17h1m10 0h1M0 18h1m10 0h1M0 19h1m10 0h1M0 20h1m10 0h1M0 21h1m10 0h1M0 22h1m10 0h1M0 23h1m10 0h1M0 24h1m10 0h1M0 25h1m10 0h1M0 26h1m10 0h1m-1 1h1m-1 1h1m-1 1h1m-1 1h1"/><path stroke="#fff" d="M1 1h1m1 0h3m1 0h3m1 0h3M1 2h3m1 0h3m1 0h3m1 0h2M1 3h1m1 0h3m1 0h3m1 0h3M1 4h3m1 0h3m1 0h3m1 0h2m1 0h1M1 5h1m1 0h3m1 0h3m1 0h3m2 0h2M1 6h3m1 0h3m1 0h3m1 0h2M1 7h1m1 0h3m1 0h2m3 0h2m1 0h3m1 0h1M1 8h3m1 0h2m7 0h2m1 0h3M1 9h1m1 0h3m9 0h3m1 0h1M1 10h3m1 0h1m1 0h1m7 0h1m1 0h3M1 11h1m1 0h2m1 0h1m9 0h2m1 0h1M1 12h3m2 0h1m1 0h1m8 0h3M1 13h1m1 0h2m2 0h1m-7 1h3m-3 1h1m1 0h3m19 0h1m1 0h1m1 0h1M1 16h3m1 0h1m-5 1h1m1 0h3m-5 1h3m1 0h3m5 0h17M1 19h1m1 0h3m1 0h3m3 0h2m3 0h2m3 0h2m3 0h2M1 20h3m1 0h3m1 0h2m2 0h2m3 0h2m3 0h2m3 0h2M1 21h1m1 0h3m1 0h3m3 0h1m4 0h1m4 0h1m4 0h2M1 22h3m1 0h3m1 0h2m2 0h2m3 0h2m3 0h2m3 0h2M1 23h1m1 0h3m1 0h3m3 0h17M1 24h3m1 0h3m1 0h2m2 0h17M1 25h1m1 0h3m1 0h3m3 0h3m2 0h3m2 0h2m3 0h2m-17 1h2m3 0h2m3 0h2m3 0h2m-17 1h1m4 0h1m4 0h1m4 0h2m-17 1h2m3 0h2m3 0h2m3 0h2m-17 1h17"/><path stroke="#ff0" d="M2 1h1m3 0h1m3 0h1m3 0h1M4 2h1m3 0h1m3 0h1M2 3h1m3 0h1m3 0h1m3 0h1M4 4h1m3 0h1m3 0h1M2 5h1m3 0h1m3 0h1m3 0h1M4 6h1m3 0h1m3 0h1M2 7h1m3 0h1m7 0h1m3 0h1M4 8h1m11 0h1M2 9h1m15 0h1M4 10h1m11 0h1M2 11h1m15 0h1M4 12h1m11 0h1M2 13h1m1 1h1m-3 1h1m1 1h1m-3 1h1m3 0h1m-3 1h1m3 0h1m-7 1h1m3 0h1m3 0h1m-7 1h1m3 0h1m7 0h1M2 21h1m3 0h1m3 0h1m-7 1h1m3 0h1m-7 1h1m3 0h1m3 0h1m-7 1h1m3 0h1m-7 1h1m3 0h1m3 0h1m5 1h1m4 0h1m4 0h1"/><path stroke="#000" d="M16 1h1m0 1h1m0 1h1m0 1h1m0 1h1m-5 1h6m-1 1h1m-1 1h1m-1 1h1m-8 1h1m6 0h1m-7 1h1m5 0h1m-7 1h1m5 0h1m9 1h1m-1 1h1m-6 1h1m1 0h1m1 0h2m-7 1h7m-1 1h1M9 18h2m20 0h1m-1 1h1m-1 1h1m-1 1h1m-17 1h3m7 0h3m3 0h1m-1 1h1m-1 1h1m-1 1h1m-1 1h1M0 27h11m11 0h1m8 0h1m-17 1h3m2 0h3m2 0h3m3 0h1m-1 1h1m-1 1h1m-21 1h21"/><path stroke="silver" d="M16 3h1m0 1h1m0 1h1m1 2h1M9 8h1m10 0h1M7 9h1m12 0h1m-1 1h1M7 11h2m11 0h1M7 12h1m12 0h1M8 13h1m3 4h19m-19 1h1m17 0h1m-19 1h1m17 0h1m-19 1h1m17 0h1m-19 1h1m17 0h1m-19 1h1m17 0h1m-19 1h1m17 0h1m-19 1h1m17 0h1m-19 1h1m17 0h1M1 26h10m1 0h1m17 0h1m-19 1h1m17 0h1m-19 1h1m17 0h1m-19 1h1m17 0h1m-19 1h19"/><path stroke="teal" d="M9 7h3M7 8h2m2 0h1m1 0h1M6 9h1m1 0h1m5 0h1m-9 1h1m4 0h2m-8 1h1m3 0h1m2 0h1m1 0h1M5 12h1m5 0h2m-8 1h2m-2 1h1m0 1h1m2 0h1m-4 1h1m13 3h3m-3 1h1m1 0h1m-4 1h3"/><path stroke="navy" d="M10 8h1m-2 2h1m1 1h1m1 0h1m-2 3h19m-19 1h13m-13 1h13M7 17h3m17 2h1m-1 1h1m-6 1h1m1 0h4m-8 1h3"/><path stroke="green" d="M12 8h1M9 9h5m-6 1h1m4 0h1m-4 2h1m-1 1h1m-2 1h2m-1 1h1m-1 1h1"/><path stroke="#00f" d="M10 10h1m-1 1h1m2 1h2m-8 2h2m-2 1h2m-2 1h3m0 1h1m14 2h2m-2 1h1"/><path stroke="red" d="M15 19h2m-2 1h1m9 5h2m-2 1h1"/><path stroke="maroon" d="M17 19h1m-1 1h1m-4 1h4m9 4h1m-1 1h1m-4 1h4"/><path stroke="#0ff" d="M21 20h1m4 0h1"/><path stroke="#f0f" d="M16 25h2m-3 1h1m1 0h1m-2 1h1"/><path stroke="olive" d="M21 25h2m-3 1h1m1 0h1m-4 1h3"/><path stroke="purple" d="M14 27h2m1 0h1"/></svg>