<svg xmlns="http://www.w3.org/2000/svg" viewBox="0 -0.5 32 32" shape-rendering="crispEdges">
<path stroke="#000080" d="M0 0h1M27 1h2M26 2h1M25 3h1M24 4h1M23 5h1M22 6h1M2 7h20M2 8h14M20 8h1M2 9h14M19 9h1M18 10h1M17 11h1M19 12h1" />
<path stroke="#000000" d="M0 0h1M29 1h1M29 2h1M29 3h1M28 4h1M27 5h1M26 6h1M25 7h1M17 8h1M19 8h1M24 8h1M16 9h3M23 9h2M22 10h3M21 11h1M24 11h1M20 12h1M24 12h1M18 13h1M24 13h1M17 14h1M24 14h1M15 15h2M23 15h2M14 16h2M23 16h2M8 17h1M13 17h2M24 17h1M9 18h5M24 18h1M25 19h1M21 20h1M26 20h1M21 21h1M26 21h1M20 22h1M27 22h1M20 23h1M27 23h1M19 24h1M28 24h1M28 25h1M18 26h8M29 26h1M1 27h14M18 27h1M29 27h1M17 28h1M30 28h1M14 29h4M26 29h5" />
<path stroke="#00ffff" d="M0 0h1M27 2h1M26 3h1M25 4h1M24 5h1M23 6h1M22 7h1M21 8h1M20 9h1M19 10h1M18 11h1" />
<path stroke="#0000ff" d="M0 0h1M28 2h1M27 3h2M26 4h2M25 5h2M24 6h2M23 7h2M22 8h2M21 9h2M20 10h2M19 11h2" />
<path stroke="#808080" d="M0 0h1M1 6h21M1 7h1M1 8h1M1 9h1M1 10h1M1 11h1M1 12h1M16 12h1M1 13h1M15 13h1M1 14h1M14 14h1M1 15h1M13 15h2M1 16h1M1 17h1M25 17h1M1 18h1M25 18h1M1 19h1M26 19h1M1 20h1M1 21h1M27 21h1M1 22h1M21 22h1M1 23h1M21 23h1M28 23h1M1 24h1M1 25h1M29 25h1M1 26h1M19 27h6M30 27h1M18 28h2M18 29h1M31 29h1M15 30h4M27 30h5" />
<path stroke="#ffffff" d="M0 0h1M16 8h1M18 8h1M3 11h14M22 11h1M3 12h1M17 12h1M22 12h1M3 13h12M16 13h1M19 13h4M3 14h1M15 14h1M21 14h1M3 15h9M17 15h4M3 16h1M12 16h1M20 16h1M3 17h5M15 17h5M3 18h1M19 18h1M3 19h16M3 20h1M17 20h1M3 21h15M3 22h1M16 22h1M22 22h1M3 23h14M22 23h1M3 24h13M3 25h13" />
<path stroke="#c0c0c0" d="M0 0h1M2 10h16M2 11h1M23 11h1M2 12h1M4 12h7M21 12h1M23 12h1M2 13h1M23 13h1M2 14h1M4 14h5M23 14h1M2 15h1M2 16h1M4 16h3M2 17h1M11 17h2M2 18h1M4 18h3M17 18h2M2 19h1M2 20h1M4 20h4M14 20h3M2 21h1M2 22h1M4 22h5M11 22h5M2 23h1M2 24h1M2 25h1M2 26h13" />
<path stroke="#00ff00" d="M0 0h1M11 12h5M9 14h5M18 14h3M7 16h4M13 16h1M16 16h4M7 18h2M14 18h3M8 20h6M9 22h2" />
<path stroke="#ffff00" d="M0 0h1M18 12h1M17 13h1M16 14h1" />
<path stroke="#800000" d="M0 0h1M22 14h1M21 15h1M21 16h1M20 17h1M20 18h1M19 19h1M18 20h1M22 20h1M18 21h1M22 21h1M17 22h1M23 22h1M17 23h1M23 23h1M16 24h1M20 24h5M16 25h1M15 26h1M15 27h1M25 27h1M14 28h1M26 28h1" />
<path stroke="#008000" d="M0 0h1M12 15h1M11 16h1M9 17h2" />
<path stroke="#ff0000" d="M0 0h1M22 15h1M22 16h1M21 17h3M21 18h3M20 19h5M19 20h2M23 20h3M19 21h2M23 21h3M18 22h2M24 22h3M18 23h2M24 23h3M17 24h2M25 24h3M17 25h11M16 26h2M26 26h3M16 27h2M26 27h3M15 28h2M27 28h3" />
</svg>