<svg xmlns="http://www.w3.org/2000/svg" viewBox="0 -0.5 32 32" shape-rendering="crispEdges">
<path stroke="#808080" d="M0 0h1M0 0h16M0 1h1M15 1h1M0 2h1M15 2h2M0 3h1M15 3h1M17 3h1M0 4h1M15 4h1M18 4h1M0 5h1M15 5h1M19 5h1M0 6h1M15 6h1M0 7h1M0 8h1M0 9h1M0 10h1M0 11h1M0 12h1M9 12h1M0 13h1M9 13h1M11 13h20M0 14h1M6 14h1M11 14h1M0 15h1M11 15h1M0 16h1M11 16h1M0 17h1M11 17h1M0 18h1M11 18h1M0 19h1M11 19h1M0 20h1M11 20h1M0 21h1M11 21h1M0 22h1M11 22h1M0 23h1M11 23h1M0 24h1M11 24h1M0 25h1M11 25h1M0 26h1M11 26h1M11 27h1M11 28h1M11 29h1M11 30h1" />
<path stroke="#ffffff" d="M0 0h1M1 1h1M3 1h3M7 1h3M11 1h3M1 2h3M5 2h3M9 2h3M13 2h2M1 3h1M3 3h3M7 3h3M11 3h3M1 4h3M5 4h3M9 4h3M13 4h2M16 4h1M1 5h1M3 5h3M7 5h3M11 5h3M16 5h2M1 6h3M5 6h3M9 6h3M13 6h2M1 7h1M3 7h3M7 7h2M12 7h2M15 7h3M19 7h1M1 8h3M5 8h2M14 8h2M17 8h3M1 9h1M3 9h3M15 9h3M19 9h1M1 10h3M5 10h1M7 10h1M15 10h1M17 10h3M1 11h1M3 11h2M6 11h1M16 11h2M19 11h1M1 12h3M6 12h1M8 12h1M17 12h3M1 13h1M3 13h2M7 13h1M1 14h3M1 15h1M3 15h3M25 15h1M27 15h1M29 15h1M1 16h3M5 16h1M1 17h1M3 17h3M1 18h3M5 18h3M13 18h17M1 19h1M3 19h3M7 19h3M13 19h2M18 19h2M23 19h2M28 19h2M1 20h3M5 20h3M9 20h2M13 20h2M18 20h2M23 20h2M28 20h2M1 21h1M3 21h3M7 21h3M13 21h1M18 21h1M23 21h1M28 21h2M1 22h3M5 22h3M9 22h2M13 22h2M18 22h2M23 22h2M28 22h2M1 23h1M3 23h3M7 23h3M13 23h17M1 24h3M5 24h3M9 24h2M13 24h17M1 25h1M3 25h3M7 25h3M13 25h3M18 25h3M23 25h2M28 25h2M13 26h2M18 26h2M23 26h2M28 26h2M13 27h1M18 27h1M23 27h1M28 27h2M13 28h2M18 28h2M23 28h2M28 28h2M13 29h17" />
<path stroke="#ffff00" d="M0 0h1M2 1h1M6 1h1M10 1h1M14 1h1M4 2h1M8 2h1M12 2h1M2 3h1M6 3h1M10 3h1M14 3h1M4 4h1M8 4h1M12 4h1M2 5h1M6 5h1M10 5h1M14 5h1M4 6h1M8 6h1M12 6h1M2 7h1M6 7h1M14 7h1M18 7h1M4 8h1M16 8h1M2 9h1M18 9h1M4 10h1M16 10h1M2 11h1M18 11h1M4 12h1M16 12h1M2 13h1M4 14h1M2 15h1M4 16h1M2 17h1M6 17h1M4 18h1M8 18h1M2 19h1M6 19h1M10 19h1M4 20h1M8 20h1M16 20h1M2 21h1M6 21h1M10 21h1M4 22h1M8 22h1M2 23h1M6 23h1M10 23h1M4 24h1M8 24h1M2 25h1M6 25h1M10 25h1M16 26h1M21 26h1M26 26h1" />
<path stroke="#000000" d="M0 0h1M16 1h1M17 2h1M18 3h1M19 4h1M20 5h1M16 6h6M21 7h1M21 8h1M21 9h1M14 10h1M21 10h1M15 11h1M21 11h1M15 12h1M21 12h1M31 13h1M31 14h1M26 15h1M28 15h1M30 15h2M25 16h7M31 17h1M9 18h2M31 18h1M31 19h1M31 20h1M31 21h1M15 22h3M25 22h3M31 22h1M31 23h1M31 24h1M31 25h1M31 26h1M0 27h11M22 27h1M31 27h1M15 28h3M20 28h3M25 28h3M31 28h1M31 29h1M31 30h1M11 31h21" />
<path stroke="#c0c0c0" d="M0 0h1M16 3h1M17 4h1M18 5h1M20 7h1M9 8h1M20 8h1M7 9h1M20 9h1M20 10h1M7 11h2M20 11h1M7 12h1M20 12h1M8 13h1M12 17h19M12 18h1M30 18h1M12 19h1M30 19h1M12 20h1M30 20h1M12 21h1M30 21h1M12 22h1M30 22h1M12 23h1M30 23h1M12 24h1M30 24h1M12 25h1M30 25h1M1 26h10M12 26h1M30 26h1M12 27h1M30 27h1M12 28h1M30 28h1M12 29h1M30 29h1M12 30h19" />
<path stroke="#008080" d="M0 0h1M9 7h3M7 8h2M11 8h1M13 8h1M6 9h1M8 9h1M14 9h1M6 10h1M11 10h2M5 11h1M9 11h1M12 11h1M14 11h1M5 12h1M11 12h2M5 13h2M5 14h1M6 15h1M9 15h1M6 16h1M20 19h3M20 20h1M22 20h1M19 21h3" />
<path stroke="#000080" d="M0 0h1M10 8h1M9 10h1M11 11h1M13 11h1M12 14h19M12 15h13M12 16h13M7 17h3M27 19h1M27 20h1M22 21h1M24 21h4M20 22h3" />
<path stroke="#008000" d="M0 0h1M12 8h1M9 9h5M8 10h1M13 10h1M10 12h1M10 13h1M9 14h2M10 15h1M10 16h1" />
<path stroke="#0000ff" d="M0 0h1M10 10h1M10 11h1M13 12h2M7 14h2M7 15h2M7 16h3M10 17h1M25 19h2M25 20h1" />
<path stroke="#ff0000" d="M0 0h1M15 19h2M15 20h1M25 25h2M25 26h1" />
<path stroke="#800000" d="M0 0h1M17 19h1M17 20h1M14 21h4M27 25h1M27 26h1M24 27h4" />
<path stroke="#00ffff" d="M0 0h1M21 20h1M26 20h1" />
<path stroke="#ff00ff" d="M0 0h1M16 25h2M15 26h1M17 26h1M16 27h1" />
<path stroke="#808000" d="M0 0h1M21 25h2M20 26h1M22 26h1M19 27h3" />
<path stroke="#800080" d="M0 0h1M14 27h2M17 27h1" />
</svg>