<svg xmlns="http://www.w3.org/2000/svg" viewBox="0 -0.5 48 48" shape-rendering="crispEdges">
<path stroke="#808080" d="M0 0h1M19 0h10M16 1h3M29 1h3M14 2h2M32 2h2M12 3h2M34 3h2M10 4h2M36 4h2M9 5h1M38 5h1M8 6h1M39 6h1M7 7h1M6 8h1M5 9h1M4 10h1M4 11h1M3 12h1M2 13h2M2 14h1M2 15h1M1 16h1M1 17h1M1 18h1M27 18h6M0 19h1M25 19h2M33 19h2M0 20h1M24 20h1M0 21h1M23 21h1M0 22h1M22 22h1M0 23h1M21 23h1M0 24h1M21 24h1M0 25h1M20 25h1M0 26h1M20 26h1M0 27h1M20 27h1M0 28h1M20 28h1M1 29h1M20 29h1M1 30h1M20 30h1M1 31h1M21 31h1M2 32h1M21 32h1M36 32h1M2 33h1M22 33h1M35 33h1M3 34h1M23 34h1M34 34h1M37 34h1M3 35h1M24 35h1M36 35h3M4 36h1M37 36h2M4 37h1M33 37h1M38 37h1M5 38h1M33 38h1M6 39h1M34 39h1M7 40h1M35 40h1M8 41h1" />
<path stroke="#c0c0c0" d="M0 0h1M19 1h1M16 2h1M18 2h1M20 2h1M15 3h1M17 3h1M19 3h1M14 4h1M16 4h1M13 5h1M15 5h1M12 6h1M9 7h1M11 7h1M10 8h1M11 9h1M5 12h1M10 12h1M4 13h1M6 13h1M11 13h1M13 13h1M3 14h1M5 14h1M10 14h1M12 14h1M4 15h1M11 15h1M13 15h1M2 16h2M10 16h1M12 16h1M4 17h1M11 17h1M3 18h1M10 18h1M17 18h1M4 19h1M12 19h1M18 19h1M27 19h1M29 19h1M31 19h1M2 20h2M11 20h1M25 20h1M3 21h2M10 21h1M12 21h1M24 21h1M2 22h1M5 22h1M16 22h1M23 22h1M32 22h1M34 22h1M1 23h1M3 23h2M6 23h1M10 23h1M22 23h1M29 23h1M31 23h1M33 23h1M35 23h1M2 24h1M4 24h1M9 24h1M11 24h1M13 24h1M28 24h1M30 24h1M32 24h1M34 24h1M36 24h1M1 25h1M3 25h1M5 25h1M8 25h1M12 25h1M14 25h1M21 25h1M27 25h1M29 25h1M31 25h1M33 25h1M35 25h1M2 26h1M4 26h1M6 26h1M9 26h1M11 26h1M13 26h1M28 26h1M30 26h1M32 26h1M34 26h1M36 26h1M1 27h1M3 27h1M5 27h1M7 27h1M10 27h3M14 27h1M27 27h1M29 27h1M31 27h1M33 27h1M35 27h1M37 27h1M4 28h1M6 28h1M8 28h1M13 28h1M28 28h1M30 28h1M32 28h1M34 28h1M36 28h1M3 29h1M5 29h1M7 29h1M9 29h1M13 29h3M27 29h1M29 29h1M31 29h1M33 29h1M35 29h1M37 29h1M4 30h1M6 30h1M16 30h1M21 30h1M28 30h1M30 30h1M32 30h1M34 30h1M36 30h1M3 31h1M27 31h1M29 31h1M31 31h1M33 31h1M35 31h1M4 32h1M6 32h1M28 32h1M30 32h1M32 32h1M34 32h1M27 33h1M29 33h1M31 33h1M33 33h1M6 34h1M28 34h1M30 34h1M32 34h1M27 35h1M29 35h1M31 35h1M35 36h2M36 37h2M34 38h1M37 38h1M35 39h2M37 40h1M38 41h1M39 42h1M40 43h1M41 44h1M42 45h1" />
<path stroke="#008080" d="M0 0h1M20 1h2M25 1h2M28 1h1M29 2h3M11 6h1M10 7h1M12 7h1M6 9h1M8 9h1M7 10h1M10 10h1M10 11h1M9 12h1M34 14h1M2 17h1M2 18h1M1 19h2M1 20h1M34 20h1M1 21h2M35 21h1M1 22h1M3 22h1M36 22h1M2 23h1M36 23h2M1 24h1M3 24h1M5 24h1M37 24h1M2 25h1M4 25h1M6 25h1M37 25h2M1 26h1M3 26h1M5 26h1M7 26h1M38 26h1M2 27h1M4 27h1M6 27h1M38 27h1M1 28h3M5 28h1M7 28h1M38 28h1M2 29h1M4 29h1M6 29h1M8 29h1M38 29h1M2 30h2M5 30h1M7 30h1M37 30h2M2 31h1M4 31h2M8 31h2M37 31h1M3 32h1M5 32h1M8 32h2M37 32h1M3 33h4M8 33h1M36 33h1M4 34h2M7 34h1M35 34h1M4 35h4M25 35h1M33 35h2M5 36h3M27 36h6M5 37h3M6 38h2M7 39h2M8 40h2" />
<path stroke="#0000ff" d="M0 0h1M22 1h3M27 1h1M22 2h5M25 3h2M32 3h2M33 4h1M35 5h1M18 6h1M17 7h2M12 8h1M15 8h3M13 9h1M20 10h3M9 11h1M19 11h2M8 12h1M11 12h2M29 13h1M32 13h2M19 14h1M28 14h3M32 14h2M18 15h6M26 15h1M29 15h6M17 16h6M27 16h1M29 16h1M35 16h1M17 17h5M23 17h1M25 17h2M36 17h1M14 18h3M19 18h8M13 19h3M22 19h3M39 19h2M13 20h3M38 20h4M38 21h5M11 22h2M38 22h5M44 22h1M11 23h2M39 23h5M45 23h1M39 24h6M10 25h1M40 25h4M45 25h1M10 26h1M40 26h3M44 26h1M8 27h2M40 27h2M43 27h1M9 28h4M40 28h3M10 29h3M40 29h2M8 30h8M40 30h1M42 30h1M7 31h1M10 31h8M39 31h3M7 32h1M10 32h9M39 32h1M42 32h1M9 33h11M8 34h12M8 35h13M8 36h14M8 37h13M8 38h12M9 39h11M29 39h3M10 40h10M26 40h5M32 40h1M11 41h9M21 41h1M27 41h1M29 41h1M31 41h1M33 41h1M12 42h3M16 42h1M18 42h1M20 42h1M26 42h1M28 42h1M30 42h1M15 43h1M17 43h1M19 43h1" />
<path stroke="#ffffff" d="M0 0h1M17 2h1M19 2h1M14 3h1M16 3h1M18 3h1M12 4h2M15 4h1M10 5h3M17 5h1M9 6h2M8 7h1M13 7h2M7 8h3M11 8h1M7 9h1M9 9h1M5 10h2M8 10h1M5 11h3M4 12h1M6 12h1M5 13h1M7 13h1M9 13h1M12 13h1M4 14h1M6 14h4M11 14h1M13 14h1M3 15h1M5 15h6M12 15h1M14 15h2M4 16h6M11 16h1M3 17h1M5 17h6M12 17h1M4 18h6M3 19h1M5 19h7M4 20h7M12 20h1M16 20h1M26 20h1M28 20h1M30 20h1M32 20h1M5 21h5M11 21h1M13 21h1M15 21h1M25 21h1M27 21h3M31 21h1M33 21h1M4 22h1M6 22h5M14 22h1M24 22h1M26 22h3M30 22h1M5 23h1M7 23h3M13 23h1M23 23h1M25 23h3M6 24h3M10 24h1M12 24h1M22 24h1M24 24h3M7 25h1M9 25h1M11 25h1M13 25h1M23 25h3M8 26h1M12 26h1M22 26h5M21 27h1M23 27h3M22 28h1M24 28h3M21 29h1M23 29h1M25 29h1M22 30h1M24 30h1M26 30h1M23 31h1M25 31h1M22 32h1M24 32h1M26 32h1M23 33h1M25 33h1M24 34h1M26 34h1M34 37h2M35 38h2" />
<path stroke="#008000" d="M0 0h1M21 2h1M27 2h2M20 3h5M27 3h5M17 4h16M34 4h2M14 5h1M16 5h1M18 5h17M36 5h2M13 6h5M19 6h20M15 7h2M19 7h21M13 8h2M18 8h22M10 9h1M12 9h1M14 9h27M9 10h1M11 10h9M23 10h18M42 10h1M8 11h1M11 11h8M21 11h19M41 11h1M7 12h1M13 12h28M42 12h1M8 13h1M10 13h1M14 13h15M30 13h2M34 13h8M43 13h1M14 14h5M20 14h8M31 14h1M35 14h6M42 14h1M44 14h1M16 15h2M24 15h2M27 15h2M35 15h7M43 15h1M13 16h4M23 16h4M28 16h1M30 16h5M36 16h5M42 16h1M44 16h1M13 17h4M22 17h1M24 17h1M27 17h9M37 17h5M43 17h1M45 17h1M11 18h3M18 18h1M34 18h9M44 18h1M16 19h2M19 19h3M35 19h4M41 19h3M45 19h1M17 20h7M36 20h2M42 20h1M44 20h1M46 20h1M14 21h1M16 21h7M37 21h1M43 21h1M45 21h1M13 22h1M15 22h1M17 22h5M46 22h1M14 23h7M14 24h7M15 25h5M14 26h6M13 27h1M15 27h5M14 28h6M16 29h4M17 30h3M6 31h1M18 31h3M19 32h2M7 33h1M20 33h2M20 34h3M21 35h3M22 36h3M21 37h6M20 38h9M20 39h8M21 40h5M23 41h3M22 42h3" />
<path stroke="#000000" d="M0 0h1M40 7h1M41 8h1M42 9h1M43 10h1M43 11h1M44 12h1M44 13h1M45 14h1M45 15h1M46 16h1M46 17h1M46 18h1M47 19h1M35 20h1M47 20h1M36 21h1M47 21h1M37 22h1M47 22h1M38 23h1M47 23h1M38 24h1M47 24h1M39 25h1M47 25h1M39 26h1M47 26h1M39 27h1M47 27h1M39 28h1M47 28h1M39 29h1M46 29h1M39 30h1M46 30h1M38 31h1M46 31h1M38 32h1M45 32h1M37 33h2M45 33h1M36 34h1M38 34h1M44 34h1M35 35h1M39 35h1M44 35h1M25 36h2M33 36h2M40 36h1M43 36h1M27 37h6M41 37h3M42 38h1M43 39h1M44 40h1M45 41h1M9 42h1M46 42h1M10 43h2M36 43h2M47 43h1M12 44h2M34 44h2M47 44h1M14 45h2M32 45h2M47 45h1M16 46h3M29 46h3M46 46h1M19 47h10M43 47h3" />
<path stroke="#000080" d="M0 0h1M40 8h1M41 9h1M41 10h1M40 11h1M42 11h1M41 12h1M43 12h1M42 13h1M41 14h1M43 14h1M42 15h1M44 15h1M41 16h1M43 16h1M45 16h1M42 17h1M44 17h1M33 18h1M43 18h1M45 18h1M44 19h1M46 19h1M43 20h1M45 20h1M44 21h1M46 21h1M43 22h1M45 22h1M44 23h1M46 23h1M45 24h2M44 25h1M46 25h1M43 26h1M45 26h2M42 27h1M44 27h3M43 28h4M42 29h4M41 30h1M43 30h3M42 31h4M40 32h2M43 32h2M39 33h6M39 34h5M40 35h4M41 36h2M29 38h4M28 39h1M32 39h2M20 40h1M31 40h1M33 40h2M9 41h2M20 41h1M22 41h1M26 41h1M28 41h1M30 41h1M32 41h1M34 41h2M10 42h2M15 42h1M17 42h1M19 42h1M21 42h1M25 42h1M27 42h1M29 42h1M31 42h6M12 43h3M16 43h1M18 43h1M20 43h16M14 44h20M16 45h16M19 46h10" />
<path stroke="#00ffff" d="M0 0h1M28 19h1M30 19h1M32 19h1M27 20h1M29 20h1M31 20h1M33 20h1M26 21h1M30 21h1M32 21h1M34 21h1M25 22h1M29 22h1M31 22h1M33 22h1M35 22h1M24 23h1M28 23h1M30 23h1M32 23h1M34 23h1M23 24h1M27 24h1M29 24h1M31 24h1M33 24h1M35 24h1M22 25h1M26 25h1M28 25h1M30 25h1M32 25h1M34 25h1M36 25h1M21 26h1M27 26h1M29 26h1M31 26h1M33 26h1M35 26h1M37 26h1M22 27h1M26 27h1M28 27h1M30 27h1M32 27h1M34 27h1M36 27h1M21 28h1M23 28h1M27 28h1M29 28h1M31 28h1M33 28h1M35 28h1M37 28h1M22 29h1M24 29h1M26 29h1M28 29h1M30 29h1M32 29h1M34 29h1M36 29h1M23 30h1M25 30h1M27 30h1M29 30h1M31 30h1M33 30h1M35 30h1M22 31h1M24 31h1M26 31h1M28 31h1M30 31h1M32 31h1M34 31h1M36 31h1M23 32h1M25 32h1M27 32h1M29 32h1M31 32h1M33 32h1M35 32h1M24 33h1M26 33h1M28 33h1M30 33h1M32 33h1M34 33h1M25 34h1M27 34h1M29 34h1M31 34h1M33 34h1M26 35h1M28 35h1M30 35h1M32 35h1" />
<path stroke="#800000" d="M0 0h1M39 36h1M39 37h2M39 38h3M40 39h3M41 40h3M36 41h1M42 41h3M37 42h1M43 42h3M38 43h1M44 43h3M39 44h1M45 44h2M40 45h1M45 45h2M41 46h1M44 46h2M42 47h1" />
<path stroke="#ff0000" d="M0 0h1M38 38h1M38 39h2M36 40h1M39 40h2M37 41h1M40 41h2M38 42h1M41 42h2M39 43h1M42 43h2M40 44h1M43 44h2M41 45h1M44 45h1M42 46h1" />
<path stroke="#ff00ff" d="M0 0h1M37 39h1M38 40h1M39 41h1M40 42h1M41 43h1M42 44h1M43 45h1M43 46h1" />
</svg>