<svg xmlns="http://www.w3.org/2000/svg" viewBox="0 -0.5 32 32" shape-rendering="crispEdges">
<path stroke="#808080" d="M0 0h1M10 0h12M10 1h1M22 1h1M10 2h1M23 2h1M10 3h1M10 4h1M1 5h11M1 6h1M12 6h1M1 7h1M13 7h1M1 8h1M1 9h1M1 10h1M1 11h1M6 11h1M1 12h1M10 12h1M1 13h1M1 14h1M6 14h1M1 15h1M4 15h1M12 15h17M1 16h1M12 16h1M1 17h1M12 17h1M1 18h1M12 18h1M1 19h1M12 19h1M14 19h10M1 20h1M12 20h1M1 21h1M12 21h1M12 22h1M12 23h1M12 24h1M12 25h1M12 26h1M12 27h1M12 28h1M12 29h1M12 30h1" />
<path stroke="#ffffff" d="M0 0h1M11 1h10M11 2h10M22 2h1M11 3h1M20 3h1M11 4h12M22 5h1M3 6h3M7 6h3M13 6h10M2 7h2M5 7h3M9 7h2M12 7h1M22 7h1M3 8h3M7 8h3M15 8h8M2 9h2M5 9h3M9 9h3M22 9h1M3 10h2M11 10h2M15 10h8M2 11h2M11 11h1M22 11h1M3 12h1M11 12h2M15 12h8M2 13h2M5 13h1M11 13h1M22 13h1M3 14h1M11 14h2M15 14h8M2 15h2M11 15h1M3 16h1M11 16h1M2 17h2M10 17h2M3 18h3M7 18h3M11 18h1M2 19h2M5 19h3M9 19h3M3 20h3M7 20h3M11 20h1M13 21h15M13 22h1M27 22h1M13 23h15M13 24h1M27 24h1M13 25h15M13 26h1M27 26h1M13 27h15M13 28h1M27 28h1M13 29h15" />
<path stroke="#c0c0c0" d="M0 0h1M21 1h1M21 2h1M12 3h8M23 4h1M12 5h10M23 5h1M11 6h1M23 6h1M11 7h1M14 7h8M23 7h1M23 8h1M13 9h1M15 9h7M23 9h1M5 10h1M9 10h1M13 10h1M23 10h1M4 11h1M10 11h1M13 11h1M15 11h7M23 11h1M5 12h1M13 12h1M23 12h1M6 13h1M13 13h1M15 13h7M23 13h1M5 14h1M13 14h1M23 14h1M4 16h1M10 16h1M5 17h1M9 17h1M13 18h16M13 19h1M24 19h1M27 19h2M13 20h16M2 21h10M28 21h1M28 22h1M28 23h1M28 24h1M28 25h1M28 26h1M28 27h1M28 28h1M28 29h1M13 30h16" />
<path stroke="#000000" d="M0 0h1M21 3h4M24 4h1M24 5h1M24 6h1M24 7h1M11 8h4M24 8h1M14 9h1M24 9h1M14 10h1M24 10h1M14 11h1M24 11h1M14 12h1M24 12h1M14 13h1M24 13h1M14 14h1M24 14h1M29 15h1M9 16h1M29 16h1M6 17h3M29 17h1M29 18h1M29 19h1M29 20h1M29 21h1M1 22h11M29 22h1M29 23h1M29 24h1M29 25h1M29 26h1M29 27h1M29 28h1M29 29h1M29 30h1M12 31h18" />
<path stroke="#ffff00" d="M0 0h1M2 6h1M6 6h1M10 6h1M4 7h1M8 7h1M2 8h1M6 8h1M10 8h1M4 9h1M8 9h1M12 9h1M2 10h1M10 10h1M12 11h1M2 12h1M12 13h1M2 14h1M2 16h1M4 17h1M2 18h1M6 18h1M10 18h1M4 19h1M8 19h1M2 20h1M6 20h1M10 20h1" />
<path stroke="#008080" d="M0 0h1M6 10h3M5 11h1M7 11h1M9 11h1M4 12h1M6 12h1M8 12h1M4 13h1M4 14h1M8 14h1" />
<path stroke="#008000" d="M0 0h1M8 11h1M9 12h1M7 13h1M7 14h1M7 15h1" />
<path stroke="#0000ff" d="M0 0h1M7 12h1M9 13h1M9 14h1M5 15h2M8 15h1M6 16h1M14 22h13M14 24h13M14 26h13M14 28h13" />
<path stroke="#000080" d="M0 0h1M8 13h1M10 13h1M10 14h1M9 15h2M5 16h1M7 16h2M13 16h16M13 17h16M25 19h2" />
</svg>