<svg xmlns="http://www.w3.org/2000/svg" viewBox="0 -0.5 32 32" shape-rendering="crispEdges">
<path stroke="#c0c0c0" d="M0 0h1M2 5h27M2 6h1M2 7h1M2 8h1M2 9h1M2 10h1M2 11h1M2 12h1M2 13h1M2 14h1M2 15h1M2 16h1M2 17h1M2 18h1M2 19h1M2 20h1M2 21h1M2 22h1" />
<path stroke="#000000" d="M0 0h1M29 5h1M29 6h1M29 7h1M29 8h1M29 9h1M29 10h1M29 11h1M29 12h1M29 13h1M29 14h1M29 15h1M29 16h1M29 17h1M29 18h1M29 19h1M29 20h1M29 21h1M29 22h1M2 23h18M21 23h3M26 23h4" />
<path stroke="#008000" d="M0 0h1M3 6h26M3 7h2M27 7h2M3 8h1M28 8h1M3 9h1M28 9h1M3 10h1M28 10h1M3 11h1M7 11h18M28 11h1M3 12h1M28 12h1M3 13h1M7 13h18M28 13h1M3 14h1M28 14h1M3 15h1M7 15h14M28 15h1M3 16h1M28 16h1M3 17h1M7 17h13M28 17h1M3 18h1M28 18h1M3 19h1M28 19h1M3 20h1M28 20h1M3 21h2M27 21h2M3 22h17M22 22h2M26 22h3" />
<path stroke="#ffffff" d="M0 0h1M5 7h22M4 8h24M4 9h24M4 10h24M4 11h3M25 11h3M4 12h24M4 13h3M25 13h3M4 14h18M24 14h4M4 15h3M25 15h3M4 16h16M22 16h2M26 16h2M4 17h3M21 17h4M26 17h2M4 18h16M22 18h2M26 18h2M4 19h17M25 19h3M4 20h18M24 20h4M5 21h16M25 21h2" />
<path stroke="#ff0000" d="M0 0h1M22 14h2M21 15h4M20 16h2M24 16h2M20 17h1M25 17h1M20 18h2M24 18h2M21 19h4M22 20h2M21 21h4M20 22h2M24 22h2M20 23h1M24 23h2M19 24h2M24 24h2M18 25h2M23 25h2M18 26h2M23 26h2" />
</svg>