<svg xmlns="http://www.w3.org/2000/svg" viewBox="0 -0.5 32 32" shape-rendering="crispEdges">
<path stroke="#000000" d="M0 0h1M11 0h16M10 1h1M27 1h1M9 2h1M27 2h1M8 3h1M27 3h1M8 4h1M27 4h1M8 5h1M11 5h12M27 5h1M8 6h1M11 6h1M22 6h1M27 6h1M8 7h1M11 7h1M22 7h1M27 7h1M8 8h1M11 8h1M22 8h1M27 8h1M8 9h1M11 9h1M22 9h1M27 9h1M4 10h2M8 10h1M11 10h1M22 10h1M27 10h1M3 11h1M5 11h1M8 11h5M22 11h1M27 11h1M2 12h1M5 12h1M7 12h1M13 12h1M22 12h1M27 12h1M1 13h1M6 13h2M13 13h10M27 13h1M0 14h1M7 14h1M13 14h1M27 14h4M0 15h1M6 15h1M12 15h2M26 15h1M31 15h1M0 16h1M3 16h5M11 16h1M13 16h13M31 16h1M1 17h2M8 17h1M10 17h1M13 17h1M31 17h1M2 18h1M8 18h2M13 18h1M31 18h1M2 19h7M13 19h1M31 19h1M2 20h1M13 20h1M16 20h10M31 20h1M2 21h1M13 21h1M17 21h3M21 21h4M30 21h1M2 22h1M13 22h1M16 22h8M29 22h1M2 23h1M13 23h1M15 23h1M28 23h1M2 24h1M13 24h15M2 25h1M13 25h1M2 26h1M13 26h1M2 27h1M12 27h1M20 27h10M2 28h1M11 28h1M19 28h1M28 28h1M2 29h1M10 29h1M18 29h10M2 30h1M9 30h1M17 30h5M23 30h4M2 31h7M16 31h10" />
<path stroke="#c0c0c0" d="M0 0h1M11 1h14M9 3h16M9 4h2M23 4h2M9 5h1M24 5h1M9 6h1M24 6h1M9 7h1M24 7h1M9 8h1M24 8h1M9 9h1M24 9h1M9 10h1M24 10h1M4 11h1M24 11h1M3 12h2M24 12h1M2 13h2M5 13h1M24 13h1M1 14h2M4 14h3M14 14h2M23 14h2M1 15h1M3 15h3M8 15h4M16 15h9M29 15h1M2 16h1M8 16h3M28 16h1M9 17h1M16 17h12M14 18h2M16 19h11M12 20h1M26 20h1M11 21h2M16 21h1M26 21h1M10 22h3M9 23h4M9 24h4M9 25h4M9 26h4M9 27h3M9 28h2M9 29h1" />
<path stroke="#ffffff" d="M0 0h1M25 1h1M10 2h15M23 5h1M23 6h1M23 7h1M23 8h1M23 9h1M23 10h1M23 11h1M8 12h5M23 12h1M8 13h5M23 13h1M16 14h7M3 17h5M3 18h5M16 18h11M20 21h1M17 23h1M19 23h1M21 23h1M3 24h5M3 25h5M3 26h5M3 27h5M3 28h5M20 28h1M22 28h1M24 28h1M26 28h1M3 29h5M3 30h5M22 30h1" />
<path stroke="#808080" d="M0 0h1M26 1h1M25 2h2M25 3h2M11 4h12M25 4h2M10 5h1M25 5h2M10 6h1M25 6h2M10 7h1M25 7h2M10 8h1M25 8h2M10 9h1M25 9h2M10 10h1M25 10h2M25 11h2M25 12h2M4 13h1M25 13h2M3 14h1M8 14h5M25 14h2M2 15h1M7 15h1M14 15h2M25 15h1M27 15h2M30 15h1M1 16h1M26 16h2M29 16h2M14 17h2M28 17h3M27 18h4M14 19h2M27 19h4M14 20h2M27 20h4M14 21h2M25 21h1M27 21h3M14 22h2M24 22h5M14 23h1M23 23h5M8 24h1M8 25h1M8 26h1M8 27h1M8 28h1M8 29h1M8 30h1" />
<path stroke="#0000ff" d="M0 0h1M12 6h10M12 7h1M14 7h8M12 8h1M14 8h8M12 9h10M12 10h10M13 11h9M15 12h7M3 20h5M3 21h5M3 22h5M3 23h5" />
<path stroke="#00ffff" d="M0 0h1M13 7h1M13 8h1" />
<path stroke="#000080" d="M0 0h1M14 12h1M12 16h1M11 17h2M10 18h3M9 19h4M8 20h4M8 21h3M8 22h2M8 23h1" />
<path stroke="#ffff00" d="M0 0h1M16 23h1M18 23h1M20 23h1M22 23h1M21 28h1M23 28h1M25 28h1M27 28h1" />
</svg>