<svg xmlns="http://www.w3.org/2000/svg" width="32" height="32" shape-rendering="crispEdges" viewBox="0 -0.5 32 32"><path stroke="#000" d="M11 0h16M10 1h1m16 0h1M9 2h1m17 0h1M8 3h1m18 0h1M8 4h1m18 0h1M8 5h1m2 0h12m4 0h1M8 6h1m2 0h1m10 0h1m4 0h1M8 7h1m2 0h1m10 0h1m4 0h1M8 8h1m2 0h1m10 0h1m4 0h1M8 9h1m2 0h1m10 0h1m4 0h1M4 10h2m2 0h1m2 0h1m10 0h1m4 0h1M3 11h1m1 0h1m2 0h5m9 0h1m4 0h1M2 12h1m2 0h1m1 0h1m5 0h1m8 0h1m4 0h1M1 13h1m4 0h2m5 0h10m4 0h1M0 14h1m6 0h1m5 0h1m13 0h4M0 15h1m5 0h1m5 0h2m12 0h1m4 0h1M0 16h1m2 0h5m3 0h1m1 0h13m5 0h1M1 17h2m5 0h1m1 0h1m2 0h1m17 0h1M2 18h1m5 0h2m3 0h1m17 0h1M2 19h7m4 0h1m17 0h1M2 20h1m10 0h1m2 0h10m5 0h1M2 21h1m10 0h1m3 0h3m1 0h4m5 0h1M2 22h1m10 0h1m2 0h8m5 0h1M2 23h1m10 0h1m1 0h1m12 0h1M2 24h1m10 0h15M2 25h1m10 0h1M2 26h1m10 0h1M2 27h1m9 0h1m7 0h10M2 28h1m8 0h1m7 0h1m8 0h1M2 29h1m7 0h1m7 0h10M2 30h1m6 0h1m7 0h5m1 0h4M2 31h7m7 0h10"/><path stroke="silver" d="M11 1h14M9 3h16M9 4h2m12 0h2M9 5h1m14 0h1M9 6h1m14 0h1M9 7h1m14 0h1M9 8h1m14 0h1M9 9h1m14 0h1M9 10h1m14 0h1M4 11h1m19 0h1M3 12h2m19 0h1M2 13h2m1 0h1m18 0h1M1 14h2m1 0h3m7 0h2m7 0h2M1 15h1m1 0h3m2 0h4m4 0h9m4 0h1M2 16h1m5 0h3m17 0h1M9 17h1m6 0h12m-14 1h2m0 1h11m-15 1h1m13 0h1m-16 1h2m3 0h1m9 0h1m-17 1h3m-4 1h4m-4 1h4m-4 1h4m-4 1h4m-4 1h3m-3 1h2m-2 1h1"/><path stroke="#fff" d="M25 1h1M10 2h15m-2 3h1m-1 1h1m-1 1h1m-1 1h1m-1 1h1m-1 1h1m-1 1h1M8 12h5m10 0h1M8 13h5m10 0h1m-8 1h7M3 17h5m-5 1h5m8 0h11m-7 3h1m-4 2h1m1 0h1m1 0h1M3 24h5m-5 1h5m-5 1h5m-5 1h5m-5 1h5m12 0h1m1 0h1m1 0h1m1 0h1M3 29h5m-5 1h5m14 0h1"/><path stroke="gray" d="M26 1h1m-2 1h2m-2 1h2M11 4h12m2 0h2M10 5h1m14 0h2M10 6h1m14 0h2M10 7h1m14 0h2M10 8h1m14 0h2M10 9h1m14 0h2m-17 1h1m14 0h2m-2 1h2m-2 1h2M4 13h1m20 0h2M3 14h1m4 0h5m12 0h2M2 15h1m4 0h1m6 0h2m9 0h1m1 0h2m1 0h1M1 16h1m24 0h2m1 0h2m-17 1h2m12 0h3m-4 1h4m-17 1h2m11 0h4m-17 1h2m11 0h4m-17 1h2m9 0h1m1 0h3m-16 1h2m8 0h5m-15 1h1m8 0h5M8 24h1m-1 1h1m-1 1h1m-1 1h1m-1 1h1m-1 1h1m-1 1h1"/><path stroke="#00f" d="M12 6h10M12 7h1m1 0h8M12 8h1m1 0h8M12 9h10m-10 1h10m-9 1h9m-7 1h7M3 20h5m-5 1h5m-5 1h5m-5 1h5"/><path stroke="#0ff" d="M13 7h1m-1 1h1"/><path stroke="navy" d="M14 12h1m-3 4h1m-2 1h2m-3 1h3m-4 1h4m-5 1h4m-4 1h3m-3 1h2m-2 1h1"/><path stroke="#ff0" d="M16 23h1m1 0h1m1 0h1m1 0h1m-2 5h1m1 0h1m1 0h1m1 0h1"/></svg>