<svg xmlns="http://www.w3.org/2000/svg" width="32" height="32" shape-rendering="crispEdges" viewBox="0 -0.5 32 32"><path stroke="gray" d="M11 1h9M9 2h2m9 0h2M7 3h2m13 0h2M6 4h1M5 5h1M4 6h1M3 7h1M2 8h1M2 9h1m-2 1h1m-1 1h1m-2 1h1m-1 1h1m-1 1h1m-1 1h1m-1 1h1m-1 1h1m-1 1h1m-1 1h1m-1 1h1m0 1h1m-1 1h1m0 1h1m-1 1h1m0 1h1m0 1h1m0 1h1m0 1h1"/><path stroke="#fff" d="M11 2h1m2 0h1M9 3h1m2 0h1M7 4h2m2 0h1M6 5h1m1 0h3M5 6h3m1 0h1M4 7h1M3 8h1m3 0h2M4 9h2m1 0h1m-6 1h1m1 0h5m-6 1h3m-5 1h1m1 0h3m-4 1h4m3 0h1m-7 1h5m-6 1h4m2 0h1m-6 1h3m1 0h1m-4 1h1m1 0h1m1 0h1"/><path stroke="teal" d="M12 2h2m1 0h1m1 0h3m-3 1h1M9 4h2m-1 2h1M5 7h1M4 8h1m11 1h1m4 0h1M9 11h1m-8 1h1m19 0h1M1 13h1m-1 1h1m-1 1h1m0 1h1m-2 1h1m1 0h1m-2 1h1m18 0h1M1 19h1m1 0h1m-2 1h1m7 0h2m9 0h1M4 21h1m15 0h1M4 22h1m14 0h1M3 24h1m0 1h1m7 0h1m9 0h1m-11 1h1m0 1h1"/><path stroke="#00f" d="M16 2h1m-4 1h1m4 0h1m-7 1h2m-3 1h1m1 0h1m-2 1h1M9 7h1M6 8h1m7 1h2m1 0h2m1 0h1m-10 1h5m1 0h3m1 0h1m-11 1h2m2 0h1m-8 1h2m1 0h8m2 0h1M7 13h2m4 0h3m6 0h3m1 0h1m-10 1h2m5 0h4M6 15h1m11 0h2m3 0h4m1 0h1m-10 1h2m1 0h4M5 17h1m14 0h2m1 0h4M4 18h2m16 0h4m1 0h1M5 19h2m15 0h3m1 0h1M4 20h5m13 0h4M3 21h1m1 0h7m9 0h4m1 0h1M5 22h7m8 0h4m1 0h1M4 23h8m7 0h4m1 0h1M4 24h9m7 0h2m1 0h1M5 25h7m7 0h2M5 26h7m6 0h2M7 27h5m4 0h1m1 0h1m1 0h1M8 28h1m1 0h1m1 0h1m-4 1h1m1 0h1"/><path stroke="silver" d="M10 3h1M7 5h1M7 7h1M5 8h1M3 9h1m2 0h1m-4 1h1m-2 1h1m3 0h1m3 1h1m-5 1h1m-5 1h1m-2 2h1m4 0h1m-5 1h1m4 0h1m-7 1h1m1 0h1m2 0h1m-5 1h1m1 0h1m2 0h2m-8 1h1m1 0h1m5 0h1"/><path stroke="green" d="M11 3h1m2 0h3m2 0h3m-8 1h10M14 5h11M8 6h1m2 0h1m1 0h12M6 7h1m1 0h1m1 0h16M9 8h16m1 0h1M8 9h6m5 0h1m2 0h4m1 0h1M9 10h2m5 0h1m5 0h5m1 0h1M7 11h2m5 0h1m1 0h10m1 0h1M6 12h2m11 0h1m3 0h4m1 0h1m-19 1h3m3 0h5m6 0h1m1 0h1M8 14h9m2 0h3m6 0h1M7 15h1m1 0h9m2 0h2m7 0h1M8 16h11m2 0h1m6 0h1M9 17h11m8 0h1M7 18h14M9 19h13m-10 1h9M2 21h1m9 0h8M2 22h2m8 0h7M3 23h1m8 0h7m-6 1h6m5 0h1m-12 1h5m5 0h1m-11 1h4m4 0h3m-9 1h1m6 0h1m-9 1h1"/><path stroke="#000" d="M24 4h1m0 1h1m0 1h1m0 1h1m0 1h1m-1 1h1m0 1h1m-1 1h1m0 1h1m-1 1h1m-1 1h1m-1 1h1m-1 1h1m-1 1h1m-1 1h1m-1 1h1m-1 1h1m-2 1h1m-1 1h1m-2 1h1m-1 1h1m-2 1h1m-2 1h1m-2 1h1m-2 1h1M7 29h2m13 0h2M9 30h2m9 0h2m-11 1h9"/><path stroke="navy" d="M12 5h1m12 1h1m0 1h1m-2 1h1m1 0h1m-2 1h1m-7 1h1m6 0h1m-18 1h1m2 0h1m12 0h1m1 0h1m-9 1h1m6 0h1m1 0h1m-9 1h1m3 0h1m2 0h1m-7 1h2m5 0h1m-8 1h1m4 0h1m-2 1h2m1 0h1m-8 1h1m4 0h1m1 0h1m-4 1h1m1 0h2m-5 1h1m1 0h3m-4 1h4m-5 1h1m1 0h2m-5 1h1m1 0h3m-6 1h1m1 0h3m-9 1h1m2 0h1m2 0h3m-10 1h1m2 0h1m2 0h3m-10 1h1m2 0h1m3 0h2M6 27h1m5 0h1m1 0h1m2 0h1m1 0h1m1 0h1m1 0h2M7 28h1m1 0h1m1 0h1m1 0h1m1 0h9m-14 1h1m1 0h10m-11 1h9"/></svg>