<svg xmlns="http://www.w3.org/2000/svg" width="16" height="16" shape-rendering="crispEdges" viewBox="0 -0.5 16 16"><path stroke="gray" d="M5 0h5M3 1h2m5 0h2M2 2h1m9 0h1M1 3h1M1 4h1M0 5h1M0 6h1M0 7h1M0 8h1M0 9h1m-1 1h1m0 1h1m-1 1h1m0 1h1m0 1h2"/><path stroke="silver" d="M5 1h1M4 2h1M3 3h1M2 4h1M1 5h1m1 0h1M1 7h1m1 0h1m1 0h1M2 8h1m1 0h1M2 9h1m2 1h1"/><path stroke="#fff" d="M6 1h1M3 2h1m1 0h1M2 3h1m0 1h1M2 5h1m1 0h1M1 6h3M2 7h1m1 0h1M3 8h1m1 0h1"/><path stroke="#00f" d="M7 1h1M6 2h1M6 4h3M5 5h2m1 0h2m3 0h1M4 6h1m2 0h1m2 0h3M9 7h1m1 0h2m-3 1h2M3 9h1m7 0h2M2 10h3m5 0h2m-9 1h3m3 0h1m-7 1h4m1 0h1m-6 1h2m2 0h1m1 0h1"/><path stroke="teal" d="M8 1h2M4 3h1m5 1h1M7 5h1m2 0h1m2 1h1M8 7h1m1 0h1M1 8h1M1 9h1m2 0h2m4 0h1m-9 3h1m7 0h1"/><path stroke="green" d="M7 2h5M5 3h8M4 4h2m3 0h1m1 0h2m-2 1h2M5 6h2m1 0h2M6 7h2M6 8h4M6 9h4m-9 1h1m4 0h3m-7 1h1m3 0h3m-2 1h1m3 0h1"/><path stroke="#000" d="M13 3h1m-1 1h1m0 1h1m-1 1h1m-1 1h1m-1 1h1m-1 1h1m-1 1h1m-2 1h1m-1 1h1m-2 1h1m-3 1h2m-7 1h5"/><path stroke="navy" d="M13 7h1m-2 1h2m-1 1h1m-5 1h1m2 0h2m-4 1h3m-4 1h1m2 0h1m-8 1h2m1 0h1m1 0h2m-7 1h5"/></svg>