<svg xmlns="http://www.w3.org/2000/svg" width="16" height="16" shape-rendering="crispEdges" viewBox="0 -0.5 16 16"><path stroke="olive" d="M6 0h6M4 1h2m6 0h1M3 2h1m8 0h2M2 3h1m9 0h1M2 4h1m3 0h1m1 0h1m3 0h1M2 5h1m3 0h1m5 0h1M2 6h1m5 0h1m3 0h1M7 7h1m3 0h1M6 8h1m3 0h1M6 9h1m3 0h1m-5 1h1m3 0h1m-4 2h3m-4 1h1m3 0h1m-5 1h1m3 0h1"/><path stroke="#fff" d="M6 1h4"/><path stroke="silver" d="M10 1h2M4 2h1m6 0h1M3 3h1m6 9h1"/><path stroke="#ff0" d="M5 2h6M4 3h8M3 4h3m3 0h3M3 5h3m3 0h3M9 6h3M8 7h3M7 8h3M7 9h3m-3 1h3m-3 3h3m-3 1h3"/><path stroke="#000" d="M13 3h1M7 4h1m5 0h1M7 5h2m4 0h1M3 6h4m6 0h1m-2 1h1m-2 1h1m-1 1h1m-1 1h1m-6 1h5m0 1h1m-1 1h1m-1 1h1m-5 1h4"/></svg>