<svg xmlns="http://www.w3.org/2000/svg" viewBox="0 -0.5 32 32" shape-rendering="crispEdges">
<path stroke="#000000" d="M0 0h1M7 0h3M13 0h2M7 1h1M10 1h3M16 1h1M4 2h3M13 2h3M17 2h3M2 3h2M6 3h1M8 3h3M16 3h2M20 3h1M1 4h1M5 4h1M8 4h1M11 4h1M16 4h1M21 4h1M1 5h1M5 5h1M8 5h1M10 5h1M12 5h1M15 5h1M18 5h1M22 5h1M24 5h1M9 6h1M13 6h2M17 6h1M19 6h1M23 6h1M25 6h2M10 7h1M13 7h1M16 7h1M20 7h1M24 7h1M27 7h2M11 8h2M15 8h1M21 8h1M25 8h1M29 8h1M14 9h1M26 9h1M30 9h1M16 10h1M21 10h3M30 10h1M20 11h4M29 11h1M19 12h1M29 12h1M29 13h1M29 14h1M28 15h1M28 16h1M28 17h1M28 18h1M28 19h1M27 20h1M27 21h1M27 22h1M27 23h1M5 24h2M27 24h1M7 25h2M26 25h1M9 26h2M26 26h1M11 27h2M26 27h1M13 28h2M26 28h1M15 29h2M24 29h2M17 30h2M22 30h2M19 31h3" />
<path stroke="#808080" d="M0 0h1M8 1h2M10 2h3M13 3h3M19 3h1M4 4h1M20 4h1M3 5h2M21 5h1M2 6h1M5 6h2M22 6h1M2 7h1M7 7h2M23 7h1M2 8h1M9 8h2M24 8h1M2 9h1M11 9h2M25 9h1M3 10h1M13 10h2M26 10h2M3 11h1M15 11h2M24 11h2M28 11h1M3 12h1M17 12h2M22 12h2M26 12h3M3 13h1M19 13h3M24 13h5M3 14h1M22 14h7M4 15h1M21 15h7M4 16h1M21 16h7M4 17h1M21 17h7M4 18h1M21 18h7M4 19h1M21 19h7M5 20h1M21 20h6M5 21h1M21 21h6M5 22h1M21 22h6M5 23h1M21 23h6M21 24h6M21 25h5M21 26h5M21 27h5M21 28h5M21 29h3M21 30h1" />
<path stroke="#ffffff" d="M0 0h1M7 2h1M16 2h1M4 3h2M7 3h1M18 3h1M2 4h2M6 4h1M17 4h1M2 5h1M6 5h1M11 5h1M16 5h1M3 6h2M10 6h3M15 6h1M18 6h1M24 6h1M5 7h2M11 7h2M14 7h1M17 7h1M19 7h1M25 7h2M7 8h2M13 8h1M16 8h1M19 8h2M27 8h2M9 9h2M15 9h1M29 9h1M11 10h2M19 10h2M28 10h2M13 11h2M17 11h1M19 11h1M26 11h2M15 12h2M20 12h2M24 12h2M8 13h1M17 13h2M22 13h2M8 14h1M19 14h3M8 15h1M11 15h1M8 16h1M11 16h1M14 16h1M8 17h1M11 17h1M14 17h1M8 18h1M11 18h1M14 18h2M18 18h1M8 19h1M11 19h1M14 19h2M18 19h1M8 20h1M11 20h1M14 20h1M16 20h1M18 20h1M9 21h1M11 21h1M14 21h1M16 21h1M18 21h1M10 22h2M14 22h1M16 22h1M18 22h1M14 23h1M17 23h2M14 24h1M17 24h2M18 25h1M18 26h1" />
<path stroke="#c0c0c0" d="M0 0h1M8 2h2M11 3h2M7 4h1M12 4h4M18 4h2M7 5h1M13 5h2M17 5h1M19 5h2M7 6h2M16 6h1M20 6h2M3 7h2M9 7h1M15 7h1M21 7h2M3 8h4M14 8h1M22 8h2M26 8h1M3 9h6M13 9h1M22 9h3M27 9h2M4 10h7M24 10h2M4 11h2M7 11h6M4 12h2M9 12h6M4 13h2M11 13h6M4 14h2M13 14h6M5 15h1M15 15h6M5 16h1M17 16h4M5 17h1M19 17h2M5 18h1M20 18h1M5 19h2M20 19h1M6 20h1M20 20h1M6 21h1M20 21h1M6 22h1M20 22h1M6 23h3M20 23h1M7 24h4M20 24h1M9 25h4M20 25h1M11 26h4M20 26h1M13 27h4M20 27h1M15 28h4M20 28h1M17 29h4M19 30h2" />
<path stroke="#ff0000" d="M0 0h1M9 4h2M9 5h1M6 11h1M7 12h1M6 13h1M10 13h1M7 14h1M9 14h1M11 14h1M6 15h1M10 15h1M12 15h1M14 15h1M7 16h1M9 16h1M13 16h1M15 16h1M6 17h1M10 17h1M12 17h1M16 17h1M18 17h1M7 18h1M9 18h1M13 18h1M17 18h1M19 18h1M10 19h1M12 19h1M16 19h1M7 20h1M9 20h1M13 20h1M15 20h1M17 20h1M19 20h1M8 21h1M10 21h1M12 21h1M7 22h1M9 22h1M13 22h1M15 22h1M17 22h1M19 22h1M10 23h1M12 23h1M16 23h1M11 24h1M13 24h1M15 24h1M19 24h1M14 25h1M16 25h1M15 26h1M17 26h1M19 26h1M18 27h1M19 28h1" />
<path stroke="#0000ff" d="M0 0h1M18 7h1M17 8h2M16 9h6M15 10h1M17 10h2M18 11h1" />
<path stroke="#bf0000" d="M0 0h1M6 12h1M8 12h1M7 13h1M9 13h1M6 14h1M10 14h1M12 14h1M7 15h1M9 15h1M13 15h1M6 16h1M10 16h1M12 16h1M16 16h1M7 17h1M9 17h1M13 17h1M15 17h1M17 17h1M6 18h1M10 18h1M12 18h1M16 18h1M7 19h1M9 19h1M13 19h1M17 19h1M19 19h1M10 20h1M12 20h1M7 21h1M13 21h1M15 21h1M17 21h1M19 21h1M8 22h1M12 22h1M9 23h1M11 23h1M13 23h1M15 23h1M19 23h1M12 24h1M16 24h1M13 25h1M15 25h1M17 25h1M19 25h1M16 26h1M17 27h1M19 27h1" />
</svg>