<svg xmlns="http://www.w3.org/2000/svg" width="32" height="32" shape-rendering="crispEdges" viewBox="0 -0.5 32 32"><path stroke="#000" d="M7 0h3m3 0h2M7 1h1m2 0h3m3 0h1M4 2h3m6 0h3m1 0h3M2 3h2m2 0h1m1 0h3m5 0h2m2 0h1M1 4h1m3 0h1m2 0h1m2 0h1m4 0h1m4 0h1M1 5h1m3 0h1m2 0h1m1 0h1m1 0h1m2 0h1m2 0h1m3 0h1m1 0h1M9 6h1m3 0h2m2 0h1m1 0h1m3 0h1m1 0h2M10 7h1m2 0h1m2 0h1m3 0h1m3 0h1m2 0h2M11 8h2m2 0h1m5 0h1m3 0h1m3 0h1M14 9h1m11 0h1m3 0h1m-15 1h1m4 0h3m6 0h1m-11 1h4m5 0h1m-11 1h1m9 0h1m-1 1h1m-1 1h1m-2 1h1m-1 1h1m-1 1h1m-1 1h1m-1 1h1m-2 1h1m-1 1h1m-1 1h1m-1 1h1M5 24h2m20 0h1M7 25h2m17 0h1M9 26h2m15 0h1m-16 1h2m13 0h1m-14 1h2m11 0h1m-12 1h2m7 0h2m-9 1h2m3 0h2m-5 1h3"/><path stroke="gray" d="M8 1h2m0 1h3m0 1h3m3 0h1M4 4h1m15 0h1M3 5h2m16 0h1M2 6h1m2 0h2m15 0h1M2 7h1m4 0h2m14 0h1M2 8h1m6 0h2m13 0h1M2 9h1m8 0h2m12 0h1M3 10h1m9 0h2m11 0h2M3 11h1m11 0h2m7 0h2m2 0h1M3 12h1m13 0h2m3 0h2m2 0h3M3 13h1m15 0h3m2 0h5M3 14h1m18 0h7M4 15h1m16 0h7M4 16h1m16 0h7M4 17h1m16 0h7M4 18h1m16 0h7M4 19h1m16 0h7M5 20h1m15 0h6M5 21h1m15 0h6M5 22h1m15 0h6M5 23h1m15 0h6m-6 1h6m-6 1h5m-5 1h5m-5 1h5m-5 1h5m-5 1h3m-3 1h1"/><path stroke="#fff" d="M7 2h1m8 0h1M4 3h2m1 0h1m10 0h1M2 4h2m2 0h1m10 0h1M2 5h1m3 0h1m4 0h1m4 0h1M3 6h2m5 0h3m2 0h1m2 0h1m5 0h1M5 7h2m4 0h2m1 0h1m2 0h1m1 0h1m5 0h2M7 8h2m4 0h1m2 0h1m2 0h2m6 0h2M9 9h2m4 0h1m13 0h1m-19 1h2m6 0h2m7 0h2m-17 1h2m2 0h1m1 0h1m6 0h2m-13 1h2m3 0h2m2 0h2M8 13h1m8 0h2m3 0h2M8 14h1m10 0h3M8 15h1m2 0h1m-4 1h1m2 0h1m2 0h1m-7 1h1m2 0h1m2 0h1m-7 1h1m2 0h1m2 0h2m2 0h1M8 19h1m2 0h1m2 0h2m2 0h1M8 20h1m2 0h1m2 0h1m1 0h1m1 0h1M9 21h1m1 0h1m2 0h1m1 0h1m1 0h1m-9 1h2m2 0h1m1 0h1m1 0h1m-5 1h1m2 0h2m-5 1h1m2 0h2m-1 1h1m-1 1h1"/><path stroke="silver" d="M8 2h2m1 1h2M7 4h1m4 0h4m2 0h2M7 5h1m5 0h2m2 0h1m1 0h2M7 6h2m7 0h1m3 0h2M3 7h2m4 0h1m5 0h1m5 0h2M3 8h4m7 0h1m7 0h2m2 0h1M3 9h6m4 0h1m8 0h3m2 0h2M4 10h7m13 0h2M4 11h2m1 0h6m-9 1h2m3 0h6M4 13h2m5 0h6M4 14h2m7 0h6M5 15h1m9 0h6M5 16h1m11 0h4M5 17h1m13 0h2M5 18h1m14 0h1M5 19h2m13 0h1M6 20h1m13 0h1M6 21h1m13 0h1M6 22h1m13 0h1M6 23h3m11 0h1M7 24h4m9 0h1M9 25h4m7 0h1m-10 1h4m5 0h1m-8 1h4m3 0h1m-6 1h4m1 0h1m-4 1h4m-2 1h2"/><path stroke="red" d="M9 4h2M9 5h1m-4 6h1m0 1h1m-2 1h1m3 0h1m-4 1h1m1 0h1m1 0h1m-6 1h1m3 0h1m1 0h1m1 0h1m-8 1h1m1 0h1m3 0h1m1 0h1M6 17h1m3 0h1m1 0h1m3 0h1m1 0h1M7 18h1m1 0h1m3 0h1m3 0h1m1 0h1m-10 1h1m1 0h1m3 0h1M7 20h1m1 0h1m3 0h1m1 0h1m1 0h1m1 0h1M8 21h1m1 0h1m1 0h1m-6 1h1m1 0h1m3 0h1m1 0h1m1 0h1m1 0h1m-10 1h1m1 0h1m3 0h1m-6 1h1m1 0h1m1 0h1m3 0h1m-6 1h1m1 0h1m-2 1h1m1 0h1m1 0h1m-2 1h1m0 1h1"/><path stroke="#00f" d="M18 7h1m-2 1h2m-3 1h6m-7 1h1m1 0h2m-1 1h1"/><path stroke="#bf0000" d="M6 12h1m1 0h1m-2 1h1m1 0h1m-4 1h1m3 0h1m1 0h1m-6 1h1m1 0h1m3 0h1m-8 1h1m3 0h1m1 0h1m3 0h1M7 17h1m1 0h1m3 0h1m1 0h1m1 0h1M6 18h1m3 0h1m1 0h1m3 0h1M7 19h1m1 0h1m3 0h1m3 0h1m1 0h1m-10 1h1m1 0h1m-6 1h1m5 0h1m1 0h1m1 0h1m1 0h1M8 22h1m3 0h1m-4 1h1m1 0h1m1 0h1m1 0h1m3 0h1m-8 1h1m3 0h1m-4 1h1m1 0h1m1 0h1m1 0h1m-4 1h1m0 1h1m1 0h1"/></svg>