<svg xmlns="http://www.w3.org/2000/svg" viewBox="0 -0.5 32 32" shape-rendering="crispEdges">
<path stroke="#000000" d="M0 0h1M7 0h3M11 0h5M17 0h3M6 1h1M10 1h1M16 1h1M20 1h1M6 2h1M17 2h1M20 2h1M6 3h1M18 3h1M20 3h1M7 4h1M13 4h2M18 4h2M7 5h1M13 5h2M19 5h1M7 6h1M20 6h1M7 7h1M20 7h1M8 8h1M19 8h1M9 9h1M18 9h1M21 9h3M8 10h1M19 10h2M24 10h1M8 11h1M25 11h1M7 12h1M25 12h1M7 13h1M24 13h1M7 14h1M22 14h2M6 15h1M16 15h1M21 15h1M6 16h1M17 16h1M21 16h1M6 17h1M9 17h1M17 17h1M20 17h1M6 18h1M10 18h2M17 18h1M20 18h1M6 19h1M12 19h2M16 19h1M20 19h2M6 20h1M14 20h2M22 20h2M6 21h1M24 21h2M6 22h1M15 22h1M26 22h1M6 23h1M16 23h1M26 23h1M7 24h1M17 24h2M26 24h1M7 25h1M19 25h1M26 25h1M8 26h1M19 26h3M25 26h1M9 27h1M19 27h1M22 27h3M10 28h1M19 28h1M11 29h1M19 29h1M12 30h2M18 30h1M14 31h4" />
<path stroke="#c0c0c0" d="M0 0h1M7 1h3M11 1h5M17 1h3M7 2h10M18 2h2M7 3h11M19 3h1M8 4h5M15 4h3M8 5h5M15 5h3M8 6h12M8 7h11M9 8h8M10 9h6M9 10h10M21 10h2M9 11h14M8 12h16M8 13h16M8 14h7M16 14h6M7 15h9M17 15h4M7 16h8M18 16h3M7 17h2M10 17h4M18 17h2M7 18h3M12 18h2M18 18h2M7 19h5M17 19h3M7 20h7M16 20h6M7 21h17M7 22h8M16 22h8M7 23h9M17 23h6M8 24h9M19 24h3M8 25h8M20 25h2M9 26h6M10 27h4M11 28h3M12 29h2M14 30h1" />
<path stroke="#ffffff" d="M0 0h1M21 6h1M21 7h1" />
<path stroke="#808080" d="M0 0h1M19 7h1M17 8h2M16 9h2M23 10h1M23 11h2M24 12h1M15 16h2M14 17h3M14 18h3M14 19h2M24 22h2M23 23h3M22 24h4M16 25h3M22 25h4M15 26h4M22 26h3M14 27h5M14 28h5M14 29h5M15 30h3" />
</svg>