<svg xmlns="http://www.w3.org/2000/svg" width="16" height="16" shape-rendering="crispEdges" viewBox="0 -0.5 16 16"><path stroke="gray" d="M0 0h12M0 1h1M0 2h1M0 3h1m6 0h1M0 4h1m7 0h1M0 5h1m5 0h1m8 0h1M0 6h1m11 0h4M0 7h1m5 0h3m6 0h1M0 8h1m4 0h1m3 0h1m5 0h1M0 9h1m10 0h1m3 0h1M0 10h1m2 0h1m1 0h1m4 0h1m4 0h1M0 11h1m3 0h2m4 0h1m1 0h1m2 0h1M0 12h1m1 0h1m1 0h1m1 0h1m2 0h2m4 0h1M0 13h2m11 0h1m1 0h1M0 14h1m14 0h1M0 15h16"/><path stroke="#fff" d="M12 0h1m0 1h1m0 1h1m-3 1h1m2 0h1m-4 1h2"/><path stroke="silver" d="M1 1h12M1 2h13M1 3h6m1 0h4m1 0h2M1 4h6m2 0h3m2 0h2M1 5h5m3 0h6M1 6h5m1 0h5M1 7h5m3 0h6M1 8h4m5 0h5M1 9h3m6 0h1m1 0h3M1 10h2m9 0h3M1 11h2m10 0h2M1 12h1m3 0h1m7 0h2M5 13h5m4 0h1M1 14h14"/><path stroke="teal" d="M7 4h1m0 1h1M6 6h1M4 9h2m3 0h1m-1 1h1m1 0h1m-3 1h1"/><path stroke="green" d="M7 5h1M6 8h3M6 9h3m-5 1h1m1 0h3m-6 1h1m2 0h3m2 0h1m-9 1h1m3 0h2m2 0h2M2 13h3m5 0h3"/></svg>