<svg xmlns="http://www.w3.org/2000/svg" width="32" height="32" shape-rendering="crispEdges" viewBox="0 -0.5 32 32"><path stroke="gray" d="M0 0h23M0 1h1m21 0h2M0 2h1m22 0h2M0 3h1m13 0h1m8 0h3M0 4h1m22 0h1m1 0h2M0 5h1m12 0h1m9 0h1m2 0h2M0 6h1m17 0h1m4 0h1m3 0h2M0 7h1m22 0h1m4 0h2M0 8h1m10 0h1m7 0h1m3 0h1m5 0h2M0 9h1m22 0h1m6 0h2M0 10h1m9 0h1m9 0h1m2 0h1m6 0h2M0 11h1m23 0h8M0 12h1m16 0h3m1 0h1m2 0h8M0 13h1m7 0h1m10 0h2m5 0h6M0 14h1m19 0h3m8 0h1M0 15h1m6 0h1m13 0h1m9 0h1M0 16h1m22 0h1m7 0h1M0 17h1m5 0h1m17 0h1m6 0h1M0 18h1m23 0h1m6 0h1M0 19h1m30 0h1M0 20h1m3 0h1m26 0h1M0 21h1m25 0h1m4 0h1M0 22h1m2 0h1m22 0h1m4 0h1M0 23h1m10 0h1m15 0h1m3 0h1M0 24h1m10 0h2m14 0h1m3 0h1M0 25h1m10 0h3m14 0h1m2 0h1M0 26h1m10 0h1m1 0h3m15 0h1M0 27h3m8 0h1m5 0h3m9 0h1m1 0h1M0 28h1m30 0h1M0 29h1m30 0h1M0 30h1m30 0h1M0 31h32"/><path stroke="silver" d="M1 1h21M1 2h14m1 0h7M1 3h13m3 0h6M1 4h13m3 0h6m1 0h1M1 5h12m5 0h5m1 0h2M1 6h12m6 0h4m1 0h3M1 7h11m7 0h4m1 0h4M1 8h10m9 0h3m1 0h5M1 9h10m9 0h3m1 0h6M1 10h9m11 0h2m1 0h6M1 11h9m11 0h3M1 12h8m13 0h2M1 13h7m14 0h4M1 14h7m15 0h8M1 15h6m16 0h8M1 16h6m17 0h7M1 17h5m19 0h6M1 18h5m19 0h6M1 19h4m21 0h5M1 20h3m22 0h5M1 21h3m23 0h4M1 22h2m24 0h4M1 23h2m25 0h3M1 24h1m26 0h3M1 25h1m27 0h2m-19 1h1m16 0h2m-19 1h5m13 0h1M1 28h30M1 29h30M1 30h30"/><path stroke="green" d="M15 2h1m-1 1h1m-1 1h2m-3 1h2m-2 1h4m-5 1h4m-5 1h7m-7 1h2m4 0h1m-8 1h1m7 0h1m-1 1h1m-8 2h5m-6 1h8m-9 1h9M8 16h2m2 0h7m3 0h1M7 17h2m3 0h8m2 0h1M7 18h2m3 0h7m3 0h2M6 19h2m3 0h8m3 0h2M5 20h3m3 0h8m3 0h4M5 21h3m3 0h7m1 0h1m1 0h1m1 0h2M4 22h4m4 0h9m1 0h4M4 23h4m5 0h5m1 0h1m1 0h5M3 24h6m12 0h6M2 25h7m11 0h7M2 26h8m9 0h9"/><path stroke="navy" d="M16 3h1m0 2h1m0 2h1m-5 2h4m1 0h1m-7 1h6m-7 1h7m1 0h1m-10 1h2m7 0h1m-11 1h2m9 0h1m-2 2h1m1 0h1m-12 1h1m8 0h2m-12 1h2m8 0h2m1 0h1M9 18h3m8 0h2M9 19h2m8 0h3m2 0h1M8 20h3m8 0h1M8 21h3m7 0h1m3 0h1m2 0h1M8 22h3m10 0h1M9 23h2m1 0h1m7 0h1m5 0h1M9 24h2m2 0h8M9 25h1m4 0h6m7 0h1m-12 1h3m9 0h1M3 27h8m9 0h9"/><path stroke="teal" d="M14 4h1m1 1h1m-4 1h1m-2 1h1m4 0h1m-7 2h1m0 1h1m-3 1h2m-3 1h2m2 0h4m-8 1h1m7 0h2M8 14h3m8 0h1M8 15h2m9 0h1M7 16h1m2 0h1m8 0h1M9 17h1m-4 1h1m12 0h1M5 19h1m2 0h1m16 0h1m-6 1h2M4 21h1m15 0h1m-10 1h1m-9 1h1m4 0h1m9 0h1M2 24h1m-2 2h1m8 0h1"/><path stroke="#00f" d="M10 25h1"/></svg>