<svg xmlns="http://www.w3.org/2000/svg" viewBox="0 -0.5 16 16" shape-rendering="crispEdges">
<path stroke="#808080" d="M0 0h1M0 0h12M0 1h1M0 2h1M0 3h1M7 3h1M0 4h1M8 4h1M0 5h1M6 5h1M15 5h1M0 6h1M12 6h4M0 7h1M6 7h3M15 7h1M0 8h1M5 8h1M9 8h1M15 8h1M0 9h1M11 9h1M15 9h1M0 10h1M3 10h1M5 10h1M10 10h1M15 10h1M0 11h1M4 11h2M10 11h1M12 11h1M15 11h1M0 12h1M2 12h1M4 12h1M6 12h1M9 12h2M15 12h1M0 13h2M13 13h1M15 13h1M0 14h1M15 14h1M0 15h16" />
<path stroke="#ffffff" d="M0 0h1M12 0h1M13 1h1M14 2h1M12 3h1M15 3h1M12 4h2" />
<path stroke="#c0c0c0" d="M0 0h1M1 1h12M1 2h13M1 3h6M8 3h4M13 3h2M1 4h6M9 4h3M14 4h2M1 5h5M9 5h6M1 6h5M7 6h5M1 7h5M9 7h6M1 8h4M10 8h5M1 9h3M10 9h1M12 9h3M1 10h2M12 10h3M1 11h2M13 11h2M1 12h1M5 12h1M13 12h2M5 13h5M14 13h1M1 14h14" />
<path stroke="#008080" d="M0 0h1M7 4h1M8 5h1M6 6h1M4 9h2M9 9h1M9 10h1M11 10h1M9 11h1" />
<path stroke="#008000" d="M0 0h1M7 5h1M6 8h3M6 9h3M4 10h1M6 10h3M3 11h1M6 11h3M11 11h1M3 12h1M7 12h2M11 12h2M2 13h3M10 13h3" />
</svg>