<svg xmlns="http://www.w3.org/2000/svg" viewBox="0 -0.5 16 16" shape-rendering="crispEdges">
<path stroke="#000000" d="M0 0h1M2 1h12M15 1h1M2 2h1M2 3h1M15 3h1M2 4h1M14 4h1M2 5h1M13 5h1M2 6h1M2 7h1M10 7h1M2 8h1M6 8h1M2 9h1M14 9h1M2 10h1M15 10h1M0 11h14M15 11h1M0 12h1M0 13h1M13 13h1M15 13h1M2 14h1M15 14h1M2 15h1M13 15h2" />
<path stroke="#ffffff" d="M0 0h1M3 2h10M3 3h10M3 4h1M5 4h7M3 5h1M6 5h5M3 6h1M7 6h3M3 7h1M8 7h2M12 7h1M3 8h1M10 8h3M3 9h1M10 9h3M3 10h1M11 10h2" />
<path stroke="#808080" d="M0 0h1M13 2h1M4 4h1M4 5h2M14 5h1M4 6h1M6 6h1M13 6h2M4 7h1M7 7h1M11 7h1M13 7h2M4 8h1M8 8h1M13 8h2M4 9h1M6 9h2M9 9h1M13 9h1M4 10h1M6 10h3M10 10h1M13 10h2M15 12h1M1 13h12M13 14h1M3 15h10" />
<path stroke="#008000" d="M0 0h1M14 2h1M13 3h1M12 4h1M11 5h1M10 6h1M12 6h1" />
<path stroke="#00ff00" d="M0 0h1M15 2h1M14 3h1M13 4h1M12 5h1M11 6h1" />
<path stroke="#c0c0c0" d="M0 0h1M5 6h1M5 7h2M5 8h1M7 8h1M9 8h1M5 9h1M8 9h1M5 10h1M9 10h1M14 11h1M1 12h12M14 12h1M14 13h1M3 14h10M14 14h1" />
<path stroke="#808000" d="M0 0h1M13 12h1" />
</svg>