<svg xmlns="http://www.w3.org/2000/svg" viewBox="0 -0.5 16 16" shape-rendering="crispEdges">
<path stroke="#868686" d="M0 0h1M5 0h6M3 1h2M7 1h1M10 1h1M2 2h1M7 2h1M10 2h1M1 3h1M7 3h1M10 3h1M12 3h1M0 4h1M7 4h1M10 4h1M0 5h1M3 5h1M6 5h2M10 5h1M0 6h1M4 6h1M7 6h1M10 6h1M0 7h1M3 7h1M8 7h1M0 8h1M2 8h1M6 8h3M11 8h2M0 9h1M4 9h2M8 9h1M13 9h2M0 10h1M3 10h1M8 10h3M3 11h1M11 12h1M13 12h1M10 13h1M12 13h1M11 14h1" />
<path stroke="#f8f8f8" d="M0 0h1M5 1h1M8 1h1M3 2h2M8 2h1M2 3h1M8 3h1M1 4h1M3 4h1M8 4h1M1 5h1M8 5h1M1 6h1M8 6h1M1 7h1M1 8h1M4 10h2M6 11h2M8 12h2" />
<path stroke="#dddddd" d="M0 0h1M6 1h1M3 3h1M2 5h1" />
<path stroke="#b2b2b2" d="M0 0h1M9 1h1M9 2h1M9 3h1M2 4h1M4 4h1M6 4h1M9 4h1M9 5h1M9 6h1M9 7h1M9 8h1M9 9h1M12 9h1M9 11h1M4 12h2M6 13h2M8 14h2" />
<path stroke="#000000" d="M0 0h1M11 1h1M11 2h2M11 3h1M13 3h1M11 4h3M11 5h1M5 6h2M11 6h1M4 7h1M10 7h1M3 8h1M10 8h1M2 9h1M10 9h2M1 10h1M15 10h1M15 11h1M15 12h1M4 13h2M14 13h2M6 14h2M12 14h2M8 15h4" />
<path stroke="#c0c0c0" d="M0 0h1M5 2h1M4 3h1M4 5h2M2 6h2M2 7h1M1 9h1M6 9h1M6 10h2M11 10h1M14 10h1M8 11h1M10 11h3M10 12h1" />
<path stroke="#0000ff" d="M0 0h1M6 2h1" />
<path stroke="#ff0000" d="M0 0h1M5 3h1M12 10h1" />
<path stroke="#000080" d="M0 0h1M6 3h1" />
<path stroke="#800000" d="M0 0h1M5 4h1M13 10h1" />
<path stroke="#777777" d="M0 0h1M7 9h1M13 11h2M3 12h1M12 12h1M14 12h1M13 13h1" />
<path stroke="#eaeaea" d="M0 0h1M4 11h1" />
<path stroke="#e3e3e3" d="M0 0h1M5 11h1" />
<path stroke="#cccccc" d="M0 0h1M6 12h2M8 13h2" />
<path stroke="#969696" d="M0 0h1M11 13h1M10 14h1" />
</svg>