<svg xmlns="http://www.w3.org/2000/svg" viewBox="0 -0.5 32 32" shape-rendering="crispEdges">
<path stroke="#808080" d="M0 0h1M14 1h1M18 1h1M13 2h1M13 3h1M13 4h1M17 4h2M13 5h1M17 5h2M13 6h1M17 6h2M13 7h1M17 7h2M13 8h1M17 8h2M13 9h1M17 9h2M13 10h1M17 10h2M13 11h1M17 11h2M12 12h3M17 12h2M20 12h1M10 13h2M21 13h3M8 14h2M14 14h1M17 14h1M24 14h3M6 15h2M14 15h1M17 15h1M27 15h3M4 16h2M13 16h2M17 16h1M30 16h1M3 17h1M12 17h1M14 17h1M17 17h1M19 17h1M30 17h1M2 18h1M12 18h1M18 18h2M30 18h1M1 19h1M13 19h1M18 19h1M22 19h1M25 19h1M28 19h3M1 20h1M14 20h2M26 20h5M1 21h1M24 21h7M1 22h1M22 22h9M1 23h1M20 23h11M1 24h3M19 24h10M1 25h1M4 25h3M18 25h9M7 26h3M17 26h8M10 27h3M17 27h6M13 28h8M16 29h3" />
<path stroke="#800000" d="M0 0h1M15 1h3M15 2h1M17 2h1M23 17h2M22 18h1M23 19h2" />
<path stroke="#000000" d="M0 0h1M14 2h1M18 2h2M19 3h1M19 4h1M19 5h1M19 6h1M19 7h1M19 8h1M19 9h1M19 10h1M19 11h1M19 12h1M14 13h5M18 14h1M18 15h1M18 16h2M18 17h1M20 17h1M31 17h1M15 18h3M20 18h1M25 18h1M31 18h1M19 19h1M31 19h1M16 20h3M31 20h1M31 21h1M31 22h1M31 23h1M29 24h3M2 25h2M27 25h2M4 26h3M25 26h2M7 27h3M23 27h2M10 28h3M21 28h2M13 29h3M19 29h2M16 30h3" />
<path stroke="#ff0000" d="M0 0h1M16 2h1M24 18h1" />
<path stroke="#c0c0c0" d="M0 0h1M15 4h2M15 5h2M15 6h2M15 7h2M15 8h2M15 9h2M15 10h2M15 11h2M15 12h2M12 13h2M19 13h2M10 14h4M16 14h1M19 14h5M8 15h6M16 15h1M19 15h8M6 16h7M16 16h1M20 16h10M4 17h8M16 17h1M21 17h2M25 17h5M3 18h9M21 18h1M23 18h1M26 18h4M4 19h9M16 19h2M20 19h2M26 19h2M7 20h7M19 20h7M2 21h2M10 21h14M2 22h5M13 22h9M2 23h8M16 23h4M4 24h9M7 25h9M10 26h7M13 27h4" />
</svg>