<svg xmlns="http://www.w3.org/2000/svg" width="32" height="32" shape-rendering="crispEdges" viewBox="0 -0.5 32 32"><path stroke="#868686" d="M17 0h5m-6 1h1M8 2h6m2 0h1M6 3h2m6 0h3M4 4h2m10 0h1M3 5h1m12 0h1M2 6h1m13 0h1M2 7h1m13 0h1M1 8h1m14 0h1M1 9h1m3 0h1m10 0h1M1 10h1m2 0h1m2 0h1m6 0h1m1 0h1M0 11h1m5 0h1m6 0h1m2 0h1M0 12h1m3 0h1m2 0h1m3 0h1m4 0h1M0 13h1m5 0h1m2 0h1m6 0h1M0 14h1m6 0h1m8 0h1M0 15h1m4 0h1m-6 1h1m3 0h1m9 0h4m2 0h1m1 0h1M1 17h1m2 0h1m7 0h2m3 0h1M1 18h1m2 0h1m5 0h2m3 0h1m1 0h1m2 0h1M1 19h1m2 0h1m3 0h2m5 0h1m5 0h1M7 20h1m8 0h1m4 0h1M7 21h1m9 0h3m4 0h1M7 22h1m-1 1h1m18 0h1M7 24h1m17 0h1M7 25h1m18 0h1m-2 1h1m-1 1h1"/><path stroke="silver" d="M17 1h5M9 4h4m0 1h1M9 6h1m2 0h1m-3 1h3M9 8h1m2 0h1m-1 1h2m-4 1h1m1 0h1M3 11h1m5 0h1m1 0h2m-8 1h1m4 0h1m8 4h1m-1 1h1m4 0h2m-7 1h1m5 0h1m-2 1h1m-10 1h1m3 0h1m3 0h1m1 0h1m-10 1h1m5 0h1m0 1h1m1 0h2m-3 1h1m-8 2h1m0 1h2m-3 1h1m1 0h1m-1 1h1"/><path stroke="#000" d="M22 1h1m-1 1h1m-1 1h1m-1 1h1m-1 1h1m-1 1h1m-1 1h1m-1 1h1m-1 1h1M6 10h1m8 0h1m6 0h1M7 11h1m6 0h1m7 0h1M6 12h1m6 0h1m8 0h1m-12 1h2m9 0h1M9 14h2m11 0h1M6 15h3m8 0h5M5 16h1m15 0h1M5 17h1m15 0h2M5 18h1m15 0h1m1 0h1M5 19h1m12 0h3m2 0h1m7 0h1M2 20h3m17 0h1m4 0h1m3 0h1m-12 1h2m9 0h1m-1 1h1m-1 1h1m-1 1h1m-2 1h1M8 26h2m18 0h2m-20 1h3m13 0h2m-15 1h3m8 0h2m-10 1h3m3 0h2m-5 1h3"/><path stroke="#f8f8f8" d="M17 2h3M8 3h6m3 0h1M6 4h2m6 0h1m2 0h1M4 5h2m11 0h1M3 6h2m12 0h1M3 7h1m13 0h1M2 8h2m13 0h1M2 9h1m14 0h1M2 10h1m14 0h1M1 11h1m3 0h1m11 0h1M1 12h1m15 0h1M1 13h1m15 0h1M1 14h1m15 0h1M1 15h1m-1 1h1m16 0h1M2 17h1m15 0h1M2 18h1m13 0h1m1 0h1m-3 1h1m-9 1h1m-1 1h4m-2 1h4m-1 1h4m-1 1h4m-1 1h2"/><path stroke="#969696" d="M20 2h1m-1 1h1m-1 1h1m-1 1h1m-1 1h1m-1 1h1m-1 1h1m-1 1h1m-1 1h1m-1 1h1m-1 1h1m-1 1h1m-1 1h1m3 10h1m-2 1h2m-3 1h1m1 0h1m-2 1h2"/><path stroke="#777" d="M21 2h1m-1 1h1m-1 1h1m-7 1h1m5 0h1m-7 1h1m5 0h1m-7 1h1m5 0h1m-7 1h1m5 0h1M6 9h1m8 0h1m5 0h1m-1 1h1m-1 1h1m-10 1h1m8 0h1M5 13h1m4 0h1m10 0h1M8 14h1m12 0h1m-6 3h1m3 0h1m1 1h1m-1 1h1m5 3h1m-4 1h1m1 0h1m-2 1h1m1 0h1m-4 1h1m1 0h1m-2 1h2"/><path stroke="#d7d7d7" d="M18 3h1m-4 1h1m2 0h1M6 5h2m10 0h1M5 6h2m11 0h1M5 7h1m1 0h1m10 0h1M5 8h2M4 9h1m2 0h1m10 0h1m-1 1h1m-1 1h1m-1 1h1m-1 1h1m-1 1h1m-2 8h3m1 0h1m-11 1h1m6 0h3m-11 1h1m1 0h1m2 0h1m4 0h2m-11 1h1m1 0h1m1 0h1m-2 1h1"/><path stroke="#b2b2b2" d="M19 3h1m-7 1h1m5 0h1m-8 1h1m1 0h1m4 0h1m-1 1h1m-1 1h1m-7 1h2m4 0h1m-6 1h1m4 0h1M5 10h1m7 0h1m5 0h1M4 11h1m14 0h1m-1 1h1m-1 1h1m-1 1h1m6 4h2m-1 1h3m-2 1h2m-3 1h2M8 25h2m0 1h3m7 0h1m-8 1h3m4 0h1m-5 1h3m1 0h1m-2 1h2"/><path stroke="#ccc" d="M8 4h1M8 5h2M7 6h2M6 7h1m1 0h2M7 8h2M8 9h2m-2 1h2m1 0h1m-4 1h1m1 0h1m-3 1h2m-3 1h2m14 4h1m0 1h1m-2 3h1m-4 1h1m1 0h1m1 0h1m-4 1h3m-2 1h1m-9 1h1m1 0h1m1 0h1m-6 1h1m1 0h3m-2 1h1m1 0h1"/><path stroke="red" d="M10 5h1m15 15h1"/><path stroke="maroon" d="M11 5h1m-2 1h1m14 13h2m-3 1h1m0 1h2"/><path stroke="#930" d="M11 6h1"/><path stroke="#00f" d="M13 6h1"/><path stroke="#069" d="M14 6h1m-2 1h1"/><path stroke="#ddd" d="M4 7h1M4 8h1m13 0h1M3 9h1m-1 1h1m-1 3h1m0 1h3m-4 1h1m-1 2h1m10 0h1m-2 1h1M3 19h1m10 0h1m2 0h1m-5 1h1m3 0h2m-5 1h2m-1 1h2m0 1h1m-5 1h2m-3 1h1"/><path stroke="navy" d="M14 7h1"/><path stroke="#0f0" d="M10 8h1"/><path stroke="green" d="M11 8h1m-2 1h1"/><path stroke="#093" d="M11 9h1"/><path stroke="#e3e3e3" d="M2 11h1m-1 1h2m-2 1h1m1 0h1m-3 1h2m0 1h1m-2 1h1m11 1h1m-4 1h1m1 0h1m-3 1h2m-2 1h1m1 0h1m-2 1h1m0 1h1m-5 1h1m1 0h1m-4 1h1m1 0h1m-2 1h1"/><path stroke="#eaeaea" d="M2 15h1m-1 1h1m0 2h1m-2 1h1m7 0h2m-3 1h3m0 1h1m-5 1h2m-2 1h2m-2 1h1"/><path stroke="#666" d="M22 15h1m0 1h3m0 1h2m0 1h3m-2 3h1m-3 1h1m1 0h1m-2 1h2m-3 1h1m1 0h1m-2 1h2"/><path stroke="#5f5f5f" d="M30 19h1m-1 1h1m-1 1h1m-1 1h1m-1 1h1m-1 1h1"/><path stroke="#a0a0a4" d="M20 20h1m0 5h1m-1 1h1m-1 1h2m-2 1h2m-2 1h1"/><path stroke="#999" d="M23 24h1m-2 1h1m0 1h1m-1 2h1"/></svg>