<svg xmlns="http://www.w3.org/2000/svg" viewBox="0 -0.5 32 32" shape-rendering="crispEdges">
<path stroke="#000000" d="M0 0h1M8 0h5M7 1h1M13 1h1M7 2h1M16 2h1M7 3h1M11 3h1M17 3h2M6 4h3M12 4h3M19 4h1M5 5h1M8 5h1M11 5h2M15 5h1M20 5h1M5 6h1M11 6h2M15 6h1M21 6h1M5 7h1M11 7h1M15 7h1M17 7h1M21 7h1M6 8h2M14 8h1M16 8h1M18 8h1M22 8h1M15 9h1M17 9h1M22 9h1M14 10h1M16 10h1M22 10h1M8 11h1M13 11h1M15 11h1M22 11h1M9 12h1M22 12h1M9 13h1M22 13h1M10 14h1M21 14h1M23 14h1M11 15h2M22 15h1M24 15h1M13 16h6M23 16h1M25 16h1M17 17h1M19 17h1M24 17h1M26 17h1M16 18h1M25 18h1M27 18h1M5 19h1M10 19h1M16 19h1M26 19h1M28 19h1M6 20h1M10 20h1M16 20h1M27 20h1M29 20h1M16 21h1M23 21h2M28 21h1M30 21h1M16 22h1M29 22h1M31 22h1M5 23h1M10 23h2M16 23h1M30 23h2M6 24h1M10 24h1M12 24h1M16 24h1M26 24h2M31 24h1M10 25h1M16 25h1M31 25h1M16 26h1M29 26h2M10 27h2M16 27h1M6 28h1M9 28h2M12 28h1M16 28h1M7 29h2M11 29h1M16 29h1M12 30h1M15 30h1M13 31h2" />
<path stroke="#808080" d="M0 0h1M8 1h1M12 1h1M4 2h3M8 2h3M12 2h4M3 3h1M8 3h1M10 3h1M2 4h1M10 4h2M1 5h1M6 5h2M9 5h1M13 5h1M0 6h1M6 6h1M8 6h1M0 7h1M6 7h1M8 7h1M0 8h1M8 8h1M12 8h2M0 9h1M7 9h2M0 10h1M6 10h1M8 10h1M1 11h1M6 11h1M2 12h1M6 12h1M3 13h1M6 13h1M10 13h1M4 14h1M6 14h1M11 14h2M20 14h1M5 15h1M7 15h1M13 15h6M21 15h1M5 16h1M8 16h1M22 16h1M4 17h1M8 17h2M16 17h1M23 17h1M4 18h1M8 18h1M10 18h1M15 18h1M20 18h1M24 18h1M6 19h1M8 19h1M11 19h1M14 19h2M20 19h1M25 19h1M8 20h1M11 20h1M14 20h1M21 20h1M26 20h1M5 21h1M8 21h1M10 21h1M14 21h1M22 21h1M27 21h1M4 22h1M8 22h1M10 22h1M14 22h1M24 22h1M28 22h1M6 23h1M8 23h1M12 23h1M14 23h1M24 23h1M29 23h1M8 24h1M14 24h1M25 24h1M30 24h1M5 25h1M8 25h1M11 25h1M14 25h1M27 25h1M5 26h1M8 26h1M10 26h1M14 26h1M28 26h1M5 27h2M12 27h1M14 27h1M11 28h1M14 28h1M14 29h1" />
<path stroke="#ffffff" d="M0 0h1M4 3h3M3 4h1M2 5h1M1 6h1M4 6h1M1 7h1M7 7h1M1 8h1M4 8h1M1 9h1M5 9h1M1 10h1M4 10h1M7 10h1M2 11h1M5 11h1M7 11h1M3 12h1M7 12h1M4 13h1M7 13h1M5 14h1M7 14h1M6 15h1M8 15h1M6 16h1M9 16h1M12 16h1M5 17h1M10 17h1M13 17h1M5 18h1M11 18h1M14 18h1M12 19h1M12 20h1M6 21h1M11 21h1M5 22h1M11 22h1M6 25h1M12 25h1M6 26h1M11 26h1M12 29h1" />
<path stroke="#c0c0c0" d="M0 0h1M9 3h1M12 3h4M4 4h2M9 4h1M3 5h2M18 5h1M2 6h2M7 6h1M14 6h1M19 6h1M2 7h3M13 7h2M19 7h1M2 8h2M5 8h1M20 8h1M2 9h3M6 9h1M19 9h1M2 10h2M5 10h1M18 10h1M20 10h1M3 11h2M17 11h1M19 11h1M4 12h2M8 12h1M14 12h1M16 12h1M18 12h1M20 12h1M5 13h1M8 13h1M19 13h1M8 14h2M9 15h2M7 16h1M10 16h2M6 17h2M11 17h2M14 17h2M6 18h2M9 18h1M12 18h2M7 19h1M9 19h1M13 19h1M7 20h1M9 20h1M13 20h1M15 20h1M7 21h1M9 21h1M12 21h2M15 21h1M6 22h2M9 22h1M12 22h2M15 22h1M7 23h1M9 23h1M13 23h1M15 23h1M7 24h1M9 24h1M13 24h1M15 24h1M7 25h1M9 25h1M13 25h1M15 25h1M7 26h1M9 26h1M12 26h2M15 26h1M7 27h3M13 27h1M15 27h1M7 28h2M13 28h1M15 28h1M13 29h1M15 29h1M13 30h2" />
<path stroke="#808000" d="M0 0h1M16 3h1M17 4h2M19 5h1M20 6h1M20 7h1M21 8h1M21 9h1M21 10h1M21 11h1M21 12h1M21 13h1M22 14h1M23 15h1M24 16h1M25 17h1M26 18h1M27 19h1M22 20h2M28 20h1M29 21h1M30 22h1M25 23h2M29 25h2" />
<path stroke="#ffff00" d="M0 0h1M15 4h2M10 5h1M16 5h2M9 6h2M16 6h3M9 7h2M16 7h1M18 7h1M9 8h3M15 8h1M17 8h1M19 8h1M9 9h6M16 9h1M18 9h1M20 9h1M9 10h5M15 10h1M17 10h1M19 10h1M9 11h4M14 11h1M16 11h1M18 11h1M20 11h1M10 12h4M15 12h1M17 12h1M19 12h1M11 13h8M20 13h1M13 14h7M19 15h2M19 16h3M20 17h3M21 18h3M21 19h4M24 20h2M25 21h2M25 22h3M27 23h2M28 24h2M28 25h1" />
</svg>