<svg xmlns="http://www.w3.org/2000/svg" viewBox="0 -0.5 256 96" shape-rendering="crispEdges">
<path stroke="#808080" d="M0 0h1M183 5h5M180 6h3M188 6h2M177 7h3M190 7h2M235 7h12M174 8h3M192 8h2M232 8h3M247 8h3M171 9h3M194 9h2M229 9h3M250 9h2M168 10h3M180 10h3M196 10h2M212 10h3M226 10h3M235 10h12M165 11h3M177 11h3M198 11h2M209 11h4M214 11h3M223 11h3M232 11h3M247 11h3M254 11h1M162 12h3M174 12h3M200 12h2M206 12h4M211 12h1M213 12h1M215 12h1M217 12h2M220 12h3M230 12h2M250 12h2M159 13h3M171 13h3M186 13h3M202 13h5M208 13h1M210 13h1M212 13h1M214 13h1M216 13h1M218 13h3M227 13h2M156 14h3M168 14h3M183 14h3M204 14h2M207 14h1M209 14h1M211 14h1M213 14h1M215 14h1M217 14h1M219 14h1M221 14h2M225 14h2M254 14h1M153 15h3M165 15h3M180 15h3M206 15h3M210 15h1M212 15h1M214 15h1M216 15h1M218 15h1M220 15h1M222 15h3M150 16h3M162 16h3M177 16h3M192 16h3M208 16h2M211 16h1M213 16h1M215 16h1M217 16h1M219 16h1M221 16h1M223 16h1M225 16h2M147 17h3M159 17h3M174 17h3M189 17h3M210 17h3M214 17h1M216 17h1M218 17h1M220 17h1M222 17h1M224 17h1M226 17h3M144 18h3M156 18h3M171 18h3M186 18h3M212 18h2M215 18h1M217 18h1M219 18h1M221 18h1M223 18h1M225 18h1M227 18h1M229 18h3M141 19h3M168 19h3M183 19h3M198 19h3M214 19h3M218 19h1M220 19h1M222 19h1M224 19h1M226 19h1M228 19h1M230 19h1M232 19h2M138 20h3M165 20h3M180 20h3M195 20h3M216 20h2M219 20h1M221 20h1M223 20h1M225 20h1M227 20h1M229 20h1M233 20h1M135 21h3M162 21h3M177 21h3M192 21h3M218 21h3M222 21h1M224 21h1M226 21h1M230 21h4M132 22h3M174 22h3M189 22h3M204 22h3M220 22h2M223 22h1M227 22h7M129 23h3M171 23h3M186 23h3M201 23h3M222 23h1M224 23h10M126 24h3M168 24h3M183 24h3M198 24h3M224 24h10M123 25h3M180 25h3M195 25h3M210 25h3M226 25h8M120 26h3M177 26h3M192 26h3M207 26h3M228 26h3M117 27h3M174 27h3M189 27h3M204 27h3M114 28h3M186 28h3M201 28h3M216 28h3M231 28h1M111 29h3M117 29h2M183 29h3M198 29h3M213 29h3M108 30h3M119 30h2M180 30h3M195 30h3M210 30h3M231 30h1M106 31h2M121 31h2M192 31h3M207 31h3M228 31h4M105 32h1M123 32h2M189 32h3M204 32h3M225 32h7M104 33h1M125 33h2M186 33h3M201 33h3M222 33h10M104 34h1M127 34h2M198 34h3M219 34h13M104 35h1M129 35h2M195 35h3M216 35h16M104 36h1M131 36h2M192 36h3M213 36h16M104 37h1M133 37h2M210 37h16M229 37h3M104 38h1M135 38h2M207 38h16M226 38h6M104 39h1M137 39h2M204 39h16M223 39h9M104 40h1M139 40h2M201 40h16M220 40h12M104 41h1M141 41h2M198 41h16M217 41h13M104 42h1M143 42h2M195 42h16M214 42h13M104 43h1M145 43h2M192 43h16M211 43h13M105 44h1M147 44h2M189 44h16M208 44h13M105 45h3M149 45h2M186 45h16M205 45h13M108 46h2M151 46h2M183 46h16M202 46h13M110 47h2M153 47h2M180 47h16M199 47h13M112 48h2M155 48h2M177 48h16M196 48h13M114 49h2M157 49h2M174 49h16M193 49h13M116 50h2M159 50h2M171 50h16M190 50h13M118 51h2M161 51h1M168 51h16M187 51h13M120 52h2M165 52h16M184 52h13M122 53h2M163 53h15M181 53h13M124 54h2M159 54h2M163 54h12M178 54h13M126 55h2M156 55h5M163 55h9M175 55h13M128 56h2M154 56h7M163 56h6M172 56h13M130 57h2M153 57h8M163 57h3M169 57h13M132 58h2M153 58h8M166 58h13M134 59h2M153 59h8M163 59h13M136 60h2M153 60h8M163 60h10M138 61h2M153 61h8M163 61h7M140 62h2M153 62h8M163 62h4M142 63h2M153 63h8M163 63h1M144 64h2M153 64h8M146 65h2M153 65h5M148 66h2M152 66h3M150 67h2" />
<path stroke="#ffffff" d="M0 0h1M183 6h3M180 7h3M177 8h3M235 8h12M174 9h3M180 9h2M232 9h3M247 9h3M171 10h3M177 10h3M229 10h3M168 11h3M174 11h3M226 11h3M165 12h3M171 12h3M186 12h2M223 12h3M162 13h3M168 13h3M183 13h3M221 13h2M159 14h3M165 14h3M180 14h3M156 15h3M162 15h3M177 15h3M192 15h2M153 16h3M159 16h3M174 16h3M189 16h3M150 17h3M156 17h3M171 17h3M186 17h3M147 18h3M168 18h3M183 18h3M198 18h2M144 19h3M165 19h3M180 19h3M195 19h3M141 20h3M162 20h3M177 20h3M192 20h3M138 21h3M174 21h3M189 21h3M204 21h1M135 22h3M171 22h3M186 22h3M201 22h3M132 23h3M168 23h3M183 23h3M198 23h3M129 24h3M180 24h3M195 24h3M210 24h2M126 25h3M177 25h3M192 25h3M207 25h3M123 26h3M174 26h3M189 26h3M204 26h3M120 27h3M186 27h3M201 27h3M216 27h2M117 28h3M183 28h3M198 28h3M213 28h3M228 28h3M114 29h3M180 29h3M195 29h3M210 29h3M225 29h3M111 30h3M117 30h2M192 30h3M207 30h3M222 30h3M108 31h3M119 31h2M189 31h3M204 31h3M219 31h3M106 32h2M121 32h2M186 32h3M201 32h3M216 32h3M105 33h1M108 33h2M123 33h2M198 33h3M213 33h3M105 34h1M110 34h2M125 34h2M195 34h3M210 34h3M105 35h1M112 35h2M127 35h2M192 35h3M207 35h3M105 36h1M114 36h2M129 36h2M204 36h3M105 37h1M116 37h2M131 37h2M201 37h3M105 38h1M118 38h2M133 38h2M198 38h3M105 39h1M120 39h2M135 39h2M195 39h3M105 40h1M120 40h1M122 40h2M137 40h2M192 40h3M105 41h1M121 41h1M124 41h2M139 41h2M189 41h3M105 42h1M121 42h1M124 42h1M126 42h2M141 42h2M186 42h3M105 43h1M122 43h1M125 43h1M128 43h2M143 43h2M183 43h3M122 44h1M125 44h1M128 44h1M130 44h2M145 44h2M180 44h3M123 45h1M126 45h1M129 45h1M132 45h2M147 45h2M177 45h3M123 46h1M126 46h1M129 46h1M132 46h1M134 46h2M149 46h2M174 46h3M124 47h1M127 47h1M130 47h1M133 47h1M136 47h2M151 47h2M171 47h3M124 48h1M127 48h1M130 48h1M133 48h1M136 48h1M138 48h2M153 48h2M168 48h3M128 49h1M131 49h1M134 49h1M137 49h1M140 49h2M155 49h2M165 49h3M128 50h1M131 50h1M134 50h1M137 50h1M140 50h1M142 50h2M157 50h2M162 50h3M132 51h1M135 51h1M138 51h1M141 51h1M144 51h2M159 51h2M132 52h1M135 52h1M138 52h1M141 52h1M144 52h1M146 52h2M156 52h3M161 52h1M136 53h1M139 53h1M142 53h1M145 53h1M148 53h2M153 53h3M161 53h1M136 54h1M139 54h1M142 54h1M145 54h1M150 54h3M140 55h1M143 55h1M146 55h1M152 55h1M140 56h1M143 56h1M146 56h1M153 56h1M144 57h1M147 57h1M144 58h1M147 58h1M148 59h1M148 60h1" />
<path stroke="#c0c0c0" d="M0 0h1M186 6h2M183 7h7M180 8h12M177 9h3M182 9h12M235 9h12M174 10h3M183 10h13M232 10h3M171 11h3M180 11h18M213 11h1M229 11h3M168 12h3M177 12h9M188 12h12M210 12h1M212 12h1M214 12h1M216 12h1M226 12h4M165 13h3M174 13h9M189 13h13M207 13h1M209 13h1M211 13h1M213 13h1M215 13h1M217 13h1M223 13h4M162 14h3M171 14h9M186 14h18M206 14h1M208 14h1M210 14h1M212 14h1M214 14h1M216 14h1M218 14h1M220 14h1M223 14h2M159 15h3M168 15h9M183 15h9M194 15h12M209 15h1M211 15h1M213 15h1M215 15h1M217 15h1M219 15h1M221 15h1M156 16h3M165 16h9M180 16h9M195 16h13M210 16h1M212 16h1M214 16h1M216 16h1M218 16h1M220 16h1M222 16h1M224 16h1M153 17h3M162 17h9M177 17h9M192 17h18M213 17h1M215 17h1M217 17h1M219 17h1M221 17h1M223 17h1M225 17h1M150 18h6M159 18h9M174 18h9M189 18h9M200 18h12M214 18h1M216 18h1M218 18h1M220 18h1M222 18h1M224 18h1M226 18h1M228 18h1M147 19h18M171 19h9M186 19h9M201 19h13M217 19h1M219 19h1M221 19h1M223 19h1M225 19h1M227 19h1M229 19h1M231 19h1M144 20h18M168 20h9M183 20h9M198 20h18M218 20h1M220 20h1M222 20h1M224 20h1M226 20h1M228 20h1M230 20h3M141 21h21M165 21h9M180 21h9M195 21h9M205 21h13M221 21h1M223 21h1M225 21h1M227 21h3M138 22h33M177 22h9M192 22h9M207 22h13M222 22h1M224 22h3M135 23h33M174 23h9M189 23h9M204 23h18M223 23h1M132 24h36M171 24h9M186 24h9M201 24h9M212 24h12M129 25h48M183 25h9M198 25h9M213 25h13M126 26h48M180 26h9M195 26h9M210 26h18M123 27h51M177 27h9M192 27h9M207 27h9M218 27h12M120 28h63M189 28h9M204 28h9M219 28h9M119 29h61M186 29h9M201 29h9M216 29h9M228 29h4M114 30h3M121 30h59M183 30h9M198 30h9M213 30h9M225 30h6M111 31h8M123 31h66M195 31h9M210 31h9M222 31h6M108 32h13M125 32h61M192 32h9M207 32h9M219 32h6M106 33h2M110 33h13M127 33h59M189 33h9M204 33h9M216 33h6M106 34h4M112 34h13M129 34h66M201 34h9M213 34h6M106 35h6M114 35h13M131 35h61M198 35h9M210 35h6M106 36h8M116 36h13M133 36h59M195 36h9M207 36h6M229 36h3M106 37h10M118 37h13M135 37h66M204 37h6M226 37h3M106 38h12M120 38h13M137 38h61M201 38h6M223 38h3M106 39h14M122 39h13M139 39h56M198 39h6M220 39h3M106 40h14M121 40h1M124 40h13M141 40h51M195 40h6M217 40h3M106 41h15M122 41h2M126 41h13M143 41h46M192 41h6M214 41h3M106 42h15M122 42h2M125 42h1M128 42h13M145 42h41M189 42h6M211 42h3M106 43h16M123 43h2M126 43h2M130 43h13M147 43h36M186 43h6M208 43h3M106 44h16M123 44h2M126 44h2M129 44h1M132 44h13M149 44h31M183 44h6M205 44h3M108 45h15M124 45h2M127 45h2M130 45h2M134 45h13M151 45h26M180 45h6M202 45h3M110 46h13M124 46h2M127 46h2M130 46h2M133 46h1M136 46h13M153 46h21M177 46h6M199 46h3M112 47h12M125 47h2M128 47h2M131 47h2M134 47h2M138 47h13M155 47h16M174 47h6M196 47h3M114 48h10M125 48h2M128 48h2M131 48h2M134 48h2M137 48h1M140 48h13M157 48h11M171 48h6M193 48h3M116 49h12M129 49h2M132 49h2M135 49h2M138 49h2M142 49h13M159 49h6M168 49h6M190 49h3M118 50h10M129 50h2M132 50h2M135 50h2M138 50h2M141 50h1M144 50h13M161 50h1M165 50h6M187 50h3M120 51h12M133 51h2M136 51h2M139 51h2M142 51h2M146 51h13M162 51h6M184 51h3M122 52h10M133 52h2M136 52h2M139 52h2M142 52h2M145 52h1M148 52h8M159 52h2M163 52h2M181 52h3M124 53h12M137 53h2M140 53h2M143 53h2M146 53h2M150 53h3M156 53h5M178 53h3M126 54h10M137 54h2M140 54h2M143 54h2M146 54h4M153 54h6M161 54h1M175 54h3M128 55h12M141 55h2M144 55h2M147 55h5M153 55h3M161 55h1M172 55h3M130 56h10M141 56h2M144 56h2M147 56h6M161 56h1M169 56h3M132 57h12M145 57h2M148 57h5M161 57h1M166 57h3M134 58h10M145 58h2M148 58h5M161 58h1M163 58h3M136 59h12M149 59h4M161 59h1M138 60h10M149 60h4M161 60h1M140 61h13M161 61h1M142 62h11M161 62h1M144 63h9M161 63h1M146 64h7M148 65h5M150 66h2" />
<path stroke="#000000" d="M0 0h1M235 11h12M232 12h3M247 12h3M229 13h3M250 13h2M227 14h2M225 15h2M254 15h1M234 20h1M234 21h1M234 22h1M234 23h1M234 24h1M234 25h1M231 26h3M230 27h1M232 29h1M232 30h1M232 31h1M232 32h1M232 33h1M232 34h1M232 35h1M232 36h1M232 37h1M232 38h1M232 39h1M232 40h1M230 41h2M227 42h3M224 43h3M221 44h3M218 45h3M106 46h2M215 46h3M108 47h2M212 47h3M110 48h2M209 48h3M112 49h2M206 49h3M114 50h2M203 50h3M116 51h2M200 51h3M118 52h2M162 52h1M197 52h3M120 53h2M162 53h1M194 53h3M122 54h2M162 54h1M191 54h3M124 55h2M162 55h1M188 55h3M126 56h2M162 56h1M185 56h3M128 57h2M162 57h1M182 57h3M130 58h2M162 58h1M179 58h3M132 59h2M162 59h1M176 59h3M134 60h2M162 60h1M173 60h3M136 61h2M162 61h1M170 61h3M138 62h2M162 62h1M167 62h3M140 63h2M162 63h1M164 63h3M142 64h2M161 64h3M144 65h2M158 65h3M146 66h2M155 66h3M148 67h2M152 67h3M150 68h2" />
<path stroke="#800000" d="M0 0h1M130 61h1M130 62h1M130 63h1M130 64h1M130 65h1M130 66h1M130 67h1M130 68h1M130 69h1M146 69h1M130 70h1M146 70h1M130 71h1M146 71h1M130 72h1M146 72h1M130 73h1M146 73h1M0 74h131M146 74h1M146 75h1M146 76h1M146 77h1M146 78h1M146 79h1M146 80h1M146 81h1M146 82h1M146 83h1M146 84h1M146 85h1M146 86h1M146 87h1M0 88h147" />
</svg>