<svg xmlns="http://www.w3.org/2000/svg" width="256" height="96" shape-rendering="crispEdges" viewBox="0 -0.5 256 96"><path stroke="gray" d="M183 5h5m-8 1h3m5 0h2m-13 1h3m10 0h2m43 0h12m-73 1h3m15 0h2m38 0h3m12 0h3m-79 1h3m20 0h2m33 0h3m18 0h2m-84 1h3m9 0h3m13 0h2m14 0h3m11 0h3m6 0h12m-82 1h3m9 0h3m18 0h2m9 0h4m1 0h3m6 0h3m6 0h3m12 0h3m4 0h1m-93 1h3m9 0h3m23 0h2m4 0h4m1 0h1m1 0h1m1 0h1m1 0h2m1 0h3m7 0h2m18 0h2m-93 1h3m9 0h3m12 0h3m13 0h5m1 0h1m1 0h1m1 0h1m1 0h1m1 0h1m1 0h3m6 0h2m-73 1h3m9 0h3m12 0h3m18 0h2m1 0h1m1 0h1m1 0h1m1 0h1m1 0h1m1 0h1m1 0h1m1 0h2m2 0h2m27 0h1m-102 1h3m9 0h3m12 0h3m23 0h3m1 0h1m1 0h1m1 0h1m1 0h1m1 0h1m1 0h1m1 0h3m-75 1h3m9 0h3m12 0h3m12 0h3m13 0h2m1 0h1m1 0h1m1 0h1m1 0h1m1 0h1m1 0h1m1 0h1m1 0h2m-80 1h3m9 0h3m12 0h3m12 0h3m18 0h3m1 0h1m1 0h1m1 0h1m1 0h1m1 0h1m1 0h1m1 0h3m-85 1h3m9 0h3m12 0h3m12 0h3m23 0h2m1 0h1m1 0h1m1 0h1m1 0h1m1 0h1m1 0h1m1 0h1m1 0h3m-91 1h3m24 0h3m12 0h3m12 0h3m13 0h3m1 0h1m1 0h1m1 0h1m1 0h1m1 0h1m1 0h1m1 0h1m1 0h2m-96 1h3m24 0h3m12 0h3m12 0h3m18 0h2m1 0h1m1 0h1m1 0h1m1 0h1m1 0h1m1 0h1m3 0h1m-99 1h3m24 0h3m12 0h3m12 0h3m23 0h3m1 0h1m1 0h1m1 0h1m3 0h4m-102 1h3m39 0h3m12 0h3m12 0h3m13 0h2m1 0h1m3 0h7m-105 1h3m39 0h3m12 0h3m12 0h3m18 0h1m1 0h10m-108 1h3m39 0h3m12 0h3m12 0h3m23 0h10m-111 1h3m54 0h3m12 0h3m12 0h3m13 0h8m-114 1h3m54 0h3m12 0h3m12 0h3m18 0h3m-114 1h3m54 0h3m12 0h3m12 0h3m-93 1h3m69 0h3m12 0h3m12 0h3m12 0h1m-121 1h3m3 0h2m64 0h3m12 0h3m12 0h3m-108 1h3m8 0h2m59 0h3m12 0h3m12 0h3m18 0h1m-126 1h2m13 0h2m69 0h3m12 0h3m18 0h4m-127 1h1m17 0h2m64 0h3m12 0h3m18 0h7m-128 1h1m20 0h2m59 0h3m12 0h3m18 0h10m-128 1h1m22 0h2m69 0h3m18 0h13m-128 1h1m24 0h2m64 0h3m18 0h16m-128 1h1m26 0h2m59 0h3m18 0h16m-125 1h1m28 0h2m75 0h16m3 0h3m-128 1h1m30 0h2m70 0h16m3 0h6m-128 1h1m32 0h2m65 0h16m3 0h9m-128 1h1m34 0h2m60 0h16m3 0h12m-128 1h1m36 0h2m55 0h16m3 0h13m-126 1h1m38 0h2m50 0h16m3 0h13m-123 1h1m40 0h2m45 0h16m3 0h13m-119 1h1m41 0h2m40 0h16m3 0h13m-116 1h3m41 0h2m35 0h16m3 0h13m-110 1h2m41 0h2m30 0h16m3 0h13m-105 1h2m41 0h2m25 0h16m3 0h13m-100 1h2m41 0h2m20 0h16m3 0h13m-95 1h2m41 0h2m15 0h16m3 0h13m-90 1h2m41 0h2m10 0h16m3 0h13m-85 1h2m41 0h1m6 0h16m3 0h13m-80 1h2m43 0h16m3 0h13m-75 1h2m39 0h15m3 0h13m-70 1h2m33 0h2m2 0h12m3 0h13m-65 1h2m28 0h5m2 0h9m3 0h13m-60 1h2m24 0h7m2 0h6m3 0h13m-55 1h2m21 0h8m2 0h3m3 0h13m-50 1h2m19 0h8m5 0h13m-45 1h2m17 0h8m2 0h13m-40 1h2m15 0h8m2 0h10m-35 1h2m13 0h8m2 0h7m-30 1h2m11 0h8m2 0h4m-25 1h2m9 0h8m2 0h1m-20 1h2m7 0h8m-15 1h2m5 0h5m-10 1h2m2 0h3m-5 1h2"/><path stroke="#fff" d="M183 6h3m-6 1h3m-6 1h3m55 0h12m-73 1h3m3 0h2m50 0h3m12 0h3m-79 1h3m3 0h3m49 0h3m-64 1h3m3 0h3m49 0h3m-64 1h3m3 0h3m12 0h2m35 0h3m-64 1h3m3 0h3m12 0h3m35 0h2m-64 1h3m3 0h3m12 0h3m-27 1h3m3 0h3m12 0h3m12 0h2m-41 1h3m3 0h3m12 0h3m12 0h3m-42 1h3m3 0h3m12 0h3m12 0h3m-42 1h3m18 0h3m12 0h3m12 0h2m-56 1h3m18 0h3m12 0h3m12 0h3m-57 1h3m18 0h3m12 0h3m12 0h3m-57 1h3m33 0h3m12 0h3m12 0h1m-70 1h3m33 0h3m12 0h3m12 0h3m-72 1h3m33 0h3m12 0h3m12 0h3m-72 1h3m48 0h3m12 0h3m12 0h2m-86 1h3m48 0h3m12 0h3m12 0h3m-87 1h3m48 0h3m12 0h3m12 0h3m-87 1h3m63 0h3m12 0h3m12 0h2m-101 1h3m63 0h3m12 0h3m12 0h3m12 0h3m-117 1h3m63 0h3m12 0h3m12 0h3m12 0h3m-117 1h3m3 0h2m73 0h3m12 0h3m12 0h3m-117 1h3m8 0h2m68 0h3m12 0h3m12 0h3m-116 1h2m13 0h2m63 0h3m12 0h3m12 0h3m-114 1h1m2 0h2m13 0h2m73 0h3m12 0h3m-111 1h1m4 0h2m13 0h2m68 0h3m12 0h3m-108 1h1m6 0h2m13 0h2m63 0h3m12 0h3m-105 1h1m8 0h2m13 0h2m73 0h3m-102 1h1m10 0h2m13 0h2m68 0h3m-99 1h1m12 0h2m13 0h2m63 0h3m-96 1h1m14 0h2m13 0h2m58 0h3m-93 1h1m14 0h1m1 0h2m13 0h2m53 0h3m-90 1h1m15 0h1m2 0h2m13 0h2m48 0h3m-87 1h1m15 0h1m2 0h1m1 0h2m13 0h2m43 0h3m-84 1h1m16 0h1m2 0h1m2 0h2m13 0h2m38 0h3m-64 1h1m2 0h1m2 0h1m1 0h2m13 0h2m33 0h3m-60 1h1m2 0h1m2 0h1m2 0h2m13 0h2m28 0h3m-57 1h1m2 0h1m2 0h1m2 0h1m1 0h2m13 0h2m23 0h3m-53 1h1m2 0h1m2 0h1m2 0h1m2 0h2m13 0h2m18 0h3m-50 1h1m2 0h1m2 0h1m2 0h1m2 0h1m1 0h2m13 0h2m13 0h3m-43 1h1m2 0h1m2 0h1m2 0h1m2 0h2m13 0h2m8 0h3m-40 1h1m2 0h1m2 0h1m2 0h1m2 0h1m1 0h2m13 0h2m3 0h3m-33 1h1m2 0h1m2 0h1m2 0h1m2 0h2m13 0h2m-29 1h1m2 0h1m2 0h1m2 0h1m2 0h1m1 0h2m8 0h3m2 0h1m-26 1h1m2 0h1m2 0h1m2 0h1m2 0h2m3 0h3m5 0h1m-26 1h1m2 0h1m2 0h1m2 0h1m4 0h3m-13 1h1m2 0h1m2 0h1m5 0h1m-13 1h1m2 0h1m2 0h1m6 0h1m-10 1h1m2 0h1m-4 1h1m2 0h1m0 1h1m-1 1h1"/><path stroke="silver" d="M186 6h2m-5 1h7m-10 1h12m-15 1h3m2 0h12m41 0h12m-73 1h3m6 0h13m36 0h3m-64 1h3m6 0h18m15 0h1m15 0h3m-64 1h3m6 0h9m2 0h12m10 0h1m1 0h1m1 0h1m1 0h1m9 0h4m-65 1h3m6 0h9m6 0h13m5 0h1m1 0h1m1 0h1m1 0h1m1 0h1m1 0h1m5 0h4m-65 1h3m6 0h9m6 0h18m2 0h1m1 0h1m1 0h1m1 0h1m1 0h1m1 0h1m1 0h1m1 0h1m2 0h2m-66 1h3m6 0h9m6 0h9m2 0h12m3 0h1m1 0h1m1 0h1m1 0h1m1 0h1m1 0h1m1 0h1m-66 1h3m6 0h9m6 0h9m6 0h13m2 0h1m1 0h1m1 0h1m1 0h1m1 0h1m1 0h1m1 0h1m1 0h1m-72 1h3m6 0h9m6 0h9m6 0h18m3 0h1m1 0h1m1 0h1m1 0h1m1 0h1m1 0h1m1 0h1m-76 1h6m3 0h9m6 0h9m6 0h9m2 0h12m2 0h1m1 0h1m1 0h1m1 0h1m1 0h1m1 0h1m1 0h1m1 0h1m-82 1h18m6 0h9m6 0h9m6 0h13m3 0h1m1 0h1m1 0h1m1 0h1m1 0h1m1 0h1m1 0h1m1 0h1m-88 1h18m6 0h9m6 0h9m6 0h18m2 0h1m1 0h1m1 0h1m1 0h1m1 0h1m1 0h1m1 0h3m-92 1h21m3 0h9m6 0h9m6 0h9m1 0h13m3 0h1m1 0h1m1 0h1m1 0h3m-92 1h33m6 0h9m6 0h9m6 0h13m2 0h1m1 0h3m-92 1h33m6 0h9m6 0h9m6 0h18m1 0h1m-92 1h36m3 0h9m6 0h9m6 0h9m2 0h12m-95 1h48m6 0h9m6 0h9m6 0h13m-100 1h48m6 0h9m6 0h9m6 0h18m-105 1h51m3 0h9m6 0h9m6 0h9m2 0h12m-110 1h63m6 0h9m6 0h9m6 0h9m-109 1h61m6 0h9m6 0h9m6 0h9m3 0h4m-118 1h3m4 0h59m3 0h9m6 0h9m6 0h9m3 0h6m-120 1h8m4 0h66m6 0h9m6 0h9m3 0h6m-120 1h13m4 0h61m6 0h9m6 0h9m3 0h6m-119 1h2m2 0h13m4 0h59m3 0h9m6 0h9m3 0h6m-116 1h4m2 0h13m4 0h66m6 0h9m3 0h6m-113 1h6m2 0h13m4 0h61m6 0h9m3 0h6m-110 1h8m2 0h13m4 0h59m3 0h9m3 0h6m16 0h3m-126 1h10m2 0h13m4 0h66m3 0h6m16 0h3m-123 1h12m2 0h13m4 0h61m3 0h6m16 0h3m-120 1h14m2 0h13m4 0h56m3 0h6m16 0h3m-117 1h14m1 0h1m2 0h13m4 0h51m3 0h6m16 0h3m-114 1h15m1 0h2m2 0h13m4 0h46m3 0h6m16 0h3m-111 1h15m1 0h2m1 0h1m2 0h13m4 0h41m3 0h6m16 0h3m-108 1h16m1 0h2m1 0h2m2 0h13m4 0h36m3 0h6m16 0h3m-105 1h16m1 0h2m1 0h2m1 0h1m2 0h13m4 0h31m3 0h6m16 0h3m-100 1h15m1 0h2m1 0h2m1 0h2m2 0h13m4 0h26m3 0h6m16 0h3m-95 1h13m1 0h2m1 0h2m1 0h2m1 0h1m2 0h13m4 0h21m3 0h6m16 0h3m-90 1h12m1 0h2m1 0h2m1 0h2m1 0h2m2 0h13m4 0h16m3 0h6m16 0h3m-85 1h10m1 0h2m1 0h2m1 0h2m1 0h2m1 0h1m2 0h13m4 0h11m3 0h6m16 0h3m-80 1h12m1 0h2m1 0h2m1 0h2m1 0h2m2 0h13m4 0h6m3 0h6m16 0h3m-75 1h10m1 0h2m1 0h2m1 0h2m1 0h2m1 0h1m2 0h13m4 0h1m3 0h6m16 0h3m-70 1h12m1 0h2m1 0h2m1 0h2m1 0h2m2 0h13m3 0h6m16 0h3m-65 1h10m1 0h2m1 0h2m1 0h2m1 0h2m1 0h1m2 0h8m3 0h2m2 0h2m16 0h3m-60 1h12m1 0h2m1 0h2m1 0h2m1 0h2m2 0h3m3 0h5m17 0h3m-55 1h10m1 0h2m1 0h2m1 0h2m1 0h4m3 0h6m2 0h1m13 0h3m-50 1h12m1 0h2m1 0h2m1 0h5m1 0h3m5 0h1m10 0h3m-45 1h10m1 0h2m1 0h2m1 0h6m8 0h1m7 0h3m-40 1h12m1 0h2m1 0h5m8 0h1m4 0h3m-35 1h10m1 0h2m1 0h5m8 0h1m1 0h3m-30 1h12m1 0h4m8 0h1m-24 1h10m1 0h4m8 0h1m-22 1h13m8 0h1m-20 1h11m8 0h1m-18 1h9m8 0h1m-16 1h7m-5 1h5m-3 1h2"/><path stroke="#000" d="M235 11h12m-15 1h3m12 0h3m-21 1h3m18 0h2m-25 1h2m-4 1h2m27 0h1m-21 5h1m-1 1h1m-1 1h1m-1 1h1m-1 1h1m-1 1h1m-4 1h3m-4 1h1m1 2h1m-1 1h1m-1 1h1m-1 1h1m-1 1h1m-1 1h1m-1 1h1m-1 1h1m-1 1h1m-1 1h1m-1 1h1m-1 1h1m-3 1h2m-5 1h3m-6 1h3m-6 1h3m-6 1h3m-115 1h2m107 0h3m-110 1h2m102 0h3m-105 1h2m97 0h3m-100 1h2m92 0h3m-95 1h2m87 0h3m-90 1h2m82 0h3m-85 1h2m42 0h1m34 0h3m-80 1h2m40 0h1m31 0h3m-75 1h2m38 0h1m28 0h3m-70 1h2m36 0h1m25 0h3m-65 1h2m34 0h1m22 0h3m-60 1h2m32 0h1m19 0h3m-55 1h2m30 0h1m16 0h3m-50 1h2m28 0h1m13 0h3m-45 1h2m26 0h1m10 0h3m-40 1h2m24 0h1m7 0h3m-35 1h2m22 0h1m4 0h3m-30 1h2m20 0h1m1 0h3m-25 1h2m17 0h3m-20 1h2m12 0h3m-15 1h2m7 0h3m-10 1h2m2 0h3m-5 1h2"/><path stroke="maroon" d="M130 61h1m-1 1h1m-1 1h1m-1 1h1m-1 1h1m-1 1h1m-1 1h1m-1 1h1m-1 1h1m15 0h1m-17 1h1m15 0h1m-17 1h1m15 0h1m-17 1h1m15 0h1m-17 1h1m15 0h1M0 74h131m15 0h1m-1 1h1m-1 1h1m-1 1h1m-1 1h1m-1 1h1m-1 1h1m-1 1h1m-1 1h1m-1 1h1m-1 1h1m-1 1h1m-1 1h1m-1 1h1M0 88h147"/></svg>