<svg xmlns="http://www.w3.org/2000/svg" width="16" height="16" shape-rendering="crispEdges" viewBox="0 -0.5 16 16"><path stroke="#000" d="M9 0h4M7 1h8M0 2h1m5 0h3m1 0h2m1 0h3M0 3h1m1 0h1m1 0h4m2 0h2m2 0h2M2 4h6m2 0h2m2 0h2M6 5h2m1 0h4m1 0h2M6 6h10M6 7h3m1 0h2m1 0h3M6 8h2m2 0h2m2 0h2m-5 1h1m2 0h2m-5 1h2m1 0h2m-5 1h5m-5 1h1m1 0h3m-5 1h1m3 0h1m-5 1h1M0 15h12"/><path stroke="red" d="M9 2h1M8 3h2M8 4h2M0 5h1m7 0h1M0 6h1m1 0h1m1 0h2M2 7h4"/><path stroke="#0f0" d="M12 2h1m-1 1h2m-2 1h2m-1 1h1"/><path stroke="#00f" d="M9 7h1M0 8h1m7 0h2"/><path stroke="#ff0" d="M12 7h1m-1 1h2m-2 1h2m-1 1h1"/><path stroke="gray" d="M0 9h11M0 10h1m9 0h1M0 11h1m9 0h1M0 12h1m9 0h1M0 13h1m9 0h1M0 14h11"/><path stroke="#fff" d="M1 10h9m-9 1h1m-1 1h1m-1 1h1"/><path stroke="silver" d="M2 11h8m-8 1h8m-8 1h8"/></svg>