<svg xmlns="http://www.w3.org/2000/svg" width="32" height="32" shape-rendering="crispEdges" viewBox="0 -0.5 32 32"><path stroke="#000" d="M1 3h1M1 4h1m16 0h10M3 5h1m12 0h14M3 6h1m2 0h1m6 0h1m1 0h16M5 7h2m2 0h1m1 0h3m1 0h3m4 0h2m4 0h3M5 8h1m2 0h2m1 0h3m1 0h2m5 0h2m5 0h2M8 9h1m2 0h1m3 0h2m5 0h2m5 0h2m-16 1h2m5 0h2m5 0h2M1 11h1m13 0h2m5 0h2m5 0h2M1 12h1m13 0h2m5 0h2m5 0h2M3 13h1m11 0h2m3 0h6m3 0h2M3 14h1m2 0h1m6 0h1m1 0h16M5 15h2m2 0h1m1 0h3m1 0h3m4 0h2m4 0h3M5 16h1m2 0h2m1 0h3m1 0h2m5 0h2m5 0h2M8 17h1m2 0h1m3 0h2m5 0h2m5 0h2m-16 1h2m5 0h2m5 0h2M1 19h1m13 0h2m5 0h2m5 0h2M1 20h1m13 0h2m5 0h2m5 0h2M3 21h1m11 0h2m3 0h6m3 0h2M3 22h1m2 0h1m6 0h1m1 0h16M5 23h2m2 0h1m1 0h3m1 0h16M5 24h1m2 0h2m1 0h3m1 0h4m8 0h4M8 25h1m2 0h1m3 0h2m12 0h2"/><path stroke="red" d="M1 7h1m18 0h2M1 8h1m15 0h5M3 9h1m13 0h5M3 10h1m2 0h1m6 0h1m3 0h5M5 11h2m2 0h1m1 0h3m3 0h5M5 12h1m2 0h2m1 0h3m3 0h5M8 13h1m2 0h1m5 0h1"/><path stroke="maroon" d="M18 7h2m-2 6h2"/><path stroke="#0f0" d="M24 7h2m-2 1h5m-5 1h5m-5 1h5m-5 1h5m-5 1h5m-1 1h1"/><path stroke="green" d="M26 7h2m-2 6h2"/><path stroke="#00f" d="M1 15h1m18 0h2M1 16h1m15 0h5M3 17h1m13 0h5M3 18h1m2 0h1m6 0h1m3 0h5M5 19h2m2 0h1m1 0h3m3 0h5M5 20h1m2 0h2m1 0h3m3 0h5M8 21h1m2 0h1m5 0h1"/><path stroke="navy" d="M18 15h2m-2 6h2"/><path stroke="#ff0" d="M24 15h2m-2 1h5m-5 1h5m-5 1h5m-5 1h5m-5 1h5m-1 1h1"/><path stroke="olive" d="M26 15h2m-2 6h2"/></svg>