<svg xmlns="http://www.w3.org/2000/svg" viewBox="0 -0.5 32 32" shape-rendering="crispEdges">
<path stroke="#000000" d="M0 0h1M2 0h2M5 0h2M8 0h2M11 0h2M1 1h1M3 1h2M6 1h2M9 1h2M12 1h3M0 2h1M2 2h1M5 2h1M8 2h1M11 2h1M14 2h2M0 3h1M9 3h2M12 3h5M18 3h2M0 4h1M8 4h1M10 4h2M13 4h2M16 4h2M19 4h3M0 5h1M7 5h1M9 5h1M12 5h1M15 5h1M18 5h1M21 5h2M0 6h1M4 6h4M20 6h1M23 6h1M0 7h1M6 7h1M20 7h1M23 7h1M0 8h1M4 8h3M9 8h6M19 8h1M23 8h1M0 9h1M5 9h1M19 9h1M23 9h2M26 9h2M0 10h1M5 10h1M8 10h6M18 10h1M23 10h3M27 10h3M0 11h1M4 11h1M18 11h1M23 11h1M26 11h1M29 11h2M0 12h1M4 12h1M17 12h1M23 12h1M29 12h1M31 12h1M0 13h1M3 13h1M17 13h1M23 13h1M29 13h1M31 13h1M0 14h1M3 14h1M16 14h1M23 14h1M29 14h1M31 14h1M0 15h1M2 15h1M16 15h1M23 15h2M29 15h1M31 15h1M0 16h1M2 16h1M14 16h2M23 16h1M29 16h1M31 16h1M0 17h1M3 17h11M23 17h2M29 17h1M31 17h1M0 18h1M7 18h1M23 18h1M29 18h1M31 18h1M1 19h1M7 19h1M23 19h1M29 19h1M31 19h1M2 20h6M23 20h1M29 20h1M31 20h1M3 21h1M7 21h1M23 21h1M29 21h1M31 21h1M4 22h5M23 22h1M29 22h1M31 22h1M9 23h1M23 23h1M29 23h1M31 23h1M10 24h1M22 24h1M29 24h1M31 24h1M11 25h11M29 25h1M31 25h1M15 26h1M29 26h1M31 26h1M15 27h1M29 27h1M31 27h1M16 28h1M28 28h2M31 28h1M17 29h12M31 29h1M18 30h1M30 30h1M19 31h11" />
<path stroke="#ffffff" d="M0 0h1M2 1h1M5 1h1M8 1h1M11 1h1M9 4h1M12 4h1M15 4h1M18 4h1M20 10h1M26 10h1M20 12h1M19 14h2M19 16h2M18 18h3M18 20h3M9 22h11" />
<path stroke="#c0c0c0" d="M0 0h1M1 2h1M3 2h1M7 2h1M9 2h1M2 3h1M4 3h1M6 3h1M8 3h1M1 4h1M3 4h1M5 4h1M7 4h1M2 5h1M4 5h1M6 5h1M8 5h1M10 5h1M14 5h1M16 5h1M1 6h1M3 6h1M9 6h1M11 6h1M13 6h1M15 6h1M17 6h1M21 6h1M2 7h1M4 7h1M8 7h1M10 7h1M12 7h1M14 7h1M16 7h1M18 7h1M21 7h1M1 8h1M3 8h1M7 8h1M15 8h1M17 8h1M20 8h2M2 9h1M4 9h1M6 9h1M8 9h1M10 9h1M12 9h1M14 9h1M16 9h1M21 9h1M1 10h1M3 10h1M7 10h1M15 10h1M19 10h1M21 10h1M2 11h1M6 11h1M8 11h1M10 11h1M12 11h1M14 11h1M16 11h1M21 11h1M24 11h1M1 12h1M3 12h1M5 12h1M7 12h1M9 12h1M11 12h1M13 12h1M15 12h1M18 12h2M21 12h1M25 12h1M27 12h1M2 13h1M4 13h1M6 13h1M8 13h1M10 13h1M12 13h1M14 13h1M21 13h1M24 13h1M26 13h1M1 14h1M5 14h1M7 14h1M9 14h1M11 14h1M13 14h1M17 14h2M21 14h1M25 14h1M27 14h1M4 15h1M6 15h1M8 15h1M10 15h1M12 15h1M21 15h1M26 15h1M1 16h1M16 16h3M21 16h1M25 16h1M27 16h1M2 17h1M21 17h1M26 17h1M1 18h1M3 18h1M5 18h1M8 18h10M21 18h1M25 18h1M27 18h1M21 19h1M24 19h1M26 19h1M8 20h10M21 20h1M25 20h1M27 20h1M21 21h1M24 21h1M26 21h1M20 22h2M25 22h1M27 22h1M10 23h11M24 23h1M26 23h1M23 24h1M25 24h1M27 24h1M22 25h1M24 25h1M26 25h1M17 26h1M19 26h1M21 26h1M23 26h1M25 26h1M27 26h1M16 27h1M18 27h1M20 27h1M22 27h1M24 27h1M26 27h1" />
<path stroke="#00ffff" d="M0 0h1M4 2h1M6 2h1M10 2h1M12 2h1M1 3h1M3 3h1M5 3h1M7 3h1M11 3h1M2 4h1M4 4h1M6 4h1M1 5h1M3 5h1M5 5h1M11 5h1M13 5h1M17 5h1M19 5h1M2 6h1M8 6h1M10 6h1M12 6h1M14 6h1M16 6h1M18 6h1M1 7h1M3 7h1M5 7h1M7 7h1M9 7h1M11 7h1M13 7h1M15 7h1M17 7h1M2 8h1M8 8h1M16 8h1M1 9h1M3 9h1M7 9h1M9 9h1M11 9h1M13 9h1M15 9h1M17 9h1M2 10h1M4 10h1M6 10h1M14 10h1M16 10h1M1 11h1M3 11h1M5 11h1M7 11h1M9 11h1M11 11h1M13 11h1M15 11h1M25 11h1M27 11h1M2 12h1M6 12h1M8 12h1M10 12h1M12 12h1M14 12h1M24 12h1M26 12h1M1 13h1M5 13h1M7 13h1M9 13h1M11 13h1M13 13h1M15 13h1M25 13h1M27 13h1M2 14h1M4 14h1M6 14h1M8 14h1M10 14h1M12 14h1M14 14h1M24 14h1M26 14h1M1 15h1M3 15h1M5 15h1M7 15h1M9 15h1M11 15h1M13 15h1M25 15h1M27 15h1M24 16h1M26 16h1M1 17h1M25 17h1M27 17h1M2 18h1M4 18h1M6 18h1M24 18h1M26 18h1M25 19h1M27 19h1M24 20h1M26 20h1M25 21h1M27 21h1M24 22h1M26 22h1M25 23h1M27 23h1M24 24h1M26 24h1M23 25h1M25 25h1M27 25h1M16 26h1M18 26h1M20 26h1M22 26h1M24 26h1M26 26h1M17 27h1M19 27h1M21 27h1M23 27h1M25 27h1" />
<path stroke="#008080" d="M0 0h1M13 2h1M20 5h1M19 6h1M19 7h1M18 8h1M18 9h1M17 10h1M17 11h1M28 11h1M16 12h1M28 12h1M16 13h1M28 13h1M15 14h1M28 14h1M14 15h2M28 15h1M3 16h11M28 16h1M28 17h1M28 18h1M2 19h5M28 19h1M28 20h1M28 21h1M28 22h1M28 23h1M28 24h1M28 25h1M28 26h1M27 27h2M17 28h11" />
<path stroke="#808080" d="M0 0h1M22 6h1M22 7h1M22 8h1M20 9h1M22 9h1M22 10h1M19 11h2M22 11h1M22 12h1M30 12h1M18 13h3M22 13h1M30 13h1M22 14h1M30 14h1M17 15h4M22 15h1M30 15h1M22 16h1M30 16h1M14 17h7M22 17h1M30 17h1M22 18h1M30 18h1M8 19h13M22 19h1M30 19h1M22 20h1M30 20h1M4 21h3M8 21h13M22 21h1M30 21h1M22 22h1M30 22h1M21 23h2M30 23h1M11 24h11M30 24h1M30 25h1M30 26h1M30 27h1M30 28h1M29 29h2M19 30h11" />
</svg>