<svg xmlns="http://www.w3.org/2000/svg" width="32" height="32" shape-rendering="crispEdges" viewBox="0 -0.5 32 32"><path stroke="#000" d="M2 0h2m1 0h2m1 0h2m1 0h2M1 1h1m1 0h2m1 0h2m1 0h2m1 0h3M0 2h1m1 0h1m2 0h1m2 0h1m2 0h1m2 0h2M0 3h1m8 0h2m1 0h5m1 0h2M0 4h1m7 0h1m1 0h2m1 0h2m1 0h2m1 0h3M0 5h1m6 0h1m1 0h1m2 0h1m2 0h1m2 0h1m2 0h2M0 6h1m3 0h4m12 0h1m2 0h1M0 7h1m5 0h1m13 0h1m2 0h1M0 8h1m3 0h3m2 0h6m4 0h1m3 0h1M0 9h1m4 0h1m13 0h1m3 0h2m1 0h2M0 10h1m4 0h1m2 0h6m4 0h1m4 0h3m1 0h3M0 11h1m3 0h1m13 0h1m4 0h1m2 0h1m2 0h2M0 12h1m3 0h1m12 0h1m5 0h1m5 0h1m1 0h1M0 13h1m2 0h1m13 0h1m5 0h1m5 0h1m1 0h1M0 14h1m2 0h1m12 0h1m6 0h1m5 0h1m1 0h1M0 15h1m1 0h1m13 0h1m6 0h2m4 0h1m1 0h1M0 16h1m1 0h1m11 0h2m7 0h1m5 0h1m1 0h1M0 17h1m2 0h11m9 0h2m4 0h1m1 0h1M0 18h1m6 0h1m15 0h1m5 0h1m1 0h1M1 19h1m5 0h1m15 0h1m5 0h1m1 0h1M2 20h6m15 0h1m5 0h1m1 0h1M3 21h1m3 0h1m15 0h1m5 0h1m1 0h1M4 22h5m14 0h1m5 0h1m1 0h1M9 23h1m13 0h1m5 0h1m1 0h1m-22 1h1m11 0h1m6 0h1m1 0h1m-21 1h11m7 0h1m1 0h1m-17 1h1m13 0h1m1 0h1m-17 1h1m13 0h1m1 0h1m-16 1h1m11 0h2m1 0h1m-15 1h12m2 0h1m-14 1h1m11 0h1m-12 1h11"/><path stroke="#fff" d="M2 1h1m2 0h1m2 0h1m2 0h1M9 4h1m2 0h1m2 0h1m2 0h1m1 6h1m5 0h1m-7 2h1m-2 2h2m-2 2h2m-3 2h3m-3 2h3M9 22h11"/><path stroke="silver" d="M1 2h1m1 0h1m3 0h1m1 0h1M2 3h1m1 0h1m1 0h1m1 0h1M1 4h1m1 0h1m1 0h1m1 0h1M2 5h1m1 0h1m1 0h1m1 0h1m1 0h1m3 0h1m1 0h1M1 6h1m1 0h1m5 0h1m1 0h1m1 0h1m1 0h1m1 0h1m3 0h1M2 7h1m1 0h1m3 0h1m1 0h1m1 0h1m1 0h1m1 0h1m1 0h1m2 0h1M1 8h1m1 0h1m3 0h1m7 0h1m1 0h1m2 0h2M2 9h1m1 0h1m1 0h1m1 0h1m1 0h1m1 0h1m1 0h1m1 0h1m4 0h1M1 10h1m1 0h1m3 0h1m7 0h1m3 0h1m1 0h1M2 11h1m3 0h1m1 0h1m1 0h1m1 0h1m1 0h1m1 0h1m4 0h1m2 0h1M1 12h1m1 0h1m1 0h1m1 0h1m1 0h1m1 0h1m1 0h1m1 0h1m2 0h2m1 0h1m3 0h1m1 0h1M2 13h1m1 0h1m1 0h1m1 0h1m1 0h1m1 0h1m1 0h1m6 0h1m2 0h1m1 0h1M1 14h1m3 0h1m1 0h1m1 0h1m1 0h1m1 0h1m3 0h2m2 0h1m3 0h1m1 0h1M4 15h1m1 0h1m1 0h1m1 0h1m1 0h1m8 0h1m4 0h1M1 16h1m14 0h3m2 0h1m3 0h1m1 0h1M2 17h1m18 0h1m4 0h1M1 18h1m1 0h1m1 0h1m2 0h10m3 0h1m3 0h1m1 0h1m-7 1h1m2 0h1m1 0h1M8 20h10m3 0h1m3 0h1m1 0h1m-7 1h1m2 0h1m1 0h1m-7 1h2m3 0h1m1 0h1m-18 1h11m3 0h1m1 0h1m-4 1h1m1 0h1m1 0h1m-6 1h1m1 0h1m1 0h1m-10 1h1m1 0h1m1 0h1m1 0h1m1 0h1m1 0h1m-12 1h1m1 0h1m1 0h1m1 0h1m1 0h1m1 0h1"/><path stroke="#0ff" d="M4 2h1m1 0h1m3 0h1m1 0h1M1 3h1m1 0h1m1 0h1m1 0h1m3 0h1M2 4h1m1 0h1m1 0h1M1 5h1m1 0h1m1 0h1m5 0h1m1 0h1m3 0h1m1 0h1M2 6h1m5 0h1m1 0h1m1 0h1m1 0h1m1 0h1m1 0h1M1 7h1m1 0h1m1 0h1m1 0h1m1 0h1m1 0h1m1 0h1m1 0h1m1 0h1M2 8h1m5 0h1m7 0h1M1 9h1m1 0h1m3 0h1m1 0h1m1 0h1m1 0h1m1 0h1m1 0h1M2 10h1m1 0h1m1 0h1m7 0h1m1 0h1M1 11h1m1 0h1m1 0h1m1 0h1m1 0h1m1 0h1m1 0h1m1 0h1m9 0h1m1 0h1M2 12h1m3 0h1m1 0h1m1 0h1m1 0h1m1 0h1m9 0h1m1 0h1M1 13h1m3 0h1m1 0h1m1 0h1m1 0h1m1 0h1m1 0h1m9 0h1m1 0h1M2 14h1m1 0h1m1 0h1m1 0h1m1 0h1m1 0h1m1 0h1m9 0h1m1 0h1M1 15h1m1 0h1m1 0h1m1 0h1m1 0h1m1 0h1m1 0h1m11 0h1m1 0h1m-4 1h1m1 0h1M1 17h1m23 0h1m1 0h1M2 18h1m1 0h1m1 0h1m17 0h1m1 0h1m-2 1h1m1 0h1m-4 1h1m1 0h1m-2 1h1m1 0h1m-4 1h1m1 0h1m-2 1h1m1 0h1m-4 1h1m1 0h1m-4 1h1m1 0h1m1 0h1m-12 1h1m1 0h1m1 0h1m1 0h1m1 0h1m1 0h1m-10 1h1m1 0h1m1 0h1m1 0h1m1 0h1"/><path stroke="teal" d="M13 2h1m6 3h1m-2 1h1m-1 1h1m-2 1h1m-1 1h1m-2 1h1m-1 1h1m10 0h1m-13 1h1m11 0h1m-13 1h1m11 0h1m-14 1h1m12 0h1m-15 1h2m12 0h1M3 16h11m14 0h1m-1 1h1m-1 1h1M2 19h5m21 0h1m-1 1h1m-1 1h1m-1 1h1m-1 1h1m-1 1h1m-1 1h1m-1 1h1m-2 1h2m-12 1h11"/><path stroke="gray" d="M22 6h1m-1 1h1m-1 1h1m-3 1h1m1 0h1m-1 1h1m-4 1h2m1 0h1m-1 1h1m7 0h1m-13 1h3m1 0h1m7 0h1m-9 1h1m7 0h1m-14 1h4m1 0h1m7 0h1m-9 1h1m7 0h1m-17 1h7m1 0h1m7 0h1m-9 1h1m7 0h1M8 19h13m1 0h1m7 0h1m-9 1h1m7 0h1M4 21h3m1 0h13m1 0h1m7 0h1m-9 1h1m7 0h1m-10 1h2m7 0h1m-20 1h11m8 0h1m-1 1h1m-1 1h1m-1 1h1m-1 1h1m-2 1h2m-12 1h11"/></svg>