<svg xmlns="http://www.w3.org/2000/svg" viewBox="0 -0.5 16 16" shape-rendering="crispEdges">
<path stroke="#808080" d="M0 0h1M1 3h13M1 4h1M1 5h1M1 6h1M1 7h1M1 8h1M1 9h1M1 10h1M1 11h1" />
<path stroke="#000000" d="M0 0h1M14 3h1M2 4h1M13 4h2M3 5h1M12 5h1M14 5h1M4 6h1M11 6h1M14 6h1M5 7h1M10 7h1M14 7h1M5 8h2M9 8h2M14 8h1M4 9h1M7 9h2M11 9h1M14 9h1M3 10h1M12 10h1M14 10h1M2 11h1M13 11h2M1 12h14" />
<path stroke="#c0c0c0" d="M0 0h1M3 4h1M5 4h1M7 4h1M9 4h1M11 4h1M6 5h1M8 5h1M10 5h1M2 6h1M5 6h1M7 6h1M9 6h1M13 6h1M3 7h1M6 7h1M8 7h1M12 7h1M2 8h1M4 8h1M7 8h1M11 8h1M13 8h1M3 9h1M6 9h1M10 9h1M12 9h1M5 10h1M7 10h1M9 10h1M11 10h1M13 10h1M4 11h1M6 11h1M8 11h1M10 11h1M12 11h1" />
<path stroke="#ffff00" d="M0 0h1M4 4h1M6 4h1M8 4h1M10 4h1M12 4h1M2 5h1M4 5h2M7 5h1M9 5h1M11 5h1M13 5h1M3 6h1M6 6h1M8 6h1M10 6h1M12 6h1M2 7h1M4 7h1M7 7h1M9 7h1M11 7h1M13 7h1M3 8h1M8 8h1M12 8h1M2 9h1M5 9h1M9 9h1M13 9h1M2 10h1M4 10h1M6 10h1M8 10h1M10 10h1M3 11h1M5 11h1M7 11h1M9 11h1M11 11h1" />
</svg>