<svg xmlns="http://www.w3.org/2000/svg" width="16" height="16" shape-rendering="crispEdges" viewBox="0 -0.5 16 16"><path stroke="gray" d="M6 1h2M5 2h1m2 0h2M4 3h1m1 0h1m3 0h2M3 4h1m8 0h2M2 5h1m11 0h2M1 6h1m10 0h1M0 7h1m2 0h2m1 0h1M0 8h1m4 0h1m3 0h1m4 0h2M8 9h1m4 0h1M1 10h2m2 0h1m3 0h1m2 0h1M3 11h2m1 0h2m3 0h1m-7 1h2m3 0h1m-4 1h2"/><path stroke="#ff0" d="M6 2h1m2 1h1M5 4h1m6 1h1M2 6h1m2 0h1m2 0h1m1 1h1m2 0h1M2 8h1m4 0h1M5 9h1m4 0h1m-4 1h1"/><path stroke="#fff" d="M7 2h1M5 3h1m2 0h1M4 4h1m1 0h1m3 0h2M3 5h1m2 0h3m4 0h1M4 6h1m4 0h2m2 0h2M1 7h1m5 0h1m1 0h1m1 0h2M8 8h1m2 0h2M3 9h1m2 0h1m2 0h1m-4 1h1m3 0h1m-3 1h2"/><path stroke="silver" d="M7 3h1m1 1h1m1 1h1M7 6h1M5 7h1M1 8h1m4 0h1M1 9h2m1 0h1m6 0h1m2 0h1M3 10h2m3 0h1m4 0h1m-9 1h1m6 0h1m-6 1h2m2 0h1m-2 1h1"/><path stroke="maroon" d="M7 4h2m0 1h2m0 1h1"/><path stroke="#000" d="M4 5h2M3 6h1m2 0h1m8 0h1M2 7h1m5 0h1m5 0h1M3 8h2m5 0h1m2 0h1M0 9h1m6 0h1m4 0h1m2 0h1M0 10h1m10 0h1m2 0h1M1 11h2m7 0h1m2 0h1M3 12h2m4 0h1m2 0h1m-8 1h2m2 0h1m1 0h1m-5 1h4"/></svg>