<svg xmlns="http://www.w3.org/2000/svg" viewBox="0 -0.5 32 32" shape-rendering="crispEdges">
<path stroke="#808000" d="M0 0h1M19 0h4M17 1h2M16 2h1M19 2h3M24 2h1M15 3h1M18 3h1M25 3h1M14 4h1M17 4h1M23 4h1M26 4h1M14 5h1M16 5h1M24 5h1M26 5h1M14 6h1M16 6h1M24 6h1M26 6h1M14 7h1M16 7h1M24 7h1M26 7h1M16 8h1M24 8h1M26 8h1M16 9h1M24 9h1M26 9h1M18 10h7M26 10h1M28 10h2M18 11h1M20 11h1M22 11h1M24 11h1M26 11h1M28 11h1M30 11h1M17 12h1M19 12h1M21 12h1M23 12h1M27 12h1M29 12h1M18 13h1M20 13h1M22 13h1M24 13h1M26 13h1M28 13h1M30 13h1M29 14h1M30 15h1M29 16h1M30 17h1M29 18h1M30 19h1M29 20h1M30 21h1M29 22h1M30 23h1M29 24h1M30 25h1M29 26h1M30 27h1M14 28h15" />
<path stroke="#ffff00" d="M0 0h1M19 1h4M17 2h2M23 2h1M16 3h1M15 4h1M24 4h1M15 5h1M15 6h1M15 7h1M15 8h1M16 15h11M15 16h13M27 17h1M14 18h14M27 19h1M14 20h14M27 21h1M14 22h14M27 23h1M14 24h14M27 25h1M14 26h14M14 27h14" />
<path stroke="#000000" d="M0 0h1M23 1h2M25 2h1M6 3h5M19 3h4M26 3h1M5 4h1M11 4h1M18 4h1M27 4h1M12 5h1M17 5h1M27 5h1M9 6h1M12 6h1M17 6h1M27 6h1M5 7h2M12 7h1M17 7h1M27 7h1M4 8h1M12 8h1M14 8h1M17 8h1M27 8h1M4 9h1M10 9h2M15 9h1M17 9h1M27 9h1M9 10h1M12 10h1M16 10h2M27 10h1M9 11h1M12 11h1M16 11h2M27 11h1M10 12h2M16 12h1M25 12h2M31 12h1M16 13h1M31 13h1M16 14h1M31 14h1M15 15h1M31 15h1M14 16h1M31 16h1M13 17h1M31 17h1M8 18h1M13 18h1M31 18h1M8 19h1M13 19h1M31 19h1M4 20h1M13 20h1M31 20h1M5 21h1M13 21h1M31 21h1M8 22h2M13 22h1M31 22h1M8 23h1M10 23h1M13 23h1M31 23h1M4 24h1M8 24h1M13 24h1M31 24h1M5 25h1M13 25h1M31 25h1M8 26h2M13 26h1M31 26h1M8 27h1M10 27h1M13 27h1M31 27h1M5 28h1M7 28h1M13 28h1M30 28h1M6 29h1M13 29h17M10 30h1M12 30h1M11 31h1" />
<path stroke="#c0c0c0" d="M0 0h1M22 2h1M17 3h1M23 3h2M16 4h1M25 4h1M25 5h1M7 6h1M25 6h1M3 7h2M7 7h1M25 7h1M2 8h2M25 8h1M2 9h2M8 9h2M12 9h2M25 9h1M2 10h2M7 10h2M13 10h2M25 10h1M2 11h3M7 11h2M13 11h2M25 11h1M2 12h2M7 12h2M12 12h1M14 12h1M3 13h2M7 13h3M11 13h1M13 13h2M4 14h1M7 14h2M10 14h1M12 14h3M27 14h2M5 15h1M8 15h2M11 15h1M13 15h1M28 15h1M5 16h1M9 16h5M28 16h1M5 17h1M7 17h1M10 17h1M14 17h13M28 17h1M5 18h1M7 18h1M10 18h1M28 18h1M5 19h1M7 19h1M10 19h1M12 19h1M14 19h13M28 19h1M7 20h1M10 20h1M12 20h1M28 20h1M7 21h1M10 21h1M12 21h1M14 21h13M28 21h1M5 22h1M7 22h1M12 22h1M28 22h1M5 23h1M7 23h1M12 23h1M14 23h13M28 23h1M5 24h1M7 24h1M10 24h1M12 24h1M28 24h1M7 25h1M10 25h1M12 25h1M14 25h13M28 25h1M5 26h1M7 26h1M10 26h1M12 26h1M28 26h1M5 27h3M12 27h1M28 27h1M6 28h1M10 28h1M12 28h1M10 29h3M11 30h1" />
<path stroke="#808080" d="M0 0h1M6 4h1M10 4h1M3 5h6M11 5h1M2 6h1M8 6h1M1 7h1M8 7h4M13 7h1M0 8h1M5 8h3M13 8h1M0 9h1M5 9h2M14 9h1M0 10h1M5 10h1M10 10h2M15 10h1M0 11h1M5 11h1M10 11h1M15 11h1M19 11h1M21 11h1M23 11h1M29 11h1M0 12h1M5 12h1M15 12h1M18 12h1M20 12h1M22 12h1M24 12h1M28 12h1M30 12h1M1 13h1M5 13h1M15 13h1M17 13h1M19 13h1M21 13h1M23 13h1M25 13h1M27 13h1M29 13h1M2 14h1M5 14h1M15 14h1M30 14h1M3 15h1M6 15h1M14 15h1M29 15h1M4 16h1M6 16h2M30 16h1M4 17h1M6 17h1M8 17h1M12 17h1M29 17h1M3 18h1M6 18h1M9 18h1M11 18h2M30 18h1M3 19h1M6 19h1M9 19h1M11 19h1M29 19h1M5 20h2M8 20h1M11 20h1M30 20h1M6 21h1M8 21h1M11 21h1M29 21h1M4 22h1M6 22h1M10 22h2M30 22h1M3 23h1M6 23h1M11 23h1M29 23h1M6 24h1M9 24h1M11 24h1M30 24h1M6 25h1M8 25h1M11 25h1M29 25h1M4 26h1M6 26h1M11 26h1M30 26h1M4 27h1M11 27h1M29 27h1M9 28h1M11 28h1M29 28h1M9 29h1" />
<path stroke="#ffffff" d="M0 0h1M3 6h4M2 7h1M1 8h1M8 8h4M1 9h1M7 9h1M1 10h1M4 10h1M6 10h1M1 11h1M6 11h1M1 12h1M4 12h1M6 12h1M9 12h1M13 12h1M2 13h1M6 13h1M10 13h1M12 13h1M3 14h1M6 14h1M9 14h1M11 14h1M17 14h10M4 15h1M7 15h1M10 15h1M12 15h1M27 15h1M8 16h1M9 17h1M11 17h1M4 18h1M4 19h1M9 20h1M9 21h1M4 23h1M9 25h1" />
</svg>