<svg xmlns="http://www.w3.org/2000/svg" width="16" height="16" shape-rendering="crispEdges" viewBox="0 -0.5 16 16"><path stroke="gray" d="M5 0h2M4 1h1m2 0h2M3 2h1m2 0h1m2 0h2M2 3h1m8 0h2M1 4h1m4 0h1M0 5h1m4 1h1"/><path stroke="#fff" d="M5 1h2M4 2h1m2 0h2M3 3h8M2 4h3m2 0h3M2 5h2m1 0h2m2 0h2M4 6h1m2 0h3M5 7h4m2 1h1m1 0h1M4 9h1m1 0h1m5 0h1m-8 1h1m1 0h1m1 0h1m1 0h1m-4 1h1m1 0h1m-2 1h1"/><path stroke="#00f" d="M5 2h1M5 4h1M4 5h1m2 0h2M6 6h1"/><path stroke="maroon" d="M10 4h1"/><path stroke="red" d="M11 4h1"/><path stroke="silver" d="M12 4h1M1 5h1m9 0h1M3 6h1m6 0h1M9 7h1M7 8h2m-5 2h1m-2 1h1m2 1h1m1 0h1m-2 1h1m1 1h1"/><path stroke="#000" d="M13 4h1m-2 1h1M1 6h2m8 0h1M3 7h2m5 0h1M5 8h2m2 0h1M7 9h2m6 0h1M2 10h1m9 0h1m2 0h1M2 11h1m2 0h1m7 0h2M3 12h3m7 0h1m-9 1h2m3 0h1m1 0h1m-6 1h2m1 0h2m-3 1h2"/><path stroke="#ff0" d="M11 7h1M4 8h1m5 0h1m1 0h1M3 9h1m1 0h1m3 0h1m3 0h1m-6 1h1m1 0h1m-4 1h1m1 0h1m1 0h1m-2 1h1"/><path stroke="olive" d="M12 7h2M3 8h1m10 0h2M2 9h1m7 0h2m2 0h1M3 10h1m2 0h1m6 0h2M4 11h1m1 0h1m5 0h1m-6 1h1m3 0h2m-5 1h2m1 0h1"/></svg>