<svg xmlns="http://www.w3.org/2000/svg" viewBox="0 -0.5 16 16" shape-rendering="crispEdges">
<path stroke="#808080" d="M0 0h1M6 0h3M5 1h1M9 1h1M4 2h1M10 2h1M3 3h1M11 3h1M2 4h1M12 4h1M1 5h1M13 5h1M0 6h1M0 7h2M13 7h1M0 8h1M2 8h1M12 8h1M0 9h1M3 9h1M11 9h1M0 10h1M4 10h7M0 11h1M3 11h1M11 11h1M0 12h1M2 12h1M12 12h1M0 13h2M13 13h1M0 14h1" />
<path stroke="#c0c0c0" d="M0 0h1M6 1h3M5 2h1M9 2h1M4 3h1M10 3h1M3 4h1M11 4h1M2 5h1M12 5h1M1 6h1M13 6h1" />
<path stroke="#00ffff" d="M0 0h1M6 2h1M8 2h1M5 3h1M7 3h1M9 3h1M4 4h1M6 4h1M8 4h1M10 4h1M3 5h1M5 5h1M7 5h1M9 5h1M11 5h1M2 6h1M4 6h1M6 6h1M8 6h1M10 6h1M12 6h1M3 7h1M5 7h1M7 7h1M9 7h1M11 7h1M4 8h1M6 8h1M8 8h1M10 8h1M5 9h1M7 9h1M9 9h1" />
<path stroke="#ffffff" d="M0 0h1M7 2h1M6 3h1M8 3h1M5 4h1M7 4h1M9 4h1M4 5h1M6 5h1M8 5h1M10 5h1M3 6h1M5 6h1M7 6h1M9 6h1M11 6h1M2 7h1M4 7h1M6 7h1M8 7h1M10 7h1M12 7h1M1 8h1M3 8h1M5 8h1M7 8h1M9 8h1M11 8h1M13 8h1M1 9h2M4 9h1M6 9h1M8 9h1M10 9h1M12 9h2M1 10h3M11 10h3M1 11h2M4 11h7M12 11h2M1 12h1M3 12h9M13 12h1M2 13h11M1 14h13" />
<path stroke="#000000" d="M0 0h1M14 6h1M14 7h1M14 8h1M14 9h1M14 10h1M14 11h1M14 12h1M14 13h1M14 14h1M0 15h15" />
</svg>