<svg xmlns="http://www.w3.org/2000/svg" width="16" height="16" shape-rendering="crispEdges" viewBox="0 -0.5 16 16"><path stroke="gray" d="M6 0h3M5 1h1m3 0h1M4 2h1m5 0h1M3 3h1m7 0h1M2 4h1m9 0h1M1 5h1m11 0h1M0 6h1M0 7h2m11 0h1M0 8h1m1 0h1m9 0h1M0 9h1m2 0h1m7 0h1M0 10h1m3 0h7M0 11h1m2 0h1m7 0h1M0 12h1m1 0h1m9 0h1M0 13h2m11 0h1M0 14h1"/><path stroke="silver" d="M6 1h3M5 2h1m3 0h1M4 3h1m5 0h1M3 4h1m7 0h1M2 5h1m9 0h1M1 6h1m11 0h1"/><path stroke="#0ff" d="M6 2h1m1 0h1M5 3h1m1 0h1m1 0h1M4 4h1m1 0h1m1 0h1m1 0h1M3 5h1m1 0h1m1 0h1m1 0h1m1 0h1M2 6h1m1 0h1m1 0h1m1 0h1m1 0h1m1 0h1M3 7h1m1 0h1m1 0h1m1 0h1m1 0h1M4 8h1m1 0h1m1 0h1m1 0h1M5 9h1m1 0h1m1 0h1"/><path stroke="#fff" d="M7 2h1M6 3h1m1 0h1M5 4h1m1 0h1m1 0h1M4 5h1m1 0h1m1 0h1m1 0h1M3 6h1m1 0h1m1 0h1m1 0h1m1 0h1M2 7h1m1 0h1m1 0h1m1 0h1m1 0h1m1 0h1M1 8h1m1 0h1m1 0h1m1 0h1m1 0h1m1 0h1m1 0h1M1 9h2m1 0h1m1 0h1m1 0h1m1 0h1m1 0h2M1 10h3m7 0h3M1 11h2m1 0h7m1 0h2M1 12h1m1 0h9m1 0h1M2 13h11M1 14h13"/><path stroke="#000" d="M14 6h1m-1 1h1m-1 1h1m-1 1h1m-1 1h1m-1 1h1m-1 1h1m-1 1h1m-1 1h1M0 15h15"/></svg>