<svg xmlns="http://www.w3.org/2000/svg" width="16" height="16" shape-rendering="crispEdges" viewBox="0 -0.5 16 16"><path stroke="gray" d="M6 0h9M6 1h1M5 2h2m2 0h5M4 3h1m1 0h1M3 4h1m2 0h1m2 0h4M2 5h1m3 0h1M1 6h1m4 0h1m2 0h5M0 7h2m4 0h1M0 8h1m1 0h1m3 0h1m2 0h4M0 9h1m2 0h1m2 0h1m-7 1h1m3 0h3m-7 1h1m2 0h1m-4 1h1m1 0h1m8 0h1M0 13h2m10 0h1M0 14h1"/><path stroke="#000" d="M15 0h1m-1 1h1m-1 1h1m-1 1h1m-1 1h1m-1 1h1m-1 1h1m-1 1h1m-1 1h1m-1 1h1m-1 1h1M6 11h10m-3 1h1m-1 1h1m-1 1h1M0 15h14"/><path stroke="#fff" d="M7 1h2m1 0h3m1 0h1M8 2h1m5 0h1M7 3h2m1 0h3m1 0h1M8 4h1m4 0h2M5 5h1m1 0h2m1 0h3m1 0h1M4 6h1m3 0h1m5 0h1M3 7h1m1 0h1m1 0h2m1 0h3m1 0h1M1 8h1m2 0h1m3 0h1m4 0h2M1 9h2m4 0h2m1 0h3m1 0h1M1 10h3m4 0h3m1 0h3M1 11h2m1 0h2m-5 1h1m1 0h8m1 0h1M2 13h10M1 14h12"/><path stroke="#ff0" d="M9 1h1m3 0h1M7 2h1m1 1h1m3 0h1M7 4h1m1 1h1m3 0h1M7 6h1m1 1h1m3 0h1M7 8h1m1 1h1m3 0h1m-7 1h1m3 0h1"/><path stroke="silver" d="M5 3h1M4 4h1M3 5h1M2 6h1m1 3h2"/><path stroke="#0ff" d="M5 4h1M4 5h1M3 6h1m1 0h1M2 7h1m1 0h1M3 8h1m1 0h1"/></svg>