<svg xmlns="http://www.w3.org/2000/svg" viewBox="0 -0.5 16 16" shape-rendering="crispEdges">
<path stroke="#808080" d="M0 0h1M3 0h10M3 1h1M13 1h1M3 2h1M14 2h1M3 3h1M15 3h1M3 4h1M11 4h5M3 5h1M15 5h1M15 6h1M15 7h1M15 8h1M15 9h1M15 10h1M3 11h1M15 11h1M3 12h1M15 12h1M3 13h1M15 13h1M3 14h1M15 14h1M3 15h13" />
<path stroke="#ffffff" d="M0 0h1M4 1h7M4 2h1M8 2h3M12 2h1M4 3h7M12 3h2M4 4h1M9 4h2M4 5h11M4 6h1M13 6h2M8 7h7M12 8h3M8 9h7M13 10h2M4 11h1M7 11h8M4 12h1M12 12h3M4 13h11M4 14h11" />
<path stroke="#c0c0c0" d="M0 0h1M11 1h2M5 2h3M11 2h1M13 2h1M11 3h1M14 3h1M5 4h4M3 6h1M7 6h6M11 8h1M3 10h1M8 10h5M5 12h7" />
<path stroke="#000000" d="M0 0h1M1 6h2M5 6h2M0 7h1M3 7h2M7 7h1M0 8h1M3 8h1M5 8h1M7 8h4M0 9h1M3 9h3M7 9h1M1 10h2M4 10h1M6 10h2M5 11h2" />
<path stroke="#00ffff" d="M0 0h1M1 7h2M5 7h2M1 8h1M4 8h1" />
<path stroke="#008080" d="M0 0h1M2 8h1M6 8h1M1 9h2M6 9h1M5 10h1" />
</svg>