<svg xmlns="http://www.w3.org/2000/svg" width="32" height="32" shape-rendering="crispEdges" viewBox="0 -0.5 32 32"><path stroke="gray" d="M3 0h20M3 1h1m18 0h1M3 2h1m18 0h2M3 3h1m18 0h1m1 0h1M3 4h1m18 0h1m2 0h1M3 5h1m18 0h1m3 0h1M3 6h1m18 0h1M3 7h1M3 8h1M3 9h1m-1 1h1m-1 1h1m-1 1h1m-1 1h1m-1 1h1m-1 1h1m-1 1h1m-1 1h1m-1 1h1m-1 1h1m-1 1h1m-1 1h1m-1 1h1m-1 1h1m-1 1h1m-1 1h1m-1 1h1m-1 1h1m-1 1h1m-1 1h1m-1 1h1"/><path stroke="#fff" d="M4 1h18M4 2h18M4 3h18M4 4h18m1 0h1M4 5h18m1 0h2M4 6h18M4 7h23M4 8h23M4 9h23M4 10h13m4 0h6M4 11h11m8 0h4M4 12h4m1 0h5m10 0h3M4 13h4m1 0h1m1 0h1m12 0h3M4 14h6m14 0h3M4 15h4m1 0h5m10 0h3M4 16h4m1 0h1m1 0h1m12 0h3M4 17h6m14 0h3M4 18h4m1 0h5m10 0h3M4 19h4m1 0h1m1 0h1m12 0h3M4 20h6m14 0h3M4 21h4m1 0h5m10 0h3M4 22h4m1 0h1m1 0h1m5 0h4m3 0h3M4 23h6m5 0h8m1 0h3M4 24h23M4 25h23M4 26h23M4 27h23M4 28h23M4 29h23"/><path stroke="#000" d="M23 1h1m0 1h1m0 1h1m0 1h1m0 1h1m-5 1h6m-1 1h1m-1 1h1m-1 1h1m-12 1h4m7 0h1m-14 1h8m5 0h1M8 12h1m5 0h3m1 0h1m2 0h3m4 0h1M8 13h1m1 0h1m1 0h4m2 0h1m3 0h2m4 0h1m-19 1h5m3 0h1m3 0h2m4 0h1m-15 1h1m2 0h4m1 0h2m4 0h1m-15 1h1m1 0h8m4 0h1m-15 1h3m1 0h1m2 0h3m4 0h1m-15 1h2m2 0h1m3 0h2m4 0h1m-15 1h1m3 0h1m3 0h2m4 0h1m-15 1h1m2 0h4m1 0h2m4 0h1M8 21h1m5 0h1m1 0h8m4 0h1M8 22h1m1 0h1m1 0h5m4 0h3m4 0h1m-19 1h5m8 0h1m4 0h1m-1 1h1m-1 1h1m-1 1h1m-1 1h1m-1 1h1m-1 1h1m-1 1h1M3 31h26"/><path stroke="silver" d="M23 3h1m0 1h1m0 1h1m1 2h1m-1 1h1m-1 1h1m-1 1h1m-1 1h1m-1 1h1m-1 1h1m-1 1h1m-1 1h1m-1 1h1m-1 1h1m-1 1h1m-1 1h1m-1 1h1m-1 1h1m-1 1h1m-1 1h1m-1 1h1m-1 1h1m-1 1h1m-1 1h1m-1 1h1m-1 1h1M4 30h24"/><path stroke="red" d="M17 12h1m-2 1h2m-3 1h3M8 15h1m6 0h2m-9 1h1m1 0h1m1 0h2m-4 1h4"/><path stroke="green" d="M19 12h2m-2 1h3m-3 1h3m-1 1h1"/><path stroke="maroon" d="M15 16h1"/><path stroke="#00f" d="M17 17h1M8 18h1m7 0h2M8 19h1m1 0h1m1 0h2m1 0h3m-8 1h4m1 0h2"/><path stroke="#ff0" d="M19 17h2m-2 1h3m-3 1h3m-1 1h1"/><path stroke="navy" d="M15 21h1"/></svg>