<svg xmlns="http://www.w3.org/2000/svg" viewBox="0 -0.5 16 16" shape-rendering="crispEdges">
<path stroke="#808080" d="M0 0h1M0 0h11M0 1h1M0 2h1M0 3h1M0 4h1M0 5h1M0 6h1M4 6h4M0 7h1M8 7h7M4 8h1M4 9h1M4 10h1M4 11h1M4 12h1M4 13h1M4 14h1" />
<path stroke="#000000" d="M0 0h1M11 0h1M11 1h1M11 2h1M11 3h1M11 4h1M11 5h1M11 6h1M4 7h4M15 7h1M0 8h4M15 8h1M15 9h1M15 10h1M15 11h1M15 12h1M15 13h1M15 14h1M4 15h12" />
<path stroke="#ffffff" d="M0 0h1M1 1h8M1 2h1M4 2h5M1 3h10M1 4h3M8 4h3M1 5h10M1 6h3M8 6h3M1 7h3M5 8h8M5 9h1M8 9h5M5 10h10M5 11h3M12 11h3M5 12h10M5 13h3M12 13h3M5 14h10" />
<path stroke="#c0c0c0" d="M0 0h1M9 1h2M10 2h1M13 8h2M14 9h1" />
<path stroke="#0000ff" d="M0 0h1M12 1h2M15 1h1M2 2h2M12 3h2M15 3h1M4 4h4M12 5h2M15 5h1M6 9h2M0 10h1M2 10h2M8 11h4M0 12h1M2 12h2M8 13h4M0 14h1M2 14h2" />
<path stroke="#ff0000" d="M0 0h1M9 2h1M13 9h1" />
</svg>