<svg xmlns="http://www.w3.org/2000/svg" width="16" height="16" shape-rendering="crispEdges" viewBox="0 -0.5 16 16"><path stroke="gray" d="M0 0h11M0 1h1m9 0h1M0 2h1m9 0h1M0 3h1m9 0h1m1 0h3M0 4h1m9 0h1m3 0h1M0 5h1m9 0h1m2 0h2M0 6h1m9 0h1m2 0h2M0 7h1m5 0h3m1 0h1m2 0h2m-4 1h1m1 0h2M1 9h1m11 0h1"/><path stroke="#ff0" d="M1 1h1m3 0h1m3 0h1M1 3h1m7 0h1M3 4h1m3 0h1M1 5h1m3 0h1m3 0h1M3 6h1m3 0h1M1 7h1m3 0h1m3 0h1m-4 7h1"/><path stroke="#fff" d="M2 1h3m1 0h3M1 2h1m7 0h1M1 4h2m1 0h3m1 0h2m2 1h1M1 6h1m3 0h2m1 0h2M3 9h9m-5 5h1"/><path stroke="#000" d="M11 1h1M2 2h1m1 0h1m1 0h1m1 0h1m2 0h1m-1 1h1m-1 1h1m3 0h1M2 5h3m1 0h3m2 0h1m3 0h1M2 6h1m1 0h1m6 0h1m3 0h1M2 7h1m1 0h1m6 0h1m3 0h1M1 8h10m4 0h1m-2 1h1M2 10h12m-7 1h2m-1 1h1m0 1h1m-9 1h5m3 0h7M6 15h4"/><path stroke="silver" d="M3 2h1m1 0h1m1 0h1m4 2h2M3 7h1m8 0h1m-1 1h1M2 9h1m9 0h1m-6 3h1m-7 1h5m4 0h6"/><path stroke="maroon" d="M2 3h7"/><path stroke="#0f0" d="M12 6h1"/><path stroke="olive" d="M6 13h3m-1 1h1"/></svg>