<svg xmlns="http://www.w3.org/2000/svg" width="32" height="32" shape-rendering="crispEdges" viewBox="0 -0.5 32 32"><path stroke="gray" d="M0 0h20M0 1h1M0 2h1M0 3h1m2 0h1m5 0h1m1 0h1m1 0h1m3 0h1M0 4h1m3 0h1m3 0h1m5 0h1m6 0h1M0 5h1m2 0h1m1 0h1m1 0h1m1 0h1m3 0h1m1 0h1m1 0h1M0 6h1m20 0h1M0 7h1M0 8h1m20 0h1M0 9h1m-1 1h1m20 0h1M0 11h1m23 0h6M0 12h1m20 0h1m7 0h1M0 13h1m27 0h2M0 14h1m20 0h1m5 0h3M0 15h1m3 0h1m1 0h1m1 0h1m18 0h3M0 16h1m3 0h5m18 0h3M4 17h7m1 0h7m8 0h3M1 18h1m20 0h3m2 0h3M1 19h1m25 0h3M1 20h1m2 0h21m2 0h3M1 21h1m25 0h3M1 22h1m25 0h2M1 23h27m-13 2h1m-2 1h1m-1 1h1M0 28h1m1 0h10m7 0h11m1 0h1"/><path stroke="#000" d="M20 0h1m-1 1h1m-1 1h4M4 3h1m1 0h1m1 0h1m1 0h1m1 0h1m1 0h1m1 0h1m3 0h1m2 0h1M3 4h1m1 0h1m1 0h1m1 0h1m1 0h1m1 0h1m1 0h1m1 0h1m2 0h1m2 0h1M4 5h1m1 0h1m1 0h1m1 0h1m1 0h1m1 0h1m1 0h1m3 0h1m2 0h1m-4 1h1m2 0h1m-4 1h1m2 0h1m-4 1h1m2 0h1M3 9h7m1 0h7m2 0h1m2 0h1M3 10h1m5 0h1m10 0h1m2 0h1M3 11h1m5 0h1m1 0h6m3 0h1m2 0h1M3 12h1m5 0h1m10 0h1m2 0h1m6 0h1M3 13h1m5 0h1m1 0h7m2 0h1m2 0h1m6 0h1M3 14h1m5 0h1m10 0h1m2 0h1m6 0h1M3 15h1m5 0h1m1 0h6m3 0h1m2 0h1m6 0h1M3 16h1m5 0h1m10 0h1m2 0h1m6 0h1M1 17h1m19 0h2m7 0h1M2 18h20m8 0h1m-1 1h1m-1 1h1m-1 1h1m-2 1h1m-2 1h1M2 24h26m-14 1h1m1 0h1m-1 1h1m-1 1h1m1 1h1m-1 1h1M0 30h1m1 0h10m6 0h12m1 0h1m-20 1h7"/><path stroke="#fff" d="M1 1h1m1 0h3m1 0h3m1 0h3m1 0h3M1 2h3m1 0h3m1 0h3m1 0h3m1 0h2M1 3h1M1 4h2m15 0h1M1 5h1M1 6h3m1 0h3m1 0h3m1 0h3m1 0h2M1 7h1M1 8h3m1 0h3m1 0h3m1 0h3m1 0h2M1 9h1m-1 1h2m2 0h3m2 0h2m1 0h3m1 0h2M1 11h1m2 0h2m1 0h2m8 0h1M1 12h2m1 0h1m1 0h1m1 0h1m1 0h2m1 0h3m1 0h2M1 13h1m-1 1h2m7 0h2m1 0h3m1 0h2m5 0h3M1 15h1m15 0h1M1 16h2m7 0h2m1 0h3m1 0h2M2 19h1m1 0h21M2 20h1m-1 1h1m1 0h21M2 22h1m12 4h1m-1 1h1m-2 2h1m-1 1h1"/><path stroke="#ff0" d="M2 1h1m3 0h1m3 0h1m3 0h1m3 0h1M4 2h1m3 0h1m3 0h1m3 0h1M2 3h1m15 0h1M2 5h1m15 0h1M4 6h1m3 0h1m3 0h1m3 0h1M2 7h1m15 0h1M4 8h1m3 0h1m3 0h1m3 0h1M2 9h1m7 0h1m7 0h1M4 10h1m3 0h1m3 0h1m3 0h1M2 11h1m3 0h1m3 0h1m7 0h1m-7 1h1m3 0h1M2 13h1m7 0h1m7 0h1m-7 1h1m3 0h1M2 15h1m7 0h1m7 0h1m-7 1h1m3 0h1m-4 13h1m1 0h1m-3 1h1m1 0h1"/><path stroke="silver" d="M19 1h1m-1 1h1M5 3h1m1 0h1m7 0h1m3 0h1m1 0h2M6 4h1m3 0h1m1 0h1m3 0h1m2 0h1m2 0h1M11 5h1m7 0h1m1 0h2m-4 1h1m2 0h1m-4 1h1m1 0h2m-4 1h1m2 0h1m-4 1h1m1 0h2m-4 1h1m2 0h1m-4 1h1m1 0h2M5 12h1m1 0h1m11 0h1m2 0h1m1 0h5M4 13h5m10 0h1m1 0h2m1 0h4M4 14h5m10 0h1m2 0h1M5 15h1m1 0h1m11 0h1m1 0h2m2 0h2m-8 1h1m1 0h2m2 0h2M2 17h2m7 0h1m7 0h2m2 0h4m-2 1h2M3 19h1m21 0h2M3 20h1m21 0h2M3 21h1m21 0h2M3 22h24"/><path stroke="maroon" d="M3 7h15"/><path stroke="#0f0" d="M24 15h1"/><path stroke="green" d="M24 16h1"/><path stroke="olive" d="M12 28h6m-6 1h1m3 0h2m-6 1h1m3 0h2"/></svg>