<svg xmlns="http://www.w3.org/2000/svg" viewBox="0 -0.5 16 16" shape-rendering="crispEdges">
<path stroke="#808080" d="M0 0h1M2 0h12M2 1h1M2 2h1M2 3h1M2 4h1M2 5h1M2 6h1M4 6h8M2 7h1M2 8h1M4 8h7M2 9h1M2 10h1M4 10h8M2 11h1M2 12h1M4 12h7M2 13h1M2 14h1" />
<path stroke="#000000" d="M0 0h1M14 0h1M14 1h1M14 2h1M14 3h1M14 4h1M14 5h1M14 6h1M14 7h1M14 8h1M14 9h1M14 10h1M14 11h1M14 12h1M14 13h1M14 14h1M2 15h13" />
<path stroke="#ffff00" d="M0 0h1M3 1h1M7 1h1M11 1h1M9 2h1M3 3h1M7 3h1M11 3h1M9 4h1M3 5h1M7 5h1M11 5h1M3 7h1M7 7h1M11 7h1M3 9h1M7 9h1M11 9h1M3 11h1M7 11h1M11 11h1M3 13h1M7 13h1M11 13h1" />
<path stroke="#ffffff" d="M0 0h1M4 1h3M8 1h3M12 1h1M3 2h1M7 2h2M10 2h3M4 3h3M8 3h3M12 3h1M3 4h1M8 4h1M10 4h3M4 5h3M8 5h3M12 5h1M3 6h1M12 6h1M4 7h3M8 7h3M12 7h1M3 8h1M11 8h2M4 9h3M8 9h3M12 9h1M3 10h1M12 10h1M4 11h3M8 11h3M12 11h1M3 12h1M11 12h2M4 13h3M8 13h3M12 13h1" />
<path stroke="#c0c0c0" d="M0 0h1M13 1h1M13 2h1M13 3h1M13 4h1M13 5h1M13 6h1M13 7h1M13 8h1M13 9h1M13 10h1M13 11h1M13 12h1M13 13h1M3 14h11" />
<path stroke="#800000" d="M0 0h1M4 2h3M4 4h4" />
</svg>