<svg xmlns="http://www.w3.org/2000/svg" width="16" height="16" shape-rendering="crispEdges" viewBox="0 -0.5 16 16"><path stroke="gray" d="M0 0h11M0 1h1M0 2h1M0 3h1M0 4h1M0 5h1M0 6h1m3 0h4M0 7h1m7 0h7M4 8h1M4 9h1m-1 1h1m-1 1h1m-1 1h1m-1 1h1m-1 1h1"/><path stroke="#000" d="M11 0h1m-1 1h1m-1 1h1m-1 1h1m-1 1h1m-1 1h1m-1 1h1M4 7h4m7 0h1M0 8h4m11 0h1m-1 1h1m-1 1h1m-1 1h1m-1 1h1m-1 1h1m-1 1h1M4 15h12"/><path stroke="#fff" d="M1 1h8M1 2h1m2 0h5M1 3h10M1 4h3m4 0h3M1 5h10M1 6h3m4 0h3M1 7h3m1 1h8M5 9h1m2 0h5m-8 1h10M5 11h3m4 0h3M5 12h10M5 13h3m4 0h3M5 14h10"/><path stroke="silver" d="M9 1h2m-1 1h1m2 6h2m-1 1h1"/><path stroke="#00f" d="M12 1h2m1 0h1M2 2h2m8 1h2m1 0h1M4 4h4m4 1h2m1 0h1M6 9h2m-8 1h1m1 0h2m4 1h4M0 12h1m1 0h2m4 1h4M0 14h1m1 0h2"/><path stroke="red" d="M9 2h1m3 7h1"/></svg>