<svg xmlns="http://www.w3.org/2000/svg" width="32" height="32" shape-rendering="crispEdges" viewBox="0 -0.5 32 32"><path stroke="gray" d="M10 1h1M9 2h1m1 0h2M8 3h1m4 0h2M7 4h1m7 0h2M6 5h1m10 0h2M5 6h1m13 0h2M4 7h1m16 0h2M3 8h1m19 0h2M2 9h1m22 0h1M1 10h1"/><path stroke="#fff" d="M10 2h1M9 3h1m1 0h2M8 4h3m2 0h2M7 5h6m2 0h2M6 6h13M5 7h16M4 8h5m2 0h10m1 0h1M3 9h5m1 0h2m2 0h7m4 0h1M2 10h7m2 0h2m2 0h4m4 0h1M3 11h4m2 0h2m2 0h2m1 0h4m2 0h1M5 12h4m2 0h2m1 0h8M7 13h4m1 0h9m3 0h1M9 14h11m3 0h1m1 0h1m1 0h1m-17 1h8m3 0h1m1 0h1m3 0h1m-16 1h5m3 0h1m1 0h1m1 0h1m3 0h1M6 17h1m1 0h1m6 0h2m3 0h1m1 0h1m1 0h1m1 0h1m1 0h1M5 18h3m1 0h1m13 0h1m1 0h1m1 0h1M7 19h2m1 0h1m1 0h1m5 0h1m5 0h1m1 0h1M9 20h3m1 0h1m3 0h1m1 0h1m1 0h1m-11 1h1m4 0h1m1 0h1m1 0h1m1 0h1m-10 1h3m1 0h1m1 0h1m1 0h1m1 0h1m-9 1h2m1 0h1m1 0h1m1 0h1m-6 1h3m1 0h1m-3 1h2"/><path stroke="#00f" d="M10 3h1m0 1h2m0 1h2M9 8h2M8 9h1m2 0h2m-4 1h2m2 0h2m-8 1h2m2 0h2m2 0h1m-7 1h2m2 0h1m-3 1h1"/><path stroke="silver" d="M21 8h1m1 1h1m0 1h1M1 11h2m20 0h1M3 12h2m17 0h1M5 13h2m14 0h1M7 14h2m11 0h1M9 15h2m8 0h1m7 0h1M7 16h1m3 0h2m5 0h1m7 0h1m-17 1h1m2 0h2m2 0h1m-7 1h1m3 0h2m2 0h1M5 19h1m7 0h1m6 0h2M6 20h1m1 0h1m6 0h1m6 0h2M5 21h1m1 0h1m1 0h1m4 0h1m9 0h2M6 22h1m1 0h1m1 0h1m-4 1h1m1 0h1m1 0h1m1 0h1m-6 1h1m1 0h1m3 0h1m1 0h1m-6 1h1m1 0h1m1 0h1m1 0h1m-4 1h1m1 0h1m1 0h1m1 0h1m-6 1h1m1 0h1m1 0h1m-4 1h1m1 0h1m1 0h1m-2 1h1m0 1h1"/><path stroke="maroon" d="M20 9h2m-3 1h1m2 0h1m-3 1h2m3 4h2m0 1h2"/><path stroke="red" d="M22 9h1m-3 1h2"/><path stroke="#000" d="M26 9h1m-2 1h1M0 11h1m23 0h1M1 12h2m20 0h1M3 13h2m17 0h1M5 14h2m14 0h1M7 15h2m11 0h1M9 16h2m8 0h1m11 0h1m-21 1h2m5 0h1m12 0h1m-19 1h2m2 0h1m13 0h1m-17 1h2m14 0h1m-1 1h1m-6 1h1m4 0h1m-20 1h1m13 0h1m3 0h1M4 23h2m6 0h1m13 0h1m2 0h1M6 24h2m4 0h1m13 0h1m1 0h1M8 25h2m2 0h1m13 0h2m-18 1h3m13 0h1m-15 1h2m11 0h1m-12 1h2m8 0h1m-9 1h2m5 0h1m-6 1h2m2 0h1m-3 1h2"/><path stroke="olive" d="M24 12h2m-3 1h1m2 0h2m-6 1h1m5 0h2m-9 1h1m8 0h1M6 16h1m1 0h1m11 0h1M5 17h1m3 0h1m9 0h1m10 0h1M4 18h1m7 0h1m5 0h1m1 0h2m7 0h2M4 19h1m1 0h1m7 0h1m2 0h1m4 0h2m4 0h3M4 20h2m1 0h1m6 0h1m1 0h1m7 0h2m1 0h4M4 21h1m1 0h1m1 0h1m1 0h1m2 0h1m13 0h4M4 22h2m1 0h1m1 0h1m1 0h1m13 0h1m1 0h3M6 23h1m1 0h1m1 0h1m3 0h1m9 0h2m1 0h2M9 24h1m1 0h1m1 0h1m1 0h1m7 0h3m1 0h1m-18 1h1m3 0h1m1 0h1m1 0h1m3 0h4m-13 1h1m1 0h1m1 0h1m1 0h1m1 0h5m-12 1h1m1 0h1m1 0h1m1 0h5m-8 1h1m1 0h1m1 0h3m-6 1h1m1 0h3m-2 1h1"/><path stroke="#ff0" d="M25 13h1m-2 1h1m1 0h1m-4 1h1m5 0h1m-8 1h1m1 0h1m5 0h1M7 17h1m13 0h1m1 0h1m1 0h1m1 0h1m1 0h1M8 18h1m1 0h1m11 0h1m1 0h1m1 0h1m1 0h1M9 19h1m1 0h1m7 0h1m5 0h1m1 0h1m-16 1h1m5 0h1m1 0h1m5 0h1m-15 1h1m2 0h1m1 0h1m1 0h1m1 0h1m1 0h1m-8 1h1m1 0h1m1 0h1m1 0h1m1 0h1m-8 1h1m1 0h1m1 0h1m1 0h1m-4 1h1m1 0h1m-2 1h1"/></svg>