<svg xmlns="http://www.w3.org/2000/svg" width="16" height="16" shape-rendering="crispEdges" viewBox="0 -0.5 16 16"><path stroke="gray" d="M2 0h12M2 1h1M2 2h1M2 3h1M2 4h1M2 5h1M2 6h1m1 0h8M2 7h1M2 8h1m1 0h7M2 9h1m-1 1h1m1 0h8M2 11h1m-1 1h1m1 0h7m-9 1h1m-1 1h1"/><path stroke="#000" d="M14 0h1m-1 1h1m-1 1h1m-1 1h1m-1 1h1m-1 1h1m-1 1h1m-1 1h1m-1 1h1m-1 1h1m-1 1h1m-1 1h1m-1 1h1m-1 1h1m-1 1h1M2 15h13"/><path stroke="#ff0" d="M3 1h1m3 0h1m3 0h1M9 2h1M3 3h1m3 0h1m3 0h1M9 4h1M3 5h1m3 0h1m3 0h1M3 7h1m3 0h1m3 0h1M3 9h1m3 0h1m3 0h1m-9 2h1m3 0h1m3 0h1m-9 2h1m3 0h1m3 0h1"/><path stroke="#fff" d="M4 1h3m1 0h3m1 0h1M3 2h1m3 0h2m1 0h3M4 3h3m1 0h3m1 0h1M3 4h1m4 0h1m1 0h3M4 5h3m1 0h3m1 0h1M3 6h1m8 0h1M4 7h3m1 0h3m1 0h1M3 8h1m7 0h2M4 9h3m1 0h3m1 0h1M3 10h1m8 0h1m-9 1h3m1 0h3m1 0h1M3 12h1m7 0h2m-9 1h3m1 0h3m1 0h1"/><path stroke="silver" d="M13 1h1m-1 1h1m-1 1h1m-1 1h1m-1 1h1m-1 1h1m-1 1h1m-1 1h1m-1 1h1m-1 1h1m-1 1h1m-1 1h1m-1 1h1M3 14h11"/><path stroke="maroon" d="M4 2h3M4 4h4"/></svg>