<svg xmlns="http://www.w3.org/2000/svg" viewBox="0 -0.5 16 16" shape-rendering="crispEdges">
<path stroke="#808080" d="M0 0h1M6 0h9M6 1h1M5 2h2M9 2h5M4 3h1M6 3h1M3 4h1M6 4h1M9 4h4M2 5h1M6 5h1M1 6h1M6 6h1M9 6h5M0 7h2M6 7h1M0 8h1M2 8h1M6 8h1M9 8h4M0 9h1M3 9h1M6 9h1M0 10h1M4 10h3M0 11h1M3 11h1M0 12h1M2 12h1M11 12h1M0 13h2M12 13h1M0 14h1" />
<path stroke="#000000" d="M0 0h1M15 0h1M15 1h1M15 2h1M15 3h1M15 4h1M15 5h1M15 6h1M15 7h1M15 8h1M15 9h1M15 10h1M6 11h10M13 12h1M13 13h1M13 14h1M0 15h14" />
<path stroke="#ffffff" d="M0 0h1M7 1h2M10 1h3M14 1h1M8 2h1M14 2h1M7 3h2M10 3h3M14 3h1M8 4h1M13 4h2M5 5h1M7 5h2M10 5h3M14 5h1M4 6h1M8 6h1M14 6h1M3 7h1M5 7h1M7 7h2M10 7h3M14 7h1M1 8h1M4 8h1M8 8h1M13 8h2M1 9h2M7 9h2M10 9h3M14 9h1M1 10h3M8 10h3M12 10h3M1 11h2M4 11h2M1 12h1M3 12h8M12 12h1M2 13h10M1 14h12" />
<path stroke="#ffff00" d="M0 0h1M9 1h1M13 1h1M7 2h1M9 3h1M13 3h1M7 4h1M9 5h1M13 5h1M7 6h1M9 7h1M13 7h1M7 8h1M9 9h1M13 9h1M7 10h1M11 10h1" />
<path stroke="#c0c0c0" d="M0 0h1M5 3h1M4 4h1M3 5h1M2 6h1M4 9h2" />
<path stroke="#00ffff" d="M0 0h1M5 4h1M4 5h1M3 6h1M5 6h1M2 7h1M4 7h1M3 8h1M5 8h1" />
</svg>