<svg xmlns="http://www.w3.org/2000/svg" viewBox="0 -0.5 32 32" shape-rendering="crispEdges">
<path stroke="#808080" d="M0 0h1M19 5h2M18 6h1M22 6h4M17 7h1M21 7h1M16 8h1M20 8h1M15 9h1M19 9h1M14 10h1M18 10h1M13 11h1M17 11h1M21 11h2M25 11h1M12 12h1M16 12h1M20 12h1M24 12h1M11 13h1M15 13h1M19 13h1M23 13h1M10 14h1M14 14h1M18 14h1M22 14h1M9 15h1M13 15h1M17 15h1M21 15h1M8 16h1M12 16h1M16 16h1M20 16h1M7 17h1M11 17h1M15 17h1M19 17h1M6 18h1M10 18h1M14 18h1M18 18h1M5 19h1M7 19h1M9 19h1M13 19h1M17 19h1M5 20h1M7 20h2M12 20h1M16 20h1M5 21h1M7 21h2M10 21h2M15 21h1M5 22h1M7 22h1M14 22h1M5 23h1M13 23h1M10 24h3" />
<path stroke="#ffff00" d="M0 0h1M19 6h1M18 7h1M22 7h4M17 8h1M21 8h1M26 8h1M16 9h1M20 9h1M26 9h1M15 10h1M19 10h1M26 10h1M14 11h1M18 11h1M26 11h1M13 12h1M17 12h1M21 12h1M25 12h1M12 13h1M16 13h1M20 13h1M24 13h1M11 14h1M15 14h1M19 14h1M23 14h1M10 15h1M14 15h1M18 15h1M22 15h1M9 16h1M13 16h1M17 16h1M21 16h1M8 17h1M12 17h1M16 17h1M20 17h1M7 18h1M11 18h1M15 18h1M19 18h1M6 19h1M10 19h1M14 19h1M18 19h1M6 20h1M9 20h1M13 20h1M17 20h1M6 21h1M9 21h1M12 21h1M16 21h1M6 22h1M10 22h2M15 22h1M6 23h2M14 23h1M7 24h2M13 24h1M8 25h5" />
<path stroke="#000000" d="M0 0h1M20 6h1M19 7h1M26 7h1M18 8h1M22 8h4M27 8h1M17 9h1M21 9h1M25 9h1M27 9h1M16 10h1M20 10h1M25 10h1M27 10h1M15 11h1M19 11h1M27 11h1M14 12h1M18 12h1M22 12h1M26 12h1M13 13h1M17 13h1M21 13h1M25 13h1M12 14h1M16 14h1M20 14h1M24 14h1M11 15h1M15 15h1M19 15h1M23 15h1M10 16h1M14 16h1M18 16h1M22 16h1M9 17h1M13 17h1M17 17h1M21 17h1M8 18h1M12 18h1M16 18h1M20 18h1M11 19h1M15 19h1M19 19h1M10 20h1M14 20h1M18 20h1M13 21h1M17 21h1M9 22h1M12 22h1M16 22h1M8 23h1M10 23h2M15 23h1M6 24h1M9 24h1M14 24h1M7 25h1M13 25h1M8 26h5" />
</svg>