<svg xmlns="http://www.w3.org/2000/svg" width="32" height="32" shape-rendering="crispEdges" viewBox="0 -0.5 32 32"><path stroke="gray" d="M6 0h19M6 1h1m17 0h1M6 2h1m17 0h2M6 3h1m17 0h1m1 0h1M6 4h1m17 0h1m2 0h1M6 5h1m17 0h1m3 0h1M6 6h1m17 0h1m4 0h1M6 7h1m17 0h1M6 8h1M6 9h1m-1 1h1m-1 1h1m-1 1h1m2 0h3M2 13h3m1 0h1m1 0h1m3 0h1M1 14h1m3 0h1m1 0h1m5 0h1M0 15h1m-1 1h1m-1 1h1m17 0h2M0 18h1m-1 1h1m0 1h1m4 1h1m-1 1h1m-1 1h1m-1 1h1m-1 1h1m-1 1h1m-1 1h1m-1 1h1m-1 1h1m-1 1h1"/><path stroke="#fff" d="M7 1h17M7 2h17M7 3h17M7 4h2m7 0h8m1 0h1M7 5h17m1 0h2M7 6h2m6 0h9m1 0h3M7 7h17M7 8h2m8 0h13M7 9h23M7 10h23M7 11h23M7 12h2m18 0h3M7 13h1m5 0h17m-4 1h4m-15 1h15m-3 1h3m-10 1h10m-4 1h4m-15 1h15m-3 1h3M7 21h1m5 0h17M7 22h2m17 0h4M7 23h23M7 24h2m18 0h3M7 25h23M7 26h2m16 0h5M7 27h23M7 28h23M7 29h23"/><path stroke="#000" d="M25 1h1m0 1h1m0 1h1m0 1h1m0 1h1m0 1h1m-6 1h7m-1 1h1m-1 1h1m-1 1h1m-1 1h1m-1 1h1m-1 1h1m-1 1h1M6 15h4m4 0h1m16 0h1M6 16h1m3 0h1m3 0h1m16 0h1M6 17h1m3 0h1m3 0h4m13 0h1M6 18h1m3 0h1m3 0h1m16 0h1M6 19h4m4 0h1m16 0h1M5 20h1m1 0h1m5 0h1m17 0h1M2 21h3m3 0h1m3 0h1m18 0h1M9 22h3m19 0h1m-1 1h1m-1 1h1m-1 1h1m-1 1h1m-1 1h1m-1 1h1m-1 1h1m-1 1h1M6 31h26"/><path stroke="silver" d="M25 3h1M9 4h7m10 0h1m0 1h1M9 6h6m13 0h1M9 8h8m13 0h1m-1 1h1m-1 1h1m-1 1h1m-19 1h15m3 0h1m-1 1h1M6 14h1m7 0h12m4 0h1m-1 1h1m-16 1h12m3 0h1m-1 1h1m-16 1h11m4 0h1m-1 1h1M6 20h1m7 0h13m3 0h1m-1 1h1m-19 1h14m4 0h1m-1 1h1M9 24h18m3 0h1m-1 1h1M9 26h16m5 0h1m-1 1h1m-1 1h1m-1 1h1M7 30h24"/><path stroke="#0ff" d="M9 13h2m-8 1h1m7 0h1m-8 1h1m7 0h1m-9 1h1m3 0h2m2 0h1m-9 1h1m7 0h1m-9 1h1m7 0h1m-9 1h1m7 0h1m-2 1h1"/><path stroke="teal" d="M11 13h1M2 14h1m1 0h1m3 0h3m1 0h1M1 15h3m1 0h1m4 0h2m1 0h1M1 16h3m1 0h1m1 0h1m3 0h1m1 0h1M1 17h3m1 0h1m1 0h3m1 0h1m1 0h1M1 18h3m1 0h1m1 0h3m1 0h1m1 0h1M1 19h3m1 0h1m4 0h2m1 0h1M2 20h3m3 0h3m1 0h1m-4 1h3"/></svg>