<svg xmlns="http://www.w3.org/2000/svg" viewBox="0 -0.5 16 16" shape-rendering="crispEdges">
<path stroke="#808080" d="M0 0h1M0 1h13M0 2h1M0 3h1M0 4h1M2 4h1M4 4h1M6 4h1M8 4h1M10 4h1M0 5h1M0 6h1M0 7h1M0 8h1M0 9h1M0 10h1M0 11h1M7 11h4M0 12h1M3 12h4" />
<path stroke="#000000" d="M0 0h1M13 1h1M13 2h3M3 3h1M5 3h1M7 3h1M9 3h1M13 3h1M15 3h1M13 4h1M15 4h1M13 5h1M15 5h1M13 6h1M15 6h1M2 7h4M7 7h4M13 7h1M15 7h1M2 8h1M5 8h1M13 8h1M15 8h1M2 9h1M5 9h1M7 9h3M13 9h1M15 9h1M2 10h1M5 10h1M13 10h1M15 10h1M2 11h1M5 11h1M13 11h1M15 11h1M13 12h1M15 12h1M1 13h14" />
<path stroke="#ffffff" d="M0 0h1M1 2h2M4 2h3M8 2h3M11 3h1M1 4h1M11 5h1M1 6h2M4 6h3M8 6h3M6 7h1M11 7h1M1 8h1M4 8h1M6 8h1M8 8h3M4 9h1M6 9h1M10 9h2M1 10h1M6 10h1M8 10h3M1 11h1M6 11h1M11 11h1" />
<path stroke="#ffff00" d="M0 0h1M3 2h1M7 2h1M11 2h1M1 3h1M11 4h1M1 5h1M3 6h1M7 6h1M11 6h1M1 7h1M3 8h1M7 8h1M11 8h1M1 9h1M3 10h1M7 10h1M11 10h1" />
<path stroke="#c0c0c0" d="M0 0h1M12 2h1M2 3h1M4 3h1M6 3h1M8 3h1M10 3h1M12 3h1M14 3h1M3 4h1M5 4h1M7 4h1M9 4h1M12 4h1M14 4h1M12 5h1M14 5h1M12 6h1M14 6h1M12 7h1M14 7h1M12 8h1M14 8h1M3 9h1M12 9h1M14 9h1M4 10h1M12 10h1M14 10h1M3 11h2M12 11h1M14 11h1M1 12h2M7 12h6M14 12h1" />
<path stroke="#800000" d="M0 0h1M2 5h9" />
</svg>