<svg xmlns="http://www.w3.org/2000/svg" width="32" height="32" shape-rendering="crispEdges" viewBox="0 -0.5 32 32"><path stroke="gray" d="M13 1h5m-6 1h1m5 0h1m-8 1h1m7 0h1M10 4h1m2 0h5m2 0h1M9 5h1m2 0h1m5 0h1m2 0h1M8 6h1m2 0h1m7 0h1m2 0h1M7 7h1m2 0h1m9 0h1m2 0h1M6 8h1m2 0h1m11 0h1m2 0h1M5 9h1m2 0h1m13 0h1m2 0h1M4 10h1m2 0h1m15 0h1m2 0h1M3 11h1m2 0h1m17 0h1m2 0h1M2 12h1m2 0h1m19 0h1m2 0h1M1 13h4m21 0h3M1 14h1m3 0h1m19 0h1M1 15h1m4 0h1m17 0h1M1 16h1m5 0h1m15 0h1M1 17h1m6 0h1m13 0h1M1 18h1m7 0h1m11 0h1M1 19h1m8 0h11M1 20h1m7 0h1m11 0h1M1 21h1m6 0h1m13 0h1M1 22h1m5 0h1m15 0h1M1 23h1m4 0h1m17 0h1M1 24h1m3 0h1m19 0h1M1 25h1m2 0h1m21 0h1M1 26h1m1 0h1m23 0h1M1 27h2m25 0h1M1 28h1m-1 1h1"/><path stroke="#fff" d="M13 2h5m-6 1h1m5 0h1m-8 1h1m7 0h1M10 5h1m2 0h1m1 0h1m1 0h1m2 0h1M9 6h1m2 0h1m1 0h1m1 0h1m1 0h1m2 0h1M8 7h1m2 0h1m1 0h1m1 0h1m1 0h1m1 0h1m2 0h1M7 8h1m2 0h1m1 0h1m1 0h1m1 0h1m1 0h1m1 0h1m2 0h1M6 9h1m2 0h1m1 0h1m1 0h1m1 0h1m1 0h1m1 0h1m1 0h1m2 0h1M5 10h1m2 0h1m1 0h1m1 0h1m1 0h1m1 0h1m1 0h1m1 0h1m1 0h1m2 0h1M4 11h1m2 0h1m1 0h1m1 0h1m1 0h1m1 0h1m1 0h1m1 0h1m1 0h1m1 0h1m2 0h1M3 12h1m2 0h1m1 0h1m1 0h1m1 0h1m1 0h1m1 0h1m1 0h1m1 0h1m1 0h1m1 0h1m2 0h1M7 13h1m1 0h1m1 0h1m1 0h1m1 0h1m1 0h1m1 0h1m1 0h1m1 0h1M2 14h2m4 0h1m1 0h1m1 0h1m1 0h1m1 0h1m1 0h1m1 0h1m1 0h1M2 15h3m4 0h1m1 0h1m1 0h1m1 0h1m1 0h1m1 0h1m1 0h1m4 0h2M2 16h4m4 0h1m1 0h1m1 0h1m1 0h1m1 0h1m1 0h1m4 0h3M2 17h5m4 0h1m1 0h1m1 0h1m1 0h1m1 0h1m4 0h4M2 18h6m15 0h5M2 19h7m13 0h6M2 20h6m2 0h11m2 0h5M2 21h5m2 0h13m2 0h4M2 22h4m2 0h15m2 0h3M2 23h3m2 0h17m2 0h2M2 24h2m2 0h19m2 0h1M2 25h1m2 0h21M4 26h23M3 27h25M2 28h26"/><path stroke="silver" d="M13 3h5m-6 1h1m5 0h1m-8 1h1m7 0h1M10 6h1m9 0h1M9 7h1m11 0h1M8 8h1m13 0h1M7 9h1m15 0h1M6 10h1m17 0h1M5 11h1m19 0h1M4 12h1m21 0h1M5 13h1m19 0h1M4 14h1m1 0h1m17 0h1m1 0h3M5 15h1m1 0h1m15 0h1m1 0h1m2 0h1M6 16h1m1 0h1m13 0h1m1 0h1m3 0h1M7 17h1m1 0h1m11 0h1m1 0h1m4 0h1M8 18h1m1 0h11m1 0h1m5 0h1M9 19h1m11 0h1m6 0h1M8 20h1m13 0h1m5 0h1M7 21h1m15 0h1m4 0h1M6 22h1m17 0h1m3 0h1M5 23h1m19 0h1m2 0h1M4 24h1m21 0h1m1 0h1M3 25h1m23 0h2M2 26h1m25 0h1m-1 2h1M2 29h27"/><path stroke="#0ff" d="M14 5h1m1 0h1m-4 1h1m1 0h1m1 0h1m-6 1h1m1 0h1m1 0h1m1 0h1m-8 1h1m1 0h1m1 0h1m1 0h1m1 0h1M10 9h1m1 0h1m1 0h1m1 0h1m1 0h1m1 0h1M9 10h1m1 0h1m1 0h1m1 0h1m1 0h1m1 0h1m1 0h1M8 11h1m1 0h1m1 0h1m1 0h1m1 0h1m1 0h1m1 0h1m1 0h1M7 12h1m1 0h1m1 0h1m1 0h1m1 0h1m1 0h1m1 0h1m1 0h1m1 0h1M6 13h1m1 0h1m1 0h1m1 0h1m1 0h1m1 0h1m1 0h1m1 0h1m1 0h1m1 0h1M7 14h1m1 0h1m1 0h1m1 0h1m1 0h1m1 0h1m1 0h1m1 0h1m1 0h1M8 15h1m1 0h1m1 0h1m1 0h1m1 0h1m1 0h1m1 0h1m1 0h1M9 16h1m1 0h1m1 0h1m1 0h1m1 0h1m1 0h1m1 0h1m-12 1h1m1 0h1m1 0h1m1 0h1m1 0h1m1 0h1"/><path stroke="#000" d="M29 13h1m-1 1h1m-1 1h1m-1 1h1m-1 1h1m-1 1h1m-1 1h1m-1 1h1m-1 1h1m-1 1h1m-1 1h1m-1 1h1m-1 1h1m-1 1h1m-1 1h1m-1 1h1m-1 1h1M1 30h29"/></svg>