<svg xmlns="http://www.w3.org/2000/svg" width="32" height="32" shape-rendering="crispEdges" viewBox="0 -0.5 32 32"><path stroke="gray" d="M12 1h19M12 2h1m-1 1h1m-1 1h1m2 0h5M10 5h3M9 6h1m2 0h1m2 0h4M8 7h1m3 0h1M7 8h1m2 0h3M6 9h1m2 0h1m2 0h1m2 0h13M5 10h1m2 0h1m3 0h1m-9 1h1m2 0h1m4 0h1m2 0h12M3 12h1m2 0h1m5 0h1M2 13h1m2 0h1m6 0h1m2 0h13M1 14h1m2 0h1m7 0h1M0 15h4m8 0h1m2 0h12M0 16h1m3 0h1m7 0h1M0 17h1m4 0h1m6 0h1m2 0h13M0 18h1m5 0h1m5 0h1M0 19h1m6 0h1m4 0h1m2 0h12M0 20h1m7 0h5M0 21h1m6 0h1m4 0h1m2 0h7M0 22h1m5 0h1m5 0h1M0 23h1m4 0h1m6 0h1M0 24h1m3 0h1m7 0h1M0 25h1m2 0h1m8 0h1M0 26h1m1 0h1m-3 1h2m21 0h1M0 28h1m-1 1h1"/><path stroke="#000" d="M31 1h1m-1 1h1m-1 1h1m-1 1h1m-1 1h1m-1 1h1m-1 1h1m-1 1h1m-1 1h1m-1 1h1m-1 1h1m-1 1h1m-1 1h1m-1 1h1m-1 1h1m-1 1h1m-1 1h1m-1 1h1m-1 1h1m-1 1h1m-1 1h1m-1 1h1m-1 1h1m-1 1h1m-1 1h1m-20 1h20m-8 1h1m-1 1h1m-1 1h1M0 30h25"/><path stroke="#fff" d="M13 2h3m1 0h3m1 0h3m1 0h3m1 0h1M13 3h1m1 0h3m1 0h3m1 0h3m1 0h3M13 4h2m6 0h3m1 0h3m1 0h1M13 5h1m1 0h3m1 0h3m1 0h3m1 0h3M10 6h1m2 0h2m4 0h1m1 0h3m1 0h3m1 0h1M9 7h1m3 0h1m1 0h3m1 0h3m1 0h3m1 0h3M8 8h1m4 0h3m1 0h3m1 0h3m1 0h3m1 0h1M7 9h1m2 0h1m2 0h1m14 0h2M6 10h1m2 0h1m1 0h1m1 0h3m1 0h3m1 0h3m1 0h3m1 0h1M5 11h1m2 0h1m1 0h1m2 0h1m13 0h3M4 12h1m2 0h1m1 0h1m1 0h1m1 0h3m1 0h3m1 0h3m1 0h3m1 0h1M3 13h1m2 0h1m1 0h1m1 0h1m2 0h1m14 0h2M2 14h1m2 0h1m1 0h1m1 0h1m1 0h1m1 0h3m1 0h3m1 0h3m1 0h3m1 0h1M6 15h1m1 0h1m1 0h1m2 0h1m13 0h3M1 16h2m4 0h1m1 0h1m1 0h1m1 0h3m1 0h3m1 0h3m1 0h3m1 0h1M1 17h3m4 0h1m1 0h1m2 0h1m14 0h2M1 18h4m4 0h1m1 0h1m1 0h3m1 0h3m1 0h3m1 0h3m1 0h1M1 19h5m7 0h1m13 0h3M1 20h6m6 0h3m1 0h3m1 0h3m1 0h3m1 0h1M1 21h5m2 0h4m1 0h1m9 0h3m1 0h3M1 22h4m2 0h5m1 0h3m1 0h3m1 0h3m1 0h3m1 0h1M1 23h3m2 0h6m1 0h1m1 0h3m1 0h3m1 0h3m1 0h3M1 24h2m2 0h7m1 0h3m1 0h3m1 0h3m1 0h3m1 0h1M1 25h1m2 0h8m-9 1h9M2 27h11M1 28h22"/><path stroke="#ff0" d="M16 2h1m3 0h1m3 0h1m3 0h1M14 3h1m3 0h1m3 0h1m3 0h1m-7 1h1m3 0h1m3 0h1M14 5h1m3 0h1m3 0h1m3 0h1m-7 1h1m3 0h1m3 0h1M14 7h1m3 0h1m3 0h1m3 0h1M16 8h1m3 0h1m3 0h1m3 0h1M14 9h1m1 1h1m3 0h1m3 0h1m3 0h1m-15 1h1m1 1h1m3 0h1m3 0h1m3 0h1m-15 1h1m1 1h1m3 0h1m3 0h1m3 0h1m-15 1h1m1 1h1m3 0h1m3 0h1m3 0h1m-15 1h1m1 1h1m3 0h1m3 0h1m3 0h1m-15 1h1m1 1h1m3 0h1m3 0h1m3 0h1m-15 1h1m7 0h1m3 0h1m-11 1h1m3 0h1m3 0h1m3 0h1m-15 1h1m3 0h1m3 0h1m3 0h1m-11 1h1m3 0h1m3 0h1m3 0h1"/><path stroke="silver" d="M30 2h1m-1 1h1m-1 1h1m-1 1h1M11 6h1m18 0h1M10 7h2m18 0h1M9 8h1m20 0h1M8 9h1m21 0h1M7 10h1m22 0h1M6 11h1m23 0h1M5 12h1m24 0h1M4 13h1m25 0h1M3 14h1m26 0h1M4 15h1m25 0h1M3 16h1m1 0h1m24 0h1M4 17h1m1 0h1m23 0h1M5 18h1m1 0h1m22 0h1M6 19h1m1 0h4m18 0h1M7 20h1m22 0h1M6 21h1m23 0h1M5 22h1m24 0h1M4 23h1m25 0h1M3 24h1m26 0h1M2 25h1m10 0h18M1 26h1m11 1h10m0 1h1M1 29h23"/><path stroke="#0ff" d="M11 9h1m-2 1h1m-2 1h1m1 0h1m-4 1h1m1 0h1m-4 1h1m1 0h1m1 0h1m-6 1h1m1 0h1m1 0h1m-6 1h1m1 0h1m1 0h1m1 0h1m-6 1h1m1 0h1m1 0h1m-4 1h1m1 0h1m1 0h1m-4 1h1m1 0h1"/></svg>