<svg xmlns="http://www.w3.org/2000/svg" width="32" height="32" shape-rendering="crispEdges" viewBox="0 -0.5 32 32"><path stroke="gray" d="M12 2h2m-3 1h1m2 0h2m-6 1h1m5 0h2M9 5h1m2 0h1m5 0h2M8 6h1m5 0h2m4 0h2M7 7h1m8 0h1m5 0h2M6 8h1m11 0h2m4 0h2M5 9h1m14 0h1m5 0h2M4 10h1m17 0h2m4 0h2M3 11h1m20 0h1m5 0h2M2 12h1m3 0h3m17 0h1M1 13h1m5 0h4m6 0h1m9 0h1M0 14h1m2 0h1m5 0h2m4 0h1m3 0h1M0 15h1m4 0h1m7 0h1m3 0h1m3 0h1M0 16h1m2 0h1m3 0h1m4 0h1m2 0h1m3 0h1m3 0h1M0 17h1m1 0h1m2 0h1m3 0h1m3 0h1m3 0h1m3 0h1M1 18h2m1 0h1m2 0h1m3 0h1m3 0h1m3 0h1M1 19h4m1 0h1m2 0h1m3 0h1m3 0h1m3 0h1M3 20h4m1 0h1m2 0h1m3 0h1m3 0h1M5 21h4m1 0h1m2 0h1m3 0h1M7 22h4m1 0h1m2 0h1m-7 1h4m1 0h1m2 0h1m-7 1h4m1 0h1m-4 1h4m-2 1h3m1 0h1m-3 1h2m1 0h1"/><path stroke="#ff0" d="M12 3h1m1 1h1m1 1h1m-7 1h1m7 0h1M8 7h1m11 0h1M10 8h1m11 0h1M12 9h1m11 0h1M6 10h1m2 0h1m4 0h1m11 0h1M4 11h1m6 0h1m4 0h1m11 0h1m-15 1h1m3 0h1m11 0h1M4 13h1m15 0h1m7 0h1M6 14h1m6 0h1m3 0h1m4 0h1M1 15h1m1 0h1m4 0h1m2 0h1m12 0h1M5 16h1m4 0h1m15 0h1M3 17h1m12 0h1m7 0h1M9 18h1m-3 1h1m7 0h1m-3 1h1m8 0h1m-12 1h1m8 0h1m-3 1h1m-3 1h1m1 1h1"/><path stroke="#fff" d="M13 3h1m-3 1h3m1 0h1m-6 1h2m2 0h2m1 0h1M9 6h1m2 0h1m3 0h2m1 0h1M9 7h2m3 0h1m3 0h2m1 0h1M7 8h2m2 0h2m3 0h1m3 0h2m1 0h1M6 9h2m1 0h1m3 0h2m3 0h1m3 0h2m1 0h1M5 10h1m4 0h2m3 0h2m3 0h1m3 0h2m1 0h1M5 11h1m6 0h2m1 0h1m1 0h2m3 0h1m2 0h3m1 0h1M3 12h2m10 0h1m1 0h1m1 0h2m3 0h1m2 0h3M2 13h2m9 0h2m4 0h1m1 0h2m3 0h1m2 0h1M2 14h1m2 0h1m6 0h1m8 0h1m1 0h2m2 0h2M2 15h1m4 0h1m4 0h1m2 0h1m3 0h1m3 0h1m1 0h3M1 16h1m7 0h1m1 0h1m1 0h1m3 0h1m3 0h1m2 0h2M7 17h1m3 0h1m3 0h1m3 0h1m3 0h1m1 0h1M5 18h1m7 0h1m3 0h1m3 0h1m1 0h2m-14 1h1m7 0h1m2 0h2M9 20h1m7 0h1m3 0h1m-7 1h1m3 0h1m1 0h1m-9 1h1m5 0h2m-6 1h1m2 0h2m-3 1h1"/><path stroke="silver" d="M13 5h1m-1 1h1m-3 1h1m3 0h1m1 0h1m-5 1h1m3 0h1m-3 1h1m3 0h1m1 0h1M8 10h1m8 0h1m3 0h1M7 11h4m8 0h1m3 0h1M9 12h4m8 0h1m3 0h1m-15 1h1m3 0h2m6 0h1M1 14h1m12 0h1m3 0h1m6 0h1m4 0h1M4 15h1m11 0h1m3 0h1m8 0h1M2 16h1m3 0h1m7 0h1m3 0h1m3 0h1m5 0h1m1 0h1M1 17h1m2 0h1m3 0h1m3 0h1m7 0h1m6 0h1m1 0h1M3 18h1m2 0h1m3 0h1m3 0h1m3 0h1m3 0h1m3 0h1m1 0h1m1 0h1M5 19h1m2 0h1m3 0h1m3 0h1m3 0h1m4 0h1m1 0h1m1 0h1M7 20h1m2 0h1m3 0h1m3 0h1m5 0h1m1 0h1m1 0h1M9 21h1m2 0h1m3 0h1m6 0h1m1 0h1m1 0h1m-17 1h1m2 0h1m2 0h1m4 0h1m1 0h1m1 0h1m-14 1h1m7 0h1m1 0h1m1 0h1m-11 1h1m4 0h1m1 0h1m1 0h1m-8 1h1m1 0h1m1 0h1m1 0h1m-2 1h1m-2 1h1"/><path stroke="maroon" d="M11 6h1m0 1h2m0 1h2m0 1h2m0 1h2m0 1h2m0 1h2m0 1h2m0 1h1"/><path stroke="#000" d="M9 8h1M8 9h1m1 0h2m-5 1h1m4 0h2m-8 1h1m7 0h1M5 12h1m7 0h1m2 0h1m14 0h1M5 13h2m5 0h1m5 0h1m11 0h1M4 14h1m2 0h2m2 0h1m4 0h1m3 0h1m8 0h1m1 0h1M6 15h1m2 0h2m3 0h1m3 0h1m3 0h1m5 0h1m1 0h1M4 16h1m3 0h1m7 0h1m3 0h1m6 0h1m1 0h1m1 0h1M6 17h1m3 0h1m3 0h1m3 0h1m3 0h1m3 0h1m1 0h1m1 0h1M0 18h1m7 0h1m3 0h1m3 0h1m3 0h1m4 0h1m1 0h1m1 0h1m1 0h1M0 19h1m9 0h1m3 0h1m3 0h1m5 0h1m1 0h1m1 0h1m1 0h1M1 20h2m9 0h1m3 0h1m3 0h1m2 0h1m1 0h1m1 0h1m1 0h1M3 21h2m9 0h1m3 0h1m3 0h1m1 0h1m1 0h1m1 0h1M5 22h2m9 0h1m4 0h1m1 0h1m1 0h1m1 0h1M7 23h2m11 0h1m1 0h1m1 0h1m1 0h1M9 24h2m8 0h1m1 0h1m1 0h1m1 0h1m-15 1h2m5 0h1m1 0h1m1 0h1m1 0h1m-12 1h2m3 0h1m1 0h2m1 0h1m-9 1h2m2 0h1m2 0h1m-6 1h5"/></svg>