<svg xmlns="http://www.w3.org/2000/svg" width="16" height="16" shape-rendering="crispEdges" viewBox="0 -0.5 16 16"><path stroke="gray" d="M1 3h13M1 4h1M1 5h1M1 6h1M1 7h1M1 8h1M1 9h1m-1 1h1m-1 1h1"/><path stroke="#000" d="M14 3h1M2 4h1m10 0h2M3 5h1m8 0h1m1 0h1M4 6h1m6 0h1m2 0h1M5 7h1m4 0h1m3 0h1M5 8h2m2 0h2m3 0h1M4 9h1m2 0h2m2 0h1m2 0h1M3 10h1m8 0h1m1 0h1M2 11h1m10 0h2M1 12h14"/><path stroke="silver" d="M3 4h1m1 0h1m1 0h1m1 0h1m1 0h1M6 5h1m1 0h1m1 0h1M2 6h1m2 0h1m1 0h1m1 0h1m3 0h1M3 7h1m2 0h1m1 0h1m3 0h1M2 8h1m1 0h1m2 0h1m3 0h1m1 0h1M3 9h1m2 0h1m3 0h1m1 0h1m-8 1h1m1 0h1m1 0h1m1 0h1m1 0h1M4 11h1m1 0h1m1 0h1m1 0h1m1 0h1"/><path stroke="#ff0" d="M4 4h1m1 0h1m1 0h1m1 0h1m1 0h1M2 5h1m1 0h2m1 0h1m1 0h1m1 0h1m1 0h1M3 6h1m2 0h1m1 0h1m1 0h1m1 0h1M2 7h1m1 0h1m2 0h1m1 0h1m1 0h1m1 0h1M3 8h1m4 0h1m3 0h1M2 9h1m2 0h1m3 0h1m3 0h1M2 10h1m1 0h1m1 0h1m1 0h1m1 0h1m-8 1h1m1 0h1m1 0h1m1 0h1m1 0h1"/></svg>