<svg xmlns="http://www.w3.org/2000/svg" viewBox="0 -0.5 16 16" shape-rendering="crispEdges">
<path stroke="#808080" d="M0 0h1M6 1h2M5 2h1M8 2h2M4 3h1M6 3h1M10 3h2M3 4h1M12 4h2M2 5h1M14 5h2M1 6h1M12 6h1M0 7h1M3 7h2M6 7h1M0 8h1M5 8h1M9 8h1M14 8h2M8 9h1M13 9h1M1 10h2M5 10h1M9 10h1M12 10h1M3 11h2M6 11h2M11 11h1M5 12h2M10 12h1M7 13h2" />
<path stroke="#ffff00" d="M0 0h1M6 2h1M9 3h1M5 4h1M12 5h1M2 6h1M5 6h1M8 6h1M10 7h1M13 7h1M2 8h1M7 8h1M5 9h1M10 9h1M7 10h1" />
<path stroke="#ffffff" d="M0 0h1M7 2h1M5 3h1M8 3h1M4 4h1M6 4h1M10 4h2M3 5h1M6 5h3M13 5h1M4 6h1M9 6h2M13 6h2M1 7h1M7 7h1M9 7h1M11 7h2M8 8h1M11 8h2M3 9h1M6 9h1M9 9h1M6 10h1M10 10h1M8 11h2" />
<path stroke="#c0c0c0" d="M0 0h1M7 3h1M9 4h1M11 5h1M7 6h1M5 7h1M1 8h1M6 8h1M1 9h2M4 9h1M11 9h1M14 9h1M3 10h2M8 10h1M13 10h1M5 11h1M12 11h1M7 12h2M11 12h1M10 13h1" />
<path stroke="#800000" d="M0 0h1M7 4h2M9 5h2M11 6h1" />
<path stroke="#000000" d="M0 0h1M4 5h2M3 6h1M6 6h1M15 6h1M2 7h1M8 7h1M14 7h1M3 8h2M10 8h1M13 8h1M0 9h1M7 9h1M12 9h1M15 9h1M0 10h1M11 10h1M14 10h1M1 11h2M10 11h1M13 11h1M3 12h2M9 12h1M12 12h1M5 13h2M9 13h1M11 13h1M7 14h4" />
</svg>