<svg xmlns="http://www.w3.org/2000/svg" width="16" height="16" shape-rendering="crispEdges" viewBox="0 -0.5 16 16"><path stroke="gray" d="M0 1h13M0 2h1M0 3h1M0 4h1m1 0h1m1 0h1m1 0h1m1 0h1m1 0h1M0 5h1M0 6h1M0 7h1M0 8h1M0 9h1m-1 1h1m-1 1h1m6 0h4M0 12h1m2 0h4"/><path stroke="#000" d="M13 1h1m-1 1h3M3 3h1m1 0h1m1 0h1m1 0h1m3 0h1m1 0h1m-3 1h1m1 0h1m-3 1h1m1 0h1m-3 1h1m1 0h1M2 7h4m1 0h4m2 0h1m1 0h1M2 8h1m2 0h1m7 0h1m1 0h1M2 9h1m2 0h1m1 0h3m3 0h1m1 0h1M2 10h1m2 0h1m7 0h1m1 0h1M2 11h1m2 0h1m7 0h1m1 0h1m-3 1h1m1 0h1M1 13h14"/><path stroke="#fff" d="M1 2h2m1 0h3m1 0h3m0 1h1M1 4h1m9 1h1M1 6h2m1 0h3m1 0h3M6 7h1m4 0h1M1 8h1m2 0h1m1 0h1m1 0h3M4 9h1m1 0h1m3 0h2M1 10h1m4 0h1m1 0h3M1 11h1m4 0h1m4 0h1"/><path stroke="#ff0" d="M3 2h1m3 0h1m3 0h1M1 3h1m9 1h1M1 5h1m1 1h1m3 0h1m3 0h1M1 7h1m1 1h1m3 0h1m3 0h1M1 9h1m1 1h1m3 0h1m3 0h1"/><path stroke="silver" d="M12 2h1M2 3h1m1 0h1m1 0h1m1 0h1m1 0h1m1 0h1m1 0h1M3 4h1m1 0h1m1 0h1m1 0h1m2 0h1m1 0h1m-3 1h1m1 0h1m-3 1h1m1 0h1m-3 1h1m1 0h1m-3 1h1m1 0h1M3 9h1m8 0h1m1 0h1M4 10h1m7 0h1m1 0h1M3 11h2m7 0h1m1 0h1M1 12h2m4 0h6m1 0h1"/><path stroke="maroon" d="M2 5h9"/></svg>