<svg xmlns="http://www.w3.org/2000/svg" viewBox="0 -0.5 16 16" shape-rendering="crispEdges">
<path stroke="#000000" d="M0 0h1M0 4h1M2 4h1M4 4h12M5 5h2M14 5h2M0 6h1M2 6h1M4 6h2M7 6h1M13 6h1M15 6h1M5 7h1M8 7h1M12 7h1M15 7h1M0 8h1M2 8h1M4 8h2M7 8h1M9 8h1M11 8h1M13 8h1M15 8h1M5 9h2M10 9h1M14 9h2M0 10h1M2 10h1M4 10h2M15 10h1M5 11h11" />
<path stroke="#ffff00" d="M0 0h1M7 5h1M9 5h1M11 5h1M13 5h1M6 6h1M8 6h1M10 6h1M12 6h1M14 6h1M7 7h1M9 7h1M11 7h1M13 7h1M6 8h1M8 8h1M10 8h1M12 8h1M14 8h1M7 9h1M9 9h1M11 9h1M13 9h1M6 10h1M8 10h1M10 10h1M12 10h1M14 10h1" />
<path stroke="#ffffff" d="M0 0h1M8 5h1M10 5h1M12 5h1M9 6h1M11 6h1M6 7h1M10 7h1M14 7h1M8 9h1M12 9h1M7 10h1M9 10h1M11 10h1M13 10h1" />
</svg>