<svg xmlns="http://www.w3.org/2000/svg" width="32" height="32" shape-rendering="crispEdges" viewBox="0 -0.5 32 32"><path stroke="gray" d="M0 0h23M0 1h1M0 2h1M0 3h1M0 4h1M0 5h1M0 6h1M0 7h1M0 8h1M0 9h1m-1 1h1m-1 1h1m-1 1h1m-1 1h1m-1 1h1m7 0h23M0 15h1m7 0h1m-9 1h1m7 0h1m-1 1h1m-1 1h1m-1 1h1m-1 1h1m-1 1h1m-1 1h1m-1 1h1m-1 1h1m-1 1h1m-1 1h1m-1 1h1m-1 1h1m-1 1h1m-1 1h1"/><path stroke="#000" d="M23 0h1m-1 1h1m-1 1h1m-1 1h1m-1 1h1m-1 1h1m-1 1h1m-1 1h1m-1 1h1m-1 1h1m-1 1h1m-1 1h1m-1 1h1m-1 1h1m7 1h1m-1 1h1m-1 1h1M0 17h8m23 0h1m-1 1h1m-1 1h1m-1 1h1m-1 1h1m-1 1h1m-1 1h1m-1 1h1m-1 1h1m-1 1h1m-1 1h1m-1 1h1m-1 1h1m-1 1h1M8 31h24"/><path stroke="#fff" d="M1 1h18M1 2h1m5 0h12M1 3h1m5 0h12M1 4h18M1 5h21M1 6h21M1 7h21M1 8h6m10 0h5M1 9h6m10 0h5M1 10h21M1 11h6m10 0h5M1 12h6m10 0h5M1 13h21M1 14h7m-7 1h7m1 0h18M9 16h1m5 0h12M9 17h1m5 0h12M9 18h18M9 19h21M9 20h21M9 21h21M9 22h6m10 0h5M9 23h6m10 0h5M9 24h21M9 25h6m10 0h5M9 26h6m10 0h5M9 27h21M9 28h21M9 29h21"/><path stroke="silver" d="M19 1h4m-1 1h1M2 3h5m15 0h1m-1 1h1m-1 1h1m-1 1h1m-1 1h1m-1 1h1M7 9h10m5 0h1m-1 1h1m-1 1h1M7 12h10m5 0h1m-1 1h1m4 2h4M1 16h7m22 0h1m-21 1h5m15 0h1m-1 1h1m-1 1h1m-1 1h1m-1 1h1m-1 1h1m-16 1h10m5 0h1m-1 1h1m-1 1h1m-16 1h10m5 0h1m-1 1h1m-1 1h1m-1 1h1M9 30h22"/><path stroke="#00f" d="M2 2h5m18 0h4m1 0h2m-7 3h4m1 0h2M7 8h10m8 0h4m1 0h2M7 11h10m8 0h4m1 0h2m-22 5h5M0 20h2m1 0h4m8 2h10M0 23h2m1 0h4m8 2h10M0 26h2m1 0h4m-7 3h2m1 0h4"/><path stroke="red" d="M19 2h1m1 0h1m-3 1h1m-1 1h3m5 12h1m1 0h1m-3 1h1m-1 1h3"/><path stroke="maroon" d="M20 2h1m-1 1h2m6 13h1m-1 1h2"/></svg>