<svg xmlns="http://www.w3.org/2000/svg" width="32" height="32" shape-rendering="crispEdges" viewBox="0 -0.5 32 32"><path stroke="gray" d="M0 3h27M0 4h1M0 5h1M0 6h1m27 0h1M0 7h1m3 0h1m5 0h1m1 0h1m1 0h1m1 0h1m5 0h1m5 0h2M0 8h1m4 0h1m3 0h1m5 0h1m1 0h1m3 0h1m1 0h1m4 0h1M0 9h1m4 0h1m1 0h1m1 0h1m1 0h1m1 0h1m1 0h1m1 0h1m1 0h1m1 0h1m1 0h1m4 0h2M0 10h1m4 0h1m3 0h1m1 0h1m1 0h1m1 0h1m3 0h1m1 0h1m1 0h1m4 0h1M0 11h1m27 0h2M0 12h1m27 0h1M0 13h1m27 0h2M0 14h1m27 0h1M0 15h1m27 0h2M0 16h1m27 0h1M0 17h1m27 0h2M0 18h1m27 0h1M0 19h1m27 0h2M0 20h1m27 0h1M0 21h1m27 0h2M0 22h1m4 0h1m1 0h1m1 0h1m1 0h1m16 0h1M0 23h1m4 0h7m16 0h2M0 24h1m4 0h7m16 0h1M0 25h1m4 0h7m2 0h9m5 0h1M5 26h9m15 0h1"/><path stroke="#000" d="M27 3h1m-1 1h1m-1 1h5m-5 1h1m3 0h1M5 7h1m1 0h1m1 0h1m1 0h1m1 0h1m1 0h1m1 0h1m1 0h1m1 0h1m1 0h1m3 0h1m3 0h1M4 8h1m1 0h1m1 0h1m1 0h1m1 0h1m1 0h1m1 0h1m1 0h1m1 0h1m1 0h1m4 0h1m3 0h1m-5 1h1m3 0h1M4 10h1m1 0h1m1 0h1m1 0h1m1 0h1m1 0h1m1 0h1m1 0h1m1 0h1m1 0h1m4 0h1m3 0h1m-5 1h1m3 0h1m-5 1h1m3 0h1m-5 1h1m3 0h1m-5 1h1m3 0h1M4 15h9m1 0h10m3 0h1m3 0h1M4 16h1m7 0h1m14 0h1m3 0h1M4 17h1m7 0h1m1 0h9m4 0h1m3 0h1M4 18h1m7 0h1m14 0h1m3 0h1M4 19h1m7 0h1m1 0h10m3 0h1m3 0h1M4 20h1m7 0h1m14 0h1m3 0h1M4 21h1m7 0h1m1 0h9m4 0h1m3 0h1M4 22h1m7 0h1m14 0h1m3 0h1M4 23h1m7 0h1m1 0h10m3 0h1m3 0h1M4 24h1m7 0h1m14 0h1m3 0h1M4 25h1m7 0h1m14 0h1m3 0h1M1 26h1m26 0h1m1 0h1M2 27h28"/><path stroke="#fff" d="M1 4h2m1 0h3m1 0h3m1 0h3m1 0h3m1 0h3m1 0h2M2 5h3m1 0h3m1 0h3m1 0h3m1 0h3m1 0h3M1 6h2m1 0h3m1 0h3m1 0h3m1 0h3m1 0h3m1 0h2M2 7h2m20 0h1M1 8h2m21 0h2M2 9h2m20 0h1M1 10h2m21 0h2M2 11h3m1 0h3m1 0h3m1 0h3m1 0h3m1 0h3M1 12h2m21 0h2M2 13h3m1 0h3m1 0h3m1 0h3m1 0h3m1 0h3M1 14h2m1 0h3m1 0h3m1 0h3m1 0h3m1 0h3m1 0h2M2 15h2m20 0h1M1 16h2m2 0h2m1 0h3m2 0h2m1 0h3m1 0h3m1 0h2M2 17h2m2 0h3m1 0h2m11 0h2M1 18h2m2 0h2m1 0h3m2 0h2m1 0h3m1 0h3m1 0h2M2 19h2m1 0h1m1 0h1m1 0h1m1 0h1m12 0h1M1 20h2m10 0h2m1 0h3m1 0h3m1 0h2M2 21h2m19 0h2M1 22h2m10 0h2m1 0h3m1 0h3m1 0h2M2 23h2m20 0h1M1 24h2m10 0h2m1 0h3m1 0h3m1 0h2M2 25h2m19 0h2"/><path stroke="#ff0" d="M3 4h1m3 0h1m3 0h1m3 0h1m3 0h1m3 0h1M1 5h1m3 0h1m3 0h1m3 0h1m3 0h1m3 0h1m3 0h1M3 6h1m3 0h1m3 0h1m3 0h1m3 0h1m3 0h1M1 7h1m23 0h1M3 8h1M1 9h1m23 0h1M3 10h1m-3 1h1m3 0h1m3 0h1m3 0h1m3 0h1m3 0h1m3 0h1M3 12h1m-3 1h1m3 0h1m3 0h1m3 0h1m3 0h1m3 0h1m3 0h1M3 14h1m3 0h1m3 0h1m3 0h1m3 0h1m3 0h1M1 15h1m11 0h1m11 0h1M3 16h1m3 0h1m3 0h1m3 0h1m3 0h1m3 0h1M1 17h1m3 0h1m3 0h1m3 0h1m11 0h1M3 18h1m3 0h1m3 0h1m3 0h1m3 0h1m3 0h1M1 19h1m11 0h1m11 0h1M3 20h1m11 0h1m3 0h1m3 0h1M1 21h1m11 0h1m11 0h1M3 22h1m11 0h1m3 0h1m3 0h1M1 23h1m11 0h1m11 0h1M3 24h1m11 0h1m3 0h1m3 0h1m-11 1h1m11 0h1"/><path stroke="silver" d="M26 4h1m-1 1h1m-1 1h1m2 0h2M6 7h1m1 0h1m9 0h1m1 0h1m5 0h1m3 0h1M7 8h1m3 0h1m1 0h1m5 0h1m6 0h1m2 0h2M4 9h1m1 0h1m1 0h1m1 0h1m1 0h1m1 0h1m1 0h1m1 0h1m1 0h1m1 0h1m3 0h1m3 0h1M7 10h1m9 0h1m8 0h1m2 0h2m-5 1h1m3 0h1m-5 1h1m2 0h2m-5 1h1m3 0h1m-5 1h1m2 0h2m-5 1h1m3 0h1m-5 1h1m2 0h2m-5 1h1m3 0h1m-5 1h1m2 0h2M6 19h1m1 0h1m1 0h1m15 0h1m3 0h1M5 20h7m14 0h1m2 0h2M5 21h7m14 0h1m3 0h1M6 22h1m1 0h1m1 0h1m15 0h1m2 0h2m-5 1h1m3 0h1m-5 1h1m2 0h2M1 25h1m24 0h1m2 0h2M2 26h3m9 0h14"/><path stroke="maroon" d="M4 12h20"/></svg>