<svg xmlns="http://www.w3.org/2000/svg" viewBox="0 -0.5 16 16" shape-rendering="crispEdges">
<path stroke="#808080" d="M0 0h1M5 0h2M4 1h1M7 1h2M3 2h1M6 2h1M9 2h2M2 3h1M11 3h2M1 4h1M6 4h1M0 5h1M5 6h1" />
<path stroke="#ffffff" d="M0 0h1M5 1h2M4 2h1M7 2h2M3 3h8M2 4h3M7 4h3M2 5h2M5 5h2M9 5h2M4 6h1M7 6h3M5 7h4M11 8h1M13 8h1M4 9h1M6 9h1M12 9h1M5 10h1M7 10h1M9 10h1M11 10h1M8 11h1M10 11h1M9 12h1" />
<path stroke="#0000ff" d="M0 0h1M5 2h1M5 4h1M4 5h1M7 5h2M6 6h1" />
<path stroke="#800000" d="M0 0h1M10 4h1" />
<path stroke="#ff0000" d="M0 0h1M11 4h1" />
<path stroke="#c0c0c0" d="M0 0h1M12 4h1M1 5h1M11 5h1M3 6h1M10 6h1M9 7h1M7 8h2M4 10h1M3 11h1M6 12h1M8 12h1M7 13h1M9 14h1" />
<path stroke="#000000" d="M0 0h1M13 4h1M12 5h1M1 6h2M11 6h1M3 7h2M10 7h1M5 8h2M9 8h1M7 9h2M15 9h1M2 10h1M12 10h1M15 10h1M2 11h1M5 11h1M13 11h2M3 12h3M13 12h1M5 13h2M10 13h1M12 13h1M7 14h2M10 14h2M9 15h2" />
<path stroke="#ffff00" d="M0 0h1M11 7h1M4 8h1M10 8h1M12 8h1M3 9h1M5 9h1M9 9h1M13 9h1M8 10h1M10 10h1M7 11h1M9 11h1M11 11h1M10 12h1" />
<path stroke="#808000" d="M0 0h1M12 7h2M3 8h1M14 8h2M2 9h1M10 9h2M14 9h1M3 10h1M6 10h1M13 10h2M4 11h1M6 11h1M12 11h1M7 12h1M11 12h2M8 13h2M11 13h1" />
</svg>