<svg xmlns="http://www.w3.org/2000/svg" width="32" height="32" shape-rendering="crispEdges" viewBox="0 -0.5 32 32"><path stroke="gray" d="M3 0h25M3 1h1M3 2h1M3 3h1M3 4h1M3 5h1M3 6h1M3 7h1M3 8h1M3 9h1m-1 1h1m-1 1h1m-1 1h1m2 0h18M3 13h1m-1 1h1m2 0h17M3 15h1m-1 1h1m2 0h18M3 17h1m-1 1h1m2 0h17M3 19h1m-1 1h1m2 0h18M3 21h1m-1 1h1m2 0h17M3 23h1m-1 1h1m2 0h18M3 25h1m-1 1h1m2 0h16M3 27h1m-1 1h1m-1 1h1m-1 1h1"/><path stroke="#000" d="M28 0h1m-1 1h1m-1 1h1m-1 1h1m-1 1h1m-1 1h1m-1 1h1m-1 1h1m-1 1h1m-1 1h1m-1 1h1m-1 1h1m-1 1h1m-1 1h1m-1 1h1m-1 1h1m-1 1h1m-1 1h1m-1 1h1m-1 1h1m-1 1h1m-1 1h1m-1 1h1m-1 1h1m-1 1h1m-1 1h1m-1 1h1m-1 1h1m-1 1h1m-1 1h1m-1 1h1M3 31h26"/><path stroke="#ff0" d="M4 1h1m3 0h1m3 0h1m3 0h1m3 0h1m3 0h1M6 2h1m3 0h1m3 0h1m3 0h1m3 0h1m3 0h1M4 3h1m3 0h1m3 0h1m3 0h1m3 0h1m3 0h1M14 4h1m3 0h1m3 0h1m3 0h1M4 5h1m3 0h1m3 0h1m3 0h1m3 0h1m3 0h1M14 6h1m3 0h1m3 0h1m3 0h1M4 7h1m1 0h1m1 0h1m3 0h1m3 0h1m3 0h1m3 0h1M14 8h1m3 0h1m3 0h1m3 0h1M4 9h1m3 0h1m3 0h1m3 0h1m3 0h1m3 0h1M6 10h1m3 0h1m3 0h1m3 0h1m3 0h1m3 0h1M4 11h1m3 0h1m3 0h1m3 0h1m3 0h1m3 0h1m1 1h1M4 13h1m3 0h1m3 0h1m3 0h1m3 0h1m3 0h1m1 1h1M4 15h1m3 0h1m3 0h1m3 0h1m3 0h1m3 0h1m1 1h1M4 17h1m3 0h1m3 0h1m3 0h1m3 0h1m3 0h1m1 1h1M4 19h1m3 0h1m3 0h1m3 0h1m3 0h1m3 0h1m1 1h1M4 21h1m3 0h1m3 0h1m3 0h1m3 0h1m3 0h1m1 1h1M4 23h1m3 0h1m3 0h1m3 0h1m3 0h1m3 0h1m1 1h1M4 25h1m3 0h1m3 0h1m3 0h1m3 0h1m3 0h1m-3 1h1m3 0h1M4 27h1m3 0h1m3 0h1m3 0h1m3 0h1m3 0h1M6 28h1m3 0h1m3 0h1m3 0h1m3 0h1m3 0h1M4 29h1m3 0h1m3 0h1m3 0h1m3 0h1m3 0h1"/><path stroke="#fff" d="M5 1h3m1 0h3m1 0h3m1 0h3m1 0h3m1 0h2M4 2h2m1 0h3m1 0h3m1 0h3m1 0h3m1 0h3M5 3h3m1 0h3m1 0h3m1 0h3m1 0h3m1 0h2M4 4h2m7 0h1m1 0h3m1 0h3m1 0h3M5 5h3m1 0h3m1 0h3m1 0h3m1 0h3m1 0h2M4 6h2m6 0h2m1 0h3m1 0h3m1 0h3M5 7h1m1 0h1m1 0h3m1 0h3m1 0h3m1 0h3m1 0h2M4 8h2m9 0h3m1 0h3m1 0h3M5 9h3m1 0h3m1 0h3m1 0h3m1 0h3m1 0h2M4 10h2m1 0h3m1 0h3m1 0h3m1 0h3m1 0h3M5 11h3m1 0h3m1 0h3m1 0h3m1 0h3m1 0h2M4 12h2m18 0h2M5 13h3m1 0h3m1 0h3m1 0h3m1 0h3m1 0h2M4 14h2m17 0h3M5 15h3m1 0h3m1 0h3m1 0h3m1 0h3m1 0h2M4 16h2m18 0h2M5 17h3m1 0h3m1 0h3m1 0h3m1 0h3m1 0h2M4 18h2m17 0h3M5 19h3m1 0h3m1 0h3m1 0h3m1 0h3m1 0h2M4 20h2m18 0h2M5 21h3m1 0h3m1 0h3m1 0h3m1 0h3m1 0h2M4 22h2m17 0h3M5 23h3m1 0h3m1 0h3m1 0h3m1 0h3m1 0h2M4 24h2m18 0h2M5 25h3m1 0h3m1 0h3m1 0h3m1 0h3m1 0h2M4 26h2m17 0h3M5 27h3m1 0h3m1 0h3m1 0h3m1 0h3m1 0h2M4 28h2m1 0h3m1 0h3m1 0h3m1 0h3m1 0h3M5 29h3m1 0h3m1 0h3m1 0h3m1 0h3m1 0h2"/><path stroke="silver" d="M27 1h1m-1 1h1m-1 1h1m-1 1h1m-1 1h1m-1 1h1m-1 1h1m-1 1h1m-1 1h1m-1 1h1m-1 1h1m-1 1h1m-1 1h1m-1 1h1m-1 1h1m-1 1h1m-1 1h1m-1 1h1m-1 1h1m-1 1h1m-1 1h1m-1 1h1m-1 1h1m-1 1h1m-1 1h1m-1 1h1m-1 1h1m-1 1h1m-1 1h1M4 30h24"/><path stroke="maroon" d="M6 4h7M6 6h6M6 8h8"/></svg>