<svg xmlns="http://www.w3.org/2000/svg" width="32" height="32" shape-rendering="crispEdges" viewBox="0 -0.5 32 32"><path stroke="#000" d="M20 1h1m-2 1h1m1 0h1m-2 1h2m0 1h3m0 1h1m-1 1h1M5 7h2m1 0h2m1 0h2m1 0h2m1 0h2m1 0h2m3 0h1M3 8h2m1 0h2m1 0h2m1 0h2m1 0h2m1 0h2m1 0h4M2 9h1m-1 1h1m-2 1h29M0 12h1m29 0h1M0 13h1m29 0h1M0 14h1m2 0h9m1 0h7m1 0h7m2 0h1M0 15h1m2 0h1m1 0h1m1 0h1m1 0h1m1 0h1m1 0h1m1 0h1m1 0h1m1 0h1m1 0h1m1 0h1m1 0h1m1 0h1m2 0h1M0 16h1m2 0h9m1 0h7m1 0h7m2 0h1M0 17h1m29 0h1M0 18h1m2 0h19m1 0h5m2 0h1M0 19h1m2 0h1m1 0h1m1 0h1m1 0h1m1 0h1m1 0h1m1 0h1m1 0h1m1 0h1m1 0h1m1 0h1m1 0h1m1 0h1m2 0h1M0 20h1m2 0h19m1 0h5m2 0h1M0 21h1m2 0h1m2 0h1m1 0h1m1 0h1m1 0h1m1 0h1m1 0h1m1 0h1m2 0h1m1 0h1m1 0h1m1 0h1m2 0h1M0 22h1m2 0h19m1 0h5m2 0h1M0 23h1m2 0h1m3 0h1m9 0h1m3 0h1m1 0h1m3 0h1m2 0h1M0 24h1m2 0h19m1 0h5m2 0h1M0 25h1m29 0h1M0 26h1m29 0h1M1 27h29"/><path stroke="#fff" d="M20 2h1M1 12h29M1 13h29M1 14h2m9 0h1m7 0h1m7 0h2M1 15h2m1 0h1m1 0h1m1 0h1m1 0h1m1 0h1m1 0h1m1 0h1m1 0h1m1 0h1m1 0h1m1 0h1m1 0h1m1 0h2M1 16h2m9 0h1m7 0h1m7 0h2M1 17h29M1 18h2m19 0h1m5 0h2M1 19h2m1 0h1m1 0h1m1 0h1m1 0h1m1 0h1m1 0h1m1 0h1m1 0h1m1 0h1m1 0h1m1 0h1m1 0h1m1 0h2M1 20h2m19 0h1m5 0h2M1 21h2m1 0h2m1 0h1m1 0h1m1 0h1m1 0h1m1 0h1m1 0h1m1 0h2m1 0h1m1 0h1m1 0h1m1 0h2M1 22h2m19 0h1m5 0h2M1 23h2m1 0h3m1 0h9m1 0h3m1 0h1m1 0h3m1 0h2M1 24h2m19 0h1m5 0h2M1 25h29M1 26h29"/></svg>