<svg xmlns="http://www.w3.org/2000/svg" width="32" height="32" shape-rendering="crispEdges" viewBox="0 -0.5 32 32"><path stroke="gray" d="M4 0h9M3 1h1m9 0h1M2 2h1m11 0h1M1 3h1m13 0h1M0 4h1m15 0h14M0 5h1M0 6h1M0 7h1M0 8h1M0 9h1m-1 1h1m-1 1h1m-1 1h1m-1 1h1m9 0h1m1 0h1M0 14h1m15 0h1m5 0h1M0 15h1m-1 1h1m10 0h1M0 17h1m18 0h2M0 18h1m7 0h1m5 0h1m3 0h1m1 0h1M0 19h1m16 0h1m2 0h1M0 20h1m6 0h1m7 0h1m1 0h1m2 0h1M0 21h10m7 0h1m2 0h1M0 22h1m16 0h2m1 0h2M0 23h1m-1 1h1m-1 1h1m-1 1h1m-1 1h1m-1 1h1m-1 1h1m-1 1h1"/><path stroke="#fff" d="M4 1h9M3 2h1M2 3h1M1 5h29M1 6h1M1 7h1M1 8h1M1 9h1m-1 1h1m-1 1h1m-1 1h1m-1 1h1m-1 1h1m-1 1h1m-1 1h1m-1 1h1m-1 1h1m-1 1h1m-1 1h1m-1 2h9m-9 1h3m4 0h2m-9 1h4m3 0h2m-9 1h3m4 0h2m-9 1h2m3 0h1m1 0h2m-9 1h2m2 0h5m-9 1h2m1 0h6m-9 1h3m1 0h5m-9 1h9"/><path stroke="#ff0" d="M4 2h1m1 0h1m1 0h1m1 0h1m1 0h1M3 3h1m1 0h1m1 0h1m1 0h1m1 0h1m1 0h1M2 6h1m1 0h1m1 0h1m1 0h1m1 0h1m1 0h1m1 0h1m1 0h1m1 0h1m1 0h1m1 0h1m1 0h1m1 0h1m1 0h1M3 7h1m1 0h1m1 0h1m1 0h1m1 0h1m1 0h1m1 0h1m1 0h1m1 0h1m3 0h1m1 0h1m1 0h1m1 0h1M2 8h1m1 0h1m1 0h1m1 0h1m1 0h1m1 0h1m1 0h1m1 0h1m1 0h1m3 0h1m1 0h1m1 0h1m1 0h1M3 9h1m1 0h1m1 0h1m1 0h1m1 0h1m1 0h1m1 0h1m1 0h1m5 0h1m1 0h1m1 0h1m1 0h1M2 10h1m1 0h1m1 0h1m1 0h1m1 0h1m1 0h1m1 0h1m1 0h1m7 0h1m1 0h1m1 0h1M3 11h1m1 0h1m1 0h1m1 0h1m1 0h1m1 0h1m1 0h1m3 0h1m3 0h1m1 0h1m1 0h1m1 0h1M2 12h1m1 0h1m1 0h1m1 0h1m1 0h1m1 0h1m1 0h1m9 0h1m1 0h1m1 0h1M3 13h1m1 0h1m1 0h1m1 0h1m3 0h1m9 0h1m1 0h1m1 0h1m1 0h1M2 14h1m1 0h1m1 0h1m1 0h1m9 0h1m5 0h1m1 0h1m1 0h1M3 15h1m1 0h1m1 0h1m9 0h1m5 0h1m1 0h1m1 0h1m1 0h1M2 16h1m1 0h1m1 0h1m1 0h1m5 0h1m3 0h1m5 0h1m1 0h1m1 0h1M3 17h1m1 0h1m1 0h1m3 0h1m3 0h1m1 0h1m3 0h1m1 0h1m1 0h1m1 0h1m1 0h1M2 18h1m1 0h1m1 0h1m9 0h1m5 0h1m1 0h1m1 0h1m1 0h1M3 19h1m1 0h1m1 0h1m11 0h1m3 0h1m1 0h1m1 0h1m1 0h1M2 20h1m1 0h1m1 0h1m5 0h1m3 0h1m2 0h1m2 0h1m1 0h1m1 0h1m1 0h1m-18 1h1m7 0h1m3 0h1m1 0h1m1 0h1m1 0h1m-18 1h1m11 0h1m1 0h1m1 0h1m-18 1h1m1 0h1m1 0h1m1 0h1m1 0h1m3 0h1m1 0h1m1 0h1m1 0h1m-18 1h1m1 0h1m1 0h1m1 0h1m1 0h1m1 0h1m1 0h1m1 0h1m1 0h1"/><path stroke="silver" d="M5 2h1m1 0h1m1 0h1m1 0h1m1 0h1M4 3h1m1 0h1m1 0h1m1 0h1m1 0h1m1 0h1M1 4h15M3 6h1m1 0h1m1 0h1m1 0h1m1 0h1m1 0h1m1 0h1m1 0h1m1 0h1m1 0h1m1 0h1m1 0h1m1 0h1m1 0h1M2 7h1m1 0h1m1 0h1m1 0h1m1 0h1m1 0h1m1 0h1m1 0h1m1 0h1m1 0h1m1 0h1m1 0h1m1 0h1m1 0h1M3 8h1m1 0h1m1 0h1m1 0h1m1 0h1m1 0h1m1 0h1m1 0h1m1 0h1m3 0h1m1 0h1m1 0h1m1 0h1M2 9h1m1 0h1m1 0h1m1 0h1m1 0h1m1 0h1m1 0h1m1 0h1m1 0h1m3 0h1m1 0h1m1 0h1m1 0h1M3 10h1m1 0h1m1 0h1m1 0h1m1 0h1m1 0h1m1 0h1m1 0h1m4 0h2m1 0h1m1 0h1m1 0h1M2 11h1m1 0h1m1 0h1m1 0h1m1 0h1m1 0h1m1 0h1m1 0h1m5 0h1m1 0h1m1 0h1m1 0h1M3 12h1m1 0h1m1 0h1m1 0h1m3 0h1m1 0h1m6 0h2m1 0h1m1 0h1m1 0h1M2 13h1m1 0h1m1 0h1m1 0h1m5 0h1m7 0h1m1 0h1m1 0h1m1 0h1M3 14h1m1 0h1m1 0h1m1 0h1m3 0h1m3 0h1m1 0h1m3 0h1m1 0h1m1 0h1m1 0h1M2 15h1m1 0h1m1 0h1m1 0h2m3 0h1m4 0h1m5 0h1m1 0h1m1 0h1M3 16h1m1 0h1m1 0h1m7 0h3m1 0h5m1 0h1m1 0h1m1 0h1M2 17h1m1 0h1m1 0h1m1 0h1m5 0h1m1 0h1m1 0h1m3 0h1m1 0h1m1 0h1m1 0h1M3 18h1m1 0h1m1 0h1m7 0h1m1 0h1m5 0h1m1 0h1m1 0h1m1 0h1M2 19h1m1 0h1m1 0h1m8 0h2m5 0h1m1 0h1m1 0h1m1 0h1M3 20h1m1 0h1m4 0h2m11 0h1m1 0h1m1 0h1m1 0h1m-18 1h1m3 0h1m5 0h1m1 0h1m1 0h1m1 0h1m-18 1h1m1 0h4m6 0h1m1 0h1m1 0h1m1 0h1m-18 1h1m1 0h1m1 0h1m5 0h1m1 0h1m1 0h1m1 0h1m-18 1h1m1 0h1m1 0h1m1 0h1m1 0h1m1 0h1m1 0h1m1 0h1m1 0h1m1 0h1"/><path stroke="#000" d="M30 5h1m0 1h1m-1 1h1m-1 1h1m-1 1h1m-1 1h1m-1 1h1m-1 1h1m-15 1h3m11 0h1m-1 1h1m-18 1h3m4 0h2m8 0h1m-1 1h1m-1 1h1m-13 1h1m1 0h1m9 0h1m-22 1h3m5 0h1m2 0h1m9 0h1m-14 1h1m2 0h1m9 0h1m-22 1h1m2 0h3m2 0h1m2 0h1m9 0h1m-22 1h1m8 0h1m2 0h1m8 0h1M4 23h4m2 0h1m7 0h1m1 0h2m9 0h1M5 24h3m2 0h1m20 0h1M4 25h4m2 0h1m20 0h1M3 26h3m1 0h1m2 0h21M3 27h2m5 0h1m-8 1h1m6 0h1m-7 1h1m5 0h1m-1 1h1M0 31h11"/><path stroke="olive" d="M30 6h1m-1 1h1m-1 1h1m-1 1h1m-1 1h1m-1 1h1m-1 1h1m-1 1h1m-1 1h1m-1 1h1m-1 1h1m-1 1h1m-1 1h1m-1 1h1m-1 1h1m-1 1h1m-1 1h1m-1 1h1m-1 1h1m-20 1h20"/><path stroke="navy" d="M21 7h1m-2 1h2m-3 1h1m1 0h1m-4 1h1m2 0h1m-5 1h1m3 0h1m-6 1h1m4 0h1m-7 1h1m5 0h1m-8 1h1m6 0h1m-3 1h2"/><path stroke="#00f" d="M20 9h1m-2 1h2m-3 1h1m1 0h1m-4 1h4m-5 1h1m3 0h1m-6 1h1m4 0h1"/><path stroke="maroon" d="M11 12h1m-1 1h1m-2 1h1m1 0h1m-3 1h1m1 0h1m-4 1h1m3 0h1m-5 1h1m3 0h1m-6 2h1m5 0h1m-6 1h1m3 0h1"/><path stroke="red" d="M11 14h1m-1 1h1m-2 1h1m1 0h1m-3 1h1m1 0h1m-4 1h5m-5 1h1m3 0h1m-6 1h1m5 0h1"/></svg>