<svg xmlns="http://www.w3.org/2000/svg" viewBox="0 -0.5 32 32" shape-rendering="crispEdges">
<path stroke="#808080" d="M0 0h1M14 4h4M14 5h1M14 6h1M14 7h1M14 8h1M14 9h1M14 10h1M14 11h1M14 12h1M14 13h1M14 14h1M14 15h1M14 16h1M14 17h1M14 18h1M14 19h1M14 20h1M14 21h1M14 22h1M14 23h1M14 24h1M14 25h1M14 26h1" />
<path stroke="#0000ff" d="M0 0h1M8 5h1M24 5h1M11 8h1M21 8h1M4 9h1M28 9h1M7 10h1M12 10h1M20 10h1M25 10h1M10 12h1M22 12h1M12 13h1M20 13h1M2 15h1M7 15h1M10 15h1M12 15h1M20 15h1M22 15h1M25 15h1M30 15h1M12 17h1M20 17h1M10 18h1M22 18h1M12 20h1M20 20h1M7 21h1M25 21h1M10 22h1M22 22h1M4 23h1M28 23h1M7 26h1M25 26h1" />
<path stroke="#ffffff" d="M0 0h1M15 5h1M15 6h1M15 7h1M15 8h1M15 9h1M15 10h1M15 11h1M15 12h1M15 13h1M15 14h1M15 15h1M15 16h1M15 17h1M15 18h1M15 19h1M15 20h1M15 21h1M15 22h1M15 23h1M15 24h1M15 25h1M15 26h1" />
<path stroke="#c0c0c0" d="M0 0h1M16 5h1M16 6h1M16 7h1M16 8h1M16 9h1M16 10h1M16 11h1M16 12h1M16 13h1M16 14h1M16 15h1M16 16h1M16 17h1M16 18h1M16 19h1M16 20h1M16 21h1M16 22h1M16 23h1M16 24h1M16 25h1M16 26h1" />
<path stroke="#000000" d="M0 0h1M17 5h1M17 6h1M17 7h1M17 8h1M17 9h1M17 10h1M17 11h1M17 12h1M17 13h1M17 14h1M17 15h1M17 16h1M17 17h1M17 18h1M17 19h1M17 20h1M17 21h1M17 22h1M17 23h1M17 24h1M17 25h1M17 26h1M14 27h4" />
</svg>