<svg xmlns="http://www.w3.org/2000/svg" viewBox="0 -0.5 32 32" shape-rendering="crispEdges">
<path stroke="#808080" d="M0 0h1M8 1h6M8 2h1M3 4h1M11 4h1M18 4h2M2 5h1M18 5h1M1 6h1M4 7h1M18 7h1M7 10h1M15 10h1M7 18h1M15 18h1M20 19h1M20 20h1M19 21h1M21 21h1M17 22h1M19 22h1M21 22h1M16 23h1M18 23h1M22 23h1M16 24h1M18 24h1M22 24h1M15 25h1M17 25h1M23 25h1M15 26h1M14 27h1M16 27h1M14 28h1M16 28h1M24 28h1M13 29h1M15 29h1M24 29h1M11 30h1M22 30h1M11 31h1M22 31h1" />
<path stroke="#000000" d="M0 0h1M14 1h1M10 2h1M12 2h1M14 2h1M9 3h5M4 4h1M10 4h1M12 4h1M4 5h1M20 5h1M4 6h2M17 6h2M21 6h1M1 7h3M19 7h3M3 8h1M9 8h5M18 8h2M7 9h2M14 9h2M19 9h1M6 10h1M19 10h1M6 11h1M20 11h1M5 12h1M20 12h1M5 13h1M20 13h1M5 14h1M20 14h1M5 15h1M20 15h1M22 15h1M5 16h1M20 16h1M23 16h1M6 17h1M23 17h1M6 18h1M19 18h1M24 18h1M24 19h1M18 20h1M25 20h1M5 21h1M17 21h1M25 21h1M6 22h2M15 22h2M26 22h1M8 23h7M26 23h1M27 24h1M27 25h1M28 26h1M17 27h7M28 27h1M29 28h1M29 29h1M18 30h1M31 30h1M12 31h7M23 31h9" />
<path stroke="#ffffff" d="M0 0h1M9 2h1M11 2h1M13 2h1M3 5h1M19 5h1M2 6h1M20 6h1M10 9h3M8 10h3M12 10h3M7 11h4M12 11h4M7 12h4M12 12h4M6 13h5M12 13h5M6 14h5M12 14h5M6 15h5M12 15h5M7 16h9M7 17h9M8 18h7M10 19h3" />
<path stroke="#800000" d="M0 0h1M8 5h7M6 6h2M15 6h2M5 7h1M9 7h5M17 7h1M4 8h1M7 8h2M14 8h2M3 9h1M6 9h1M16 9h1M18 9h1M3 10h1M5 10h1M16 10h1M2 11h1M5 11h1M16 11h1M19 11h1M2 12h1M4 12h1M17 12h1M19 12h1M2 13h1M4 13h1M17 13h1M19 13h1M2 14h1M4 14h1M17 14h1M19 14h1M2 15h1M4 15h1M17 15h1M19 15h1M2 16h1M4 16h1M17 16h1M19 16h1M2 17h1M5 17h1M16 17h1M19 17h1M3 18h1M5 18h1M16 18h1M18 18h1M3 19h1M7 19h2M14 19h2M18 19h1M4 20h1M9 20h5M17 20h1M6 21h1M15 21h2M8 22h7" />
<path stroke="#c0c0c0" d="M0 0h1M3 6h1M19 6h1M9 9h1M13 9h1M6 12h1M16 12h1M6 16h1M16 16h1M9 19h1M13 19h1" />
<path stroke="#ff0000" d="M0 0h1M8 6h7M6 7h3M14 7h3M5 8h2M16 8h2M4 9h2M17 9h1M4 10h1M17 10h2M3 11h2M17 11h2M3 12h1M18 12h1M3 13h1M18 13h1M3 14h1M18 14h1M3 15h1M18 15h1M3 16h1M18 16h1M3 17h2M17 17h2M4 18h1M17 18h1M4 19h3M16 19h2M5 20h4M14 20h3M7 21h8" />
<path stroke="#0000ff" d="M0 0h1M11 10h1M11 11h1M11 12h1M11 13h1M11 14h1M11 15h1" />
<path stroke="#000080" d="M0 0h1M21 15h1M21 16h2M20 17h3M20 18h4M19 19h1M21 19h3M19 20h1M21 20h4M18 21h1M22 21h3M18 22h1M22 22h4M17 23h1M23 23h3M17 24h1M23 24h4M16 25h1M24 25h3M16 26h12M15 27h1M24 27h4M15 28h1M25 28h4M14 29h1M25 29h4M12 30h6M23 30h8" />
</svg>