<svg xmlns="http://www.w3.org/2000/svg" viewBox="0 -0.5 32 32" shape-rendering="crispEdges">
<path stroke="#808080" d="M0 0h1M20 0h1M19 1h1M18 2h1M22 4h1M25 6h1M5 7h1M8 7h1M11 7h1M14 7h1M17 7h1M20 7h1M25 7h1M3 8h1M24 8h1M2 9h1M2 10h1M1 11h30M0 12h1M30 12h1M0 13h1M2 13h29M0 14h1M2 14h1M30 14h1M0 15h1M2 15h1M30 15h1M0 16h1M2 16h1M30 16h1M0 17h1M2 17h1M30 17h1M0 18h1M2 18h1M30 18h1M0 19h1M2 19h1M30 19h1M0 20h1M2 20h1M30 20h1M0 21h1M2 21h1M30 21h1M0 22h1M2 22h1M30 22h1M0 23h1M2 23h1M30 23h1M0 24h1M2 24h1M30 24h1M0 25h1M2 25h1M30 25h1M0 26h31" />
<path stroke="#ffff00" d="M0 0h1M20 1h1M19 2h1" />
<path stroke="#000000" d="M0 0h1M21 1h1M21 2h1M19 3h3M23 4h2M25 5h1M6 7h1M9 7h1M12 7h1M15 7h1M18 7h1M21 7h1M4 8h1M6 8h2M9 8h2M12 8h2M15 8h2M18 8h2M21 8h3M31 12h1M31 13h1M5 14h1M8 14h1M11 14h1M14 14h1M17 14h1M20 14h1M23 14h1M26 14h1M29 14h1M31 14h1M5 15h1M8 15h1M11 15h1M14 15h1M17 15h1M20 15h1M23 15h1M26 15h1M29 15h1M31 15h1M3 16h27M31 16h1M7 17h1M10 17h1M13 17h1M16 17h1M19 17h1M22 17h1M25 17h1M29 17h1M31 17h1M7 18h1M10 18h1M13 18h1M16 18h1M19 18h1M22 18h1M25 18h1M29 18h1M31 18h1M3 19h27M31 19h1M5 20h1M8 20h1M11 20h1M14 20h1M17 20h1M20 20h1M23 20h1M29 20h1M31 20h1M5 21h1M8 21h1M11 21h1M14 21h1M17 21h1M20 21h1M23 21h1M29 21h1M31 21h1M3 22h27M31 22h1M7 23h1M10 23h1M22 23h1M25 23h1M29 23h1M31 23h1M7 24h1M10 24h1M22 24h1M25 24h1M29 24h1M31 24h1M3 25h27M31 25h1M31 26h1M1 27h30" />
<path stroke="#808000" d="M0 0h1M20 2h1" />
<path stroke="#ffffff" d="M0 0h1M1 12h29M1 13h1M1 14h1M3 14h1M6 14h1M9 14h1M12 14h1M15 14h1M18 14h1M21 14h1M24 14h1M27 14h1M1 15h1M1 16h1M1 17h1M3 17h3M8 17h1M11 17h1M14 17h1M17 17h1M20 17h1M23 17h1M26 17h1M1 18h1M1 19h1M1 20h1M3 20h2M6 20h1M9 20h1M12 20h1M15 20h1M18 20h1M21 20h1M24 20h4M1 21h1M1 22h1M1 23h1M3 23h3M8 23h1M11 23h10M23 23h1M26 23h2M1 24h1M1 25h1" />
<path stroke="#c0c0c0" d="M0 0h1M4 14h1M7 14h1M10 14h1M13 14h1M16 14h1M19 14h1M22 14h1M25 14h1M28 14h1M3 15h2M6 15h2M9 15h2M12 15h2M15 15h2M18 15h2M21 15h2M24 15h2M27 15h2M6 17h1M9 17h1M12 17h1M15 17h1M18 17h1M21 17h1M24 17h1M27 17h2M3 18h4M8 18h2M11 18h2M14 18h2M17 18h2M20 18h2M23 18h2M26 18h3M7 20h1M10 20h1M13 20h1M16 20h1M19 20h1M22 20h1M28 20h1M3 21h2M6 21h2M9 21h2M12 21h2M15 21h2M18 21h2M21 21h2M24 21h5M6 23h1M9 23h1M21 23h1M24 23h1M28 23h1M3 24h4M8 24h2M11 24h11M23 24h2M26 24h3" />
</svg>