<svg xmlns="http://www.w3.org/2000/svg" width="32" height="32" shape-rendering="crispEdges" viewBox="0 -0.5 32 32"><path stroke="gray" d="M20 0h1m-2 1h1m-2 1h1m3 2h1m2 2h1M5 7h1m2 0h1m2 0h1m2 0h1m2 0h1m2 0h1m4 0h1M3 8h1m20 0h1M2 9h1m-1 1h1m-2 1h30M0 12h1m29 0h1M0 13h1m1 0h29M0 14h1m1 0h1m27 0h1M0 15h1m1 0h1m27 0h1M0 16h1m1 0h1m27 0h1M0 17h1m1 0h1m27 0h1M0 18h1m1 0h1m27 0h1M0 19h1m1 0h1m27 0h1M0 20h1m1 0h1m27 0h1M0 21h1m1 0h1m27 0h1M0 22h1m1 0h1m27 0h1M0 23h1m1 0h1m27 0h1M0 24h1m1 0h1m27 0h1M0 25h1m1 0h1m27 0h1M0 26h31"/><path stroke="#ff0" d="M20 1h1m-2 1h1"/><path stroke="#000" d="M21 1h1m-1 1h1m-3 1h3m1 1h2m0 1h1M6 7h1m2 0h1m2 0h1m2 0h1m2 0h1m2 0h1M4 8h1m1 0h2m1 0h2m1 0h2m1 0h2m1 0h2m1 0h3m7 4h1m-1 1h1M5 14h1m2 0h1m2 0h1m2 0h1m2 0h1m2 0h1m2 0h1m2 0h1m2 0h1m1 0h1M5 15h1m2 0h1m2 0h1m2 0h1m2 0h1m2 0h1m2 0h1m2 0h1m2 0h1m1 0h1M3 16h27m1 0h1M7 17h1m2 0h1m2 0h1m2 0h1m2 0h1m2 0h1m2 0h1m3 0h1m1 0h1M7 18h1m2 0h1m2 0h1m2 0h1m2 0h1m2 0h1m2 0h1m3 0h1m1 0h1M3 19h27m1 0h1M5 20h1m2 0h1m2 0h1m2 0h1m2 0h1m2 0h1m2 0h1m5 0h1m1 0h1M5 21h1m2 0h1m2 0h1m2 0h1m2 0h1m2 0h1m2 0h1m5 0h1m1 0h1M3 22h27m1 0h1M7 23h1m2 0h1m11 0h1m2 0h1m3 0h1m1 0h1M7 24h1m2 0h1m11 0h1m2 0h1m3 0h1m1 0h1M3 25h27m1 0h1m-1 1h1M1 27h30"/><path stroke="olive" d="M20 2h1"/><path stroke="#fff" d="M1 12h29M1 13h1m-1 1h1m1 0h1m2 0h1m2 0h1m2 0h1m2 0h1m2 0h1m2 0h1m2 0h1m2 0h1M1 15h1m-1 1h1m-1 1h1m1 0h3m2 0h1m2 0h1m2 0h1m2 0h1m2 0h1m2 0h1m2 0h1M1 18h1m-1 1h1m-1 1h1m1 0h2m1 0h1m2 0h1m2 0h1m2 0h1m2 0h1m2 0h1m2 0h4M1 21h1m-1 1h1m-1 1h1m1 0h3m2 0h1m2 0h10m2 0h1m2 0h2M1 24h1m-1 1h1"/><path stroke="silver" d="M4 14h1m2 0h1m2 0h1m2 0h1m2 0h1m2 0h1m2 0h1m2 0h1m2 0h1M3 15h2m1 0h2m1 0h2m1 0h2m1 0h2m1 0h2m1 0h2m1 0h2m1 0h2M6 17h1m2 0h1m2 0h1m2 0h1m2 0h1m2 0h1m2 0h1m2 0h2M3 18h4m1 0h2m1 0h2m1 0h2m1 0h2m1 0h2m1 0h2m1 0h3M7 20h1m2 0h1m2 0h1m2 0h1m2 0h1m2 0h1m5 0h1M3 21h2m1 0h2m1 0h2m1 0h2m1 0h2m1 0h2m1 0h2m1 0h5M6 23h1m2 0h1m11 0h1m2 0h1m3 0h1M3 24h4m1 0h2m1 0h11m1 0h2m1 0h3"/></svg>