<svg xmlns="http://www.w3.org/2000/svg" viewBox="0 -0.5 16 16" shape-rendering="crispEdges">
<path stroke="#808080" d="M0 0h1M2 0h5M1 1h1M7 1h1M0 2h1M8 2h6M0 3h1M13 3h1M0 4h1M8 4h2M13 4h1M0 5h1M7 5h1M13 5h1M0 6h1M6 6h1M13 6h1M0 7h1M4 7h2M9 7h1M13 7h1M0 8h1M4 8h1M7 8h3M13 8h1M0 9h6M7 9h1M13 9h1M0 10h1M13 10h1M0 11h1M7 11h7M0 12h1M3 12h1M0 13h1M0 14h1" />
<path stroke="#ffff00" d="M0 0h1M2 1h1M4 1h1M6 1h1M1 2h1M3 2h1M5 2h1M7 2h1M2 4h1M4 4h1M6 4h1M10 4h1M12 4h1M3 5h1M5 5h1M11 5h1M2 6h1M4 6h1M10 6h1M12 6h1M3 7h1M11 7h1M2 8h1M12 8h1M11 9h1M8 10h1M10 10h1M12 10h1" />
<path stroke="#c0c0c0" d="M0 0h1M3 1h1M5 1h1M2 2h1M4 2h1M6 2h1M3 4h1M5 4h1M7 4h1M11 4h1M2 5h1M4 5h1M6 5h1M12 5h1M3 6h1M5 6h1M11 6h1M2 7h1M12 7h1M3 8h1M11 8h1M10 9h1M12 9h1M9 10h1M11 10h1" />
<path stroke="#ffffff" d="M0 0h1M1 3h12M1 4h1M1 5h1M8 5h2M1 6h1M7 6h2M1 7h1M1 8h1M5 8h2M1 10h5M1 11h2M5 11h1M1 12h1M5 12h1M1 13h1M3 13h3M1 14h5" />
<path stroke="#000000" d="M0 0h1M14 3h1M14 4h1M10 5h1M14 5h1M9 6h1M14 6h1M8 7h1M10 7h1M14 7h1M10 8h1M14 8h1M6 9h1M8 9h2M14 9h1M6 10h2M14 10h1M3 11h2M6 11h1M14 11h1M2 12h1M4 12h1M6 12h9M2 13h1M6 13h1M6 14h1M0 15h7" />
<path stroke="#00ff00" d="M0 0h1M6 7h1" />
<path stroke="#ff0000" d="M0 0h1M7 7h1" />
</svg>