<svg xmlns="http://www.w3.org/2000/svg" viewBox="0 -0.5 32 32" shape-rendering="crispEdges">
<path stroke="#808080" d="M0 0h1M17 3h1M12 4h1M17 4h2M21 4h1M7 5h1M12 5h2M17 5h1M19 5h1M21 5h2M7 6h2M12 6h1M14 6h1M17 6h1M20 6h2M23 6h1M3 7h1M7 7h1M9 7h1M12 7h1M15 7h1M17 7h1M21 7h1M24 7h1M3 8h2M7 8h1M10 8h1M12 8h1M16 8h2M22 8h1M25 8h1M3 9h1M5 9h1M7 9h1M11 9h2M17 9h1M23 9h1M26 9h1M3 10h1M6 10h2M12 10h1M18 10h1M24 10h1M27 10h1M0 11h1M3 11h1M7 11h1M13 11h1M19 11h1M25 11h1M28 11h1M0 12h2M3 12h1M8 12h1M14 12h1M20 12h1M26 12h1M29 12h1M0 13h1M2 13h2M9 13h1M15 13h1M21 13h1M23 13h5M30 13h1M0 14h1M3 14h1M10 14h1M16 14h1M18 14h5M0 15h1M4 15h1M11 15h1M13 15h5M21 15h1M25 15h1M0 16h1M5 16h1M12 16h1M16 16h1M21 16h1M26 16h1M0 17h1M6 17h1M9 17h5M16 17h1M22 17h1M26 17h1M0 18h1M7 18h1M11 18h1M17 18h1M22 18h1M27 18h1M0 19h1M8 19h1M12 19h1M17 19h1M23 19h1M27 19h1M0 20h1M9 20h1M12 20h1M18 20h1M23 20h1M28 20h1M0 21h1M6 21h4M13 21h1M18 21h1M28 21h1M0 22h1M3 22h1M8 22h1M13 22h1M0 23h1M2 23h1M4 23h1M9 23h1M0 24h2M4 24h1M9 24h1M0 25h1M5 25h1M5 26h1M6 27h1M6 28h1" />
<path stroke="#c0c0c0" d="M0 0h1M18 5h1M13 6h1M19 6h1M22 6h1M8 7h1M14 7h1M20 7h1M23 7h1M9 8h1M15 8h1M18 8h1M21 8h1M24 8h1M4 9h1M10 9h1M13 9h1M16 9h1M18 9h2M22 9h1M25 9h1M5 10h1M11 10h1M13 10h2M17 10h1M19 10h2M23 10h1M26 10h1M6 11h1M8 11h1M12 11h1M14 11h2M18 11h1M20 11h2M24 11h1M27 11h1M7 12h1M9 12h1M13 12h1M15 12h2M19 12h1M21 12h2M25 12h1M28 12h1M1 13h1M8 13h1M10 13h1M14 13h1M16 13h2M20 13h1M22 13h1M29 13h1M2 14h1M4 14h1M9 14h1M11 14h1M15 14h1M17 14h1M27 14h1M3 15h1M5 15h1M10 15h1M12 15h1M23 15h1M27 15h1M4 16h1M6 16h1M11 16h1M18 16h1M23 16h1M28 16h1M5 17h1M7 17h1M18 17h1M24 17h1M28 17h1M6 18h1M8 18h1M13 18h1M19 18h1M24 18h1M29 18h1M7 19h1M14 19h1M19 19h1M25 19h1M29 19h1M8 20h1M14 20h1M20 20h1M24 20h2M30 20h1M5 21h1M15 21h1M19 21h2M29 21h2M5 22h1M10 22h1M14 22h2M6 23h1M11 23h1M6 24h1M10 24h2M7 25h1M7 26h1M8 27h1M7 28h2" />
<path stroke="#ffffff" d="M0 0h1M18 6h1M13 7h1M18 7h2M22 7h1M8 8h1M13 8h2M19 8h2M23 8h1M8 9h2M14 9h2M20 9h2M24 9h1M4 10h1M8 10h3M15 10h2M21 10h2M25 10h1M4 11h2M9 11h3M16 11h2M22 11h2M26 11h1M4 12h3M10 12h3M17 12h2M23 12h2M27 12h1M4 13h4M11 13h3M18 13h2M28 13h1M1 14h1M5 14h4M12 14h3M24 14h3M1 15h2M6 15h4M22 15h1M26 15h1M1 16h3M7 16h4M17 16h1M22 16h1M27 16h1M1 17h4M8 17h1M17 17h1M23 17h1M27 17h1M1 18h5M12 18h1M18 18h1M23 18h1M28 18h1M1 19h6M9 19h1M13 19h1M18 19h1M24 19h1M28 19h1M1 20h7M13 20h1M19 20h1M29 20h1M1 21h4M14 21h1M1 22h2M4 22h1M9 22h1M1 23h1M5 23h1M10 23h1M5 24h1M6 25h1M6 26h1M7 27h1" />
<path stroke="#000000" d="M0 0h1M23 14h1M28 14h4M18 15h1M24 15h1M28 15h1M13 16h1M19 16h1M24 16h1M29 16h1M14 17h1M19 17h1M25 17h1M29 17h1M9 18h1M14 18h1M20 18h1M25 18h1M30 18h1M10 19h1M15 19h1M20 19h1M26 19h1M30 19h1M10 20h1M15 20h1M21 20h1M26 20h1M31 20h1M10 21h2M16 21h1M21 21h1M24 21h2M31 21h1M6 22h1M11 22h1M16 22h1M19 22h2M29 22h2M7 23h1M12 23h1M14 23h2M7 24h1M12 24h1M8 25h1M10 25h2M8 26h1M9 27h1M9 28h1M7 29h2" />
</svg>