<svg xmlns="http://www.w3.org/2000/svg" viewBox="0 -0.5 32 32" shape-rendering="crispEdges">
<path stroke="#808080" d="M0 0h1M3 0h5M2 1h1M1 2h1M2 3h1M2 4h1M3 5h2M5 6h2M10 6h8M7 7h3M11 7h1M17 7h1M6 8h2M12 8h2M19 8h1M6 9h1M14 9h1M5 10h1M12 10h2M21 10h1M4 11h1M11 11h1M22 11h1M3 12h1M10 12h1M23 12h1M3 13h1M9 13h1M24 13h1M3 14h1M8 14h1M25 14h1M3 15h1M7 15h1M26 15h1M3 16h1M4 17h1M27 17h1M5 18h1M27 18h1M6 19h1M28 19h1M7 20h1M28 20h1M8 21h1M28 21h1M9 22h1M28 22h1M9 23h1M28 23h1M10 24h1M27 24h2M10 25h1M27 25h2M11 26h1M26 26h2M12 27h1M25 27h3M12 28h1M23 28h4M13 29h1M21 29h5M14 30h10" />
<path stroke="#000000" d="M0 0h1M3 1h5M2 2h1M1 3h1M1 4h1M2 5h1M3 6h2M5 7h2M18 7h2M20 8h1M15 9h7M22 10h1M23 11h1M24 12h1M25 13h1M26 14h1M27 15h1M27 16h1M28 17h1M28 18h1M29 19h1M29 20h1M29 21h1M29 22h1M29 23h1M29 24h1M29 25h1M28 26h1M28 27h1M27 28h1M26 29h1M24 30h2M16 31h8" />
<path stroke="#ffffff" d="M0 0h1M10 7h1M8 8h4M7 9h7M6 10h6M14 10h2M5 11h6M12 11h7M20 11h1M4 12h6M11 12h2M14 12h6M21 12h1M5 13h4M10 13h2M13 13h8M22 13h1M6 14h2M9 14h2M12 14h9M8 15h2M11 15h12M4 16h1M9 16h13M23 16h1M5 17h1M10 17h13M6 18h1M11 18h11M23 18h1M7 19h1M12 19h11M8 20h1M12 20h10M23 20h1M9 21h1M13 21h10M10 22h1M13 22h9M10 23h1M13 23h8M22 23h1M11 24h1M14 24h8M11 25h1M14 25h6M12 26h1M14 26h5M20 26h1M13 27h1M15 27h3M19 27h1M13 28h1M14 29h1" />
<path stroke="#c0c0c0" d="M0 0h1M12 7h5M14 8h5M16 10h5M19 11h1M21 11h1M20 12h1M22 12h1M4 13h1M21 13h1M23 13h1M4 14h2M21 14h4M4 15h3M23 15h3M5 16h4M22 16h1M24 16h3M6 17h4M23 17h4M7 18h4M22 18h1M24 18h3M8 19h4M23 19h5M9 20h3M22 20h1M24 20h4M10 21h3M23 21h5M11 22h2M22 22h6M11 23h2M21 23h1M23 23h5M12 24h2M22 24h5M12 25h2M20 25h7M13 26h1M19 26h1M21 26h5M14 27h1M18 27h1M20 27h5M14 28h9M15 29h6" />
<path stroke="#000080" d="M0 0h1M13 12h1M12 13h1M11 14h1M10 15h1" />
</svg>