<svg xmlns="http://www.w3.org/2000/svg" width="16" height="16" shape-rendering="crispEdges" viewBox="0 -0.5 16 16"><path stroke="gray" d="M2 0h5M1 1h1m5 0h1M0 2h1m7 0h6M0 3h1m12 0h1M0 4h1m12 0h1M0 5h1m12 0h1M0 6h1m12 0h1M0 7h1m12 0h1M0 8h1m12 0h1M0 9h6m7 0h1M0 10h1m12 0h1M0 11h1m6 0h7M0 12h1m2 0h1m-4 1h1m-1 1h1"/><path stroke="#ff0" d="M2 1h1m1 0h1m1 0h1M1 2h1m1 0h1m1 0h1m1 0h1M2 4h1m1 0h1m1 0h1m1 0h1m1 0h1m1 0h1M3 5h1m1 0h1m1 0h1m3 0h1M2 6h1m1 0h1m1 0h1m1 0h1m1 0h1m1 0h1M3 7h1m1 0h1m5 0h1M2 8h1m1 0h1m1 0h1m1 0h1m1 0h1m1 0h1M7 9h1m3 0h1m-4 1h1m1 0h1m1 0h1"/><path stroke="silver" d="M3 1h1m1 0h1M2 2h1m1 0h1m1 0h1M3 4h1m1 0h1m1 0h1m3 0h1M2 5h1m1 0h1m1 0h1m3 0h1m1 0h1M3 6h1m1 0h1m5 0h1M2 7h1m1 0h1m5 0h1m1 0h1M3 8h1m3 0h1m3 0h1m0 1h1m-6 1h1m1 0h1m1 0h1"/><path stroke="#fff" d="M1 3h12M1 4h1M1 5h1M1 6h1M1 7h1M1 8h1m-1 2h5m-5 1h2m2 0h1m-5 1h1m3 0h1m-5 1h1m1 0h3m-5 1h5"/><path stroke="#000" d="M14 3h1m-1 1h1m-1 1h1m-1 1h1m-1 1h1m-1 1h1M6 9h1m7 0h1m-9 1h1m7 0h1M3 11h2m1 0h1m7 0h1M2 12h1m1 0h1m1 0h9M2 13h1m3 0h1m-1 1h1m-7 1h7"/><path stroke="#00f" d="M9 4h1M8 5h2M7 6h1m1 0h1M6 7h4M5 8h1m3 0h1M8 9h3"/></svg>