<svg xmlns="http://www.w3.org/2000/svg" viewBox="0 -0.5 32 32" shape-rendering="crispEdges">
<path stroke="#808080" d="M0 0h1M2 3h1M2 4h2M17 4h2M20 4h1M22 4h1M24 4h1M26 4h1M29 4h1M2 5h1M4 5h1M2 6h1M5 6h1M2 7h1M6 7h1M2 8h1M7 8h1M20 8h2M23 8h1M25 8h1M29 8h1M2 9h1M8 9h1M2 10h1M9 10h1M2 11h1M10 11h1M2 12h1M11 12h1M23 12h2M26 12h1M29 12h1M2 13h1M12 13h1M2 14h1M13 14h1M2 15h1M14 15h1M2 16h1M15 16h1M25 16h1M27 16h1M29 16h1M2 17h1M2 18h1M2 19h1M6 19h2M2 20h1M5 20h1M7 20h1M19 20h3M23 20h1M25 20h1M27 20h1M29 20h1M2 21h1M4 21h1M8 21h1M2 22h2M8 22h1M2 23h1M9 23h1M9 24h1M21 24h1M24 24h1M26 24h1M29 24h1M10 25h1M10 26h1M11 27h1M11 28h1M23 28h2M27 28h1M29 28h1" />
<path stroke="#000000" d="M0 0h1M7 4h7M15 4h2M10 8h8M19 8h1M14 12h7M22 12h1M18 16h6M10 17h7M10 18h1M11 19h1M11 20h1M14 20h3M18 20h1M12 21h1M12 22h1M13 23h1M13 24h1M16 24h3M20 24h1M14 25h1M14 26h1M15 27h1M15 28h1M18 28h3M22 28h1M12 29h3" />
<path stroke="#c0c0c0" d="M0 0h1M3 5h1M4 6h1M5 7h1M6 8h1M7 9h1M8 10h1M9 11h1M10 12h1M11 13h1M12 14h1M13 15h1M9 16h6M9 17h1M9 18h1M10 19h1M10 20h1M11 21h1M11 22h1M12 23h1M12 24h1M13 25h1M13 26h1M14 27h1M12 28h3" />
<path stroke="#ffffff" d="M0 0h1M3 6h1M3 7h2M3 8h3M3 9h4M3 10h5M3 11h6M3 12h7M3 13h8M3 14h9M3 15h10M3 16h6M3 17h6M3 18h6M3 19h3M8 19h2M3 20h2M8 20h2M3 21h1M9 21h2M9 22h2M10 23h2M10 24h2M11 25h2M11 26h2M12 27h2" />
</svg>