<svg xmlns="http://www.w3.org/2000/svg" width="16" height="16" shape-rendering="crispEdges" viewBox="0 -0.5 16 16"><path stroke="gray" d="M2 0h5M1 1h1m5 0h1M0 2h1m7 0h6M0 3h1m12 0h1M0 4h1m7 0h2m3 0h1M0 5h1m6 0h1m5 0h1M0 6h1m5 0h1m6 0h1M0 7h1m3 0h2m3 0h1m3 0h1M0 8h1m3 0h1m2 0h3m3 0h1M0 9h6m1 0h1m5 0h1M0 10h1m12 0h1M0 11h1m6 0h7M0 12h1m2 0h1m-4 1h1m-1 1h1"/><path stroke="#ff0" d="M2 1h1m1 0h1m1 0h1M1 2h1m1 0h1m1 0h1m1 0h1M2 4h1m1 0h1m1 0h1m3 0h1m1 0h1M3 5h1m1 0h1m5 0h1M2 6h1m1 0h1m5 0h1m1 0h1M3 7h1m7 0h1M2 8h1m9 0h1m-2 1h1m-4 1h1m1 0h1m1 0h1"/><path stroke="silver" d="M3 1h1m1 0h1M2 2h1m1 0h1m1 0h1M3 4h1m1 0h1m1 0h1m3 0h1M2 5h1m1 0h1m1 0h1m5 0h1M3 6h1m1 0h1m5 0h1M2 7h1m9 0h1M3 8h1m7 0h1m-2 1h1m1 0h1m-4 1h1m1 0h1"/><path stroke="#fff" d="M1 3h12M1 4h1M1 5h1m6 0h2M1 6h1m5 0h2M1 7h1M1 8h1m3 0h2m-6 2h5m-5 1h2m2 0h1m-5 1h1m3 0h1m-5 1h1m1 0h3m-5 1h5"/><path stroke="#000" d="M14 3h1m-1 1h1m-5 1h1m3 0h1M9 6h1m4 0h1M8 7h1m1 0h1m3 0h1m-5 1h1m3 0h1M6 9h1m1 0h2m4 0h1m-9 1h2m6 0h1M3 11h2m1 0h1m7 0h1M2 12h1m1 0h1m1 0h9M2 13h1m3 0h1m-1 1h1m-7 1h7"/><path stroke="#0f0" d="M6 7h1"/><path stroke="red" d="M7 7h1"/></svg>