<svg xmlns="http://www.w3.org/2000/svg" width="32" height="32" shape-rendering="crispEdges" viewBox="0 -0.5 32 32"><path stroke="gray" d="M17 3h1m-6 1h1m4 0h2m2 0h1M7 5h1m4 0h2m3 0h1m1 0h1m1 0h2M7 6h2m3 0h1m1 0h1m2 0h1m2 0h2m1 0h1M3 7h1m3 0h1m1 0h1m2 0h1m2 0h1m1 0h1m3 0h1m2 0h1M3 8h2m2 0h1m2 0h1m1 0h1m3 0h2m4 0h1m2 0h1M3 9h1m1 0h1m1 0h1m3 0h2m4 0h1m5 0h1m2 0h1M3 10h1m2 0h2m4 0h1m5 0h1m5 0h1m2 0h1M0 11h1m2 0h1m3 0h1m5 0h1m5 0h1m5 0h1m2 0h1M0 12h2m1 0h1m4 0h1m5 0h1m5 0h1m5 0h1m2 0h1M0 13h1m1 0h2m5 0h1m5 0h1m5 0h1m1 0h5m2 0h1M0 14h1m2 0h1m6 0h1m5 0h1m1 0h5M0 15h1m3 0h1m6 0h1m1 0h5m3 0h1m3 0h1M0 16h1m4 0h1m6 0h1m3 0h1m4 0h1m4 0h1M0 17h1m5 0h1m2 0h5m2 0h1m5 0h1m3 0h1M0 18h1m6 0h1m3 0h1m5 0h1m4 0h1m4 0h1M0 19h1m7 0h1m3 0h1m4 0h1m5 0h1m3 0h1M0 20h1m8 0h1m2 0h1m5 0h1m4 0h1m4 0h1M0 21h1m5 0h4m3 0h1m4 0h1m9 0h1M0 22h1m2 0h1m4 0h1m4 0h1M0 23h1m1 0h1m1 0h1m4 0h1M0 24h2m2 0h1m4 0h1M0 25h1m4 0h1m-1 1h1m0 1h1m-1 1h1"/><path stroke="silver" d="M18 5h1m-6 1h1m5 0h1m2 0h1M8 7h1m5 0h1m5 0h1m2 0h1M9 8h1m5 0h1m2 0h1m2 0h1m2 0h1M4 9h1m5 0h1m2 0h1m2 0h1m1 0h2m2 0h1m2 0h1M5 10h1m5 0h1m1 0h2m2 0h1m1 0h2m2 0h1m2 0h1M6 11h1m1 0h1m3 0h1m1 0h2m2 0h1m1 0h2m2 0h1m2 0h1M7 12h1m1 0h1m3 0h1m1 0h2m2 0h1m1 0h2m2 0h1m2 0h1M1 13h1m6 0h1m1 0h1m3 0h1m1 0h2m2 0h1m1 0h1m6 0h1M2 14h1m1 0h1m4 0h1m1 0h1m3 0h1m1 0h1m9 0h1M3 15h1m1 0h1m4 0h1m1 0h1m10 0h1m3 0h1M4 16h1m1 0h1m4 0h1m6 0h1m4 0h1m4 0h1M5 17h1m1 0h1m10 0h1m5 0h1m3 0h1M6 18h1m1 0h1m4 0h1m5 0h1m4 0h1m4 0h1M7 19h1m6 0h1m4 0h1m5 0h1m3 0h1M8 20h1m5 0h1m5 0h1m3 0h2m4 0h1M5 21h1m9 0h1m3 0h2m8 0h2M5 22h1m4 0h1m3 0h2M6 23h1m4 0h1m-6 1h1m3 0h2m-5 1h1m-1 1h1m0 1h1m-2 1h2"/><path stroke="#fff" d="M18 6h1m-6 1h1m4 0h2m2 0h1M8 8h1m4 0h2m4 0h2m2 0h1M8 9h2m4 0h2m4 0h2m2 0h1M4 10h1m3 0h3m4 0h2m4 0h2m2 0h1M4 11h2m3 0h3m4 0h2m4 0h2m2 0h1M4 12h3m3 0h3m4 0h2m4 0h2m2 0h1M4 13h4m3 0h3m4 0h2m8 0h1M1 14h1m3 0h4m3 0h3m9 0h3M1 15h2m3 0h4m12 0h1m3 0h1M1 16h3m3 0h4m6 0h1m4 0h1m4 0h1M1 17h4m3 0h1m8 0h1m5 0h1m3 0h1M1 18h5m6 0h1m5 0h1m4 0h1m4 0h1M1 19h6m2 0h1m3 0h1m4 0h1m5 0h1m3 0h1M1 20h7m5 0h1m5 0h1m9 0h1M1 21h4m9 0h1M1 22h2m1 0h1m4 0h1m-9 1h1m3 0h1m4 0h1m-6 1h1m0 1h1m-1 1h1m0 1h1"/><path stroke="#000" d="M23 14h1m4 0h4m-14 1h1m5 0h1m3 0h1m-16 1h1m5 0h1m4 0h1m4 0h1m-16 1h1m4 0h1m5 0h1m3 0h1M9 18h1m4 0h1m5 0h1m4 0h1m4 0h1m-21 1h1m4 0h1m4 0h1m5 0h1m3 0h1m-21 1h1m4 0h1m5 0h1m4 0h1m4 0h1m-22 1h2m4 0h1m4 0h1m2 0h2m5 0h1M6 22h1m4 0h1m4 0h1m2 0h2m8 0h2M7 23h1m4 0h1m1 0h2m-9 1h1m4 0h1m-5 1h1m1 0h2m-4 1h1m0 1h1m-1 1h1m-3 1h2"/></svg>