<svg xmlns="http://www.w3.org/2000/svg" width="32" height="32" shape-rendering="crispEdges" viewBox="0 -0.5 32 32"><path stroke="gray" d="M4 0h9M3 1h1m9 0h1M2 2h1m11 0h1M1 3h1m13 0h1M0 4h1m15 0h14M0 5h1M0 6h1M0 7h1m17 0h3M0 8h1m16 0h1m3 0h2M0 9h1m14 0h2M0 10h1m12 0h3M0 11h1m10 0h2m2 0h1M0 12h1m8 0h2m11 0h2M0 13h1m6 0h2m15 0h1M0 14h1m6 0h1m14 0h3M0 15h1m6 0h1m12 0h5M0 16h1m6 0h1m10 0h7M0 17h1m15 0h8M0 18h1m7 0h1m7 0h6M0 19h1m15 0h4m2 0h2M0 20h1m15 0h2m2 0h2M0 21h10m8 0h2M0 22h1m15 0h2M0 23h1m-1 1h1m-1 1h1m-1 1h1m-1 1h1m-1 1h1m-1 1h1m-1 1h1"/><path stroke="#fff" d="M4 1h9M3 2h1M2 3h1M1 5h29M1 6h1M1 7h1M1 8h1m16 0h3M1 9h1m15 0h6M1 10h1m14 0h6M1 11h1m11 0h1m2 0h5M1 12h1m9 0h1m6 0h2M1 13h1m-1 1h1m7 0h2M1 15h1m6 0h1m2 0h2M1 16h1m6 0h1m4 0h2M1 17h1m13 0h1M1 18h1m-1 1h1m-1 1h1m-1 2h9m-9 1h3m4 0h2m-9 1h4m3 0h2m-9 1h3m4 0h2m-9 1h2m3 0h1m1 0h2m-9 1h2m2 0h5m-9 1h2m1 0h6m-9 1h3m1 0h5m-9 1h9"/><path stroke="#ff0" d="M4 2h1m1 0h1m1 0h1m1 0h1m1 0h1M3 3h1m1 0h1m1 0h1m1 0h1m1 0h1m1 0h1M2 6h1m1 0h1m1 0h1m1 0h1m1 0h1m1 0h1m1 0h1m1 0h1m1 0h1m1 0h1m1 0h1m1 0h1m1 0h1m1 0h1M3 7h1m1 0h1m1 0h1m1 0h1m1 0h1m1 0h1m1 0h1m1 0h1m3 0h1m1 0h1m1 0h1m1 0h1m1 0h1M2 8h1m1 0h1m1 0h1m1 0h1m1 0h1m1 0h1m1 0h1m1 0h1m7 0h1m1 0h1m1 0h1M3 9h1m1 0h1m1 0h1m1 0h1m1 0h1m1 0h1m13 0h1m1 0h1M2 10h1m1 0h1m1 0h1m1 0h1m1 0h1m1 0h1m11 0h1m1 0h1m1 0h1M3 11h1m1 0h1m1 0h1m1 0h1m13 0h1m1 0h1m1 0h1m1 0h1M2 12h1m1 0h1m1 0h1m1 0h1m15 0h1m1 0h1m1 0h1M3 13h1m1 0h1m21 0h1m1 0h1M2 14h1m1 0h1m1 0h1m19 0h1m1 0h1M3 15h1m1 0h1m21 0h1m1 0h1M2 16h1m1 0h1m1 0h1m19 0h1m1 0h1M3 17h1m1 0h1m21 0h1m1 0h1M2 18h1m1 0h1m1 0h1m19 0h1m1 0h1M3 19h1m1 0h1m1 0h1m17 0h1m1 0h1m1 0h1M2 20h1m1 0h1m1 0h1m1 0h1m15 0h1m1 0h1m1 0h1m-6 1h1m1 0h1m1 0h1m1 0h1m-18 1h1m7 0h1m1 0h1m1 0h1m1 0h1m1 0h1m-18 1h1m1 0h1m5 0h1m1 0h1m1 0h1m1 0h1m1 0h1m1 0h1m-18 1h1m1 0h1m1 0h1m1 0h1m1 0h1m1 0h1m1 0h1m1 0h1m1 0h1"/><path stroke="silver" d="M5 2h1m1 0h1m1 0h1m1 0h1m1 0h1M4 3h1m1 0h1m1 0h1m1 0h1m1 0h1m1 0h1M1 4h15M3 6h1m1 0h1m1 0h1m1 0h1m1 0h1m1 0h1m1 0h1m1 0h1m1 0h1m1 0h1m1 0h1m1 0h1m1 0h1m1 0h1M2 7h1m1 0h1m1 0h1m1 0h1m1 0h1m1 0h1m1 0h1m1 0h1m5 0h1m1 0h1m1 0h1m1 0h1M3 8h1m1 0h1m1 0h1m1 0h1m1 0h1m1 0h1m1 0h1m7 0h1m1 0h1m1 0h1m1 0h1M2 9h1m1 0h1m1 0h1m1 0h1m1 0h1m1 0h1m1 0h1m11 0h1m1 0h1M3 10h1m1 0h1m1 0h1m1 0h1m1 0h1m11 0h1m1 0h1m1 0h1m1 0h1M2 11h1m1 0h1m1 0h1m1 0h1m1 0h1m3 0h1m7 0h1m1 0h1m1 0h1m1 0h1M3 12h1m1 0h1m1 0h1m4 0h6m3 0h1m3 0h1m1 0h1m1 0h1M2 13h1m1 0h1m1 0h1m2 0h3m2 0h6m1 0h3m2 0h1m1 0h1M3 14h1m1 0h1m2 0h1m2 0h3m2 0h6m5 0h1m1 0h1M2 15h1m1 0h1m1 0h1m2 0h2m2 0h7m6 0h1m1 0h1M3 16h1m1 0h1m3 0h4m2 0h3m9 0h1m1 0h1M2 17h1m1 0h1m1 0h1m2 0h6m11 0h1m1 0h1M3 18h1m1 0h1m1 0h1m3 0h5m9 0h1m1 0h1m1 0h1M2 19h1m1 0h1m1 0h1m2 0h2m2 0h3m10 0h1m1 0h1M3 20h1m1 0h1m1 0h1m3 0h2m2 0h1m9 0h1m1 0h1m1 0h1m-17 1h2m7 0h1m1 0h1m1 0h1m1 0h1m-18 1h1m3 0h1m5 0h1m1 0h1m1 0h1m1 0h1m1 0h1m-18 1h1m1 0h1m3 0h1m1 0h1m1 0h1m1 0h1m1 0h1m1 0h1m-18 1h1m1 0h1m1 0h1m1 0h1m1 0h1m1 0h1m1 0h1m1 0h1m1 0h1m1 0h1"/><path stroke="#000" d="M30 5h1m0 1h1m-1 1h1m-1 1h1m-9 1h3m5 0h1m-10 1h1m8 0h1m-11 1h1m9 0h1m-12 1h1m10 0h1m-12 1h1m4 0h1m5 0h1m-7 1h1m5 0h1m-7 1h1m5 0h1m-7 1h1m5 0h1M7 17h2m15 0h2m5 0h1M9 18h2m11 0h3m6 0h1M8 19h1m2 0h2m7 0h2m2 0h1m6 0h1M9 20h2m2 0h2m3 0h2m2 0h2m7 0h1m-22 1h3m2 0h3m2 0h2m9 0h1m-22 1h1m2 0h2m3 0h2m11 0h1M4 23h4m2 0h1m4 0h3m13 0h1M5 24h3m2 0h1m20 0h1M4 25h4m2 0h1m20 0h1M3 26h3m1 0h1m2 0h21M3 27h2m5 0h1m-8 1h1m6 0h1m-7 1h1m5 0h1m-1 1h1M0 31h11"/><path stroke="olive" d="M30 6h1m-1 1h1m-1 1h1m-1 1h1m-1 1h1m-1 1h1m-1 1h1m-1 1h1m-1 1h1m-1 1h1m-1 1h1m-1 1h1m-1 1h1m-1 1h1m-1 1h1m-1 1h1m-1 1h1m-1 1h1m-1 1h1m-20 1h20"/><path stroke="#0f0" d="M12 13h2"/><path stroke="red" d="M14 14h2"/></svg>