<svg xmlns="http://www.w3.org/2000/svg" width="32" height="32" shape-rendering="crispEdges" viewBox="0 -0.5 32 32"><path stroke="gray" d="M20 0h5m-6 1h1m4 0h1m-9 1h4m4 0h1M13 3h3m3 0h1m2 0h3m1 0h2M7 4h1m4 0h1m2 0h2m8 0h5M17 5h3m8 1h1m1 0h1m-2 1h1m-2 1h1m1 0h1M5 9h1m4 0h1m4 0h2m12 0h1M4 10h1m4 0h1m6 0h1m11 0h1m1 0h1M3 11h1m11 0h2m12 0h1M3 12h1m10 0h2m12 0h1m1 0h1M4 13h11m14 0h1M4 14h1m9 0h2m12 0h1m1 0h1M4 15h1m2 0h5m2 0h2m13 0h1M4 16h1m9 0h2m12 0h1m1 0h1M4 17h1m2 0h5m2 0h1m14 0h1M5 18h1m7 0h2m13 0h1m1 0h1M6 19h1m6 0h1m15 0h1m-2 1h1m1 0h1M8 21h1m2 0h2m16 0h1M8 22h1m19 0h1m1 0h1M9 23h3m17 0h1M9 24h1m1 0h1m16 0h1m1 0h1M9 25h1m1 0h1m17 0h1M9 26h1m1 0h1m14 0h1m1 0h1m1 0h1M1 27h2m5 0h1m1 0h1m16 0h1m1 0h1M0 28h1m2 0h5m1 0h2m15 0h1m1 0h1M0 29h3m5 0h2m17 0h1M2 30h6m10 0h1m1 0h1m1 0h1m1 0h1m1 0h1"/><path stroke="#fff" d="M20 1h3m-3 1h1m-1 1h1m-7 1h1m15 0h1m-3 1h2M17 6h11m-13 4h1m-2 1h1M4 12h10m-9 2h1m1 0h5m-7 1h1m-1 1h1m1 0h5m-7 1h1m0 1h1m9 0h1M7 19h1m7 0h1m0 1h1m-2 1h1m0 1h1m-2 1h1m-6 1h1m5 0h1m-7 1h1m4 0h1m-6 1h1m5 0h1m-8 1h1m5 0h1M1 28h2m5 0h1m7 0h1M3 29h5m7 0h1"/><path stroke="silver" d="M23 1h1m-3 1h3m-8 1h3m2 0h1m-5 1h3m-6 1h3m3 0h8m2 0h1M14 6h3m12 0h1M14 7h15m1 0h1M14 8h7m2 0h5m1 0h1M17 9h4m2 0h6m1 0h1M5 10h1m1 0h1m2 0h1m1 0h1m1 0h1m3 0h1m6 0h3m1 0h1M4 11h2m2 0h3m2 0h1m4 0h1m6 0h4m1 0h1m-14 1h4m2 0h5m1 0h1m-13 1h4m2 0h6m1 0h1M6 14h1m5 0h2m3 0h11m1 0h1M6 15h1m5 0h2m3 0h12M6 16h1m5 0h2m3 0h11m1 0h1M6 17h1m5 0h2m2 0h12M7 18h6m5 0h1m1 0h1m1 0h1m1 0h1m1 0h1M8 19h5m4 0h1m1 0h1m1 0h1m1 0h1m1 0h1m1 0h1m-14 1h1m3 0h1m1 0h1m1 0h1m1 0h1m1 0h1M9 21h2m6 0h1m1 0h1m1 0h1m1 0h1m1 0h1m1 0h1m-14 1h1m3 0h1m1 0h1m1 0h1m1 0h1m1 0h1m-14 1h1m3 0h1m1 0h1m1 0h1m1 0h1m1 0h1m1 0h1m-14 1h1m3 0h1m1 0h1m1 0h1m1 0h1m1 0h1m-14 1h1m3 0h1m1 0h1m1 0h1m1 0h1m1 0h1m1 0h1m-14 1h1m-2 1h1m3 0h1m1 0h1m1 0h1m1 0h1m1 0h1m-12 1h1m3 0h1m1 0h1m1 0h1m1 0h1m-8 1h1m1 0h1m1 0h1m1 0h1m1 0h1"/><path stroke="#000" d="M25 2h3m-3 1h1m2 0h3M8 4h1m4 0h1m6 0h5m6 0h1M8 5h1m4 0h1m17 0h1M8 6h1m4 0h1m17 0h1M8 7h1m4 0h1m17 0h1M8 8h1m4 0h1m17 0h1M8 9h2m3 0h2m16 0h1M8 10h1m4 0h1m3 0h1m13 0h1M7 11h1m4 0h1m4 0h1m13 0h1m-16 1h1m14 0h1m-17 1h2m14 0h1m-16 1h1m14 0h1m-16 1h1m14 0h1m-16 1h1m14 0h1m-17 1h1m15 0h1m-17 1h1m15 0h1m-18 1h1m16 0h1M7 20h7m17 0h1m-19 1h1m17 0h1M9 22h4m18 0h1m-20 1h1m18 0h1m-20 1h1m18 0h1m-20 1h1m18 0h1m-20 1h1m18 0h1m-21 1h1m19 0h1m-21 1h1m18 0h1m-21 1h1m18 0h1M0 30h2m6 0h2m17 0h2M2 31h6m9 0h10"/><path stroke="olive" d="M6 5h1m4 0h1M6 6h1m4 0h1M6 7h1m4 0h1M6 8h1m4 0h1M6 9h1m4 0h1m-6 1h1m4 0h1m-6 1h1m4 0h1m0 16h1m0 1h1m0 1h1m0 1h2"/><path stroke="#ff0" d="M7 5h1m4 0h1M7 6h1m4 0h1M7 7h1m4 0h1M7 8h1m4 0h1M7 9h1m4 0h1m17 6h1m-3 2h1m1 0h1m-14 1h1m1 0h1m1 0h1m1 0h1m1 0h1m1 0h1m1 0h1m-14 1h1m1 0h1m1 0h1m1 0h1m1 0h1m1 0h1m1 0h1m1 0h1m-16 1h1m1 0h1m1 0h1m1 0h1m1 0h1m1 0h1m1 0h1m1 0h1m-16 1h1m1 0h1m1 0h1m1 0h1m1 0h1m1 0h1m1 0h1m1 0h1m1 0h1m-18 1h1m1 0h1m1 0h1m1 0h1m1 0h1m1 0h1m1 0h1m1 0h1m1 0h1m-16 1h1m1 0h1m1 0h1m1 0h1m1 0h1m1 0h1m1 0h1m1 0h1m1 0h1m-18 1h1m1 0h1m1 0h1m1 0h1m1 0h1m1 0h1m1 0h1m1 0h1m1 0h1m-16 1h1m1 0h1m1 0h1m1 0h1m1 0h1m1 0h1m1 0h1m1 0h1m1 0h1m-18 1h1m1 0h1m1 0h1m7 0h1m1 0h1m1 0h1m-16 1h1m1 0h1m1 0h1m1 0h1m1 0h1m1 0h1m1 0h1m1 0h1m1 0h1m-16 1h1m1 0h1m1 0h1m1 0h1m1 0h1m1 0h1m1 0h1m1 0h1m-14 1h1m1 0h1m1 0h1m1 0h1m1 0h1m1 0h1m1 0h1m-12 1h1m1 0h1m1 0h1m1 0h1m1 0h1"/><path stroke="red" d="M21 8h2m-2 1h2m-4 1h6m-6 1h6m-4 1h2m-2 1h2m-5 13h7"/></svg>