<svg xmlns="http://www.w3.org/2000/svg" width="48" height="48" shape-rendering="crispEdges" viewBox="0 -0.5 48 48"><path stroke="gray" d="M14 0h2m6 0h9M11 1h2m1 0h1m1 0h2m2 0h2m9 0h3M8 2h2m1 0h1m1 0h2m3 0h2m14 0h2M8 3h1m1 0h2m3 0h2m3 0h2m14 0h2M8 4h1m3 0h2m3 0h2m3 0h2m14 0h1M8 5h1m5 0h2m3 0h2m3 0h2m13 0h1M8 6h1m7 0h2m3 0h2m3 0h2M8 7h1m9 0h2m3 0h2m3 0h2M8 8h1m11 0h2m3 0h2m3 0h2M8 9h1m13 0h2m3 0h2m3 0h1M8 10h1m15 0h2m3 0h1m2 0h1M7 11h2m17 0h1m2 0h1m2 0h1M7 12h2m20 0h1m2 0h1M6 13h1m1 0h1m20 0h1m2 0h1M6 14h1m1 0h1m20 0h1m2 0h1M6 15h1m1 0h1m20 0h1m2 0h1M6 16h1m1 0h1m20 0h1m2 0h1M5 17h1m2 0h1m20 0h1m2 0h1M5 18h1m2 0h1m20 0h1m2 0h1M5 19h1m2 0h1m20 0h1m2 0h1M5 20h1m2 0h1m20 0h1m2 0h1M5 21h1m2 0h1m20 0h1m2 0h1M5 22h4m20 0h1m2 0h1M4 23h2m2 0h1m20 0h1m2 0h1M2 24h2m2 0h3m20 0h1m2 0h1m1 0h1M0 25h2m2 0h5m20 0h1m2 0h1m2 0h2M0 26h1m3 0h5m20 0h1m2 0h1m4 0h2M0 27h1m5 0h3m20 0h1m2 0h1M0 28h1m6 0h2m20 0h1m1 0h2m4 0h2M0 29h1m6 0h2m20 0h1m5 0h4M0 30h1m6 0h2m19 0h1m4 0h6M0 31h1m6 0h2m22 0h8M0 32h1m7 0h1m20 0h10M0 33h1m7 0h1m18 0h12M0 34h1m7 0h1m16 0h14M0 35h1m22 0h16M0 36h1m20 0h18m-18 1h18m-18 1h18m-18 1h16m-16 1h14m-14 1h12m-12 1h10m-10 1h8m-8 1h6m-6 1h4m-4 1h2"/><path stroke="silver" d="M15 1h1m6 0h3m1 0h1m1 0h1M12 2h1m3 0h2m2 0h2m1 0h1m1 0h1m1 0h1m1 0h3M9 3h1m3 0h2m3 0h2m2 0h1m1 0h1m1 0h1M10 4h2m3 0h2m3 0h2M12 5h2m3 0h2m3 0h2M11 6h1m2 0h2m3 0h2m3 0h2M13 7h1m2 0h2m3 0h2m3 0h2M18 8h2m3 0h2m3 0h2M20 9h2m3 0h2m3 0h2m-10 1h2m3 0h2m2 0h1m-8 1h2m2 0h1m2 0h1m-21 1h1m14 0h1m1 0h1m2 0h1m-19 1h1m12 0h1m1 0h1m2 0h1M7 14h1m18 0h1m1 0h1m2 0h1M7 15h1m18 0h1m1 0h1m2 0h1m-6 1h1m1 0h1m2 0h1M6 17h2m18 0h1m1 0h1m2 0h1M6 18h1m19 0h1m1 0h1m2 0h1M7 19h1m18 0h1m1 0h1m2 0h1M6 20h1m19 0h1m1 0h1m2 0h1M6 21h1m19 0h1m1 0h1m2 0h1m-6 1h1m1 0h1m2 0h1m-6 1h1m1 0h1m2 0h1m-6 1h1m1 0h1m2 0h1m-6 1h1m1 0h1m2 0h1M2 26h2m22 0h1m1 0h1m2 0h1M4 27h2m20 0h1m1 0h1m2 0h1M2 28h2m2 0h1m19 0h1m1 0h1M2 29h3m1 0h1m19 0h1m1 0h1M2 30h3m1 0h1m19 0h1M2 31h3m1 0h1m19 0h1M2 32h4m1 0h1m8 0h2m7 0h2M2 33h4m1 0h1m7 0h1m2 0h2m3 0h2M2 34h4m1 0h1m7 0h1m1 0h1m2 0h3M2 35h5m1 0h1m5 0h1m1 0h4M2 36h5m2 0h2m3 0h1m1 0h5M2 37h7m2 0h3m1 0h6M4 38h7m2 0h1m1 0h6M6 39h7m1 0h7M8 40h13m-11 1h11m-9 1h9m-7 1h7m-5 1h5m-3 1h3m-1 1h1"/><path stroke="teal" d="M25 1h1m1 0h1m1 0h2m-9 1h1m4 1h1m0 1h1m5 7h1m0 4h2m-2 1h1M7 18h1m-2 1h1m0 1h1m-1 1h1"/><path stroke="#fff" d="M15 2h1m8 0h1m3 0h1M12 3h1m4 0h1m7 0h1M9 4h1m4 0h1m4 0h1m4 0h1M9 5h3m4 0h1m4 0h1M9 6h1m2 0h2m4 0h1m4 0h1M9 7h1m4 0h2m4 0h1m4 0h1M9 8h1m5 0h3m4 0h1m4 0h1M9 9h1m5 0h5m4 0h1m4 0h1M9 10h1m5 0h7m4 0h1M9 11h1m5 0h9M9 12h2m4 0h11M7 13h1m1 0h4m2 0h11M9 14h17M9 15h8m1 0h8M7 16h1m1 0h8m1 0h8M9 17h8m1 0h8M9 18h8m1 0h1m1 0h6M9 19h8m1 0h1m1 0h1m1 0h4M9 20h8m1 0h1m1 0h1m1 0h4M9 21h8m1 0h1m1 0h1m1 0h4M9 22h8m1 0h1m1 0h1m1 0h4M6 23h2m1 0h8m1 0h1m1 0h1m1 0h4M4 24h2m3 0h8m1 0h1m1 0h1m1 0h4M2 25h2m5 0h8m1 0h1m1 0h1m1 0h4M1 26h1m7 0h8m1 0h1m1 0h1m1 0h4M1 27h3m5 0h1m1 0h6m1 0h1m1 0h1m1 0h4m11 0h2M1 28h1m2 0h2m3 0h1m1 0h1m1 0h4m1 0h1m1 0h1m1 0h4m9 0h2M1 29h1m3 0h1m3 0h1m1 0h1m1 0h4m1 0h1m1 0h1m1 0h4m7 0h2M1 30h1m3 0h1m3 0h1m1 0h1m1 0h6m1 0h1m1 0h4m5 0h2M1 31h1m3 0h1m3 0h1m1 0h1m1 0h8m1 0h4m3 0h2M1 32h1m4 0h1m2 0h1m1 0h1m1 0h3m2 0h7m2 0h2M1 33h1m4 0h1m2 0h1m1 0h1m1 0h2m1 0h2m2 0h3m2 0h2M1 34h1m4 0h1m2 0h1m1 0h1m1 0h2m1 0h1m1 0h2m3 0h2M1 35h1m5 0h1m1 0h3m1 0h1m1 0h1m4 0h3M1 36h1m5 0h2m2 0h3m1 0h1m-7 1h2m3 0h1m-4 1h2m1 0h1m-2 1h1"/><path stroke="green" d="M26 2h1m5 0h2M23 3h1m4 0h8M25 4h3m3 0h7M26 5h2m2 0h9M28 6h2m1 0h9M30 7h11m-9 1h8m1 0h1m-8 1h7m-7 1h8m-7 1h6m1 0h1m-8 1h7m1 0h1m-9 1h6m1 0h1m1 0h1m-11 1h8m1 0h1m-6 1h3m1 0h1m1 0h1m-6 1h3m1 0h1m1 0h1m-6 1h3m1 0h1m-11 1h1m8 0h1m1 0h1m-12 1h2m8 0h1m-11 1h2m9 0h1m-12 1h3m-3 1h2m-2 1h1"/><path stroke="#00f" d="M29 4h2m-3 1h2m0 1h1m3 6h1m-1 1h1m-18 2h1m16 0h1m2 0h1m-21 1h1m16 0h1m1 0h3m-22 1h1m17 0h5m-23 1h1m1 0h1m16 0h1m1 0h5m-26 1h1m1 0h1m1 0h1m16 0h5m-26 1h1m1 0h1m1 0h1m15 0h4m1 0h1m-26 1h1m1 0h1m1 0h1m15 0h5m-25 1h1m1 0h1m1 0h1m15 0h4m1 0h1m-26 1h1m1 0h1m1 0h1m13 0h5m1 0h1m-25 1h1m1 0h1m1 0h1m13 0h6m1 0h1m-26 1h1m1 0h1m1 0h1m15 0h3m1 0h1m-25 1h1m1 0h1m1 0h1m-12 1h1m6 0h1m1 0h1m1 0h1m-12 1h1m1 0h1m4 0h1m1 0h1m1 0h1m-12 1h1m1 0h1m4 0h1m1 0h1m1 0h1m-12 1h1m1 0h1m6 0h1m1 0h1m-12 1h1m1 0h1m8 0h1m-12 1h1m1 0h1m-3 1h1m1 0h1m-3 1h1m1 0h1m-1 1h1"/><path stroke="maroon" d="M10 6h1m0 1h1m-2 1h1m1 0h1m1 0h1m-4 1h1m1 0h1m-4 1h1m1 0h1m1 0h1m-4 1h1m1 0h1m-2 1h1m1 0h1"/><path stroke="#000" d="M40 6h1m0 1h1m0 1h1M33 9h1m9 0h1m-14 1h1m2 0h1m9 0h1m-17 1h1m2 0h1m2 0h1m10 0h1m-18 1h1m2 0h1m2 0h1m10 0h1m-18 1h1m2 0h1m2 0h1m11 0h1m-19 1h1m2 0h1m2 0h1m11 0h1m-19 1h1m2 0h1m2 0h1m-7 1h1m2 0h1m2 0h1m12 0h1m-20 1h1m2 0h1m2 0h1m12 0h1m-20 1h1m2 0h1m2 0h1m12 0h1m-20 1h1m2 0h1m2 0h1m12 0h1m-20 1h1m2 0h1m2 0h1m12 0h1m-20 1h1m2 0h1m2 0h1m12 0h1m-20 1h1m2 0h1m2 0h1m12 0h1m-20 1h1m2 0h1m2 0h1m12 0h1m-20 1h1m2 0h1m2 0h1m12 0h1m-20 1h1m2 0h1m2 0h2m11 0h1m-20 1h1m2 0h1m2 0h4m8 0h1m-19 1h1m2 0h1m2 0h4m2 0h1m5 0h1m-19 1h1m2 0h1m2 0h2m4 0h1m5 0h1m-19 1h1m2 0h3m6 0h1m4 0h1m-18 1h1m1 0h2m8 0h1m4 0h1m-18 1h2m10 0h1m3 0h1m-5 1h1m3 0h1m-5 1h1m2 0h1m-4 1h1m1 0h1m-3 1h2m-2 1h1M0 37h2m37 0h1M2 38h2m35 0h1M4 39h2m31 0h2M6 40h2m27 0h2M8 41h2m23 0h2m-25 1h2m19 0h2m-21 1h2m15 0h2m-17 1h2m11 0h2m-13 1h2m7 0h2m-9 1h2m3 0h2m-5 1h3"/><path stroke="red" d="M10 7h1m1 0h1m-2 1h1m1 0h1m-4 1h1m1 0h1m1 0h1m-4 1h1m1 0h1m-4 1h1m1 0h1m1 0h1m-2 1h1m0 1h1"/><path stroke="navy" d="M40 8h1m0 1h2m-1 1h1m-2 1h1m1 0h1m-2 1h1m-2 1h1m1 0h1m-2 1h1m1 0h1m-4 1h1m1 0h1m1 0h1m-4 1h1m1 0h1m-11 1h1m8 0h1m1 0h1m-11 1h1m1 0h1m6 0h1m-9 1h2m5 0h1m1 0h1m-10 1h1m4 0h1m1 0h2m-3 1h4m-10 1h1m4 0h1m1 0h3m-6 1h1m1 0h4m-5 1h1m1 0h3m-6 1h1m1 0h4m-7 1h6m-5 1h5m-5 1h5m-5 1h4m-4 1h4m-4 1h3m-3 1h3m-3 1h2m-2 1h1"/></svg>