<svg xmlns="http://www.w3.org/2000/svg" viewBox="0 -0.5 32 32" shape-rendering="crispEdges">
<path stroke="#ffffff" d="M0 0h1M0 0h32M0 1h1M2 1h3M6 1h1M8 1h19M28 1h1M30 1h2M0 2h1M3 2h1M6 2h20M27 2h2M30 2h2M0 3h1M2 3h1M4 3h1M6 3h1M8 3h2M12 3h1M15 3h1M18 3h1M21 3h2M31 3h1M0 4h1M2 4h3M6 4h1M8 4h1M10 4h3M14 4h1M16 4h1M18 4h1M20 4h2M23 4h1M25 4h1M27 4h2M30 4h2M0 5h1M2 5h3M6 5h1M8 5h1M10 5h3M14 5h1M16 5h1M18 5h2M21 5h1M23 5h1M25 5h1M27 5h2M30 5h2M0 6h1M2 6h3M6 6h1M8 6h2M12 6h1M14 6h1M17 6h2M21 6h1M24 6h2M27 6h2M30 6h2M0 7h32M0 9h32M0 11h32M0 13h32M0 15h32M0 17h8M12 17h20M5 18h1M14 18h1M0 19h5M15 19h17M4 20h1M7 20h2M15 20h1M0 21h4M7 21h1M16 21h16M0 23h4M16 23h16M0 25h5M18 25h14M0 27h6M19 27h13M0 29h10M18 29h14M0 31h32" />
<path stroke="#808080" d="M0 0h1M1 1h1M5 1h1M7 1h1M27 1h1M29 1h1M1 2h2M4 2h2M26 2h1M29 2h1M1 3h1M3 3h1M5 3h1M7 3h1M10 3h2M13 3h2M16 3h2M19 3h2M23 3h8M1 4h1M5 4h1M7 4h1M9 4h1M13 4h1M15 4h1M17 4h1M19 4h1M22 4h1M24 4h1M26 4h1M29 4h1M1 5h1M5 5h1M7 5h1M9 5h1M13 5h1M15 5h1M17 5h1M20 5h1M22 5h1M24 5h1M26 5h1M29 5h1M1 6h1M5 6h1M7 6h1M10 6h2M13 6h1M15 6h2M19 6h2M22 6h2M26 6h1M29 6h1M13 20h1M13 21h2M13 22h2M13 23h2M12 24h3M11 25h3M16 25h2M6 26h8M15 26h4M8 27h4M14 27h5M12 28h7M10 29h8M12 30h4" />
<path stroke="#c0c0c0" d="M0 0h1M0 8h32M0 10h32M0 12h32M0 14h32M0 16h32M0 18h5M8 18h4M15 18h17M6 19h8M0 20h4M6 20h1M9 20h4M16 20h16M5 21h2M8 21h5M0 22h4M5 22h8M16 22h16M5 23h8M0 24h4M5 24h7M16 24h16M6 25h5M15 25h1M0 26h5M19 26h13M0 28h8M19 28h13M0 30h12M16 30h16" />
<path stroke="#000000" d="M0 0h1M8 17h4M6 18h2M12 18h2M5 19h1M14 19h1M5 20h1M14 20h1M4 21h1M15 21h1M4 22h1M15 22h1M4 23h1M15 23h1M4 24h1M15 24h1M5 25h1M14 25h1M5 26h1M14 26h1M6 27h2M12 27h2M8 28h4" />
</svg>