<svg xmlns="http://www.w3.org/2000/svg" viewBox="0 -0.5 48 48" shape-rendering="crispEdges">
<path stroke="#808080" d="M0 0h1M14 0h2M22 0h9M11 1h2M14 1h1M16 1h2M20 1h2M31 1h3M8 2h2M11 2h1M13 2h2M18 2h2M34 2h2M8 3h1M10 3h2M15 3h2M20 3h2M36 3h2M8 4h1M12 4h2M17 4h2M22 4h2M38 4h1M8 5h1M14 5h2M19 5h2M24 5h2M39 5h1M8 6h1M16 6h2M21 6h2M26 6h2M8 7h1M18 7h2M23 7h2M28 7h2M8 8h1M20 8h2M25 8h2M30 8h2M8 9h1M22 9h2M27 9h2M32 9h1M8 10h1M24 10h2M29 10h1M32 10h1M7 11h2M26 11h1M29 11h1M32 11h1M7 12h2M29 12h1M32 12h1M6 13h1M8 13h1M29 13h1M32 13h1M6 14h1M8 14h1M29 14h1M32 14h1M6 15h1M8 15h1M29 15h1M32 15h1M6 16h1M8 16h1M29 16h1M32 16h1M5 17h1M8 17h1M29 17h1M32 17h1M5 18h1M8 18h1M29 18h1M32 18h1M5 19h1M8 19h1M29 19h1M32 19h1M5 20h1M8 20h1M29 20h1M32 20h1M5 21h1M8 21h1M29 21h1M32 21h1M5 22h4M29 22h1M32 22h1M4 23h2M8 23h1M29 23h1M32 23h1M2 24h2M6 24h3M29 24h1M32 24h1M34 24h1M0 25h2M4 25h5M29 25h1M32 25h1M35 25h2M0 26h1M4 26h5M29 26h1M32 26h1M37 26h2M0 27h1M6 27h3M29 27h1M32 27h1M0 28h1M7 28h2M29 28h1M31 28h2M37 28h2M0 29h1M7 29h2M29 29h1M35 29h4M0 30h1M7 30h2M28 30h1M33 30h6M0 31h1M7 31h2M31 31h8M0 32h1M8 32h1M29 32h10M0 33h1M8 33h1M27 33h12M0 34h1M8 34h1M25 34h14M0 35h1M23 35h16M0 36h1M21 36h18M21 37h18M21 38h18M21 39h16M21 40h14M21 41h12M21 42h10M21 43h8M21 44h6M21 45h4M21 46h2" />
<path stroke="#c0c0c0" d="M0 0h1M15 1h1M22 1h3M26 1h1M28 1h1M12 2h1M16 2h2M20 2h2M23 2h1M25 2h1M27 2h1M29 2h3M9 3h1M13 3h2M18 3h2M22 3h1M24 3h1M26 3h1M10 4h2M15 4h2M20 4h2M12 5h2M17 5h2M22 5h2M11 6h1M14 6h2M19 6h2M24 6h2M13 7h1M16 7h2M21 7h2M26 7h2M18 8h2M23 8h2M28 8h2M20 9h2M25 9h2M30 9h2M22 10h2M27 10h2M31 10h1M24 11h2M28 11h1M31 11h1M11 12h1M26 12h1M28 12h1M31 12h1M13 13h1M26 13h1M28 13h1M31 13h1M7 14h1M26 14h1M28 14h1M31 14h1M7 15h1M26 15h1M28 15h1M31 15h1M26 16h1M28 16h1M31 16h1M6 17h2M26 17h1M28 17h1M31 17h1M6 18h1M26 18h1M28 18h1M31 18h1M7 19h1M26 19h1M28 19h1M31 19h1M6 20h1M26 20h1M28 20h1M31 20h1M6 21h1M26 21h1M28 21h1M31 21h1M26 22h1M28 22h1M31 22h1M26 23h1M28 23h1M31 23h1M26 24h1M28 24h1M31 24h1M26 25h1M28 25h1M31 25h1M2 26h2M26 26h1M28 26h1M31 26h1M4 27h2M26 27h1M28 27h1M31 27h1M2 28h2M6 28h1M26 28h1M28 28h1M2 29h3M6 29h1M26 29h1M28 29h1M2 30h3M6 30h1M26 30h1M2 31h3M6 31h1M26 31h1M2 32h4M7 32h1M16 32h2M25 32h2M2 33h4M7 33h1M15 33h1M18 33h2M23 33h2M2 34h4M7 34h1M15 34h1M17 34h1M20 34h3M2 35h5M8 35h1M14 35h1M16 35h4M2 36h5M9 36h2M14 36h1M16 36h5M2 37h7M11 37h3M15 37h6M4 38h7M13 38h1M15 38h6M6 39h7M14 39h7M8 40h13M10 41h11M12 42h9M14 43h7M16 44h5M18 45h3M20 46h1" />
<path stroke="#008080" d="M0 0h1M25 1h1M27 1h1M29 1h2M22 2h1M27 3h1M28 4h1M34 11h1M35 15h2M35 16h1M7 18h1M6 19h1M7 20h1M7 21h1" />
<path stroke="#ffffff" d="M0 0h1M15 2h1M24 2h1M28 2h1M12 3h1M17 3h1M25 3h1M9 4h1M14 4h1M19 4h1M24 4h1M9 5h3M16 5h1M21 5h1M9 6h1M12 6h2M18 6h1M23 6h1M9 7h1M14 7h2M20 7h1M25 7h1M9 8h1M15 8h3M22 8h1M27 8h1M9 9h1M15 9h5M24 9h1M29 9h1M9 10h1M15 10h7M26 10h1M9 11h1M15 11h9M9 12h2M15 12h11M7 13h1M9 13h4M15 13h11M9 14h17M9 15h8M18 15h8M7 16h1M9 16h8M18 16h8M9 17h8M18 17h8M9 18h8M18 18h1M20 18h6M9 19h8M18 19h1M20 19h1M22 19h4M9 20h8M18 20h1M20 20h1M22 20h4M9 21h8M18 21h1M20 21h1M22 21h4M9 22h8M18 22h1M20 22h1M22 22h4M6 23h2M9 23h8M18 23h1M20 23h1M22 23h4M4 24h2M9 24h8M18 24h1M20 24h1M22 24h4M2 25h2M9 25h8M18 25h1M20 25h1M22 25h4M1 26h1M9 26h8M18 26h1M20 26h1M22 26h4M1 27h3M9 27h1M11 27h6M18 27h1M20 27h1M22 27h4M37 27h2M1 28h1M4 28h2M9 28h1M11 28h1M13 28h4M18 28h1M20 28h1M22 28h4M35 28h2M1 29h1M5 29h1M9 29h1M11 29h1M13 29h4M18 29h1M20 29h1M22 29h4M33 29h2M1 30h1M5 30h1M9 30h1M11 30h1M13 30h6M20 30h1M22 30h4M31 30h2M1 31h1M5 31h1M9 31h1M11 31h1M13 31h8M22 31h4M29 31h2M1 32h1M6 32h1M9 32h1M11 32h1M13 32h3M18 32h7M27 32h2M1 33h1M6 33h1M9 33h1M11 33h1M13 33h2M16 33h2M20 33h3M25 33h2M1 34h1M6 34h1M9 34h1M11 34h1M13 34h2M16 34h1M18 34h2M23 34h2M1 35h1M7 35h1M9 35h3M13 35h1M15 35h1M20 35h3M1 36h1M7 36h2M11 36h3M15 36h1M9 37h2M14 37h1M11 38h2M14 38h1M13 39h1" />
<path stroke="#008000" d="M0 0h1M26 2h1M32 2h2M23 3h1M28 3h8M25 4h3M31 4h7M26 5h2M30 5h9M28 6h2M31 6h9M30 7h11M32 8h8M41 8h1M34 9h7M34 10h8M35 11h6M42 11h1M35 12h7M43 12h1M35 13h6M42 13h1M44 13h1M34 14h8M43 14h1M38 15h3M42 15h1M44 15h1M39 16h3M43 16h1M45 16h1M40 17h3M44 17h1M34 18h1M43 18h1M45 18h1M34 19h2M44 19h1M34 20h2M45 20h1M34 21h3M34 22h2M34 23h1" />
<path stroke="#0000ff" d="M0 0h1M29 4h2M28 5h2M30 6h1M34 12h1M34 13h1M17 15h1M34 15h1M37 15h1M17 16h1M34 16h1M36 16h3M17 17h1M35 17h5M17 18h1M19 18h1M36 18h1M38 18h5M17 19h1M19 19h1M21 19h1M38 19h5M17 20h1M19 20h1M21 20h1M37 20h4M42 20h1M17 21h1M19 21h1M21 21h1M37 21h5M17 22h1M19 22h1M21 22h1M37 22h4M42 22h1M17 23h1M19 23h1M21 23h1M35 23h5M41 23h1M17 24h1M19 24h1M21 24h1M35 24h6M42 24h1M17 25h1M19 25h1M21 25h1M37 25h3M41 25h1M17 26h1M19 26h1M21 26h1M10 27h1M17 27h1M19 27h1M21 27h1M10 28h1M12 28h1M17 28h1M19 28h1M21 28h1M10 29h1M12 29h1M17 29h1M19 29h1M21 29h1M10 30h1M12 30h1M19 30h1M21 30h1M10 31h1M12 31h1M21 31h1M10 32h1M12 32h1M10 33h1M12 33h1M10 34h1M12 34h1M12 35h1" />
<path stroke="#800000" d="M0 0h1M10 6h1M11 7h1M10 8h1M12 8h1M14 8h1M11 9h1M13 9h1M10 10h1M12 10h1M14 10h1M11 11h1M13 11h1M12 12h1M14 12h1" />
<path stroke="#000000" d="M0 0h1M40 6h1M41 7h1M42 8h1M33 9h1M43 9h1M30 10h1M33 10h1M43 10h1M27 11h1M30 11h1M33 11h1M44 11h1M27 12h1M30 12h1M33 12h1M44 12h1M27 13h1M30 13h1M33 13h1M45 13h1M27 14h1M30 14h1M33 14h1M45 14h1M27 15h1M30 15h1M33 15h1M27 16h1M30 16h1M33 16h1M46 16h1M27 17h1M30 17h1M33 17h1M46 17h1M27 18h1M30 18h1M33 18h1M46 18h1M27 19h1M30 19h1M33 19h1M46 19h1M27 20h1M30 20h1M33 20h1M46 20h1M27 21h1M30 21h1M33 21h1M46 21h1M27 22h1M30 22h1M33 22h1M46 22h1M27 23h1M30 23h1M33 23h1M46 23h1M27 24h1M30 24h1M33 24h1M46 24h1M27 25h1M30 25h1M33 25h2M46 25h1M27 26h1M30 26h1M33 26h4M45 26h1M27 27h1M30 27h1M33 27h4M39 27h1M45 27h1M27 28h1M30 28h1M33 28h2M39 28h1M45 28h1M27 29h1M30 29h3M39 29h1M44 29h1M27 30h1M29 30h2M39 30h1M44 30h1M27 31h2M39 31h1M43 31h1M39 32h1M43 32h1M39 33h1M42 33h1M39 34h1M41 34h1M39 35h2M39 36h1M0 37h2M39 37h1M2 38h2M39 38h1M4 39h2M37 39h2M6 40h2M35 40h2M8 41h2M33 41h2M10 42h2M31 42h2M12 43h2M29 43h2M14 44h2M27 44h2M16 45h2M25 45h2M18 46h2M23 46h2M20 47h3" />
<path stroke="#ff0000" d="M0 0h1M10 7h1M12 7h1M11 8h1M13 8h1M10 9h1M12 9h1M14 9h1M11 10h1M13 10h1M10 11h1M12 11h1M14 11h1M13 12h1M14 13h1" />
<path stroke="#000080" d="M0 0h1M40 8h1M41 9h2M42 10h1M41 11h1M43 11h1M42 12h1M41 13h1M43 13h1M42 14h1M44 14h1M41 15h1M43 15h1M45 15h1M42 16h1M44 16h1M34 17h1M43 17h1M45 17h1M35 18h1M37 18h1M44 18h1M36 19h2M43 19h1M45 19h1M36 20h1M41 20h1M43 20h2M42 21h4M36 22h1M41 22h1M43 22h3M40 23h1M42 23h4M41 24h1M43 24h3M40 25h1M42 25h4M39 26h6M40 27h5M40 28h5M40 29h4M40 30h4M40 31h3M40 32h3M40 33h2M40 34h1" />
</svg>