<svg xmlns="http://www.w3.org/2000/svg" viewBox="0 -0.5 32 32" shape-rendering="crispEdges">
<path stroke="#000000" d="M0 0h1M4 0h18M4 1h1M21 1h2M4 2h1M21 2h1M23 2h1M4 3h1M21 3h1M24 3h1M4 4h1M21 4h1M25 4h1M4 5h1M21 5h1M26 5h1M4 6h1M21 6h7M4 7h1M27 7h1M4 8h1M27 8h1M4 9h1M27 9h1M4 10h1M27 10h1M4 11h1M27 11h1M4 12h1M27 12h1M4 13h1M27 13h1M4 14h1M27 14h1M4 15h1M27 15h1M4 16h1M27 16h1M4 17h1M27 17h1M4 18h1M27 18h1M4 19h1M27 19h1M4 20h1M27 20h1M4 21h1M27 21h1M4 22h1M27 22h1M4 23h1M27 23h1M4 24h1M27 24h1M4 25h1M27 25h1M4 26h1M27 26h1M4 27h1M27 27h1M4 28h1M27 28h1M4 29h1M27 29h1M4 30h24" />
<path stroke="#ffffff" d="M0 0h1M5 1h16M5 2h16M5 3h16M5 4h16M22 4h1M5 5h16M22 5h2M5 6h16M5 7h22M5 8h22M5 9h22M5 10h22M5 11h22M5 12h22M5 13h22M5 14h22M5 15h22M5 16h22M5 17h22M5 18h22M5 19h22M5 20h22M5 21h22M5 22h22M5 23h22M5 24h22M5 25h22M5 26h22M5 27h22M5 28h22M5 29h22" />
<path stroke="#808080" d="M0 0h1M22 2h1M23 3h1M24 4h1M25 5h1M28 7h1M28 8h1M28 9h1M28 10h1M28 11h1M28 12h1M28 13h1M28 14h1M28 15h1M28 16h1M28 17h1M28 18h1M28 19h1M28 20h1M28 21h1M28 22h1M28 23h1M28 24h1M28 25h1M28 26h1M28 27h1M28 28h1M28 29h1M28 30h1M5 31h24" />
<path stroke="#c0c0c0" d="M0 0h1M22 3h1M23 4h1M24 5h1" />
</svg>