<svg xmlns="http://www.w3.org/2000/svg" width="32" height="32" shape-rendering="crispEdges" viewBox="0 -0.5 32 32"><path stroke="#000" d="M2 1h14m1 0h14M2 2h1m13 0h1m11 0h3M2 3h1m25 0h3M2 4h1m12 0h3m10 0h3M2 5h2m24 0h3M2 6h2m11 0h3m10 0h3M2 7h2m25 0h2M2 8h2m11 0h3m11 0h2M2 9h2m25 0h2M2 10h2m11 0h3m10 0h3M2 11h2m8 0h1m15 0h3M2 12h2m9 0h5m11 0h2M2 13h2m11 0h2m12 0h2M2 14h1m7 0h1m6 0h2m10 0h2M2 15h1m1 0h1m6 0h1m7 0h1m8 0h3M2 16h1m2 0h4m2 0h1m4 0h1m3 0h2m6 0h3M2 17h1m9 0h2m3 0h1m4 0h1m6 0h2M2 18h3m12 0h1m5 0h1m5 0h2M2 19h2m5 0h1m7 0h1m6 0h1m4 0h2M2 20h1m8 0h1m5 0h1m6 0h1m3 0h3M7 21h1m5 0h1m3 0h1m6 0h7M9 22h1m7 0h3m3 0h2M5 23h1m5 0h1m5 0h1m2 0h3m1 0h1M7 24h1m10 0h1m5 0h1M9 25h1m8 0h1m4 0h1M0 26h1m18 0h4M1 27h2m15 0h2M3 28h2m11 0h2M5 29h2m7 0h2m-9 1h2m3 0h2m-5 1h3"/><path stroke="gray" d="M16 1h1m0 1h10M16 3h1M6 4h6m7 0h5m-8 1h1M6 6h8m5 0h7M16 7h1M6 9h8m2 0h1m2 0h5M7 11h5m4 0h1m2 0h7M5 12h2m-3 1h1m-2 1h1m4 0h2m-7 1h1m4 0h1m11 0h6M3 16h1m10 0h2M3 17h1m2 0h1m7 0h1m1 0h1M5 18h1m8 0h1m1 0h1m1 0h1M4 19h1m11 0h1M3 20h1m21 0h2M2 21h1m13 0h1m1 0h1m4 0h1M1 22h1m20 0h1M0 23h1m22 0h1M0 24h1m21 0h1M0 25h1m20 0h1m-12 2h1"/><path stroke="maroon" d="M3 2h2m22 0h1M3 3h2m22 0h1M3 4h2m22 0h1M4 5h1m22 0h1M4 6h1m22 0h1M4 7h1m22 0h2M4 8h1m22 0h2M4 9h1m22 0h2M4 10h1m22 0h1M4 11h1m22 0h1M4 12h1m22 0h2m-2 1h2m-2 1h2m-2 1h1m-1 1h1m-1 1h2m-2 1h2m-2 1h2m-2 1h1"/><path stroke="silver" d="M5 2h11M7 12h6m-8 1h1m5 0h4M4 14h1m10 0h2M5 15h1m4 0h1m1 0h2m3 0h2M4 16h1m5 0h1m2 0h1m5 0h1M4 17h1m15 0h2m-1 1h2m0 1h1m-5 1h1m1 0h2m-4 1h1m1 0h1m-7 1h1m5 0h1m-8 1h1m1 0h1m-4 1h1m1 0h1m1 0h1m3 0h1m-10 1h1m1 0h1m1 0h1M1 26h2m8 0h1m1 0h1m1 0h1m1 0h1M3 27h2m7 0h1m1 0h1m1 0h1M5 28h2m4 0h1m1 0h1m1 0h1m-9 1h2m1 0h1m1 0h1m-2 1h1"/><path stroke="#fff" d="M5 3h11m1 0h10M5 4h1m6 0h3m3 0h1m5 0h3M5 5h11m1 0h10M5 6h1m8 0h1m3 0h1m7 0h1M5 7h11m1 0h10M5 8h10m3 0h9M5 9h1m8 0h2m1 0h2m5 0h3M5 10h10m3 0h9M5 11h2m6 0h3m1 0h2m7 0h1m-9 1h9M6 13h5m6 0h10M5 14h2m4 0h4m4 0h8M9 15h1m4 0h3m9 0h1M9 16h1m7 0h2m3 0h5M7 17h5m3 0h1m2 0h2m3 0h4M6 18h3m1 0h4m1 0h1m3 0h2m3 0h3M5 19h3m2 0h1m1 0h4m3 0h4m2 0h2M4 20h3m1 0h2m2 0h1m1 0h3m3 0h1M3 21h3m2 0h1m1 0h2m2 0h2m4 0h1M2 22h3m1 0h2m2 0h1m1 0h3m5 0h1M1 23h3m2 0h1m1 0h2m2 0h2m5 0h1M1 24h5m2 0h1m1 0h3m6 0h2M1 25h7m2 0h2m8 0h1M3 26h8m-6 1h5m-3 1h3m-1 1h1m-1 1h1"/><path stroke="olive" d="M7 14h1m-2 1h2m4 1h1m-8 1h1m3 1h1m-2 1h1m2 0h1m6 0h1M7 20h1m2 0h1m2 0h1m4 0h1m4 0h1M6 21h1m2 0h1m2 0h1m9 0h1M5 22h1m2 0h1m2 0h1m4 0h1M4 23h1m2 0h1m2 0h1m4 0h1m2 0h1M6 24h1m2 0h1m4 0h1m1 0h1m6 0h1M8 25h1m4 0h1m1 0h1m1 0h1m1 0h1m2 0h1m-11 1h1m1 0h1m1 0h1m1 0h1m-8 1h1m1 0h1m1 0h1m1 0h1m-8 1h1m1 0h1m1 0h1m-4 1h1m1 0h1m-4 1h1"/></svg>