<svg xmlns="http://www.w3.org/2000/svg" width="32" height="32" shape-rendering="crispEdges" viewBox="0 -0.5 32 32"><path stroke="#000" d="M11 1h16M10 2h1m16 0h1M9 3h1m17 0h1M8 4h1m18 0h1M8 5h1m18 0h1M8 6h1m2 0h12m4 0h1M8 7h1m2 0h1m10 0h1m4 0h1M8 8h1m2 0h1m10 0h1m4 0h1M8 9h1m2 0h1m10 0h1m4 0h1M8 10h1m2 0h1m10 0h1m4 0h1M5 11h11m6 0h1m4 0h1M3 12h2m12 0h1m4 0h1m4 0h1M2 13h1m3 0h2m5 0h2m3 0h1m3 0h1m4 0h1M1 14h1m3 0h1m1 0h1m4 0h1m1 0h1m4 0h4m4 0h1M1 15h1m3 0h1m1 0h6m1 0h1m4 0h1m7 0h4M1 16h1m3 0h1m9 0h1m3 0h1m6 0h1m4 0h1M1 17h4m2 0h1m1 0h1m1 0h1m4 0h10m5 0h1M3 18h1m4 0h1m1 0h1m6 0h1m13 0h1M2 19h1m4 0h1m1 0h1m1 0h1m5 0h1m13 0h1M2 20h1m14 0h1m13 0h1M2 21h1m14 0h1m13 0h1M2 22h1m13 0h3m11 0h1M2 23h1m12 0h1m2 0h1m10 0h1M1 24h14m3 0h1m9 0h1M0 25h1m17 0h10M0 26h1m17 0h1M0 27h1m16 0h1M0 28h1m15 0h1M1 29h15"/><path stroke="silver" d="M11 2h15M10 3h15M9 4h16M9 5h2m12 0h2M9 6h1m13 0h2M9 7h1m13 0h2M9 8h1m13 0h2M9 9h1m13 0h2M9 10h1m13 0h2m-2 1h2M5 12h1m1 0h1m1 0h1m1 0h1m1 0h1m1 0h1m7 0h2M4 13h1m3 0h1m1 0h1m5 0h1m6 0h2M3 14h1m2 0h1m10 0h1m5 0h2M2 15h1m10 0h1m6 0h5M6 16h1m1 0h1m1 0h1m1 0h1m1 0h1m7 0h3m4 0h1M5 17h1m7 0h1m1 0h1m12 0h1M4 18h1m1 0h1m5 0h1m1 0h1m7 0h6M3 19h1m1 0h1m7 0h1m5 0h8M3 20h11m6 0h7M4 21h1m1 0h1m1 0h1m1 0h1m1 0h1m8 0h6M3 22h1m1 0h1m1 0h1m1 0h1m1 0h1m1 0h1m7 0h6M4 23h1m1 0h1m1 0h1m1 0h1m1 0h1m3 0h1m4 0h6m-12 1h1M1 25h14M1 26h14M1 27h1m2 0h1m2 0h1m2 0h5"/><path stroke="gray" d="M26 2h1m-2 1h2m-2 1h2M11 5h12m2 0h2M10 6h1m14 0h2M10 7h1m14 0h2M10 8h1m14 0h2M10 9h1m14 0h2m-17 1h1m14 0h2m-2 1h2m-11 1h1m8 0h2m-2 1h2m-2 1h2m-2 1h2m-7 1h2m3 0h1m1 0h2m1 0h1m-5 1h2m1 0h2m-13 1h4m6 0h3m-13 1h1m8 0h4m-13 1h2m7 0h4m-13 1h3m6 0h4m-12 1h2m6 0h3m-13 1h1m1 0h2m6 0h2m-13 1h2m1 0h9m-13 1h3m-3 1h3m-3 1h2M1 28h15"/><path stroke="#00f" d="M12 7h10M12 8h1m1 0h8M12 9h1m1 0h8m-10 1h10m-6 1h6m-3 1h3m-2 1h2"/><path stroke="#0ff" d="M13 8h1m-1 1h1"/><path stroke="#ff0" d="M6 12h1m1 0h1m1 0h1m1 0h1m1 0h1M3 13h1m5 0h1m1 0h1m3 0h1m1 0h1M2 14h1m10 0h1m2 0h1M3 15h1m2 0h1m0 1h1m1 0h1m1 0h1m1 0h1m-8 1h1m1 0h1m1 0h1m1 0h1m1 0h1M5 18h1m1 0h1m1 0h1m1 0h1m1 0h1M4 19h1m1 0h1m1 0h1m1 0h1m1 0h1m1 0h1M3 21h1m1 0h1m1 0h1m1 0h1m1 0h1m1 0h1M4 22h1m1 0h1m1 0h1m1 0h1m1 0h1M3 23h1m1 0h1m1 0h1m1 0h1m1 0h1m1 0h1"/><path stroke="navy" d="M18 12h1m0 1h1"/><path stroke="olive" d="M5 13h1m6 0h1m-9 1h1m3 0h4m3 0h1m2 0h1M4 15h1m10 0h4M2 16h3m11 0h3m-4 2h2m-2 1h2m-3 1h3m-3 1h3m-3 1h2m-2 1h1"/><path stroke="red" d="M2 27h2m1 0h2m1 0h2"/></svg>