<svg xmlns="http://www.w3.org/2000/svg" viewBox="0 -0.5 32 32" shape-rendering="crispEdges">
<path stroke="#000000" d="M0 0h1M2 1h14M17 1h14M2 2h1M16 2h1M28 2h3M2 3h1M28 3h3M2 4h1M15 4h3M28 4h3M2 5h2M28 5h3M2 6h2M15 6h3M28 6h3M2 7h2M29 7h2M2 8h2M15 8h3M29 8h2M2 9h2M29 9h2M2 10h2M15 10h3M28 10h3M2 11h2M12 11h1M28 11h3M2 12h2M13 12h5M29 12h2M2 13h2M15 13h2M29 13h2M2 14h1M10 14h1M17 14h2M29 14h2M2 15h1M4 15h1M11 15h1M19 15h1M28 15h3M2 16h1M5 16h4M11 16h1M16 16h1M20 16h2M28 16h3M2 17h1M12 17h2M17 17h1M22 17h1M29 17h2M2 18h3M17 18h1M23 18h1M29 18h2M2 19h2M9 19h1M17 19h1M24 19h1M29 19h2M2 20h1M11 20h1M17 20h1M24 20h1M28 20h3M7 21h1M13 21h1M17 21h1M24 21h7M9 22h1M17 22h3M23 22h2M5 23h1M11 23h1M17 23h1M20 23h3M24 23h1M7 24h1M18 24h1M24 24h1M9 25h1M18 25h1M23 25h1M0 26h1M19 26h4M1 27h2M18 27h2M3 28h2M16 28h2M5 29h2M14 29h2M7 30h2M12 30h2M9 31h3" />
<path stroke="#808080" d="M0 0h1M16 1h1M17 2h10M16 3h1M6 4h6M19 4h5M16 5h1M6 6h8M19 6h7M16 7h1M6 9h8M16 9h1M19 9h5M7 11h5M16 11h1M19 11h7M5 12h2M4 13h1M3 14h1M8 14h2M3 15h1M8 15h1M20 15h6M3 16h1M14 16h2M3 17h1M6 17h1M14 17h1M16 17h1M5 18h1M14 18h1M16 18h1M18 18h1M4 19h1M16 19h1M3 20h1M25 20h2M2 21h1M16 21h1M18 21h1M23 21h1M1 22h1M22 22h1M0 23h1M23 23h1M0 24h1M22 24h1M0 25h1M21 25h1M10 27h1" />
<path stroke="#800000" d="M0 0h1M3 2h2M27 2h1M3 3h2M27 3h1M3 4h2M27 4h1M4 5h1M27 5h1M4 6h1M27 6h1M4 7h1M27 7h2M4 8h1M27 8h2M4 9h1M27 9h2M4 10h1M27 10h1M4 11h1M27 11h1M4 12h1M27 12h2M27 13h2M27 14h2M27 15h1M27 16h1M27 17h2M27 18h2M27 19h2M27 20h1" />
<path stroke="#c0c0c0" d="M0 0h1M5 2h11M7 12h6M5 13h1M11 13h4M4 14h1M15 14h2M5 15h1M10 15h1M12 15h2M17 15h2M4 16h1M10 16h1M13 16h1M19 16h1M4 17h1M20 17h2M21 18h2M23 19h1M19 20h1M21 20h2M19 21h1M21 21h1M15 22h1M21 22h1M14 23h1M16 23h1M13 24h1M15 24h1M17 24h1M21 24h1M12 25h1M14 25h1M16 25h1M1 26h2M11 26h1M13 26h1M15 26h1M17 26h1M3 27h2M12 27h1M14 27h1M16 27h1M5 28h2M11 28h1M13 28h1M15 28h1M7 29h2M10 29h1M12 29h1M11 30h1" />
<path stroke="#ffffff" d="M0 0h1M5 3h11M17 3h10M5 4h1M12 4h3M18 4h1M24 4h3M5 5h11M17 5h10M5 6h1M14 6h1M18 6h1M26 6h1M5 7h11M17 7h10M5 8h10M18 8h9M5 9h1M14 9h2M17 9h2M24 9h3M5 10h10M18 10h9M5 11h2M13 11h3M17 11h2M26 11h1M18 12h9M6 13h5M17 13h10M5 14h2M11 14h4M19 14h8M9 15h1M14 15h3M26 15h1M9 16h1M17 16h2M22 16h5M7 17h5M15 17h1M18 17h2M23 17h4M6 18h3M10 18h4M15 18h1M19 18h2M24 18h3M5 19h3M10 19h1M12 19h4M19 19h4M25 19h2M4 20h3M8 20h2M12 20h1M14 20h3M20 20h1M3 21h3M8 21h1M10 21h2M14 21h2M20 21h1M2 22h3M6 22h2M10 22h1M12 22h3M20 22h1M1 23h3M6 23h1M8 23h2M12 23h2M19 23h1M1 24h5M8 24h1M10 24h3M19 24h2M1 25h7M10 25h2M20 25h1M3 26h8M5 27h5M7 28h3M9 29h1M9 30h1" />
<path stroke="#808000" d="M0 0h1M7 14h1M6 15h2M12 16h1M5 17h1M9 18h1M8 19h1M11 19h1M18 19h1M7 20h1M10 20h1M13 20h1M18 20h1M23 20h1M6 21h1M9 21h1M12 21h1M22 21h1M5 22h1M8 22h1M11 22h1M16 22h1M4 23h1M7 23h1M10 23h1M15 23h1M18 23h1M6 24h1M9 24h1M14 24h1M16 24h1M23 24h1M8 25h1M13 25h1M15 25h1M17 25h1M19 25h1M22 25h1M12 26h1M14 26h1M16 26h1M18 26h1M11 27h1M13 27h1M15 27h1M17 27h1M10 28h1M12 28h1M14 28h1M11 29h1M13 29h1M10 30h1" />
</svg>