<svg xmlns="http://www.w3.org/2000/svg" viewBox="0 -0.5 32 32" shape-rendering="crispEdges">
<path stroke="#000000" d="M0 0h1M11 1h16M10 2h1M27 2h1M9 3h1M27 3h1M8 4h1M27 4h1M8 5h1M27 5h1M8 6h1M11 6h12M27 6h1M8 7h1M11 7h1M22 7h1M27 7h1M8 8h1M11 8h1M22 8h1M27 8h1M8 9h1M11 9h1M22 9h1M27 9h1M8 10h1M11 10h1M22 10h1M27 10h1M5 11h11M22 11h1M27 11h1M3 12h2M17 12h1M22 12h1M27 12h1M2 13h1M6 13h2M13 13h2M18 13h1M22 13h1M27 13h1M1 14h1M5 14h1M7 14h1M12 14h1M14 14h1M19 14h4M27 14h1M1 15h1M5 15h1M7 15h6M14 15h1M19 15h1M27 15h4M1 16h1M5 16h1M15 16h1M19 16h1M26 16h1M31 16h1M1 17h4M7 17h1M9 17h1M11 17h1M16 17h10M31 17h1M3 18h1M8 18h1M10 18h1M17 18h1M31 18h1M2 19h1M7 19h1M9 19h1M11 19h1M17 19h1M31 19h1M2 20h1M17 20h1M31 20h1M2 21h1M17 21h1M31 21h1M2 22h1M16 22h3M30 22h1M2 23h1M15 23h1M18 23h1M29 23h1M1 24h14M18 24h1M28 24h1M0 25h1M18 25h10M0 26h1M18 26h1M0 27h1M17 27h1M0 28h1M16 28h1M1 29h15" />
<path stroke="#c0c0c0" d="M0 0h1M11 2h15M10 3h15M9 4h16M9 5h2M23 5h2M9 6h1M23 6h2M9 7h1M23 7h2M9 8h1M23 8h2M9 9h1M23 9h2M9 10h1M23 10h2M23 11h2M5 12h1M7 12h1M9 12h1M11 12h1M13 12h1M15 12h1M23 12h2M4 13h1M8 13h1M10 13h1M16 13h1M23 13h2M3 14h1M6 14h1M17 14h1M23 14h2M2 15h1M13 15h1M20 15h5M6 16h1M8 16h1M10 16h1M12 16h1M14 16h1M22 16h3M29 16h1M5 17h1M13 17h1M15 17h1M28 17h1M4 18h1M6 18h1M12 18h1M14 18h1M22 18h6M3 19h1M5 19h1M13 19h1M19 19h8M3 20h11M20 20h7M4 21h1M6 21h1M8 21h1M10 21h1M12 21h1M21 21h6M3 22h1M5 22h1M7 22h1M9 22h1M11 22h1M13 22h1M21 22h6M4 23h1M6 23h1M8 23h1M10 23h1M12 23h1M16 23h1M21 23h6M15 24h1M1 25h14M1 26h14M1 27h1M4 27h1M7 27h1M10 27h5" />
<path stroke="#808080" d="M0 0h1M26 2h1M25 3h2M25 4h2M11 5h12M25 5h2M10 6h1M25 6h2M10 7h1M25 7h2M10 8h1M25 8h2M10 9h1M25 9h2M10 10h1M25 10h2M25 11h2M16 12h1M25 12h2M25 13h2M25 14h2M25 15h2M20 16h2M25 16h1M27 16h2M30 16h1M26 17h2M29 17h2M18 18h4M28 18h3M18 19h1M27 19h4M18 20h2M27 20h4M18 21h3M27 21h4M19 22h2M27 22h3M17 23h1M19 23h2M27 23h2M16 24h2M19 24h9M15 25h3M15 26h3M15 27h2M1 28h15" />
<path stroke="#0000ff" d="M0 0h1M12 7h10M12 8h1M14 8h8M12 9h1M14 9h8M12 10h10M16 11h6M19 12h3M20 13h2" />
<path stroke="#00ffff" d="M0 0h1M13 8h1M13 9h1" />
<path stroke="#ffff00" d="M0 0h1M6 12h1M8 12h1M10 12h1M12 12h1M14 12h1M3 13h1M9 13h1M11 13h1M15 13h1M17 13h1M2 14h1M13 14h1M16 14h1M3 15h1M6 15h1M7 16h1M9 16h1M11 16h1M13 16h1M6 17h1M8 17h1M10 17h1M12 17h1M14 17h1M5 18h1M7 18h1M9 18h1M11 18h1M13 18h1M4 19h1M6 19h1M8 19h1M10 19h1M12 19h1M14 19h1M3 21h1M5 21h1M7 21h1M9 21h1M11 21h1M13 21h1M4 22h1M6 22h1M8 22h1M10 22h1M12 22h1M3 23h1M5 23h1M7 23h1M9 23h1M11 23h1M13 23h1" />
<path stroke="#000080" d="M0 0h1M18 12h1M19 13h1" />
<path stroke="#808000" d="M0 0h1M5 13h1M12 13h1M4 14h1M8 14h4M15 14h1M18 14h1M4 15h1M15 15h4M2 16h3M16 16h3M15 18h2M15 19h2M14 20h3M14 21h3M14 22h2M14 23h1" />
<path stroke="#ff0000" d="M0 0h1M2 27h2M5 27h2M8 27h2" />
</svg>