<svg xmlns="http://www.w3.org/2000/svg" viewBox="0 -0.5 32 32" shape-rendering="crispEdges">
<path stroke="#808080" d="M0 0h1M0 0h30M0 1h1M31 1h1M0 2h1M31 2h1M0 3h1M31 3h1M0 4h1M31 4h1M0 5h1M13 5h1M16 5h1M31 5h1M0 6h1M31 6h1M0 7h1M31 7h1M0 8h1M31 8h1M0 9h1M31 9h1M0 10h1M31 10h1M0 11h1M31 11h1M0 12h1M31 12h1M0 13h1M13 13h1M16 13h1M31 13h1M0 14h1M31 14h1M0 15h1M31 15h1M0 16h1M11 16h9M31 16h1M0 17h1M9 17h2M31 17h1M0 18h1M7 18h2M31 18h1M0 19h1M6 19h1M31 19h1M0 20h1M5 20h1M12 20h1M31 20h1M0 21h1M4 21h1M13 21h1M31 21h1M0 22h1M4 22h1M12 22h1M16 22h1M31 22h1M0 23h1M5 23h1M11 23h1M17 23h1M20 23h1M22 23h1M31 23h1M0 24h1M3 24h1M16 24h1M18 24h4M31 24h1M0 25h1M17 25h1M19 25h2M22 25h1M24 25h1M31 25h1M0 26h1M2 26h1M13 26h1M19 26h1M31 26h1M0 27h1M20 27h1M31 27h1M0 28h1M2 28h1M21 28h1M31 28h1M0 29h2M20 29h1M22 29h1M29 29h1M31 29h1M31 30h1M1 31h31" />
<path stroke="#000000" d="M0 0h1M30 0h1M30 1h1M30 2h1M30 3h1M30 4h1M4 5h1M6 5h2M9 5h2M14 5h2M30 5h1M4 6h8M13 6h4M30 6h1M4 7h2M7 7h2M10 7h4M16 7h2M30 7h1M4 8h2M7 8h2M10 8h5M30 8h1M4 9h2M7 9h2M10 9h2M13 9h4M30 9h1M4 10h2M7 10h2M10 10h2M15 10h3M30 10h1M4 11h2M7 11h2M10 11h4M16 11h2M30 11h1M4 12h2M7 12h2M10 12h2M13 12h4M25 12h2M30 12h1M4 13h2M7 13h2M10 13h2M14 13h2M25 13h2M30 13h1M30 14h1M30 15h1M30 16h1M20 17h2M30 17h1M22 18h2M30 18h1M24 19h1M30 19h1M25 20h1M30 20h1M26 21h1M30 21h1M26 22h1M30 22h1M3 23h1M27 23h1M30 23h1M14 24h1M27 24h1M30 24h1M2 25h1M8 25h1M15 25h1M27 25h1M30 25h1M10 26h1M17 26h1M22 26h1M28 26h1M30 26h1M2 27h1M4 27h1M9 27h1M13 27h1M28 27h1M30 27h1M8 28h1M24 28h1M27 28h2M30 28h1M2 29h1M4 29h1M19 29h1M21 29h1M25 29h1M28 29h1M30 29h1M0 30h31" />
<path stroke="#ffffff" d="M0 0h1M1 1h28M1 2h28M1 3h28M1 4h28M1 5h3M11 5h2M17 5h1M20 5h1M24 5h5M1 6h3M17 6h1M25 6h4M1 7h3M6 7h1M9 7h1M14 7h2M21 7h1M25 7h4M1 8h3M6 8h1M9 8h1M16 8h2M21 8h1M25 8h4M1 9h3M6 9h1M9 9h1M21 9h1M25 9h4M1 10h3M6 10h1M9 10h1M12 10h2M21 10h1M25 10h4M1 11h3M6 11h1M9 11h1M14 11h1M21 11h1M25 11h4M1 12h3M6 12h1M9 12h1M21 12h1M27 12h2M1 13h3M6 13h1M9 13h1M12 13h1M17 13h1M21 13h1M27 13h2M1 14h28M1 15h28M1 16h10M20 16h9M1 17h8M12 17h1M14 17h1M16 17h1M18 17h1M22 17h7M1 18h6M9 18h1M11 18h1M24 18h5M1 19h5M8 19h1M10 19h1M12 19h1M20 19h1M22 19h1M25 19h4M1 20h4M7 20h1M9 20h1M11 20h1M21 20h1M23 20h1M26 20h3M1 21h3M6 21h1M8 21h1M18 21h1M20 21h1M22 21h1M24 21h1M27 21h2M1 22h3M5 22h1M7 22h1M14 22h1M19 22h1M21 22h1M23 22h1M27 22h2M1 23h2M13 23h1M15 23h1M18 23h1M28 23h1M1 24h2M28 24h1M1 25h1M18 25h1M28 25h1M1 26h1M1 27h1" />
<path stroke="#c0c0c0" d="M0 0h1M29 1h1M29 2h1M29 3h1M29 4h1M5 5h1M8 5h1M29 5h1M12 6h1M29 6h1M29 7h1M15 8h1M29 8h1M12 9h1M17 9h1M29 9h1M14 10h1M29 10h1M15 11h1M29 11h1M12 12h1M17 12h1M29 12h1M29 13h1M29 14h1M29 15h1M29 16h1M11 17h1M13 17h1M15 17h1M17 17h1M19 17h1M29 17h1M10 18h1M12 18h1M14 18h1M16 18h1M18 18h1M20 18h1M29 18h1M7 19h1M9 19h1M11 19h1M13 19h1M15 19h1M17 19h1M19 19h1M21 19h1M29 19h1M6 20h1M8 20h1M10 20h1M14 20h1M16 20h1M18 20h1M20 20h1M29 20h1M5 21h1M7 21h1M9 21h1M17 21h1M19 21h1M21 21h1M29 21h1M6 22h1M18 22h1M20 22h1M22 22h1M25 22h1M29 22h1M19 23h1M21 23h1M29 23h1M29 24h1M29 25h1M29 26h1M29 27h1M1 28h1M29 28h1" />
<path stroke="#ff0000" d="M0 0h1M18 5h2M21 5h3M18 6h7M18 7h3M22 7h3M18 8h3M22 8h3M18 9h3M22 9h3M18 10h3M22 10h3M18 11h3M22 11h3M18 12h3M22 12h3M18 13h3M22 13h3" />
<path stroke="#00ffff" d="M0 0h1M13 18h1M15 18h1M17 18h1M19 18h1M14 19h1M16 19h1M13 20h1M10 21h1" />
<path stroke="#008080" d="M0 0h1M21 18h1M23 19h1M22 20h1M24 20h1M23 21h1M25 21h1M9 22h1M24 22h1M6 23h1M8 23h1M23 23h2M26 23h1M5 24h1M7 24h1M22 24h2M25 24h1M6 25h1M26 25h1M25 26h1M27 26h1M26 29h1" />
<path stroke="#0000ff" d="M0 0h1M18 19h1M15 20h1M17 20h1M19 20h1M11 21h2M14 21h1M16 21h1M8 22h1M10 22h1M17 22h1M7 23h1M4 24h1M3 25h1M5 27h1M4 28h1M5 29h1" />
<path stroke="#000080" d="M0 0h1M11 22h1M13 22h1M15 22h1M4 23h1M9 23h2M12 23h1M14 23h1M16 23h1M6 24h1M8 24h2M11 24h1M13 24h1M15 24h1M17 24h1M4 25h2M7 25h1M12 25h3M16 25h1M3 26h5M16 26h1M3 27h1M6 27h1M18 27h1M22 27h3M27 27h1M3 28h1M5 28h1M15 28h1M18 28h2M23 28h1M25 28h2M3 29h1M6 29h1M14 29h1M16 29h1M18 29h1M23 29h2M27 29h1" />
<path stroke="#800000" d="M0 0h1M25 23h1M10 24h1M24 24h1M26 24h1M9 25h1M11 25h1M21 25h1M23 25h1M25 25h1M8 26h1M12 26h1M14 26h1M18 26h1M20 26h1M24 26h1M26 26h1M7 27h1M11 27h1M15 27h1M17 27h1M21 27h1M25 27h1M6 28h1M10 28h1M12 28h1M14 28h1M16 28h1M20 28h1M22 28h1M7 29h1M9 29h1M11 29h1M13 29h1M15 29h1M17 29h1" />
<path stroke="#008000" d="M0 0h1M12 24h1M15 26h1M14 27h1M16 27h1M26 27h1M9 28h1M11 28h1M13 28h1M17 28h1M8 29h1M10 29h1M12 29h1" />
<path stroke="#808000" d="M0 0h1M10 25h1M9 26h1M11 26h1M21 26h1M23 26h1M8 27h1M10 27h1M12 27h1M19 27h1M7 28h1" />
</svg>