<svg xmlns="http://www.w3.org/2000/svg" width="32" height="32" shape-rendering="crispEdges" viewBox="0 -0.5 32 32"><path stroke="gray" d="M0 0h30M0 1h1m30 0h1M0 2h1m30 0h1M0 3h1m30 0h1M0 4h1m30 0h1M0 5h1m12 0h1m2 0h1m14 0h1M0 6h1m30 0h1M0 7h1m30 0h1M0 8h1m30 0h1M0 9h1m30 0h1M0 10h1m30 0h1M0 11h1m30 0h1M0 12h1m30 0h1M0 13h1m12 0h1m2 0h1m14 0h1M0 14h1m30 0h1M0 15h1m30 0h1M0 16h1m10 0h9m11 0h1M0 17h1m8 0h2m20 0h1M0 18h1m6 0h2m22 0h1M0 19h1m5 0h1m24 0h1M0 20h1m4 0h1m6 0h1m18 0h1M0 21h1m3 0h1m8 0h1m17 0h1M0 22h1m3 0h1m7 0h1m3 0h1m14 0h1M0 23h1m4 0h1m5 0h1m5 0h1m2 0h1m1 0h1m8 0h1M0 24h1m2 0h1m12 0h1m1 0h4m9 0h1M0 25h1m16 0h1m1 0h2m1 0h1m1 0h1m6 0h1M0 26h1m1 0h1m10 0h1m5 0h1m11 0h1M0 27h1m19 0h1m10 0h1M0 28h1m1 0h1m18 0h1m9 0h1M0 29h2m18 0h1m1 0h1m6 0h1m1 0h1m-1 1h1M1 31h31"/><path stroke="#000" d="M30 0h1m-1 1h1m-1 1h1m-1 1h1m-1 1h1M4 5h1m1 0h2m1 0h2m3 0h2m14 0h1M4 6h8m1 0h4m13 0h1M4 7h2m1 0h2m1 0h4m2 0h2m12 0h1M4 8h2m1 0h2m1 0h5m15 0h1M4 9h2m1 0h2m1 0h2m1 0h4m13 0h1M4 10h2m1 0h2m1 0h2m3 0h3m12 0h1M4 11h2m1 0h2m1 0h4m2 0h2m12 0h1M4 12h2m1 0h2m1 0h2m1 0h4m8 0h2m3 0h1M4 13h2m1 0h2m1 0h2m2 0h2m9 0h2m3 0h1m-1 1h1m-1 1h1m-1 1h1m-11 1h2m8 0h1m-9 1h2m6 0h1m-7 1h1m5 0h1m-6 1h1m4 0h1m-5 1h1m3 0h1m-5 1h1m3 0h1M3 23h1m23 0h1m2 0h1m-17 1h1m12 0h1m2 0h1M2 25h1m5 0h1m6 0h1m11 0h1m2 0h1m-21 1h1m6 0h1m4 0h1m5 0h1m1 0h1M2 27h1m1 0h1m4 0h1m3 0h1m14 0h1m1 0h1M8 28h1m15 0h1m2 0h2m1 0h1M2 29h1m1 0h1m14 0h1m1 0h1m3 0h1m2 0h1m1 0h1M0 30h31"/><path stroke="#fff" d="M1 1h28M1 2h28M1 3h28M1 4h28M1 5h3m7 0h2m4 0h1m2 0h1m3 0h5M1 6h3m13 0h1m7 0h4M1 7h3m2 0h1m2 0h1m4 0h2m5 0h1m3 0h4M1 8h3m2 0h1m2 0h1m6 0h2m3 0h1m3 0h4M1 9h3m2 0h1m2 0h1m11 0h1m3 0h4M1 10h3m2 0h1m2 0h1m2 0h2m7 0h1m3 0h4M1 11h3m2 0h1m2 0h1m4 0h1m6 0h1m3 0h4M1 12h3m2 0h1m2 0h1m11 0h1m5 0h2M1 13h3m2 0h1m2 0h1m2 0h1m4 0h1m3 0h1m5 0h2M1 14h28M1 15h28M1 16h10m9 0h9M1 17h8m3 0h1m1 0h1m1 0h1m1 0h1m3 0h7M1 18h6m2 0h1m1 0h1m12 0h5M1 19h5m2 0h1m1 0h1m1 0h1m7 0h1m1 0h1m2 0h4M1 20h4m2 0h1m1 0h1m1 0h1m9 0h1m1 0h1m2 0h3M1 21h3m2 0h1m1 0h1m9 0h1m1 0h1m1 0h1m1 0h1m2 0h2M1 22h3m1 0h1m1 0h1m6 0h1m4 0h1m1 0h1m1 0h1m3 0h2M1 23h2m10 0h1m1 0h1m2 0h1m9 0h1M1 24h2m25 0h1M1 25h1m16 0h1m9 0h1M1 26h1m-1 1h1"/><path stroke="silver" d="M29 1h1m-1 1h1m-1 1h1m-1 1h1M5 5h1m2 0h1m20 0h1M12 6h1m16 0h1m-1 1h1M15 8h1m13 0h1M12 9h1m4 0h1m11 0h1m-16 1h1m14 0h1m-15 1h1m13 0h1m-18 1h1m4 0h1m11 0h1m-1 1h1m-1 1h1m-1 1h1m-1 1h1m-19 1h1m1 0h1m1 0h1m1 0h1m1 0h1m9 0h1m-20 1h1m1 0h1m1 0h1m1 0h1m1 0h1m1 0h1m8 0h1M7 19h1m1 0h1m1 0h1m1 0h1m1 0h1m1 0h1m1 0h1m1 0h1m7 0h1M6 20h1m1 0h1m1 0h1m3 0h1m1 0h1m1 0h1m1 0h1m8 0h1M5 21h1m1 0h1m1 0h1m7 0h1m1 0h1m1 0h1m7 0h1M6 22h1m11 0h1m1 0h1m1 0h1m2 0h1m3 0h1m-11 1h1m1 0h1m7 0h1m-1 1h1m-1 1h1m-1 1h1m-1 1h1M1 28h1m27 0h1"/><path stroke="red" d="M18 5h2m1 0h3m-6 1h7m-7 1h3m1 0h3m-7 1h3m1 0h3m-7 1h3m1 0h3m-7 1h3m1 0h3m-7 1h3m1 0h3m-7 1h3m1 0h3m-7 1h3m1 0h3"/><path stroke="#0ff" d="M13 18h1m1 0h1m1 0h1m1 0h1m-6 1h1m1 0h1m-4 1h1m-4 1h1"/><path stroke="teal" d="M21 18h1m1 1h1m-2 1h1m1 0h1m-2 1h1m1 0h1M9 22h1m14 0h1M6 23h1m1 0h1m14 0h2m1 0h1M5 24h1m1 0h1m14 0h2m1 0h1M6 25h1m19 0h1m-2 1h1m1 0h1m-2 3h1"/><path stroke="#00f" d="M18 19h1m-4 1h1m1 0h1m1 0h1m-9 1h2m1 0h1m1 0h1m-9 1h1m1 0h1m6 0h1M7 23h1m-4 1h1m-2 1h1m1 2h1m-2 1h1m0 1h1"/><path stroke="navy" d="M11 22h1m1 0h1m1 0h1M4 23h1m4 0h2m1 0h1m1 0h1m1 0h1M6 24h1m1 0h2m1 0h1m1 0h1m1 0h1m1 0h1M4 25h2m1 0h1m4 0h3m1 0h1M3 26h5m8 0h1M3 27h1m2 0h1m11 0h1m3 0h3m2 0h1M3 28h1m1 0h1m9 0h1m2 0h2m3 0h1m1 0h2M3 29h1m2 0h1m7 0h1m1 0h1m1 0h1m4 0h2m2 0h1"/><path stroke="maroon" d="M25 23h1m-16 1h1m13 0h1m1 0h1M9 25h1m1 0h1m9 0h1m1 0h1m1 0h1M8 26h1m3 0h1m1 0h1m3 0h1m1 0h1m3 0h1m1 0h1M7 27h1m3 0h1m3 0h1m1 0h1m3 0h1m3 0h1M6 28h1m3 0h1m1 0h1m1 0h1m1 0h1m3 0h1m1 0h1M7 29h1m1 0h1m1 0h1m1 0h1m1 0h1m1 0h1"/><path stroke="green" d="M12 24h1m2 2h1m-2 1h1m1 0h1m9 0h1M9 28h1m1 0h1m1 0h1m3 0h1M8 29h1m1 0h1m1 0h1"/><path stroke="olive" d="M10 25h1m-2 1h1m1 0h1m9 0h1m1 0h1M8 27h1m1 0h1m1 0h1m6 0h1M7 28h1"/></svg>