<svg xmlns="http://www.w3.org/2000/svg" viewBox="0 -0.5 32 32" shape-rendering="crispEdges">
<path stroke="#ff0000" d="M0 0h1M10 0h3M10 1h3M10 2h3" />
<path stroke="#008000" d="M0 0h1M2 4h1M1 5h3M0 6h5M1 7h3M2 8h1" />
<path stroke="#000000" d="M0 0h1M10 4h4M8 5h2M14 5h2M7 6h1M11 6h6M6 7h1M10 7h2M15 7h3M5 8h2M9 8h1M17 8h2M24 8h3M5 9h1M8 9h1M18 9h1M22 9h4M27 9h2M5 10h1M8 10h1M13 10h4M18 10h1M20 10h2M26 10h1M29 10h1M4 11h1M8 11h1M12 11h2M16 11h2M20 11h1M27 11h1M29 11h1M4 12h1M7 12h1M12 12h1M14 12h2M18 12h2M27 12h1M30 12h1M4 13h1M7 13h1M12 13h1M16 13h2M19 13h1M28 13h1M30 13h1M4 14h1M7 14h1M12 14h1M18 14h2M29 14h1M31 14h1M4 15h1M7 15h1M12 15h1M29 15h1M31 15h1M4 16h1M7 16h1M12 16h1M29 16h1M31 16h1M4 17h1M7 17h1M12 17h1M24 17h2M29 17h1M31 17h1M5 18h1M8 18h1M12 18h1M23 18h2M26 18h1M29 18h1M31 18h1M5 19h1M8 19h1M12 19h2M23 19h2M26 19h1M29 19h1M31 19h1M5 20h2M8 20h1M14 20h2M23 20h4M29 20h1M31 20h1M6 21h1M9 21h1M16 21h2M24 21h2M29 21h1M31 21h1M7 22h1M10 22h2M15 22h2M18 22h1M29 22h1M31 22h1M8 23h2M11 23h5M18 23h1M29 23h1M31 23h1M10 24h4M18 24h1M29 24h1M31 24h1M19 25h1M29 25h1M31 25h1M19 26h1M28 26h3M20 27h1M28 27h1M30 27h1M20 28h1M27 28h3M21 29h1M26 29h3M22 30h6" />
<path stroke="#c0c0c0" d="M0 0h1M10 5h4M8 6h3M7 7h3M7 8h2M6 9h2M6 10h2M5 11h3M14 11h2M5 12h2M16 12h2M5 13h2M18 13h1M5 14h2M5 15h2M5 16h2M5 17h2M6 18h2M6 19h2M7 20h1M7 21h2M8 22h2M10 23h1" />
<path stroke="#808080" d="M0 0h1M12 7h3M10 8h7M9 9h9M26 9h1M9 10h4M17 10h1M27 10h2M9 11h3M28 11h1M8 12h4M28 12h2M8 13h4M29 13h1M8 14h4M30 14h1M8 15h4M30 15h1M8 16h4M30 16h1M8 17h4M30 17h1M9 18h3M30 18h1M9 19h3M30 19h1M9 20h5M30 20h1M10 21h6M30 21h1M12 22h3M30 22h1M30 23h1M30 24h1M30 25h1M29 27h1" />
<path stroke="#ffffff" d="M0 0h1M22 10h4M21 11h6M13 12h1M20 12h7M13 13h3M20 13h8M13 14h5M20 14h9M13 15h16M13 16h16M13 17h11M26 17h3M13 18h10M27 18h2M14 19h9M27 19h2M16 20h7M27 20h2M18 21h6M26 21h3M19 22h10M19 23h10M19 24h10M20 25h9M20 26h8M21 27h7M21 28h6M22 29h4" />
</svg>