<svg xmlns="http://www.w3.org/2000/svg" viewBox="0 -0.5 32 32" shape-rendering="crispEdges">
<path stroke="#000000" d="M0 0h1M15 1h4M14 2h1M19 2h1M14 3h8M13 4h4M19 4h1M13 5h3M19 5h1M14 6h1M18 6h1M14 7h1M18 7h1M12 8h3M19 8h3M11 9h1M22 9h1M26 9h2M11 10h1M23 10h1M25 10h1M28 10h1M11 11h1M13 11h1M24 11h1M28 11h1M10 12h1M13 12h1M21 12h1M23 12h1M27 12h1M10 13h1M13 13h1M21 13h1M23 13h1M26 13h1M21 14h2M24 14h3M21 15h2M26 15h1M21 16h1M23 16h1M25 16h2M23 17h2" />
<path stroke="#ffffff" d="M0 0h1M15 2h4M14 9h1M20 9h1M14 10h1M20 10h1M14 11h6M14 12h6M14 13h5M14 14h1" />
<path stroke="#808080" d="M0 0h1M17 4h2M15 7h2M0 14h4M5 14h4M10 14h4M15 14h4M0 15h1M4 15h1M9 15h1M14 15h1M19 15h1M0 16h1M4 16h1M9 16h1M14 16h1M19 16h1M0 17h22M0 18h2M6 18h1M11 18h1M16 18h1M21 18h1M0 19h2M6 19h1M11 19h1M16 19h1M21 19h1M0 20h29M0 21h1M4 21h1M9 21h1M14 21h1M19 21h1M24 21h1M29 21h1M0 22h1M4 22h1M9 22h1M14 22h1M19 22h1M24 22h1M29 22h1M0 23h32M0 24h2M6 24h1M11 24h1M16 24h1M21 24h1M26 24h1M31 24h1M0 25h2M6 25h1M11 25h1M16 25h1M21 25h1M26 25h1M31 25h1M0 26h32M0 27h1M4 27h1M9 27h1M14 27h1M19 27h1M24 27h1M29 27h1M31 27h1M0 28h1M4 28h1M9 28h1M14 28h1M19 28h1M24 28h1M29 28h1M31 28h1M0 29h1M3 29h8M13 29h13M27 29h5" />
<path stroke="#c0c0c0" d="M0 0h1M16 5h3M15 6h3M17 7h1M20 11h1M20 12h1M19 13h2M19 14h2M20 15h1M20 16h1" />
<path stroke="#000080" d="M0 0h1M15 8h4M12 9h2M15 9h5M21 9h1M12 10h2M15 10h5M21 10h2M12 11h1M21 11h3M11 12h2M22 12h1M11 13h2M22 13h1M23 14h1M23 15h3M24 16h1" />
<path stroke="#ff0000" d="M0 0h1M26 10h2M25 11h2M24 12h2M24 13h1M1 15h3M5 15h4M10 15h4M15 15h4M1 16h2M5 16h3M10 16h3M15 16h3M2 18h4M7 18h4M12 18h4M17 18h4M2 19h3M7 19h3M12 19h3M17 19h3M1 21h3M5 21h4M10 21h4M15 21h4M20 21h4M25 21h4M1 22h2M5 22h3M10 22h3M15 22h3M20 22h3M25 22h3M2 24h4M7 24h4M12 24h4M17 24h4M22 24h4M27 24h4M2 25h3M7 25h3M12 25h3M17 25h3M22 25h3M27 25h3M1 27h3M5 27h4M10 27h4M15 27h4M20 27h4M25 27h4M30 27h1M2 28h1M5 28h3M11 28h2M15 28h3M20 28h3M25 28h1M27 28h1M30 28h1" />
<path stroke="#800000" d="M0 0h1M27 11h1M26 12h1M25 13h1M3 16h1M8 16h1M13 16h1M18 16h1M5 19h1M10 19h1M15 19h1M20 19h1M3 22h1M8 22h1M13 22h1M18 22h1M23 22h1M28 22h1M5 25h1M10 25h1M15 25h1M20 25h1M25 25h1M30 25h1M3 28h1M8 28h1M18 28h1M23 28h1M28 28h1" />
<path stroke="#008000" d="M0 0h1M1 28h1M10 28h1M13 28h1M26 28h1M1 29h2M11 29h2M26 29h1M0 30h32M0 31h32" />
</svg>