<svg xmlns="http://www.w3.org/2000/svg" width="32" height="32" shape-rendering="crispEdges" viewBox="0 -0.5 32 32"><path stroke="#000" d="M6 0h2M6 1h3M6 2h5M6 3h7M6 4h1m2 0h4M6 5h1m3 0h3M6 6h1m5 0h1M3 7h4m5 0h1M2 8h1m1 0h3m5 0h1m10 0h2M2 9h1m1 0h3m5 0h1m12 0h1M2 10h5m2 0h4m13 0h1M3 11h3m2 0h1m1 0h3m14 0h1M8 12h1m1 0h3m14 0h1M8 13h5m15 0h1M9 14h3m16 0h1m0 1h1m-15 1h4m10 0h1m-16 1h1m4 0h1m9 0h1m-16 1h1m4 0h1m9 0h1m-16 1h1m4 0h1m9 0h1m-16 1h1m4 0h1m9 0h1m-15 1h4m10 0h1m-1 1h1m-2 1h1m-1 1h1m-2 1h1m-1 1h1m-2 1h1m-2 1h1m-3 1h2m-5 1h3m-10 1h7"/><path stroke="gray" d="M14 6h6m-9 1h1m1 0h1m6 0h3M9 8h3M8 9h1m-2 1h1m-2 1h1m-1 1h1m19 0h1M5 13h1m19 0h1m1 0h1M5 14h1m18 0h1m1 0h1M4 15h1m10 0h4m4 0h1m1 0h1m1 0h1M4 16h1m9 0h1m4 0h1m2 0h1m1 0h1m1 0h1m1 0h1M4 17h1m8 0h1m4 0h1m1 0h2m1 0h1m1 0h1m1 0h1M4 18h1m8 0h1m4 0h1m1 0h1M4 19h2m1 0h1m1 0h1m1 0h1m1 0h1m4 0h1m1 0h1M4 20h1m1 0h1m1 0h1m1 0h1m1 0h2m4 0h1m1 0h1M4 21h2m1 0h1m1 0h1m1 0h1m2 0h1m4 0h1M4 22h1m1 0h1m1 0h1m1 0h1m4 0h4M5 23h1m1 0h1m1 0h1m-5 1h2m1 0h1m-3 1h2m-2 1h1m0 1h1m0 1h1m0 1h2m11 0h1m-12 1h2"/><path stroke="#ff0" d="M14 7h3m-3 1h3m-3 1h3m-2 1h2m-2 1h2m-2 1h2m-2 1h2m-2 1h2m0 9h1m-2 1h2m-1 1h1m-2 1h2m-1 1h1m-2 1h3m-2 1h2m-3 1h3"/><path stroke="silver" d="M17 7h3m-3 1h6M3 9h1m13 0h8m-8 1h8M7 11h1m9 0h7m1 0h1M9 12h1m7 0h6m1 0h1m-8 1h5m1 0h1m2 0h1M6 14h2m9 0h4m1 0h1m2 0h1m1 0h1M5 15h5m1 0h2m6 0h1m1 0h1m2 0h1m1 0h1m1 0h1M5 16h6m1 0h2m9 0h1m1 0h1m1 0h1M5 17h7m10 0h1m1 0h1m1 0h1m1 0h1M5 18h8m8 0h8M6 19h1m1 0h1m1 0h1m1 0h1m8 0h8M5 20h1m1 0h1m1 0h1m1 0h1m9 0h8M6 21h1m1 0h1m1 0h1m2 0h1m6 0h9M5 22h1m1 0h1m1 0h1m2 0h1m1 0h1m5 0h9M6 23h1m1 0h1m2 0h1m1 0h4m1 0h1m2 0h7M7 24h1m2 0h1m1 0h4m3 0h1m2 0h6M9 25h1m1 0h6m2 0h1m3 0h4M8 26h1m1 0h6m4 0h1m3 0h3M9 27h8m3 0h1m4 0h1M9 28h7m5 0h1m-11 1h6m4 0h1m-9 1h3"/><path stroke="#fff" d="M3 8h1m21 2h1M9 11h1m14 0h1m1 0h1m-4 1h1m1 0h1m-4 1h1m1 0h1m-4 1h1m1 0h1m-4 1h1m1 0h1m-3 1h2m-10 5h1m-2 1h1m1 0h1m-4 1h1m1 0h1m-4 1h1m1 0h1m-4 1h1m1 0h1m-4 1h1m1 0h1m-2 1h1"/><path stroke="#0ff" d="M13 8h1m-3 1h1m1 0h1m-1 1h2m-2 1h2m-8 1h1m5 0h2m-9 1h2m5 0h2m-7 1h1m5 0h1m-5 1h1m0 1h1m0 1h1m6 5h1m-1 1h2m-1 1h2m-2 1h3m-2 1h3m-3 1h4m-3 1h3"/><path stroke="#0f0" d="M9 9h2m-3 1h1m3 4h2m-1 1h2m3 9h1m-1 1h1m-1 1h2m-2 1h2m-1 1h2m-2 1h2m-2 1h1"/></svg>