<svg xmlns="http://www.w3.org/2000/svg" viewBox="0 -0.5 16 16" shape-rendering="crispEdges">
<path stroke="#000000" d="M0 0h1M2 0h2M7 0h4M1 1h1M3 1h1M6 1h1M10 1h2M1 2h1M3 2h1M5 2h1M7 2h1M10 2h2M0 3h2M3 3h2M7 3h5M1 4h4M7 4h1M11 4h1M4 5h1M7 5h1M11 5h1M4 6h1M7 6h1M11 6h1M4 7h1M6 7h2M11 7h1M4 8h2M7 8h1M0 9h1M4 9h1M8 9h2M1 10h3M2 11h4M7 11h3M11 11h2M14 11h2M2 12h1M15 12h1M2 13h4M7 13h1M10 13h1M13 13h3M2 14h1M15 14h1M2 15h2M6 15h10" />
<path stroke="#808080" d="M0 0h1M2 1h1M7 1h2M0 2h1M2 2h1M6 2h1M8 2h1M2 3h1M5 3h2M0 4h1M6 4h1M8 4h3M0 5h4M6 5h1M0 6h1M6 6h1M0 7h1M5 7h1M12 7h2M0 8h1M8 8h2M1 9h3" />
<path stroke="#c0c0c0" d="M0 0h1M9 1h1M9 2h1M5 4h1M5 5h1M9 5h2M2 6h2M5 6h1M10 6h1M3 7h1M9 7h2M2 8h2M0 10h1" />
<path stroke="#ffff00" d="M0 0h1M8 5h1M1 6h1M8 7h1M1 8h1" />
<path stroke="#ffffff" d="M0 0h1M8 6h2M1 7h2M3 12h3M7 12h2M11 12h1M14 12h1M3 14h2M7 14h8" />
<path stroke="#000080" d="M0 0h1M10 8h4M10 9h1M13 9h1M10 10h1M13 10h1M6 11h1M10 11h1M13 11h1M6 12h1M9 12h2M12 12h2M6 13h1M8 13h2M11 13h2M5 14h2M4 15h2" />
</svg>