<svg xmlns="http://www.w3.org/2000/svg" viewBox="0 -0.5 16 16" shape-rendering="crispEdges">
<path stroke="#000000" d="M0 0h1M2 0h2M2 1h4M2 2h1M4 2h2M2 3h1M5 3h1M13 3h1M1 4h2M5 4h1M14 4h1M0 5h3M5 5h1M14 5h1M0 6h2M4 6h2M15 6h1M3 7h3M8 7h1M15 7h1M3 8h2M7 8h1M9 8h1M15 8h1M8 9h1M15 9h1M15 10h1M14 11h1M14 12h1M13 13h1M11 14h2M8 15h3" />
<path stroke="#808080" d="M0 0h1M6 1h5M11 2h2M3 3h2M4 4h1M1 7h1M7 7h1M9 7h1M1 8h1M1 9h1M7 9h1M9 9h1M1 10h1M2 11h1M2 12h1M3 13h1M4 14h2M6 15h2" />
<path stroke="#ffff00" d="M0 0h1M6 2h2M6 3h2M6 4h2M6 5h2M7 6h1M10 10h1M10 11h1M10 12h2M11 13h2" />
<path stroke="#c0c0c0" d="M0 0h1M8 2h3M8 3h5M8 4h4M13 4h1M8 5h3M12 5h2M2 6h2M8 6h2M11 6h4M2 7h1M10 7h5M2 8h1M10 8h5M2 9h4M11 9h4M2 10h3M6 10h2M12 10h3M3 11h1M5 11h4M13 11h1M4 12h5M4 13h5M6 14h3" />
<path stroke="#00ffff" d="M0 0h1M3 4h1M4 5h1M6 6h1M6 7h1M10 9h1M11 10h1M11 11h2M12 12h2" />
<path stroke="#ffffff" d="M0 0h1M12 4h1M11 5h1M10 6h1M8 8h1M6 9h1M5 10h1M8 10h1M4 11h1M3 12h1" />
<path stroke="#00ff00" d="M0 0h1M3 5h1M5 8h2M9 10h1M9 11h1M9 12h1M9 13h2M9 14h2" />
</svg>