<svg xmlns="http://www.w3.org/2000/svg" width="16" height="16" shape-rendering="crispEdges" viewBox="0 -0.5 16 16"><path stroke="#000" d="M2 0h2m3 0h4M1 1h1m1 0h1m2 0h1m3 0h2M1 2h1m1 0h1m1 0h1m1 0h1m2 0h2M0 3h2m1 0h2m2 0h5M1 4h4m2 0h1m3 0h1M4 5h1m2 0h1m3 0h1M4 6h1m2 0h1m3 0h1M4 7h1m1 0h2m3 0h1M4 8h2m1 0h1M0 9h1m3 0h1m3 0h2m-9 1h3m-2 1h4m1 0h3m1 0h2m1 0h2M2 12h1m12 0h1M2 13h4m1 0h1m2 0h1m2 0h3M2 14h1m12 0h1M2 15h2m2 0h10"/><path stroke="gray" d="M2 1h1m4 0h2M0 2h1m1 0h1m3 0h1m1 0h1M2 3h1m2 0h2M0 4h1m5 0h1m1 0h3M0 5h4m2 0h1M0 6h1m5 0h1M0 7h1m4 0h1m6 0h2M0 8h1m7 0h2M1 9h3"/><path stroke="silver" d="M9 1h1M9 2h1M5 4h1M5 5h1m3 0h2M2 6h2m1 0h1m4 0h1M3 7h1m5 0h2M2 8h2m-4 2h1"/><path stroke="#ff0" d="M8 5h1M1 6h1m6 1h1M1 8h1"/><path stroke="#fff" d="M8 6h2M1 7h2m0 5h3m1 0h2m2 0h1m2 0h1M3 14h2m2 0h8"/><path stroke="navy" d="M10 8h4m-4 1h1m2 0h1m-4 1h1m2 0h1m-8 1h1m3 0h1m2 0h1m-8 1h1m2 0h2m1 0h2m-8 1h1m1 0h2m1 0h2m-8 1h2m-3 1h2"/></svg>