<svg xmlns="http://www.w3.org/2000/svg" viewBox="0 -0.5 16 16" shape-rendering="crispEdges">
<path stroke="#808080" d="M0 0h1M3 0h2M6 0h5M3 1h1M5 1h2M11 1h2M3 2h1M7 2h2M13 2h1M2 3h2M9 3h2M2 4h2M1 5h1M3 5h1M1 6h1M3 6h1M1 7h3M11 7h2M0 8h1M2 8h2M0 9h1M4 9h2M8 9h1M12 9h1M0 10h1M6 10h2M10 10h3M0 11h1M8 11h5M8 12h5M8 13h4M8 14h2" />
<path stroke="#ffffff" d="M0 0h1M4 1h1M7 1h1M6 2h1M6 3h3M6 4h1M8 4h1M4 5h3M8 5h1M4 6h3M8 6h1M4 7h1M6 7h1M8 7h1M1 8h1M4 8h1M6 8h1M8 8h1M12 8h1M2 9h2M6 9h2M10 9h2M4 10h2M8 10h2M6 11h2" />
<path stroke="#c0c0c0" d="M0 0h1M8 1h1M5 2h1M4 4h1M9 4h1M9 5h1M2 6h1M9 6h1M9 7h1M9 8h1M1 9h1M1 10h3M1 11h5M2 12h6M4 13h4M6 14h2" />
<path stroke="#008080" d="M0 0h1M9 1h2M11 4h1M11 5h1M14 6h1" />
<path stroke="#ff0000" d="M0 0h1M4 2h1M4 3h2M5 4h1" />
<path stroke="#008000" d="M0 0h1M9 2h4M11 3h3M12 4h2M12 5h2" />
<path stroke="#000000" d="M0 0h1M14 3h1M10 4h1M14 4h1M10 5h1M15 5h1M10 6h1M15 6h1M10 7h1M15 7h1M10 8h2M13 8h1M15 8h1M9 9h1M13 9h1M15 9h1M13 10h1M15 10h1M13 11h2M0 12h2M13 12h2M2 13h2M12 13h2M4 14h2M10 14h2M6 15h4" />
<path stroke="#0000ff" d="M0 0h1M7 4h1M2 5h1M7 5h1M14 5h1M7 6h1M11 6h3M5 7h1M7 7h1M13 7h1M5 8h1M7 8h1" />
<path stroke="#000080" d="M0 0h1M14 7h1M14 8h1M14 9h1M14 10h1" />
</svg>