<svg xmlns="http://www.w3.org/2000/svg" width="16" height="16" shape-rendering="crispEdges" viewBox="0 -0.5 16 16"><path stroke="gray" d="M0 0h14M0 1h1m14 0h1M0 2h1m14 0h1M0 3h1m14 0h1M0 4h1m14 0h1M0 5h1m14 0h1M0 6h1m14 0h1M0 7h1m14 0h1M0 8h1m14 0h1M0 9h1m14 0h1M0 10h1m14 0h1M0 11h1m14 0h1M0 12h1m14 0h1M0 13h1m14 0h1m-1 1h1M1 15h15"/><path stroke="#000" d="M14 0h1m-1 1h1m-1 1h1M2 3h2m1 0h1m1 0h2m5 0h1M2 4h1m1 0h1m1 0h2m6 0h1M2 5h1m1 0h1m1 0h1m1 0h1m5 0h1M2 6h1m1 0h1m1 0h2m4 0h1m1 0h1m-1 1h1m-1 1h1m-1 1h1m-1 1h1m-4 1h1m2 0h1m-8 1h1m4 0h1m1 0h1m-1 1h1M0 14h15"/><path stroke="#fff" d="M1 1h13M1 2h13M1 3h1m10 0h2M1 4h1m8 0h1m1 0h2M1 5h1m1 0h1m1 0h1m1 0h1m2 0h1m1 0h2M1 6h1m1 0h1m1 0h1m4 0h1m2 0h1M1 7h13M1 8h13M1 9h5m3 0h5M1 10h3m7 0h3M1 11h2m9 0h2M1 12h1m11 0h1M1 13h1m11 0h1"/><path stroke="silver" d="M4 3h1m1 0h1m4 0h1M3 4h1m1 0h1m2 0h1M8 6h1m-5 5h1m4 0h1m-1 1h1"/><path stroke="red" d="M9 3h2M9 4h1m1 0h1M9 5h1m1 0h1M9 6h1m1 0h1"/><path stroke="navy" d="M6 9h3m-5 1h2m2 0h3m-8 1h1m1 0h1m-4 1h2m1 0h2m-5 1h2m3 0h1"/><path stroke="#0ff" d="M6 10h2"/><path stroke="#00f" d="M6 11h2m-4 1h1"/><path stroke="teal" d="M10 11h1m-1 1h1m0 1h2"/><path stroke="maroon" d="M11 12h1m-7 1h2m1 0h1"/><path stroke="olive" d="M4 13h1m4 0h2"/></svg>