<svg xmlns="http://www.w3.org/2000/svg" width="32" height="32" shape-rendering="crispEdges" viewBox="0 -0.5 32 32"><path stroke="gray" d="M10 0h3m1 0h8M8 1h3m2 0h2m2 0h1m4 0h2M6 2h3m2 0h2m2 0h2m7 0h2M6 3h1m2 0h2m2 0h2m2 0h2M6 4h1m4 0h2m2 0h2m2 0h2m6 0h1M6 5h1m6 0h2m2 0h2m2 0h2m5 0h1M6 6h1m8 0h2m2 0h2M6 7h1m10 0h2M5 8h2M5 9h2m-3 1h1m1 0h1m-3 1h1m1 0h1m-3 1h1m1 0h1m-3 1h1m1 0h1m-3 1h3m-5 1h2m2 0h1m16 0h1M0 16h2m2 0h3m17 0h2M0 17h1m1 0h5m19 0h2M0 18h1m3 0h3m19 0h1M0 19h1m3 0h3m17 0h3M0 20h1m4 0h2m15 0h5M0 21h1m4 0h2m13 0h7M0 22h1m5 0h1m11 0h9M0 23h1m5 0h3m7 0h11M0 24h1m7 0h2m5 0h12m-12 1h11m1 0h1m-13 1h9m-9 1h7m-7 1h5m-5 1h3m-3 1h1"/><path stroke="#fff" d="M13 0h1M7 4h1M7 5h1M7 6h1m3 0h2M7 7h1m3 0h4M7 8h3m1 0h6M7 9h10M5 10h1m1 0h5m1 0h4M7 11h5m1 0h4M7 12h5m1 0h1m1 0h2M7 13h5m1 0h1m1 0h2M7 14h5m1 0h1m1 0h2M4 15h2m1 0h5m1 0h1m1 0h2M2 16h2m3 0h5m1 0h1m1 0h2m6 0h1M1 17h1m5 0h5m1 0h1m1 0h2m7 0h2M2 18h2m3 0h1m1 0h3m1 0h1m1 0h2m7 0h2M3 19h1m3 0h1m1 0h5m1 0h2m5 0h2M4 20h1m2 0h1m1 0h8m3 0h2M4 21h1m2 0h1m1 0h7m2 0h2M5 22h1m1 0h1m1 0h2m5 0h2M5 23h1m3 0h1m1 0h5M6 24h2m2 0h1m-3 1h2"/><path stroke="silver" d="M11 1h2m3 0h1M9 2h2m2 0h2M7 3h2m2 0h2m2 0h2M9 4h2m2 0h2m2 0h2m-8 1h2m2 0h2m2 0h2m-8 1h2m2 0h2m2 0h1m-7 1h2m2 0h1m1 0h1m-5 1h1m1 0h1m1 0h1m-5 1h1m1 0h1m1 0h1m-5 1h1m1 0h1m1 0h1m-5 1h1m1 0h1m1 0h1M5 12h1m11 0h1m1 0h1m1 0h1M5 13h1m11 0h1m1 0h1m1 0h1m-5 1h1m1 0h1m1 0h1m-5 1h1m1 0h1m1 0h1m-5 1h1m1 0h1m1 0h1m-5 1h1m1 0h1m1 0h1m1 0h1M1 18h1m15 0h1m1 0h1m1 0h3M1 19h2m14 0h1m1 0h3M1 20h3m13 0h3M1 21h3m12 0h2M1 22h4m6 0h5M1 23h4m5 0h1m-9 1h4m5 0h4M4 25h4m2 0h5m-9 1h9m-7 1h7m-5 1h5m-3 1h3m-1 1h1"/><path stroke="teal" d="M15 1h1m3 0h3m-3 1h1m7 4h1m-5 1h1m3 2h1m-4 1h1M5 11h1m17 3h1"/><path stroke="#00f" d="M18 1h1m1 1h1m2 6h1m-12 2h1m10 0h1m-12 1h1m11 0h4m-16 1h1m1 0h1m11 0h3m-17 1h1m1 0h1m10 0h3m1 0h1m-18 1h1m1 0h1m10 0h3m-16 1h1m1 0h1m9 0h3m1 0h1m-17 1h1m1 0h1m11 0h2m-16 1h1m1 0h1m-7 1h1m3 0h1m1 0h1m-7 1h1m5 0h1m-7 1h1m-1 1h1m-1 1h1"/><path stroke="green" d="M17 2h2m2 0h3m-5 1h7m-5 1h6m-4 1h4m-4 1h4m-3 1h3m1 0h1m-5 1h4m1 0h1m-7 1h4m1 0h1m-4 1h3m1 0h1m-2 1h1m1 0h1m-8 1h1m5 0h1m-7 1h1m6 0h1m-2 1h1"/><path stroke="#000" d="M26 3h1m0 2h1m-6 1h1m6 0h1M20 7h1m1 0h1m4 0h1m1 0h1M18 8h1m1 0h1m1 0h1m7 0h1M18 9h1m1 0h1m1 0h1m7 0h1m-13 1h1m1 0h1m1 0h1m8 0h1m-14 1h1m1 0h1m1 0h1m8 0h1m-14 1h1m1 0h1m1 0h1m8 0h1m-14 1h1m1 0h1m1 0h1m8 0h1m-14 1h1m1 0h1m1 0h1m8 0h1m-14 1h1m1 0h1m1 0h1m8 0h1m-14 1h1m1 0h1m1 0h1m8 0h1m-14 1h1m1 0h1m1 0h1m8 0h1m-14 1h1m1 0h1m6 0h1m2 0h1m-13 1h1m8 0h1m2 0h1m-4 1h1m1 0h1m-3 1h1m1 0h1m-3 1h2m-2 1h1M1 24h1m25 0h1M2 25h2m22 0h1M4 26h2m18 0h2M6 27h2m14 0h2M8 28h2m10 0h2m-12 1h2m6 0h2m-8 1h2m2 0h2m-4 1h2"/><path stroke="red" d="M8 4h1m0 1h1M8 6h3M8 7h1m1 0h1"/><path stroke="maroon" d="M8 5h1m1 0h1M9 7h1m0 1h1"/><path stroke="navy" d="M28 6h1m-1 2h1m0 1h1m-2 1h1m1 0h1m-8 1h1m5 0h1m-6 1h2m4 0h1m-7 1h1m3 0h1m-5 1h1m3 0h1m1 0h1m-4 1h1m1 0h2m-3 1h3m-3 1h3m-3 1h2m-2 1h2m-2 1h1m-1 1h1"/></svg>