<svg xmlns="http://www.w3.org/2000/svg" viewBox="0 -0.5 32 32" shape-rendering="crispEdges">
<path stroke="#ffff00" d="M0 0h1M19 3h1M22 3h1M24 5h1M24 8h1M20 9h1M22 9h1M19 24h1" />
<path stroke="#008080" d="M0 0h1M20 4h2M18 5h2M24 6h1M23 7h1M20 8h2M23 8h1M21 9h1M19 17h1" />
<path stroke="#ffffff" d="M0 0h1M20 5h3M20 6h3M20 7h3M9 15h21M9 16h3M15 16h3M21 16h3M27 16h3M9 17h3M13 17h1M15 17h3M21 17h3M27 17h3M9 18h2M15 18h2M21 18h2M28 18h2M9 19h2M15 19h3M21 19h2M28 19h2M9 20h21M9 21h2M15 21h2M22 21h2M28 21h2M9 22h21M9 23h4M15 23h2M22 23h2M28 23h2M9 24h3M13 24h1M15 24h2M21 24h3M28 24h2M9 25h2M15 25h3M20 25h4M28 25h2M9 26h21M9 27h2M15 27h2M22 27h2M28 27h2M9 28h21" />
<path stroke="#000000" d="M0 0h1M16 6h4M12 7h4M19 7h1M7 8h5M17 8h3M3 9h4M13 9h4M0 10h3M8 10h5M0 11h1M4 11h4M0 12h4M8 12h23M8 13h1M30 13h1M8 14h23M8 15h1M30 15h1M8 16h1M12 16h3M18 16h3M26 16h1M30 16h1M8 17h1M12 17h1M14 17h1M18 17h1M20 17h1M26 17h1M30 17h1M8 18h1M11 18h4M17 18h4M23 18h1M26 18h2M30 18h1M8 19h1M12 19h3M18 19h3M23 19h5M30 19h1M8 20h1M30 20h1M8 21h1M11 21h4M17 21h5M24 21h4M30 21h1M8 22h1M30 22h1M8 23h1M14 23h1M17 23h5M24 23h4M30 23h1M8 24h1M12 24h1M17 24h2M20 24h1M24 24h1M27 24h1M30 24h1M8 25h1M14 25h1M18 25h2M24 25h4M30 25h1M8 26h1M30 26h1M8 27h1M11 27h4M17 27h5M24 27h4M30 27h1M8 28h1M30 28h1M8 29h23" />
<path stroke="#00ffff" d="M0 0h1M9 13h21M25 24h1" />
<path stroke="#808080" d="M0 0h1M31 13h1M31 14h1M31 15h1M24 16h2M31 16h1M24 17h1M31 17h1M24 18h2M31 18h1M11 19h1M31 19h1M31 20h1M31 21h1M31 22h1M31 23h1M31 24h1M31 25h1M31 26h1M31 27h1M31 28h1M31 29h1M9 30h23" />
<path stroke="#0000ff" d="M0 0h1M25 17h1M26 24h1" />
<path stroke="#800080" d="M0 0h1M13 23h1M14 24h1M11 25h3" />
</svg>