<svg xmlns="http://www.w3.org/2000/svg" width="32" height="32" shape-rendering="crispEdges" viewBox="0 -0.5 32 32"><path stroke="#ff0" d="M19 3h1m2 0h1m1 2h1m-1 3h1m-5 1h1m1 0h1m-4 15h1"/><path stroke="teal" d="M20 4h2m-4 1h2m4 1h1m-2 1h1m-4 1h2m1 0h1m-3 1h1m-3 8h1"/><path stroke="#fff" d="M20 5h3m-3 1h3m-3 1h3M9 15h21M9 16h3m3 0h3m3 0h3m3 0h3M9 17h3m1 0h1m1 0h3m3 0h3m3 0h3M9 18h2m4 0h2m4 0h2m5 0h2M9 19h2m4 0h3m3 0h2m5 0h2M9 20h21M9 21h2m4 0h2m5 0h2m4 0h2M9 22h21M9 23h4m2 0h2m5 0h2m4 0h2M9 24h3m1 0h1m1 0h2m4 0h3m4 0h2M9 25h2m4 0h3m2 0h4m4 0h2M9 26h21M9 27h2m4 0h2m5 0h2m4 0h2M9 28h21"/><path stroke="#000" d="M16 6h4m-8 1h4m3 0h1M7 8h5m5 0h3M3 9h4m6 0h4M0 10h3m5 0h5M0 11h1m3 0h4m-8 1h4m4 0h23M8 13h1m21 0h1M8 14h23M8 15h1m21 0h1M8 16h1m3 0h3m3 0h3m5 0h1m3 0h1M8 17h1m3 0h1m1 0h1m3 0h1m1 0h1m5 0h1m3 0h1M8 18h1m2 0h4m2 0h4m2 0h1m2 0h2m2 0h1M8 19h1m3 0h3m3 0h3m2 0h5m2 0h1M8 20h1m21 0h1M8 21h1m2 0h4m2 0h5m2 0h4m2 0h1M8 22h1m21 0h1M8 23h1m5 0h1m2 0h5m2 0h4m2 0h1M8 24h1m3 0h1m4 0h2m1 0h1m3 0h1m2 0h1m2 0h1M8 25h1m5 0h1m3 0h2m4 0h4m2 0h1M8 26h1m21 0h1M8 27h1m2 0h4m2 0h5m2 0h4m2 0h1M8 28h1m21 0h1M8 29h23"/><path stroke="#0ff" d="M9 13h21m-5 11h1"/><path stroke="gray" d="M31 13h1m-1 1h1m-1 1h1m-8 1h2m5 0h1m-8 1h1m6 0h1m-8 1h2m5 0h1m-21 1h1m19 0h1m-1 1h1m-1 1h1m-1 1h1m-1 1h1m-1 1h1m-1 1h1m-1 1h1m-1 1h1m-1 1h1m-1 1h1M9 30h23"/><path stroke="#00f" d="M25 17h1m0 7h1"/><path stroke="purple" d="M13 23h1m0 1h1m-4 1h3"/></svg>