<svg xmlns="http://www.w3.org/2000/svg" width="32" height="32" shape-rendering="crispEdges" viewBox="0 -0.5 32 32"><path stroke="gray" d="M0 0h26M0 1h1m24 0h1M0 2h1m24 0h1M0 3h1m24 0h1M0 4h1m24 0h1M0 5h1m24 0h1M0 6h1m24 0h1M0 7h1m1 0h22m1 0h1M0 8h1m1 0h1m22 0h1M0 9h1m1 0h1m22 0h1M0 10h1m1 0h1m22 0h1m2 0h1M0 11h1m1 0h1m22 0h1m1 0h1M0 12h1m1 0h1m18 0h1m3 0h2M0 13h1m1 0h1m15 0h1m2 0h1M0 14h1m1 0h1m19 0h1m1 0h2M0 15h1m1 0h1m19 0h1m2 0h1M0 16h1m1 0h1m19 0h1m2 0h1m2 0h2M0 17h1m1 0h1m20 0h1m1 0h3M0 18h1m1 0h1m15 0h1m4 0h1M0 19h1m1 0h1m16 0h1m3 0h1m1 0h1M0 20h1m1 0h1m16 0h1m3 0h1m1 0h1M0 21h1m18 0h1m3 0h1m1 0h7M0 22h8m10 0h2m3 0h3m-3 1h1m-6 1h2m3 0h1m1 0h1m-8 1h1m4 0h1m2 0h2m-10 1h1m3 0h1m5 0h2m-13 1h2m3 0h1m-1 1h1m1 0h1m-4 1h1m3 0h1m-5 1h1m4 0h1"/><path stroke="#000" d="M26 0h1m-1 1h1m-1 1h1m-9 1h1m2 0h1m2 0h1m1 0h1m-9 1h1m2 0h1m2 0h1m1 0h1M16 5h9m1 0h1m-1 1h1m-1 1h1m-1 1h1m-1 1h1m-1 1h1m-8 1h2m5 0h1m-8 1h1m-1 1h1m6 0h1m-9 1h1m7 0h1m-9 1h1m7 0h1m-9 1h1m7 0h1m-10 1h1m-1 1h1m8 0h1m-10 1h2m7 0h1m-10 1h1m2 0h1m5 0h1m-10 1h1m2 0h1m-4 1h1m2 0h1m5 0h1M0 23h8m9 0h3m4 0h3m-10 1h1m-8 1h3m4 0h1m-5 1h1m3 0h1m-4 1h1m0 1h1m2 0h1m-3 1h1m1 0h1m-2 1h1m1 0h1m-2 1h3"/><path stroke="silver" d="M1 1h24M1 2h1M1 3h1m14 0h2m1 0h2m1 0h2M1 4h1m14 0h2m1 0h2m1 0h2M1 5h1M1 6h24M1 7h1m22 0h1M1 8h1m22 0h1M1 9h1m22 0h1M1 10h1m22 0h1M1 11h1m22 0h1M1 12h1m16 0h1m1 0h1m3 0h1M1 13h1m15 0h1m2 0h1m3 0h2M1 14h1m14 0h1m2 0h1M1 15h1m13 0h1m3 0h1m4 0h1M1 16h1m12 0h1m4 0h1m4 0h1M1 17h1m11 0h1m4 0h2m4 0h1M1 18h1m17 0h1m4 0h2M1 19h1m22 0h1M1 20h1m22 0h1M1 21h7m10 0h1m5 0h1m-15 1h1m1 0h1m1 0h1m1 0h1m-4 1h1m1 0h1m4 0h1m-7 1h1m1 0h1m3 0h1m-8 1h1m1 0h1m3 0h1m-4 1h1m2 0h1m-1 1h1m-1 1h1m-1 1h1m0 1h1"/><path stroke="navy" d="M2 2h23M2 3h14M2 4h14M2 5h14"/><path stroke="#fff" d="M3 8h21M3 9h21M3 10h21M3 11h15m3 0h3M3 12h14m5 0h2M3 13h13m6 0h2M3 14h12m5 0h2m1 0h1M3 15h11m3 0h1m2 0h2m1 0h1M3 16h10m3 0h1m3 0h2m1 0h1M3 17h9m3 0h1m4 0h3M3 18h6m5 0h1m1 0h1m3 0h3M3 19h5m1 0h1m2 0h5m3 0h3M3 20h5m1 0h2m1 0h1m1 0h1m1 0h1m1 0h1m2 0h2M9 21h1m3 0h1m1 0h2m4 0h2M9 22h1m11 0h2M9 23h1m11 0h2m-2 1h2m-3 1h3m-3 1h2m-2 1h2m-2 1h2m-2 1h1"/><path stroke="olive" d="M18 11h1m-2 1h1m-2 1h1m-2 1h1m-2 1h1m-2 1h1m-2 1h1m-4 1h3m-4 1h1m2 0h1m-4 1h1m2 0h1m-4 1h1m2 0h1m-4 1h1m2 0h1m-4 1h1m2 0h1m-3 1h4m1 2h1m0 1h2m-1 1h2m-1 1h1m0 1h1"/><path stroke="#ff0" d="M17 14h1m-2 1h1m-2 1h1m1 0h1m-4 1h1m1 0h1m-5 1h2m1 0h1m-6 1h1m2 1h1m1 0h1m-6 1h1m1 0h1m1 0h1m-2 1h1m1 0h1m-6 1h1m1 0h1m1 0h1m1 0h1m-4 1h1m1 0h1m-2 1h1m1 0h1m-2 1h1"/></svg>