<svg xmlns="http://www.w3.org/2000/svg" viewBox="0 -0.5 16 16" shape-rendering="crispEdges">
<path stroke="#808080" d="M0 0h1M3 0h1M6 0h1M9 0h1M12 0h1M2 1h2M5 1h2M8 1h2M11 1h2M14 1h1M2 2h1M1 3h1M4 3h2M14 3h1M0 4h1M2 4h2M6 4h2M13 4h1M1 5h1M9 5h1M11 5h1M0 6h1M0 7h1M4 7h1M0 8h1M4 8h1M0 9h1M10 9h5M14 10h1M1 11h1M14 11h1M1 12h1M6 12h6M14 12h1M1 13h1M14 13h1M1 14h14" />
<path stroke="#000000" d="M0 0h1M4 0h1M7 0h1M10 0h1M13 0h1M4 1h1M7 1h1M10 1h1M13 1h1M15 1h1M3 2h2M6 2h2M9 2h2M12 2h2M15 2h1M3 3h1M6 3h1M9 3h1M12 3h1M15 3h1M14 4h2M0 5h1M8 5h1M10 5h1M12 5h3M9 6h5M5 7h1M9 7h1M5 8h1M9 8h1M9 9h1M1 10h1M8 10h1M15 10h1M2 11h2M6 11h2M15 11h1M4 12h2M15 12h1M15 13h1M15 14h1M2 15h13" />
<path stroke="#c0c0c0" d="M0 0h1M5 2h1M8 2h1M11 2h1M14 2h1M2 3h1M8 3h1M11 3h1M6 5h2M6 6h1M8 6h1M1 7h1M6 7h3M1 8h3M7 8h2M1 9h3M5 9h1M2 10h1M4 10h2M4 11h2M8 11h6M2 12h1M12 12h2M2 13h4M12 13h2" />
<path stroke="#ffffff" d="M0 0h1M7 3h1M10 3h1M13 3h1M1 4h1M8 4h5M7 6h1M4 9h1M3 10h1M9 10h5M6 13h6" />
<path stroke="#ffff00" d="M0 0h1M4 4h2M4 5h2M4 6h2M6 9h1M7 10h1" />
<path stroke="#00ffff" d="M0 0h1M2 5h2M3 6h1M6 8h1M7 9h2" />
<path stroke="#00ff00" d="M0 0h1M1 6h2M2 7h2M6 10h1M3 12h1" />
</svg>