<svg xmlns="http://www.w3.org/2000/svg" viewBox="0 -0.5 16 16" shape-rendering="crispEdges">
<path stroke="#808080" d="M0 0h1M3 0h10M3 1h1M12 1h2M3 2h1M12 2h1M14 2h1M3 3h1M12 3h1M3 4h1M3 5h1M3 6h2M6 6h5M13 6h1M3 7h1M5 7h1M11 7h3M3 8h2M3 9h1M6 9h1M9 9h1M3 10h1M6 10h1M3 11h1M3 12h1M3 13h1M3 14h1" />
<path stroke="#ffffff" d="M0 0h1M4 1h8M4 2h8M13 2h1M4 3h8M4 4h10M4 5h10M5 6h1M11 6h2M5 9h1M4 10h2M12 10h2M4 11h10M4 12h10M4 13h10" />
<path stroke="#000000" d="M0 0h1M13 3h3M15 4h1M15 5h1M15 6h1M9 7h1M15 7h1M5 8h4M11 8h3M15 8h1M4 9h1M11 9h1M13 9h1M15 9h1M7 10h5M15 10h1M15 11h1M15 12h1M15 13h1M15 14h1M3 15h13" />
<path stroke="#ff0000" d="M0 0h1M1 4h1M0 5h1M0 6h1M2 6h1M1 7h2M1 9h1M0 10h1M0 11h1M2 11h1M1 12h2" />
<path stroke="#c0c0c0" d="M0 0h1M14 4h1M14 5h1M14 6h1M4 7h1M6 7h3M10 7h1M14 7h1M9 8h2M14 8h1M7 9h2M10 9h1M12 9h1M14 9h1M14 10h1M14 11h1M14 12h1M14 13h1M4 14h11" />
</svg>