<svg xmlns="http://www.w3.org/2000/svg" width="16" height="16" shape-rendering="crispEdges" viewBox="0 -0.5 16 16"><path stroke="gray" d="M3 0h10M3 1h1m8 0h2M3 2h1m8 0h1m1 0h1M3 3h1m8 0h1M3 4h1M3 5h1M3 6h2m1 0h5m2 0h1M3 7h1m1 0h1m5 0h3M3 8h2M3 9h1m2 0h1m2 0h1m-7 1h1m2 0h1m-4 1h1m-1 1h1m-1 1h1m-1 1h1"/><path stroke="#fff" d="M4 1h8M4 2h8m1 0h1M4 3h8M4 4h10M4 5h10M5 6h1m5 0h2M5 9h1m-2 1h2m6 0h2M4 11h10M4 12h10M4 13h10"/><path stroke="#000" d="M13 3h3m-1 1h1m-1 1h1m-1 1h1M9 7h1m5 0h1M5 8h4m2 0h3m1 0h1M4 9h1m6 0h1m1 0h1m1 0h1m-9 1h5m3 0h1m-1 1h1m-1 1h1m-1 1h1m-1 1h1M3 15h13"/><path stroke="red" d="M1 4h1M0 5h1M0 6h1m1 0h1M1 7h2M1 9h1m-2 1h1m-1 1h1m1 0h1m-2 1h2"/><path stroke="silver" d="M14 4h1m-1 1h1m-1 1h1M4 7h1m1 0h3m1 0h1m3 0h1M9 8h2m3 0h1M7 9h2m1 0h1m1 0h1m1 0h1m-1 1h1m-1 1h1m-1 1h1m-1 1h1M4 14h11"/></svg>