<svg xmlns="http://www.w3.org/2000/svg" width="16" height="16" shape-rendering="crispEdges" viewBox="0 -0.5 16 16"><path stroke="gray" d="M3 0h1m2 0h1m2 0h1m2 0h1M2 1h2m1 0h2m1 0h2m1 0h2m1 0h1M2 2h1M1 3h1m2 0h2m8 0h1M0 4h1m1 0h2m2 0h2m5 0h1M1 5h1m7 0h1m1 0h1M0 6h1M0 7h1m3 0h1M0 8h1m3 0h1M0 9h1m9 0h5m-1 1h1M1 11h1m12 0h1M1 12h1m4 0h6m2 0h1M1 13h1m12 0h1M1 14h14"/><path stroke="#000" d="M4 0h1m2 0h1m2 0h1m2 0h1M4 1h1m2 0h1m2 0h1m2 0h1m1 0h1M3 2h2m1 0h2m1 0h2m1 0h2m1 0h1M3 3h1m2 0h1m2 0h1m2 0h1m2 0h1m-2 1h2M0 5h1m7 0h1m1 0h1m1 0h3M9 6h5M5 7h1m3 0h1M5 8h1m3 0h1M9 9h1m-9 1h1m6 0h1m6 0h1M2 11h2m2 0h2m7 0h1M4 12h2m9 0h1m-1 1h1m-1 1h1M2 15h13"/><path stroke="silver" d="M5 2h1m2 0h1m2 0h1m2 0h1M2 3h1m5 0h1m2 0h1M6 5h2M6 6h1m1 0h1M1 7h1m4 0h3M1 8h3m3 0h2M1 9h3m1 0h1m-4 1h1m1 0h2m-2 1h2m2 0h6M2 12h1m9 0h2M2 13h4m6 0h2"/><path stroke="#fff" d="M7 3h1m2 0h1m2 0h1M1 4h1m6 0h5M7 6h1M4 9h1m-2 1h1m5 0h5m-8 3h6"/><path stroke="#ff0" d="M4 4h2M4 5h2M4 6h2m0 3h1m0 1h1"/><path stroke="#0ff" d="M2 5h2M3 6h1m2 2h1m0 1h2"/><path stroke="#0f0" d="M1 6h2M2 7h2m2 3h1m-4 2h1"/></svg>