<svg xmlns="http://www.w3.org/2000/svg" width="16" height="16" shape-rendering="crispEdges" viewBox="0 -0.5 16 16"><path stroke="gray" d="M0 0h13M0 1h1M0 2h1M0 3h12M0 4h1M0 5h1M0 6h1m6 0h1m1 0h2M0 7h1m14 0h1M0 8h1m7 0h1m2 0h1m2 0h1M0 9h1m10 0h1m1 0h1M0 10h1m8 0h1m1 0h1m-7 1h1m5 0h1m1 0h3m-5 1h1m-1 1h1m1 0h1m0 1h1m0 1h1"/><path stroke="#000" d="M13 0h1m-1 1h1m-4 1h1m1 0h2m-1 1h1m-1 1h1m-1 1h1m-1 1h1M9 7h1m3 0h1M9 8h1m3 0h1M8 9h1m-1 1h1m4 0h1M0 11h3m5 0h2m2 0h1m-9 1h2m2 0h1m-3 1h1m2 0h1m-3 1h1m2 0h1m-3 1h3"/><path stroke="navy" d="M1 1h12M1 2h8"/><path stroke="silver" d="M9 2h1m1 0h1m0 1h1M1 4h1m10 0h1M1 5h1m10 0h1M1 6h1m10 0h1M1 7h1m10 0h1M1 8h1m10 0h1M1 9h1m7 0h1m2 0h1M1 10h2m2 0h1m6 0h1m-4 2h1"/><path stroke="#fff" d="M2 4h10M2 5h10M2 6h5m4 0h1M2 7h4m2 0h1M2 8h3m2 0h1m2 0h1M2 9h2m2 0h1m3 0h1m-7 1h1m2 0h1m2 0h1m-4 1h1m2 0h1m-1 1h1m-1 1h1"/><path stroke="olive" d="M8 6h1M6 7h2m2 0h2M5 8h2M4 9h2m-3 1h1m-1 1h1m2 1h1m0 1h1m0 1h2m1 0h1"/><path stroke="#ff0" d="M7 9h1m-2 1h1m-3 1h1m1 0h1m0 1h1m0 1h1"/></svg>