<svg xmlns="http://www.w3.org/2000/svg" viewBox="0 -0.5 16 16" shape-rendering="crispEdges">
<path stroke="#808080" d="M0 0h1M10 0h4M9 1h2M12 1h1M9 2h1M11 2h1M13 2h1M10 3h1M13 3h1M12 4h1M10 9h3M2 10h1M2 11h1M9 11h1M1 12h2M9 12h2M9 14h1M11 14h1M9 15h1M11 15h1" />
<path stroke="#ffffff" d="M0 0h1M11 1h1M10 2h1M8 5h1M7 6h1M6 7h1M5 8h1M4 9h1M10 10h2M10 11h1M10 15h1" />
<path stroke="#c0c0c0" d="M0 0h1M13 1h1M10 4h1M3 10h1M11 11h1M10 14h1" />
<path stroke="#000000" d="M0 0h1M14 1h1M14 2h1M9 3h1M12 3h1M14 3h1M9 4h1M11 4h1M13 4h2M10 5h4M8 6h3M7 7h1M9 7h1M6 8h1M9 8h1M6 9h3M5 10h1M9 10h1M12 10h1M3 11h2M12 11h1M3 12h1M11 12h2M0 13h2M10 13h2M0 14h1M12 14h1M0 15h1M12 15h1" />
<path stroke="#ffff00" d="M0 0h1M12 2h1M11 3h1" />
<path stroke="#008080" d="M0 0h1M8 4h1M7 5h1M9 5h1M6 6h1M5 7h1M8 7h1M4 8h1M7 8h1M3 9h1M5 9h1M4 10h1" />
<path stroke="#00ffff" d="M0 0h1M8 8h1M9 9h1" />
</svg>