<svg xmlns="http://www.w3.org/2000/svg" width="32" height="32" shape-rendering="crispEdges" viewBox="0 -0.5 32 32"><path stroke="olive" d="M21 0h1m-2 1h1m-2 1h1m-2 1h1m-2 1h1m-2 1h1m-2 1h1m-3 1h3m-4 1h1m2 0h1m-4 1h1m2 0h1m-4 1h1m2 0h1m-4 1h1m2 0h1m-3 1h3m1 2h1m0 1h2m-1 1h2m-1 1h1m0 1h1"/><path stroke="#000" d="M22 0h2m-2 1h1m-1 1h1m-2 1h1m-1 1h1m-1 1h1m-2 1h1m-1 1h2m-2 1h1M6 9h6m8 0h1m2 0h1M6 10h1m13 0h1m2 0h1M6 11h1m13 0h3M6 12h1m13 0h1M6 13h1m7 0h2m4 0h1M6 14h1m9 0h1m3 0h1M6 15h1m10 0h1M6 16h1m11 0h1m2 0h1M6 17h1m12 0h1m1 0h1m-2 1h1m1 0h1m-2 1h4m-2 1h1m-2 1h1m3 0h1M4 22h18m4 0h1m-1 1h1m-1 1h1m-1 1h1m-1 1h1m-15 1h9m5 0h1m-1 1h1m-2 1h1m-2 1h1M1 31h23"/><path stroke="silver" d="M21 1h1m1 0h1m-4 1h1m2 0h1m-5 1h1m2 0h1m-5 1h1m3 0h1M6 5h10m1 0h1m4 0h1m-7 1h1m4 0h2M5 7h8m9 0h1M5 8h1M5 9h1m15 0h1M5 10h1m8 0h1m2 0h1m1 0h1M5 11h1m10 0h1m1 0h1m4 0h1M5 12h1m11 0h1m1 0h1m3 0h1M5 13h1m10 0h1m1 0h1m3 0h1M5 14h1m13 0h1m2 0h1M5 15h1m16 0h1M5 16h1m16 0h1M5 17h1m16 0h1M5 18h1m17 0h1M5 19h1m-1 1h16m4 1h1m-2 1h1m-2 1h1M2 25h21M2 26h10m9 0h2M2 27h2m2 0h6m9 0h2M2 28h2m2 0h17M2 29h21"/><path stroke="gray" d="M24 1h1m4 0h1m-9 1h1m2 0h1m3 0h1m-4 1h1m1 0h1M6 4h11m8 0h1M5 5h1m19 0h1m5 0h1M4 6h1m21 0h1m2 0h2M3 7h1m22 0h1m1 0h1M3 8h1m2 0h6m10 0h1m3 0h1M3 9h1m18 0h1m3 0h1M3 10h1m17 0h2m3 0h1m1 0h4M3 11h1m22 0h1M3 12h1m17 0h2m3 0h1M3 13h1m17 0h1m4 0h1m1 0h1M3 14h1m17 0h1m3 0h1m3 0h2M3 15h1m16 0h2m3 0h1m5 0h1M3 16h1m21 0h1M3 17h1m20 0h1m2 0h1M3 18h1m20 0h1m3 0h1M3 19h1m25 0h1M3 20h1m17 0h2m1 0h2M3 21h19m1 0h2M3 22h1m18 0h2m1 0h1M1 23h22m1 0h2M0 24h1m22 0h3M0 25h1m22 0h3M0 26h1m11 0h9m2 0h3M0 27h1m22 0h3M0 28h1m22 0h3M0 29h1m22 0h2M0 30h24"/><path stroke="#ff0" d="M20 3h1m-2 1h1m-2 1h1m1 0h1m-4 1h1m1 0h1m-4 1h1m1 0h1m-5 1h1m1 1h1m1 0h1m-3 1h1m1 0h1m-5 1h1m2 0h1m1 0h1m-4 1h1m1 0h1m-2 1h1m1 0h1m-2 1h1"/><path stroke="#fff" d="M23 3h2m-5 1h1m2 0h2m-6 1h1m3 0h2M5 6h10m3 0h1m4 0h3M4 7h1m12 0h1m1 0h1m3 0h3M4 8h1m8 0h1m2 0h4m1 0h1m1 0h3M4 9h1m8 0h2m2 0h1m1 0h1m4 0h2M4 10h1m8 0h1m10 0h2M4 11h1m8 0h1m10 0h2M4 12h1m19 0h2M4 13h1m18 0h3M4 14h1m18 0h2M4 15h1m18 0h2M4 16h1m18 0h2M4 17h1m18 0h1M4 18h1m-1 1h1m1 0h15M4 20h1m-4 4h22M1 25h1m-1 1h1m-1 1h1m-1 1h1m-1 1h1"/><path stroke="#00f" d="M7 10h5m-5 1h1m1 0h3m-5 1h1m1 0h4m-6 1h7m-7 1h9m-9 1h10M7 16h11M7 17h12"/><path stroke="#0ff" d="M8 11h1m-1 1h1"/><path stroke="navy" d="M6 18h14"/><path stroke="#0f0" d="M4 27h2"/><path stroke="green" d="M4 28h2"/></svg>