<svg xmlns="http://www.w3.org/2000/svg" viewBox="0 -0.5 16 16" shape-rendering="crispEdges">
<path stroke="#808080" d="M0 0h1M11 0h1M13 0h2M2 1h8M14 1h1M1 2h1M12 2h1M15 2h1M1 3h1M15 3h1M1 4h1M13 4h1M15 4h1M1 5h1M9 5h1M15 5h1M1 6h1M9 6h1M15 6h1M1 7h1M15 7h1M1 8h1M1 9h1M13 10h1M0 11h1M12 11h2M0 12h1M12 12h2M0 13h1M12 13h2M0 14h1M2 14h11" />
<path stroke="#808000" d="M0 0h1M12 0h1M10 1h2M9 2h2M8 3h2M7 4h1M7 5h1M10 6h1M10 7h2M11 8h3" />
<path stroke="#ffffff" d="M0 0h1M12 1h1M2 2h7M11 2h1M14 2h1M2 3h1M10 3h1M14 3h1M2 4h1M8 4h1M11 4h1M14 4h1M2 5h1M11 5h1M14 5h1M2 6h1M14 6h1M2 7h1M14 7h1M2 8h1M1 11h11M1 12h1M1 13h1M1 14h1" />
<path stroke="#000000" d="M0 0h1M13 1h1M13 2h1M12 3h1M3 4h4M12 4h1M3 5h1M12 5h2M3 6h1M7 6h2M12 6h1M3 7h1M9 7h1M13 7h1M10 8h1M14 8h1M11 9h4M1 10h11M14 10h1M14 11h1M14 12h1M7 13h4M14 13h1M13 14h1M1 15h12" />
<path stroke="#c0c0c0" d="M0 0h1M3 3h5M13 3h1M9 4h1M13 6h1M2 9h9M12 10h1M2 12h1M4 12h8M2 13h1M4 13h3M11 13h1" />
<path stroke="#ffff00" d="M0 0h1M11 3h1M10 4h1M8 5h1M10 5h1M11 6h1M12 7h1" />
<path stroke="#0000ff" d="M0 0h1M4 5h3M4 6h3M4 7h5" />
<path stroke="#000080" d="M0 0h1M3 8h7" />
<path stroke="#00ff00" d="M0 0h1M3 12h1" />
<path stroke="#008000" d="M0 0h1M3 13h1" />
</svg>