<svg xmlns="http://www.w3.org/2000/svg" width="32" height="32" shape-rendering="crispEdges" viewBox="0 -0.5 32 32"><path stroke="olive" d="M1 3h3M0 4h1m2 0h1m1 0h9M0 5h1m2 0h1M0 6h4m7 0h1m-1 1h1m-1 1h1m-1 1h1m-1 1h1m5 11h1m-1 1h1m-1 1h1m-1 1h1m10 0h3m-14 1h1m2 0h8m2 0h1m-14 1h1m9 0h1m2 0h1m-4 1h4"/><path stroke="#ff0" d="M1 4h2M1 5h1m26 20h2m-2 1h1"/><path stroke="#000" d="M4 4h1M4 5h1m8 0h1M4 6h7m2 0h1M1 7h3m9 0h1m-1 1h1m-1 1h1m-1 1h1m-5 1h2m2 0h2m2 0h2m4 0h2m2 0h2M8 12h2m2 0h2m2 0h2m4 0h2m2 0h2M7 13h2m2 0h2m2 0h2m4 0h2m2 0h2m4 0h1M6 14h2m2 0h2m2 0h2m4 0h2m2 0h2m5 0h1m-1 1h1m-1 1h1m-2 1h1M0 18h1m3 0h1m3 0h1m3 0h1m3 0h1m3 0h1m3 0h1m4 0h1M0 19h1m3 0h1m3 0h1m3 0h1m3 0h1m3 0h1m3 0h1m3 0h1M0 20h28m-9 1h1m-1 1h1m-1 1h1m-1 1h1m-1 1h1m11 0h1m-1 1h1m-15 1h10m4 0h1m-4 1h3"/><path stroke="silver" d="M2 5h1m2 0h7m8 8h1m-2 1h1m-2 1h1M5 16h1m3 0h1m3 0h1m3 0h1m3 0h1m3 0h1M4 17h1m3 0h1m3 0h1m3 0h1m3 0h1m3 0h1m-7 9h9m2 0h1"/><path stroke="gray" d="M12 5h1m-1 1h1m-1 1h1m-1 1h1m-1 1h1m-1 1h1m-2 1h2m2 0h1m3 0h1m5 0h1m3 0h1M6 12h2m2 0h2m2 0h2m2 0h4m2 0h2m2 0h3M5 13h1m3 0h2m2 0h2m2 0h2m4 0h2m2 0h2M4 14h1m3 0h2m2 0h2m2 0h2m4 0h2m2 0h2M3 15h1m2 0h3m1 0h3m1 0h3m3 0h3m1 0h3m3 0h1M2 16h1m26 0h2M1 17h1m26 0h2M1 18h3m1 0h3m1 0h3m1 0h3m1 0h3m1 0h3m1 0h4M1 19h3m1 0h3m1 0h3m1 0h3m1 0h3m1 0h3m1 0h3m-10 2h1m-1 1h1m-1 1h1m-1 1h1m-1 1h1"/><path stroke="#fff" d="M6 13h1m12 0h1m9 0h2M5 14h1m12 0h1m9 0h3M4 15h2m3 0h1m3 0h1m3 0h1m1 0h1m3 0h1m3 0h3M3 16h2m1 0h3m1 0h3m1 0h3m1 0h3m1 0h3m1 0h3M2 17h2m1 0h3m1 0h3m1 0h3m1 0h3m1 0h3m1 0h3"/></svg>