<svg xmlns="http://www.w3.org/2000/svg" width="32" height="32" shape-rendering="crispEdges" viewBox="0 -0.5 32 32"><path stroke="#bfbf00" d="M14 1h1m-2 1h1m-2 1h1m-2 1h1m-2 1h1M9 6h1M8 7h1M7 8h1M6 9h1m-5 1h4m-5 1h1m3 0h1m-6 1h1m3 0h1m-5 1h1m3 0h1m-5 1h1m3 0h1m-5 1h1m3 0h1m-5 1h1m3 0h1m-5 1h1m3 0h1m-5 1h1m3 0h1m-4 1h5m0 1h1m0 1h1m0 1h2m-1 1h3m-2 1h3m-2 1h2m-1 1h2m-1 1h1m0 1h1"/><path stroke="#000" d="M15 1h2m-2 1h1m-2 1h1m-1 1h1m-2 2h1m-1 1h1m-1 1h1m-2 1h1m-1 1h1m-1 1h1m-1 1h2m-2 1h1m3 0h1m-5 1h1m3 0h1m-5 1h1m3 0h1m-5 1h1m3 0h1m-5 1h1m3 0h1m-5 1h4m-4 1h1M2 20h4m6 0h1m-7 1h1m5 0h1m-6 1h1m5 0h1m-6 1h1m4 0h1m-5 1h1m3 0h1m-4 1h1m0 1h1m2 0h1m-3 1h1m1 0h1m-2 1h1m1 0h1m-2 1h3"/><path stroke="gray" d="M27 1h1M17 2h1m7 0h2m-9 1h1m4 0h2m-7 1h1m2 0h2M13 5h2m4 0h1m-1 1h1m-1 1h1m10 0h1M19 8h1m7 0h3M13 9h1m6 0h1m3 0h3m-14 1h1m6 0h1m2 0h1m-11 1h1m6 0h1m-7 1h2m4 0h1m-8 1h1m1 0h1m4 0h1m-8 1h1m1 0h1m4 0h1m-8 1h1m1 0h1m4 0h1m2 0h9m-19 1h1m1 0h1m4 0h1m-8 1h3m4 0h1m-1 1h1m-8 1h3m4 0h1m-8 1h2m5 0h1m2 0h1m-11 1h1m6 0h1m3 0h3m-15 1h1m6 0h1m7 0h3m-11 1h1m10 0h1m-12 1h1m-7 1h2m4 0h1m-2 1h1m2 0h2m-5 1h1m4 0h2m-8 1h1m7 0h2m0 1h1"/><path stroke="silver" d="M14 2h1m1 0h1m-4 1h1m1 0h1m1 0h1m-6 1h2m-3 1h1m-2 1h1m3 0h1M9 7h1m2 0h1m1 0h1M8 8h1m3 0h1m1 0h1M7 9h1m6 0h1m-1 1h1M2 11h3m9 0h1m-1 4h1M2 16h1m3 0h1m1 0h1m1 0h1m3 0h1M3 17h1m1 0h1m1 0h1m1 0h1m1 0h1M2 18h1m3 0h1m1 0h1m1 0h1m5 0h1M7 19h1m1 0h1m1 0h1m4 0h1m-9 1h1m1 0h1m4 0h1m-7 1h1m1 0h1m2 0h1m-5 1h1m3 0h1m-3 1h1m1 0h1m-1 1h1m0 3h1m1 0h1m-2 1h1"/><path stroke="#fff" d="M16 3h1m-2 1h3m-3 1h4m-7 1h1m2 0h4m-8 1h1m3 0h4m-9 1h1m4 0h4M9 9h1m1 0h1m3 0h5M8 10h1m1 0h2m3 0h5M7 11h5m3 0h5M1 12h2m2 0h7m4 0h4M1 13h3m1 0h7m2 0h1m2 0h3M1 14h2m3 0h1m1 0h1m1 0h1m3 0h1m2 0h3M1 15h1m1 0h1m1 0h1m1 0h1m1 0h1m1 0h1m5 0h3M1 16h1m15 0h3M1 17h1m15 0h3M1 18h1m15 0h3m-3 1h3m-4 1h4m-5 1h5m-5 1h4m-4 1h4m-4 1h4m-4 1h4m-4 1h3m-2 1h1"/><path stroke="#ff0" d="M12 5h1m-2 1h1m-2 1h1M9 8h1m1 0h1M8 9h1m1 0h1m-5 1h2m1 0h1m-4 1h1m-4 1h1m-1 2h1m1 0h1m1 0h1m1 0h1m1 0h1M2 15h1m3 0h1m1 0h1m1 0h1m-8 1h1m1 0h1m1 0h1m1 0h1m1 0h1M2 17h1m3 0h1m1 0h1m1 0h1m-8 1h1m1 0h1m1 0h1m1 0h1m1 0h1m-6 1h1m1 0h1m1 0h1m-4 1h1m1 0h1m1 0h1m-4 1h1m1 0h1m0 1h1"/></svg>