<svg xmlns="http://www.w3.org/2000/svg" width="16" height="16" shape-rendering="crispEdges" viewBox="0 -0.5 16 16"><path stroke="gray" d="M7 0h2M6 1h1M6 2h1m1 0h1M6 3h1m1 0h1M6 4h1m1 0h1M4 5h3m1 0h1m1 0h1M2 6h2m2 0h1m1 0h1m2 0h2M1 7h1m4 0h1m6 0h2M0 8h1m4 0h1m2 0h2m4 0h1M0 9h1m5 0h1m6 0h2M0 10h1m11 0h3M0 11h2m8 0h5M0 12h1m1 0h2m4 0h5m-9 1h2m2 0h3m-5 1h3"/><path stroke="silver" d="M7 1h2M4 6h2m1 0h1m2 0h1M2 7h4m3 0h1m2 0h1M2 8h3m7 0h2M1 9h1m2 0h2m3 0h4M1 10h3m2 0h6M2 11h4m-2 1h4m-2 1h2"/><path stroke="#000" d="M9 1h1M9 2h1M9 3h1M9 4h1M9 5h1M9 6h1M7 7h2M7 8h1m7 0h1M7 9h2m6 0h1m-1 1h1m-1 1h1M1 12h1m11 0h2M2 13h2m7 0h2m-9 1h2m3 0h2m-5 1h3"/><path stroke="#fff" d="M7 2h1M7 3h1M7 4h1M7 5h1M1 8h1m4 0h1M2 9h2m0 1h2m0 1h4"/><path stroke="maroon" d="M10 7h2m-2 1h2"/></svg>