<svg xmlns="http://www.w3.org/2000/svg" viewBox="0 -0.5 16 16" shape-rendering="crispEdges">
<path stroke="#c0c0c0" d="M0 0h1M0 0h1M2 0h1M0 2h1M5 7h1M8 7h1M11 7h1M14 7h1M2 8h1M5 8h1M8 8h1M11 8h1M13 13h1M15 13h1M15 15h1" />
<path stroke="#808000" d="M0 0h2M0 1h1M3 1h4M5 2h1M5 3h1M5 4h1M5 5h1M7 12h1M7 13h1M14 13h1M7 14h7" />
<path stroke="#ffff00" d="M0 0h1M1 1h1M14 14h1" />
<path stroke="#000000" d="M0 0h1M2 1h1M1 2h4M6 2h1M6 3h1M6 4h1M4 5h1M7 5h1M10 5h1M13 5h1M4 6h1M7 6h1M10 6h1M13 6h1M15 6h1M3 7h2M6 7h2M9 7h2M12 7h2M15 7h1M3 8h1M6 8h1M9 8h1M12 8h1M15 8h1M14 9h2M0 10h1M2 10h1M4 10h1M6 10h1M8 10h1M10 10h1M12 10h3M0 11h14M8 12h1M8 13h1M15 14h1M7 15h8" />
<path stroke="#808080" d="M0 0h1M3 5h1M6 5h1M9 5h1M12 5h1M2 6h2M5 6h2M8 6h2M11 6h2M14 6h1M2 7h1M1 8h1M14 8h1M0 9h1M13 9h1M1 10h1M3 10h1M5 10h1M7 10h1M9 10h1M11 10h1" />
<path stroke="#ffffff" d="M0 0h1M4 8h1M7 8h1M10 8h1M13 8h1M1 9h12" />
</svg>