<svg xmlns="http://www.w3.org/2000/svg" width="32" height="32" shape-rendering="crispEdges" viewBox="0 -0.5 32 32"><path stroke="gray" d="M22 0h5m-7 1h3m1 0h1m-5 1h2m5 0h1m-9 1h2m1 0h1m1 0h1m1 0h1m-8 1h1m3 0h1m4 0h1M19 5h2m1 0h1m4 0h1m-9 1h1m8 0h1m-7 1h1m4 0h1m-4 1h1m1 0h1m-4 1h1m1 0h1m-5 9h3m0 1h1m-1 1h1M6 21h1m11 0h1m4 0h2M6 22h1m1 0h1m9 0h1m5 0h1M5 23h1m12 0h1m2 0h1m2 0h1M4 24h1m14 0h5m-4 2h1m1 0h1m-3 1h1m1 0h1m-4 1h4m-4 1h1m2 0h2m-5 1h1m2 0h2m-5 1h1m2 0h2"/><path stroke="silver" d="M23 1h1m1 0h1m-4 1h1m3 0h1m-6 1h1m5 0h1m-8 1h1m4 0h3m-3 1h1m-6 1h1m2 0h2m1 0h1m-6 1h1m1 0h1m1 0h1m-5 1h1m1 0h1m-4 12h4M7 21h1m12 0h1M7 22h1m12 0h1m1 0h1M6 23h1m13 0h1M5 24h1"/><path stroke="#000" d="M26 1h2m0 1h1m-1 1h2m-1 1h1m-6 1h1m1 0h1m1 0h2m-5 1h1m1 0h1m1 0h1M19 7h2m3 0h1m1 0h1m1 0h2M20 8h1m1 0h1m2 0h1m1 0h2m-8 1h2m1 0h1m1 0h3m-7 1h5m-6 1h1m-2 1h1m-5 1h4m-5 1h1m2 0h1m-5 1h1m3 0h1m-6 1h1m4 0h1m-6 1h1m5 0h1m-7 1h4m2 0h2m-8 1h1m3 0h3m-8 1h1m5 0h1m6 0h1M8 21h1m2 0h1m13 0h1M9 22h2m12 0h1m1 0h1M7 23h2m13 0h2m1 0h1M6 24h1m17 0h1M4 25h2m14 0h4M3 26h1m19 0h1M2 27h1m20 0h1M2 28h1m20 0h2M1 29h1m22 0h1M1 30h1m22 0h1M1 31h1m22 0h1"/><path stroke="#fff" d="M23 2h1m1 0h1m-5 2h1m2 0h1m-4 1h1m-1 1h1m-3 3h1m-2 1h1m-2 1h1m-2 1h1m-2 1h1m-2 1h1m-2 1h1m-2 1h1m-2 1h1m-2 1h1m-2 1h1m10 0h4M8 20h1m10 0h1m-1 1h1m1 0h2m-4 1h1m1 0h1m-3 1h1m1 3h1m-1 1h1m-2 2h2m-2 1h2m-2 1h2"/><path stroke="#ff0" d="M24 2h1m-2 1h1m1 0h1m-4 1h1m0 1h1m-2 1h1"/><path stroke="teal" d="M18 8h1m-2 1h1m2 0h1m-5 1h1m2 0h3m-7 1h1m2 0h3m-7 1h1m2 0h3m-7 1h1m-2 1h1m3 0h2m-7 1h1m3 0h3m-8 1h1m3 0h2m1 0h1m-9 1h1m2 0h1m1 0h3m-9 1h1m2 0h2m-6 1h1m2 0h3m-6 1h1m1 0h3m-3 1h2"/><path stroke="#0ff" d="M19 8h1m-2 1h1m-2 1h1m-2 1h1m-2 1h1m-2 1h1m-2 1h1m-2 1h1m-2 1h1m4 0h1m-7 1h1m6 0h2M9 18h1m7 0h2M8 19h1"/></svg>