<svg xmlns="http://www.w3.org/2000/svg" width="16" height="16" shape-rendering="crispEdges" viewBox="0 -0.5 16 16"><path stroke="gray" d="M11 0h1m1 0h2M2 1h8m4 0h1M1 2h1m10 0h1m2 0h1M1 3h1m13 0h1M1 4h1m11 0h1m1 0h1M1 5h1m7 0h1m5 0h1M1 6h1m7 0h1m5 0h1M1 7h1m13 0h1M1 8h1M1 9h1m11 1h1M0 11h1m11 0h2M0 12h1m11 0h2M0 13h1m11 0h2M0 14h1m1 0h11"/><path stroke="olive" d="M12 0h1m-3 1h2M9 2h2M8 3h2M7 4h1M7 5h1m2 1h1m-1 1h2m-1 1h3"/><path stroke="#fff" d="M12 1h1M2 2h7m2 0h1m2 0h1M2 3h1m7 0h1m3 0h1M2 4h1m5 0h1m2 0h1m2 0h1M2 5h1m8 0h1m2 0h1M2 6h1m11 0h1M2 7h1m11 0h1M2 8h1m-2 3h11M1 12h1m-1 1h1m-1 1h1"/><path stroke="#000" d="M13 1h1m-1 1h1m-2 1h1M3 4h4m5 0h1M3 5h1m8 0h2M3 6h1m3 0h2m3 0h1M3 7h1m5 0h1m3 0h1m-4 1h1m3 0h1m-4 1h4M1 10h11m2 0h1m-1 1h1m-1 1h1m-8 1h4m3 0h1m-2 1h1M1 15h12"/><path stroke="silver" d="M3 3h5m5 0h1M9 4h1m3 2h1M2 9h9m1 1h1M2 12h1m1 0h8M2 13h1m1 0h3m4 0h1"/><path stroke="#ff0" d="M11 3h1m-2 1h1M8 5h1m1 0h1m0 1h1m0 1h1"/><path stroke="#00f" d="M4 5h3M4 6h3M4 7h5"/><path stroke="navy" d="M3 8h7"/><path stroke="#0f0" d="M3 12h1"/><path stroke="green" d="M3 13h1"/></svg>