<svg xmlns="http://www.w3.org/2000/svg" width="16" height="16" shape-rendering="crispEdges" viewBox="0 -0.5 16 16"><path stroke="silver" d="M0 0h1m1 0h1M0 2h1m4 5h1m2 0h1m2 0h1m2 0h1M2 8h1m2 0h1m2 0h1m2 0h1m1 5h1m1 0h1m-1 2h1"/><path stroke="olive" d="M1 0h1M0 1h1m2 0h4M5 2h1M5 3h1M5 4h1M5 5h1m1 7h1m-1 1h1m6 0h1m-8 1h7"/><path stroke="#ff0" d="M1 1h1m12 13h1"/><path stroke="#000" d="M2 1h1M1 2h4m1 0h1M6 3h1M6 4h1M4 5h1m2 0h1m2 0h1m2 0h1M4 6h1m2 0h1m2 0h1m2 0h1m1 0h1M3 7h2m1 0h2m1 0h2m1 0h2m1 0h1M3 8h1m2 0h1m2 0h1m2 0h1m2 0h1m-2 1h2M0 10h1m1 0h1m1 0h1m1 0h1m1 0h1m1 0h1m1 0h3M0 11h14m-6 1h1m-1 1h1m6 1h1m-9 1h8"/><path stroke="gray" d="M3 5h1m2 0h1m2 0h1m2 0h1M2 6h2m1 0h2m1 0h2m1 0h2m1 0h1M2 7h1M1 8h1m12 0h1M0 9h1m12 0h1M1 10h1m1 0h1m1 0h1m1 0h1m1 0h1m1 0h1"/><path stroke="#fff" d="M4 8h1m2 0h1m2 0h1m2 0h1M1 9h12"/></svg>