<svg xmlns="http://www.w3.org/2000/svg" width="16" height="16" shape-rendering="crispEdges" viewBox="0 -0.5 16 16"><path stroke="gray" d="M0 4h1M0 5h2m1 0h9M0 6h1m10 0h1m2 0h2M0 7h1m10 0h1m1 0h1m-3 1h1M2 9h1m8 0h1m2 0h1M2 10h1m8 0h1M2 11h10"/><path stroke="#fff" d="M1 6h1m1 0h4m7 1h1m-2 1h1"/><path stroke="#000" d="M2 6h1m5 0h1m3 0h1M1 7h2m5 0h1m3 0h1m2 0h1M0 8h1m1 0h6m4 0h1m2 0h1m-4 1h2m1 0h1m-8 1h1m1 0h1m1 0h1m1 0h2m-4 1h1M2 12h11"/><path stroke="silver" d="M7 6h1m1 0h2M3 7h5m1 0h2M8 8h3m3 0h1M3 9h8m-7 1h4m1 0h1"/><path stroke="red" d="M3 10h1"/></svg>