<svg xmlns="http://www.w3.org/2000/svg" viewBox="0 -0.5 16 16" shape-rendering="crispEdges">
<path stroke="#c0c0c0" d="M0 0h1M3 0h1M5 0h1M3 2h1M9 6h1M9 7h3M9 8h2M12 8h1M4 9h1M11 9h2M4 10h2M10 10h3M4 11h3M11 11h2M4 12h3M8 12h2M5 13h1M7 13h3M7 14h3" />
<path stroke="#808000" d="M0 0h1M4 0h1M3 1h1M6 1h5M9 2h1M9 3h1M9 4h1" />
<path stroke="#ffff00" d="M0 0h1M4 1h1M7 6h2M7 7h2M7 8h2M10 12h1M11 13h1" />
<path stroke="#000000" d="M0 0h1M5 1h1M4 2h5M10 2h1M10 3h1M10 4h1M10 5h1M12 7h1M13 8h1M8 9h1M13 9h1M7 10h1M9 10h1M13 10h1M8 11h1M13 11h1M13 12h1M12 13h1M10 14h2M7 15h3" />
<path stroke="#808080" d="M0 0h1M7 5h3M5 6h2M10 6h2M4 7h1M3 8h1M3 9h1M7 9h1M9 9h1M3 10h1M3 11h1M7 11h1M9 11h1M3 12h1M4 13h1M5 14h2M10 15h1" />
<path stroke="#00ffff" d="M0 0h1M5 7h2M6 8h1M10 11h1M11 12h2" />
<path stroke="#00ff00" d="M0 0h1M4 8h2M5 9h2M6 10h1M10 13h1" />
<path stroke="#ffffff" d="M0 0h1M11 8h1M10 9h1M7 12h1M6 13h1" />
</svg>