<svg xmlns="http://www.w3.org/2000/svg" viewBox="0 -0.5 32 32" shape-rendering="crispEdges">
<path stroke="#000000" d="M0 0h1M9 11h2M13 11h2M17 11h2M23 11h2M27 11h2M8 12h2M12 12h2M16 12h2M22 12h2M26 12h2M7 13h2M11 13h2M15 13h2M21 13h2M25 13h2M31 13h1M6 14h2M10 14h2M14 14h2M20 14h2M24 14h2M31 14h1M31 15h1M31 16h1M30 17h1M0 18h1M4 18h1M8 18h1M12 18h1M16 18h1M20 18h1M24 18h1M29 18h1M0 19h1M4 19h1M8 19h1M12 19h1M16 19h1M20 19h1M24 19h1M28 19h1M0 20h28" />
<path stroke="#808080" d="M0 0h1M11 11h1M15 11h1M19 11h1M25 11h1M29 11h1M6 12h2M10 12h2M14 12h2M18 12h4M24 12h2M28 12h3M5 13h1M9 13h2M13 13h2M17 13h2M23 13h2M27 13h2M4 14h1M8 14h2M12 14h2M16 14h2M22 14h2M26 14h2M3 15h1M6 15h3M10 15h3M14 15h3M20 15h3M24 15h3M30 15h1M2 16h1M29 16h2M1 17h1M28 17h2M1 18h3M5 18h3M9 18h3M13 18h3M17 18h3M21 18h3M25 18h4M1 19h3M5 19h3M9 19h3M13 19h3M17 19h3M21 19h3M25 19h3" />
<path stroke="#ffffff" d="M0 0h1M6 13h1M19 13h1M29 13h2M5 14h1M18 14h1M28 14h3M4 15h2M9 15h1M13 15h1M17 15h1M19 15h1M23 15h1M27 15h3M3 16h2M6 16h3M10 16h3M14 16h3M18 16h3M22 16h3M26 16h3M2 17h2M5 17h3M9 17h3M13 17h3M17 17h3M21 17h3M25 17h3" />
<path stroke="#c0c0c0" d="M0 0h1M20 13h1M19 14h1M18 15h1M5 16h1M9 16h1M13 16h1M17 16h1M21 16h1M25 16h1M4 17h1M8 17h1M12 17h1M16 17h1M20 17h1M24 17h1" />
</svg>