<svg xmlns="http://www.w3.org/2000/svg" viewBox="0 -0.5 16 16" shape-rendering="crispEdges">
<path stroke="#c0c0c0" d="M0 0h1M2 0h1M4 0h1M2 2h1M4 6h8M4 7h3M9 7h3M6 8h1M9 8h1M6 9h1M9 9h1M4 10h3M9 10h3M6 11h1M9 11h1M6 12h1M9 12h1M4 13h3M9 13h3" />
<path stroke="#808000" d="M0 0h1M3 0h1M2 1h1M5 1h6M9 2h1M9 3h1" />
<path stroke="#ffff00" d="M0 0h1M3 1h1" />
<path stroke="#000000" d="M0 0h1M4 1h1M3 2h6M10 2h1M10 3h1M13 5h1M13 6h1M7 7h2M13 7h1M7 8h1M13 8h1M7 9h1M13 9h1M7 10h1M13 10h1M7 11h1M13 11h1M7 12h1M13 12h1M13 13h1M13 14h1M2 15h12" />
<path stroke="#808080" d="M0 0h1M2 4h12M2 5h1M2 6h1M12 6h1M2 7h1M12 7h1M2 8h1M4 8h2M10 8h3M2 9h1M12 9h1M2 10h1M12 10h1M2 11h1M4 11h2M10 11h3M2 12h1M12 12h1M2 13h1M12 13h1M2 14h1M4 14h9" />
<path stroke="#ffffff" d="M0 0h1M3 5h10M3 6h1M3 7h1M3 8h1M8 8h1M3 9h3M8 9h1M10 9h2M3 10h1M8 10h1M3 11h1M8 11h1M3 12h3M8 12h1M10 12h2M3 13h1M7 13h2M3 14h1" />
</svg>