<svg xmlns="http://www.w3.org/2000/svg" viewBox="0 -0.5 16 16" shape-rendering="crispEdges">
<path stroke="#808080" d="M0 0h1M0 0h13M0 1h1M0 2h1M0 3h12M0 4h1M0 5h1M0 6h1M7 6h1M9 6h2M0 7h1M15 7h1M0 8h1M8 8h1M11 8h1M14 8h1M0 9h1M11 9h1M13 9h1M0 10h1M9 10h1M11 10h1M5 11h1M11 11h1M13 11h3M11 12h1M11 13h1M13 13h1M14 14h1M15 15h1" />
<path stroke="#000000" d="M0 0h1M13 0h1M13 1h1M10 2h1M12 2h2M13 3h1M13 4h1M13 5h1M13 6h1M9 7h1M13 7h1M9 8h1M13 8h1M8 9h1M8 10h1M13 10h1M0 11h3M8 11h2M12 11h1M4 12h2M8 12h1M6 13h1M9 13h1M7 14h1M10 14h1M8 15h3" />
<path stroke="#000080" d="M0 0h1M1 1h12M1 2h8" />
<path stroke="#c0c0c0" d="M0 0h1M9 2h1M11 2h1M12 3h1M1 4h1M12 4h1M1 5h1M12 5h1M1 6h1M12 6h1M1 7h1M12 7h1M1 8h1M12 8h1M1 9h1M9 9h1M12 9h1M1 10h2M5 10h1M12 10h1M9 12h1" />
<path stroke="#ffffff" d="M0 0h1M2 4h10M2 5h10M2 6h5M11 6h1M2 7h4M8 7h1M2 8h3M7 8h1M10 8h1M2 9h2M6 9h1M10 9h1M4 10h1M7 10h1M10 10h1M7 11h1M10 11h1M10 12h1M10 13h1" />
<path stroke="#808000" d="M0 0h1M8 6h1M6 7h2M10 7h2M5 8h2M4 9h2M3 10h1M3 11h1M6 12h1M7 13h1M8 14h2M11 14h1" />
<path stroke="#ffff00" d="M0 0h1M7 9h1M6 10h1M4 11h1M6 11h1M7 12h1M8 13h1" />
</svg>