<svg xmlns="http://www.w3.org/2000/svg" viewBox="0 -0.5 32 32" shape-rendering="crispEdges">
<path stroke="#000000" d="M0 0h1M2 0h18M1 1h1M19 1h2M1 2h1M3 2h18M1 3h1M3 3h1M18 3h3M1 4h1M3 4h1M5 4h12M18 4h3M1 5h1M3 5h1M5 5h1M16 5h1M18 5h3M1 6h1M3 6h1M5 6h1M16 6h1M18 6h3M26 6h1M1 7h1M3 7h1M5 7h1M16 7h1M18 7h3M26 7h2M1 8h1M3 8h1M5 8h1M16 8h1M18 8h3M26 8h3M1 9h1M3 9h1M5 9h1M16 9h1M18 9h3M26 9h1M28 9h2M1 10h1M3 10h1M5 10h1M16 10h1M18 10h3M26 10h1M29 10h2M1 11h1M3 11h1M5 11h1M16 11h1M18 11h3M24 11h3M30 11h1M1 12h1M3 12h1M5 12h12M18 12h3M24 12h3M30 12h1M1 13h1M3 13h1M18 13h3M30 13h1M1 14h1M3 14h18M30 14h1M1 15h20M28 15h3M2 16h18M28 16h3M4 17h1M17 17h1M0 18h22M0 19h1M20 19h2M0 20h1M3 20h7M20 20h2M26 20h5M0 21h1M20 21h6M31 21h1M0 22h22M31 22h1M0 23h22M25 23h6M24 24h1M4 25h28M3 26h1M6 26h2M9 26h2M12 26h2M17 26h2M20 26h2M25 26h2M28 26h2M31 26h1M2 27h1M5 27h2M8 27h2M11 27h2M16 27h2M19 27h2M24 27h2M27 27h2M30 27h2M1 28h1M29 28h1M31 28h1M0 29h3M4 29h2M7 29h2M10 29h2M13 29h2M16 29h2M19 29h2M22 29h2M25 29h2M28 29h1M30 29h1M0 30h1M3 30h1M6 30h1M9 30h1M12 30h1M15 30h1M18 30h1M21 30h1M24 30h1M27 30h1M29 30h1M0 31h29" />
<path stroke="#ffffff" d="M0 0h1M2 1h17M2 2h1M2 3h1M5 3h1M7 3h1M9 3h1M11 3h1M13 3h1M15 3h1M17 3h1M2 4h1M4 4h1M2 5h1M17 5h1M25 5h2M2 6h1M4 6h1M6 6h10M25 6h1M27 6h1M2 7h1M6 7h10M17 7h1M25 7h1M28 7h1M2 8h1M4 8h1M6 8h2M10 8h2M14 8h2M25 8h1M29 8h1M2 9h1M6 9h10M17 9h1M25 9h1M27 9h1M30 9h1M2 10h1M4 10h1M6 10h2M10 10h2M14 10h2M24 10h2M27 10h2M31 10h1M2 11h1M6 11h10M17 11h1M23 11h1M27 11h1M29 11h1M31 11h1M2 12h1M4 12h1M23 12h1M27 12h1M29 12h1M31 12h1M2 13h1M5 13h1M7 13h1M9 13h1M11 13h1M13 13h1M15 13h1M17 13h1M24 13h3M29 13h1M31 13h1M2 14h1M28 14h2M31 14h1M27 15h1M31 15h1M27 16h1M31 16h1M5 17h12M28 17h3M1 19h19M1 20h2M10 20h10M1 21h19M26 21h5M22 22h4M31 23h1M25 24h6M4 26h2M8 26h1M11 26h1M14 26h3M19 26h1M22 26h3M27 26h1M30 26h1M3 27h2M7 27h1M10 27h1M13 27h3M18 27h1M21 27h3M26 27h1M29 27h1M2 28h27M30 28h1M3 29h1M6 29h1M9 29h1M12 29h1M15 29h1M18 29h1M21 29h1M24 29h1M27 29h1M29 29h1M1 30h2M4 30h2M7 30h2M10 30h2M13 30h2M16 30h2M19 30h2M22 30h2M25 30h2M28 30h1" />
<path stroke="#00ffff" d="M0 0h1M4 3h1M6 3h1M8 3h1M10 3h1M12 3h1M14 3h1M16 3h1M17 4h1M4 5h1M17 6h1M4 7h1M17 8h1M4 9h1M17 10h1M4 11h1M17 12h1M4 13h1M6 13h1M8 13h1M10 13h1M12 13h1M14 13h1M16 13h1" />
<path stroke="#000080" d="M0 0h1M6 5h10" />
<path stroke="#808080" d="M0 0h1M8 8h2M12 8h2M8 10h2M12 10h2" />
</svg>