<svg xmlns="http://www.w3.org/2000/svg" width="32" height="32" shape-rendering="crispEdges" viewBox="0 -0.5 32 32"><path stroke="#000" d="M2 0h18M1 1h1m17 0h2M1 2h1m1 0h18M1 3h1m1 0h1m14 0h3M1 4h1m1 0h1m1 0h12m1 0h3M1 5h1m1 0h1m1 0h1m10 0h1m1 0h3M1 6h1m1 0h1m1 0h1m10 0h1m1 0h3m5 0h1M1 7h1m1 0h1m1 0h1m10 0h1m1 0h3m5 0h2M1 8h1m1 0h1m1 0h1m10 0h1m1 0h3m5 0h3M1 9h1m1 0h1m1 0h1m10 0h1m1 0h3m5 0h1m1 0h2M1 10h1m1 0h1m1 0h1m10 0h1m1 0h3m5 0h1m2 0h2M1 11h1m1 0h1m1 0h1m10 0h1m1 0h3m3 0h3m3 0h1M1 12h1m1 0h1m1 0h12m1 0h3m3 0h3m3 0h1M1 13h1m1 0h1m14 0h3m9 0h1M1 14h1m1 0h18m9 0h1M1 15h20m7 0h3M2 16h18m8 0h3M4 17h1m12 0h1M0 18h22M0 19h1m19 0h2M0 20h1m2 0h7m10 0h2m4 0h5M0 21h1m19 0h6m5 0h1M0 22h22m9 0h1M0 23h22m3 0h6m-7 1h1M4 25h28M3 26h1m2 0h2m1 0h2m1 0h2m3 0h2m1 0h2m3 0h2m1 0h2m1 0h1M2 27h1m2 0h2m1 0h2m1 0h2m3 0h2m1 0h2m3 0h2m1 0h2m1 0h2M1 28h1m27 0h1m1 0h1M0 29h3m1 0h2m1 0h2m1 0h2m1 0h2m1 0h2m1 0h2m1 0h2m1 0h2m1 0h1m1 0h1M0 30h1m2 0h1m2 0h1m2 0h1m2 0h1m2 0h1m2 0h1m2 0h1m2 0h1m2 0h1m1 0h1M0 31h29"/><path stroke="#fff" d="M2 1h17M2 2h1M2 3h1m2 0h1m1 0h1m1 0h1m1 0h1m1 0h1m1 0h1m1 0h1M2 4h1m1 0h1M2 5h1m14 0h1m7 0h2M2 6h1m1 0h1m1 0h10m9 0h1m1 0h1M2 7h1m3 0h10m1 0h1m7 0h1m2 0h1M2 8h1m1 0h1m1 0h2m2 0h2m2 0h2m9 0h1m3 0h1M2 9h1m3 0h10m1 0h1m7 0h1m1 0h1m2 0h1M2 10h1m1 0h1m1 0h2m2 0h2m2 0h2m8 0h2m1 0h2m2 0h1M2 11h1m3 0h10m1 0h1m5 0h1m3 0h1m1 0h1m1 0h1M2 12h1m1 0h1m18 0h1m3 0h1m1 0h1m1 0h1M2 13h1m2 0h1m1 0h1m1 0h1m1 0h1m1 0h1m1 0h1m1 0h1m6 0h3m2 0h1m1 0h1M2 14h1m25 0h2m1 0h1m-5 1h1m3 0h1m-5 1h1m3 0h1M5 17h12m11 0h3M1 19h19M1 20h2m7 0h10M1 21h19m6 0h5m-9 1h4m5 1h1m-7 1h6M4 26h2m2 0h1m2 0h1m2 0h3m2 0h1m2 0h3m2 0h1m2 0h1M3 27h2m2 0h1m2 0h1m2 0h3m2 0h1m2 0h3m2 0h1m2 0h1M2 28h27m1 0h1M3 29h1m2 0h1m2 0h1m2 0h1m2 0h1m2 0h1m2 0h1m2 0h1m2 0h1m1 0h1M1 30h2m1 0h2m1 0h2m1 0h2m1 0h2m1 0h2m1 0h2m1 0h2m1 0h2m1 0h1"/><path stroke="#0ff" d="M4 3h1m1 0h1m1 0h1m1 0h1m1 0h1m1 0h1m1 0h1m0 1h1M4 5h1m12 1h1M4 7h1m12 1h1M4 9h1m12 1h1M4 11h1m12 1h1M4 13h1m1 0h1m1 0h1m1 0h1m1 0h1m1 0h1m1 0h1"/><path stroke="navy" d="M6 5h10"/><path stroke="gray" d="M8 8h2m2 0h2m-6 2h2m2 0h2"/></svg>