<svg xmlns="http://www.w3.org/2000/svg" width="16" height="16" shape-rendering="crispEdges" viewBox="0 -0.5 16 16"><path stroke="silver" d="M3 0h1m1 0h1M3 2h1m5 4h1M9 7h3M9 8h2m1 0h1M4 9h1m6 0h2m-9 1h2m4 0h3m-9 1h3m4 0h2m-9 1h3m1 0h2m-5 1h1m1 0h3m-3 1h3"/><path stroke="olive" d="M4 0h1M3 1h1m2 0h5M9 2h1M9 3h1M9 4h1"/><path stroke="#ff0" d="M4 1h1m2 5h2M7 7h2M7 8h2m1 4h1m0 1h1"/><path stroke="#000" d="M5 1h1M4 2h5m1 0h1m-1 1h1m-1 1h1m-1 1h1m1 2h1m0 1h1M8 9h1m4 0h1m-7 1h1m1 0h1m3 0h1m-6 1h1m4 0h1m-1 1h1m-2 1h1m-3 1h2m-5 1h3"/><path stroke="gray" d="M7 5h3M5 6h2m3 0h2M4 7h1M3 8h1M3 9h1m3 0h1m1 0h1m-7 1h1m-1 1h1m3 0h1m1 0h1m-7 1h1m0 1h1m0 1h2m3 1h1"/><path stroke="#0ff" d="M5 7h2M6 8h1m3 3h1m0 1h2"/><path stroke="#0f0" d="M4 8h2M5 9h2m-1 1h1m3 3h1"/><path stroke="#fff" d="M11 8h1m-2 1h1m-4 3h1m-2 1h1"/></svg>