<svg xmlns="http://www.w3.org/2000/svg" width="16" height="16" shape-rendering="crispEdges" viewBox="0 -0.5 16 16"><path stroke="gray" d="M10 0h4M9 1h2m1 0h1M9 2h1m1 0h1m1 0h1m-4 1h1m2 0h1m-2 1h1m-3 5h3M2 10h1m-1 1h1m6 0h1m-9 1h2m6 0h2m-2 2h1m1 0h1m-3 1h1m1 0h1"/><path stroke="#fff" d="M11 1h1m-2 1h1M8 5h1M7 6h1M6 7h1M5 8h1M4 9h1m5 1h2m-2 1h1m-1 4h1"/><path stroke="silver" d="M13 1h1m-4 3h1m-8 6h1m7 1h1m-2 3h1"/><path stroke="#000" d="M14 1h1m-1 1h1M9 3h1m2 0h1m1 0h1M9 4h1m1 0h1m1 0h2m-5 1h4M8 6h3M7 7h1m1 0h1M6 8h1m2 0h1M6 9h3m-4 1h1m3 0h1m2 0h1M3 11h2m7 0h1M3 12h1m7 0h2M0 13h2m8 0h2M0 14h1m11 0h1M0 15h1m11 0h1"/><path stroke="#ff0" d="M12 2h1m-2 1h1"/><path stroke="teal" d="M8 4h1M7 5h1m1 0h1M6 6h1M5 7h1m2 0h1M4 8h1m2 0h1M3 9h1m1 0h1m-2 1h1"/><path stroke="#0ff" d="M8 8h1m0 1h1"/></svg>