<svg xmlns="http://www.w3.org/2000/svg" width="32" height="32" shape-rendering="crispEdges" viewBox="0 -0.5 32 32"><path stroke="#000" d="M23 1h1m-1 1h1m-2 1h1m-2 1h1M9 5h2m2 0h2m2 0h2m2 0h1m1 0h2m2 0h2M8 6h2m2 0h2m2 0h2m8 0h2M7 7h2m2 0h2m2 0h2m4 0h1m3 0h2m4 0h1M6 8h2m2 0h2m2 0h2m5 0h1m3 0h1m5 0h1m-7 1h1m5 0h1m-7 1h1m5 0h1m-7 1h1m4 0h1M0 12h1m3 0h1m3 0h1m3 0h1m3 0h1m8 0h1m3 0h1M0 13h1m3 0h1m7 0h1m3 0h1m8 0h1m2 0h2M0 14h3m9 0h5m8 0h4m-4 1h1m-13 1h1m11 0h1m-13 1h1m4 0h1m5 0h1m-11 1h1m4 0h5M7 19h1m6 0h1m-9 1h1m1 0h1m5 0h1m16 0h1M7 21h1m6 0h1m16 0h1m-18 1h1m16 0h1m-19 1h1m17 0h1m-19 1h1m17 0h1m-20 1h1m18 0h1m-22 1h2m19 0h1M7 27h3m21 0h1m-2 1h1m-2 1h1M7 30h22"/><path stroke="gray" d="M11 5h1m3 0h1m3 0h1m5 0h1m3 0h1M6 6h2m2 0h2m2 0h2m2 0h8m2 0h3M5 7h1m3 0h2m2 0h2m2 0h1m9 0h2M4 8h1m3 0h2m2 0h2m2 0h2m8 0h2M3 9h1m2 0h3m1 0h3m1 0h10m2 0h1m3 0h1M2 10h1m14 0h1m11 0h2M1 11h1m15 0h1m10 0h2M1 12h3m1 0h3m1 0h3m1 0h3m1 0h1m8 0h3M1 13h3m1 0h7m1 0h3m1 0h1m8 0h2M3 14h2m5 0h2m5 0h1M2 15h1m9 0h1m4 0h1M1 16h1m15 0h1M1 17h1m-2 1h1m-1 1h1m5 0h1m1 0h1m6 0h16M0 20h1m29 0h1M0 21h1m5 0h1m1 0h1m20 0h2M0 22h1m27 0h3M1 23h1m26 0h3M1 24h1m12 0h12m2 0h3M2 25h1m25 0h3M3 26h2m8 0h13m2 0h3M5 27h2m21 0h3M6 28h1m21 0h2M6 29h1m21 0h1"/><path stroke="#fff" d="M6 7h1m11 0h3m1 0h2m5 0h2M5 8h1m12 0h3m1 0h2m4 0h3M4 9h2m3 0h1m3 0h1m13 0h3M3 10h2m1 0h3m1 0h3m1 0h3m1 0h6m2 0h3M2 11h2m1 0h3m1 0h3m1 0h3m2 0h6m2 0h2m-10 1h6m-6 1h6m-6 1h6m-6 1h6m-13 1h1m6 0h6m-14 1h1m-2 1h1m-5 3h1m9 0h14M4 22h1m-2 1h1m-2 1h1m10 1h13m-13 2h13"/><path stroke="silver" d="M24 7h1m-1 1h1m-1 1h1M5 10h1m3 0h1m3 0h1m10 0h1M4 11h1m3 0h1m3 0h1m3 0h1m7 0h1m-1 1h1m-1 1h1M7 14h3m14 0h1M7 15h5m12 0h1M7 16h4m1 0h1m11 0h1M7 17h3m1 0h2m6 0h5M1 18h2m4 0h2m1 0h4M1 19h3m5 0h5M1 20h4m4 0h5m1 0h15M1 21h4m5 0h4M1 22h3m1 0h2m4 0h3m1 0h13M2 23h1m1 0h4m4 0h1m1 0h14M3 24h5m18 0h2M3 25h5m18 0h2M5 26h3m4 0h1m13 0h2m-18 1h3m13 0h2M7 28h21M7 29h21"/><path stroke="#ff0" d="M5 14h2m-3 1h3m-2 1h2m-2 1h2m-1 1h1m2 4h1m-1 1h1m-1 1h2m-1 1h2"/><path stroke="#0ff" d="M3 15h1m-1 1h2m-1 1h1m0 1h1m-1 1h1m3 2h1m0 1h1m-1 1h2m-1 1h2"/><path stroke="#0f0" d="M2 16h1m-1 1h2m-1 1h2m-1 1h1m0 1h1m2 2h1m-1 1h1m-1 1h1m-1 1h2m-2 1h2"/></svg>