<svg xmlns="http://www.w3.org/2000/svg" width="32" height="32" shape-rendering="crispEdges" viewBox="0 -0.5 32 32"><path stroke="gray" d="M12 1h15M12 2h1m13 0h1M12 3h1m13 0h2M9 4h15m2 0h1m1 0h1M9 5h1m13 0h1m2 0h1m2 0h1M9 6h1m13 0h2m1 0h1M9 7h1m13 0h1m1 0h1M9 8h1m13 0h1m2 0h1M9 9h1m13 0h1M9 10h1m-1 1h1m-1 1h1m-1 1h1m-1 1h1m1 0h1m-3 1h1m1 0h2m1 0h9M9 16h1m1 0h1m10 0h1m2 0h2M9 17h1m1 0h1m10 0h1m1 0h1M9 18h1m12 0h1M9 19h1m3 0h1m8 0h1m2 0h1M9 20h1m3 0h1m8 0h1M9 21h1m3 0h10M9 22h1m-1 1h1m-1 1h1m-1 1h1m-1 1h1m-1 1h1m-1 1h1m-1 1h1"/><path stroke="#fff" d="M13 2h13M13 3h13m-2 1h2m1 0h1M10 5h13m2 0h1m1 0h2M10 6h13M10 7h13m1 0h1m2 0h3M10 8h13m1 0h2m2 0h2M10 9h13m6 0h1m-20 1h17m2 0h1m-20 1h17m2 0h1m-20 1h17m2 0h1m-20 1h17m2 0h1m-20 1h1m1 0h15m2 0h1m-20 1h1m2 0h1m9 0h4m2 0h1m-20 1h1m1 0h1m1 0h4m6 0h1m4 0h1m-20 1h1m14 0h1m3 0h1m-20 1h1m1 0h1m11 0h1m4 0h1m-20 1h3m16 0h1m-20 1h3m11 0h1m4 0h1m-20 1h3m11 0h3m2 0h1m-20 1h3m11 0h3m2 0h1m-20 1h17m2 0h1m-20 1h17m2 0h1m-20 1h17m2 0h1m-20 1h17m-17 1h17m-17 1h17"/><path stroke="#000" d="M27 2h1m0 1h1m0 1h1m-6 1h1m5 0h1m-6 1h1m1 0h5m-6 1h1m4 0h1m-5 1h1m3 0h1m-8 1h5m2 0h1m-4 1h1m2 0h1m-4 1h1m2 0h1m-4 1h1m2 0h1m-4 1h1m2 0h1m-4 1h1m2 0h1m-4 1h1m2 0h1m-19 1h1m5 0h1m3 0h1m4 0h1m2 0h1m-20 1h2m5 0h1m3 0h1m2 0h1m1 0h1m2 0h1m-21 1h1m1 0h6m4 0h1m2 0h1m1 0h1m2 0h1m-9 1h2m1 0h1m1 0h1m2 0h1m-13 1h1m1 0h1m1 0h1m1 0h2m1 0h1m2 0h1m-9 1h1m4 0h1m2 0h1m-19 1h11m4 0h1m2 0h1m-4 1h1m2 0h1m-4 1h1m2 0h1m-4 1h1m2 0h1m-4 1h1m2 0h1m-4 1h4m-4 1h1m-1 1h1M9 30h20"/><path stroke="silver" d="M30 7h1m-1 1h1m-1 1h1m-4 1h1m2 0h1m-4 1h1m2 0h1m-4 1h1m2 0h1m-4 1h1m2 0h1m-4 1h1m2 0h1m-4 1h1m2 0h1m-13 1h1m1 0h2m5 0h1m2 0h1m-17 1h5m1 0h2m5 0h1m2 0h1m-12 1h3m3 0h1m1 0h1m2 0h1m-17 1h8m5 0h1m2 0h1m-16 1h4m1 0h1m6 0h1m2 0h1m-4 1h1m2 0h1m-4 1h1m2 0h1m-4 1h1m2 0h1m-4 1h1m2 0h1m-4 1h1m2 0h1m-4 1h1m1 0h2m-4 1h1m-1 1h1m-18 1h18"/><path stroke="red" d="M2 8h2M1 9h1m-2 1h1m-1 1h1m4 0h1m-5 1h1m3 0h2m-5 1h6m-3 1h2m-2 1h1m-4 2h2m-3 1h1m-2 1h1m-1 1h1m4 0h1m8 0h1M1 21h1m3 0h2m-5 1h6m-3 1h2m-2 1h1"/></svg>