<svg xmlns="http://www.w3.org/2000/svg" width="32" height="32" shape-rendering="crispEdges" viewBox="0 -0.5 32 32"><path stroke="olive" d="M1 0h3M0 1h1m2 0h1m1 0h12M0 2h1m2 0h1M0 3h4m10 0h1m-1 1h1m-1 1h1m-1 1h1m11 5h1m-2 1h1m-2 1h1m-2 1h1m-2 1h1m-2 1h1m-2 1h1m-4 1h3m-4 1h1m2 0h1m-4 1h1m2 0h1m-4 1h1m2 0h1m-4 1h1m2 0h1m-4 1h1m2 0h1m-3 1h4m1 2h1m0 1h2m-1 1h2m-1 1h1m0 1h1"/><path stroke="#ff0" d="M1 1h2M1 2h1m8 5h3m-3 1h3m-3 1h3m-2 1h2m-2 1h2m-2 1h2m-2 1h2m-2 1h2m12 0h1m-2 1h1m-2 1h1m1 0h1m-4 1h1m1 0h1m-5 1h2m1 0h1m-6 1h1m2 1h1m1 0h1m-12 1h1m5 0h1m1 0h1m1 0h1m-11 1h1m8 0h1m1 0h1m-12 1h1m5 0h1m1 0h1m1 0h1m1 0h1m-13 1h1m8 0h1m1 0h1m-12 1h1m9 0h1m1 0h1m-13 1h2m9 0h1m-12 1h2m-2 1h2"/><path stroke="#000" d="M4 1h1M4 2h1m11 0h1M4 3h10m2 0h1M1 4h3m12 0h1m-1 1h1m-1 1h1m-3 1h3m0 1h2m0 1h1m0 1h1m0 1h1m5 0h2m-8 1h1m5 0h1m-6 1h1m4 0h1m-6 1h1m3 0h1m-1 1h1m-16 1h2m13 0h1m-17 1h1m2 0h1m11 0h1m-16 1h1m2 0h1m11 0h1m-15 1h2m12 0h2m-2 1h1m2 0h1m-4 1h1m2 0h1m-4 1h1m2 0h1m-4 1h3m-3 1h1m-8 1h3m4 0h1m-7 1h1m1 0h1m3 0h1m-9 1h2m3 0h1m-9 1h3m6 0h1m2 0h1M9 29h5m10 0h1m1 0h1m-2 1h1m1 0h1m-2 1h3"/><path stroke="silver" d="M2 2h1m2 0h10m-2 5h1m-1 1h4m-4 1h6m-6 1h6M3 11h2m8 0h5m1 0h1M4 12h2m7 0h4m1 0h1m7 0h1m1 0h1M5 13h2m6 0h3m1 0h1m2 0h1m4 0h1m2 0h1M2 14h2m2 0h2m5 0h2m1 0h1m2 0h1m1 0h1m2 0h1m2 0h1M1 15h5m1 0h2m4 0h1m1 0h1m2 0h1m1 0h1m2 0h1m3 0h1M1 16h6m1 0h2m7 0h1m1 0h1m2 0h1m4 0h1M2 17h1m1 0h1m1 0h1m1 0h1m6 0h5m1 0h1m4 0h2M1 18h1m1 0h1m1 0h1m1 0h1m7 0h2m10 0h1M2 19h1m1 0h1m1 0h1m2 0h1m4 0h2M1 20h1m1 0h1m1 0h1m2 0h1m1 0h1m3 0h2M2 21h1m1 0h1m2 0h1m1 0h3m3 0h1m10 0h1M3 22h1m2 0h1m1 0h4m6 0h1m1 0h1m1 0h1m1 0h1M2 23h1m2 0h1m1 0h5m9 0h1m1 0h1m4 0h1M4 24h1m1 0h6m2 0h1m7 0h1m1 0h1m3 0h1M5 25h7m9 0h1m1 0h1m3 0h1M5 26h7m3 0h1m8 0h1m2 0h1M7 27h5m15 0h1m-18 1h2m15 0h1m-1 1h1m0 1h1"/><path stroke="gray" d="M15 2h1m-1 1h1m-1 1h1m-1 1h1m-6 1h4m1 0h1M7 7h3M5 8h3M4 9h1m-2 1h1m-2 1h1m-1 1h1m17 0h1m8 0h1M1 13h1m17 0h1m1 0h1m4 0h1m2 0h1M1 14h1m16 0h1m1 0h1m9 0h1M0 15h1m10 0h2m4 0h1m1 0h1m1 0h1m8 0h1M0 16h1m9 0h1m2 0h1m2 0h1m1 0h1m1 0h1m9 0h1M0 17h2m1 0h1m1 0h1m1 0h1m1 0h1m4 0h1m16 0h1M0 18h1m1 0h1m1 0h1m1 0h1m1 0h2m4 0h1m11 0h1m4 0h1M0 19h2m1 0h1m1 0h1m1 0h1m2 0h1m2 0h1m13 0h1m3 0h1M0 20h1m1 0h1m1 0h1m1 0h1m4 0h2m14 0h1m3 0h1M0 21h2m1 0h1m1 0h1m21 0h1m3 0h1M1 22h2m1 0h1m21 0h2m3 0h1M1 23h1m1 0h1m27 0h1M2 24h1m23 0h2m3 0h1M3 25h1m22 0h1m4 0h1M4 26h1m21 0h1m3 0h1M5 27h2m9 0h1m8 0h2m3 0h1M7 28h3m20 0h1m-2 1h1m-1 1h1"/><path stroke="#0ff" d="M8 8h2M7 9h3m-2 1h3m-3 1h3m-8 1h1m5 0h2m-9 1h3m4 0h2m-7 1h2m4 0h1m-5 1h1m0 1h1m5 4h1m-1 1h2m-1 1h2m-2 1h2m-1 1h2m-2 1h3m-2 1h3"/><path stroke="#0f0" d="M5 9h2m-3 1h4m-3 1h3m-2 1h3m-2 1h2m-1 1h2m-1 1h2m2 7h1m-1 1h1m-1 1h1m-1 1h2m-1 1h1m-1 1h2"/><path stroke="#fff" d="M19 10h1m-2 1h1m1 0h1m-4 1h1m1 0h1m-4 1h1m1 0h1m-4 1h1m1 0h1m10 0h2m-16 1h1m1 0h1m8 0h1m2 0h2m-16 1h2m8 0h1m3 0h2m-7 1h1m4 0h3m-9 1h1m1 0h1m3 0h3M8 19h1m8 0h1m2 0h5m3 0h3M7 20h1m1 0h1m7 0h2m1 0h1m1 0h1m1 0h1m1 0h1m2 0h2M6 21h1m1 0h1m8 0h1m3 0h1m1 0h2m4 0h2M5 22h1m1 0h1m9 0h1m11 0h2M4 23h1m1 0h1m10 0h1m11 0h2M3 24h1m1 0h1m23 0h2M4 25h1m23 0h3m-3 1h2m-2 1h2m-2 1h2m-2 1h1"/></svg>