<svg xmlns="http://www.w3.org/2000/svg" viewBox="0 -0.5 16 16" shape-rendering="crispEdges">
<path stroke="#808080" d="M0 0h1M7 0h2M6 1h1M6 2h1M8 2h1M6 3h1M8 3h1M6 4h1M8 4h1M4 5h3M8 5h1M10 5h1M2 6h2M6 6h1M8 6h1M11 6h2M1 7h1M6 7h1M13 7h2M0 8h1M5 8h1M8 8h2M14 8h1M0 9h1M6 9h1M13 9h2M0 10h1M12 10h3M0 11h2M10 11h5M0 12h1M2 12h2M8 12h5M4 13h2M8 13h3M6 14h3" />
<path stroke="#c0c0c0" d="M0 0h1M7 1h2M4 6h2M7 6h1M10 6h1M2 7h4M9 7h1M12 7h1M2 8h3M12 8h2M1 9h1M4 9h2M9 9h4M1 10h3M6 10h6M2 11h4M4 12h4M6 13h2" />
<path stroke="#000000" d="M0 0h1M9 1h1M9 2h1M9 3h1M9 4h1M9 5h1M9 6h1M7 7h2M7 8h1M15 8h1M7 9h2M15 9h1M15 10h1M15 11h1M1 12h1M13 12h2M2 13h2M11 13h2M4 14h2M9 14h2M6 15h3" />
<path stroke="#ffffff" d="M0 0h1M7 2h1M7 3h1M7 4h1M7 5h1M1 8h1M6 8h1M2 9h2M4 10h2M6 11h4" />
<path stroke="#800000" d="M0 0h1M10 7h2M10 8h2" />
</svg>