<svg xmlns="http://www.w3.org/2000/svg" width="32" height="32" shape-rendering="crispEdges" viewBox="0 -0.5 32 32"><path stroke="gray" d="M19 0h5m-6 1h1m5 0h1m-8 1h1m7 0h6M17 3h1m12 0h1M17 4h1m12 0h1M16 5h13m1 0h1M16 6h1m10 0h1m2 0h1M9 7h3m4 0h1m12 0h2M8 8h1m3 0h2m3 0h1m10 0h1m1 0h1M7 9h1m6 0h2m1 0h1m12 0h1M6 10h1m11 0h1m10 0h1M6 11h1m11 0h12M5 12h1m-1 1h1m8 0h1M4 14h1m10 0h2M4 15h1m1 3h1m9 0h2M3 19h3m-4 1h1m2 0h1m-5 1h1m-1 1h1m-1 1h1m4 0h1m-7 1h13M0 25h1m10 0h1M0 26h1m12 0h2M1 27h1m10 0h1m1 0h1M1 28h1m12 0h1M2 29h1m10 0h1M2 30h12"/><path stroke="#fff" d="M19 1h5m-6 1h1m5 0h1m-7 1h1m6 0h5M18 4h1m-2 2h10M17 7h1M9 8h3m6 0h1M8 9h6m4 0h1M7 10h9m3 0h1M7 11h8m-9 1h8m-8 1h7m-8 1h8m1 0h1M5 15h7m1 0h4M6 16h6m1 0h3m-8 1h3m1 0h3m-8 1h1m2 0h1m1 0h2m1 0h1M6 19h4m2 0h2m1 0h3M3 20h2m1 0h7m1 0h3M2 21h1m4 0h6m1 0h2M2 22h1m6 0h3m1 0h2M2 23h1m4 0h2m2 0h1m1 0h2m-2 1h1M1 25h10m2 0h1M1 26h1m0 1h1m-1 1h1m0 1h1"/><path stroke="silver" d="M19 2h1m1 0h1m1 0h1m-4 1h1m1 0h1m1 0h1m-6 1h1m1 0h1m1 0h1m1 0h1m1 0h1m1 0h1m-1 2h1M18 7h1m1 0h1m1 0h1m1 0h1m1 0h1m-8 1h1m1 0h1m1 0h1m1 0h1m1 0h1m-8 1h1m1 0h1m1 0h1m1 0h1m1 0h1m-8 1h1m1 0h1m1 0h1m1 0h1M3 21h1m0 1h1m1 0h1m-4 1h1m1 0h1m-4 3h1m1 0h1m1 0h1m1 0h1m1 0h1m-8 1h1m1 0h1m1 0h1m1 0h1m1 0h1m-8 1h1m1 0h1m1 0h1m1 0h1m1 0h1m-8 1h1m1 0h1m1 0h1m1 0h1"/><path stroke="#ff0" d="M20 2h1m1 0h1m-4 1h1m1 0h1m1 0h1m-4 1h1m1 0h1m1 0h1m1 0h1m1 0h1m0 1h1M19 7h1m1 0h1m1 0h1m1 0h1m1 0h1m-8 1h1m1 0h1m1 0h1m1 0h1m-8 1h1m1 0h1m1 0h1m1 0h1m1 0h1m-8 1h1m1 0h1m1 0h1m1 0h1m1 0h1M4 21h1m-2 1h1m1 0h1m-2 1h1m-2 3h1m1 0h1m1 0h1m1 0h1m1 0h1m-8 1h1m1 0h1m1 0h1m1 0h1m-8 1h1m1 0h1m1 0h1m1 0h1m1 0h1m-8 1h1m1 0h1m1 0h1m1 0h1m1 0h1"/><path stroke="#000" d="M31 3h1m-1 1h1m-1 1h1m-4 1h1m2 0h1m-4 1h1m2 0h1m-3 1h1m1 0h1m-3 1h1m1 0h1m-16 1h1m13 0h2m-17 1h1m14 0h2m-18 1h1m5 0h12m-19 1h1m-1 1h1m-2 1h1m4 0h1M4 16h2m6 0h1m3 0h1M6 17h2m3 0h1m3 0h1m-8 1h2m1 0h1m2 0h1m-5 1h2m2 0h1m3 0h1m-6 1h1m3 0h1M5 21h2m6 0h1m2 0h1M7 22h2m3 0h1m2 0h1m-7 1h2m1 0h1m2 0h1m-2 1h2m-4 1h1m1 0h2m-4 1h1m2 0h1m-3 1h1m1 0h1m-3 1h1m1 0h1m-2 1h2m-2 1h2M3 31h13"/></svg>