<svg xmlns="http://www.w3.org/2000/svg" width="16" height="16" shape-rendering="crispEdges" viewBox="0 -0.5 16 16"><path stroke="gray" d="M9 0h3M8 1h1m3 0h3M8 2h1M4 3h1m2 0h6M3 4h1m1 0h1m1 0h1M2 5h1m5 0h1M6 7h1m-6 3h1m-1 1h1m-2 1h6m-6 1h1m0 1h1"/><path stroke="#fff" d="M9 1h3M4 4h1M3 5h3M2 6h3M3 7h1m1 1h2M3 9h3m-4 1h1m1 0h1"/><path stroke="#000" d="M15 1h1m-1 1h1m-3 1h1m1 0h1m-2 1h2M6 5h1m7 0h2M1 6h1m3 0h1m3 0h7M2 7h1m1 0h1M3 8h1m3 0h1M2 9h1m3 0h1m-4 1h1m1 0h1m1 0h2m-5 1h1m1 0h1m1 0h1m-3 1h1m1 0h1m-2 1h2m-2 1h2m-7 1h7"/><path stroke="#ff0" d="M9 2h1m1 0h1m1 0h1m0 1h1M8 4h1m1 0h1m1 0h1M9 5h1m1 0h1m1 0h1M2 11h1m4 1h1m-7 1h1m1 0h1m1 0h1m-4 1h1m1 0h1m1 0h1"/><path stroke="silver" d="M10 2h1m1 0h1m1 0h1M9 4h1m1 0h1m1 0h1m-4 1h1m1 0h1M6 6h1M5 7h1M4 8h1m2 1h1m-2 1h1m-4 1h1m1 0h1m1 0h1m-6 2h1m1 0h1m1 0h1m-4 1h1m1 0h1"/></svg>