<svg xmlns="http://www.w3.org/2000/svg" width="16" height="16" shape-rendering="crispEdges" viewBox="0 -0.5 16 16"><path stroke="gray" d="M0 0h9M0 1h1m8 0h1M0 2h1m9 0h1M0 3h1M0 4h1m12 0h1m1 0h1M0 5h1M0 6h1m12 0h1m1 0h1M0 7h1M0 8h1m5 0h1M0 9h1m3 0h3m-7 1h1m3 0h1m1 0h1m-7 1h1m-1 1h1m-1 1h1m-1 1h1"/><path stroke="#fff" d="M1 1h7M1 2h7m1 0h1M1 3h7M1 4h9M1 5h9M1 6h2m3 0h4M1 7h2m3 0h4M1 8h2m4 0h2M1 9h3m3 0h1m-7 1h3m-3 1h4m4 0h1m-9 1h4m4 0h1m-9 1h9"/><path stroke="silver" d="M8 1h1M8 2h1m1 2h1m-1 1h1M4 6h2m4 0h1m1 0h1M3 7h3m4 0h5M3 8h1m1 0h1m3 0h4M8 9h3m-3 1h3m-3 1h1m1 0h1m-3 1h1m1 0h1m-1 1h1M1 14h10"/><path stroke="#000" d="M8 3h4m-1 1h1m-1 1h1m-1 1h1m-1 3h1m-1 1h1m-1 1h1m-1 1h1m-1 1h1m-1 1h1M0 15h12"/><path stroke="#00f" d="M14 4h1m-2 1h3m-2 1h1"/><path stroke="#ff0" d="M3 6h1m0 2h1m0 2h1"/><path stroke="#bfbf00" d="M7 10h1m-3 1h3m-3 1h3"/></svg>