<svg xmlns="http://www.w3.org/2000/svg" width="16" height="16" shape-rendering="crispEdges" viewBox="0 -0.5 16 16"><path stroke="gray" d="M10 0h3M7 1h3M4 2h3m5 0h1M2 3h2M1 4h1m3 1h1m1 0h1m1 0h1m1 0h1m1 0h1M1 6h1M1 7h1m11 0h1M1 8h1m11 0h1M1 9h1m11 0h1M1 10h1m11 0h1M1 11h1m11 0h1M1 12h1m11 0h1M1 13h1m11 0h1M1 14h13"/><path stroke="#fff" d="M10 1h2M7 2h2M4 3h2M2 6h1m1 0h1m1 0h1m1 0h1m1 0h1m1 0h1M3 7h1m1 0h1m1 0h1m1 0h1m1 0h1M2 8h11M2 9h2m1 0h3m1 0h2m1 0h1M2 10h1m1 0h1m1 0h1m1 0h1m1 0h1m1 0h1M2 11h2m1 0h3m1 0h2m1 0h1M2 12h1m1 0h1m1 0h1m3 0h1m1 0h1M2 13h11"/><path stroke="#000" d="M12 1h1M9 2h3M6 3h3M4 4h2M1 5h1m2 0h1m1 0h1m1 0h1m1 0h1m1 0h1M3 6h1m1 0h1m1 0h1m1 0h1m1 0h1m1 0h2M2 7h1m1 0h1m1 0h1m1 0h1m1 0h1m1 0h1m1 0h1m-1 1h1m-1 1h1m-1 1h1m-1 1h1m-1 1h1m-1 1h1m-1 1h1M2 15h13"/><path stroke="#ff0" d="M2 4h2M2 5h2"/><path stroke="red" d="M4 9h1m-2 1h1m1 0h1m-2 1h1m-2 1h1m1 0h1"/><path stroke="#00f" d="M8 9h1m-2 1h1m1 0h1m-2 1h1m-2 1h3"/><path stroke="#00bf00" d="M11 9h1m-1 1h1m-1 1h1m-1 1h1"/></svg>