<svg xmlns="http://www.w3.org/2000/svg" width="16" height="16" shape-rendering="crispEdges" viewBox="0 -0.5 16 16"><path stroke="gray" d="M2 0h10M2 1h1m9 0h1M2 2h1m10 0h1M2 3h1M2 4h1M2 5h1M2 6h1M2 7h1M2 8h1M2 9h1m-1 1h1m-1 1h1m-1 1h1m-1 1h1m-1 1h1"/><path stroke="#fff" d="M3 1h8M3 2h8m1 0h1M3 3h3m2 0h3M3 4h3m4 0h3M3 5h3m1 0h1m2 0h3M3 6h3m1 0h2m1 0h3M3 7h3m1 0h2m1 0h3M3 8h2m2 0h2m1 0h3M3 9h1m3 0h2m1 0h3M3 10h1m2 0h2m2 0h3M3 11h4m3 0h3M3 12h4m2 0h4M3 13h10"/><path stroke="silver" d="M11 1h1m-1 1h1m1 2h1m-1 1h1m-1 1h1m-1 1h1m-1 1h1m-1 1h1m-1 1h1m-1 1h1m-1 1h1m-1 1h1M3 14h11"/><path stroke="#000" d="M6 3h2m3 0h4M6 4h4m4 0h1M6 5h1m1 0h2m4 0h1M6 6h1m2 0h1m4 0h1M6 7h1m2 0h1m4 0h1M5 8h2m2 0h1m4 0h1M4 9h3m2 0h1m4 0h1M4 10h2m2 0h2m4 0h1m-8 1h3m4 0h1m-8 1h2m5 0h1m-1 1h1m-1 1h1M2 15h13"/></svg>