<svg xmlns="http://www.w3.org/2000/svg" width="16" height="16" shape-rendering="crispEdges" viewBox="0 -0.5 16 16"><path stroke="gray" d="M4 0h9M4 1h1m8 0h1M4 2h1m9 0h1M4 3h1m1 0h1m1 1h1M5 5h1m2 0h1m2 0h1M8 6h1m1 0h1M6 7h1m1 0h1M2 8h1m5 0h1m1 0h3M8 9h1m-7 1h1m5 0h1m1 0h1m-3 1h1m2 0h1m-8 1h1m-1 1h1m-1 1h1"/><path stroke="#fff" d="M5 1h7M5 2h7m1 0h1M8 3h4M5 4h1m3 0h5M4 5h1m2 0h1m1 0h2m1 0h2M3 6h1m3 0h1m1 0h1m1 0h3M1 7h1m2 0h1m2 0h1m1 0h5M4 8h1m2 0h1m1 0h1m3 0h1M7 9h1m1 0h5m-7 1h1m1 0h1m1 0h3m-5 1h2m1 0h2m-6 1h6m-9 1h9"/><path stroke="silver" d="M12 1h1m-1 1h1M7 4h1m6 0h1m-1 1h1M6 6h1m7 0h1M2 7h1m11 0h1m-1 1h1M6 9h1m7 0h1m-1 1h1m-1 1h1m-1 1h1m-1 1h1M5 14h10"/><path stroke="#bfbf00" d="M5 3h1M4 4h1M2 5h2M1 6h2M0 7h1m2 2h1m0 1h1m0 1h2"/><path stroke="#000" d="M7 3h1m4 0h4M6 4h1m8 0h1M6 5h1m8 0h1M5 6h1m9 0h1M5 7h1m9 0h1M0 8h1m4 0h2m8 0h1M1 9h2m2 0h1m9 0h1M3 10h1m2 0h1m8 0h1M4 11h1m2 0h1m7 0h1M5 12h3m7 0h1m-1 1h1m-1 1h1M4 15h12"/><path stroke="#ff0" d="M4 6h1M3 7h1M1 8h1m1 0h1m0 1h1m0 1h1"/></svg>