<svg xmlns="http://www.w3.org/2000/svg" viewBox="0 -0.5 16 16" shape-rendering="crispEdges">
<path stroke="#808080" d="M0 0h1M0 0h9M0 1h1M9 1h1M0 2h1M10 2h1M0 3h1M0 4h1M13 4h1M15 4h1M0 5h1M0 6h1M13 6h1M15 6h1M0 7h1M0 8h1M6 8h1M0 9h1M4 9h3M0 10h1M4 10h1M6 10h1M0 11h1M0 12h1M0 13h1M0 14h1" />
<path stroke="#ffffff" d="M0 0h1M1 1h7M1 2h7M9 2h1M1 3h7M1 4h9M1 5h9M1 6h2M6 6h4M1 7h2M6 7h4M1 8h2M7 8h2M1 9h3M7 9h1M1 10h3M1 11h4M9 11h1M1 12h4M9 12h1M1 13h9" />
<path stroke="#c0c0c0" d="M0 0h1M8 1h1M8 2h1M10 4h1M10 5h1M4 6h2M10 6h1M12 6h1M3 7h3M10 7h5M3 8h1M5 8h1M9 8h4M8 9h3M8 10h3M8 11h1M10 11h1M8 12h1M10 12h1M10 13h1M1 14h10" />
<path stroke="#000000" d="M0 0h1M8 3h4M11 4h1M11 5h1M11 6h1M11 9h1M11 10h1M11 11h1M11 12h1M11 13h1M11 14h1M0 15h12" />
<path stroke="#0000ff" d="M0 0h1M14 4h1M13 5h3M14 6h1" />
<path stroke="#ffff00" d="M0 0h1M3 6h1M4 8h1M5 10h1" />
<path stroke="#bfbf00" d="M0 0h1M7 10h1M5 11h3M5 12h3" />
</svg>