<svg xmlns="http://www.w3.org/2000/svg" width="32" height="32" shape-rendering="crispEdges" viewBox="0 -0.5 32 32"><path stroke="gray" d="M1 2h15M1 3h1m13 0h1M1 4h1m13 0h2M1 5h1m13 0h1m1 0h1M1 6h1m13 0h1m2 0h1M1 7h1m13 0h1M1 8h1M1 9h1m-1 1h1m-1 1h1m-1 1h1m-1 1h1m-1 1h1m-1 1h1m7 0h1m-9 1h1m7 0h1m-9 1h1m8 0h1M1 18h1m4 0h1m2 0h2M1 19h1m5 0h4M1 20h1m5 0h3m-9 1h1m-1 1h1m-1 1h1m-1 1h1m-1 1h1m-1 1h1m-1 1h1m-1 1h1"/><path stroke="#fff" d="M2 3h13M2 4h13M2 5h13m1 0h1M2 6h13m1 0h2M2 7h13M2 8h17M2 9h17M2 10h17M2 11h17M2 12h17M2 13h17M2 14h4m3 0h10M2 15h3m5 0h9M2 16h3m5 0h9M2 17h3m3 0h2m1 0h7M2 18h4m1 0h1m4 0h5M2 19h5m5 0h4M2 20h5m3 0h2m1 0h2M2 21h6m1 0h1m8 0h1M2 22h7m8 0h2M2 23h7m7 0h3M2 24h8m5 0h4M2 25h17M2 26h17M2 27h17"/><path stroke="#000" d="M16 3h1m0 1h1m0 1h1m0 1h1m-4 1h5m-1 1h1m10 0h1M20 9h1m10 0h1m-12 1h1m10 0h1m-12 1h1m7 0h3m-11 1h1m-1 1h1m-1 1h1m-1 1h1m-10 3h1m-1 1h1m8 0h1m-1 1h1M8 21h1m4 0h1m6 0h1m-8 1h1m6 0h1m-8 1h1m6 0h1m-11 1h3m7 0h1m-1 1h1m-1 1h1m-1 1h1m-1 1h1M1 29h20"/><path stroke="#00f" d="M28 7h3m-4 1h1m1 0h2m-4 1h4m-4 1h4"/><path stroke="silver" d="M19 8h1m-1 1h1m-1 1h1m6 0h1m-8 1h1m5 0h3m-9 1h1m4 0h4m-9 1h1m3 0h4M6 14h3m10 0h1m2 0h4M5 15h1m1 0h2m10 0h1m1 0h4M5 16h4m10 0h5M5 17h3m10 0h5m-6 1h5m-6 1h4m-5 1h5m-6 1h4m1 0h1m-6 1h3m2 0h1m-6 1h2m3 0h1m-7 1h2m4 0h1m-1 1h1m-1 1h1m-1 1h1M2 28h18"/><path stroke="#ff0" d="M28 8h1M6 15h1m1 3h1m1 3h1"/><path stroke="#bfbf00" d="M12 20h1m-2 1h2m-4 1h4m-4 1h4"/></svg>