<svg xmlns="http://www.w3.org/2000/svg" width="16" height="16" shape-rendering="crispEdges" viewBox="0 -0.5 16 16"><path stroke="gray" d="M4 0h9M4 1h1m8 0h1M4 2h1m1 0h2m6 0h1M3 3h3M0 4h3M0 5h1m1 1h1m1 0h1m1 0h1m1 0h1M0 7h1m8 0h1M0 8h1m8 0h1M0 9h1m8 0h1M0 10h1m8 0h1M0 11h10m-6 2h1m-1 1h1"/><path stroke="#fff" d="M5 1h7M5 2h1m2 0h4m1 0h1M6 3h2m1 0h3M3 4h2m3 0h6M5 5h9m-4 1h4M1 7h1m1 0h1m1 0h1m1 0h1m3 0h3M1 8h8m2 0h3M1 9h1m2 0h1m1 0h1m1 0h1m2 0h3M1 10h8m2 0h3m-3 1h3m-3 1h3m-9 1h9"/><path stroke="silver" d="M12 1h1m-1 1h1m1 2h1m-1 1h1m-1 1h1m-1 1h1m-1 1h1m-1 1h1m-1 1h1m-1 1h1m-1 1h1m-1 1h1M5 14h10"/><path stroke="#000" d="M8 3h1m3 0h4M5 4h3m7 0h1M2 5h3m10 0h1M0 6h2m1 0h1m1 0h1m1 0h1m1 0h1m5 0h1M2 7h1m1 0h1m1 0h1m1 0h1m1 0h1m4 0h1m-6 1h1m4 0h1m-6 1h1m4 0h1m-6 1h1m4 0h1m-6 1h1m4 0h1M1 12h10m4 0h1m-1 1h1m-1 1h1M4 15h12"/><path stroke="#ff0" d="M1 5h1"/><path stroke="red" d="M2 9h2"/><path stroke="#00f" d="M5 9h1"/><path stroke="#00bf00" d="M7 9h1"/></svg>