<svg xmlns="http://www.w3.org/2000/svg" width="32" height="32" shape-rendering="crispEdges" viewBox="0 -0.5 32 32"><path stroke="#000" d="M24 1h1m-3 1h3m-5 1h3m2 0h1m-8 1h9M16 5h3m5 0h2M14 6h10M12 7h3m5 0h2M10 8h10M9 9h2m4 0h3M7 10h9M4 11h3m5 0h2M3 12h1m3 0h5m-9 1h1m3 0h3m-7 1h1m3 0h4m2 0h3m2 0h3m2 0h3M4 15h5m2 0h3m2 0h3m2 0h3m2 0h1m1 0h1M4 16h3m2 0h3m2 0h3m2 0h3m2 0h3m1 0h1M4 17h1m2 0h3m2 0h3m2 0h3m2 0h3m3 0h1M4 18h4m2 0h3m2 0h3m2 0h3m2 0h2m1 0h1M4 19h1m23 0h1M4 20h1m23 0h1M4 21h1m23 0h1M4 22h1m23 0h1M4 23h1m23 0h1M4 24h1m23 0h1M4 25h1m23 0h1M4 26h1m23 0h1M4 27h1m23 0h1M4 28h1m23 0h1M4 29h1m23 0h1M5 30h24"/><path stroke="#fff" d="M23 3h2m-6 2h5m-9 2h5m-9 2h4m-8 2h5m-7 1h1m-2 1h1m1 0h1m-2 1h1m3 1h2m3 0h2m3 0h2m3 0h2M7 16h2m3 0h2m3 0h2m3 0h2M5 17h2m3 0h2m3 0h2m3 0h2m3 0h2M8 18h2m3 0h2m3 0h2m3 0h2M5 19h22M5 20h22M5 21h5m2 0h4m2 0h4m1 0h4M5 22h4m1 0h2m1 0h2m1 0h2m1 0h2m2 0h4M5 23h6m1 0h5m1 0h4m1 0h4M5 24h7m1 0h3m1 0h5m1 0h4M5 25h4m1 0h2m1 0h2m1 0h6m1 0h4M5 26h5m2 0h3m4 0h3m1 0h4M5 27h22M5 28h22"/><path stroke="#ff0" d="M4 12h1m1 0h1m-2 1h1m-2 1h1m1 0h1"/><path stroke="gray" d="M11 14h2m3 0h2m3 0h2m3 0h2m-1 1h1m-1 1h1m-1 1h1m-1 1h1m-1 1h1m-1 1h1m-1 1h1m-1 1h1m-1 1h1m-1 1h1m-1 1h1m-1 1h1m-1 1h1m-1 1h1M5 29h23"/><path stroke="red" d="M10 21h2m-3 1h1m2 0h1m-2 1h1m0 1h1m-4 1h1m2 0h1m-3 1h2"/><path stroke="#00f" d="M16 21h2m-3 1h1m2 0h1m-2 1h1m-2 1h1m-2 1h1m-1 1h4"/><path stroke="#00bf00" d="M22 21h1m-2 1h2m-1 1h1m-1 1h1m-1 1h1m-1 1h1"/></svg>