<svg xmlns="http://www.w3.org/2000/svg" width="32" height="32" shape-rendering="crispEdges" viewBox="0 -0.5 32 32"><path stroke="gray" d="M8 2h15M8 3h1m13 0h1M8 4h1m9 0h1m3 0h2M8 5h1m7 0h1m2 0h1m2 0h1m1 0h1M8 6h1m5 0h1m7 0h1m2 0h1M8 7h1m3 0h1m9 0h1M8 8h1m1 0h1M8 9h1m-3 1h1m-3 1h2m-3 1h1m2 0h1m-4 1h1m2 0h1m1 0h1m2 0h2m2 0h2m2 0h2m-2 2h1M4 16h1m14 0h1M4 17h1m14 0h1M4 18h1m14 0h1M4 19h1m14 0h1M4 20h1m14 0h1M4 21h1m14 0h1M4 22h1m14 0h1M4 23h16M8 25h1m-1 1h1m-1 1h1m-1 1h1"/><path stroke="#fff" d="M9 3h13M9 4h9m1 0h3M9 5h7m4 0h2m1 0h1M9 6h5m3 0h2m1 0h2m1 0h2M9 7h3m3 0h2m3 0h2M9 8h1m3 0h2m6 0h5M11 9h2m6 0h7M9 10h2m6 0h9M7 11h2m6 0h11m-13 1h13M4 13h2m15 0h5M6 14h1m2 0h2m2 0h2m2 0h2m2 0h5M7 15h2m2 0h2m2 0h2m5 0h4M5 16h14m4 0h3M5 17h3m1 0h3m1 0h3m1 0h2m4 0h3M5 18h2m1 0h1m1 0h1m1 0h1m1 0h1m2 0h2m4 0h3M5 19h3m1 0h3m1 0h3m1 0h2m4 0h3M5 20h2m1 0h1m1 0h1m1 0h4m1 0h2m4 0h3M5 21h3m1 0h2m3 0h2m1 0h2m4 0h3M5 22h14m4 0h3m-3 1h3m-3 1h3m-3 1h3m-3 1h3M9 27h17"/><path stroke="#000" d="M23 3h1m0 1h1m-8 1h2m6 0h1M15 6h2m2 0h1m6 0h1M13 7h2m2 0h2m4 0h5M11 8h2m2 0h2m10 0h1M9 9h2m2 0h2m12 0h1M7 10h2m2 0h2m14 0h1M6 11h1m2 0h2m16 0h1M7 12h2m18 0h1M7 13h1m1 0h2m2 0h2m2 0h2m8 0h1M7 14h2m2 0h2m2 0h2m2 0h2m6 0h1M4 15h3m2 0h2m2 0h2m2 0h2m1 0h1m6 0h1m-8 1h1m6 0h1m-8 1h1m6 0h1m-8 1h1m6 0h1m-8 1h1m6 0h1m-8 1h1m6 0h1m-8 1h1m6 0h1m-8 1h1m6 0h1m-8 1h1m6 0h1M5 24h16m6 0h1m-1 1h1m-1 1h1m-1 1h1m-1 1h1M8 29h20"/><path stroke="silver" d="M19 7h1m-3 1h4m5 0h1M15 9h4m7 0h1m-14 1h4m9 0h1m-16 1h4m11 0h1M9 12h4m13 0h1m-1 1h1m-1 1h1m-6 1h1m4 0h1m-6 1h2m3 0h1m-6 1h2m3 0h1m-6 1h2m3 0h1m-6 1h2m3 0h1m-6 1h2m3 0h1m-6 1h2m3 0h1m-6 1h2m3 0h1m-6 1h2m3 0h1m-6 1h2m3 0h1M6 25h2m1 0h14m3 0h1M7 26h1m1 0h14m3 0h1m-1 1h1M9 28h18"/><path stroke="#ff0" d="M4 12h2"/><path stroke="#bfbf00" d="M4 14h2"/><path stroke="red" d="M8 17h1m-2 1h1m1 0h1m-2 1h1m-2 1h1m1 0h1m-2 1h1"/><path stroke="#00f" d="M12 17h1m-2 1h1m1 0h1m-2 1h1m-2 1h1m-1 1h3"/><path stroke="#00bf00" d="M16 17h1m-2 1h2m-1 1h1m-1 1h1m-1 1h1"/></svg>