<svg xmlns="http://www.w3.org/2000/svg" viewBox="0 -0.5 16 16" shape-rendering="crispEdges">
<path stroke="#808080" d="M0 0h1M4 0h9M4 1h1M13 1h1M4 2h1M6 2h2M14 2h1M3 3h3M0 4h3M0 5h1M2 6h1M4 6h1M6 6h1M8 6h1M0 7h1M9 7h1M0 8h1M9 8h1M0 9h1M9 9h1M0 10h1M9 10h1M0 11h10M4 13h1M4 14h1" />
<path stroke="#ffffff" d="M0 0h1M5 1h7M5 2h1M8 2h4M13 2h1M6 3h2M9 3h3M3 4h2M8 4h6M5 5h9M10 6h4M1 7h1M3 7h1M5 7h1M7 7h1M11 7h3M1 8h8M11 8h3M1 9h1M4 9h1M6 9h1M8 9h1M11 9h3M1 10h8M11 10h3M11 11h3M11 12h3M5 13h9" />
<path stroke="#c0c0c0" d="M0 0h1M12 1h1M12 2h1M14 4h1M14 5h1M14 6h1M14 7h1M14 8h1M14 9h1M14 10h1M14 11h1M14 12h1M14 13h1M5 14h10" />
<path stroke="#000000" d="M0 0h1M8 3h1M12 3h4M5 4h3M15 4h1M2 5h3M15 5h1M0 6h2M3 6h1M5 6h1M7 6h1M9 6h1M15 6h1M2 7h1M4 7h1M6 7h1M8 7h1M10 7h1M15 7h1M10 8h1M15 8h1M10 9h1M15 9h1M10 10h1M15 10h1M10 11h1M15 11h1M1 12h10M15 12h1M15 13h1M15 14h1M4 15h12" />
<path stroke="#ffff00" d="M0 0h1M1 5h1" />
<path stroke="#ff0000" d="M0 0h1M2 9h2" />
<path stroke="#0000ff" d="M0 0h1M5 9h1" />
<path stroke="#00bf00" d="M0 0h1M7 9h1" />
</svg>