<svg xmlns="http://www.w3.org/2000/svg" width="16" height="16" shape-rendering="crispEdges" viewBox="0 -0.5 16 16"><path stroke="gray" d="M4 0h9M4 1h1m8 0h1M4 2h1m9 0h1M4 3h1M4 4h1M0 5h1m3 0h1M0 6h2m1 0h7m2 0h2M0 7h1m8 0h1m1 0h2M9 8h1M2 9h1m6 0h1m2 0h1M2 10h1m6 0h1m-6 2h1m-1 1h1m-1 1h1"/><path stroke="#fff" d="M5 1h7M5 2h7m1 0h1M5 3h7M5 4h9M5 5h9m-4 1h2m-1 2h1m-1 2h1m-1 1h3m-9 1h9m-9 1h9"/><path stroke="silver" d="M12 1h1m-1 1h1m1 2h1m-1 1h1M2 6h1m11 0h1M3 7h3m1 0h2m5 0h1M6 8h3m3 0h1m1 0h1M3 9h6m5 0h1M4 10h2m1 0h1m6 0h1m-1 1h1m-1 1h1m-1 1h1M5 14h10"/><path stroke="#000" d="M12 3h4m-1 1h1m-1 1h1m-1 1h1M1 7h2m3 0h1m3 0h1m2 0h1m1 0h1M0 8h1m1 0h4m4 0h1m2 0h1m1 0h1m-6 1h2m1 0h1m1 0h1M6 10h1m1 0h1m1 0h1m1 0h2m1 0h1M2 11h9m4 0h1m-1 1h1m-1 1h1m-1 1h1M4 15h12"/><path stroke="red" d="M3 10h1"/></svg>