<svg xmlns="http://www.w3.org/2000/svg" viewBox="0 -0.5 48 48" shape-rendering="crispEdges">
<path stroke="#808080" d="M0 0h1M7 0h21M6 1h1M27 1h1M5 2h1M26 2h2M4 3h1M25 3h3M3 4h1M25 4h3M3 5h1M6 5h17M25 5h3M3 6h1M25 6h3M3 7h1M25 7h3M3 8h1M25 8h3M3 9h1M25 9h3M3 10h1M25 10h3M3 11h1M25 11h3M3 12h1M25 12h3M3 13h1M25 13h3M3 14h1M25 14h3M3 15h1M25 15h3M3 16h1M23 16h21M3 17h1M22 17h1M43 17h1M3 18h1M21 18h1M42 18h2M3 19h1M20 19h1M41 19h3M3 20h17M41 20h3M19 21h1M22 21h17M41 21h3M1 22h19M38 22h1M41 22h3M0 23h1M19 23h1M38 23h1M41 23h3M0 24h1M19 24h1M38 24h1M41 24h3M0 25h1M15 25h5M38 25h1M41 25h3M0 26h1M19 26h1M38 26h1M41 26h3M0 27h1M19 27h1M38 27h1M41 27h3M0 28h1M19 28h1M38 28h1M41 28h3M0 29h1M19 29h1M38 29h1M41 29h3M0 30h20M38 30h1M41 30h3M19 31h1M38 31h1M41 31h3M6 32h1M19 32h1M38 32h1M41 32h3M6 33h1M19 33h1M22 33h17M41 33h3M6 34h1M19 34h1M41 34h3M6 35h1M19 35h1M41 35h2M44 35h3M6 36h1M19 36h23M43 36h2M46 36h1M6 37h1M42 37h2M45 37h2M6 38h1M17 38h26M44 38h3M6 39h1M16 39h1M43 39h4M0 40h1M2 40h3M11 40h6M43 40h4M16 41h1M31 41h10M43 41h4M16 42h1M43 42h4M16 43h1M35 43h3M43 43h4M16 44h1M43 44h3M16 45h1M43 45h2M16 46h28" />
<path stroke="#c0c0c0" d="M0 0h1M7 1h19M6 2h19M5 4h20M5 5h1M24 5h1M5 6h1M24 6h1M5 7h1M24 7h1M5 8h1M24 8h1M5 9h1M24 9h1M5 10h1M24 10h1M5 11h1M24 11h1M5 12h1M24 12h1M5 13h1M24 13h1M5 14h1M24 14h1M5 15h1M24 15h1M5 16h1M5 17h1M23 17h19M5 18h1M22 18h19M5 19h15M21 20h20M21 21h1M40 21h1M21 22h1M40 22h1M21 23h1M40 23h1M2 24h17M21 24h1M40 24h1M2 25h13M21 25h1M40 25h1M2 26h2M7 26h8M21 26h1M40 26h1M2 27h2M7 27h12M21 27h1M40 27h1M2 28h17M21 28h1M40 28h1M2 29h17M21 29h1M40 29h1M21 30h1M40 30h1M21 31h1M40 31h1M8 32h1M21 32h1M40 32h1M8 33h1M21 33h1M40 33h1M8 34h1M21 34h1M40 34h1M8 35h1M21 35h20M8 36h1M45 36h1M8 37h1M44 37h1M8 38h1M43 38h1M8 39h1M18 40h25M18 41h13M41 41h2M0 42h1M2 42h3M11 42h5M18 42h2M23 42h8M41 42h2M18 43h2M23 43h12M38 43h5M18 44h25M18 45h25" />
<path stroke="#ffffff" d="M0 0h1M26 1h1M25 2h1M5 3h20M4 4h1M4 5h1M23 5h1M4 6h1M23 6h1M4 7h1M23 7h1M4 8h1M23 8h1M4 9h1M23 9h1M4 10h1M23 10h1M4 11h1M23 11h1M4 12h1M23 12h1M4 13h1M23 13h1M4 14h1M23 14h1M4 15h1M23 15h1M4 16h1M4 17h1M42 17h1M4 18h1M6 18h15M41 18h1M4 19h1M21 19h20M20 20h1M20 21h1M39 21h1M20 22h1M39 22h1M1 23h18M20 23h1M39 23h1M1 24h1M20 24h1M39 24h1M1 25h1M20 25h1M39 25h1M1 26h1M20 26h1M39 26h1M1 27h1M20 27h1M39 27h1M1 28h1M20 28h1M39 28h1M1 29h1M20 29h1M39 29h1M20 30h1M39 30h1M20 31h1M39 31h1M7 32h1M20 32h1M39 32h1M7 33h1M20 33h1M39 33h1M7 34h1M20 34h1M22 34h18M7 35h1M20 35h1M7 36h1M7 37h1M7 38h1M7 39h1M17 39h26M17 40h1M0 41h1M2 41h3M6 41h1M11 41h5M17 41h1M6 42h1M17 42h1M6 43h1M17 43h1M17 44h1M17 45h1" />
<path stroke="#000000" d="M0 0h1M28 1h1M28 2h1M28 3h1M28 4h1M28 5h1M6 6h16M28 6h1M6 7h1M28 7h1M6 8h1M28 8h1M6 9h1M28 9h1M6 10h1M28 10h1M6 11h1M28 11h1M6 12h1M28 12h1M6 13h1M28 13h1M6 14h1M28 14h1M6 15h1M28 15h1M6 16h1M44 17h1M44 18h1M44 19h1M44 20h1M3 21h16M44 21h1M22 22h16M44 22h1M22 23h1M44 23h1M22 24h1M44 24h1M22 25h1M44 25h1M15 26h4M22 26h1M44 26h1M22 27h1M44 27h1M22 28h1M44 28h1M22 29h1M44 29h1M22 30h1M44 30h1M1 31h18M22 31h1M44 31h1M9 32h1M22 32h1M44 32h1M9 33h1M44 33h1M9 34h1M44 34h1M9 35h1M43 35h1M9 36h1M42 36h1M47 36h1M9 37h1M19 37h23M47 37h1M9 38h1M47 38h1M9 39h1M47 39h1M10 40h1M47 40h1M10 41h1M47 41h1M10 42h1M31 42h10M47 42h1M0 43h1M2 43h3M10 43h6M47 43h1M5 44h6M46 44h1M45 45h1M44 46h1M17 47h27" />
<path stroke="#000080" d="M0 0h1M22 6h1M22 7h1M22 8h1M22 9h1M22 10h1M22 11h1M22 12h1M22 13h1M22 14h1M22 15h1M22 16h1M6 17h16" />
<path stroke="#0000ff" d="M0 0h1M7 7h15M7 8h1M9 8h13M7 9h1M9 9h13M7 10h1M9 10h13M7 11h15M7 12h15M7 13h15M7 14h15M7 15h15M7 16h15" />
<path stroke="#00ffff" d="M0 0h1M8 8h1M8 9h1M8 10h1M24 24h1M24 25h1M24 26h1" />
<path stroke="#008080" d="M0 0h1M23 23h15M23 24h1M25 24h13M23 25h1M25 25h13M23 26h1M25 26h13M23 27h15M23 28h15M23 29h15M23 30h15M23 31h15M23 32h15" />
<path stroke="#00ff00" d="M0 0h1M4 26h3M20 42h3" />
<path stroke="#008000" d="M0 0h1M4 27h3M20 43h3" />
<path stroke="#808000" d="M0 0h1M5 40h5M5 41h1M9 41h1M5 42h1M9 42h1M5 43h1M9 43h1" />
<path stroke="#ffff00" d="M0 0h1M7 41h2M7 42h2M7 43h2" />
</svg>