<svg xmlns="http://www.w3.org/2000/svg" width="48" height="48" shape-rendering="crispEdges" viewBox="0 -0.5 48 48"><path stroke="gray" d="M7 0h21M6 1h1m20 0h1M5 2h1m20 0h2M4 3h1m20 0h3M3 4h1m21 0h3M3 5h1m2 0h17m2 0h3M3 6h1m21 0h3M3 7h1m21 0h3M3 8h1m21 0h3M3 9h1m21 0h3M3 10h1m21 0h3M3 11h1m21 0h3M3 12h1m21 0h3M3 13h1m21 0h3M3 14h1m21 0h3M3 15h1m21 0h3M3 16h1m19 0h21M3 17h1m18 0h1m20 0h1M3 18h1m17 0h1m20 0h2M3 19h1m16 0h1m20 0h3M3 20h17m21 0h3m-25 1h1m2 0h17m2 0h3M1 22h19m18 0h1m2 0h3M0 23h1m18 0h1m18 0h1m2 0h3M0 24h1m18 0h1m18 0h1m2 0h3M0 25h1m14 0h5m18 0h1m2 0h3M0 26h1m18 0h1m18 0h1m2 0h3M0 27h1m18 0h1m18 0h1m2 0h3M0 28h1m18 0h1m18 0h1m2 0h3M0 29h1m18 0h1m18 0h1m2 0h3M0 30h20m18 0h1m2 0h3m-25 1h1m18 0h1m2 0h3M6 32h1m12 0h1m18 0h1m2 0h3M6 33h1m12 0h1m2 0h17m2 0h3M6 34h1m12 0h1m21 0h3M6 35h1m12 0h1m21 0h2m1 0h3M6 36h1m12 0h23m1 0h2m1 0h1M6 37h1m35 0h2m1 0h2M6 38h1m10 0h26m1 0h3M6 39h1m9 0h1m26 0h4M0 40h1m1 0h3m6 0h6m26 0h4m-31 1h1m14 0h10m2 0h4m-31 1h1m26 0h4m-31 1h1m18 0h3m5 0h4m-31 1h1m26 0h3m-30 1h1m26 0h2m-29 1h28"/><path stroke="silver" d="M7 1h19M6 2h19M5 4h20M5 5h1m18 0h1M5 6h1m18 0h1M5 7h1m18 0h1M5 8h1m18 0h1M5 9h1m18 0h1M5 10h1m18 0h1M5 11h1m18 0h1M5 12h1m18 0h1M5 13h1m18 0h1M5 14h1m18 0h1M5 15h1m18 0h1M5 16h1m-1 1h1m17 0h19M5 18h1m16 0h19M5 19h15m1 1h20m-20 1h1m18 0h1m-20 1h1m18 0h1m-20 1h1m18 0h1M2 24h17m2 0h1m18 0h1M2 25h13m6 0h1m18 0h1M2 26h2m3 0h8m6 0h1m18 0h1M2 27h2m3 0h12m2 0h1m18 0h1M2 28h17m2 0h1m18 0h1M2 29h17m2 0h1m18 0h1m-20 1h1m18 0h1m-20 1h1m18 0h1M8 32h1m12 0h1m18 0h1M8 33h1m12 0h1m18 0h1M8 34h1m12 0h1m18 0h1M8 35h1m12 0h20M8 36h1m36 0h1M8 37h1m35 0h1M8 38h1m34 0h1M8 39h1m9 1h25m-25 1h13m10 0h2M0 42h1m1 0h3m6 0h5m2 0h2m3 0h8m10 0h2m-25 1h2m3 0h12m3 0h5m-25 1h25m-25 1h25"/><path stroke="#fff" d="M26 1h1m-2 1h1M5 3h20M4 4h1M4 5h1m18 0h1M4 6h1m18 0h1M4 7h1m18 0h1M4 8h1m18 0h1M4 9h1m18 0h1M4 10h1m18 0h1M4 11h1m18 0h1M4 12h1m18 0h1M4 13h1m18 0h1M4 14h1m18 0h1M4 15h1m18 0h1M4 16h1m-1 1h1m37 0h1M4 18h1m1 0h15m20 0h1M4 19h1m16 0h20m-21 1h1m-1 1h1m18 0h1m-20 1h1m18 0h1M1 23h18m1 0h1m18 0h1M1 24h1m18 0h1m18 0h1M1 25h1m18 0h1m18 0h1M1 26h1m18 0h1m18 0h1M1 27h1m18 0h1m18 0h1M1 28h1m18 0h1m18 0h1M1 29h1m18 0h1m18 0h1m-20 1h1m18 0h1m-20 1h1m18 0h1M7 32h1m12 0h1m18 0h1M7 33h1m12 0h1m18 0h1M7 34h1m12 0h1m1 0h18M7 35h1m12 0h1M7 36h1m-1 1h1m-1 1h1m-1 1h1m9 0h26m-26 1h1M0 41h1m1 0h3m1 0h1m4 0h5m1 0h1M6 42h1m10 0h1M6 43h1m10 0h1m-1 1h1m-1 1h1"/><path stroke="#000" d="M28 1h1m-1 1h1m-1 1h1m-1 1h1m-1 1h1M6 6h16m6 0h1M6 7h1m21 0h1M6 8h1m21 0h1M6 9h1m21 0h1M6 10h1m21 0h1M6 11h1m21 0h1M6 12h1m21 0h1M6 13h1m21 0h1M6 14h1m21 0h1M6 15h1m21 0h1M6 16h1m37 1h1m-1 1h1m-1 1h1m-1 1h1M3 21h16m25 0h1m-23 1h16m6 0h1m-23 1h1m21 0h1m-23 1h1m21 0h1m-23 1h1m21 0h1m-30 1h4m3 0h1m21 0h1m-23 1h1m21 0h1m-23 1h1m21 0h1m-23 1h1m21 0h1m-23 1h1m21 0h1M1 31h18m3 0h1m21 0h1M9 32h1m12 0h1m21 0h1M9 33h1m34 0h1M9 34h1m34 0h1M9 35h1m33 0h1M9 36h1m32 0h1m4 0h1M9 37h1m9 0h23m5 0h1M9 38h1m37 0h1M9 39h1m37 0h1m-38 1h1m36 0h1m-38 1h1m36 0h1m-38 1h1m20 0h10m6 0h1M0 43h1m1 0h3m5 0h6m31 0h1M5 44h6m35 0h1m-2 1h1m-2 1h1m-28 1h27"/><path stroke="navy" d="M22 6h1m-1 1h1m-1 1h1m-1 1h1m-1 1h1m-1 1h1m-1 1h1m-1 1h1m-1 1h1m-1 1h1m-1 1h1M6 17h16"/><path stroke="#00f" d="M7 7h15M7 8h1m1 0h13M7 9h1m1 0h13M7 10h1m1 0h13M7 11h15M7 12h15M7 13h15M7 14h15M7 15h15M7 16h15"/><path stroke="#0ff" d="M8 8h1M8 9h1m-1 1h1m15 14h1m-1 1h1m-1 1h1"/><path stroke="teal" d="M23 23h15m-15 1h1m1 0h13m-15 1h1m1 0h13m-15 1h1m1 0h13m-15 1h15m-15 1h15m-15 1h15m-15 1h15m-15 1h15m-15 1h15"/><path stroke="#0f0" d="M4 26h3m13 16h3"/><path stroke="green" d="M4 27h3m13 16h3"/><path stroke="olive" d="M5 40h5m-5 1h1m3 0h1m-5 1h1m3 0h1m-5 1h1m3 0h1"/><path stroke="#ff0" d="M7 41h2m-2 1h2m-2 1h2"/></svg>