<svg xmlns="http://www.w3.org/2000/svg" width="48" height="48" shape-rendering="crispEdges" viewBox="0 -0.5 48 48"><path stroke="gray" d="M17 0h15M16 1h1m14 0h1M6 2h6m3 0h1m16 0h1M5 3h1m6 0h1m1 0h1m12 0h1m5 0h1M4 4h1m9 0h1m10 0h1m8 0h1M4 5h1m30 0h1M4 6h1m31 0h1M22 7h1m14 0h1m0 1h1M9 9h4m8 0h1m17 0h1M9 10h1m3 0h1m26 0h1m-29 1h1m7 0h1m20 0h1M9 12h1m32 0h1M9 13h1m3 0h1m29 0h1m0 1h1m-1 1h1m-1 1h1m-2 1h1m-21 1h1m18 0h1m-2 1h1m-2 1h1m-15 1h1m12 0h1m-2 1h1m-2 1h1m-25 1h1m15 0h1m6 0h1m-24 1h1m21 0h1m-23 1h1m2 0h1m17 0h1m-22 1h1m3 0h1m15 0h1m-21 1h1m4 0h1m13 0h1m-20 1h1m5 0h1m11 0h1m-19 1h1m6 0h1m9 0h1m-18 1h1m7 0h1m7 0h1m-17 1h1m8 0h1m5 0h1m-16 1h1m9 0h1m3 0h1m-15 1h1m10 0h1m-12 1h1m-1 1h1m-1 1h1m-1 1h1m-1 1h1m-1 1h1m-1 1h1m-1 1h1m-1 1h1m-1 1h1m-1 1h1m-1 1h1"/><path stroke="#000" d="M6 1h6m20 0h1M5 2h1m6 0h1m20 0h1M4 3h1m8 0h1m14 0h2m4 0h1M3 4h1m9 0h1m12 0h5m4 0h1M3 5h1m10 0h1m9 0h8m4 0h1M3 6h1m10 0h1m1 0h1m6 0h4m3 0h3m4 0h1M3 7h1m10 0h1m2 0h1m5 0h3m5 0h3m4 0h1M9 8h6m3 0h1m3 0h5m5 0h3m4 0h1M8 9h1m4 0h2m4 0h1m2 0h2m2 0h2m3 0h5m4 0h1M8 10h1m3 0h1m1 0h1m5 0h3m3 0h3m1 0h7m4 0h1M8 11h4m2 0h1m6 0h2m4 0h5m3 0h3m4 0h1M8 12h1m5 0h1m6 0h1m6 0h3m5 0h3m4 0h1M8 13h1m5 0h1m6 0h2m4 0h5m5 0h3m4 0h1M9 14h5m7 0h3m2 0h3m1 0h3m3 0h5m4 0h1m-25 1h4m1 0h2m3 0h3m1 0h5m5 0h1m-25 1h1m1 0h5m4 0h6m7 0h1m-25 1h1m2 0h4m5 0h3m8 0h1m-25 1h1m4 0h3m4 0h3m8 0h1m-25 1h1m6 0h3m2 0h3m8 0h1m-25 1h1m8 0h3m1 0h3m7 0h1m-25 1h1m10 0h5m7 0h1m-12 1h4m6 0h1m-25 1h1m14 0h2m6 0h1m-24 1h1m12 0h1m2 0h1m5 0h1m-23 1h1m12 0h2m6 0h1m-22 1h1m10 0h1m1 0h1m6 0h1m-21 1h1m10 0h2m6 0h1m-20 1h1m6 0h1m1 0h2m1 0h1m5 0h1m-19 1h1m7 0h1m1 0h1m6 0h1M8 30h1m6 0h1m15 0h1M9 31h1m5 0h1m14 0h1M9 32h1m5 0h1m13 0h1m-15 1h1m12 0h1m-14 1h1m9 0h3m-13 1h1m-1 1h1m-1 1h1m-1 1h1m-7 1h1m5 0h1m-7 1h1m5 0h1m-1 1h1m-1 1h1m-9 1h1m7 0h1m-8 1h1m6 0h1m-7 1h1m4 0h1m-5 1h1m3 0h1m-4 1h3"/><path stroke="silver" d="M17 1h14M16 2h1m14 0h1M15 3h1m16 0h1m0 1h1m0 1h1m0 1h1m0 1h1m0 1h1m0 1h1m0 1h1m0 1h1M6 12h2m7 0h2m24 0h1m0 1h1M6 14h3m5 0h3m26 0h1m-1 1h1M6 16h11m26 0h1m-2 1h1M8 18h7m26 0h1m-2 1h1m-20 1h1m17 0h1m-2 1h1m-2 1h1m-26 1h1m11 0h1m11 0h1m-26 1h1m23 0h1m-25 1h1m4 0h1m17 0h1m-24 1h1m5 0h1m9 0h1m5 0h1m-23 1h1m6 0h1m13 0h1m-22 1h1m7 0h1m11 0h1m-21 1h1m8 0h1m9 0h1m-20 1h1m9 0h1m7 0h1m-19 1h1m10 0h1m5 0h1m-18 1h1m11 0h1m3 0h1m-17 1h1m12 0h3m-16 1h1m-1 1h1m-1 1h1m-1 1h1m-1 1h1m-1 1h1m-1 1h1m-1 1h1m-1 1h1m-1 1h1m-1 1h1"/><path stroke="#fff" d="M17 2h14M16 3h11m3 0h2M15 4h10m6 0h2M16 5h8m8 0h2M6 6h8m3 0h6m10 0h2M5 7h1m12 0h4m12 0h2M4 8h1m14 0h3m13 0h2M3 9h1m16 0h1m15 0h2M2 10h1m7 0h2m25 0h2M2 11h1m10 0h1m24 0h2M2 12h1m7 0h4m25 0h2M2 13h1m7 0h3m27 0h2M2 14h1m38 0h2M2 15h1m37 0h3M2 16h1m19 0h1m15 0h5M2 17h1m19 0h2m12 0h6M3 18h1m17 0h1m2 0h1m10 0h6M4 19h1m15 0h2m2 0h2m8 0h6M5 20h1m13 0h1m3 0h4m7 0h5M6 21h1m11 0h2m2 0h3m2 0h1m5 0h5M7 22h1m9 0h1m2 0h1m1 0h3m2 0h2m4 0h4M8 23h1m7 0h1m1 0h1m1 0h3m3 0h4m2 0h4M9 24h1m6 0h7m2 0h3m2 0h1m1 0h3M9 25h1m7 0h2m1 0h1m2 0h1m1 0h3m2 0h4M8 26h1m9 0h2m1 0h1m1 0h3m3 0h4M7 27h1m11 0h7m2 0h4M7 28h1m12 0h2m1 0h1m2 0h1m1 0h3m-10 1h2m1 0h1m1 0h4m-8 1h7m-6 1h5m-4 1h3M9 33h1m-3 1h2m-2 1h1m0 1h1m0 1h1m0 2h1m-3 2h1m-1 1h1"/><path stroke="olive" d="M6 5h8m1 0h1M5 6h1m9 0h1M4 7h1m11 0h1M3 8h1m13 0h1M2 9h1m15 0h1M1 10h1m17 0h1M1 11h1m30 0h1M1 12h1m18 0h1m10 0h1M1 13h1m18 0h1M1 14h1m18 0h1M1 15h1m18 0h1m13 0h1M1 16h1m18 0h1M1 17h1m18 0h1M2 18h1m16 0h1M3 19h1m14 0h1M4 20h1m12 0h1M5 21h1m10 0h1M6 22h1m7 0h2m-9 1h1m5 0h2m-7 1h1m3 0h1m-5 1h1m3 0h1m-6 1h1m4 0h1m-7 1h1m5 0h1m-7 1h1m5 0h1m-6 1h2m3 0h1m-4 1h1m2 0h1m-1 1h1m-5 1h1m3 0h1m-6 1h2m3 0h1m-7 1h1m5 0h1m-7 1h1m5 0h1m-6 1h1m4 0h1m-6 1h2m3 0h1m-5 1h2m2 0h1m-1 1h1m-5 1h1m3 0h1m-6 1h1m4 0h1m-6 1h1m4 0h1m-5 1h1m3 0h1m-4 1h1m2 0h1m1 0h1m-5 1h1m1 0h1m-2 1h2"/><path stroke="green" d="M27 6h1m1 0h1m-4 1h1m4 1h1m-2 1h1m-2 1h1"/><path stroke="#0f0" d="M28 6h1m-2 1h4m-4 1h4m-3 1h2"/><path stroke="#ff0" d="M6 7h8m1 0h1M5 8h4m6 0h2M4 9h4m7 0h3M3 10h5m7 0h4M3 11h5m7 0h5m13 0h2M3 12h3m11 0h3m12 0h4M3 13h5m7 0h5m12 0h5M3 14h3m11 0h3m13 0h3M3 15h17M3 16h3m11 0h3M3 17h17M4 18h4m7 0h4M5 19h13M6 20h11M7 21h9m-8 1h6m-5 1h3m-2 1h1m3 0h1m-5 1h1m3 0h1m-6 1h2m3 0h1m-7 1h3m3 0h1m-7 1h3m3 0h1m-6 1h2m3 0h1m-5 1h1m3 0h1m-5 1h1m3 0h1m-5 1h1m3 0h1m-5 1h1m3 0h1m-6 1h2m3 0h1m-7 1h3m3 0h1m-6 1h2m3 0h1m-5 1h1m3 0h1m-5 1h1m3 0h1m-1 1h1m-5 1h1m3 0h1m-6 1h2m3 0h1m-6 1h2m3 0h1m-6 1h2m3 0h1m-5 1h1m0 1h1"/><path stroke="maroon" d="M24 9h2m-3 1h1m-1 1h1m-2 1h1m4 0h1m-2 1h1m-2 2h1"/><path stroke="red" d="M24 10h2m-2 1h3m-4 1h4m-4 1h3m-2 1h2m-4 4h1m-1 1h2m-4 1h1m1 0h1m-3 1h2m-6 1h1m1 0h2m1 0h1m-5 1h1m1 0h1"/><path stroke="navy" d="M29 14h1m-2 1h1m-1 1h1m3 1h1"/><path stroke="#00f" d="M29 15h2m-2 1h3m-4 1h4m-4 1h4m-3 1h2m-1 1h1m-6 1h1m-1 1h2m-4 1h1m1 0h1m-3 1h2m-6 1h1m1 0h2m1 0h1m-5 1h1m1 0h1"/></svg>