<svg xmlns="http://www.w3.org/2000/svg" viewBox="0 -0.5 48 48" shape-rendering="crispEdges">
<path stroke="#808080" d="M0 0h1M17 0h15M16 1h1M31 1h1M6 2h6M15 2h1M32 2h1M5 3h1M12 3h1M14 3h1M27 3h1M33 3h1M4 4h1M14 4h1M25 4h1M34 4h1M4 5h1M35 5h1M4 6h1M36 6h1M22 7h1M37 7h1M38 8h1M9 9h4M21 9h1M39 9h1M9 10h1M13 10h1M40 10h1M12 11h1M20 11h1M41 11h1M9 12h1M42 12h1M9 13h1M13 13h1M43 13h1M44 14h1M44 15h1M44 16h1M43 17h1M23 18h1M42 18h1M41 19h1M40 20h1M26 21h1M39 21h1M38 22h1M37 23h1M13 24h1M29 24h1M36 24h1M13 25h1M35 25h1M13 26h1M16 26h1M34 26h1M13 27h1M17 27h1M33 27h1M13 28h1M18 28h1M32 28h1M13 29h1M19 29h1M31 29h1M13 30h1M20 30h1M30 30h1M13 31h1M21 31h1M29 31h1M13 32h1M22 32h1M28 32h1M13 33h1M23 33h1M27 33h1M13 34h1M24 34h1M13 35h1M13 36h1M13 37h1M13 38h1M13 39h1M13 40h1M13 41h1M13 42h1M13 43h1M13 44h1M13 45h1M13 46h1" />
<path stroke="#000000" d="M0 0h1M6 1h6M32 1h1M5 2h1M12 2h1M33 2h1M4 3h1M13 3h1M28 3h2M34 3h1M3 4h1M13 4h1M26 4h5M35 4h1M3 5h1M14 5h1M24 5h8M36 5h1M3 6h1M14 6h1M16 6h1M23 6h4M30 6h3M37 6h1M3 7h1M14 7h1M17 7h1M23 7h3M31 7h3M38 7h1M9 8h6M18 8h1M22 8h5M32 8h3M39 8h1M8 9h1M13 9h2M19 9h1M22 9h2M26 9h2M31 9h5M40 9h1M8 10h1M12 10h1M14 10h1M20 10h3M26 10h3M30 10h7M41 10h1M8 11h4M14 11h1M21 11h2M27 11h5M35 11h3M42 11h1M8 12h1M14 12h1M21 12h1M28 12h3M36 12h3M43 12h1M8 13h1M14 13h1M21 13h2M27 13h5M37 13h3M44 13h1M9 14h5M21 14h3M26 14h3M30 14h3M36 14h5M45 14h1M21 15h4M26 15h2M31 15h3M35 15h5M45 15h1M21 16h1M23 16h5M32 16h6M45 16h1M21 17h1M24 17h4M33 17h3M44 17h1M20 18h1M25 18h3M32 18h3M43 18h1M19 19h1M26 19h3M31 19h3M42 19h1M18 20h1M27 20h3M31 20h3M41 20h1M17 21h1M28 21h5M40 21h1M29 22h4M39 22h1M15 23h1M30 23h2M38 23h1M15 24h1M28 24h1M31 24h1M37 24h1M15 25h1M28 25h2M36 25h1M15 26h1M26 26h1M28 26h1M35 26h1M15 27h1M26 27h2M34 27h1M15 28h1M22 28h1M24 28h2M27 28h1M33 28h1M15 29h1M23 29h1M25 29h1M32 29h1M8 30h1M15 30h1M31 30h1M9 31h1M15 31h1M30 31h1M9 32h1M15 32h1M29 32h1M15 33h1M28 33h1M15 34h1M25 34h3M15 35h1M15 36h1M15 37h1M15 38h1M9 39h1M15 39h1M9 40h1M15 40h1M15 41h1M15 42h1M7 43h1M15 43h1M8 44h1M15 44h1M9 45h1M14 45h1M10 46h1M14 46h1M11 47h3" />
<path stroke="#c0c0c0" d="M0 0h1M17 1h14M16 2h1M31 2h1M15 3h1M32 3h1M33 4h1M34 5h1M35 6h1M36 7h1M37 8h1M38 9h1M39 10h1M40 11h1M6 12h2M15 12h2M41 12h1M42 13h1M6 14h3M14 14h3M43 14h1M43 15h1M6 16h11M43 16h1M42 17h1M8 18h7M41 18h1M40 19h1M21 20h1M39 20h1M38 21h1M37 22h1M12 23h1M24 23h1M36 23h1M11 24h1M35 24h1M11 25h1M16 25h1M34 25h1M11 26h1M17 26h1M27 26h1M33 26h1M11 27h1M18 27h1M32 27h1M11 28h1M19 28h1M31 28h1M11 29h1M20 29h1M30 29h1M11 30h1M21 30h1M29 30h1M11 31h1M22 31h1M28 31h1M11 32h1M23 32h1M27 32h1M11 33h1M24 33h3M11 34h1M11 35h1M11 36h1M11 37h1M11 38h1M11 39h1M11 40h1M11 41h1M11 42h1M11 43h1M11 44h1" />
<path stroke="#ffffff" d="M0 0h1M17 2h14M16 3h11M30 3h2M15 4h10M31 4h2M16 5h8M32 5h2M6 6h8M17 6h6M33 6h2M5 7h1M18 7h4M34 7h2M4 8h1M19 8h3M35 8h2M3 9h1M20 9h1M36 9h2M2 10h1M10 10h2M37 10h2M2 11h1M13 11h1M38 11h2M2 12h1M10 12h4M39 12h2M2 13h1M10 13h3M40 13h2M2 14h1M41 14h2M2 15h1M40 15h3M2 16h1M22 16h1M38 16h5M2 17h1M22 17h2M36 17h6M3 18h1M21 18h1M24 18h1M35 18h6M4 19h1M20 19h2M24 19h2M34 19h6M5 20h1M19 20h1M23 20h4M34 20h5M6 21h1M18 21h2M22 21h3M27 21h1M33 21h5M7 22h1M17 22h1M20 22h1M22 22h3M27 22h2M33 22h4M8 23h1M16 23h1M18 23h1M20 23h3M26 23h4M32 23h4M9 24h1M16 24h7M25 24h3M30 24h1M32 24h3M9 25h1M17 25h2M20 25h1M23 25h1M25 25h3M30 25h4M8 26h1M18 26h2M21 26h1M23 26h3M29 26h4M7 27h1M19 27h7M28 27h4M7 28h1M20 28h2M23 28h1M26 28h1M28 28h3M21 29h2M24 29h1M26 29h4M22 30h7M23 31h5M24 32h3M9 33h1M7 34h2M7 35h1M8 36h1M9 37h1M10 39h1M8 41h1M8 42h1" />
<path stroke="#808000" d="M0 0h1M6 5h8M15 5h1M5 6h1M15 6h1M4 7h1M16 7h1M3 8h1M17 8h1M2 9h1M18 9h1M1 10h1M19 10h1M1 11h1M32 11h1M1 12h1M20 12h1M31 12h1M1 13h1M20 13h1M1 14h1M20 14h1M1 15h1M20 15h1M34 15h1M1 16h1M20 16h1M1 17h1M20 17h1M2 18h1M19 18h1M3 19h1M18 19h1M4 20h1M17 20h1M5 21h1M16 21h1M6 22h1M14 22h2M7 23h1M13 23h2M8 24h1M12 24h1M8 25h1M12 25h1M7 26h1M12 26h1M6 27h1M12 27h1M6 28h1M12 28h1M7 29h2M12 29h1M9 30h1M12 30h1M12 31h1M8 32h1M12 32h1M7 33h2M12 33h1M6 34h1M12 34h1M6 35h1M12 35h1M7 36h1M12 36h1M7 37h2M12 37h1M8 38h2M12 38h1M12 39h1M8 40h1M12 40h1M7 41h1M12 41h1M7 42h1M12 42h1M8 43h1M12 43h1M9 44h1M12 44h1M14 44h1M10 45h1M12 45h1M11 46h2" />
<path stroke="#008000" d="M0 0h1M27 6h1M29 6h1M26 7h1M31 8h1M30 9h1M29 10h1" />
<path stroke="#00ff00" d="M0 0h1M28 6h1M27 7h4M27 8h4M28 9h2" />
<path stroke="#ffff00" d="M0 0h1M6 7h8M15 7h1M5 8h4M15 8h2M4 9h4M15 9h3M3 10h5M15 10h4M3 11h5M15 11h5M33 11h2M3 12h3M17 12h3M32 12h4M3 13h5M15 13h5M32 13h5M3 14h3M17 14h3M33 14h3M3 15h17M3 16h3M17 16h3M3 17h17M4 18h4M15 18h4M5 19h13M6 20h11M7 21h9M8 22h6M9 23h3M10 24h1M14 24h1M10 25h1M14 25h1M9 26h2M14 26h1M8 27h3M14 27h1M8 28h3M14 28h1M9 29h2M14 29h1M10 30h1M14 30h1M10 31h1M14 31h1M10 32h1M14 32h1M10 33h1M14 33h1M9 34h2M14 34h1M8 35h3M14 35h1M9 36h2M14 36h1M10 37h1M14 37h1M10 38h1M14 38h1M14 39h1M10 40h1M14 40h1M9 41h2M14 41h1M9 42h2M14 42h1M9 43h2M14 43h1M10 44h1M11 45h1" />
<path stroke="#800000" d="M0 0h1M24 9h2M23 10h1M23 11h1M22 12h1M27 12h1M26 13h1M25 15h1" />
<path stroke="#ff0000" d="M0 0h1M24 10h2M24 11h3M23 12h4M23 13h3M24 14h2M22 18h1M22 19h2M20 20h1M22 20h1M20 21h2M16 22h1M18 22h2M21 22h1M17 23h1M19 23h1" />
<path stroke="#000080" d="M0 0h1M29 14h1M28 15h1M28 16h1M32 17h1" />
<path stroke="#0000ff" d="M0 0h1M29 15h2M29 16h3M28 17h4M28 18h4M29 19h2M30 20h1M25 21h1M25 22h2M23 23h1M25 23h1M23 24h2M19 25h1M21 25h2M24 25h1M20 26h1M22 26h1" />
</svg>