<svg xmlns="http://www.w3.org/2000/svg" viewBox="0 -0.5 32 32" shape-rendering="crispEdges">
<path stroke="#000000" d="M0 0h1M24 1h1M24 2h1M24 3h1M24 4h1M19 5h2M23 5h1M25 5h1M19 6h2M23 6h1M25 6h1M18 7h3M23 7h1M25 7h1M17 8h1M19 8h2M23 8h1M25 8h1M30 8h1M16 9h1M19 9h2M23 9h1M25 9h1M30 9h1M15 10h1M19 10h2M23 10h1M25 10h1M30 10h1M6 11h1M14 11h1M19 11h2M23 11h1M25 11h1M30 11h1M2 12h1M6 12h1M13 12h1M19 12h2M22 12h1M26 12h1M30 12h1M2 13h1M6 13h1M11 13h2M19 13h2M22 13h1M26 13h1M30 13h1M2 14h1M5 14h1M7 14h1M9 14h2M19 14h2M22 14h1M26 14h1M29 14h1M1 15h1M3 15h1M5 15h1M7 15h1M9 15h1M19 15h2M22 15h1M26 15h1M29 15h1M1 16h1M3 16h1M5 16h1M7 16h1M9 16h1M19 16h2M22 16h1M26 16h1M29 16h1M1 17h1M3 17h1M5 17h1M7 17h1M9 17h1M11 17h1M19 17h2M26 17h1M29 17h1M1 18h1M3 18h1M5 18h1M9 18h3M19 18h2M26 18h1M29 18h1M1 19h1M3 19h1M5 19h1M11 19h2M19 19h2M27 19h1M29 19h1M3 20h1M5 20h1M13 20h1M19 20h2M27 20h1M29 20h1M4 21h1M14 21h1M19 21h2M27 21h1M29 21h1M4 22h1M15 22h1M19 22h2M27 22h1M29 22h1M4 23h1M16 23h1M19 23h2M27 23h1M29 23h1M4 24h1M17 24h1M19 24h2M27 24h1M29 24h1M18 25h3M27 25h2M19 26h2M28 26h1M19 27h2M28 27h1M28 28h1M28 29h1M28 30h1" />
<path stroke="#808080" d="M0 0h1M18 8h1M17 9h1M16 10h1M15 11h1M18 11h1M14 12h1M17 12h1M13 13h1M16 13h1M18 13h1M11 14h2M15 14h1M17 14h2M11 15h1M14 15h1M16 15h3M11 16h1M13 16h1M15 16h4M10 17h1M12 17h7M12 18h7M13 19h6M14 20h5M15 21h4M16 22h3M17 23h2M18 24h1" />
<path stroke="#ffffff" d="M0 0h1M18 9h1M17 10h1M16 11h1M15 12h1M14 13h1M13 14h1M10 15h1M12 15h1" />
<path stroke="#c0c0c0" d="M0 0h1M18 10h1M17 11h1M16 12h1M18 12h1M15 13h1M17 13h1M14 14h1M16 14h1M13 15h1M15 15h1M10 16h1M12 16h1M14 16h1" />
</svg>