<svg xmlns="http://www.w3.org/2000/svg" width="32" height="32" shape-rendering="crispEdges" viewBox="0 -0.5 32 32"><path stroke="gray" d="M2 0h27M1 1h1M0 2h1M0 3h1M0 4h1M0 5h1M0 6h1M0 7h1M0 8h1M0 9h1m-1 1h1m-1 1h1m-1 1h1m-1 1h1m-1 1h1m-1 1h1m-1 1h1m-1 1h1m-1 1h1m-1 1h1m-1 1h1m-1 1h1m-1 1h1m-1 1h1m-1 1h1m-1 1h1m-1 1h1m-1 1h1m-1 1h1m-1 1h1"/><path stroke="#000" d="M29 0h1m0 1h1m0 1h1m-1 1h1m-1 1h1m-1 1h1m-1 1h1m-1 1h1m-1 1h1m-1 1h1m-1 1h1m-1 1h1m-1 1h1m-1 1h1m-1 1h1m-1 1h1m-1 1h1m-1 1h1m-1 1h1m-1 1h1m-1 1h1m-1 1h1m-1 1h1m-1 1h1m-1 1h1m-1 1h1m-1 1h1m-1 1h1m-1 1h1m-1 1h1M1 30h1m28 0h1M2 31h28"/><path stroke="#fff" d="M2 1h28M1 2h8m2 0h2m4 0h14M1 3h6m2 0h3m1 0h4m1 0h4m1 0h8M1 4h5m1 0h4m1 0h2m1 0h2m1 0h3m1 0h9M1 5h4m1 0h3m1 0h1m1 0h2m1 0h2m1 0h2m2 0h9M1 6h4m1 0h3m1 0h1m1 0h3m1 0h3m2 0h10M1 7h4m1 0h3m1 0h2m1 0h3m1 0h1m2 0h11M1 8h4m1 0h4m1 0h1m1 0h2m1 0h2m1 0h12M1 9h5m1 0h4m1 0h1m2 0h4m1 0h11M1 10h6m2 0h3m1 0h2m1 0h4m1 0h10M1 11h8m1 0h2m1 0h3m1 0h4m1 0h9M1 12h6m12 0h1m1 0h2m5 0h3M1 13h4m8 0h4m1 0h4m2 0h1m4 0h2M1 14h3m1 0h1m1 0h5m1 0h1m5 0h2m2 0h1m2 0h2m2 0h1M1 15h3m3 0h4m1 0h6m4 0h1m1 0h2m1 0h2m1 0h1M1 16h3m2 0h1m13 0h2m1 0h3m1 0h2m1 0h1M1 17h4m2 0h1m8 0h10m1 0h1m1 0h2M1 18h5m1 0h11m1 0h2m1 0h3m1 0h2m1 0h2M1 19h4m4 0h10m2 0h3m1 0h2m1 0h3M1 20h5m7 0h1m2 0h1m1 0h7m2 0h4M1 21h6m1 0h11m1 0h3m2 0h6M1 22h5m5 0h1m4 0h1m2 0h2m2 0h8M1 23h2m2 0h2m1 0h1m1 0h10m1 0h4m3 0h3M1 24h1m1 0h3m1 0h1m12 0h3m1 0h4m1 0h2M1 25h1m1 0h2m1 0h3m1 0h1m7 0h6m1 0h2m2 0h2M1 26h1m2 0h2m2 0h13m3 0h3m1 0h3M1 27h2m3 0h3m3 0h6m3 0h3m3 0h4M1 28h4m4 0h3m6 0h3m4 0h6M1 29h7m14 0h9M2 30h28"/><path stroke="red" d="M9 2h2m2 0h4M7 3h2m3 0h1m4 0h1m4 0h1M6 4h1m4 0h1m2 0h1m2 0h1m3 0h1M5 5h1m3 0h1m1 0h1m2 0h1m2 0h1m2 0h2M5 6h1m3 0h1m1 0h1m3 0h1m3 0h2M5 7h1m3 0h1m2 0h1m3 0h1m1 0h2M5 8h1m4 0h1m1 0h1m2 0h1m2 0h1M6 9h1m4 0h1m1 0h2m4 0h1M7 10h2m3 0h1m2 0h1m4 0h1M9 11h1m2 0h1m3 0h1m4 0h1m-12 1h1m1 0h1m3 0h2m2 0h1m-10 1h2m4 0h1m-6 1h1m4 0h2m-8 1h1m6 0h1m-8 1h1m4 0h1m-6 1h1m3 0h1"/><path stroke="navy" d="M7 12h3m1 0h1m1 0h3m2 0h1m4 0h5M5 13h6m11 0h2m1 0h4M4 14h1m1 0h1m7 0h3m4 0h2m1 0h2m2 0h2M4 15h3m12 0h3m1 0h1m2 0h1m2 0h1M4 16h2m1 0h4m1 0h4m1 0h3m2 0h1m3 0h1m2 0h1M5 17h2m1 0h3m1 0h3m11 0h1m1 0h1M6 18h1m11 0h1m2 0h1m3 0h1m2 0h1M5 19h4m10 0h2m3 0h1m2 0h1M6 20h7m1 0h2m1 0h1m7 0h2M7 21h1m11 0h1m3 0h2M6 22h5m1 0h4m1 0h2m2 0h2M3 23h2m2 0h1m1 0h1m10 0h1m4 0h3M2 24h1m3 0h1m1 0h12m3 0h1m4 0h1M2 25h1m2 0h1m3 0h1m1 0h7m6 0h1m2 0h2M2 26h2m2 0h2m13 0h3m3 0h1M3 27h3m3 0h3m6 0h3m3 0h3M5 28h4m3 0h6m3 0h4M8 29h14"/></svg>