<svg xmlns="http://www.w3.org/2000/svg" width="16" height="16" shape-rendering="crispEdges" viewBox="0 -0.5 16 16"><path stroke="#fff" d="M0 0h6m1 0h1m2 0h2m1 0h3M0 1h5m1 0h5m1 0h4M0 2h4m1 0h2m1 0h1m1 0h1m1 0h4M0 3h5m1 0h1m1 0h3m1 0h4M0 4h6m1 0h1m1 0h1m1 0h5M0 5h3m8 0h1m3 0h1M0 6h2m1 0h1m2 0h2m1 0h2m1 0h3M0 7h2m1 0h2m6 0h1m1 0h2M0 8h2m2 0h7m1 0h2m1 0h1M0 9h3m1 0h1m1 0h1m2 0h1m1 0h2m1 0h2M0 10h3m2 0h6m2 0h3M0 11h4m1 0h7m2 0h2M0 12h2m1 0h2m7 0h2m1 0h1M0 13h2m1 0h10m1 0h2M0 14h3m3 0h5m2 0h3M0 15h6m5 0h5"/><path stroke="red" d="M6 0h1m1 0h2m2 0h1M5 1h1m5 0h1M4 2h1m2 0h1m1 0h1m1 0h1M5 3h1m1 0h1m3 0h1M6 4h1m1 0h1m1 0h1M5 6h1m2 0h1"/><path stroke="navy" d="M3 5h8m1 0h3M2 6h1m1 0h1m6 0h1m3 0h1M2 7h1m2 0h6m1 0h1m2 0h1M2 8h2m7 0h1m2 0h1M3 9h1m1 0h1m1 0h2m1 0h1m2 0h1M3 10h2m6 0h2m-9 1h1m7 0h2M2 12h1m2 0h7m2 0h1M2 13h1m10 0h1M3 14h3m5 0h2m-7 1h5"/></svg>