<svg xmlns="http://www.w3.org/2000/svg" viewBox="0 -0.5 16 16" shape-rendering="crispEdges">
<path stroke="#ffffff" d="M0 0h1M0 0h6M7 0h1M10 0h2M13 0h3M0 1h5M6 1h5M12 1h4M0 2h4M5 2h2M8 2h1M10 2h1M12 2h4M0 3h5M6 3h1M8 3h3M12 3h4M0 4h6M7 4h1M9 4h1M11 4h5M0 5h3M11 5h1M15 5h1M0 6h2M3 6h1M6 6h2M9 6h2M12 6h3M0 7h2M3 7h2M11 7h1M13 7h2M0 8h2M4 8h7M12 8h2M15 8h1M0 9h3M4 9h1M6 9h1M9 9h1M11 9h2M14 9h2M0 10h3M5 10h6M13 10h3M0 11h4M5 11h7M14 11h2M0 12h2M3 12h2M12 12h2M15 12h1M0 13h2M3 13h10M14 13h2M0 14h3M6 14h5M13 14h3M0 15h6M11 15h5" />
<path stroke="#ff0000" d="M0 0h1M6 0h1M8 0h2M12 0h1M5 1h1M11 1h1M4 2h1M7 2h1M9 2h1M11 2h1M5 3h1M7 3h1M11 3h1M6 4h1M8 4h1M10 4h1M5 6h1M8 6h1" />
<path stroke="#000080" d="M0 0h1M3 5h8M12 5h3M2 6h1M4 6h1M11 6h1M15 6h1M2 7h1M5 7h6M12 7h1M15 7h1M2 8h2M11 8h1M14 8h1M3 9h1M5 9h1M7 9h2M10 9h1M13 9h1M3 10h2M11 10h2M4 11h1M12 11h2M2 12h1M5 12h7M14 12h1M2 13h1M13 13h1M3 14h3M11 14h2M6 15h5" />
</svg>