<svg xmlns="http://www.w3.org/2000/svg" width="16" height="16" shape-rendering="crispEdges" viewBox="0 -0.5 16 16"><path stroke="#000" d="M0 0h1M0 1h1M0 2h1M0 3h1M0 4h1" opacity=".137"/><path stroke="#3f3f3f" d="M1 0h1" opacity=".878"/><path stroke="#5b5b5b" d="M2 0h1" opacity=".965"/><path stroke="#1c1c1c" d="M3 0h1" opacity=".337"/><path stroke="#000" d="M5 0h1" opacity=".063"/><path stroke="#4e4e4e" d="M6 0h1" opacity=".718"/><path stroke="#525252" d="M7 0h1"/><path stroke="#0f0f0f" d="M8 0h1" opacity=".51"/><path stroke="#252525" d="M9 0h1" opacity=".314"/><path stroke="#4f4f4f" d="M10 0h1" opacity=".792"/><path stroke="#555" d="M11 0h1"/><path stroke="#505050" d="M12 0h1" opacity=".953"/><path stroke="#313131" d="M13 0h1" opacity=".569"/><path stroke="#0e0e0e" d="M14 0h1" opacity=".114"/><path stroke="#6e6e6e" d="M1 1h1" opacity=".875"/><path stroke="#aeaeae" d="M2 1h1"/><path stroke="#474747" d="M3 1h1" opacity=".69"/><path stroke="#000" d="M4 1h1" opacity=".043"/><path stroke="#212121" d="M5 1h1" opacity=".306"/><path stroke="#8f8f8f" d="M6 1h1" opacity=".945"/><path stroke="#929292" d="M7 1h1"/><path stroke="#141414" d="M8 1h1" opacity=".604"/><path stroke="#626262" d="M9 1h1" opacity=".824"/><path stroke="#6e6e6e" d="M10 1h1" opacity=".949"/><path stroke="#323232" d="M11 1h1" opacity=".545"/><path stroke="#575757" d="M12 1h1" opacity=".741"/><path stroke="#656565" d="M13 1h1"/><path stroke="#181818" d="M14 1h1" opacity=".455"/><path stroke="#656565" d="M1 2h1M1 3h1" opacity=".875"/><path stroke="#9c9c9c" d="M2 2h1"/><path stroke="#7b7b7b" d="M3 2h1" opacity=".945"/><path stroke="#0e0e0e" d="M4 2h1" opacity=".365"/><path stroke="#585858" d="M5 2h1" opacity=".678"/><path stroke="#a6a6a6" d="M6 2h1"/><path stroke="#8a8a8a" d="M7 2h1"/><path stroke="#151515" d="M8 2h1" opacity=".604"/><path stroke="#5e5e5e" d="M9 2h1" opacity=".824"/><path stroke="#656565" d="M10 2h1" opacity=".949"/><path stroke="#323232" d="M11 2h1" opacity=".553"/><path stroke="#141414" d="M12 2h1" opacity=".553"/><path stroke="#191919" d="M13 2h1" opacity=".565"/><path stroke="#080808" d="M14 2h1" opacity=".243"/><path stroke="#5a5a5a" d="M2 3h1"/><path stroke="#747474" d="M3 3h1"/><path stroke="#4d4d4d" d="M4 3h1" opacity=".812"/><path stroke="#818181" d="M5 3h1" opacity=".933"/><path stroke="#5c5c5c" d="M6 3h1"/><path stroke="#787878" d="M7 3h1"/><path stroke="#1e1e1e" d="M8 3h1" opacity=".522"/><path stroke="#131313" d="M9 3h1" opacity=".384"/><path stroke="#434343" d="M10 3h1" opacity=".753"/><path stroke="#5b5b5b" d="M11 3h1" opacity=".902"/><path stroke="#6c6c6c" d="M12 3h1" opacity=".929"/><path stroke="#464646" d="M13 3h1" opacity=".631"/><path stroke="#080808" d="M14 3h1" opacity=".094"/><path stroke="#676767" d="M1 4h1" opacity=".878"/><path stroke="#4e4e4e" d="M2 4h1" opacity=".941"/><path stroke="#474747" d="M3 4h1" opacity=".808"/><path stroke="#898989" d="M4 4h1"/><path stroke="#7e7e7e" d="M5 4h1" opacity=".933"/><path stroke="#2d2d2d" d="M6 4h1" opacity=".808"/><path stroke="#797979" d="M7 4h1"/><path stroke="#181818" d="M8 4h1" opacity=".604"/><path stroke="#404040" d="M9 4h1" opacity=".761"/><path stroke="#474747" d="M10 4h1" opacity=".702"/><path stroke="#000" d="M11 4h1" opacity=".322"/><path stroke="#696969" d="M12 4h1" opacity=".761"/><path stroke="#818181" d="M13 4h1"/><path stroke="#1c1c1c" d="M14 4h1" opacity=".455"/><path stroke="#000" d="M0 5h1" opacity=".188"/><path stroke="#565858" d="M1 5h1" opacity=".898"/><path stroke="#474949" d="M2 5h1" opacity=".89"/><path stroke="#111212" d="M3 5h1" opacity=".514"/><path stroke="#717474" d="M4 5h1" opacity=".965"/><path stroke="#515252" d="M5 5h1" opacity=".686"/><path stroke="#222221" d="M6 5h1" opacity=".592"/><path stroke="#686966" d="M7 5h1"/><path stroke="#131413" d="M8 5h1" opacity=".616"/><path stroke="#535354" d="M9 5h1" opacity=".694"/><path stroke="#717175" d="M10 5h1" opacity=".976"/><path stroke="#4c4c50" d="M11 5h1" opacity=".886"/><path stroke="#717175" d="M12 5h1" opacity=".937"/><path stroke="#6a6a6d" d="M13 5h1" opacity=".898"/><path stroke="#161617" d="M14 5h1" opacity=".286"/><path stroke="#210000" d="M0 6h1" opacity=".518"/><path stroke="#7b0b0b" d="M1 6h1" opacity=".992"/><path stroke="#8c0909" d="M2 6h1" opacity=".984"/><path stroke="#8e0000" d="M3 6h1" opacity=".902"/><path stroke="#7b0908" d="M4 6h1" opacity=".988"/><path stroke="#2f0426" d="M5 6h1" opacity=".788"/><path stroke="#3d0388" d="M6 6h1" opacity=".886"/><path stroke="#500e90" d="M7 6h1"/><path stroke="#42017c" d="M8 6h1" opacity=".937"/><path stroke="#33242c" d="M9 6h1" opacity=".788"/><path stroke="#919215" d="M10 6h1" opacity=".949"/><path stroke="#9b9b1a" d="M11 6h1"/><path stroke="#999918" d="M12 6h1"/><path stroke="#6e6e0b" d="M13 6h1" opacity=".8"/><path stroke="#2d2d00" d="M14 6h1" opacity=".298"/><path stroke="#000" d="M15 6h1" opacity=".008"/><path stroke="#3d0000" d="M0 7h1M0 8h1M0 9h1m-1 1h1m-1 1h1m-1 1h1m-1 1h1" opacity=".569"/><path stroke="#d00" d="M1 7h1"/><path stroke="#fb0000" d="M2 7h1"/><path stroke="#f50000" d="M3 7h1"/><path stroke="#9e000e" d="M4 7h1"/><path stroke="#4c00a3" d="M5 7h1"/><path stroke="#7200eb" d="M6 7h1"/><path stroke="#7200e8" d="M7 7h1"/><path stroke="#560e9a" d="M8 7h1"/><path stroke="#a7a40e" d="M9 7h1"/><path stroke="#eeef00" d="M10 7h1"/><path stroke="#e1e200" d="M11 7h1"/><path stroke="#e3e300" d="M12 7h1"/><path stroke="#e9e900" d="M13 7h1"/><path stroke="#acac00" d="M14 7h1" opacity=".894"/><path stroke="#282800" d="M15 7h1" opacity=".337"/><path stroke="#df0000" d="M1 8h1m-1 2h1m-1 1h1m1 2h1"/><path stroke="#c20000" d="M2 8h1m-1 6h2"/><path stroke="#760000" d="M3 8h1"/><path stroke="#610051" d="M4 8h1"/><path stroke="#5f00c6" d="M5 8h1"/><path stroke="#680044" d="M6 8h1"/><path stroke="#55002a" d="M7 8h1"/><path stroke="#332034" d="M8 8h1"/><path stroke="#d1d300" d="M9 8h1"/><path stroke="#736029" d="M10 8h1"/><path stroke="#4e1c69" d="M11 8h1"/><path stroke="#302b14" d="M12 8h1" opacity=".788"/><path stroke="#8b8c00" d="M13 8h1" opacity=".882"/><path stroke="#8b8b00" d="M14 8h1" opacity=".996"/><path stroke="#202000" d="M15 8h1" opacity=".522"/><path stroke="#e00000" d="M1 9h1m-1 3h1"/><path stroke="#920000" d="M2 9h1" opacity=".937"/><path stroke="#0c0000" d="M3 9h1" opacity=".62"/><path stroke="#48008b" d="M4 9h1" opacity=".937"/><path stroke="#5600b2" d="M5 9h1"/><path stroke="#89000d" d="M6 9h1"/><path stroke="#8a0001" d="M7 9h1" opacity=".933"/><path stroke="#181c07" d="M8 9h1" opacity=".765"/><path stroke="#9e9f00" d="M9 9h1" opacity=".988"/><path stroke="#471f52" d="M10 9h1"/><path stroke="#6600d2" d="M11 9h1"/><path stroke="#28142a" d="M12 9h1" opacity=".761"/><path stroke="#1f2100" d="M13 9h1" opacity=".6"/><path stroke="#121200" d="M14 9h1" opacity=".506"/><path stroke="#0f0f00" d="M15 9h1" opacity=".114"/><path stroke="#940000" d="M2 10h1" opacity=".871"/><path stroke="#000" d="M3 10h1" opacity=".239"/><path stroke="#4b0095" d="M4 10h1" opacity=".871"/><path stroke="#5600b3" d="M5 10h1"/><path stroke="#89000e" d="M6 10h1"/><path stroke="#950000" d="M7 10h1" opacity=".875"/><path stroke="#000500" d="M8 10h1" opacity=".216"/><path stroke="#323500" d="M9 10h1" opacity=".639"/><path stroke="#340a52" d="M10 10h1" opacity=".992"/><path stroke="#6700d3" d="M11 10h1"/><path stroke="#7b6b20" d="M12 10h1"/><path stroke="#bcbd00" d="M13 10h1" opacity=".941"/><path stroke="#747400" d="M14 10h1" opacity=".627"/><path stroke="#171700" d="M15 10h1" opacity=".11"/><path stroke="#940000" d="M2 11h1" opacity=".875"/><path stroke="#000" d="M3 11h1" opacity=".224"/><path stroke="#4f0091" d="M4 11h1" opacity=".82"/><path stroke="#460096" d="M5 11h1"/><path stroke="#8c0005" d="M6 11h1"/><path stroke="#8f0000" d="M7 11h1" opacity=".875"/><path stroke="#011200" d="M8 11h1" opacity=".216"/><path stroke="#2e3100" d="M9 11h1" opacity=".549"/><path stroke="#32104f" d="M10 11h1" opacity=".961"/><path stroke="#5900c8" d="M11 11h1" opacity=".984"/><path stroke="#44381f" d="M12 11h1" opacity=".898"/><path stroke="#d1d200" d="M13 11h1" opacity=".984"/><path stroke="#d6d600" d="M14 11h1" opacity=".992"/><path stroke="#3a3a00" d="M15 11h1" opacity=".518"/><path stroke="#9a0000" d="M2 12h1" opacity=".937"/><path stroke="#2e0000" d="M3 12h1" opacity=".569"/><path stroke="#440024" d="M4 12h1" opacity=".792"/><path stroke="#840034" d="M5 12h1"/><path stroke="#b90000" d="M6 12h1"/><path stroke="#3c0011" d="M7 12h1" opacity=".933"/><path stroke="#251815" d="M8 12h1" opacity=".765"/><path stroke="#b1b200" d="M9 12h1" opacity=".988"/><path stroke="#aba717" d="M10 12h1"/><path stroke="#362a41" d="M11 12h1" opacity=".953"/><path stroke="#383904" d="M12 12h1" opacity=".71"/><path stroke="#c4c400" d="M13 12h1" opacity=".953"/><path stroke="#dada00" d="M14 12h1"/><path stroke="#3a3a00" d="M15 12h1" opacity=".569"/><path stroke="#de0000" d="M1 13h1m3 0h1"/><path stroke="#f20000" d="M2 13h1"/><path stroke="#e10000" d="M4 13h1"/><path stroke="#69001a" d="M6 13h1"/><path stroke="#4600a9" d="M7 13h1"/><path stroke="#490c7e" d="M8 13h1"/><path stroke="#909201" d="M9 13h1"/><path stroke="#eded00" d="M10 13h1"/><path stroke="#e3e400" d="M11 13h1"/><path stroke="#e5e500" d="M12 13h1"/><path stroke="#f0f000" d="M13 13h1"/><path stroke="#9b9b00" d="M14 13h1"/><path stroke="#202000" d="M15 13h1" opacity=".569"/><path stroke="#3b0000" d="M0 14h1" opacity=".569"/><path stroke="#b80000" d="M1 14h1"/><path stroke="#c40000" d="M4 14h1"/><path stroke="#900000" d="M5 14h1"/><path stroke="#2e0055" d="M6 14h1"/><path stroke="#5e00c2" d="M7 14h1"/><path stroke="#4a01a7" d="M8 14h1"/><path stroke="#372c32" d="M9 14h1"/><path stroke="#868601" d="M10 14h1"/><path stroke="#bdbd00" d="M11 14h1"/><path stroke="#c3c300" d="M12 14h1"/><path stroke="#9e9e00" d="M13 14h1"/><path stroke="#585800" d="M14 14h1" opacity=".89"/><path stroke="#171700" d="M15 14h1" opacity=".329"/><path stroke="#210000" d="M0 15h1" opacity=".38"/><path stroke="#490000" d="M1 15h1" opacity=".949"/><path stroke="#470000" d="M2 15h3"/><path stroke="#350000" d="M5 15h1" opacity=".776"/><path stroke="#14002f" d="M6 15h1" opacity=".776"/><path stroke="#240047" d="M7 15h1"/><path stroke="#250048" d="M8 15h1"/><path stroke="#19013e" d="M9 15h1" opacity=".941"/><path stroke="#323208" d="M10 15h1" opacity=".835"/><path stroke="#474700" d="M11 15h2"/><path stroke="#373700" d="M13 15h1" opacity=".792"/><path stroke="#181800" d="M14 15h1" opacity=".325"/><path stroke="#000" d="M15 15h1" opacity=".012"/></svg>