<svg xmlns="http://www.w3.org/2000/svg" width="48" height="48" shape-rendering="crispEdges" viewBox="0 -0.5 48 48"><path stroke="#000" d="M2 0h1m6 0h1m29 0h1M2 1h1M2 2h1m14 0h1M2 3h1m14 0h1M2 4h1M2 5h1m9 0h1m20 0h1M2 6h1m9 0h1m20 0h1M2 7h1M2 8h1M2 9h1m-1 1h1m-1 1h1m-1 1h1m30 0h1M2 13h1m-1 1h1m32 0h1M2 15h1m-1 1h1m6 13h1m1 0h1m-3 1h1m1 0h1m12 0h1M9 31h1m1 0h1m12 0h1M9 32h1m1 0h1m12 0h1M9 33h1m1 0h1m12 0h1M9 34h1m1 0h1m12 0h1M9 35h1m14 0h1M9 36h1M2 47h1" opacity=".125"/><path stroke="#000" d="M3 0h1m4 0h1m29 0h1M3 1h1M3 2h1m14 0h1M3 3h1m14 0h1M3 4h1m23 0h1M3 5h1m7 0h1m15 0h1m4 0h1M3 6h1m7 0h1m15 0h1m4 0h1M3 7h1m23 0h1M3 8h1m11 0h1M3 9h1m11 0h1m22 0h1M3 10h1m-1 1h1m29 0h2M3 12h1m25 0h1M3 13h1m23 0h1M3 14h1m4 0h1m8 0h1m9 0h1M3 15h1m4 0h1m8 0h1m9 0h1m6 0h3M3 16h1m4 0h1m1 2h1m15 0h1M8 29h1m3 0h1m10 0h1M8 30h1m3 0h1m10 0h1m17 0h1M8 31h1m3 0h1m10 0h1M8 32h1m3 0h1m10 0h1M8 33h1m3 0h1m10 0h1M8 34h1m3 0h1m10 0h1M8 35h1m14 0h1m13 0h1M8 36h1m14 0h1M3 47h1m25 0h1" opacity=".878"/><path stroke="#000" d="M4 0h4m12 0h5m7 0h6m0 6h1m3 0h1M8 11h2m9 0h1M8 12h2m9 0h1m12 3h1M3 18h1m4 0h1m3 0h1m2 0h1m4 0h1m3 0h1m-13 9h1m10 0h1m6 5h1m-14 3h1m0 10h1M4 47h12m4 0h9m3 0h8"/><path stroke="#000" d="M19 0h1m5 0h1m5 0h1m-7 1h1m3 0h2m9 0h1M10 2h1m14 0h1M10 3h1m14 0h1m-1 1h1m8 0h3m6 0h1M16 5h1m8 0h1m11 0h1m5 0h1M16 6h1m8 0h1m11 0h1m5 0h1M25 7h1m8 0h9M13 8h1m11 0h1M13 9h1m11 0h1m-1 1h1m3 0h1m-5 1h1m5 0h1m-7 1h1m5 0h1m-7 1h1m17 0h1m-34 1h1m8 0h1m5 0h1m17 0h1m-34 1h1m8 0h1m5 0h1m17 0h1m-25 1h1m5 0h1m-10 1h1m11 0h1m-13 1h1m11 0h1M1 19h1m39 0h2M1 20h1m-1 1h1m-1 1h1m-1 1h1m44 0h1M1 24h1m44 0h1M1 25h1m44 0h1M1 26h1m35 0h1M1 27h1m35 0h1M1 28h1m8 0h1m27 0h6M1 29h1m-1 1h1m-1 1h1m-1 1h1m-1 1h1m-1 1h1m26 0h1m17 0h1M1 35h1m44 0h1M1 36h1m44 0h1M1 37h1m8 0h3m24 0h1m8 0h1M1 38h1m44 0h1M1 39h1m44 0h1M1 40h1m44 0h1M1 41h1m44 0h1M1 42h1m44 0h1M1 43h1m-1 1h1m-1 1h1m15 1h2m22 0h2m-27 1h1m2 0h1m11 0h1m8 0h1" opacity=".502"/><path stroke="#303030" d="M4 1h1m14 9h1m8 3h1"/><path stroke="#606060" d="M5 1h2m13 0h2m10 0h5M4 2h1m14 0h1M4 3h1m14 0h1M4 4h1m23 0h1M4 5h1m23 0h1M4 6h1m5 0h1m17 0h1M4 7h1m23 0h1m2 0h1M4 8h1m11 0h1M4 9h1m11 0h1M4 10h1m27 0h3M4 11h1m5 0h1m-7 1h1m5 0h1m-7 1h1m24 0h2M4 14h1m11 0h1m11 0h1m2 0h1M4 15h1m11 0h1m11 0h1m2 0h1M4 16h1m27 0h5"/><path stroke="#505050" d="M7 1h1m14 0h1m14 0h1M9 4h1m-1 6h1m2 0h1m1 3h1"/><path stroke="#383838" d="M8 1h1m29 0h1m-7 3h1M11 7h1m20 0h1m4 2h1m3 7h1m-2 1h1" opacity=".941"/><path stroke="#101010" d="M9 1h1m29 0h1M28 2h1M17 4h1m15 0h1M12 7h1m20 0h1m3 1h1M28 9h1m-15 1h1m22 4h1m4 2h1" opacity=".565"/><path stroke="#000" d="M10 1h1m17 0h1M16 4h1m-4 3h1m29 0h1m-16 3h1m-19 6h1m32 0h1m-1 3h1m2 3h1m-1 21h1M1 46h1m41 0h1" opacity=".251"/><path stroke="#000" d="M17 1h1m24 0h1m0 1h1M12 4h1m1 3h1m25 1h1m1 2h1m0 1h1m-11 2h1m1 0h1M1 17h1m39 1h1m-3 9h1m6 0h1m-2 1h1m-3 1h1m-18 2h1m18 0h1m0 1h1m-21 2h1m-15 2h1" opacity=".063"/><path stroke="#000" d="M18 1h1m22 0h1m1 2h1M11 4h1m3 3h1m24 2h1m0 1h1m1 2h1m-12 1h1m3 0h1m-20 3h1m9 0h1M1 18h1m44 8h1m-3 2h1m-20 1h1m17 1h1m-17 1h1m16 0h1m-17 1h1m17 1h1m-20 1h1m-3 2h1" opacity=".439"/><path stroke="#404040" d="M19 1h1m11 0h1m5 3h1M16 7h1m14 3h1m-22 3h1m20 0h1m5 0h1m-22 3h1m11 0h1" opacity=".753"/><path stroke="#383838" d="M23 1h1M7 17h1"/><path stroke="#080808" d="M24 1h1M8 10h1m-5 8h1m2 0h1m5 0h1"/><path stroke="#c8c8c8" d="M5 2h2m13 0h2m-5 6h1m-1 1h2m-3 2h1m-6 1h1m4 0h1m21 0h1m-10 2h2m-16 1h1m13 0h2"/><path stroke="#a8a8a8" d="M7 2h1m14 0h1m7 2h1m9 0h1M7 6h1m10 0h1M8 7h1m11 0h1M10 8h1m18 0h1m5 1h1m-15 1h1m-5 1h1m3 0h1m-7 1h1m5 0h1m-1 1h1m-10 1h2m7 0h1m-1 1h1m0 1h1m16 0h1M5 17h1"/><path stroke="#787878" d="M8 2h1M7 8h2m2 0h1m8 0h1m9 0h1m5 1h1M6 17h1m32 0h1"/><path stroke="#101010" d="M9 2h1m14 0h1m5 0h1m9 0h1M24 3h1m11 0h1M24 4h1m17 0h1M24 5h1m13 0h1m3 0h1M24 6h1m14 0h3M24 7h1M12 8h1m11 0h1m11 0h1M24 9h1m5 0h1m-7 1h1m-1 1h1m-11 1h1m9 0h1m-1 1h1m17 0h1m-19 1h1m17 0h1m-19 1h1m17 0h1m-19 1h1m-10 1h1m4 0h1m3 0h1m-3 1h1"/><path stroke="#707070" d="M23 2h1m-1 1h1m-1 1h1m7 0h1m6 0h1m2 0h1M23 5h1m-1 1h1m-7 1h1m5 0h1m-1 1h1m-1 1h1m-6 1h1m4 0h1m-1 1h1m-1 1h1m13 0h1m-27 1h1m11 0h1m17 0h1m-19 1h1m17 0h1m-19 1h1m17 0h1m-27 1h1m7 0h1m16 0h1"/><path stroke="#000" d="M27 2h1m-2 1h1m-1 1h1m-1 1h1m-1 1h1m-1 1h1M14 8h1m11 0h1m11 0h2M14 9h1m12 0h1m-1 2h4m-5 1h1m5 0h1m1 0h1m-9 1h1M9 14h1m8 0h1m7 0h1m7 0h1m1 0h1M9 15h1m8 0h1m7 0h1M9 16h1m0 1h1m7 0h1m7 0h2m14 0h1m-26 1h1m26 2h1m0 1h1m-8 5h1m-15 3h1m16 0h2m-32 6h1m12 1h1m12 0h1m7 8h1m-2 1h1m-15 2h1" opacity=".094"/><path stroke="#181818" d="M29 2h1M9 3h1m24 0h2M17 5h1m-1 1h1m16 2h2M12 9h1m16 0h1m-10 1h1m-7 1h1m3 0h1m1 0h1m-3 1h1m1 0h1m-1 1h1m-10 1h1m8 0h1m-10 1h1m8 0h1m-1 1h1"/><path stroke="#686868" d="M31 2h1m5 1h1m3 0h1m-1 2h1M19 9h1m11 0h1m3 1h1m5 2h1m-4 1h1m-10 3h1m-7 1h1"/><path stroke="silver" d="M32 2h1M5 3h3m12 0h2m16 0h1M5 4h3m12 0h2m7 0h1M5 5h1m1 0h1m11 0h3m7 0h1M5 6h1m2 0h2m9 0h3m7 0h1M5 7h1m3 0h1m11 0h1m7 0h1M5 8h1m12 0h1M5 9h1m4 0h1m21 0h1M5 10h1m-1 1h1m5 0h1m26 0h1M5 12h1m6 0h1m-8 1h1m-1 1h1m9 0h1M5 15h1m7 0h1m25 0h1M5 16h1m32 0h1"/><path stroke="#b0b0b0" d="M33 2h4m-8 1h2m8 0h1M8 4h1m9 1h1m0 2h1M9 9h1m11 0h1m11 0h2m-24 1h1m3 1h1m1 1h1m-3 1h1m23 1h1m-28 1h1m25 0h1m-18 1h1m9 1h7"/><path stroke="#a0a0a0" d="M37 2h1M8 3h1m13 0h1m-1 1h1m-1 1h1m-1 1h1m-1 1h1m-1 1h1M11 9h1m10 0h1m-1 1h1m13 0h1m-15 1h1m-1 1h1m-1 1h1m17 0h1m-19 1h1m17 0h1m-19 1h1m17 0h1m-3 2h1"/><path stroke="gray" d="M38 2h1m-7 1h1M10 7h1m20 1h2m4 2h1m-25 3h1"/><path stroke="#202020" d="M39 2h1m-7 1h1m-1 5h1M8 9h1m11 0h1m7 34h1"/><path stroke="#101010" d="M41 2h1m0 1h1m-2 8h1m-6 1h1m5 0h1" opacity=".91"/><path stroke="#080808" d="M42 2h1m-1 9h1m-8 1h1" opacity=".22"/><path stroke="#000" d="M27 3h1m-1 5h1m-1 4h1m13 5h1m-24 1h1m25 3h1m-6 5h1m-28 9h1m31 9h1" opacity=".784"/><path stroke="#585858" d="M28 3h1M18 4h1m9 4h1m-14 2h1m1 3h1m19 2h1m-26 1h1" opacity=".941"/><path stroke="#989898" d="M31 3h1m7 2h1M19 8h1m16 3h1m3 1h1m-27 5h1m6 0h1m8 0h1"/><path stroke="#909090" d="M40 3h1M19 4h1M9 5h1m30 0h1M6 6h1m0 1h1m2 3h1m5 0h1m-5 1h1m26 0h1m-24 2h1m-3 1h1m-2 2h1m17 0h1m5 0h1m-16 1h1"/><path stroke="#282828" d="M10 4h1m2 6h1m26 0h1" opacity=".753"/><path stroke="#b8b8b8" d="M39 4h1M6 5h1m1 0h1m9 2h1M9 8h1m11 0h1m-5 2h1m19 1h1m1 1h1m-28 1h1m26 0h1m-26 2h1m-1 1h1m15 0h1"/><path stroke="#484848" d="M10 5h1M7 9h1m32 2h1"/><path stroke="#888" d="M30 5h1m-1 1h1M6 7h1m23 0h1M6 8h1M6 9h1m-1 1h1m-1 1h1m-1 1h1m-1 1h1m-1 1h1m-1 1h1m-1 1h1"/><path stroke="#404040" d="M31 5h1m-1 1h1M7 10h1m31 0h1M7 11h1m5 0h1m-7 1h1m-1 1h1m-1 1h1m-1 1h1m-1 1h1"/><path stroke="#000" d="M39 9h1m-8 2h1m-5 1h1m1 0h1m1 2h1m0 1h1M3 17h1m4 0h1m3 0h1M2 18h1m6 0h1m1 0h1m15 0h1m14 12h1m-14 2h1m0 1h1" opacity=".91"/><path stroke="#000" d="M30 10h1" opacity=".471"/><path stroke="#585858" d="M38 10h1m-26 2h1M4 17h1m8 0h1"/><path stroke="#181818" d="M35 11h1m-7 6h1" opacity=".91"/><path stroke="#000" d="M8 13h1m10 5h1m5 0h1M8 28h1m3 0h1m10 0h1m6 6h1M8 37h1m14 0h1m11 0h1" opacity=".941"/><path stroke="#000" d="M9 13h1m9 4h1m5 0h1M9 28h1m1 0h1m12 0h1m4 6h1M9 37h1m14 0h1m11 0h1" opacity=".565"/><path stroke="#181818" d="M18 13h1m-8 3h1" opacity=".565"/><path stroke="#000" d="M19 13h1m17 12h1m-13 3h1m11 0h1m-25 9h1m11 0h1" opacity=".753"/><path stroke="#000" d="M33 14h1M2 17h1m6 0h1m19 16h1" opacity=".22"/><path stroke="#282828" d="M38 14h1"/><path stroke="#000" d="M18 16h1m7 0h1m-2 14h1m2 3h1m-4 2h1" opacity=".031"/><path stroke="#000" d="M11 17h1" opacity=".188"/><path stroke="#101818" d="M5 18h1m8 0h1"/><path stroke="#081010" d="M6 18h1"/><path stroke="#181810" d="M21 18h1"/><path stroke="#081008" d="M23 18h1"/><path stroke="#080810" d="M29 18h1" opacity=".188"/><path stroke="#101018" d="M30 18h1" opacity=".91"/><path stroke="#101018" d="M31 18h8M26 41h1"/><path stroke="#080810" d="M39 18h1M30 45h1"/><path stroke="#080810" d="M40 18h1" opacity=".565"/><path stroke="#100000" d="M2 19h1m6 8h3m9 11h1m-1 1h1m-4 3h1m-1 1h1M2 45h1"/><path stroke="#700000" d="M3 19h1m4 7h3m9 12h1m-1 1h1m-4 4h1"/><path stroke="maroon" d="M4 19h10m0 2h1m-7 4h3m9 0h2m-3 1h1m2 0h1m-4 1h1m2 0h1M7 28h1m11 0h1m2 0h1M7 29h1m11 0h1m2 0h1M7 30h1m11 0h1m2 0h1M7 31h1m11 0h1m2 0h1M7 32h1m11 0h1m2 0h1M7 33h1m11 0h1m2 0h1M7 34h1m11 0h1m2 0h1M7 35h1m-1 1h1m-1 1h1m9 5h1M5 44h11M3 45h1m1 0h10"/><path stroke="#780000" d="M14 19h1m-2 4h1m-3 2h1m10 10h1m-7 9h1"/><path stroke="#480000" d="M15 19h1m-3 5h1m-2 1h1m9 11h1m-7 9h1"/><path stroke="#280000" d="M16 19h1m-1 27h1" opacity=".753"/><path stroke="#000018" d="M17 19h1" opacity=".565"/><path stroke="#000078" d="M18 19h1" opacity=".941"/><path stroke="#400080" d="M19 19h1m2 0h1m2 0h1m8 6h1m-22 3h1m-1 3h1m-1 3h1m11 6h1m-4 4h1m2 0h1m-4 1h1m2 0h1"/><path stroke="#780080" d="M20 19h1m2 0h1m-11 7h1m-1 3h1m-1 3h1"/><path stroke="#100080" d="M21 19h1m2 0h1"/><path stroke="#780078" d="M26 19h1"/><path stroke="#100048" d="M27 19h1m4 6h1"/><path stroke="#000028" d="M28 19h1M19 46h1" opacity=".753"/><path stroke="#181800" d="M29 19h1" opacity=".533"/><path stroke="#787800" d="M30 19h1m12 2h1m0 1h1m-5 8h1m-2 7h1" opacity=".941"/><path stroke="olive" d="M31 19h9m-1 5h1m4 0h1m-5 1h1m-12 5h1m7 1h1m3 0h2m1 8h1m-2 2h1m-2 1h2m-13 1h1m9 0h2m-11 1h8m-7 1h6"/><path stroke="#585800" d="M40 19h1m2 12h1" opacity=".753"/><path stroke="#200000" d="M2 20h1m-1 1h1m12 0h1M2 22h1m-1 1h1m-1 1h1m-1 1h1m-1 1h1m-1 1h1m-1 1h1m-1 1h1m-1 1h1m-1 1h1m-1 1h1m-1 1h1m-1 1h1m-1 1h1m-1 1h1m-1 1h1m19 0h1M2 38h1m6 0h6M2 39h1m-1 1h1m-1 1h1m-1 1h1m-1 1h1"/><path stroke="#e00000" d="M3 20h1m-1 1h1m-1 1h1m-1 1h1m-1 1h1m-1 1h1m-1 1h1m-1 1h1m-1 1h1m-1 1h1m-1 1h1m-1 1h1m-1 1h1m-1 1h1m-1 1h1m-1 1h1m-1 1h1m-1 1h1m15 0h1M3 38h1m-1 1h1m4 0h8M3 40h1m-1 1h1m-1 1h1m-1 1h2"/><path stroke="red" d="M4 20h9m-9 1h9m-9 1h9m-9 1h3m-3 1h3m-3 1h3m-3 1h3m13 0h2M4 27h3m13 0h2M4 28h3m13 0h2M4 29h3m13 0h2M4 30h3m13 0h2M4 31h3m13 0h2M4 32h3m13 0h2M4 33h3m13 0h2M4 34h3m13 0h2M4 35h3m13 0h1M4 36h3m-3 1h3m-3 1h3m10 0h2M4 39h3m10 0h2M4 40h13M4 41h12M4 42h12"/><path stroke="#f80000" d="M13 20h1m-7 3h1m4 0h1m8 12h1m-6 6h1"/><path stroke="#e80000" d="M14 20h1"/><path stroke="#800" d="M15 20h1m-9 7h1M4 45h1m10 0h1"/><path stroke="#380010" d="M16 20h1m-3 2h1m5 18h1"/><path stroke="#000038" d="M17 20h1m7 6h1m-9 8h1m2 7h1"/><path stroke="#1800e8" d="M18 20h1m-2 1h1m15 15h1m-11 3h1m-3 2h1m-2 1h1"/><path stroke="#8000ff" d="M19 20h1m2 0h1m-4 1h1m2 0h1m-6 1h8m-9 2h1m17 2h1m-1 1h1m-21 1h2m18 0h1m-1 1h1m-1 1h1m-21 1h2m18 0h1m-1 1h1m-1 1h1m-21 1h2m18 0h1m-12 6h2m-3 1h1m-1 1h1"/><path stroke="#d000ff" d="M20 20h1m2 0h1m-6 1h1m2 0h1m2 0h1m-8 2h1m-4 3h1m0 1h1m-2 2h1m0 1h1m-2 2h1m0 1h1m7 8h1m-3 1h1m2 0h1"/><path stroke="#3000ff" d="M21 20h1m2 0h1m-5 1h1m2 0h1m-9 5h1m-2 1h1m0 2h1m-2 1h1m0 2h1m-2 1h1m0 2h1m8 6h1m-2 1h1"/><path stroke="#8000f8" d="M25 20h1"/><path stroke="#d000e8" d="M26 20h1m-4 3h1M14 35h1m0 1h1m8 3h1"/><path stroke="#180088" d="M27 20h1m-1 24h1m-8 1h1"/><path stroke="#081038" d="M28 20h1"/><path stroke="#383800" d="M29 20h1m-1 11h1m3 7h1m4 0h1"/><path stroke="#e8e800" d="M30 20h1m-2 1h1m12 0h1m-5 2h1m-1 7h2m-12 6h1m1 0h1m1 2h1m6 0h1m-7 1h1m4 0h1"/><path stroke="#ff0" d="M31 20h9m-10 1h10m-11 1h14m-15 1h3m10 0h3m-16 1h3m10 0h2m-15 1h1m-1 1h1m-1 1h1m9 4h2m-1 1h4m-3 1h3m-2 1h3m-3 1h3m-3 1h3m-15 1h2m10 0h3m-15 1h3m8 0h3m-14 1h4m6 0h4m-12 1h10m-8 1h7m-6 1h6"/><path stroke="#909000" d="M40 20h1m-10 4h1m-2 1h1m12 7h1M30 42h2"/><path stroke="#181800" d="M41 20h1m3 3h1m-14 1h1m-7 4h1m3 1h1m-5 8h1m7 1h1m2 0h1m7 0h1"/><path stroke="#202000" d="M42 20h1m-17 3h1m8 1h3m-12 1h1m-1 1h1m3 0h1m-5 1h1m3 1h1m7 1h2m-3 5h1m7 0h1m-18 1h3m14 0h1m-1 1h1m-1 1h1m-11 1h2"/><path stroke="#181800" d="M43 20h1m1 2h1m-6 7h1m-3 8h1" opacity=".565"/><path stroke="#c80000" d="M13 21h1m-7 3h1m10 12h1m-3 6h1"/><path stroke="#080070" d="M16 21h1m-2 1h1m1 5h1m-1 3h1m-1 3h1m3 7h1"/><path stroke="#8000c8" d="M25 21h1"/><path stroke="#180080" d="M26 21h1m5 14h1m-12 9h1m2 0h1m-2 1h1m2 0h1"/><path stroke="#000020" d="M27 21h1m-14 2h1m6 1h1m14 2h1m-1 3h1m-1 3h1m-14 6h1"/><path stroke="#707008" d="M28 21h1m-2 1h1m3 14h1"/><path stroke="#f0f000" d="M40 21h1m-10 2h1m7 0h1m-11 2h1m9 8h1m3 0h1m-13 8h2m0 1h1"/><path stroke="#e0e000" d="M41 21h1m-15 2h1m4 0h6m-11 1h1m-1 1h1m-1 1h1m1 0h1m-3 1h1m1 0h1m-2 1h2m10 6h1m3 0h1m-1 1h1m-16 1h1m14 0h1m-17 1h1m15 0h1m-11 2h4m-8 2h1m10 0h1"/><path stroke="#a00000" d="M13 22h1m7 14h1m-6 7h1"/><path stroke="#4000c0" d="M16 22h1m5 18h1"/><path stroke="#4000a0" d="M25 22h1M16 34h1"/><path stroke="#101038" d="M26 22h1m4 13h1"/><path stroke="#c0c000" d="M28 22h1m14 0h1m-3 3h2m-3 6h1m-10 6h1m8 0h1m-13 1h1m-1 1h1m5 4h6"/><path stroke="#f00000" d="M8 23h4m7 13h2m-3 1h1M7 39h1m8 0h1m0 1h1"/><path stroke="#1800e0" d="M15 23h1m5 0h1m13 3h1"/><path stroke="#80f" d="M16 23h1"/><path stroke="#2000f0" d="M18 23h1m-2 1h1m15 3h1m-1 3h1m-1 3h1"/><path stroke="#7800e8" d="M19 23h1"/><path stroke="#d000e0" d="M20 23h1m-6 1h1m19 3h1m-1 3h1m-1 3h1"/><path stroke="#7000e0" d="M22 23h1m12 5h1m-1 3h1m-1 3h1"/><path stroke="#2800f0" d="M24 23h1"/><path stroke="#000078" d="M25 23h1"/><path stroke="#f8f800" d="M40 23h1m-3 9h1m4 6h1m-14 2h1m10 0h1m-2 1h1"/><path stroke="#d8d800" d="M44 23h1m-16 6h1m14 9h1"/><path stroke="#900000" d="M8 24h5m6 11h1m-3 2h1M7 38h1m8 0h1m1 2h1"/><path stroke="#180020" d="M14 24h1m21 3h1m-1 3h1m-1 3h1m-13 5h1"/><path stroke="#6800a0" d="M18 24h1"/><path stroke="#480058" d="M19 24h1"/><path stroke="#180018" d="M20 24h1"/><path stroke="#100020" d="M22 24h1m13 4h1m-1 6h1"/><path stroke="#280028" d="M23 24h1"/><path stroke="#700088" d="M24 24h1"/><path stroke="#380048" d="M25 24h1"/><path stroke="#182000" d="M26 24h1m6 0h2m-5 3h1"/><path stroke="#282800" d="M38 24h1"/><path stroke="#c8c800" d="M40 24h1m2 0h1m0 9h1m-2 6h1m-15 1h1m12 0h1m-3 2h1"/><path stroke="#101000" d="M45 24h1m-1 1h1m-5 2h3m-7 2h1m-8 1h1m-5 8h1m18 1h1m-20 1h1m18 0h1m-1 1h1m-1 1h1m-5 3h2"/><path stroke="#c00000" d="M7 25h1m11 13h1m-1 1h1M5 43h11"/><path stroke="#600040" d="M13 25h1"/><path stroke="#800090" d="M14 25h1"/><path stroke="#8000f0" d="M15 25h1"/><path stroke="#6000e0" d="M16 25h1"/><path stroke="#4000b0" d="M17 25h1"/><path stroke="#400050" d="M18 25h1"/><path stroke="#600020" d="M19 25h1"/><path stroke="#400000" d="M22 25h1M4 46h12"/><path stroke="#080010" d="M23 25h1m-6 1h1m-1 3h1m-1 3h1"/><path stroke="#380078" d="M24 25h1"/><path stroke="#200040" d="M25 25h1m5 3h1m-1 3h1m-1 3h1M22 46h1m2 0h1m2 0h1"/><path stroke="#404020" d="M31 25h1"/><path stroke="#700078" d="M33 25h1"/><path stroke="#000070" d="M35 25h1M22 39h1m-4 3h1"/><path stroke="#000010" d="M36 25h1m-14 1h1m-6 1h1m5 0h1m-7 1h1m-1 2h1m-1 1h1m-1 2h1m3 5h1m-4 3h1"/><path stroke="#101000" d="M38 25h1m1 2h1m4 16h1m-3 2h1" opacity=".565"/><path stroke="#383800" d="M39 25h1m0 1h1m3 17h1" opacity=".941"/><path stroke="#a0a000" d="M43 25h1m-6 8h1m-11 7h1m14 0h1m-4 3h1"/><path stroke="#707000" d="M44 25h1m-4 1h3m-7 4h1m-11 8h1m-1 1h1m-1 1h1m16 0h1m-1 1h1m-1 1h1m-4 2h2"/><path stroke="#b80000" d="M7 26h1M4 44h1"/><path stroke="#680000" d="M11 26h1m5 18h1"/><path stroke="#080000" d="M12 26h1m-5 1h1m9 17h1m-2 1h1"/><path stroke="#4800c0" d="M16 26h1m-1 3h1m-1 3h1m6 11h1"/><path stroke="#680070" d="M17 26h1m-1 3h1m-1 3h1"/><path stroke="#000068" d="M24 26h1m4 19h1"/><path stroke="#080040" d="M31 26h1m-1 6h1M19 45h1m0 1h1m2 0h1m2 0h1"/><path stroke="#280090" d="M32 26h1m-1 3h1m-1 3h1"/><path stroke="#d000f0" d="M33 26h1m-1 3h1m-1 3h1m-1 3h1"/><path stroke="#686800" d="M44 26h1M27 41h1m2 3h1"/><path stroke="#101000" d="M45 26h1m-2 1h1m-19 2h1m0 1h1m10 5h1" opacity=".91"/><path stroke="#080080" d="M13 27h1m-1 3h1m-1 3h1m2 2h1"/><path stroke="#7800c0" d="M16 27h1m-1 3h1m4 13h1m2 0h1"/><path stroke="#000008" d="M25 27h1m-8 7h1"/><path stroke="#380040" d="M31 27h1m-1 3h1m-1 3h1M19 44h1m1 2h1m2 0h1m2 0h1"/><path stroke="#680090" d="M32 27h1m-1 3h1m-1 3h1"/><path stroke="#080800" d="M45 27h1m-20 3h1" opacity=".22"/><path stroke="#6000c0" d="M16 28h1m-1 3h1m5 12h1m2 0h1"/><path stroke="#380070" d="M17 28h1m-1 3h1"/><path stroke="#a8a800" d="M27 28h1m-1 9h1"/><path stroke="#480090" d="M32 28h1m-1 3h1m-1 3h1"/><path stroke="#7800f0" d="M33 28h1m-1 3h1m-1 3h1m0 1h1m-10 7h1"/><path stroke="#606000" d="M27 29h1m11 6h1m3 8h1"/><path stroke="#b0b000" d="M28 29h1m10 5h1"/><path stroke="#000040" d="M31 29h1m2 8h1"/><path stroke="#1000e0" d="M35 29h1m-1 3h1"/><path stroke="#505000" d="M28 30h1m9 4h1"/><path stroke="#282800" d="M28 31h1m2 15h1m8 0h1" opacity=".753"/><path stroke="#080800" d="M30 31h1"/><path stroke="#080020" d="M36 31h1"/><path stroke="#787800" d="M37 32h1m-10 9h1m1 2h1m0 1h1m8 0h1"/><path stroke="#181800" d="M44 32h1" opacity=".91"/><path stroke="#101000" d="M45 32h1m-20 3h1" opacity=".22"/><path stroke="#8000c0" d="M16 33h1"/><path stroke="#484800" d="M37 33h1m-10 9h1m0 1h1m1 2h1m8 0h1"/><path stroke="#202000" d="M45 33h1m-19 2h1m-2 1h1" opacity=".91"/><path stroke="#780078" d="M13 35h1" opacity=".941"/><path stroke="#180000" d="M18 35h1m-2 1h1M8 38h1m6 0h1m2 3h1M2 44h1"/><path stroke="#0000c8" d="M35 35h1m-10 7h1"/><path stroke="#000020" d="M36 35h1" opacity=".91"/><path stroke="#b8b800" d="M40 35h1m-8 8h1"/><path stroke="#180018" d="M13 36h1" opacity=".565"/><path stroke="#380038" d="M14 36h1"/><path stroke="#700080" d="M16 36h1"/><path stroke="#d0d000" d="M27 36h1"/><path stroke="#000028" d="M32 36h1"/><path stroke="#100090" d="M34 36h1"/><path stroke="#000018" d="M35 36h1" opacity=".91"/><path stroke="#000010" d="M36 36h1" opacity=".188"/><path stroke="#080800" d="M38 36h1" opacity=".188"/><path stroke="#080800" d="M39 36h1" opacity=".91"/><path stroke="#880" d="M40 36h1m-12 5h1m12 0h1m-14 1h1m11 0h1m-10 1h1m-1 2h1m6 0h1"/><path stroke="#100010" d="M14 37h1m10 1h1"/><path stroke="#700070" d="M15 37h1"/><path stroke="#800040" d="M16 37h1"/><path stroke="#b00000" d="M20 37h1"/><path stroke="#500000" d="M21 37h1"/><path stroke="#707010" d="M32 37h1"/><path stroke="#101070" d="M33 37h1"/><path stroke="#780070" d="M25 39h1"/><path stroke="#081000" d="M26 39h1"/><path stroke="#600000" d="M19 40h1"/><path stroke="#d80000" d="M17 41h1M3 44h1"/><path stroke="#080090" d="M25 41h1"/><path stroke="#080818" d="M27 42h1"/><path stroke="#989800" d="M32 42h1"/><path stroke="#200060" d="M19 43h1"/><path stroke="#4800c8" d="M20 43h1"/><path stroke="#3800b0" d="M26 43h1"/><path stroke="#080050" d="M27 43h1"/><path stroke="#680080" d="M20 44h1m2 0h1m2 0h1m-6 1h1m2 0h1m2 0h1"/><path stroke="#080048" d="M28 44h1"/><path stroke="#101008" d="M29 44h1"/><path stroke="#404000" d="M43 44h1" opacity=".941"/><path stroke="#380080" d="M28 45h1"/><path stroke="#100000" d="M2 46h1" opacity=".565"/><path stroke="#380000" d="M3 46h1" opacity=".941"/><path stroke="#000040" d="M29 46h1" opacity=".941"/><path stroke="#000010" d="M30 46h1" opacity=".533"/><path stroke="#404000" d="M32 46h8"/></svg>