<svg xmlns="http://www.w3.org/2000/svg" shape-rendering="crispEdges" viewBox="0 -0.5 24 24"><path stroke="rgba(3, 3, 3, 0.4980392156862745)" d="M1 0h1"/><path stroke="#2c2c2c" d="M2 0h1"/><path stroke="#393939" d="M3 0h1"/><path stroke="rgba(32, 32, 32, 0.6549019607843137)" d="M4 0h1"/><path stroke="rgba(0, 0, 0, 0.08235294117647059)" d="M5 0h1"/><path stroke="rgba(0, 0, 0, 0.027450980392156862)" d="M8 0h1m4 0h1"/><path stroke="rgba(37, 37, 37, 0.47843137254901963)" d="M9 0h1"/><path stroke="rgba(62, 62, 62, 0.9882352941176471)" d="M10 0h1"/><path stroke="#2a2a2a" d="M11 0h1"/><path stroke="rgba(6, 6, 6, 0.7137254901960784)" d="M12 0h1"/><path stroke="rgba(0, 0, 0, 0.2196078431372549)" d="M14 0h1m6 23h1"/><path stroke="rgba(35, 35, 35, 0.5215686274509804)" d="M15 0h1"/><path stroke="rgba(64, 64, 64, 0.984313725490196)" d="M16 0h1"/><path stroke="#424242" d="M17 0h1"/><path stroke="#3a3a3a" d="M18 0h1"/><path stroke="rgba(31, 31, 31, 0.6666666666666666)" d="M19 0h1"/><path stroke="rgba(0, 0, 0, 0.27450980392156865)" d="M20 0h1"/><path stroke="rgba(0, 0, 0, 0.0392156862745098)" d="M21 0h1"/><path stroke="rgba(8, 8, 8, 0.4980392156862745)" d="M1 1h1M1 2h1"/><path stroke="#848484" d="M2 1h1m8 4h1m-1 1h1m2 1h1"/><path stroke="#b7b7b7" d="M3 1h1"/><path stroke="rgba(83, 83, 83, 0.9647058823529412)" d="M4 1h1"/><path stroke="rgba(0, 0, 0, 0.2901960784313726)" d="M5 1h1m7 7h1"/><path stroke="rgba(0, 0, 0, 0.12549019607843137)" d="M8 1h1"/><path stroke="rgba(64, 64, 64, 0.8666666666666667)" d="M9 1h1"/><path stroke="#b5b5b5" d="M10 1h1"/><path stroke="#7e7e7e" d="M11 1h1"/><path stroke="rgba(19, 19, 19, 0.7058823529411765)" d="M12 1h1"/><path stroke="rgba(4, 4, 4, 0.2784313725490196)" d="M13 1h1"/><path stroke="rgba(80, 80, 80, 0.8431372549019608)" d="M14 1h1"/><path stroke="rgba(115, 115, 115, 0.9882352941176471)" d="M15 1h1"/><path stroke="rgba(122, 122, 122, 0.9882352941176471)" d="M16 1h1"/><path stroke="rgba(91, 91, 91, 0.9803921568627451)" d="M17 1h1"/><path stroke="rgba(111, 111, 111, 0.984313725490196)" d="M18 1h1"/><path stroke="rgba(124, 124, 124, 0.9882352941176471)" d="M19 1h1"/><path stroke="rgba(71, 71, 71, 0.9215686274509803)" d="M20 1h1"/><path stroke="rgba(17, 17, 17, 0.4117647058823529)" d="M21 1h1"/><path stroke="rgba(0, 0, 0, 0.00784313725490196)" d="M22 1h1M7 2h1m14 21h1"/><path stroke="#868686" d="M2 2h1m11 0h1"/><path stroke="#c1c1c1" d="M3 2h1"/><path stroke="#909090" d="M4 2h1"/><path stroke="rgba(38, 38, 38, 0.7098039215686275)" d="M5 2h1"/><path stroke="rgba(0, 0, 0, 0.0784313725490196)" d="M6 2h1m6 3h1"/><path stroke="rgba(28, 28, 28, 0.5450980392156862)" d="M8 2h1"/><path stroke="rgba(140, 140, 140, 0.9764705882352941)" d="M9 2h1"/><path stroke="silver" d="M10 2h1"/><path stroke="#818181" d="M11 2h1m-1 1h1M2 4h1m17 3h1"/><path stroke="rgba(20, 20, 20, 0.6980392156862745)" d="M12 2h1m-1 1h1m-1 4h1"/><path stroke="rgba(7, 7, 7, 0.5215686274509804)" d="M13 2h1m-1 1h1m5 1h1"/><path stroke="#7c7c7c" d="M15 2h1"/><path stroke="rgba(30, 30, 30, 0.6352941176470588)" d="M16 2h1"/><path stroke="rgba(0, 0, 0, 0.24705882352941178)" d="M17 2h1"/><path stroke="rgba(30, 30, 30, 0.47843137254901963)" d="M18 2h1"/><path stroke="rgba(112, 112, 112, 0.984313725490196)" d="M19 2h1"/><path stroke="#737373" d="M20 2h1"/><path stroke="rgba(17, 17, 17, 0.7137254901960784)" d="M21 2h1"/><path stroke="rgba(0, 0, 0, 0.0196078431372549)" d="M22 2h1m-1 5h1m-10 9h1"/><path stroke="rgba(9, 9, 9, 0.4980392156862745)" d="M1 3h1M1 4h1M1 5h1M1 6h1M1 7h1"/><path stroke="gray" d="M2 3h1m1 1h1"/><path stroke="#9d9d9d" d="M3 3h1"/><path stroke="#b0b0b0" d="M4 3h1"/><path stroke="rgba(81, 81, 81, 0.9215686274509803)" d="M5 3h1"/><path stroke="rgba(6, 6, 6, 0.2823529411764706)" d="M6 3h1"/><path stroke="rgba(0, 0, 0, 0.1568627450980392)" d="M7 3h1"/><path stroke="rgba(70, 70, 70, 0.8)" d="M8 3h1"/><path stroke="#acacac" d="M9 3h1"/><path stroke="#b9b9b9" d="M10 3h1"/><path stroke="#838383" d="M14 3h1m-5 1h2M2 7h1"/><path stroke="#707070" d="M15 3h1"/><path stroke="rgba(29, 29, 29, 0.6352941176470588)" d="M16 3h1"/><path stroke="rgba(0, 0, 0, 0.25098039215686274)" d="M17 3h1"/><path stroke="rgba(0, 0, 0, 0.39215686274509803)" d="M18 3h1"/><path stroke="rgba(16, 16, 16, 0.6901960784313725)" d="M19 3h1"/><path stroke="rgba(22, 22, 22, 0.7215686274509804)" d="M20 3h1"/><path stroke="rgba(3, 3, 3, 0.5098039215686274)" d="M21 3h1"/><path stroke="rgba(0, 0, 0, 0.01568627450980392)" d="M22 3h1m-1 3h1"/><path stroke="#777" d="M3 4h1"/><path stroke="#949494" d="M5 4h1"/><path stroke="rgba(28, 28, 28, 0.6941176470588235)" d="M6 4h1"/><path stroke="rgba(9, 9, 9, 0.5215686274509804)" d="M7 4h1"/><path stroke="#898989" d="M8 4h1M6 6h1"/><path stroke="#9a9a9a" d="M9 4h1"/><path stroke="rgba(20, 20, 20, 0.7058823529411765)" d="M12 4h1m8 3h1"/><path stroke="rgba(5, 5, 5, 0.2784313725490196)" d="M13 4h1"/><path stroke="rgba(75, 75, 75, 0.8392156862745098)" d="M14 4h1"/><path stroke="rgba(97, 97, 97, 0.9882352941176471)" d="M15 4h1"/><path stroke="rgba(121, 121, 121, 0.9921568627450981)" d="M16 4h1"/><path stroke="rgba(90, 90, 90, 0.9921568627450981)" d="M17 4h1"/><path stroke="rgba(61, 61, 61, 0.8509803921568627)" d="M18 4h1"/><path stroke="rgba(0, 0, 0, 0.17647058823529413)" d="M20 4h1"/><path stroke="rgba(0, 0, 0, 0.00392156862745098)" d="M21 4h1m0 5h1"/><path stroke="#828282" d="M2 5h1M2 6h1"/><path stroke="#656565" d="M3 5h1"/><path stroke="#212121" d="M4 5h1"/><path stroke="#929292" d="M5 5h1"/><path stroke="rgba(90, 90, 90, 0.9137254901960784)" d="M6 5h1"/><path stroke="rgba(84, 84, 84, 0.8627450980392157)" d="M7 5h1"/><path stroke="#a4a4a4" d="M8 5h1"/><path stroke="#363636" d="M9 5h1"/><path stroke="#606060" d="M10 5h1"/><path stroke="rgba(20, 20, 20, 0.7137254901960784)" d="M12 5h1"/><path stroke="rgba(0, 0, 0, 0.30980392156862746)" d="M14 5h1"/><path stroke="rgba(30, 30, 30, 0.5411764705882353)" d="M15 5h1"/><path stroke="rgba(64, 64, 64, 0.8627450980392157)" d="M16 5h1"/><path stroke="rgba(77, 77, 77, 0.8980392156862745)" d="M17 5h1"/><path stroke="rgba(138, 138, 138, 0.9882352941176471)" d="M18 5h1"/><path stroke="#757575" d="M19 5h1"/><path stroke="rgba(50, 50, 50, 0.7254901960784313)" d="M20 5h1"/><path stroke="rgba(3, 3, 3, 0.14901960784313725)" d="M21 5h1"/><path stroke="#666" d="M3 6h1M3 7h1"/><path stroke="rgba(5, 5, 5, 0.8627450980392157)" d="M4 6h1"/><path stroke="rgba(116, 116, 116, 0.9137254901960784)" d="M5 6h1"/><path stroke="#767676" d="M7 6h1"/><path stroke="rgba(145, 145, 145, 0.9607843137254902)" d="M8 6h1"/><path stroke="rgba(15, 15, 15, 0.8313725490196079)" d="M9 6h1"/><path stroke="rgba(95, 95, 95, 0.9921568627450981)" d="M10 6h1"/><path stroke="rgba(20, 20, 20, 0.7019607843137254)" d="M12 6h1"/><path stroke="rgba(0, 0, 0, 0.4627450980392157)" d="M13 6h1"/><path stroke="rgba(45, 45, 45, 0.8901960784313725)" d="M14 6h1"/><path stroke="rgba(54, 54, 54, 0.7372549019607844)" d="M15 6h1"/><path stroke="rgba(4, 4, 4, 0.25882352941176473)" d="M16 6h1"/><path stroke="rgba(5, 5, 5, 0.16470588235294117)" d="M17 6h1"/><path stroke="rgba(74, 74, 74, 0.7137254901960784)" d="M18 6h1"/><path stroke="#9f9f9f" d="M19 6h1"/><path stroke="#787878" d="M20 6h1"/><path stroke="rgba(19, 19, 19, 0.6431372549019608)" d="M21 6h1"/><path stroke="rgba(2, 2, 2, 0.5254901960784314)" d="M4 7h1"/><path stroke="rgba(37, 37, 37, 0.6862745098039216)" d="M5 7h1"/><path stroke="#9c9c9c" d="M6 7h1"/><path stroke="#aaa" d="M7 7h1"/><path stroke="rgba(66, 66, 66, 0.8549019607843137)" d="M8 7h1"/><path stroke="rgba(0, 0, 0, 0.4117647058823529)" d="M9 7h1"/><path stroke="rgba(99, 99, 99, 0.9725490196078431)" d="M10 7h1"/><path stroke="#858585" d="M11 7h1"/><path stroke="rgba(5, 5, 5, 0.5098039215686274)" d="M13 7h1"/><path stroke="#8a8a8a" d="M15 7h1"/><path stroke="rgba(13, 13, 13, 0.7333333333333333)" d="M16 7h1"/><path stroke="rgba(7, 7, 7, 0.4823529411764706)" d="M17 7h1"/><path stroke="rgba(47, 47, 47, 0.6549019607843137)" d="M18 7h1"/><path stroke="rgba(146, 146, 146, 0.9921568627450981)" d="M19 7h1"/><path stroke="rgba(0, 0, 0, 0.023529411764705882)" d="M0 8h1"/><path stroke="rgba(7, 7, 7, 0.5529411764705883)" d="M1 8h1"/><path stroke="#6f7272" d="M2 8h1"/><path stroke="#565959" d="M3 8h1"/><path stroke="rgba(3, 3, 3, 0.5607843137254902)" d="M4 8h1"/><path stroke="rgba(11, 12, 12, 0.3803921568627451)" d="M5 8h1"/><path stroke="rgba(85, 89, 89, 0.9333333333333333)" d="M6 8h1"/><path stroke="rgba(107, 110, 110, 0.9921568627450981)" d="M7 8h1"/><path stroke="rgba(30, 32, 32, 0.4470588235294118)" d="M8 8h1"/><path stroke="rgba(0, 0, 0, 0.3764705882352941)" d="M9 8h1"/><path stroke="rgba(86, 86, 84, 0.9803921568627451)" d="M10 8h1"/><path stroke="#727470" d="M11 8h1"/><path stroke="rgba(16, 17, 16, 0.7450980392156863)" d="M12 8h1"/><path stroke="rgba(71, 71, 72, 0.7529411764705882)" d="M14 8h1"/><path stroke="rgba(138, 138, 142, 0.9921568627450981)" d="M15 8h1"/><path stroke="#6f6f73" d="M16 8h1"/><path stroke="#6b6b70" d="M17 8h1"/><path stroke="#7e7e82" d="M18 8h1"/><path stroke="#909094" d="M19 8h1"/><path stroke="rgba(69, 69, 70, 0.8352941176470589)" d="M20 8h1"/><path stroke="rgba(11, 11, 11, 0.2627450980392157)" d="M21 8h1"/><path stroke="rgba(0, 0, 0, 0.2823529411764706)" d="M0 9h1"/><path stroke="rgba(40, 1, 1, 0.9137254901960784)" d="M1 9h1"/><path stroke="#591010" d="M2 9h1"/><path stroke="#550c0c" d="M3 9h1"/><path stroke="rgba(78, 0, 0, 0.9372549019607843)" d="M4 9h1"/><path stroke="rgba(82, 0, 0, 0.8823529411764706)" d="M5 9h1"/><path stroke="rgba(80, 7, 7, 0.984313725490196)" d="M6 9h1"/><path stroke="rgba(66, 11, 11, 0.9803921568627451)" d="M7 9h1"/><path stroke="rgba(15, 0, 15, 0.5490196078431373)" d="M8 9h1"/><path stroke="rgba(26, 0, 77, 0.8313725490196079)" d="M9 9h1"/><path stroke="#300b55" d="M10 9h1"/><path stroke="#3a1059" d="M11 9h1"/><path stroke="rgba(36, 2, 78, 0.9686274509803922)" d="M12 9h1"/><path stroke="rgba(41, 0, 65, 0.8627450980392157)" d="M13 9h1"/><path stroke="rgba(17, 19, 22, 0.6078431372549019)" d="M14 9h1"/><path stroke="rgba(92, 92, 22, 0.9215686274509803)" d="M15 9h1"/><path stroke="#63631a" d="M16 9h2"/><path stroke="#626219" d="M18 9h1"/><path stroke="rgba(91, 91, 18, 0.9882352941176471)" d="M19 9h1"/><path stroke="rgba(44, 44, 7, 0.5647058823529412)" d="M20 9h1"/><path stroke="rgba(0, 0, 0, 0.2)" d="M21 9h1"/><path stroke="rgba(0, 0, 0, 0.3254901960784314)" d="M0 10h1m-1 1h1m-1 1h1m22 0h1M0 13h1m-1 1h1m-1 1h1m-1 1h1m-1 1h1m22 0h1M0 18h1m22 0h1M0 19h1m22 0h1M0 20h1m22 0h1M0 21h1"/><path stroke="rgba(127, 0, 0, 0.9725490196078431)" d="M1 10h1"/><path stroke="#fc0000" d="M2 10h1"/><path stroke="#f90000" d="M3 10h1"/><path stroke="#fa0000" d="M4 10h2"/><path stroke="#e90000" d="M6 10h1M2 21h1"/><path stroke="#780004" d="M7 10h1"/><path stroke="rgba(34, 0, 108, 0.9882352941176471)" d="M8 10h1"/><path stroke="rgba(109, 0, 238, 0.996078431372549)" d="M9 10h1"/><path stroke="#7e00fc" d="M10 10h1"/><path stroke="#7d00fc" d="M11 10h1"/><path stroke="#7c00e9" d="M12 10h1"/><path stroke="#41047a" d="M13 10h1"/><path stroke="rgba(107, 109, 16, 0.984313725490196)" d="M14 10h1"/><path stroke="rgba(237, 237, 0, 0.996078431372549)" d="M15 10h1"/><path stroke="#fbfb00" d="M16 10h1"/><path stroke="#fafa00" d="M17 10h2"/><path stroke="#f8f800" d="M19 10h1m-5 1h1m0 9h1"/><path stroke="rgba(166, 166, 0, 0.9882352941176471)" d="M20 10h1"/><path stroke="rgba(107, 107, 0, 0.8470588235294118)" d="M21 10h1"/><path stroke="rgba(21, 21, 0, 0.26666666666666666)" d="M22 10h1"/><path stroke="rgba(130, 0, 0, 0.9725490196078431)" d="M1 11h1m-1 1h1m-1 1h1m-1 1h1m-1 1h1m-1 1h1m-1 1h1m-1 1h1m-1 1h1m-1 1h1"/><path stroke="red" d="M2 11h1m-1 1h1m-1 1h1m-1 1h1m-1 1h1m-1 1h1m-1 1h1m-1 1h1m-1 1h1m-1 1h6"/><path stroke="#fb0000" d="M3 11h1"/><path stroke="#f10000" d="M4 11h1"/><path stroke="#f40000" d="M5 11h1"/><path stroke="#b50000" d="M6 11h1"/><path stroke="#27005d" d="M7 11h1"/><path stroke="#6c00ec" d="M8 11h1"/><path stroke="#7600f0" d="M9 11h1"/><path stroke="#6d00e1" d="M10 11h1"/><path stroke="#7900e6" d="M11 11h1"/><path stroke="#4800b4" d="M12 11h1"/><path stroke="#5e5d16" d="M13 11h1"/><path stroke="#eded00" d="M14 11h1"/><path stroke="#e0e200" d="M16 11h1"/><path stroke="#e0e100" d="M17 11h1"/><path stroke="#e0e000" d="M18 11h1"/><path stroke="#e8e800" d="M19 11h1m-5 9h1"/><path stroke="#fdfd00" d="M20 11h1m-1 5h1"/><path stroke="#e7e700" d="M21 11h1"/><path stroke="rgba(100, 100, 0, 0.8352941176470589)" d="M22 11h1"/><path stroke="rgba(0, 0, 0, 0.22745098039215686)" d="M23 11h1m-1 10h1"/><path stroke="#e00000" d="M3 12h1"/><path stroke="#930000" d="M4 12h1M2 22h1"/><path stroke="#8d0000" d="M5 12h1"/><path stroke="#650012" d="M6 12h1"/><path stroke="#6e00a3" d="M7 12h1"/><path stroke="#5f00dc" d="M8 12h1"/><path stroke="#520061" d="M9 12h1"/><path stroke="#56001e" d="M10 12h1"/><path stroke="#31002e" d="M11 12h1"/><path stroke="#2b005a" d="M12 12h1"/><path stroke="#828004" d="M13 12h1"/><path stroke="#fcfd00" d="M14 12h1"/><path stroke="#92930a" d="M15 12h1"/><path stroke="#452137" d="M16 12h1"/><path stroke="#331e41" d="M17 12h1"/><path stroke="rgba(30, 32, 9, 0.9137254901960784)" d="M18 12h1"/><path stroke="rgba(81, 81, 0, 0.8627450980392157)" d="M19 12h1"/><path stroke="#bdbd00" d="M20 12h1"/><path stroke="#cc0" d="M21 12h1"/><path stroke="rgba(78, 78, 0, 0.9725490196078431)" d="M22 12h1"/><path stroke="#c80000" d="M3 13h1"/><path stroke="rgba(68, 0, 0, 0.9882352941176471)" d="M4 13h1"/><path stroke="rgba(54, 0, 0, 0.9803921568627451)" d="M5 13h1"/><path stroke="rgba(46, 0, 72, 0.996078431372549)" d="M6 13h1"/><path stroke="#7c00f5" d="M7 13h1"/><path stroke="#470097" d="M8 13h1"/><path stroke="#50000f" d="M9 13h1"/><path stroke="#e00" d="M10 13h1"/><path stroke="rgba(72, 0, 9, 0.996078431372549)" d="M11 13h1"/><path stroke="rgba(0, 0, 38, 0.9882352941176471)" d="M12 13h1"/><path stroke="#818102" d="M13 13h1"/><path stroke="#e4e500" d="M14 13h1"/><path stroke="#312222" d="M15 13h1"/><path stroke="#5b00bb" d="M16 13h1"/><path stroke="#6a00db" d="M17 13h1"/><path stroke="rgba(19, 0, 41, 0.7176470588235294)" d="M18 13h1"/><path stroke="rgba(2, 4, 0, 0.30980392156862746)" d="M19 13h1"/><path stroke="rgba(56, 56, 0, 0.8470588235294118)" d="M20 13h1"/><path stroke="rgba(68, 68, 0, 0.9882352941176471)" d="M21 13h1"/><path stroke="rgba(43, 43, 0, 0.7215686274509804)" d="M22 13h1"/><path stroke="rgba(0, 0, 0, 0.15294117647058825)" d="M23 13h1m-1 3h1"/><path stroke="#b40000" d="M3 14h1m-1 4h1"/><path stroke="rgba(8, 0, 0, 0.6392156862745098)" d="M4 14h1"/><path stroke="rgba(0, 0, 0, 0.3607843137254902)" d="M5 14h1"/><path stroke="rgba(46, 0, 80, 0.9137254901960784)" d="M6 14h1"/><path stroke="#7c00f7" d="M7 14h1"/><path stroke="#460095" d="M8 14h1"/><path stroke="#51000d" d="M9 14h1"/><path stroke="#f20000" d="M10 14h1m-1 1h1m-1 1h1"/><path stroke="rgba(81, 0, 0, 0.9058823529411765)" d="M11 14h1"/><path stroke="rgba(0, 0, 0, 0.5411764705882353)" d="M12 14h1m-1 4h1"/><path stroke="rgba(84, 84, 0, 0.9215686274509803)" d="M13 14h1"/><path stroke="#bbbc00" d="M14 14h1"/><path stroke="#2d1e23" d="M15 14h1"/><path stroke="#6100bf" d="M16 14h1"/><path stroke="#6c00e2" d="M17 14h1"/><path stroke="rgba(23, 9, 33, 0.9176470588235294)" d="M18 14h1"/><path stroke="rgba(40, 41, 0, 0.7058823529411765)" d="M19 14h1"/><path stroke="rgba(18, 18, 0, 0.49019607843137253)" d="M20 14h1"/><path stroke="rgba(0, 0, 0, 0.36470588235294116)" d="M21 14h1"/><path stroke="rgba(0, 0, 0, 0.13725490196078433)" d="M22 14h1"/><path stroke="#b30000" d="M3 15h1m-1 1h1m-1 1h1"/><path stroke="rgba(11, 0, 0, 0.49411764705882355)" d="M4 15h1m-1 1h1m-1 1h1"/><path stroke="rgba(0, 0, 0, 0.10588235294117647)" d="M5 15h1m-1 1h1"/><path stroke="rgba(36, 0, 83, 0.8823529411764706)" d="M6 15h1"/><path stroke="#7b00f6" d="M7 15h1m-1 1h1"/><path stroke="#470095" d="M8 15h1"/><path stroke="#4e000d" d="M9 15h1"/><path stroke="rgba(83, 0, 0, 0.8784313725490196)" d="M11 15h1"/><path stroke="rgba(0, 0, 0, 0.1450980392156863)" d="M12 15h1m-1 2h1"/><path stroke="rgba(23, 23, 0, 0.4117647058823529)" d="M13 15h1"/><path stroke="rgba(70, 72, 0, 0.9254901960784314)" d="M14 15h1"/><path stroke="#220e23" d="M15 15h1"/><path stroke="#5b00bf" d="M16 15h1"/><path stroke="#7300e3" d="M17 15h1"/><path stroke="#52401e" d="M18 15h1"/><path stroke="rgba(214, 215, 0, 0.996078431372549)" d="M19 15h1"/><path stroke="rgba(128, 128, 0, 0.9137254901960784)" d="M20 15h1"/><path stroke="rgba(71, 71, 0, 0.6980392156862745)" d="M21 15h1"/><path stroke="rgba(10, 10, 0, 0.1450980392156863)" d="M22 15h1"/><path stroke="rgba(41, 0, 83, 0.8823529411764706)" d="M6 16h1"/><path stroke="#440094" d="M8 16h1"/><path stroke="#4f000d" d="M9 16h1"/><path stroke="rgba(83, 0, 0, 0.8823529411764706)" d="M11 16h1"/><path stroke="rgba(0, 0, 0, 0.11764705882352941)" d="M12 16h1"/><path stroke="rgba(0, 0, 0, 0.44313725490196076)" d="M14 16h1"/><path stroke="rgba(19, 0, 37, 0.9490196078431372)" d="M15 16h1"/><path stroke="#6000bf" d="M16 16h1"/><path stroke="#6f00e3" d="M17 16h1"/><path stroke="#45351e" d="M18 16h1"/><path stroke="#d9da00" d="M19 16h1"/><path stroke="#d7d700" d="M21 16h1"/><path stroke="rgba(91, 91, 0, 0.7254901960784313)" d="M22 16h1"/><path stroke="rgba(0, 0, 0, 0.08627450980392157)" d="M5 17h1"/><path stroke="rgba(54, 0, 80, 0.8)" d="M6 17h1"/><path stroke="#7b00e6" d="M7 17h1"/><path stroke="#1f005f" d="M8 17h1"/><path stroke="#5a0001" d="M9 17h1"/><path stroke="#ed0000" d="M10 17h1"/><path stroke="rgba(79, 0, 0, 0.8784313725490196)" d="M11 17h1"/><path stroke="rgba(40, 40, 0, 0.403921568627451)" d="M13 17h1"/><path stroke="rgba(42, 43, 0, 0.7490196078431373)" d="M14 17h1"/><path stroke="rgba(31, 22, 31, 0.9647058823529412)" d="M15 17h1"/><path stroke="#5a01b6" d="M16 17h1"/><path stroke="rgba(90, 0, 212, 0.984313725490196)" d="M17 17h1"/><path stroke="rgba(18, 9, 30, 0.8784313725490196)" d="M18 17h1"/><path stroke="rgba(98, 98, 0, 0.9294117647058824)" d="M19 17h1"/><path stroke="#e1e100" d="M20 17h1"/><path stroke="#ff0" d="M21 17h1m-1 1h1m-7 1h1m4 0h1m-4 1h3"/><path stroke="rgba(130, 130, 0, 0.9725490196078431)" d="M22 17h1m-1 1h1"/><path stroke="rgba(8, 0, 0, 0.6431372549019608)" d="M4 18h1"/><path stroke="rgba(0, 0, 0, 0.2784313725490196)" d="M5 18h1"/><path stroke="rgba(13, 0, 12, 0.5607843137254902)" d="M6 18h1"/><path stroke="rgba(85, 0, 103, 0.9882352941176471)" d="M7 18h1"/><path stroke="#710036" d="M8 18h1"/><path stroke="#ce0000" d="M9 18h1"/><path stroke="#a10000" d="M10 18h1"/><path stroke="rgba(32, 0, 0, 0.9058823529411765)" d="M11 18h1"/><path stroke="rgba(101, 101, 0, 0.9215686274509803)" d="M13 18h1"/><path stroke="#d8d800" d="M14 18h1"/><path stroke="#b5b702" d="M15 18h1"/><path stroke="#35275f" d="M16 18h1"/><path stroke="rgba(9, 0, 78, 0.9294117647058824)" d="M17 18h1"/><path stroke="rgba(0, 0, 2, 0.4666666666666667)" d="M18 18h1"/><path stroke="rgba(67, 67, 0, 0.6980392156862745)" d="M19 18h1"/><path stroke="#cece00" d="M20 18h1"/><path stroke="#da0000" d="M3 19h1m-1 2h1m3 0h1"/><path stroke="rgba(132, 0, 0, 0.9882352941176471)" d="M4 19h1"/><path stroke="rgba(130, 0, 0, 0.9764705882352941)" d="M5 19h1"/><path stroke="rgba(129, 0, 0, 0.9803921568627451)" d="M6 19h1"/><path stroke="#850003" d="M7 19h1"/><path stroke="#dc0002" d="M8 19h1"/><path stroke="#dc0000" d="M9 19h1"/><path stroke="#420005" d="M10 19h1"/><path stroke="rgba(19, 0, 95, 0.996078431372549)" d="M11 19h1"/><path stroke="rgba(71, 0, 94, 0.9882352941176471)" d="M12 19h1"/><path stroke="#494503" d="M13 19h1"/><path stroke="#dede00" d="M14 19h1"/><path stroke="#bcbd03" d="M16 19h1"/><path stroke="rgba(126, 126, 2, 0.996078431372549)" d="M17 19h1"/><path stroke="rgba(129, 129, 0, 0.9725490196078431)" d="M18 19h1"/><path stroke="rgba(191, 191, 0, 0.984313725490196)" d="M19 19h1"/><path stroke="#ee0" d="M21 19h1"/><path stroke="rgba(99, 99, 0, 0.9725490196078431)" d="M22 19h1"/><path stroke="#e10000" d="M8 20h1"/><path stroke="#510007" d="M9 20h1"/><path stroke="#25006d" d="M10 20h1"/><path stroke="#7200f1" d="M11 20h1"/><path stroke="#5400c1" d="M12 20h1"/><path stroke="#3b3915" d="M13 20h1"/><path stroke="#a1a100" d="M14 20h1"/><path stroke="#ecec00" d="M20 20h1"/><path stroke="#a4a400" d="M21 20h1"/><path stroke="rgba(66, 66, 0, 0.9725490196078431)" d="M22 20h1"/><path stroke="rgba(129, 0, 0, 0.9725490196078431)" d="M1 21h1"/><path stroke="#db0000" d="M4 21h3"/><path stroke="#940000" d="M8 21h1"/><path stroke="#190035" d="M9 21h1"/><path stroke="#5900ca" d="M10 21h1"/><path stroke="#6b00dd" d="M11 21h1"/><path stroke="#6a00d4" d="M12 21h1"/><path stroke="#1e0971" d="M13 21h1"/><path stroke="#4a4b08" d="M14 21h1"/><path stroke="#8a8a00" d="M15 21h1"/><path stroke="#b6b600" d="M16 21h1"/><path stroke="#dcdc00" d="M17 21h1"/><path stroke="#dbdb00" d="M18 21h1"/><path stroke="#d9d900" d="M19 21h1"/><path stroke="#a5a500" d="M20 21h1"/><path stroke="#767600" d="M21 21h1"/><path stroke="rgba(54, 54, 0, 0.8352941176470589)" d="M22 21h1"/><path stroke="rgba(0, 0, 0, 0.3137254901960784)" d="M0 22h1"/><path stroke="rgba(96, 0, 0, 0.9568627450980393)" d="M1 22h1"/><path stroke="#7e0000" d="M3 22h1m3 0h1"/><path stroke="#7f0000" d="M4 22h3"/><path stroke="rgba(74, 0, 0, 0.9803921568627451)" d="M8 22h1"/><path stroke="rgba(24, 0, 38, 0.9803921568627451)" d="M9 22h1"/><path stroke="#3e007d" d="M10 22h1"/><path stroke="#3f007f" d="M11 22h1"/><path stroke="#410080" d="M12 22h1"/><path stroke="#3b007c" d="M13 22h1"/><path stroke="rgba(25, 8, 71, 0.996078431372549)" d="M14 22h1"/><path stroke="rgba(73, 74, 6, 0.984313725490196)" d="M15 22h1"/><path stroke="#7c7c00" d="M16 22h1"/><path stroke="#7f7f00" d="M17 22h2"/><path stroke="#7e7e00" d="M19 22h1"/><path stroke="rgba(83, 83, 0, 0.9882352941176471)" d="M20 22h1"/><path stroke="rgba(53, 53, 0, 0.8431372549019608)" d="M21 22h1"/><path stroke="rgba(10, 10, 0, 0.26666666666666666)" d="M22 22h1"/><path stroke="rgba(0, 0, 0, 0.09411764705882353)" d="M0 23h1"/><path stroke="rgba(30, 0, 0, 0.6509803921568628)" d="M1 23h1"/><path stroke="#290000" d="M2 23h5"/><path stroke="rgba(41, 0, 0, 0.984313725490196)" d="M7 23h1"/><path stroke="rgba(23, 0, 0, 0.5058823529411764)" d="M8 23h1"/><path stroke="rgba(0, 0, 23, 0.5058823529411764)" d="M9 23h1"/><path stroke="rgba(21, 0, 41, 0.984313725490196)" d="M10 23h1"/><path stroke="#130029" d="M11 23h1"/><path stroke="#180029" d="M12 23h1"/><path stroke="#16002a" d="M13 23h1"/><path stroke="rgba(14, 0, 42, 0.9098039215686274)" d="M14 23h1"/><path stroke="rgba(19, 20, 9, 0.596078431372549)" d="M15 23h1"/><path stroke="rgba(41, 41, 0, 0.9803921568627451)" d="M16 23h1"/><path stroke="#292900" d="M17 23h2"/><path stroke="rgba(41, 41, 0, 0.984313725490196)" d="M19 23h1"/><path stroke="rgba(23, 23, 0, 0.5215686274509804)" d="M20 23h1"/></svg>