<svg xmlns="http://www.w3.org/2000/svg" shape-rendering="crispEdges" viewBox="0 -0.5 32 32"><path stroke="rgba(0, 0, 0, 0.11764705882352941)" d="M1 0h1m15 0h1M1 1h1M1 2h1M1 3h1m27 0h1M1 4h1M1 5h1M1 6h1M1 7h1M1 8h1M1 9h1m27 0h1M1 10h1m-2 2h1m30 3h1m-1 2h1m-16 4h1m-1 1h1m14 0h1M7 24h1m23 4h1M0 30h1"/><path stroke="rgba(3, 3, 3, 0.8823529411764706)" d="M2 0h1"/><path stroke="#161616" d="M3 0h1"/><path stroke="#191919" d="M4 0h1m9 0h1"/><path stroke="rgba(17, 17, 17, 0.8980392156862745)" d="M5 0h1"/><path stroke="rgba(9, 9, 9, 0.2196078431372549)" d="M6 0h1"/><path stroke="rgba(0, 0, 0, 0.00784313725490196)" d="M7 0h1m3 0h1m6 0h1m10 1h1M8 2h1m1 0h1m17 4h1m0 1h1M0 11h1m28 0h1m0 2h1m0 1h1m-1 4h1m-2 2h1m0 1h1m-1 8h1m-2 1h1"/><path stroke="rgba(14, 14, 14, 0.2196078431372549)" d="M12 0h1"/><path stroke="rgba(25, 25, 25, 0.8980392156862745)" d="M13 0h1m8 10h1"/><path stroke="#101010" d="M15 0h1M5 7h1"/><path stroke="rgba(2, 2, 2, 0.8823529411764706)" d="M16 0h1"/><path stroke="rgba(0, 0, 0, 0.10980392156862745)" d="M19 0h1m7 0h1M6 20h2m-2 1h2m-2 1h2m-2 1h1m21 8h1"/><path stroke="rgba(13, 13, 13, 0.23529411764705882)" d="M20 0h1"/><path stroke="rgba(26, 26, 26, 0.8980392156862745)" d="M21 0h1"/><path stroke="#1b1b1b" d="M22 0h2"/><path stroke="#1a1a1a" d="M24 0h1"/><path stroke="rgba(18, 18, 18, 0.8980392156862745)" d="M25 0h1"/><path stroke="rgba(8, 8, 8, 0.23529411764705882)" d="M26 0h1"/><path stroke="rgba(0, 0, 0, 0.01568627450980392)" d="M28 0h1M9 4h1m19 1h1m-1 26h1"/><path stroke="rgba(22, 22, 22, 0.8823529411764706)" d="M2 1h1m23 3h1"/><path stroke="#949494" d="M3 1h1m18 5h1"/><path stroke="#a4a4a4" d="M4 1h1m9 0h1m11 1h1m-8 1h1M7 6h1m17 1h1M8 9h1"/><path stroke="rgba(112, 112, 112, 0.9921568627450981)" d="M5 1h1"/><path stroke="rgba(17, 17, 17, 0.788235294117647)" d="M6 1h1"/><path stroke="rgba(0, 0, 0, 0.10196078431372549)" d="M7 1h1m3 0h1m17 1h1M8 3h1m1 0h1m18 1h1m-2 1h1m0 3h1m-1 2h1"/><path stroke="rgba(25, 25, 25, 0.788235294117647)" d="M12 1h1"/><path stroke="rgba(150, 150, 150, 0.9921568627450981)" d="M13 1h1"/><path stroke="#696969" d="M15 1h1"/><path stroke="rgba(14, 14, 14, 0.8823529411764706)" d="M16 1h1"/><path stroke="rgba(0, 0, 0, 0.12549019607843137)" d="M17 1h1m9 4h1M17 6h1m-2 14h1m-1 3h1"/><path stroke="rgba(14, 14, 14, 0.1843137254901961)" d="M18 1h1"/><path stroke="rgba(24, 24, 24, 0.7843137254901961)" d="M19 1h1"/><path stroke="rgba(44, 44, 44, 0.8941176470588236)" d="M20 1h1"/><path stroke="rgba(145, 145, 145, 0.984313725490196)" d="M21 1h1"/><path stroke="#939393" d="M22 1h1"/><path stroke="#919191" d="M23 1h1"/><path stroke="#8e8e8e" d="M24 1h1m-2 5h1"/><path stroke="rgba(114, 114, 114, 0.984313725490196)" d="M25 1h1m-2 5h1"/><path stroke="rgba(37, 37, 37, 0.8941176470588236)" d="M26 1h1m-7 5h1m4 0h1"/><path stroke="rgba(17, 17, 17, 0.7843137254901961)" d="M27 1h1M8 5h1m17 1h1"/><path stroke="rgba(9, 9, 9, 0.19215686274509805)" d="M28 1h1"/><path stroke="rgba(26, 26, 26, 0.8823529411764706)" d="M2 2h1M2 3h1M2 4h1M2 5h1M2 6h1M2 7h1M2 8h1M2 9h1m-1 1h1"/><path stroke="#aaa" d="M3 2h1"/><path stroke="#c4c4c4" d="M4 2h1"/><path stroke="#a5a5a5" d="M5 2h1m0 2h1"/><path stroke="rgba(37, 37, 37, 0.8980392156862745)" d="M6 2h1m0 2h1"/><path stroke="rgba(2, 2, 2, 0.20784313725490197)" d="M7 2h1m0 2h1"/><path stroke="rgba(6, 6, 6, 0.20784313725490197)" d="M11 2h1m-2 2h1"/><path stroke="rgba(45, 45, 45, 0.8980392156862745)" d="M12 2h1m11 0h1M11 4h1m11 3h1"/><path stroke="#adadad" d="M13 2h1m6 8h1"/><path stroke="#bcbcbc" d="M14 2h1M4 3h1"/><path stroke="#787878" d="M15 2h1m-1 1h1m-1 1h1m-1 1h1"/><path stroke="rgba(17, 17, 17, 0.8745098039215686)" d="M16 2h1m-1 1h1m-1 1h1m-1 1h1m-1 3h1m-1 1h1M5 10h1m10 0h1"/><path stroke="rgba(0, 0, 0, 0.2196078431372549)" d="M17 2h1m-1 3h1M6 10h1m5 0h1m4 0h1M6 24h1"/><path stroke="rgba(25, 25, 25, 0.7843137254901961)" d="M18 2h1m-9 3h1m0 5h1"/><path stroke="rgba(149, 149, 149, 0.9921568627450981)" d="M19 2h1"/><path stroke="#9f9f9f" d="M20 2h1"/><path stroke="rgba(117, 117, 117, 0.984313725490196)" d="M21 2h1M8 7h1"/><path stroke="rgba(39, 39, 39, 0.8980392156862745)" d="M22 2h1"/><path stroke="rgba(25, 25, 25, 0.8823529411764706)" d="M23 2h1"/><path stroke="rgba(150, 150, 150, 0.984313725490196)" d="M25 2h1"/><path stroke="rgba(107, 107, 107, 0.9921568627450981)" d="M27 2h1"/><path stroke="rgba(16, 16, 16, 0.792156862745098)" d="M28 2h1m-1 6h1m-1 2h1"/><path stroke="#a7a7a7" d="M3 3h1"/><path stroke="#b8b8b8" d="M5 3h1"/><path stroke="rgba(116, 116, 116, 0.9921568627450981)" d="M6 3h1m0 2h1"/><path stroke="rgba(17, 17, 17, 0.792156862745098)" d="M7 3h1"/><path stroke="rgba(25, 25, 25, 0.792156862745098)" d="M11 3h1"/><path stroke="rgba(153, 153, 153, 0.9921568627450981)" d="M12 3h1m-5 7h1m1 0h1"/><path stroke="#bfbfbf" d="M13 3h1"/><path stroke="#bababa" d="M14 3h1"/><path stroke="rgba(0, 0, 0, 0.23529411764705882)" d="M17 3h1m-1 1h1m-1 5h1"/><path stroke="rgba(27, 27, 27, 0.8745098039215686)" d="M18 3h1m-1 1h1m-6 6h1"/><path stroke="#828282" d="M20 3h1M5 5h1"/><path stroke="rgba(29, 29, 29, 0.8941176470588236)" d="M21 3h1"/><path stroke="rgba(3, 3, 3, 0.21568627450980393)" d="M22 3h1m-1 1h1"/><path stroke="rgba(0, 0, 0, 0.09803921568627451)" d="M23 3h1m-1 1h1"/><path stroke="rgba(7, 7, 7, 0.21568627450980393)" d="M24 3h1"/><path stroke="rgba(42, 42, 42, 0.8941176470588236)" d="M25 3h1"/><path stroke="#929292" d="M26 3h1"/><path stroke="#6b6b6b" d="M27 3h1"/><path stroke="rgba(15, 15, 15, 0.8823529411764706)" d="M28 3h1"/><path stroke="#a1a1a1" d="M3 4h1M3 5h1M3 6h1"/><path stroke="#969696" d="M4 4h1"/><path stroke="#b4b4b4" d="M5 4h1"/><path stroke="#ababab" d="M12 4h1m-2 2h1"/><path stroke="#bdbdbd" d="M13 4h1"/><path stroke="#b9b9b9" d="M14 4h1m-6 6h1"/><path stroke="#a3a3a3" d="M19 4h1m-6 2h1m-1 1h1M8 8h1m5 0h1m-5 1h1m-8 1h1m10 0h1"/><path stroke="#7b7b7b" d="M20 4h1"/><path stroke="rgba(28, 28, 28, 0.8941176470588236)" d="M21 4h1"/><path stroke="rgba(0, 0, 0, 0.2)" d="M24 4h1m-3 5h1"/><path stroke="rgba(3, 3, 3, 0.7843137254901961)" d="M25 4h1"/><path stroke="rgba(16, 16, 16, 0.8862745098039215)" d="M27 4h1"/><path stroke="rgba(2, 2, 2, 0.7803921568627451)" d="M28 4h1"/><path stroke="#878787" d="M4 5h1"/><path stroke="#b1b1b1" d="M6 5h1m19 3h1m-1 2h1"/><path stroke="rgba(0, 0, 0, 0.20784313725490197)" d="M9 5h1m-9 6h1"/><path stroke="rgba(154, 154, 154, 0.9921568627450981)" d="M11 5h1"/><path stroke="#b7b7b7" d="M12 5h1"/><path stroke="#8a8a8a" d="M13 5h1"/><path stroke="#b0b0b0" d="M14 5h1"/><path stroke="rgba(26, 26, 26, 0.7843137254901961)" d="M18 5h1"/><path stroke="rgba(143, 143, 143, 0.9921568627450981)" d="M19 5h1"/><path stroke="#7a7a7a" d="M20 5h1M4 6h1M4 7h1M4 8h1m22 1h1M4 10h1m10 0h1"/><path stroke="rgba(110, 110, 110, 0.984313725490196)" d="M21 5h1"/><path stroke="rgba(40, 40, 40, 0.8980392156862745)" d="M22 5h1"/><path stroke="rgba(25, 25, 25, 0.8862745098039215)" d="M23 5h1"/><path stroke="rgba(17, 17, 17, 0.807843137254902)" d="M24 5h1"/><path stroke="rgba(5, 5, 5, 0.3137254901960784)" d="M25 5h1"/><path stroke="rgba(0, 0, 0, 0.21568627450980393)" d="M26 5h1m-8 2h1m-8 4h1m-7 8h2m20 0h1"/><path stroke="#2e2e2e" d="M5 6h1"/><path stroke="#9a9a9a" d="M6 6h1m5 0h1"/><path stroke="rgba(37, 37, 37, 0.8901960784313725)" d="M8 6h1"/><path stroke="rgba(5, 5, 5, 0.3254901960784314)" d="M9 6h1"/><path stroke="rgba(45, 45, 45, 0.8901960784313725)" d="M10 6h1"/><path stroke="#363636" d="M13 6h1"/><path stroke="#797979" d="M15 6h1m-1 1h1m-1 1h1M4 9h1m10 0h1"/><path stroke="rgba(17, 17, 17, 0.8823529411764706)" d="M16 6h1m-1 1h1m11 2h1"/><path stroke="rgba(15, 15, 15, 0.1803921568627451)" d="M18 6h1"/><path stroke="rgba(23, 23, 23, 0.7843137254901961)" d="M19 6h1"/><path stroke="rgba(144, 144, 144, 0.984313725490196)" d="M21 6h1"/><path stroke="rgba(9, 9, 9, 0.18823529411764706)" d="M27 6h1"/><path stroke="#a2a2a2" d="M3 7h1M3 8h1M3 9h1m10 0h1"/><path stroke="#282828" d="M6 7h1"/><path stroke="#a6a6a6" d="M7 7h1"/><path stroke="rgba(37, 37, 37, 0.9098039215686274)" d="M9 7h1"/><path stroke="rgba(155, 155, 155, 0.984313725490196)" d="M10 7h1M7 8h1"/><path stroke="#acacac" d="M11 7h1"/><path stroke="#272727" d="M12 7h1"/><path stroke="#181818" d="M13 7h1"/><path stroke="rgba(0, 0, 0, 0.12941176470588237)" d="M17 7h1"/><path stroke="rgba(0, 0, 0, 0.10588235294117647)" d="M18 7h1m9 5h1M18 22h1"/><path stroke="rgba(9, 9, 9, 0.30980392156862746)" d="M20 7h1"/><path stroke="rgba(26, 26, 26, 0.8)" d="M21 7h1"/><path stroke="rgba(26, 26, 26, 0.8862745098039215)" d="M22 7h1"/><path stroke="rgba(149, 149, 149, 0.984313725490196)" d="M24 7h1"/><path stroke="rgba(114, 114, 114, 0.9921568627450981)" d="M26 7h1"/><path stroke="rgba(31, 31, 31, 0.807843137254902)" d="M27 7h1"/><path stroke="rgba(5, 5, 5, 0.19215686274509805)" d="M28 7h1"/><path stroke="rgba(13, 13, 13, 0.984313725490196)" d="M5 8h1"/><path stroke="rgba(21, 21, 21, 0.9098039215686274)" d="M6 8h1"/><path stroke="#383838" d="M9 8h1"/><path stroke="#a9a9a9" d="M10 8h1m15 1h1"/><path stroke="rgba(156, 156, 156, 0.984313725490196)" d="M11 8h1"/><path stroke="rgba(20, 20, 20, 0.9098039215686274)" d="M12 8h1"/><path stroke="rgba(22, 22, 22, 0.984313725490196)" d="M13 8h1"/><path stroke="rgba(0, 0, 0, 0.2235294117647059)" d="M17 8h1m7 10h1"/><path stroke="rgba(3, 3, 3, 0.7686274509803922)" d="M18 8h1"/><path stroke="rgba(23, 23, 23, 0.8862745098039215)" d="M19 8h1"/><path stroke="rgba(25, 25, 25, 0.8)" d="M20 8h1m0 1h1"/><path stroke="rgba(9, 9, 9, 0.29411764705882354)" d="M21 8h1"/><path stroke="rgba(0, 0, 0, 0.11372549019607843)" d="M22 8h1m0 1h1m5 10h1"/><path stroke="rgba(8, 8, 8, 0.2)" d="M23 8h1"/><path stroke="rgba(47, 47, 47, 0.8)" d="M24 8h1"/><path stroke="rgba(156, 156, 156, 0.9921568627450981)" d="M25 8h1"/><path stroke="rgba(108, 108, 108, 0.9921568627450981)" d="M27 8h1m-1 2h1"/><path stroke="rgba(16, 16, 16, 0.8901960784313725)" d="M5 9h1"/><path stroke="rgba(1, 1, 1, 0.3254901960784314)" d="M6 9h1"/><path stroke="rgba(46, 46, 46, 0.8901960784313725)" d="M7 9h1m3 0h1m12 1h1"/><path stroke="#8c8c8c" d="M9 9h1"/><path stroke="rgba(0, 0, 0, 0.3254901960784314)" d="M12 9h1"/><path stroke="rgba(26, 26, 26, 0.8901960784313725)" d="M13 9h1"/><path stroke="rgba(23, 23, 23, 0.8745098039215686)" d="M18 9h1"/><path stroke="#959595" d="M19 9h1"/><path stroke="rgba(151, 151, 151, 0.9921568627450981)" d="M20 9h1"/><path stroke="rgba(13, 13, 13, 0.30980392156862746)" d="M24 9h1"/><path stroke="rgba(63, 63, 63, 0.9098039215686274)" d="M25 9h1"/><path stroke="rgba(25, 25, 25, 0.7803921568627451)" d="M7 10h1m10 0h1"/><path stroke="rgba(155, 155, 155, 0.9921568627450981)" d="M19 10h1"/><path stroke="rgba(45, 45, 45, 0.984313725490196)" d="M21 10h1"/><path stroke="rgba(26, 26, 26, 0.8784313725490196)" d="M23 10h1"/><path stroke="rgba(157, 157, 157, 0.984313725490196)" d="M25 10h1"/><path stroke="rgba(22, 23, 23, 0.8980392156862745)" d="M2 11h1"/><path stroke="#8d8f8f" d="M3 11h1"/><path stroke="#696b6b" d="M4 11h1"/><path stroke="rgba(14, 14, 14, 0.8941176470588236)" d="M5 11h1m10 0h1"/><path stroke="rgba(0, 0, 0, 0.23137254901960785)" d="M6 11h1m10 0h1"/><path stroke="rgba(4, 5, 5, 0.3058823529411765)" d="M7 11h1"/><path stroke="rgba(40, 42, 42, 0.9098039215686274)" d="M8 11h1"/><path stroke="#848686" d="M9 11h1"/><path stroke="rgba(42, 43, 43, 0.8941176470588236)" d="M10 11h1"/><path stroke="rgba(7, 7, 7, 0.20784313725490197)" d="M11 11h1"/><path stroke="rgba(23, 23, 22, 0.8980392156862745)" d="M13 11h1"/><path stroke="#8e8f8d" d="M14 11h1"/><path stroke="#696b69" d="M15 11h1"/><path stroke="rgba(5, 5, 5, 0.2901960784313726)" d="M18 11h1"/><path stroke="rgba(46, 46, 46, 0.8156862745098039)" d="M19 11h1"/><path stroke="rgba(149, 149, 151, 0.9882352941176471)" d="M20 11h1"/><path stroke="#949496" d="M21 11h1"/><path stroke="#909092" d="M22 11h1"/><path stroke="#909091" d="M23 11h1"/><path stroke="#939395" d="M24 11h1"/><path stroke="#a1a1a3" d="M25 11h1"/><path stroke="rgba(114, 114, 115, 0.9921568627450981)" d="M26 11h1"/><path stroke="rgba(31, 31, 32, 0.8)" d="M27 11h1"/><path stroke="rgba(5, 5, 5, 0.1843137254901961)" d="M28 11h1"/><path stroke="rgba(4, 0, 0, 0.7843137254901961)" d="M1 12h1"/><path stroke="rgba(29, 3, 3, 0.9921568627450981)" d="M2 12h1"/><path stroke="#311313" d="M3 12h1"/><path stroke="#2c0e0e" d="M4 12h1"/><path stroke="rgba(32, 2, 2, 0.984313725490196)" d="M5 12h1"/><path stroke="rgba(33, 0, 0, 0.8941176470588236)" d="M6 12h1"/><path stroke="rgba(33, 0, 0, 0.8901960784313725)" d="M7 12h1m0 13h1"/><path stroke="rgba(32, 3, 3, 0.984313725490196)" d="M8 12h1"/><path stroke="#2e1111" d="M9 12h1"/><path stroke="rgba(20, 3, 3, 0.8901960784313725)" d="M10 12h1"/><path stroke="rgba(4, 0, 11, 0.3058823529411765)" d="M11 12h1"/><path stroke="rgba(5, 0, 33, 0.8)" d="M12 12h1"/><path stroke="rgba(27, 3, 33, 0.9921568627450981)" d="M13 12h1"/><path stroke="#1a1331" d="M14 12h1"/><path stroke="#260e2c" d="M15 12h1"/><path stroke="rgba(10, 2, 32, 0.984313725490196)" d="M16 12h1"/><path stroke="rgba(27, 0, 32, 0.9019607843137255)" d="M17 12h1"/><path stroke="rgba(5, 0, 20, 0.792156862745098)" d="M18 12h1"/><path stroke="rgba(15, 15, 11, 0.4)" d="M19 12h1"/><path stroke="rgba(51, 51, 22, 0.9058823529411765)" d="M20 12h1"/><path stroke="#363618" d="M21 12h4"/><path stroke="#343416" d="M25 12h1"/><path stroke="rgba(44, 44, 15, 0.9098039215686274)" d="M26 12h1"/><path stroke="rgba(17, 17, 5, 0.30980392156862746)" d="M27 12h1"/><path stroke="rgba(0, 0, 0, 0.011764705882352941)" d="M29 12h1m0 7h1M0 31h1"/><path stroke="rgba(0, 0, 0, 0.13333333333333333)" d="M0 13h1m-1 1h1m-1 1h1m-1 1h1m30 0h1M0 17h1m-1 1h1m-1 1h1m-1 1h1m-1 1h1m-1 1h1m-1 1h1m30 0h1M0 24h1m30 0h1M0 25h1m30 0h1M0 26h1m30 0h1M0 27h1m30 0h1M0 28h1m-1 1h1"/><path stroke="rgba(30, 0, 0, 0.8745098039215686)" d="M1 13h1"/><path stroke="#c50000" d="M2 13h1"/><path stroke="#e10000" d="M3 13h1m1 0h1m8 6h1m-1 1h1m-1 1h1m-1 1h1"/><path stroke="#e00000" d="M4 13h1m2 0h2m0 13h1"/><path stroke="#df0000" d="M6 13h1m-5 1h1m-1 1h1m-1 1h1m-1 1h1m-1 1h1m-1 1h1m1 0h1m-3 1h1m1 0h1m-3 1h1m1 0h1m-3 1h1m1 0h1m-3 1h1m1 0h1m-3 1h1m1 0h1m-3 1h1m-1 1h1m3 0h3m-7 1h1"/><path stroke="#c70000" d="M9 13h1"/><path stroke="rgba(101, 0, 2, 0.984313725490196)" d="M10 13h1"/><path stroke="rgba(14, 0, 54, 0.9098039215686274)" d="M11 13h1"/><path stroke="rgba(48, 0, 204, 0.984313725490196)" d="M12 13h1"/><path stroke="#9a00e2" d="M13 13h1m9 9h1"/><path stroke="#4700e0" d="M14 13h1"/><path stroke="#9800e0" d="M15 13h1m-7 6h1m-1 2h1"/><path stroke="#4900e0" d="M16 13h1"/><path stroke="#9600c7" d="M17 13h1"/><path stroke="rgba(26, 2, 100, 0.984313725490196)" d="M18 13h1"/><path stroke="rgba(53, 54, 12, 0.9058823529411765)" d="M19 13h1"/><path stroke="rgba(204, 204, 0, 0.984313725490196)" d="M20 13h1m5 0h1"/><path stroke="#e1e100" d="M21 13h1m3 0h1m-3 2h3m-7 9h1m3 2h1"/><path stroke="#dfdf00" d="M22 13h3m4 10h1m-1 1h1m-6 2h1"/><path stroke="rgba(59, 59, 0, 0.8980392156862745)" d="M27 13h1"/><path stroke="rgba(32, 32, 0, 0.792156862745098)" d="M28 13h1m-3 4h1"/><path stroke="rgba(18, 18, 0, 0.19215686274509805)" d="M29 13h1"/><path stroke="rgba(34, 0, 0, 0.8745098039215686)" d="M1 14h1m-1 1h1m-1 1h1m-1 1h1m-1 1h1m-1 1h1m-1 1h1m-1 1h1m-1 1h1m-1 1h1m-1 1h1m-1 1h1m-1 1h1m-1 1h1m-1 1h1"/><path stroke="red" d="M3 14h5m-5 1h1m-1 1h1m-1 1h1m-1 1h1m-1 1h1m-1 1h1m-1 1h1m-1 1h1m-1 1h1m-1 1h1m-1 1h1m-1 1h1m-1 1h8"/><path stroke="#f10000" d="M8 14h1m3 11h1m-4 3h1"/><path stroke="#830002" d="M9 14h1"/><path stroke="#1c0031" d="M10 14h1"/><path stroke="#3100cc" d="M11 14h1"/><path stroke="#9f00fd" d="M12 14h1"/><path stroke="#6100ff" d="M13 14h1m1 0h1"/><path stroke="#a200ff" d="M14 14h1"/><path stroke="#9f00f1" d="M16 14h1"/><path stroke="#320283" d="M17 14h1"/><path stroke="#34311b" d="M18 14h1"/><path stroke="#cccc01" d="M19 14h1"/><path stroke="#fdfd00" d="M20 14h1m-2 1h1m8 7h1m-2 3h1m-6 2h1"/><path stroke="#ff0" d="M21 14h5m-7 2h1m8 7h1m-1 1h1m-1 1h1m-6 2h3"/><path stroke="#fbfb00" d="M26 14h1m1 1h1m-3 11h1"/><path stroke="#e4e400" d="M27 14h1m-1 7h1"/><path stroke="rgba(202, 202, 0, 0.9921568627450981)" d="M28 14h1m-1 7h1m0 1h1"/><path stroke="rgba(62, 62, 0, 0.807843137254902)" d="M29 14h1"/><path stroke="rgba(11, 11, 0, 0.19215686274509805)" d="M30 14h1m-1 7h1"/><path stroke="#fd0000" d="M4 15h1"/><path stroke="#f20000" d="M5 15h1m1 0h1m-4 1h1"/><path stroke="#f00000" d="M6 15h1M4 28h5"/><path stroke="#d60000" d="M8 15h1m5 8h1"/><path stroke="#28001a" d="M9 15h1"/><path stroke="#2f00ca" d="M10 15h1"/><path stroke="#9d00fc" d="M11 15h1"/><path stroke="#5500f1" d="M12 15h1m-3 2h1m4 11h1"/><path stroke="#9900e3" d="M13 15h1"/><path stroke="#4600e1" d="M14 15h1"/><path stroke="#9c00e4" d="M15 15h1m-6 1h1"/><path stroke="#3b00d4" d="M16 15h1"/><path stroke="#1f1a27" d="M17 15h1"/><path stroke="#caca00" d="M18 15h1m1 9h1"/><path stroke="#fcfc00" d="M20 15h1m5 6h1m-6 5h1"/><path stroke="#e4e500" d="M21 15h1"/><path stroke="#dfe100" d="M22 15h1"/><path stroke="#f1f100" d="M26 15h1m-4 13h1m1 0h1"/><path stroke="#fefe00" d="M27 15h1m-1 7h1m-8 3h1m-1 1h1m6 0h1m-2 1h1"/><path stroke="rgba(191, 191, 0, 0.9921568627450981)" d="M29 15h1"/><path stroke="rgba(31, 31, 0, 0.7843137254901961)" d="M30 15h1"/><path stroke="#9d0000" d="M5 16h1M3 29h1"/><path stroke="#8f0000" d="M6 16h2M4 29h1"/><path stroke="#750002" d="M8 16h1"/><path stroke="#3e0035" d="M9 16h1"/><path stroke="#4800e7" d="M11 16h1"/><path stroke="#550081" d="M12 16h1"/><path stroke="#3e0029" d="M13 16h1"/><path stroke="#20001c" d="M14 16h1"/><path stroke="#28002d" d="M15 16h1"/><path stroke="#4b0072" d="M16 16h1"/><path stroke="#2a1e12" d="M17 16h1"/><path stroke="#e0e100" d="M18 16h1m0 2h1"/><path stroke="#cdce02" d="M20 16h1"/><path stroke="#38350f" d="M21 16h1"/><path stroke="#351d1d" d="M22 16h1"/><path stroke="#211e1b" d="M23 16h1"/><path stroke="rgba(29, 30, 4, 0.984313725490196)" d="M24 16h1"/><path stroke="rgba(45, 45, 0, 0.9098039215686274)" d="M25 16h1"/><path stroke="rgba(131, 131, 0, 0.984313725490196)" d="M26 16h1"/><path stroke="#e5e500" d="M27 16h1m-1 8h1m-6 2h1m-3 1h1m1 1h1m3 0h1"/><path stroke="#e8e800" d="M28 16h1"/><path stroke="#8b8b00" d="M29 16h1"/><path stroke="rgba(19, 19, 0, 0.8745098039215686)" d="M30 16h1"/><path stroke="#e00" d="M4 17h1"/><path stroke="#810000" d="M5 17h1"/><path stroke="#6f0000" d="M6 17h1M4 30h5"/><path stroke="#620000" d="M7 17h1"/><path stroke="#30001a" d="M8 17h1"/><path stroke="#9c00cb" d="M9 17h1"/><path stroke="#4f008d" d="M11 17h1"/><path stroke="#32001b" d="M12 17h1"/><path stroke="#c80001" d="M13 17h1"/><path stroke="#c80000" d="M14 17h1M2 29h1"/><path stroke="#1d000e" d="M15 17h1"/><path stroke="#080055" d="M16 17h1"/><path stroke="#201e0e" d="M17 17h1"/><path stroke="#e3e300" d="M18 17h1m6 9h1"/><path stroke="#e7e700" d="M19 17h1m8 9h1"/><path stroke="#35350c" d="M20 17h1"/><path stroke="#240271" d="M21 17h1"/><path stroke="#9700d6" d="M22 17h1"/><path stroke="#2e00c6" d="M23 17h1"/><path stroke="rgba(2, 0, 30, 0.8901960784313725)" d="M24 17h1"/><path stroke="rgba(2, 3, 0, 0.30196078431372547)" d="M25 17h1"/><path stroke="rgba(115, 115, 0, 0.9921568627450981)" d="M27 17h1"/><path stroke="#7f7f00" d="M28 17h1"/><path stroke="rgba(101, 101, 0, 0.9921568627450981)" d="M29 17h1m-1 11h1m-2 1h1"/><path stroke="rgba(16, 16, 0, 0.7843137254901961)" d="M30 17h1m-1 11h1m-3 2h1"/><path stroke="#e30000" d="M4 18h1m8 0h2m-2 2h1m-1 2h1m-4 4h1"/><path stroke="rgba(44, 0, 0, 0.984313725490196)" d="M5 18h1"/><path stroke="rgba(15, 0, 0, 0.8941176470588236)" d="M6 18h1"/><path stroke="rgba(14, 0, 0, 0.8941176470588236)" d="M7 18h1"/><path stroke="rgba(8, 0, 30, 0.984313725490196)" d="M8 18h1"/><path stroke="#4800e2" d="M9 18h1m13 1h1"/><path stroke="#9e00f3" d="M10 18h1m11 1h1m-13 1h1m11 1h1"/><path stroke="#2e007f" d="M11 18h1"/><path stroke="#21000e" d="M12 18h1m-1 2h1"/><path stroke="rgba(30, 0, 2, 0.984313725490196)" d="M15 18h1"/><path stroke="rgba(0, 0, 13, 0.9098039215686274)" d="M16 18h1"/><path stroke="rgba(29, 29, 2, 0.984313725490196)" d="M17 18h1"/><path stroke="#d8d800" d="M18 18h1m6 3h1"/><path stroke="#2a1e0e" d="M20 18h1"/><path stroke="#4f0081" d="M21 18h1m-11 3h1"/><path stroke="#5500f3" d="M22 18h1m-13 1h1m11 1h1m-13 1h1m11 1h1"/><path stroke="#9a00e0" d="M23 18h1"/><path stroke="rgba(27, 0, 34, 0.8941176470588236)" d="M24 18h1"/><path stroke="rgba(6, 6, 0, 0.2901960784313726)" d="M26 18h1"/><path stroke="rgba(16, 16, 0, 0.8)" d="M27 18h1"/><path stroke="rgba(16, 16, 0, 0.8862745098039215)" d="M28 18h1"/><path stroke="rgba(17, 17, 0, 0.792156862745098)" d="M29 18h1"/><path stroke="rgba(9, 9, 0, 0.19215686274509805)" d="M30 18h1m-2 12h1"/><path stroke="rgba(34, 0, 0, 0.8980392156862745)" d="M5 19h1m-1 5h1"/><path stroke="rgba(26, 0, 34, 0.8980392156862745)" d="M8 19h1"/><path stroke="#4e0080" d="M11 19h1"/><path stroke="#2a000e" d="M12 19h1m-1 2h1"/><path stroke="#e20000" d="M13 19h1m-1 2h1"/><path stroke="rgba(34, 0, 0, 0.8901960784313725)" d="M15 19h1"/><path stroke="rgba(0, 0, 0, 0.30980392156862746)" d="M16 19h1m2 3h1m-4 2h1"/><path stroke="rgba(18, 18, 0, 0.8)" d="M17 19h1"/><path stroke="rgba(128, 128, 0, 0.9921568627450981)" d="M18 19h1"/><path stroke="#c8c800" d="M19 19h1"/><path stroke="#201d0e" d="M20 19h1"/><path stroke="#2e0080" d="M21 19h1m-11 1h1"/><path stroke="rgba(10, 4, 30, 0.984313725490196)" d="M24 19h1"/><path stroke="rgba(29, 30, 0, 0.9019607843137255)" d="M25 19h1"/><path stroke="rgba(33, 33, 0, 0.8)" d="M26 19h1"/><path stroke="rgba(11, 11, 0, 0.30980392156862746)" d="M27 19h1"/><path stroke="rgba(34, 0, 0, 0.8823529411764706)" d="M5 20h1m9 0h1M5 21h1m9 0h1M5 22h1m9 0h1M5 23h1"/><path stroke="rgba(7, 0, 34, 0.8823529411764706)" d="M8 20h1m-1 2h1"/><path stroke="#4800e0" d="M9 20h1m-1 2h1"/><path stroke="rgba(4, 4, 0, 0.1843137254901961)" d="M17 20h1"/><path stroke="rgba(33, 33, 0, 0.807843137254902)" d="M18 20h1"/><path stroke="rgba(99, 100, 0, 0.9921568627450981)" d="M19 20h1"/><path stroke="#1b100e" d="M20 20h1"/><path stroke="#4f0080" d="M21 20h1m-9 9h1"/><path stroke="#9800e2" d="M23 20h1"/><path stroke="#321a1e" d="M24 20h1"/><path stroke="#c6c700" d="M25 20h1"/><path stroke="rgba(205, 205, 0, 0.984313725490196)" d="M26 20h1"/><path stroke="rgba(59, 59, 0, 0.8941176470588236)" d="M27 20h1"/><path stroke="rgba(32, 32, 0, 0.7843137254901961)" d="M28 20h1"/><path stroke="rgba(19, 19, 0, 0.18823529411764706)" d="M29 20h1"/><path stroke="rgba(27, 0, 34, 0.8823529411764706)" d="M8 21h1"/><path stroke="rgba(9, 9, 0, 0.1843137254901961)" d="M18 21h1"/><path stroke="rgba(13, 13, 0, 0.8)" d="M19 21h1"/><path stroke="rgba(4, 2, 14, 0.9921568627450981)" d="M20 21h1"/><path stroke="#300080" d="M21 21h1"/><path stroke="#4700e2" d="M23 21h1"/><path stroke="#231d1e" d="M24 21h1"/><path stroke="rgba(61, 61, 0, 0.807843137254902)" d="M29 21h1"/><path stroke="#9c00f1" d="M10 22h1"/><path stroke="#220074" d="M11 22h1"/><path stroke="#1f000c" d="M12 22h1"/><path stroke="rgba(0, 0, 0, 0.00392156862745098)" d="M17 22h1"/><path stroke="rgba(13, 0, 16, 0.9098039215686274)" d="M20 22h1"/><path stroke="#500080" d="M21 22h1"/><path stroke="#260e1e" d="M24 22h1"/><path stroke="#7c7d00" d="M25 22h1"/><path stroke="#e6e600" d="M26 22h1m-8 4h1m7 1h1"/><path stroke="rgba(33, 33, 0, 0.7843137254901961)" d="M30 22h1"/><path stroke="rgba(0, 0, 0, 0.09411764705882353)" d="M7 23h1"/><path stroke="rgba(30, 0, 33, 0.788235294117647)" d="M8 23h1"/><path stroke="rgba(157, 0, 206, 0.9921568627450981)" d="M9 23h1"/><path stroke="#4900e1" d="M10 23h1"/><path stroke="#08002a" d="M11 23h1"/><path stroke="#350000" d="M12 23h1"/><path stroke="#e50000" d="M13 23h1"/><path stroke="rgba(32, 0, 0, 0.8823529411764706)" d="M15 23h1"/><path stroke="rgba(20, 20, 0, 0.1843137254901961)" d="M17 23h1"/><path stroke="rgba(34, 34, 0, 0.792156862745098)" d="M18 23h1"/><path stroke="rgba(34, 34, 0, 0.8980392156862745)" d="M19 23h1"/><path stroke="rgba(27, 27, 12, 0.984313725490196)" d="M20 23h1"/><path stroke="#260474" d="M21 23h1"/><path stroke="#9900ed" d="M22 23h1"/><path stroke="rgba(49, 0, 206, 0.984313725490196)" d="M23 23h1"/><path stroke="rgba(4, 1, 30, 0.8901960784313725)" d="M24 23h1"/><path stroke="rgba(27, 28, 0, 0.8901960784313725)" d="M25 23h1"/><path stroke="rgba(130, 130, 0, 0.984313725490196)" d="M26 23h1"/><path stroke="#f0f000" d="M27 23h1m-4 5h1"/><path stroke="rgba(34, 34, 0, 0.8745098039215686)" d="M30 23h1m-1 1h1"/><path stroke="rgba(7, 0, 7, 0.30980392156862746)" d="M8 24h1"/><path stroke="rgba(51, 0, 56, 0.9098039215686274)" d="M9 24h1"/><path stroke="#9700af" d="M10 24h1"/><path stroke="#49001c" d="M11 24h1"/><path stroke="#cb0000" d="M12 24h1"/><path stroke="#e40000" d="M13 24h1M4 25h1m0 1h1"/><path stroke="#7d0000" d="M14 24h1"/><path stroke="rgba(16, 0, 0, 0.8901960784313725)" d="M15 24h1"/><path stroke="rgba(31, 31, 0, 0.8)" d="M17 24h1"/><path stroke="rgba(187, 187, 0, 0.9921568627450981)" d="M18 24h1"/><path stroke="#343128" d="M21 24h1"/><path stroke="#1902b1" d="M22 24h1"/><path stroke="rgba(4, 0, 56, 0.9098039215686274)" d="M23 24h1"/><path stroke="rgba(0, 0, 6, 0.3176470588235294)" d="M24 24h1"/><path stroke="rgba(11, 11, 0, 0.3176470588235294)" d="M25 24h1"/><path stroke="rgba(70, 70, 0, 0.9098039215686274)" d="M26 24h1"/><path stroke="rgba(57, 0, 0, 0.984313725490196)" d="M5 25h1"/><path stroke="rgba(32, 0, 0, 0.8980392156862745)" d="M6 25h1"/><path stroke="rgba(34, 0, 0, 0.8784313725490196)" d="M7 25h1"/><path stroke="rgba(31, 0, 4, 0.984313725490196)" d="M9 25h1"/><path stroke="#4d0017" d="M10 25h1"/><path stroke="#d20004" d="M11 25h1"/><path stroke="#8e0000" d="M13 25h1"/><path stroke="#1b0004" d="M14 25h1"/><path stroke="rgba(5, 0, 27, 0.984313725490196)" d="M15 25h1"/><path stroke="rgba(26, 0, 29, 0.9098039215686274)" d="M16 25h1"/><path stroke="rgba(21, 16, 4, 0.984313725490196)" d="M17 25h1"/><path stroke="#8c8d00" d="M18 25h1"/><path stroke="#f3f300" d="M19 25h1m1 2h1"/><path stroke="#cdce04" d="M21 25h1"/><path stroke="#333517" d="M22 25h1"/><path stroke="rgba(29, 29, 4, 0.984313725490196)" d="M23 25h1"/><path stroke="rgba(32, 32, 0, 0.8901960784313725)" d="M24 25h1"/><path stroke="rgba(59, 59, 0, 0.8901960784313725)" d="M25 25h1"/><path stroke="rgba(208, 208, 0, 0.984313725490196)" d="M26 25h1"/><path stroke="#d4d400" d="M29 25h1"/><path stroke="rgba(32, 32, 0, 0.8745098039215686)" d="M30 25h1"/><path stroke="#fb0000" d="M4 26h1"/><path stroke="#f90000" d="M11 26h1"/><path stroke="#d80000" d="M12 26h1"/><path stroke="#700002" d="M13 26h1"/><path stroke="#0f0031" d="M14 26h1"/><path stroke="#3000cc" d="M15 26h1"/><path stroke="#9500c7" d="M16 26h1"/><path stroke="#260e1a" d="M17 26h1"/><path stroke="#7d7e00" d="M18 26h1"/><path stroke="#880" d="M29 26h1"/><path stroke="rgba(18, 18, 0, 0.8745098039215686)" d="M30 26h1"/><path stroke="#d90000" d="M11 27h1"/><path stroke="#350002" d="M12 27h1"/><path stroke="#0f0032" d="M13 27h1"/><path stroke="#3200cf" d="M14 27h1"/><path stroke="#a000ff" d="M15 27h1"/><path stroke="#4800e5" d="M16 27h1"/><path stroke="#140d36" d="M17 27h1"/><path stroke="#666702" d="M18 27h1"/><path stroke="#989800" d="M19 27h1"/><path stroke="#990" d="M28 27h1"/><path stroke="#717100" d="M29 27h1"/><path stroke="rgba(17, 17, 0, 0.8745098039215686)" d="M30 27h1"/><path stroke="#de0000" d="M2 28h1"/><path stroke="#f40000" d="M3 28h1"/><path stroke="#e60000" d="M10 28h1"/><path stroke="#8a0000" d="M11 28h1"/><path stroke="#110018" d="M12 28h1"/><path stroke="#2200bd" d="M13 28h1"/><path stroke="#9b00f0" d="M14 28h1"/><path stroke="#90e" d="M16 28h1"/><path stroke="#2501bf" d="M17 28h1"/><path stroke="#181824" d="M18 28h1"/><path stroke="#686800" d="M19 28h1"/><path stroke="#8c8c00" d="M20 28h1m5 1h1"/><path stroke="#9b9b00" d="M21 28h1"/><path stroke="#9a9a00" d="M27 28h1"/><path stroke="olive" d="M28 28h1"/><path stroke="rgba(33, 0, 0, 0.8745098039215686)" d="M1 29h1"/><path stroke="#900000" d="M5 29h5"/><path stroke="#8d0000" d="M10 29h1"/><path stroke="#650000" d="M11 29h1"/><path stroke="#190011" d="M12 29h1"/><path stroke="#3d0091" d="M14 29h1"/><path stroke="#540090" d="M15 29h1"/><path stroke="#3d0090" d="M16 29h1"/><path stroke="#52008f" d="M17 29h1"/><path stroke="#18016a" d="M18 29h1"/><path stroke="#1a1819" d="M19 29h1"/><path stroke="#666601" d="M20 29h1"/><path stroke="#818100" d="M21 29h1"/><path stroke="#8e8e00" d="M22 29h1"/><path stroke="#909000" d="M23 29h3"/><path stroke="#747400" d="M27 29h1"/><path stroke="rgba(31, 31, 0, 0.807843137254902)" d="M29 29h1"/><path stroke="rgba(5, 5, 0, 0.19215686274509805)" d="M30 29h1"/><path stroke="rgba(19, 0, 0, 0.7803921568627451)" d="M1 30h1"/><path stroke="rgba(111, 0, 0, 0.9921568627450981)" d="M2 30h1"/><path stroke="#720000" d="M3 30h1"/><path stroke="#700000" d="M9 30h1"/><path stroke="rgba(101, 0, 0, 0.984313725490196)" d="M10 30h1"/><path stroke="rgba(27, 0, 0, 0.8901960784313725)" d="M11 30h1"/><path stroke="rgba(3, 0, 15, 0.8901960784313725)" d="M12 30h1"/><path stroke="rgba(24, 0, 99, 0.984313725490196)" d="M13 30h1"/><path stroke="#4c0070" d="M14 30h1"/><path stroke="#24006f" d="M15 30h1m1 0h1"/><path stroke="#4b006f" d="M16 30h1"/><path stroke="#4b0070" d="M18 30h1"/><path stroke="rgba(13, 1, 89, 0.984313725490196)" d="M19 30h1"/><path stroke="rgba(26, 27, 12, 0.9058823529411765)" d="M20 30h1"/><path stroke="rgba(102, 102, 0, 0.984313725490196)" d="M21 30h1"/><path stroke="#707000" d="M22 30h1m2 0h1"/><path stroke="#6f6f00" d="M23 30h2"/><path stroke="rgba(101, 101, 0, 0.984313725490196)" d="M26 30h1"/><path stroke="rgba(29, 29, 0, 0.8941176470588236)" d="M27 30h1"/><path stroke="rgba(9, 0, 0, 0.2196078431372549)" d="M1 31h1"/><path stroke="rgba(16, 0, 0, 0.8980392156862745)" d="M2 31h1"/><path stroke="#100" d="M3 31h7"/><path stroke="rgba(17, 0, 0, 0.8980392156862745)" d="M10 31h1"/><path stroke="rgba(9, 0, 0, 0.22745098039215686)" d="M11 31h1"/><path stroke="rgba(0, 0, 9, 0.22745098039215686)" d="M12 31h1"/><path stroke="rgba(3, 0, 17, 0.8980392156862745)" d="M13 31h1"/><path stroke="#0e0011" d="M14 31h1m1 0h1m1 0h1"/><path stroke="#050011" d="M15 31h1m1 0h1"/><path stroke="rgba(2, 0, 18, 0.8901960784313725)" d="M19 31h1"/><path stroke="rgba(6, 6, 6, 0.33725490196078434)" d="M20 31h1"/><path stroke="rgba(17, 17, 0, 0.8901960784313725)" d="M21 31h1"/><path stroke="#110" d="M22 31h4"/><path stroke="rgba(17, 17, 0, 0.8980392156862745)" d="M26 31h1"/><path stroke="rgba(9, 9, 0, 0.23529411764705882)" d="M27 31h1"/></svg>