<svg xmlns="http://www.w3.org/2000/svg" viewBox="0 -0.5 128 128" shape-rendering="crispEdges">
<path stroke="#000000" d="M0 0h1M8 0h16M52 0h16M84 0h20M8 1h16M52 1h16M84 1h20M8 2h16M52 2h16M84 2h20M8 3h16M52 3h16M84 3h20M8 4h4M24 4h4M48 4h4M64 4h4M76 4h8M104 4h8M8 5h4M24 5h4M48 5h4M64 5h4M76 5h8M104 5h8M8 6h4M24 6h4M48 6h4M64 6h4M76 6h8M104 6h8M8 7h4M24 7h4M48 7h4M64 7h4M76 7h8M104 7h8M8 8h4M24 8h4M48 8h4M64 8h4M72 8h4M88 8h12M112 8h4M8 9h4M24 9h4M48 9h4M64 9h4M72 9h4M88 9h12M112 9h4M8 10h4M24 10h4M48 10h4M64 10h4M72 10h4M88 10h12M112 10h4M8 11h4M24 11h4M48 11h4M64 11h4M72 11h4M88 11h12M112 11h4M8 12h4M28 12h4M44 12h4M64 12h4M72 12h4M84 12h4M100 12h4M112 12h4M8 13h4M28 13h4M44 13h4M64 13h4M72 13h4M84 13h4M100 13h4M112 13h4M8 14h4M28 14h4M44 14h4M64 14h4M72 14h4M84 14h4M100 14h4M112 14h4M8 15h4M28 15h4M44 15h4M64 15h4M72 15h4M84 15h4M100 15h4M112 15h4M8 16h4M28 16h4M44 16h4M64 16h4M72 16h4M84 16h4M100 16h16M8 17h4M28 17h4M44 17h4M64 17h4M72 17h4M84 17h4M100 17h16M8 18h4M28 18h4M44 18h4M64 18h4M72 18h4M84 18h4M100 18h16M8 19h4M28 19h4M44 19h4M64 19h4M72 19h4M84 19h4M100 19h16M8 20h4M32 20h4M40 20h4M64 20h4M72 20h4M88 20h12M8 21h4M32 21h4M40 21h4M64 21h4M72 21h4M88 21h12M8 22h4M32 22h4M40 22h4M64 22h4M72 22h4M88 22h12M8 23h4M32 23h4M40 23h4M64 23h4M72 23h4M88 23h12M8 24h4M20 24h4M32 24h4M40 24h4M52 24h4M64 24h4M76 24h8M100 24h8M8 25h4M20 25h4M32 25h4M40 25h4M52 25h4M64 25h4M76 25h8M100 25h8M8 26h4M20 26h4M32 26h4M40 26h4M52 26h4M64 26h4M76 26h8M100 26h8M8 27h4M20 27h4M32 27h4M40 27h4M52 27h4M64 27h4M76 27h8M100 27h8M8 28h4M20 28h8M36 28h4M48 28h8M64 28h4M84 28h12M108 28h4M8 29h4M20 29h8M36 29h4M48 29h8M64 29h4M84 29h12M108 29h4M8 30h4M20 30h8M36 30h4M48 30h8M64 30h4M84 30h12M108 30h4M8 31h4M20 31h8M36 31h4M48 31h8M64 31h4M84 31h12M108 31h4M8 32h4M20 32h8M36 32h4M48 32h8M64 32h4M72 32h12M96 32h4M112 32h4M8 33h4M20 33h8M36 33h4M48 33h8M64 33h4M72 33h12M96 33h4M112 33h4M8 34h4M20 34h8M36 34h4M48 34h8M64 34h4M72 34h12M96 34h4M112 34h4M8 35h4M20 35h8M36 35h4M48 35h8M64 35h4M72 35h12M96 35h4M112 35h4M8 36h4M20 36h4M28 36h4M44 36h4M52 36h4M64 36h4M72 36h4M84 36h4M100 36h4M112 36h4M8 37h4M20 37h4M28 37h4M44 37h4M52 37h4M64 37h4M72 37h4M84 37h4M100 37h4M112 37h4M8 38h4M20 38h4M28 38h4M44 38h4M52 38h4M64 38h4M72 38h4M84 38h4M100 38h4M112 38h4M8 39h4M20 39h4M28 39h4M44 39h4M52 39h4M64 39h4M72 39h4M84 39h4M100 39h4M112 39h4M8 40h4M20 40h4M28 40h4M44 40h4M52 40h4M64 40h4M72 40h4M84 40h16M112 40h4M8 41h4M20 41h4M28 41h4M44 41h4M52 41h4M64 41h4M72 41h4M84 41h16M112 41h4M8 42h4M20 42h4M28 42h4M44 42h4M52 42h4M64 42h4M72 42h4M84 42h16M112 42h4M8 43h4M20 43h4M28 43h4M44 43h4M52 43h4M64 43h4M72 43h4M84 43h16M112 43h4M8 44h4M20 44h4M32 44h4M40 44h4M52 44h4M64 44h4M76 44h4M108 44h4M8 45h4M20 45h4M32 45h4M40 45h4M52 45h4M64 45h4M76 45h4M108 45h4M8 46h4M20 46h4M32 46h4M40 46h4M52 46h4M64 46h4M76 46h4M108 46h4M8 47h4M20 47h4M32 47h4M40 47h4M52 47h4M64 47h4M76 47h4M108 47h4M4 48h40M48 48h28M80 48h28M4 49h40M48 49h28M80 49h28M4 50h40M48 50h28M80 50h28M4 51h40M48 51h28M80 51h28M4 52h4M44 52h4M76 52h4M108 52h8M4 53h4M44 53h4M76 53h4M108 53h8M4 54h4M44 54h4M76 54h4M108 54h8M4 55h4M44 55h4M76 55h4M108 55h8M4 56h4M40 56h4M72 56h4M116 56h4M4 57h4M40 57h4M72 57h4M116 57h4M4 58h4M40 58h4M72 58h4M116 58h4M4 59h4M40 59h4M72 59h4M116 59h4M4 60h4M36 60h4M68 60h4M120 60h4M4 61h4M36 61h4M68 61h4M120 61h4M4 62h4M36 62h4M68 62h4M120 62h4M4 63h4M36 63h4M68 63h4M120 63h4M4 64h4M36 64h4M52 64h12M68 64h4M84 64h20M120 64h4M4 65h4M36 65h4M52 65h12M68 65h4M84 65h20M120 65h4M4 66h4M36 66h4M52 66h12M68 66h4M84 66h20M120 66h4M4 67h4M36 67h4M52 67h12M68 67h4M84 67h20M120 67h4M4 68h4M32 68h4M48 68h4M60 68h4M68 68h4M80 68h4M96 68h4M104 68h4M120 68h4M4 69h4M32 69h4M48 69h4M60 69h4M68 69h4M80 69h4M96 69h4M104 69h4M120 69h4M4 70h4M32 70h4M48 70h4M60 70h4M68 70h4M80 70h4M96 70h4M104 70h4M120 70h4M4 71h4M32 71h4M48 71h4M60 71h4M68 71h4M80 71h4M96 71h4M104 71h4M120 71h4M4 72h4M20 72h16M48 72h4M60 72h12M80 72h4M96 72h4M108 72h12M4 73h4M20 73h16M48 73h4M60 73h12M80 73h4M96 73h4M108 73h12M4 74h4M20 74h16M48 74h4M60 74h12M80 74h4M96 74h4M108 74h12M4 75h4M20 75h16M48 75h4M60 75h12M80 75h4M96 75h4M108 75h12M4 76h4M20 76h4M32 76h4M48 76h4M60 76h4M68 76h4M80 76h4M96 76h12M4 77h4M20 77h4M32 77h4M48 77h4M60 77h4M68 77h4M80 77h4M96 77h12M4 78h4M20 78h4M32 78h4M48 78h4M60 78h4M68 78h4M80 78h4M96 78h12M4 79h4M20 79h4M32 79h4M48 79h4M60 79h4M68 79h4M80 79h4M96 79h12M4 80h4M20 80h4M32 80h4M48 80h4M60 80h4M72 80h4M80 80h4M96 80h4M108 80h8M4 81h4M20 81h4M32 81h4M48 81h4M60 81h4M72 81h4M80 81h4M96 81h4M108 81h8M4 82h4M20 82h4M32 82h4M48 82h4M60 82h4M72 82h4M80 82h4M96 82h4M108 82h8M4 83h4M20 83h4M32 83h4M48 83h4M60 83h4M72 83h4M80 83h4M96 83h4M108 83h8M4 84h4M20 84h4M32 84h4M48 84h4M60 84h4M76 84h8M96 84h4M116 84h4M4 85h4M20 85h4M32 85h4M48 85h4M60 85h4M76 85h8M96 85h4M116 85h4M4 86h4M20 86h4M32 86h4M48 86h4M60 86h4M76 86h8M96 86h4M116 86h4M4 87h4M20 87h4M32 87h4M48 87h4M60 87h4M76 87h8M96 87h4M116 87h4M4 88h4M20 88h4M32 88h4M48 88h4M60 88h4M80 88h4M96 88h4M120 88h4M4 89h4M20 89h4M32 89h4M48 89h4M60 89h4M80 89h4M96 89h4M120 89h4M4 90h4M20 90h4M32 90h4M48 90h4M60 90h4M80 90h4M96 90h4M120 90h4M4 91h4M20 91h4M32 91h4M48 91h4M60 91h4M80 91h4M96 91h4M120 91h4M4 92h4M20 92h4M32 92h4M44 92h8M60 92h4M72 92h12M96 92h8M120 92h4M4 93h4M20 93h4M32 93h4M44 93h8M60 93h4M72 93h12M96 93h8M120 93h4M4 94h4M20 94h4M32 94h4M44 94h8M60 94h4M72 94h12M96 94h8M120 94h4M4 95h4M20 95h4M32 95h4M44 95h8M60 95h4M72 95h12M96 95h8M120 95h4M4 96h4M20 96h4M36 96h4M44 96h4M60 96h4M68 96h4M84 96h4M92 96h4M104 96h4M120 96h4M4 97h4M20 97h4M36 97h4M44 97h4M60 97h4M68 97h4M84 97h4M92 97h4M104 97h4M120 97h4M4 98h4M20 98h4M36 98h4M44 98h4M60 98h4M68 98h4M84 98h4M92 98h4M104 98h4M120 98h4M4 99h4M20 99h4M36 99h4M44 99h4M60 99h4M68 99h4M84 99h4M92 99h4M104 99h4M120 99h4M4 100h4M20 100h24M56 100h16M88 100h16M120 100h4M4 101h4M20 101h24M56 101h16M88 101h16M120 101h4M4 102h4M20 102h24M56 102h16M88 102h16M120 102h4M4 103h4M20 103h24M56 103h16M88 103h16M120 103h4M4 104h4M56 104h4M68 104h4M120 104h4M4 105h4M56 105h4M68 105h4M120 105h4M4 106h4M56 106h4M68 106h4M120 106h4M4 107h4M56 107h4M68 107h4M120 107h4M4 108h4M48 108h8M68 108h4M120 108h4M4 109h4M48 109h8M68 109h4M120 109h4M4 110h4M48 110h8M68 110h4M120 110h4M4 111h4M48 111h8M68 111h4M120 111h4M4 112h4M48 112h4M72 112h4M120 112h4M4 113h4M48 113h4M72 113h4M120 113h4M4 114h4M48 114h4M72 114h4M120 114h4M4 115h4M48 115h4M72 115h4M120 115h4M4 116h4M48 116h4M76 116h4M116 116h4M4 117h4M48 117h4M76 117h4M116 117h4M4 118h4M48 118h4M76 118h4M116 118h4M4 119h4M48 119h4M76 119h4M116 119h4M4 120h4M44 120h8M80 120h4M108 120h8M4 121h4M44 121h8M80 121h4M108 121h8M4 122h4M44 122h8M80 122h4M108 122h8M4 123h4M44 123h8M80 123h4M108 123h8M8 124h36M52 124h28M84 124h24M8 125h36M52 125h28M84 125h24M8 126h36M52 126h28M84 126h24M8 127h36M52 127h28M84 127h24" />
<path stroke="#c0c0c0" d="M0 0h1M12 4h8M52 4h8M84 4h16M12 5h8M52 5h8M84 5h16M12 6h8M52 6h8M84 6h16M12 7h8M52 7h8M84 7h16M12 8h12M52 8h8M76 8h8M100 8h8M12 9h12M52 9h8M76 9h8M100 9h8M12 10h12M52 10h8M76 10h8M100 10h8M12 11h12M52 11h8M76 11h8M100 11h8M12 12h12M48 12h12M76 12h4M104 12h4M12 13h12M48 13h12M76 13h4M104 13h4M12 14h12M48 14h12M76 14h4M104 14h4M12 15h12M48 15h12M76 15h4M104 15h4M12 16h4M20 16h8M48 16h12M76 16h4M12 17h4M20 17h8M48 17h12M76 17h4M12 18h4M20 18h8M48 18h12M76 18h4M12 19h4M20 19h8M48 19h12M76 19h4M12 20h4M24 20h4M44 20h8M56 20h4M76 20h4M12 21h4M24 21h4M44 21h8M56 21h4M76 21h4M12 22h4M24 22h4M44 22h8M56 22h4M76 22h4M12 23h4M24 23h4M44 23h8M56 23h4M76 23h4M12 24h4M24 24h8M44 24h8M56 24h4M84 24h12M12 25h4M24 25h8M44 25h8M56 25h4M84 25h12M12 26h4M24 26h8M44 26h8M56 26h4M84 26h12M12 27h4M24 27h8M44 27h8M56 27h4M84 27h12M12 28h4M28 28h4M40 28h8M56 28h4M96 28h8M12 29h4M28 29h4M40 29h8M56 29h4M96 29h8M12 30h4M28 30h4M40 30h8M56 30h4M96 30h8M12 31h4M28 31h4M40 31h8M56 31h4M96 31h8M12 32h4M28 32h8M40 32h8M56 32h4M100 32h8M12 33h4M28 33h8M40 33h8M56 33h4M100 33h8M12 34h4M28 34h8M40 34h8M56 34h4M100 34h8M12 35h4M28 35h8M40 35h8M56 35h4M100 35h8M12 36h4M32 36h4M40 36h4M56 36h4M76 36h8M104 36h4M12 37h4M32 37h4M40 37h4M56 37h4M76 37h8M104 37h4M12 38h4M32 38h4M40 38h4M56 38h4M76 38h8M104 38h4M12 39h4M32 39h4M40 39h4M56 39h4M76 39h8M104 39h4M12 40h4M32 40h12M56 40h4M76 40h8M100 40h8M12 41h4M32 41h12M56 41h4M76 41h8M100 41h8M12 42h4M32 42h12M56 42h4M76 42h8M100 42h8M12 43h4M32 43h12M56 43h4M76 43h8M100 43h8M12 44h4M36 44h4M56 44h4M80 44h24M12 45h4M36 45h4M56 45h4M80 45h24M12 46h4M36 46h4M56 46h4M80 46h24M12 47h4M36 47h4M56 47h4M80 47h24" />
<path stroke="#808080" d="M0 0h1M20 4h4M60 4h4M100 4h4M20 5h4M60 5h4M100 5h4M20 6h4M60 6h4M100 6h4M20 7h4M60 7h4M100 7h4M60 8h4M84 8h4M108 8h4M60 9h4M84 9h4M108 9h4M60 10h4M84 10h4M108 10h4M60 11h4M84 11h4M108 11h4M24 12h4M60 12h4M80 12h4M108 12h4M24 13h4M60 13h4M80 13h4M108 13h4M24 14h4M60 14h4M80 14h4M108 14h4M24 15h4M60 15h4M80 15h4M108 15h4M16 16h4M60 16h4M80 16h4M16 17h4M60 17h4M80 17h4M16 18h4M60 18h4M80 18h4M16 19h4M60 19h4M80 19h4M16 20h8M28 20h4M52 20h4M60 20h4M80 20h8M16 21h8M28 21h4M52 21h4M60 21h4M80 21h8M16 22h8M28 22h4M52 22h4M60 22h4M80 22h8M16 23h8M28 23h4M52 23h4M60 23h4M80 23h8M16 24h4M60 24h4M96 24h4M16 25h4M60 25h4M96 25h4M16 26h4M60 26h4M96 26h4M16 27h4M60 27h4M96 27h4M16 28h4M32 28h4M60 28h4M104 28h4M16 29h4M32 29h4M60 29h4M104 29h4M16 30h4M32 30h4M60 30h4M104 30h4M16 31h4M32 31h4M60 31h4M104 31h4M16 32h4M60 32h4M108 32h4M16 33h4M60 33h4M108 33h4M16 34h4M60 34h4M108 34h4M16 35h4M60 35h4M108 35h4M16 36h4M36 36h4M60 36h4M108 36h4M16 37h4M36 37h4M60 37h4M108 37h4M16 38h4M36 38h4M60 38h4M108 38h4M16 39h4M36 39h4M60 39h4M108 39h4M16 40h4M60 40h4M108 40h4M16 41h4M60 41h4M108 41h4M16 42h4M60 42h4M108 42h4M16 43h4M60 43h4M108 43h4M16 44h4M60 44h4M104 44h4M16 45h4M60 45h4M104 45h4M16 46h4M60 46h4M104 46h4M16 47h4M60 47h4M104 47h4" />
<path stroke="#ff0000" d="M0 0h1M8 52h32M8 53h32M8 54h32M8 55h32M8 56h28M8 57h28M8 58h28M8 59h28M8 60h28M8 61h28M8 62h28M8 63h28M8 64h12M8 65h12M8 66h12M8 67h12M8 68h12M52 68h8M8 69h12M52 69h8M8 70h12M52 70h8M8 71h12M52 71h8M8 72h12M52 72h8M8 73h12M52 73h8M8 74h12M52 74h8M8 75h12M52 75h8M8 76h12M52 76h8M8 77h12M52 77h8M8 78h12M52 78h8M8 79h12M52 79h8M8 80h12M52 80h8M8 81h12M52 81h8M8 82h12M52 82h8M8 83h12M52 83h8M8 84h12M52 84h8M8 85h12M52 85h8M8 86h12M52 86h8M8 87h12M52 87h8M8 88h12M52 88h8M8 89h12M52 89h8M8 90h12M52 90h8M8 91h12M52 91h8M8 92h12M52 92h8M8 93h12M52 93h8M8 94h12M52 94h8M8 95h12M52 95h8M8 96h12M48 96h8M8 97h12M48 97h8M8 98h12M48 98h8M8 99h12M48 99h8M8 100h12M44 100h8M8 101h12M44 101h8M8 102h12M44 102h8M8 103h12M44 103h8M8 104h44M8 105h44M8 106h44M8 107h44M8 108h40M8 109h40M8 110h40M8 111h40M8 112h36M8 113h36M8 114h36M8 115h36M8 116h4M8 117h4M8 118h4M8 119h4" />
<path stroke="#800000" d="M0 0h1M40 52h4M40 53h4M40 54h4M40 55h4M36 56h4M36 57h4M36 58h4M36 59h4M20 64h16M20 65h16M20 66h16M20 67h16M20 68h12M20 69h12M20 70h12M20 71h12M56 96h4M56 97h4M56 98h4M56 99h4M52 100h4M52 101h4M52 102h4M52 103h4M52 104h4M52 105h4M52 106h4M52 107h4M44 112h4M44 113h4M44 114h4M44 115h4M12 116h36M12 117h36M12 118h36M12 119h36M8 120h36M8 121h36M8 122h36M8 123h36" />
<path stroke="#0000ff" d="M0 0h1M48 52h4M56 52h4M64 52h4M48 53h4M56 53h4M64 53h4M48 54h4M56 54h4M64 54h4M48 55h4M56 55h4M64 55h4M44 56h4M52 56h4M60 56h4M44 57h4M52 57h4M60 57h4M44 58h4M52 58h4M60 58h4M44 59h4M52 59h4M60 59h4M40 60h4M48 60h4M56 60h4M64 60h4M40 61h4M48 61h4M56 61h4M64 61h4M40 62h4M48 62h4M56 62h4M64 62h4M40 63h4M48 63h4M56 63h4M64 63h4M44 64h4M44 65h4M44 66h4M44 67h4M40 68h4M92 68h4M40 69h4M92 69h4M40 70h4M92 70h4M40 71h4M92 71h4M36 72h4M88 72h4M36 73h4M88 73h4M36 74h4M88 74h4M36 75h4M88 75h4M40 76h4M92 76h4M40 77h4M92 77h4M40 78h4M92 78h4M40 79h4M92 79h4M36 80h4M88 80h4M36 81h4M88 81h4M36 82h4M88 82h4M36 83h4M88 83h4M40 84h4M92 84h4M40 85h4M92 85h4M40 86h4M92 86h4M40 87h4M92 87h4M36 88h4M88 88h4M36 89h4M88 89h4M36 90h4M88 90h4M36 91h4M88 91h4M40 92h4M92 92h4M40 93h4M92 93h4M40 94h4M92 94h4M40 95h4M92 95h4M88 96h4M88 97h4M88 98h4M88 99h4M60 104h4M60 105h4M60 106h4M60 107h4M56 108h4M64 108h4M56 109h4M64 109h4M56 110h4M64 110h4M56 111h4M64 111h4M52 112h4M60 112h4M68 112h4M52 113h4M60 113h4M68 113h4M52 114h4M60 114h4M68 114h4M52 115h4M60 115h4M68 115h4" />
<path stroke="#ff00ff" d="M0 0h1M52 52h4M60 52h4M68 52h4M52 53h4M60 53h4M68 53h4M52 54h4M60 54h4M68 54h4M52 55h4M60 55h4M68 55h4M48 56h4M56 56h4M64 56h4M48 57h4M56 57h4M64 57h4M48 58h4M56 58h4M64 58h4M48 59h4M56 59h4M64 59h4M44 60h4M52 60h4M60 60h4M44 61h4M52 61h4M60 61h4M44 62h4M52 62h4M60 62h4M44 63h4M52 63h4M60 63h4M40 64h4M40 65h4M40 66h4M40 67h4M36 68h4M88 68h4M36 69h4M88 69h4M36 70h4M88 70h4M36 71h4M88 71h4M40 72h4M92 72h4M40 73h4M92 73h4M40 74h4M92 74h4M40 75h4M92 75h4M36 76h4M88 76h4M36 77h4M88 77h4M36 78h4M88 78h4M36 79h4M88 79h4M40 80h4M92 80h4M40 81h4M92 81h4M40 82h4M92 82h4M40 83h4M92 83h4M36 84h4M88 84h4M36 85h4M88 85h4M36 86h4M88 86h4M36 87h4M88 87h4M40 88h4M92 88h4M40 89h4M92 89h4M40 90h4M92 90h4M40 91h4M92 91h4M36 92h4M88 92h4M36 93h4M88 93h4M36 94h4M88 94h4M36 95h4M88 95h4M40 96h4M40 97h4M40 98h4M40 99h4M64 104h4M64 105h4M64 106h4M64 107h4M60 108h4M60 109h4M60 110h4M60 111h4M56 112h4M64 112h4M56 113h4M64 113h4M56 114h4M64 114h4M56 115h4M64 115h4" />
<path stroke="#000080" d="M0 0h1M72 52h4M72 53h4M72 54h4M72 55h4M68 56h4M68 57h4M68 58h4M68 59h4M64 68h4M84 68h4M64 69h4M84 69h4M64 70h4M84 70h4M64 71h4M84 71h4M44 72h4M44 73h4M44 74h4M44 75h4M84 76h4M84 77h4M84 78h4M84 79h4M44 80h4M44 81h4M44 82h4M44 83h4M84 84h4M84 85h4M84 86h4M84 87h4M44 88h4M44 89h4M44 90h4M44 91h4M84 92h4M84 93h4M84 94h4M84 95h4M56 116h4M64 116h4M72 116h4M56 117h4M64 117h4M72 117h4M56 118h4M64 118h4M72 118h4M56 119h4M64 119h4M72 119h4M52 120h4M60 120h4M68 120h4M76 120h4M52 121h4M60 121h4M68 121h4M76 121h4M52 122h4M60 122h4M68 122h4M76 122h4M52 123h4M60 123h4M68 123h4M76 123h4" />
<path stroke="#ffff00" d="M0 0h1M80 52h28M80 53h28M80 54h28M80 55h28M76 56h40M76 57h40M76 58h40M76 59h40M72 60h48M72 61h48M72 62h48M72 63h48M72 64h12M108 64h8M72 65h12M108 65h8M72 66h12M108 66h8M72 67h12M108 67h8M72 68h8M72 69h8M72 70h8M72 71h8M72 72h8M72 73h8M72 74h8M72 75h8M76 76h4M76 77h4M76 78h4M76 79h4M100 80h8M100 81h8M100 82h8M100 83h8M100 84h16M100 85h16M100 86h16M100 87h16M104 88h16M104 89h16M104 90h16M104 91h16M108 92h12M108 93h12M108 94h12M108 95h12M72 96h12M108 96h12M72 97h12M108 97h12M72 98h12M108 98h12M72 99h12M108 99h12M76 100h12M104 100h16M76 101h12M104 101h16M76 102h12M104 102h16M76 103h12M104 103h16M76 104h40M76 105h40M76 106h40M76 107h40M80 108h32M80 109h32M80 110h32M80 111h32M88 112h20M88 113h20M88 114h20M88 115h20" />
<path stroke="#800080" d="M0 0h1M48 64h4M64 64h4M48 65h4M64 65h4M48 66h4M64 66h4M48 67h4M64 67h4M44 68h4M44 69h4M44 70h4M44 71h4M84 72h4M84 73h4M84 74h4M84 75h4M44 76h4M44 77h4M44 78h4M44 79h4M84 80h4M84 81h4M84 82h4M84 83h4M44 84h4M44 85h4M44 86h4M44 87h4M84 88h4M84 89h4M84 90h4M84 91h4M52 116h4M60 116h4M68 116h4M52 117h4M60 117h4M68 117h4M52 118h4M60 118h4M68 118h4M52 119h4M60 119h4M68 119h4M56 120h4M64 120h4M72 120h4M56 121h4M64 121h4M72 121h4M56 122h4M64 122h4M72 122h4M56 123h4M64 123h4M72 123h4" />
<path stroke="#808000" d="M0 0h1M104 64h4M116 64h4M104 65h4M116 65h4M104 66h4M116 66h4M104 67h4M116 67h4M108 68h12M108 69h12M108 70h12M108 71h12M72 76h4M72 77h4M72 78h4M72 79h4M76 80h4M76 81h4M76 82h4M76 83h4M100 88h4M100 89h4M100 90h4M100 91h4M104 92h4M104 93h4M104 94h4M104 95h4M72 100h4M72 101h4M72 102h4M72 103h4M72 104h4M116 104h4M72 105h4M116 105h4M72 106h4M116 106h4M72 107h4M116 107h4M72 108h8M112 108h8M72 109h8M112 109h8M72 110h8M112 110h8M72 111h8M112 111h8M76 112h12M108 112h12M76 113h12M108 113h12M76 114h12M108 114h12M76 115h12M108 115h12M80 116h36M80 117h36M80 118h36M80 119h36M84 120h24M84 121h24M84 122h24M84 123h24" />
</svg>