<svg xmlns="http://www.w3.org/2000/svg" width="24" height="24" shape-rendering="crispEdges" viewBox="0 -0.5 24 24"><path stroke="#030303" d="M1 0h1" opacity=".498"/><path stroke="#2c2c2c" d="M2 0h1"/><path stroke="#393939" d="M3 0h1"/><path stroke="#202020" d="M4 0h1" opacity=".655"/><path stroke="#000" d="M5 0h1" opacity=".082"/><path stroke="#000" d="M8 0h1m4 0h1" opacity=".027"/><path stroke="#252525" d="M9 0h1" opacity=".478"/><path stroke="#3e3e3e" d="M10 0h1" opacity=".988"/><path stroke="#2a2a2a" d="M11 0h1"/><path stroke="#060606" d="M12 0h1" opacity=".714"/><path stroke="#000" d="M14 0h1m6 23h1" opacity=".22"/><path stroke="#232323" d="M15 0h1" opacity=".522"/><path stroke="#404040" d="M16 0h1" opacity=".984"/><path stroke="#424242" d="M17 0h1"/><path stroke="#3a3a3a" d="M18 0h1"/><path stroke="#1f1f1f" d="M19 0h1" opacity=".667"/><path stroke="#000" d="M20 0h1" opacity=".275"/><path stroke="#000" d="M21 0h1" opacity=".039"/><path stroke="#080808" d="M1 1h1M1 2h1" opacity=".498"/><path stroke="#848484" d="M2 1h1m8 4h1m-1 1h1m2 1h1"/><path stroke="#b7b7b7" d="M3 1h1"/><path stroke="#535353" d="M4 1h1" opacity=".965"/><path stroke="#000" d="M5 1h1m7 7h1" opacity=".29"/><path stroke="#000" d="M8 1h1" opacity=".125"/><path stroke="#404040" d="M9 1h1" opacity=".867"/><path stroke="#b5b5b5" d="M10 1h1"/><path stroke="#7e7e7e" d="M11 1h1"/><path stroke="#131313" d="M12 1h1" opacity=".706"/><path stroke="#040404" d="M13 1h1" opacity=".278"/><path stroke="#505050" d="M14 1h1" opacity=".843"/><path stroke="#737373" d="M15 1h1" opacity=".988"/><path stroke="#7a7a7a" d="M16 1h1" opacity=".988"/><path stroke="#5b5b5b" d="M17 1h1" opacity=".98"/><path stroke="#6f6f6f" d="M18 1h1" opacity=".984"/><path stroke="#7c7c7c" d="M19 1h1" opacity=".988"/><path stroke="#474747" d="M20 1h1" opacity=".922"/><path stroke="#111" d="M21 1h1" opacity=".412"/><path stroke="#000" d="M22 1h1M7 2h1m14 21h1" opacity=".008"/><path stroke="#868686" d="M2 2h1m11 0h1"/><path stroke="#c1c1c1" d="M3 2h1"/><path stroke="#909090" d="M4 2h1"/><path stroke="#262626" d="M5 2h1" opacity=".71"/><path stroke="#000" d="M6 2h1m6 3h1" opacity=".078"/><path stroke="#1c1c1c" d="M8 2h1" opacity=".545"/><path stroke="#8c8c8c" d="M9 2h1" opacity=".976"/><path stroke="silver" d="M10 2h1"/><path stroke="#818181" d="M11 2h1m-1 1h1M2 4h1m17 3h1"/><path stroke="#141414" d="M12 2h1m-1 1h1m-1 4h1" opacity=".698"/><path stroke="#070707" d="M13 2h1m-1 1h1m5 1h1" opacity=".522"/><path stroke="#7c7c7c" d="M15 2h1"/><path stroke="#1e1e1e" d="M16 2h1" opacity=".635"/><path stroke="#000" d="M17 2h1" opacity=".247"/><path stroke="#1e1e1e" d="M18 2h1" opacity=".478"/><path stroke="#707070" d="M19 2h1" opacity=".984"/><path stroke="#737373" d="M20 2h1"/><path stroke="#111" d="M21 2h1" opacity=".714"/><path stroke="#000" d="M22 2h1m-1 5h1m-10 9h1" opacity=".02"/><path stroke="#090909" d="M1 3h1M1 4h1M1 5h1M1 6h1M1 7h1" opacity=".498"/><path stroke="gray" d="M2 3h1m1 1h1"/><path stroke="#9d9d9d" d="M3 3h1"/><path stroke="#b0b0b0" d="M4 3h1"/><path stroke="#515151" d="M5 3h1" opacity=".922"/><path stroke="#060606" d="M6 3h1" opacity=".282"/><path stroke="#000" d="M7 3h1" opacity=".157"/><path stroke="#464646" d="M8 3h1" opacity=".8"/><path stroke="#acacac" d="M9 3h1"/><path stroke="#b9b9b9" d="M10 3h1"/><path stroke="#838383" d="M14 3h1m-5 1h2M2 7h1"/><path stroke="#707070" d="M15 3h1"/><path stroke="#1d1d1d" d="M16 3h1" opacity=".635"/><path stroke="#000" d="M17 3h1" opacity=".251"/><path stroke="#000" d="M18 3h1" opacity=".392"/><path stroke="#101010" d="M19 3h1" opacity=".69"/><path stroke="#161616" d="M20 3h1" opacity=".722"/><path stroke="#030303" d="M21 3h1" opacity=".51"/><path stroke="#000" d="M22 3h1m-1 3h1" opacity=".016"/><path stroke="#777" d="M3 4h1"/><path stroke="#949494" d="M5 4h1"/><path stroke="#1c1c1c" d="M6 4h1" opacity=".694"/><path stroke="#090909" d="M7 4h1" opacity=".522"/><path stroke="#898989" d="M8 4h1M6 6h1"/><path stroke="#9a9a9a" d="M9 4h1"/><path stroke="#141414" d="M12 4h1m8 3h1" opacity=".706"/><path stroke="#050505" d="M13 4h1" opacity=".278"/><path stroke="#4b4b4b" d="M14 4h1" opacity=".839"/><path stroke="#616161" d="M15 4h1" opacity=".988"/><path stroke="#797979" d="M16 4h1" opacity=".992"/><path stroke="#5a5a5a" d="M17 4h1" opacity=".992"/><path stroke="#3d3d3d" d="M18 4h1" opacity=".851"/><path stroke="#000" d="M20 4h1" opacity=".176"/><path stroke="#000" d="M21 4h1m0 5h1" opacity=".004"/><path stroke="#828282" d="M2 5h1M2 6h1"/><path stroke="#656565" d="M3 5h1"/><path stroke="#212121" d="M4 5h1"/><path stroke="#929292" d="M5 5h1"/><path stroke="#5a5a5a" d="M6 5h1" opacity=".914"/><path stroke="#545454" d="M7 5h1" opacity=".863"/><path stroke="#a4a4a4" d="M8 5h1"/><path stroke="#363636" d="M9 5h1"/><path stroke="#606060" d="M10 5h1"/><path stroke="#141414" d="M12 5h1" opacity=".714"/><path stroke="#000" d="M14 5h1" opacity=".31"/><path stroke="#1e1e1e" d="M15 5h1" opacity=".541"/><path stroke="#404040" d="M16 5h1" opacity=".863"/><path stroke="#4d4d4d" d="M17 5h1" opacity=".898"/><path stroke="#8a8a8a" d="M18 5h1" opacity=".988"/><path stroke="#757575" d="M19 5h1"/><path stroke="#323232" d="M20 5h1" opacity=".725"/><path stroke="#030303" d="M21 5h1" opacity=".149"/><path stroke="#666" d="M3 6h1M3 7h1"/><path stroke="#050505" d="M4 6h1" opacity=".863"/><path stroke="#747474" d="M5 6h1" opacity=".914"/><path stroke="#767676" d="M7 6h1"/><path stroke="#919191" d="M8 6h1" opacity=".961"/><path stroke="#0f0f0f" d="M9 6h1" opacity=".831"/><path stroke="#5f5f5f" d="M10 6h1" opacity=".992"/><path stroke="#141414" d="M12 6h1" opacity=".702"/><path stroke="#000" d="M13 6h1" opacity=".463"/><path stroke="#2d2d2d" d="M14 6h1" opacity=".89"/><path stroke="#363636" d="M15 6h1" opacity=".737"/><path stroke="#040404" d="M16 6h1" opacity=".259"/><path stroke="#050505" d="M17 6h1" opacity=".165"/><path stroke="#4a4a4a" d="M18 6h1" opacity=".714"/><path stroke="#9f9f9f" d="M19 6h1"/><path stroke="#787878" d="M20 6h1"/><path stroke="#131313" d="M21 6h1" opacity=".643"/><path stroke="#020202" d="M4 7h1" opacity=".525"/><path stroke="#252525" d="M5 7h1" opacity=".686"/><path stroke="#9c9c9c" d="M6 7h1"/><path stroke="#aaa" d="M7 7h1"/><path stroke="#424242" d="M8 7h1" opacity=".855"/><path stroke="#000" d="M9 7h1" opacity=".412"/><path stroke="#636363" d="M10 7h1" opacity=".973"/><path stroke="#858585" d="M11 7h1"/><path stroke="#050505" d="M13 7h1" opacity=".51"/><path stroke="#8a8a8a" d="M15 7h1"/><path stroke="#0d0d0d" d="M16 7h1" opacity=".733"/><path stroke="#070707" d="M17 7h1" opacity=".482"/><path stroke="#2f2f2f" d="M18 7h1" opacity=".655"/><path stroke="#929292" d="M19 7h1" opacity=".992"/><path stroke="#000" d="M0 8h1" opacity=".024"/><path stroke="#070707" d="M1 8h1" opacity=".553"/><path stroke="#6f7272" d="M2 8h1"/><path stroke="#565959" d="M3 8h1"/><path stroke="#030303" d="M4 8h1" opacity=".561"/><path stroke="#0b0c0c" d="M5 8h1" opacity=".38"/><path stroke="#555959" d="M6 8h1" opacity=".933"/><path stroke="#6b6e6e" d="M7 8h1" opacity=".992"/><path stroke="#1e2020" d="M8 8h1" opacity=".447"/><path stroke="#000" d="M9 8h1" opacity=".376"/><path stroke="#565654" d="M10 8h1" opacity=".98"/><path stroke="#727470" d="M11 8h1"/><path stroke="#101110" d="M12 8h1" opacity=".745"/><path stroke="#474748" d="M14 8h1" opacity=".753"/><path stroke="#8a8a8e" d="M15 8h1" opacity=".992"/><path stroke="#6f6f73" d="M16 8h1"/><path stroke="#6b6b70" d="M17 8h1"/><path stroke="#7e7e82" d="M18 8h1"/><path stroke="#909094" d="M19 8h1"/><path stroke="#454546" d="M20 8h1" opacity=".835"/><path stroke="#0b0b0b" d="M21 8h1" opacity=".263"/><path stroke="#000" d="M0 9h1" opacity=".282"/><path stroke="#280101" d="M1 9h1" opacity=".914"/><path stroke="#591010" d="M2 9h1"/><path stroke="#550c0c" d="M3 9h1"/><path stroke="#4e0000" d="M4 9h1" opacity=".937"/><path stroke="#520000" d="M5 9h1" opacity=".882"/><path stroke="#500707" d="M6 9h1" opacity=".984"/><path stroke="#420b0b" d="M7 9h1" opacity=".98"/><path stroke="#0f000f" d="M8 9h1" opacity=".549"/><path stroke="#1a004d" d="M9 9h1" opacity=".831"/><path stroke="#300b55" d="M10 9h1"/><path stroke="#3a1059" d="M11 9h1"/><path stroke="#24024e" d="M12 9h1" opacity=".969"/><path stroke="#290041" d="M13 9h1" opacity=".863"/><path stroke="#111316" d="M14 9h1" opacity=".608"/><path stroke="#5c5c16" d="M15 9h1" opacity=".922"/><path stroke="#63631a" d="M16 9h2"/><path stroke="#626219" d="M18 9h1"/><path stroke="#5b5b12" d="M19 9h1" opacity=".988"/><path stroke="#2c2c07" d="M20 9h1" opacity=".565"/><path stroke="#000" d="M21 9h1" opacity=".2"/><path stroke="#000" d="M0 10h1m-1 1h1m-1 1h1m22 0h1M0 13h1m-1 1h1m-1 1h1m-1 1h1m-1 1h1m22 0h1M0 18h1m22 0h1M0 19h1m22 0h1M0 20h1m22 0h1M0 21h1" opacity=".325"/><path stroke="#7f0000" d="M1 10h1" opacity=".973"/><path stroke="#fc0000" d="M2 10h1"/><path stroke="#f90000" d="M3 10h1"/><path stroke="#fa0000" d="M4 10h2"/><path stroke="#e90000" d="M6 10h1M2 21h1"/><path stroke="#780004" d="M7 10h1"/><path stroke="#22006c" d="M8 10h1" opacity=".988"/><path stroke="#6d00ee" d="M9 10h1" opacity=".996"/><path stroke="#7e00fc" d="M10 10h1"/><path stroke="#7d00fc" d="M11 10h1"/><path stroke="#7c00e9" d="M12 10h1"/><path stroke="#41047a" d="M13 10h1"/><path stroke="#6b6d10" d="M14 10h1" opacity=".984"/><path stroke="#eded00" d="M15 10h1" opacity=".996"/><path stroke="#fbfb00" d="M16 10h1"/><path stroke="#fafa00" d="M17 10h2"/><path stroke="#f8f800" d="M19 10h1m-5 1h1m0 9h1"/><path stroke="#a6a600" d="M20 10h1" opacity=".988"/><path stroke="#6b6b00" d="M21 10h1" opacity=".847"/><path stroke="#151500" d="M22 10h1" opacity=".267"/><path stroke="#820000" d="M1 11h1m-1 1h1m-1 1h1m-1 1h1m-1 1h1m-1 1h1m-1 1h1m-1 1h1m-1 1h1m-1 1h1" opacity=".973"/><path stroke="red" d="M2 11h1m-1 1h1m-1 1h1m-1 1h1m-1 1h1m-1 1h1m-1 1h1m-1 1h1m-1 1h1m-1 1h6"/><path stroke="#fb0000" d="M3 11h1"/><path stroke="#f10000" d="M4 11h1"/><path stroke="#f40000" d="M5 11h1"/><path stroke="#b50000" d="M6 11h1"/><path stroke="#27005d" d="M7 11h1"/><path stroke="#6c00ec" d="M8 11h1"/><path stroke="#7600f0" d="M9 11h1"/><path stroke="#6d00e1" d="M10 11h1"/><path stroke="#7900e6" d="M11 11h1"/><path stroke="#4800b4" d="M12 11h1"/><path stroke="#5e5d16" d="M13 11h1"/><path stroke="#eded00" d="M14 11h1"/><path stroke="#e0e200" d="M16 11h1"/><path stroke="#e0e100" d="M17 11h1"/><path stroke="#e0e000" d="M18 11h1"/><path stroke="#e8e800" d="M19 11h1m-5 9h1"/><path stroke="#fdfd00" d="M20 11h1m-1 5h1"/><path stroke="#e7e700" d="M21 11h1"/><path stroke="#646400" d="M22 11h1" opacity=".835"/><path stroke="#000" d="M23 11h1m-1 10h1" opacity=".227"/><path stroke="#e00000" d="M3 12h1"/><path stroke="#930000" d="M4 12h1M2 22h1"/><path stroke="#8d0000" d="M5 12h1"/><path stroke="#650012" d="M6 12h1"/><path stroke="#6e00a3" d="M7 12h1"/><path stroke="#5f00dc" d="M8 12h1"/><path stroke="#520061" d="M9 12h1"/><path stroke="#56001e" d="M10 12h1"/><path stroke="#31002e" d="M11 12h1"/><path stroke="#2b005a" d="M12 12h1"/><path stroke="#828004" d="M13 12h1"/><path stroke="#fcfd00" d="M14 12h1"/><path stroke="#92930a" d="M15 12h1"/><path stroke="#452137" d="M16 12h1"/><path stroke="#331e41" d="M17 12h1"/><path stroke="#1e2009" d="M18 12h1" opacity=".914"/><path stroke="#515100" d="M19 12h1" opacity=".863"/><path stroke="#bdbd00" d="M20 12h1"/><path stroke="#cc0" d="M21 12h1"/><path stroke="#4e4e00" d="M22 12h1" opacity=".973"/><path stroke="#c80000" d="M3 13h1"/><path stroke="#400" d="M4 13h1" opacity=".988"/><path stroke="#360000" d="M5 13h1" opacity=".98"/><path stroke="#2e0048" d="M6 13h1" opacity=".996"/><path stroke="#7c00f5" d="M7 13h1"/><path stroke="#470097" d="M8 13h1"/><path stroke="#50000f" d="M9 13h1"/><path stroke="#e00" d="M10 13h1"/><path stroke="#480009" d="M11 13h1" opacity=".996"/><path stroke="#000026" d="M12 13h1" opacity=".988"/><path stroke="#818102" d="M13 13h1"/><path stroke="#e4e500" d="M14 13h1"/><path stroke="#312222" d="M15 13h1"/><path stroke="#5b00bb" d="M16 13h1"/><path stroke="#6a00db" d="M17 13h1"/><path stroke="#130029" d="M18 13h1" opacity=".718"/><path stroke="#020400" d="M19 13h1" opacity=".31"/><path stroke="#383800" d="M20 13h1" opacity=".847"/><path stroke="#440" d="M21 13h1" opacity=".988"/><path stroke="#2b2b00" d="M22 13h1" opacity=".722"/><path stroke="#000" d="M23 13h1m-1 3h1" opacity=".153"/><path stroke="#b40000" d="M3 14h1m-1 4h1"/><path stroke="#080000" d="M4 14h1" opacity=".639"/><path stroke="#000" d="M5 14h1" opacity=".361"/><path stroke="#2e0050" d="M6 14h1" opacity=".914"/><path stroke="#7c00f7" d="M7 14h1"/><path stroke="#460095" d="M8 14h1"/><path stroke="#51000d" d="M9 14h1"/><path stroke="#f20000" d="M10 14h1m-1 1h1m-1 1h1"/><path stroke="#510000" d="M11 14h1" opacity=".906"/><path stroke="#000" d="M12 14h1m-1 4h1" opacity=".541"/><path stroke="#545400" d="M13 14h1" opacity=".922"/><path stroke="#bbbc00" d="M14 14h1"/><path stroke="#2d1e23" d="M15 14h1"/><path stroke="#6100bf" d="M16 14h1"/><path stroke="#6c00e2" d="M17 14h1"/><path stroke="#170921" d="M18 14h1" opacity=".918"/><path stroke="#282900" d="M19 14h1" opacity=".706"/><path stroke="#121200" d="M20 14h1" opacity=".49"/><path stroke="#000" d="M21 14h1" opacity=".365"/><path stroke="#000" d="M22 14h1" opacity=".137"/><path stroke="#b30000" d="M3 15h1m-1 1h1m-1 1h1"/><path stroke="#0b0000" d="M4 15h1m-1 1h1m-1 1h1" opacity=".494"/><path stroke="#000" d="M5 15h1m-1 1h1" opacity=".106"/><path stroke="#240053" d="M6 15h1" opacity=".882"/><path stroke="#7b00f6" d="M7 15h1m-1 1h1"/><path stroke="#470095" d="M8 15h1"/><path stroke="#4e000d" d="M9 15h1"/><path stroke="#530000" d="M11 15h1" opacity=".878"/><path stroke="#000" d="M12 15h1m-1 2h1" opacity=".145"/><path stroke="#171700" d="M13 15h1" opacity=".412"/><path stroke="#464800" d="M14 15h1" opacity=".925"/><path stroke="#220e23" d="M15 15h1"/><path stroke="#5b00bf" d="M16 15h1"/><path stroke="#7300e3" d="M17 15h1"/><path stroke="#52401e" d="M18 15h1"/><path stroke="#d6d700" d="M19 15h1" opacity=".996"/><path stroke="olive" d="M20 15h1" opacity=".914"/><path stroke="#474700" d="M21 15h1" opacity=".698"/><path stroke="#0a0a00" d="M22 15h1" opacity=".145"/><path stroke="#290053" d="M6 16h1" opacity=".882"/><path stroke="#440094" d="M8 16h1"/><path stroke="#4f000d" d="M9 16h1"/><path stroke="#530000" d="M11 16h1" opacity=".882"/><path stroke="#000" d="M12 16h1" opacity=".118"/><path stroke="#000" d="M14 16h1" opacity=".443"/><path stroke="#130025" d="M15 16h1" opacity=".949"/><path stroke="#6000bf" d="M16 16h1"/><path stroke="#6f00e3" d="M17 16h1"/><path stroke="#45351e" d="M18 16h1"/><path stroke="#d9da00" d="M19 16h1"/><path stroke="#d7d700" d="M21 16h1"/><path stroke="#5b5b00" d="M22 16h1" opacity=".725"/><path stroke="#000" d="M5 17h1" opacity=".086"/><path stroke="#360050" d="M6 17h1" opacity=".8"/><path stroke="#7b00e6" d="M7 17h1"/><path stroke="#1f005f" d="M8 17h1"/><path stroke="#5a0001" d="M9 17h1"/><path stroke="#ed0000" d="M10 17h1"/><path stroke="#4f0000" d="M11 17h1" opacity=".878"/><path stroke="#282800" d="M13 17h1" opacity=".404"/><path stroke="#2a2b00" d="M14 17h1" opacity=".749"/><path stroke="#1f161f" d="M15 17h1" opacity=".965"/><path stroke="#5a01b6" d="M16 17h1"/><path stroke="#5a00d4" d="M17 17h1" opacity=".984"/><path stroke="#12091e" d="M18 17h1" opacity=".878"/><path stroke="#626200" d="M19 17h1" opacity=".929"/><path stroke="#e1e100" d="M20 17h1"/><path stroke="#ff0" d="M21 17h1m-1 1h1m-7 1h1m4 0h1m-4 1h3"/><path stroke="#828200" d="M22 17h1m-1 1h1" opacity=".973"/><path stroke="#080000" d="M4 18h1" opacity=".643"/><path stroke="#000" d="M5 18h1" opacity=".278"/><path stroke="#0d000c" d="M6 18h1" opacity=".561"/><path stroke="#550067" d="M7 18h1" opacity=".988"/><path stroke="#710036" d="M8 18h1"/><path stroke="#ce0000" d="M9 18h1"/><path stroke="#a10000" d="M10 18h1"/><path stroke="#200000" d="M11 18h1" opacity=".906"/><path stroke="#656500" d="M13 18h1" opacity=".922"/><path stroke="#d8d800" d="M14 18h1"/><path stroke="#b5b702" d="M15 18h1"/><path stroke="#35275f" d="M16 18h1"/><path stroke="#09004e" d="M17 18h1" opacity=".929"/><path stroke="#000002" d="M18 18h1" opacity=".467"/><path stroke="#434300" d="M19 18h1" opacity=".698"/><path stroke="#cece00" d="M20 18h1"/><path stroke="#da0000" d="M3 19h1m-1 2h1m3 0h1"/><path stroke="#840000" d="M4 19h1" opacity=".988"/><path stroke="#820000" d="M5 19h1" opacity=".976"/><path stroke="#810000" d="M6 19h1" opacity=".98"/><path stroke="#850003" d="M7 19h1"/><path stroke="#dc0002" d="M8 19h1"/><path stroke="#dc0000" d="M9 19h1"/><path stroke="#420005" d="M10 19h1"/><path stroke="#13005f" d="M11 19h1" opacity=".996"/><path stroke="#47005e" d="M12 19h1" opacity=".988"/><path stroke="#494503" d="M13 19h1"/><path stroke="#dede00" d="M14 19h1"/><path stroke="#bcbd03" d="M16 19h1"/><path stroke="#7e7e02" d="M17 19h1" opacity=".996"/><path stroke="#818100" d="M18 19h1" opacity=".973"/><path stroke="#bfbf00" d="M19 19h1" opacity=".984"/><path stroke="#ee0" d="M21 19h1"/><path stroke="#636300" d="M22 19h1" opacity=".973"/><path stroke="#e10000" d="M8 20h1"/><path stroke="#510007" d="M9 20h1"/><path stroke="#25006d" d="M10 20h1"/><path stroke="#7200f1" d="M11 20h1"/><path stroke="#5400c1" d="M12 20h1"/><path stroke="#3b3915" d="M13 20h1"/><path stroke="#a1a100" d="M14 20h1"/><path stroke="#ecec00" d="M20 20h1"/><path stroke="#a4a400" d="M21 20h1"/><path stroke="#424200" d="M22 20h1" opacity=".973"/><path stroke="#810000" d="M1 21h1" opacity=".973"/><path stroke="#db0000" d="M4 21h3"/><path stroke="#940000" d="M8 21h1"/><path stroke="#190035" d="M9 21h1"/><path stroke="#5900ca" d="M10 21h1"/><path stroke="#6b00dd" d="M11 21h1"/><path stroke="#6a00d4" d="M12 21h1"/><path stroke="#1e0971" d="M13 21h1"/><path stroke="#4a4b08" d="M14 21h1"/><path stroke="#8a8a00" d="M15 21h1"/><path stroke="#b6b600" d="M16 21h1"/><path stroke="#dcdc00" d="M17 21h1"/><path stroke="#dbdb00" d="M18 21h1"/><path stroke="#d9d900" d="M19 21h1"/><path stroke="#a5a500" d="M20 21h1"/><path stroke="#767600" d="M21 21h1"/><path stroke="#363600" d="M22 21h1" opacity=".835"/><path stroke="#000" d="M0 22h1" opacity=".314"/><path stroke="#600000" d="M1 22h1" opacity=".957"/><path stroke="#7e0000" d="M3 22h1m3 0h1"/><path stroke="#7f0000" d="M4 22h3"/><path stroke="#4a0000" d="M8 22h1" opacity=".98"/><path stroke="#180026" d="M9 22h1" opacity=".98"/><path stroke="#3e007d" d="M10 22h1"/><path stroke="#3f007f" d="M11 22h1"/><path stroke="#410080" d="M12 22h1"/><path stroke="#3b007c" d="M13 22h1"/><path stroke="#190847" d="M14 22h1" opacity=".996"/><path stroke="#494a06" d="M15 22h1" opacity=".984"/><path stroke="#7c7c00" d="M16 22h1"/><path stroke="#7f7f00" d="M17 22h2"/><path stroke="#7e7e00" d="M19 22h1"/><path stroke="#535300" d="M20 22h1" opacity=".988"/><path stroke="#353500" d="M21 22h1" opacity=".843"/><path stroke="#0a0a00" d="M22 22h1" opacity=".267"/><path stroke="#000" d="M0 23h1" opacity=".094"/><path stroke="#1e0000" d="M1 23h1" opacity=".651"/><path stroke="#290000" d="M2 23h5"/><path stroke="#290000" d="M7 23h1" opacity=".984"/><path stroke="#170000" d="M8 23h1" opacity=".506"/><path stroke="#000017" d="M9 23h1" opacity=".506"/><path stroke="#150029" d="M10 23h1" opacity=".984"/><path stroke="#130029" d="M11 23h1"/><path stroke="#180029" d="M12 23h1"/><path stroke="#16002a" d="M13 23h1"/><path stroke="#0e002a" d="M14 23h1" opacity=".91"/><path stroke="#131409" d="M15 23h1" opacity=".596"/><path stroke="#292900" d="M16 23h1" opacity=".98"/><path stroke="#292900" d="M17 23h2"/><path stroke="#292900" d="M19 23h1" opacity=".984"/><path stroke="#171700" d="M20 23h1" opacity=".522"/></svg>