<svg xmlns="http://www.w3.org/2000/svg" shape-rendering="crispEdges" viewBox="0 -0.5 16 16"><path stroke="rgba(0, 0, 0, 0.13725490196078433)" d="M0 0h1M0 1h1M0 2h1M0 3h1M0 4h1"/><path stroke="rgba(63, 63, 63, 0.8784313725490196)" d="M1 0h1"/><path stroke="rgba(91, 91, 91, 0.9647058823529412)" d="M2 0h1"/><path stroke="rgba(28, 28, 28, 0.33725490196078434)" d="M3 0h1"/><path stroke="rgba(0, 0, 0, 0.06274509803921569)" d="M5 0h1"/><path stroke="rgba(78, 78, 78, 0.7176470588235294)" d="M6 0h1"/><path stroke="#525252" d="M7 0h1"/><path stroke="rgba(15, 15, 15, 0.5098039215686274)" d="M8 0h1"/><path stroke="rgba(37, 37, 37, 0.3137254901960784)" d="M9 0h1"/><path stroke="rgba(79, 79, 79, 0.792156862745098)" d="M10 0h1"/><path stroke="#555" d="M11 0h1"/><path stroke="rgba(80, 80, 80, 0.9529411764705882)" d="M12 0h1"/><path stroke="rgba(49, 49, 49, 0.5686274509803921)" d="M13 0h1"/><path stroke="rgba(14, 14, 14, 0.11372549019607843)" d="M14 0h1"/><path stroke="rgba(110, 110, 110, 0.8745098039215686)" d="M1 1h1"/><path stroke="#aeaeae" d="M2 1h1"/><path stroke="rgba(71, 71, 71, 0.6901960784313725)" d="M3 1h1"/><path stroke="rgba(0, 0, 0, 0.043137254901960784)" d="M4 1h1"/><path stroke="rgba(33, 33, 33, 0.3058823529411765)" d="M5 1h1"/><path stroke="rgba(143, 143, 143, 0.9450980392156862)" d="M6 1h1"/><path stroke="#929292" d="M7 1h1"/><path stroke="rgba(20, 20, 20, 0.6039215686274509)" d="M8 1h1"/><path stroke="rgba(98, 98, 98, 0.8235294117647058)" d="M9 1h1"/><path stroke="rgba(110, 110, 110, 0.9490196078431372)" d="M10 1h1"/><path stroke="rgba(50, 50, 50, 0.5450980392156862)" d="M11 1h1"/><path stroke="rgba(87, 87, 87, 0.7411764705882353)" d="M12 1h1"/><path stroke="#656565" d="M13 1h1"/><path stroke="rgba(24, 24, 24, 0.4549019607843137)" d="M14 1h1"/><path stroke="rgba(101, 101, 101, 0.8745098039215686)" d="M1 2h1M1 3h1"/><path stroke="#9c9c9c" d="M2 2h1"/><path stroke="rgba(123, 123, 123, 0.9450980392156862)" d="M3 2h1"/><path stroke="rgba(14, 14, 14, 0.36470588235294116)" d="M4 2h1"/><path stroke="rgba(88, 88, 88, 0.6784313725490196)" d="M5 2h1"/><path stroke="#a6a6a6" d="M6 2h1"/><path stroke="#8a8a8a" d="M7 2h1"/><path stroke="rgba(21, 21, 21, 0.6039215686274509)" d="M8 2h1"/><path stroke="rgba(94, 94, 94, 0.8235294117647058)" d="M9 2h1"/><path stroke="rgba(101, 101, 101, 0.9490196078431372)" d="M10 2h1"/><path stroke="rgba(50, 50, 50, 0.5529411764705883)" d="M11 2h1"/><path stroke="rgba(20, 20, 20, 0.5529411764705883)" d="M12 2h1"/><path stroke="rgba(25, 25, 25, 0.5647058823529412)" d="M13 2h1"/><path stroke="rgba(8, 8, 8, 0.24313725490196078)" d="M14 2h1"/><path stroke="#5a5a5a" d="M2 3h1"/><path stroke="#747474" d="M3 3h1"/><path stroke="rgba(77, 77, 77, 0.8117647058823529)" d="M4 3h1"/><path stroke="rgba(129, 129, 129, 0.9333333333333333)" d="M5 3h1"/><path stroke="#5c5c5c" d="M6 3h1"/><path stroke="#787878" d="M7 3h1"/><path stroke="rgba(30, 30, 30, 0.5215686274509804)" d="M8 3h1"/><path stroke="rgba(19, 19, 19, 0.3843137254901961)" d="M9 3h1"/><path stroke="rgba(67, 67, 67, 0.7529411764705882)" d="M10 3h1"/><path stroke="rgba(91, 91, 91, 0.9019607843137255)" d="M11 3h1"/><path stroke="rgba(108, 108, 108, 0.9294117647058824)" d="M12 3h1"/><path stroke="rgba(70, 70, 70, 0.6313725490196078)" d="M13 3h1"/><path stroke="rgba(8, 8, 8, 0.09411764705882353)" d="M14 3h1"/><path stroke="rgba(103, 103, 103, 0.8784313725490196)" d="M1 4h1"/><path stroke="rgba(78, 78, 78, 0.9411764705882353)" d="M2 4h1"/><path stroke="rgba(71, 71, 71, 0.807843137254902)" d="M3 4h1"/><path stroke="#898989" d="M4 4h1"/><path stroke="rgba(126, 126, 126, 0.9333333333333333)" d="M5 4h1"/><path stroke="rgba(45, 45, 45, 0.807843137254902)" d="M6 4h1"/><path stroke="#797979" d="M7 4h1"/><path stroke="rgba(24, 24, 24, 0.6039215686274509)" d="M8 4h1"/><path stroke="rgba(64, 64, 64, 0.7607843137254902)" d="M9 4h1"/><path stroke="rgba(71, 71, 71, 0.7019607843137254)" d="M10 4h1"/><path stroke="rgba(0, 0, 0, 0.3215686274509804)" d="M11 4h1"/><path stroke="rgba(105, 105, 105, 0.7607843137254902)" d="M12 4h1"/><path stroke="#818181" d="M13 4h1"/><path stroke="rgba(28, 28, 28, 0.4549019607843137)" d="M14 4h1"/><path stroke="rgba(0, 0, 0, 0.18823529411764706)" d="M0 5h1"/><path stroke="rgba(86, 88, 88, 0.8980392156862745)" d="M1 5h1"/><path stroke="rgba(71, 73, 73, 0.8901960784313725)" d="M2 5h1"/><path stroke="rgba(17, 18, 18, 0.5137254901960784)" d="M3 5h1"/><path stroke="rgba(113, 116, 116, 0.9647058823529412)" d="M4 5h1"/><path stroke="rgba(81, 82, 82, 0.6862745098039216)" d="M5 5h1"/><path stroke="rgba(34, 34, 33, 0.592156862745098)" d="M6 5h1"/><path stroke="#686966" d="M7 5h1"/><path stroke="rgba(19, 20, 19, 0.615686274509804)" d="M8 5h1"/><path stroke="rgba(83, 83, 84, 0.6941176470588235)" d="M9 5h1"/><path stroke="rgba(113, 113, 117, 0.9764705882352941)" d="M10 5h1"/><path stroke="rgba(76, 76, 80, 0.8862745098039215)" d="M11 5h1"/><path stroke="rgba(113, 113, 117, 0.9372549019607843)" d="M12 5h1"/><path stroke="rgba(106, 106, 109, 0.8980392156862745)" d="M13 5h1"/><path stroke="rgba(22, 22, 23, 0.28627450980392155)" d="M14 5h1"/><path stroke="rgba(33, 0, 0, 0.5176470588235295)" d="M0 6h1"/><path stroke="rgba(123, 11, 11, 0.9921568627450981)" d="M1 6h1"/><path stroke="rgba(140, 9, 9, 0.984313725490196)" d="M2 6h1"/><path stroke="rgba(142, 0, 0, 0.9019607843137255)" d="M3 6h1"/><path stroke="rgba(123, 9, 8, 0.9882352941176471)" d="M4 6h1"/><path stroke="rgba(47, 4, 38, 0.788235294117647)" d="M5 6h1"/><path stroke="rgba(61, 3, 136, 0.8862745098039215)" d="M6 6h1"/><path stroke="#500e90" d="M7 6h1"/><path stroke="rgba(66, 1, 124, 0.9372549019607843)" d="M8 6h1"/><path stroke="rgba(51, 36, 44, 0.788235294117647)" d="M9 6h1"/><path stroke="rgba(145, 146, 21, 0.9490196078431372)" d="M10 6h1"/><path stroke="#9b9b1a" d="M11 6h1"/><path stroke="#999918" d="M12 6h1"/><path stroke="rgba(110, 110, 11, 0.8)" d="M13 6h1"/><path stroke="rgba(45, 45, 0, 0.2980392156862745)" d="M14 6h1"/><path stroke="rgba(0, 0, 0, 0.00784313725490196)" d="M15 6h1"/><path stroke="rgba(61, 0, 0, 0.5686274509803921)" d="M0 7h1M0 8h1M0 9h1m-1 1h1m-1 1h1m-1 1h1m-1 1h1"/><path stroke="#d00" d="M1 7h1"/><path stroke="#fb0000" d="M2 7h1"/><path stroke="#f50000" d="M3 7h1"/><path stroke="#9e000e" d="M4 7h1"/><path stroke="#4c00a3" d="M5 7h1"/><path stroke="#7200eb" d="M6 7h1"/><path stroke="#7200e8" d="M7 7h1"/><path stroke="#560e9a" d="M8 7h1"/><path stroke="#a7a40e" d="M9 7h1"/><path stroke="#eeef00" d="M10 7h1"/><path stroke="#e1e200" d="M11 7h1"/><path stroke="#e3e300" d="M12 7h1"/><path stroke="#e9e900" d="M13 7h1"/><path stroke="rgba(172, 172, 0, 0.8941176470588236)" d="M14 7h1"/><path stroke="rgba(40, 40, 0, 0.33725490196078434)" d="M15 7h1"/><path stroke="#df0000" d="M1 8h1m-1 2h1m-1 1h1m1 2h1"/><path stroke="#c20000" d="M2 8h1m-1 6h2"/><path stroke="#760000" d="M3 8h1"/><path stroke="#610051" d="M4 8h1"/><path stroke="#5f00c6" d="M5 8h1"/><path stroke="#680044" d="M6 8h1"/><path stroke="#55002a" d="M7 8h1"/><path stroke="#332034" d="M8 8h1"/><path stroke="#d1d300" d="M9 8h1"/><path stroke="#736029" d="M10 8h1"/><path stroke="#4e1c69" d="M11 8h1"/><path stroke="rgba(48, 43, 20, 0.788235294117647)" d="M12 8h1"/><path stroke="rgba(139, 140, 0, 0.8823529411764706)" d="M13 8h1"/><path stroke="rgba(139, 139, 0, 0.996078431372549)" d="M14 8h1"/><path stroke="rgba(32, 32, 0, 0.5215686274509804)" d="M15 8h1"/><path stroke="#e00000" d="M1 9h1m-1 3h1"/><path stroke="rgba(146, 0, 0, 0.9372549019607843)" d="M2 9h1"/><path stroke="rgba(12, 0, 0, 0.6196078431372549)" d="M3 9h1"/><path stroke="rgba(72, 0, 139, 0.9372549019607843)" d="M4 9h1"/><path stroke="#5600b2" d="M5 9h1"/><path stroke="#89000d" d="M6 9h1"/><path stroke="rgba(138, 0, 1, 0.9333333333333333)" d="M7 9h1"/><path stroke="rgba(24, 28, 7, 0.7647058823529411)" d="M8 9h1"/><path stroke="rgba(158, 159, 0, 0.9882352941176471)" d="M9 9h1"/><path stroke="#471f52" d="M10 9h1"/><path stroke="#6600d2" d="M11 9h1"/><path stroke="rgba(40, 20, 42, 0.7607843137254902)" d="M12 9h1"/><path stroke="rgba(31, 33, 0, 0.6)" d="M13 9h1"/><path stroke="rgba(18, 18, 0, 0.5058823529411764)" d="M14 9h1"/><path stroke="rgba(15, 15, 0, 0.11372549019607843)" d="M15 9h1"/><path stroke="rgba(148, 0, 0, 0.8705882352941177)" d="M2 10h1"/><path stroke="rgba(0, 0, 0, 0.23921568627450981)" d="M3 10h1"/><path stroke="rgba(75, 0, 149, 0.8705882352941177)" d="M4 10h1"/><path stroke="#5600b3" d="M5 10h1"/><path stroke="#89000e" d="M6 10h1"/><path stroke="rgba(149, 0, 0, 0.8745098039215686)" d="M7 10h1"/><path stroke="rgba(0, 5, 0, 0.21568627450980393)" d="M8 10h1"/><path stroke="rgba(50, 53, 0, 0.6392156862745098)" d="M9 10h1"/><path stroke="rgba(52, 10, 82, 0.9921568627450981)" d="M10 10h1"/><path stroke="#6700d3" d="M11 10h1"/><path stroke="#7b6b20" d="M12 10h1"/><path stroke="rgba(188, 189, 0, 0.9411764705882353)" d="M13 10h1"/><path stroke="rgba(116, 116, 0, 0.6274509803921569)" d="M14 10h1"/><path stroke="rgba(23, 23, 0, 0.10980392156862745)" d="M15 10h1"/><path stroke="rgba(148, 0, 0, 0.8745098039215686)" d="M2 11h1"/><path stroke="rgba(0, 0, 0, 0.2235294117647059)" d="M3 11h1"/><path stroke="rgba(79, 0, 145, 0.8196078431372549)" d="M4 11h1"/><path stroke="#460096" d="M5 11h1"/><path stroke="#8c0005" d="M6 11h1"/><path stroke="rgba(143, 0, 0, 0.8745098039215686)" d="M7 11h1"/><path stroke="rgba(1, 18, 0, 0.21568627450980393)" d="M8 11h1"/><path stroke="rgba(46, 49, 0, 0.5490196078431373)" d="M9 11h1"/><path stroke="rgba(50, 16, 79, 0.9607843137254902)" d="M10 11h1"/><path stroke="rgba(89, 0, 200, 0.984313725490196)" d="M11 11h1"/><path stroke="rgba(68, 56, 31, 0.8980392156862745)" d="M12 11h1"/><path stroke="rgba(209, 210, 0, 0.984313725490196)" d="M13 11h1"/><path stroke="rgba(214, 214, 0, 0.9921568627450981)" d="M14 11h1"/><path stroke="rgba(58, 58, 0, 0.5176470588235295)" d="M15 11h1"/><path stroke="rgba(154, 0, 0, 0.9372549019607843)" d="M2 12h1"/><path stroke="rgba(46, 0, 0, 0.5686274509803921)" d="M3 12h1"/><path stroke="rgba(68, 0, 36, 0.792156862745098)" d="M4 12h1"/><path stroke="#840034" d="M5 12h1"/><path stroke="#b90000" d="M6 12h1"/><path stroke="rgba(60, 0, 17, 0.9333333333333333)" d="M7 12h1"/><path stroke="rgba(37, 24, 21, 0.7647058823529411)" d="M8 12h1"/><path stroke="rgba(177, 178, 0, 0.9882352941176471)" d="M9 12h1"/><path stroke="#aba717" d="M10 12h1"/><path stroke="rgba(54, 42, 65, 0.9529411764705882)" d="M11 12h1"/><path stroke="rgba(56, 57, 4, 0.7098039215686275)" d="M12 12h1"/><path stroke="rgba(196, 196, 0, 0.9529411764705882)" d="M13 12h1"/><path stroke="#dada00" d="M14 12h1"/><path stroke="rgba(58, 58, 0, 0.5686274509803921)" d="M15 12h1"/><path stroke="#de0000" d="M1 13h1m3 0h1"/><path stroke="#f20000" d="M2 13h1"/><path stroke="#e10000" d="M4 13h1"/><path stroke="#69001a" d="M6 13h1"/><path stroke="#4600a9" d="M7 13h1"/><path stroke="#490c7e" d="M8 13h1"/><path stroke="#909201" d="M9 13h1"/><path stroke="#eded00" d="M10 13h1"/><path stroke="#e3e400" d="M11 13h1"/><path stroke="#e5e500" d="M12 13h1"/><path stroke="#f0f000" d="M13 13h1"/><path stroke="#9b9b00" d="M14 13h1"/><path stroke="rgba(32, 32, 0, 0.5686274509803921)" d="M15 13h1"/><path stroke="rgba(59, 0, 0, 0.5686274509803921)" d="M0 14h1"/><path stroke="#b80000" d="M1 14h1"/><path stroke="#c40000" d="M4 14h1"/><path stroke="#900000" d="M5 14h1"/><path stroke="#2e0055" d="M6 14h1"/><path stroke="#5e00c2" d="M7 14h1"/><path stroke="#4a01a7" d="M8 14h1"/><path stroke="#372c32" d="M9 14h1"/><path stroke="#868601" d="M10 14h1"/><path stroke="#bdbd00" d="M11 14h1"/><path stroke="#c3c300" d="M12 14h1"/><path stroke="#9e9e00" d="M13 14h1"/><path stroke="rgba(88, 88, 0, 0.8901960784313725)" d="M14 14h1"/><path stroke="rgba(23, 23, 0, 0.32941176470588235)" d="M15 14h1"/><path stroke="rgba(33, 0, 0, 0.3803921568627451)" d="M0 15h1"/><path stroke="rgba(73, 0, 0, 0.9490196078431372)" d="M1 15h1"/><path stroke="#470000" d="M2 15h3"/><path stroke="rgba(53, 0, 0, 0.7764705882352941)" d="M5 15h1"/><path stroke="rgba(20, 0, 47, 0.7764705882352941)" d="M6 15h1"/><path stroke="#240047" d="M7 15h1"/><path stroke="#250048" d="M8 15h1"/><path stroke="rgba(25, 1, 62, 0.9411764705882353)" d="M9 15h1"/><path stroke="rgba(50, 50, 8, 0.8352941176470589)" d="M10 15h1"/><path stroke="#474700" d="M11 15h2"/><path stroke="rgba(55, 55, 0, 0.792156862745098)" d="M13 15h1"/><path stroke="rgba(24, 24, 0, 0.3254901960784314)" d="M14 15h1"/><path stroke="rgba(0, 0, 0, 0.011764705882352941)" d="M15 15h1"/></svg>