<svg xmlns="http://www.w3.org/2000/svg" width="24" height="24" shape-rendering="crispEdges" viewBox="0 -0.5 24 24"><path stroke="#000" d="M1 0h1m19 3h1" opacity=".502"/><path stroke="#303030" d="M2 0h1"/><path stroke="#383838" d="M3 0h1m14 0h1M9 5h1"/><path stroke="#202020" d="M4 0h1m14 0h1" opacity=".659"/><path stroke="#000" d="M5 0h1m0 2h1m6 3h1M5 15h1m-1 1h1m-1 1h1m-6 6h1" opacity=".094"/><path stroke="#000" d="M8 0h1m4 0h1m7 0h1m0 2h1m-1 1h1m-1 3h1m-1 1h1M0 8h1m12 8h1" opacity=".031"/><path stroke="#282828" d="M9 0h1" opacity=".471"/><path stroke="#404040" d="M10 0h1m5 0h2"/><path stroke="#282828" d="M11 0h1"/><path stroke="#080808" d="M12 0h1" opacity=".722"/><path stroke="#000" d="M14 0h1m8 11h1m-1 10h1m-3 2h1" opacity=".22"/><path stroke="#202020" d="M15 0h1M8 2h1m6 3h1" opacity=".533"/><path stroke="#000" d="M20 0h1M5 1h1m7 7h1M0 9h1m4 9h1" opacity=".282"/><path stroke="#080808" d="M1 1h1M1 2h1M1 3h1M1 4h1M1 5h1M1 6h1M1 7h1m11 0h1" opacity=".502"/><path stroke="#888" d="M2 1h1M2 2h1m11 0h1M8 4h1m2 1h1m6 0h1M6 6h1m4 0h1m-1 1h1m2 0h2"/><path stroke="#b8b8b8" d="M3 1h1m6 0h1m-1 2h1"/><path stroke="#505050" d="M4 1h1" opacity=".973"/><path stroke="#000" d="M8 1h1m13 13h1m-11 2h1" opacity=".125"/><path stroke="#404040" d="M9 1h1m6 4h1" opacity=".878"/><path stroke="gray" d="M11 1h1m7 0h1m-9 1h1m3 0h1M2 3h1m8 0h1m2 0h1M2 4h1m1 0h1m5 0h2M2 5h1M2 6h1M2 7h1m17 0h1m-3 1h1"/><path stroke="#101010" d="M12 1h1m8 1h1m-6 5h1" opacity=".722"/><path stroke="#080808" d="M13 1h1M6 3h1m6 1h1" opacity=".282"/><path stroke="#505050" d="M14 1h1" opacity=".847"/><path stroke="#707070" d="M15 1h1m2 0h1m0 1h2m-6 1h1M2 8h1m13 0h1"/><path stroke="#787878" d="M16 1h1M3 4h1m12 0h1m2 1h1M7 6h1m12 0h1"/><path stroke="#585858" d="M17 1h1m-1 3h1M3 8h1m6 0h1"/><path stroke="#484848" d="M20 1h1" opacity=".91"/><path stroke="#101010" d="M21 1h1" opacity=".408"/><path stroke="silver" d="M3 2h1m6 0h1"/><path stroke="#909090" d="M4 2h1m0 3h1m13 2h1"/><path stroke="#282828" d="M5 2h1" opacity=".722"/><path stroke="#909090" d="M9 2h1M8 6h1" opacity=".973"/><path stroke="#181818" d="M12 2h1m-1 1h1m-1 3h1m-1 1h1" opacity=".69"/><path stroke="#080808" d="M13 2h1m-1 1h1M7 4h1m11 0h1" opacity=".533"/><path stroke="#202020" d="M16 2h1m-1 1h1" opacity=".627"/><path stroke="#000" d="M17 2h1m-1 1h1" opacity=".251"/><path stroke="#202020" d="M18 2h1" opacity=".471"/><path stroke="#a0a0a0" d="M3 3h1m15 3h1M6 7h1"/><path stroke="#b0b0b0" d="M4 3h1m4 0h1"/><path stroke="#505050" d="M5 3h1m11 2h1" opacity=".91"/><path stroke="#000" d="M7 3h1m13 2h1m1 8h1m-12 2h1m10 1h1m-12 1h1" opacity=".157"/><path stroke="#484848" d="M8 3h1" opacity=".816"/><path stroke="#000" d="M18 3h1M9 7h1" opacity=".408"/><path stroke="#101010" d="M19 3h1" opacity=".69"/><path stroke="#181818" d="M20 3h1m-9 1h1m-1 1h1m8 2h1" opacity=".722"/><path stroke="#989898" d="M5 4h1m3 0h1"/><path stroke="#202020" d="M6 4h1" opacity=".69"/><path stroke="#484848" d="M14 4h1m5 4h1" opacity=".847"/><path stroke="#606060" d="M15 4h1m-6 1h1m-1 1h1"/><path stroke="#404040" d="M18 4h1M8 7h1" opacity=".847"/><path stroke="#000" d="M20 4h1m0 5h1" opacity=".188"/><path stroke="#686868" d="M3 5h1M3 6h1M3 7h1"/><path stroke="#202020" d="M4 5h1"/><path stroke="#585858" d="M6 5h1" opacity=".91"/><path stroke="#585858" d="M7 5h1" opacity=".878"/><path stroke="#a8a8a8" d="M8 5h1M7 7h1"/><path stroke="#000" d="M14 5h1M0 10h1m-1 1h1m-1 1h1m22 0h1M0 13h1m-1 1h1m-1 1h1m-1 1h1m-1 1h1m22 0h1M0 18h1m22 0h1M0 19h1m22 0h1M0 20h1m22 0h1M0 21h1m-1 1h1" opacity=".314"/><path stroke="#303030" d="M20 5h1" opacity=".722"/><path stroke="#080808" d="M4 6h1" opacity=".878"/><path stroke="#787878" d="M5 6h1" opacity=".91"/><path stroke="#101010" d="M9 6h1" opacity=".847"/><path stroke="#000" d="M13 6h1m4 12h1" opacity=".471"/><path stroke="#303030" d="M14 6h1" opacity=".878"/><path stroke="#383838" d="M15 6h1" opacity=".753"/><path stroke="#080808" d="M16 6h1m4 2h1" opacity=".251"/><path stroke="#080808" d="M17 6h1" opacity=".157"/><path stroke="#484848" d="M18 6h1" opacity=".722"/><path stroke="#101010" d="M21 6h1" opacity=".659"/><path stroke="#000" d="M4 7h1m7 7h1m-1 4h1" opacity=".533"/><path stroke="#282828" d="M5 7h1" opacity=".69"/><path stroke="#606060" d="M10 7h1" opacity=".973"/><path stroke="#080808" d="M17 7h1" opacity=".471"/><path stroke="#303030" d="M18 7h1" opacity=".659"/><path stroke="#080808" d="M1 8h1" opacity=".565"/><path stroke="#000" d="M4 8h1" opacity=".565"/><path stroke="#081010" d="M5 8h1" opacity=".376"/><path stroke="#585858" d="M6 8h1" opacity=".941"/><path stroke="#687070" d="M7 8h1"/><path stroke="#202020" d="M8 8h1" opacity=".439"/><path stroke="#000" d="M9 8h1m-5 6h1m15 0h1" opacity=".376"/><path stroke="#707870" d="M11 8h1"/><path stroke="#101010" d="M12 8h1" opacity=".753"/><path stroke="#484848" d="M14 8h1" opacity=".753"/><path stroke="#888890" d="M15 8h1"/><path stroke="#686870" d="M17 8h1"/><path stroke="#909098" d="M19 8h1"/><path stroke="#280000" d="M1 9h1" opacity=".91"/><path stroke="#581010" d="M2 9h2"/><path stroke="#500000" d="M4 9h1" opacity=".941"/><path stroke="#500000" d="M5 9h1m5 6h1m-1 1h1m-1 1h1" opacity=".878"/><path stroke="#500808" d="M6 9h1"/><path stroke="#400808" d="M7 9h1"/><path stroke="#100010" d="M8 9h1m-3 9h1" opacity=".565"/><path stroke="#180050" d="M9 9h1" opacity=".847"/><path stroke="#300858" d="M10 9h1"/><path stroke="#381058" d="M11 9h1"/><path stroke="#280050" d="M12 9h1" opacity=".973"/><path stroke="#280040" d="M13 9h1" opacity=".878"/><path stroke="#101018" d="M14 9h1" opacity=".596"/><path stroke="#606018" d="M15 9h1" opacity=".91"/><path stroke="#606018" d="M16 9h3m-6 2h1"/><path stroke="#585810" d="M19 9h1"/><path stroke="#303008" d="M20 9h1" opacity=".565"/><path stroke="maroon" d="M1 10h1m-1 1h1m-1 1h1m-1 1h1m-1 1h1m-1 1h1m-1 1h1m-1 1h1m-1 1h1m-1 1h1m3 0h1m-5 1h1m-1 1h1" opacity=".973"/><path stroke="red" d="M2 10h1m-1 1h1m-1 1h1m-1 1h1m-1 1h1m-1 1h1m-1 1h1m-1 1h1m-1 1h1m-1 1h1m-1 1h6"/><path stroke="#f80000" d="M3 10h3m-3 1h1m1 0h1"/><path stroke="#e80000" d="M6 10h1M2 21h1"/><path stroke="#780008" d="M7 10h1"/><path stroke="#200070" d="M8 10h1"/><path stroke="#7000f0" d="M9 10h1m-2 1h1m2 9h1"/><path stroke="#8000ff" d="M10 10h2"/><path stroke="#8000e8" d="M12 10h1"/><path stroke="#400878" d="M13 10h1"/><path stroke="#687010" d="M14 10h1"/><path stroke="#f0f000" d="M15 10h1m-2 1h1m6 8h1m-2 1h1"/><path stroke="#f8f800" d="M16 10h4m-5 1h1m0 9h1"/><path stroke="#a8a800" d="M20 10h1m0 10h1m-2 1h1"/><path stroke="#686800" d="M21 10h1m0 1h1" opacity=".847"/><path stroke="#181800" d="M22 10h1" opacity=".282"/><path stroke="#f00000" d="M4 11h1m5 2h1m-1 1h1m-1 1h1m-1 1h1m-1 1h1"/><path stroke="#b80000" d="M6 11h1m-4 3h1m-1 4h1"/><path stroke="#280060" d="M7 11h1"/><path stroke="#7800f0" d="M9 11h1"/><path stroke="#7000e0" d="M10 11h1m6 3h1m-1 1h1m-1 1h1"/><path stroke="#7800e8" d="M11 11h1m-5 6h1"/><path stroke="#4800b8" d="M12 11h1"/><path stroke="#e0e000" d="M16 11h3m1 6h1m-7 2h1m2 2h1"/><path stroke="#e8e800" d="M19 11h1m1 0h1m-8 2h1m0 7h1"/><path stroke="#ff0" d="M20 11h1m-7 1h1m5 4h1m0 1h1m-1 1h1m-7 1h1m4 0h1m-4 1h3"/><path stroke="#e00000" d="M3 12h1m4 7h2m-2 1h1"/><path stroke="#900000" d="M4 12h2M2 22h1"/><path stroke="#680010" d="M6 12h1"/><path stroke="#7000a0" d="M7 12h1"/><path stroke="#6000e0" d="M8 12h1"/><path stroke="#500060" d="M9 12h1"/><path stroke="#580020" d="M10 12h1"/><path stroke="#300030" d="M11 12h1"/><path stroke="#280058" d="M12 12h1"/><path stroke="#808008" d="M13 12h1"/><path stroke="#909008" d="M15 12h1"/><path stroke="#482038" d="M16 12h1"/><path stroke="#302040" d="M17 12h1"/><path stroke="#202008" d="M18 12h1" opacity=".91"/><path stroke="#505000" d="M19 12h1" opacity=".878"/><path stroke="#c0c000" d="M20 12h1m-5 7h1m2 0h1"/><path stroke="#d0d000" d="M21 12h1m-2 6h1"/><path stroke="#505000" d="M22 12h1" opacity=".973"/><path stroke="#c80000" d="M3 13h1"/><path stroke="#480000" d="M4 13h1m3 9h1"/><path stroke="#380000" d="M5 13h1"/><path stroke="#300048" d="M6 13h1"/><path stroke="#8000f8" d="M7 13h1m-1 1h1"/><path stroke="#480098" d="M8 13h1m-1 1h1m-1 1h1m-1 1h1"/><path stroke="#500010" d="M9 13h1m-1 1h1m-1 1h1m-1 1h1"/><path stroke="#480008" d="M11 13h1"/><path stroke="#000028" d="M12 13h1"/><path stroke="olive" d="M13 13h1m3 6h1m-2 3h4"/><path stroke="#302020" d="M15 13h1m-1 1h1"/><path stroke="#5800b8" d="M16 13h1m-1 4h1"/><path stroke="#6800d8" d="M17 13h1m-6 8h1"/><path stroke="#100028" d="M18 13h1" opacity=".722"/><path stroke="#000800" d="M19 13h1" opacity=".314"/><path stroke="#383800" d="M20 13h1m1 8h1m-2 1h1" opacity=".847"/><path stroke="#484800" d="M21 13h1m-9 6h1"/><path stroke="#282800" d="M22 13h1m-4 1h1" opacity=".722"/><path stroke="#080000" d="M4 14h1" opacity=".627"/><path stroke="#300050" d="M6 14h1" opacity=".91"/><path stroke="#500000" d="M11 14h1" opacity=".91"/><path stroke="#585800" d="M13 14h1" opacity=".91"/><path stroke="#b8c000" d="M14 14h1"/><path stroke="#6000c0" d="M16 14h1m-1 2h1"/><path stroke="#180820" d="M18 14h1" opacity=".91"/><path stroke="#101000" d="M20 14h1" opacity=".502"/><path stroke="#b00000" d="M3 15h1m-1 1h1m-1 1h1"/><path stroke="#080000" d="M4 15h1m-1 1h1m-1 1h1" opacity=".502"/><path stroke="#280050" d="M6 15h1m-1 1h1" opacity=".878"/><path stroke="#7800f8" d="M7 15h1m-1 1h1"/><path stroke="#181800" d="M13 15h1" opacity=".408"/><path stroke="#484800" d="M14 15h1" opacity=".941"/><path stroke="#201020" d="M15 15h1"/><path stroke="#5800c0" d="M16 15h1m-5 5h1"/><path stroke="#504020" d="M18 15h1"/><path stroke="#d8d800" d="M19 15h1m-1 1h1m1 0h1m-8 2h1m3 3h2"/><path stroke="olive" d="M20 15h1" opacity=".91"/><path stroke="#484800" d="M21 15h1" opacity=".69"/><path stroke="#080800" d="M22 15h1" opacity=".157"/><path stroke="#000" d="M14 16h1" opacity=".439"/><path stroke="#100028" d="M15 16h1" opacity=".941"/><path stroke="#483820" d="M18 16h1"/><path stroke="#585800" d="M22 16h1" opacity=".722"/><path stroke="#380050" d="M6 17h1" opacity=".816"/><path stroke="#200060" d="M8 17h1"/><path stroke="#580000" d="M9 17h1"/><path stroke="#282800" d="M13 17h1" opacity=".408"/><path stroke="#282800" d="M14 17h1" opacity=".753"/><path stroke="#201820" d="M15 17h1" opacity=".973"/><path stroke="#5800d8" d="M17 17h1"/><path stroke="#100820" d="M18 17h1" opacity=".878"/><path stroke="#606000" d="M19 17h1" opacity=".941"/><path stroke="olive" d="M22 17h1m-1 1h1m-5 1h1" opacity=".973"/><path stroke="#080000" d="M4 18h1" opacity=".659"/><path stroke="#580068" d="M7 18h1"/><path stroke="#700038" d="M8 18h1"/><path stroke="#d00000" d="M9 18h1"/><path stroke="#a00000" d="M10 18h1"/><path stroke="#200000" d="M11 18h1" opacity=".91"/><path stroke="#686800" d="M13 18h1" opacity=".91"/><path stroke="#b8b800" d="M15 18h1m0 3h1"/><path stroke="#382860" d="M16 18h1"/><path stroke="#080050" d="M17 18h1" opacity=".941"/><path stroke="#404000" d="M19 18h1" opacity=".69"/><path stroke="#d80000" d="M3 19h1m-1 2h5"/><path stroke="#800" d="M4 19h1m2 0h1"/><path stroke="maroon" d="M6 19h1m-4 3h5"/><path stroke="#400008" d="M10 19h1"/><path stroke="#100060" d="M11 19h1"/><path stroke="#480060" d="M12 19h1"/><path stroke="#606000" d="M22 19h1" opacity=".973"/><path stroke="#500008" d="M9 20h1"/><path stroke="#280070" d="M10 20h1"/><path stroke="#383818" d="M13 20h1"/><path stroke="#a0a000" d="M14 20h1"/><path stroke="#404000" d="M22 20h1" opacity=".973"/><path stroke="#980000" d="M8 21h1"/><path stroke="#180038" d="M9 21h1"/><path stroke="#5800c8" d="M10 21h1"/><path stroke="#6800e0" d="M11 21h1"/><path stroke="#200870" d="M13 21h1"/><path stroke="#484808" d="M14 21h1m0 1h1"/><path stroke="#880" d="M15 21h1"/><path stroke="#787800" d="M21 21h1"/><path stroke="#600000" d="M1 22h1" opacity=".973"/><path stroke="#180028" d="M9 22h1m0 1h1m1 0h2"/><path stroke="#400080" d="M10 22h3"/><path stroke="#380080" d="M13 22h1"/><path stroke="#180848" d="M14 22h1"/><path stroke="#505000" d="M20 22h1"/><path stroke="#080800" d="M22 22h1" opacity=".282"/><path stroke="#200000" d="M1 23h1" opacity=".659"/><path stroke="#280000" d="M2 23h6"/><path stroke="#180000" d="M8 23h1" opacity=".502"/><path stroke="#000018" d="M9 23h1" opacity=".502"/><path stroke="#100028" d="M11 23h1"/><path stroke="#100028" d="M14 23h1" opacity=".91"/><path stroke="#101808" d="M15 23h1" opacity=".596"/><path stroke="#282800" d="M16 23h4"/><path stroke="#181800" d="M20 23h1" opacity=".533"/></svg>