<svg xmlns="http://www.w3.org/2000/svg" width="48" height="48" shape-rendering="crispEdges" viewBox="0 -0.5 48 48"><path stroke="#000" d="M2 0h1m6 0h1m29 0h1M2 1h1M2 2h1m14 0h1M2 3h1m14 0h1M2 4h1M2 5h1m9 0h1m20 0h1M2 6h1m9 0h1m20 0h1M2 7h1M2 8h1M2 9h1m-1 1h1m-1 1h1m-1 1h1m30 0h1M2 13h1m-1 1h1m32 0h1M2 15h1m-1 1h1m6 13h1m1 0h1m-3 1h1m1 0h1m12 0h1M9 31h1m1 0h1m12 0h1M9 32h1m1 0h1m12 0h1M9 33h1m1 0h1m12 0h1M9 34h1m1 0h1m12 0h1M9 35h1m14 0h1M9 36h1M2 47h1" opacity=".114"/><path stroke="#000" d="M3 0h1m4 0h1m29 0h1M3 1h1M3 2h1m14 0h1M3 3h1m14 0h1M3 4h1m23 0h1M3 5h1m7 0h1m15 0h1m4 0h1M3 6h1m7 0h1m15 0h1m4 0h1M3 7h1m23 0h1M3 8h1m11 0h1M3 9h1m11 0h1M3 10h1m-1 1h1m29 0h2M3 12h1m25 0h1M3 13h1m23 0h1M3 14h1m4 0h1m8 0h1m9 0h1M3 15h1m4 0h1m8 0h1m9 0h1m6 0h2M3 16h1m4 0h1M8 29h1m3 0h1m10 0h1M8 30h1m3 0h1m10 0h1M8 31h1m3 0h1m10 0h1M8 32h1m3 0h1m10 0h1M8 33h1m3 0h1m10 0h1M8 34h1m3 0h1m10 0h1M8 35h1m14 0h1M8 36h1m14 0h1M3 47h1m25 0h1" opacity=".886"/><path stroke="#000" d="M4 0h4m12 0h5m7 0h6M8 11h2m9 0h1M8 12h2m9 0h1M4 47h12m4 0h9m3 0h8"/><path stroke="#000" d="M19 0h1m5 0h1m5 0h1m-7 1h1m14 0h1M10 2h1m14 0h1M10 3h1m23 1h2m7 0h1M16 5h1m20 0h1m5 0h1M16 6h1m20 0h1m5 0h1M34 7h2m1 0h1m2 0h1M25 9h1m-1 1h1m-1 1h1m17 2h1m-1 1h1m-1 1h1m-25 1h1m5 0h1m-10 1h1M1 19h1m-1 1h1m-1 1h1m-1 1h1m-1 1h1m44 0h1M1 24h1m44 0h1M1 25h1m44 0h1M1 26h1m-1 1h1m35 0h1M1 28h1m41 0h1M1 29h1m-1 1h1m-1 1h1m-1 1h1m-1 1h1m-1 1h1m44 0h1M1 35h1m44 0h1M1 36h1m44 0h1M1 37h1m8 0h2m34 0h1M1 38h1m44 0h1M1 39h1m44 0h1M1 40h1m44 0h1M1 41h1m44 0h1M1 42h1m44 0h1M1 43h1m-1 1h1m-1 1h1m14 2h1m2 0h1m20 0h1" opacity=".498"/><path stroke="#2f2f2f" d="M4 1h1m23 12h1"/><path stroke="#616161" d="M5 1h1m26 0h5M4 2h1m14 0h1m-4 6h1m15 2h2m-5 3h1m-2 1h1m2 0h1m-16 1h1m11 0h1m4 1h3"/><path stroke="#606060" d="M6 1h1m13 0h2m6 3h1m-1 1h1M4 6h1m23 0h1M4 7h1m23 0h1m2 0h1M4 8h1M4 9h1m-1 1h1m29 0h1M4 11h1m5 0h1m-7 1h1m-1 1h1m25 0h1M4 14h1m11 0h1M4 15h1m26 0h1M4 16h1m27 0h1"/><path stroke="#4f4f4f" d="M7 1h1m1 3h1m2 6h1"/><path stroke="#3b3b3b" d="M8 1h1m29 0h1m-7 6h1m4 2h1" opacity=".941"/><path stroke="#0d0d0d" d="M9 1h1" opacity=".561"/><path stroke="#000" d="M10 1h1m2 6h1m32 15h1m-1 21h1M1 46h1" opacity=".243"/><path stroke="#000" d="M17 1h1m24 0h1M33 13h1m1 0h1" opacity=".055"/><path stroke="#000" d="M18 1h1" opacity=".431"/><path stroke="#3f3f3f" d="M19 1h1m-4 6h1m-1 9h1" opacity=".753"/><path stroke="#505050" d="M22 1h1m14 0h1"/><path stroke="#383838" d="M23 1h1M7 17h1"/><path stroke="#070707" d="M24 1h1"/><path stroke="#000" d="M28 1h1M16 4h1m11 6h1m14 6h1m-1 30h1" opacity=".247"/><path stroke="#000" d="M29 1h1m12 18h1m-1 27h1" opacity=".506"/><path stroke="#000" d="M30 1h1m-3 17h1m12 1h1M12 37h1m24 0h1m-21 9h2m22 0h1" opacity=".486"/><path stroke="#404040" d="M31 1h1m-1 12h1" opacity=".749"/><path stroke="#0d0d0d" d="M39 1h1" opacity=".553"/><path stroke="#000" d="M41 1h1M1 18h1m44 8h1m-1 7h1" opacity=".439"/><path stroke="#c6c6c6" d="M5 2h1m14 0h1m-4 6h1m0 1h1m10 5h2m-2 1h1"/><path stroke="#c4c4c4" d="M6 2h1m14 0h1m-5 7h1m12 6h1"/><path stroke="#a7a7a7" d="M7 2h1m22 2h1"/><path stroke="#797979" d="M8 2h1M8 8h1m2 0h1m24 1h1m2 8h1"/><path stroke="#0f0f0f" d="M9 2h1m14 0h1m17 2h1M12 8h1m23 0h1m5 7h1"/><path stroke="#a4a4a4" d="M22 2h1m17 2h1M7 6h1m12 1h1m1 9h1"/><path stroke="#727272" d="M23 2h1m17 2h1m-1 11h1"/><path stroke="#000" d="M27 2h1m-2 1h1m-1 5h1m0 1h1m2 2h1m-5 1h1m5 0h1m3 2h1m-19 3h1m8 0h1m-11 1h1m26 2h1m-7 6h1m5 19h1" opacity=".086"/><path stroke="#131313" d="M28 2h1m-1 7h1" opacity=".557"/><path stroke="#161616" d="M29 2h1m5 1h1M17 5h1m-1 1h1m0 5h1m1 0h1m-3 1h1m1 0h1m-1 1h1m-10 1h1m8 0h1m-10 1h1m8 0h1m-1 1h1"/><path stroke="#131313" d="M30 2h1m5 1h1m1 2h1m0 1h1m-26 6h1m0 5h1m4 0h1"/><path stroke="#696969" d="M31 2h1m5 1h1"/><path stroke="#bdbdbd" d="M32 2h1m5 1h1M7 5h1M5 6h1m3 0h1m19 1h1m2 2h1m-22 2h1m26 0h1m-27 1h1m2 2h1M5 16h1"/><path stroke="#afafaf" d="M33 2h1M9 9h1m23 0h1m4 6h1"/><path stroke="#adadad" d="M34 2h2m-7 1h1m9 0h1M18 5h1m2 4h1m-7 2h1m1 1h1m21 2h1m-28 1h1m18 2h6"/><path stroke="#aeaeae" d="M36 2h1m-3 7h1"/><path stroke="#9c9c9c" d="M37 2h1m-2 8h1"/><path stroke="#7c7c7c" d="M38 2h1m-7 1h1"/><path stroke="#232323" d="M39 2h1m-7 1h1m-1 5h1"/><path stroke="#111" d="M40 2h1"/><path stroke="#0e0e0e" d="M41 2h1" opacity=".898"/><path stroke="#080808" d="M42 2h1m-1 9h1" opacity=".216"/><path stroke="#000" d="M43 2h1m-1 9h1M1 17h1m44 10h1m-1 5h1" opacity=".051"/><path stroke="#5f5f5f" d="M4 3h1m14 0h1M4 4h1M4 5h1m11 4h1m19 7h1"/><path stroke="#c3c3c3" d="M5 3h1m14 0h1M5 4h1m13 1h1"/><path stroke="silver" d="M6 3h1M6 4h1m13 1h1"/><path stroke="#bebebe" d="M7 3h1m13 4h1"/><path stroke="#a3a3a3" d="M8 3h1m2 6h1m28 4h1m-1 2h1m-3 2h1"/><path stroke="#151515" d="M9 3h1m24 0h1m-1 5h2M12 9h1m16 0h1"/><path stroke="#c1c1c1" d="M21 3h1m-1 1h1m7 0h1m-9 1h1M8 6h1m11 0h2M10 9h1m27 7h1"/><path stroke="#a1a1a1" d="M22 3h1m-1 1h1m-1 1h1m-1 1h1m-1 1h1"/><path stroke="#707070" d="M23 3h1m-1 1h1m7 0h1m-9 1h1m-1 1h1m-1 1h1m-1 1h1m-1 1h1m-1 1h1m-1 1h1m-1 1h1m-1 1h1m-1 1h1m17 0h1m-19 1h1m16 1h1"/><path stroke="#0e0e0e" d="M24 3h1m-1 1h1m-1 1h1m-1 1h1m-1 1h1m-1 1h1m-1 1h1m-1 1h1m-1 1h1m-1 1h1m-1 1h1m17 0h1m-19 1h1m17 0h1m-19 1h1m-1 1h1"/><path stroke="#000" d="M25 3h1m-1 1h1m-1 1h1m-1 1h1m-1 1h1M13 8h1m11 0h1M13 9h1m11 3h1m-1 1h1m-16 1h1m8 0h1m5 0h1m-16 1h1m8 0h1m5 0h1m-10 3h1m20 8h1m-28 2h1m28 0h3m-14 6h1m2 13h1" opacity=".494"/><path stroke="#000" d="M27 3h1m-1 5h1m-1 4h1m13 5h1m-24 1h1m25 3h1m-6 5h1m-28 9h1m31 9h1" opacity=".784"/><path stroke="#5a5a5a" d="M28 3h1m-1 5h1" opacity=".949"/><path stroke="#acacac" d="M30 3h1M21 16h1m15 1h1"/><path stroke="#9b9b9b" d="M31 3h1"/><path stroke="#8e8e8e" d="M40 3h1"/><path stroke="#656565" d="M41 3h1m-1 9h1" opacity=".988"/><path stroke="#0e0e0e" d="M42 3h1m-1 9h1" opacity=".914"/><path stroke="#000" d="M43 3h1m-4 6h1m2 3h1m0 16h1m-2 2h1m-16 2h1m-2 2h1" opacity=".443"/><path stroke="#c2c2c2" d="M7 4h1m12 0h1M5 5h1m13 1h1m-2 2h1"/><path stroke="#b2b2b2" d="M8 4h1"/><path stroke="#292929" d="M10 4h1m29 6h1" opacity=".753"/><path stroke="#000" d="M11 4h1m3 3h1m25 3h1m-25 6h1m7 13h1m1 2h1m16 0h1m-20 5h1" opacity=".435"/><path stroke="#000" d="M12 4h1m29 6h1m2 18h1m-20 3h1m18 0h1m-20 3h1" opacity=".059"/><path stroke="#131313" d="M17 4h1" opacity=".565"/><path stroke="#595959" d="M18 4h1m-4 6h1m1 3h1m-6 3h1" opacity=".941"/><path stroke="#909090" d="M19 4h1m20 1h1M7 7h1m14 10h1"/><path stroke="#000" d="M26 4h1m-1 1h1m-1 1h1m-1 1h1M14 8h1m24 0h1M14 9h1m14 2h1m-4 2h1M9 14h1m8 0h1m7 0h1M9 15h1m8 0h1m7 0h1m-1 2h1m-3 12h1m17 0h1m-19 7h1m5 11h1" opacity=".098"/><path stroke="#3a3a3a" d="M32 4h1m8 12h1" opacity=".941"/><path stroke="#0d0d0d" d="M33 4h1m-1 3h1" opacity=".557"/><path stroke="#000" d="M36 4h1m1 3h2m-9 4h1m-1 1h1m-4 5h1m9 11h1m3 0h1" opacity=".49"/><path stroke="#3f3f3f" d="M37 4h1" opacity=".749"/><path stroke="#6c6c6c" d="M38 4h1M17 7h1m19 5h1m-27 1h1m3 3h1"/><path stroke="#b9b9b9" d="M39 4h1M6 5h1m30 6h1"/><path stroke="#bababa" d="M8 5h1m5 10h1"/><path stroke="#929292" d="M9 5h1m0 5h1m1 1h1m26 0h1m-27 5h1m17 0h1m5 0h1"/><path stroke="#444" d="M10 5h1"/><path stroke="#bcbcbc" d="M29 5h1m-1 1h1M5 7h1M5 8h1M5 9h1m-1 1h1m-1 1h1m-1 1h1m-1 1h1m-1 1h1m-1 1h1"/><path stroke="#888" d="M30 5h1M6 8h1"/><path stroke="#3e3e3e" d="M31 5h1"/><path stroke="#989898" d="M39 5h1M19 8h1m1 9h1"/><path stroke="#646464" d="M41 5h1M23 17h1"/><path stroke="#0d0d0d" d="M42 5h1m-2 1h1M24 17h1"/><path stroke="#8d8d8d" d="M6 6h1"/><path stroke="#5c5c5c" d="M10 6h1"/><path stroke="#aaa" d="M18 6h1m-2 5h1m-3 1h1"/><path stroke="#898989" d="M30 6h1m-1 1h1M6 9h1m-1 1h1m-1 1h1m-1 1h1m-1 1h1m-1 1h1m-1 1h1"/><path stroke="#3f3f3f" d="M31 6h1M7 10h1m-1 3h1m-1 1h1m-1 1h1"/><path stroke="#020202" d="M38 6h1m3 0h1M15 18h1m4 0h1"/><path stroke="#121212" d="M40 6h1"/><path stroke="#868686" d="M6 7h1"/><path stroke="#a5a5a5" d="M8 7h1"/><path stroke="#bfbfbf" d="M9 7h1m3 8h1m25 0h1"/><path stroke="gray" d="M10 7h1m2 6h1"/><path stroke="#393939" d="M11 7h1" opacity=".941"/><path stroke="#0d0d0d" d="M12 7h1m29 9h1" opacity=".565"/><path stroke="#000" d="M14 7h1m25 1h1m2 21h1" opacity=".047"/><path stroke="#b6b6b6" d="M18 7h1m20 6h1"/><path stroke="#b1b1b1" d="M19 7h1"/><path stroke="#000" d="M36 7h1m4 0h1m-13 3h1" opacity=".502"/><path stroke="#000" d="M42 7h1" opacity=".51"/><path stroke="#000" d="M43 7h1m-1 12h1" opacity=".251"/><path stroke="#777" d="M7 8h1m22 0h1"/><path stroke="#b8b8b8" d="M9 8h1m11 0h1m-10 5h1m1 3h1m15 0h1"/><path stroke="#a6a6a6" d="M10 8h1m18 0h1m5 1h1m-23 5h1m25 2h1M5 17h1"/><path stroke="#787878" d="M20 8h1"/><path stroke="#a2a2a2" d="M22 8h1m-1 1h1m-1 1h1m-1 1h1m-1 1h1m-1 1h1m-1 1h1m17 0h1m-19 1h1"/><path stroke="#7e7e7e" d="M31 8h1"/><path stroke="#7d7d7d" d="M32 8h1"/><path stroke="#0d0d0d" d="M37 8h1" opacity=".549"/><path stroke="#000" d="M38 8h1m2 21h1m-5 7h1" opacity=".082"/><path stroke="#454545" d="M7 9h1"/><path stroke="#212121" d="M8 9h1"/><path stroke="#686868" d="M19 9h1m15 1h1"/><path stroke="#202020" d="M20 9h1"/><path stroke="#0c0c0c" d="M30 9h1"/><path stroke="#656565" d="M31 9h1"/><path stroke="#000" d="M38 9h1m-3 6h1m-27 3h1m15 0h1m14 12h1m-5 5h1" opacity=".882"/><path stroke="#000" d="M39 9h1m2 21h1" opacity=".902"/><path stroke="#090909" d="M8 10h1"/><path stroke="#535353" d="M9 10h1"/><path stroke="#b3b3b3" d="M11 10h1m3 3h1"/><path stroke="#282828" d="M13 10h1" opacity=".745"/><path stroke="#121212" d="M14 10h1" opacity=".549"/><path stroke="#919191" d="M16 10h1m-1 3h1"/><path stroke="#b7b7b7" d="M17 10h1"/><path stroke="#6d6d6d" d="M18 10h1"/><path stroke="#2e2e2e" d="M19 10h1"/><path stroke="#141414" d="M20 10h1m-7 1h1"/><path stroke="#ababab" d="M21 10h1m-1 1h1m-1 1h1m-1 1h1m-10 1h1m8 0h1m-1 1h1"/><path stroke="#000" d="M30 10h1" opacity=".482"/><path stroke="#404040" d="M31 10h1" opacity=".745"/><path stroke="#828282" d="M37 10h1"/><path stroke="#5a5a5a" d="M38 10h1"/><path stroke="#434343" d="M39 10h1m-27 1h1"/><path stroke="#404040" d="M7 11h1m-1 1h1m-1 4h1"/><path stroke="#c5c5c5" d="M16 11h1m-6 1h1m4 0h1m21 0h1m-24 3h1"/><path stroke="#000" d="M27 11h1m14 6h1m2 4h1M11 35h1m33 9h1" opacity=".102"/><path stroke="#000" d="M28 11h1m5 1h1m-1 2h1M9 16h1" opacity=".106"/><path stroke="#000" d="M32 11h1m-3 1h1m1 2h1m0 1h1M3 17h1m4 0h1m3 0h1m-4 1h1m1 0h1m15 0h1m2 15h1" opacity=".898"/><path stroke="#161616" d="M35 11h1" opacity=".898"/><path stroke="#999" d="M36 11h1m-7 6h1" opacity=".988"/><path stroke="#4b4b4b" d="M40 11h1"/><path stroke="#0c0c0c" d="M41 11h1" opacity=".898"/><path stroke="#626262" d="M10 12h1"/><path stroke="#5b5b5b" d="M13 12h1"/><path stroke="#000" d="M28 12h1" opacity=".894"/><path stroke="#0b0b0b" d="M35 12h1" opacity=".216"/><path stroke="#121212" d="M36 12h1" opacity=".898"/><path stroke="#bbb" d="M39 12h1"/><path stroke="#969696" d="M40 12h1"/><path stroke="#000" d="M8 13h1m16 5h1M8 28h1m3 0h1m10 0h1m6 6h1M8 37h1m14 0h1m11 0h1" opacity=".941"/><path stroke="#000" d="M9 13h1m14 15h1m4 6h1m-6 3h1m11 0h1" opacity=".549"/><path stroke="#3f3f3f" d="M10 13h1" opacity=".745"/><path stroke="#4c4c4c" d="M14 13h1"/><path stroke="#141414" d="M18 13h1" opacity=".549"/><path stroke="#000" d="M19 13h1m17 12h1m-13 3h1m-13 9h1m11 0h1" opacity=".745"/><path stroke="#000" d="M32 13h1m3 0h1m-10 3h1" opacity=".427"/><path stroke="#3e3e3e" d="M37 13h1m-10 3h1" opacity=".749"/><path stroke="#6a6a6a" d="M38 13h1"/><path stroke="#717171" d="M41 13h1m-19 3h1"/><path stroke="#8f8f8f" d="M14 14h1"/><path stroke="#000" d="M33 14h1M2 17h1m6 0h1" opacity=".216"/><path stroke="#0f0f0f" d="M37 14h1" opacity=".549"/><path stroke="#262626" d="M38 14h1"/><path stroke="#000" d="M32 15h1M3 18h1m4 0h1m3 0h1m17 14h1" opacity=".988"/><path stroke="#5a5a5a" d="M37 15h1" opacity=".941"/><path stroke="#8a8a8a" d="M6 16h1"/><path stroke="#000" d="M10 16h1" opacity=".235"/><path stroke="#141414" d="M11 16h1" opacity=".557"/><path stroke="#000" d="M18 16h1m7 0h1" opacity=".039"/><path stroke="#6b6b6b" d="M29 16h1"/><path stroke="#555" d="M4 17h1"/><path stroke="#7a7a7a" d="M6 17h1"/><path stroke="#000" d="M10 17h1" opacity=".09"/><path stroke="#000" d="M11 17h1" opacity=".2"/><path stroke="#565656" d="M13 17h1"/><path stroke="#999" d="M14 17h1"/><path stroke="#000" d="M19 17h1m5 0h1M9 28h1m1 0h1m-3 9h1" opacity=".557"/><path stroke="#151515" d="M29 17h1" opacity=".914"/><path stroke="#3b3b3b" d="M40 17h1" opacity=".949"/><path stroke="#000" d="M2 18h1m26 14h1" opacity=".914"/><path stroke="#090b0b" d="M4 18h1m8 0h1"/><path stroke="#111515" d="M5 18h1"/><path stroke="#0b1010" d="M6 18h1"/><path stroke="#050707" d="M7 18h1"/><path stroke="#101414" d="M14 18h1"/><path stroke="#000" d="M19 18h1" opacity=".949"/><path stroke="#141410" d="M21 18h1"/><path stroke="#10130e" d="M22 18h1"/><path stroke="#090d09" d="M23 18h1"/><path stroke="#010201" d="M24 18h1"/><path stroke="#0b0b0d" d="M29 18h1" opacity=".188"/><path stroke="#121216" d="M30 18h1" opacity=".898"/><path stroke="#121216" d="M31 18h7"/><path stroke="#111115" d="M38 18h1"/><path stroke="#0b0b0f" d="M39 18h1"/><path stroke="#09090d" d="M40 18h1" opacity=".549"/><path stroke="#000" d="M41 18h1m-3 9h1m-28 9h1" opacity=".071"/><path stroke="#000" d="M42 18h1m2 2h1M11 36h1m33 9h1" opacity=".012"/><path stroke="#0e0000" d="M2 19h1m6 8h2m10 11h1m-4 5h1"/><path stroke="#710000" d="M3 19h1m5 7h1m10 13h1"/><path stroke="maroon" d="M4 19h1m8 0h1m0 2h1m-6 4h1m12 1h1m-1 1h1M3 45h1"/><path stroke="#7e0000" d="M5 19h2m1 6h1M6 44h10"/><path stroke="#7f0000" d="M7 19h6m7 6h1m-2 1h1m-1 1h1M7 28h1m11 0h1m2 0h1M7 29h1m11 0h1m2 0h1M7 30h1m11 0h1m2 0h1M7 31h1m11 0h1m2 0h1M7 32h1m11 0h1m2 0h1M7 33h1m11 0h1m2 0h1M7 34h1m11 0h1m2 0h1M7 35h1m-1 1h1m-1 1h1"/><path stroke="#780000" d="M14 19h1m-2 4h1"/><path stroke="#490000" d="M15 19h1"/><path stroke="#2b0000" d="M16 19h1" opacity=".745"/><path stroke="#00001a" d="M17 19h1" opacity=".549"/><path stroke="#007" d="M18 19h1" opacity=".941"/><path stroke="#410080" d="M19 19h1"/><path stroke="#75007f" d="M20 19h1"/><path stroke="#0d007e" d="M21 19h1"/><path stroke="#40007e" d="M22 19h1"/><path stroke="#74007f" d="M23 19h1m-11 7h1m-1 3h1m-1 3h1"/><path stroke="#0d007f" d="M24 19h1"/><path stroke="#400080" d="M25 19h1"/><path stroke="#740078" d="M26 19h1"/><path stroke="#0f0048" d="M27 19h1"/><path stroke="#00002b" d="M28 19h1" opacity=".741"/><path stroke="#1b1b00" d="M29 19h1" opacity=".541"/><path stroke="#767600" d="M30 19h1m13 3h1" opacity=".941"/><path stroke="#7e7e00" d="M31 19h8m-6 25h7"/><path stroke="#7f7f00" d="M39 19h1m-3 12h1m5 10h1m-3 2h1"/><path stroke="#550" d="M40 19h1" opacity=".745"/><path stroke="#1d0000" d="M2 20h1m-1 1h1m-1 1h1m-1 1h1m-1 1h1m-1 1h1m-1 1h1m-1 1h1m-1 1h1m-1 1h1m-1 1h1m-1 1h1m-1 1h1m-1 1h1m-1 1h1m-1 1h1m-1 1h1m-1 1h1m-1 1h1m6 0h6M2 39h1m-1 1h1m-1 1h1m-1 1h1m-1 1h1"/><path stroke="#e20000" d="M3 20h1m-1 1h1m-1 1h1m-1 1h1m-1 1h1m-1 1h1m-1 1h1m-1 1h1m-1 1h1m-1 1h1m-1 1h1m-1 1h1m-1 1h1m-1 1h1m-1 1h1m-1 1h1m-1 1h1m-1 1h1m-1 1h1m-1 1h1m5 0h6M3 40h1m-1 1h1m-1 1h1"/><path stroke="red" d="M4 20h9m-9 1h9m-9 1h9m-9 1h3m-3 1h3m-3 1h3m-3 1h3m13 0h2M4 27h3m13 0h2M4 28h3m13 0h2M4 29h3m13 0h2M4 30h3m13 0h2M4 31h3m13 0h2M4 32h3m13 0h2M4 33h3m13 0h2M4 34h3m13 0h2M4 35h3m13 0h1M4 36h3m-3 1h3m-3 1h3m10 0h2M4 39h3m10 0h2M4 40h13M4 41h12M4 42h12"/><path stroke="#fb0000" d="M13 20h1"/><path stroke="#e60000" d="M14 20h1"/><path stroke="#840000" d="M15 20h1m-1 25h1"/><path stroke="#39000d" d="M16 20h1"/><path stroke="#010037" d="M17 20h1"/><path stroke="#1600e5" d="M18 20h1m2 21h1"/><path stroke="#8300ff" d="M19 20h1m-3 2h1m16 4h1M23 40h1m-2 1h1"/><path stroke="#d200ff" d="M20 20h1m2 0h1m-3 1h1m2 0h1m-11 5h1m0 1h1m-2 2h1m0 1h1m-2 2h1m0 1h1m7 8h1"/><path stroke="#3100ff" d="M21 20h1m2 0h1m-11 7h1m-1 3h1m-1 3h1m0 2h1m8 6h1"/><path stroke="#8200ff" d="M22 20h1m1 2h1m-9 2h1m-3 4h1m-1 3h1m-1 3h2m18 0h1m-11 6h1"/><path stroke="#8200fb" d="M25 20h1"/><path stroke="#cf00e6" d="M26 20h1"/><path stroke="#1a0084" d="M27 20h1m-1 24h1m-8 1h1"/><path stroke="#0b0d39" d="M28 20h1"/><path stroke="#373700" d="M29 20h1m3 18h1"/><path stroke="#e5e500" d="M30 20h1m11 1h1m-4 9h1m-12 6h1m3 2h1m6 0h1m-7 1h1m4 0h1"/><path stroke="#ff0" d="M31 20h9m-9 1h9m-11 1h14m-15 1h3m10 0h2m-15 1h3m10 0h2m-15 1h1m-1 1h1m-1 1h1m9 4h2m0 1h3m-3 1h3m-2 1h3m-3 1h3m-3 1h3m-15 1h2m10 0h3m-15 1h3m8 0h3m-14 1h3m8 0h3m-12 1h10m-7 1h6m-6 1h6"/><path stroke="#8e8e00" d="M40 20h1m-10 4h1m-1 18h1"/><path stroke="#191900" d="M41 20h1m-10 4h1"/><path stroke="#1d1d00" d="M42 20h1m-17 3h1m8 1h2m-11 2h1m3 0h1m-5 1h1m11 2h2m5 5h1m-18 1h2m15 0h1m-1 1h1m-1 1h1m-11 1h2"/><path stroke="#1a1a00" d="M43 20h1" opacity=".557"/><path stroke="#c90000" d="M13 21h1"/><path stroke="#1e0000" d="M15 21h1m6 16h1"/><path stroke="#050071" d="M16 21h1"/><path stroke="#1a00e9" d="M17 21h1"/><path stroke="#cf00fc" d="M18 21h1m2 21h1"/><path stroke="#8000ff" d="M19 21h1m2 0h1m-4 1h2m1 0h2"/><path stroke="#2d00ff" d="M20 21h1m2 0h1"/><path stroke="#8300c9" d="M25 21h1"/><path stroke="#160080" d="M26 21h1"/><path stroke="#00001e" d="M27 21h1"/><path stroke="#707106" d="M28 21h1"/><path stroke="#e9e900" d="M29 21h1"/><path stroke="#fcfc00" d="M30 21h1m12 2h1M32 39h1m6 0h1"/><path stroke="#f0f000" d="M40 21h1m-10 2h1m-3 2h1"/><path stroke="#e1e100" d="M41 21h1m-10 2h1m7 11h1"/><path stroke="#770" d="M43 21h1" opacity=".949"/><path stroke="#9f0000" d="M13 22h1"/><path stroke="#35000f" d="M14 22h1"/><path stroke="#05006f" d="M15 22h1m5 18h1"/><path stroke="#4000c0" d="M16 22h1m5 18h1"/><path stroke="#8100ff" d="M18 22h1m2 0h1m12 5h1m-20 1h1m18 0h1m-1 1h1m-1 1h1m-20 1h1m18 0h1m-1 1h1m-1 1h1m-13 9h1"/><path stroke="#3f009f" d="M25 22h1"/><path stroke="#0c0f35" d="M26 22h1"/><path stroke="#6f6f07" d="M27 22h1"/><path stroke="#c0c000" d="M28 22h1m2 15h1m-4 2h1m5 4h5"/><path stroke="#bfbf00" d="M43 22h1m-4 9h1m-1 6h1m-13 1h1"/><path stroke="#1a1a00" d="M45 22h1" opacity=".565"/><path stroke="#f80000" d="M7 23h1"/><path stroke="#f00000" d="M8 23h1M7 39h1m8 0h1m0 1h1"/><path stroke="#f10000" d="M9 23h3m6 14h1"/><path stroke="#f40000" d="M12 23h1"/><path stroke="#00001d" d="M14 23h1m21 9h1"/><path stroke="#1600e2" d="M15 23h1m5 0h1m13 3h1"/><path stroke="#8400ff" d="M16 23h1"/><path stroke="#d000fd" d="M17 23h1"/><path stroke="#2000f2" d="M18 23h1"/><path stroke="#7800e9" d="M19 23h1"/><path stroke="#cf00e2" d="M20 23h1m-6 1h1m19 3h1m-1 3h1m-1 3h1"/><path stroke="#7300e2" d="M22 23h1m12 11h1"/><path stroke="#d100e4" d="M23 23h1"/><path stroke="#2400f3" d="M24 23h1"/><path stroke="#020078" d="M25 23h1"/><path stroke="#e2e200" d="M27 23h1m5 0h5m-11 1h1m-1 1h1m-1 1h1m1 0h1m-3 1h1m1 0h1m14 7h1m-1 1h1m-16 1h1m14 0h1m-17 1h1m15 0h1m-11 2h4"/><path stroke="#e4e400" d="M38 23h1"/><path stroke="#efef00" d="M39 23h1"/><path stroke="#f8f800" d="M40 23h1M30 40h1m10 0h1"/><path stroke="#d9d900" d="M44 23h1"/><path stroke="#1b1b00" d="M45 23h1m-16 6h1m3 9h1m2 0h1m7 0h1"/><path stroke="#c70000" d="M7 24h1"/><path stroke="#8d0000" d="M8 24h1"/><path stroke="#8e0000" d="M9 24h2m8 11h1m-3 2h1M7 38h1"/><path stroke="#8f0000" d="M11 24h1m6 16h1"/><path stroke="#930000" d="M12 24h1"/><path stroke="#470000" d="M13 24h1m8 12h1"/><path stroke="#18001d" d="M14 24h1m21 9h1"/><path stroke="#2200f2" d="M17 24h1"/><path stroke="#6b009f" d="M18 24h1"/><path stroke="#470056" d="M19 24h1"/><path stroke="#15001b" d="M20 24h1"/><path stroke="#02001d" d="M21 24h1m14 5h1"/><path stroke="#0e001c" d="M22 24h1"/><path stroke="#27002a" d="M23 24h1"/><path stroke="#6c0084" d="M24 24h1"/><path stroke="#380048" d="M25 24h1"/><path stroke="#1b1d00" d="M26 24h1m7 0h1m-5 3h1"/><path stroke="#191d00" d="M33 24h1"/><path stroke="#1c1c00" d="M37 24h1"/><path stroke="#2a2a00" d="M38 24h1"/><path stroke="#828200" d="M39 24h1m-11 6h1m12 12h2m-2 1h1m-10 2h6"/><path stroke="#c9c900" d="M40 24h1"/><path stroke="#c8c800" d="M43 24h1m-1 15h1m-15 1h1m12 0h1"/><path stroke="#7c7c00" d="M44 24h1m-4 7h1m2 8h1"/><path stroke="#101000" d="M45 24h1m-1 15h1"/><path stroke="#c00000" d="M7 25h1M6 43h9"/><path stroke="#810000" d="M10 25h1m10 0h1"/><path stroke="#790000" d="M11 25h1m4 19h1"/><path stroke="#450000" d="M12 25h1"/><path stroke="#60003f" d="M13 25h1"/><path stroke="#820090" d="M14 25h1"/><path stroke="#8100f1" d="M15 25h1"/><path stroke="#5f00e1" d="M16 25h1"/><path stroke="#3e00b0" d="M17 25h1"/><path stroke="#40004f" d="M18 25h1"/><path stroke="#5f001f" d="M19 25h1"/><path stroke="#3f0000" d="M22 25h1M4 46h1"/><path stroke="#05000f" d="M23 25h1"/><path stroke="#3b0074" d="M24 25h1"/><path stroke="#1f0041" d="M25 25h1"/><path stroke="#1c1d00" d="M26 25h1m3 3h1"/><path stroke="#909000" d="M30 25h1"/><path stroke="#3e3f20" d="M31 25h1"/><path stroke="#0c0048" d="M32 25h1"/><path stroke="#730078" d="M33 25h1"/><path stroke="#410081" d="M34 25h1"/><path stroke="#000071" d="M35 25h1M22 39h1"/><path stroke="#00000e" d="M36 25h1"/><path stroke="#0d0d00" d="M38 25h1m1 2h1" opacity=".549"/><path stroke="#383800" d="M39 25h1" opacity=".941"/><path stroke="olive" d="M40 25h1m1 6h1M31 43h1m0 1h1"/><path stroke="#c3c300" d="M41 25h1"/><path stroke="#c2c200" d="M42 25h1"/><path stroke="#a1a100" d="M43 25h1M28 40h1"/><path stroke="#707000" d="M44 25h1"/><path stroke="#0e0e00" d="M45 25h1m-5 2h3m-7 2h1m-12 9h1m18 2h1m-1 1h1m-4 4h1"/><path stroke="#b80000" d="M7 26h1"/><path stroke="#6f0000" d="M8 26h1"/><path stroke="#720000" d="M10 26h1"/><path stroke="#640000" d="M11 26h1m5 18h1"/><path stroke="#090000" d="M12 26h1"/><path stroke="#2f00ff" d="M15 26h1m-1 3h1m-1 3h1m7 10h1"/><path stroke="#4600bf" d="M16 26h1"/><path stroke="#68006d" d="M17 26h1"/><path stroke="#09000e" d="M18 26h1"/><path stroke="#00000d" d="M23 26h1m0 1h1m-6 14h1"/><path stroke="#006" d="M24 26h1"/><path stroke="#00003a" d="M25 26h1"/><path stroke="#040040" d="M31 26h1"/><path stroke="#270093" d="M32 26h1"/><path stroke="#d100f1" d="M33 26h1m-1 3h1m-1 3h1"/><path stroke="#03001d" d="M36 26h1"/><path stroke="#3b3b00" d="M40 26h1" opacity=".949"/><path stroke="#717100" d="M41 26h1m1 0h1M27 40h1m16 1h1m-4 3h1"/><path stroke="#6f6f00" d="M42 26h1M27 39h1m16 1h1"/><path stroke="#660" d="M44 26h1" opacity=".988"/><path stroke="#0e0e00" d="M45 26h1m-20 3h1" opacity=".914"/><path stroke="#870000" d="M7 27h1"/><path stroke="#0b0000" d="M8 27h1m9 17h1m-2 1h1"/><path stroke="#0d0000" d="M11 27h1"/><path stroke="#010000" d="M12 27h1m5 18h1"/><path stroke="#0b007f" d="M13 27h1m-1 3h1m-1 3h1"/><path stroke="#7b00c0" d="M16 27h1m-1 3h1"/><path stroke="#07006f" d="M17 27h1m-1 3h1"/><path stroke="#00000f" d="M18 27h1m-1 3h1m-1 3h1m3 5h1"/><path stroke="#000002" d="M23 27h1"/><path stroke="#000007" d="M25 27h1m-8 7h1"/><path stroke="#38003f" d="M31 27h1"/><path stroke="#6b0091" d="M32 27h1m-1 3h1m-1 3h1"/><path stroke="#2000f1" d="M33 27h1m-1 3h1m-1 3h1"/><path stroke="#1a001d" d="M36 27h1M24 38h1"/><path stroke="#0e0e00" d="M44 27h1m-7 8h1" opacity=".898"/><path stroke="#080800" d="M45 27h1m-20 3h1" opacity=".216"/><path stroke="#40007f" d="M13 28h1"/><path stroke="#6000c0" d="M16 28h1m-1 3h1"/><path stroke="#38006f" d="M17 28h1m-1 3h1"/><path stroke="#03000f" d="M18 28h1m-1 3h1"/><path stroke="#161600" d="M26 28h1m-1 9h1"/><path stroke="#a9a900" d="M27 28h1"/><path stroke="#e3e300" d="M28 28h2m0 13h1m10 0h1"/><path stroke="#1e003f" d="M31 28h1"/><path stroke="#480091" d="M32 28h1m-1 3h1"/><path stroke="#7800f1" d="M33 28h1m-1 3h1m-1 3h1"/><path stroke="#7100e2" d="M35 28h1m-1 3h1"/><path stroke="#0e001d" d="M36 28h1m-1 6h1"/><path stroke="#000" d="M37 28h1" opacity=".749"/><path stroke="#4600c0" d="M16 29h1m-1 3h1"/><path stroke="#68006f" d="M17 29h1m-1 3h1"/><path stroke="#09000f" d="M18 29h1m-1 3h1"/><path stroke="#626200" d="M27 29h1m11 6h1" opacity=".988"/><path stroke="#b2b200" d="M28 29h1"/><path stroke="#d7d700" d="M29 29h1"/><path stroke="#03003f" d="M31 29h1"/><path stroke="#260091" d="M32 29h1m-1 3h1"/><path stroke="#1300e2" d="M35 29h1m-1 3h1"/><path stroke="#1a1a00" d="M40 29h1m-3 8h1" opacity=".549"/><path stroke="#000" d="M25 30h1m2 3h1m-4 2h1" opacity=".043"/><path stroke="#0c0c00" d="M27 30h1" opacity=".898"/><path stroke="#505000" d="M28 30h1"/><path stroke="#0f1100" d="M30 30h1"/><path stroke="#39003f" d="M31 30h1"/><path stroke="#17001d" d="M36 30h1"/><path stroke="#6f7100" d="M37 30h1"/><path stroke="#e6e600" d="M38 30h1m-9 6h1"/><path stroke="#787800" d="M40 30h1" opacity=".941"/><path stroke="#3f007f" d="M13 31h1m-1 3h1"/><path stroke="#2a2a00" d="M28 31h1" opacity=".753"/><path stroke="#383800" d="M29 31h1"/><path stroke="#060700" d="M30 31h1"/><path stroke="#1f003f" d="M31 31h1"/><path stroke="#0a001d" d="M36 31h1"/><path stroke="#545400" d="M43 31h1" opacity=".753"/><path stroke="#05003f" d="M31 32h1"/><path stroke="#787800" d="M37 32h1m-10 9h1m11 3h1"/><path stroke="#f6f600" d="M38 32h1"/><path stroke="#fdfd00" d="M39 32h1m-7 9h1"/><path stroke="#8d8d00" d="M43 32h1M30 42h1"/><path stroke="#181800" d="M44 32h1" opacity=".898"/><path stroke="#0f0f00" d="M45 32h1m-20 3h1" opacity=".216"/><path stroke="#7c00c2" d="M16 33h1"/><path stroke="#090071" d="M17 33h1"/><path stroke="#000" d="M29 33h1" opacity=".204"/><path stroke="#3a003f" d="M31 33h1M19 44h1m7 2h1"/><path stroke="#464700" d="M37 33h1"/><path stroke="#a0a000" d="M38 33h1m4 7h1m-4 3h1"/><path stroke="#f2f200" d="M39 33h1m3 0h1m-12 8h1m0 1h1"/><path stroke="#caca00" d="M44 33h1" opacity=".988"/><path stroke="#1c1c00" d="M45 33h1m-20 3h1" opacity=".914"/><path stroke="#4000a0" d="M16 34h1"/><path stroke="#000036" d="M17 34h1"/><path stroke="#20003f" d="M31 34h1"/><path stroke="#490092" d="M32 34h1"/><path stroke="#1d1e00" d="M37 34h1"/><path stroke="#4e4e00" d="M38 34h1"/><path stroke="#b1b100" d="M39 34h1"/><path stroke="#7b0077" d="M13 35h1" opacity=".949"/><path stroke="#d200e8" d="M14 35h1"/><path stroke="#0b0080" d="M16 35h1"/><path stroke="#030000" d="M17 35h1"/><path stroke="#160000" d="M18 35h1m-2 1h1m-3 2h1"/><path stroke="#f60000" d="M21 35h1"/><path stroke="#700" d="M22 35h1"/><path stroke="#1c1c00" d="M27 35h1" opacity=".898"/><path stroke="#1e1e00" d="M30 35h1"/><path stroke="#0d0f38" d="M31 35h1"/><path stroke="#1a0083" d="M32 35h1"/><path stroke="#d000ef" d="M33 35h1"/><path stroke="#7500f3" d="M34 35h1m-10 7h1"/><path stroke="#0000ca" d="M35 35h1" opacity=".988"/><path stroke="#00001d" d="M36 35h1" opacity=".898"/><path stroke="#b8b800" d="M40 35h1m-8 8h1"/><path stroke="#180017" d="M13 36h1" opacity=".549"/><path stroke="#340037" d="M14 36h1"/><path stroke="#d300e9" d="M15 36h1"/><path stroke="#730081" d="M16 36h1"/><path stroke="#c80000" d="M18 36h1m-3 6h1"/><path stroke="#f30000" d="M19 36h2"/><path stroke="#a00000" d="M21 36h1"/><path stroke="#cdcd00" d="M27 36h1" opacity=".988"/><path stroke="#717105" d="M31 36h1"/><path stroke="#00002a" d="M32 36h1"/><path stroke="#1a00e7" d="M33 36h1"/><path stroke="#0f008f" d="M34 36h1"/><path stroke="#000019" d="M35 36h1" opacity=".898"/><path stroke="#001" d="M36 36h1" opacity=".2"/><path stroke="#060600" d="M38 36h1" opacity=".2"/><path stroke="#060600" d="M39 36h1" opacity=".898"/><path stroke="#848400" d="M40 36h1m-9 9h1m6 0h1"/><path stroke="#0e000e" d="M14 37h1m10 1h1"/><path stroke="#710073" d="M15 37h1"/><path stroke="#7f0041" d="M16 37h1"/><path stroke="#e10000" d="M19 37h1M8 39h1m6 0h1M4 43h1"/><path stroke="#b00000" d="M20 37h1"/><path stroke="#4f0000" d="M21 37h1"/><path stroke="#aa0" d="M27 37h1"/><path stroke="#6f6f0f" d="M32 37h1"/><path stroke="#0f0f73" d="M33 37h1"/><path stroke="#000040" d="M34 37h1"/><path stroke="#757500" d="M39 37h1" opacity=".941"/><path stroke="#190000" d="M8 38h1"/><path stroke="#8c0000" d="M16 38h1"/><path stroke="#bf0000" d="M19 38h1"/><path stroke="#6d0000" d="M20 38h1"/><path stroke="#03001e" d="M23 38h1"/><path stroke="#6d6d00" d="M27 38h1"/><path stroke="#363600" d="M38 38h1"/><path stroke="#fafa00" d="M43 38h1"/><path stroke="#d5d500" d="M44 38h1"/><path stroke="#c20000" d="M19 39h1"/><path stroke="#0f0000" d="M21 39h1"/><path stroke="#1a00e6" d="M23 39h1"/><path stroke="#d000e6" d="M24 39h1"/><path stroke="#740071" d="M25 39h1"/><path stroke="#0b0f00" d="M26 39h1"/><path stroke="#5f0000" d="M19 40h1"/><path stroke="#38000f" d="M20 40h1"/><path stroke="#3f0080" d="M25 40h1"/><path stroke="#0d0f00" d="M26 40h1"/><path stroke="#fa0000" d="M16 41h1"/><path stroke="#d50000" d="M17 41h1"/><path stroke="#1b0000" d="M18 41h1M2 44h1"/><path stroke="#030037" d="M20 41h1"/><path stroke="#0a008e" d="M25 41h1"/><path stroke="#0d0d16" d="M26 41h1"/><path stroke="#646403" d="M27 41h1"/><path stroke="#8b8b00" d="M29 41h1m12 0h1m-2 1h1"/><path stroke="#f1f100" d="M31 41h1"/><path stroke="#f9f900" d="M40 41h1"/><path stroke="#7c0000" d="M17 42h1M5 44h1"/><path stroke="#100000" d="M18 42h1M2 45h1"/><path stroke="#000072" d="M19 42h1"/><path stroke="#1a00eb" d="M20 42h1"/><path stroke="#d300ff" d="M24 42h1"/><path stroke="#0002ca" d="M26 42h1"/><path stroke="#0b0b1a" d="M27 42h1"/><path stroke="#484800" d="M28 42h1m0 1h1m1 2h1m8 0h1"/><path stroke="#858500" d="M29 42h1"/><path stroke="#9b9b00" d="M32 42h1"/><path stroke="#c7c700" d="M40 42h1"/><path stroke="#737300" d="M44 42h1m-3 2h1"/><path stroke="#0f0f00" d="M45 42h1"/><path stroke="#e30000" d="M3 43h1"/><path stroke="#be0000" d="M5 43h1"/><path stroke="#c10000" d="M15 43h1"/><path stroke="#a10000" d="M16 43h1"/><path stroke="#700000" d="M17 43h1"/><path stroke="#1f0061" d="M19 43h1"/><path stroke="#4900c4" d="M20 43h1"/><path stroke="#7a00c0" d="M21 43h1"/><path stroke="#6000bf" d="M22 43h1"/><path stroke="#4500c0" d="M23 43h1"/><path stroke="#7a00bf" d="M24 43h1"/><path stroke="#6200c1" d="M25 43h1"/><path stroke="#3900b3" d="M26 43h1"/><path stroke="#060050" d="M27 43h1"/><path stroke="#1f201f" d="M28 43h1"/><path stroke="#797900" d="M30 43h1"/><path stroke="#868600" d="M32 43h1"/><path stroke="#c1c100" d="M39 43h1"/><path stroke="#606000" d="M43 43h1"/><path stroke="#3b3b00" d="M44 43h1" opacity=".941"/><path stroke="#0d0d00" d="M45 43h1" opacity=".565"/><path stroke="#d70000" d="M3 44h1"/><path stroke="#b90000" d="M4 44h1"/><path stroke="#690080" d="M20 44h1"/><path stroke="#15007e" d="M21 44h1m2 0h1"/><path stroke="#3f007e" d="M22 44h1m2 0h1"/><path stroke="#69007e" d="M23 44h1"/><path stroke="#6a007e" d="M26 44h1"/><path stroke="#060049" d="M28 44h1"/><path stroke="#0d0d0b" d="M29 44h1"/><path stroke="#646402" d="M30 44h1"/><path stroke="#7a7a00" d="M31 44h1"/><path stroke="#3c3c00" d="M43 44h1" opacity=".949"/><path stroke="#8a0000" d="M4 45h1"/><path stroke="#820000" d="M5 45h10"/><path stroke="#480000" d="M16 45h1"/><path stroke="#060041" d="M19 45h1"/><path stroke="#6a0082" d="M21 45h1m2 0h1m2 0h1"/><path stroke="#410082" d="M22 45h1m2 0h1"/><path stroke="#180082" d="M23 45h1m2 0h1"/><path stroke="#3a007c" d="M28 45h1"/><path stroke="#000266" d="M29 45h1"/><path stroke="#0b0b0d" d="M30 45h1"/><path stroke="#0c0c00" d="M41 45h1"/><path stroke="#0d0d00" d="M43 45h1" opacity=".557"/><path stroke="#0d0000" d="M2 46h1" opacity=".561"/><path stroke="#3b0000" d="M3 46h1" opacity=".941"/><path stroke="#400000" d="M5 46h11"/><path stroke="#2a0000" d="M16 46h1" opacity=".749"/><path stroke="#00002a" d="M19 46h1" opacity=".749"/><path stroke="#070040" d="M20 46h1"/><path stroke="#3a0040" d="M21 46h1m2 0h1"/><path stroke="#200040" d="M22 46h1m2 0h1"/><path stroke="#060040" d="M23 46h1m2 0h1"/><path stroke="#210040" d="M28 46h1"/><path stroke="#00003d" d="M29 46h1" opacity=".941"/><path stroke="#00000d" d="M30 46h1" opacity=".545"/><path stroke="#2b2b00" d="M31 46h1" opacity=".745"/><path stroke="#404000" d="M32 46h8"/><path stroke="#2a2a00" d="M40 46h1" opacity=".749"/></svg>