<svg xmlns="http://www.w3.org/2000/svg" width="32" height="32" shape-rendering="crispEdges" viewBox="0 -0.5 32 32"><path stroke="#000" d="M1 0h1m15 0h1m1 0h1m7 0h1M1 1h1m15 0h1M1 2h1M1 3h1m27 0h1M1 4h1M1 5h1m25 0h1M1 6h1m15 0h1M1 7h1m15 0h1M1 8h1m20 0h1M1 9h1m21 0h1m5 0h1M1 10h1m-2 2h1m-1 1h1m-1 1h1m-1 1h1m30 0h1M0 16h1m30 0h1M0 17h1m30 0h1M0 18h1m-1 1h1m28 0h1M0 20h1m5 0h2m8 0h1M0 21h1m5 0h2m8 0h1M0 22h1m5 0h2m8 0h1m14 0h1M0 23h1m5 0h1m9 0h1m14 0h1M0 24h1m6 0h1m23 0h1M0 25h1m30 0h1M0 26h1m30 0h1M0 27h1m30 0h1M0 28h1m30 0h1M0 29h1m-1 1h1m27 1h1" opacity=".125"/><path stroke="#000" d="M2 0h1m13 0h1" opacity=".878"/><path stroke="#181818" d="M3 0h2m9 0h1m7 0h3M13 7h1m-1 1h1m5 21h1"/><path stroke="#101010" d="M5 0h1m19 0h1M5 11h1m10 0h1" opacity=".91"/><path stroke="#080808" d="M6 0h1m4 2h1m12 1h1M10 4h1m0 7h1" opacity=".22"/><path stroke="#101010" d="M12 0h1" opacity=".22"/><path stroke="#181818" d="M13 0h1m7 0h1M6 8h1m5 0h1m9 2h1M2 11h1m10 0h1" opacity=".91"/><path stroke="#101010" d="M15 0h1M5 7h1M5 8h1"/><path stroke="#101010" d="M20 0h1" opacity=".251"/><path stroke="#080808" d="M26 0h1" opacity=".251"/><path stroke="#000" d="M28 0h1M9 4h1m19 1h1m-1 26h1" opacity=".031"/><path stroke="#181818" d="M2 1h1M2 2h1m20 0h1M2 3h1m15 0h1M2 4h1m15 0h1m7 0h1M2 5h1m20 0h1M2 6h1M2 7h1m19 0h1M2 8h1m16 0h1M2 9h1m10 0h1m4 0h1M2 10h1m10 0h1m9 0h1" opacity=".878"/><path stroke="#989898" d="M3 1h1m9 0h1m5 1h1m5 0h1M12 3h1M4 4h1m6 1h1M6 6h1m5 0h1m9 0h1M10 7h1m13 0h1M7 8h1m11 1h2M8 10h1m1 0h1m8 0h1m0 1h2"/><path stroke="#a8a8a8" d="M4 1h1m9 0h1M3 2h1m1 0h1m20 0h1M3 3h1m15 0h1M6 4h1m5 0h1M7 6h1m3 0h1M7 7h1m17 0h1M10 8h1M8 9h1m17 0h1"/><path stroke="#707070" d="M5 1h1m19 0h1m-5 4h1m2 1h1m1 1h1m0 1h1m-1 2h1m-2 1h1"/><path stroke="#101010" d="M6 1h1m20 0h1m0 1h1M7 3h1m0 2h1m17 1h1m1 2h1m-1 2h1" opacity=".784"/><path stroke="#000" d="M7 1h1m3 0h1m17 1h1M8 3h1m1 0h1m12 0h1m-1 1h1m5 0h1m-2 1h1M18 7h1m10 1h1m-1 2h1m-2 2h1M18 22h1M7 23h1" opacity=".094"/><path stroke="#181818" d="M12 1h1m6 0h1m-2 1h1m-8 1h1m-2 2h1m7 0h1m0 1h1M7 10h1m3 0h1m6 0h1" opacity=".784"/><path stroke="#686868" d="M15 1h1m11 1h1m-1 1h1M4 11h1m10 0h1"/><path stroke="#101010" d="M16 1h1m-1 1h1m-1 1h1m11 0h1M16 4h1m10 0h1M16 5h1m-1 1h1m-1 1h1m-1 1h1M5 9h1m10 0h1m11 0h1M5 10h1m10 0h1" opacity=".878"/><path stroke="#101010" d="M18 1h1m-1 5h1" opacity=".188"/><path stroke="#303030" d="M20 1h1m-9 1h1m11 0h1M11 4h1m11 3h1" opacity=".91"/><path stroke="#909090" d="M21 1h4m1 2h1m-8 2h1m1 1h1m1 0h1M9 9h1m-7 2h1m10 0h1m7 0h2"/><path stroke="#282828" d="M26 1h1M6 2h1m15 0h1m2 1h1M7 4h1m14 1h1m-3 1h1m4 0h1M9 7h1m-2 4h1m1 0h1" opacity=".91"/><path stroke="#080808" d="M28 1h1m-2 5h1m0 1h1m-6 1h1m4 3h1" opacity=".188"/><path stroke="#c8c8c8" d="M4 2h1"/><path stroke="#000" d="M7 2h1m9 0h1m4 1h1M8 4h1m13 0h1M9 5h1m7 0h1m8 0h1m-8 2h1m-3 1h1M6 10h1m5 0h1m4 0h1M1 11h1m4 0h1m5 0h1m4 0h1m7 7h1M6 19h2m20 0h1M6 24h1" opacity=".22"/><path stroke="#b0b0b0" d="M13 2h1M6 5h1m7 0h1m-4 2h1m14 1h1m-7 2h1m5 0h1"/><path stroke="silver" d="M14 2h1M4 3h1m8 0h1m-1 1h1"/><path stroke="#787878" d="M15 2h1m5 0h1M6 3h1m8 0h1m-1 1h1m4 0h1M7 5h1m7 0h1m4 0h1M4 6h1m10 0h1M4 7h1m3 0h1m6 0h1M4 8h1m10 0h1M4 9h1m10 0h1m11 0h1M4 10h1m10 0h1"/><path stroke="#a0a0a0" d="M20 2h1M3 4h1m15 0h1M3 5h1M3 6h1m10 0h1M3 7h1m10 0h1M3 8h1m4 0h1m2 0h1m2 0h1m10 0h1M3 9h1m6 0h1m3 0h1M3 10h1m10 0h1m10 0h1m-1 1h1"/><path stroke="#b8b8b8" d="M5 3h1m8 0h1M5 4h1m8 0h1m-3 1h1m-4 5h1"/><path stroke="#000" d="M17 3h1m-1 1h1m-1 5h1" opacity=".251"/><path stroke="gray" d="M20 3h1M5 5h1"/><path stroke="#202020" d="M21 3h1m-1 1h1" opacity=".91"/><path stroke="#000" d="M24 4h1m-3 5h1" opacity=".188"/><path stroke="#000" d="M25 4h1m2 0h1M18 8h1" opacity=".784"/><path stroke="#888" d="M4 5h1m8 0h1m-5 6h1"/><path stroke="#101010" d="M24 5h1" opacity=".816"/><path stroke="#080808" d="M25 5h1M9 6h1m10 1h1M7 11h1" opacity=".314"/><path stroke="#303030" d="M5 6h1m15 4h1"/><path stroke="#282828" d="M8 6h1" opacity=".878"/><path stroke="#303030" d="M10 6h1M7 9h1m3 0h1m12 1h1" opacity=".878"/><path stroke="#383838" d="M13 6h1M9 8h1"/><path stroke="#282828" d="M6 7h1m5 0h1"/><path stroke="#181818" d="M21 7h1m-2 1h1m0 1h1" opacity=".816"/><path stroke="#202020" d="M27 7h1m-1 4h1" opacity=".816"/><path stroke="#080808" d="M21 8h1m-4 3h1" opacity=".282"/><path stroke="#303030" d="M24 8h1m-6 3h1" opacity=".816"/><path stroke="#000" d="M6 9h1m5 0h1m12 8h1m-10 2h1m2 3h1m-4 2h1" opacity=".314"/><path stroke="#101010" d="M24 9h1" opacity=".314"/><path stroke="#404040" d="M25 9h1" opacity=".91"/><path stroke="#909098" d="M24 11h1"/><path stroke="#080000" d="M1 12h1" opacity=".784"/><path stroke="#200000" d="M2 12h1m2 0h1m2 0h1m6 6h1"/><path stroke="#301010" d="M3 12h2m4 0h1"/><path stroke="#200000" d="M6 12h1m-2 7h1m-1 5h1m0 1h1" opacity=".91"/><path stroke="#200000" d="M7 12h1m-7 1h1m-1 1h1m-1 1h1m-1 1h1m-1 1h1m-1 1h1m-1 1h1m13 0h1M1 20h1m3 0h1m9 0h1M1 21h1m3 0h1m9 0h1M1 22h1m3 0h1m9 0h1M1 23h1m3 0h1m9 0h1M1 24h1m-1 1h1m5 0h2m-8 1h1m-1 1h1m-1 1h1m-1 1h1" opacity=".878"/><path stroke="#180000" d="M10 12h1m0 18h1" opacity=".878"/><path stroke="#080008" d="M11 12h1M8 24h1" opacity=".314"/><path stroke="#080020" d="M12 12h1" opacity=".816"/><path stroke="#180020" d="M13 12h1"/><path stroke="#181030" d="M14 12h1"/><path stroke="#281030" d="M15 12h1"/><path stroke="#080020" d="M16 12h1m-9 6h1"/><path stroke="#180020" d="M17 12h1m6 6h1M8 19h1m7 6h1" opacity=".91"/><path stroke="#080018" d="M18 12h1" opacity=".784"/><path stroke="#101008" d="M19 12h1" opacity=".408"/><path stroke="#303018" d="M20 12h1" opacity=".91"/><path stroke="#383818" d="M21 12h5"/><path stroke="#303010" d="M26 12h1" opacity=".91"/><path stroke="#101008" d="M27 12h1" opacity=".314"/><path stroke="#c80000" d="M2 13h1m6 0h1m3 4h2m-3 7h1M2 29h1"/><path stroke="#e00000" d="M3 13h6m-7 1h1m-1 1h1m-1 1h1m-1 1h1m-1 1h1m1 0h1m8 0h2M2 19h1m1 0h1m8 0h2M2 20h1m1 0h1m8 0h2M2 21h1m1 0h1m8 0h2M2 22h1m1 0h1m8 0h2M2 23h1m1 0h1m-3 1h1m1 0h1m-3 1h1m-1 1h1m3 0h5m-9 1h1m-1 1h1"/><path stroke="#680000" d="M10 13h1m0 16h1m-2 1h1"/><path stroke="#100038" d="M11 13h1" opacity=".91"/><path stroke="#3000d0" d="M12 13h1m-2 1h1m11 9h1m-9 3h1m-2 1h1"/><path stroke="#9800e0" d="M13 13h1m1 0h1m-3 2h1m9 3h1M9 19h1m13 1h1M9 21h1m13 1h1"/><path stroke="#4800e0" d="M14 13h1m1 0h1m-3 2h1m-6 3h1m13 1h1M9 20h1m13 1h1M9 22h1m0 1h1"/><path stroke="#9800c8" d="M17 13h1m-2 13h1"/><path stroke="#180068" d="M18 13h1m-1 16h1"/><path stroke="#383810" d="M19 13h1" opacity=".91"/><path stroke="#d0d000" d="M20 13h1m5 0h1m-8 1h1m0 2h1m5 4h1m-1 5h1"/><path stroke="#e0e000" d="M21 13h5m-4 2h4m-8 1h1m-1 1h1m0 1h1m9 5h1m-11 1h1m9 0h1m-7 2h3"/><path stroke="#383800" d="M27 13h1m-1 7h1" opacity=".91"/><path stroke="#202000" d="M28 13h1m1 2h1m-5 2h1m1 3h1m1 2h1m-13 1h1" opacity=".784"/><path stroke="#101000" d="M29 13h1m-1 7h1" opacity=".188"/><path stroke="red" d="M3 14h5m-5 1h2m-2 1h1m-1 1h1m-1 1h1m-1 1h1m-1 1h1m-1 1h1m-1 1h1m-1 1h1m-1 1h1m-1 1h1m-1 1h1m-1 1h8"/><path stroke="#f00000" d="M8 14h1m-4 1h3m-4 1h1m-1 1h1m7 8h1m-9 3h6"/><path stroke="maroon" d="M9 14h1m-5 3h1m8 7h1"/><path stroke="#200030" d="M10 14h1"/><path stroke="#a000ff" d="M12 14h1m1 0h1m-4 1h1m3 12h1"/><path stroke="#6000ff" d="M13 14h1m1 0h1"/><path stroke="#a000f0" d="M16 14h1m-7 4h1m11 1h1m-13 1h1m11 1h1m-13 1h1"/><path stroke="#300080" d="M17 14h1m-7 4h1m9 1h1m-11 1h1m9 1h1"/><path stroke="#383018" d="M18 14h1"/><path stroke="#ff0" d="M20 14h6m-7 1h2m6 0h1m-9 1h1m6 5h1m0 1h2m-1 1h1m-1 1h1m-9 1h1m6 0h2m-9 1h2m5 0h1m-6 1h5"/><path stroke="#f8f800" d="M26 14h1m1 1h1m-3 11h1"/><path stroke="#e8e800" d="M27 14h1m-7 1h1m5 1h2m-10 1h1m7 4h1m-2 1h1m0 2h1m-9 2h1m2 0h1m5 0h1m-9 1h1m6 0h1m-6 1h1m3 0h1"/><path stroke="#c8c800" d="M28 14h1m-11 1h1m0 4h1m5 1h1m2 1h1m0 1h1m-10 2h1"/><path stroke="#404000" d="M29 14h1m-1 7h1" opacity=".816"/><path stroke="#080800" d="M30 14h1m-1 4h1m-14 2h1m0 1h1m11 0h1m-1 8h1m-2 1h1" opacity=".188"/><path stroke="#d80000" d="M8 15h1m5 8h1m-3 3h1m-2 1h1"/><path stroke="#280018" d="M9 15h1"/><path stroke="#3000c8" d="M10 15h1m12 2h1"/><path stroke="#5800f0" d="M12 15h1m-3 2h1m11 1h1m-13 1h1m11 1h1m-13 1h1m11 1h1m-8 6h1"/><path stroke="#a000e8" d="M15 15h1m-6 1h1"/><path stroke="#3800d8" d="M16 15h1"/><path stroke="#201828" d="M17 15h1"/><path stroke="#f0f000" d="M26 15h1m0 8h1m-9 2h1m1 2h1m1 1h3"/><path stroke="#c0c000" d="M29 15h1"/><path stroke="#a00000" d="M5 16h1M3 29h1"/><path stroke="#900000" d="M6 16h2m5 9h1M4 29h7"/><path stroke="#780000" d="M8 16h1"/><path stroke="#400038" d="M9 16h1"/><path stroke="#4800e8" d="M11 16h1m4 11h1"/><path stroke="#580080" d="M12 16h1"/><path stroke="#400028" d="M13 16h1"/><path stroke="#200020" d="M14 16h1"/><path stroke="#280030" d="M15 16h1"/><path stroke="#480070" d="M16 16h1m-1 14h1m1 0h1"/><path stroke="#282010" d="M17 16h1m2 2h1"/><path stroke="#383810" d="M21 16h1m-2 1h1"/><path stroke="#382020" d="M22 16h1"/><path stroke="#202018" d="M23 16h1"/><path stroke="#202008" d="M24 16h1m-2 9h1"/><path stroke="#303000" d="M25 16h1" opacity=".91"/><path stroke="olive" d="M26 16h1m1 1h1m-11 2h1m6 3h1m0 1h1m-9 3h1m9 2h1m-8 1h1"/><path stroke="#880" d="M29 16h1m-1 10h1"/><path stroke="#101000" d="M30 16h1m-3 2h1m1 8h1m-1 1h1m-10 4h1" opacity=".878"/><path stroke="#700000" d="M6 17h1m6 9h1M2 30h8"/><path stroke="#600000" d="M7 17h1"/><path stroke="#300018" d="M8 17h1m3 0h1"/><path stroke="#a000c8" d="M9 17h1"/><path stroke="#500090" d="M11 17h1m5 12h1"/><path stroke="#200010" d="M15 17h1m-4 1h1m-1 2h1m-1 2h1"/><path stroke="#080058" d="M16 17h1"/><path stroke="#202010" d="M17 17h1m2 2h1"/><path stroke="#280070" d="M21 17h1m-7 13h1m1 0h1"/><path stroke="#9800d8" d="M22 17h1"/><path stroke="#000020" d="M24 17h1" opacity=".878"/><path stroke="#707000" d="M27 17h1m1 10h1m-8 3h4"/><path stroke="#686800" d="M29 17h1M18 27h1m0 1h1m9 0h1m-10 1h1m7 0h1m-8 1h1m4 0h1"/><path stroke="#101000" d="M30 17h1m-2 1h1m0 10h1m-3 2h1" opacity=".784"/><path stroke="#300000" d="M5 18h1"/><path stroke="#100000" d="M6 18h2M2 31h1m7 0h1" opacity=".91"/><path stroke="#000010" d="M16 18h1m-4 13h1" opacity=".91"/><path stroke="#202000" d="M17 18h1"/><path stroke="#d8d800" d="M18 18h1m6 3h1m3 4h1"/><path stroke="#500080" d="M21 18h1m-11 1h1m9 1h1m-11 1h1m9 1h1m-9 7h1"/><path stroke="#080800" d="M26 18h1" opacity=".282"/><path stroke="#101000" d="M27 18h1m-11 1h1m1 2h1" opacity=".816"/><path stroke="#280010" d="M12 19h1m-1 2h1"/><path stroke="#080820" d="M24 19h1"/><path stroke="#202000" d="M25 19h1m-7 4h1m7 7h1" opacity=".91"/><path stroke="#202000" d="M26 19h1m-9 1h1m-2 4h1m11 5h1" opacity=".816"/><path stroke="#080800" d="M27 19h1m-3 5h1" opacity=".314"/><path stroke="#080020" d="M8 20h1m-1 2h1m15 1h1" opacity=".878"/><path stroke="#606800" d="M19 20h1"/><path stroke="#181010" d="M20 20h1"/><path stroke="#301820" d="M24 20h1"/><path stroke="#180020" d="M8 21h1" opacity=".878"/><path stroke="#080010" d="M20 21h1m-6 10h1m1 0h1"/><path stroke="#202020" d="M24 21h1"/><path stroke="#200078" d="M11 22h1"/><path stroke="#100010" d="M20 22h1" opacity=".91"/><path stroke="#281020" d="M24 22h1"/><path stroke="#200020" d="M8 23h1" opacity=".784"/><path stroke="#a000d0" d="M9 23h1"/><path stroke="#080028" d="M11 23h1"/><path stroke="#380000" d="M12 23h1m-8 2h1m6 2h1"/><path stroke="#e80000" d="M13 23h1m-1 1h1M4 25h1m0 1h1m4 2h1"/><path stroke="#181800" d="M17 23h1" opacity=".188"/><path stroke="#181810" d="M20 23h1"/><path stroke="#280878" d="M21 23h1"/><path stroke="#9800f0" d="M22 23h1m-9 5h1m1 0h1"/><path stroke="#182000" d="M25 23h1" opacity=".878"/><path stroke="#202000" d="M30 23h1m-1 1h1m-7 1h1m5 0h1" opacity=".878"/><path stroke="#300038" d="M9 24h1" opacity=".91"/><path stroke="#9800b0" d="M10 24h1"/><path stroke="#480020" d="M11 24h1"/><path stroke="#100000" d="M15 24h1" opacity=".878"/><path stroke="#b8b800" d="M18 24h1"/><path stroke="#383028" d="M21 24h1"/><path stroke="#1800b0" d="M22 24h1"/><path stroke="#080038" d="M23 24h1" opacity=".91"/><path stroke="#000008" d="M24 24h1" opacity=".314"/><path stroke="#484800" d="M26 24h1" opacity=".91"/><path stroke="#200008" d="M9 25h1"/><path stroke="#500018" d="M10 25h1"/><path stroke="#d00008" d="M11 25h1"/><path stroke="#180008" d="M14 25h1"/><path stroke="#080018" d="M15 25h1"/><path stroke="#181008" d="M17 25h1"/><path stroke="#909000" d="M18 25h1m1 3h1m1 1h5"/><path stroke="#d0d008" d="M21 25h1"/><path stroke="#303818" d="M22 25h1"/><path stroke="#383800" d="M25 25h1" opacity=".878"/><path stroke="#f80000" d="M4 26h1m6 0h1m-9 2h1"/><path stroke="#100030" d="M14 26h1m-2 1h1"/><path stroke="#281018" d="M17 26h1"/><path stroke="#181038" d="M17 27h1"/><path stroke="#989800" d="M19 27h1m8 0h1m-8 1h1m5 0h1"/><path stroke="#800" d="M11 28h1"/><path stroke="#100018" d="M12 28h1"/><path stroke="#2000c0" d="M13 28h1"/><path stroke="#2800c0" d="M17 28h1"/><path stroke="#181828" d="M18 28h1"/><path stroke="#180010" d="M12 29h1"/><path stroke="#400090" d="M14 29h1m1 0h1"/><path stroke="#580090" d="M15 29h1"/><path stroke="#787800" d="M27 29h1"/><path stroke="#100000" d="M1 30h1" opacity=".784"/><path stroke="#000010" d="M12 30h1m6 1h1" opacity=".878"/><path stroke="#180060" d="M13 30h1"/><path stroke="#500070" d="M14 30h1"/><path stroke="#100058" d="M19 30h1"/><path stroke="#181810" d="M20 30h1" opacity=".91"/><path stroke="#080000" d="M1 31h1m9 0h1" opacity=".22"/><path stroke="#100000" d="M3 31h7"/><path stroke="#000008" d="M12 31h1" opacity=".22"/><path stroke="#100010" d="M14 31h1m1 0h1m1 0h1"/><path stroke="#080808" d="M20 31h1" opacity=".345"/><path stroke="#101000" d="M22 31h4"/><path stroke="#101000" d="M26 31h1" opacity=".91"/><path stroke="#080800" d="M27 31h1" opacity=".251"/></svg>