<svg xmlns="http://www.w3.org/2000/svg" width="16" height="16" shape-rendering="crispEdges" viewBox="0 -0.5 16 16"><path stroke="#000" d="M0 0h1M0 1h1M0 2h1M0 3h1M0 4h1" opacity=".125"/><path stroke="#404040" d="M1 0h1" opacity=".878"/><path stroke="#585858" d="M2 0h1" opacity=".973"/><path stroke="#202020" d="M3 0h1" opacity=".345"/><path stroke="#000" d="M5 0h1" opacity=".063"/><path stroke="#505050" d="M6 0h1" opacity=".722"/><path stroke="#505050" d="M7 0h1"/><path stroke="#101010" d="M8 0h1M3 5h1" opacity=".502"/><path stroke="#282828" d="M9 0h1" opacity=".314"/><path stroke="#505050" d="M10 0h1" opacity=".784"/><path stroke="#585858" d="M11 0h1M2 3h1"/><path stroke="#505050" d="M12 0h1M2 4h1" opacity=".941"/><path stroke="#303030" d="M13 0h1m-3 2h1" opacity=".565"/><path stroke="#101010" d="M14 0h1" opacity=".125"/><path stroke="#707070" d="M1 1h1" opacity=".878"/><path stroke="#b0b0b0" d="M2 1h1"/><path stroke="#484848" d="M3 1h1m6 3h1" opacity=".69"/><path stroke="#000" d="M4 1h1" opacity=".031"/><path stroke="#202020" d="M5 1h1" opacity=".314"/><path stroke="#909090" d="M6 1h1" opacity=".941"/><path stroke="#909090" d="M7 1h1"/><path stroke="#181818" d="M8 1h1M8 2h1M8 4h1" opacity=".596"/><path stroke="#606060" d="M9 1h1M9 2h1" opacity=".816"/><path stroke="#707070" d="M10 1h1m1 2h1" opacity=".941"/><path stroke="#303030" d="M11 1h1" opacity=".533"/><path stroke="#585858" d="M12 1h1" opacity=".753"/><path stroke="#686868" d="M13 1h1M7 5h1"/><path stroke="#181818" d="M14 1h1" opacity=".471"/><path stroke="#686868" d="M1 2h1M1 3h1M1 4h1" opacity=".878"/><path stroke="#a0a0a0" d="M2 2h1"/><path stroke="#787878" d="M3 2h1" opacity=".941"/><path stroke="#101010" d="M4 2h1m4 1h1" opacity=".376"/><path stroke="#585858" d="M5 2h1" opacity=".69"/><path stroke="#a8a8a8" d="M6 2h1"/><path stroke="#888" d="M7 2h1M4 4h1"/><path stroke="#686868" d="M10 2h1" opacity=".941"/><path stroke="#181818" d="M12 2h2" opacity=".565"/><path stroke="#080808" d="M14 2h1" opacity=".251"/><path stroke="#787878" d="M3 3h1m3 0h1M7 4h1"/><path stroke="#505050" d="M4 3h1" opacity=".816"/><path stroke="gray" d="M5 3h1M5 4h1" opacity=".941"/><path stroke="#606060" d="M6 3h1"/><path stroke="#202020" d="M8 3h1" opacity=".533"/><path stroke="#404040" d="M10 3h1M9 4h1" opacity=".753"/><path stroke="#585858" d="M11 3h1M1 5h1" opacity=".91"/><path stroke="#484848" d="M13 3h1" opacity=".627"/><path stroke="#080808" d="M14 3h1" opacity=".094"/><path stroke="#484848" d="M3 4h1" opacity=".816"/><path stroke="#303030" d="M6 4h1" opacity=".816"/><path stroke="#000" d="M11 4h1" opacity=".314"/><path stroke="#686868" d="M12 4h1" opacity=".753"/><path stroke="gray" d="M13 4h1"/><path stroke="#202020" d="M14 4h1" opacity=".471"/><path stroke="#000" d="M0 5h1" opacity=".188"/><path stroke="#484848" d="M2 5h1" opacity=".878"/><path stroke="#707878" d="M4 5h1" opacity=".973"/><path stroke="#505050" d="M5 5h1" opacity=".69"/><path stroke="#202020" d="M6 5h1" opacity=".596"/><path stroke="#101810" d="M8 5h1" opacity=".627"/><path stroke="#505058" d="M9 5h1" opacity=".69"/><path stroke="#707078" d="M10 5h1" opacity=".973"/><path stroke="#505050" d="M11 5h1" opacity=".878"/><path stroke="#707078" d="M12 5h1" opacity=".941"/><path stroke="#686870" d="M13 5h1" opacity=".91"/><path stroke="#181818" d="M14 5h1" opacity=".282"/><path stroke="#200000" d="M0 6h1" opacity=".533"/><path stroke="#780808" d="M1 6h1m2 0h1"/><path stroke="#900808" d="M2 6h1"/><path stroke="#900000" d="M3 6h1" opacity=".91"/><path stroke="#300828" d="M5 6h1" opacity=".784"/><path stroke="#400088" d="M6 6h1" opacity=".878"/><path stroke="#501090" d="M7 6h1"/><path stroke="#400080" d="M8 6h1" opacity=".941"/><path stroke="#302830" d="M9 6h1" opacity=".784"/><path stroke="#909018" d="M10 6h1" opacity=".941"/><path stroke="#989818" d="M11 6h2"/><path stroke="#707008" d="M13 6h1" opacity=".816"/><path stroke="#303000" d="M14 6h1" opacity=".314"/><path stroke="#400000" d="M0 7h1M0 8h1M0 9h1m-1 1h1m-1 1h1m-1 1h1m-1 1h1" opacity=".565"/><path stroke="#e00000" d="M1 7h1M1 8h1M1 9h1m-1 1h1m-1 1h1m-1 1h1m-1 1h1m1 0h3"/><path stroke="#f80000" d="M2 7h2"/><path stroke="#a00010" d="M4 7h1"/><path stroke="#5000a0" d="M5 7h1"/><path stroke="#7000e8" d="M6 7h2"/><path stroke="#581098" d="M8 7h1"/><path stroke="#a8a810" d="M9 7h1"/><path stroke="#f0f000" d="M10 7h1m-1 6h1m2 0h1"/><path stroke="#e0e000" d="M11 7h2"/><path stroke="#e8e800" d="M13 7h1m-2 6h1"/><path stroke="#b0b000" d="M14 7h1" opacity=".91"/><path stroke="#282800" d="M15 7h1" opacity=".345"/><path stroke="#c00000" d="M2 8h1m-1 6h2"/><path stroke="#780000" d="M3 8h1"/><path stroke="#600050" d="M4 8h1"/><path stroke="#6000c8" d="M5 8h1"/><path stroke="#680048" d="M6 8h1"/><path stroke="#580028" d="M7 8h1"/><path stroke="#302038" d="M8 8h1"/><path stroke="#d0d000" d="M9 8h1m3 3h1"/><path stroke="#706028" d="M10 8h1"/><path stroke="#502068" d="M11 8h1"/><path stroke="#302818" d="M12 8h1" opacity=".784"/><path stroke="#889000" d="M13 8h1" opacity=".878"/><path stroke="#880" d="M14 8h1m-5 6h1"/><path stroke="#202000" d="M15 8h1" opacity=".533"/><path stroke="#900000" d="M2 9h1" opacity=".941"/><path stroke="#100000" d="M3 9h1" opacity=".627"/><path stroke="#480088" d="M4 9h1" opacity=".941"/><path stroke="#5800b0" d="M5 9h1m-1 1h1"/><path stroke="#880010" d="M6 9h1m-1 1h1"/><path stroke="#800" d="M7 9h1" opacity=".941"/><path stroke="#182008" d="M8 9h1" opacity=".753"/><path stroke="#a0a000" d="M9 9h1m3 5h1"/><path stroke="#482050" d="M10 9h1"/><path stroke="#6800d0" d="M11 9h1m-1 1h1"/><path stroke="#281828" d="M12 9h1" opacity=".753"/><path stroke="#202000" d="M13 9h1" opacity=".596"/><path stroke="#101000" d="M14 9h1" opacity=".502"/><path stroke="#101000" d="M15 9h1" opacity=".125"/><path stroke="#980000" d="M2 10h1m4 0h1m-6 1h1" opacity=".878"/><path stroke="#000" d="M3 10h1" opacity=".251"/><path stroke="#480098" d="M4 10h1" opacity=".878"/><path stroke="#000800" d="M8 10h1" opacity=".22"/><path stroke="#303800" d="M9 10h1" opacity=".627"/><path stroke="#380850" d="M10 10h1"/><path stroke="#786820" d="M12 10h1"/><path stroke="#c0c000" d="M13 10h1" opacity=".941"/><path stroke="#787800" d="M14 10h1" opacity=".627"/><path stroke="#181800" d="M15 10h1" opacity=".125"/><path stroke="#000" d="M3 11h1" opacity=".22"/><path stroke="#500090" d="M4 11h1" opacity=".816"/><path stroke="#480098" d="M5 11h1"/><path stroke="#900008" d="M6 11h1"/><path stroke="#900000" d="M7 11h1" opacity=".878"/><path stroke="#001000" d="M8 11h1" opacity=".22"/><path stroke="#303000" d="M9 11h1" opacity=".565"/><path stroke="#301050" d="M10 11h1" opacity=".973"/><path stroke="#5800c8" d="M11 11h1"/><path stroke="#483820" d="M12 11h1" opacity=".91"/><path stroke="#d8d800" d="M14 11h1m-1 1h1"/><path stroke="#383800" d="M15 11h1" opacity=".533"/><path stroke="#980000" d="M2 12h1" opacity=".941"/><path stroke="#300000" d="M3 12h1" opacity=".565"/><path stroke="#480028" d="M4 12h1" opacity=".784"/><path stroke="#880038" d="M5 12h1"/><path stroke="#b80000" d="M6 12h1m-6 2h1"/><path stroke="#400010" d="M7 12h1" opacity=".941"/><path stroke="#281818" d="M8 12h1" opacity=".753"/><path stroke="#b0b000" d="M9 12h1"/><path stroke="#a8a818" d="M10 12h1"/><path stroke="#382840" d="M11 12h1" opacity=".941"/><path stroke="#383808" d="M12 12h1" opacity=".722"/><path stroke="#c8c800" d="M13 12h1" opacity=".941"/><path stroke="#383800" d="M15 12h1" opacity=".565"/><path stroke="#f00000" d="M2 13h1"/><path stroke="#680018" d="M6 13h1"/><path stroke="#4800a8" d="M7 13h1m0 1h1"/><path stroke="#481080" d="M8 13h1"/><path stroke="#909000" d="M9 13h1"/><path stroke="#e0e800" d="M11 13h1"/><path stroke="#989800" d="M14 13h1"/><path stroke="#202000" d="M15 13h1" opacity=".565"/><path stroke="#380000" d="M0 14h1" opacity=".565"/><path stroke="#c80000" d="M4 14h1"/><path stroke="#900000" d="M5 14h1"/><path stroke="#300058" d="M6 14h1"/><path stroke="#6000c0" d="M7 14h1"/><path stroke="#383030" d="M9 14h1"/><path stroke="#c0c000" d="M11 14h2"/><path stroke="#585800" d="M14 14h1" opacity=".878"/><path stroke="#181800" d="M15 14h1" opacity=".345"/><path stroke="#200000" d="M0 15h1" opacity=".376"/><path stroke="#480000" d="M1 15h1" opacity=".941"/><path stroke="#480000" d="M2 15h3"/><path stroke="#380000" d="M5 15h1" opacity=".784"/><path stroke="#180030" d="M6 15h1" opacity=".784"/><path stroke="#280048" d="M7 15h2"/><path stroke="#180040" d="M9 15h1" opacity=".941"/><path stroke="#303008" d="M10 15h1" opacity=".847"/><path stroke="#484800" d="M11 15h2"/><path stroke="#383800" d="M13 15h1" opacity=".784"/><path stroke="#181800" d="M14 15h1" opacity=".314"/></svg>