<svg xmlns="http://www.w3.org/2000/svg" width="128" height="128" shape-rendering="crispEdges" viewBox="0 -0.5 128 128"><path stroke="#000" d="M8 0h16m28 0h16m16 0h20M8 1h16m28 0h16m16 0h20M8 2h16m28 0h16m16 0h20M8 3h16m28 0h16m16 0h20M8 4h4m12 0h4m20 0h4m12 0h4m8 0h8m20 0h8M8 5h4m12 0h4m20 0h4m12 0h4m8 0h8m20 0h8M8 6h4m12 0h4m20 0h4m12 0h4m8 0h8m20 0h8M8 7h4m12 0h4m20 0h4m12 0h4m8 0h8m20 0h8M8 8h4m12 0h4m20 0h4m12 0h4m4 0h4m12 0h12m12 0h4M8 9h4m12 0h4m20 0h4m12 0h4m4 0h4m12 0h12m12 0h4M8 10h4m12 0h4m20 0h4m12 0h4m4 0h4m12 0h12m12 0h4M8 11h4m12 0h4m20 0h4m12 0h4m4 0h4m12 0h12m12 0h4M8 12h4m16 0h4m12 0h4m16 0h4m4 0h4m8 0h4m12 0h4m8 0h4M8 13h4m16 0h4m12 0h4m16 0h4m4 0h4m8 0h4m12 0h4m8 0h4M8 14h4m16 0h4m12 0h4m16 0h4m4 0h4m8 0h4m12 0h4m8 0h4M8 15h4m16 0h4m12 0h4m16 0h4m4 0h4m8 0h4m12 0h4m8 0h4M8 16h4m16 0h4m12 0h4m16 0h4m4 0h4m8 0h4m12 0h16M8 17h4m16 0h4m12 0h4m16 0h4m4 0h4m8 0h4m12 0h16M8 18h4m16 0h4m12 0h4m16 0h4m4 0h4m8 0h4m12 0h16M8 19h4m16 0h4m12 0h4m16 0h4m4 0h4m8 0h4m12 0h16M8 20h4m20 0h4m4 0h4m20 0h4m4 0h4m12 0h12M8 21h4m20 0h4m4 0h4m20 0h4m4 0h4m12 0h12M8 22h4m20 0h4m4 0h4m20 0h4m4 0h4m12 0h12M8 23h4m20 0h4m4 0h4m20 0h4m4 0h4m12 0h12M8 24h4m8 0h4m8 0h4m4 0h4m8 0h4m8 0h4m8 0h8m16 0h8M8 25h4m8 0h4m8 0h4m4 0h4m8 0h4m8 0h4m8 0h8m16 0h8M8 26h4m8 0h4m8 0h4m4 0h4m8 0h4m8 0h4m8 0h8m16 0h8M8 27h4m8 0h4m8 0h4m4 0h4m8 0h4m8 0h4m8 0h8m16 0h8M8 28h4m8 0h8m8 0h4m8 0h8m8 0h4m16 0h12m12 0h4M8 29h4m8 0h8m8 0h4m8 0h8m8 0h4m16 0h12m12 0h4M8 30h4m8 0h8m8 0h4m8 0h8m8 0h4m16 0h12m12 0h4M8 31h4m8 0h8m8 0h4m8 0h8m8 0h4m16 0h12m12 0h4M8 32h4m8 0h8m8 0h4m8 0h8m8 0h4m4 0h12m12 0h4m12 0h4M8 33h4m8 0h8m8 0h4m8 0h8m8 0h4m4 0h12m12 0h4m12 0h4M8 34h4m8 0h8m8 0h4m8 0h8m8 0h4m4 0h12m12 0h4m12 0h4M8 35h4m8 0h8m8 0h4m8 0h8m8 0h4m4 0h12m12 0h4m12 0h4M8 36h4m8 0h4m4 0h4m12 0h4m4 0h4m8 0h4m4 0h4m8 0h4m12 0h4m8 0h4M8 37h4m8 0h4m4 0h4m12 0h4m4 0h4m8 0h4m4 0h4m8 0h4m12 0h4m8 0h4M8 38h4m8 0h4m4 0h4m12 0h4m4 0h4m8 0h4m4 0h4m8 0h4m12 0h4m8 0h4M8 39h4m8 0h4m4 0h4m12 0h4m4 0h4m8 0h4m4 0h4m8 0h4m12 0h4m8 0h4M8 40h4m8 0h4m4 0h4m12 0h4m4 0h4m8 0h4m4 0h4m8 0h16m12 0h4M8 41h4m8 0h4m4 0h4m12 0h4m4 0h4m8 0h4m4 0h4m8 0h16m12 0h4M8 42h4m8 0h4m4 0h4m12 0h4m4 0h4m8 0h4m4 0h4m8 0h16m12 0h4M8 43h4m8 0h4m4 0h4m12 0h4m4 0h4m8 0h4m4 0h4m8 0h16m12 0h4M8 44h4m8 0h4m8 0h4m4 0h4m8 0h4m8 0h4m8 0h4m28 0h4M8 45h4m8 0h4m8 0h4m4 0h4m8 0h4m8 0h4m8 0h4m28 0h4M8 46h4m8 0h4m8 0h4m4 0h4m8 0h4m8 0h4m8 0h4m28 0h4M8 47h4m8 0h4m8 0h4m4 0h4m8 0h4m8 0h4m8 0h4m28 0h4M4 48h40m4 0h28m4 0h28M4 49h40m4 0h28m4 0h28M4 50h40m4 0h28m4 0h28M4 51h40m4 0h28m4 0h28M4 52h4m36 0h4m28 0h4m28 0h8M4 53h4m36 0h4m28 0h4m28 0h8M4 54h4m36 0h4m28 0h4m28 0h8M4 55h4m36 0h4m28 0h4m28 0h8M4 56h4m32 0h4m28 0h4m40 0h4M4 57h4m32 0h4m28 0h4m40 0h4M4 58h4m32 0h4m28 0h4m40 0h4M4 59h4m32 0h4m28 0h4m40 0h4M4 60h4m28 0h4m28 0h4m48 0h4M4 61h4m28 0h4m28 0h4m48 0h4M4 62h4m28 0h4m28 0h4m48 0h4M4 63h4m28 0h4m28 0h4m48 0h4M4 64h4m28 0h4m12 0h12m4 0h4m12 0h20m16 0h4M4 65h4m28 0h4m12 0h12m4 0h4m12 0h20m16 0h4M4 66h4m28 0h4m12 0h12m4 0h4m12 0h20m16 0h4M4 67h4m28 0h4m12 0h12m4 0h4m12 0h20m16 0h4M4 68h4m24 0h4m12 0h4m8 0h4m4 0h4m8 0h4m12 0h4m4 0h4m12 0h4M4 69h4m24 0h4m12 0h4m8 0h4m4 0h4m8 0h4m12 0h4m4 0h4m12 0h4M4 70h4m24 0h4m12 0h4m8 0h4m4 0h4m8 0h4m12 0h4m4 0h4m12 0h4M4 71h4m24 0h4m12 0h4m8 0h4m4 0h4m8 0h4m12 0h4m4 0h4m12 0h4M4 72h4m12 0h16m12 0h4m8 0h12m8 0h4m12 0h4m8 0h12M4 73h4m12 0h16m12 0h4m8 0h12m8 0h4m12 0h4m8 0h12M4 74h4m12 0h16m12 0h4m8 0h12m8 0h4m12 0h4m8 0h12M4 75h4m12 0h16m12 0h4m8 0h12m8 0h4m12 0h4m8 0h12M4 76h4m12 0h4m8 0h4m12 0h4m8 0h4m4 0h4m8 0h4m12 0h12M4 77h4m12 0h4m8 0h4m12 0h4m8 0h4m4 0h4m8 0h4m12 0h12M4 78h4m12 0h4m8 0h4m12 0h4m8 0h4m4 0h4m8 0h4m12 0h12M4 79h4m12 0h4m8 0h4m12 0h4m8 0h4m4 0h4m8 0h4m12 0h12M4 80h4m12 0h4m8 0h4m12 0h4m8 0h4m8 0h4m4 0h4m12 0h4m8 0h8M4 81h4m12 0h4m8 0h4m12 0h4m8 0h4m8 0h4m4 0h4m12 0h4m8 0h8M4 82h4m12 0h4m8 0h4m12 0h4m8 0h4m8 0h4m4 0h4m12 0h4m8 0h8M4 83h4m12 0h4m8 0h4m12 0h4m8 0h4m8 0h4m4 0h4m12 0h4m8 0h8M4 84h4m12 0h4m8 0h4m12 0h4m8 0h4m12 0h8m12 0h4m16 0h4M4 85h4m12 0h4m8 0h4m12 0h4m8 0h4m12 0h8m12 0h4m16 0h4M4 86h4m12 0h4m8 0h4m12 0h4m8 0h4m12 0h8m12 0h4m16 0h4M4 87h4m12 0h4m8 0h4m12 0h4m8 0h4m12 0h8m12 0h4m16 0h4M4 88h4m12 0h4m8 0h4m12 0h4m8 0h4m16 0h4m12 0h4m20 0h4M4 89h4m12 0h4m8 0h4m12 0h4m8 0h4m16 0h4m12 0h4m20 0h4M4 90h4m12 0h4m8 0h4m12 0h4m8 0h4m16 0h4m12 0h4m20 0h4M4 91h4m12 0h4m8 0h4m12 0h4m8 0h4m16 0h4m12 0h4m20 0h4M4 92h4m12 0h4m8 0h4m8 0h8m8 0h4m8 0h12m12 0h8m16 0h4M4 93h4m12 0h4m8 0h4m8 0h8m8 0h4m8 0h12m12 0h8m16 0h4M4 94h4m12 0h4m8 0h4m8 0h8m8 0h4m8 0h12m12 0h8m16 0h4M4 95h4m12 0h4m8 0h4m8 0h8m8 0h4m8 0h12m12 0h8m16 0h4M4 96h4m12 0h4m12 0h4m4 0h4m12 0h4m4 0h4m12 0h4m4 0h4m8 0h4m12 0h4M4 97h4m12 0h4m12 0h4m4 0h4m12 0h4m4 0h4m12 0h4m4 0h4m8 0h4m12 0h4M4 98h4m12 0h4m12 0h4m4 0h4m12 0h4m4 0h4m12 0h4m4 0h4m8 0h4m12 0h4M4 99h4m12 0h4m12 0h4m4 0h4m12 0h4m4 0h4m12 0h4m4 0h4m8 0h4m12 0h4M4 100h4m12 0h24m12 0h16m16 0h16m16 0h4M4 101h4m12 0h24m12 0h16m16 0h16m16 0h4M4 102h4m12 0h24m12 0h16m16 0h16m16 0h4M4 103h4m12 0h24m12 0h16m16 0h16m16 0h4M4 104h4m48 0h4m8 0h4m48 0h4M4 105h4m48 0h4m8 0h4m48 0h4M4 106h4m48 0h4m8 0h4m48 0h4M4 107h4m48 0h4m8 0h4m48 0h4M4 108h4m40 0h8m12 0h4m48 0h4M4 109h4m40 0h8m12 0h4m48 0h4M4 110h4m40 0h8m12 0h4m48 0h4M4 111h4m40 0h8m12 0h4m48 0h4M4 112h4m40 0h4m20 0h4m44 0h4M4 113h4m40 0h4m20 0h4m44 0h4M4 114h4m40 0h4m20 0h4m44 0h4M4 115h4m40 0h4m20 0h4m44 0h4M4 116h4m40 0h4m24 0h4m36 0h4M4 117h4m40 0h4m24 0h4m36 0h4M4 118h4m40 0h4m24 0h4m36 0h4M4 119h4m40 0h4m24 0h4m36 0h4M4 120h4m36 0h8m28 0h4m24 0h8M4 121h4m36 0h8m28 0h4m24 0h8M4 122h4m36 0h8m28 0h4m24 0h8M4 123h4m36 0h8m28 0h4m24 0h8M8 124h36m8 0h28m4 0h24M8 125h36m8 0h28m4 0h24M8 126h36m8 0h28m4 0h24M8 127h36m8 0h28m4 0h24"/><path stroke="silver" d="M12 4h8m32 0h8m24 0h16M12 5h8m32 0h8m24 0h16M12 6h8m32 0h8m24 0h16M12 7h8m32 0h8m24 0h16M12 8h12m28 0h8m16 0h8m16 0h8M12 9h12m28 0h8m16 0h8m16 0h8m-96 1h12m28 0h8m16 0h8m16 0h8m-96 1h12m28 0h8m16 0h8m16 0h8m-96 1h12m24 0h12m16 0h4m24 0h4m-96 1h12m24 0h12m16 0h4m24 0h4m-96 1h12m24 0h12m16 0h4m24 0h4m-96 1h12m24 0h12m16 0h4m24 0h4m-96 1h4m4 0h8m20 0h12m16 0h4m-68 1h4m4 0h8m20 0h12m16 0h4m-68 1h4m4 0h8m20 0h12m16 0h4m-68 1h4m4 0h8m20 0h12m16 0h4m-68 1h4m8 0h4m16 0h8m4 0h4m16 0h4m-68 1h4m8 0h4m16 0h8m4 0h4m16 0h4m-68 1h4m8 0h4m16 0h8m4 0h4m16 0h4m-68 1h4m8 0h4m16 0h8m4 0h4m16 0h4m-68 1h4m8 0h8m12 0h8m4 0h4m24 0h12m-84 1h4m8 0h8m12 0h8m4 0h4m24 0h12m-84 1h4m8 0h8m12 0h8m4 0h4m24 0h12m-84 1h4m8 0h8m12 0h8m4 0h4m24 0h12m-84 1h4m12 0h4m8 0h8m8 0h4m36 0h8m-92 1h4m12 0h4m8 0h8m8 0h4m36 0h8m-92 1h4m12 0h4m8 0h8m8 0h4m36 0h8m-92 1h4m12 0h4m8 0h8m8 0h4m36 0h8m-92 1h4m12 0h8m4 0h8m8 0h4m40 0h8m-96 1h4m12 0h8m4 0h8m8 0h4m40 0h8m-96 1h4m12 0h8m4 0h8m8 0h4m40 0h8m-96 1h4m12 0h8m4 0h8m8 0h4m40 0h8m-96 1h4m16 0h4m4 0h4m12 0h4m16 0h8m20 0h4m-96 1h4m16 0h4m4 0h4m12 0h4m16 0h8m20 0h4m-96 1h4m16 0h4m4 0h4m12 0h4m16 0h8m20 0h4m-96 1h4m16 0h4m4 0h4m12 0h4m16 0h8m20 0h4m-96 1h4m16 0h12m12 0h4m16 0h8m16 0h8m-96 1h4m16 0h12m12 0h4m16 0h8m16 0h8m-96 1h4m16 0h12m12 0h4m16 0h8m16 0h8m-96 1h4m16 0h12m12 0h4m16 0h8m16 0h8m-96 1h4m20 0h4m16 0h4m20 0h24m-92 1h4m20 0h4m16 0h4m20 0h24m-92 1h4m20 0h4m16 0h4m20 0h24m-92 1h4m20 0h4m16 0h4m20 0h24"/><path stroke="gray" d="M20 4h4m36 0h4m36 0h4M20 5h4m36 0h4m36 0h4M20 6h4m36 0h4m36 0h4M20 7h4m36 0h4m36 0h4M60 8h4m20 0h4m20 0h4M60 9h4m20 0h4m20 0h4m-52 1h4m20 0h4m20 0h4m-52 1h4m20 0h4m20 0h4m-88 1h4m32 0h4m16 0h4m24 0h4m-88 1h4m32 0h4m16 0h4m24 0h4m-88 1h4m32 0h4m16 0h4m24 0h4m-88 1h4m32 0h4m16 0h4m24 0h4m-96 1h4m40 0h4m16 0h4m-68 1h4m40 0h4m16 0h4m-68 1h4m40 0h4m16 0h4m-68 1h4m40 0h4m16 0h4m-68 1h8m4 0h4m20 0h4m4 0h4m16 0h8m-72 1h8m4 0h4m20 0h4m4 0h4m16 0h8m-72 1h8m4 0h4m20 0h4m4 0h4m16 0h8m-72 1h8m4 0h4m20 0h4m4 0h4m16 0h8m-72 1h4m40 0h4m32 0h4m-84 1h4m40 0h4m32 0h4m-84 1h4m40 0h4m32 0h4m-84 1h4m40 0h4m32 0h4m-84 1h4m12 0h4m24 0h4m40 0h4m-92 1h4m12 0h4m24 0h4m40 0h4m-92 1h4m12 0h4m24 0h4m40 0h4m-92 1h4m12 0h4m24 0h4m40 0h4m-92 1h4m40 0h4m44 0h4m-96 1h4m40 0h4m44 0h4m-96 1h4m40 0h4m44 0h4m-96 1h4m40 0h4m44 0h4m-96 1h4m16 0h4m20 0h4m44 0h4m-96 1h4m16 0h4m20 0h4m44 0h4m-96 1h4m16 0h4m20 0h4m44 0h4m-96 1h4m16 0h4m20 0h4m44 0h4m-96 1h4m40 0h4m44 0h4m-96 1h4m40 0h4m44 0h4m-96 1h4m40 0h4m44 0h4m-96 1h4m40 0h4m44 0h4m-96 1h4m40 0h4m40 0h4m-92 1h4m40 0h4m40 0h4m-92 1h4m40 0h4m40 0h4m-92 1h4m40 0h4m40 0h4"/><path stroke="red" d="M8 52h32M8 53h32M8 54h32M8 55h32M8 56h28M8 57h28M8 58h28M8 59h28M8 60h28M8 61h28M8 62h28M8 63h28M8 64h12M8 65h12M8 66h12M8 67h12M8 68h12m32 0h8M8 69h12m32 0h8M8 70h12m32 0h8M8 71h12m32 0h8M8 72h12m32 0h8M8 73h12m32 0h8M8 74h12m32 0h8M8 75h12m32 0h8M8 76h12m32 0h8M8 77h12m32 0h8M8 78h12m32 0h8M8 79h12m32 0h8M8 80h12m32 0h8M8 81h12m32 0h8M8 82h12m32 0h8M8 83h12m32 0h8M8 84h12m32 0h8M8 85h12m32 0h8M8 86h12m32 0h8M8 87h12m32 0h8M8 88h12m32 0h8M8 89h12m32 0h8M8 90h12m32 0h8M8 91h12m32 0h8M8 92h12m32 0h8M8 93h12m32 0h8M8 94h12m32 0h8M8 95h12m32 0h8M8 96h12m28 0h8M8 97h12m28 0h8M8 98h12m28 0h8M8 99h12m28 0h8m-48 1h12m24 0h8m-44 1h12m24 0h8m-44 1h12m24 0h8m-44 1h12m24 0h8m-44 1h44m-44 1h44m-44 1h44m-44 1h44m-44 1h40m-40 1h40m-40 1h40m-40 1h40m-40 1h36m-36 1h36m-36 1h36m-36 1h36m-36 1h4m-4 1h4m-4 1h4m-4 1h4"/><path stroke="maroon" d="M40 52h4m-4 1h4m-4 1h4m-4 1h4m-8 1h4m-4 1h4m-4 1h4m-4 1h4m-20 5h16m-16 1h16m-16 1h16m-16 1h16m-16 1h12m-12 1h12m-12 1h12m-12 1h12m24 25h4m-4 1h4m-4 1h4m-4 1h4m-8 1h4m-4 1h4m-4 1h4m-4 1h4m-4 1h4m-4 1h4m-4 1h4m-4 1h4m-12 5h4m-4 1h4m-4 1h4m-4 1h4m-36 1h36m-36 1h36m-36 1h36m-36 1h36m-40 1h36m-36 1h36m-36 1h36m-36 1h36"/><path stroke="#00f" d="M48 52h4m4 0h4m4 0h4m-20 1h4m4 0h4m4 0h4m-20 1h4m4 0h4m4 0h4m-20 1h4m4 0h4m4 0h4m-24 1h4m4 0h4m4 0h4m-20 1h4m4 0h4m4 0h4m-20 1h4m4 0h4m4 0h4m-20 1h4m4 0h4m4 0h4m-24 1h4m4 0h4m4 0h4m4 0h4m-28 1h4m4 0h4m4 0h4m4 0h4m-28 1h4m4 0h4m4 0h4m4 0h4m-28 1h4m4 0h4m4 0h4m4 0h4m-24 1h4m-4 1h4m-4 1h4m-4 1h4m-8 1h4m48 0h4m-56 1h4m48 0h4m-56 1h4m48 0h4m-56 1h4m48 0h4m-60 1h4m48 0h4m-56 1h4m48 0h4m-56 1h4m48 0h4m-56 1h4m48 0h4m-52 1h4m48 0h4m-56 1h4m48 0h4m-56 1h4m48 0h4m-56 1h4m48 0h4m-60 1h4m48 0h4m-56 1h4m48 0h4m-56 1h4m48 0h4m-56 1h4m48 0h4m-52 1h4m48 0h4m-56 1h4m48 0h4m-56 1h4m48 0h4m-56 1h4m48 0h4m-60 1h4m48 0h4m-56 1h4m48 0h4m-56 1h4m48 0h4m-56 1h4m48 0h4m-52 1h4m48 0h4m-56 1h4m48 0h4m-56 1h4m48 0h4m-56 1h4m48 0h4m-8 1h4m-4 1h4m-4 1h4m-4 1h4m-32 5h4m-4 1h4m-4 1h4m-4 1h4m-8 1h4m4 0h4m-12 1h4m4 0h4m-12 1h4m4 0h4m-12 1h4m4 0h4m-16 1h4m4 0h4m4 0h4m-20 1h4m4 0h4m4 0h4m-20 1h4m4 0h4m4 0h4m-20 1h4m4 0h4m4 0h4"/><path stroke="#f0f" d="M52 52h4m4 0h4m4 0h4m-20 1h4m4 0h4m4 0h4m-20 1h4m4 0h4m4 0h4m-20 1h4m4 0h4m4 0h4m-24 1h4m4 0h4m4 0h4m-20 1h4m4 0h4m4 0h4m-20 1h4m4 0h4m4 0h4m-20 1h4m4 0h4m4 0h4m-24 1h4m4 0h4m4 0h4m-20 1h4m4 0h4m4 0h4m-20 1h4m4 0h4m4 0h4m-20 1h4m4 0h4m4 0h4m-24 1h4m-4 1h4m-4 1h4m-4 1h4m-8 1h4m48 0h4m-56 1h4m48 0h4m-56 1h4m48 0h4m-56 1h4m48 0h4m-52 1h4m48 0h4m-56 1h4m48 0h4m-56 1h4m48 0h4m-56 1h4m48 0h4m-60 1h4m48 0h4m-56 1h4m48 0h4m-56 1h4m48 0h4m-56 1h4m48 0h4m-52 1h4m48 0h4m-56 1h4m48 0h4m-56 1h4m48 0h4m-56 1h4m48 0h4m-60 1h4m48 0h4m-56 1h4m48 0h4m-56 1h4m48 0h4m-56 1h4m48 0h4m-52 1h4m48 0h4m-56 1h4m48 0h4m-56 1h4m48 0h4m-56 1h4m48 0h4m-60 1h4m48 0h4m-56 1h4m48 0h4m-56 1h4m48 0h4m-56 1h4m48 0h4m-52 1h4m-4 1h4m-4 1h4m-4 1h4m20 5h4m-4 1h4m-4 1h4m-4 1h4m-8 1h4m-4 1h4m-4 1h4m-4 1h4m-8 1h4m4 0h4m-12 1h4m4 0h4m-12 1h4m4 0h4m-12 1h4m4 0h4"/><path stroke="navy" d="M72 52h4m-4 1h4m-4 1h4m-4 1h4m-8 1h4m-4 1h4m-4 1h4m-4 1h4m-8 9h4m16 0h4m-24 1h4m16 0h4m-24 1h4m16 0h4m-24 1h4m16 0h4m-44 1h4m-4 1h4m-4 1h4m-4 1h4m36 1h4m-4 1h4m-4 1h4m-4 1h4m-44 1h4m-4 1h4m-4 1h4m-4 1h4m36 1h4m-4 1h4m-4 1h4m-4 1h4m-44 1h4m-4 1h4m-4 1h4m-4 1h4m36 1h4m-4 1h4m-4 1h4m-4 1h4m-32 21h4m4 0h4m4 0h4m-20 1h4m4 0h4m4 0h4m-20 1h4m4 0h4m4 0h4m-20 1h4m4 0h4m4 0h4m-24 1h4m4 0h4m4 0h4m4 0h4m-28 1h4m4 0h4m4 0h4m4 0h4m-28 1h4m4 0h4m4 0h4m4 0h4m-28 1h4m4 0h4m4 0h4m4 0h4"/><path stroke="#ff0" d="M80 52h28m-28 1h28m-28 1h28m-28 1h28m-32 1h40m-40 1h40m-40 1h40m-40 1h40m-44 1h48m-48 1h48m-48 1h48m-48 1h48m-48 1h12m24 0h8m-44 1h12m24 0h8m-44 1h12m24 0h8m-44 1h12m24 0h8m-44 1h8m-8 1h8m-8 1h8m-8 1h8m-8 1h8m-8 1h8m-8 1h8m-8 1h8m-4 1h4m-4 1h4m-4 1h4m-4 1h4m20 1h8m-8 1h8m-8 1h8m-8 1h8m-8 1h16m-16 1h16m-16 1h16m-16 1h16m-12 1h16m-16 1h16m-16 1h16m-16 1h16m-12 1h12m-12 1h12m-12 1h12m-12 1h12m-48 1h12m24 0h12m-48 1h12m24 0h12m-48 1h12m24 0h12m-48 1h12m24 0h12m-44 1h12m16 0h16m-44 1h12m16 0h16m-44 1h12m16 0h16m-44 1h12m16 0h16m-44 1h40m-40 1h40m-40 1h40m-40 1h40m-36 1h32m-32 1h32m-32 1h32m-32 1h32m-24 1h20m-20 1h20m-20 1h20m-20 1h20"/><path stroke="purple" d="M48 64h4m12 0h4m-20 1h4m12 0h4m-20 1h4m12 0h4m-20 1h4m12 0h4m-24 1h4m-4 1h4m-4 1h4m-4 1h4m36 1h4m-4 1h4m-4 1h4m-4 1h4m-44 1h4m-4 1h4m-4 1h4m-4 1h4m36 1h4m-4 1h4m-4 1h4m-4 1h4m-44 1h4m-4 1h4m-4 1h4m-4 1h4m36 1h4m-4 1h4m-4 1h4m-4 1h4m-36 25h4m4 0h4m4 0h4m-20 1h4m4 0h4m4 0h4m-20 1h4m4 0h4m4 0h4m-20 1h4m4 0h4m4 0h4m-16 1h4m4 0h4m4 0h4m-20 1h4m4 0h4m4 0h4m-20 1h4m4 0h4m4 0h4m-20 1h4m4 0h4m4 0h4"/><path stroke="olive" d="M104 64h4m8 0h4m-16 1h4m8 0h4m-16 1h4m8 0h4m-16 1h4m8 0h4m-12 1h12m-12 1h12m-12 1h12m-12 1h12m-48 5h4m-4 1h4m-4 1h4m-4 1h4m0 1h4m-4 1h4m-4 1h4m-4 1h4m20 5h4m-4 1h4m-4 1h4m-4 1h4m0 1h4m-4 1h4m-4 1h4m-4 1h4m-36 5h4m-4 1h4m-4 1h4m-4 1h4m-4 1h4m40 0h4m-48 1h4m40 0h4m-48 1h4m40 0h4m-48 1h4m40 0h4m-48 1h8m32 0h8m-48 1h8m32 0h8m-48 1h8m32 0h8m-48 1h8m32 0h8m-44 1h12m20 0h12m-44 1h12m20 0h12m-44 1h12m20 0h12m-44 1h12m20 0h12m-40 1h36m-36 1h36m-36 1h36m-36 1h36m-32 1h24m-24 1h24m-24 1h24m-24 1h24"/></svg>