<svg xmlns="http://www.w3.org/2000/svg" width="32" height="32" shape-rendering="crispEdges" viewBox="0 -0.5 32 32"><path stroke="#fff" d="M0 0h32M0 1h1m1 0h3m1 0h1m1 0h19m1 0h1m1 0h2M0 2h1m2 0h1m2 0h20m1 0h2m1 0h2M0 3h1m1 0h1m1 0h1m1 0h1m1 0h2m2 0h1m2 0h1m2 0h1m2 0h2m8 0h1M0 4h1m1 0h3m1 0h1m1 0h1m1 0h3m1 0h1m1 0h1m1 0h1m1 0h2m1 0h1m1 0h1m1 0h2m1 0h2M0 5h1m1 0h3m1 0h1m1 0h1m1 0h3m1 0h1m1 0h1m1 0h2m1 0h1m1 0h1m1 0h1m1 0h2m1 0h2M0 6h1m1 0h3m1 0h1m1 0h2m2 0h1m1 0h1m2 0h2m2 0h1m2 0h2m1 0h2m1 0h2M0 7h32M0 9h32M0 11h1m30 0h1M1 12h1m1 0h1m1 0h1m1 0h1m1 0h1m1 0h1m1 0h1m1 0h1m1 0h1m1 0h1m1 0h1m1 0h1m1 0h1m1 0h1m1 0h1M1 14h1m3 0h1m1 0h1m1 0h1m1 0h1m1 0h1m1 0h1m1 0h1m1 0h1m1 0h1m1 0h1m1 0h1M6 15h1m1 0h1m1 0h1m1 0h1m1 0h1m1 0h1m1 0h1m1 0h1m1 0h1m1 0h1M1 16h1m-1 2h1m10 1h15M1 20h1m7 0h2m2 0h8m1 0h6M0 21h1m9 0h2m2 0h5m1 0h2m1 0h3m5 0h1m-21 1h2m2 0h5m1 0h2m1 0h2m3 0h1M0 23h9m3 0h2m2 0h2m1 0h2m1 0h2m1 0h1m5 0h1m-19 1h2m2 0h2m1 0h2m1 0h5M0 25h11m3 0h2m2 0h2m1 0h6m2 0h3m-17 1h2m2 0h2m1 0h4M0 27h13m3 0h2m2 0h5m2 0h5m-15 1h2m2 0h3M0 29h15m3 0h1m3 0h1m2 0h7M0 31h17m2 0h2m2 0h9"/><path stroke="gray" d="M1 1h1m3 0h1m1 0h1m19 0h1m1 0h1M1 2h2m1 0h2m20 0h1m2 0h1M1 3h1m1 0h1m1 0h1m1 0h1m2 0h2m1 0h2m1 0h2m1 0h2m2 0h8M1 4h1m3 0h1m1 0h1m1 0h1m3 0h1m1 0h1m1 0h1m1 0h1m2 0h1m1 0h1m1 0h1m2 0h1M1 5h1m3 0h1m1 0h1m1 0h1m3 0h1m1 0h1m1 0h1m2 0h1m1 0h1m1 0h1m1 0h1m2 0h1M1 6h1m3 0h1m1 0h1m2 0h2m1 0h1m1 0h2m2 0h2m1 0h2m2 0h1m2 0h1m-2 9h1m-2 1h1M6 17h1m21 0h1M8 22h2m20 1h1m-21 1h2m16 1h1m-17 1h2m12 1h1m-13 1h2m4 1h1m3 0h1m-9 1h2m2 0h2"/><path stroke="silver" d="M0 8h32M0 10h32M3 14h1m0 1h1m-2 1h1m1 0h1m-2 1h1m3 0h3m1 0h7m1 0h2m1 0h2M3 18h1m1 0h1m1 0h3m1 0h9m1 0h5M8 19h3m0 1h1m0 1h1m13 0h1m1 0h1M0 22h8m5 0h1m17 0h1M9 23h2m15 0h1m1 0h1M0 24h10m19 0h3m-21 1h2M0 26h12m15 0h5m-19 1h2m3 0h1M0 28h14m5 0h1m5 0h7m-17 1h2M0 30h16m3 0h1m3 0h9m-15 1h2m2 0h2"/><path stroke="#000" d="M1 11h30M0 12h1m30 0h1M0 13h1m1 0h28m1 0h1M0 14h1m1 0h1m26 0h1m1 0h1M0 15h1m1 0h1m26 0h1m1 0h1M0 16h1m1 0h1m3 0h20m3 0h1m1 0h1M0 17h1m1 0h1m2 0h1m1 0h1m3 0h1m13 0h2m2 0h1m1 0h1M0 18h1m1 0h1m1 0h1m1 0h1m3 0h1m15 0h2m1 0h1m1 0h1M0 19h1m1 0h6m3 0h1m15 0h3m1 0h1M0 20h1m7 0h1m3 0h1m15 0h1m2 0h1M1 21h9m3 0h1m15 0h2m-21 1h1m3 0h1m15 0h1m-20 1h1m3 0h1m13 0h1m-18 1h1m3 0h1m11 0h1m-16 1h1m3 0h1m9 0h1m-14 1h1m3 0h1m7 0h1m-12 1h1m3 0h1m5 0h1m-10 1h1m3 0h1m3 0h1m-8 1h1m1 0h1m1 0h1m1 0h1m-6 1h1m3 0h1"/><path stroke="#ff0" d="M2 12h1m1 0h1m1 0h1m1 0h1m1 0h1m1 0h1m1 0h1m1 0h1m1 0h1m1 0h1m1 0h1m1 0h1m1 0h1m1 0h1m1 0h1M1 13h1m2 1h1m1 0h1m1 0h1m1 0h1m1 0h1m1 0h1m1 0h1m1 0h1m1 0h1m1 0h1m1 0h1m1 0h1M1 15h1m1 0h1m1 0h1m1 0h1m1 0h1m1 0h1m1 0h1m1 0h1m1 0h1m1 0h1m1 0h1m1 0h1m1 0h1M4 16h1m-4 1h1m1 0h1m-3 2h1"/><path stroke="olive" d="M30 13h1m-4 1h2m1 0h1m-5 1h2m2 0h1m-5 1h1m1 0h1m1 0h1m-4 1h1m2 0h1m-3 1h1m1 0h1m-1 1h1M2 20h6m21 0h2"/><path stroke="#00f" d="M19 17h1m2 0h1m-3 1h1m0 2h1m-3 1h1m2 0h1m-3 1h1m2 0h1m-6 1h1m2 0h1m2 0h1m-6 1h1m2 0h1m-3 1h1m0 1h1"/><path stroke="red" d="M27 21h1m-2 1h1m1 0h1m-2 1h1"/><path stroke="maroon" d="M27 22h1"/><path stroke="navy" d="M14 23h1m0 1h1m0 1h1m0 1h1"/></svg>