<svg xmlns="http://www.w3.org/2000/svg" viewBox="0 -0.5 32 32" shape-rendering="crispEdges">
<path stroke="#ffffff" d="M0 0h1M0 0h32M0 1h1M2 1h3M6 1h1M8 1h19M28 1h1M30 1h2M0 2h1M3 2h1M6 2h20M27 2h2M30 2h2M0 3h1M2 3h1M4 3h1M6 3h1M8 3h2M12 3h1M15 3h1M18 3h1M21 3h2M31 3h1M0 4h1M2 4h3M6 4h1M8 4h1M10 4h3M14 4h1M16 4h1M18 4h1M20 4h2M23 4h1M25 4h1M27 4h2M30 4h2M0 5h1M2 5h3M6 5h1M8 5h1M10 5h3M14 5h1M16 5h1M18 5h2M21 5h1M23 5h1M25 5h1M27 5h2M30 5h2M0 6h1M2 6h3M6 6h1M8 6h2M12 6h1M14 6h1M17 6h2M21 6h1M24 6h2M27 6h2M30 6h2M0 7h32M0 9h32M0 11h1M31 11h1M1 12h1M3 12h1M5 12h1M7 12h1M9 12h1M11 12h1M13 12h1M15 12h1M17 12h1M19 12h1M21 12h1M23 12h1M25 12h1M27 12h1M29 12h1M1 14h1M5 14h1M7 14h1M9 14h1M11 14h1M13 14h1M15 14h1M17 14h1M19 14h1M21 14h1M23 14h1M25 14h1M6 15h1M8 15h1M10 15h1M12 15h1M14 15h1M16 15h1M18 15h1M20 15h1M22 15h1M24 15h1M1 16h1M1 18h1M12 19h15M1 20h1M9 20h2M13 20h8M22 20h6M0 21h1M10 21h2M14 21h5M20 21h2M23 21h3M31 21h1M11 22h2M15 22h5M21 22h2M24 22h2M29 22h1M0 23h9M12 23h2M16 23h2M19 23h2M22 23h2M25 23h1M31 23h1M13 24h2M17 24h2M20 24h2M23 24h5M0 25h11M14 25h2M18 25h2M21 25h6M29 25h3M15 26h2M19 26h2M22 26h4M0 27h13M16 27h2M20 27h5M27 27h5M17 28h2M21 28h3M0 29h15M18 29h1M22 29h1M25 29h7M0 31h17M19 31h2M23 31h9" />
<path stroke="#808080" d="M0 0h1M1 1h1M5 1h1M7 1h1M27 1h1M29 1h1M1 2h2M4 2h2M26 2h1M29 2h1M1 3h1M3 3h1M5 3h1M7 3h1M10 3h2M13 3h2M16 3h2M19 3h2M23 3h8M1 4h1M5 4h1M7 4h1M9 4h1M13 4h1M15 4h1M17 4h1M19 4h1M22 4h1M24 4h1M26 4h1M29 4h1M1 5h1M5 5h1M7 5h1M9 5h1M13 5h1M15 5h1M17 5h1M20 5h1M22 5h1M24 5h1M26 5h1M29 5h1M1 6h1M5 6h1M7 6h1M10 6h2M13 6h1M15 6h2M19 6h2M22 6h2M26 6h1M29 6h1M28 15h1M27 16h1M6 17h1M28 17h1M8 22h2M30 23h1M10 24h2M28 25h1M12 26h2M26 27h1M14 28h2M20 29h1M24 29h1M16 30h2M20 30h2" />
<path stroke="#c0c0c0" d="M0 0h1M0 8h32M0 10h32M3 14h1M4 15h1M3 16h1M5 16h1M4 17h1M8 17h3M12 17h7M20 17h2M23 17h2M3 18h1M5 18h1M7 18h3M11 18h9M21 18h5M8 19h3M11 20h1M12 21h1M26 21h1M28 21h1M0 22h8M13 22h1M31 22h1M9 23h2M26 23h1M28 23h1M0 24h10M29 24h3M11 25h2M0 26h12M27 26h5M13 27h2M18 27h1M0 28h14M19 28h1M25 28h7M15 29h2M0 30h16M19 30h1M23 30h9M17 31h2M21 31h2" />
<path stroke="#000000" d="M0 0h1M1 11h30M0 12h1M31 12h1M0 13h1M2 13h28M31 13h1M0 14h1M2 14h1M29 14h1M31 14h1M0 15h1M2 15h1M29 15h1M31 15h1M0 16h1M2 16h1M6 16h20M29 16h1M31 16h1M0 17h1M2 17h1M5 17h1M7 17h1M11 17h1M25 17h2M29 17h1M31 17h1M0 18h1M2 18h1M4 18h1M6 18h1M10 18h1M26 18h2M29 18h1M31 18h1M0 19h1M2 19h6M11 19h1M27 19h3M31 19h1M0 20h1M8 20h1M12 20h1M28 20h1M31 20h1M1 21h9M13 21h1M29 21h2M10 22h1M14 22h1M30 22h1M11 23h1M15 23h1M29 23h1M12 24h1M16 24h1M28 24h1M13 25h1M17 25h1M27 25h1M14 26h1M18 26h1M26 26h1M15 27h1M19 27h1M25 27h1M16 28h1M20 28h1M24 28h1M17 29h1M19 29h1M21 29h1M23 29h1M18 30h1M22 30h1" />
<path stroke="#ffff00" d="M0 0h1M2 12h1M4 12h1M6 12h1M8 12h1M10 12h1M12 12h1M14 12h1M16 12h1M18 12h1M20 12h1M22 12h1M24 12h1M26 12h1M28 12h1M30 12h1M1 13h1M4 14h1M6 14h1M8 14h1M10 14h1M12 14h1M14 14h1M16 14h1M18 14h1M20 14h1M22 14h1M24 14h1M26 14h1M1 15h1M3 15h1M5 15h1M7 15h1M9 15h1M11 15h1M13 15h1M15 15h1M17 15h1M19 15h1M21 15h1M23 15h1M25 15h1M4 16h1M1 17h1M3 17h1M1 19h1" />
<path stroke="#808000" d="M0 0h1M30 13h1M27 14h2M30 14h1M26 15h2M30 15h1M26 16h1M28 16h1M30 16h1M27 17h1M30 17h1M28 18h1M30 18h1M30 19h1M2 20h6M29 20h2" />
<path stroke="#0000ff" d="M0 0h1M19 17h1M22 17h1M20 18h1M21 20h1M19 21h1M22 21h1M20 22h1M23 22h1M18 23h1M21 23h1M24 23h1M19 24h1M22 24h1M20 25h1M21 26h1" />
<path stroke="#ff0000" d="M0 0h1M27 21h1M26 22h1M28 22h1M27 23h1" />
<path stroke="#800000" d="M0 0h1M27 22h1" />
<path stroke="#000080" d="M0 0h1M14 23h1M15 24h1M16 25h1M17 26h1" />
</svg>