<svg xmlns="http://www.w3.org/2000/svg" viewBox="0 -0.5 32 32" shape-rendering="crispEdges">
<path stroke="#000000" d="M0 0h1M7 0h1M6 1h3M5 2h5M4 3h7M3 4h9M2 5h3M7 5h1M10 5h3M1 6h4M6 6h2M9 6h5M1 7h13M0 8h15M0 9h15M0 10h15M0 11h15M1 12h4M7 12h1M10 12h4M6 13h3M5 14h5" />
<path stroke="#ff0000" d="M0 0h1M19 1h4M26 1h4M18 2h6M25 2h6M17 3h7M25 3h7M17 4h15M17 5h15M17 6h15M17 7h14M18 8h13M19 9h11M20 10h9M21 11h7M22 12h5M23 13h3M24 14h1" />
<path stroke="#ffff00" d="M0 0h1M5 5h2M8 5h2M5 6h1M8 6h1" />
<path stroke="#800000" d="M0 0h1M2 17h4M9 17h4M1 18h6M8 18h6M0 19h7M8 19h7M0 20h15M0 21h15M0 22h15M1 23h13M1 24h13M2 25h11M3 26h9M4 27h7M5 28h5M6 29h3M7 30h1" />
<path stroke="#800080" d="M0 0h1M19 17h4M26 17h4M18 18h6M25 18h6M17 19h7M25 19h7M17 20h15M17 21h15M17 22h15M18 23h13M18 24h13M19 25h11M20 26h9M21 27h7M22 28h5M23 29h3M24 30h1" />
</svg>