<svg xmlns="http://www.w3.org/2000/svg" viewBox="0 -0.5 16 16" shape-rendering="crispEdges">
<path stroke="#808080" d="M0 0h1M0 0h10M0 1h1M10 1h1M0 2h1M11 2h1M0 3h1M0 4h1M0 5h1M0 6h1M0 7h1M9 7h1M0 8h1M8 8h1M0 9h1M0 10h1M0 11h1M0 12h1M0 13h1M0 14h1" />
<path stroke="#ffffff" d="M0 0h1M1 1h8M1 2h8M10 2h1M1 3h8M1 4h2M10 4h1M1 5h2M10 5h1M1 6h2M1 7h2M1 8h2M1 9h2M10 9h1M1 10h2M6 10h2M10 10h1M1 11h2M10 11h1M1 12h2M10 12h1M1 13h10" />
<path stroke="#c0c0c0" d="M0 0h1M9 1h1M9 2h1M4 4h1M6 4h1M8 4h1M11 4h1M3 5h1M3 7h1M6 8h2M9 8h1M11 8h1M3 9h1M11 9h1M11 10h1M3 11h1M5 11h1M7 11h1M11 11h1M11 12h1M11 13h1M1 14h11" />
<path stroke="#0000ff" d="M0 0h1M14 2h1M13 3h2M12 4h2M11 5h2M10 6h2" />
<path stroke="#000080" d="M0 0h1M15 2h1M15 3h1M14 4h1M13 5h1M12 6h1M11 7h1" />
<path stroke="#000000" d="M0 0h1M9 3h4M9 4h1M4 5h4M9 5h1M4 6h1M9 6h1M4 7h1M10 7h1M12 7h1M4 8h1M10 8h1M12 8h1M4 9h1M8 9h2M12 9h1M4 10h1M9 10h1M12 10h1M9 11h1M12 11h1M3 12h7M12 12h1M12 13h1M12 14h1M0 15h13" />
<path stroke="#808000" d="M0 0h1M3 4h1M5 4h1M7 4h1M8 5h1M3 6h1M8 6h1M8 7h1M3 8h1M3 10h1M8 10h1M4 11h1M6 11h1M8 11h1" />
<path stroke="#ff0000" d="M0 0h1M5 6h3M5 7h3M5 9h1M5 10h1" />
<path stroke="#800000" d="M0 0h1M5 8h1M6 9h2" />
</svg>