<svg xmlns="http://www.w3.org/2000/svg" width="16" height="16" shape-rendering="crispEdges" viewBox="0 -0.5 16 16"><path stroke="gray" d="M6 0h4M4 1h2m4 0h2M3 2h1M2 3h1M2 4h1M1 5h1m5 0h2M1 6h1m4 0h1M1 7h1m3 0h1M1 8h1m3 0h1M1 9h1m3 0h1m0 1h1m4 0h2m-6 1h1m2 0h1"/><path stroke="silver" d="M6 1h1M5 2h1M4 3h1M3 4h1M2 5h1m1 0h1M3 7h2m5 0h1M3 8h1m5 0h1M8 9h1m1 0h1m-4 1h1m1 0h1"/><path stroke="#fff" d="M7 1h1M4 2h1m1 0h1M3 3h1m0 1h1M3 5h1m1 0h1M2 6h3m2 0h1m1 0h1M6 7h1m1 0h1M6 8h2M6 9h1m4 2h1"/><path stroke="teal" d="M8 1h2M5 3h1m4 1h1m-1 1h1m2 1h1M2 7h1M2 8h1"/><path stroke="#00f" d="M7 2h1M7 4h2M6 5h1m6 0h1M5 6h1m5 0h2M4 8h1m7 0h1M3 9h2m-3 1h1m1 0h2m-3 1h4m-3 1h2m3 0h1"/><path stroke="green" d="M8 2h4M6 3h7M5 4h2m2 0h1m1 0h2m-2 1h2M2 9h1m0 1h1"/><path stroke="navy" d="M12 2h1m-1 5h2m-1 1h1m-2 1h2M2 11h1m0 1h1m2 0h3m1 0h1m-7 1h6"/><path stroke="#000" d="M13 3h1m-1 1h1M9 5h1m4 0h1m-5 1h1m3 0h1m-4 1h1m2 0h1m-4 1h1m2 0h1m-4 1h1m2 0h1m-5 1h1m2 0h1m-6 1h2m0 2h2m2 0h1m-9 1h4m3 0h2"/><path stroke="#0ff" d="M8 6h1M7 7h1m1 0h1M8 8h1m1 0h1M7 9h1m1 0h1m-2 1h1"/><path stroke="red" d="M12 11h1m0 1h1"/><path stroke="maroon" d="M13 11h1m-3 1h1m2 0h1m-3 1h1"/><path stroke="#f0f" d="M12 12h1m0 1h1"/></svg>