<svg xmlns="http://www.w3.org/2000/svg" viewBox="0 -0.5 16 16" shape-rendering="crispEdges">
<path stroke="#808080" d="M0 0h11M1 1h1M11 1h1M1 2h1M12 2h1M1 3h1M1 4h1M6 4h1M1 5h1M10 5h1M1 6h1M1 7h1M6 7h1M1 8h1M4 8h1M1 9h1M1 10h1M1 11h1M1 12h1M1 13h1" />
<path stroke="#ffffff" d="M0 0h1M2 1h3M6 1h3M2 2h1M4 2h3M8 2h2M11 2h1M2 3h3M2 4h1M2 5h2M11 5h1M2 6h1M5 6h1M2 7h2M11 7h1M2 8h1M2 9h2M11 9h1M2 10h1M4 10h1M10 10h1M2 11h3M6 11h3M10 11h2M2 12h1M4 12h3M8 12h3" />
<path stroke="#ffff00" d="M0 0h1M5 1h1M9 1h1M3 2h1M7 2h1M3 4h1M11 4h1M3 6h1M11 6h1M3 8h1M11 8h1M3 10h1M11 10h1M5 11h1M9 11h1M3 12h1M7 12h1M11 12h1" />
<path stroke="#c0c0c0" d="M0 0h1M10 1h1M10 2h1M5 3h1M9 3h1M4 4h1M10 4h1M12 4h1M5 5h1M12 5h1M6 6h1M12 6h1M5 7h1M12 7h1M12 8h1M4 9h1M10 9h1M12 9h1M5 10h1M9 10h1M12 10h1M12 11h1M12 12h1M2 13h11" />
<path stroke="#008080" d="M0 0h1M6 3h3M5 4h1M7 4h1M9 4h1M4 5h1M6 5h1M8 5h1M4 6h1M4 7h1M8 7h1" />
<path stroke="#000000" d="M0 0h1M10 3h4M13 4h1M13 5h1M13 6h1M13 7h1M13 8h1M9 9h1M13 9h1M6 10h3M13 10h1M13 11h1M13 12h1M13 13h1M1 14h13" />
<path stroke="#008000" d="M0 0h1M8 4h1M9 5h1M7 6h1M7 7h1M7 8h1" />
<path stroke="#0000ff" d="M0 0h1M7 5h1M9 6h1M9 7h1M5 8h2M8 8h1M6 9h1" />
<path stroke="#000080" d="M0 0h1M8 6h1M10 6h1M10 7h1M9 8h2M5 9h1M7 9h2" />
</svg>