<svg xmlns="http://www.w3.org/2000/svg" width="32" height="32" shape-rendering="crispEdges" viewBox="0 -0.5 32 32"><path stroke="gray" d="M0 0h18M0 1h1m16 0h1M0 2h1m16 0h2M0 3h1m16 0h1m1 0h1M0 4h1m16 0h1m2 0h1M0 5h1m16 0h1m3 0h1M0 6h1m16 0h1M0 7h1M0 8h1M0 9h1m-1 1h1m-1 1h1m-1 1h1m-1 1h1m-1 1h1m-1 1h1m-1 1h1m-1 1h1m-1 1h1m-1 1h1m-1 1h1m-1 1h1m-1 1h1m15 0h1m12 0h1M0 23h1m15 0h1m1 0h4m7 0h1M0 24h1m15 0h1m1 0h1m10 0h1M0 25h1m15 0h1m1 0h1m10 0h1M0 26h1m15 0h1m12 0h1M0 27h1m15 0h1m12 0h1M0 28h1m15 0h1m12 0h1m-14 1h1m12 0h1m-14 1h1m12 0h1"/><path stroke="#fff" d="M1 1h16M1 2h16M1 3h16M1 4h16m1 0h1M1 5h16m1 0h2M1 6h3m9 0h4M1 7h21M1 8h21M1 9h21M1 10h3m16 0h2M1 11h21M1 12h3m16 0h2M1 13h21M1 14h3m16 0h2M1 15h20M1 16h3m-3 1h18M1 18h3m-3 1h16M1 20h3m-3 1h14M1 22h3m-3 1h15m1 0h1m4 0h7M1 24h3m13 0h1m1 0h2m1 0h7M1 25h15m1 0h1m1 0h2m1 0h7M1 26h15m1 0h1m4 0h1m4 0h2M1 27h15m1 0h6m4 0h2m-12 1h6m4 0h2m-12 1h6m4 0h2"/><path stroke="#000" d="M18 1h1m0 1h1m0 1h1m0 1h1m0 1h1m-5 1h6m-1 1h1m-1 1h1m-1 1h1m-1 1h1m-1 1h1m-1 1h1m-1 1h1m5 0h1m-6 1h1m4 0h1m-5 1h1m3 0h1m-4 1h1m2 0h1m-3 1h1m1 0h1m-2 1h2m-1 1h1m0 1h1m-16 1h17m-2 1h1m-1 1h1m-10 1h1m8 0h1m-10 1h1m8 0h1m-13 1h4m8 0h1m-5 1h1m3 0h1m-5 1h1m3 0h1M0 29h16m10 0h1m3 0h1m-5 1h1m3 0h1m-15 1h15"/><path stroke="silver" d="M18 3h1m0 1h1m0 1h1M4 6h9m9 1h1m-1 1h1m-1 1h1M4 10h16m2 0h1m-1 1h1M4 12h16m2 0h1m-1 1h1M4 14h16m3 0h1m-2 1h1M4 16h16m1 0h1m-2 1h1M4 18h14m1 0h1m-2 1h1M4 20h12m1 0h1M4 22h12m1 0h12M4 24h12M1 28h15m1 2h6m1 0h2m1 0h2"/><path stroke="maroon" d="M27 13h2m-2 1h1m-1 1h1m-1 1h1"/><path stroke="olive" d="M22 14h1m-2 1h1m2 0h1m-5 1h1m2 0h1m1 0h1m-7 1h1m2 0h1m1 0h1m1 0h1m-9 1h1m2 0h1m1 0h1m1 0h1m1 0h1m-11 1h1m2 0h1m1 0h1m1 0h1m1 0h1m1 0h1m-13 1h1m2 0h1m1 0h1m1 0h1m1 0h1m1 0h1m1 0h1m-7 6h4m-4 1h1m-1 1h1m-1 1h1m-1 1h1"/><path stroke="red" d="M28 14h1m-1 1h1m-1 1h1m-1 1h1"/><path stroke="#ff0" d="M23 15h1m-2 1h1m1 0h1m-4 1h1m1 0h1m1 0h1m-6 1h1m1 0h1m1 0h1m1 0h1m-8 1h1m1 0h1m1 0h1m1 0h1m1 0h1m-10 1h1m1 0h1m1 0h1m1 0h1m1 0h1m1 0h1m-5 7h2m-2 1h2m-2 1h2"/></svg>