<svg xmlns="http://www.w3.org/2000/svg" width="32" height="32" shape-rendering="crispEdges" viewBox="0 -0.5 32 32"><path stroke="gray" d="M4 0h18M4 1h1m16 0h1M4 2h1m16 0h2M4 3h1m16 0h1m1 0h1M4 4h1m16 0h1m2 0h1M4 5h1m16 0h1m3 0h1M4 6h1m16 0h1M4 7h1M4 8h1M4 9h1m8 0h5M4 10h1m6 0h2m5 0h2M4 11h1m5 0h1m-7 1h1m4 0h1m-6 1h1m4 0h1m-6 1h1m3 0h1m-5 1h1m3 0h1m-5 1h1m3 0h1m-5 1h1m3 0h1m-5 1h1m3 0h1m-5 1h1m3 0h1m-5 2h1m-1 1h1m-1 1h1m-1 1h1m-1 1h1m-1 1h1m-1 1h1m-1 1h1m-1 1h1m-1 1h1"/><path stroke="#fff" d="M5 1h1m1 0h3m1 0h3m1 0h3m1 0h2M5 2h3m1 0h3m1 0h3m1 0h3M5 3h1m1 0h3m1 0h3m1 0h3m1 0h2M5 4h3m1 0h3m1 0h3m1 0h3m2 0h1M5 5h1m1 0h3m1 0h3m1 0h3m1 0h2m1 0h2M5 6h3m1 0h3m1 0h3m1 0h3M5 7h1m1 0h3m1 0h3m1 0h3m1 0h3m1 0h3M5 8h3m1 0h3m1 0h3m1 0h3m1 0h3m1 0h1M5 9h1m1 0h3m1 0h2m6 0h3m1 0h3M5 10h3m1 0h2m3 0h1m6 0h3m1 0h1M5 11h1m1 0h3m1 0h1m1 0h1m7 0h1m1 0h3M5 12h3m2 0h1m11 0h2m1 0h1M5 13h1m1 0h2m2 0h1m11 0h3M5 14h3m2 0h1m1 0h1m10 0h1m1 0h1M5 15h1m1 0h1m1 0h3m11 0h3M5 16h3m2 0h1m1 0h1m10 0h1m1 0h1M5 17h1m1 0h1m3 0h1m1 0h1m9 0h3M5 18h1m1 0h1m15 0h1m1 0h1M5 19h1m17 0h3m-4 1h2m1 0h1M5 21h1m2 0h1m14 0h3M5 22h1m1 0h1m1 0h1m11 0h3m1 0h1M5 23h1m1 0h3m10 0h2m1 0h3M5 24h3m1 0h3m6 0h2m1 0h3m1 0h1M5 25h1m1 0h3m1 0h3m1 0h3m1 0h3m1 0h3M5 26h3m1 0h3m1 0h3m1 0h3m1 0h3m1 0h1M5 27h1m1 0h3m1 0h3m1 0h3m1 0h3m1 0h3M5 28h3m1 0h3m1 0h3m1 0h3m1 0h3m1 0h1M5 29h1m1 0h3m1 0h3m1 0h3m1 0h3m1 0h3"/><path stroke="#ff0" d="M6 1h1m3 0h1m3 0h1m3 0h1M8 2h1m3 0h1m3 0h1m3 0h1M6 3h1m3 0h1m3 0h1m3 0h1M8 4h1m3 0h1m3 0h1m3 0h1M6 5h1m3 0h1m3 0h1m3 0h1M8 6h1m3 0h1m3 0h1m3 0h1M6 7h1m3 0h1m3 0h1m3 0h1m3 0h1M8 8h1m3 0h1m3 0h1m3 0h1m3 0h1M6 9h1m3 0h1m7 0h1m3 0h1M8 10h1m11 0h1m3 0h1M6 11h1m15 0h1M8 12h1m15 0h1M6 13h1m15 0h1m1 1h1M6 15h1m17 1h1M6 17h1m17 1h1m-1 2h1m-3 1h1M8 22h1m15 0h1M6 23h1m3 0h1m11 0h1M8 24h1m3 0h1m7 0h1m3 0h1M6 25h1m3 0h1m3 0h1m3 0h1m3 0h1M8 26h1m3 0h1m3 0h1m3 0h1m3 0h1M6 27h1m3 0h1m3 0h1m3 0h1m3 0h1M8 28h1m3 0h1m3 0h1m3 0h1m3 0h1M6 29h1m3 0h1m3 0h1m3 0h1m3 0h1"/><path stroke="#000" d="M22 1h1m0 1h1m0 1h1m0 1h1m0 1h1m-5 1h6m-1 1h1m-1 1h1m-1 1h1m-1 1h1m-1 1h1m-7 1h1m5 0h1m-7 1h1m5 0h1m-6 1h1m4 0h1m-6 1h1m4 0h1m-6 1h1m4 0h1m-6 1h1m4 0h1m-6 1h1m4 0h1m-6 1h1m4 0h1m-7 1h1m5 0h1m-7 1h1m5 0h1m-8 1h1m6 0h1m-10 1h2m7 0h1m-15 1h5m9 0h1m-1 1h1m-1 1h1m-1 1h1m-1 1h1m-1 1h1m-1 1h1M4 31h24"/><path stroke="silver" d="M22 3h1m0 1h1m0 1h1m1 2h1m-1 1h1m-1 1h1m-14 1h1m12 0h1m-15 1h1m13 0h1m-16 1h1m14 0h1m-17 1h1m15 0h1M9 14h1m1 0h1m14 0h1m-1 1h1M9 16h1m1 0h1m1 0h1m12 0h1m-17 1h1m1 0h1m13 0h1m-17 1h1m15 0h1m-14 1h1m12 0h1m-1 1h1m-1 1h1m-1 1h1m-1 1h1m-1 1h1m-1 1h1m-1 1h1m-1 1h1m-1 1h1m-1 1h1M5 30h22"/><path stroke="#00f" d="M15 10h1m-2 1h1m-1 2h3m-4 1h2m1 0h2m3 0h1m-10 1h1m2 0h1m2 0h3m-4 1h1m1 0h2m-3 1h2m-9 1h1m7 0h2m-11 1h3m5 0h2M9 20h1m1 0h3m3 0h1m-8 1h5m1 0h1m-6 1h2m2 0h1m1 0h1"/><path stroke="teal" d="M16 10h2m-6 2h1m5 1h1m-4 1h1m2 0h1m2 1h1m-6 1h1m1 0h1M9 17h1m-1 1h1m2 0h2m4 0h1m-1 3h1"/><path stroke="green" d="M15 11h5m-7 1h8m-9 1h2m3 0h1m1 0h2m-2 1h2m-8 1h2m1 0h2m-4 1h2m-2 1h4m-4 1h4m-9 1h1m4 0h3m-7 1h1m3 0h3m-2 1h1m3 0h1"/><path stroke="navy" d="M20 11h1m0 5h1m-2 1h2m-1 1h1m-5 1h1m2 0h2m-4 1h3M9 21h1m7 0h1m2 0h1m-11 1h1m2 0h2m1 0h1m1 0h2m-9 1h7"/><path stroke="red" d="M3 12h1m-2 1h2m-3 1h2m-2 1h1m-1 1h1m-1 1h1m-1 1h2m3 0h1m-5 1h2m2 0h2m-5 1h6m-3 1h2m-2 1h1"/></svg>