<svg xmlns="http://www.w3.org/2000/svg" width="32" height="32" shape-rendering="crispEdges" viewBox="0 -0.5 32 32"><path stroke="gray" d="M0 0h18M0 1h1m16 0h1M0 2h1m16 0h2M0 3h1m16 0h1m1 0h1M0 4h1m16 0h1m2 0h1M0 5h1m16 0h1m3 0h1M0 6h1m16 0h1M0 7h1M0 8h1M0 9h1m-1 1h1m-1 1h1m-1 1h1m17 0h1M0 13h1m16 0h1M0 14h1m15 0h1M0 15h1m14 0h2M0 16h1m-1 1h1m-1 1h1m-1 1h1m-1 1h1m-1 1h1m-1 1h1m-1 1h1m-1 1h1m-1 1h1m-1 1h1m-1 1h1m-1 1h1m-1 1h1m-1 1h1"/><path stroke="#fff" d="M1 1h16M1 2h16M1 3h16M1 4h16m1 0h1M1 5h16m1 0h2M1 6h16M1 7h21M1 8h21M1 9h3m3 0h3m3 0h3m4 0h1M1 10h3m-3 1h3m-3 1h3m15 0h1M1 13h4m8 0h2m3 0h1M1 14h5m8 0h1m2 0h1m2 0h2M1 15h5m6 0h2m5 0h3M1 16h4m7 0h1m1 0h1m4 0h3M1 17h4m4 0h1m9 0h3M1 18h4m4 0h2m8 0h3M1 19h5m3 0h6m3 0h4M1 20h5m3 0h6m3 0h4M1 21h4m14 0h3M1 22h3m16 0h2M1 23h3m16 0h2M1 24h3m3 0h3m3 0h3m4 0h2M1 25h21M1 26h21M1 27h21M1 28h21M1 29h21"/><path stroke="#000" d="M18 1h1m12 0h1M19 2h1m11 0h1M20 3h1m10 0h1M21 4h1m8 0h1m-9 1h1m6 0h1M18 6h6m4 0h1m-2 1h1m-2 1h1m-8 1h1m5 0h1m-7 1h1m4 0h1m-2 1h1M8 12h7m7 0h2M8 13h1m11 0h2m1 0h1M8 14h1m10 0h1m3 0h1M8 15h1m8 0h2m4 0h1M8 16h1m7 0h3m4 0h1M8 17h1m1 0h1m4 0h4m4 0h1M8 18h1m2 0h6m1 0h1m4 0h1M8 19h1m8 0h1m5 0h1M8 20h1m8 0h1m5 0h1m-6 1h1m4 0h1m-5 1h1m3 0h1M7 23h3m3 0h3m3 0h1m3 0h1M4 24h3m3 0h3m3 0h4m3 0h1m-1 1h1m-1 1h1m-1 1h1m-1 1h1m-1 1h1m-1 1h1M0 31h24"/><path stroke="maroon" d="M29 1h2m-3 1h1m-2 1h1m-2 1h1m-2 1h1m-2 1h1m-2 1h1m-2 1h1m-2 1h1m-2 1h1m-2 1h1m1 1h1"/><path stroke="#f0f" d="M29 2h1m-2 1h1m-2 1h1m-2 1h1m-2 1h1m-2 1h1m-2 1h1m-2 1h1m-2 1h1m-2 1h1"/><path stroke="red" d="M30 2h1m-2 1h2m-3 1h2m-3 1h2m-3 1h2m-3 1h2m-3 1h2m-3 1h2m-3 1h2m-3 1h2m-3 1h1"/><path stroke="silver" d="M18 3h1m0 1h1m0 1h1m1 2h1M5 11h1m1 0h1m1 0h1m1 0h1m1 0h1m1 0h1m1 0h1M6 12h1m9 0h1M7 13h1m14 0h1m-1 1h1M7 15h1m14 0h1m-8 1h1m6 0h1M7 17h1m6 0h1m7 0h1m-1 1h1M7 19h1m14 0h1m-7 1h1m5 0h1M7 21h1m14 0h1M6 22h1m1 0h1m1 0h1m1 0h1m1 0h1m1 0h1m5 0h1M5 23h1m5 0h1m5 0h1m4 0h1m-1 1h1m-1 1h1m-1 1h1m-1 1h1m-1 1h1m-1 1h1M1 30h22"/><path stroke="olive" d="M4 9h3m3 0h3m3 0h3M4 10h1m1 0h5m1 0h5m1 0h1M4 11h1m13 0h1M4 12h2m9 0h1m1 0h1M5 13h1m9 0h1M6 14h1m8 0h1M6 15h1m-2 1h2m-2 1h1m-1 1h2m10 0h1M6 19h1m8 0h1M6 20h1m8 0h1M5 21h1m2 0h8m1 0h1M4 22h1m13 0h1M4 23h1m1 0h1m9 0h1m1 0h1"/><path stroke="#ff0" d="M5 10h1m5 0h1m5 0h1M6 11h1m1 0h1m1 0h1m1 0h1m1 0h1m1 0h1M7 12h1m-2 1h1m9 0h1m2 0h1M7 14h1m10 0h1M7 16h1m-2 1h1m0 1h1m8 1h1M7 20h1m-2 1h1m9 0h1M5 22h1m1 0h1m1 0h1m1 0h1m1 0h1m1 0h1m1 0h1m-8 1h1m1 0h1"/><path stroke="#0f0" d="M9 13h4m-4 1h5m-5 1h3m-3 1h3m1 1h1"/><path stroke="green" d="M14 15h1m-2 1h1m-3 1h2"/></svg>