<svg xmlns="http://www.w3.org/2000/svg" width="32" height="32" shape-rendering="crispEdges" viewBox="0 -0.5 32 32"><path stroke="gray" d="M4 0h18M4 1h1m16 0h1M4 2h1m16 0h2M4 3h1m16 0h1m1 0h1M4 4h1m16 0h1m2 0h1M4 5h1m16 0h1m3 0h1M4 6h1m16 0h1M4 7h1M4 8h1M4 9h1m-1 1h1m-1 1h1m9 0h1M4 12h1m9 0h1M4 13h1m6 0h1m-8 1h1m-1 1h1m-1 1h1m-1 1h1m-1 1h1m-1 1h1m-1 1h1m-1 1h1m-1 1h1m-1 1h1m-1 1h1m-1 1h1m-1 1h1m-1 1h1m-1 1h1m-1 1h1m-1 1h1"/><path stroke="#ff0" d="M5 1h1m3 0h1m3 0h1m3 0h1M7 2h1m3 0h1m3 0h1m3 0h1M5 3h1m3 0h1m3 0h1m3 0h1M7 4h1m3 0h1m3 0h1m3 0h1M5 5h1m3 0h1m3 0h1m3 0h1M7 6h1m3 0h1m7 0h1M5 7h1m3 0h1m11 0h1m3 0h1M7 8h1m15 0h1M5 9h1m3 0h1m11 0h1m3 0h1M7 10h1m15 0h1M5 11h1m3 0h1m11 0h1m3 0h1M7 12h1m15 0h1M5 13h1m3 0h1m11 0h1m3 0h1M7 14h1m15 0h1M5 15h1m3 0h1m11 0h1m3 0h1M7 16h1m3 0h1m7 0h1m3 0h1M5 17h1m3 0h1m3 0h1m3 0h1m3 0h1m3 0h1M7 18h1m3 0h1m3 0h1m3 0h1m3 0h1M5 19h1m3 0h1m3 0h1m3 0h1m3 0h1m3 0h1m-3 1h1M5 21h1m3 0h1m3 0h1m3 0h1m3 0h1m3 0h1M7 22h1m15 0h1M5 23h1m3 0h1m3 0h1m3 0h1m3 0h1m3 0h1M7 24h1m15 0h1M5 25h1m3 0h1m3 0h1m3 0h1m3 0h1m3 0h1M7 26h1m15 0h1M5 27h1m3 0h1m3 0h1m3 0h1m3 0h1m3 0h1M7 28h1m3 0h1m3 0h1m3 0h1m3 0h1M5 29h1m3 0h1m3 0h1m3 0h1m3 0h1m3 0h1"/><path stroke="#fff" d="M6 1h3m1 0h3m1 0h3m1 0h3M5 2h2m1 0h3m1 0h3m1 0h3m1 0h1M6 3h3m1 0h3m1 0h3m1 0h3M5 4h2m1 0h3m1 0h3m1 0h3m1 0h1m1 0h1M6 5h3m1 0h3m1 0h3m1 0h3m1 0h2M5 6h2m1 0h3m1 0h2m3 0h2m1 0h1M6 7h3m1 0h2m7 0h2m1 0h3M5 8h2m1 0h3m9 0h3m1 0h2M6 9h3m1 0h1m1 0h1m7 0h1m1 0h3M5 10h2m1 0h2m1 0h1m9 0h2m1 0h2M6 11h3m2 0h1m1 0h1m8 0h3M5 12h2m1 0h2m2 0h1m8 0h2m1 0h2M6 13h3m13 0h3M5 14h2m1 0h3m9 0h3m1 0h2M6 15h3m1 0h1m9 0h1m1 0h3M5 16h2m1 0h3m9 0h3m1 0h2M6 17h3m1 0h3m5 0h3m1 0h3M5 18h2m1 0h3m1 0h3m1 0h3m1 0h3m1 0h2M6 19h3m1 0h3m1 0h3m1 0h3m1 0h3M5 20h3m16 0h2M6 21h3m1 0h3m1 0h3m1 0h3m1 0h3M5 22h2m17 0h2M6 23h3m1 0h3m1 0h3m1 0h3m1 0h3M5 24h2m17 0h2M6 25h3m1 0h3m1 0h3m1 0h3m1 0h3M5 26h2m17 0h2M6 27h3m1 0h3m1 0h3m1 0h3m1 0h3M5 28h2m1 0h3m1 0h3m1 0h3m1 0h3m1 0h2M6 29h3m1 0h3m1 0h3m1 0h3m1 0h3"/><path stroke="#000" d="M22 1h1m0 1h1m0 1h1m0 1h1m0 1h1m-5 1h6m-1 1h1m-1 1h1m-9 1h1m7 0h1m-8 1h1m6 0h1m-8 1h1m6 0h1m-8 1h1m6 0h1m-8 1h1m6 0h1m-1 1h1m-9 1h1m7 0h1m-11 1h2m8 0h1m-14 1h3m10 0h1m-1 1h1m-1 1h1m-1 1h1m-1 1h1m-1 1h1m-1 1h1m-1 1h1m-1 1h1m-1 1h1m-1 1h1m-1 1h1m-1 1h1m-1 1h1M4 31h24"/><path stroke="silver" d="M22 3h1m0 1h1m0 1h1M14 7h1m11 0h1M12 8h1m13 0h1m-1 1h1m-15 1h2m12 0h1m-15 1h1m13 0h1m-14 1h1m12 0h1m-1 1h1m-1 1h1m-1 1h1m-1 1h1m-1 1h1m-1 1h1m-1 1h1m-1 1h1m-1 1h1m-1 1h1m-1 1h1m-1 1h1m-1 1h1m-1 1h1m-1 1h1m-1 1h1m-1 1h1M5 30h22"/><path stroke="teal" d="M14 6h3m-5 1h2m2 0h1m1 0h1m-8 1h1m1 0h1m5 0h1m-9 1h1m4 0h2m-8 1h1m3 0h1m2 0h1m1 0h1m-10 1h1m5 0h2m-8 1h2m-2 1h1m5 0h1m-6 1h1m2 0h1m-4 1h1m5 0h1"/><path stroke="navy" d="M15 7h1m-2 2h1m1 1h1m1 0h1m0 2h1m-3 1h1m1 0h1m-4 1h4m-2 1h1m-7 1h3m1 0h1"/><path stroke="green" d="M17 7h1m-4 1h5m-6 1h1m4 0h1m-4 2h1m-1 1h2m-3 1h2m-1 1h1m-1 1h1"/><path stroke="#00f" d="M15 9h1m-1 1h1m2 1h2m-3 1h2m-7 1h2m4 0h1m-7 1h2m-2 1h3m1 0h1m-2 1h1m-8 4h15M8 22h15M8 24h15M8 26h15"/></svg>