<svg xmlns="http://www.w3.org/2000/svg" width="16" height="16" shape-rendering="crispEdges" viewBox="0 -0.5 16 16"><path stroke="gray" d="M5 0h5M3 1h2m5 0h2M2 2h1M1 3h1M1 4h1M0 5h1M0 6h1M0 7h1M0 8h1M0 9h1m-1 1h1"/><path stroke="silver" d="M5 1h1M4 2h1M3 3h1M2 4h1M1 5h1m1 0h1M1 7h1m1 0h1M2 8h1M2 9h1m2 1h1"/><path stroke="#fff" d="M6 1h1M3 2h1m1 0h1M2 3h1m0 1h1M2 5h1m1 0h1M1 6h3M2 7h1m1 0h1M3 8h1m1 0h1"/><path stroke="#00f" d="M7 1h1M6 2h1M6 4h2M5 5h2m2 0h1m3 0h1M4 6h1m2 0h1m3 0h2M9 7h1m2 0h1m-3 1h1m1 1h1M3 10h2m5 0h1m-8 1h3m3 0h1m-8 1h5m1 0h1m-6 1h2m2 0h1m1 0h1"/><path stroke="teal" d="M8 1h2M4 3h1m8 3h1M1 8h1M1 9h1m2 0h2m4 0h1"/><path stroke="green" d="M7 2h2m1 0h2m-2 1h3M9 4h1m1 0h2m-2 1h2M5 6h1m3 0h1M6 7h2M6 8h2m1 0h1M6 9h1m1 0h2m-9 1h1m6 0h1m-3 1h3m-2 1h1"/><path stroke="red" d="M9 2h1M5 3h1m1 6h1m-6 1h1m8 1h1"/><path stroke="navy" d="M12 2h1m0 5h1m-2 1h2m-1 1h1m-5 1h1m2 0h2m-4 1h1m1 0h1M1 12h1m7 0h1m2 0h1M2 13h1m2 0h2m1 0h1m1 0h2m-9 1h7"/><path stroke="#000" d="M6 3h2m5 0h1M8 4h1m1 0h1m2 0h1M7 5h2m1 0h1m3 0h1M6 6h1m1 0h1m1 0h1m3 0h1M5 7h1m2 0h1m1 0h2m2 0h1M4 8h1m3 0h1m2 0h1m2 0h1M3 9h1m7 0h1m2 0h1m-4 1h1m2 0h1m-2 1h1m-1 1h1m-2 1h1m-3 1h2m-7 1h5"/><path stroke="maroon" d="M8 3h2M4 4h2m0 6h2m-7 1h2m7 1h2"/></svg>