<svg xmlns="http://www.w3.org/2000/svg" viewBox="0 -0.5 16 16" shape-rendering="crispEdges">
<path stroke="#808080" d="M0 0h1M3 0h10M3 1h1M13 1h1M3 2h1M14 2h1M3 3h1M3 4h1M8 4h1M3 5h1M12 5h1M3 6h1M3 7h1M8 7h1M3 8h1M3 10h1M3 11h1M3 12h1M3 13h1" />
<path stroke="#ffffff" d="M0 0h1M4 1h3M8 1h3M4 2h1M6 2h3M10 2h2M13 2h1M4 3h3M4 4h1M4 5h2M13 5h1M4 6h1M7 6h1M4 7h1M13 7h1M4 8h1M13 9h1M4 10h1M7 10h1M12 10h1M4 11h1M6 11h1M8 11h3M12 11h2M4 12h1M6 12h3M10 12h3" />
<path stroke="#ffff00" d="M0 0h1M7 1h1M11 1h1M5 2h1M9 2h1M5 4h1M13 4h1M5 6h1M13 6h1M13 8h1M13 10h1M7 11h1M11 11h1M5 12h1M9 12h1M13 12h1" />
<path stroke="#c0c0c0" d="M0 0h1M12 1h1M12 2h1M7 3h1M11 3h1M6 4h1M12 4h1M14 4h1M7 5h1M14 5h1M8 6h1M14 6h1M7 7h1M14 7h1M14 8h1M12 9h1M14 9h1M11 10h1M14 10h1M14 11h1M14 12h1M4 13h11" />
<path stroke="#008080" d="M0 0h1M8 3h3M7 4h1M9 4h1M11 4h1M6 5h1M8 5h1M10 5h1M6 6h1M6 7h1M10 7h1" />
<path stroke="#000000" d="M0 0h1M12 3h4M15 4h1M15 5h1M15 6h1M15 7h1M15 8h1M11 9h1M15 9h1M8 10h3M15 10h1M15 11h1M15 12h1M15 13h1M3 14h13" />
<path stroke="#ff0000" d="M0 0h1M1 4h1M0 5h1M0 6h1M0 7h1M5 7h1M1 8h1M5 8h2M2 9h6M5 10h2M5 11h1" />
<path stroke="#008000" d="M0 0h1M10 4h1M11 5h1M9 6h1M9 7h1M9 8h1" />
<path stroke="#0000ff" d="M0 0h1M9 5h1M11 6h1M11 7h1M7 8h2M10 8h1M8 9h1" />
<path stroke="#000080" d="M0 0h1M10 6h1M12 6h1M12 7h1M11 8h2M9 9h2" />
</svg>