<svg xmlns="http://www.w3.org/2000/svg" width="32" height="32" shape-rendering="crispEdges" viewBox="0 -0.5 32 32"><path stroke="gray" d="M6 0h19M6 1h1m17 0h1M6 2h1m17 0h2M6 3h1m17 0h1m1 0h1M6 4h1m17 0h1m2 0h1M6 5h1m17 0h1m3 0h1M5 6h5m1 0h1m12 0h1M3 7h2m8 0h1M2 8h1m11 0h1M1 9h1m13 0h1M1 10h1m13 0h1M0 11h1m15 0h1M0 12h1m15 0h1M0 13h1m8 0h5m2 0h1M0 14h1m15 0h1M0 15h1m8 0h5m2 0h1M1 16h1m13 0h1M1 17h1m7 0h3m3 0h1M2 18h1m11 0h1m1 0h1m-3 1h2m1 0h1m-7 1h1m3 0h1m2 0h1M6 21h1m5 0h1m6 0h1M6 22h1m6 0h1m6 0h1M6 23h1m14 0h1M6 24h1m15 0h1M6 25h1m16 0h1M6 26h1m17 0h1M6 27h1m18 0h1M6 28h1"/><path stroke="#fff" d="M7 1h17M7 2h17M7 3h17M7 4h17m1 0h1M7 5h17m1 0h2M13 6h11M6 7h1m1 0h1m5 0h15M3 8h1m3 0h1m12 0h9M2 9h1m1 0h1m1 0h1m9 0h13M3 10h2m12 0h12M2 11h1m1 0h1m12 0h12M1 12h1m1 0h2m20 0h4M2 13h1m1 0h1m12 0h12M1 14h1m1 0h1m21 0h4M2 15h1m1 0h1m12 0h12M3 16h1m21 0h4M4 17h1m11 0h13m-4 1h4m-11 1h11m-16 1h1m11 0h4M7 21h5m2 0h1m5 0h9M7 22h3m5 0h1m9 0h4M7 23h7m2 0h1m5 0h7M7 24h3m7 0h1m7 0h4M7 25h9m2 0h1m5 0h5M7 26h10m2 0h1m5 0h4M7 27h11m2 0h1m5 0h3m-8 1h1m0 1h1"/><path stroke="#000" d="M25 1h1m0 1h1m0 1h1m0 1h1m0 1h1M10 6h1m14 0h6M11 7h2m17 0h1M13 8h1m16 0h1M14 9h1m15 0h1m-17 1h1m15 0h1m-16 1h1m14 0h1m-16 1h1m14 0h1m-16 1h1m14 0h1m-16 1h1m14 0h1m-16 1h1m14 0h1m-17 1h1m15 0h1m-17 1h1m15 0h1m-18 1h1m1 0h1m14 0h1M3 19h2m6 0h2m3 0h1m13 0h1M5 20h6m6 0h1m12 0h1m-13 1h1m11 0h1m-12 1h1m10 0h1m-11 1h1m9 0h1m-10 1h1m8 0h1m-9 1h1m7 0h1m-8 1h1m6 0h1m-7 1h1m5 0h1m-6 1h1m4 0h1M6 29h14m5 0h6m-6 1h1m-4 1h3"/><path stroke="silver" d="M25 3h1m0 1h1m0 1h1M12 6h1M5 7h1m4 0h1m18 0h1M5 8h1m3 0h1m1 0h1m3 0h5m9 0h1M5 9h1m2 0h1m1 0h1m1 0h1m16 0h1M5 10h1m1 0h1m1 0h1m1 0h1m1 0h1m2 0h1m12 0h1M5 11h2m1 0h1m1 0h1m1 0h1m16 0h1M5 12h1m1 0h1m1 0h1m1 0h1m1 0h1m3 0h8m4 0h1M5 13h2m1 0h1m20 0h1M5 14h1m1 0h1m1 0h1m1 0h1m1 0h1m3 0h8m4 0h1M5 15h2m1 0h1m20 0h1M5 16h1m1 0h1m1 0h1m1 0h1m4 0h9m4 0h1M2 17h1m2 0h2m1 0h1m20 0h1M3 18h1m1 0h1m1 0h1m1 0h1m7 0h8m4 0h1m-17 1h1m15 0h1m-18 1h1m1 0h1m4 0h6m4 0h1m-17 1h1m15 0h1m-20 1h3m8 0h4m4 0h1m-1 1h1m-20 1h5m8 0h2m4 0h1m-1 1h1m-1 1h1m-1 1h1M7 28h12m7 0h4"/><path stroke="#0ff" d="M7 7h1m1 0h1M4 8h1m1 0h1m1 0h1m1 0h1M3 9h1m3 0h1m1 0h1m1 0h1M2 10h1m3 0h1m1 0h1m1 0h1m1 0h1M1 11h1m1 0h1m3 0h1m1 0h1m1 0h1m1 0h1M2 12h1m3 0h1m1 0h1m1 0h1m1 0h1M1 13h1m1 0h1m3 0h1m-6 1h1m1 0h1m1 0h1m1 0h1m1 0h1m1 0h1M1 15h1m1 0h1m3 0h1m-6 1h1m1 0h1m1 0h1m1 0h1m1 0h1m1 0h1M3 17h1m3 0h1m-4 1h1m1 0h1m1 0h1m1 0h1"/><path stroke="teal" d="M12 8h1m0 1h1m0 2h1m-1 1h1m-1 1h1m-1 1h1m-1 1h1m-2 1h1m-2 1h2m-3 1h2m-8 1h6"/><path stroke="purple" d="M16 20h1m-1 1h2m-1 1h2m-5 1h1m3 0h2m-5 1h1m3 0h2m-5 1h1m3 0h2m-5 1h1m3 0h2m-5 1h1m3 0h2m-5 1h1m3 0h2m-5 1h1m3 0h1m-4 1h1m2 0h1"/><path stroke="#f0f" d="M15 21h1m-2 1h1m1 0h1m-2 1h1m1 0h1m-2 1h1m1 0h1m-2 1h1m1 0h1m-2 1h1m1 0h1m-2 1h1m1 0h1m-2 1h1m1 0h1m-2 1h1m1 0h1m-2 1h2"/></svg>