<svg xmlns="http://www.w3.org/2000/svg" width="32" height="32" shape-rendering="crispEdges" viewBox="0 -0.5 32 32"><path stroke="gray" d="M11 0h9M9 1h2m9 0h2M7 2h2m13 0h2M6 3h1M5 4h1M4 5h1M3 6h1M2 7h1M2 8h1m10 0h13M1 9h1m11 0h1m11 0h1M1 10h1m11 0h1m11 0h2M0 11h1m12 0h1m11 0h1m1 0h1M0 12h1m12 0h1m11 0h1m2 0h1M0 13h1m12 0h1m11 0h1m3 0h1M0 14h1m12 0h1m11 0h1M0 15h1m12 0h1m7 0h1m2 0h1M0 16h1m12 0h1M0 17h1m12 0h1M0 18h1m12 0h1m7 0h1M0 19h1m12 0h1M1 20h1m11 0h1M0 21h10m3 0h1M0 22h1m12 0h1M0 23h1m12 0h1M0 24h1m12 0h1M0 25h1m12 0h1M0 26h1m12 0h1M0 27h1m12 0h1M0 28h1m12 0h1M0 29h1m12 0h1M0 30h1m12 0h1"/><path stroke="#fff" d="M11 1h1m2 0h1M9 2h1m2 0h1M7 3h2m2 0h1M6 4h1m1 0h3M5 5h3m1 0h1M4 6h1M3 7h1m3 0h2M4 8h2m1 0h1M2 9h1m1 0h5m5 0h1m1 0h3m1 0h3m1 0h1M3 10h3m8 0h3m1 0h3m1 0h3M1 11h1m1 0h3m8 0h1m1 0h3m1 0h3m1 0h1M2 12h4m3 0h1m4 0h3m1 0h3m1 0h3m1 0h1M3 13h5m6 0h1m1 0h3m1 0h3m1 0h1m1 0h2M2 14h4m2 0h1m5 0h3m1 0h3m3 0h1M3 15h3m1 0h1m6 0h1m1 0h3m6 0h2m1 0h2M4 16h1m1 0h1m1 0h1m5 0h3m1 0h1m7 0h3m-15 1h1m1 0h3m1 0h1m5 0h1m1 0h2m-16 1h3m1 0h1m7 0h3m-15 1h1m1 0h3m7 0h1m1 0h2m-16 1h3m1 0h2m6 0h3m-15 1h1m1 0h3m1 0h1m3 0h3m1 0h2M1 22h9m4 0h3m1 0h3m1 0h3m1 0h3M1 23h3m4 0h2m4 0h1m13 0h2M1 24h4m3 0h2m4 0h3m1 0h3m1 0h3m1 0h3M1 25h3m4 0h2m4 0h1m13 0h2M1 26h2m3 0h1m1 0h2m4 0h3m1 0h3m1 0h3m1 0h3M1 27h2m2 0h5m4 0h1m13 0h2M1 28h2m1 0h6m4 0h3m1 0h3m1 0h3m1 0h3M1 29h3m1 0h5m4 0h1m1 0h3m1 0h3m1 0h3m1 0h2M1 30h9"/><path stroke="teal" d="M12 1h2m1 0h1m1 0h3m-3 1h1M9 3h2m-1 2h1M5 6h1M4 7h1m4 3h1m-8 1h1m-2 1h1m-1 1h1m-1 1h1m19 0h3M2 15h1m17 0h1m1 0h1M1 16h1m1 0h1m15 0h1m1 0h1m1 0h1M2 17h1m16 0h1M1 18h1m1 0h1m15 0h1m3 0h1M2 19h1m7 0h2m7 0h1M4 20h1m15 0h1m-9 4h1m-1 1h1"/><path stroke="#00f" d="M16 1h1m-4 1h1m4 0h1m-7 1h2m-3 1h1m1 0h1m-2 1h1M9 6h1M6 7h1m4 2h2m-2 1h2m-5 1h2m1 0h2m-6 1h2m-3 2h1m-2 2h1m16 0h1M4 17h2m18 0h1M5 18h2m17 0h1M4 19h5m11 0h2m1 0h1M3 20h1m1 0h7m9 0h1m-11 1h1m-1 1h1m-1 1h2m3 0h12m-17 1h1m-1 1h1m4 0h12m-17 1h1m0 1h1m3 0h12m-17 1h1"/><path stroke="silver" d="M10 2h1M7 4h1M7 6h1M5 7h1M3 8h1m2 0h1M3 9h1m-2 1h1m3 0h1m3 1h1m15 0h1M6 12h1m20 0h1M2 13h1m25 0h1M1 15h1m4 0h1m23 0h1M2 16h1m4 0h1m12 0h1m9 0h1M1 17h1m1 0h1m2 0h1m14 0h1m8 0h1M2 18h1m1 0h1m2 0h2m11 0h1m9 0h1M1 19h1m1 0h1m5 0h1m20 0h1m-1 1h1m-1 1h1m-1 1h1m-1 1h1m-1 1h1m-1 1h1m-1 1h1m-1 1h1m-1 1h1m-1 1h1m-17 1h17"/><path stroke="green" d="M11 2h1m2 0h3m2 0h3m-8 1h10M14 4h11M8 5h1m2 0h1m1 0h12M6 6h1m1 0h1m1 0h16M9 7h16m1 0h1M8 8h5m14 0h1M9 9h2m17 0h1M7 10h2m-3 1h2m2 1h3m-5 1h5m-6 1h1m1 0h4m-5 1h5m10 0h1M9 16h4m11 0h1M7 17h6m9 0h1M9 18h4m9 0h1m-11 1h1m9 0h1M2 20h1m9 0h1m-1 1h1m-1 1h1"/><path stroke="#000" d="M24 3h1m0 1h1m0 1h1m0 1h1m0 1h1m-1 1h1m-3 1h1m2 0h1m-3 1h1m1 0h1m-2 1h1m1 0h1m-2 1h2m-1 1h1m-5 1h6m-1 1h1m-1 1h1m-1 1h1m-1 1h1m-1 1h1m-8 1h1m6 0h1m-22 1h1m10 0h3m7 0h1m-22 1h1m20 0h1M4 23h4m2 0h1m20 0h1M5 24h3m2 0h1m20 0h1M4 25h4m2 0h1m20 0h1M3 26h3m1 0h1m2 0h1m20 0h1M3 27h2m5 0h1m20 0h1M3 28h1m6 0h1m20 0h1M4 29h1m5 0h1m20 0h1m-22 1h3m18 0h1M0 31h11m2 0h19"/><path stroke="navy" d="M12 4h1m12 1h1m0 1h1m-2 1h1m1 0h1m-2 1h1m0 1h1m-18 1h1m17 0h1m0 1h1m-5 5h1m-3 1h1m1 0h1m-1 1h1m-2 1h2m-4 1h2m-12 6h1m-2 1h1m0 1h1m-2 1h2"/><path stroke="#ff0" d="M15 9h1m3 0h1m3 0h1m-7 1h1m3 0h1m-7 1h1m3 0h1m3 0h1m-7 1h1m3 0h1m-7 1h1m3 0h1m3 0h1m-7 1h1m-3 1h1m3 0h1m7 0h1m-11 1h1m11 0h1m-15 1h1m11 0h1m-11 1h1m11 0h1m-15 1h1m11 0h1m-11 1h1m7 0h1m3 0h1m-15 1h1m3 0h1m7 0h1m-11 1h1m3 0h1m3 0h1m3 0h1m-15 1h1m1 1h1m3 0h1m3 0h1m3 0h1m-15 1h1m1 1h1m3 0h1m3 0h1m3 0h1m-15 1h1m1 1h1m3 0h1m3 0h1m3 0h1m-15 1h1m3 0h1m3 0h1m3 0h1"/></svg>