<svg xmlns="http://www.w3.org/2000/svg" viewBox="0 -0.5 32 32" shape-rendering="crispEdges">
<path stroke="#808080" d="M0 0h1M0 0h18M0 1h1M17 1h1M0 2h1M17 2h2M0 3h1M17 3h1M19 3h1M0 4h1M17 4h1M20 4h1M0 5h1M17 5h1M21 5h1M0 6h1M17 6h1M0 7h1M0 8h1M0 9h1M0 10h1M0 11h1M0 12h1M0 13h1M18 13h7M0 14h1M16 14h2M25 14h2M0 15h1M15 15h1M27 15h1M0 16h1M14 16h1M28 16h1M0 17h1M13 17h1M29 17h1M0 18h1M12 18h1M30 18h1M0 19h1M12 19h1M19 19h1M24 19h1M31 19h1M0 20h1M12 20h1M21 20h1M23 20h1M31 20h1M0 21h1M12 21h1M22 21h1M31 21h1M0 22h1M12 22h1M22 22h1M31 22h1M0 23h1M13 23h1M30 23h2M0 24h1M14 24h1M29 24h2M0 25h1M15 25h1M28 25h2M0 26h1M27 26h2M0 27h1M20 27h1M25 27h3M0 28h1M24 28h2M24 29h1M24 30h1M24 31h1" />
<path stroke="#ffffff" d="M0 0h1M1 1h16M1 2h16M1 3h16M1 4h16M18 4h1M1 5h16M18 5h2M1 6h3M13 6h4M1 7h21M1 8h21M1 9h21M1 10h3M20 10h2M1 11h21M1 12h3M20 12h2M1 13h17M1 14h3M19 14h2M22 14h3M1 15h14M16 15h3M20 15h3M24 15h3M1 16h3M15 16h2M18 16h1M24 16h1M26 16h2M1 17h12M14 17h1M16 17h3M21 17h1M25 17h2M28 17h1M1 18h3M14 18h3M18 18h1M21 18h1M26 18h3M1 19h11M13 19h2M16 19h3M21 19h1M25 19h2M28 19h2M1 20h3M14 20h3M18 20h3M24 20h1M26 20h3M1 21h11M13 21h2M16 21h3M20 21h1M24 21h3M28 21h2M1 22h3M14 22h3M18 22h3M23 22h2M26 22h3M1 23h12M14 23h1M16 23h3M20 23h3M24 23h3M28 23h1M1 24h3M15 24h2M18 24h3M23 24h2M26 24h2M1 25h14M17 25h2M20 25h1M24 25h2M1 26h15M19 26h2M22 26h3M1 27h17M21 27h2M22 28h1M22 29h1" />
<path stroke="#000000" d="M0 0h1M18 1h1M19 2h1M20 3h1M21 4h1M22 5h1M18 6h6M23 7h1M23 8h1M23 9h1M23 10h1M23 11h1M23 12h1M30 19h1M30 20h1M30 21h1M30 22h1M29 23h1M28 24h1M27 25h1M16 26h2M25 26h2M18 27h2M23 27h2M20 28h1M23 28h1M0 29h22M23 29h1M22 30h2M23 31h1" />
<path stroke="#c0c0c0" d="M0 0h1M18 3h1M19 4h1M20 5h1M4 6h9M22 7h1M22 8h1M22 9h1M4 10h16M22 10h1M22 11h1M4 12h16M22 12h1M4 14h12M18 14h1M4 16h10M19 16h1M20 17h1M4 18h8M13 18h1M29 18h1M4 20h8M4 22h8M13 22h1M29 22h1M4 24h10M16 25h1M26 25h1M18 26h1M1 28h19" />
<path stroke="#ffff00" d="M0 0h1M21 14h1M19 15h1M23 15h1M17 16h1M25 16h1M15 17h1M27 17h1M17 18h1M25 18h1M15 19h1M27 19h1M13 20h1M17 20h1M25 20h1M29 20h1M15 21h1M19 21h1M23 21h1M27 21h1M17 22h1M25 22h1M15 23h1M19 23h1M23 23h1M27 23h1M17 24h1M25 24h1M19 25h1M23 25h1M21 26h1M21 28h1" />
<path stroke="#0000ff" d="M0 0h1M20 16h4M19 17h1M22 17h3M19 18h2M22 18h3M20 19h1M22 19h2M22 20h1M21 21h1M21 22h1M21 24h2M21 25h2" />
</svg>