<svg xmlns="http://www.w3.org/2000/svg" viewBox="0 -0.5 32 32" shape-rendering="crispEdges">
<path stroke="#000000" d="M0 0h1M4 4h18M4 5h1M21 5h1M4 6h1M21 6h1M4 7h18M4 8h1M21 8h1M4 9h1M21 9h1M4 10h1M21 10h1M4 11h1M7 11h1M9 11h1M11 11h18M4 12h1M11 12h1M28 12h1M4 13h1M7 13h1M9 13h1M11 13h1M28 13h1M4 14h1M11 14h18M4 15h1M7 15h1M9 15h1M11 15h1M28 15h1M4 16h1M11 16h1M28 16h1M4 17h1M11 17h1M28 17h1M4 18h1M11 18h1M14 18h1M16 18h1M18 18h1M20 18h1M22 18h1M24 18h2M28 18h1M4 19h1M11 19h1M28 19h1M4 20h1M11 20h1M14 20h1M16 20h2M19 20h1M21 20h1M23 20h2M28 20h1M4 21h8M28 21h1M11 22h1M14 22h1M16 22h1M18 22h1M20 22h2M23 22h1M25 22h1M28 22h1M11 23h1M28 23h1M11 24h1M28 24h1M11 25h1M28 25h1M11 26h1M14 26h1M16 26h1M18 26h1M28 26h1M11 27h1M28 27h1M11 28h18" />
<path stroke="#0000ff" d="M0 0h1M5 5h16M5 6h16M12 12h16M12 13h16" />
<path stroke="#808080" d="M0 0h1M22 6h1M22 7h1M22 8h1M22 9h1M22 10h1M29 13h1M29 14h1M29 15h1M29 16h1M29 17h1M29 18h1M29 19h1M29 20h1M29 21h1M6 22h5M29 22h1M29 23h1M29 24h1M29 25h1M29 26h1M29 27h1M29 28h1M13 29h17" />
<path stroke="#ffffff" d="M0 0h1M5 8h16M5 9h16M5 10h16M5 11h2M8 11h1M10 11h1M5 12h6M5 13h2M8 13h1M10 13h1M5 14h6M5 15h2M8 15h1M10 15h1M5 16h6M5 17h6M5 18h6M5 19h6M5 20h6" />
<path stroke="#c0c0c0" d="M0 0h1M12 15h16M12 16h16M12 17h16M12 18h2M15 18h1M17 18h1M19 18h1M21 18h1M23 18h1M26 18h2M12 19h16M12 20h2M15 20h1M18 20h1M20 20h1M22 20h1M25 20h3M12 21h16M12 22h2M15 22h1M17 22h1M19 22h1M22 22h1M24 22h1M26 22h2M12 23h16M12 24h16M12 25h16M12 26h2M15 26h1M17 26h1M19 26h9M12 27h16" />
</svg>