<svg xmlns="http://www.w3.org/2000/svg" width="16" height="16" shape-rendering="crispEdges" viewBox="0 -0.5 16 16"><path stroke="gray" d="M1 0h10M1 1h1m9 0h1M1 2h1m10 0h1M1 3h1M1 4h1m4 0h1M1 5h1m8 0h1M1 6h1M1 7h1m4 0h1M1 8h1m2 0h1M1 9h1m-1 1h1m-1 1h1m-1 1h1m-1 1h1"/><path stroke="#fff" d="M2 1h3m1 0h3M2 2h1m1 0h3m1 0h2m1 0h1M2 3h3M2 4h1M2 5h2m7 0h1M2 6h1m2 0h1M2 7h2m7 0h1M2 8h1M2 9h2m7 0h1M2 10h1m1 0h1m5 0h1m-9 1h3m1 0h3m1 0h2M2 12h1m1 0h3m1 0h3"/><path stroke="#ff0" d="M5 1h1m3 0h1M3 2h1m3 0h1M3 4h1m7 0h1M3 6h1m7 0h1M3 8h1m7 0h1m-9 2h1m7 0h1m-7 1h1m3 0h1m-7 1h1m3 0h1m3 0h1"/><path stroke="silver" d="M10 1h1m-1 1h1M5 3h1m3 0h1M4 4h1m5 0h1m1 0h1M5 5h1m6 0h1M6 6h1m5 0h1M5 7h1m6 0h1m-1 1h1M4 9h1m5 0h1m1 0h1m-8 1h1m3 0h1m2 0h1m-1 1h1m-1 1h1M2 13h11"/><path stroke="teal" d="M6 3h3M5 4h1m1 0h1m1 0h1M4 5h1m1 0h1m1 0h1M4 6h1M4 7h1m3 0h1"/><path stroke="#000" d="M10 3h4m-1 1h1m-1 1h1m-1 1h1m-1 1h1m-1 1h1M9 9h1m3 0h1m-8 1h3m4 0h1m-1 1h1m-1 1h1m-1 1h1M1 14h13"/><path stroke="green" d="M8 4h1m0 1h1M7 6h1M7 7h1M7 8h1"/><path stroke="#00f" d="M7 5h1m1 1h1M9 7h1M5 8h2m1 0h1M6 9h1"/><path stroke="navy" d="M8 6h1m1 0h1m-1 1h1M9 8h2M5 9h1m1 0h2"/></svg>