<svg xmlns="http://www.w3.org/2000/svg" width="16" height="16" shape-rendering="crispEdges" viewBox="0 -0.5 16 16"><path stroke="gray" d="M0 0h10M0 1h1m9 0h1M0 2h1m10 0h1M0 3h1M0 4h1M0 5h1M0 6h1M0 7h1m8 0h1M0 8h1m7 0h1M0 9h1m-1 1h1m-1 1h1m-1 1h1m-1 1h1m-1 1h1"/><path stroke="#fff" d="M1 1h8M1 2h8m1 0h1M1 3h8M1 4h2m7 0h1M1 5h2m7 0h1M1 6h2M1 7h2M1 8h2M1 9h2m2 0h1m4 0h1M1 10h2m2 0h3m2 0h1M1 11h2m7 0h1M1 12h2m7 0h1M1 13h10"/><path stroke="silver" d="M9 1h1M9 2h1M4 4h1m1 0h1m4 0h1M3 5h1M3 7h1m2 1h2m1 0h1m1 0h1M3 9h1m7 0h1m-1 1h1m-9 1h1m1 0h1m1 0h1m3 0h1m-1 1h1m-1 1h1M1 14h11"/><path stroke="red" d="M14 2h1m-2 1h2m-3 1h2m-3 1h2m-3 1h2"/><path stroke="maroon" d="M15 2h1m-1 1h1m-2 1h1m-2 1h1m-2 1h1m-2 1h1"/><path stroke="#000" d="M9 3h4M9 4h1M4 5h4m1 0h1M4 6h1m4 0h1M4 7h1m5 0h1m1 0h1M4 8h1m5 0h1m1 0h1M4 9h1m3 0h2m2 0h1m-9 1h1m4 0h1m2 0h1m-4 1h1m2 0h1M3 12h7m2 0h1m-1 1h1m-1 1h1M0 15h13"/><path stroke="olive" d="M3 4h1m1 0h1m1 0h2M8 5h1M3 6h1m4 0h1M8 7h1M3 8h1m-1 2h1m4 0h1m-5 1h1m1 0h1m1 0h1"/><path stroke="#0f0" d="M5 6h3M5 7h3"/><path stroke="green" d="M5 8h1m0 1h2"/></svg>