<svg xmlns="http://www.w3.org/2000/svg" viewBox="0 -0.5 32 32" shape-rendering="crispEdges">
<path stroke="#000000" d="M0 0h1M7 4h20M5 5h2M27 5h1M3 6h2M27 6h1M1 7h2M27 7h1M0 8h23M27 8h1M0 9h1M23 9h1M27 9h1M0 10h1M23 10h1M27 10h1M0 11h1M23 11h1M27 11h1M0 12h1M23 12h1M27 12h1M0 13h1M23 13h1M27 13h1M0 14h1M23 14h1M27 14h1M0 15h1M11 15h13M26 15h1M0 16h1M7 16h4M24 16h4M0 17h1M5 17h2M28 17h2M1 18h4M30 18h1M3 19h1M31 19h1M3 20h2M30 20h2M3 21h1M5 21h2M28 21h2M31 21h1M3 22h1M7 22h4M24 22h4M31 22h1M3 23h1M11 23h13M31 23h1M4 24h1M30 24h1M5 25h2M28 25h2M7 26h4M24 26h4M11 27h13" />
<path stroke="#c0c0c0" d="M0 0h1M7 5h19M5 6h20M3 7h21M2 10h21M2 11h21M2 12h1M21 12h2M2 13h21M2 14h1M21 14h2M2 15h1M4 15h7M2 16h1M4 16h3" />
<path stroke="#808080" d="M0 0h1M26 5h1M25 6h2M24 7h3M23 8h4M24 9h3M24 10h3M24 11h3M3 12h18M24 12h3M24 13h3M3 14h18M24 14h3M24 15h2M1 17h4" />
<path stroke="#ffffff" d="M0 0h1M1 9h22M1 10h1M1 11h1M1 12h1M1 13h1M1 14h1M1 15h1M1 16h1M12 16h1M14 16h1M16 16h1M18 16h1M20 16h1M22 16h1M7 17h1M9 17h1M11 17h1M13 17h1M15 17h1M17 17h1M19 17h1M21 17h1M23 17h1M25 17h1M27 17h1M6 18h1M8 18h1M10 18h1M12 18h1M14 18h1M16 18h1M18 18h1M20 18h1M22 18h1M24 18h1M26 18h1M28 18h1M5 19h1M7 19h1M9 19h1M11 19h1M13 19h1M19 19h1M21 19h1M23 19h1M25 19h1M27 19h1M29 19h1M6 20h1M8 20h1M10 20h1M18 20h1M20 20h1M22 20h1M24 20h1M26 20h1M28 20h1M7 21h1M17 21h1M19 21h1M21 21h1M23 21h1M25 21h1M27 21h1M16 22h1M18 22h1M20 22h1M22 22h1" />
<path stroke="#00ff00" d="M0 0h1M3 15h1M3 16h1" />
<path stroke="#00ffff" d="M0 0h1M11 16h1M13 16h1M15 16h1M17 16h1M19 16h1M21 16h1M23 16h1M8 17h1M10 17h1M12 17h1M14 17h1M16 17h1M18 17h1M20 17h1M22 17h1M24 17h1M26 17h1M5 18h1M7 18h1M9 18h1M11 18h1M13 18h1M15 18h1M17 18h1M19 18h1M21 18h1M23 18h1M25 18h1M27 18h1M29 18h1M4 19h1M6 19h1M8 19h1M10 19h1M12 19h1M14 19h1M18 19h1M20 19h1M22 19h1M24 19h1M26 19h1M28 19h1M30 19h1M5 20h1M7 20h1M9 20h1M17 20h1M19 20h1M21 20h1M23 20h1M25 20h1M27 20h1M29 20h1M4 21h1M16 21h1M18 21h1M20 21h1M22 21h1M24 21h1M26 21h1M30 21h1M4 22h3M15 22h1M17 22h1M19 22h1M21 22h1M23 22h1M28 22h3M4 23h3M24 23h7M5 24h2M14 24h16M14 25h14M14 26h10" />
<path stroke="#0000ff" d="M0 0h1M15 19h3M11 20h6M8 21h8M11 22h4M7 23h4M7 24h7M7 25h7M11 26h3" />
</svg>