<svg xmlns="http://www.w3.org/2000/svg" width="32" height="32" shape-rendering="crispEdges" viewBox="0 -0.5 32 32"><path stroke="gray" d="M8 0h18M8 1h1m16 0h1M8 2h1m16 0h2M8 3h1m16 0h1m1 0h1M8 4h1m16 0h1m2 0h1M8 5h1m16 0h1m3 0h1M8 6h1m16 0h1M8 19h1m-1 1h1m-1 1h1m-1 1h1m-1 1h1m-1 1h1m-1 1h1m-1 1h1m-1 1h1m-1 1h1m-1 1h1m-1 1h1"/><path stroke="#fff" d="M9 1h16M9 2h16M9 3h16M9 4h16m1 0h1M9 5h16m1 0h2M9 6h16M10 7h10m2 0h8M11 8h8m4 0h7M12 9h6m6 0h6m-18 1h6m6 0h6m-18 1h6m6 0h6m-18 1h6m6 0h6m-17 1h4m6 0h7m-16 1h2m6 0h8m-9 1h9m-9 1h9m-9 1h9m-9 1h9M9 19h1m12 0h8M9 20h2m12 0h7M9 21h3m12 0h6M9 22h3m12 0h6M9 23h3m12 0h6M9 24h3m12 0h6M9 25h4m4 0h2m4 0h7M9 26h5m2 0h4m2 0h8M9 27h21M9 28h21M9 29h21"/><path stroke="#000" d="M26 1h1m0 1h1m0 1h1m0 1h1m0 1h1m-5 1h6m-1 1h1m-1 1h1M11 9h1m11 0h1m7 0h1m-21 1h1m11 0h1m7 0h1m-21 1h1m11 0h1m7 0h1m-21 1h1m11 0h1m7 0h1m-22 1h1m11 0h1m8 0h1M9 14h1m11 0h1m9 0h1M8 15h1m5 0h1m5 0h1m10 0h1M8 16h1m5 0h1m5 0h1m10 0h1M8 17h1m5 0h1m5 0h1m10 0h1M8 18h1m5 0h1m5 0h1m10 0h1M7 19h1m5 0h1m5 0h1m11 0h1M6 20h1m5 0h1m5 0h1m12 0h1m-15 1h1m5 0h1m7 0h1m-15 1h1m5 0h1m7 0h1m-15 1h1m5 0h1m7 0h1m-15 1h1m5 0h1m7 0h1M5 25h1m10 0h1m5 0h1m8 0h1M5 26h1m9 0h1m5 0h1m9 0h1M5 27h1m25 0h1M5 28h1m25 0h1M4 29h1m26 0h1M3 30h1m27 0h1M8 31h24"/><path stroke="silver" d="M26 3h1m0 1h1m0 1h1m1 2h1m-1 1h1m-1 1h1m-1 1h1m-1 1h1m-1 1h1m-1 1h1m-20 1h1m18 0h1m-21 1h1m1 0h1m17 0h1m-20 1h1m18 0h1m-1 1h1m-1 1h1m-1 1h1m-11 1h1m9 0h1m-12 1h1m1 0h1m8 0h1m-11 1h1m9 0h1m-1 1h1m-1 1h1m-1 1h1m-1 1h1m-1 1h1m-1 1h1m-1 1h1M9 30h22"/><path stroke="green" d="M8 7h2M7 8h1m2 0h1M6 9h1m-1 1h1m3 0h1m-5 1h1m2 0h2m-5 1h1m2 0h2m-2 1h1m7 0h2m-3 1h1m2 0h1m-5 1h1m3 1h1m-2 1h2m-2 1h2m-2 1h1M2 23h2m-3 1h1m2 0h1m-5 1h1m-1 1h1m3 0h1m-5 1h1m2 0h2m-5 1h1m2 0h2m-4 1h1m1 0h1m-2 1h1"/><path stroke="purple" d="M20 7h1m-2 1h1m-2 1h1M5 13h1m-2 1h1m-2 1h1m10 4h1m-2 1h1m-2 1h1"/><path stroke="#f0f" d="M21 7h1m-2 1h3m-4 1h4m-3 1h2M6 13h1m-2 1h3m-4 1h4m-3 1h2m8 3h1m-2 1h3m-4 1h4m-3 1h2"/><path stroke="#ff0" d="M8 8h2M7 9h4m-3 1h2m7 4h2m-3 1h4m-3 1h2M2 24h2m-3 1h4m-3 1h2"/><path stroke="#0f0" d="M7 10h1m-1 1h2m-2 1h2m-2 1h2m-1 1h1m6 2h2m-2 1h3m-3 1h3m-2 1h2m-1 1h1M1 26h1m-1 1h2m-2 1h2m-1 1h1"/><path stroke="maroon" d="M18 10h1m3 0h1m-5 1h1m2 0h2m-5 1h1m2 0h2m-2 1h1M3 16h1m3 0h1m-5 1h1m2 0h2m-5 1h1m2 0h2m-4 1h1m1 0h1m-2 1h1m6 2h1m3 0h1m-5 1h1m2 0h2m-5 1h1m2 0h2m-4 1h1m1 0h1m-2 1h1"/><path stroke="red" d="M19 10h1m-1 1h2m-2 1h2m-2 1h2m-1 1h1M4 16h1m-1 1h2m-2 1h2m-1 1h1m7 3h1m-1 1h2m-2 1h2m-1 1h1"/><path stroke="teal" d="M11 13h2m-3 1h1m2 0h1m6 5h2m-3 1h1m2 0h1"/><path stroke="#0ff" d="M12 14h1m-2 1h1m1 0h1m-2 1h1m8 4h1m-2 1h1m1 0h1m-2 1h1"/><path stroke="#00f" d="M9 15h1m-1 1h2m-2 1h3m-3 1h3m-2 1h2m-1 1h1m6 1h1m-1 1h2m-2 1h3m-3 1h3m-2 1h2m-1 1h1"/><path stroke="navy" d="M13 16h1m-2 1h2m-2 1h2m-2 1h1m9 3h1m-2 1h2m-2 1h2m-2 1h1"/></svg>