<svg xmlns="http://www.w3.org/2000/svg" width="16" height="16" shape-rendering="crispEdges" viewBox="0 -0.5 16 16"><path stroke="gray" d="M3 0h10M3 1h1m9 0h1M3 2h1m10 0h1M3 3h1M3 4h1m4 0h1M3 5h1m8 0h1M3 6h1M3 7h1m4 0h1M3 8h1m-1 2h1m-1 1h1m-1 1h1m-1 1h1"/><path stroke="#fff" d="M4 1h3m1 0h3M4 2h1m1 0h3m1 0h2m1 0h1M4 3h3M4 4h1M4 5h2m7 0h1M4 6h1m2 0h1M4 7h1m8 0h1M4 8h1m8 1h1M4 10h1m2 0h1m4 0h1m-9 1h1m1 0h1m1 0h3m1 0h2M4 12h1m1 0h3m1 0h3"/><path stroke="#ff0" d="M7 1h1m3 0h1M5 2h1m3 0h1M5 4h1m7 0h1M5 6h1m7 0h1m-1 2h1m-1 2h1m-7 1h1m3 0h1m-7 1h1m3 0h1m3 0h1"/><path stroke="silver" d="M12 1h1m-1 1h1M7 3h1m3 0h1M6 4h1m5 0h1m1 0h1M7 5h1m6 0h1M8 6h1m5 0h1M7 7h1m6 0h1m-1 1h1m-3 1h1m1 0h1m-4 1h1m2 0h1m-1 1h1m-1 1h1M4 13h11"/><path stroke="teal" d="M8 3h3M7 4h1m1 0h1m1 0h1M6 5h1m1 0h1m1 0h1M6 6h1M6 7h1m3 0h1"/><path stroke="#000" d="M12 3h4m-1 1h1m-1 1h1m-1 1h1m-1 1h1m-1 1h1m-5 1h1m3 0h1m-8 1h3m4 0h1m-1 1h1m-1 1h1m-1 1h1M3 14h13"/><path stroke="red" d="M1 4h1M0 5h1M0 6h1M0 7h1m4 0h1M1 8h1m3 0h2M2 9h6m-3 1h2m-2 1h1"/><path stroke="green" d="M10 4h1m0 1h1M9 6h1M9 7h1M9 8h1"/><path stroke="#00f" d="M9 5h1m1 1h1m-1 1h1M7 8h2m1 0h1M8 9h1"/><path stroke="navy" d="M10 6h1m1 0h1m-1 1h1m-2 1h2M9 9h2"/></svg>