<svg xmlns="http://www.w3.org/2000/svg" width="32" height="32" shape-rendering="crispEdges" viewBox="0 -0.5 32 32"><path stroke="gray" d="M11 0h9M9 1h2m9 0h2M7 2h2m13 0h2M6 3h1M5 4h1M4 5h1M3 6h1M2 7h1M2 8h1M1 9h1m-1 1h1m-2 1h1m-1 1h1m17 0h3M0 13h1m15 0h2m3 0h1M0 14h1m14 0h1M0 15h1m13 0h1M0 16h1m13 0h1M0 17h1m12 0h1M0 18h1m12 0h1M0 19h1m12 0h1M1 20h1m12 0h1M1 21h1m12 0h1M2 22h1m12 0h1m8 0h1M2 23h1m21 0h2M3 24h1m17 0h1m3 0h1M4 25h1m17 0h1M5 26h1m17 0h1M6 27h1"/><path stroke="#fff" d="M11 1h1m2 0h1M9 2h1m2 0h1M7 3h2m2 0h1M6 4h1m1 0h3M5 5h3m1 0h1M4 6h1M3 7h1m3 0h2M4 8h2m1 0h1M2 9h1m1 0h5m-6 1h3m-5 1h1m1 0h3m-4 1h4m3 0h1m-7 1h5m-6 1h4m2 0h1m8 0h1m1 0h1M3 15h3m1 0h1m8 0h1m1 0h1M4 16h1m1 0h1m1 0h1m6 0h1m1 0h1m-2 1h2m-3 1h1m1 0h1m-2 1h1m-2 1h1m1 0h1m-2 1h1m6 3h1m0 1h1"/><path stroke="teal" d="M12 1h2m1 0h1m1 0h3m-3 1h1M9 3h2m-1 2h1M5 6h1M4 7h1m11 1h1m4 0h1M9 10h1m-8 1h1m19 0h1M1 12h1m-1 1h1m-1 1h1m20 0h1M2 15h1m20 0h1M1 16h1m1 0h1m-2 1h1m21 0h1M1 18h1m1 0h1m20 0h1M2 19h1m7 0h2m12 0h1M4 20h1m18 0h1M4 21h1m10 0h1m6 0h2m-8 1h1m4 0h2M3 23h1m14 0h3M4 24h1m7 0h1m-1 1h1m0 1h1"/><path stroke="#00f" d="M16 1h1m-4 1h1m4 0h1m-7 1h2m-3 1h1m1 0h1m-2 1h1M9 6h1M6 7h1m7 1h2m1 0h2m1 0h1M11 9h5m1 0h3m1 0h1m-11 1h2m2 0h1m-8 1h2m1 0h8m2 0h1M7 12h2m4 0h3m6 0h3m1 0h1m-3 1h4M6 14h1m17 0h3m1 0h1m-4 1h1M5 16h1m19 0h2M4 17h2m21 0h1M5 18h2m19 0h1M4 19h5m-6 1h1m1 0h7m14 0h1M5 21h7m13 0h1M4 22h8m-8 1h9m-8 1h7m-7 1h7m6 0h2m1 0h1M7 26h5m4 0h1m1 0h1m1 0h1m1 0h1M8 27h1m1 0h1m1 0h1m-4 1h1m1 0h1"/><path stroke="silver" d="M10 2h1M7 4h1M7 6h1M5 7h1M3 8h1m2 0h1M3 9h1m-2 1h1m3 0h1m3 1h1m-5 1h1m-5 1h1m15 0h1m1 0h1m-5 1h1m4 0h1M1 15h1m4 0h1m8 0h1m4 0h1m1 0h1M2 16h1m4 0h1m11 0h1m1 0h1m1 0h1M1 17h1m1 0h1m2 0h1m7 0h1m3 0h1m1 0h1m1 0h1M2 18h1m1 0h1m2 0h2m10 0h1m1 0h1m1 0h1M1 19h1m1 0h1m5 0h1m4 0h1m3 0h1m1 0h1m1 0h1m-4 1h1m1 0h1m-4 1h1m1 0h1m-4 1h1m1 0h1m3 1h1m-2 1h1m1 0h1m-2 1h1m1 1h1m0 1h1"/><path stroke="green" d="M11 2h1m2 0h3m2 0h3m-8 1h10M14 4h11M8 5h1m2 0h1m1 0h12M6 6h1m1 0h1m1 0h16M9 7h16m1 0h1M8 8h6m5 0h1m2 0h4m1 0h1M9 9h2m5 0h1m5 0h5m1 0h1M7 10h2m5 0h1m1 0h10m1 0h1M6 11h2m11 0h1m3 0h4m1 0h1m-19 1h3m3 0h2m9 0h1m1 0h1M8 13h8m12 0h1M7 14h1m1 0h6m14 0h1M8 15h6m14 0h1M9 16h5m14 0h1M7 17h6m-4 1h4m-1 1h1M2 20h1m9 0h2M2 21h2m8 0h2M3 22h1m8 0h3m-2 1h3m-3 1h5m-5 1h4m-2 1h1m-2 1h1"/><path stroke="#000" d="M24 3h1m0 1h1m0 1h1m0 1h1m0 1h1m-1 1h1m0 1h1m-1 1h1m0 1h1m-1 1h1m-9 1h1m7 0h1m-8 1h1m6 0h1m-7 1h1m5 0h1m-7 1h1m5 0h1m-6 1h1m4 0h1m-6 1h1m4 0h1m-6 1h1m4 0h1m-7 1h1m4 0h1m-6 1h1m4 0h1m-7 1h1m1 0h1m2 0h1m-13 1h2m3 0h2m3 0h1m1 0h1m-11 1h3m6 0h1m0 1h1m0 1h1m0 1h1M7 28h2m13 0h2m7 0h1M9 29h2m9 0h2m9 0h1m-21 1h9m11 0h1m-4 1h3"/><path stroke="navy" d="M12 4h1m12 1h1m0 1h1m-2 1h1m1 0h1m-2 1h1m-7 1h1m6 0h1m-18 1h1m2 0h1m12 0h1m1 0h1m-9 1h1m6 0h1m1 0h1m-9 1h1m3 0h1m2 0h1m-6 1h1m5 0h1m-3 1h1m-2 1h2m1 0h1m-3 1h1m1 0h1m-4 1h1m1 0h2m-3 1h3m-4 1h4m-5 1h1m1 0h2m-3 1h3m-3 1h2m-1 1h1m-11 2h1m2 0h1M6 26h1m5 0h1m1 0h1m2 0h1m1 0h1m1 0h1M7 27h1m1 0h1m1 0h1m1 0h1m1 0h9m-14 1h1m1 0h10m-11 1h9"/><path stroke="#0ff" d="M19 13h1m-2 1h1m1 0h1m-4 1h1m1 0h1m1 0h1m-6 1h1m1 0h1m1 0h1m1 0h1m-8 1h1m3 0h1m1 0h1m1 0h1m-10 1h1m1 0h1m1 0h1m1 0h1m1 0h1m-8 1h1m1 0h1m1 0h1m1 0h1m1 0h1m-8 1h1m1 0h1m1 0h1m1 0h1m-6 1h1m1 0h1m1 0h1m-4 1h1m1 0h1"/><path stroke="maroon" d="M26 24h1m-1 1h2m-1 1h2m-5 1h1m3 0h2m-5 1h1m3 0h2m-5 1h1m3 0h1m-4 1h1m2 0h1"/><path stroke="red" d="M25 25h1m-2 1h1m1 0h1m-2 1h1m1 0h1m-2 1h1m1 0h1m-2 1h1m1 0h1m-2 1h2"/><path stroke="#f0f" d="M27 28h1m0 1h1"/></svg>