<svg xmlns="http://www.w3.org/2000/svg" width="16" height="16" shape-rendering="crispEdges" viewBox="0 -0.5 16 16"><path stroke="gray" d="M3 0h11M2 1h1m10 0h1M1 2h1m10 0h2M1 3h1m10 0h2M1 4h1m10 0h2M1 5h1m10 0h2M1 6h1m10 0h2M1 7h1m10 0h2M1 8h1m10 0h2M1 9h12m1 0h1m-2 1h2M0 11h1m12 0h2M0 12h1m12 0h2M0 13h1m9 0h1m2 0h2M0 14h14"/><path stroke="silver" d="M3 1h9M3 3h1m7 0h1M3 4h1m7 0h1M3 5h1m7 0h1M3 6h1m7 0h1M3 7h1m7 0h1M3 8h9M2 12h5m5 0h1M2 13h1m1 0h6m1 0h2"/><path stroke="#fff" d="M12 1h1M2 2h10M2 3h1M2 4h1M2 5h1M2 6h1M2 7h1M2 8h1m-2 3h12M1 12h1m-1 1h1"/><path stroke="#000" d="M14 1h1m-1 1h1M4 3h7m3 0h1M4 4h1m9 0h1M4 5h1m9 0h1M4 6h1m9 0h1M4 7h1m9 0h1m-1 1h1m-2 1h1M1 10h12m2 0h1m-1 1h1m-9 1h5m3 0h1m-1 1h1m-2 1h1M1 15h13"/><path stroke="#00f" d="M5 4h5M5 5h5M5 6h5"/><path stroke="navy" d="M10 4h1m-1 1h1m-1 1h1M5 7h6"/><path stroke="#0f0" d="M3 13h1"/></svg>