<svg xmlns="http://www.w3.org/2000/svg" width="32" height="32" shape-rendering="crispEdges" viewBox="0 -0.5 32 32"><path stroke="#000" d="M12 0h8M9 1h3m8 0h3M7 2h2m14 0h2M6 3h1m18 0h1M5 4h1m20 0h1M4 5h1m22 0h1M3 6h1m24 0h1M2 7h1m26 0h1M2 8h1m26 0h1M1 9h1m28 0h1M1 10h1m28 0h1M1 11h1m1 0h1m7 0h1m2 0h4m12 0h1M0 12h1m2 0h2m5 0h2m1 0h1m4 0h1m12 0h1M0 13h1m2 0h2m5 0h2m1 0h1m17 0h1M0 14h1m2 0h1m1 0h1m3 0h1m1 0h1m1 0h1m17 0h1M0 15h1m2 0h1m1 0h1m3 0h1m1 0h1m2 0h4m13 0h1M0 16h1m2 0h1m2 0h1m1 0h1m2 0h1m6 0h1m12 0h1M0 17h1m2 0h1m2 0h3m2 0h1m6 0h1m12 0h1M0 18h1m2 0h1m3 0h1m3 0h1m1 0h1m4 0h1m12 0h1M0 19h1m2 0h1m3 0h1m3 0h1m2 0h4m13 0h1M1 20h1m28 0h1M1 21h1m28 0h1M1 22h1m28 0h1M2 23h1m26 0h1M2 24h1m26 0h1M3 25h1m24 0h1M4 26h1m22 0h1M5 27h1m20 0h1M6 28h1m18 0h1M7 29h2m14 0h2M9 30h3m8 0h3m-11 1h8"/><path stroke="#fff" d="M12 1h8M10 2h12M8 3h16M6 4h20M5 5h22M4 6h24M4 7h24M3 8h26M3 9h26M2 10h28M2 11h1m2 0h5m2 0h1m6 0h1m3 0h1m4 0h2M2 12h1m3 0h3m6 0h2m2 0h1m9 0h1M1 13h2m3 0h3m5 0h4m1 0h1m9 0h2M1 14h2m3 0h3m6 0h5m4 0h2m3 0h2M1 15h2m1 0h1m2 0h1m2 0h1m1 0h1m6 0h1m4 0h2m3 0h2M1 16h2m1 0h1m2 0h1m2 0h1m1 0h5m7 0h2m3 0h2M1 17h2m1 0h2m3 0h2m1 0h1m1 0h4m6 0h2m3 0h2M1 18h2m1 0h2m3 0h2m1 0h1m2 0h2m7 0h2m3 0h2M2 19h1m1 0h3m1 0h3m1 0h1m6 0h1m4 0h2m3 0h1M2 20h28M2 21h26m1 0h1M3 22h26M3 23h26M4 24h24M5 25h22M6 26h20M7 27h18M8 28h16m-14 1h12m-9 1h6"/><path stroke="silver" d="M9 2h1m12 0h1M7 3h1m16 0h1M3 7h1m24 0h1M2 9h1m26 0h1m-17 2h1m4 0h1m8 0h1M1 12h1m3 0h1m3 0h1m2 0h1m15 0h1m1 0h1m-13 1h1m-7 1h1m10 0h1M6 15h1m1 0h1m4 0h1m4 0h1m4 0h1m-5 1h1m3 0h1m-11 1h1m9 0h1m-5 1h1m3 0h1M1 19h1m11 0h1m4 0h1m4 0h1m6 0h1M2 22h1m26 0h1M3 24h1m24 0h1M4 25h1m22 0h1M5 26h1m20 0h1M6 27h1m18 0h1M7 28h1m16 0h1M9 29h1m12 0h1m-11 1h1m6 0h1"/><path stroke="gray" d="M4 11h1m5 0h1m3 1h1m2 0h1M5 13h1m3 0h1m2 0h1m-9 1h1m5 0h1m3 0h1M5 16h1m3 0h1m7 0h1m1 1h1M6 18h1m1 0h1m5 0h1m2 0h1"/><path stroke="red" d="M20 11h3m1 0h3m-7 1h8m-8 1h9m-9 1h3m3 0h3m-9 1h3m3 0h3m-9 1h3m3 0h3m-9 1h3m3 0h3m-9 1h3m3 0h3m-9 1h3m3 0h3m-1 2h1"/></svg>