<svg xmlns="http://www.w3.org/2000/svg" viewBox="0 -0.5 16 16" shape-rendering="crispEdges">
<path stroke="#808080" d="M0 0h1M5 0h5M3 1h2M10 1h2M2 2h1M1 3h1M1 4h1M8 4h6M0 5h1M13 5h1M0 6h1M5 6h1M13 6h1M0 7h1M5 7h1M13 7h1M0 8h1M5 8h1M13 8h1M0 9h1M5 9h1M13 9h1M0 10h1M5 10h1M13 10h1M5 11h1M14 11h1M4 12h1M14 12h1M4 13h1M14 13h1M4 14h11" />
<path stroke="#c0c0c0" d="M0 0h1M5 1h1M4 2h1M3 3h1M2 4h1M1 5h1M3 5h1M9 5h4M12 6h1M1 7h1M3 7h1M12 7h1M2 8h1M4 8h1M6 8h1M12 8h1M2 9h1M6 9h1M12 9h1M6 10h7M6 13h1M9 13h1M13 13h1" />
<path stroke="#ffffff" d="M0 0h1M6 1h1M3 2h1M5 2h1M2 3h1M3 4h1M2 5h1M6 5h1M1 6h3M2 7h1M3 8h1M5 12h9M5 13h1" />
<path stroke="#0000ff" d="M0 0h1M7 1h1M6 2h1M4 6h1M9 7h2M8 8h3M3 9h1M2 10h3M1 11h1M3 11h2M2 12h2M3 13h1" />
<path stroke="#008080" d="M0 0h1M8 1h2M4 3h1M1 8h1M1 9h1M4 9h1" />
<path stroke="#008000" d="M0 0h1M7 2h5M7 3h1M9 3h4M4 4h2M1 10h1M2 11h1M8 13h1" />
<path stroke="#000080" d="M0 0h1M12 2h1M11 7h1M11 8h1M8 9h4M1 12h1M2 13h1M3 14h1" />
<path stroke="#ffff00" d="M0 0h1M5 3h2M8 3h1M6 4h2M4 5h2M7 5h2M6 6h2M4 7h1M6 7h1M8 7h1" />
<path stroke="#000000" d="M0 0h1M13 3h1M14 5h1M8 6h4M14 6h1M7 7h1M14 7h1M7 8h1M14 8h1M7 9h1M14 9h1M14 10h2M6 11h8M15 11h1M15 12h1M10 13h3M15 13h1M15 14h1M5 15h10" />
<path stroke="#00ff00" d="M0 0h1M7 13h1" />
</svg>