<svg xmlns="http://www.w3.org/2000/svg" width="16" height="16" shape-rendering="crispEdges" viewBox="0 -0.5 16 16"><path stroke="gray" d="M5 0h5M3 1h2m5 0h2M2 2h1M1 3h1M1 4h1m6 0h6M0 5h1m12 0h1M0 6h1m4 0h1m7 0h1M0 7h1m4 0h1m7 0h1M0 8h1m4 0h1m7 0h1M0 9h1m4 0h1m7 0h1M0 10h1m4 0h1m7 0h1m-9 1h1m8 0h1M4 12h1m9 0h1M4 13h1m9 0h1M4 14h11"/><path stroke="silver" d="M5 1h1M4 2h1M3 3h1M2 4h1M1 5h1m1 0h1m5 0h4m-1 1h1M1 7h1m1 0h1m8 0h1M2 8h1m1 0h1m1 0h1m5 0h1M2 9h1m3 0h1m5 0h1m-7 1h7m-7 3h1m2 0h1m3 0h1"/><path stroke="#fff" d="M6 1h1M3 2h1m1 0h1M2 3h1m0 1h1M2 5h1m3 0h1M1 6h3M2 7h1m0 1h1m1 4h9m-9 1h1"/><path stroke="#00f" d="M7 1h1M6 2h1M4 6h1m4 1h2M8 8h3M3 9h1m-2 1h3m-4 1h1m1 0h2m-3 1h2m-1 1h1"/><path stroke="teal" d="M8 1h2M4 3h1M1 8h1M1 9h1m2 0h1"/><path stroke="green" d="M7 2h5M7 3h1m1 0h4M4 4h2m-5 6h1m0 1h1m5 2h1"/><path stroke="navy" d="M12 2h1m-2 5h1m-1 1h1M8 9h4M1 12h1m0 1h1m0 1h1"/><path stroke="#ff0" d="M5 3h2m1 0h1M6 4h2M4 5h2m1 0h2M6 6h2M4 7h1m1 0h1m1 0h1"/><path stroke="#000" d="M13 3h1m0 2h1M8 6h4m2 0h1M7 7h1m6 0h1M7 8h1m6 0h1M7 9h1m6 0h1m-1 1h2M6 11h8m1 0h1m-1 1h1m-6 1h3m2 0h1m-1 1h1M5 15h10"/><path stroke="#0f0" d="M7 13h1"/></svg>