<svg xmlns="http://www.w3.org/2000/svg" viewBox="0 -0.5 32 32" shape-rendering="crispEdges">
<path stroke="#000000" d="M0 0h1M14 0h2M13 1h1M16 1h3M12 2h1M15 2h1M19 2h2M11 3h1M14 3h1M21 3h2M10 4h1M13 4h1M23 4h2M9 5h1M12 5h1M25 5h2M8 6h1M11 6h1M27 6h2M7 7h1M10 7h1M29 7h2M6 8h1M9 8h1M31 8h1M5 9h1M8 9h1M30 9h2M4 10h1M7 10h1M29 10h2M3 11h1M6 11h1M28 11h1M30 11h1M2 12h1M5 12h1M27 12h1M30 12h1M1 13h1M4 13h1M26 13h1M28 13h3M0 14h2M3 14h1M25 14h1M27 14h2M30 14h1M0 15h1M2 15h2M24 15h1M27 15h1M30 15h1M0 16h1M2 16h4M23 16h1M30 16h1M0 17h1M2 17h1M5 17h3M22 17h1M25 17h2M30 17h2M0 18h1M2 18h1M7 18h3M21 18h1M24 18h2M29 18h1M31 18h1M0 19h1M2 19h1M9 19h3M20 19h1M24 19h1M28 19h1M30 19h1M0 20h1M2 20h1M11 20h3M19 20h1M27 20h1M29 20h1M0 21h1M2 21h1M13 21h3M18 21h1M22 21h2M26 21h1M28 21h1M0 22h1M3 22h2M15 22h3M21 22h2M25 22h1M27 22h1M1 23h2M5 23h2M21 23h1M24 23h1M26 23h1M3 24h2M7 24h2M23 24h1M25 24h1M5 25h2M9 25h2M19 25h2M22 25h1M24 25h1M7 26h2M11 26h2M18 26h2M21 26h1M23 26h1M9 27h2M13 27h2M18 27h1M20 27h1M22 27h1M11 28h2M15 28h2M19 28h1M21 28h1M13 29h2M17 29h2M20 29h1M15 30h2M19 30h1M17 31h2" />
<path stroke="#ff0000" d="M0 0h1M14 1h2M13 2h2M16 2h3M12 3h2M15 3h6M11 4h2M14 4h9M10 5h2M13 5h12M9 6h2M12 6h15M8 7h2M11 7h18M7 8h2M10 8h21M6 9h2M9 9h21M5 10h2M8 10h21M4 11h2M7 11h21M3 12h2M6 12h21M2 13h2M5 13h21M2 14h1M4 14h21M4 15h20M6 16h17M8 17h14M10 18h11M12 19h8M14 20h5M16 21h2M2 22h1M3 23h2M5 24h2M7 25h2M9 26h2M11 27h2M13 28h2M15 29h2M17 30h1" />
<path stroke="#c0c0c0" d="M0 0h1M29 11h1M28 12h1M27 13h1M26 14h1M25 15h1M24 16h1M23 17h1M22 18h1M21 19h1M20 20h1M19 21h1M18 22h1M17 23h1" />
<path stroke="#808080" d="M0 0h1M29 12h1M29 14h1M26 15h1M28 15h2M25 16h5M3 17h2M24 17h1M27 17h3M3 18h4M23 18h1M26 18h3M3 19h6M22 19h2M25 19h3M3 20h8M21 20h6M3 21h10M20 21h2M24 21h2M5 22h10M19 22h2M23 22h2M7 23h10M18 23h3M22 23h2M9 24h14M11 25h8M21 25h1M13 26h5M20 26h1M15 27h3M19 27h1M17 28h2" />
<path stroke="#800000" d="M0 0h1M1 15h1M1 16h1M1 17h1M1 18h1M30 18h1M1 19h1M29 19h1M1 20h1M28 20h1M1 21h1M27 21h1M1 22h1M26 22h1M25 23h1M24 24h1M23 25h1M22 26h1M21 27h1M20 28h1M19 29h1M18 30h1" />
</svg>