<svg xmlns="http://www.w3.org/2000/svg" viewBox="0 -0.5 32 32" shape-rendering="crispEdges">
<path stroke="#ffffff" d="M0 0h1M0 0h24M30 0h2M0 1h21M25 1h4M31 1h1M0 2h20M23 2h7M31 2h1M0 3h10M21 3h9M31 3h1M0 4h8M24 4h6M31 4h1M0 5h7M25 5h5M31 5h1M0 6h6M26 6h3M30 6h2M0 7h5M11 7h1M27 7h5M0 8h4M9 8h2M28 8h4M0 9h3M8 9h1M16 9h1M29 9h3M0 10h3M7 10h1M13 10h6M29 10h3M0 11h3M6 11h2M12 11h8M29 11h3M0 12h2M5 12h2M12 12h8M30 12h2M0 13h2M4 13h2M30 13h2M0 14h2M3 14h2M30 14h2M0 15h5M30 15h2M0 16h4M30 16h2M0 17h4M30 17h2M0 18h3M12 18h20M0 19h2M13 19h7M30 19h2M0 20h2M13 20h7M29 20h3M0 21h1M15 21h3M29 21h3M0 22h1M28 22h4M0 23h1M4 23h1M28 23h4M0 24h1M4 24h2M27 24h5M3 25h4M26 25h6M3 26h5M24 26h2M28 26h4M3 27h7M22 27h10M0 28h1M3 28h8M13 28h19M0 29h1M5 29h3M11 29h21M0 30h2M9 30h23M0 31h2M3 31h1M6 31h26" />
<path stroke="#c0c0c0" d="M0 0h1M24 0h1M29 0h1M21 1h1M24 1h1M30 1h1M22 2h1M30 2h1M10 3h2M20 3h1M8 4h1M23 4h1M30 4h1M30 5h1M12 6h2M29 6h1M10 7h1M3 9h1M7 9h1M9 9h1M14 9h2M17 9h2M28 9h1M6 10h1M8 10h1M19 10h1M5 11h1M2 12h1M4 12h1M20 12h1M29 12h1M3 13h1M12 13h9M5 14h1M12 17h18M2 19h1M12 19h1M29 19h1M1 21h1M14 21h1M18 21h1M1 22h1M27 23h1M3 24h1M26 24h1M0 25h1M25 25h1M0 26h1M8 26h1M23 26h1M0 27h1M10 27h1M21 27h1M11 28h2M1 29h1M4 29h1M8 29h1M8 30h1M2 31h1M4 31h2" />
<path stroke="#008080" d="M0 0h1M25 0h4M22 1h2M29 1h1M20 2h2M12 3h8M30 3h1M9 4h14M7 5h18M6 6h6M14 6h12M5 7h5M12 7h15M4 8h5M11 8h17M4 9h3M10 9h4M19 9h9M3 10h3M9 10h4M20 10h9M3 11h2M8 11h4M20 11h9M3 12h1M7 12h5M21 12h8M2 13h1M6 13h6M21 13h9M2 14h1M6 14h24M5 15h25M4 16h26M4 17h8M3 18h9M3 19h9M20 19h9M2 20h11M20 20h9M2 21h12M19 21h10M2 22h26M1 23h3M5 23h22M1 24h2M6 24h20M1 25h2M7 25h18M1 26h2M9 26h14M1 27h2M11 27h10M1 28h2M2 29h2M9 29h2M2 30h6" />
<path stroke="#808080" d="M0 0h1M26 26h2" />
</svg>