<svg xmlns="http://www.w3.org/2000/svg" width="16" height="16" shape-rendering="crispEdges" viewBox="0 -0.5 16 16"><path stroke="#fff" d="M5 0h6M3 1h10M2 2h12M1 3h14M1 4h14M0 5h1m1 0h3m1 0h1m2 0h1m4 0h2M0 6h1m2 0h1m3 0h3m5 0h1M0 7h1m2 0h1m2 0h1m2 0h1m2 0h1m2 0h1M0 8h1m1 0h1m1 0h1m1 0h3m3 0h1m2 0h1M0 9h1m1 0h3m1 0h1m2 0h1m2 0h1m2 0h1M0 10h16M1 11h14M1 12h14M2 13h12M3 14h10m-8 1h6"/><path stroke="#000" d="M1 5h1m3 0h1m1 0h2M1 6h2m1 0h3M1 7h2m1 0h2m1 0h2M1 8h1m1 0h1m1 0h1m3 0h1M1 9h1m3 0h1m1 0h2"/><path stroke="red" d="M10 5h4m-4 1h5m-5 1h2m1 0h2m-5 1h2m1 0h2m-5 1h2m1 0h2"/></svg>