<svg xmlns="http://www.w3.org/2000/svg" viewBox="0 -0.5 32 32" shape-rendering="crispEdges">
<path stroke="#808080" d="M0 0h1M5 0h5M3 1h2M10 1h2M2 2h1M1 3h1M1 4h1M0 5h1M0 6h1M0 7h1M0 8h1M0 9h1M0 10h1M18 15h1M22 17h1M21 18h1M16 21h1M24 21h1M18 22h1M14 23h1M20 23h1M16 24h1M30 24h1M18 25h1M30 25h1" />
<path stroke="#c0c0c0" d="M0 0h1M5 1h1M4 2h1M3 3h1M2 4h1M1 5h1M3 5h1M1 7h1M3 7h1M5 7h1M2 8h1M4 8h1M2 9h1M5 10h1M16 15h1M15 16h1M14 17h1M21 17h1M18 18h1M15 19h1M14 20h1M22 20h1M30 20h1M13 21h1M29 21h1M12 22h1M24 22h1M28 22h1M11 23h1M23 23h1M28 23h1M22 24h1M10 25h1M21 25h1M28 25h1M11 26h1M13 26h1M20 26h1M12 27h1M14 27h1M19 27h1M15 28h1M17 28h1M16 29h1M18 29h1" />
<path stroke="#ffffff" d="M0 0h1M6 1h1M3 2h1M5 2h1M2 3h1M3 4h1M2 5h1M4 5h1M1 6h3M2 7h1M4 7h1M3 8h1M5 8h1M15 14h1M14 15h1M20 15h1M13 16h1M18 16h1M21 16h2M24 17h1M13 18h1M16 18h1M22 18h1M25 18h1M17 19h1M18 20h2M27 20h1M29 20h1M15 21h1M20 21h2M28 21h1M16 22h2M22 22h1M27 22h1M13 23h1M18 23h2M10 24h2M14 24h2M26 24h1M12 25h2M16 25h2M26 25h1M14 26h2M16 27h2M18 28h1" />
<path stroke="#0000ff" d="M0 0h1M7 1h1M6 2h1M6 4h3M5 5h2M8 5h2M13 5h1M4 6h1M7 6h1M10 6h3M9 7h1M11 7h2M10 8h2M3 9h1M11 9h2M2 10h3M10 10h2M1 11h1M3 11h3M9 11h1M2 12h5M8 12h1M3 13h2M7 13h1M9 13h1" />
<path stroke="#008080" d="M0 0h1M8 1h2M4 3h1M10 4h1M7 5h1M10 5h1M13 6h1M8 7h1M10 7h1M1 8h1M1 9h1M4 9h2M10 9h1M10 12h1" />
<path stroke="#008000" d="M0 0h1M7 2h5M5 3h8M4 4h2M9 4h1M11 4h2M11 5h2M5 6h2M8 6h2M6 7h2M6 8h4M6 9h4M1 10h1M6 10h3M2 11h1M6 11h3M7 12h1M11 12h1" />
<path stroke="#000080" d="M0 0h1M12 2h1M13 7h1M12 8h2M13 9h1M9 10h1M12 10h2M10 11h3M1 12h1M9 12h1M12 12h1M2 13h1M5 13h2M8 13h1M10 13h2M3 14h7" />
<path stroke="#000000" d="M0 0h1M13 3h1M13 4h1M14 5h1M14 6h1M14 7h1M17 7h1M19 7h1M21 7h1M23 7h1M25 7h1M27 7h1M29 7h1M14 8h1M14 9h1M29 9h1M14 10h1M13 11h1M29 11h1M13 12h1M12 13h1M29 13h1M10 14h2M5 15h5M19 15h1M29 15h1M17 16h1M20 16h1M16 17h2M20 17h1M23 17h1M29 17h1M15 18h1M20 18h1M24 18h1M13 19h2M21 19h1M24 19h1M17 20h1M24 20h1M19 21h1M25 21h1M31 21h1M15 22h1M21 22h1M25 22h1M31 22h1M17 23h1M25 23h2M30 23h2M13 24h1M19 24h1M25 24h1M27 24h3M31 24h1M15 25h1M25 25h1M31 25h1M17 26h1M26 26h1M30 26h1M10 27h2M26 27h4M12 28h2M24 28h2M14 29h2M22 29h2M16 30h2M20 30h2M18 31h2" />
<path stroke="#00ffff" d="M0 0h1M16 6h1M18 6h1M20 6h1M22 6h1M24 6h1M26 6h1M28 6h1M28 8h1M28 10h1M28 12h1M28 14h1M28 16h1" />
<path stroke="#808000" d="M0 0h1M15 13h6M14 14h1M21 14h2M13 15h1M17 15h1M23 15h2M12 16h1M16 16h1M19 16h1M25 16h2M12 17h2M15 17h1M19 17h1M27 17h2M12 18h1M14 18h1M17 18h1M19 18h1M23 18h1M29 18h1M20 19h1M23 19h1M25 19h1M30 19h1M13 20h1M16 20h1M23 20h1M25 20h2M31 20h1M12 21h1M18 21h1M26 21h1M30 21h1M11 22h1M14 22h1M20 22h1M26 22h1M29 22h2M10 23h1M16 23h1M24 23h1M29 23h1M9 24h1M12 24h1M18 24h1M20 24h1M23 24h2M9 25h1M14 25h1M19 25h1M22 25h3M29 25h1M9 26h1M16 26h1M18 26h1M21 26h5M28 26h2M20 27h6M19 28h5M19 29h3M19 30h1" />
<path stroke="#ffff00" d="M0 0h1M16 14h5M15 15h1M21 15h2M14 16h1M23 16h2M18 17h1M25 17h2M26 18h3M16 19h1M18 19h2M22 19h1M26 19h4M15 20h1M20 20h2M28 20h1M14 21h1M17 21h1M22 21h2M27 21h1M13 22h1M19 22h1M23 22h1M12 23h1M15 23h1M21 23h2M27 23h1M17 24h1M21 24h1M11 25h1M20 25h1M27 25h1M10 26h1M12 26h1M19 26h1M27 26h1M13 27h1M15 27h1M18 27h1M14 28h1M16 28h1M17 29h1M18 30h1" />
</svg>