<svg xmlns="http://www.w3.org/2000/svg" width="16" height="16" shape-rendering="crispEdges" viewBox="0 -0.5 16 16"><path stroke="green" d="M4 0h1M4 1h2M4 2h1m1 0h1M4 3h1m1 0h1M5 4h1M4 8h1M4 9h1m-1 1h1m-1 1h1m-2 1h1m-1 2h1m-4 1h3"/><path stroke="#000" d="M13 0h1m-1 1h1m1 0h1m-3 1h1m1 0h1m-5 1h2m2 0h1M6 4h1m6 0h2M6 5h2m5 0h1M2 6h1m3 0h1m5 0h1m1 0h1M2 7h1m8 0h1m1 0h2m-2 1h1m1 0h1M5 9h1m7 0h1m1 0h1M6 10h2m5 0h1m1 0h1m-8 1h2m3 0h1m1 0h1m-6 1h5M3 13h1m9 0h1M4 14h2m5 0h2m-7 1h5"/><path stroke="olive" d="M11 1h2m-2 1h1m2 0h1M3 4h1m3 0h2M2 5h1m0 2h1M2 8h1m2 0h1m6 0h1M2 9h1m9 0h1M2 10h1m9 0h1M2 11h1m9 0h1M2 12h1"/><path stroke="#0f0" d="M5 2h1M5 3h1M4 7h1M3 8h1M3 9h1m-1 1h1m-1 1h1m-2 2h1m-3 1h3"/><path stroke="#fff" d="M12 2h1M3 5h1M3 6h1m8 1h1M6 8h6m-2 2h1m-6 1h1m1 0h1m3 0h1m-8 1h1m1 0h1m1 0h1m-4 1h1m1 0h1m1 0h1"/><path stroke="red" d="M10 3h1M9 4h2M8 5h2M7 6h2M6 7h2"/><path stroke="gray" d="M13 3h1M4 4h1m9 1h1m-1 3h1M6 9h1m1 1h1m1 1h1m3 0h1"/><path stroke="silver" d="M14 3h1m-2 3h1M7 9h5m-1 4h2"/><path stroke="maroon" d="M11 4h1m-2 1h1M9 6h1M8 7h1"/><path stroke="#0ff" d="M12 4h1"/><path stroke="#f0f" d="M4 5h2M4 6h2M5 7h1"/><path stroke="#00f" d="M11 5h2m-3 1h2M9 7h2"/><path stroke="#ff0" d="M5 10h1m3 0h1m1 0h1m-6 1h1m-2 1h1m1 0h1m1 0h1m-6 1h1m1 0h1m1 0h1m1 0h1m-5 1h5"/></svg>