<svg xmlns="http://www.w3.org/2000/svg" viewBox="0 -0.5 16 16" shape-rendering="crispEdges">
<path stroke="#008000" d="M0 0h1M4 0h1M4 1h2M4 2h1M6 2h1M4 3h1M6 3h1M5 4h1M4 8h1M4 9h1M4 10h1M4 11h1M3 12h1M3 14h1M0 15h3" />
<path stroke="#000000" d="M0 0h1M13 0h1M13 1h1M15 1h1M13 2h1M15 2h1M11 3h2M15 3h1M6 4h1M13 4h2M6 5h2M13 5h1M2 6h1M6 6h1M12 6h1M14 6h1M2 7h1M11 7h1M13 7h2M13 8h1M15 8h1M5 9h1M13 9h1M15 9h1M6 10h2M13 10h1M15 10h1M8 11h2M13 11h1M15 11h1M10 12h5M3 13h1M13 13h1M4 14h2M11 14h2M6 15h5" />
<path stroke="#808000" d="M0 0h1M11 1h2M11 2h1M14 2h1M3 4h1M7 4h2M2 5h1M3 7h1M2 8h1M5 8h1M12 8h1M2 9h1M12 9h1M2 10h1M12 10h1M2 11h1M12 11h1M2 12h1" />
<path stroke="#00ff00" d="M0 0h1M5 2h1M5 3h1M4 7h1M3 8h1M3 9h1M3 10h1M3 11h1M2 13h1M0 14h3" />
<path stroke="#ffffff" d="M0 0h1M12 2h1M3 5h1M3 6h1M12 7h1M6 8h6M10 10h1M5 11h1M7 11h1M11 11h1M4 12h1M6 12h1M8 12h1M5 13h1M7 13h1M9 13h1" />
<path stroke="#ff0000" d="M0 0h1M10 3h1M9 4h2M8 5h2M7 6h2M6 7h2" />
<path stroke="#808080" d="M0 0h1M13 3h1M4 4h1M14 5h1M14 8h1M6 9h1M8 10h1M10 11h1M14 11h1" />
<path stroke="#c0c0c0" d="M0 0h1M14 3h1M13 6h1M7 9h5M11 13h2" />
<path stroke="#800000" d="M0 0h1M11 4h1M10 5h1M9 6h1M8 7h1" />
<path stroke="#00ffff" d="M0 0h1M12 4h1" />
<path stroke="#ff00ff" d="M0 0h1M4 5h2M4 6h2M5 7h1" />
<path stroke="#0000ff" d="M0 0h1M11 5h2M10 6h2M9 7h2" />
<path stroke="#ffff00" d="M0 0h1M5 10h1M9 10h1M11 10h1M6 11h1M5 12h1M7 12h1M9 12h1M4 13h1M6 13h1M8 13h1M10 13h1M6 14h5" />
</svg>