<svg xmlns="http://www.w3.org/2000/svg" width="32" height="32" shape-rendering="crispEdges" viewBox="0 -0.5 32 32"><path stroke="gray" d="M9 0h7M7 1h2m7 0h2M5 2h2m2 0h1m8 0h2M4 3h1M3 4h1m2 0h1M2 5h1m3 0h1M2 6h1M1 7h1M1 8h1m11 0h13M0 9h1m12 0h1m11 0h1M0 10h1m12 0h1m11 0h2M0 11h1m12 0h1m11 0h1m1 0h1M0 12h1m5 0h1m6 0h1m11 0h1m2 0h1M0 13h1m12 0h1m11 0h1m3 0h1M0 14h1m12 0h1m11 0h1M0 15h1m5 0h2m5 0h1M1 16h1m11 0h1M1 17h1m11 0h1M2 18h1m10 0h1M2 19h1m10 0h1M3 20h1m9 0h1M4 21h1m8 0h1m-1 1h1m-1 1h1m-1 1h1m-1 1h1m-1 1h1m-1 1h1m-1 1h1m-1 1h1m-1 1h1"/><path stroke="#fff" d="M9 1h1m1 0h1M7 2h1M5 3h1m1 0h2M4 4h2m1 0h1M3 5h1m0 1h1M2 7h5M3 8h2M1 9h1m1 0h2m9 0h11M2 10h3m9 0h11M2 11h3m9 0h11M3 12h2m9 0h11m1 0h1M3 13h1m1 0h2m7 0h8m1 0h2m1 0h2m-14 1h8m1 0h2m-11 1h7m3 0h6m-16 1h7m3 0h6m-16 1h6m5 0h5m-16 1h1m14 0h1m-16 1h2m12 0h2m-16 1h3m10 0h3m-16 1h4m8 0h4m-16 1h4m8 0h4m-16 1h3m10 0h3m-16 1h3m4 0h2m4 0h3m-16 1h2m4 0h4m4 0h2m-16 1h2m2 0h8m2 0h2m-16 1h16m-16 1h16m-16 1h16"/><path stroke="teal" d="M10 1h1m1 0h1m1 0h2m-2 1h1M8 4h1M4 5h1m7 1h1m4 0h1M7 8h1m-7 2h1m4 0h1m5 0h1M1 11h1m0 1h1m-2 1h1m0 1h1m-2 1h1m1 0h1m4 0h2m-7 2h1m-1 2h1m6 1h1m0 1h1"/><path stroke="#00f" d="M13 1h1m-4 1h1m4 0h1M9 3h1m0 1h1M7 5h1M5 6h1m3 1h4m1 0h2m1 0h1M9 8h1m2 0h1M7 9h1m1 0h4m-8 2h1m-2 2h1m-2 1h2m-1 1h2m-4 1h1m1 0h6m-6 1h6m-6 1h6m-6 1h7m-7 1h1m1 0h4m-5 1h1m1 0h1m1 0h1m-2 1h1m1 0h1"/><path stroke="silver" d="M8 2h1M6 3h1M3 6h1m2 0h1M2 8h1m2 0h1M2 9h1m5 0h1m-4 1h1m1 0h1m-2 1h1m19 0h1M1 12h1m3 0h1m21 0h1M2 13h1m25 0h1M1 14h1m3 0h1m-4 1h1m27 0h1M3 16h1m26 0h1m-1 1h1m-1 1h1m-1 1h1m-1 1h1m-1 1h1m-1 1h1m-1 1h1m-1 1h1m-1 1h1m-1 1h1m-1 1h1m-1 1h1m-1 1h1m-17 1h17"/><path stroke="green" d="M11 2h3m2 0h2m-7 1h9M9 4h1m1 0h9M5 5h1m2 0h13M7 6h4m2 0h1m1 0h1m2 0h2m1 0h1M7 7h2m4 0h1m4 0h3m1 0h1M6 8h1m4 0h1M5 9h1m2 1h3m-4 1h6m-6 1h6m-6 1h6m-7 1h7m-3 1h3m-3 1h3M2 17h1m7 0h3M3 18h1m6 0h3m-2 1h2m-2 1h2m-1 1h1m-2 1h1"/><path stroke="navy" d="M10 3h1m9 1h1m0 1h1M11 6h1m2 0h1m1 0h1m3 0h1m-5 1h1m4 0h1M8 8h1m1 0h1M6 9h1m4 1h1M5 20h1m0 1h1m1 0h1m1 0h1m-4 1h1m1 0h1m2 0h1m-4 1h4"/><path stroke="#000" d="M20 3h1m0 1h1m0 1h1m-1 1h1m0 1h1m2 2h1m0 1h1m0 1h1m0 1h1m-8 1h1m7 0h1m-9 1h1m3 0h6m-9 1h1m7 0h1m-9 1h1m7 0h1m-8 1h1m6 0h1m-7 1h4m2 0h1m-16 1h1m10 0h1m3 0h1m-15 1h1m8 0h1m4 0h1m-14 1h1m6 0h1m5 0h1M5 22h2m18 0h1m5 0h1M7 23h2m12 0h1m4 0h1m4 0h1M9 24h4m7 0h1m2 0h1m2 0h1m4 0h1m-14 1h2m4 0h2m1 0h1m3 0h1m-15 1h1m8 0h2m3 0h1m-1 1h1m-1 1h1m-1 1h1m-1 1h1m-19 1h19"/><path stroke="olive" d="M21 15h1m-1 1h1m-2 1h1m-6 1h5m-2 4h1m-2 1h1m4 0h1m-6 1h1m-2 1h1m-1 1h1"/><path stroke="#ff0" d="M22 15h1m-1 1h1m-2 1h3m-4 1h5m-8 1h10m-9 1h8m-7 1h6m-6 1h6m-7 1h3m2 0h3m-8 1h2m4 0h2m-9 1h1m8 0h1"/></svg>