<svg xmlns="http://www.w3.org/2000/svg" viewBox="0 -0.5 32 32" shape-rendering="crispEdges">
<path stroke="#808080" d="M0 0h1M9 0h7M7 1h2M16 1h2M5 2h2M9 2h1M18 2h2M4 3h1M3 4h1M6 4h1M2 5h1M6 5h1M2 6h1M1 7h1M1 8h1M0 9h1M0 10h1M0 11h1M0 12h1M6 12h1M0 13h1M11 13h20M0 14h1M11 14h1M0 15h1M6 15h2M11 15h1M1 16h1M11 16h1M1 17h1M11 17h1M2 18h1M11 18h1M2 19h1M11 19h1M3 20h1M11 20h1M4 21h1M11 21h1M11 22h1M18 22h1M23 22h1M11 23h1M20 23h1M22 23h1M11 24h1M21 24h1M11 25h1M21 25h1M11 26h1M11 27h1M11 28h1M11 29h1M11 30h1" />
<path stroke="#ffffff" d="M0 0h1M9 1h1M11 1h1M7 2h1M5 3h1M7 3h2M4 4h2M7 4h1M3 5h1M4 6h1M2 7h5M3 8h2M1 9h1M3 9h2M2 10h3M2 11h3M3 12h2M3 13h1M5 13h2M25 15h1M27 15h1M29 15h1M13 18h17M13 19h5M24 19h6M13 20h5M20 20h1M24 20h6M13 21h5M20 21h1M24 21h6M13 22h5M20 22h1M24 22h6M13 23h7M23 23h7M13 24h7M22 24h8M13 25h7M22 25h8M13 26h17M13 27h7M22 27h8M13 28h7M22 28h8M13 29h17" />
<path stroke="#008080" d="M0 0h1M10 1h1M12 1h1M14 1h2M14 2h1M8 4h1M4 5h1M12 6h1M17 6h1M7 8h1M18 9h1M1 10h1M6 10h1M12 10h1M14 10h1M1 11h1M2 12h1M1 13h1M2 14h1M1 15h1M3 15h1M8 15h2M3 17h1M3 19h1" />
<path stroke="#0000ff" d="M0 0h1M13 1h1M10 2h1M15 2h1M9 3h1M10 4h1M7 5h1M5 6h1M9 7h4M14 7h2M17 7h1M9 8h1M12 8h1M7 9h1M9 9h6M17 9h1M18 10h4M5 11h1M15 11h1M19 11h4M15 12h2M18 12h3M4 13h1M3 14h2M4 15h2M2 16h1M4 16h6M4 17h6M4 18h6M4 19h7M19 19h4M4 20h1M6 20h5M18 20h1M21 20h3M5 21h1M7 21h1M9 21h1M18 21h2M21 21h3M8 22h1M10 22h1M19 22h1M21 22h2M21 23h1M20 24h1M20 25h1M20 27h2M20 28h2" />
<path stroke="#c0c0c0" d="M0 0h1M8 2h1M6 3h1M3 6h1M6 6h1M2 8h1M5 8h1M2 9h1M8 9h1M5 10h1M7 10h1M6 11h1M1 12h1M5 12h1M2 13h1M1 14h1M5 14h1M2 15h1M3 16h1M12 17h19M12 18h1M30 18h1M12 19h1M18 19h1M23 19h1M30 19h1M12 20h1M19 20h1M30 20h1M12 21h1M30 21h1M12 22h1M30 22h1M12 23h1M30 23h1M12 24h1M30 24h1M12 25h1M30 25h1M12 26h1M30 26h1M12 27h1M30 27h1M12 28h1M30 28h1M12 29h1M30 29h1M12 30h19" />
<path stroke="#008000" d="M0 0h1M11 2h3M16 2h2M11 3h9M9 4h1M11 4h9M5 5h1M8 5h13M7 6h4M13 6h1M15 6h1M18 6h2M21 6h1M7 7h2M13 7h1M18 7h3M22 7h1M6 8h1M11 8h1M13 8h7M21 8h1M5 9h1M15 9h1M19 9h2M22 9h1M8 10h3M13 10h1M15 10h3M23 10h1M7 11h7M16 11h2M7 12h8M17 12h1M22 12h1M7 13h4M6 14h5M10 15h1M10 16h1M2 17h1M10 17h1M3 18h1M10 18h1" />
<path stroke="#000080" d="M0 0h1M10 3h1M20 4h1M21 5h1M11 6h1M14 6h1M16 6h1M20 6h1M16 7h1M21 7h1M8 8h1M10 8h1M20 8h1M22 8h1M6 9h1M16 9h1M21 9h1M23 9h1M11 10h1M22 10h1M14 11h1M18 11h1M23 11h1M21 12h1M23 12h1M12 14h19M12 15h13M12 16h13M5 20h1M6 21h1M8 21h1M10 21h1M7 22h1M9 22h1M9 23h2" />
<path stroke="#000000" d="M0 0h1M20 3h1M21 4h1M22 5h1M22 6h1M23 7h1M23 8h1M24 9h1M24 10h1M24 11h1M24 12h1M31 13h1M31 14h1M26 15h1M28 15h1M30 15h2M25 16h7M31 17h1M31 18h1M31 19h1M31 20h1M31 21h1M5 22h2M31 22h1M7 23h2M31 23h1M9 24h2M31 24h1M31 25h1M31 26h1M31 27h1M31 28h1M31 29h1M31 30h1M11 31h21" />
</svg>