<svg xmlns="http://www.w3.org/2000/svg" width="32" height="32" shape-rendering="crispEdges" viewBox="0 -0.5 32 32"><path stroke="gray" d="M13 3h6m-8 1h2m2 0h1m3 0h2M9 5h2m2 0h1m7 0h2M8 6h1M7 7h1m2 0h1M6 8h1m3 0h1M6 9h1m-2 1h1m-1 1h1m-2 1h1m1 8h1m-1 1h1m0 1h1m0 1h1"/><path stroke="#fff" d="M13 4h1m-3 1h1M9 6h1m1 0h2M8 7h2m1 0h1M8 9h1m0 1h2"/><path stroke="teal" d="M14 4h1m2 0h2m-2 1h1m-6 2h1M8 8h1m11 1h1m-10 2h1m3 0h1m-9 8h1m10 0h1m2 2h1m-8 1h1"/><path stroke="#00f" d="M16 4h1m-3 1h1m3 0h1m-6 1h1m0 1h1m-4 1h1M9 9h1m5 1h1m1 0h1m-2 2h1m-5 7h2m5 0h1m-9 1h2m5 0h1M9 21h4m-5 1h1m1 0h4m3 0h2M9 23h1m1 0h1m1 0h1m2 0h1m2 0h1m-8 1h1m1 0h1"/><path stroke="silver" d="M12 5h1m-3 1h1m-1 3h1m-2 2h1"/><path stroke="green" d="M15 5h2m2 0h2m-6 1h8M13 7h1m1 0h8M9 8h1m2 0h1m1 0h5m1 0h4M11 9h2m1 0h1m1 0h1m1 0h1m2 0h2m1 0h1m-14 1h1m4 0h1m4 0h3m-14 1h1m5 0h2m3 0h2m-1 1h1M6 19h1m10 1h1m-3 1h3m-3 1h2m3 0h2m-7 1h1"/><path stroke="navy" d="M14 6h1m8 1h1m0 1h1M15 9h1m1 0h1m5 0h1m-1 2h1m-14 1h1m13 7h2m-3 1h2m-7 1h1m4 0h2M9 22h1m9 0h1m2 0h2m-14 1h1m1 0h1m1 0h1m2 0h2m1 0h3m-12 1h1m1 0h1m1 0h6m-8 1h6"/><path stroke="#000" d="M23 6h1m0 1h1M7 8h1m5 0h1m5 0h1m5 0h1M7 9h1m5 0h1m5 0h1m5 0h1M8 10h1m5 0h1m5 0h1m5 0h1M8 11h1m5 0h1m5 0h1m5 0h1M9 12h1m5 0h1m5 0h1m5 0h1m0 1h4M1 14h1m5 0h1m5 0h1m5 0h1m10 0h1M2 15h1m5 0h1m5 0h1m5 0h1m8 0h1M3 16h1m5 0h1m5 0h1m5 0h1m6 0h1m-1 1h1M6 18h1m5 0h1m5 0h1m5 0h1m4 0h1M5 19h1m5 0h1m5 0h1m5 0h1m2 0h1m2 0h1M3 20h2m4 0h2m4 0h2m4 0h2m2 0h1m1 0h2m1 0h1M2 21h1m5 0h1m5 0h1m5 0h1m1 0h1m2 0h1m3 0h2m-7 1h1m-2 1h1M9 24h2m10 0h2m-12 1h2m6 0h2m-8 1h6"/><path stroke="olive" d="M6 10h1m5 0h1m5 0h1m5 0h1M6 11h1m5 0h1m5 0h1m5 0h1M5 12h1m5 0h1m5 0h1m5 0h1M0 13h5m1 0h5m1 0h5m1 0h5M3 17h1m5 0h1m5 0h1m5 0h1M2 18h1m4 0h2m4 0h2m4 0h2m4 0h1M2 19h1m5 0h1m5 0h1m5 0h1M1 20h1m5 0h1m5 0h1m5 0h1M1 21h1m5 0h1m5 0h1m5 0h1"/><path stroke="#ff0" d="M7 10h1m5 0h1m5 0h1m5 0h1M7 11h1m5 0h1m5 0h1m5 0h1M6 12h3m3 0h3m3 0h3m3 0h3M5 13h1m5 0h1m5 0h1m5 0h5M2 14h5m1 0h5m1 0h5m1 0h10M3 15h5m1 0h5m1 0h5m1 0h8M4 16h5m1 0h5m1 0h5m1 0h6M4 17h5m1 0h5m1 0h5m1 0h6M3 18h3m3 0h3m3 0h3m3 0h3m2 0h3M3 19h2m4 0h2m4 0h2m4 0h2m4 0h2M2 20h1m5 0h1m5 0h1m5 0h1m8 0h1"/></svg>