<svg xmlns="http://www.w3.org/2000/svg" width="32" height="32" shape-rendering="crispEdges" viewBox="0 -0.5 32 32"><path stroke="#000" d="M8 0h5M7 1h1m5 0h1M7 2h1m8 0h1M7 3h1m3 0h1m5 0h2M6 4h3m3 0h3m4 0h1M5 5h1m2 0h1m2 0h2m2 0h1m4 0h1M5 6h1m5 0h2m2 0h1m5 0h1M5 7h1m5 0h1m3 0h1m1 0h1m3 0h1M6 8h2m6 0h1m1 0h1m1 0h1m3 0h1m-8 1h1m1 0h1m4 0h1m-9 1h1m1 0h1m5 0h1M8 11h1m4 0h1m1 0h1m6 0h1M9 12h1m12 0h1M9 13h1m12 0h1m-13 1h1m10 0h1m1 0h1m-13 1h2m9 0h1m1 0h1m-12 1h6m4 0h1m1 0h1m-9 1h1m1 0h1m4 0h1m1 0h1m-11 1h1m8 0h1m1 0h1M5 19h1m4 0h1m5 0h1m9 0h1m1 0h1M6 20h1m3 0h1m5 0h1m10 0h1m1 0h1m-14 1h1m6 0h2m3 0h1m1 0h1m-15 1h1m12 0h1m1 0h1M5 23h1m4 0h2m4 0h1m13 0h2M6 24h1m3 0h1m1 0h1m3 0h1m9 0h2m3 0h1m-22 1h1m5 0h1m14 0h1m-16 1h1m12 0h2m-21 1h2m4 0h1M6 28h1m2 0h2m1 0h1m3 0h1M7 29h2m2 0h1m4 0h1m-5 1h1m2 0h1m-3 1h2"/><path stroke="gray" d="M8 1h1m3 0h1M4 2h3m1 0h3m1 0h4M3 3h1m4 0h1m1 0h1M2 4h1m7 0h2M1 5h1m4 0h2m1 0h1m3 0h1M0 6h1m5 0h1m1 0h1M0 7h1m5 0h1m1 0h1M0 8h1m7 0h1m3 0h2M0 9h1m6 0h2m-9 1h1m5 0h1m1 0h1m-8 1h1m4 0h1m-5 1h1m3 0h1m-4 1h1m2 0h1m3 0h1m-7 1h1m1 0h1m4 0h2m7 0h1M5 15h1m1 0h1m5 0h6m2 0h1M5 16h1m2 0h1m13 0h1M4 17h1m3 0h2m6 0h1m6 0h1M4 18h1m3 0h1m1 0h1m4 0h1m4 0h1m3 0h1M6 19h1m1 0h1m2 0h1m2 0h2m4 0h1m4 0h1M8 20h1m2 0h1m2 0h1m6 0h1m4 0h1M5 21h1m2 0h1m1 0h1m3 0h1m7 0h1m4 0h1M4 22h1m3 0h1m1 0h1m3 0h1m9 0h1m3 0h1M6 23h1m1 0h1m3 0h1m1 0h1m9 0h1m4 0h1M8 24h1m5 0h1m10 0h1m4 0h1M5 25h1m2 0h1m2 0h1m2 0h1m12 0h1M5 26h1m2 0h1m1 0h1m3 0h1m13 0h1M5 27h2m5 0h1m1 0h1m-4 1h1m2 0h1m-1 1h1"/><path stroke="#fff" d="M4 3h3M3 4h1M2 5h1M1 6h1m2 0h1M1 7h1m5 0h1M1 8h1m2 0h1M1 9h1m3 0h1m-5 1h1m2 0h1m2 0h1m-6 1h1m2 0h1m1 0h1m-5 1h1m3 0h1m-4 1h1m2 0h1m-3 1h1m1 0h1m-2 1h1m1 0h1m-3 1h1m2 0h1m2 0h1m-8 1h1m4 0h1m2 0h1m-9 1h1m5 0h1m2 0h1m-3 1h1m-1 1h1m-7 1h1m4 0h1m-7 1h1m5 0h1m-6 3h1m5 0h1m-7 1h1m4 0h1m0 3h1"/><path stroke="silver" d="M9 3h1m2 0h4M4 4h2m3 0h1M3 5h2m13 0h1M2 6h2m3 0h1m6 0h1m4 0h1M2 7h3m8 0h2m4 0h1M2 8h2m1 0h1m14 0h1M2 9h3m1 0h1m12 0h1M2 10h2m1 0h1m12 0h1m1 0h1M3 11h2m12 0h1m1 0h1M4 12h2m2 0h1m5 0h1m1 0h1m1 0h1m1 0h1M5 13h1m2 0h1m10 0h1M8 14h2m-1 1h2m-4 1h1m2 0h2m-6 1h2m3 0h2m1 0h2M6 18h2m1 0h1m2 0h2m-7 1h1m1 0h1m3 0h1m-7 1h1m1 0h1m3 0h1m1 0h1m-9 1h1m1 0h1m2 0h2m1 0h1M6 22h2m1 0h1m2 0h2m1 0h1m-9 1h1m1 0h1m3 0h1m1 0h1m-9 1h1m1 0h1m3 0h1m1 0h1m-9 1h1m1 0h1m3 0h1m1 0h1m-9 1h1m1 0h1m2 0h2m1 0h1m-9 1h3m3 0h1m1 0h1m-9 1h2m4 0h1m1 0h1m-3 1h1m1 0h1m-3 1h2"/><path stroke="olive" d="M16 3h1m0 1h2m0 1h1m0 1h1m-1 1h1m0 1h1m-1 1h1m-1 1h1m-1 1h1m-1 1h1m-1 1h1m0 1h1m0 1h1m0 1h1m0 1h1m0 1h1m0 1h1m-6 1h2m4 0h1m0 1h1m0 1h1m-6 1h2m2 2h2"/><path stroke="#ff0" d="M15 4h2m-7 1h1m5 0h2M9 6h2m5 0h3M9 7h2m5 0h1m1 0h1M9 8h3m3 0h1m1 0h1m1 0h1M9 9h6m1 0h1m1 0h1m1 0h1M9 10h5m1 0h1m1 0h1m1 0h1M9 11h4m1 0h1m1 0h1m1 0h1m1 0h1m-11 1h4m1 0h1m1 0h1m1 0h1m-9 1h8m1 0h1m-8 1h7m-1 1h2m-2 1h3m-2 1h3m-2 1h3m-3 1h4m-1 1h2m-1 1h2m-2 1h3m-1 1h2m-1 1h2m-2 1h1"/></svg>