<svg xmlns="http://www.w3.org/2000/svg" width="32" height="32" shape-rendering="crispEdges" viewBox="0 -0.5 32 32"><path stroke="gray" d="M9 0h7M7 1h2m7 0h2M5 2h2m2 0h1m8 0h2M4 3h1M3 4h1m2 0h1M2 5h1m3 0h1M2 6h1M1 7h1M1 8h1M0 9h1m-1 1h1m-1 1h1m-1 1h1m5 0h1m-7 1h1m10 0h20M0 14h1m10 0h1M0 15h1m5 0h2m3 0h1M1 16h1m9 0h1M1 17h1m9 0h1M2 18h1m8 0h1M2 19h1m8 0h1m-9 1h1m7 0h1m-8 1h1m6 0h1m-1 1h1m6 0h1m4 0h1m-13 1h1m8 0h1m1 0h1m-12 1h1m9 0h1m-11 1h1m9 0h1m-11 1h1m-1 1h1m-1 1h1m-1 1h1m-1 1h1"/><path stroke="#fff" d="M9 1h1m1 0h1M7 2h1M5 3h1m1 0h2M4 4h2m1 0h1M3 5h1m0 1h1M2 7h5M3 8h2M1 9h1m1 0h2m-3 1h3m-3 1h3m-2 1h2m-2 1h1m1 0h2m18 2h1m1 0h1m1 0h1m-17 3h17m-17 1h5m6 0h6m-17 1h5m2 0h1m3 0h6m-17 1h5m2 0h1m3 0h6m-17 1h5m2 0h1m3 0h6m-17 1h7m3 0h7m-17 1h7m2 0h8m-17 1h7m2 0h8m-17 1h17m-17 1h7m2 0h8m-17 1h7m2 0h8m-17 1h17"/><path stroke="teal" d="M10 1h1m1 0h1m1 0h2m-2 1h1M8 4h1M4 5h1m7 1h1m4 0h1M7 8h1m10 1h1M1 10h1m4 0h1m5 0h1m1 0h1M1 11h1m0 1h1m-2 1h1m0 1h1m-2 1h1m1 0h1m4 0h2m-7 2h1m-1 2h1"/><path stroke="#00f" d="M13 1h1m-4 1h1m4 0h1M9 3h1m0 1h1M7 5h1M5 6h1m3 1h4m1 0h2m1 0h1M9 8h1m2 0h1M7 9h1m1 0h6m2 0h1m0 1h4M5 11h1m9 0h1m3 0h4m-8 1h2m1 0h3M4 13h1m-2 1h2m-1 1h2m-4 1h1m1 0h6m-6 1h6m-6 1h6m-6 1h7m8 0h4M4 20h1m1 0h5m7 0h1m2 0h3M5 21h1m1 0h1m1 0h1m8 0h2m1 0h3M8 22h1m1 0h1m8 0h1m1 0h2m-2 1h1m-2 1h1m-1 1h1m-1 2h2m-2 1h2"/><path stroke="silver" d="M8 2h1M6 3h1M3 6h1m2 0h1M2 8h1m2 0h1M2 9h1m5 0h1m-4 1h1m1 0h1m-2 1h1m-6 1h1m3 0h1m-4 1h1m-2 1h1m3 0h1m-4 1h1m0 1h1m8 1h19m-19 1h1m17 0h1m-19 1h1m5 0h1m4 0h1m6 0h1m-19 1h1m6 0h1m10 0h1m-19 1h1m17 0h1m-19 1h1m17 0h1m-19 1h1m17 0h1m-19 1h1m17 0h1m-19 1h1m17 0h1m-19 1h1m17 0h1m-19 1h1m17 0h1m-19 1h1m17 0h1m-19 1h1m17 0h1m-19 1h19"/><path stroke="green" d="M11 2h3m2 0h2m-7 1h9M9 4h1m1 0h9M5 5h1m2 0h13M7 6h4m2 0h1m1 0h1m2 0h2m1 0h1M7 7h2m4 0h1m4 0h3m1 0h1M6 8h1m4 0h1m1 0h7m1 0h1M5 9h1m9 0h1m3 0h2m1 0h1M8 10h3m2 0h1m1 0h3m5 0h1M7 11h7m2 0h2M7 12h8m2 0h1m4 0h1M7 13h4m-5 1h5m-1 1h1m-1 1h1m-9 1h1m7 0h1m-8 1h1m6 0h1"/><path stroke="navy" d="M10 3h1m9 1h1m0 1h1M11 6h1m2 0h1m1 0h1m3 0h1m-5 1h1m4 0h1M8 8h1m1 0h1m9 0h1m1 0h1M6 9h1m9 0h1m4 0h1m1 0h1m-13 1h1m10 0h1m-9 1h1m3 0h1m4 0h1m-3 1h1m1 0h1m-12 2h19m-19 1h13m-13 1h13M5 20h1m0 1h1m1 0h1m1 0h1m-4 1h1m1 0h1m-1 1h2"/><path stroke="#000" d="M20 3h1m0 1h1m0 1h1m-1 1h1m0 1h1m-1 1h1m0 1h1m-1 1h1m-1 1h1m-1 1h1m6 1h1m-1 1h1m-6 1h1m1 0h1m1 0h2m-7 1h7m-1 1h1m-1 1h1m-1 1h1m-1 1h1m-1 1h1M5 22h2m24 0h1M7 23h2m22 0h1M9 24h2m20 0h1m-1 1h1m-1 1h1m-1 1h1m-1 1h1m-1 1h1m-1 1h1m-21 1h21"/></svg>