<svg xmlns="http://www.w3.org/2000/svg" width="32" height="32" shape-rendering="crispEdges" viewBox="0 -0.5 32 32"><path stroke="olive" d="M19 0h4m-6 1h2m-3 1h1m2 0h3m2 0h1M15 3h1m2 0h1m6 0h1M14 4h1m2 0h1m5 0h1m2 0h1M14 5h1m1 0h1m7 0h1m1 0h1M14 6h1m1 0h1m7 0h1m1 0h1M14 7h1m1 0h1m7 0h1m1 0h1M16 8h1m7 0h1m1 0h1M16 9h1m7 0h1m1 0h1m-9 1h7m1 0h1m1 0h2m-12 1h1m1 0h1m1 0h1m1 0h1m1 0h1m1 0h1m1 0h1m-14 1h1m1 0h1m1 0h1m1 0h1m3 0h1m1 0h1m-12 1h1m1 0h1m1 0h1m1 0h1m1 0h1m1 0h1m1 0h1m-2 1h1m0 1h1m-2 1h1m0 1h1m-2 1h1m0 1h1m-2 1h1m0 1h1m-2 1h1m0 1h1m-2 1h1m0 1h1m-2 1h1m0 1h1m-17 1h15"/><path stroke="#ff0" d="M19 1h4m-6 1h2m4 0h1m-8 1h1m-2 1h1m8 0h1M15 5h1m-1 1h1m-1 1h1m-1 1h1m0 7h11m-12 1h13m-1 1h1m-14 1h14m-1 1h1m-14 1h14m-1 1h1m-14 1h14m-1 1h1m-14 1h14m-1 1h1m-14 1h14m-14 1h14"/><path stroke="#000" d="M23 1h2m0 1h1M6 3h5m8 0h4m3 0h1M5 4h1m5 0h1m6 0h1m8 0h1M12 5h1m4 0h1m9 0h1M9 6h1m2 0h1m4 0h1m9 0h1M5 7h2m5 0h1m4 0h1m9 0h1M4 8h1m7 0h1m1 0h1m2 0h1m9 0h1M4 9h1m5 0h2m3 0h1m1 0h1m9 0h1M9 10h1m2 0h1m3 0h2m9 0h1M9 11h1m2 0h1m3 0h2m9 0h1m-18 1h2m4 0h1m8 0h2m4 0h1m-16 1h1m14 0h1m-16 1h1m14 0h1m-17 1h1m15 0h1m-18 1h1m16 0h1m-19 1h1m17 0h1M8 18h1m4 0h1m17 0h1M8 19h1m4 0h1m17 0h1M4 20h1m8 0h1m17 0h1M5 21h1m7 0h1m17 0h1M8 22h2m3 0h1m17 0h1M8 23h1m1 0h1m2 0h1m17 0h1M4 24h1m3 0h1m4 0h1m17 0h1M5 25h1m7 0h1m17 0h1M8 26h2m3 0h1m17 0h1M8 27h1m1 0h1m2 0h1m17 0h1M5 28h1m1 0h1m5 0h1m16 0h1M6 29h1m6 0h17m-20 1h1m1 0h1m-2 1h1"/><path stroke="silver" d="M22 2h1m-6 1h1m5 0h2m-9 1h1m8 0h1m-1 1h1M7 6h1m17 0h1M3 7h2m2 0h1m17 0h1M2 8h2m21 0h1M2 9h2m4 0h2m2 0h2m11 0h1M2 10h2m3 0h2m4 0h2m10 0h1M2 11h3m2 0h2m4 0h2m10 0h1M2 12h2m3 0h2m3 0h1m1 0h1M3 13h2m2 0h3m1 0h1m1 0h2M4 14h1m2 0h2m1 0h1m1 0h3m12 0h2M5 15h1m2 0h2m1 0h1m1 0h1m14 0h1M5 16h1m3 0h5m14 0h1M5 17h1m1 0h1m2 0h1m3 0h13m1 0h1M5 18h1m1 0h1m2 0h1m17 0h1M5 19h1m1 0h1m2 0h1m1 0h1m1 0h13m1 0h1M7 20h1m2 0h1m1 0h1m15 0h1M7 21h1m2 0h1m1 0h1m1 0h13m1 0h1M5 22h1m1 0h1m4 0h1m15 0h1M5 23h1m1 0h1m4 0h1m1 0h13m1 0h1M5 24h1m1 0h1m2 0h1m1 0h1m15 0h1M7 25h1m2 0h1m1 0h1m1 0h13m1 0h1M5 26h1m1 0h1m2 0h1m1 0h1m15 0h1M5 27h3m4 0h1m15 0h1M6 28h1m3 0h1m1 0h1m-3 1h3m-2 1h1"/><path stroke="gray" d="M6 4h5M3 5h9M2 6h1m5 0h1m1 0h2M1 7h1m6 0h4m1 0h1M0 8h1m4 0h3m5 0h1M0 9h1m4 0h2m7 0h1M0 10h1m4 0h1m4 0h2m3 0h1M0 11h1m4 0h1m4 0h2m3 0h1m3 0h1m1 0h1m1 0h1m5 0h1M0 12h1m4 0h1m9 0h1m2 0h1m1 0h1m1 0h1m1 0h1m3 0h1m1 0h1M1 13h1m3 0h1m9 0h1m1 0h1m1 0h1m1 0h1m1 0h1m1 0h1m1 0h1m1 0h1M2 14h1m2 0h1m9 0h1m14 0h1M3 15h1m2 0h1m7 0h1m14 0h1M4 16h1m1 0h2m22 0h1M4 17h1m1 0h1m1 0h1m3 0h1m16 0h1M3 18h1m2 0h1m2 0h1m1 0h2m17 0h1M3 19h1m2 0h1m2 0h1m1 0h1m17 0h1M5 20h2m1 0h1m2 0h1m18 0h1M6 21h1m1 0h1m2 0h1m17 0h1M4 22h1m1 0h1m3 0h2m18 0h1M3 23h1m2 0h1m2 0h1m1 0h1m17 0h1M6 24h1m2 0h1m1 0h1m18 0h1M6 25h1m1 0h1m2 0h1m17 0h1M4 26h1m1 0h1m4 0h1m18 0h1M4 27h1m4 0h1m1 0h1m17 0h1M9 28h1m1 0h1m17 0h1M9 29h1"/></svg>