<svg xmlns="http://www.w3.org/2000/svg" viewBox="0 -0.5 32 32" shape-rendering="crispEdges">
<path stroke="#000000" d="M0 0h1M9 3h11M5 4h4M13 4h1M15 4h1M20 4h4M3 5h2M8 5h6M15 5h6M24 5h2M2 6h1M6 6h2M9 6h1M11 6h3M15 6h3M19 6h1M21 6h2M26 6h1M1 7h12M16 7h12M1 8h1M11 8h1M14 8h1M17 8h1M27 8h1M1 9h12M16 9h12M2 10h1M6 10h2M9 10h1M11 10h3M15 10h3M19 10h1M21 10h2M26 10h3M2 11h3M8 11h6M15 11h6M24 11h6M1 12h1M3 12h1M5 12h5M13 12h1M15 12h1M20 12h4M25 12h1M27 12h1M29 12h1M1 13h1M3 13h2M6 13h1M8 13h13M22 13h1M24 13h2M27 13h1M30 13h1M2 14h1M5 14h4M10 14h1M12 14h1M14 14h1M16 14h1M18 14h1M20 14h4M26 14h3M30 14h1M3 15h2M9 15h11M24 15h8M3 16h6M20 16h9M30 16h2M4 17h23M28 17h1M30 17h2M6 18h19M27 18h2M30 18h2M10 19h12M26 19h1M28 19h4M24 20h2M27 20h1M29 20h3M22 21h3M26 21h1M30 21h2M20 22h2M24 22h1M29 22h3M18 23h2M22 23h1M25 23h1M28 23h3M16 24h2M20 24h1M26 24h4M17 25h1M24 25h1M26 25h3M18 26h1M25 26h3M19 27h1M22 27h1M24 27h3M20 28h1M23 28h3M21 29h4" />
<path stroke="#ffff00" d="M0 0h1M9 4h1M14 4h1M19 4h1M5 5h1M14 5h1M23 5h1M3 6h1M14 6h1M25 6h1M13 7h3M2 8h9M12 8h2M15 8h2M18 8h9M13 9h3M3 10h1M14 10h1M25 10h1M5 11h1M14 11h1M23 11h1M10 12h1M14 12h1M19 12h1" />
<path stroke="#ffffff" d="M0 0h1M10 4h3M16 4h3M6 5h2M21 5h2M4 6h2M8 6h1M10 6h1M18 6h1M20 6h1M23 6h2M4 10h2M8 10h1M10 10h1M18 10h1M20 10h1M23 10h2M6 11h2M21 11h2M2 12h1M4 12h1M11 12h2M16 12h3M24 12h1M26 12h1M28 12h1M2 13h1M5 13h1M7 13h1M21 13h1M23 13h1M26 13h1M28 13h2M3 14h2M9 14h1M11 14h1M13 14h1M15 14h1M17 14h1M19 14h1M24 14h2M29 14h1M5 15h4M20 15h4M9 16h11M29 16h1M27 17h1M29 17h1M29 18h1M27 19h1M26 20h1M28 20h1M25 21h1M27 21h3M22 22h2M25 22h4M20 23h2M23 23h2M26 23h2M18 24h2M21 24h5M18 25h6M25 25h1M19 26h6M20 27h2M23 27h1M21 28h2" />
</svg>