<svg xmlns="http://www.w3.org/2000/svg" width="32" height="32" shape-rendering="crispEdges" viewBox="0 -0.5 32 32"><path stroke="#000" d="M9 3h11M5 4h4m4 0h1m1 0h1m4 0h4M3 5h3m2 0h6m1 0h6m2 0h3M2 6h2m3 0h6m3 0h6m3 0h2M1 7h11m1 0h3m1 0h11M1 8h5m5 0h1m1 0h1m1 0h1m1 0h1m5 0h5M1 9h11m1 0h3m1 0h11M2 10h2m3 0h6m3 0h6m3 0h1m1 0h2M2 11h4m2 0h6m1 0h6m2 0h7M1 12h1m1 0h7m3 0h1m1 0h1m4 0h6m1 0h1m1 0h1M1 13h1m1 0h23m1 0h2m1 0h1M2 14h1m2 0h19m2 0h5M3 15h2m4 0h11m4 0h5m1 0h2M3 16h6m11 0h10m1 0h1M4 17h23m1 0h4M6 18h19m2 0h2m1 0h2m-22 1h12m3 0h7m-8 1h3m2 0h3m-10 1h3m3 0h4m-12 1h5m2 0h5m-14 1h4m3 0h6m-15 1h4m5 0h5m-13 1h1m6 0h5m-11 1h1m4 0h5m-9 1h1m2 0h5m-7 1h3m1 0h2m-5 1h1"/><path stroke="#fff" d="M9 4h4m1 0h1m1 0h4M6 5h2m6 0h1m6 0h2M4 6h3m6 0h3m6 0h3M12 7h1m3 0h1M6 8h5m1 0h1m1 0h1m1 0h1m1 0h5M12 9h1m3 0h1M4 10h3m6 0h3m6 0h3m1 0h1M6 11h2m6 0h1m6 0h2M2 12h1m7 0h3m1 0h1m1 0h4m6 0h1m1 0h1M2 13h1m23 0h1m2 0h1M3 14h2m19 0h2M5 15h4m11 0h4m5 0h1M9 16h11m10 0h1m-4 1h1m-3 1h2m2 0h1m-3 2h2m-4 1h3m-3 1h2m-5 1h3m-5 1h5m-7 1h6m-5 1h4m-3 1h2"/></svg>