<svg xmlns="http://www.w3.org/2000/svg" width="32" height="32" shape-rendering="crispEdges" viewBox="0 -0.5 32 32"><path stroke="#000" d="M9 3h11M5 4h4m4 0h1m1 0h1m4 0h4M3 5h2m3 0h6m1 0h6m3 0h2M2 6h1m3 0h2m1 0h1m1 0h3m1 0h3m1 0h1m1 0h2m3 0h1M1 7h12m3 0h12M1 8h1m9 0h1m2 0h1m2 0h1m9 0h1M1 9h12m3 0h12M2 10h1m3 0h2m1 0h1m1 0h3m1 0h3m1 0h1m1 0h2m3 0h3M2 11h3m3 0h6m1 0h6m3 0h6M1 12h1m1 0h1m1 0h5m3 0h1m1 0h1m4 0h4m1 0h1m1 0h1m1 0h1M1 13h1m1 0h2m1 0h1m1 0h13m1 0h1m1 0h2m1 0h1m2 0h1M2 14h1m2 0h4m1 0h1m1 0h1m1 0h1m1 0h1m1 0h1m1 0h4m2 0h3m1 0h1M3 15h2m4 0h11m4 0h8M3 16h6m11 0h9m1 0h2M4 17h23m1 0h1m1 0h2M6 18h19m2 0h2m1 0h2m-22 1h12m4 0h1m1 0h4m-8 1h2m1 0h1m1 0h3m-10 1h3m1 0h1m3 0h2m-12 1h2m2 0h1m4 0h3m-14 1h2m2 0h1m2 0h1m2 0h3m-15 1h2m2 0h1m5 0h4m-13 1h1m6 0h1m1 0h3m-11 1h1m6 0h3m-9 1h1m2 0h1m1 0h3m-7 1h1m2 0h3m-5 1h4"/><path stroke="#ff0" d="M9 4h1m4 0h1m4 0h1M5 5h1m8 0h1m8 0h1M3 6h1m10 0h1m10 0h1M13 7h3M2 8h9m1 0h2m1 0h2m1 0h9M13 9h3M3 10h1m10 0h1m10 0h1M5 11h1m8 0h1m8 0h1m-14 1h1m3 0h1m4 0h1"/><path stroke="#fff" d="M10 4h3m3 0h3M6 5h2m13 0h2M4 6h2m2 0h1m1 0h1m7 0h1m1 0h1m2 0h2M4 10h2m2 0h1m1 0h1m7 0h1m1 0h1m2 0h2M6 11h2m13 0h2M2 12h1m1 0h1m6 0h2m3 0h3m5 0h1m1 0h1m1 0h1M2 13h1m2 0h1m1 0h1m13 0h1m1 0h1m2 0h1m1 0h2M3 14h2m4 0h1m1 0h1m1 0h1m1 0h1m1 0h1m1 0h1m4 0h2m3 0h1M5 15h4m11 0h4M9 16h11m9 0h1m-3 1h1m1 0h1m-1 1h1m-3 1h1m-2 1h1m1 0h1m-4 1h1m1 0h3m-8 1h2m1 0h4m-9 1h2m1 0h2m1 0h2m-10 1h2m1 0h5m-8 1h6m1 0h1m-7 1h6m-5 1h2m1 0h1m-3 1h2"/></svg>