<svg xmlns="http://www.w3.org/2000/svg" viewBox="0 -0.5 16 16" shape-rendering="crispEdges">
<path stroke="#808080" d="M0 0h1M2 0h13M1 1h1M14 1h1M0 2h1M13 2h2M0 3h1M13 3h2M0 4h1M3 4h2M6 4h1M8 4h1M10 4h1M13 4h2M0 5h1M13 5h1M6 6h1M8 6h1M10 6h1" />
<path stroke="#c0c0c0" d="M0 0h1M15 0h1M2 1h4M7 1h1M9 1h1M11 1h3M6 2h1M2 3h2M5 3h1M7 3h1M9 3h1M12 3h1M2 4h1M12 4h1M2 5h2M5 5h1M7 5h1M9 5h1M11 5h2M0 8h1M2 8h2M9 8h5M15 8h1M5 9h1M4 10h1M3 11h1M2 12h1M1 13h1" />
<path stroke="#ffff00" d="M0 0h1M6 1h1M8 1h1M10 1h1M5 2h1M7 2h1M9 2h1M11 2h1M4 3h1M6 3h1M8 3h1M10 3h1M5 4h1M7 4h1M9 4h1M11 4h1M4 5h1M6 5h1M8 5h1M10 5h1M5 6h1M7 6h1M9 6h1M11 6h1M6 7h1M8 7h1M10 7h1M7 8h1" />
<path stroke="#000000" d="M0 0h1M15 1h1M15 2h1M15 3h1M15 4h1M14 5h1M0 6h5M12 6h2M0 9h1M2 9h2M8 9h6M15 9h1M8 10h1M6 11h2M5 12h1M4 13h1M3 14h1M1 15h2" />
<path stroke="#ffffff" d="M0 0h1M1 2h4M8 2h1M10 2h1M12 2h1M1 3h1M1 4h1M1 5h1" />
<path stroke="#008000" d="M0 0h1M11 3h1" />
<path stroke="#808000" d="M0 0h1M5 7h1M7 7h1M9 7h1M6 8h1M8 8h1" />
<path stroke="#800000" d="M0 0h1M4 8h2M4 9h1M7 9h1M3 10h1M6 10h2M2 11h1M1 12h1M4 12h1M0 13h1M3 13h1M0 14h3" />
<path stroke="#ff0000" d="M0 0h1M6 9h1M5 10h1M4 11h2M3 12h1M2 13h1" />
</svg>