<svg xmlns="http://www.w3.org/2000/svg" width="16" height="16" shape-rendering="crispEdges" viewBox="0 -0.5 16 16"><path stroke="gray" d="M2 0h13M1 1h1m12 0h1M0 2h1m12 0h2M0 3h1m12 0h2M0 4h1m2 0h2m1 0h1m1 0h1m1 0h1m2 0h2M0 5h1m12 0h1M6 6h1m1 0h1m1 0h1"/><path stroke="silver" d="M15 0h1M2 1h4m1 0h1m1 0h1m1 0h3M6 2h1M2 3h2m1 0h1m1 0h1m1 0h1m2 0h1M2 4h1m9 0h1M2 5h2m1 0h1m1 0h1m1 0h1m1 0h2M0 8h1m1 0h2m5 0h5m1 0h1M5 9h1m-2 1h1m-2 1h1m-2 1h1m-2 1h1"/><path stroke="#ff0" d="M6 1h1m1 0h1m1 0h1M5 2h1m1 0h1m1 0h1m1 0h1M4 3h1m1 0h1m1 0h1m1 0h1M5 4h1m1 0h1m1 0h1m1 0h1M4 5h1m1 0h1m1 0h1m1 0h1M5 6h1m1 0h1m1 0h1m1 0h1M6 7h1m1 0h1m1 0h1M7 8h1"/><path stroke="#000" d="M15 1h1m-1 1h1m-1 1h1m-1 1h1m-2 1h1M0 6h5m7 0h2M0 9h1m1 0h2m4 0h6m1 0h1m-8 1h1m-3 1h2m-3 1h1m-2 1h1m-2 1h1m-3 1h2"/><path stroke="#fff" d="M1 2h4m3 0h1m1 0h1m1 0h1M1 3h1M1 4h1M1 5h1"/><path stroke="green" d="M11 3h1"/><path stroke="olive" d="M5 7h1m1 0h1m1 0h1M6 8h1m1 0h1"/><path stroke="maroon" d="M4 8h2M4 9h1m2 0h1m-5 1h1m2 0h2m-6 1h1m-2 1h1m2 0h1m-5 1h1m2 0h1m-4 1h3"/><path stroke="red" d="M6 9h1m-2 1h1m-2 1h2m-3 1h1m-2 1h1"/></svg>