<svg xmlns="http://www.w3.org/2000/svg" width="16" height="16" shape-rendering="crispEdges" viewBox="0 -0.5 16 16"><path stroke="gray" d="M12 0h1m-1 1h1m-1 1h1m-1 1h1M8 4h3m3 0h2M7 5h1M7 6h1M7 7h1M7 8h1M7 9h1m-8 1h2m3 0h3m-5 2h1m-1 1h1m-1 1h1m-1 1h1"/><path stroke="#000" d="M13 0h1m-1 1h1m-1 1h1m-1 1h1M8 5h3m3 0h2M8 6h1m2 0h4M8 7h1M8 8h1M8 9h1m-1 1h1m-9 1h2m3 0h4m-5 1h2m-2 1h1m-1 1h1m-1 1h1"/><path stroke="olive" d="M12 4h2m-1 1h1M2 11h1m1 0h1"/><path stroke="#ff0" d="M11 5h2"/><path stroke="#fff" d="M3 11h1"/></svg>