<svg xmlns="http://www.w3.org/2000/svg" width="16" height="16" shape-rendering="crispEdges" viewBox="0 -0.5 16 16"><path stroke="gray" d="M6 0h4M5 1h1m3 0h1M5 2h1m3 0h1M5 3h1m3 0h1M5 4h5M4 5h1m5 0h1M4 6h7M2 8h4m4 0h4M1 9h1m3 0h1m3 0h1m3 0h1M1 10h1m3 0h1m3 0h1m3 0h1M1 11h1m3 0h1m3 0h1m3 0h1M1 12h5m3 0h5M0 13h1m5 0h1m1 0h1m5 0h1M0 14h7m1 0h7"/><path stroke="silver" d="M6 1h3M6 2h1M6 3h1M5 5h5M2 9h3m5 0h3M2 10h1m7 0h1m-9 1h1m7 0h1M1 13h5m3 0h5"/><path stroke="#000" d="M10 1h1m-1 1h1m-1 1h1m-1 1h1m0 1h1m-1 1h1M5 7h7M6 9h1m7 0h1m-9 1h1m7 0h1m-9 1h1m7 0h1m-9 1h1m7 0h1m-8 1h1m7 0h1m-9 1h1m7 0h1M1 15h7m1 0h7"/><path stroke="#0ff" d="M7 2h2M7 3h2"/><path stroke="#00f" d="M3 10h2m6 0h2M3 11h2m6 0h2"/></svg>