<svg xmlns="http://www.w3.org/2000/svg" width="32" height="32" shape-rendering="crispEdges" viewBox="0 -0.5 32 32"><path stroke="gray" d="M4 0h26M3 1h1m25 0h1M2 2h1m25 0h2M1 3h1m25 0h3M1 4h1m25 0h3M1 5h1m25 0h3M1 6h1m25 0h3M1 7h1m2 0h3m1 0h1m1 0h1m1 0h1m1 0h1m1 0h1m1 0h1m1 0h1m1 0h1m1 0h1m2 0h3M1 8h1m25 0h3M1 9h1m2 0h3m1 0h1m1 0h1m1 0h1m1 0h1m1 0h1m1 0h1m1 0h1m1 0h1m1 0h1m2 0h3M1 10h1m25 0h3M1 11h1m25 0h2M1 12h7m1 0h1m1 0h1m1 0h1m1 0h1m1 0h1m1 0h1m1 0h1m1 0h5m-13 2h1m-2 1h1M0 17h1m1 0h7m3 0h1m1 0h1m1 0h1m2 0h11m1 0h1M7 23h1m-6 6h1"/><path stroke="silver" d="M4 1h25M3 2h25M3 4h7m1 0h1m1 0h1m1 0h1m1 0h1m1 0h1m1 0h1m3 0h2M3 5h6m1 0h1m1 0h1m1 0h1m1 0h1m1 0h1m1 0h1m4 0h2M3 6h5m1 0h1m1 0h1m1 0h1m1 0h1m1 0h1m1 0h1m1 0h1m1 0h4M3 7h1m21 0h2M3 8h1m21 0h2M3 9h1m21 0h2M3 10h1m21 0h2M3 11h4m1 0h1m1 0h1m1 0h1m1 0h1m1 0h1m1 0h1m1 0h1m1 0h1m1 0h3m-17 7h1m-3 3h1m-2 1h1m-2 2h1m-2 1h1m-2 1h1m-2 1h1"/><path stroke="#000" d="M30 1h1m-1 1h1m-1 1h1m-1 1h1m-1 1h1m-1 1h1m-1 1h1m-1 1h1m-1 1h1m-1 1h1m-2 1h1m-2 1h1M2 13h5m1 0h1m1 0h1m1 0h1m1 0h1m1 0h1m1 0h1m1 0h1m1 0h6m-12 2h1m1 2h1m-7 1h1m5 0h1M0 19h1m1 0h5m6 0h1m4 0h12m1 0h1m-21 1h1m2 0h5m-7 1h1m1 0h2m-4 1h1m1 0h1m-7 1h1m2 0h3m-7 1h1m2 0h3m-4 1h1m-2 1h1m-2 1h1m-2 1h1m-2 1h1m-2 1h1m-4 1h3"/><path stroke="#fff" d="M2 3h9m1 0h1m1 0h1m1 0h1m1 0h1m1 0h7M2 4h1M2 5h1M2 6h1M2 7h1M2 8h1m1 0h4m1 0h1m1 0h1m1 0h1m1 0h1m1 0h1m1 0h1m1 0h1m1 0h2M2 9h1m-1 1h1m1 0h4m1 0h1m1 0h1m1 0h1m1 0h1m1 0h1m1 0h1m1 0h1m1 0h2M2 11h1m6 3h1m1 0h1m1 0h1m3 0h1m1 0h1m1 0h1m-2 1h1M9 16h1m-8 2h6m1 0h1m9 0h11M8 19h1m5 0h1m-7 1h1m-3 3h1m-2 1h1m-2 1h1m-2 1h1m-2 1h1"/><path stroke="#ff0" d="M11 3h1m1 0h1m1 0h1m1 0h1m1 0h1M10 4h1m1 0h1m1 0h1m1 0h1m1 0h1m1 0h1m1 0h1M9 5h1m1 0h1m1 0h1m1 0h1m1 0h1m1 0h1m1 0h1m1 0h1M8 6h1m1 0h1m1 0h1m1 0h1m1 0h1m1 0h1m1 0h1m1 0h1M7 7h1m1 0h1m1 0h1m1 0h1m1 0h1m1 0h1m1 0h1m1 0h1m1 0h1M8 8h1m1 0h1m1 0h1m1 0h1m1 0h1m1 0h1m1 0h1m1 0h1M7 9h1m1 0h1m1 0h1m1 0h1m1 0h1m1 0h1m1 0h1m1 0h1m1 0h1M8 10h1m1 0h1m1 0h1m5 0h1m1 0h1m1 0h1M7 11h1m1 0h1m1 0h1m1 0h1m3 0h1m3 0h1m1 0h1M8 12h1m1 0h1m5 0h1m3 0h1m1 0h1M7 13h1m1 0h1m1 0h1m1 0h1m-6 1h1m13 0h1m-13 1h1m1 0h1m5 0h1M8 16h1m2 0h1m1 0h1m1 0h1m1 0h1m1 0h1m-7 2h1m1 0h1m1 0h1"/><path stroke="green" d="M23 4h2m-3 1h1m1 0h1"/><path stroke="olive" d="M14 10h1m1 0h1m-2 1h1m3 0h1m-8 1h1m1 0h1m3 0h1m-4 1h1m1 0h1m1 0h1m1 0h1m-12 1h1m1 0h1m1 0h1m1 0h1m1 0h1m1 0h1M9 15h1m1 0h1m1 0h1m1 0h1m1 0h1m1 0h1m1 0h1m-12 1h1m1 0h1m1 0h1m1 0h1m1 0h1m1 0h1m-8 1h1m1 0h1m1 0h1m-4 1h1m1 0h1m-2 1h3"/><path stroke="maroon" d="M9 17h3m-4 1h1m-2 1h1m1 0h3m-5 1h1m4 0h2m-7 1h1m3 0h1m1 0h1m-8 1h1m3 0h2m1 0h1m-9 1h1m4 0h1m-7 1h1m4 0h1m-7 1h1m4 0h1m-7 1h1m4 0h1m-7 1h1m4 0h1m-7 1h3m2 0h1m-6 1h1m2 0h2m-5 1h4"/><path stroke="red" d="M11 18h1m0 1h1m-4 1h2m-2 1h2m-3 1h2m-1 1h1m-2 1h1m-3 1h2m-3 1h2m-3 1h2m-3 1h2m-4 1h1"/></svg>