<svg xmlns="http://www.w3.org/2000/svg" width="32" height="32" shape-rendering="crispEdges" viewBox="0 -0.5 32 32"><path stroke="gray" d="M4 0h14M3 1h1m13 0h1M2 2h1m13 0h2M2 3h1m1 0h10m2 0h2M2 4h1m1 0h1m11 0h2M2 5h1m1 0h1m11 0h2M2 6h1m1 0h1m11 0h2M2 7h1m1 0h1m11 0h2M2 8h1m1 0h1m11 0h2M2 9h1m1 0h1m11 0h2M2 10h1m1 0h1m10 0h14M2 11h1m11 0h1m13 0h1M2 12h1m10 0h1m13 0h2M2 13h1m10 0h1m1 0h10m2 0h2M1 14h13m1 0h1m8 0h1m2 0h2M0 15h1m12 0h1m1 0h1m8 0h1m2 0h2M0 16h1m10 0h3m1 0h1m8 0h1m2 0h2M0 17h1m12 0h1m1 0h1m8 0h1m2 0h2M0 18h1m12 0h1m1 0h1m8 0h1m2 0h2M0 19h14m1 0h1m8 0h1m2 0h2m-16 1h1m1 0h10m2 0h2M5 21h1m7 0h1m13 0h2M5 22h1m7 0h1m13 0h1m1 0h2M5 23h1m7 0h1m14 0h2M5 24h1m6 0h17m1 0h1M0 25h1m1 0h2m5 0h3m17 0h2m-20 1h1m10 0h6m1 0h2m-20 1h1m17 0h2m-20 1h1m17 0h2m-20 1h19"/><path stroke="silver" d="M4 1h13m-2 2h1m-1 1h1m-1 1h1m-1 1h1m-1 1h1m-1 1h1m-1 1h1m-1 2h13M3 12h10m13 1h1m-1 1h1m-1 1h1M2 16h9m15 0h1M2 17h1m2 0h6m15 0h1M2 18h1m2 0h8m13 0h1m-1 1h1m-1 1h1M6 21h1m19 0h1M6 22h1m7 0h13M6 23h1m23 0h1M6 24h1m22 0h1M0 26h1m1 0h2m5 0h2m2 0h9m6 0h1m-16 1h1m2 0h6m6 0h1m-16 1h1m2 0h13"/><path stroke="#000" d="M18 1h1m-1 1h1m-1 1h1M5 4h8m5 0h1M5 5h1m12 0h1M5 6h1m12 0h1M5 7h1m12 0h1M5 8h1m12 0h1M5 9h1m12 0h1m10 2h1m-1 1h1M3 13h10m16 0h1m-14 1h8m5 0h1m-14 1h1m12 0h1m-14 1h1m12 0h1m-19 1h2m3 0h1m12 0h1m-14 1h1m12 0h1m-14 1h1m12 0h1M1 20h12m16 0h1M7 21h1m21 0h1M7 22h1m20 0h1M7 23h1m6 0h14m3 0h1M7 24h1m23 0h1M8 25h1m22 0h1M8 26h1m22 0h1M0 27h1m1 0h2m4 0h3m11 0h6m3 0h1M4 28h5m22 0h1m-2 1h1m-19 1h18"/><path stroke="#fff" d="M3 2h13M3 3h1m10 0h1M3 4h1m10 0h1M3 5h1m10 0h1M3 6h1m10 0h1M3 7h1m10 0h1M3 8h1m10 0h1M3 9h1m10 0h1M3 10h1m10 0h1M3 11h11m0 1h13m-13 1h1m10 0h1m-12 1h1m10 0h1M1 15h12m1 0h1m10 0h1M1 16h1m12 0h1m10 0h1M1 17h1m12 0h1m10 0h1M1 18h1m12 0h1m10 0h1m-12 1h1m10 0h1m-12 1h1m10 0h1m-12 1h12m-14 4h17M5 26h1m6 0h1m-8 1h1m6 0h1m-1 1h1"/><path stroke="navy" d="M13 4h1m-1 1h1m-1 1h1m-1 1h1m-1 1h1m-1 1h1m-9 1h9"/><path stroke="#00f" d="M6 5h7M6 6h1m1 0h5M6 7h1m1 0h5M6 8h7M6 9h7"/><path stroke="#0ff" d="M7 6h1M7 7h1m10 9h1m-1 1h1"/><path stroke="teal" d="M17 15h7m-7 1h1m1 0h5m-7 1h1m1 0h5m-7 1h7m-7 1h7"/><path stroke="#0f0" d="M3 17h2m9 10h2"/><path stroke="green" d="M3 18h2m9 10h2"/><path stroke="olive" d="M4 25h4m-4 1h1m2 0h1m-4 1h1m2 0h1"/><path stroke="#ff0" d="M6 26h1m-1 1h1"/></svg>