<svg xmlns="http://www.w3.org/2000/svg" viewBox="0 -0.5 16 16" shape-rendering="crispEdges">
<path stroke="#ffff00" d="M0 0h1M0 0h1M4 0h1M1 1h1M7 1h1M2 2h1M4 2h1M6 2h1M1 3h1M3 3h1M4 4h2M4 6h1" />
<path stroke="#808080" d="M0 0h1M3 0h1M7 0h1M0 1h1M3 1h1M6 1h1M1 2h1M3 2h1M5 2h1M2 3h1M5 3h4M0 4h3M3 5h1M6 5h1M0 6h1M3 6h1M3 7h1" />
<path stroke="#000000" d="M0 0h1M8 0h3M10 1h2M10 2h1M12 2h1M10 3h1M13 3h1M10 4h5M7 5h2M14 5h1M14 6h1M5 7h7M14 7h1M3 8h1M14 8h1M3 9h1M5 9h7M14 9h1M3 10h1M14 10h1M3 11h1M5 11h7M14 11h1M3 12h1M14 12h1M3 13h1M14 13h1M3 14h12" />
<path stroke="#ffffff" d="M0 0h1M4 1h1M8 1h2M7 2h3M11 2h1M4 3h1M9 3h1M11 3h2M3 4h1M6 4h4M2 5h1M4 5h2M9 5h5M5 6h9M4 7h1M12 7h2M4 8h10M4 9h1M12 9h2M4 10h10M4 11h1M12 11h2M4 12h10M4 13h10" />
</svg>