<svg xmlns="http://www.w3.org/2000/svg" width="16" height="16" shape-rendering="crispEdges" viewBox="0 -0.5 16 16"><path stroke="#000" d="M5 0h9M4 1h1m8 0h2M3 2h1m9 0h1m1 0h1m-3 1h1m1 0h1M2 4h1m9 0h1m2 0h1m-4 1h1m2 0h1M1 6h1m9 0h1m3 0h1m-5 1h1m3 0h1M0 8h1m9 0h1m4 0h1m-6 1h1m4 0h1M0 10h10m5 0h1M4 11h1m10 0h1M4 12h1m10 0h1M4 13h1m10 0h1M4 14h1m10 0h1M5 15h10"/><path stroke="gray" d="M5 1h1m2 0h1m2 0h1m2 13h1"/><path stroke="teal" d="M6 1h2m1 0h2m1 0h1M3 3h1m1 0h6m1 0h1M5 4h5M2 5h1m8 0h1M1 7h1m8 0h1M0 9h1m8 0h1"/><path stroke="#0ff" d="M4 2h9M4 3h1m6 0h1M3 4h2m5 0h2M3 5h8M2 6h9M2 7h8M1 8h9M1 9h8"/><path stroke="silver" d="M14 2h1m-1 1h1m-2 1h2m-2 1h2m-3 1h3m-3 1h3m-4 1h4m-4 1h2m1 0h1m-5 1h5M5 11h10M5 12h7m2 0h1M5 13h10M5 14h9"/><path stroke="#fff" d="M13 9h1m-2 3h2"/></svg>