<svg xmlns="http://www.w3.org/2000/svg" viewBox="0 -0.5 32 32" shape-rendering="crispEdges">
<path stroke="#000000" d="M0 0h1M9 1h2M12 1h2M15 1h2M18 1h2M21 1h2M24 1h2M8 2h1M10 2h2M13 2h2M16 2h2M19 2h2M22 2h2M25 2h3M7 3h1M9 3h1M12 3h1M15 3h1M18 3h1M21 3h1M24 3h1M27 3h2M7 4h1M26 4h1M29 4h1M6 5h1M26 5h1M29 5h1M6 6h1M25 6h1M29 6h1M5 7h1M10 7h10M25 7h1M29 7h1M5 8h1M24 8h1M29 8h1M4 9h1M9 9h10M24 9h1M29 9h1M4 10h1M23 10h1M29 10h1M3 11h1M23 11h1M29 11h1M3 12h1M22 12h1M29 12h1M2 13h1M22 13h1M29 13h1M2 14h1M21 14h1M29 14h1M1 15h1M21 15h1M29 15h1M1 16h1M20 16h1M29 16h1M0 17h1M20 17h1M29 17h1M0 18h1M19 18h1M29 18h1M0 19h1M19 19h1M29 19h1M1 20h18M29 20h1M8 21h1M29 21h1M8 22h1M29 22h1M8 23h1M29 23h1M8 24h1M29 24h1M8 25h1M29 25h1M8 26h1M29 26h1M8 27h1M29 27h1M9 28h1M29 28h1M10 29h1M28 29h1M11 30h17" />
<path stroke="#ffffff" d="M0 0h1M9 2h1M12 2h1M15 2h1M18 2h1M21 2h1M24 2h1M26 11h1M26 12h1M25 14h2M25 15h2M24 17h3M24 18h3M23 20h4M23 21h4M22 23h5M22 24h5M20 26h7M9 27h17" />
<path stroke="#00ffff" d="M0 0h1M8 3h1M10 3h1M14 3h1M16 3h1M20 3h1M22 3h1M9 4h1M11 4h1M13 4h1M15 4h1M17 4h1M19 4h1M21 4h1M23 4h1M8 5h1M10 5h1M12 5h1M14 5h1M16 5h1M18 5h1M20 5h1M22 5h1M24 5h1M7 6h1M9 6h1M11 6h1M13 6h1M15 6h1M17 6h1M19 6h1M21 6h1M23 6h1M6 7h1M8 7h1M20 7h1M22 7h1M7 8h1M9 8h1M11 8h1M13 8h1M15 8h1M17 8h1M19 8h1M21 8h1M6 9h1M8 9h1M20 9h1M22 9h1M5 10h1M7 10h1M9 10h1M11 10h1M13 10h1M15 10h1M17 10h1M19 10h1M21 10h1M4 11h1M6 11h1M8 11h1M10 11h1M12 11h1M14 11h1M16 11h1M18 11h1M20 11h1M5 12h1M7 12h1M9 12h1M11 12h1M13 12h1M15 12h1M17 12h1M19 12h1M4 13h1M6 13h1M8 13h1M10 13h1M12 13h1M14 13h1M16 13h1M18 13h1M20 13h1M3 14h1M5 14h1M7 14h1M9 14h1M11 14h1M13 14h1M15 14h1M17 14h1M19 14h1M2 15h1M4 15h1M6 15h1M8 15h1M10 15h1M12 15h1M14 15h1M16 15h1M18 15h1M3 16h1M5 16h1M7 16h1M9 16h1M11 16h1M13 16h1M15 16h1M17 16h1M2 17h1M4 17h1M6 17h1M8 17h1M10 17h1M12 17h1M14 17h1M16 17h1M18 17h1M1 18h1M3 18h1M5 18h1M7 18h1M9 18h1M11 18h1M13 18h1M15 18h1M17 18h1" />
<path stroke="#c0c0c0" d="M0 0h1M11 3h1M13 3h1M17 3h1M19 3h1M23 3h1M25 3h1M8 4h1M10 4h1M12 4h1M14 4h1M16 4h1M18 4h1M20 4h1M22 4h1M24 4h1M27 4h1M7 5h1M9 5h1M11 5h1M13 5h1M15 5h1M17 5h1M19 5h1M21 5h1M23 5h1M27 5h1M8 6h1M10 6h1M12 6h1M14 6h1M16 6h1M18 6h1M20 6h1M22 6h1M26 6h2M7 7h1M9 7h1M21 7h1M23 7h1M26 7h2M6 8h1M8 8h1M10 8h1M12 8h1M14 8h1M16 8h1M18 8h1M20 8h1M22 8h1M25 8h3M5 9h1M7 9h1M19 9h1M21 9h1M25 9h3M6 10h1M8 10h1M10 10h1M12 10h1M14 10h1M16 10h1M18 10h1M20 10h1M27 10h1M5 11h1M7 11h1M9 11h1M11 11h1M13 11h1M15 11h1M17 11h1M19 11h1M21 11h1M24 11h2M27 11h1M4 12h1M6 12h1M8 12h1M10 12h1M12 12h1M14 12h1M16 12h1M18 12h1M20 12h1M23 12h3M27 12h1M3 13h1M5 13h1M7 13h1M9 13h1M11 13h1M13 13h1M15 13h1M17 13h1M19 13h1M27 13h1M4 14h1M6 14h1M8 14h1M10 14h1M12 14h1M14 14h1M16 14h1M18 14h1M22 14h3M27 14h1M3 15h1M5 15h1M7 15h1M9 15h1M11 15h1M13 15h1M15 15h1M17 15h1M19 15h1M22 15h3M27 15h1M2 16h1M4 16h1M6 16h1M8 16h1M10 16h1M12 16h1M14 16h1M16 16h1M18 16h1M27 16h1M1 17h1M3 17h1M5 17h1M7 17h1M9 17h1M11 17h1M13 17h1M15 17h1M17 17h1M21 17h3M27 17h1M2 18h1M4 18h1M6 18h1M8 18h1M10 18h1M12 18h1M14 18h1M16 18h1M20 18h4M27 18h1M27 19h1M19 20h4M27 20h1M9 21h14M27 21h1M27 22h1M9 23h13M27 23h1M9 24h13M27 24h1M27 25h1M9 26h11M27 26h1M26 27h2M10 28h17" />
<path stroke="#008080" d="M0 0h1M26 3h1M25 4h1M25 5h1M24 6h1M24 7h1M23 8h1M23 9h1M22 10h1M22 11h1M21 12h1M21 13h1M20 14h1M20 15h1M19 16h1M19 17h1M18 18h1M1 19h18" />
<path stroke="#808080" d="M0 0h1M28 4h1M28 5h1M28 6h1M28 7h1M28 8h1M28 9h1M24 10h3M28 10h1M28 11h1M28 12h1M23 13h4M28 13h1M28 14h1M28 15h1M21 16h6M28 16h1M28 17h1M28 18h1M20 19h7M28 19h1M28 20h1M28 21h1M9 22h18M28 22h1M28 23h1M28 24h1M9 25h18M28 25h1M28 26h1M28 27h1M27 28h2M11 29h17" />
</svg>