<svg xmlns="http://www.w3.org/2000/svg" width="32" height="32" shape-rendering="crispEdges" viewBox="0 -0.5 32 32"><path stroke="#000" d="M4 0h2m1 0h2m1 0h2m1 0h2m1 0h2m1 0h2m1 0h2m1 0h1m1 1h1M4 2h1m2 0h1m2 0h1m2 0h1m2 0h1m2 0h1m2 0h1m3 0h1m1 0h1M4 3h1m2 0h1m2 0h1m2 0h1m2 0h1m2 0h1m2 0h1m3 0h1m1 0h1m-3 1h1m1 0h1m-3 1h1m1 0h1m-3 1h1m1 0h1M5 7h6m7 0h1m1 0h3m3 0h1m1 0h1m-3 1h1m1 0h1M5 9h6m15 0h1m1 0h1m-3 1h1m1 0h1m-3 1h1m1 0h1m-3 1h1m1 0h1M5 13h6m15 0h1m1 0h1m-3 1h1m1 0h1m-3 1h1m1 0h1M5 16h18m3 0h1m1 0h1m-3 1h1m1 0h1M5 18h18m3 0h1m1 0h1m-3 1h1m1 0h1M5 20h18m3 0h1m1 0h1m-3 1h1m1 0h1M5 22h18m3 0h1m1 0h1m-3 1h1m1 0h1m-3 1h1m1 0h1M5 25h6m15 0h1m1 0h1m-3 1h1m1 0h1M5 27h6m15 0h1m1 0h1m-3 1h1m1 0h1m-3 1h1m1 0h1m-4 1h1m1 0h1M4 31h23"/><path stroke="gray" d="M3 1h1m1 0h2m1 0h2m1 0h2m1 0h2m1 0h2m1 0h2m1 0h2m1 0h1M2 2h1m22 0h1M2 3h1m22 0h1M2 4h1M2 5h1M2 6h1M2 7h1M2 8h1M2 9h1m-1 1h1m-1 1h1m-1 1h1m-1 1h1m-1 1h1m-1 1h1m-1 1h1m-1 1h1m-1 1h1m-1 1h1m-1 1h1m-1 1h1m-1 1h1m-1 1h1m-1 1h1m-1 1h1m-1 1h1m-1 1h1m-1 1h1m-1 1h1m0 1h1"/><path stroke="#fff" d="M4 1h1m2 0h1m2 0h1m2 0h1m2 0h1m2 0h1m2 0h1m2 0h1M3 2h1m1 0h2m1 0h2m1 0h2m1 0h2m1 0h2m1 0h2m1 0h2M3 3h1m1 0h2m1 0h2m1 0h2m1 0h2m1 0h2m1 0h2m1 0h2M3 4h22M3 5h22M3 6h22M3 7h2m6 0h7m1 0h1m3 0h2M3 8h22M3 9h2m6 0h14M3 10h22M3 11h22M3 12h22M3 13h2m6 0h14M3 14h22M3 15h22M3 16h2m18 0h2M3 17h22M3 18h2m18 0h2M3 19h22M3 20h2m18 0h2M3 21h22M3 22h2m18 0h2M3 23h22M3 24h22M3 25h2m6 0h14M3 26h22M3 27h2m6 0h14M3 28h22M3 29h22"/><path stroke="silver" d="M27 2h1m-1 1h1m-3 1h1m1 0h1m-3 1h1m1 0h1m-3 1h1m1 0h1m-3 1h1m1 0h1m-3 1h1m1 0h1m-3 1h1m1 0h1m-3 1h1m1 0h1m-3 1h1m1 0h1m-3 1h1m1 0h1m-3 1h1m1 0h1m-3 1h1m1 0h1m-3 1h1m1 0h1m-3 1h1m1 0h1m-3 1h1m1 0h1m-3 1h1m1 0h1m-3 1h1m1 0h1m-3 1h1m1 0h1m-3 1h1m1 0h1m-3 1h1m1 0h1m-3 1h1m1 0h1m-3 1h1m1 0h1m-3 1h1m1 0h1m-3 1h1m1 0h1m-3 1h1m1 0h1m-3 1h1m1 0h1m-3 1h1m1 0h1M4 30h21m1 0h1"/></svg>