<svg xmlns="http://www.w3.org/2000/svg" width="16" height="16" shape-rendering="crispEdges" viewBox="0 -0.5 16 16"><path stroke="#000" d="M2 0h1m1 0h1m1 0h1m1 0h1m1 0h1M1 1h1m9 0h1M2 2h1m1 0h1m1 0h1m1 0h1m1 0h1m1 0h1m-1 1h1m-1 1h1M3 5h3m1 0h2m3 0h1m-1 1h1M3 7h6m3 0h1m-1 1h1M3 9h6m3 0h1m-1 1h1M3 11h6m3 0h1m-1 1h1m-1 1h1m-1 1h1M1 15h11"/><path stroke="#fff" d="M2 1h1m1 0h1m1 0h1m1 0h1m1 0h1M1 2h1m1 0h1m1 0h1m1 0h1m1 0h1m1 0h1M1 3h10M1 4h10M1 5h2m3 0h1m2 0h2M1 6h10M1 7h2m6 0h2M1 8h10M1 9h2m6 0h2M1 10h10M1 11h2m6 0h2M1 12h10M1 13h10"/><path stroke="gray" d="M3 1h1m1 0h1m1 0h1m1 0h1M0 2h1M0 3h1M0 4h1M0 5h1M0 6h1M0 7h1M0 8h1M0 9h1m-1 1h1m-1 1h1m-1 1h1m-1 1h1m-1 1h1"/><path stroke="silver" d="M11 3h1m-1 1h1m-1 1h1m-1 1h1m-1 1h1m-1 1h1m-1 1h1m-1 1h1m-1 1h1m-1 1h1m-1 1h1M1 14h11"/></svg>