<svg xmlns="http://www.w3.org/2000/svg" width="32" height="32" shape-rendering="crispEdges" viewBox="0 -0.5 32 32"><path stroke="#000" d="M9 1h2m1 0h2m1 0h2m1 0h2m1 0h2m1 0h2M8 2h1m1 0h2m1 0h2m1 0h2m1 0h2m1 0h2m1 0h3M7 3h1m1 0h1m2 0h1m2 0h1m2 0h1m2 0h1m2 0h1m2 0h2M7 4h1m18 0h1m2 0h1M6 5h1m19 0h1m2 0h1M6 6h1m18 0h1m3 0h1M5 7h1m4 0h10m5 0h1m3 0h1M5 8h1m18 0h1m4 0h1M4 9h1m4 0h10m5 0h1m4 0h1M4 10h1m18 0h1m5 0h1M3 11h1m19 0h1m5 0h1M3 12h1m18 0h1m6 0h1M2 13h1m19 0h1m6 0h1M2 14h1m18 0h1m7 0h1M1 15h1m19 0h1m7 0h1M1 16h1m18 0h1m8 0h1M0 17h1m19 0h1m8 0h1M0 18h1m18 0h1m9 0h1M0 19h1m18 0h1m9 0h1M1 20h18m10 0h1M8 21h1m20 0h1M8 22h1m20 0h1M8 23h1m20 0h1M8 24h1m20 0h1M8 25h1m20 0h1M8 26h1m20 0h1M8 27h1m20 0h1M9 28h1m19 0h1m-20 1h1m17 0h1m-18 1h17"/><path stroke="#fff" d="M9 2h1m2 0h1m2 0h1m2 0h1m2 0h1m2 0h1m1 9h1m-1 1h1m-2 2h2m-2 1h2m-3 2h3m-3 1h3m-4 2h4m-4 1h4m-5 2h5m-5 1h5m-7 2h7M9 27h17"/><path stroke="#0ff" d="M8 3h1m1 0h1m3 0h1m1 0h1m3 0h1m1 0h1M9 4h1m1 0h1m1 0h1m1 0h1m1 0h1m1 0h1m1 0h1m1 0h1M8 5h1m1 0h1m1 0h1m1 0h1m1 0h1m1 0h1m1 0h1m1 0h1m1 0h1M7 6h1m1 0h1m1 0h1m1 0h1m1 0h1m1 0h1m1 0h1m1 0h1m1 0h1M6 7h1m1 0h1m11 0h1m1 0h1M7 8h1m1 0h1m1 0h1m1 0h1m1 0h1m1 0h1m1 0h1m1 0h1M6 9h1m1 0h1m11 0h1m1 0h1M5 10h1m1 0h1m1 0h1m1 0h1m1 0h1m1 0h1m1 0h1m1 0h1m1 0h1M4 11h1m1 0h1m1 0h1m1 0h1m1 0h1m1 0h1m1 0h1m1 0h1m1 0h1M5 12h1m1 0h1m1 0h1m1 0h1m1 0h1m1 0h1m1 0h1m1 0h1M4 13h1m1 0h1m1 0h1m1 0h1m1 0h1m1 0h1m1 0h1m1 0h1m1 0h1M3 14h1m1 0h1m1 0h1m1 0h1m1 0h1m1 0h1m1 0h1m1 0h1m1 0h1M2 15h1m1 0h1m1 0h1m1 0h1m1 0h1m1 0h1m1 0h1m1 0h1m1 0h1M3 16h1m1 0h1m1 0h1m1 0h1m1 0h1m1 0h1m1 0h1m1 0h1M2 17h1m1 0h1m1 0h1m1 0h1m1 0h1m1 0h1m1 0h1m1 0h1m1 0h1M1 18h1m1 0h1m1 0h1m1 0h1m1 0h1m1 0h1m1 0h1m1 0h1m1 0h1"/><path stroke="silver" d="M11 3h1m1 0h1m3 0h1m1 0h1m3 0h1m1 0h1M8 4h1m1 0h1m1 0h1m1 0h1m1 0h1m1 0h1m1 0h1m1 0h1m1 0h1m2 0h1M7 5h1m1 0h1m1 0h1m1 0h1m1 0h1m1 0h1m1 0h1m1 0h1m1 0h1m3 0h1M8 6h1m1 0h1m1 0h1m1 0h1m1 0h1m1 0h1m1 0h1m1 0h1m3 0h2M7 7h1m1 0h1m11 0h1m1 0h1m2 0h2M6 8h1m1 0h1m1 0h1m1 0h1m1 0h1m1 0h1m1 0h1m1 0h1m1 0h1m2 0h3M5 9h1m1 0h1m11 0h1m1 0h1m3 0h3M6 10h1m1 0h1m1 0h1m1 0h1m1 0h1m1 0h1m1 0h1m1 0h1m6 0h1M5 11h1m1 0h1m1 0h1m1 0h1m1 0h1m1 0h1m1 0h1m1 0h1m1 0h1m2 0h2m1 0h1M4 12h1m1 0h1m1 0h1m1 0h1m1 0h1m1 0h1m1 0h1m1 0h1m1 0h1m2 0h3m1 0h1M3 13h1m1 0h1m1 0h1m1 0h1m1 0h1m1 0h1m1 0h1m1 0h1m1 0h1m7 0h1M4 14h1m1 0h1m1 0h1m1 0h1m1 0h1m1 0h1m1 0h1m1 0h1m3 0h3m2 0h1M3 15h1m1 0h1m1 0h1m1 0h1m1 0h1m1 0h1m1 0h1m1 0h1m1 0h1m2 0h3m2 0h1M2 16h1m1 0h1m1 0h1m1 0h1m1 0h1m1 0h1m1 0h1m1 0h1m1 0h1m8 0h1M1 17h1m1 0h1m1 0h1m1 0h1m1 0h1m1 0h1m1 0h1m1 0h1m1 0h1m3 0h3m3 0h1M2 18h1m1 0h1m1 0h1m1 0h1m1 0h1m1 0h1m1 0h1m1 0h1m3 0h4m3 0h1m-1 1h1m-9 1h4m4 0h1M9 21h14m4 0h1m-1 1h1M9 23h13m5 0h1M9 24h13m5 0h1m-1 1h1M9 26h11m7 0h1m-2 1h2m-18 1h17"/><path stroke="teal" d="M26 3h1m-2 1h1m-1 1h1m-2 1h1m-1 1h1m-2 1h1m-1 1h1m-2 1h1m-1 1h1m-2 1h1m-1 1h1m-2 1h1m-1 1h1m-2 1h1m-1 1h1m-2 1h1M1 19h18"/><path stroke="gray" d="M28 4h1m-1 1h1m-1 1h1m-1 1h1m-1 1h1m-1 1h1m-5 1h3m1 0h1m-1 1h1m-1 1h1m-6 1h4m1 0h1m-1 1h1m-1 1h1m-8 1h6m1 0h1m-1 1h1m-1 1h1m-9 1h7m1 0h1m-1 1h1m-1 1h1M9 22h18m1 0h1m-1 1h1m-1 1h1M9 25h18m1 0h1m-1 1h1m-1 1h1m-2 1h2m-18 1h17"/></svg>