<svg xmlns="http://www.w3.org/2000/svg" viewBox="0 -0.5 16 16" shape-rendering="crispEdges">
<path stroke="#000000" d="M0 0h1M5 1h9M4 2h2M13 2h1M3 3h1M5 3h1M13 3h1M2 4h4M13 4h1M2 5h1M13 5h1M2 6h1M13 6h1M2 7h1M13 7h1M2 8h1M13 8h1M2 9h1M13 9h1M2 10h1M13 10h1M2 11h1M13 11h1M2 12h1M13 12h1M2 13h1M13 13h1M2 14h12" />
<path stroke="#ffffff" d="M0 0h1M6 2h7M4 3h1M6 3h7M6 4h1M8 4h2M11 4h2M3 5h4M8 5h2M11 5h2M3 6h2M12 6h1M3 7h3M7 7h2M10 7h3M3 8h3M7 8h2M10 8h3M3 9h1M11 9h2M3 10h2M6 10h2M9 10h4M3 11h2M6 11h2M9 11h4M3 12h10M3 13h10" />
<path stroke="#000080" d="M0 0h1M7 4h1M10 4h1M7 5h1M10 5h1M5 6h7M6 7h1M9 7h1M6 8h1M9 8h1M4 9h7M5 10h1M8 10h1M5 11h1M8 11h1" />
</svg>