<svg xmlns="http://www.w3.org/2000/svg" width="16" height="16" shape-rendering="crispEdges" viewBox="0 -0.5 16 16"><path stroke="gray" d="M9 1h3M8 2h1m3 0h2M7 3h1M5 4h2M3 5h2m1 0h1M1 6h2M0 7h1m12 0h2M0 8h1m10 0h4M0 9h1m8 0h6M0 10h1m6 0h8M2 11h2m3 0h6m-9 1h2m1 0h4m-5 1h3"/><path stroke="#fff" d="M9 2h3M8 3h6M7 4h6M5 5h1m1 0h5M3 6h1m5 0h2M1 7h1M1 8h3M1 9h1m2 0h2m-5 1h1m4 0h1"/><path stroke="#000" d="M14 3h2m-3 1h1m-2 1h1m-2 1h1m1 0h2m-4 1h1m3 0h1m-1 1h1m-1 1h1m-1 1h1M0 11h2m11 0h2M2 12h2m7 0h2m-9 1h2m3 0h2m-5 1h3"/><path stroke="silver" d="M4 6h5m3 0h1M2 7h2m2 0h5m1 0h1M4 8h2m2 0h3M2 9h2m2 0h3m-7 1h4m-2 1h3m-1 1h1"/><path stroke="#0f0" d="M4 7h2"/><path stroke="red" d="M6 8h2"/></svg>