<svg xmlns="http://www.w3.org/2000/svg" width="32" height="32" shape-rendering="crispEdges" viewBox="0 -0.5 32 32"><path stroke="gray" d="M19 2h3m-4 1h1m3 0h2m-7 1h1m6 0h2M16 5h1m-3 1h2m-4 1h2m1 0h1m-6 1h2m2 0h1M8 9h2m3 0h2m-9 1h2m3 0h3m9 0h2M4 11h2m3 0h4m9 0h1m2 0h2M2 12h2m5 0h3m11 0h2m2 0h1M0 13h2m3 0h2m14 0h2m2 0h3M0 14h1m3 0h1m14 0h2m2 0h5m1 0h1M0 15h1m2 0h1m13 0h2m2 0h7m2 0h1M0 16h1m2 0h1m15 0h9m1 0h2M0 17h1m2 0h1m13 0h11m1 0h1M0 18h1m2 0h1m11 0h13M0 19h1m2 0h1m9 0h14M3 20h1m9 0h12M1 21h1m11 0h10m2 0h2M1 22h1m11 0h8m2 0h4m-14 1h6m2 0h4m-12 1h4m2 0h4m-10 1h2m2 0h4m-6 1h4m-6 1h4m-4 1h2"/><path stroke="#fff" d="M19 3h3m-4 1h1m2 0h3m-7 1h4m2 0h2m-9 1h1m2 0h5M14 7h1m1 0h3m2 0h2M12 8h1m2 0h1m2 0h4M10 9h1m4 0h3m2 0h2M8 10h1m5 0h7M6 11h1m7 0h7M4 12h1m11 0h4M2 13h1m15 0h2M2 14h2m-3 1h1m2 0h2m-5 1h1m4 0h2m-7 1h1m6 0h2m-9 1h1m8 0h1M1 19h1m10 0h1"/><path stroke="#00f" d="M19 4h2m0 1h2m-6 1h2m0 1h2m-5 1h2m0 1h2"/><path stroke="#000" d="M25 5h3m-4 1h1m-2 1h1m-2 1h1m-1 1h1m-2 1h1m-9 1h1m7 0h1M7 12h2m5 0h2m4 0h1m7 0h1M9 13h2m5 0h2m2 0h1m7 0h1m-18 1h2m5 0h1m9 0h1m-16 1h2m13 0h1m2 0h1m-17 1h2m11 0h1m2 0h1m-19 1h2m13 0h1m1 0h1m-20 1h2m15 0h2m-19 1h1m15 0h2M0 20h2m9 0h1m13 0h3M2 21h2m7 0h1m11 0h2m2 0h1M4 22h2m5 0h1m9 0h2m4 0h1M1 23h1m4 0h2m3 0h1m7 0h2m4 0h2M2 24h2m4 0h2m1 0h1m5 0h2m4 0h2M4 25h2m4 0h2m3 0h2m4 0h2M6 26h2m4 0h3m4 0h2M8 27h2m7 0h2m-9 1h2m3 0h2m-5 1h3"/><path stroke="silver" d="M13 8h1m-3 1h2m-4 1h2m11 0h1M7 11h2m14 0h2M5 12h2m5 0h2m7 0h2m2 0h2M3 13h2m2 0h2m2 0h5m7 0h2M1 14h1m3 0h2m2 0h2m2 0h5m3 0h2M2 15h1m3 0h3m2 0h2m2 0h2m2 0h2m8 0h1M2 16h1m1 0h2m2 0h7m2 0h2M2 17h1m1 0h4m2 0h3m2 0h2M2 18h1m1 0h6m3 0h2M2 19h1m1 0h7m-9 1h1m1 0h7m1 0h1m-9 1h7m1 0h1M2 22h2m2 0h5m1 0h1M2 23h4m2 0h3m1 0h1m-9 1h4m2 0h1m1 0h1m-7 1h4m2 0h1m-5 1h4m-2 1h3m-1 1h1"/><path stroke="#0f0" d="M7 14h2"/><path stroke="red" d="M9 15h2"/></svg>