<svg xmlns="http://www.w3.org/2000/svg" viewBox="0 -0.5 16 16" shape-rendering="crispEdges">
<path stroke="#808080" d="M0 0h1M9 1h3M8 2h1M12 2h2M7 3h1M5 4h2M3 5h2M6 5h1M1 6h2M0 7h1M13 7h2M0 8h1M11 8h4M0 9h1M9 9h6M0 10h1M7 10h8M2 11h2M7 11h6M4 12h2M7 12h4M6 13h3" />
<path stroke="#ffffff" d="M0 0h1M9 2h3M8 3h6M7 4h6M5 5h1M7 5h5M3 6h1M9 6h2M1 7h1M1 8h3M1 9h1M4 9h2M1 10h1M6 10h1" />
<path stroke="#000000" d="M0 0h1M14 3h2M13 4h1M12 5h1M11 6h1M13 6h2M11 7h1M15 7h1M15 8h1M15 9h1M15 10h1M0 11h2M13 11h2M2 12h2M11 12h2M4 13h2M9 13h2M6 14h3" />
<path stroke="#c0c0c0" d="M0 0h1M4 6h5M12 6h1M2 7h2M6 7h5M12 7h1M4 8h2M8 8h3M2 9h2M6 9h3M2 10h4M4 11h3M6 12h1" />
<path stroke="#00ff00" d="M0 0h1M4 7h2" />
<path stroke="#ff0000" d="M0 0h1M6 8h2" />
</svg>