<svg xmlns="http://www.w3.org/2000/svg" viewBox="0 -0.5 32 32" shape-rendering="crispEdges">
<path stroke="#ffffff" d="M0 0h1M3 0h1M5 0h2M8 0h2M11 0h2M14 0h3M19 0h2M22 0h2M27 0h2M3 1h1M5 1h1M7 1h1M9 1h1M11 1h1M13 1h1M15 1h2M18 1h1M20 1h1M22 1h1M24 1h5M3 2h1M5 2h1M7 2h1M9 2h1M11 2h1M15 2h2M18 2h1M20 2h1M22 2h1M24 2h2M28 2h1M3 3h2M6 3h3M10 3h1M12 3h3M16 3h1M18 3h2M22 3h1M24 3h3M28 3h1M3 4h2M6 4h3M10 4h1M12 4h3M16 4h1M18 4h3M22 4h2M27 4h2M3 5h26M3 6h2M6 6h2M9 6h2M12 6h2M15 6h2M18 6h2M21 6h2M24 6h2M27 6h2M3 7h1M6 7h1M9 7h1M12 7h1M15 7h1M18 7h1M21 7h1M24 7h1M27 7h2M4 8h1M13 8h1M27 8h2M3 9h2M2 10h2M13 10h1M2 11h2M13 11h1M2 12h2M13 12h1M18 12h1M2 13h2M13 13h1M17 13h1M2 14h2M13 14h1M16 14h1M2 16h22M2 17h1M2 18h1M2 19h1M2 20h1M2 21h1M2 22h1M2 23h1M2 24h1" />
<path stroke="#000000" d="M0 0h1M4 0h1M7 0h1M10 0h1M13 0h1M17 0h2M21 0h1M24 0h3M4 1h1M6 1h1M8 1h1M10 1h1M12 1h1M14 1h1M17 1h1M19 1h1M21 1h1M23 1h1M4 2h1M6 2h1M8 2h1M10 2h1M12 2h3M17 2h1M19 2h1M21 2h1M23 2h1M26 2h2M5 3h1M9 3h1M11 3h1M15 3h1M17 3h1M20 3h2M23 3h1M27 3h1M5 4h1M9 4h1M11 4h1M15 4h1M17 4h1M21 4h1M24 4h3M5 6h1M8 6h1M11 6h1M14 6h1M17 6h1M20 6h1M23 6h1M26 6h1M4 7h2M7 7h2M10 7h2M13 7h2M16 7h2M19 7h2M22 7h2M25 7h2M3 8h1M5 8h2M8 8h2M11 8h2M14 8h2M17 8h2M20 8h2M23 8h2M26 8h1M2 9h1M5 9h1M8 9h1M11 9h5M20 9h1M23 9h1M26 9h6M1 10h1M4 10h1M7 10h1M9 10h2M16 10h2M19 10h1M22 10h1M26 10h1M30 10h2M1 11h1M4 11h1M8 11h1M18 11h1M22 11h1M26 11h1M29 11h1M31 11h1M1 12h1M4 12h1M7 12h1M19 12h1M22 12h1M26 12h3M31 12h1M1 13h1M4 13h1M6 13h1M20 13h1M22 13h1M26 13h1M28 13h1M31 13h1M1 14h1M4 14h1M6 14h1M20 14h1M22 14h1M25 14h1M28 14h1M31 14h1M1 15h24M28 15h1M31 15h1M1 16h1M24 16h1M28 16h1M31 16h1M1 17h1M24 17h1M28 17h1M31 17h1M1 18h1M24 18h1M28 18h1M31 18h1M1 19h1M10 19h1M15 19h1M24 19h1M28 19h1M31 19h1M1 20h1M10 20h1M15 20h1M24 20h1M28 20h1M31 20h1M1 21h1M10 21h6M24 21h1M28 21h1M31 21h1M1 22h1M24 22h1M28 22h1M31 22h1M1 23h1M24 23h1M27 23h2M31 23h1M1 24h1M24 24h1M26 24h1M28 24h1M31 24h1M1 25h25M28 25h1M31 25h1M5 26h1M14 26h1M19 26h1M28 26h1M31 26h1M5 27h1M14 27h6M28 27h1M31 27h1M5 28h1M28 28h1M31 28h1M5 29h1M28 29h1M31 29h1M5 30h1M28 30h1M30 30h1M5 31h25" />
<path stroke="#00ff00" d="M0 0h1M7 8h1M6 9h2M5 10h2M5 11h2M5 12h1" />
<path stroke="#ff00ff" d="M0 0h1M10 8h1M19 8h1M18 9h2M8 12h1M7 13h3M9 14h2" />
<path stroke="#ffff00" d="M0 0h1M16 8h1M25 8h1M24 9h2M23 10h3M9 11h1M23 11h3M9 12h1M23 12h3M10 13h2M23 13h3M11 14h1M23 14h2M11 18h4" />
<path stroke="#ff0000" d="M0 0h1M22 8h1M21 9h2M20 10h2M20 11h2M21 12h1" />
<path stroke="#808080" d="M0 0h1M9 9h2M16 9h2M8 10h1M18 10h1M27 10h3M7 11h1M19 11h1M30 11h1M6 12h1M20 12h1M29 12h1M5 13h1M21 13h1M27 13h1M5 14h1M21 14h1M26 14h2M25 15h1M27 15h1M27 16h1M27 17h1M27 18h1M11 19h1M27 19h1M11 20h4M27 20h1M27 21h1M27 22h1M26 23h1M25 24h1M27 24h1M26 25h2M6 26h8M15 26h4M20 26h6M27 26h1M6 27h1M27 27h1M6 28h1M27 28h1M6 29h1M27 29h1M30 29h1M6 30h22M29 30h1" />
<path stroke="#c0c0c0" d="M0 0h1M11 10h2M14 10h2M10 11h3M14 11h2M17 11h1M27 11h2M10 12h3M14 12h2M17 12h1M30 12h1M12 13h1M14 13h1M16 13h1M18 13h2M29 13h2M7 14h2M12 14h1M14 14h1M17 14h3M29 14h2M26 15h1M29 15h2M25 16h2M29 16h2M3 17h21M25 17h2M29 17h2M3 18h8M15 18h9M25 18h2M29 18h2M3 19h7M12 19h3M16 19h8M25 19h2M29 19h2M3 20h7M16 20h8M25 20h2M29 20h2M3 21h7M16 21h8M25 21h2M29 21h2M3 22h21M25 22h2M29 22h2M3 23h21M25 23h1M29 23h2M3 24h21M29 24h2M29 25h2M26 26h1M29 26h2M7 27h7M20 27h7M29 27h2M7 28h20M29 28h2M7 29h20M29 29h1" />
<path stroke="#00ffff" d="M0 0h1M16 11h1M16 12h1M15 13h1M15 14h1" />
</svg>