<svg xmlns="http://www.w3.org/2000/svg" width="32" height="32" shape-rendering="crispEdges" viewBox="0 -0.5 32 32"><path stroke="#fff" d="M3 0h1m1 0h2m1 0h2m1 0h2m1 0h3m2 0h2m1 0h2m3 0h2M3 1h1m1 0h1m1 0h1m1 0h1m1 0h1m1 0h1m1 0h2m1 0h1m1 0h1m1 0h1m1 0h5M3 2h1m1 0h1m1 0h1m1 0h1m1 0h1m3 0h2m1 0h1m1 0h1m1 0h1m1 0h2m2 0h1M3 3h2m1 0h3m1 0h1m1 0h3m1 0h1m1 0h2m2 0h1m1 0h3m1 0h1M3 4h2m1 0h3m1 0h1m1 0h3m1 0h1m1 0h3m1 0h2m3 0h2M3 5h26M3 6h2m1 0h2m1 0h2m1 0h2m1 0h2m1 0h2m1 0h2m1 0h2m1 0h2M3 7h1m2 0h1m2 0h1m2 0h1m2 0h1m2 0h1m2 0h1m2 0h1m2 0h2M4 8h1m8 0h1m13 0h2M3 9h2m-3 1h2m9 0h1M2 11h2m9 0h1M2 12h2m9 0h1m4 0h1M2 13h2m9 0h1m3 0h1M2 14h2m9 0h1m2 0h1M2 16h22M2 17h1m-1 1h1m-1 1h1m-1 1h1m-1 1h1m-1 1h1m-1 1h1m-1 1h1"/><path stroke="#000" d="M4 0h1m2 0h1m2 0h1m2 0h1m3 0h2m2 0h1m2 0h3M4 1h1m1 0h1m1 0h1m1 0h1m1 0h1m1 0h1m2 0h1m1 0h1m1 0h1m1 0h1M4 2h1m1 0h1m1 0h1m1 0h1m1 0h3m2 0h1m1 0h1m1 0h1m1 0h1m2 0h2M5 3h1m3 0h1m1 0h1m3 0h1m1 0h1m2 0h2m1 0h1m3 0h1M5 4h1m3 0h1m1 0h1m3 0h1m1 0h1m3 0h1m2 0h3M5 6h1m2 0h1m2 0h1m2 0h1m2 0h1m2 0h1m2 0h1m2 0h1M4 7h2m1 0h2m1 0h2m1 0h2m1 0h2m1 0h2m1 0h2m1 0h2M3 8h1m1 0h2m1 0h2m1 0h2m1 0h2m1 0h2m1 0h2m1 0h2m1 0h1M2 9h1m2 0h1m2 0h1m2 0h5m4 0h1m2 0h1m2 0h6M1 10h1m2 0h1m2 0h1m1 0h2m5 0h2m1 0h1m2 0h1m3 0h1m3 0h2M1 11h1m2 0h1m3 0h1m9 0h1m3 0h1m3 0h1m2 0h1m1 0h1M1 12h1m2 0h1m2 0h1m11 0h1m2 0h1m3 0h3m2 0h1M1 13h1m2 0h1m1 0h1m13 0h1m1 0h1m3 0h1m1 0h1m2 0h1M1 14h1m2 0h1m1 0h1m13 0h1m1 0h1m2 0h1m2 0h1m2 0h1M1 15h24m3 0h1m2 0h1M1 16h1m22 0h1m3 0h1m2 0h1M1 17h1m22 0h1m3 0h1m2 0h1M1 18h1m22 0h1m3 0h1m2 0h1M1 19h1m8 0h1m4 0h1m8 0h1m3 0h1m2 0h1M1 20h1m8 0h1m4 0h1m8 0h1m3 0h1m2 0h1M1 21h1m8 0h6m8 0h1m3 0h1m2 0h1M1 22h1m22 0h1m3 0h1m2 0h1M1 23h1m22 0h1m2 0h2m2 0h1M1 24h1m22 0h1m1 0h1m1 0h1m2 0h1M1 25h25m2 0h1m2 0h1M5 26h1m8 0h1m4 0h1m8 0h1m2 0h1M5 27h1m8 0h6m8 0h1m2 0h1M5 28h1m22 0h1m2 0h1M5 29h1m22 0h1m2 0h1M5 30h1m22 0h1m1 0h1M5 31h25"/><path stroke="#0f0" d="M7 8h1M6 9h2m-3 1h2m-2 1h2m-2 1h1"/><path stroke="#f0f" d="M10 8h1m8 0h1m-2 1h2M8 12h1m-2 1h3m-1 1h2"/><path stroke="#ff0" d="M16 8h1m8 0h1m-2 1h2m-3 1h3M9 11h1m13 0h3M9 12h1m13 0h3m-16 1h2m11 0h3m-15 1h1m11 0h2m-14 4h4"/><path stroke="red" d="M22 8h1m-2 1h2m-3 1h2m-2 1h2m-1 1h1"/><path stroke="gray" d="M9 9h2m5 0h2M8 10h1m9 0h1m8 0h3M7 11h1m11 0h1m10 0h1M6 12h1m13 0h1m8 0h1M5 13h1m15 0h1m5 0h1M5 14h1m15 0h1m4 0h2m-3 1h1m1 0h1m-1 1h1m-1 1h1m-1 1h1m-17 1h1m15 0h1m-17 1h4m12 0h1m-1 1h1m-1 1h1m-2 1h1m-2 1h1m1 0h1m-2 1h2M6 26h8m1 0h4m1 0h6m1 0h1M6 27h1m20 0h1M6 28h1m20 0h1M6 29h1m20 0h1m2 0h1M6 30h22m1 0h1"/><path stroke="silver" d="M11 10h2m1 0h2m-6 1h3m1 0h2m1 0h1m9 0h2m-19 1h3m1 0h2m1 0h1m12 0h1m-19 1h1m1 0h1m1 0h1m1 0h2m9 0h2M7 14h2m3 0h1m1 0h1m2 0h3m9 0h2m-5 1h1m2 0h2m-6 1h2m2 0h2M3 17h21m1 0h2m2 0h2M3 18h8m4 0h9m1 0h2m2 0h2M3 19h7m2 0h3m1 0h8m1 0h2m2 0h2M3 20h7m6 0h8m1 0h2m2 0h2M3 21h7m6 0h8m1 0h2m2 0h2M3 22h21m1 0h2m2 0h2M3 23h21m1 0h1m3 0h2M3 24h21m5 0h2m-2 1h2m-5 1h1m2 0h2M7 27h7m6 0h7m2 0h2M7 28h20m2 0h2M7 29h20m2 0h1"/><path stroke="#0ff" d="M16 11h1m-1 1h1m-2 1h1m-1 1h1"/></svg>