<svg xmlns="http://www.w3.org/2000/svg" width="32" height="32" shape-rendering="crispEdges" viewBox="0 -0.5 32 32"><path stroke="#ff0" d="M0 0h1m1 0h1m1 0h1m1 0h1m1 0h1m1 0h1m1 0h1m1 0h1m1 0h1m1 0h1m1 0h1m1 0h1m1 0h1m1 0h1m1 0h1m1 0h1M1 1h1m1 0h1m1 0h1m3 0h1m1 0h1m3 0h1m3 0h1m3 0h1m3 0h1m1 0h1m1 0h1M0 2h1m1 0h1m13 0h1m1 0h1m1 0h1m1 0h1m1 0h1m1 0h1m1 0h1m1 0h1M1 3h1m1 0h1m1 0h1m1 0h1m1 0h1m1 0h1m3 0h1m9 0h1m3 0h1m1 0h1"/><path stroke="#fff" d="M1 0h1m1 0h1m1 0h1m1 0h1m1 0h1m1 0h1m1 0h1m1 0h1m1 0h1m1 0h1m1 0h1m1 0h1m1 0h1m1 0h1m1 0h1m1 0h1M0 1h1m1 0h1m3 0h1m1 0h1m3 0h1m1 0h1m1 0h1m3 0h1m1 0h1m5 0h1m1 0h1M18 7h1m1 0h1m-2 1h1m1 0h1m1 0h1M14 9h1m1 0h1m1 0h1m3 0h1m1 0h1m-12 1h1m1 0h1m1 0h1m1 0h1m5 0h1m1 0h1m-18 1h1m1 0h1m1 0h1m1 0h1m1 0h1m1 0h1m1 0h1m3 0h1m1 0h1M9 12h1m1 0h1m1 0h1m1 0h1m1 0h1m1 0h1m1 0h1m1 0h1m3 0h1M6 13h1m1 0h1m1 0h1m1 0h1m1 0h1m1 0h1m1 0h1m1 0h1m1 0h1m1 0h1m1 0h1M5 14h1m1 0h1m1 0h1m1 0h1m1 0h1m1 0h1m1 0h1m1 0h1m1 0h1m1 0h1m1 0h1M6 15h1m1 0h1m1 0h1m1 0h1m1 0h1m1 0h1m1 0h1m1 0h1m1 0h1M1 16h1m1 0h1m5 0h1m1 0h1m1 0h1m1 0h1m1 0h1m1 0h1m1 0h1M2 17h1m1 0h1m5 0h1m1 0h1m1 0h1m1 0h1m1 0h1m1 0h1M3 18h1m1 0h1m5 0h1m1 0h1m1 0h1m1 0h1m1 0h1M6 19h1m1 0h1m5 0h1m1 0h1M7 20h1m1 0h1m1 0h1m3 0h1m-6 1h1m1 0h1m-2 1h1m1 0h1"/><path stroke="#000" d="M4 1h1m2 0h1m2 0h1m2 0h1m3 0h2m2 0h1m2 0h3M4 2h1m1 0h1m1 0h1m1 0h1m1 0h1m1 0h1m2 0h1m1 0h1m1 0h1m1 0h1M4 3h1m1 0h1m1 0h1m1 0h1m1 0h3m2 0h1m1 0h1m1 0h1m1 0h1m2 0h2M5 4h1m3 0h1m1 0h1m3 0h1m1 0h1m2 0h2m1 0h1m3 0h1M5 5h1m3 0h1m1 0h1m3 0h1m1 0h1m3 0h1m2 0h3m-9 1h4m-6 1h2m4 0h2M14 8h2m8 0h2M12 9h2m12 0h2m-18 1h2m16 0h2M8 11h2m19 0h1M6 12h2m20 0h3M4 13h2m21 0h2m1 0h1M3 14h1m22 0h1m3 0h1M1 15h2m2 0h1m18 0h2m3 0h1M0 16h1m3 0h3m16 0h1m5 0h1M0 17h1m4 0h4m12 0h2m4 0h1m1 0h3M0 18h3m4 0h1m12 0h1m5 0h1m1 0h1M2 19h3m13 0h2m7 0h1M2 20h1m2 0h2m10 0h1m7 0h2M3 21h2m2 0h2m6 0h2m7 0h1M5 22h1m3 0h2m3 0h1m7 0h2M6 23h2m3 0h2m1 0h1m5 0h2M8 24h2m3 0h3m3 0h1m-10 1h2m4 0h1m1 0h1m-7 1h2m2 0h2m-4 1h2"/><path stroke="#0f0" d="M1 2h1m1 0h1m1 0h1m1 0h1m1 0h1m1 0h1m1 0h1m1 0h1m9 0h1m1 0h1m1 0h1m1 0h1M0 3h1m1 0h1m13 0h1m1 0h1m1 0h1m1 0h1m1 0h1m3 0h1m1 0h1M1 4h1m1 0h1m3 0h1m5 0h1m5 0h1m5 0h1m3 0h1m1 0h1M0 5h1m1 0h1m1 0h1m1 0h1m1 0h1m1 0h1m1 0h1m1 0h1m1 0h1m1 0h1m1 0h1m1 0h1m5 0h1m1 0h1M1 6h1m1 0h1m1 0h1m1 0h1m1 0h1m1 0h1m1 0h1m1 0h1m1 0h1m5 0h1m1 0h1m1 0h1m1 0h1m1 0h1"/><path stroke="#0ff" d="M0 4h1m1 0h1m1 0h1m1 0h1m1 0h1m1 0h1m1 0h1m1 0h1m1 0h1m1 0h1m3 0h1m1 0h1m1 0h1m1 0h1m1 0h1M1 5h1m1 0h1m3 0h1m5 0h1m5 0h1m3 0h1m3 0h1m1 0h1m1 0h1M0 6h1m1 0h1m1 0h1m1 0h1m1 0h1m1 0h1m1 0h1m1 0h1m1 0h1m5 0h1m1 0h1m1 0h1m1 0h1m1 0h1M1 7h1m1 0h1m1 0h1m1 0h1m1 0h1m1 0h1m1 0h1m1 0h1m9 0h1m1 0h1m1 0h1m1 0h1M0 8h1m1 0h1m1 0h1m1 0h1m1 0h1m1 0h1m1 0h1m13 0h1m1 0h1m1 0h1M1 9h1m1 0h1m1 0h1m1 0h1m1 0h1m1 0h1m17 0h1m1 0h1"/><path stroke="#00f" d="M0 7h1m1 0h1m1 0h1m1 0h1m1 0h1m1 0h1m1 0h1m1 0h1m9 0h1m1 0h1m1 0h1m1 0h1M1 8h1m1 0h1m1 0h1m1 0h1m1 0h1m1 0h1m1 0h1m13 0h1m1 0h1m1 0h1M0 9h1m1 0h1m1 0h1m1 0h1m1 0h1m1 0h1m17 0h1m1 0h1M1 10h1m1 0h1m1 0h1m1 0h1m1 0h1m21 0h1M0 11h1m1 0h1m1 0h1m1 0h1m23 0h1m-21 9h1m-2 1h1m1 0h1m1 0h1m-2 1h1m0 1h1"/><path stroke="silver" d="M19 7h1m1 0h1m-6 1h1m3 0h1m1 0h1m-8 1h1m1 0h1m3 0h1m1 0h1m1 0h1m-14 1h1m1 0h1m1 0h1m1 0h1m1 0h1m3 0h1m1 0h1m-16 1h1m1 0h1m1 0h1m1 0h1m1 0h1m1 0h1m1 0h1m3 0h1M8 12h1m1 0h1m1 0h1m1 0h1m1 0h1m1 0h1m1 0h1m1 0h1m1 0h1M7 13h1m1 0h1m1 0h1m1 0h1m1 0h1m1 0h1m1 0h1m1 0h1m1 0h1m1 0h1m3 0h1M6 14h1m1 0h1m1 0h1m1 0h1m1 0h1m1 0h1m1 0h1m1 0h1m1 0h1m1 0h1m2 0h2M7 15h1m1 0h1m1 0h1m1 0h1m1 0h1m1 0h1m1 0h1m1 0h1m1 0h1m2 0h2M2 16h1m5 0h1m1 0h1m1 0h1m1 0h1m1 0h1m1 0h1m1 0h1m1 0h1m1 0h2m2 0h1M1 17h1m1 0h1m5 0h1m1 0h1m1 0h1m1 0h1m1 0h1m1 0h1m3 0h2m1 0h1m1 0h1M4 18h1m1 0h1m5 0h1m1 0h1m1 0h1m1 0h1m2 0h3m1 0h1m1 0h1M5 19h1m1 0h1m5 0h1m1 0h1m1 0h1m2 0h2m2 0h1m1 0h1M8 20h1m7 0h1m1 0h3m1 0h3m-8 1h2m2 0h3m-9 1h3m1 0h3m-7 1h2m1 0h2m-3 1h2m-2 1h1"/><path stroke="gray" d="M17 8h2m0 1h2m0 1h3m0 1h2m-1 1h2M4 14h1m24 0h1M3 15h2m23 0h1M7 16h1m18 0h2m-3 1h1M8 18h3m13 0h1m4 0h1M9 19h2m11 0h2m1 0h1m2 0h2M3 20h2m7 0h1m1 0h1m6 0h1m5 0h2M1 21h2m2 0h2m7 0h1m4 0h2m4 0h3M0 22h5m1 0h3m9 0h1m5 0h2M0 23h6m2 0h3m6 0h1m4 0h3M1 24h7m2 0h3m3 0h1m3 0h3M3 25h7m2 0h4m3 0h3M5 26h7m2 0h2m2 0h2M7 27h7m2 0h3M9 28h8m-6 1h5m-3 1h1"/><path stroke="#f0f" d="M0 10h1m1 0h1m1 0h1m1 0h1m1 0h1m21 0h1M1 11h1m1 0h1m1 0h1m1 0h1m23 0h1M0 12h1m1 0h1m1 0h1m-4 1h1m1 0h1m27 0h1M0 14h1m1 0h1m28 1h1m-2 1h1"/><path stroke="red" d="M1 12h1m1 0h1m1 0h1m25 0h1M0 13h1m1 0h1m-2 1h1m29 0h1M0 15h1m29 0h1m0 1h1m-21 3h2"/><path stroke="navy" d="M13 20h1"/></svg>