<svg xmlns="http://www.w3.org/2000/svg" viewBox="0 -0.5 32 32" shape-rendering="crispEdges">
<path stroke="#ffff00" d="M0 0h1M0 0h1M2 0h1M4 0h1M6 0h1M8 0h1M10 0h1M12 0h1M14 0h1M16 0h1M18 0h1M20 0h1M22 0h1M24 0h1M26 0h1M28 0h1M30 0h1M1 1h1M3 1h1M5 1h1M9 1h1M11 1h1M15 1h1M19 1h1M23 1h1M27 1h1M29 1h1M31 1h1M0 2h1M2 2h1M16 2h1M18 2h1M20 2h1M22 2h1M24 2h1M26 2h1M28 2h1M30 2h1M1 3h1M3 3h1M5 3h1M7 3h1M9 3h1M11 3h1M15 3h1M25 3h1M29 3h1M31 3h1" />
<path stroke="#ffffff" d="M0 0h2M3 0h1M5 0h1M7 0h1M9 0h1M11 0h1M13 0h1M15 0h1M17 0h1M19 0h1M21 0h1M23 0h1M25 0h1M27 0h1M29 0h1M31 0h1M0 1h1M2 1h1M6 1h1M8 1h1M12 1h1M14 1h1M16 1h1M20 1h1M22 1h1M28 1h1M30 1h1M18 7h1M20 7h1M19 8h1M21 8h1M23 8h1M14 9h1M16 9h1M18 9h1M22 9h1M24 9h1M13 10h1M15 10h1M17 10h1M19 10h1M25 10h1M27 10h1M10 11h1M12 11h1M14 11h1M16 11h1M18 11h1M20 11h1M22 11h1M26 11h1M28 11h1M9 12h1M11 12h1M13 12h1M15 12h1M17 12h1M19 12h1M21 12h1M23 12h1M27 12h1M6 13h1M8 13h1M10 13h1M12 13h1M14 13h1M16 13h1M18 13h1M20 13h1M22 13h1M24 13h1M26 13h1M5 14h1M7 14h1M9 14h1M11 14h1M13 14h1M15 14h1M17 14h1M19 14h1M21 14h1M23 14h1M25 14h1M6 15h1M8 15h1M10 15h1M12 15h1M14 15h1M16 15h1M18 15h1M20 15h1M22 15h1M1 16h1M3 16h1M9 16h1M11 16h1M13 16h1M15 16h1M17 16h1M19 16h1M21 16h1M2 17h1M4 17h1M10 17h1M12 17h1M14 17h1M16 17h1M18 17h1M20 17h1M3 18h1M5 18h1M11 18h1M13 18h1M15 18h1M17 18h1M19 18h1M6 19h1M8 19h1M14 19h1M16 19h1M7 20h1M9 20h1M11 20h1M15 20h1M10 21h1M12 21h1M11 22h1M13 22h1" />
<path stroke="#000000" d="M0 0h1M4 1h1M7 1h1M10 1h1M13 1h1M17 1h2M21 1h1M24 1h3M4 2h1M6 2h1M8 2h1M10 2h1M12 2h1M14 2h1M17 2h1M19 2h1M21 2h1M23 2h1M4 3h1M6 3h1M8 3h1M10 3h1M12 3h3M17 3h1M19 3h1M21 3h1M23 3h1M26 3h2M5 4h1M9 4h1M11 4h1M15 4h1M17 4h1M20 4h2M23 4h1M27 4h1M5 5h1M9 5h1M11 5h1M15 5h1M17 5h1M21 5h1M24 5h3M18 6h4M16 7h2M22 7h2M14 8h2M24 8h2M12 9h2M26 9h2M10 10h2M28 10h2M8 11h2M29 11h1M6 12h2M28 12h3M4 13h2M27 13h2M30 13h1M3 14h1M26 14h1M30 14h1M1 15h2M5 15h1M24 15h2M29 15h1M0 16h1M4 16h3M23 16h1M29 16h1M0 17h1M5 17h4M21 17h2M27 17h1M29 17h3M0 18h3M7 18h1M20 18h1M26 18h1M28 18h1M2 19h3M18 19h2M27 19h1M2 20h1M5 20h2M17 20h1M25 20h2M3 21h2M7 21h2M15 21h2M24 21h1M5 22h1M9 22h2M14 22h1M22 22h2M6 23h2M11 23h2M14 23h1M20 23h2M8 24h2M13 24h3M19 24h1M10 25h2M16 25h1M18 25h1M12 26h2M16 26h2M14 27h2" />
<path stroke="#00ff00" d="M0 0h1M1 2h1M3 2h1M5 2h1M7 2h1M9 2h1M11 2h1M13 2h1M15 2h1M25 2h1M27 2h1M29 2h1M31 2h1M0 3h1M2 3h1M16 3h1M18 3h1M20 3h1M22 3h1M24 3h1M28 3h1M30 3h1M1 4h1M3 4h1M7 4h1M13 4h1M19 4h1M25 4h1M29 4h1M31 4h1M0 5h1M2 5h1M4 5h1M6 5h1M8 5h1M10 5h1M12 5h1M14 5h1M16 5h1M18 5h1M20 5h1M22 5h1M28 5h1M30 5h1M1 6h1M3 6h1M5 6h1M7 6h1M9 6h1M11 6h1M13 6h1M15 6h1M17 6h1M23 6h1M25 6h1M27 6h1M29 6h1M31 6h1" />
<path stroke="#00ffff" d="M0 0h1M0 4h1M2 4h1M4 4h1M6 4h1M8 4h1M10 4h1M12 4h1M14 4h1M16 4h1M18 4h1M22 4h1M24 4h1M26 4h1M28 4h1M30 4h1M1 5h1M3 5h1M7 5h1M13 5h1M19 5h1M23 5h1M27 5h1M29 5h1M31 5h1M0 6h1M2 6h1M4 6h1M6 6h1M8 6h1M10 6h1M12 6h1M14 6h1M16 6h1M22 6h1M24 6h1M26 6h1M28 6h1M30 6h1M1 7h1M3 7h1M5 7h1M7 7h1M9 7h1M11 7h1M13 7h1M15 7h1M25 7h1M27 7h1M29 7h1M31 7h1M0 8h1M2 8h1M4 8h1M6 8h1M8 8h1M10 8h1M12 8h1M26 8h1M28 8h1M30 8h1M1 9h1M3 9h1M5 9h1M7 9h1M9 9h1M11 9h1M29 9h1M31 9h1" />
<path stroke="#0000ff" d="M0 0h1M0 7h1M2 7h1M4 7h1M6 7h1M8 7h1M10 7h1M12 7h1M14 7h1M24 7h1M26 7h1M28 7h1M30 7h1M1 8h1M3 8h1M5 8h1M7 8h1M9 8h1M11 8h1M13 8h1M27 8h1M29 8h1M31 8h1M0 9h1M2 9h1M4 9h1M6 9h1M8 9h1M10 9h1M28 9h1M30 9h1M1 10h1M3 10h1M5 10h1M7 10h1M9 10h1M31 10h1M0 11h1M2 11h1M4 11h1M6 11h1M30 11h1M10 20h1M9 21h1M11 21h1M13 21h1M12 22h1M13 23h1" />
<path stroke="#c0c0c0" d="M0 0h1M19 7h1M21 7h1M16 8h1M20 8h1M22 8h1M15 9h1M17 9h1M21 9h1M23 9h1M25 9h1M12 10h1M14 10h1M16 10h1M18 10h1M20 10h1M24 10h1M26 10h1M11 11h1M13 11h1M15 11h1M17 11h1M19 11h1M21 11h1M23 11h1M27 11h1M8 12h1M10 12h1M12 12h1M14 12h1M16 12h1M18 12h1M20 12h1M22 12h1M24 12h1M7 13h1M9 13h1M11 13h1M13 13h1M15 13h1M17 13h1M19 13h1M21 13h1M23 13h1M25 13h1M29 13h1M6 14h1M8 14h1M10 14h1M12 14h1M14 14h1M16 14h1M18 14h1M20 14h1M22 14h1M24 14h1M27 14h2M7 15h1M9 15h1M11 15h1M13 15h1M15 15h1M17 15h1M19 15h1M21 15h1M23 15h1M26 15h2M2 16h1M8 16h1M10 16h1M12 16h1M14 16h1M16 16h1M18 16h1M20 16h1M22 16h1M24 16h2M28 16h1M1 17h1M3 17h1M9 17h1M11 17h1M13 17h1M15 17h1M17 17h1M19 17h1M23 17h2M26 17h1M28 17h1M4 18h1M6 18h1M12 18h1M14 18h1M16 18h1M18 18h1M21 18h3M25 18h1M27 18h1M5 19h1M7 19h1M13 19h1M15 19h1M17 19h1M20 19h2M24 19h1M26 19h1M8 20h1M16 20h1M18 20h3M22 20h3M17 21h2M21 21h3M15 22h3M19 22h3M15 23h2M18 23h2M17 24h2M17 25h1" />
<path stroke="#808080" d="M0 0h1M17 8h2M19 9h2M21 10h3M24 11h2M25 12h2M4 14h1M29 14h1M3 15h2M28 15h1M7 16h1M26 16h2M25 17h1M8 18h3M24 18h1M29 18h1M9 19h2M22 19h2M25 19h1M28 19h2M3 20h2M12 20h1M14 20h1M21 20h1M27 20h2M1 21h2M5 21h2M14 21h1M19 21h2M25 21h3M0 22h5M6 22h3M18 22h1M24 22h2M0 23h6M8 23h3M17 23h1M22 23h3M1 24h7M10 24h3M16 24h1M20 24h3M3 25h7M12 25h4M19 25h3M5 26h7M14 26h2M18 26h2M7 27h7M16 27h3M9 28h8M11 29h5M13 30h1" />
<path stroke="#ff00ff" d="M0 0h1M0 10h1M2 10h1M4 10h1M6 10h1M8 10h1M30 10h1M1 11h1M3 11h1M5 11h1M7 11h1M31 11h1M0 12h1M2 12h1M4 12h1M1 13h1M3 13h1M31 13h1M0 14h1M2 14h1M31 15h1M30 16h1" />
<path stroke="#ff0000" d="M0 0h1M1 12h1M3 12h1M5 12h1M31 12h1M0 13h1M2 13h1M1 14h1M31 14h1M0 15h1M30 15h1M31 16h1M11 19h2" />
<path stroke="#000080" d="M0 0h1M13 20h1" />
</svg>