<svg xmlns="http://www.w3.org/2000/svg" viewBox="0 -0.5 32 32" shape-rendering="crispEdges">
<path stroke="#000000" d="M0 0h1M22 0h1M15 1h2M21 1h1M14 2h1M17 2h1M20 2h1M14 3h2M18 3h2M22 3h1M14 4h1M16 4h1M19 4h1M21 4h1M13 5h1M17 5h1M20 5h1M15 6h1M18 6h1M21 6h1M9 7h4M16 7h4M22 7h1M9 8h1M19 8h2M22 8h1M10 9h1M18 9h1M21 9h1M11 10h1M14 10h1M17 10h1M11 11h1M13 11h1M15 11h1M17 11h1M11 12h2M16 12h2M11 13h1M17 13h1" />
<path stroke="#800000" d="M0 0h1M22 1h1M21 2h2M20 3h2M20 4h1" />
<path stroke="#808080" d="M0 0h1M15 2h2M16 3h2M17 4h2M18 5h2M19 6h2M20 7h2M21 8h1" />
<path stroke="#ffff00" d="M0 0h1M14 5h1M14 6h1M13 7h3M10 8h9M11 9h7M12 10h2M15 10h2M12 11h1M16 11h1" />
<path stroke="#808000" d="M0 0h1M15 5h1M13 6h1" />
</svg>