<svg xmlns="http://www.w3.org/2000/svg" viewBox="0 -0.5 32 32" shape-rendering="crispEdges">
<path stroke="#000000" d="M0 0h1M22 0h1M15 1h2M21 1h1M14 2h1M17 2h1M20 2h1M15 3h1M18 3h2M22 3h1M16 4h1M19 4h1M21 4h1M17 5h1M20 5h1M18 6h1M21 6h1M19 7h1M22 7h1M20 8h1M22 8h1M21 9h1" />
<path stroke="#800000" d="M0 0h1M22 1h1M21 2h2M20 3h2M20 4h1" />
<path stroke="#808080" d="M0 0h1M15 2h2M16 3h2M17 4h2M18 5h2M19 6h2M20 7h2M21 8h1" />
<path stroke="#000080" d="M0 0h1M14 4h1M13 5h3M13 6h1M15 6h1M12 7h2M15 7h2M12 8h1M16 8h1M11 9h7M11 10h1M17 10h1M11 11h1M17 11h1M10 12h3M16 12h3" />
</svg>