<svg xmlns="http://www.w3.org/2000/svg" viewBox="0 -0.5 32 32" shape-rendering="crispEdges">
<path stroke="#000000" d="M0 0h1M5 0h17M5 1h1M21 1h2M5 2h1M21 2h1M23 2h1M5 3h1M21 3h1M24 3h1M5 4h1M21 4h1M25 4h1M5 5h1M21 5h1M26 5h1M5 6h1M21 6h1M27 6h1M5 7h1M21 7h8M5 8h1M28 8h1M5 9h1M28 9h1M5 10h1M28 10h1M5 11h1M28 11h1M5 12h1M28 12h1M5 13h1M28 13h1M5 14h1M28 14h1M5 15h1M28 15h1M5 16h1M28 16h1M5 17h1M28 17h1M5 18h1M28 18h1M5 19h1M28 19h1M5 20h1M28 20h1M5 21h1M28 21h1M5 22h1M28 22h1M5 23h1M28 23h1M5 24h1M28 24h1M5 25h1M28 25h1M5 26h1M28 26h1M5 27h1M28 27h1M5 28h1M28 28h1M5 29h24" />
<path stroke="#ffffff" d="M0 0h1M6 1h15M6 2h15M6 3h15M22 3h1M6 4h15M22 4h2M6 5h15M22 5h3M6 6h15M22 6h4M6 7h15M6 8h22M6 9h22M6 10h22M6 11h22M6 12h22M6 13h22M6 14h22M6 15h22M6 16h22M6 17h22M6 18h22M6 19h22M6 20h22M6 21h22M6 22h22M6 23h22M6 24h22M6 25h22M6 26h22M6 27h22M6 28h22" />
<path stroke="#808080" d="M0 0h1M22 2h1M23 3h1M24 4h1M25 5h1M26 6h1M29 8h1M29 9h1M29 10h1M29 11h1M29 12h1M29 13h1M29 14h1M29 15h1M29 16h1M29 17h1M29 18h1M29 19h1M29 20h1M29 21h1M29 22h1M29 23h1M29 24h1M29 25h1M29 26h1M29 27h1M29 28h1M29 29h1M6 30h24" />
</svg>