<svg xmlns="http://www.w3.org/2000/svg" viewBox="0 -0.5 16 16" shape-rendering="crispEdges">
<path stroke="#000000" d="M0 0h1M9 0h3M8 1h1M12 1h1M14 1h1M13 2h2M1 3h3M12 3h3M0 4h1M4 4h7M0 5h1M10 5h1M0 6h1M10 6h1M0 7h1M5 7h10M0 8h1M4 8h1M14 8h1M0 9h1M3 9h1M13 9h1M0 10h1M2 10h1M12 10h1M0 11h2M11 11h1M0 12h11" />
<path stroke="#ffffff" d="M0 0h1M1 4h1M3 4h1M2 5h1M4 5h1M6 5h1M8 5h1M1 6h1M3 6h1M5 6h1M7 6h1M9 6h1M2 7h1M4 7h1M1 8h1M3 8h1M2 9h1M1 10h1" />
<path stroke="#ffff00" d="M0 0h1M2 4h1M1 5h1M3 5h1M5 5h1M7 5h1M9 5h1M2 6h1M4 6h1M6 6h1M8 6h1M1 7h1M3 7h1M2 8h1M1 9h1" />
<path stroke="#808000" d="M0 0h1M5 8h9M4 9h9M3 10h9M2 11h9" />
</svg>