<svg xmlns="http://www.w3.org/2000/svg" viewBox="0 -0.5 16 16" shape-rendering="crispEdges">
<path stroke="#800000" d="M0 0h1M2 1h6M2 2h1M6 2h2M5 3h2M4 4h2M3 5h2M2 6h2M7 6h1M2 7h6" />
<path stroke="#000000" d="M0 0h1M13 1h1M13 2h1M13 3h1M13 4h1M13 5h1M13 6h1M13 7h1M13 8h1M13 9h1M13 10h1M11 11h5M12 12h3M12 13h3M13 14h1M13 15h1" />
<path stroke="#000080" d="M0 0h1M5 9h1M5 10h1M4 11h3M4 12h1M6 12h1M3 13h5M3 14h1M7 14h1M2 15h3M6 15h3" />
<path stroke="#808080" d="M0 0h1M4 10h1M6 10h1M3 12h1M7 12h1M11 12h1M15 12h1M2 14h1M8 14h1M12 14h1M14 14h1" />
</svg>