<svg xmlns="http://www.w3.org/2000/svg" viewBox="0 -0.5 16 16" shape-rendering="crispEdges">
<path stroke="#000080" d="M0 0h1M5 1h1M5 2h1M4 3h3M4 4h1M6 4h1M3 5h5M3 6h1M7 6h1M2 7h3M6 7h3" />
<path stroke="#000000" d="M0 0h1M13 1h1M13 2h1M13 3h1M13 4h1M13 5h1M13 6h1M13 7h1M13 8h1M13 9h1M13 10h1M11 11h5M12 12h3M12 13h3M13 14h1M13 15h1" />
<path stroke="#808080" d="M0 0h1M4 2h1M6 2h1M3 4h1M7 4h1M2 6h1M8 6h1M11 12h1M15 12h1M12 14h1M14 14h1" />
<path stroke="#800000" d="M0 0h1M2 9h6M2 10h1M6 10h2M5 11h2M4 12h2M3 13h2M2 14h2M7 14h1M2 15h6" />
</svg>