<svg xmlns="http://www.w3.org/2000/svg" width="32" height="32" shape-rendering="crispEdges" viewBox="0 -0.5 32 32"><path stroke="#000" d="M10 0h8M6 1h6m5 0h1m2 0h1M4 2h2m4 0h1m1 0h1m3 0h2m2 0h1M3 3h1m4 0h3m2 0h1m1 0h1m1 0h1m2 0h2M3 4h2m4 0h3m2 0h1m1 0h14M3 5h1m1 0h2m3 0h3m1 0h1m1 0h1m3 0h1m2 0h1m6 0h1M3 6h1m3 0h5m1 0h3m4 0h1m2 0h1m6 0h1M4 7h2m5 0h1m8 0h1m2 0h1m6 0h1M6 8h25M11 9h1m6 0h3m1 0h1m6 0h1M5 10h2m4 0h1m5 0h1m2 0h1m4 0h2m2 0h1M4 11h1m2 0h7m3 0h1m2 0h1m3 0h2m1 0h2M3 12h1m4 0h1m4 0h2m3 0h2m3 0h2m1 0h3M2 13h1m5 0h1m4 0h1m1 0h1m6 0h2m1 0h1m1 0h1M1 14h1m6 0h1m1 0h2m1 0h10m1 0h1m1 0h2M1 15h1m5 0h2m7 0h1m5 0h2m1 0h3M2 16h1m3 0h1m1 0h1m1 0h5m1 0h1m5 0h1m1 0h2m1 0h1M3 17h1m1 0h1m2 0h1m7 0h1m5 0h3m1 0h2M4 18h20m1 0h1m1 0h1M4 19h1m17 0h1m1 0h1m1 0h2M4 20h1m17 0h2m1 0h1m1 0h1M4 21h1m17 0h1m1 0h1m1 0h2M4 22h1m17 0h2m1 0h1m1 0h1M4 23h1m17 0h1m1 0h1m1 0h2M4 24h1m17 0h2m1 0h1m1 0h1M4 25h1m17 0h1m1 0h1m1 0h2M4 26h1m17 0h2m1 0h1m1 0h1M4 27h1m17 0h1m1 0h1m1 0h1M4 28h1m17 0h2m1 0h1M4 29h1m17 0h1m1 0h1M4 30h1m17 0h2M4 31h19"/><path stroke="#fff" d="M12 1h5M6 2h4m1 0h1m1 0h3M4 3h4m3 0h2m1 0h1m1 0h1M5 4h4m3 0h2m1 0h1M4 5h1m2 0h3m3 0h1m1 0h1m1 0h3m1 0h2m1 0h6M4 6h3m5 0h1m3 0h4m1 0h2m1 0h6M6 7h5m1 0h8m1 0h2m1 0h6M12 9h6m3 0h1m1 0h6m-17 1h5m1 0h2m1 0h4m2 0h2M5 11h2m7 0h3m1 0h2m1 0h3m2 0h1M4 12h4m1 0h4m2 0h3m2 0h3m2 0h1M3 13h5m1 0h4m1 0h1m1 0h6m2 0h1m1 0h1M2 14h6m1 0h1m2 0h1m10 0h1m1 0h1M2 15h5m2 0h7m1 0h5m2 0h1M3 16h3m1 0h1m1 0h1m5 0h1m1 0h5m1 0h1m2 0h1M4 17h1m1 0h2m1 0h7m1 0h5m3 0h1m-2 1h1m1 0h1M5 19h17m1 0h1m1 0h1M5 20h17m2 0h1m1 0h1M5 21h17m1 0h1m1 0h1M5 22h17m2 0h1m1 0h1M5 23h17m1 0h1m1 0h1M5 24h17m2 0h1m1 0h1M5 25h17m1 0h1m1 0h1M5 26h17m2 0h1m1 0h1M5 27h17m1 0h1m1 0h1M5 28h17m2 0h1M5 29h17m1 0h1M5 30h17"/></svg>