<svg xmlns="http://www.w3.org/2000/svg" viewBox="0 -0.5 32 32" shape-rendering="crispEdges">
<path stroke="#000000" d="M0 0h1M10 0h8M6 1h5M17 1h1M20 1h1M4 2h2M10 2h1M17 2h1M20 2h1M3 3h1M8 3h3M17 3h1M20 3h2M3 4h1M9 4h3M14 4h1M16 4h1M20 4h1M22 4h1M3 5h1M10 5h1M12 5h1M14 5h1M16 5h1M20 5h1M23 5h1M30 5h1M3 6h1M11 6h1M13 6h3M20 6h1M23 6h1M30 6h1M4 7h2M11 7h1M20 7h1M23 7h1M30 7h1M6 8h6M20 8h1M23 8h1M30 8h1M18 9h3M22 9h1M29 9h1M5 10h2M17 10h1M20 10h1M25 10h2M29 10h1M4 11h1M7 11h7M17 11h1M20 11h1M24 11h1M27 11h2M3 12h1M8 12h1M13 12h2M18 12h2M23 12h1M27 12h2M2 13h1M8 13h1M13 13h1M15 13h1M22 13h1M27 13h1M1 14h1M8 14h1M13 14h4M22 14h1M26 14h2M1 15h1M8 15h1M16 15h1M22 15h1M25 15h1M27 15h1M2 16h1M8 16h1M16 16h1M22 16h1M24 16h1M27 16h1M3 17h1M22 17h2M27 17h1M4 18h1M27 18h1M4 19h1M27 19h1M4 20h1M27 20h1M4 21h1M27 21h1M4 22h1M27 22h1M4 23h1M27 23h1M4 24h1M27 24h1M4 25h1M27 25h1M4 26h1M27 26h1M4 27h1M26 27h1M4 28h1M25 28h1M4 29h1M24 29h1M4 30h1M23 30h1M4 31h19" />
<path stroke="#c0c0c0" d="M0 0h1M11 1h1M12 2h1M13 3h1M17 5h1M21 5h2M16 6h2M21 6h1M24 6h1M13 7h4M21 7h1M24 7h1M16 8h4M22 8h1M25 8h4M12 9h2M21 9h1M23 9h1M21 10h1M21 11h1M15 12h1M17 12h1M20 12h2M16 13h1M18 13h3M9 15h1M18 15h1M7 16h1M9 16h1M18 16h1M6 19h1M8 19h1M10 19h1M12 19h1M14 19h1M16 19h1M18 19h1M20 19h1M7 20h1M9 20h1M11 20h1M13 20h1M15 20h1M17 20h1M19 20h1M21 20h1M6 21h1M8 21h1M10 21h1M12 21h1M14 21h1M16 21h1M18 21h1M20 21h1M7 22h1M9 22h1M11 22h1M13 22h1M15 22h1M17 22h1M19 22h1M21 22h1M6 23h1M8 23h1M10 23h1M12 23h1M14 23h1M16 23h1M18 23h1M20 23h1M7 24h1M9 24h1M11 24h1M13 24h1M15 24h1M17 24h1M19 24h1M21 24h1M6 25h1M8 25h1M10 25h1M12 25h1M14 25h1M16 25h1M18 25h1M20 25h1M7 26h1M9 26h1M11 26h1M13 26h1M15 26h1M17 26h1M19 26h1M21 26h1M6 27h1M8 27h1M10 27h1M12 27h1M14 27h1M16 27h1M18 27h1M20 27h1M7 28h1M9 28h1M11 28h1M13 28h1M15 28h1M17 28h1M19 28h1M21 28h1M6 29h1M8 29h1M10 29h1M12 29h1M14 29h1M16 29h1M18 29h1M20 29h1" />
<path stroke="#ff00ff" d="M0 0h1M12 1h5M11 2h1M13 2h3M12 3h1M14 3h1M13 4h1" />
<path stroke="#00ffff" d="M0 0h1M6 2h4M4 3h4M5 4h4M7 5h3" />
<path stroke="#800080" d="M0 0h1M16 2h1M11 3h1M15 3h2M12 4h1M15 4h1M13 5h1M15 5h1" />
<path stroke="#008080" d="M0 0h1M4 4h1M4 5h3M4 6h7M6 7h5" />
<path stroke="#808080" d="M0 0h1M17 4h3M21 4h1M23 4h7M11 5h1M12 6h1M12 7h1M12 8h4M21 8h1M24 8h1M29 8h1M11 9h1M11 10h1M28 10h1M17 14h5M2 15h1M7 15h1M17 15h1M3 16h1M6 16h1M17 16h1" />
<path stroke="#ffffff" d="M0 0h1M18 5h2M24 5h6M18 6h2M22 6h1M25 6h5M17 7h3M22 7h1M25 7h5M14 9h4M24 9h5M12 10h5M22 10h3M27 10h1M5 11h2M14 11h3M22 11h2M4 12h4M9 12h4M16 12h1M22 12h1M3 13h5M9 13h4M14 13h1M17 13h1M21 13h1M2 14h6M9 14h1M12 14h1M3 15h4M10 15h6M19 15h3M4 16h2M15 16h1M19 16h3M5 18h17M5 19h1M5 20h1M5 21h1M5 22h1M5 23h1M5 24h1M5 25h1M5 26h1M5 27h1M5 28h1M5 29h1" />
<path stroke="#00ff00" d="M0 0h1M18 10h1" />
<path stroke="#008000" d="M0 0h1M19 10h1M18 11h2" />
<path stroke="#808000" d="M0 0h1M25 11h2M24 12h3M23 13h4M23 14h3M23 15h2M26 15h1M23 16h1M25 16h2M4 17h18M24 17h3M22 18h5M22 19h5M22 20h5M22 21h5M22 22h5M22 23h5M22 24h5M22 25h5M22 26h5M22 27h4M22 28h3M22 29h2M5 30h18" />
<path stroke="#0000ff" d="M0 0h1M10 14h2M11 16h4" />
<path stroke="#000080" d="M0 0h1M10 16h1" />
<path stroke="#ffff00" d="M0 0h1M7 19h1M9 19h1M11 19h1M13 19h1M15 19h1M17 19h1M19 19h1M21 19h1M6 20h1M8 20h1M10 20h1M12 20h1M14 20h1M16 20h1M18 20h1M20 20h1M7 21h1M9 21h1M11 21h1M13 21h1M15 21h1M17 21h1M19 21h1M21 21h1M6 22h1M8 22h1M10 22h1M12 22h1M14 22h1M16 22h1M18 22h1M20 22h1M7 23h1M9 23h1M11 23h1M13 23h1M15 23h1M17 23h1M19 23h1M21 23h1M6 24h1M8 24h1M10 24h1M12 24h1M14 24h1M16 24h1M18 24h1M20 24h1M7 25h1M9 25h1M11 25h1M13 25h1M15 25h1M17 25h1M19 25h1M21 25h1M6 26h1M8 26h1M10 26h1M12 26h1M14 26h1M16 26h1M18 26h1M20 26h1M7 27h1M9 27h1M11 27h1M13 27h1M15 27h1M17 27h1M19 27h1M21 27h1M6 28h1M8 28h1M10 28h1M12 28h1M14 28h1M16 28h1M18 28h1M20 28h1M7 29h1M9 29h1M11 29h1M13 29h1M15 29h1M17 29h1M19 29h1M21 29h1" />
</svg>