<svg xmlns="http://www.w3.org/2000/svg" width="32" height="32" shape-rendering="crispEdges" viewBox="0 -0.5 32 32"><path stroke="#000" d="M10 0h8M6 1h5m6 0h1m2 0h1M4 2h2m4 0h1m6 0h1m2 0h1M3 3h1m4 0h3m6 0h1m2 0h2M3 4h1m5 0h3m2 0h1m1 0h1m3 0h1m1 0h1M3 5h1m6 0h1m1 0h1m1 0h1m1 0h1m3 0h1m2 0h1m6 0h1M3 6h1m7 0h1m1 0h3m4 0h1m2 0h1m6 0h1M4 7h2m5 0h1m8 0h1m2 0h1m6 0h1M6 8h6m8 0h1m2 0h1m6 0h1M18 9h3m1 0h1m6 0h1M5 10h2m10 0h1m2 0h1m4 0h2m2 0h1M4 11h1m2 0h7m3 0h1m2 0h1m3 0h1m2 0h2M3 12h1m4 0h1m4 0h2m3 0h2m3 0h1m3 0h2M2 13h1m5 0h1m4 0h1m1 0h1m6 0h1m4 0h1M1 14h1m6 0h1m4 0h4m5 0h1m3 0h2M1 15h1m6 0h1m7 0h1m5 0h1m2 0h1m1 0h1M2 16h1m5 0h1m7 0h1m5 0h1m1 0h1m2 0h1M3 17h1m18 0h2m3 0h1M4 18h1m22 0h1M4 19h1m22 0h1M4 20h1m22 0h1M4 21h1m22 0h1M4 22h1m22 0h1M4 23h1m22 0h1M4 24h1m22 0h1M4 25h1m22 0h1M4 26h1m22 0h1M4 27h1m21 0h1M4 28h1m20 0h1M4 29h1m19 0h1M4 30h1m18 0h1M4 31h19"/><path stroke="silver" d="M11 1h1m0 1h1m0 1h1m3 2h1m3 0h2m-7 1h2m3 0h1m2 0h1M13 7h4m4 0h1m2 0h1m-9 1h4m2 0h1m2 0h4M12 9h2m7 0h1m1 0h1m-3 1h1m-1 1h1m-7 1h1m1 0h1m2 0h2m-6 1h1m1 0h3M9 15h1m8 0h1M7 16h1m1 0h1m8 0h1M6 19h1m1 0h1m1 0h1m1 0h1m1 0h1m1 0h1m1 0h1m1 0h1M7 20h1m1 0h1m1 0h1m1 0h1m1 0h1m1 0h1m1 0h1m1 0h1M6 21h1m1 0h1m1 0h1m1 0h1m1 0h1m1 0h1m1 0h1m1 0h1M7 22h1m1 0h1m1 0h1m1 0h1m1 0h1m1 0h1m1 0h1m1 0h1M6 23h1m1 0h1m1 0h1m1 0h1m1 0h1m1 0h1m1 0h1m1 0h1M7 24h1m1 0h1m1 0h1m1 0h1m1 0h1m1 0h1m1 0h1m1 0h1M6 25h1m1 0h1m1 0h1m1 0h1m1 0h1m1 0h1m1 0h1m1 0h1M7 26h1m1 0h1m1 0h1m1 0h1m1 0h1m1 0h1m1 0h1m1 0h1M6 27h1m1 0h1m1 0h1m1 0h1m1 0h1m1 0h1m1 0h1m1 0h1M7 28h1m1 0h1m1 0h1m1 0h1m1 0h1m1 0h1m1 0h1m1 0h1M6 29h1m1 0h1m1 0h1m1 0h1m1 0h1m1 0h1m1 0h1m1 0h1"/><path stroke="#f0f" d="M12 1h5m-6 1h1m1 0h3m-4 1h1m1 0h1m-2 1h1"/><path stroke="#0ff" d="M6 2h4M4 3h4M5 4h4M7 5h3"/><path stroke="purple" d="M16 2h1m-6 1h1m3 0h2m-5 1h1m2 0h1m-3 1h1m1 0h1"/><path stroke="teal" d="M4 4h1M4 5h3M4 6h7M6 7h5"/><path stroke="gray" d="M17 4h3m1 0h1m1 0h7M11 5h1m0 1h1m-1 1h1m-1 1h4m5 0h1m2 0h1m4 0h1M11 9h1m-1 1h1m16 0h1m-12 4h5M2 15h1m4 0h1m9 0h1M3 16h1m2 0h1m10 0h1"/><path stroke="#fff" d="M18 5h2m4 0h6M18 6h2m2 0h1m2 0h5M17 7h3m2 0h1m2 0h5M14 9h4m6 0h5m-17 1h5m5 0h3m2 0h1M5 11h2m7 0h3m5 0h2M4 12h4m1 0h4m3 0h1m5 0h1M3 13h5m1 0h4m1 0h1m2 0h1m3 0h1M2 14h6m1 0h1m2 0h1M3 15h4m3 0h6m3 0h3M4 16h2m9 0h1m3 0h3M5 18h17M5 19h1m-1 1h1m-1 1h1m-1 1h1m-1 1h1m-1 1h1m-1 1h1m-1 1h1m-1 1h1m-1 1h1m-1 1h1"/><path stroke="#0f0" d="M18 10h1"/><path stroke="green" d="M19 10h1m-2 1h2"/><path stroke="olive" d="M25 11h2m-3 1h3m-4 1h4m-4 1h3m-3 1h2m1 0h1m-4 1h1m1 0h2M4 17h18m2 0h3m-5 1h5m-5 1h5m-5 1h5m-5 1h5m-5 1h5m-5 1h5m-5 1h5m-5 1h5m-5 1h5m-5 1h4m-4 1h3m-3 1h2M5 30h18"/><path stroke="#00f" d="M10 14h2m-1 2h4"/><path stroke="navy" d="M10 16h1"/><path stroke="#ff0" d="M7 19h1m1 0h1m1 0h1m1 0h1m1 0h1m1 0h1m1 0h1m1 0h1M6 20h1m1 0h1m1 0h1m1 0h1m1 0h1m1 0h1m1 0h1m1 0h1M7 21h1m1 0h1m1 0h1m1 0h1m1 0h1m1 0h1m1 0h1m1 0h1M6 22h1m1 0h1m1 0h1m1 0h1m1 0h1m1 0h1m1 0h1m1 0h1M7 23h1m1 0h1m1 0h1m1 0h1m1 0h1m1 0h1m1 0h1m1 0h1M6 24h1m1 0h1m1 0h1m1 0h1m1 0h1m1 0h1m1 0h1m1 0h1M7 25h1m1 0h1m1 0h1m1 0h1m1 0h1m1 0h1m1 0h1m1 0h1M6 26h1m1 0h1m1 0h1m1 0h1m1 0h1m1 0h1m1 0h1m1 0h1M7 27h1m1 0h1m1 0h1m1 0h1m1 0h1m1 0h1m1 0h1m1 0h1M6 28h1m1 0h1m1 0h1m1 0h1m1 0h1m1 0h1m1 0h1m1 0h1M7 29h1m1 0h1m1 0h1m1 0h1m1 0h1m1 0h1m1 0h1m1 0h1"/></svg>