<svg xmlns="http://www.w3.org/2000/svg" width="32" height="32" shape-rendering="crispEdges" viewBox="0 -0.5 32 32"><path stroke="#000" d="M4 0h5M3 1h1m5 0h1m12 0h1M2 2h1m7 0h1m8 0h1m3 0h1M2 3h1m7 0h1m6 0h4m3 0h1M2 4h1m7 0h1m1 0h1m3 0h2m2 0h2m3 0h1M7 5h4m2 0h4m4 0h2m3 0h1M6 6h1m1 0h1m1 0h1m3 0h2m1 0h1m2 0h4m3 0h1M6 7h2m2 0h1m4 0h1m1 0h4m2 0h2m3 0h1M6 8h1m3 0h1m4 0h1m2 0h2m4 0h2m3 0h1M7 9h3m5 0h1m1 0h2m1 0h1m2 0h4m3 0h1m-16 1h1m1 0h1m2 0h4m5 0h1m-15 1h3m3 0h2m5 0h1m-15 1h1m1 0h2m3 0h1m5 0h1m-15 1h1m3 0h2m1 0h1m5 0h1m-15 1h1m5 0h3m4 0h1m-15 1h1m7 0h1m4 0h1m-14 1h1m11 0h1m-13 1h1m10 0h1m-12 1h1m9 0h1m-11 1h1m-6 1h1m4 0h1m-5 1h1m3 0h1m-1 1h1m-1 1h1m-6 1h1m4 0h1m-5 1h1m3 0h1m-1 1h1m-1 1h1m-1 1h1m-6 1h1m4 0h1m-5 1h1m2 0h1m-3 1h2"/><path stroke="gray" d="M14 0h8M4 1h1m8 0h1M3 2h1m5 0h1m2 0h1m5 0h1M3 3h1m12 0h1M3 4h1m11 0h1M2 5h1m4 1h1m1 0h1M7 8h1m-2 3h1m1 0h1m1 0h1m-4 1h1m1 0h1m11 1h1m-8 1h1m0 1h1m4 0h1m-5 1h1m0 1h1m0 1h1m0 1h2"/><path stroke="#fff" d="M14 1h7m-8 1h5m2 0h2M12 3h4m5 0h2M5 4h5m3 0h2m7 0h2M4 5h1m18 0h2M3 6h1m20 0h2M2 7h1m22 0h2M2 8h1m23 0h2M2 9h1m24 0h2M2 10h1m21 0h4M2 11h1m20 0h4M3 12h1m11 0h1m6 0h4M4 13h1m9 0h3m5 0h3M5 14h1m9 0h3m3 0h3M6 15h1m9 0h3m2 0h2M7 16h1m9 0h5M7 17h1m10 0h3M6 18h1m-1 1h1m0 3h1m-2 1h1m0 3h1m-2 1h1"/><path stroke="silver" d="M21 1h1m0 1h1m0 1h1m0 1h1m0 1h1m0 1h1M5 7h1m2 0h1m2 0h1m15 0h1M12 8h1m15 0h1M5 9h1m5 0h1m17 0h1M6 10h1m1 0h1m1 0h1m1 0h1m15 0h1M5 11h1m1 0h1m1 0h1m1 0h1m15 0h1M6 12h1m1 0h1m1 0h1m15 0h1M7 13h1m1 0h1m15 0h1M8 14h1m15 0h1M9 15h1m13 0h1m-2 1h1m-2 1h1m-3 1h2"/><path stroke="olive" d="M5 3h5m1 0h1M4 4h1m6 0h1M3 5h1m8 0h1M2 6h1m10 0h1M1 7h1m12 0h1m6 0h1M1 8h1m12 0h1M1 9h1m12 0h1m7 0h1M1 10h1m12 0h1M1 11h1m12 0h1M2 12h1m10 0h1M3 13h1m8 0h1m-9 1h1m6 0h1m-7 1h1m4 0h1m-5 1h1m2 0h2m-5 1h1m2 0h1m-5 1h1m3 0h1m-5 1h1m3 0h1m-3 1h1m1 0h1m-1 1h1m-4 1h1m2 0h1m-5 1h1m3 0h1m-3 1h1m1 0h1m-1 1h1m-4 1h1m2 0h1m-5 1h1m3 0h1m-5 1h2m2 0h1m-3 1h1m2 0h1m-3 1h2"/><path stroke="green" d="M18 4h1m-2 1h1m0 1h2"/><path stroke="#0f0" d="M19 4h1m-2 1h3"/><path stroke="#ff0" d="M5 5h2m4 0h1M4 6h2m5 0h2M3 7h2m7 0h2m8 0h1M3 8h3m5 0h1m1 0h1m6 0h4M3 9h2m1 0h1m3 0h1m1 0h2m7 0h1M3 10h3m1 0h1m1 0h1m1 0h1m1 0h1M3 11h2m7 0h2M4 12h2m5 0h2m-8 1h2m1 0h1m1 0h2m-6 1h2m1 0h2m-4 1h2m-1 1h1m-1 1h1m1 0h1m-4 1h2m1 0h1m-4 1h2m1 0h1m-3 1h1m1 0h1m-3 1h1m1 0h1m-3 1h1m1 0h1m-4 1h2m1 0h1m-3 1h1m1 0h1m-3 1h1m1 0h1m-3 1h1m1 0h1m-4 1h2m1 0h1m-4 1h2m1 0h1m-3 1h2"/><path stroke="maroon" d="M16 6h1m-1 4h1"/><path stroke="red" d="M16 7h1m-1 1h2m-2 1h1"/><path stroke="navy" d="M19 9h1m-2 1h1m1 2h1"/><path stroke="#00f" d="M19 10h1m-2 1h3m-3 1h2m-1 1h1"/></svg>