<svg xmlns="http://www.w3.org/2000/svg" viewBox="0 -0.5 32 32" shape-rendering="crispEdges">
<path stroke="#000000" d="M0 0h1M10 2h7M9 3h1M17 3h1M8 4h1M12 4h3M18 4h1M7 5h1M11 5h1M15 5h1M19 5h1M6 6h1M11 6h1M15 6h1M20 6h1M6 7h1M11 7h1M15 7h1M20 7h1M6 8h1M12 8h3M20 8h1M6 9h1M20 9h1M6 10h1M20 10h1M7 11h1M19 11h1M8 12h1M18 12h1M9 13h1M17 13h1M10 14h1M16 14h1M11 15h1M16 15h1M11 16h1M16 16h1M10 17h1M16 17h1M10 18h1M16 18h1M11 19h1M16 19h1M12 20h1M16 20h1M11 21h1M16 21h1M10 22h1M16 22h1M11 23h1M16 23h1M12 24h1M16 24h1M11 25h1M16 25h1M10 26h1M16 26h1M10 27h1M16 27h1M11 28h1M16 28h1M12 29h1M15 29h1M13 30h2" />
<path stroke="#ffffff" d="M0 0h1M10 3h5M9 4h2M8 5h2M7 6h2M10 6h1M14 6h1M16 6h1M7 7h1M9 7h1M13 7h2M17 7h1M7 8h2M10 8h1M16 8h1M7 9h1M9 9h1M11 9h1M13 9h1M15 9h1M17 9h1M7 10h2M10 10h1M12 10h1M14 10h1M16 10h1M8 11h2M11 11h1M13 11h1M15 11h1M9 12h2M12 12h1M14 12h1M10 13h2M13 13h1M11 14h2M14 14h1M13 15h1M12 16h1M14 16h1M11 17h1M13 17h1M11 18h2M14 18h1M13 19h1M14 20h1M13 21h1M11 22h2M14 22h1M13 23h1M14 24h1M13 25h1M11 26h2M14 26h1M11 27h1M13 27h1M12 28h1" />
<path stroke="#c0c0c0" d="M0 0h1M15 3h1M11 4h1M15 4h2M10 5h1M16 5h2M9 6h1M13 6h1M17 6h2M8 7h1M10 7h1M16 7h1M18 7h1M9 8h1M11 8h1M15 8h1M17 8h2M8 9h1M10 9h1M12 9h1M14 9h1M16 9h1M18 9h1M9 10h1M11 10h1M13 10h1M15 10h1M17 10h2M10 11h1M12 11h1M14 11h1M16 11h2M11 12h1M13 12h1M15 12h2M12 13h1M14 13h2M13 14h1M12 15h1M14 15h1M13 16h1M12 17h1M14 17h1M13 18h1M12 19h1M14 19h1M13 20h1M12 21h1M14 21h1M13 22h1M12 23h1M14 23h1M13 24h1M12 25h1M14 25h1M13 26h1M12 27h1M14 27h1M13 28h1" />
<path stroke="#808080" d="M0 0h1M16 3h1M17 4h1M12 5h3M18 5h1M12 6h1M19 6h1M12 7h1M19 7h1M19 8h1M19 9h1M19 10h1M18 11h1M17 12h1M16 13h1M15 14h1M15 15h1M15 16h1M15 17h1M15 18h1M15 19h1M15 20h1M15 21h1M15 22h1M15 23h1M15 24h1M15 25h1M15 26h1M15 27h1M14 28h2M13 29h2" />
</svg>