<svg xmlns="http://www.w3.org/2000/svg" viewBox="0 -0.5 32 32" shape-rendering="crispEdges">
<path stroke="#000000" d="M0 0h1M4 0h5M3 1h1M9 1h1M22 1h1M2 2h1M10 2h1M19 2h1M23 2h1M2 3h1M10 3h1M17 3h4M24 3h1M2 4h1M10 4h1M12 4h1M16 4h2M20 4h2M25 4h1M7 5h4M13 5h4M21 5h2M26 5h1M6 6h1M8 6h1M10 6h1M14 6h2M17 6h1M20 6h4M27 6h1M6 7h2M10 7h1M15 7h1M17 7h4M23 7h2M28 7h1M6 8h1M10 8h1M15 8h1M18 8h2M24 8h2M29 8h1M7 9h3M15 9h1M17 9h2M20 9h1M23 9h4M30 9h1M15 10h1M17 10h1M20 10h4M29 10h1M15 11h3M21 11h2M28 11h1M14 12h1M16 12h2M21 12h1M27 12h1M13 13h1M17 13h2M20 13h1M26 13h1M12 14h1M18 14h3M25 14h1M11 15h1M19 15h1M24 15h1M11 16h1M23 16h1M11 17h1M22 17h1M11 18h1M21 18h1M11 19h1M6 20h1M11 20h1M7 21h1M11 21h1M11 22h1M11 23h1M6 24h1M11 24h1M7 25h1M11 25h1M11 26h1M11 27h1M11 28h1M6 29h1M11 29h1M7 30h1M10 30h1M8 31h2" />
<path stroke="#808080" d="M0 0h1M14 0h8M4 1h1M13 1h1M3 2h1M9 2h1M12 2h1M18 2h1M3 3h1M16 3h1M3 4h1M15 4h1M2 5h1M7 6h1M9 6h1M7 8h1M6 11h1M8 11h1M10 11h1M7 12h1M9 12h1M21 13h1M14 14h1M15 15h1M20 15h1M16 16h1M17 17h1M18 18h1M19 19h2" />
<path stroke="#ffffff" d="M0 0h1M14 1h7M13 2h5M20 2h2M12 3h4M21 3h2M5 4h5M13 4h2M22 4h2M4 5h1M23 5h2M3 6h1M24 6h2M2 7h1M25 7h2M2 8h1M26 8h2M2 9h1M27 9h2M2 10h1M24 10h4M2 11h1M23 11h4M3 12h1M15 12h1M22 12h4M4 13h1M14 13h3M22 13h3M5 14h1M15 14h3M21 14h3M6 15h1M16 15h3M21 15h2M7 16h1M17 16h5M7 17h1M18 17h3M6 18h1M6 19h1M7 22h1M6 23h1M7 26h1M6 27h1" />
<path stroke="#c0c0c0" d="M0 0h1M21 1h1M22 2h1M23 3h1M24 4h1M25 5h1M26 6h1M5 7h1M8 7h1M11 7h1M27 7h1M12 8h1M28 8h1M5 9h1M11 9h1M29 9h1M6 10h1M8 10h1M10 10h1M12 10h1M28 10h1M5 11h1M7 11h1M9 11h1M11 11h1M27 11h1M6 12h1M8 12h1M10 12h1M26 12h1M7 13h1M9 13h1M25 13h1M8 14h1M24 14h1M9 15h1M23 15h1M22 16h1M21 17h1M19 18h2" />
<path stroke="#808000" d="M0 0h1M5 3h5M11 3h1M4 4h1M11 4h1M3 5h1M12 5h1M2 6h1M13 6h1M1 7h1M14 7h1M21 7h1M1 8h1M14 8h1M1 9h1M14 9h1M22 9h1M1 10h1M14 10h1M1 11h1M14 11h1M2 12h1M13 12h1M3 13h1M12 13h1M4 14h1M11 14h1M5 15h1M10 15h1M6 16h1M9 16h2M6 17h1M9 17h1M5 18h1M9 18h1M5 19h1M9 19h1M7 20h1M9 20h1M9 21h1M6 22h1M9 22h1M5 23h1M9 23h1M7 24h1M9 24h1M9 25h1M6 26h1M9 26h1M5 27h1M9 27h1M5 28h2M9 28h1M7 29h1M10 29h1M8 30h2" />
<path stroke="#008000" d="M0 0h1M18 4h1M17 5h1M18 6h2" />
<path stroke="#00ff00" d="M0 0h1M19 4h1M18 5h3" />
<path stroke="#ffff00" d="M0 0h1M5 5h2M11 5h1M4 6h2M11 6h2M3 7h2M12 7h2M22 7h1M3 8h3M11 8h1M13 8h1M20 8h4M3 9h2M6 9h1M10 9h1M12 9h2M21 9h1M3 10h3M7 10h1M9 10h1M11 10h1M13 10h1M3 11h2M12 11h2M4 12h2M11 12h2M5 13h2M8 13h1M10 13h2M6 14h2M9 14h2M7 15h2M8 16h1M8 17h1M10 17h1M7 18h2M10 18h1M7 19h2M10 19h1M8 20h1M10 20h1M8 21h1M10 21h1M8 22h1M10 22h1M7 23h2M10 23h1M8 24h1M10 24h1M8 25h1M10 25h1M8 26h1M10 26h1M7 27h2M10 27h1M7 28h2M10 28h1M8 29h2" />
<path stroke="#800000" d="M0 0h1M16 6h1M16 10h1" />
<path stroke="#ff0000" d="M0 0h1M16 7h1M16 8h2M16 9h1" />
<path stroke="#000080" d="M0 0h1M19 9h1M18 10h1M20 12h1" />
<path stroke="#0000ff" d="M0 0h1M19 10h1M18 11h3M18 12h2M19 13h1" />
</svg>