<svg xmlns="http://www.w3.org/2000/svg" viewBox="0 -0.5 16 16" shape-rendering="crispEdges">
<path stroke="#000000" d="M0 0h1M6 1h4M2 2h5M9 2h5M1 3h1M5 3h1M7 3h2M10 3h1M14 3h1M1 4h1M4 4h1M11 4h1M14 4h1M1 5h1M4 5h8M14 5h1M1 6h1M14 6h1M1 7h1M14 7h1M1 8h1M1 9h1M1 10h1M1 11h1M1 12h1M2 13h5" />
<path stroke="#ffff00" d="M0 0h1M7 2h2M6 3h1M9 3h1" />
<path stroke="#808080" d="M0 0h1M2 3h1M4 3h1M12 3h1M3 4h1M13 4h1M2 5h1M12 5h1M3 6h1M5 6h1M7 6h1M9 6h1M11 6h1M13 6h1M2 7h1M4 7h1M6 7h1M3 8h1M5 8h1M2 9h1M4 9h1M6 9h1M3 10h1M5 10h1M2 11h1M4 11h1M6 11h1M3 12h1M5 12h1" />
<path stroke="#808000" d="M0 0h1M3 3h1M11 3h1M13 3h1M2 4h1M12 4h1M3 5h1M13 5h1M2 6h1M4 6h1M6 6h1M8 6h1M10 6h1M12 6h1M3 7h1M5 7h1M2 8h1M4 8h1M6 8h1M3 9h1M5 9h1M2 10h1M4 10h1M6 10h1M3 11h1M5 11h1M2 12h1M4 12h1M6 12h1" />
<path stroke="#000080" d="M0 0h1M7 7h7M7 8h1M13 8h2M7 9h1M13 9h1M15 9h1M7 10h1M9 10h3M13 10h3M7 11h1M15 11h1M7 12h1M9 12h5M15 12h1M7 13h1M15 13h1M7 14h9" />
<path stroke="#ffffff" d="M0 0h1M8 8h5M8 9h5M14 9h1M8 10h1M12 10h1M8 11h7M8 12h1M14 12h1M8 13h7" />
</svg>