<svg xmlns="http://www.w3.org/2000/svg" viewBox="0 -0.5 32 32" shape-rendering="crispEdges">
<path stroke="#000000" d="M0 0h1M7 1h8M5 2h2M15 2h2M4 3h1M17 3h1M3 4h1M18 4h1M30 4h1M2 5h1M19 5h1M30 5h2M2 6h1M19 6h1M30 6h2M1 7h1M20 7h1M29 7h1M31 7h1M1 8h1M20 8h1M28 8h1M30 8h2M1 9h1M21 9h1M28 9h4M1 10h1M21 10h1M27 10h4M0 11h1M22 11h1M26 11h1M28 11h1M0 12h1M23 12h1M25 12h1M27 12h1M0 13h1M24 13h1M26 13h1M0 14h1M23 14h1M25 14h2M0 15h1M19 15h4M24 15h1M27 15h1M0 16h1M18 16h1M21 16h1M23 16h2M28 16h1M0 17h1M18 17h1M20 17h1M22 17h1M24 17h1M29 17h1M0 18h1M18 18h2M21 18h1M24 18h1M29 18h1M0 19h1M19 19h2M23 19h1M30 19h1M1 20h1M20 20h3M30 20h1M1 21h1M30 21h1M1 22h1M30 22h1M2 23h1M30 23h1M2 24h1M30 24h1M3 25h1M30 25h1M4 26h1M29 26h1M5 27h1M29 27h1M6 28h1M28 28h1M7 29h2M26 29h2M7 30h5M23 30h3M6 31h2M12 31h11" />
<path stroke="#c0c0c0" d="M0 0h1M7 2h1M14 2h1M8 3h1M10 3h1M12 3h1M14 3h2M5 4h1M7 4h1M9 4h1M11 4h1M13 4h1M15 4h1M4 5h1M6 5h1M14 5h1M16 5h1M5 6h1M7 6h1M17 6h1M2 7h1M4 7h1M6 7h1M16 7h1M18 7h1M3 8h1M5 8h1M7 8h1M17 8h1M4 9h1M6 9h1M8 9h1M18 9h1M3 10h1M5 10h1M7 10h1M9 10h1M11 10h1M17 10h1M19 10h1M2 11h1M4 11h1M8 11h1M10 11h1M12 11h1M14 11h1M16 11h1M18 11h1M20 11h1M3 12h1M11 12h1M13 12h1M15 12h1M17 12h1M19 12h1M21 12h1M2 13h1M12 13h1M14 13h1M16 13h1M18 13h1M20 13h1M22 13h1M11 14h1M13 14h1M15 14h1M17 14h2M22 14h1M2 15h1M10 15h1M12 15h1M14 15h1M16 15h2M3 16h1M9 16h1M11 16h1M13 16h1M15 16h1M26 16h1M2 17h1M4 17h1M6 17h1M8 17h1M10 17h1M12 17h1M14 17h1M16 17h1M25 17h3M3 18h1M5 18h1M7 18h1M11 18h1M13 18h1M15 18h1M25 18h1M27 18h1M2 19h1M4 19h1M6 19h1M12 19h1M14 19h1M16 19h1M24 19h1M26 19h1M28 19h1M3 20h1M5 20h1M13 20h1M15 20h1M17 20h1M23 20h1M25 20h1M27 20h1M2 21h1M4 21h1M14 21h1M16 21h1M18 21h1M20 21h1M22 21h1M24 21h1M26 21h1M28 21h1M3 22h1M5 22h1M15 22h1M17 22h1M19 22h1M21 22h1M23 22h1M25 22h1M27 22h1M4 23h1M6 23h1M14 23h1M16 23h1M20 23h1M22 23h1M24 23h1M26 23h1M28 23h1M5 24h1M7 24h1M11 24h1M13 24h1M23 24h1M25 24h1M27 24h1M6 25h1M8 25h1M10 25h1M12 25h1M24 25h1M26 25h1M7 26h1M9 26h1M11 26h1M13 26h1M23 26h1M25 26h1M27 26h1M8 27h1M10 27h1M12 27h1M22 27h1M24 27h1M26 27h1M9 28h1M11 28h1M13 28h1M21 28h1M23 28h1M25 28h1M10 29h1M12 29h1M14 29h1M16 29h1M18 29h1M20 29h1M22 29h1" />
<path stroke="#ffffff" d="M0 0h1M8 2h6M5 3h3M4 4h1M3 5h1M3 6h1M3 7h1M30 7h1M2 8h1M29 8h1M2 9h1M2 10h1M1 11h1M27 11h1M1 12h1M26 12h1M1 13h1M25 13h1M1 14h1M1 15h1M1 16h1M1 17h1M1 18h1M1 19h1M3 24h1M4 25h1M5 26h1M6 27h1" />
<path stroke="#ffff00" d="M0 0h1M9 3h1M11 3h1M13 3h1M6 4h1M8 4h1M10 4h1M12 4h1M14 4h1M16 4h1M5 5h1M7 5h1M15 5h1M17 5h1M4 6h1M6 6h1M8 6h1M16 6h1M5 7h1M7 7h1M17 7h1M4 8h1M6 8h1M8 8h1M18 8h1M3 9h1M5 9h1M7 9h1M9 9h1M17 9h1M19 9h1M4 10h1M6 10h1M8 10h1M10 10h1M16 10h1M18 10h1M3 11h1M9 11h1M11 11h1M13 11h1M15 11h1M17 11h1M19 11h1M2 12h1M10 12h1M12 12h1M14 12h1M16 12h1M18 12h1M20 12h1M3 13h1M11 13h1M13 13h1M15 13h1M17 13h1M19 13h1M21 13h1M2 14h1M12 14h1M14 14h1M16 14h1M11 15h1M13 15h1M15 15h1M2 16h1M10 16h1M12 16h1M14 16h1M16 16h1M3 17h1M5 17h1M7 17h1M9 17h1M11 17h1M13 17h1M15 17h1M2 18h1M4 18h1M6 18h1M12 18h1M14 18h1M16 18h1M26 18h1M3 19h1M5 19h1M13 19h1M15 19h1M17 19h1M25 19h1M27 19h1M2 20h1M4 20h1M12 20h1M14 20h1M16 20h1M18 20h1M24 20h1M26 20h1M28 20h1M3 21h1M5 21h1M13 21h1M15 21h1M17 21h1M19 21h1M21 21h1M23 21h1M25 21h1M27 21h1M2 22h1M4 22h1M14 22h1M16 22h1M18 22h1M20 22h1M22 22h1M24 22h1M26 22h1M28 22h1M3 23h1M5 23h1M13 23h1M15 23h1M21 23h1M23 23h1M25 23h1M27 23h1M4 24h1M6 24h1M12 24h1M14 24h1M22 24h1M24 24h1M26 24h1M28 24h1M5 25h1M7 25h1M9 25h1M11 25h1M13 25h1M23 25h1M25 25h1M27 25h1M6 26h1M8 26h1M10 26h1M12 26h1M24 26h1M26 26h1M7 27h1M9 27h1M11 27h1M13 27h1M23 27h1M25 27h1M8 28h1M10 28h1M12 28h1M14 28h1M20 28h1M22 28h1M24 28h1M11 29h1M13 29h1M15 29h1M17 29h1M19 29h1M21 29h1" />
<path stroke="#808000" d="M0 0h1M16 3h1M17 4h1M18 5h1M18 6h1M19 7h1M19 8h1M20 9h1M20 10h1M21 11h1M22 12h1M23 13h1M19 14h3M18 15h1M17 16h1M27 16h1M17 17h1M28 17h1M17 18h1M28 18h1M18 19h1M29 19h1M19 20h1M29 20h1M29 21h1M29 22h1M29 23h1M29 24h1M28 25h2M28 26h1M27 27h2M26 28h2M9 29h1M23 29h3M12 30h11" />
<path stroke="#ff00ff" d="M0 0h1M8 5h6M9 6h6M8 7h7M10 8h6M12 9h3" />
<path stroke="#800080" d="M0 0h1M15 6h1M15 7h1M9 8h1M16 8h1M10 9h2M15 9h2M12 10h4" />
<path stroke="#00ff00" d="M0 0h1M5 11h1M7 11h1M4 12h1M6 12h1M8 12h1M5 13h1M7 13h1M9 13h1M4 14h1M6 14h1M8 14h1M5 15h1M7 15h1" />
<path stroke="#008000" d="M0 0h1M6 11h1M5 12h1M7 12h1M9 12h1M4 13h1M6 13h1M8 13h1M10 13h1M3 14h1M5 14h1M7 14h1M9 14h2M3 15h2M6 15h1M8 15h2M4 16h5" />
<path stroke="#0000ff" d="M0 0h1M24 14h1M23 15h1M22 16h1M21 17h1M20 18h1M17 23h3M15 24h6M14 25h8M14 26h8M15 27h5" />
<path stroke="#808080" d="M0 0h1M25 15h2M25 16h1M7 28h1" />
<path stroke="#ff0000" d="M0 0h1M8 18h3M7 19h4M6 20h5M6 21h6M7 22h6M8 23h3" />
<path stroke="#800000" d="M0 0h1M11 19h1M11 20h1M12 21h1M6 22h1M13 22h1M7 23h1M11 23h2M8 24h3" />
<path stroke="#000080" d="M0 0h1M21 24h1M22 25h1M22 26h1M14 27h1M20 27h2M15 28h5" />
</svg>