<svg xmlns="http://www.w3.org/2000/svg" width="32" height="32" shape-rendering="crispEdges" viewBox="0 -0.5 32 32"><path stroke="#000" d="M7 1h8M5 2h2m8 0h2M4 3h1m12 0h1M3 4h1m14 0h1m11 0h1M2 5h1m16 0h1m10 0h2M2 6h1m16 0h1m10 0h2M1 7h1m18 0h1m8 0h1m1 0h1M1 8h1m18 0h1m7 0h1m1 0h2M1 9h1m19 0h1m6 0h4M1 10h1m19 0h1m5 0h4M0 11h1m21 0h1m3 0h1m1 0h1M0 12h1m22 0h1m1 0h1m1 0h1M0 13h1m23 0h1m1 0h1M0 14h1m22 0h1m1 0h2M0 15h1m18 0h4m1 0h1m2 0h1M0 16h1m17 0h1m2 0h1m1 0h2m3 0h1M0 17h1m17 0h1m1 0h1m1 0h1m1 0h1m4 0h1M0 18h1m17 0h2m1 0h1m2 0h1m4 0h1M0 19h1m18 0h2m2 0h1m6 0h1M1 20h1m18 0h3m7 0h1M1 21h1m28 0h1M1 22h1m28 0h1M2 23h1m27 0h1M2 24h1m27 0h1M3 25h1m26 0h1M4 26h1m24 0h1M5 27h1m23 0h1M6 28h1m21 0h1M7 29h2m17 0h2M7 30h5m11 0h3M6 31h2m4 0h11"/><path stroke="silver" d="M7 2h1m6 0h1M8 3h1m1 0h1m1 0h1m1 0h2M5 4h1m1 0h1m1 0h1m1 0h1m1 0h1m1 0h1M4 5h1m1 0h1m7 0h1m1 0h1M5 6h1m1 0h1m9 0h1M2 7h1m1 0h1m1 0h1m9 0h1m1 0h1M3 8h1m1 0h1m1 0h1m9 0h1M4 9h1m1 0h1m1 0h1m9 0h1M3 10h1m1 0h1m1 0h1m1 0h1m1 0h1m5 0h1m1 0h1M2 11h1m1 0h1m3 0h1m1 0h1m1 0h1m1 0h1m1 0h1m1 0h1m1 0h1M3 12h1m7 0h1m1 0h1m1 0h1m1 0h1m1 0h1m1 0h1M2 13h1m9 0h1m1 0h1m1 0h1m1 0h1m1 0h1m1 0h1m-12 1h1m1 0h1m1 0h1m1 0h2m3 0h1M2 15h1m7 0h1m1 0h1m1 0h1m1 0h2M3 16h1m5 0h1m1 0h1m1 0h1m1 0h1m10 0h1M2 17h1m1 0h1m1 0h1m1 0h1m1 0h1m1 0h1m1 0h1m1 0h1m8 0h3M3 18h1m1 0h1m1 0h1m3 0h1m1 0h1m1 0h1m9 0h1m1 0h1M2 19h1m1 0h1m1 0h1m5 0h1m1 0h1m1 0h1m7 0h1m1 0h1m1 0h1M3 20h1m1 0h1m7 0h1m1 0h1m1 0h1m5 0h1m1 0h1m1 0h1M2 21h1m1 0h1m9 0h1m1 0h1m1 0h1m1 0h1m1 0h1m1 0h1m1 0h1m1 0h1M3 22h1m1 0h1m9 0h1m1 0h1m1 0h1m1 0h1m1 0h1m1 0h1m1 0h1M4 23h1m1 0h1m7 0h1m1 0h1m3 0h1m1 0h1m1 0h1m1 0h1m1 0h1M5 24h1m1 0h1m3 0h1m1 0h1m9 0h1m1 0h1m1 0h1M6 25h1m1 0h1m1 0h1m1 0h1m11 0h1m1 0h1M7 26h1m1 0h1m1 0h1m1 0h1m9 0h1m1 0h1m1 0h1M8 27h1m1 0h1m1 0h1m9 0h1m1 0h1m1 0h1M9 28h1m1 0h1m1 0h1m7 0h1m1 0h1m1 0h1m-16 1h1m1 0h1m1 0h1m1 0h1m1 0h1m1 0h1m1 0h1"/><path stroke="#fff" d="M8 2h6M5 3h3M4 4h1M3 5h1M3 6h1M3 7h1m26 0h1M2 8h1m26 0h1M2 9h1m-1 1h1m-2 1h1m25 0h1M1 12h1m24 0h1M1 13h1m23 0h1M1 14h1m-1 1h1m-1 1h1m-1 1h1m-1 1h1m-1 1h1m1 5h1m0 1h1m0 1h1m0 1h1"/><path stroke="#ff0" d="M9 3h1m1 0h1m1 0h1M6 4h1m1 0h1m1 0h1m1 0h1m1 0h1m1 0h1M5 5h1m1 0h1m7 0h1m1 0h1M4 6h1m1 0h1m1 0h1m7 0h1M5 7h1m1 0h1m9 0h1M4 8h1m1 0h1m1 0h1m9 0h1M3 9h1m1 0h1m1 0h1m1 0h1m7 0h1m1 0h1M4 10h1m1 0h1m1 0h1m1 0h1m5 0h1m1 0h1M3 11h1m5 0h1m1 0h1m1 0h1m1 0h1m1 0h1m1 0h1M2 12h1m7 0h1m1 0h1m1 0h1m1 0h1m1 0h1m1 0h1M3 13h1m7 0h1m1 0h1m1 0h1m1 0h1m1 0h1m1 0h1M2 14h1m9 0h1m1 0h1m1 0h1m-6 1h1m1 0h1m1 0h1M2 16h1m7 0h1m1 0h1m1 0h1m1 0h1M3 17h1m1 0h1m1 0h1m1 0h1m1 0h1m1 0h1m1 0h1M2 18h1m1 0h1m1 0h1m5 0h1m1 0h1m1 0h1m9 0h1M3 19h1m1 0h1m7 0h1m1 0h1m1 0h1m7 0h1m1 0h1M2 20h1m1 0h1m7 0h1m1 0h1m1 0h1m1 0h1m5 0h1m1 0h1m1 0h1M3 21h1m1 0h1m7 0h1m1 0h1m1 0h1m1 0h1m1 0h1m1 0h1m1 0h1m1 0h1M2 22h1m1 0h1m9 0h1m1 0h1m1 0h1m1 0h1m1 0h1m1 0h1m1 0h1m1 0h1M3 23h1m1 0h1m7 0h1m1 0h1m5 0h1m1 0h1m1 0h1m1 0h1M4 24h1m1 0h1m5 0h1m1 0h1m7 0h1m1 0h1m1 0h1m1 0h1M5 25h1m1 0h1m1 0h1m1 0h1m1 0h1m9 0h1m1 0h1m1 0h1M6 26h1m1 0h1m1 0h1m1 0h1m11 0h1m1 0h1M7 27h1m1 0h1m1 0h1m1 0h1m9 0h1m1 0h1M8 28h1m1 0h1m1 0h1m1 0h1m5 0h1m1 0h1m1 0h1m-14 1h1m1 0h1m1 0h1m1 0h1m1 0h1m1 0h1"/><path stroke="olive" d="M16 3h1m0 1h1m0 1h1m-1 1h1m0 1h1m-1 1h1m0 1h1m-1 1h1m0 1h1m0 1h1m0 1h1m-5 1h3m-4 1h1m-2 1h1m9 0h1m-11 1h1m10 0h1m-12 1h1m10 0h1m-11 1h1m10 0h1m-11 1h1m9 0h1m-1 1h1m-1 1h1m-1 1h1m-1 1h1m-2 1h2m-2 1h1m-2 1h2m-3 1h2M9 29h1m13 0h3m-14 1h11"/><path stroke="#f0f" d="M8 5h6M9 6h6M8 7h7m-5 1h6m-4 1h3"/><path stroke="purple" d="M15 6h1m-1 1h1M9 8h1m6 0h1m-7 1h2m3 0h2m-5 1h4"/><path stroke="#0f0" d="M5 11h1m1 0h1m-4 1h1m1 0h1m1 0h1m-4 1h1m1 0h1m1 0h1m-6 1h1m1 0h1m1 0h1m-4 1h1m1 0h1"/><path stroke="green" d="M6 11h1m-2 1h1m1 0h1m1 0h1m-6 1h1m1 0h1m1 0h1m1 0h1m-8 1h1m1 0h1m1 0h1m1 0h2m-8 1h2m1 0h1m1 0h2m-6 1h5"/><path stroke="#00f" d="M24 14h1m-2 1h1m-2 1h1m-2 1h1m-2 1h1m-4 5h3m-5 1h6m-7 1h8m-8 1h8m-7 1h5"/><path stroke="gray" d="M25 15h2m-2 1h1M7 28h1"/><path stroke="red" d="M8 18h3m-4 1h4m-5 1h5m-5 1h6m-5 1h6m-5 1h3"/><path stroke="maroon" d="M11 19h1m-1 1h1m0 1h1m-7 1h1m6 0h1m-7 1h1m3 0h2m-5 1h3"/><path stroke="navy" d="M21 24h1m0 1h1m-1 1h1m-9 1h1m5 0h2m-7 1h5"/></svg>