<svg xmlns="http://www.w3.org/2000/svg" viewBox="0 -0.5 16 16" shape-rendering="crispEdges">
<path stroke="#000000" d="M0 0h1M4 1h2M10 1h1M3 2h1M11 2h1M3 3h1M12 3h1M2 4h1M12 4h1M2 5h1M11 5h1M2 6h1M6 6h1M11 6h1M2 7h1M12 7h1M3 8h1M11 8h1M3 9h1M4 10h2M11 10h1M4 11h2M3 12h2M10 12h1M2 13h1M12 13h1M2 14h1M6 14h3M10 14h1M12 14h1" />
<path stroke="#808000" d="M0 0h1M6 1h4M4 2h1M8 3h1M3 4h1M7 4h1M3 5h1M3 6h1M5 6h1M3 7h1M5 7h1M4 8h3M4 9h3M7 12h1M8 13h1" />
<path stroke="#ffff00" d="M0 0h1M5 2h6M4 3h4M9 3h3M4 4h3M4 5h3M4 6h1M4 7h1" />
<path stroke="#ffffff" d="M0 0h1M8 4h1M8 5h1M8 6h1M10 6h1M8 7h2M8 8h2M7 9h4M8 11h1" />
<path stroke="#c0c0c0" d="M0 0h1M9 4h2M7 5h1M7 6h1M9 6h1M6 7h2M10 7h1M7 8h1M7 11h1M8 12h1" />
<path stroke="#808080" d="M0 0h1M11 4h1M9 5h2M11 7h1M10 8h1M11 9h1M6 10h5M6 11h1M9 11h1M9 12h1M7 13h1" />
<path stroke="#800080" d="M0 0h1M5 12h2M3 13h3M9 13h3M3 14h3M9 14h1M11 14h1" />
<path stroke="#ff00ff" d="M0 0h1M6 13h1" />
</svg>