<svg xmlns="http://www.w3.org/2000/svg" viewBox="0 -0.5 16 16" shape-rendering="crispEdges">
<path stroke="#808080" d="M0 0h11M1 1h1M11 1h1M1 2h1M12 2h1M1 3h1M1 4h1M1 5h1M1 6h1M1 7h1M1 8h1M1 9h1M1 10h1M1 11h1M1 12h1M1 13h1M1 14h1" />
<path stroke="#ffffff" d="M0 0h1M2 1h8M2 2h5M8 2h2M11 2h1M2 3h4M9 3h1M2 4h3M10 4h2M2 5h2M11 5h1M2 6h2M11 6h1M2 7h2M2 8h2M2 9h2M2 10h2M2 11h2M11 11h1M2 12h3M10 12h2M2 13h4M9 13h3" />
<path stroke="#c0c0c0" d="M0 0h1M10 1h1M10 2h1M12 4h1M12 5h1M12 6h1M11 7h2M11 8h2M11 9h2M11 10h2M4 11h1M10 11h1M12 11h1M5 12h1M9 12h1M12 12h1M6 13h1M8 13h1M12 13h1M2 14h11" />
<path stroke="#808000" d="M0 0h1M7 2h1M6 3h1M8 3h1M5 4h1M9 4h1M4 5h1M10 5h1" />
<path stroke="#ffff00" d="M0 0h1M7 3h1M6 4h3M5 5h5M5 6h5M6 7h3M7 8h1" />
<path stroke="#000000" d="M0 0h1M10 3h4M13 4h1M13 5h1M10 6h1M13 6h1M10 7h1M13 7h1M10 8h1M13 8h1M10 9h1M13 9h1M10 10h1M13 10h1M9 11h1M13 11h1M8 12h1M13 12h1M7 13h1M13 13h1M13 14h1M1 15h13" />
<path stroke="#800000" d="M0 0h1M4 6h1M4 7h1M4 8h1M4 9h1M4 10h1M5 11h1M6 12h1" />
<path stroke="#ff0000" d="M0 0h1M5 7h1M5 8h2M5 9h2M5 10h2M6 11h1" />
<path stroke="#0000ff" d="M0 0h1M9 7h1M8 8h2M7 9h3M7 10h3M7 11h2M7 12h1" />
</svg>