<svg xmlns="http://www.w3.org/2000/svg" width="32" height="32" shape-rendering="crispEdges" viewBox="0 -0.5 32 32"><path stroke="gray" d="M6 0h20M6 1h1m18 0h1M6 2h1m18 0h2M6 3h1m18 0h1M6 4h1m18 0h1m2 0h1m-4 1h1m3 0h1m-5 1h1m-3 3h1m-1 1h1m-13 1h1m11 0h1m-13 1h1m-1 1h1m-1 1h1m-1 1h1m8 0h1m-10 1h1m8 0h1m7 0h1m-19 1h2m16 0h1M9 18h2m17 0h1M8 19h2m18 0h1M7 20h2m18 0h2M6 21h2m13 0h1m4 0h2M6 22h1m14 0h1m3 0h2M6 23h1m14 0h1m3 0h1M6 24h1m14 0h1M6 25h1m13 0h2M6 26h1m12 0h2M6 27h1m11 0h2M6 28h1m11 0h1M6 29h1m-1 1h1"/><path stroke="#fff" d="M7 1h18M7 2h18M7 3h18M7 4h12m1 0h5m1 0h1M7 5h11m3 0h4m1 0h2M8 6h9m5 0h3M9 7h7m7 0h7M10 8h6m7 0h7M11 9h5m8 0h6m-19 1h5m8 0h6m-18 1h4m9 0h5m-18 1h4m10 0h4m-18 1h4m11 0h3m-18 1h5m11 0h2m-18 1h6m10 0h2m-18 1h5m1 0h1m10 0h1m-18 1h4m3 0h2m8 0h1m-19 1h4m5 0h1m8 0h1m-19 1h3m15 0h1m-20 1h4m15 0h1M9 21h5m15 0h1M8 22h6m8 0h1m5 0h2M7 23h7m8 0h2m3 0h3M7 24h7m8 0h8M7 25h7m8 0h8M7 26h8m7 0h8M7 27h9m5 0h9M7 28h10m3 0h10M7 29h23"/><path stroke="#000" d="M26 1h1m0 1h1m0 1h1m0 1h1m0 1h1m-5 1h6m-1 1h1M22 8h1m8 0h1M22 9h1m8 0h1m-22 1h1m11 0h1m8 0h1m-22 1h1m11 0h1m8 0h1m-22 1h1m11 0h1m8 0h1m-22 1h1m10 0h1m9 0h1m-22 1h1m9 0h1m10 0h1m-22 1h1m8 0h1m7 0h1m3 0h1m-22 1h1m16 0h1m3 0h1M9 17h1m17 0h1m3 0h1M8 18h1m18 0h1m3 0h1M7 19h1m19 0h1m3 0h1M6 20h1m13 0h1m5 0h1m4 0h1M5 21h1m14 0h1m4 0h1m5 0h1m-12 1h1m3 0h1m6 0h1m-12 1h1m10 0h1m-12 1h1m10 0h1m-13 1h1m11 0h1m-14 1h1m12 0h1m-15 1h1m13 0h1m-1 1h1m-1 1h1m-1 1h1M6 31h26"/><path stroke="silver" d="M26 3h2m-1 1h1m0 1h1m1 2h1m-1 1h1m-1 1h1m-1 1h1m-1 1h1m-1 1h1m-15 1h1m13 0h1m-14 1h1m12 0h1m-13 1h1m11 0h1m-12 1h1m10 0h1m-1 1h1m-1 1h1m-21 1h1m19 0h1M9 20h1m11 0h1m8 0h1M8 21h1m13 0h1m5 0h1m1 0h1M7 22h1m15 0h1m3 0h1m2 0h1m-7 1h1m1 0h1m3 0h1m-1 1h1m-17 1h1m15 0h1m-16 1h1m5 0h1m8 0h1m-15 1h1m3 0h1m9 0h1m-14 1h1m1 0h1m10 0h1m-1 1h1M7 30h24"/><path stroke="olive" d="M5 4h1m13 0h1M4 5h1m1 0h1m11 0h1m1 0h1M3 6h1m3 0h1m9 0h1m3 0h1M2 7h1m5 0h1m7 0h1m5 0h1M1 8h1m7 0h1M0 9h1m9 0h1m13 2h1m-2 1h1m1 0h1m-4 1h1m3 0h1m-6 1h1m5 0h1m-11 2h1m-2 1h1m1 0h1m-4 1h1m3 0h1m-6 1h1m5 0h1"/><path stroke="#ff0" d="M5 5h1m13 0h1M4 6h3m11 0h3M3 7h5m9 0h5M2 8h7m8 0h5M1 9h9m8 0h3M1 10h9m9 0h1M2 11h7m-6 1h5m16 0h1M4 13h3m16 0h3M5 14h1m16 0h5m-5 1h5m-4 1h3m-9 1h1m6 0h1m-9 1h3m-4 1h5m-5 1h5m-4 1h3m-2 1h1"/><path stroke="maroon" d="M16 8h1m-1 1h1M0 10h1m15 0h1M0 11h1m15 0h1M0 12h1m15 0h1M0 13h1m16 0h1M0 14h1m17 0h1M0 15h1m20 0h1M0 16h1m20 0h1M1 17h1m19 0h1M2 18h1m18 0h1M3 19h1m17 0h1M4 20h1m9 0h1m7 0h1m-9 1h1m8 0h1m-10 1h1m-1 1h1m-1 1h1m0 1h1m0 1h1"/><path stroke="red" d="M17 9h1m-1 1h2M1 11h1m15 0h2M1 12h2m14 0h2M1 13h3m14 0h1M1 14h4m-4 1h5m-5 1h5m16 0h1M2 17h4m16 0h2M3 18h3m16 0h2M4 19h2m16 0h2M5 20h1m17 0h1m-9 1h1m-1 1h2m-2 1h2m-2 1h2m-1 1h1"/><path stroke="#00f" d="M21 9h1m-2 1h2M9 11h1m9 0h3M8 12h2m9 0h3M7 13h3m9 0h2M6 14h4m9 0h1M6 15h4m-4 1h4m16 0h1M6 17h3m16 0h2M6 18h2m16 0h3M6 19h1m17 0h3m-3 1h2m-7 1h1m4 0h1m-7 1h2m-3 1h3m-3 1h3m-3 1h2m-2 1h1"/></svg>