<svg xmlns="http://www.w3.org/2000/svg" viewBox="0 -0.5 16 16" shape-rendering="crispEdges">
<path stroke="#808080" d="M0 0h1M6 0h3M3 1h3M8 1h1M2 2h2M5 2h1M8 2h1M11 2h1M4 3h8M2 5h1M2 6h1M2 7h1M11 7h1M2 8h1M11 8h1M2 9h1M11 9h1M2 10h1M11 10h1M2 11h1" />
<path stroke="#000000" d="M0 0h1M9 0h1M9 1h3M9 2h1M12 2h1M7 5h1M12 6h1M12 7h1M12 8h1M12 9h1M12 10h1M7 11h2M12 11h1M11 14h1M4 15h7" />
<path stroke="#ffffff" d="M0 0h1M6 1h1M4 2h1M3 6h1M3 7h1M3 8h1M3 9h1M3 10h1M3 11h1" />
<path stroke="#c0c0c0" d="M0 0h1M7 1h1M6 2h2M10 2h1M5 4h6M6 5h1M8 5h2M4 7h1M4 8h2M10 8h1M4 9h2M10 9h1M4 10h1M6 12h4" />
<path stroke="#ff0000" d="M0 0h1M1 3h3M12 3h3M2 4h3M11 4h3M3 5h3M10 5h3M4 6h8M5 7h6M6 8h4M6 9h4M5 10h6M4 11h3M9 11h3M3 12h3M10 12h3M2 13h3M11 13h3M1 14h3M12 14h3" />
<path stroke="#000080" d="M0 0h1M2 12h1M5 13h6M4 14h1M6 14h1M8 14h1M10 14h1" />
<path stroke="#0000ff" d="M0 0h1M5 14h1M7 14h1M9 14h1" />
</svg>