<svg xmlns="http://www.w3.org/2000/svg" width="32" height="32" shape-rendering="crispEdges" viewBox="0 -0.5 32 32"><path stroke="gray" d="M14 3h1m-3 1h2m-4 1h2m1 0h1m1 0h1M8 6h3m1 0h1m1 0h1m1 0h1M6 7h2m1 0h1m1 0h1m1 0h1m3 0h1M4 8h3m1 0h1m1 0h1m1 0h1m5 0h1M2 9h2m1 0h1m1 0h1m1 0h1m3 0h1m1 0h1m3 0h1M1 10h1m2 0h1m1 0h1m1 0h1m3 0h1m1 0h1m1 0h1m3 0h1M4 11h2m1 0h1m1 0h1m1 0h1m1 0h1m1 0h1m1 0h1m3 0h1M2 12h1m2 0h2m3 0h1m1 0h1m1 0h1m1 0h1m1 0h1m3 0h1M3 13h1m2 0h2m3 0h1m1 0h1m1 0h1m1 0h1m1 0h1m3 0h1M4 14h1m2 0h2m3 0h1m1 0h1m1 0h1m1 0h1m1 0h1m3 0h1M5 15h1m1 0h1m1 0h1m3 0h1m1 0h1m1 0h1m1 0h1m1 0h1m3 0h1M8 16h1m1 0h1m3 0h1m1 0h1m1 0h1m1 0h1m1 0h1m3 0h1M9 17h1m1 0h1m3 0h1m1 0h1m1 0h1m3 0h1m3 0h1m-18 1h1m1 0h1m3 0h1m1 0h1m3 0h1m1 0h1m3 0h1m-18 1h1m1 0h1m3 0h1m5 0h1m1 0h1m3 0h1m-18 1h1m1 0h1m3 0h1m1 0h1m1 0h1m1 0h1m3 0h1m1 0h1m-18 1h1m1 0h1m3 0h1m1 0h1m3 0h1m1 0h3m-14 1h1m3 0h1m3 0h1m1 0h2m-15 1h1m3 0h1m1 0h1m1 0h1m1 0h3m-12 1h1m3 0h1m1 0h1m1 0h2m-9 1h1m3 0h3m-6 1h1m1 1h1m-1 1h1"/><path stroke="#000" d="M15 3h1m-1 1h2m-1 1h2m-1 1h2m-1 1h2m-4 1h1m2 0h2M4 9h1m12 0h1m3 0h1M2 10h2m14 0h1m3 0h1M1 11h3m15 0h1m3 0h1M1 12h1m1 0h2m15 0h1m3 0h1M2 13h1m1 0h2m15 0h1m3 0h1M3 14h1m1 0h2m15 0h1m3 0h1M4 15h1m1 0h1m16 0h1m3 0h1M5 16h1m18 0h1m3 0h1m-4 1h1m2 0h2m-4 1h1m2 0h2m-4 1h1m2 0h2m-7 1h2m4 0h1m-9 1h2m5 0h2m-18 1h1m6 0h2m5 0h2m1 0h1m-18 1h2m4 0h1m5 0h2m1 0h2m-18 1h1m1 0h2m7 0h2m1 0h2m-15 1h1m1 0h3m3 0h2m1 0h2m-12 1h1m1 0h5m1 0h2m-9 1h2m1 0h1m1 0h2m-6 1h1m1 0h2"/><path stroke="olive" d="M14 4h1m-3 1h1m1 0h1m-4 1h1m1 0h1m1 0h1M8 7h1m1 0h1m1 0h1m1 0h1m1 0h1M7 8h1m1 0h1m1 0h1m3 0h1m1 0h1M6 9h1m1 0h1m1 0h1m3 0h1m1 0h1m1 0h1m1 0h1M5 10h1m1 0h1m3 0h1m1 0h1m1 0h1m1 0h1m1 0h1m1 0h1M6 11h1m3 0h1m1 0h1m1 0h1m1 0h1m1 0h1m1 0h1m1 0h1M7 12h1m1 0h1m1 0h1m1 0h1m1 0h1m1 0h1m1 0h1m1 0h1m1 0h1M8 13h1m1 0h1m1 0h1m1 0h1m1 0h1m1 0h1m1 0h1m1 0h1m1 0h1M9 14h1m1 0h1m1 0h1m1 0h1m1 0h1m1 0h1m1 0h1m1 0h1m1 0h1M8 15h1m1 0h1m1 0h1m1 0h1m1 0h1m1 0h1m1 0h1m1 0h1m1 0h1m1 0h1M7 16h1m1 0h1m1 0h1m1 0h1m1 0h1m1 0h1m1 0h1m1 0h1m1 0h1m1 0h1m1 0h1M6 17h1m1 0h1m1 0h1m1 0h1m1 0h1m1 0h1m1 0h1m1 0h1m1 0h1m1 0h1m1 0h1M7 18h1m1 0h1m1 0h1m1 0h1m1 0h1m1 0h1m5 0h1m1 0h1m1 0h1M8 19h1m1 0h1m1 0h1m1 0h1m1 0h1m5 0h1m1 0h1m1 0h1m1 0h1M9 20h1m1 0h1m1 0h1m1 0h1m1 0h1m1 0h1m1 0h1m1 0h1m3 0h1m1 0h1m-20 1h1m1 0h1m1 0h1m1 0h1m1 0h1m1 0h1m1 0h1m3 0h1m-16 1h1m1 0h1m1 0h1m1 0h1m1 0h1m3 0h1m1 0h1m-14 1h1m3 0h1m1 0h1m3 0h1m-6 1h1m1 0h1m1 0h1"/><path stroke="silver" d="M15 7h1m-3 1h2m-4 1h2m-4 1h2m-3 1h1m-1 1h1m0 1h1m0 1h1m0 1h1m-6 1h1m5 0h1m-6 1h1m5 0h1m-6 1h1m5 0h1m-6 1h1m5 0h1m-6 1h1m5 0h1m-6 1h1m5 0h1m-6 1h1m5 0h1"/><path stroke="navy" d="M21 17h1m-3 1h3m-4 1h4"/><path stroke="#ff0" d="M30 22h1m-3 1h1m-3 1h1m-3 1h1m-3 1h1m-3 1h1"/></svg>