<svg xmlns="http://www.w3.org/2000/svg" viewBox="0 -0.5 16 16" shape-rendering="crispEdges">
<path stroke="#808080" d="M0 0h1M2 5h13M1 6h1M14 6h1M0 7h1M13 7h2M0 8h1M13 8h2M0 9h1M13 9h2M0 10h1M2 10h10M13 10h2M0 11h1M13 11h2M0 12h14" />
<path stroke="#c0c0c0" d="M0 0h1M2 6h12M1 8h10M12 8h1M1 9h12M1 10h1M12 10h1M1 11h1M12 11h1" />
<path stroke="#000000" d="M0 0h1M15 6h1M15 7h1M15 8h1M15 9h1M15 10h1M15 11h1M14 12h1M1 13h13" />
<path stroke="#ffffff" d="M0 0h1M1 7h12M2 11h10" />
<path stroke="#008000" d="M0 0h1M11 8h1" />
</svg>