<svg xmlns="http://www.w3.org/2000/svg" width="16" height="16" shape-rendering="crispEdges" viewBox="0 -0.5 16 16"><path stroke="gray" d="M6 0h3M3 1h3m2 0h1M2 2h2m1 0h1m2 0h1m2 0h1M4 3h8M2 5h1M2 6h1M2 7h1m8 0h1M2 8h1m8 0h1M2 9h1m8 0h1M2 10h1m8 0h1M2 11h1"/><path stroke="#000" d="M9 0h1M9 1h3M9 2h1m2 0h1M7 5h1m4 1h1m-1 1h1m-1 1h1m-1 1h1m-1 1h1m-6 1h2m3 0h1m-2 3h1m-8 1h7"/><path stroke="#fff" d="M6 1h1M4 2h1M3 6h1M3 7h1M3 8h1M3 9h1m-1 1h1m-1 1h1"/><path stroke="silver" d="M7 1h1M6 2h2m2 0h1M5 4h6M6 5h1m1 0h2M4 7h1M4 8h2m4 0h1M4 9h2m4 0h1m-7 1h1m1 2h4"/><path stroke="red" d="M1 3h3m8 0h3M2 4h3m6 0h3M3 5h3m4 0h3M4 6h8M5 7h6M6 8h4M6 9h4m-5 1h6m-7 1h3m2 0h3m-9 1h3m4 0h3M2 13h3m6 0h3M1 14h3m8 0h3"/><path stroke="navy" d="M2 12h1m2 1h6m-7 1h1m1 0h1m1 0h1m1 0h1"/><path stroke="#00f" d="M5 14h1m1 0h1m1 0h1"/></svg>