<svg xmlns="http://www.w3.org/2000/svg" width="32" height="32" shape-rendering="crispEdges" viewBox="0 -0.5 32 32"><path stroke="gray" d="M14 0h5m-6 1h1m4 0h1m-9 1h4m4 0h1M7 3h3m3 0h1m2 0h3m1 0h2M6 4h1m1 0h1m10 0h5M6 5h2m1 0h1m13 0h1M6 6h1m1 0h1m2 0h12M6 7h1m1 0h1M6 8h1M6 9h1m-1 1h1m-1 1h1m-1 1h1m-1 1h1m-1 1h1m-1 1h1m-1 1h1m-1 1h1m-1 1h1m-1 1h1m-1 1h1m-1 1h1m-1 1h1m-1 1h1m-1 1h1m-1 1h1m-1 1h1m-1 1h2"/><path stroke="#fff" d="M14 1h3m-3 1h1m-5 1h3m1 0h1M9 4h1m0 1h1"/><path stroke="silver" d="M17 1h1m-3 1h3m-3 1h1m-6 1h4m-3 1h12M7 6h1M7 7h1M7 8h1M7 9h1m-1 1h1m-1 1h1m-1 1h1m-1 1h1m-1 1h1m-1 1h1m-1 1h1m-1 1h1m-1 1h1m-1 1h1m-1 1h1m-1 1h1m-1 1h1m-1 1h1m-1 1h1m-1 1h1m-1 1h1"/><path stroke="#000" d="M19 2h3m-3 1h1m2 0h3M7 4h1m6 0h5m6 0h1M8 5h1m16 0h1M10 6h1m12 0h1m1 0h1m-1 1h1m-1 1h1m-1 1h1m-1 1h1m-1 1h1m-1 1h1m-1 1h1m-1 1h1m-1 1h1m-1 1h1m-1 1h1m-1 1h1m-1 1h1m-1 1h1m-1 1h1m-1 1h1m-1 1h1m-1 1h1m-1 1h1m-1 1h1m-1 1h1M7 28h1m16 0h1M8 29h1m14 0h1M9 30h2m10 0h2m-12 1h10"/><path stroke="navy" d="M24 4h1m-1 1h1M9 6h1m14 0h1M9 7h16M8 8h1m1 0h1m1 0h1m1 0h1m1 0h1m1 0h1m1 0h1m1 0h1m1 0h1M9 9h1m1 0h1m1 0h1m1 0h1m1 0h1m1 0h1m1 0h1m1 0h2M8 10h1m1 0h1m1 0h1m1 0h1m3 0h1m1 0h1m1 0h1m1 0h1M9 11h1m1 0h1m1 0h1m3 0h1m1 0h1m1 0h1m1 0h2M8 12h1m1 0h1m1 0h1m7 0h1m1 0h1m1 0h1M9 13h1m1 0h1m7 0h1m1 0h1m1 0h2M8 14h1m1 0h1m1 0h1m1 0h1m3 0h1m1 0h1m1 0h1m1 0h1M9 15h1m1 0h1m1 0h1m3 0h1m1 0h1m1 0h1m1 0h2M8 16h1m1 0h1m1 0h1m1 0h1m1 0h1m1 0h1m1 0h1m1 0h1m1 0h1M9 17h1m1 0h1m1 0h1m1 0h1m1 0h1m1 0h1m1 0h1m1 0h2M8 18h1m1 0h1m1 0h1m1 0h1m1 0h1m1 0h1m1 0h1m1 0h1m1 0h1M9 19h1m1 0h1m1 0h1m1 0h1m1 0h1m1 0h1m1 0h1m1 0h2M8 20h1m1 0h1m1 0h1m1 0h1m1 0h1m1 0h1m1 0h1m1 0h1m1 0h1M9 21h1m1 0h1m1 0h1m1 0h1m1 0h1m1 0h1m1 0h1m1 0h2M8 22h1m1 0h1m1 0h1m1 0h1m1 0h1m1 0h1m1 0h1m1 0h1m1 0h1M9 23h1m1 0h1m1 0h1m1 0h1m1 0h1m1 0h1m1 0h1m1 0h2M8 24h1m1 0h1m1 0h1m1 0h1m1 0h1m1 0h1m1 0h1m1 0h1m1 0h1M9 25h1m1 0h1m1 0h1m1 0h1m1 0h1m1 0h1m1 0h1m1 0h2M8 26h1m1 0h1m9 0h1m1 0h1m1 0h1M9 27h1m1 0h1m1 0h1m1 0h1m1 0h1m1 0h1m1 0h1m1 0h2M8 28h1m1 0h1m1 0h1m1 0h1m1 0h1m1 0h1m1 0h1m1 0h2M9 29h1m1 0h1m1 0h1m1 0h1m1 0h1m1 0h1m1 0h2m-12 1h10"/><path stroke="#00f" d="M9 8h1m1 0h1m1 0h1m1 0h1m1 0h1m1 0h1m1 0h1m1 0h1M8 9h1m1 0h1m1 0h1m1 0h1m1 0h1m1 0h1m1 0h1m1 0h1M9 10h1m1 0h1m1 0h1m3 0h1m1 0h1m1 0h1m1 0h1M8 11h1m1 0h1m1 0h1m1 0h1m3 0h1m1 0h1m1 0h1M9 12h1m1 0h1m7 0h1m1 0h1m1 0h1M8 13h1m1 0h1m1 0h1m7 0h1m1 0h1M9 14h1m1 0h1m1 0h1m3 0h1m1 0h1m1 0h1m1 0h1M8 15h1m1 0h1m1 0h1m1 0h1m3 0h1m1 0h1m1 0h1M9 16h1m1 0h1m1 0h1m1 0h1m1 0h1m1 0h1m1 0h1m1 0h1M8 17h1m1 0h1m1 0h1m1 0h1m1 0h1m1 0h1m1 0h1m1 0h1M9 18h1m1 0h1m1 0h1m1 0h1m1 0h1m1 0h1m1 0h1m1 0h1M8 19h1m1 0h1m1 0h1m1 0h1m1 0h1m1 0h1m1 0h1m1 0h1M9 20h1m1 0h1m1 0h1m1 0h1m1 0h1m1 0h1m1 0h1m1 0h1M8 21h1m1 0h1m1 0h1m1 0h1m1 0h1m1 0h1m1 0h1m1 0h1M9 22h1m1 0h1m1 0h1m1 0h1m1 0h1m1 0h1m1 0h1m1 0h1M8 23h1m1 0h1m1 0h1m1 0h1m1 0h1m1 0h1m1 0h1m1 0h1M9 24h1m1 0h1m1 0h1m1 0h1m1 0h1m1 0h1m1 0h1m1 0h1M8 25h1m1 0h1m1 0h1m1 0h1m1 0h1m1 0h1m1 0h1m1 0h1M9 26h1m1 0h1m7 0h1m1 0h1m1 0h1M8 27h1m1 0h1m1 0h1m1 0h1m1 0h1m1 0h1m1 0h1m1 0h1M9 28h1m1 0h1m1 0h1m1 0h1m1 0h1m1 0h1m1 0h1m-12 1h1m1 0h1m1 0h1m1 0h1m1 0h1m1 0h1"/><path stroke="red" d="M15 10h2m-2 1h2m-4 1h6m-6 1h6m-4 1h2m-2 1h2m-5 11h7"/></svg>