<svg xmlns="http://www.w3.org/2000/svg" viewBox="0 -0.5 32 32" shape-rendering="crispEdges">
<path stroke="#c0c0c0" d="M0 0h1M14 0h5M13 1h1M17 1h2M10 2h4M15 2h4M7 3h3M13 3h1M15 3h4M20 3h2M6 4h1M8 4h1M10 4h4M19 4h6M6 5h2M9 5h1M11 5h13M6 6h1M8 6h2M11 6h11M24 6h1M6 7h1M8 7h3M22 7h3M6 8h1M8 8h17M6 9h1M8 9h6M18 9h7M6 10h1M8 10h6M15 10h2M18 10h7M6 11h1M8 11h4M15 11h2M20 11h5M6 12h1M8 12h4M13 12h6M20 12h5M6 13h1M8 13h4M13 13h6M20 13h5M6 14h1M8 14h4M15 14h2M20 14h5M6 15h1M8 15h6M15 15h2M18 15h7M6 16h1M8 16h6M18 16h7M6 17h1M8 17h17M6 18h1M8 18h17M6 19h1M8 19h17M6 20h1M8 20h17M6 21h1M8 21h17M6 22h1M8 22h17M6 23h1M8 23h17M6 24h1M8 24h17M6 25h1M8 25h4M20 25h5M6 26h1M8 26h4M13 26h6M20 26h5M6 27h6M20 27h5M8 28h16M9 29h14M11 30h10" />
<path stroke="#ffffff" d="M0 0h1M14 1h3M14 2h1M10 3h3M14 3h1M9 4h1M10 5h1M7 6h1M7 7h1M7 8h1M7 9h1M7 10h1M17 10h1M7 11h1M17 11h1M7 12h1M19 12h1M7 13h1M19 13h1M7 14h1M13 14h2M17 14h3M7 15h1M17 15h1M7 16h1M15 16h3M7 17h1M7 18h1M7 19h1M7 20h1M7 21h1M7 22h1M7 23h1M7 24h1M7 25h1M19 25h1M7 26h1M19 26h1M13 27h7" />
<path stroke="#808080" d="M0 0h1M19 2h3M19 3h1M22 3h3M7 4h1M14 4h5M25 4h1M8 5h1M24 5h2M10 6h1M22 6h2M25 6h1M11 7h11M25 7h1M25 8h1M14 9h4M25 9h1M14 10h1M25 10h1M12 11h3M18 11h2M25 11h1M12 12h1M25 12h1M12 13h1M25 13h1M12 14h1M25 14h1M14 15h1M25 15h1M14 16h1M25 16h1M25 17h1M25 18h1M25 19h1M25 20h1M25 21h1M25 22h1M25 23h1M25 24h1M12 25h7M25 25h1M12 26h1M25 26h1M12 27h1M25 27h1M7 28h1M24 28h1M8 29h1M23 29h1M9 30h2M21 30h2M11 31h10" />
</svg>