<svg xmlns="http://www.w3.org/2000/svg" width="32" height="32" shape-rendering="crispEdges" viewBox="0 -0.5 32 32"><path stroke="olive" d="M4 0h24M3 1h1m23 0h1M3 2h1m22 0h2M3 3h1m22 0h2M3 4h1m22 0h1"/><path stroke="#000" d="M28 0h1m-1 1h1m-1 1h1m-1 1h1m-1 1h1m-1 1h1m-1 1h1m-1 1h1m-1 1h1m-1 1h1m-7 1h2m4 0h1m-8 1h1m6 0h1m-9 1h1m7 0h1m-10 1h1m8 0h1m-10 1h1m4 0h1m3 0h1m-5 1h1m3 0h1m-5 1h1m3 0h1m-5 1h1m3 0h1M6 18h2m15 0h2m3 0h1M8 19h2m11 0h3m4 0h1M7 20h1m2 0h2m7 0h2m2 0h1m4 0h1M8 21h2m2 0h2m3 0h2m2 0h2m5 0h1m-19 1h2m2 0h3m2 0h2m7 0h1m-17 1h2m3 0h2m9 0h1m-15 1h3m11 0h1m-1 1h1m-1 1h1m-1 1h1m-1 1h1m-1 1h1m-2 1h1"/><path stroke="#ff0" d="M4 1h1m1 0h1m1 0h1m1 0h1m1 0h1m1 0h1m1 0h1m1 0h1m1 0h1m1 0h1m1 0h1m1 0h1M4 3h1m1 0h1m1 0h1m1 0h1m1 0h1m1 0h1m1 0h1m1 0h1m1 0h1m1 0h1m1 0h1M5 4h1m1 0h1m1 0h1m1 0h1m1 0h1m1 0h1m1 0h1m1 0h1m1 0h1m1 0h1m1 0h1"/><path stroke="silver" d="M5 1h1m1 0h1m1 0h1m1 0h1m1 0h1m1 0h1m1 0h1m1 0h1m1 0h1m1 0h1m1 0h1M5 3h1m1 0h1m1 0h1m1 0h1m1 0h1m1 0h1m1 0h1m1 0h1m1 0h1m1 0h1m1 0h1M4 4h1m1 0h1m1 0h1m1 0h1m1 0h1m1 0h1m1 0h1m1 0h1m1 0h1m1 0h1m1 0h1m-12 8h1m-3 1h6m3 0h1M8 14h3m2 0h6m1 0h3M7 15h1m2 0h3m2 0h6M8 16h2m2 0h7M8 17h4m2 0h3m-9 1h6m-4 1h5m-7 1h2m2 0h3m-5 1h2m2 0h1m-3 1h2m0 1h1m11 0h1m-1 1h1m-1 1h1m-2 1h2m-2 1h1M3 28h23m0 1h1M5 30h22"/><path stroke="#fff" d="M4 2h22M4 5h22M4 6h22M4 7h22M4 8h13m3 0h6M4 9h12m1 0h3m2 0h4M4 10h10m2 0h6m2 0h2M4 11h8m3 0h6m1 0h4M4 12h6m2 0h1m2 0h5m1 0h5M4 13h4m2 0h1m6 0h2m4 0h3M4 14h2m19 0h1M4 15h2m2 0h2m15 0h1M4 16h2m1 0h1m2 0h2m13 0h1M4 17h2m1 0h1m4 0h2m11 0h1M4 18h2m8 0h1m10 0h1M4 19h3m17 0h2M4 20h3m17 0h2M4 21h4m15 0h3M4 22h6m11 0h5M3 23h9m7 0h6M3 24h11m3 0h8M3 25h22M2 26h22"/><path stroke="gray" d="M27 4h1M3 5h1m22 0h2M3 6h1m22 0h2M3 7h1m22 0h2M3 8h1m13 0h3m6 0h2M3 9h1m12 0h1m3 0h2m4 0h2M3 10h1m10 0h2m10 0h2M3 11h1m8 0h3m11 0h2M3 12h1m6 0h2m2 0h1m11 0h2M3 13h1m4 0h2m11 0h2m3 0h2M3 14h1m2 0h2m15 0h1m2 0h2M3 15h1m2 0h1m14 0h3m2 0h2M3 16h1m2 0h1m12 0h5m2 0h2M3 17h1m2 0h1m10 0h7m2 0h2M3 18h1m11 0h8m3 0h2M3 19h1m3 0h1m7 0h6m5 0h2M3 20h1m11 0h4m2 0h2m3 0h2M3 21h1m11 0h2m2 0h2m5 0h2M3 22h1m13 0h2m7 0h2M2 23h1m12 0h2m8 0h1m1 0h1M2 24h1m22 0h1m1 0h1M2 25h1m22 0h1m1 0h1M1 26h1m22 0h1m2 0h1M1 27h24m1 0h2M2 28h1m23 0h2M2 29h24m1 0h1M4 30h1m-1 1h23"/><path stroke="#0f0" d="M11 14h2"/><path stroke="red" d="M13 15h2"/></svg>