<svg xmlns="http://www.w3.org/2000/svg" width="32" height="32" shape-rendering="crispEdges" viewBox="0 -0.5 32 32"><path stroke="gray" d="M19 0h3m-4 1h1m3 0h2m-7 1h1m6 0h2M16 3h1m9 0h2M15 4h1m-2 1h1m-3 1h3m-5 1h2m1 0h1M8 8h2m3 0h1M6 9h2m3 0h2m9 0h3M4 10h2m3 0h3m10 0h1m2 0h2M2 11h2m3 0h4m12 0h2m2 0h1M0 12h2m3 0h2m2 0h2m10 0h2m2 0h3M0 13h1m2 0h2m6 0h2m6 0h2m2 0h5m1 0h1M0 14h1m2 0h1m9 0h2m2 0h2m2 0h7m2 0h2M0 15h1m2 0h1m11 0h2m2 0h9m2 0h1M0 16h1m2 0h1m9 0h2m2 0h11m1 0h1M0 17h1m2 0h1m7 0h2m2 0h13M0 18h1m2 0h1m7 0h1m1 0h14M0 19h2m1 0h1m7 0h1m1 0h12M1 20h3m7 0h1m1 0h10m2 0h2M1 21h1m2 0h2m5 0h1m1 0h8m2 0h4M6 22h2m3 0h1m1 0h6m2 0h4M8 23h2m1 0h1m1 0h4m2 0h4m-13 1h2m1 0h2m2 0h4m-9 1h1m2 0h4m-6 1h4m-9 1h1m4 0h2M0 28h1m1 0h5m8 0h15m1 0h1"/><path stroke="#fff" d="M19 1h3m-4 1h6m-7 1h2m2 0h5M16 4h5m2 0h2M15 5h2m2 0h5m-9 1h4m2 0h2M12 7h1m1 0h2m2 0h4M10 8h1m3 0h4m2 0h1M8 9h1m4 0h2m2 0h4M6 10h1m7 0h3m2 0h1M4 11h1m11 0h4M2 12h1m15 0h1M1 13h2m-2 1h1m2 0h2m-5 1h1m4 0h2m-7 1h1m6 0h2m-9 1h1m8 0h1M1 18h1m10 0h1M8 29h1m-1 1h1"/><path stroke="#00f" d="M19 3h2m0 1h2m-6 1h2m0 1h2m-5 1h2m0 1h2m-5 1h2m0 1h2"/><path stroke="silver" d="M25 4h1m-2 1h1m-2 1h1m-2 1h1M11 8h2m8 0h1M9 9h2m-4 1h2m11 0h1m2 0h2M5 11h2m4 0h3m7 0h2m2 0h2M3 12h2m2 0h2m2 0h5m3 0h1m3 0h2M5 13h2m2 0h2m2 0h5m3 0h2M2 14h1m3 0h3m2 0h2m2 0h2m2 0h2m8 0h1M2 15h1m1 0h2m2 0h7m2 0h2m10 0h1M2 16h1m1 0h4m2 0h3m2 0h2M2 17h1m1 0h6m3 0h2M2 18h1m1 0h7m-9 1h1m1 0h7m1 0h1m-9 1h7m1 0h1M2 21h2m2 0h5m1 0h1M2 22h4m2 0h3m1 0h1m-9 1h4m2 0h1m1 0h1m-7 1h4m2 0h1m-5 1h4m-2 1h3m-4 1h1m2 0h1M2 29h5m6 0h17"/><path stroke="#000" d="M26 4h2m-3 1h1m-2 1h1m-2 1h1m-2 1h1m-2 1h1m-10 1h2m7 0h1m-8 1h2m4 0h1m7 0h1m-13 1h2m2 0h1m7 0h1m-11 1h1m9 0h1m-1 1h1m-1 1h1m2 0h1m-4 1h1m1 0h1m-3 1h2m-3 1h2m-4 1h3m-5 1h2m2 0h1m-7 1h2m4 0h1M1 22h1m17 0h2m4 0h2M2 23h2m13 0h2m4 0h2M4 24h2m9 0h2m4 0h2M6 25h2m5 0h2m4 0h2M8 26h2m7 0h2m-9 1h2m3 0h2m-5 1h3m-3 1h1M0 30h1m1 0h5m5 0h18m1 0h1M7 31h6"/><path stroke="#0f0" d="M7 13h2"/><path stroke="red" d="M9 14h2"/><path stroke="olive" d="M7 28h5m-5 1h1m3 0h1m-5 1h1m3 0h1"/><path stroke="#ff0" d="M9 29h2m-2 1h2"/></svg>