<svg xmlns="http://www.w3.org/2000/svg" viewBox="0 -0.5 16 16" shape-rendering="crispEdges">
<path stroke="#808000" d="M0 0h1M3 0h11M2 1h1M13 1h1M2 2h11" />
<path stroke="#000000" d="M0 0h1M14 0h1M14 1h1M14 2h1M14 3h1M14 4h1M14 5h1M11 6h1M14 6h1M10 7h1M14 7h1M9 8h1M11 8h1M14 8h1M11 9h1M14 9h1M5 10h2M9 10h2M14 10h1M7 11h2M14 11h1M14 12h1M14 13h1M14 14h1M13 15h1" />
<path stroke="#ffff00" d="M0 0h1M3 1h10" />
<path stroke="#c0c0c0" d="M0 0h1M13 2h1M13 3h1M13 4h1M13 5h1M13 6h1M13 7h1M13 8h1M13 9h1M7 10h1M13 10h1M13 11h1M13 12h1M2 13h11" />
<path stroke="#808080" d="M0 0h1M2 3h1M2 4h1M2 5h1M9 5h2M2 6h1M8 6h1M2 7h1M7 7h1M2 8h1M5 8h2M10 8h1M2 9h1M5 9h1M8 9h3M2 10h1M8 10h1M2 11h1M1 12h1M1 13h1M13 13h1M2 14h12M3 15h10" />
<path stroke="#ffffff" d="M0 0h1M3 3h10M3 4h10M3 5h6M11 5h2M3 6h5M9 6h2M12 6h1M3 7h4M8 7h2M11 7h2M3 8h2M12 8h1M3 9h2M6 9h2M12 9h1M3 10h2M11 10h2M3 11h4M9 11h4M2 12h11" />
<path stroke="#00ff00" d="M0 0h1M7 8h1" />
<path stroke="#ff0000" d="M0 0h1M8 8h1" />
</svg>