<svg xmlns="http://www.w3.org/2000/svg" width="16" height="16" shape-rendering="crispEdges" viewBox="0 -0.5 16 16"><path stroke="gray" d="M9 0h3M8 1h1m3 0h2M7 2h1M5 3h2M3 4h2m1 0h1M1 5h2m4 0h2m4 0h2M0 6h1m8 0h2m2 0h2M0 7h1m10 0h4M0 8h1m8 0h6M0 9h1m6 0h8M0 10h1m6 0h6m-6 1h4m-4 1h2"/><path stroke="#fff" d="M9 1h3M8 2h6M7 3h6M5 4h1m2 0h4M3 5h1m6 0h1M1 6h1M1 7h3M1 8h1m2 0h2M1 9h1m4 0h1m-1 5h1"/><path stroke="#000" d="M14 2h2m-3 1h1m-2 1h1m-2 1h1m-1 1h1m3 0h1m-1 1h1m-1 1h1m-1 1h1M1 10h1m11 0h2M2 11h2m7 0h2m-9 1h2m3 0h2m-5 1h3m-9 1h5m3 0h8M5 15h4"/><path stroke="silver" d="M7 4h1M4 5h3m2 0h1m2 0h1M2 6h2m2 0h3m3 0h1M4 7h2m2 0h3M2 8h2m2 0h3M2 9h4m-4 1h5m-3 1h3m-1 1h1m-7 1h6m3 0h7"/><path stroke="#0f0" d="M4 6h2"/><path stroke="red" d="M6 7h2"/><path stroke="#ff0" d="M5 14h1"/><path stroke="olive" d="M7 14h1"/></svg>