<svg xmlns="http://www.w3.org/2000/svg" viewBox="0 -0.5 16 16" shape-rendering="crispEdges">
<path stroke="#808080" d="M0 0h1M8 0h3M7 1h1M11 1h2M5 2h2M3 3h2M6 3h1M1 4h2M7 4h2M13 4h2M0 5h1M9 5h2M13 5h2M0 6h1M11 6h4M0 7h1M9 7h6M0 8h1M7 8h9M0 9h2M7 9h2M1 10h3M7 10h2M1 11h1M4 11h2M7 11h2M6 12h1M8 12h1M7 13h2M10 13h4M8 14h1M10 14h1M12 14h1M8 15h1" />
<path stroke="#ffffff" d="M0 0h1M8 1h3M7 2h6M5 3h1M8 3h4M3 4h1M10 4h1M1 5h1M1 6h3M1 7h1M4 7h2M1 8h1M6 8h1M10 9h4M10 10h4M10 11h4M13 14h1" />
<path stroke="#000000" d="M0 0h1M13 2h2M12 3h1M11 4h1M11 5h1M15 5h1M15 6h1M15 7h1M15 9h1M15 10h1M15 11h1M2 12h2M7 12h1M15 12h1M4 13h2M15 13h1M6 14h2M11 14h1M15 14h1M9 15h6" />
<path stroke="#c0c0c0" d="M0 0h1M7 3h1M4 4h3M9 4h1M12 4h1M2 5h2M6 5h3M12 5h1M4 6h2M8 6h3M2 7h2M6 7h3M2 8h4M2 9h5M9 9h1M14 9h1M4 10h3M9 10h1M14 10h1M2 11h2M6 11h1M9 11h1M14 11h1M4 12h2M9 12h6M6 13h1M9 13h1M14 13h1M9 14h1M14 14h1" />
<path stroke="#00ff00" d="M0 0h1M4 5h2" />
<path stroke="#ff0000" d="M0 0h1M6 6h2" />
</svg>