<svg xmlns="http://www.w3.org/2000/svg" viewBox="0 -0.5 16 16" shape-rendering="crispEdges">
<path stroke="#808080" d="M0 0h1M5 1h8M4 2h1M4 3h1M3 4h1M3 5h1M2 6h1M14 6h1M1 7h2M13 7h1M0 8h1M12 8h1M14 8h1M0 9h11M13 9h2M0 10h1M7 10h3M13 10h1M0 11h1M0 12h1M13 12h1M2 13h9M12 13h1" />
<path stroke="#000000" d="M0 0h1M13 1h1M13 2h1M6 3h5M12 3h1M12 4h1M5 5h5M11 5h4M11 6h1M13 6h1M15 6h1M3 7h8M12 7h1M14 7h2M11 8h1M13 8h1M15 8h1M11 9h2M15 9h1M12 10h1M14 10h1M12 11h3M1 12h12M14 12h1M1 13h1M11 13h1M13 13h1M2 14h11" />
<path stroke="#ffffff" d="M0 0h1M5 2h8M5 3h1M11 3h1M4 4h8M4 5h1M10 5h1M3 6h8" />
<path stroke="#c0c0c0" d="M0 0h1M12 6h1M11 7h1M1 8h10M1 10h6M10 10h2M1 11h6M10 11h2" />
<path stroke="#ffff00" d="M0 0h1M7 11h3" />
</svg>