<svg xmlns="http://www.w3.org/2000/svg" viewBox="0 -0.5 32 32" shape-rendering="crispEdges">
<path stroke="#000000" d="M0 0h1M9 0h18M8 1h1M27 1h1M8 2h1M27 2h1M8 3h1M11 3h14M27 3h1M8 4h1M11 4h1M24 4h1M27 4h1M8 5h1M11 5h1M24 5h1M27 5h1M8 6h1M11 6h1M24 6h1M27 6h1M8 7h1M11 7h1M24 7h1M27 7h1M4 8h2M8 8h1M11 8h1M24 8h1M27 8h1M3 9h1M5 9h1M8 9h4M24 9h1M27 9h1M2 10h1M5 10h1M7 10h1M12 10h1M24 10h1M27 10h1M1 11h1M4 11h1M6 11h2M12 11h1M24 11h1M27 11h1M0 12h1M3 12h1M7 12h6M24 12h1M27 12h1M0 13h1M2 13h1M6 13h1M11 13h14M27 13h1M0 14h7M10 14h1M12 14h1M27 14h1M1 15h2M7 15h1M9 15h1M12 15h1M27 15h1M2 16h1M7 16h2M12 16h18M2 17h6M12 17h1M30 17h1M2 18h1M7 18h1M12 18h1M30 18h1M2 19h1M7 19h1M12 19h1M30 19h1M2 20h1M7 20h1M12 20h1M14 20h10M30 20h1M2 21h1M7 21h1M12 21h1M15 21h4M20 21h3M30 21h1M2 22h1M7 22h1M12 22h1M16 22h8M30 22h1M2 23h1M7 23h1M12 23h5M24 23h6M2 24h1M7 24h1M12 24h1M17 24h8M2 25h1M7 25h1M11 25h1M2 26h1M7 26h1M10 26h10M2 27h1M7 27h1M9 27h1M12 27h1M18 27h8M2 28h1M7 28h2M13 28h6M26 28h1M2 29h6M14 29h4M19 29h9M15 30h9M25 30h4M21 31h9" />
<path stroke="#ffffff" d="M0 0h1M9 1h18M9 2h18M9 3h2M25 3h2M9 4h2M25 4h2M9 5h2M20 5h1M22 5h1M25 5h2M9 6h2M20 6h1M22 6h1M25 6h2M9 7h2M20 7h1M22 7h1M25 7h2M9 8h2M22 8h1M25 8h2M4 9h1M22 9h1M25 9h2M3 10h2M8 10h4M25 10h2M2 11h2M5 11h1M8 11h4M25 11h2M1 12h2M4 12h3M25 12h2M1 13h1M3 13h3M7 13h4M25 13h2M7 14h3M13 14h14M3 15h4M8 15h1M13 15h14M3 16h4M13 17h17M11 18h1M13 18h17M10 19h2M13 19h17M9 20h3M13 20h1M24 20h6M8 21h4M13 21h2M19 21h1M23 21h7M3 22h4M8 22h4M13 22h3M24 22h6M3 23h4M8 23h4M18 23h1M20 23h1M22 23h1M3 24h4M8 24h4M3 25h4M8 25h3M3 26h4M8 26h2M3 27h4M8 27h1M14 27h1M16 27h1M3 28h4M20 28h1M22 28h1M24 28h1M18 29h1M24 30h1" />
<path stroke="#0000ff" d="M0 0h1M12 4h12M12 5h8M21 5h1M23 5h1M12 6h8M21 6h1M23 6h1M12 7h8M21 7h1M23 7h1M12 8h10M23 8h1M12 9h10M23 9h1M13 10h11M13 11h11M13 12h11M11 14h1M10 15h2M9 16h3M8 17h4M3 18h4M8 18h3M3 19h4M8 19h2M3 20h4M8 20h1M3 21h4" />
<path stroke="#ffff00" d="M0 0h1M17 23h1M19 23h1M21 23h1M23 23h1M13 27h1M15 27h1M17 27h1M19 28h1M21 28h1M23 28h1M25 28h1" />
</svg>