<svg xmlns="http://www.w3.org/2000/svg" width="32" height="32" shape-rendering="crispEdges" viewBox="0 -0.5 32 32"><path stroke="#000" d="M9 0h18M8 1h1m18 0h1M8 2h1m18 0h1M8 3h1m2 0h14m2 0h1M8 4h1m2 0h14m2 0h1M8 5h1m2 0h9m1 0h1m1 0h2m2 0h1M8 6h1m2 0h9m1 0h1m1 0h2m2 0h1M8 7h1m2 0h9m1 0h1m1 0h2m2 0h1M4 8h2m2 0h1m2 0h11m1 0h2m2 0h1M3 9h1m1 0h1m2 0h14m1 0h2m2 0h1M2 10h1m2 0h1m1 0h1m4 0h13m2 0h1M1 11h1m2 0h1m1 0h2m4 0h13m2 0h1M0 12h1m2 0h1m3 0h18m2 0h1M0 13h1m1 0h1m3 0h1m4 0h14m2 0h1M0 14h7m3 0h3m14 0h1M1 15h2m4 0h1m1 0h4m14 0h1M2 16h1m4 0h23M2 17h11m17 0h1M2 18h9m1 0h1m17 0h1M2 19h8m2 0h1m17 0h1M2 20h7m3 0h1m1 0h10m6 0h1M2 21h6m4 0h1m2 0h4m1 0h3m7 0h1M2 22h1m4 0h1m4 0h1m3 0h8m6 0h1M2 23h1m4 0h1m4 0h6m1 0h1m1 0h1m1 0h7M2 24h1m4 0h1m4 0h1m4 0h8M2 25h1m4 0h1m3 0h1M2 26h1m4 0h1m2 0h10M2 27h1m4 0h1m1 0h1m2 0h1m5 0h8M2 28h1m4 0h2m4 0h6m7 0h1M2 29h6m6 0h4m1 0h9m-13 1h9m1 0h4m-8 1h9"/><path stroke="#fff" d="M9 1h18M9 2h18M9 3h2m14 0h2M9 4h2m14 0h2M9 5h2m9 0h1m1 0h1m2 0h2M9 6h2m9 0h1m1 0h1m2 0h2M9 7h2m9 0h1m1 0h1m2 0h2M9 8h2m11 0h1m2 0h2M4 9h1m17 0h1m2 0h2M3 10h2m3 0h4m13 0h2M2 11h2m1 0h1m2 0h4m13 0h2M1 12h2m1 0h3m18 0h2M1 13h1m1 0h3m1 0h4m14 0h2M7 14h3m3 0h14M3 15h4m1 0h1m4 0h14M3 16h4m6 1h17m-19 1h1m1 0h17m-20 1h2m1 0h17M9 20h3m1 0h1m10 0h6M8 21h4m1 0h2m4 0h1m3 0h7M3 22h4m1 0h4m1 0h3m8 0h6M3 23h4m1 0h4m6 0h1m1 0h1m1 0h1M3 24h4m1 0h4m-9 1h4m1 0h3m-8 1h4m1 0h2m-7 1h4m1 0h1m4 0h5M3 28h4m12 0h7m-8 1h1m5 1h1"/></svg>