<svg xmlns="http://www.w3.org/2000/svg" viewBox="0 -0.5 32 32" shape-rendering="crispEdges">
<path stroke="#008080" d="M0 0h1M2 2h1M2 3h1M2 4h2M1 5h3M1 6h4M1 7h4M0 8h6M0 9h6M0 10h6M0 11h5M0 12h4M6 12h3M0 13h3M5 13h3M1 14h1M4 14h3M4 15h2M3 16h2M4 17h1" />
<path stroke="#000000" d="M0 0h1M3 2h1M25 2h1M3 3h1M25 3h1M4 4h1M24 4h1M4 5h1M24 5h1M5 6h1M23 6h1M5 7h1M23 7h1M6 8h1M22 8h1M6 9h1M22 9h1M6 10h2M21 10h1M5 11h1M8 11h1M22 11h2M4 12h1M9 12h1M21 12h1M24 12h1M3 13h1M8 13h2M21 13h2M25 13h1M0 14h1M2 14h1M7 14h1M10 14h11M23 14h1M26 14h1M1 15h2M6 15h1M14 15h1M24 15h1M27 15h1M31 15h1M2 16h1M5 16h1M13 16h1M25 16h1M28 16h1M30 16h1M3 17h1M5 17h1M12 17h1M16 17h2M26 17h1M28 17h2M4 18h2M13 18h3M18 18h1M25 18h3M6 19h1M19 19h1M24 19h1M7 20h1M9 20h2M12 20h2M20 20h5M7 21h2M11 21h1M14 21h2M24 21h1M7 22h1M10 22h1M13 22h1M16 22h1M19 22h5M8 23h2M12 23h1M15 23h1M17 23h1M22 23h1M10 24h2M14 24h1M17 24h5M12 25h2M16 25h1M19 25h1M14 26h5" />
<path stroke="#c0c0c0" d="M0 0h1M26 2h1M27 3h1M26 4h1M28 4h1M25 5h1M27 5h1M24 6h1M26 6h1M28 6h1M25 7h1M27 7h1M29 7h1M24 8h1M26 8h1M28 8h3M23 9h1M25 9h1M27 9h3M24 10h1M26 10h3M30 10h1M25 11h3M29 11h1M31 11h1M25 12h2M28 12h1M30 12h1M27 13h1M29 13h1M8 14h2M28 14h1M7 15h2M6 16h2M26 16h2M6 17h1M15 17h1M18 17h1M24 17h1M6 18h1M12 18h1M16 18h2M19 18h1M23 18h1M18 19h1M20 19h4M11 20h1M14 20h1M19 20h1M12 21h1M16 21h1M20 21h2M11 22h1M14 22h1M17 22h1M10 23h1M13 23h1M16 23h1M18 23h2M12 24h1M15 24h1M14 25h1" />
<path stroke="#ffffff" d="M0 0h1M26 3h1M25 4h1M27 4h1M26 5h1M28 5h1M25 6h1M27 6h1M29 6h1M24 7h1M26 7h1M28 7h1M23 8h1M25 8h1M27 8h1M24 9h1M26 9h1M23 10h1M25 10h1M24 11h1M22 14h1M9 15h5M15 15h9M8 16h5M14 16h11M7 17h5M13 17h2M19 17h5M7 18h5M20 18h3M7 19h11M8 20h1M15 20h4M9 21h2M13 21h1M17 21h3M8 22h2M12 22h1M15 22h1M18 22h1M11 23h1M14 23h1M13 24h1M16 24h1M15 25h1" />
<path stroke="#808080" d="M0 0h1M30 9h1M22 10h1M29 10h1M21 11h1M28 11h1M30 11h1M27 12h1M29 12h1M31 12h1M26 13h1M28 13h1M30 13h2M21 14h1M27 14h1M29 14h3M28 15h3M29 16h1M25 17h1M27 17h1M24 18h1M22 21h2M20 23h2M17 25h2M7 26h1M24 26h1M4 27h1M8 27h2M22 27h2M27 27h1M5 28h1M26 28h1M6 29h3M23 29h3" />
<path stroke="#00ffff" d="M0 0h1M6 11h2M5 12h1M4 13h1M3 14h1M3 15h1" />
<path stroke="#ffff00" d="M0 0h1M22 12h2M23 13h2M24 14h2M25 15h2" />
</svg>