<svg xmlns="http://www.w3.org/2000/svg" viewBox="0 -0.5 32 32" shape-rendering="crispEdges">
<path stroke="#000000" d="M0 0h1M2 0h13M1 1h1M15 1h1M1 2h1M3 2h11M15 2h1M1 3h1M3 3h1M13 3h1M15 3h1M1 4h1M3 4h1M13 4h1M15 4h1M1 5h1M15 5h1M1 6h1M15 6h12M1 7h1M4 7h1M7 7h1M10 7h1M13 7h1M15 7h1M26 7h1M1 8h1M3 8h2M6 8h2M9 8h2M12 8h2M15 8h1M26 8h1M1 9h1M15 9h1M26 9h1M1 10h1M4 10h1M7 10h1M10 10h1M13 10h1M15 10h1M26 10h1M30 10h2M1 11h1M3 11h2M6 11h2M9 11h2M12 11h2M15 11h1M26 11h1M28 11h2M31 11h1M1 12h1M15 12h1M26 12h2M29 12h2M1 13h1M4 13h1M7 13h1M10 13h1M13 13h1M15 13h1M26 13h1M30 13h1M1 14h1M3 14h2M6 14h2M9 14h2M12 14h2M15 14h1M25 14h1M29 14h2M1 15h1M15 15h1M24 15h1M28 15h1M30 15h1M1 16h1M4 16h1M7 16h1M10 16h1M13 16h1M15 16h1M23 16h1M27 16h1M30 16h1M1 17h1M3 17h2M6 17h2M9 17h2M12 17h2M15 17h1M22 17h1M24 17h1M26 17h1M29 17h1M1 18h1M15 18h1M21 18h1M25 18h2M28 18h1M2 19h13M20 19h1M24 19h1M26 19h2M2 20h1M19 20h1M23 20h1M26 20h1M2 21h1M18 21h1M22 21h1M26 21h1M2 22h1M17 22h1M21 22h1M26 22h1M2 23h1M17 23h1M20 23h1M26 23h1M2 24h1M16 24h1M18 24h2M26 24h1M2 25h1M16 25h2M26 25h1M2 26h1M15 26h1M26 26h1M2 27h1M26 27h1M2 28h1M26 28h1M2 29h1M26 29h1M2 30h25" />
<path stroke="#00ffff" d="M0 0h1M2 1h12M2 2h1M2 3h1M2 4h1M2 5h1M2 6h1M2 7h2M6 7h1M9 7h1M12 7h1M2 8h1M2 9h1M2 10h2M6 10h1M9 10h1M12 10h1M2 11h1M2 12h1M2 13h2M6 13h1M9 13h1M12 13h1M2 14h1M2 15h1M2 16h2M6 16h1M9 16h1M12 16h1M2 17h1" />
<path stroke="#008080" d="M0 0h1M14 1h1M14 2h1M14 3h1M14 4h1M3 5h12M3 6h12M5 7h1M8 7h1M11 7h1M14 7h1M5 8h1M8 8h1M11 8h1M14 8h1M3 9h12M5 10h1M8 10h1M11 10h1M14 10h1M5 11h1M8 11h1M11 11h1M14 11h1M3 12h12M5 13h1M8 13h1M11 13h1M14 13h1M5 14h1M8 14h1M11 14h1M14 14h1M3 15h12M5 16h1M8 16h1M11 16h1M14 16h1M5 17h1M8 17h1M11 17h1M14 17h1M2 18h13" />
<path stroke="#808080" d="M0 0h1M16 2h1M16 3h1M16 4h1M16 5h1M18 7h1M27 7h1M18 8h1M27 8h1M18 9h1M27 9h1M16 10h10M27 10h1M18 11h1M27 11h1M18 12h1M18 13h1M29 13h1M16 14h9M28 14h1M18 15h1M27 15h1M18 16h1M26 16h1M18 17h1M27 17h1M16 18h5M24 18h1M27 18h1M18 19h1M23 19h1M10 20h1M18 20h1M22 20h1M27 20h1M10 21h1M21 21h1M27 21h1M3 22h14M20 22h1M22 22h4M27 22h1M10 23h1M18 23h2M27 23h1M10 24h1M27 24h1M10 25h1M18 25h1M27 25h1M3 26h12M16 26h10M27 26h1M10 27h1M18 27h1M27 27h1M10 28h1M18 28h1M27 28h1M10 29h1M18 29h1M27 29h1M27 30h1M3 31h25" />
<path stroke="#c0c0c0" d="M0 0h1M4 3h9M4 4h1M16 7h1M16 8h1M16 9h1M16 11h1M16 12h1M16 13h1M16 15h1M16 16h1M16 17h1M25 17h1M15 19h2M25 19h1M3 20h7M11 20h5M24 20h1M23 21h1M21 23h1M20 24h1" />
<path stroke="#ffffff" d="M0 0h1M5 4h8M17 7h1M19 7h7M17 8h1M19 8h7M17 9h1M19 9h7M17 11h1M19 11h7M30 11h1M17 12h1M19 12h7M28 12h1M17 13h1M19 13h7M27 13h1M26 14h1M17 15h1M19 15h5M25 15h1M17 16h1M19 16h4M24 16h1M17 17h1M19 17h3M23 17h1M22 18h1M17 19h1M19 19h1M21 19h1M16 20h2M20 20h1M25 20h1M3 21h7M11 21h7M19 21h1M24 21h2M3 23h7M11 23h6M22 23h4M3 24h7M11 24h5M21 24h5M3 25h7M11 25h5M19 25h7M3 27h7M11 27h7M19 27h7M3 28h7M11 28h7M19 28h7M3 29h7M11 29h7M19 29h7" />
<path stroke="#ffff00" d="M0 0h1M28 13h1M27 14h1M26 15h1M25 16h1M23 18h1M22 19h1M21 20h1M20 21h1M18 22h2M17 24h1" />
</svg>