<svg xmlns="http://www.w3.org/2000/svg" viewBox="0 -0.5 32 32" shape-rendering="crispEdges">
<path stroke="#000000" d="M0 0h1M3 4h27M2 5h1M30 5h1M1 6h1M31 6h1M1 7h1M31 7h1M1 8h1M5 8h23M31 8h1M1 9h1M5 9h1M27 9h1M31 9h1M1 10h1M5 10h1M27 10h1M31 10h1M1 11h1M5 11h1M27 11h1M31 11h1M1 12h1M5 12h1M27 12h1M31 12h1M1 13h1M5 13h1M27 13h1M31 13h1M1 14h1M5 14h1M27 14h1M31 14h1M1 15h1M5 15h1M27 15h1M31 15h1M1 16h1M5 16h1M27 16h1M31 16h1M1 17h1M5 17h1M27 17h1M31 17h1M1 18h1M5 18h1M27 18h1M31 18h1M1 19h1M5 19h1M27 19h1M31 19h1M1 20h1M5 20h1M27 20h1M31 20h1M1 21h1M5 21h1M27 21h1M31 21h1M1 22h1M5 22h1M27 22h1M31 22h1M1 23h1M5 23h23M31 23h1M1 24h1M31 24h1M1 25h1M31 25h1M2 26h1M30 26h1M3 27h27" />
<path stroke="#ffffff" d="M0 0h1M3 5h27M2 6h1M2 7h1M2 8h1M28 8h1M2 9h1M11 9h1M16 9h1M19 9h3M28 9h1M2 10h1M11 10h2M15 10h2M18 10h1M22 10h1M28 10h1M2 11h1M11 11h1M13 11h2M16 11h1M19 11h2M28 11h1M2 12h1M11 12h1M16 12h1M21 12h1M28 12h1M2 13h1M11 13h1M16 13h1M18 13h1M22 13h1M28 13h1M2 14h1M11 14h1M16 14h1M19 14h3M28 14h1M2 15h1M28 15h1M2 16h1M8 16h4M15 16h3M21 16h3M28 16h1M2 17h1M8 17h1M12 17h1M14 17h1M18 17h1M20 17h1M24 17h1M28 17h1M2 18h1M8 18h1M12 18h1M14 18h1M18 18h1M21 18h2M28 18h1M2 19h1M8 19h1M12 19h1M14 19h1M18 19h1M23 19h1M28 19h1M2 20h1M8 20h1M12 20h1M14 20h1M18 20h1M20 20h1M24 20h1M28 20h1M2 21h1M8 21h4M15 21h3M21 21h3M28 21h1M2 22h1M28 22h1M2 23h1M28 23h1M2 24h1M5 24h23M2 25h1" />
<path stroke="#c0c0c0" d="M0 0h1M3 6h27M3 7h2M28 7h2M3 8h1M29 8h1M3 9h1M29 9h1M3 10h1M29 10h1M3 11h1M29 11h1M3 12h1M29 12h1M3 13h1M29 13h1M3 14h1M29 14h1M3 15h1M29 15h1M3 16h1M29 16h1M3 17h1M29 17h1M3 18h1M29 18h1M3 19h1M29 19h1M3 20h1M29 20h1M3 21h1M29 21h1M3 22h1M29 22h1M3 23h1M29 23h1M3 24h2M28 24h2M3 25h27" />
<path stroke="#808080" d="M0 0h1M30 6h1M5 7h23M30 7h1M4 8h1M30 8h1M4 9h1M18 9h1M22 9h1M30 9h1M4 10h1M30 10h1M4 11h1M18 11h1M21 11h1M30 11h1M4 12h1M22 12h1M30 12h1M4 13h1M30 13h1M4 14h1M18 14h1M22 14h1M30 14h1M4 15h1M30 15h1M4 16h1M20 16h1M24 16h1M30 16h1M4 17h1M30 17h1M4 18h1M20 18h1M23 18h1M30 18h1M4 19h1M24 19h1M30 19h1M4 20h1M30 20h1M4 21h1M20 21h1M24 21h1M30 21h1M4 22h1M30 22h1M4 23h1M30 23h1M30 24h1M30 25h1M3 26h27" />
<path stroke="#0000ff" d="M0 0h1M6 9h1M8 9h1M10 9h1M12 9h1M14 9h1M24 9h1M26 9h1M7 10h1M9 10h1M13 10h1M17 10h1M19 10h1M21 10h1M23 10h1M25 10h1M6 11h1M8 11h1M10 11h1M12 11h1M22 11h1M24 11h1M26 11h1M7 12h1M9 12h1M13 12h1M15 12h1M17 12h1M19 12h1M23 12h1M25 12h1M6 13h1M8 13h1M10 13h1M12 13h1M14 13h1M20 13h1M24 13h1M26 13h1M7 14h1M9 14h1M13 14h1M15 14h1M17 14h1M23 14h1M25 14h1M6 15h1M8 15h1M10 15h1M12 15h1M14 15h1M16 15h1M18 15h1M20 15h1M22 15h1M24 15h1M26 15h1M7 16h1M13 16h1M19 16h1M25 16h1M6 17h1M10 17h1M16 17h1M22 17h1M26 17h1M7 18h1M9 18h1M11 18h1M13 18h1M15 18h1M17 18h1M19 18h1M25 18h1M6 19h1M10 19h1M16 19h1M20 19h1M22 19h1M26 19h1M7 20h1M9 20h1M11 20h1M13 20h1M15 20h1M17 20h1M19 20h1M21 20h1M23 20h1M25 20h1M6 21h1M12 21h1M14 21h1M18 21h1M26 21h1M7 22h1M9 22h1M11 22h1M13 22h1M15 22h1M17 22h1M19 22h1M21 22h1M23 22h1M25 22h1" />
<path stroke="#000080" d="M0 0h1M7 9h1M9 9h1M13 9h1M15 9h1M17 9h1M23 9h1M25 9h1M6 10h1M8 10h1M10 10h1M14 10h1M20 10h1M24 10h1M26 10h1M7 11h1M9 11h1M15 11h1M17 11h1M23 11h1M25 11h1M6 12h1M8 12h1M10 12h1M12 12h1M14 12h1M18 12h1M20 12h1M24 12h1M26 12h1M7 13h1M9 13h1M13 13h1M15 13h1M17 13h1M19 13h1M21 13h1M23 13h1M25 13h1M6 14h1M8 14h1M10 14h1M12 14h1M14 14h1M24 14h1M26 14h1M7 15h1M9 15h1M11 15h1M13 15h1M15 15h1M17 15h1M19 15h1M21 15h1M23 15h1M25 15h1M6 16h1M12 16h1M14 16h1M18 16h1M26 16h1M7 17h1M9 17h1M11 17h1M13 17h1M15 17h1M17 17h1M19 17h1M21 17h1M23 17h1M25 17h1M6 18h1M10 18h1M16 18h1M24 18h1M26 18h1M7 19h1M9 19h1M11 19h1M13 19h1M15 19h1M17 19h1M19 19h1M21 19h1M25 19h1M6 20h1M10 20h1M16 20h1M22 20h1M26 20h1M7 21h1M13 21h1M19 21h1M25 21h1M6 22h1M8 22h1M10 22h1M12 22h1M14 22h1M16 22h1M18 22h1M20 22h1M22 22h1M24 22h1M26 22h1" />
</svg>