<svg xmlns="http://www.w3.org/2000/svg" viewBox="0 -0.5 32 32" shape-rendering="crispEdges">
<path stroke="#000000" d="M0 0h1M14 4h4M13 5h1M18 5h1M6 6h2M12 6h1M17 6h1M19 6h1M22 6h4M4 7h2M8 7h4M18 7h4M26 7h3M3 8h1M5 8h3M11 8h1M18 8h1M21 8h5M29 8h1M2 9h1M29 9h1M1 10h1M29 10h1M1 11h1M12 11h5M29 11h1M1 12h1M10 12h2M17 12h2M28 12h2M1 13h9M19 13h11M1 14h1M4 14h1M6 14h1M8 14h1M20 14h1M22 14h1M24 14h1M26 14h2M29 14h1M1 15h1M3 15h1M5 15h1M7 15h1M10 15h5M19 15h1M21 15h1M23 15h1M25 15h1M27 15h3M1 16h1M4 16h1M6 16h1M9 16h1M15 16h1M18 16h1M20 16h3M24 16h1M26 16h2M29 16h1M1 17h1M3 17h1M5 17h1M8 17h1M16 17h1M19 17h3M23 17h1M25 17h1M27 17h3M1 18h1M4 18h2M7 18h1M17 18h1M19 18h4M24 18h1M26 18h2M29 18h1M1 19h1M3 19h1M5 19h1M7 19h1M17 19h1M19 19h3M23 19h1M25 19h1M27 19h3M1 20h1M4 20h2M7 20h1M17 20h1M19 20h4M24 20h1M26 20h2M29 20h1M1 21h1M3 21h1M5 21h1M7 21h1M17 21h1M19 21h3M23 21h1M25 21h1M27 21h3M1 22h1M4 22h2M7 22h1M17 22h1M19 22h2M22 22h1M24 22h1M26 22h2M29 22h1M1 23h1M3 23h1M5 23h1M8 23h1M16 23h1M19 23h1M21 23h1M23 23h1M25 23h1M27 23h3M1 24h1M4 24h1M6 24h1M9 24h1M15 24h1M18 24h1M20 24h1M22 24h1M24 24h1M26 24h3M2 25h2M5 25h1M7 25h1M10 25h5M17 25h1M19 25h1M21 25h1M23 25h1M25 25h1M27 25h1M3 26h6M16 26h11M10 27h5" />
<path stroke="#ffffff" d="M0 0h1M14 5h3M6 7h1M22 7h3M3 9h24M2 10h1M2 11h1M2 12h1M16 12h1M11 13h5M15 14h2M12 17h1M11 18h1M10 19h1M10 20h1" />
<path stroke="#808080" d="M0 0h1M17 5h1M8 6h1M18 6h1M26 6h1M7 7h1M25 7h1M8 8h1M12 8h6M19 8h1M26 8h1M28 9h1M27 10h2M27 11h2M27 12h1M10 13h1M2 14h2M5 14h1M7 14h1M9 14h1M18 14h2M21 14h1M23 14h1M25 14h1M28 14h1M2 15h1M4 15h1M6 15h1M17 15h2M20 15h1M22 15h1M24 15h1M26 15h1M2 16h2M5 16h1M8 16h1M10 16h5M16 16h1M19 16h1M23 16h1M25 16h1M28 16h1M2 17h1M4 17h1M6 17h1M9 17h2M14 17h2M18 17h1M22 17h1M24 17h1M26 17h1M2 18h2M8 18h2M12 18h5M23 18h1M25 18h1M28 18h1M2 19h1M4 19h1M8 19h2M12 19h5M22 19h1M24 19h1M26 19h1M2 20h2M8 20h2M11 20h6M23 20h1M25 20h1M28 20h1M2 21h1M4 21h1M8 21h2M11 21h6M22 21h1M24 21h1M26 21h1M2 22h2M8 22h9M21 22h1M23 22h1M25 22h1M28 22h1M2 23h1M4 23h1M6 23h1M9 23h7M18 23h1M20 23h1M22 23h1M24 23h1M26 23h1M2 24h2M5 24h1M8 24h1M10 24h5M16 24h1M19 24h1M21 24h1M23 24h1M25 24h1M4 25h1M6 25h1M18 25h1M20 25h1M22 25h1M24 25h1M26 25h1M9 26h1M15 26h1M9 27h1M15 27h1" />
<path stroke="#c0c0c0" d="M0 0h1M13 6h4M12 7h6M4 8h1M9 8h2M20 8h1M27 8h2M27 9h1M3 10h24M3 11h9M17 11h10M3 12h7M12 12h4M19 12h8M16 13h3M10 14h5M17 14h1M8 15h2M15 15h2M7 16h1M17 16h1M7 17h1M11 17h1M13 17h1M17 17h1M6 18h1M10 18h1M18 18h1M6 19h1M11 19h1M18 19h1M6 20h1M18 20h1M6 21h1M10 21h1M18 21h1M6 22h1M18 22h1M7 23h1M17 23h1M7 24h1M17 24h1M8 25h2M15 25h2M10 26h5" />
</svg>