<svg xmlns="http://www.w3.org/2000/svg" width="32" height="32" shape-rendering="crispEdges" viewBox="0 -0.5 32 32"><path stroke="#000" d="M21 0h5m-6 1h1m5 0h1m-8 1h2m6 0h1m-9 1h2m6 0h1M12 4h2m5 0h1m1 0h5m1 0h1M11 5h1m2 0h2m4 0h1m5 0h1M11 6h1m4 0h2m3 0h5M10 7h1m7 0h4m3 0h2M10 8h1m8 0h1m1 0h1m3 0h1m1 0h1M9 9h1m8 0h1m2 0h1m3 0h1m2 0h1M9 10h1m8 0h1m3 0h3m3 0h1M8 11h1m9 0h1m9 0h1M8 12h1m9 0h1m9 0h2M7 13h1m11 0h1m7 0h1m2 0h2M7 14h1m12 0h7m4 0h1M6 15h1m16 0h1m6 0h1M6 16h1m16 0h1m6 0h1M5 17h1m17 0h1m5 0h1M5 18h1m23 0h1M4 19h1m23 0h1M3 20h1m24 0h1M0 21h3m24 0h1M0 22h1m26 0h1M1 23h1m24 0h1M2 24h1m23 0h1M3 25h2m20 0h1M5 26h2m17 0h2M7 27h2m14 0h2M9 28h2m6 0h7m-13 1h2m4 0h1m4 0h1m-10 1h4m3 0h2m-7 1h5"/><path stroke="#fff" d="M21 1h5m-5 1h6m-6 1h6m-7 1h1m5 0h1M12 5h2m7 0h5M12 6h4m-5 1h7m4 0h3M11 8h8m1 0h1m1 0h3m1 0h1M10 9h8m1 0h2m1 0h3m1 0h2m-18 1h8m1 0h3m3 0h3M9 11h9m1 0h9M9 12h9m1 0h9M8 13h11m1 0h7m1 0h2M8 14h12m7 0h4M7 15h16m1 0h6M7 16h16m1 0h6M6 17h17m1 0h5M6 18h23M5 19h23M4 20h24M3 21h24M1 22h26M2 23h24M3 24h23M5 25h20M7 26h17M9 27h14m-12 1h6m-4 1h4m1 0h4m-5 1h3"/></svg>