<svg xmlns="http://www.w3.org/2000/svg" width="32" height="32" shape-rendering="crispEdges" viewBox="0 -0.5 32 32"><path stroke="#000" d="M2 0h13M1 1h1m13 0h1M1 2h1m1 0h11m1 0h1M1 3h1m1 0h1m9 0h1m1 0h1M1 4h1m1 0h1m9 0h1m1 0h1M1 5h1m13 0h1M1 6h1m13 0h12M1 7h1m2 0h1m2 0h1m2 0h1m2 0h1m1 0h1m10 0h1M1 8h1m1 0h2m1 0h2m1 0h2m1 0h2m1 0h1m10 0h1M1 9h1m13 0h1m10 0h1M1 10h1m2 0h1m2 0h1m2 0h1m2 0h1m1 0h1m10 0h1m3 0h2M1 11h1m1 0h2m1 0h2m1 0h2m1 0h2m1 0h1m10 0h1m1 0h2m1 0h1M1 12h1m13 0h1m10 0h2m1 0h2M1 13h1m2 0h1m2 0h1m2 0h1m2 0h1m1 0h1m10 0h1m3 0h1M1 14h1m1 0h2m1 0h2m1 0h2m1 0h2m1 0h1m9 0h1m3 0h2M1 15h1m13 0h1m8 0h1m3 0h1m1 0h1M1 16h1m2 0h1m2 0h1m2 0h1m2 0h1m1 0h1m7 0h1m3 0h1m2 0h1M1 17h1m1 0h2m1 0h2m1 0h2m1 0h2m1 0h1m6 0h1m1 0h1m1 0h1m2 0h1M1 18h1m13 0h1m5 0h1m3 0h2m1 0h1M2 19h13m5 0h1m3 0h1m1 0h2M2 20h1m16 0h1m3 0h1m2 0h1M2 21h1m15 0h1m3 0h1m3 0h1M2 22h1m14 0h1m3 0h1m4 0h1M2 23h1m14 0h1m2 0h1m5 0h1M2 24h1m13 0h1m1 0h2m6 0h1M2 25h1m13 0h2m8 0h1M2 26h1m12 0h1m10 0h1M2 27h1m23 0h1M2 28h1m23 0h1M2 29h1m23 0h1M2 30h25"/><path stroke="#0ff" d="M2 1h12M2 2h1M2 3h1M2 4h1M2 5h1M2 6h1M2 7h2m2 0h1m2 0h1m2 0h1M2 8h1M2 9h1m-1 1h2m2 0h1m2 0h1m2 0h1M2 11h1m-1 1h1m-1 1h2m2 0h1m2 0h1m2 0h1M2 14h1m-1 1h1m-1 1h2m2 0h1m2 0h1m2 0h1M2 17h1"/><path stroke="teal" d="M14 1h1m-1 1h1m-1 1h1m-1 1h1M3 5h12M3 6h12M5 7h1m2 0h1m2 0h1m2 0h1M5 8h1m2 0h1m2 0h1m2 0h1M3 9h12M5 10h1m2 0h1m2 0h1m2 0h1M5 11h1m2 0h1m2 0h1m2 0h1M3 12h12M5 13h1m2 0h1m2 0h1m2 0h1M5 14h1m2 0h1m2 0h1m2 0h1M3 15h12M5 16h1m2 0h1m2 0h1m2 0h1M5 17h1m2 0h1m2 0h1m2 0h1M2 18h13"/><path stroke="gray" d="M16 2h1m-1 1h1m-1 1h1m-1 1h1m1 2h1m8 0h1M18 8h1m8 0h1M18 9h1m8 0h1m-12 1h10m1 0h1m-10 1h1m8 0h1m-10 1h1m-1 1h1m10 0h1m-14 1h9m3 0h1m-11 1h1m8 0h1m-10 1h1m7 0h1m-9 1h1m8 0h1m-12 1h5m3 0h1m2 0h1m-10 1h1m4 0h1m-14 1h1m7 0h1m3 0h1m4 0h1m-18 1h1m10 0h1m5 0h1M3 22h14m3 0h1m1 0h4m1 0h1m-18 1h1m7 0h2m7 0h1m-18 1h1m16 0h1m-18 1h1m7 0h1m8 0h1M3 26h12m1 0h10m1 0h1m-18 1h1m7 0h1m8 0h1m-18 1h1m7 0h1m8 0h1m-18 1h1m7 0h1m8 0h1m-1 1h1M3 31h25"/><path stroke="silver" d="M4 3h9M4 4h1m11 3h1m-1 1h1m-1 1h1m-1 2h1m-1 1h1m-1 1h1m-1 2h1m-1 1h1m-1 1h1m8 0h1m-11 2h2m8 0h1M3 20h7m1 0h5m8 0h1m-2 1h1m-3 2h1m-2 1h1"/><path stroke="#fff" d="M5 4h8m4 3h1m1 0h7m-9 1h1m1 0h7m-9 1h1m1 0h7m-9 2h1m1 0h7m4 0h1m-14 1h1m1 0h7m2 0h1m-12 1h1m1 0h7m1 0h1m-2 1h1m-10 1h1m1 0h5m1 0h1m-9 1h1m1 0h4m1 0h1m-8 1h1m1 0h3m1 0h1m-2 1h1m-6 1h1m1 0h1m1 0h1m-6 1h2m2 0h1m4 0h1M3 21h7m1 0h7m1 0h1m4 0h2M3 23h7m1 0h6m5 0h4M3 24h7m1 0h5m5 0h5M3 25h7m1 0h5m3 0h7M3 27h7m1 0h7m1 0h7M3 28h7m1 0h7m1 0h7M3 29h7m1 0h7m1 0h7"/><path stroke="#ff0" d="M28 13h1m-2 1h1m-2 1h1m-2 1h1m-3 2h1m-2 1h1m-2 1h1m-2 1h1m-3 1h2m-3 2h1"/></svg>