<svg xmlns="http://www.w3.org/2000/svg" viewBox="0 -0.5 32 32" shape-rendering="crispEdges">
<path stroke="#000000" d="M0 0h1M15 1h2M14 2h1M16 2h1M13 3h1M16 3h1M12 4h1M16 4h1M11 5h1M16 5h1M10 6h1M16 6h1M9 7h1M16 7h1M8 8h1M16 8h1M7 9h1M16 9h12M6 10h1M28 10h1M5 11h1M28 11h1M4 12h1M28 12h1M3 13h1M28 13h1M2 14h1M28 14h1M2 15h1M28 15h1M3 16h1M28 16h1M4 17h1M28 17h1M5 18h1M28 18h1M6 19h1M28 19h1M7 20h1M28 20h1M8 21h1M16 21h12M9 22h1M16 22h1M10 23h1M16 23h1M11 24h1M16 24h1M12 25h1M16 25h1M13 26h1M16 26h1M14 27h1M16 27h1M15 28h2" />
<path stroke="#808080" d="M0 0h1M15 2h1M15 3h1M15 4h1M15 5h1M15 6h1M15 7h1M15 8h1M15 9h1M15 10h1M27 10h1M27 11h1M27 12h1M27 13h1M27 14h1M3 15h2M27 15h1M4 16h2M27 16h1M5 17h2M27 17h1M6 18h2M27 18h1M7 19h2M27 19h1M8 20h2M15 20h13M9 21h2M15 21h1M10 22h2M15 22h1M11 23h2M15 23h1M12 24h2M15 24h1M13 25h3M14 26h2M15 27h1" />
<path stroke="#ffffff" d="M0 0h1M14 3h1M13 4h1M12 5h1M11 6h1M10 7h1M9 8h1M8 9h1M7 10h1M16 10h11M6 11h1M5 12h1M4 13h1M3 14h1" />
<path stroke="#c0c0c0" d="M0 0h1M14 4h1M13 5h2M12 6h3M11 7h4M10 8h5M9 9h6M8 10h7M7 11h20M6 12h21M5 13h22M4 14h23M5 15h22M6 16h21M7 17h20M8 18h19M9 19h18M10 20h5M11 21h4M12 22h3M13 23h2M14 24h1" />
</svg>