<svg xmlns="http://www.w3.org/2000/svg" viewBox="0 -0.5 32 32" shape-rendering="crispEdges">
<path stroke="#000000" d="M0 0h1M0 0h27M0 1h1M8 1h1M26 1h1M0 2h1M8 2h1M26 2h1M0 3h1M2 3h5M8 3h1M26 3h1M0 4h1M8 4h1M26 4h1M0 5h1M8 5h1M26 5h1M0 6h1M2 6h4M8 6h1M26 6h1M0 7h1M8 7h1M26 7h1M0 8h1M8 8h1M26 8h1M0 9h1M2 9h5M8 9h1M26 9h1M0 10h1M8 10h1M26 10h1M0 11h1M8 11h1M26 11h1M0 12h1M2 12h29M0 13h1M4 13h1M30 13h1M0 14h1M4 14h1M30 14h1M0 15h1M2 15h3M28 15h1M30 15h1M0 16h1M4 16h1M28 16h1M30 16h1M0 17h1M4 17h1M14 17h1M17 17h3M28 17h1M30 17h1M0 18h1M2 18h3M14 18h1M17 18h1M20 18h9M30 18h1M0 19h1M4 19h1M14 19h4M30 19h1M0 20h1M4 20h1M6 20h9M17 20h1M28 20h1M30 20h1M0 21h1M2 21h3M17 21h1M28 21h1M30 21h1M0 22h1M4 22h1M17 22h3M28 22h1M30 22h1M0 23h1M4 23h1M17 23h1M20 23h9M30 23h1M0 24h1M2 24h3M17 24h1M30 24h1M0 25h1M4 25h1M17 25h1M28 25h1M30 25h1M0 26h1M4 26h1M17 26h1M28 26h1M30 26h1M0 27h5M17 27h3M28 27h1M30 27h1M4 28h1M20 28h9M30 28h1M4 29h1M30 29h1M4 30h27" />
<path stroke="#c0c0c0" d="M0 0h1M1 1h7M1 2h7M1 3h1M7 3h1M1 4h7M1 5h7M1 6h1M6 6h2M1 7h7M1 8h7M1 9h1M7 9h1M1 10h7M1 11h7M1 12h1M1 13h3M1 14h3M1 15h1M1 16h3M29 16h1M1 17h3M29 17h1M1 18h1M15 18h1M18 18h2M29 18h1M1 19h3M18 19h1M21 19h9M1 20h3M15 20h2M18 20h1M29 20h1M1 21h1M7 21h9M18 21h1M29 21h1M1 22h3M29 22h1M1 23h3M18 23h2M29 23h1M1 24h1M18 24h1M21 24h9M1 25h3M18 25h1M29 25h1M1 26h3M18 26h1M29 26h1M29 27h1M18 28h2M29 28h1M21 29h9" />
<path stroke="#ffffff" d="M0 0h1M9 1h17M9 2h2M22 2h4M9 3h2M22 3h4M9 4h17M9 5h2M18 5h8M9 6h2M18 6h8M9 7h17M9 8h7M24 8h2M9 9h7M24 9h2M9 10h17M9 11h4M19 11h7M5 13h25M5 14h25M5 15h15M29 15h1M5 16h15M5 17h1M15 17h2M5 18h1M16 18h1M5 19h1M19 19h2M5 20h1M19 20h1M5 21h2M16 21h1M19 21h1M5 22h12M5 23h12M5 24h12M19 24h2M5 25h12M19 25h1M5 26h12M19 26h1M5 27h12M5 28h13M5 29h16" />
<path stroke="#808080" d="M0 0h1M27 1h1M27 2h1M27 3h1M27 4h1M27 5h1M27 6h1M27 7h1M27 8h1M27 9h1M27 10h1M27 11h1M31 13h1M31 14h1M31 15h1M31 16h1M31 17h1M31 18h1M31 19h1M31 20h1M31 21h1M31 22h1M31 23h1M31 24h1M31 25h1M31 26h1M31 27h1M1 28h3M31 28h1M31 29h1M31 30h1M5 31h27" />
<path stroke="#0000ff" d="M0 0h1M11 2h10M13 11h5" />
<path stroke="#000080" d="M0 0h1M21 2h1M11 3h11M18 11h1" />
<path stroke="#ff00ff" d="M0 0h1M11 5h6M16 8h7" />
<path stroke="#800080" d="M0 0h1M17 5h1M11 6h7M23 8h1M16 9h8" />
<path stroke="#808000" d="M0 0h1M20 15h8M20 16h1M6 17h8M20 17h1M6 18h1M6 19h1M20 20h8M20 21h1M20 22h1M20 25h8M20 26h1M20 27h1" />
<path stroke="#ffff00" d="M0 0h1M21 16h7M21 17h7M7 18h7M7 19h7M21 21h7M21 22h7M21 26h7M21 27h7" />
</svg>