<svg xmlns="http://www.w3.org/2000/svg" viewBox="0 -0.5 32 32" shape-rendering="crispEdges">
<path stroke="#ffffff" d="M0 0h1M0 0h32M0 1h12M28 1h4M0 2h12M29 2h3M0 3h12M30 3h2M0 4h12M30 4h2M0 5h9M11 5h1M30 5h2M0 6h9M30 6h2M0 7h9M30 7h2M0 8h9M30 8h2M0 9h9M30 9h2M0 10h2M11 10h1M30 10h2M0 11h1M12 11h1M30 11h2M0 12h1M4 12h10M30 12h2M0 13h1M30 13h2M0 14h1M30 14h2M0 15h2M30 15h2M0 16h3M23 16h1M30 16h2M0 17h4M30 17h2M0 18h9M30 18h2M0 19h9M30 19h2M0 20h9M30 20h2M0 21h9M30 21h2M0 22h10M11 22h1M30 22h2M0 23h12M13 23h2M17 23h2M30 23h2M0 24h12M15 24h3M30 24h2M13 25h3M18 25h1M1 26h3M6 26h3M11 26h3M16 26h3M27 26h2M31 26h1M0 27h2M4 27h3M9 27h3M14 27h3M26 27h1M29 27h3M2 28h3M7 28h3M12 28h3M17 28h2M27 28h3M1 29h2M5 29h3M10 29h3M15 29h3M25 29h3M30 29h1M3 30h3M8 30h3M13 30h3M18 30h1M23 30h3M28 30h2M6 31h3M11 31h3M16 31h3M22 31h2M26 31h2" />
<path stroke="#000000" d="M0 0h1M12 1h16M12 2h1M24 2h1M27 2h1M12 3h1M23 3h1M27 3h1M12 4h1M22 4h1M27 4h1M9 5h2M12 5h1M21 5h1M27 5h1M9 6h1M11 6h2M20 6h1M27 6h1M9 7h1M12 7h1M19 7h1M27 7h1M9 8h1M13 8h1M19 8h1M27 8h1M9 9h1M14 9h1M19 9h1M27 9h1M2 10h8M15 10h1M19 10h1M27 10h1M1 11h1M16 11h1M19 11h1M27 11h1M1 12h1M17 12h1M19 12h1M27 12h1M1 13h1M17 13h1M19 13h1M27 13h1M1 14h1M16 14h1M19 14h1M27 14h1M2 15h8M15 15h1M19 15h1M23 15h2M27 15h1M9 16h1M14 16h1M19 16h1M22 16h1M24 16h1M27 16h1M9 17h1M13 17h1M19 17h1M22 17h1M24 17h1M27 17h1M9 18h1M12 18h1M19 18h1M23 18h2M27 18h1M9 19h1M11 19h2M19 19h1M27 19h1M9 20h2M12 20h1M19 20h1M27 20h1M9 21h1M12 21h1M19 21h1M27 21h1M12 22h8M27 22h1M12 23h1M19 23h1M27 23h1M12 24h1M19 24h1M27 24h1M0 25h13M19 25h1M27 25h5M19 26h1M26 26h1M19 27h1M25 27h1M19 28h1M24 28h1M19 29h1M23 29h1M19 30h1M22 30h1M19 31h3" />
<path stroke="#808080" d="M0 0h1M13 2h11M28 2h1M13 3h10M28 3h1M13 4h9M28 4h1M13 5h8M28 5h1M13 6h7M28 6h1M13 7h6M28 7h1M14 8h5M28 8h1M15 9h4M28 9h1M16 10h3M28 10h1M17 11h2M28 11h1M18 12h1M28 12h1M18 13h1M28 13h1M17 14h2M28 14h1M16 15h3M28 15h1M15 16h4M28 16h1M14 17h5M23 17h1M28 17h1M13 18h6M28 18h1M13 19h6M28 19h1M13 20h6M28 20h1M13 21h6M28 21h1M28 22h1M28 23h1M28 24h1" />
<path stroke="#00ffff" d="M0 0h1M25 2h2M24 3h2M23 4h2M22 5h2M21 6h2M10 7h1M20 7h2M10 8h2M20 8h2M10 9h3M20 9h2M10 10h1M12 10h2M20 10h2M2 11h10M13 11h2M20 11h2M2 12h2M14 12h2M20 12h2M2 13h13M20 13h2M10 14h4M20 14h2M10 15h3M20 15h2M10 16h2M20 16h2M10 17h1M20 17h2M20 18h2M20 19h2M20 20h2M20 21h2M20 22h2M20 23h2M20 24h2M20 25h2M20 26h2M20 27h2M20 28h2M20 29h2M20 30h2" />
<path stroke="#008080" d="M0 0h1M26 3h1M25 4h2M24 5h3M10 6h1M23 6h4M11 7h1M22 7h5M12 8h1M22 8h5M13 9h1M22 9h5M14 10h1M22 10h5M15 11h1M22 11h5M16 12h1M22 12h5M15 13h2M22 13h5M2 14h8M14 14h2M22 14h5M13 15h2M22 15h1M25 15h2M12 16h2M25 16h2M11 17h2M25 17h2M10 18h2M22 18h1M25 18h2M10 19h1M22 19h5M22 20h5M22 21h5M22 22h5M22 23h5M22 24h5M22 25h5M22 26h4M22 27h3M22 28h2M22 29h1" />
<path stroke="#c0c0c0" d="M0 0h1M29 3h1M29 4h1M29 5h1M29 6h1M29 7h1M29 8h1M29 9h1M29 10h1M29 11h1M29 12h1M29 13h1M29 14h1M29 15h1M3 16h6M29 16h1M4 17h5M29 17h1M29 18h1M29 19h1M11 20h1M29 20h1M10 21h2M29 21h1M10 22h1M29 22h1M15 23h2M29 23h1M13 24h2M18 24h1M29 24h1M16 25h2M0 26h1M4 26h2M9 26h2M14 26h2M29 26h2M2 27h2M7 27h2M12 27h2M17 27h2M27 27h2M0 28h2M5 28h2M10 28h2M15 28h2M25 28h2M30 28h2M3 29h2M8 29h2M13 29h2M18 29h1M24 29h1M28 29h2M2 30h1M6 30h2M11 30h2M16 30h2M26 30h2M4 31h2M9 31h2M14 31h2M24 31h2" />
</svg>