<svg xmlns="http://www.w3.org/2000/svg" viewBox="0 -0.5 32 32" shape-rendering="crispEdges">
<path stroke="#000000" d="M0 0h1M13 9h8M12 10h1M21 10h4M1 11h7M11 11h1M22 11h1M25 11h3M7 12h4M18 12h2M23 12h1M28 12h3M7 13h1M17 13h1M20 13h1M24 13h1M31 13h1M7 14h1M16 14h2M21 14h7M31 14h1M7 15h1M15 15h1M18 15h2M23 15h1M28 15h3M7 16h1M15 16h2M20 16h3M7 17h1M14 17h1M17 17h2M22 17h1M7 18h4M14 18h2M19 18h3M7 19h1M11 19h2M16 19h2M21 19h1M1 20h6M13 20h8" />
<path stroke="#ffffff" d="M0 0h1M13 10h7M12 11h9M11 12h6M26 12h2M9 13h7M18 13h2M28 13h2M10 14h5M18 14h3M11 15h3M16 15h2M17 16h2M15 17h2M16 18h2" />
<path stroke="#c0c0c0" d="M0 0h1M20 10h1M21 11h1M24 11h1M20 12h3M25 12h1M16 13h1M21 13h3M26 13h2M30 13h1M9 14h1M28 14h3M9 15h2M14 15h1M20 15h2M10 16h4M19 16h1M11 17h3M19 17h2M13 18h1M18 18h1M18 19h2" />
<path stroke="#808080" d="M0 0h1M23 11h1M17 12h1M24 12h1M8 13h1M25 13h1M8 14h1M15 14h1M8 15h1M22 15h1M8 16h2M14 16h1M8 17h3M21 17h1M11 18h2M13 19h3M20 19h1" />
<path stroke="#0000ff" d="M0 0h1M1 12h6M1 13h6M1 14h6M1 15h6M2 16h1M4 16h1M6 16h1M1 17h1M3 17h1M5 17h1" />
<path stroke="#000080" d="M0 0h1M1 16h1M3 16h1M5 16h1M2 17h1M4 17h1M6 17h1M1 18h6M1 19h6" />
</svg>