<svg xmlns="http://www.w3.org/2000/svg" viewBox="0 -0.5 32 32" shape-rendering="crispEdges">
<path stroke="#000000" d="M0 0h1M1 6h30M1 7h1M30 7h1M1 8h1M30 8h1M1 9h1M30 9h1M1 10h1M30 10h1M1 11h1M30 11h1M1 12h1M30 12h1M1 13h1M30 13h1M1 14h1M30 14h1M1 15h1M30 15h1M1 16h1M30 16h1M1 17h1M30 17h1M1 18h1M30 18h1M1 19h1M30 19h1M1 20h1M30 20h1M1 21h1M30 21h1M1 22h1M30 22h1M1 23h1M30 23h1M1 24h1M30 24h1M1 25h1M30 25h1M1 26h1M30 26h1M1 27h1M30 27h1M1 28h30" />
<path stroke="#ffffff" d="M0 0h1M2 7h28M2 8h2M5 8h1M7 8h4M12 8h4M17 8h4M22 8h4M27 8h3M2 9h4M7 9h4M12 9h4M17 9h4M22 9h4M27 9h3M2 10h2M5 10h1M7 10h4M12 10h4M17 10h4M22 10h4M27 10h3M2 11h4M7 11h4M12 11h4M17 11h4M22 11h4M27 11h3M2 12h2M5 12h1M7 12h4M12 12h4M17 12h4M22 12h4M27 12h3M2 13h4M7 13h4M12 13h4M17 13h4M22 13h4M27 13h3M2 14h2M5 14h1M7 14h4M12 14h4M17 14h4M22 14h4M27 14h3M2 15h4M7 15h4M12 15h4M17 15h1M19 15h2M22 15h4M27 15h3M2 16h2M5 16h1M7 16h4M12 16h4M18 16h1M20 16h1M22 16h4M27 16h3M2 17h4M7 17h4M12 17h4M17 17h2M20 17h1M22 17h4M27 17h3M2 18h2M5 18h1M7 18h4M12 18h3M17 18h3M22 18h4M27 18h3M2 19h4M7 19h3M13 19h1M15 19h1M17 19h3M22 19h4M27 19h1M29 19h1M2 20h2M5 20h1M7 20h3M12 20h1M14 20h2M17 20h4M22 20h4M28 20h2M2 21h4M7 21h2M10 21h1M12 21h4M17 21h4M22 21h4M27 21h3M2 22h2M5 22h1M7 22h2M10 22h1M12 22h4M17 22h4M23 22h2M27 22h3M2 23h4M7 23h1M9 23h2M12 23h4M17 23h4M23 23h1M25 23h1M27 23h3M2 24h2M5 24h1M7 24h1M9 24h2M12 24h4M17 24h4M22 24h1M24 24h2M27 24h3M2 25h4M8 25h3M12 25h4M17 25h4M22 25h4M27 25h3M2 26h2M5 26h1M29 26h1M2 27h28" />
<path stroke="#808080" d="M0 0h1M31 7h1M31 8h1M31 9h1M31 10h1M31 11h1M31 12h1M31 13h1M31 14h1M31 15h1M31 16h1M31 17h1M31 18h1M31 19h1M31 20h1M31 21h1M31 22h1M31 23h1M31 24h1M31 25h1M31 26h1M31 27h1M31 28h1M2 29h30" />
<path stroke="#0000ff" d="M0 0h1M4 8h1M6 8h1M11 8h1M16 8h1M21 8h1M26 8h1M6 9h1M11 9h1M16 9h1M21 9h1M26 9h1M4 10h1M6 10h1M11 10h1M16 10h1M21 10h1M26 10h1M6 11h1M11 11h1M16 11h1M21 11h1M26 11h1M4 12h1M6 12h1M11 12h1M16 12h1M21 12h1M26 12h1M6 13h1M11 13h1M16 13h1M21 13h1M26 13h1M4 14h1M6 14h1M11 14h1M16 14h1M21 14h1M26 14h1M6 15h1M11 15h1M16 15h1M21 15h1M26 15h1M4 16h1M6 16h1M11 16h1M16 16h1M21 16h1M26 16h1M6 17h1M11 17h1M21 17h1M26 17h1M4 18h1M6 18h1M16 18h1M21 18h1M26 18h1M6 19h1M11 19h1M16 19h1M21 19h1M26 19h1M4 20h1M6 20h1M11 20h1M16 20h1M26 20h1M6 21h1M11 21h1M16 21h1M4 22h1M6 22h1M11 22h1M16 22h1M21 22h1M26 22h1M6 23h1M11 23h1M16 23h1M21 23h1M26 23h1M4 24h1M6 24h1M11 24h1M16 24h1M21 24h1M26 24h1M6 25h1M11 25h1M16 25h1M21 25h1M26 25h1M4 26h1M7 26h22" />
<path stroke="#ff00ff" d="M0 0h1M18 15h1M17 16h1M19 16h1M16 17h1M19 17h1M11 18h1M15 18h1M20 18h1M10 19h1M12 19h1M14 19h1M20 19h1M28 19h1M10 20h1M13 20h1M21 20h1M27 20h1M9 21h1M21 21h1M26 21h1M9 22h1M22 22h1M25 22h1M8 23h1M22 23h1M24 23h1M8 24h1M23 24h1M7 25h1M6 26h1" />
</svg>