<svg xmlns="http://www.w3.org/2000/svg" viewBox="0 -0.5 32 32" shape-rendering="crispEdges">
<path stroke="#000000" d="M0 0h6M12 0h3M17 0h3M26 0h5M1 1h1M6 1h1M10 1h2M15 1h2M20 1h2M25 1h1M30 1h1M1 2h1M3 2h3M7 2h3M12 2h3M17 2h3M22 2h3M26 2h3M30 2h1M1 3h1M3 3h1M5 3h1M10 3h2M15 3h2M20 3h2M26 3h1M28 3h1M30 3h1M1 4h1M3 4h2M6 4h4M22 4h4M27 4h2M30 4h1M2 5h1M5 5h22M29 5h1M3 6h1M5 6h2M13 6h1M15 6h1M17 6h1M19 6h1M26 6h1M28 6h1M3 7h1M5 7h2M12 7h7M20 7h1M26 7h1M28 7h1M3 8h1M5 8h2M11 8h2M18 8h4M26 8h1M28 8h1M2 9h1M4 9h1M6 9h1M11 9h1M19 9h1M21 9h1M27 9h1M29 9h1M2 10h1M4 10h1M6 10h1M10 10h2M19 10h2M22 10h1M27 10h1M29 10h1M1 11h1M3 11h1M6 11h1M10 11h3M16 11h1M19 11h1M21 11h2M28 11h1M30 11h1M1 12h1M3 12h1M6 12h1M10 12h2M13 12h1M15 12h1M17 12h4M22 12h1M28 12h1M30 12h1M1 13h1M3 13h1M6 13h1M10 13h2M14 13h1M19 13h1M21 13h2M28 13h1M30 13h1M2 14h1M4 14h1M6 14h1M9 14h3M14 14h1M19 14h2M22 14h1M27 14h1M29 14h1M2 15h1M4 15h1M6 15h1M9 15h1M11 15h1M14 15h2M19 15h1M21 15h2M27 15h1M29 15h1M2 16h1M4 16h1M6 16h1M9 16h3M16 16h1M19 16h2M22 16h1M27 16h1M29 16h1M2 17h1M4 17h1M6 17h1M9 17h1M11 17h2M14 17h2M19 17h1M21 17h2M27 17h1M29 17h1M1 18h1M3 18h1M6 18h1M9 18h2M12 18h2M17 18h4M22 18h1M28 18h1M30 18h1M1 19h1M3 19h1M6 19h1M9 19h1M11 19h1M13 19h4M19 19h1M21 19h2M28 19h1M30 19h1M1 20h1M3 20h1M6 20h1M9 20h2M12 20h1M14 20h1M19 20h2M22 20h1M28 20h1M30 20h1M2 21h1M4 21h1M6 21h1M9 21h1M11 21h1M13 21h2M19 21h1M21 21h1M23 21h1M27 21h1M29 21h1M2 22h1M4 22h1M6 22h1M9 22h5M19 22h2M22 22h2M27 22h1M29 22h1M3 23h1M5 23h2M9 23h1M11 23h1M18 23h2M21 23h1M23 23h1M26 23h1M28 23h1M3 24h1M5 24h2M8 24h1M10 24h1M12 24h1M18 24h1M20 24h1M22 24h1M24 24h1M26 24h1M28 24h1M3 25h1M5 25h2M8 25h2M11 25h1M13 25h5M19 25h1M21 25h1M23 25h2M26 25h1M28 25h1M2 26h1M5 26h2M8 26h1M10 26h1M12 26h1M14 26h1M16 26h1M18 26h1M20 26h1M22 26h1M24 26h1M26 26h1M29 26h1M1 27h1M3 27h2M6 27h4M22 27h4M27 27h2M30 27h1M1 28h1M3 28h1M5 28h1M10 28h2M15 28h2M20 28h2M26 28h1M28 28h1M30 28h1M1 29h1M3 29h3M7 29h3M12 29h3M17 29h3M22 29h3M26 29h3M30 29h1M1 30h1M6 30h1M10 30h2M15 30h2M20 30h2M25 30h1M30 30h1M1 31h5M12 31h3M17 31h3M26 31h5" />
<path stroke="#ffff00" d="M0 0h1M2 1h4M12 1h3M17 1h3M26 1h4M2 2h1M6 2h1M10 2h2M15 2h2M20 2h2M25 2h1M29 2h1M2 3h1M4 3h1M6 3h4M22 3h4M27 3h1M29 3h1M2 4h1M5 4h1M29 4h1M3 5h2M27 5h2M4 6h1M27 6h1M4 7h1M27 7h1M4 8h1M27 8h1M3 9h1M20 9h1M28 9h1M3 10h1M28 10h1M2 11h1M29 11h1M2 12h1M29 12h1M2 13h1M29 13h1M3 14h1M28 14h1M3 15h1M28 15h1M3 16h1M28 16h1M3 17h1M28 17h1M2 18h1M29 18h1M2 19h1M29 19h1M2 20h1M29 20h1M3 21h1M28 21h1M3 22h1M28 22h1M4 23h1M27 23h1M4 24h1M27 24h1M4 25h1M27 25h1M3 26h2M27 26h2M2 27h1M29 27h1M2 28h1M4 28h1M6 28h4M22 28h4M27 28h1M29 28h1M2 29h1M6 29h1M10 29h2M15 29h2M20 29h2M25 29h1M29 29h1M2 30h4M12 30h3M17 30h3M26 30h4" />
<path stroke="#808000" d="M0 0h1M12 3h3M17 3h3M10 4h12M26 4h1M5 9h1M26 9h1M5 10h1M26 10h1M4 11h2M26 11h2M4 12h2M26 12h2M4 13h2M26 13h2M5 14h1M26 14h1M5 15h1M26 15h1M5 16h1M26 16h1M5 17h1M26 17h1M4 18h2M26 18h2M4 19h2M26 19h2M4 20h2M26 20h2M5 21h1M26 21h1M5 22h1M26 22h1M5 27h1M10 27h12M26 27h1M12 28h3M17 28h3" />
<path stroke="#00ffff" d="M0 0h1M7 6h1M9 6h3M20 6h2M23 6h1M7 7h2M11 7h1M9 8h1M23 8h2M8 9h2M24 9h1M7 10h1M9 10h1M23 10h1M8 11h2M24 11h1M24 12h1" />
<path stroke="#c0c0c0" d="M0 0h1M8 6h1M12 6h1M22 6h1M24 6h2M9 7h2M21 7h5M7 8h2M10 8h1M13 8h5M22 8h1M25 8h1M7 9h1M10 9h1M12 9h1M18 9h1M23 9h1M25 9h1M8 10h1M12 10h1M16 10h1M18 10h1M24 10h2M7 11h1M15 11h1M17 11h2M23 11h1M25 11h1M7 12h3M12 12h1M14 12h1M16 12h1M23 12h1M25 12h1M7 13h3M15 13h1M23 13h3M7 14h2M15 14h1M18 14h1M23 14h3M7 15h2M16 15h1M18 15h1M23 15h3M7 16h2M12 16h1M14 16h2M23 16h3M8 17h1M13 17h1M17 17h2M24 17h1M7 18h1M14 18h3M23 18h1M25 18h1M8 19h1M24 19h1M7 20h1M15 20h2M23 20h1M25 20h1M8 21h1M15 21h3M24 21h1M7 22h1M25 22h1M8 23h1M24 23h1M7 24h1M25 24h1M7 26h1M25 26h1" />
<path stroke="#808080" d="M0 0h1M14 6h1M16 6h1M18 6h1M19 7h1M22 9h1M21 10h1M20 11h1M21 12h1M20 13h1M21 14h1M10 15h1M20 15h1M21 16h1M10 17h1M20 17h1M11 18h1M21 18h1M10 19h1M12 19h1M17 19h2M20 19h1M11 20h1M13 20h1M17 20h2M21 20h1M10 21h1M12 21h1M18 21h1M20 21h1M22 21h1M18 22h1M21 22h1M10 23h1M20 23h1M22 23h1M9 24h1M11 24h1M14 24h1M19 24h1M21 24h1M23 24h1M7 25h1M10 25h1M12 25h1M18 25h1M20 25h1M22 25h1M9 26h1M11 26h1M13 26h1M15 26h1M17 26h1M19 26h1M21 26h1M23 26h1" />
<path stroke="#ffffff" d="M0 0h1M13 9h5M13 10h3M17 10h1M13 11h2M12 13h2M16 13h3M12 14h2M16 14h2M12 15h2M17 15h1M13 16h1M17 16h2M16 17h1M14 22h4M12 23h6M13 24h1M15 24h3" />
<path stroke="#00ff00" d="M0 0h1M7 17h1M23 17h1M25 17h1M8 18h1M24 18h1M7 19h1M23 19h1M25 19h1M8 20h1M24 20h1M7 21h1M25 21h1M8 22h1M24 22h1M7 23h1M25 23h1M25 25h1" />
</svg>