<svg xmlns="http://www.w3.org/2000/svg" width="32" height="32" shape-rendering="crispEdges" viewBox="0 -0.5 32 32"><path stroke="#000" d="M13 2h11M11 3h3m9 0h2M9 4h2m2 0h3m6 0h1m2 0h1M7 5h2m3 0h2m2 0h1m4 0h4m1 0h1M5 6h2m4 0h2m4 0h4m4 0h3M3 7h2m5 0h1m1 0h1m14 0h2M1 8h2m6 0h1m1 0h1m3 0h1m2 0h2m9 0h2M0 9h1m7 0h1m2 0h1m4 0h2m1 0h1m11 0h1M0 10h1m6 0h1m2 0h1m2 0h4m1 0h1m12 0h1M1 11h1m4 0h1m3 0h1m6 0h2m2 0h2m7 0h1M1 12h1m3 0h1m3 0h1m6 0h1m6 0h2m5 0h1M2 13h1m1 0h1m4 0h1m6 0h1m3 0h2m3 0h2m2 0h1M2 14h2m4 0h1m3 0h2m8 0h2m5 0h1M2 15h1m5 0h1m5 0h2m3 0h2m3 0h2m2 0h1M1 16h1m5 0h1m3 0h2m3 0h2m3 0h2m5 0h1M1 17h1m5 0h1m5 0h2m3 0h2m3 0h2m2 0h1M2 18h1m3 0h1m3 0h2m3 0h2m3 0h2m5 0h1M3 19h1m2 0h1m5 0h2m3 0h2m3 0h2m2 0h1M4 20h2m3 0h2m3 0h2m3 0h2m5 0h1M5 21h1m5 0h2m3 0h2m3 0h2m2 0h1M4 22h1m8 0h2m3 0h2m5 0h1M4 23h1m10 0h2m3 0h2m2 0h1M5 24h2m10 0h2m5 0h1M7 25h2m10 0h2m2 0h1M9 26h2m12 0h1m-13 1h2m9 0h1m-10 1h2m7 0h1m-8 1h2m4 0h1m-5 1h2m2 0h1m-3 1h2"/><path stroke="#fff" d="M14 3h9M11 4h2m3 0h6m1 0h2M9 5h3m2 0h2m1 0h4m4 0h1M7 6h4m2 0h4m4 0h4M5 7h5m1 0h1m1 0h14M3 8h6m1 0h1m1 0h3m1 0h2m2 0h9M1 9h7m1 0h2m1 0h4m2 0h1m1 0h11M1 10h6m1 0h2m1 0h2m4 0h1m1 0h12M2 11h4m1 0h3m1 0h6m2 0h2m2 0h7M2 12h3m1 0h3m1 0h6m1 0h6m2 0h5M3 13h1m1 0h4m1 0h6m1 0h3m2 0h3m2 0h2M4 14h4m1 0h3m2 0h8m2 0h5M3 15h5m1 0h5m2 0h3m2 0h3m2 0h2M2 16h5m1 0h3m2 0h3m2 0h3m2 0h5M2 17h5m1 0h5m2 0h3m2 0h3m2 0h2M3 18h3m1 0h3m2 0h3m2 0h3m2 0h5M4 19h2m1 0h5m2 0h3m2 0h3m2 0h2M6 20h3m2 0h3m2 0h3m2 0h5M6 21h5m2 0h3m2 0h3m2 0h2M5 22h8m2 0h3m2 0h5M5 23h10m2 0h3m2 0h2M7 24h10m2 0h5M9 25h10m2 0h2m-12 1h12m-10 1h9m-7 1h7m-5 1h4m-2 1h2"/></svg>