<svg xmlns="http://www.w3.org/2000/svg" viewBox="0 -0.5 32 32" shape-rendering="crispEdges">
<path stroke="#ffffff" d="M0 0h1M0 0h32M0 1h7M25 1h7M0 2h7M8 2h16M26 2h6M0 3h7M8 3h1M23 3h1M26 3h6M0 4h7M8 4h1M26 4h6M0 5h7M8 5h1M26 5h6M0 6h7M8 6h1M26 6h6M0 7h7M8 7h1M26 7h6M0 8h7M8 8h1M26 8h6M0 9h7M8 9h1M26 9h6M0 10h7M8 10h1M26 10h6M0 11h7M8 11h1M26 11h6M0 12h7M8 12h1M26 12h6M0 13h7M8 13h1M26 13h6M0 14h7M8 14h1M26 14h6M0 15h7M8 15h1M26 15h6M0 16h7M8 16h1M26 16h6M0 17h7M8 17h1M26 17h6M0 18h7M8 18h1M26 18h6M0 19h7M8 19h1M26 19h6M0 20h7M8 20h1M26 20h6M0 21h7M8 21h1M26 21h6M0 22h7M8 22h1M26 22h6M0 23h7M8 23h1M26 23h6M0 24h7M8 24h1M26 24h6M0 25h1M0 26h1M2 26h3M7 26h3M12 26h3M17 26h3M22 26h3M27 26h3M0 27h3M5 27h3M10 27h3M15 27h3M20 27h3M25 27h3M30 27h2M0 28h1M3 28h3M8 28h3M13 28h3M18 28h3M23 28h3M28 28h3M1 29h3M6 29h3M11 29h3M16 29h3M21 29h3M26 29h3M4 30h3M9 30h3M14 30h3M19 30h3M24 30h2" />
<path stroke="#808080" d="M0 0h1M7 1h17M7 2h1M7 3h1M7 4h1M7 5h1M7 6h1M7 7h1M7 8h1M7 9h1M7 10h1M7 11h1M7 12h1M7 13h1M7 14h1M7 15h1M7 16h1M7 17h1M7 18h1M7 19h1M7 20h1M7 21h1M7 22h1M7 23h1M7 24h1" />
<path stroke="#000000" d="M0 0h1M24 1h1M24 2h1M9 3h14M24 3h1M9 4h1M22 4h1M24 4h1M9 5h1M22 5h1M24 5h1M9 6h1M22 6h1M24 6h1M9 7h1M23 7h2M9 8h1M23 8h2M9 9h1M23 9h2M9 10h1M22 10h3M9 11h1M22 11h1M24 11h1M9 12h1M22 12h1M24 12h1M9 13h1M12 13h1M22 13h1M24 13h1M9 14h1M11 14h1M13 14h1M22 14h1M24 14h1M9 15h1M12 15h1M22 15h1M24 15h1M9 16h1M22 16h1M24 16h1M9 17h1M22 17h1M24 17h1M9 18h1M22 18h1M24 18h1M9 19h1M23 19h2M9 20h1M23 20h2M9 21h1M23 21h2M9 22h1M22 22h3M9 23h1M22 23h1M24 23h1M9 24h1M22 24h1M24 24h1M1 25h31" />
<path stroke="#c0c0c0" d="M0 0h1M25 2h1M25 3h1M23 4h1M25 4h1M23 5h1M25 5h1M23 6h1M25 6h1M22 7h1M25 7h1M22 8h1M25 8h1M22 9h1M25 9h1M25 10h1M23 11h1M25 11h1M23 12h1M25 12h1M23 13h1M25 13h1M23 14h1M25 14h1M23 15h1M25 15h1M23 16h1M25 16h1M23 17h1M25 17h1M23 18h1M25 18h1M22 19h1M25 19h1M22 20h1M25 20h1M22 21h1M25 21h1M25 22h1M23 23h1M25 23h1M23 24h1M25 24h1M1 26h1M5 26h2M10 26h2M15 26h2M20 26h2M25 26h2M30 26h2M3 27h2M8 27h2M13 27h2M18 27h2M23 27h2M28 27h2M1 28h2M6 28h2M11 28h2M16 28h2M21 28h2M26 28h2M4 29h2M9 29h2M14 29h2M19 29h2M24 29h2M7 30h2M12 30h2M17 30h2M22 30h2" />
<path stroke="#00ffff" d="M0 0h1M10 4h12M10 5h1M10 6h1M10 7h1M10 8h1M10 9h1M10 10h1M10 11h1M10 12h1M10 13h1M10 14h1M10 15h1M10 16h1M10 17h1M10 18h1M10 19h1M10 20h1M10 21h1M10 22h1M10 23h1M10 24h1" />
<path stroke="#008080" d="M0 0h1M11 5h11M11 6h11M11 7h11M11 8h11M11 9h11M11 10h11M11 11h11M11 12h11M11 13h1M13 13h9M14 14h8M11 15h1M13 15h9M11 16h11M11 17h11M11 18h11M11 19h11M11 20h11M11 21h11M11 22h11M11 23h11M11 24h11" />
<path stroke="#ffff00" d="M0 0h1M12 14h1" />
</svg>