<svg xmlns="http://www.w3.org/2000/svg" width="32" height="32" shape-rendering="crispEdges" viewBox="0 -0.5 32 32"><path stroke="#000" d="M3 1h1m14 0h8M3 2h1m2 0h1m6 0h1m2 0h12M5 3h2m2 0h1m1 0h3m1 0h14M5 4h1m2 0h2m1 0h3m1 0h4m2 0h2m2 0h4M3 5h1m4 0h1m2 0h1m3 0h2m4 0h2m4 0h2M3 6h1m2 0h1m6 0h1m1 0h2m4 0h2m4 0h2M5 7h2m2 0h1m1 0h3m1 0h2m4 0h2m4 0h2M5 8h1m2 0h2m1 0h3m1 0h2m4 0h2m4 0h2M3 9h1m4 0h1m2 0h1m3 0h2m1 0h8m1 0h2M3 10h1m2 0h1m6 0h1m1 0h14M5 11h2m2 0h1m1 0h3m1 0h4m2 0h2m2 0h4M5 12h1m2 0h2m1 0h3m1 0h2m4 0h2m4 0h2M3 13h1m4 0h1m2 0h1m3 0h2m4 0h2m4 0h2M3 14h1m2 0h1m6 0h1m1 0h2m4 0h2m4 0h2M5 15h2m2 0h1m1 0h3m1 0h2m4 0h2m4 0h2M5 16h1m2 0h2m1 0h3m1 0h2m1 0h8m1 0h2M3 17h1m4 0h1m2 0h1m3 0h14M3 18h1m2 0h1m6 0h1m1 0h14M5 19h2m2 0h1m1 0h3m1 0h4m6 0h4M5 20h1m2 0h2m1 0h3m1 0h2m10 0h2M8 21h1m2 0h1m-9 2h1m1 0h1m1 0h1m1 0h1m2 0h2m2 0h2m1 0h2m1 0h2m1 0h5M3 24h3m1 0h2m2 0h1m1 0h1m1 0h1m1 0h1m1 0h1m1 0h1m1 0h1m1 0h1m2 0h1M3 25h1m1 0h1m1 0h2m2 0h2m2 0h1m1 0h1m2 0h2m1 0h1m1 0h2m1 0h1M3 26h1m1 0h1m1 0h1m1 0h3m1 0h1m1 0h2m2 0h2m1 0h1m2 0h1m2 0h1M3 28h1m1 0h1m1 0h1m1 0h1m2 0h1m1 0h2m3 0h2m2 0h1m1 0h1m1 0h2M3 29h1m1 0h1m1 0h1m1 0h2m1 0h1m1 0h1m1 0h1m1 0h1m2 0h1m1 0h1m1 0h1m1 0h1M3 30h3m1 0h1m1 0h1m1 0h2m1 0h1m1 0h1m1 0h1m2 0h1m1 0h3m2 0h1M3 31h1m1 0h1m1 0h1m1 0h1m2 0h1m1 0h2m3 0h2m2 0h1m1 0h1m1 0h2"/></svg>