<svg xmlns="http://www.w3.org/2000/svg" width="32" height="32" shape-rendering="crispEdges" viewBox="0 -0.5 32 32"><path stroke="#000" d="M13 0h7m-9 1h11M9 2h4m5 0h6M8 3h3m3 0h11M7 4h3m2 0h14M7 5h2m2 0h15M6 6h2m2 0h17M6 7h2m2 0h4m5 0h8M6 8h7m7 0h7M6 9h7m7 0h7M7 10h5m8 0h7M8 11h3m9 0h7m-9 1h9m-11 1h10m-11 1h3m1 0h7m-12 1h3m1 0h7m-12 1h2m2 0h7m-11 1h2m1 0h6m-10 1h2m2 0h4m-8 1h2m2 0h3m-7 1h7m-7 1h7m-6 1h5m-4 1h3m-3 2h3m-4 1h5m-6 1h2m2 0h3m-7 1h2m2 0h3m-7 1h7m-6 1h5m-4 1h3"/><path stroke="#fff" d="M13 2h5m-7 1h3m-4 1h2M9 5h2M8 6h2M8 7h2m8 7h1m-2 1h1m-3 1h2m-2 1h1m-2 1h2m-2 1h2m-2 8h2m-2 1h2"/></svg>