<svg xmlns="http://www.w3.org/2000/svg" viewBox="0 -0.5 32 32" shape-rendering="crispEdges">
<path stroke="#000000" d="M0 0h1M9 2h16M9 3h1M24 3h1M8 5h1M23 5h1M8 6h1M23 6h1M8 7h1M23 7h1M4 8h5M23 8h5M0 9h2M3 9h1M8 9h1M23 9h1M28 9h1M30 9h2M0 10h1M2 10h2M8 10h1M23 10h1M28 10h2M31 10h1M0 11h1M3 11h1M6 11h5M21 11h5M28 11h1M31 11h1M0 12h1M2 12h2M5 12h1M11 12h1M20 12h1M26 12h1M28 12h2M31 12h1M0 13h2M3 13h2M12 13h1M19 13h1M27 13h2M30 13h2M3 14h2M13 14h6M27 14h2M4 15h1M27 15h1M4 16h1M27 16h1M4 17h1M27 17h1M4 18h1M7 18h1M10 18h1M13 18h1M16 18h1M19 18h1M22 18h1M25 18h1M27 18h1M3 19h1M5 19h21M28 19h1M2 20h1M6 20h1M9 20h1M12 20h1M15 20h1M18 20h1M21 20h1M24 20h1M27 20h1M29 20h1M1 21h1M4 21h24M30 21h1M0 22h1M5 22h1M8 22h1M11 22h1M14 22h1M17 22h1M20 22h1M23 22h1M26 22h1M29 22h1M31 22h1M0 23h1M3 23h27M31 23h1M0 24h1M31 24h1M0 25h1M31 25h1M0 26h1M31 26h1M1 27h30M1 28h1M5 28h1M24 28h1M28 28h1M2 29h3M25 29h3" />
<path stroke="#ffffff" d="M0 0h1M10 3h14M10 4h13M9 5h2M14 5h9M9 6h14M9 7h2M20 7h3M9 8h14M9 9h2M21 9h2M1 10h1M4 10h4M9 10h14M25 10h3M30 10h1M1 11h1M11 11h3M18 11h3M30 11h1M6 12h1M8 12h1M10 12h1M12 12h1M14 12h4M19 12h1M22 12h1M24 12h1M5 13h1M7 13h1M9 13h1M11 13h1M21 13h1M23 13h1M25 13h1M6 14h1M8 14h1M10 14h1M12 14h1M20 14h1M22 14h1M24 14h1M5 15h1M7 15h1M9 15h1M11 15h1M13 15h1M15 15h1M17 15h1M19 15h1M21 15h1M23 15h1M25 15h1M6 16h1M8 16h1M10 16h1M12 16h1M14 16h1M16 16h1M18 16h1M20 16h1M22 16h1M24 16h1M5 17h1M7 17h1M9 17h1M11 17h1M13 17h1M15 17h1M17 17h1M19 17h1M21 17h1M23 17h1M25 17h1M6 18h1M8 18h2M11 18h2M14 18h2M17 18h2M20 18h2M23 18h2M4 20h2M7 20h2M10 20h2M13 20h2M16 20h2M19 20h2M22 20h2M25 20h2M3 21h1M2 22h3M6 22h2M9 22h2M12 22h2M15 22h2M18 22h2M21 22h2M24 22h2M27 22h2M1 23h1M2 24h1M4 24h1M6 24h1M8 24h1M10 24h1M12 24h1M14 24h1M16 24h1M18 24h1M20 24h1M22 24h1M24 24h1M26 24h1M28 24h1M1 25h1M3 25h1M5 25h1M7 25h1M9 25h1M11 25h1M13 25h1M15 25h1M17 25h1M19 25h1M21 25h1M23 25h1M25 25h1M27 25h1M29 25h1M2 28h1M25 28h1" />
<path stroke="#808080" d="M0 0h1M8 4h2M23 4h2M24 9h1M2 11h1M4 11h2M14 11h4M26 11h2M29 11h1M1 12h1M4 12h1M13 12h1M18 12h1M27 12h1M30 12h1M3 28h2M26 28h2" />
<path stroke="#0000ff" d="M0 0h1M11 5h3M11 7h9M11 9h10" />
<path stroke="#c0c0c0" d="M0 0h1M4 9h4M25 9h3M24 10h1M13 13h6" />
<path stroke="#ffff00" d="M0 0h1M7 12h1M9 12h1M21 12h1M23 12h1M6 13h1M8 13h1M10 13h1M20 13h1M22 13h1M24 13h1M5 14h1M7 14h1M9 14h1M11 14h1M19 14h1M21 14h1M23 14h1M25 14h1M6 15h1M8 15h1M10 15h1M12 15h1M14 15h1M16 15h1M18 15h1M20 15h1M22 15h1M24 15h1M5 16h1M7 16h1M9 16h1M11 16h1M13 16h1M15 16h1M17 16h1M19 16h1M21 16h1M23 16h1M25 16h1M6 17h1M8 17h1M10 17h1M12 17h1M14 17h1M16 17h1M18 17h1M20 17h1M22 17h1M24 17h1M5 18h1M4 19h1M26 19h1M3 20h1M2 21h1M28 21h1M1 22h1M2 23h1M1 24h1M3 24h1M5 24h1M7 24h1M9 24h1M11 24h1M13 24h1M15 24h1M17 24h1M19 24h1M21 24h1M23 24h1M25 24h1M27 24h1M29 24h1M2 25h1M4 25h1M6 25h1M8 25h1M10 25h1M12 25h1M14 25h1M16 25h1M18 25h1M20 25h1M22 25h1M24 25h1M26 25h1M28 25h1" />
<path stroke="#808000" d="M0 0h1M25 12h1M26 13h1M26 14h1M26 15h1M26 16h1M26 17h1M26 18h1M27 19h1M28 20h1M29 21h1M30 22h1M30 23h1M30 24h1M30 25h1M1 26h30" />
</svg>