<svg xmlns="http://www.w3.org/2000/svg" width="32" height="32" shape-rendering="crispEdges" viewBox="0 -0.5 32 32"><path stroke="#000" d="M12 0h8M9 1h3m2 0h1m5 0h3M7 2h3m1 0h1m3 0h1m7 0h2M6 3h1m1 0h1m1 0h1m14 0h1M5 4h1m3 0h1m1 0h1m3 0h1m10 0h1M4 5h1m5 0h1m1 0h1m14 0h1M3 6h1m1 0h1m5 0h1m3 0h1m12 0h1M2 7h1m1 0h1m1 0h1m5 0h1m16 0h1M2 8h2m1 0h1m1 0h1m5 0h1m1 0h1m13 0h1M1 9h1m2 0h1m1 0h1m1 0h1m3 0h1m17 0h1M1 10h1m3 0h1m1 0h1m1 0h1m3 0h1m1 0h1m14 0h1M0 11h1m1 0h1m5 0h1m1 0h1m3 0h1m16 0h1M0 12h2m1 0h1m1 0h1m3 0h1m1 0h1m3 0h1m15 0h1M0 13h1m1 0h1m1 0h1m1 0h1m3 0h1m1 0h1m1 0h4m13 0h1M0 14h2m1 0h1m1 0h1m1 0h1m1 0h1m1 0h1m1 0h1m4 0h1m12 0h1M0 15h1m1 0h1m1 0h1m1 0h1m1 0h1m1 0h1m1 0h2m4 0h1m12 0h1M0 16h1m12 0h1m4 0h2m1 0h1m1 0h1m1 0h1m1 0h1m1 0h1m1 0h1M0 17h1m12 0h1m4 0h1m1 0h1m1 0h1m1 0h1m1 0h1m1 0h1m1 0h2M0 18h1m13 0h4m1 0h1m1 0h1m3 0h1m1 0h1m1 0h1m1 0h1M0 19h1m15 0h1m3 0h1m1 0h1m3 0h1m1 0h1m1 0h2M0 20h1m16 0h1m3 0h1m1 0h1m5 0h1m1 0h1M1 21h1m14 0h1m1 0h1m3 0h1m1 0h1m1 0h1m3 0h1M1 22h1m17 0h1m3 0h1m1 0h1m1 0h1m2 0h1M2 23h1m13 0h1m1 0h1m5 0h1m1 0h1m1 0h2M2 24h1m16 0h1m5 0h1m1 0h1m1 0h1M3 25h1m12 0h1m3 0h1m5 0h1m1 0h1M4 26h1m14 0h1m1 0h1m5 0h1M5 27h1m10 0h1m3 0h1m1 0h1m3 0h1M6 28h1m14 0h1m1 0h1m1 0h1M7 29h2m7 0h1m3 0h1m1 0h3M9 30h3m5 0h1m2 0h3m-11 1h8"/><path stroke="#fff" d="M12 1h2m1 0h5M10 2h1m1 0h3m1 0h7M7 3h1m1 0h1m1 0h14M6 4h3m1 0h1m1 0h3m1 0h10M5 5h5m1 0h1m1 0h14M4 6h1m1 0h5m1 0h3m1 0h12M3 7h1m1 0h1m1 0h5m1 0h16M4 8h1m1 0h1m1 0h5m1 0h1m1 0h13M2 9h2m1 0h1m1 0h1m1 0h3m1 0h17M2 10h3m1 0h1m1 0h1m1 0h3m1 0h1m1 0h14M1 11h1m1 0h5m1 0h1m1 0h3m1 0h16M2 12h1m1 0h1m1 0h3m1 0h1m1 0h3m1 0h15M1 13h1m1 0h1m1 0h1m1 0h3m1 0h1m1 0h1m4 0h13M2 14h1m1 0h1m1 0h1m1 0h1m1 0h1m1 0h1m6 0h12M1 15h1m1 0h1m1 0h1m1 0h1m1 0h1m1 0h1m7 0h12M1 16h12m7 0h1m1 0h1m1 0h1m1 0h1m1 0h1m1 0h1M1 17h12m6 0h1m1 0h1m1 0h1m1 0h1m1 0h1m1 0h1M1 18h13m4 0h1m1 0h1m1 0h3m1 0h1m1 0h1m1 0h1M1 19h15m1 0h3m1 0h1m1 0h3m1 0h1m1 0h1M1 20h16m1 0h3m1 0h1m1 0h5m1 0h1M2 21h14m1 0h1m1 0h3m1 0h1m1 0h1m1 0h3M2 22h17m1 0h3m1 0h1m1 0h1m1 0h2M3 23h13m1 0h1m1 0h5m1 0h1m1 0h1M3 24h16m1 0h5m1 0h1m1 0h1M4 25h12m1 0h3m1 0h5m1 0h1M5 26h14m1 0h1m1 0h5M6 27h10m1 0h3m1 0h1m1 0h3M7 28h14m1 0h1m1 0h1M9 29h7m1 0h3m1 0h1m-10 1h5m1 0h2"/></svg>