<svg xmlns="http://www.w3.org/2000/svg" viewBox="0 -0.5 32 32" shape-rendering="crispEdges">
<path stroke="#000000" d="M0 0h1M2 0h4M13 0h4M21 0h5M2 1h1M6 1h1M12 1h1M16 1h1M19 1h2M26 1h2M2 2h1M6 2h1M12 2h1M16 2h1M18 2h1M22 2h3M28 2h1M2 3h1M7 3h1M11 3h1M16 3h1M18 3h1M21 3h1M25 3h1M28 3h1M2 4h1M7 4h1M11 4h1M16 4h1M18 4h1M21 4h1M25 4h4M2 5h1M8 5h1M10 5h1M16 5h1M18 5h1M22 5h3M2 6h1M5 6h1M8 6h1M10 6h1M13 6h1M16 6h1M19 6h2M25 6h2M2 7h1M5 7h2M9 7h1M12 7h2M16 7h1M21 7h3M27 7h1M2 8h1M5 8h2M9 8h1M12 8h2M16 8h1M18 8h3M24 8h1M28 8h1M2 9h1M5 9h1M7 9h1M11 9h1M13 9h1M16 9h1M18 9h1M21 9h1M25 9h1M28 9h1M2 10h1M5 10h1M7 10h1M11 10h1M13 10h1M16 10h1M18 10h1M21 10h4M28 10h1M2 11h1M5 11h1M8 11h1M10 11h1M13 11h1M16 11h1M19 11h1M27 11h1M1 12h10M12 12h7M20 12h7M1 13h1M11 13h1M19 13h1M27 13h2M1 14h1M10 14h1M18 14h1M29 14h1M1 15h1M9 15h1M17 15h1M30 15h1M1 16h1M9 16h1M13 16h3M17 16h1M21 16h5M30 16h1M1 17h1M8 17h1M12 17h1M15 17h1M17 17h1M20 17h1M24 17h1M26 17h1M30 17h1M1 18h1M5 18h4M12 18h1M15 18h3M20 18h1M24 18h1M27 18h3M1 19h1M5 19h1M8 19h1M12 19h1M15 19h1M17 19h1M20 19h1M24 19h3M1 20h1M5 20h1M8 20h1M12 20h1M15 20h1M18 20h1M20 20h1M24 20h1M27 20h2M1 21h1M5 21h1M8 21h1M12 21h1M15 21h1M19 21h2M24 21h1M29 21h1M1 22h1M5 22h1M8 22h1M12 22h1M15 22h1M20 22h1M24 22h1M30 22h1M1 23h1M5 23h1M8 23h1M11 23h2M15 23h1M18 23h3M24 23h2M30 23h1M1 24h1M5 24h1M9 24h1M11 24h1M15 24h1M17 24h1M21 24h1M23 24h1M26 24h1M30 24h1M1 25h1M5 25h6M14 25h4M22 25h4M30 25h1M1 26h1M14 26h1M17 26h1M30 26h1M1 27h1M12 27h2M17 27h1M30 27h1M1 28h1M12 28h1M18 28h1M30 28h1M1 29h1M12 29h1M19 29h1M29 29h1M1 30h1M11 30h2M20 30h1M27 30h2M2 31h9M13 31h7M21 31h6" />
<path stroke="#c0c0c0" d="M0 0h1M3 1h2M13 1h2M21 1h4M3 2h3M13 2h2M19 2h2M25 2h2M3 3h3M12 3h3M19 3h1M26 3h1M3 4h1M5 4h2M12 4h3M19 4h1M3 5h1M6 5h1M11 5h2M14 5h1M19 5h1M3 6h1M6 6h2M11 6h2M14 6h1M21 6h3M3 7h1M7 7h1M10 7h2M14 7h1M24 7h2M3 8h1M7 8h2M10 8h2M14 8h1M25 8h2M3 9h1M8 9h1M10 9h1M14 9h1M19 9h2M26 9h1M3 10h1M8 10h3M14 10h1M19 10h2M25 10h2M3 11h1M9 11h1M14 11h1M20 11h6" />
<path stroke="#808080" d="M0 0h1M5 1h1M15 1h1M25 1h1M15 2h1M21 2h1M27 2h1M6 3h1M15 3h1M20 3h1M27 3h1M4 4h1M15 4h1M20 4h1M4 5h2M7 5h1M13 5h1M15 5h1M20 5h2M4 6h1M15 6h1M24 6h1M4 7h1M8 7h1M15 7h1M26 7h1M4 8h1M15 8h1M27 8h1M4 9h1M9 9h1M15 9h1M27 9h1M4 10h1M15 10h1M27 10h1M4 11h1M15 11h1M26 11h1" />
<path stroke="#ff0000" d="M0 0h1M2 13h8M2 14h7M2 15h7M2 16h3M2 17h3M13 17h2M2 18h3M13 18h2M2 19h3M13 19h2M2 20h3M13 20h2M2 21h3M13 21h2M2 22h3M13 22h2M2 23h3M13 23h2M2 24h3M12 24h2M2 25h3M11 25h2M2 26h11M2 27h10M2 28h9M2 29h1" />
<path stroke="#800000" d="M0 0h1M10 13h1M9 14h1M5 16h4M5 17h3M14 24h1M13 25h1M13 26h1M11 28h1M3 29h9M2 30h9" />
<path stroke="#0000ff" d="M0 0h1M12 13h1M14 13h1M16 13h1M11 14h1M13 14h1M15 14h1M10 15h1M12 15h1M14 15h1M16 15h1M11 16h1M10 17h1M23 17h1M9 18h1M22 18h1M10 19h1M23 19h1M9 20h1M22 20h1M10 21h1M23 21h1M9 22h1M22 22h1M10 23h1M23 23h1M22 24h1M15 26h1M14 27h1M16 27h1M13 28h1M15 28h1M17 28h1" />
<path stroke="#ff00ff" d="M0 0h1M13 13h1M15 13h1M17 13h1M12 14h1M14 14h1M16 14h1M11 15h1M13 15h1M15 15h1M10 16h1M9 17h1M22 17h1M10 18h1M23 18h1M9 19h1M22 19h1M10 20h1M23 20h1M9 21h1M22 21h1M10 22h1M23 22h1M9 23h1M22 23h1M10 24h1M16 26h1M15 27h1M14 28h1M16 28h1" />
<path stroke="#000080" d="M0 0h1M18 13h1M17 14h1M16 17h1M21 17h1M11 18h1M21 19h1M11 20h1M21 21h1M11 22h1M21 23h1M14 29h1M16 29h1M18 29h1M13 30h1M15 30h1M17 30h1M19 30h1" />
<path stroke="#ffff00" d="M0 0h1M20 13h7M19 14h10M18 15h12M18 16h3M27 16h2M18 17h2M18 18h2M19 19h1M25 20h2M25 21h4M26 22h4M27 23h3M18 24h3M27 24h3M19 25h3M26 25h4M19 26h10M20 27h8M22 28h5" />
<path stroke="#800080" d="M0 0h1M12 16h1M16 16h1M11 17h1M21 18h1M11 19h1M21 20h1M11 21h1M21 22h1M13 29h1M15 29h1M17 29h1M14 30h1M16 30h1M18 30h1" />
<path stroke="#808000" d="M0 0h1M26 16h1M29 16h1M27 17h3M18 19h1M19 20h1M25 22h1M26 23h1M18 25h1M18 26h1M29 26h1M18 27h2M28 27h2M19 28h3M27 28h3M20 29h9M21 30h6" />
</svg>