<svg xmlns="http://www.w3.org/2000/svg" width="32" height="32" shape-rendering="crispEdges" viewBox="0 -0.5 32 32"><path stroke="#000" d="M13 2h11M11 3h3m9 0h2M9 4h2m2 0h3m6 0h1m2 0h1M7 5h2m3 0h2m2 0h1m4 0h4m1 0h1M5 6h2m4 0h2m4 0h4m4 0h3M3 7h2m5 0h1m1 0h1m14 0h2M1 8h2m6 0h1m1 0h1m17 0h2M0 9h1m7 0h1m2 0h1m19 0h1M0 10h1m6 0h1m2 0h1m20 0h1M1 11h1m4 0h1m3 0h1m19 0h1M1 12h1m3 0h1m3 0h1m20 0h1M2 13h1m1 0h1m4 0h1m19 0h1M2 14h2m4 0h1m20 0h1M2 15h1m5 0h1m19 0h1M1 16h1m5 0h1m20 0h1M1 17h1m5 0h1m19 0h1M2 18h1m3 0h1m20 0h1M3 19h1m2 0h1m19 0h1M4 20h2m20 0h1M5 21h1m19 0h1M4 22h1m20 0h1M4 23h1m19 0h1M5 24h2m17 0h1M7 25h2m14 0h1M9 26h2m12 0h1m-13 1h2m9 0h1m-10 1h2m7 0h1m-8 1h2m4 0h1m-5 1h2m2 0h1m-3 1h2"/><path stroke="#fff" d="M14 3h9M11 4h1m4 0h6M9 5h2m3 0h2M7 6h3m3 0h4m7 0h1M5 7h4m4 0h5m4 0h5M3 8h5m4 0h3m1 0h2m2 0h9M1 9h6m2 0h1m2 0h4m2 0h1m1 0h11M1 10h5m2 0h1m2 0h2m4 0h1m1 0h12M2 11h3m2 0h2m2 0h6m2 0h2m2 0h7M2 12h2m2 0h2m2 0h6m1 0h6m2 0h5M5 13h3m2 0h6m1 0h3m2 0h3m2 0h2M4 14h3m2 0h3m2 0h8m2 0h5M3 15h4m2 0h5m2 0h3m2 0h3m2 0h2M2 16h4m2 0h3m2 0h3m2 0h3m2 0h5M2 17h4m2 0h5m2 0h3m2 0h3m2 0h2M3 18h2m2 0h3m2 0h3m2 0h3m2 0h5M4 19h1m2 0h5m2 0h3m2 0h3m2 0h2M6 20h3m2 0h3m2 0h3m2 0h5M6 21h5m2 0h3m2 0h3m2 0h2M5 22h8m2 0h3m2 0h5M5 23h10m2 0h3m2 0h2M7 24h10m2 0h5M9 25h10m2 0h2m-12 1h12m-10 1h9m-7 1h7m-5 1h4m-2 1h2"/><path stroke="silver" d="M12 4h1m11 0h1M11 5h1m5 0h4m4 0h1M10 6h1m10 0h3M9 7h1m1 0h1m6 0h4M8 8h1m1 0h1M7 9h1m2 0h1m-5 1h1m2 0h1m-5 1h1m3 0h1m-6 1h1m3 0h1m-6 1h1m4 0h1m-2 1h1m-1 1h1m-2 1h1m-1 1h1m-2 1h1m-1 1h1"/><path stroke="gray" d="M23 4h1"/><path stroke="purple" d="M15 8h1m2 0h2m-4 1h2m1 0h1m-7 1h4m1 0h1m-2 1h2m-3 1h1m-1 1h1"/><path stroke="#00f" d="M21 11h2m0 1h2m-5 1h2m3 0h2m-15 1h2m8 0h2m-10 1h2m3 0h2m3 0h2m-15 1h2m3 0h2m3 0h2m-10 1h2m3 0h2m3 0h2m-15 1h2m3 0h2m3 0h2m-10 1h2m3 0h2m3 0h2M9 20h2m3 0h2m3 0h2m-10 1h2m3 0h2m3 0h2m-10 1h2m3 0h2m-5 1h2m3 0h2m-5 1h2m0 1h2"/></svg>