<svg xmlns="http://www.w3.org/2000/svg" width="32" height="32" shape-rendering="crispEdges" viewBox="0 -0.5 32 32"><path stroke="#000" d="M9 2h2m7 0h1M8 3h1m2 0h2m4 0h1m1 0h1M8 4h1m4 0h2m1 0h1m3 0h1M7 5h1m7 0h1m5 0h1M7 6h1m6 0h1m7 0h1M6 7h1m6 0h1m9 0h1m1 0h2M6 8h1m5 0h1m10 0h2m1 0h1M5 9h1m5 0h1m9 0h2m4 0h1M5 10h1m4 0h1m8 0h2m4 0h1m1 0h1M4 11h1m4 0h1m7 0h2m4 0h3m2 0h1M4 12h1m3 0h1m6 0h2m7 0h3m1 0h1M3 13h1m3 0h1m5 0h2m9 0h1m4 0h1M3 14h1m2 0h1m4 0h2m16 0h1M2 15h1m2 0h1m3 0h2m19 0h1M2 16h1m1 0h1m2 0h2m3 0h2m7 0h2m7 0h1M1 17h1m1 0h1m3 0h1m2 0h2m7 0h2m10 0h1M1 18h1m2 0h1m3 0h1m4 0h1m3 0h2m3 0h1m7 0h2M0 19h1m4 0h1m2 0h1m2 0h2m7 0h2m6 0h2M0 20h2m4 0h1m2 0h1m8 0h2m6 0h2M2 21h2m3 0h1m1 0h1m14 0h2M4 22h2m2 0h1m1 0h1m11 0h2M6 23h2m1 0h2m9 0h2M8 24h2m1 0h1m6 0h2m-10 1h2m4 0h2m-6 1h1m1 0h2m-4 1h2"/><path stroke="#fff" d="M9 3h2m7 0h1M9 4h4m4 0h3M8 5h7m1 0h5M8 6h6m1 0h7M7 7h6m1 0h9M7 8h5m1 0h10m2 0h1M6 9h5m1 0h9m2 0h4M6 10h4m1 0h8m2 0h4m1 0h1M5 11h4m1 0h7m2 0h4m3 0h2M5 12h3m1 0h6m2 0h7m3 0h1M4 13h3m1 0h5m2 0h9m1 0h4M4 14h2m1 0h4m2 0h16M3 15h2m1 0h3m2 0h19M3 16h1m1 0h2m2 0h3m2 0h7m2 0h7M2 17h1m1 0h3m1 0h2m2 0h7m2 0h10M2 18h2m1 0h3m1 0h4m1 0h3m2 0h3m1 0h7M1 19h4m1 0h2m1 0h2m2 0h7m2 0h6M2 20h4m1 0h2m1 0h8m2 0h6M4 21h3m1 0h1m1 0h14M6 22h2m1 0h1m1 0h11M8 23h1m2 0h9m-10 1h1m1 0h6m-6 1h4m-3 1h1"/></svg>