<svg xmlns="http://www.w3.org/2000/svg" width="32" height="32" shape-rendering="crispEdges" viewBox="0 -0.5 32 32"><path stroke="#000" d="M1 6h29M0 7h1m29 0h1M0 8h1m1 0h1m24 0h1m2 0h1M0 9h1m29 0h1M0 10h1m29 0h1M0 11h1m29 0h1M0 12h1m4 0h3m3 0h9m3 0h3m4 0h1M0 13h1m3 0h1m1 0h1m1 0h1m2 0h1m10 0h1m1 0h1m1 0h1m3 0h1M0 14h1m3 0h2m1 0h2m2 0h1m10 0h2m1 0h2m3 0h1M0 15h1m3 0h1m1 0h1m1 0h1m2 0h1m10 0h1m1 0h1m1 0h1m3 0h1M0 16h1m4 0h3m3 0h1m11 0h3m4 0h1M0 17h1m29 0h1M0 18h1m29 0h1M0 19h1m29 0h1M0 20h1m29 0h1M0 21h1m13 0h1m8 0h1m6 0h1M0 22h1m9 0h1m7 0h1m11 0h1M0 23h1m1 0h1m5 0h1m11 0h1m3 0h1m2 0h1m2 0h1M0 24h1m4 0h1m18 0h1m5 0h1M0 25h1m4 0h1m3 0h3m2 0h3m2 0h3m2 0h1m5 0h1M1 26h29"/><path stroke="#fff" d="M1 7h27M1 8h1M1 9h1m-1 1h1m-1 1h1m-1 1h1m-1 1h1m3 0h1m1 0h1m1 0h1m9 0h1m3 0h1m1 0h1m1 0h1M1 14h1m7 0h1m9 0h1m7 0h1M1 15h1m3 0h1m1 0h1m1 0h1m9 0h1m3 0h1m1 0h1m1 0h1M1 16h1m6 0h2m2 0h8m6 0h2M1 17h1m3 0h4m14 0h4M1 18h1m-1 1h1m-1 1h1m5 0h15M1 21h1m4 0h1m8 0h1M1 22h1m4 0h1m4 0h1m7 0h1M1 23h1m3 0h1m3 0h1m11 0h1"/><path stroke="gray" d="M28 7h2m-2 1h2m-2 1h2m-2 1h2M4 11h4m14 0h4m2 0h2M3 12h2m3 0h1m12 0h2m3 0h1m1 0h2M3 13h1m13 0h2m2 0h1m6 0h2M3 14h1m2 0h1m14 0h1m2 0h1m3 0h2M3 15h1m17 0h1m6 0h2M4 16h1m17 0h1m5 0h2m-2 1h2m-2 1h2m-2 1h2m-8 1h2m4 0h2m-2 1h2m-7 1h2m3 0h2m-2 1h2M1 24h4m1 0h18m1 0h5M1 25h4m1 0h3m3 0h2m3 0h2m3 0h2m1 0h5"/><path stroke="silver" d="M3 8h24M2 9h26M2 10h26M2 11h2m4 0h14m4 0h2M2 12h1m6 0h2m9 0h1m6 0h1M2 13h1m7 0h1m9 0h1M2 14h1m7 0h1m6 0h2m1 0h1M2 15h1m7 0h1m6 0h2m1 0h1M2 16h2m6 0h1m9 0h2M2 17h3m4 0h14m4 0h1M2 18h26M2 19h26M2 20h5m17 0h4M2 21h4m1 0h7m2 0h7m1 0h4M2 22h4m1 0h3m2 0h6m2 0h3m2 0h3M3 23h2m1 0h2m2 0h10m2 0h2m1 0h2"/><path stroke="olive" d="M12 13h5m-5 1h1m3 0h1m-5 1h1m3 0h1"/><path stroke="#ff0" d="M13 14h3m-3 1h3"/></svg>