<svg xmlns="http://www.w3.org/2000/svg" width="32" height="32" shape-rendering="crispEdges" viewBox="0 -0.5 32 32"><path stroke="#fff" d="M0 0h32M0 1h7m18 0h7M0 2h7m1 0h16m2 0h6M0 3h7m1 0h1m14 0h1m2 0h6M0 4h7m1 0h1m17 0h6M0 5h7m1 0h1m17 0h6M0 6h7m1 0h1m17 0h6M0 7h7m1 0h1m17 0h6M0 8h7m1 0h1m17 0h6M0 9h7m1 0h1m17 0h6M0 10h7m1 0h1m17 0h6M0 11h7m1 0h1m17 0h6M0 12h7m1 0h1m17 0h6M0 13h7m1 0h1m17 0h6M0 14h7m1 0h1m17 0h6M0 15h7m1 0h1m17 0h6M0 16h7m1 0h1m17 0h6M0 17h7m1 0h1m17 0h6M0 18h7m1 0h1m17 0h6M0 19h7m1 0h1m17 0h6M0 20h7m1 0h1m17 0h6M0 21h7m1 0h1m17 0h6M0 22h7m1 0h1m17 0h6M0 23h7m1 0h1m17 0h6M0 24h7m1 0h1m17 0h6M0 25h1m-1 1h1m1 0h3m2 0h3m2 0h3m2 0h3m2 0h3m2 0h3M0 27h3m2 0h3m2 0h3m2 0h3m2 0h3m2 0h3m2 0h2M0 28h1m2 0h3m2 0h3m2 0h3m2 0h3m2 0h3m2 0h3M1 29h3m2 0h3m2 0h3m2 0h3m2 0h3m2 0h3M4 30h3m2 0h3m2 0h3m2 0h3m2 0h2"/><path stroke="gray" d="M7 1h17M7 2h1M7 3h1M7 4h1M7 5h1M7 6h1M7 7h1M7 8h1M7 9h1m-1 1h1m-1 1h1m-1 1h1m-1 1h1m-1 1h1m-1 1h1m-1 1h1m-1 1h1m-1 1h1m-1 1h1m-1 1h1m-1 1h1m-1 1h1m-1 1h1m-1 1h1"/><path stroke="#000" d="M24 1h1m-1 1h1M9 3h14m1 0h1M9 4h1m12 0h1m1 0h1M9 5h1m12 0h1m1 0h1M9 6h1m12 0h1m1 0h1M9 7h1m13 0h2M9 8h1m13 0h2M9 9h1m13 0h2M9 10h1m12 0h3M9 11h1m12 0h1m1 0h1M9 12h1m12 0h1m1 0h1M9 13h1m2 0h1m9 0h1m1 0h1M9 14h1m1 0h1m1 0h1m8 0h1m1 0h1M9 15h1m2 0h1m9 0h1m1 0h1M9 16h1m12 0h1m1 0h1M9 17h1m12 0h1m1 0h1M9 18h1m12 0h1m1 0h1M9 19h1m13 0h2M9 20h1m13 0h2M9 21h1m13 0h2M9 22h1m12 0h3M9 23h1m12 0h1m1 0h1M9 24h1m12 0h1m1 0h1M1 25h31"/><path stroke="silver" d="M25 2h1m-1 1h1m-3 1h1m1 0h1m-3 1h1m1 0h1m-3 1h1m1 0h1m-4 1h1m2 0h1m-4 1h1m2 0h1m-4 1h1m2 0h1m-1 1h1m-3 1h1m1 0h1m-3 1h1m1 0h1m-3 1h1m1 0h1m-3 1h1m1 0h1m-3 1h1m1 0h1m-3 1h1m1 0h1m-3 1h1m1 0h1m-3 1h1m1 0h1m-4 1h1m2 0h1m-4 1h1m2 0h1m-4 1h1m2 0h1m-1 1h1m-3 1h1m1 0h1m-3 1h1m1 0h1M1 26h1m3 0h2m3 0h2m3 0h2m3 0h2m3 0h2m3 0h2M3 27h2m3 0h2m3 0h2m3 0h2m3 0h2m3 0h2M1 28h2m3 0h2m3 0h2m3 0h2m3 0h2m3 0h2M4 29h2m3 0h2m3 0h2m3 0h2m3 0h2M7 30h2m3 0h2m3 0h2m3 0h2"/><path stroke="#0ff" d="M10 4h12M10 5h1m-1 1h1m-1 1h1m-1 1h1m-1 1h1m-1 1h1m-1 1h1m-1 1h1m-1 1h1m-1 1h1m-1 1h1m-1 1h1m-1 1h1m-1 1h1m-1 1h1m-1 1h1m-1 1h1m-1 1h1m-1 1h1m-1 1h1"/><path stroke="teal" d="M11 5h11M11 6h11M11 7h11M11 8h11M11 9h11m-11 1h11m-11 1h11m-11 1h11m-11 1h1m1 0h9m-8 1h8m-11 1h1m1 0h9m-11 1h11m-11 1h11m-11 1h11m-11 1h11m-11 1h11m-11 1h11m-11 1h11m-11 1h11m-11 1h11"/><path stroke="#ff0" d="M12 14h1"/></svg>