<svg xmlns="http://www.w3.org/2000/svg" viewBox="0 -0.5 32 32" shape-rendering="crispEdges">
<path stroke="#000000" d="M0 0h1M12 0h8M9 1h3M20 1h3M7 2h2M23 2h2M6 3h1M25 3h1M5 4h1M26 4h1M4 5h1M27 5h1M3 6h1M28 6h1M2 7h1M29 7h1M2 8h1M29 8h1M1 9h1M30 9h1M1 10h1M30 10h1M0 11h1M31 11h1M0 12h1M31 12h1M0 13h1M14 13h4M31 13h1M0 14h1M13 14h1M18 14h1M31 14h1M0 15h1M13 15h1M18 15h1M31 15h1M0 16h1M13 16h1M18 16h1M31 16h1M0 17h1M13 17h1M18 17h1M31 17h1M0 18h1M14 18h4M31 18h1M0 19h1M31 19h1M0 20h1M31 20h1M1 21h1M30 21h1M1 22h1M30 22h1M2 23h1M29 23h1M2 24h1M29 24h1M3 25h1M28 25h1M4 26h1M27 26h1M5 27h1M26 27h1M6 28h1M25 28h1M7 29h2M23 29h2M9 30h3M20 30h3M12 31h8" />
<path stroke="#00ff00" d="M0 0h1M12 1h2M12 2h2M12 3h2M12 4h2M13 5h1M13 6h1M13 7h1M13 8h2M13 9h2M14 10h1M1 11h2M14 11h1M1 12h5M5 13h4M23 18h4M26 19h5M17 20h1M29 20h2M17 21h1M17 22h2M17 23h2M18 24h1M18 25h1M18 26h1M18 27h2M18 28h2M18 29h2M18 30h2" />
<path stroke="#808000" d="M0 0h1M14 1h2M14 2h2M14 3h2M14 4h2M15 5h1M15 6h1M15 7h1M15 8h1M15 9h1M15 10h1M15 11h1M1 13h4M6 14h6M20 17h6M27 18h4M16 20h1M16 21h1M16 22h1M16 23h1M16 24h1M16 25h1M16 26h1M16 27h2M16 28h2M16 29h2M16 30h2" />
<path stroke="#808080" d="M0 0h1M16 1h1M9 2h1M16 2h1M8 3h1M16 3h1M10 4h1M16 4h1M9 5h1M14 5h1M16 5h1M11 6h1M16 6h1M10 7h1M16 7h1M27 7h1M12 8h1M16 8h1M26 8h1M28 8h1M11 9h1M16 9h1M25 9h1M27 9h1M29 9h1M13 10h1M16 10h1M24 10h1M26 10h1M28 10h1M12 11h1M16 11h1M23 11h1M25 11h1M27 11h1M29 11h1M14 12h5M22 12h1M24 12h1M26 12h1M28 12h1M30 12h1M12 13h2M18 13h2M21 13h1M23 13h1M25 13h1M27 13h1M29 13h1M12 14h1M14 14h1M17 14h1M19 14h2M22 14h1M24 14h1M26 14h1M28 14h1M30 14h1M12 15h1M19 15h12M1 16h12M19 16h1M1 17h1M3 17h1M5 17h1M7 17h1M9 17h1M11 17h2M14 17h1M17 17h1M19 17h1M2 18h1M4 18h1M6 18h1M8 18h1M10 18h1M12 18h2M18 18h2M1 19h1M3 19h1M5 19h1M7 19h1M9 19h1M13 19h5M2 20h1M4 20h1M6 20h1M8 20h1M15 20h1M19 20h1M3 21h1M5 21h1M7 21h1M15 21h1M18 21h1M2 22h1M4 22h1M6 22h1M15 22h1M20 22h1M3 23h1M5 23h1M15 23h1M19 23h1M4 24h1M15 24h1M21 24h1M15 25h1M20 25h1M15 26h1M17 26h1M22 26h1M15 27h1M21 27h1M15 28h1M23 28h1M15 29h1M22 29h1M15 30h1" />
<path stroke="#c0c0c0" d="M0 0h1M17 1h3M10 2h2M17 2h3M21 2h2M10 3h2M17 3h4M22 3h1M11 4h1M17 4h3M21 4h1M11 5h2M17 5h4M4 6h2M12 6h1M14 6h1M17 6h3M21 6h1M26 6h2M3 7h4M12 7h1M14 7h1M17 7h2M20 7h1M25 7h2M28 7h1M4 8h4M17 8h3M24 8h2M27 8h1M6 9h3M17 9h2M23 9h2M26 9h1M28 9h1M8 10h2M17 10h1M19 10h1M22 10h2M25 10h1M27 10h1M29 10h1M9 11h2M17 11h2M21 11h2M24 11h1M26 11h1M28 11h1M30 11h1M11 12h1M20 12h2M23 12h1M25 12h1M27 12h1M29 12h1M20 13h1M22 13h1M24 13h1M26 13h1M28 13h1M30 13h1M21 14h1M23 14h1M25 14h1M27 14h1M29 14h1M2 17h1M4 17h1M6 17h1M8 17h1M10 17h1M1 18h1M3 18h1M5 18h1M7 18h1M9 18h1M11 18h1M2 19h1M4 19h1M6 19h1M8 19h1M10 19h2M20 19h1M1 20h1M3 20h1M5 20h1M7 20h1M9 20h2M13 20h2M21 20h2M2 21h1M4 21h1M6 21h1M8 21h2M12 21h1M14 21h1M22 21h2M3 22h1M5 22h1M7 22h2M13 22h2M23 22h3M4 23h1M6 23h2M12 23h3M24 23h4M3 24h1M5 24h2M11 24h1M13 24h2M17 24h1M19 24h1M25 24h4M4 25h2M10 25h1M12 25h3M17 25h1M19 25h1M26 25h2M11 26h4M19 26h2M10 27h1M12 27h3M20 27h1M9 28h1M11 28h4M20 28h2M9 29h2M12 29h3M20 29h2M12 30h3" />
<path stroke="#ffffff" d="M0 0h1M20 2h1M21 3h1M23 3h2M20 4h1M22 4h4M21 5h6M20 6h1M22 6h4M19 7h1M21 7h4M20 8h4M19 9h4M18 10h1M20 10h2M19 11h2M19 12h1M12 19h1M11 20h2M10 21h2M13 21h1M9 22h4M8 23h4M7 24h4M12 24h1M6 25h4M11 25h1M5 26h6M6 27h4M11 27h1M7 28h2M10 28h1M11 29h1" />
<path stroke="#008080" d="M0 0h1M7 3h1M6 4h3M5 5h4M6 6h4M7 7h3M8 8h3M9 9h2M10 10h2M11 11h1M12 12h1M19 19h1M20 20h1M20 21h2M21 22h2M21 23h3M22 24h3M22 25h4M23 26h4M23 27h3M24 28h1" />
<path stroke="#0000ff" d="M0 0h1M9 3h1M9 4h1M10 5h1M10 6h1M11 7h1M11 8h1M12 9h1M12 10h1M13 11h1M13 12h1M18 19h1M18 20h1M19 21h1M19 22h1M20 23h1M20 24h1M21 25h1M21 26h1M22 27h1M22 28h1" />
<path stroke="#00ffff" d="M0 0h1M3 8h1M2 9h4M4 10h4M7 11h2M10 12h1M21 19h1M23 20h2M24 21h4M26 22h4M28 23h1" />
<path stroke="#ffff00" d="M0 0h1M2 10h2M3 11h4M6 12h4M9 13h3M20 18h3M22 19h4M25 20h4M28 21h2" />
<path stroke="#ff00ff" d="M0 0h1M1 14h5M2 15h1M4 15h1M6 15h1M8 15h1M10 15h1M21 16h1M23 16h1M25 16h1M27 16h1M29 16h1M26 17h5" />
<path stroke="#800080" d="M0 0h1M1 15h1M3 15h1M5 15h1M7 15h1M9 15h1M11 15h1M20 16h1M22 16h1M24 16h1M26 16h1M28 16h1M30 16h1" />
</svg>