<svg xmlns="http://www.w3.org/2000/svg" width="32" height="32" shape-rendering="crispEdges" viewBox="0 -0.5 32 32"><path stroke="#000" d="M12 3h3m-4 1h1m3 0h2m-7 1h1m2 0h1m3 0h2M9 6h1m2 0h2m1 0h1m3 0h2M8 7h1m2 0h1m1 0h2m2 0h1m3 0h2M7 8h1m2 0h1m2 0h1m2 0h1m2 0h1m3 0h2M6 9h1m5 0h1m2 0h1m1 0h1m2 0h1m4 0h2M5 10h1m3 0h1m4 0h1m4 0h1m7 0h2M4 11h1m6 0h1m4 0h1m1 0h1m4 0h1m1 0h1m3 0h2M3 12h1m3 0h1m5 0h1m4 0h3m1 0h1m1 0h1m2 0h1m3 0h1M2 13h1m6 0h1m5 0h1m4 0h2m3 0h1m4 0h1M1 14h1m3 0h1m5 0h1m6 0h1m3 0h1m2 0h1m3 0h1m1 0h1M0 15h1m6 0h1m5 0h1m3 0h1m1 0h2m3 0h1m3 0h1m1 0h1M0 16h1m2 0h1m5 0h1m6 0h1m4 0h2m4 0h1m1 0h1m1 0h1M0 17h1m4 0h1m5 0h1m3 0h1m7 0h1m2 0h1m1 0h1m1 0h1M0 18h1m1 0h1m4 0h1m6 0h1m7 0h1m2 0h1m1 0h1m1 0h1m1 0h1M0 19h1m3 0h1m4 0h1m4 0h2m5 0h1m2 0h1m1 0h1m1 0h1m1 0h1M1 20h2m13 0h2m2 0h1m2 0h1m1 0h1m1 0h1m1 0h1M3 21h2m3 0h1m4 0h1m4 0h2m2 0h1m1 0h1m1 0h1m1 0h1M5 22h2m3 0h1m4 0h1m5 0h1m1 0h1m1 0h1m1 0h1M7 23h2m8 0h1m2 0h1m1 0h1m1 0h1m1 0h1M9 24h2m3 0h1m4 0h1m1 0h1m1 0h1m1 0h1m-15 1h2m3 0h1m1 0h1m1 0h1m1 0h1m1 0h1m-12 1h2m3 0h1m1 0h2m1 0h1m-9 1h2m1 0h1m3 0h1m-6 1h5"/><path stroke="#fff" d="M12 4h3m-4 1h2m1 0h3m-7 1h2m2 0h1m1 0h3M9 7h2m1 0h1m2 0h2m2 0h2M8 8h2m1 0h2m1 0h2m1 0h1m2 0h3M7 9h1m1 0h3m1 0h2m3 0h2m1 0h4M6 10h2m3 0h3m2 0h3m1 0h1m1 0h1m1 0h3M5 11h1m1 0h3m3 0h2m2 0h1m1 0h1m2 0h1m1 0h1m2 0h2M4 12h2m3 0h3m3 0h3m3 0h1m1 0h1m1 0h1m2 0h3M3 13h1m1 0h3m3 0h3m3 0h3m2 0h3m1 0h4M2 14h2m3 0h3m3 0h3m1 0h1m1 0h3m2 0h1m1 0h3M3 15h3m3 0h3m3 0h2m1 0h1m2 0h2m2 0h3M1 16h1m3 0h3m3 0h3m1 0h1m2 0h3m2 0h4M1 17h3m3 0h3m3 0h2m5 0h3m1 0h2M4 18h2m3 0h3m1 0h1m9 0h2M6 19h2m3 0h3m8 0h2M8 20h2m3 0h3m5 0h2m-13 1h2m3 0h3m2 0h2m-10 1h2m3 0h4m-10 1h1m2 0h2m2 0h2m-4 1h3m-2 1h1"/><path stroke="gray" d="M18 7h1m-1 1h1M8 10h1m1 0h1m4 0h1m5 0h1m1 0h1m-14 1h1m9 0h2m4 0h1M6 12h1m1 0h1m5 0h1m11 0h1M8 13h1m5 0h1m1 0h1M4 14h1m1 0h1m5 0h1m10 0h1M1 15h1m4 0h1m5 0h1m1 0h1m8 0h1M2 16h1m1 0h1m5 0h1m-7 1h1m5 0h1m1 0h1M3 18h1m4 0h1m6 0h3M1 19h1m3 0h1m2 0h1m1 0h1m5 0h4M3 20h1m3 0h1m2 0h1m7 0h2M5 21h1m3 0h1m4 0h1m-8 1h1m3 0h1m2 0h1m1 0h1m-8 1h1m3 0h1m2 0h1m-6 1h1m1 0h1m1 0h1m-3 1h1m1 1h1m1 1h1m1 0h1"/><path stroke="silver" d="M8 9h1m7 0h1M6 11h1m5 0h1m2 0h1m-4 1h1m-9 1h1m5 0h1m20 0h1m-22 1h1m5 0h1m13 0h1M2 15h1m5 0h1m20 0h1m1 0h1M8 16h1m5 0h1m2 0h1m10 0h1m1 0h1M6 17h1m9 0h4m7 0h1m1 0h1m1 0h1M1 18h1m4 0h1m5 0h1m5 0h4m4 0h1m1 0h1m1 0h1M2 19h2m16 0h1m4 0h1m1 0h1m1 0h1M4 20h3m4 0h2m11 0h1m1 0h1m1 0h1M6 21h2m4 0h1m10 0h1m1 0h1m1 0h1M8 22h2m12 0h1m1 0h1m1 0h1m-17 1h1m1 0h1m8 0h1m1 0h1m1 0h1m-14 1h1m7 0h1m1 0h1m1 0h1m-11 1h2m3 0h1m1 0h1m1 0h1m-8 1h2m1 0h1m2 0h1m-3 1h2"/></svg>