<svg xmlns="http://www.w3.org/2000/svg" viewBox="0 -0.5 32 32" shape-rendering="crispEdges">
<path stroke="#000000" d="M0 0h1M16 0h2M13 1h3M18 1h3M12 2h1M15 2h1M18 2h1M21 2h1M12 3h1M15 3h1M18 3h1M21 3h1M12 4h1M15 4h1M18 4h1M21 4h3M12 5h1M15 5h1M18 5h1M21 5h1M24 5h1M12 6h1M15 6h1M18 6h1M21 6h1M24 6h1M12 7h1M15 7h1M18 7h1M21 7h1M24 7h1M12 8h1M15 8h1M18 8h1M21 8h1M24 8h1M7 9h3M12 9h1M15 9h1M18 9h1M21 9h1M24 9h1M7 10h1M10 10h1M12 10h1M21 10h1M24 10h1M8 11h1M11 11h2M24 11h1M8 12h1M12 12h1M24 12h1M9 13h1M24 13h1M9 14h1M24 14h1M10 15h1M24 15h1M10 16h1M23 16h1M10 17h1M23 17h1M11 18h1M23 18h1M11 19h1M22 19h1M12 20h1M22 20h1M13 21h1M21 21h1M14 22h1M21 22h1M14 23h1M21 23h1M13 24h9M13 25h1M22 25h1M13 26h1M22 26h1M13 27h1M22 27h1M13 28h1M22 28h1M13 29h1M22 29h1M13 30h1M22 30h1" />
<path stroke="#ffffff" d="M0 0h1M16 1h1M13 2h1M16 2h1M19 2h1M13 3h1M16 3h1M19 3h1M13 4h1M16 4h1M19 4h1M13 5h1M16 5h1M19 5h1M22 5h1M13 6h1M16 6h1M19 6h1M22 6h1M13 7h1M16 7h1M19 7h1M22 7h1M13 8h1M16 8h1M19 8h1M22 8h1M13 9h2M16 9h2M19 9h1M22 9h1M8 10h1M13 10h8M22 10h1M9 11h1M13 11h10M9 12h2M15 12h8M10 13h4M16 13h7M10 14h5M16 14h7M11 15h4M16 15h6M11 16h11M11 17h11M12 18h9M12 19h9M13 20h7M14 21h6M15 22h4M15 23h4" />
<path stroke="#c0c0c0" d="M0 0h1M17 1h1M14 2h1M17 2h1M20 2h1M14 3h1M17 3h1M20 3h1M14 4h1M17 4h1M20 4h1M14 5h1M17 5h1M20 5h1M23 5h1M14 6h1M17 6h1M20 6h1M23 6h1M14 7h1M17 7h1M20 7h1M23 7h1M14 8h1M17 8h1M20 8h1M23 8h1M20 9h1M23 9h1M9 10h1M23 10h1M10 11h1M23 11h1M11 12h1M14 12h1M23 12h1M14 13h2M23 13h1M15 14h1M23 14h1M15 15h1M22 15h1M22 16h1M22 17h1M21 18h1M21 19h1M20 20h1M20 21h1M19 22h1M19 23h1" />
<path stroke="#808080" d="M0 0h1M13 12h1M23 15h1M22 18h1M21 20h1M20 22h1M20 23h1" />
<path stroke="#ff0000" d="M0 0h1M14 25h5M14 26h4M19 26h1M14 27h5M14 28h4M19 28h1M14 29h5M14 30h4M19 30h1" />
<path stroke="#800000" d="M0 0h1M19 25h3M18 26h1M20 26h2M19 27h3M18 28h1M20 28h2M19 29h3M18 30h1M20 30h2" />
</svg>