<svg xmlns="http://www.w3.org/2000/svg" width="32" height="32" shape-rendering="crispEdges" viewBox="0 -0.5 32 32"><path stroke="#000" d="M8 0h5M6 1h2m5 0h2M5 2h1m9 0h2M5 3h1m11 0h2M4 4h1m14 0h2M4 5h1m16 0h2M3 6h1m19 0h2M3 7h1m21 0h2M3 8h1m19 0h2m2 0h1M3 9h1m18 0h1m5 0h1M3 10h1m2 0h2m13 0h1m6 0h1M3 11h1m2 0h1m1 0h2m11 0h1m3 0h2m2 0h1M3 12h1m2 0h1m2 0h3m8 0h1m3 0h1m2 0h1m1 0h1M3 13h1m2 0h1m2 0h5m6 0h1m3 0h1m3 0h2M3 14h1m2 0h1m2 0h1m2 0h4m4 0h1m4 0h1m2 0h2M3 15h1m2 0h2m1 0h1m4 0h4m2 0h1m4 0h1m2 0h2M3 16h2m3 0h2m6 0h2m2 0h1m5 0h2m1 0h1M5 17h2m13 0h1m8 0h1M7 18h2m11 0h1m8 0h1M9 19h2m9 0h1m8 0h1m-20 1h3m7 0h1m7 0h2m-20 1h1m2 0h2m5 0h1m5 0h2m-18 1h1m3 0h3m3 0h1m3 0h2m-16 1h1m3 0h2m1 0h2m1 0h1m1 0h2m-14 1h1m3 0h1m1 0h1m1 0h4m-12 1h1m3 0h2m1 0h2m-9 1h1m3 0h1m1 0h1m1 0h1m-9 1h1m3 0h2m1 0h2m-9 1h1m3 0h1m1 0h1m1 0h1m-9 1h1m3 0h2m1 0h2m-5 1h1m1 0h1m1 0h1m-5 1h2"/><path stroke="silver" d="M8 1h3M8 2h5M7 3h1m1 0h1m1 0h4m-5 1h1m1 0h1m1 0h3m-4 1h1m1 0h4M5 6h1m8 0h1m1 0h1m1 0h3M4 7h1m1 0h1m1 0h1m8 0h1m1 0h4M5 8h1m1 0h1m1 0h1m1 0h1m6 0h1m1 0h1m1 0h1m2 0h1M4 9h5m1 0h1m1 0h1m8 0h1m2 0h1m1 0h1M4 10h2m3 0h3m1 0h1m1 0h1m7 0h1m1 0h1m1 0h1M4 11h2m5 0h2m1 0h1m1 0h1m1 0h1m1 0h1m1 0h1m1 0h1m3 0h1M4 12h2m7 0h3m1 0h1m1 0h1m1 0h1m1 0h1M4 13h2m9 0h2m1 0h1m3 0h1m2 0h2M4 14h2m4 0h1m6 0h1m1 0h1m1 0h1m1 0h1M4 15h2m4 0h3m6 0h1m2 0h1m1 0h1M5 16h2m3 0h5m3 0h2m1 0h1m1 0h1m1 0h1M7 17h10m1 0h2m2 0h1m1 0h1m1 0h1m1 0h1M9 18h11m1 0h1m1 0h1m1 0h1m1 0h1m-17 1h9m2 0h1m1 0h1m1 0h1m1 0h1m-16 1h7m1 0h1m1 0h1m1 0h1m1 0h1m-13 1h5m2 0h1m1 0h1m-8 1h3m1 0h1m1 0h1m-5 1h1"/><path stroke="gray" d="M11 1h2M6 2h1m6 0h2m0 1h2m0 1h2m0 1h2m0 1h2m0 1h2m1 1h1m-4 1h1m1 0h1m1 0h1M8 10h1m13 0h1m1 0h1m1 0h1m-17 1h1m12 0h1m3 0h1m-16 1h1m9 0h1m2 0h2m1 0h1m-15 1h1m6 0h1m1 0h1m3 0h1m-17 1h1m4 0h1m5 0h1m1 0h1m2 0h1m-15 1h1m4 0h1m2 0h1m1 0h1m3 0h1M7 16h1m7 0h1m6 0h1m1 0h1m3 0h1m-12 1h1m3 0h1m1 0h1m1 0h1m1 0h1m-6 1h1m1 0h1m1 0h1m1 0h1m-8 1h1m1 0h1m1 0h1m1 0h1m-6 1h1m1 0h1m1 0h1m-6 1h1m1 0h1m1 0h1m-4 1h1m-7 1h1m4 0h1m-7 1h1m1 0h1m-2 1h1m-2 1h1m1 0h1m-2 1h1m-2 1h1m1 0h1m-2 1h1m-2 1h1m1 0h1m-2 1h1"/><path stroke="#fff" d="M7 2h1M6 3h1m1 0h1m1 0h1M5 4h5m1 0h1m1 0h1M5 5h8m1 0h1M4 6h1m1 0h8m1 0h1m1 0h1M5 7h1m1 0h1m1 0h8m1 0h1M4 8h1m1 0h1m1 0h1m1 0h1m1 0h6m1 0h1m1 0h1M9 9h1m1 0h1m1 0h8m-9 1h1m1 0h1m1 0h5m-8 1h1m1 0h1m1 0h1m1 0h1m-4 1h1m1 0h1m-2 1h1m1 0h1m-2 1h1m7 0h1m-1 1h1"/><path stroke="red" d="M7 11h1m-1 1h2m-2 1h2m-2 1h2m-1 1h1"/><path stroke="olive" d="M11 21h2m-2 1h3m-3 1h3m-3 1h3m-3 1h3m-3 1h3m-3 1h3m-3 1h3m-3 1h3m-2 1h2"/></svg>