<svg xmlns="http://www.w3.org/2000/svg" width="32" height="32" shape-rendering="crispEdges" viewBox="0 -0.5 32 32"><path stroke="#000" d="M3 4h27M2 5h1m27 0h1M1 6h1m29 0h1M1 7h1m29 0h1M1 8h1m3 0h23m3 0h1M1 9h1m3 0h1m21 0h1m3 0h1M1 10h1m3 0h1m21 0h1m3 0h1M1 11h1m3 0h1m21 0h1m3 0h1M1 12h1m3 0h1m21 0h1m3 0h1M1 13h1m3 0h1m21 0h1m3 0h1M1 14h1m3 0h1m21 0h1m3 0h1M1 15h1m3 0h1m21 0h1m3 0h1M1 16h1m3 0h1m21 0h1m3 0h1M1 17h1m3 0h1m21 0h1m3 0h1M1 18h1m3 0h1m21 0h1m3 0h1M1 19h1m3 0h1m21 0h1m3 0h1M1 20h1m3 0h1m21 0h1m3 0h1M1 21h1m3 0h1m21 0h1m3 0h1M1 22h1m3 0h1m21 0h1m3 0h1M1 23h1m3 0h23m3 0h1M1 24h1m29 0h1M1 25h1m29 0h1M2 26h1m27 0h1M3 27h27"/><path stroke="#fff" d="M3 5h27M2 6h1M2 7h1M2 8h1m25 0h1M2 9h1m8 0h1m4 0h1m2 0h3m6 0h1M2 10h1m8 0h2m2 0h2m1 0h1m3 0h1m5 0h1M2 11h1m8 0h1m1 0h2m1 0h1m2 0h2m7 0h1M2 12h1m8 0h1m4 0h1m4 0h1m6 0h1M2 13h1m8 0h1m4 0h1m1 0h1m3 0h1m5 0h1M2 14h1m8 0h1m4 0h1m2 0h3m6 0h1M2 15h1m25 0h1M2 16h1m5 0h4m3 0h3m3 0h3m4 0h1M2 17h1m5 0h1m3 0h1m1 0h1m3 0h1m1 0h1m3 0h1m3 0h1M2 18h1m5 0h1m3 0h1m1 0h1m3 0h1m2 0h2m5 0h1M2 19h1m5 0h1m3 0h1m1 0h1m3 0h1m4 0h1m4 0h1M2 20h1m5 0h1m3 0h1m1 0h1m3 0h1m1 0h1m3 0h1m3 0h1M2 21h1m5 0h4m3 0h3m3 0h3m4 0h1M2 22h1m25 0h1M2 23h1m25 0h1M2 24h1m2 0h23M2 25h1"/><path stroke="silver" d="M3 6h27M3 7h2m23 0h2M3 8h1m25 0h1M3 9h1m25 0h1M3 10h1m25 0h1M3 11h1m25 0h1M3 12h1m25 0h1M3 13h1m25 0h1M3 14h1m25 0h1M3 15h1m25 0h1M3 16h1m25 0h1M3 17h1m25 0h1M3 18h1m25 0h1M3 19h1m25 0h1M3 20h1m25 0h1M3 21h1m25 0h1M3 22h1m25 0h1M3 23h1m25 0h1M3 24h2m23 0h2M3 25h27"/><path stroke="gray" d="M30 6h1M5 7h23m2 0h1M4 8h1m25 0h1M4 9h1m13 0h1m3 0h1m7 0h1M4 10h1m25 0h1M4 11h1m13 0h1m2 0h1m8 0h1M4 12h1m17 0h1m7 0h1M4 13h1m25 0h1M4 14h1m13 0h1m3 0h1m7 0h1M4 15h1m25 0h1M4 16h1m15 0h1m3 0h1m5 0h1M4 17h1m25 0h1M4 18h1m15 0h1m2 0h1m6 0h1M4 19h1m19 0h1m5 0h1M4 20h1m25 0h1M4 21h1m15 0h1m3 0h1m5 0h1M4 22h1m25 0h1M4 23h1m25 0h1m-1 1h1m-1 1h1M3 26h27"/><path stroke="#00f" d="M6 9h1m1 0h1m1 0h1m1 0h1m1 0h1m9 0h1m1 0h1M7 10h1m1 0h1m3 0h1m3 0h1m1 0h1m1 0h1m1 0h1m1 0h1M6 11h1m1 0h1m1 0h1m1 0h1m9 0h1m1 0h1m1 0h1M7 12h1m1 0h1m3 0h1m1 0h1m1 0h1m1 0h1m3 0h1m1 0h1M6 13h1m1 0h1m1 0h1m1 0h1m1 0h1m5 0h1m3 0h1m1 0h1M7 14h1m1 0h1m3 0h1m1 0h1m1 0h1m5 0h1m1 0h1M6 15h1m1 0h1m1 0h1m1 0h1m1 0h1m1 0h1m1 0h1m1 0h1m1 0h1m1 0h1m1 0h1M7 16h1m5 0h1m5 0h1m5 0h1M6 17h1m3 0h1m5 0h1m5 0h1m3 0h1M7 18h1m1 0h1m1 0h1m1 0h1m1 0h1m1 0h1m1 0h1m5 0h1M6 19h1m3 0h1m5 0h1m3 0h1m1 0h1m3 0h1M7 20h1m1 0h1m1 0h1m1 0h1m1 0h1m1 0h1m1 0h1m1 0h1m1 0h1m1 0h1M6 21h1m5 0h1m1 0h1m3 0h1m7 0h1M7 22h1m1 0h1m1 0h1m1 0h1m1 0h1m1 0h1m1 0h1m1 0h1m1 0h1m1 0h1"/><path stroke="navy" d="M7 9h1m1 0h1m3 0h1m1 0h1m1 0h1m5 0h1m1 0h1M6 10h1m1 0h1m1 0h1m3 0h1m5 0h1m3 0h1m1 0h1M7 11h1m1 0h1m5 0h1m1 0h1m5 0h1m1 0h1M6 12h1m1 0h1m1 0h1m1 0h1m1 0h1m3 0h1m1 0h1m3 0h1m1 0h1M7 13h1m1 0h1m3 0h1m1 0h1m1 0h1m1 0h1m1 0h1m1 0h1m1 0h1M6 14h1m1 0h1m1 0h1m1 0h1m1 0h1m9 0h1m1 0h1M7 15h1m1 0h1m1 0h1m1 0h1m1 0h1m1 0h1m1 0h1m1 0h1m1 0h1m1 0h1M6 16h1m5 0h1m1 0h1m3 0h1m7 0h1M7 17h1m1 0h1m1 0h1m1 0h1m1 0h1m1 0h1m1 0h1m1 0h1m1 0h1m1 0h1M6 18h1m3 0h1m5 0h1m7 0h1m1 0h1M7 19h1m1 0h1m1 0h1m1 0h1m1 0h1m1 0h1m1 0h1m1 0h1m3 0h1M6 20h1m3 0h1m5 0h1m5 0h1m3 0h1M7 21h1m5 0h1m5 0h1m5 0h1M6 22h1m1 0h1m1 0h1m1 0h1m1 0h1m1 0h1m1 0h1m1 0h1m1 0h1m1 0h1m1 0h1"/></svg>