<svg xmlns="http://www.w3.org/2000/svg" width="32" height="32" shape-rendering="crispEdges" viewBox="0 -0.5 32 32"><path stroke="#000" d="M6 0h23M5 1h1m23 0h1M4 2h1m25 0h1M3 3h1m26 0h1M2 4h1m27 0h1M1 5h1m28 0h1M0 6h1m29 0h1M0 7h1m25 0h1m3 0h1M0 8h1m4 0h17m4 0h1m3 0h1M0 9h1m3 0h1m17 0h1m3 0h1m3 0h1M0 10h1m4 0h1m12 0h2m2 0h1m3 0h1m3 0h1M0 11h1m4 0h1m5 0h7m2 0h1m1 0h1m3 0h1m3 0h1M0 12h1m4 0h1m4 0h1m9 0h1m1 0h1m3 0h1m3 0h1M0 13h1m4 0h1m5 0h9m2 0h1m3 0h1m3 0h1M0 14h1m2 0h3m16 0h1m3 0h1m3 0h1M0 15h1m3 0h1m7 0h4m6 0h1m3 0h1m3 0h1M0 16h1m3 0h1m6 0h1m4 0h1m5 0h1m3 0h1m3 0h1M0 17h1m3 0h1m5 0h1m1 0h3m2 0h1m4 0h1m3 0h1m3 0h1M0 18h1m3 0h1m5 0h2m2 0h2m1 0h1m4 0h1m3 0h1m3 0h1M0 19h1m4 0h1m4 0h2m2 0h2m1 0h1m4 0h1m3 0h1m3 0h1M0 20h1m4 0h1m4 0h1m1 0h3m2 0h1m4 0h1m3 0h1m3 0h1M0 21h1m4 0h1m5 0h1m4 0h1m5 0h1m3 0h1m3 0h1M0 22h1m4 0h1m6 0h4m6 0h1m3 0h1m3 0h1M0 23h1m2 0h3m16 0h1m3 0h1m3 0h1M0 24h1m3 0h1m17 0h1m3 0h1m2 0h1M0 25h1m4 0h17m4 0h1m1 0h2M0 26h1m26 0h1m1 0h1M0 27h1m25 0h3M1 28h1m23 0h1M2 29h24M2 30h1m3 0h1m14 0h1m3 0h1M3 31h3m16 0h3"/><path stroke="silver" d="M6 1h21m1 0h1M5 2h21m1 0h1m1 0h1M4 3h21m1 0h1m1 0h1m-4 1h1m1 0h1M4 5h20m2 0h1M3 6h22M2 7h24M2 8h3m17 0h4M2 9h2m19 0h3M2 10h1m3 0h12m2 0h1m2 0h3M2 11h1m1 0h1m2 0h4m12 0h3M2 12h1m1 0h1m2 0h3m13 0h3M2 13h1m1 0h1m2 0h4m12 0h3M2 14h1m4 0h5m11 0h3M2 15h2m3 0h5m4 0h5m2 0h3M2 16h2m2 0h5m6 0h4m2 0h3M2 17h2m2 0h4m8 0h3m2 0h3M2 18h2m2 0h4m9 0h2m2 0h3M2 19h1m3 0h4m9 0h2m2 0h3M2 20h1m1 0h1m2 0h3m9 0h2m2 0h3M2 21h1m1 0h1m2 0h4m8 0h2m2 0h3M2 22h1m1 0h1m2 0h5m6 0h3m2 0h3M2 23h1m4 0h6m4 0h4m2 0h3M2 24h2m19 0h3M2 25h3m17 0h4M2 26h23M3 27h21"/><path stroke="gray" d="M27 1h1m-2 1h1m1 0h1m-4 1h1m1 0h1m1 0h1m-6 1h1m1 0h1m1 0h2m-5 1h1m1 0h3m-5 1h5m-3 1h3m-3 1h3m-9 1h1m5 0h3M3 10h2m16 0h1m5 0h3M3 11h1m2 0h1m14 0h1m5 0h3M3 12h1m2 0h1m14 0h1m5 0h3M3 13h1m2 0h1m13 0h2m5 0h3M6 14h1m5 0h10m5 0h3M5 15h2m14 0h1m5 0h3m-9 1h1m5 0h3m-9 1h1m5 0h3m-12 1h1m2 0h1m5 0h3M3 19h2m13 0h1m2 0h1m5 0h3M3 20h1m2 0h1m11 0h1m2 0h1m5 0h3M3 21h1m2 0h1m10 0h2m2 0h1m5 0h3M3 22h1m2 0h1m9 0h2m3 0h1m5 0h3M6 23h1m6 0h4m4 0h1m5 0h3M5 24h17m5 0h2m-2 1h1m-3 1h2m1 0h1M2 27h1m21 0h2M2 28h23M4 30h2m17 0h2"/><path stroke="#fff" d="M3 4h21M2 5h2m20 0h1M1 6h2M1 7h1M1 8h1M1 9h1m3 0h16M1 10h1m-1 1h1m-1 1h1m-1 1h1m-1 1h1m-1 1h1m-1 1h1m3 0h1m6 0h4M1 17h1m3 0h1m5 0h1m3 0h2M1 18h1m3 0h1m6 0h1m3 0h1M1 19h1m14 0h1M1 20h1m9 0h1m3 0h2M1 21h1m10 0h4M1 22h1m-1 1h1m-1 1h1m-1 1h1m-1 1h1m-1 1h1m1 3h1m18 0h1"/><path stroke="#0ff" d="M18 11h1m-8 1h7"/><path stroke="teal" d="M19 11h1m-2 1h2"/><path stroke="#f0f" d="M13 18h1m-2 1h2"/></svg>