<svg xmlns="http://www.w3.org/2000/svg" viewBox="0 -0.5 32 32" shape-rendering="crispEdges">
<path stroke="#000000" d="M0 0h1M3 1h1M18 1h8M3 2h1M6 2h1M13 2h1M16 2h12M5 3h2M9 3h1M11 3h3M15 3h14M5 4h1M8 4h2M11 4h3M15 4h3M21 4h2M26 4h3M8 5h1M11 5h1M15 5h2M21 5h2M27 5h2M15 6h2M21 6h2M27 6h2M15 7h2M21 7h2M27 7h2M15 8h2M21 8h2M27 8h2M3 9h1M15 9h2M19 9h6M27 9h2M3 10h1M6 10h1M13 10h1M15 10h14M5 11h2M9 11h1M11 11h3M15 11h3M21 11h2M26 11h3M5 12h1M8 12h2M11 12h3M15 12h2M21 12h2M27 12h2M8 13h1M11 13h1M15 13h2M21 13h2M27 13h2M15 14h2M21 14h2M27 14h2M15 15h2M21 15h2M27 15h2M15 16h2M19 16h6M27 16h2M3 17h1M15 17h14M3 18h1M6 18h1M13 18h1M15 18h14M5 19h2M9 19h1M11 19h3M15 19h4M25 19h4M5 20h1M8 20h2M11 20h3M15 20h2M27 20h2M8 21h1M11 21h1M3 23h1M5 23h1M7 23h1M9 23h1M12 23h2M16 23h2M19 23h2M22 23h2M25 23h5M3 24h3M7 24h2M11 24h1M13 24h1M15 24h1M17 24h1M19 24h1M21 24h1M23 24h1M25 24h1M28 24h1M3 25h1M5 25h1M7 25h2M11 25h2M15 25h1M17 25h1M20 25h2M23 25h1M25 25h2M28 25h1M3 26h1M5 26h1M7 26h1M9 26h3M13 26h1M15 26h2M19 26h2M22 26h1M25 26h1M28 26h1M3 28h1M5 28h1M7 28h1M9 28h1M12 28h1M14 28h2M19 28h2M23 28h1M25 28h1M27 28h2M3 29h1M5 29h1M7 29h1M9 29h2M12 29h1M14 29h1M16 29h1M18 29h1M21 29h1M23 29h1M25 29h1M27 29h1M3 30h3M7 30h1M9 30h1M11 30h2M14 30h1M16 30h1M18 30h1M21 30h1M23 30h3M28 30h1M3 31h1M5 31h1M7 31h1M9 31h1M12 31h1M14 31h2M19 31h2M23 31h1M25 31h1M27 31h2" />
<path stroke="#800000" d="M0 0h1M18 4h1M18 9h1" />
<path stroke="#ff0000" d="M0 0h1M19 4h2M3 5h1M17 5h4M3 6h1M6 6h1M13 6h1M17 6h4M5 7h2M9 7h1M11 7h3M17 7h4M5 8h1M8 8h2M11 8h3M17 8h4M8 9h1M11 9h1M17 9h1" />
<path stroke="#008000" d="M0 0h1M23 4h2M23 5h4M23 6h4M23 7h4M23 8h4M26 9h1" />
<path stroke="#000080" d="M0 0h1M25 4h1M25 9h1M18 11h1M18 16h1" />
<path stroke="#0000ff" d="M0 0h1M19 11h2M17 12h4M3 13h1M17 13h4M3 14h1M6 14h1M13 14h1M17 14h4M5 15h2M9 15h1M11 15h3M17 15h4M5 16h1M8 16h2M11 16h3M17 16h1M8 17h1M11 17h1" />
<path stroke="#ffff00" d="M0 0h1M23 11h2M23 12h4M23 13h4M23 14h4M23 15h4M26 16h1" />
<path stroke="#808000" d="M0 0h1M25 11h1M25 16h1" />
</svg>