<svg xmlns="http://www.w3.org/2000/svg" width="32" height="32" shape-rendering="crispEdges" viewBox="0 -0.5 32 32"><path stroke="#000" d="M14 4h4m-5 1h1m4 0h1M6 6h2m4 0h1m4 0h1m1 0h1m2 0h4M4 7h2m2 0h4m6 0h4m4 0h3M3 8h1m1 0h3m3 0h1m6 0h1m2 0h5m3 0h1M2 9h1m26 0h1M1 10h1m27 0h1M1 11h1m10 0h5m12 0h1M1 12h1m8 0h2m5 0h2m9 0h2M1 13h9m9 0h11M1 14h1m2 0h1m1 0h1m1 0h1m11 0h1m1 0h1m1 0h1m1 0h2m1 0h1M1 15h1m1 0h1m1 0h1m1 0h1m2 0h5m4 0h1m1 0h1m1 0h1m1 0h1m1 0h3M1 16h1m2 0h1m1 0h1m2 0h1m5 0h1m2 0h1m1 0h3m1 0h1m1 0h2m1 0h1M1 17h1m1 0h1m1 0h1m2 0h1m7 0h1m2 0h3m1 0h1m1 0h1m1 0h3M1 18h1m2 0h2m1 0h1m9 0h1m1 0h4m1 0h1m1 0h2m1 0h1M1 19h1m1 0h1m1 0h1m1 0h1m9 0h1m1 0h3m1 0h1m1 0h1m1 0h3M1 20h1m2 0h2m1 0h1m9 0h1m1 0h4m1 0h1m1 0h2m1 0h1M1 21h1m1 0h1m1 0h1m1 0h1m9 0h1m1 0h3m1 0h1m1 0h1m1 0h3M1 22h1m2 0h2m1 0h1m9 0h1m1 0h2m1 0h1m1 0h1m1 0h2m1 0h1M1 23h1m1 0h1m1 0h1m2 0h1m7 0h1m2 0h1m1 0h1m1 0h1m1 0h1m1 0h3M1 24h1m2 0h1m1 0h1m2 0h1m5 0h1m2 0h1m1 0h1m1 0h1m1 0h1m1 0h3M2 25h2m1 0h1m1 0h1m2 0h5m2 0h1m1 0h1m1 0h1m1 0h1m1 0h1m1 0h1M3 26h6m7 0h11m-17 1h5"/><path stroke="#fff" d="M14 5h3M6 7h1m15 0h3M3 9h24M2 10h1m-1 1h1m-1 1h1m13 0h1m-6 1h5m-1 1h2m-5 3h1m-2 1h1m-2 1h1m-1 1h1"/><path stroke="gray" d="M17 5h1M8 6h1m9 0h1m7 0h1M7 7h1m17 0h1M8 8h1m3 0h6m1 0h1m6 0h1m1 1h1m-2 1h2m-2 1h2m-2 1h1m-18 1h1m-9 1h2m1 0h1m1 0h1m1 0h1m8 0h2m1 0h1m1 0h1m1 0h1m2 0h1M2 15h1m1 0h1m1 0h1m10 0h2m1 0h1m1 0h1m1 0h1m1 0h1M2 16h2m1 0h1m2 0h1m1 0h5m1 0h1m2 0h1m3 0h1m1 0h1m2 0h1M2 17h1m1 0h1m1 0h1m2 0h2m3 0h2m2 0h1m3 0h1m1 0h1m1 0h1M2 18h2m4 0h2m2 0h5m6 0h1m1 0h1m2 0h1M2 19h1m1 0h1m3 0h2m2 0h5m5 0h1m1 0h1m1 0h1M2 20h2m4 0h2m1 0h6m6 0h1m1 0h1m2 0h1M2 21h1m1 0h1m3 0h2m1 0h6m5 0h1m1 0h1m1 0h1M2 22h2m4 0h9m4 0h1m1 0h1m1 0h1m2 0h1M2 23h1m1 0h1m1 0h1m2 0h7m2 0h1m1 0h1m1 0h1m1 0h1m1 0h1M2 24h2m1 0h1m2 0h1m1 0h5m1 0h1m2 0h1m1 0h1m1 0h1m1 0h1M4 25h1m1 0h1m11 0h1m1 0h1m1 0h1m1 0h1m1 0h1M9 26h1m5 0h1m-7 1h1m5 0h1"/><path stroke="silver" d="M13 6h4m-5 1h6M4 8h1m4 0h2m9 0h1m6 0h2m-2 1h1M3 10h24M3 11h9m5 0h10M3 12h7m2 0h4m3 0h8m-11 1h3m-9 1h5m2 0h1M8 15h2m5 0h2M7 16h1m9 0h1M7 17h1m3 0h1m1 0h1m3 0h1M6 18h1m3 0h1m7 0h1M6 19h1m4 0h1m6 0h1M6 20h1m11 0h1M6 21h1m3 0h1m7 0h1M6 22h1m11 0h1M7 23h1m9 0h1M7 24h1m9 0h1M8 25h2m5 0h2m-7 1h5"/></svg>