<svg xmlns="http://www.w3.org/2000/svg" width="32" height="32" shape-rendering="crispEdges" viewBox="0 -0.5 32 32"><path stroke="#000" d="M4 2h23m2 0h2M4 3h1m21 0h1m1 0h1m2 0h1M4 4h1m21 0h2m3 0h1M4 5h1m21 0h1m3 0h1M4 6h1m20 0h1m3 0h1M4 7h1m19 0h1m3 0h1M4 8h1m3 0h1m14 0h1m3 0h1M4 9h1m3 0h2m12 0h1m3 0h1M4 10h1m3 0h1m1 0h1m10 0h1m3 0h2M4 11h1m3 0h1m2 0h1m8 0h1m3 0h1m1 0h1M4 12h1m3 0h1m3 0h1m7 0h1m2 0h1m2 0h1M4 13h1m3 0h1m4 0h1m5 0h1m1 0h2m3 0h1M4 14h1m3 0h1m5 0h1m4 0h2m5 0h1M4 15h1m3 0h1m2 0h1m3 0h1m2 0h1m7 0h1M4 16h1m3 0h1m2 0h2m3 0h1m9 0h1M4 17h1m3 0h1m2 0h1m1 0h1m3 0h1m8 0h1M4 18h1m3 0h1m2 0h1m2 0h1m3 0h1m7 0h2M4 19h1m3 0h1m2 0h5m3 0h1m6 0h1m1 0h1M4 20h1m3 0h1m11 0h1m5 0h1m2 0h1M4 21h1m3 0h1m12 0h1m4 0h1m2 0h1M0 22h27m2 0h2M0 23h1m25 0h1m2 0h1m1 0h1M0 24h1m25 0h1m2 0h1m1 0h1M0 25h1m25 0h1m2 0h1m1 0h1M0 26h27m2 0h2M4 27h1m21 0h1m2 0h1M4 28h1m21 0h1m2 0h1M4 29h23m1 0h1m-3 1h2"/><path stroke="#fff" d="M5 3h21m3 0h2M5 4h21m2 0h3M5 5h21m1 0h3M5 6h20m1 0h3M5 7h19m1 0h3M5 8h3m1 0h14m1 0h3M5 9h3m2 0h12m1 0h3M5 10h3m1 0h1m1 0h10m1 0h3M5 11h3m1 0h2m1 0h8m1 0h3m1 0h1M5 12h3m1 0h3m1 0h7m1 0h2m1 0h2M5 13h3m1 0h4m1 0h5m1 0h1m2 0h3M5 14h3m1 0h5m1 0h4m2 0h5M5 15h3m1 0h2m1 0h3m1 0h2m1 0h7M5 16h3m1 0h2m2 0h3m1 0h9M5 17h3m1 0h2m1 0h1m1 0h3m1 0h8M5 18h3m1 0h2m1 0h2m1 0h3m1 0h7M5 19h3m1 0h2m5 0h3m1 0h6m1 0h1M5 20h3m1 0h11m1 0h5m1 0h2M5 21h3m1 0h12m1 0h4m1 0h2m-2 1h2M1 23h25m1 0h2m1 0h1M1 24h25m1 0h2m1 0h1M1 25h25m1 0h2m1 0h1m-4 1h2M5 27h21m1 0h2M5 28h21m1 0h2m-2 1h1"/></svg>