<svg xmlns="http://www.w3.org/2000/svg" width="32" height="32" shape-rendering="crispEdges" viewBox="0 -0.5 32 32"><path stroke="#000" d="M11 0h3M9 1h2m3 0h3M8 2h1m7 0h1M8 3h3m3 0h3M8 4h1m2 0h3m1 0h3M8 5h1m3 0h1m1 0h1m1 0h1m1 0h2M7 6h2m3 0h2m1 0h2m3 0h2M5 7h2m1 0h1m3 0h1m1 0h1m1 0h1m5 0h2M3 8h2m3 0h1m3 0h2m1 0h3m6 0h2M1 9h2m5 0h1m3 0h3m3 0h2m6 0h2M1 10h1m6 0h1m3 0h1m7 0h1m7 0h2M1 11h1m6 0h1m3 0h3m3 0h3m9 0h1M1 12h1m6 0h1m3 0h1m2 0h3m1 0h2m9 0h1M1 13h1m6 0h1m3 0h1m3 0h1m1 0h1m1 0h1m9 0h1M1 14h1m6 0h1m3 0h1m3 0h2m1 0h2m9 0h1M1 15h1m6 0h1m3 0h1m3 0h1m1 0h4m8 0h1M1 16h1m6 0h1m3 0h1m3 0h3m3 0h2m6 0h1M1 17h1m6 0h1m3 0h1m3 0h1m7 0h1m5 0h1M1 18h1m6 0h1m3 0h1m3 0h3m3 0h3m5 0h1M1 19h1m6 0h1m3 0h1m3 0h1m2 0h3m1 0h2m5 0h1M1 20h1m6 0h1m3 0h1m3 0h1m3 0h1m1 0h1m1 0h2m4 0h1M1 21h1m4 0h3m3 0h1m3 0h1m3 0h2m1 0h2m1 0h2m2 0h1M1 22h1m2 0h2m2 0h3m1 0h1m3 0h1m3 0h1m1 0h1m1 0h1m3 0h3M1 23h3m7 0h2m3 0h1m3 0h2m1 0h2m5 0h1M1 24h1m11 0h2m1 0h1m3 0h1m1 0h1m1 0h1m4 0h2M2 25h2m11 0h2m3 0h2m1 0h2m2 0h2M4 26h2m11 0h2m1 0h3m2 0h2M6 27h2m11 0h2m2 0h2M8 28h2m11 0h2m-13 1h2m7 0h2m-9 1h2m3 0h2m-5 1h3"/><path stroke="#fff" d="M11 1h3M9 2h7m-5 1h3M9 4h2m3 0h1M9 5h3m1 0h1m1 0h1m1 0h1M9 6h3m2 0h1m2 0h3M7 7h1m1 0h3m1 0h1m1 0h1m1 0h5M5 8h3m1 0h3m2 0h1m3 0h6M3 9h5m1 0h3m3 0h3m2 0h6M2 10h6m1 0h3m1 0h7m1 0h7M2 11h6m1 0h3m3 0h3m3 0h9M2 12h6m1 0h3m1 0h2m3 0h1m2 0h9M2 13h6m1 0h3m1 0h3m1 0h1m1 0h1m1 0h9M2 14h6m1 0h3m1 0h3m2 0h1m2 0h9M2 15h6m1 0h3m1 0h3m1 0h1m4 0h8M2 16h6m1 0h3m1 0h3m3 0h3m2 0h6M2 17h6m1 0h3m1 0h3m1 0h7m1 0h5M2 18h6m1 0h3m1 0h3m3 0h3m3 0h5M2 19h6m1 0h3m1 0h3m1 0h2m3 0h1m2 0h5M2 20h6m1 0h3m1 0h3m1 0h3m1 0h1m1 0h1m2 0h4M2 21h4m3 0h3m1 0h3m1 0h3m2 0h1m2 0h1m2 0h2M2 22h2m2 0h2m3 0h1m1 0h3m1 0h3m1 0h1m1 0h1m1 0h3M4 23h7m2 0h3m1 0h3m2 0h1m2 0h5M2 24h11m2 0h1m1 0h3m1 0h1m1 0h1m1 0h4M4 25h11m2 0h3m2 0h1m2 0h2M6 26h11m2 0h1m3 0h2M8 27h11m2 0h2m-13 1h11m-9 1h7m-5 1h3"/></svg>