<svg xmlns="http://www.w3.org/2000/svg" width="32" height="32" shape-rendering="crispEdges" viewBox="0 -0.5 32 32"><path stroke="#000" d="M13 3h6m-7 1h1m6 0h1M6 5h2m3 0h1m2 0h4m2 0h1m3 0h2M4 6h2m2 0h4m1 0h1m4 0h1m1 0h4m2 0h3M3 7h1m1 0h4m2 0h3m4 0h3m2 0h4m2 0h1M2 8h1m25 0h1m1 0h1M1 9h27m1 0h2M1 10h1m25 0h2m1 0h1M1 11h1m25 0h1m1 0h2M1 12h1m25 0h2m1 0h1M1 13h1m3 0h20m2 0h1m1 0h2M1 14h1m25 0h2m1 0h1M1 15h1m25 0h1m1 0h2M1 16h1m25 0h2m1 0h1M1 17h1m25 0h1m1 0h2M1 18h1m3 0h20m2 0h2m1 0h1M1 19h1m25 0h1m1 0h2M1 20h1m25 0h2m1 0h1M1 21h1m25 0h1m1 0h2M1 22h1m25 0h2m1 0h1M1 23h1m3 0h20m2 0h1m1 0h2M1 24h1m25 0h2m1 0h1M1 25h1m25 0h1m1 0h1M1 26h1m25 0h2M2 27h26"/><path stroke="#fff" d="M13 4h6m-7 1h2m4 0h2M6 6h2m4 0h1m1 0h4m1 0h1m4 0h2M4 7h1m4 0h2m3 0h4m3 0h2m4 0h2M3 8h25m1 0h1m-2 1h1M2 10h25m2 0h1M2 11h25m1 0h1M2 12h25m2 0h1M2 13h3m20 0h2m1 0h1M2 14h25m2 0h1M2 15h25m1 0h1M2 16h25m2 0h1M2 17h25m1 0h1M2 18h3m20 0h2m2 0h1M2 19h25m1 0h1M2 20h25m2 0h1M2 21h25m1 0h1M2 22h25m2 0h1M2 23h3m20 0h2m1 0h1M2 24h25m2 0h1M2 25h25m1 0h1M2 26h25"/></svg>