<svg xmlns="http://www.w3.org/2000/svg" width="32" height="32" shape-rendering="crispEdges" viewBox="0 -0.5 32 32"><path stroke="#000" d="M2 0h13M1 1h1m13 0h1M1 2h1m1 0h11m1 0h1M1 3h1m1 0h1m9 0h1m1 0h1M1 4h1m1 0h1m9 0h1m1 0h1M1 5h1m1 0h11m1 0h1M1 6h1m13 0h12M1 7h1m2 0h1m2 0h1m2 0h1m2 0h1m1 0h1m2 0h1m7 0h1M1 8h1m1 0h2m1 0h2m1 0h2m1 0h2m1 0h1m2 0h1m7 0h1M1 9h1m13 0h1m2 0h1m7 0h1M1 10h1m2 0h1m2 0h1m2 0h1m2 0h1m1 0h12m3 0h2M1 11h1m1 0h2m1 0h2m1 0h2m1 0h2m1 0h1m2 0h1m7 0h1m1 0h2m1 0h1M1 12h1m13 0h1m2 0h1m7 0h2m1 0h2M1 13h1m2 0h1m2 0h1m2 0h1m2 0h1m1 0h1m2 0h1m7 0h1m3 0h1M1 14h1m1 0h2m1 0h2m1 0h2m1 0h2m1 0h11m3 0h2M1 15h1m13 0h1m2 0h1m5 0h1m3 0h1m1 0h1M1 16h1m2 0h1m2 0h1m2 0h1m2 0h1m1 0h1m2 0h1m4 0h1m3 0h1m2 0h1M1 17h1m1 0h2m1 0h2m1 0h2m1 0h2m1 0h1m2 0h1m3 0h1m1 0h1m1 0h1m2 0h1M1 18h1m13 0h7m3 0h2m1 0h1M2 19h13m3 0h1m1 0h1m3 0h1m1 0h2M2 20h1m7 0h1m7 0h2m3 0h1m2 0h1M2 21h1m7 0h1m7 0h1m3 0h1m3 0h1M2 22h16m3 0h6M2 23h1m7 0h1m6 0h1m2 0h1m5 0h1M2 24h1m7 0h1m5 0h1m1 0h2m6 0h1M2 25h1m7 0h1m5 0h3m7 0h1M2 26h25M2 27h1m7 0h1m7 0h1m7 0h1M2 28h1m7 0h1m7 0h1m7 0h1M2 29h1m7 0h1m7 0h1m7 0h1M2 30h25"/><path stroke="#fff" d="M2 1h13M2 2h1m11 0h1M2 3h1m1 0h9m1 0h1M2 4h1m1 0h9m1 0h1M2 5h1m11 0h1M2 6h13M2 7h2m1 0h2m1 0h2m1 0h2m1 0h1m1 0h2m1 0h7M2 8h1m2 0h1m2 0h1m2 0h1m2 0h1m1 0h2m1 0h7M2 9h13m1 0h2m1 0h7M2 10h2m1 0h2m1 0h2m1 0h2m1 0h1M2 11h1m2 0h1m2 0h1m2 0h1m2 0h1m1 0h2m1 0h7m4 0h1M2 12h13m1 0h2m1 0h7m2 0h1M2 13h2m1 0h2m1 0h2m1 0h2m1 0h1m1 0h2m1 0h7m1 0h3M2 14h1m2 0h1m2 0h1m2 0h1m2 0h1m11 0h3M2 15h13m1 0h2m1 0h5m1 0h3M2 16h2m1 0h2m1 0h2m1 0h2m1 0h1m1 0h2m1 0h4m1 0h3M2 17h1m2 0h1m2 0h1m2 0h1m2 0h1m1 0h2m1 0h3m1 0h1m1 0h1M2 18h13m7 0h3m-10 1h3m1 0h1m1 0h3m1 0h1M3 20h7m1 0h7m2 0h3m1 0h2M3 21h7m1 0h7m1 0h3m1 0h3m-8 1h3M3 23h7m1 0h6m1 0h2m1 0h5M3 24h7m1 0h5m1 0h1m2 0h6M3 25h7m1 0h5m3 0h7M3 27h7m1 0h7m1 0h7M3 28h7m1 0h7m1 0h7M3 29h7m1 0h7m1 0h7"/></svg>