<svg xmlns="http://www.w3.org/2000/svg" viewBox="0 -0.5 32 32" shape-rendering="crispEdges">
<path stroke="#000000" d="M0 0h1M15 1h2M15 2h1M17 2h1M15 3h1M18 3h1M15 4h1M19 4h1M15 5h1M20 5h1M15 6h1M21 6h1M15 7h1M22 7h1M15 8h1M23 8h1M4 9h12M24 9h1M3 10h1M25 10h1M3 11h1M26 11h1M3 12h1M27 12h1M3 13h1M28 13h1M3 14h1M29 14h1M3 15h1M29 15h1M3 16h1M28 16h1M3 17h1M27 17h1M3 18h1M26 18h1M3 19h1M25 19h1M3 20h1M24 20h1M4 21h12M23 21h1M15 22h1M22 22h1M15 23h1M21 23h1M15 24h1M20 24h1M15 25h1M19 25h1M15 26h1M18 26h1M15 27h1M17 27h1M15 28h2" />
<path stroke="#808080" d="M0 0h1M16 2h1M17 3h1M17 4h2M18 5h2M19 6h2M20 7h2M21 8h2M22 9h2M23 10h2M24 11h2M25 12h2M26 13h2M27 14h2M27 15h2M26 16h2M25 17h2M24 18h2M23 19h2M4 20h13M22 20h2M21 21h2M20 22h2M19 23h2M18 24h2M17 25h2M17 26h1M16 27h1" />
<path stroke="#ffffff" d="M0 0h1M16 3h1M16 4h1M16 5h1M16 6h1M16 7h1M16 8h1M16 9h1M4 10h13M4 11h1M4 12h1M4 13h1M4 14h1M4 15h1M4 16h1M4 17h1M4 18h1M4 19h1M16 21h1M16 22h1M16 23h1M16 24h1M16 25h1M16 26h1" />
<path stroke="#c0c0c0" d="M0 0h1M17 5h1M17 6h2M17 7h3M17 8h4M17 9h5M17 10h6M5 11h19M5 12h20M5 13h21M5 14h22M5 15h22M5 16h21M5 17h20M5 18h19M5 19h18M17 20h5M17 21h4M17 22h3M17 23h2M17 24h1" />
</svg>