<svg xmlns="http://www.w3.org/2000/svg" viewBox="0 -0.5 32 32" shape-rendering="crispEdges">
<path stroke="#000000" d="M0 0h1M13 2h11M11 3h3M23 3h2M9 4h2M13 4h3M22 4h1M25 4h1M7 5h2M12 5h2M16 5h1M21 5h4M26 5h1M5 6h2M11 6h2M17 6h4M25 6h3M3 7h2M10 7h1M12 7h1M27 7h2M1 8h2M9 8h1M11 8h1M29 8h2M0 9h1M8 9h1M11 9h1M31 9h1M0 10h1M7 10h1M10 10h1M31 10h1M1 11h1M6 11h1M10 11h1M30 11h1M1 12h1M5 12h1M9 12h1M30 12h1M2 13h1M4 13h1M9 13h1M29 13h1M2 14h2M8 14h1M29 14h1M2 15h1M8 15h1M28 15h1M1 16h1M7 16h1M28 16h1M1 17h1M7 17h1M27 17h1M2 18h1M6 18h1M27 18h1M3 19h1M6 19h1M26 19h1M4 20h2M26 20h1M5 21h1M25 21h1M4 22h1M25 22h1M4 23h1M24 23h1M5 24h2M24 24h1M7 25h2M23 25h1M9 26h2M23 26h1M11 27h2M22 27h1M13 28h2M22 28h1M15 29h2M21 29h1M17 30h2M21 30h1M19 31h2" />
<path stroke="#ffffff" d="M0 0h1M14 3h9M11 4h1M16 4h6M9 5h2M14 5h2M7 6h3M13 6h4M24 6h1M5 7h4M13 7h5M22 7h5M3 8h5M12 8h3M16 8h2M20 8h9M1 9h6M9 9h1M12 9h4M18 9h1M20 9h11M1 10h5M8 10h1M11 10h2M17 10h1M19 10h12M2 11h3M7 11h2M11 11h6M19 11h2M23 11h7M2 12h2M6 12h2M10 12h6M17 12h6M25 12h5M5 13h3M10 13h6M17 13h3M22 13h3M27 13h2M4 14h3M9 14h3M14 14h8M24 14h5M3 15h4M9 15h5M16 15h3M21 15h3M26 15h2M2 16h4M8 16h3M13 16h3M18 16h3M23 16h5M2 17h4M8 17h5M15 17h3M20 17h3M25 17h2M3 18h2M7 18h3M12 18h3M17 18h3M22 18h5M4 19h1M7 19h5M14 19h3M19 19h3M24 19h2M6 20h3M11 20h3M16 20h3M21 20h5M6 21h5M13 21h3M18 21h3M23 21h2M5 22h8M15 22h3M20 22h5M5 23h10M17 23h3M22 23h2M7 24h10M19 24h5M9 25h10M21 25h2M11 26h12M13 27h9M15 28h7M17 29h4M19 30h2" />
<path stroke="#c0c0c0" d="M0 0h1M12 4h1M24 4h1M11 5h1M17 5h4M25 5h1M10 6h1M21 6h3M9 7h1M11 7h1M18 7h4M8 8h1M10 8h1M7 9h1M10 9h1M6 10h1M9 10h1M5 11h1M9 11h1M4 12h1M8 12h1M3 13h1M8 13h1M7 14h1M7 15h1M6 16h1M6 17h1M5 18h1M5 19h1" />
<path stroke="#808080" d="M0 0h1M23 4h1" />
<path stroke="#800080" d="M0 0h1M15 8h1M18 8h2M16 9h2M19 9h1M13 10h4M18 10h1M17 11h2M16 12h1M16 13h1" />
<path stroke="#0000ff" d="M0 0h1M21 11h2M23 12h2M20 13h2M25 13h2M12 14h2M22 14h2M14 15h2M19 15h2M24 15h2M11 16h2M16 16h2M21 16h2M13 17h2M18 17h2M23 17h2M10 18h2M15 18h2M20 18h2M12 19h2M17 19h2M22 19h2M9 20h2M14 20h2M19 20h2M11 21h2M16 21h2M21 21h2M13 22h2M18 22h2M15 23h2M20 23h2M17 24h2M19 25h2" />
</svg>