<svg xmlns="http://www.w3.org/2000/svg" viewBox="0 -0.5 32 32" shape-rendering="crispEdges">
<path stroke="#000000" d="M0 0h1M15 2h2M14 3h1M17 3h1M13 4h1M18 4h1M12 5h1M19 5h1M11 6h1M20 6h1M10 7h1M21 7h1M9 8h1M22 8h1M8 9h1M23 9h1M7 10h1M24 10h1M6 11h1M25 11h1M5 12h1M26 12h1M4 13h1M27 13h1M3 14h1M28 14h1M2 15h1M29 15h1M2 16h9M22 16h8M10 17h1M22 17h1M10 18h1M22 18h1M10 19h1M22 19h1M10 20h1M22 20h1M10 21h1M22 21h1M10 22h1M22 22h1M10 23h1M22 23h1M10 24h1M22 24h1M10 25h1M22 25h1M10 26h1M22 26h1M10 27h1M22 27h1M11 28h11" />
<path stroke="#ffffff" d="M0 0h1M15 3h1M14 4h1M13 5h1M12 6h1M11 7h1M10 8h1M9 9h1M8 10h1M7 11h1M6 12h1M5 13h1M4 14h1M11 16h1M11 17h1M11 18h1M11 19h1M11 20h1M11 21h1M11 22h1M11 23h1M11 24h1M11 25h1M11 26h1" />
<path stroke="#808080" d="M0 0h1M16 3h1M16 4h2M17 5h2M18 6h2M19 7h2M20 8h2M21 9h2M22 10h2M23 11h2M24 12h2M25 13h2M26 14h2M3 15h9M21 15h8M21 16h1M21 17h1M21 18h1M21 19h1M21 20h1M21 21h1M21 22h1M21 23h1M21 24h1M21 25h1M21 26h1M11 27h11" />
<path stroke="#c0c0c0" d="M0 0h1M15 4h1M14 5h3M13 6h5M12 7h7M11 8h9M10 9h11M9 10h13M8 11h15M7 12h17M6 13h19M5 14h21M12 15h9M12 16h9M12 17h9M12 18h9M12 19h9M12 20h9M12 21h9M12 22h9M12 23h9M12 24h9M12 25h9M12 26h9" />
</svg>