<svg xmlns="http://www.w3.org/2000/svg" width="32" height="32" shape-rendering="crispEdges" viewBox="0 -0.5 32 32"><path stroke="#000" d="M14 4h4m-5 1h1m4 0h1M6 6h2m4 0h1m4 0h1m1 0h1m2 0h4M4 7h2m2 0h4m6 0h4m4 0h3M3 8h1m1 0h4m2 0h8m2 0h6m1 0h2M2 9h26m1 0h1M1 10h1m26 0h2M1 11h1m10 0h5m10 0h1m1 0h1M1 12h1m8 0h2m5 0h2m9 0h2M1 13h9m9 0h11M1 14h1m2 0h1m1 0h1m1 0h1m11 0h1m1 0h1m1 0h1m1 0h4M1 15h1m1 0h1m1 0h1m1 0h1m2 0h5m4 0h1m1 0h1m1 0h1m1 0h1m1 0h3M1 16h1m2 0h1m1 0h1m2 0h7m2 0h1m1 0h3m1 0h1m1 0h4M1 17h1m1 0h1m1 0h1m2 0h3m3 0h3m2 0h3m1 0h1m1 0h1m1 0h3M1 18h1m2 0h2m1 0h3m2 0h6m1 0h4m1 0h1m1 0h4M1 19h1m1 0h1m1 0h1m1 0h3m1 0h7m1 0h3m1 0h1m1 0h1m1 0h3M1 20h1m2 0h2m1 0h3m1 0h7m1 0h4m1 0h1m1 0h4M1 21h1m1 0h1m1 0h1m1 0h11m1 0h3m1 0h1m1 0h1m1 0h3M1 22h1m2 0h2m1 0h11m1 0h2m1 0h1m1 0h1m1 0h4M1 23h1m1 0h1m1 0h1m2 0h9m1 0h2m1 0h1m1 0h1m1 0h1m1 0h3M1 24h1m2 0h1m1 0h1m2 0h8m1 0h1m1 0h1m1 0h1m1 0h1m1 0h3M2 25h2m1 0h1m1 0h1m2 0h5m2 0h1m1 0h1m1 0h1m1 0h1m1 0h1m1 0h1M3 26h7m5 0h12M9 27h7"/><path stroke="#fff" d="M14 5h4m-5 1h4m1 0h1M6 7h2m4 0h6m4 0h4M4 8h1m4 0h2m8 0h2m6 0h1m0 1h1M2 10h26M2 11h10m5 0h10m1 0h1M2 12h8m2 0h5m2 0h9m-18 1h9M2 14h2m1 0h1m1 0h1m1 0h11m1 0h1m1 0h1m1 0h1M2 15h1m1 0h1m1 0h1m1 0h2m5 0h4m1 0h1m1 0h1m1 0h1m1 0h1M2 16h2m1 0h1m1 0h2m7 0h2m1 0h1m3 0h1m1 0h1M2 17h1m1 0h1m1 0h2m3 0h3m3 0h2m3 0h1m1 0h1m1 0h1M2 18h2m2 0h1m3 0h2m6 0h1m4 0h1m1 0h1M2 19h1m1 0h1m1 0h1m3 0h1m7 0h1m3 0h1m1 0h1m1 0h1M2 20h2m2 0h1m3 0h1m7 0h1m4 0h1m1 0h1M2 21h1m1 0h1m1 0h1m11 0h1m3 0h1m1 0h1m1 0h1M2 22h2m2 0h1m11 0h1m2 0h1m1 0h1m1 0h1M2 23h1m1 0h1m1 0h2m9 0h1m2 0h1m1 0h1m1 0h1m1 0h1M2 24h2m1 0h1m1 0h2m8 0h1m1 0h1m1 0h1m1 0h1m1 0h1M4 25h1m1 0h1m1 0h2m5 0h2m1 0h1m1 0h1m1 0h1m1 0h1m1 0h1m-17 1h5"/></svg>