<svg xmlns="http://www.w3.org/2000/svg" viewBox="0 -0.5 32 32" shape-rendering="crispEdges">
<path stroke="#000000" d="M0 0h1M15 0h3M14 1h1M18 1h1M13 2h1M19 2h1M13 3h1M19 3h1M13 4h1M19 4h1M13 5h1M19 5h1M13 6h1M19 6h1M13 7h1M19 7h1M13 8h1M19 8h1M13 9h1M19 9h1M13 10h1M19 10h1M13 11h1M19 11h1M13 12h1M19 12h1M13 13h1M19 13h1M13 14h1M19 14h1M13 15h1M19 15h1M13 16h1M19 16h1M13 17h1M19 17h1M13 18h1M19 18h1M13 19h1M19 19h1M13 20h1M19 20h1M13 21h1M19 21h1M14 22h1M18 22h1M15 23h3M15 25h3M14 26h1M18 26h1M13 27h1M19 27h1M13 28h1M19 28h1M13 29h1M19 29h1M14 30h1M18 30h1M15 31h3" />
<path stroke="#ff00ff" d="M0 0h1M15 1h2M14 2h2M17 2h1M14 3h1M16 3h2M14 4h1M16 4h2M14 5h1M16 5h2M14 6h1M16 6h2M14 7h1M16 7h2M14 8h1M16 8h2M14 9h1M16 9h2M14 10h1M16 10h2M14 11h1M16 11h2M14 12h1M16 12h2M14 13h1M16 13h2M14 14h1M16 14h2M14 15h1M16 15h2M14 16h1M16 16h2M14 17h1M16 17h2M14 18h4M14 19h4M14 20h4M15 21h3M15 26h2M14 27h1M17 27h1M14 28h1M16 28h2M15 29h3" />
<path stroke="#800080" d="M0 0h1M17 1h1M18 2h1M18 3h1M18 4h1M18 5h1M18 6h1M18 7h1M18 8h1M18 9h1M18 10h1M18 11h1M18 12h1M18 13h1M18 14h1M18 15h1M18 16h1M18 17h1M18 18h1M18 19h1M18 20h1M14 21h1M18 21h1M15 22h3M17 26h1M18 27h1M18 28h1M14 29h1M18 29h1M15 30h3" />
<path stroke="#c0c0c0" d="M0 0h1M16 2h1M15 3h1M15 17h1M16 27h1M15 28h1" />
<path stroke="#ffffff" d="M0 0h1M15 4h1M15 5h1M15 6h1M15 7h1M15 8h1M15 9h1M15 10h1M15 11h1M15 12h1M15 13h1M15 14h1M15 15h1M15 16h1M15 27h1" />
</svg>