<svg xmlns="http://www.w3.org/2000/svg" viewBox="0 -0.5 32 32" shape-rendering="crispEdges">
<path stroke="#000000" d="M0 0h1M11 2h11M10 3h1M22 3h1M10 4h1M22 4h1M10 5h1M22 5h1M10 6h1M22 6h1M10 7h1M22 7h1M10 8h1M22 8h1M10 9h1M22 9h1M10 10h1M22 10h1M10 11h1M22 11h1M10 12h1M22 12h1M10 13h1M22 13h1M2 14h9M22 14h8M2 15h1M29 15h1M3 16h1M28 16h1M4 17h1M27 17h1M5 18h1M26 18h1M6 19h1M25 19h1M7 20h1M24 20h1M8 21h1M23 21h1M9 22h1M22 22h1M10 23h1M21 23h1M11 24h1M20 24h1M12 25h1M19 25h1M13 26h1M18 26h1M14 27h1M17 27h1M15 28h2" />
<path stroke="#ffffff" d="M0 0h1M11 3h10M11 4h1M11 5h1M11 6h1M11 7h1M11 8h1M11 9h1M11 10h1M11 11h1M11 12h1M11 13h1M11 14h1M4 15h8M22 15h6" />
<path stroke="#808080" d="M0 0h1M21 3h1M21 4h1M21 5h1M21 6h1M21 7h1M21 8h1M21 9h1M21 10h1M21 11h1M21 12h1M21 13h1M21 14h1M3 15h1M21 15h1M28 15h1M4 16h2M26 16h2M5 17h2M25 17h2M6 18h2M24 18h2M7 19h2M23 19h2M8 20h2M22 20h2M9 21h2M21 21h2M10 22h2M20 22h2M11 23h2M19 23h2M12 24h2M18 24h2M13 25h2M17 25h2M14 26h4M15 27h2" />
<path stroke="#c0c0c0" d="M0 0h1M12 4h9M12 5h9M12 6h9M12 7h9M12 8h9M12 9h9M12 10h9M12 11h9M12 12h9M12 13h9M12 14h9M12 15h9M6 16h20M7 17h18M8 18h16M9 19h14M10 20h12M11 21h10M12 22h8M13 23h6M14 24h4M15 25h2" />
</svg>