<svg xmlns="http://www.w3.org/2000/svg" width="32" height="32" shape-rendering="crispEdges" viewBox="0 -0.5 32 32"><path stroke="#000" d="M16 0h2m-5 1h3m2 0h3m-9 1h1m2 0h1m2 0h1m2 0h1M12 3h1m2 0h1m2 0h1m2 0h1M12 4h1m2 0h1m2 0h1m2 0h3M12 5h1m2 0h1m2 0h1m2 0h1m2 0h1M12 6h1m2 0h1m2 0h1m2 0h1m2 0h1M12 7h1m2 0h1m2 0h1m2 0h1m2 0h1M12 8h1m2 0h1m2 0h1m2 0h1m2 0h1M7 9h3m2 0h1m2 0h1m2 0h1m2 0h1m2 0h1M7 10h1m2 0h1m1 0h1m8 0h1m2 0h1M8 11h1m2 0h2m11 0h1M8 12h1m3 0h2m10 0h1M9 13h1m4 0h1m9 0h1M9 14h1m5 0h1m8 0h1m-15 1h1m4 0h1m8 0h1m-15 1h1m12 0h1m-14 1h1m12 0h1m-13 1h1m11 0h1m-13 1h1m10 0h1m-11 1h1m9 0h1m-10 1h1m7 0h1m-8 1h1m6 0h1m-8 1h1m6 0h1m-9 1h9m-9 1h10m-10 1h10m-10 1h10m-10 1h10m-10 1h10m-10 1h10"/><path stroke="#fff" d="M16 1h2m-5 1h2m1 0h2m1 0h2m-8 1h2m1 0h2m1 0h2m-8 1h2m1 0h2m1 0h2m-8 1h2m1 0h2m1 0h2m1 0h2M13 6h2m1 0h2m1 0h2m1 0h2M13 7h2m1 0h2m1 0h2m1 0h2M13 8h2m1 0h2m1 0h2m1 0h2M13 9h2m1 0h2m1 0h2m1 0h2M8 10h2m3 0h8m1 0h2M9 11h2m2 0h11M9 12h3m2 0h10m-14 1h4m1 0h9m-14 1h5m1 0h8m-13 1h4m1 0h8m-13 1h12m-12 1h12m-11 1h11m-11 1h10m-9 1h9m-8 1h7m-6 1h6m-6 1h6"/></svg>