<svg xmlns="http://www.w3.org/2000/svg" viewBox="0 -0.5 32 32" shape-rendering="crispEdges">
<path stroke="#000000" d="M0 0h1M13 0h7M11 1h2M20 1h2M9 2h2M22 2h2M8 3h1M24 3h1M7 4h1M25 4h1M7 5h1M25 5h1M6 6h1M14 6h5M26 6h1M6 7h1M13 7h1M19 7h1M26 7h1M6 8h1M12 8h1M20 8h1M26 8h1M6 9h1M12 9h1M20 9h1M26 9h1M7 10h1M11 10h1M20 10h1M26 10h1M8 11h3M20 11h1M26 11h1M18 12h2M26 12h1M16 13h2M25 13h1M15 14h1M25 14h1M14 15h1M24 15h1M13 16h1M22 16h2M13 17h1M20 17h2M12 18h1M19 18h1M12 19h1M18 19h1M12 20h1M18 20h1M12 21h1M18 21h1M13 22h1M17 22h1M14 23h3M14 25h3M13 26h1M17 26h1M12 27h1M18 27h1M12 28h1M18 28h1M12 29h1M18 29h1M13 30h1M17 30h1M14 31h3" />
<path stroke="#ffff00" d="M0 0h1M13 1h6M11 2h2M18 2h3M9 3h2M14 3h8M8 4h2M12 4h11M8 5h1M11 5h2M20 5h4M7 6h1M10 6h2M21 6h4M7 7h1M10 7h1M21 7h4M7 8h4M21 8h4M8 9h2M21 9h4M21 10h4M21 11h4M20 12h4M18 13h6M16 14h2M19 14h4M15 15h2M18 15h3M14 16h1M17 16h2M14 17h1M16 17h2M13 18h1M16 18h1M13 19h1M16 19h1M13 20h4M14 21h2M14 26h2M13 27h1M16 27h1M13 28h1M16 28h1M14 29h2" />
<path stroke="#c0c0c0" d="M0 0h1M19 1h1M21 2h1M22 3h1M23 4h1M13 5h1M19 5h1M24 5h1M12 6h1M20 6h1M11 7h1M7 9h1M10 9h1M24 12h1M21 15h1M19 16h1M18 17h1M17 18h1M13 21h1M16 21h1M16 26h1M13 29h1M16 29h1" />
<path stroke="#ffffff" d="M0 0h1M13 2h5M11 3h3M10 4h2M9 5h2M8 6h2M8 7h2M18 14h1M17 15h1M15 16h2M15 17h1M14 18h2M14 19h2M14 27h2M14 28h2" />
<path stroke="#808000" d="M0 0h1M23 3h1M24 4h1M14 5h5M13 6h1M19 6h1M25 6h1M12 7h1M20 7h1M25 7h1M11 8h1M25 8h1M11 9h1M25 9h1M8 10h3M25 10h1M25 11h1M25 12h1M24 13h1M23 14h2M22 15h2M20 16h2M19 17h1M18 18h1M17 19h1M17 20h1M17 21h1M14 22h3M17 27h1M17 28h1M17 29h1M14 30h3" />
</svg>