<svg xmlns="http://www.w3.org/2000/svg" width="32" height="32" shape-rendering="crispEdges" viewBox="0 -0.5 32 32"><path stroke="#fff" d="M0 0h32M0 1h7m18 0h7M0 2h7m1 0h16m1 0h7M0 3h7m1 0h1m14 0h1m1 0h7M0 4h7m1 0h1m1 0h12m1 0h1m1 0h7M0 5h7m1 0h1m1 0h12m1 0h1m1 0h7M0 6h7m1 0h1m1 0h12m1 0h1m1 0h7M0 7h7m1 0h1m1 0h13m2 0h7M0 8h7m1 0h1m1 0h13m2 0h7M0 9h7m1 0h1m1 0h13m2 0h7M0 10h7m1 0h1m1 0h12m3 0h7M0 11h7m1 0h1m1 0h12m1 0h1m1 0h7M0 12h7m1 0h1m1 0h12m1 0h1m1 0h7M0 13h7m1 0h1m1 0h2m1 0h9m1 0h1m1 0h7M0 14h7m1 0h1m1 0h1m1 0h1m1 0h8m1 0h1m1 0h7M0 15h7m1 0h1m1 0h2m1 0h9m1 0h1m1 0h7M0 16h7m1 0h1m1 0h12m1 0h1m1 0h7M0 17h7m1 0h1m1 0h12m1 0h1m1 0h7M0 18h7m1 0h1m1 0h12m1 0h1m1 0h7M0 19h7m1 0h1m1 0h13m2 0h7M0 20h7m1 0h1m1 0h13m2 0h7M0 21h7m1 0h1m1 0h13m2 0h7M0 22h7m1 0h1m1 0h12m3 0h7M0 23h7m1 0h1m1 0h12m1 0h1m1 0h7M0 24h7m1 0h1m1 0h12m1 0h1m1 0h7M0 26h1m1 0h3m2 0h3m2 0h3m2 0h3m2 0h3m2 0h3M0 27h3m2 0h3m2 0h3m2 0h3m2 0h3m2 0h3m2 0h2M0 28h1m2 0h3m2 0h3m2 0h3m2 0h3m2 0h3m2 0h3M1 29h3m2 0h3m2 0h3m2 0h3m2 0h3m2 0h3M4 30h3m2 0h3m2 0h3m2 0h3m2 0h2"/><path stroke="#000" d="M7 1h18M7 2h1m16 0h1M7 3h1m1 0h14m1 0h1M7 4h1m1 0h1m12 0h1m1 0h1M7 5h1m1 0h1m12 0h1m1 0h1M7 6h1m1 0h1m12 0h1m1 0h1M7 7h1m1 0h1m13 0h2M7 8h1m1 0h1m13 0h2M7 9h1m1 0h1m13 0h2M7 10h1m1 0h1m12 0h3M7 11h1m1 0h1m12 0h1m1 0h1M7 12h1m1 0h1m12 0h1m1 0h1M7 13h1m1 0h1m2 0h1m9 0h1m1 0h1M7 14h1m1 0h1m1 0h1m1 0h1m8 0h1m1 0h1M7 15h1m1 0h1m2 0h1m9 0h1m1 0h1M7 16h1m1 0h1m12 0h1m1 0h1M7 17h1m1 0h1m12 0h1m1 0h1M7 18h1m1 0h1m12 0h1m1 0h1M7 19h1m1 0h1m13 0h2M7 20h1m1 0h1m13 0h2M7 21h1m1 0h1m13 0h2M7 22h1m1 0h1m12 0h3M7 23h1m1 0h1m12 0h1m1 0h1M7 24h1m1 0h1m12 0h1m1 0h1M0 25h32M1 26h1m3 0h2m3 0h2m3 0h2m3 0h2m3 0h2m3 0h2M3 27h2m3 0h2m3 0h2m3 0h2m3 0h2m3 0h2M1 28h2m3 0h2m3 0h2m3 0h2m3 0h2m3 0h2M4 29h2m3 0h2m3 0h2m3 0h2m3 0h2M7 30h2m3 0h2m3 0h2m3 0h2"/></svg>