<svg xmlns="http://www.w3.org/2000/svg" width="32" height="32" shape-rendering="crispEdges" viewBox="0 -0.5 32 32"><path stroke="#000" d="M3 4h27M2 5h1m27 0h1M1 6h1m29 0h1M1 7h1m29 0h1M1 8h1m3 0h23m3 0h1M1 9h1m3 0h2m1 0h1m1 0h1m1 0h1m1 0h1m1 0h1m1 0h1m1 0h1m1 0h1m1 0h1m1 0h2m3 0h1M1 10h1m3 0h1m1 0h1m1 0h1m1 0h1m1 0h1m1 0h1m1 0h1m1 0h1m1 0h1m1 0h1m1 0h1m1 0h1m3 0h1M1 11h1m3 0h23m3 0h1M1 12h1m3 0h1m21 0h1m3 0h1M1 13h1m3 0h1m21 0h1m3 0h1M1 14h1m3 0h1m2 0h17m2 0h1m3 0h1M1 15h1m3 0h1m21 0h1m3 0h1M1 16h1m3 0h1m2 0h16m3 0h1m3 0h1M1 17h1m3 0h1m21 0h1m3 0h1M1 18h1m3 0h1m2 0h17m2 0h1m3 0h1M1 19h1m3 0h1m21 0h1m3 0h1M1 20h1m3 0h1m2 0h16m3 0h1m3 0h1M1 21h1m3 0h1m21 0h1m3 0h1M1 22h1m3 0h1m21 0h1m3 0h1M1 23h1m3 0h23m3 0h1M1 24h1m29 0h1M1 25h1m29 0h1M2 26h1m27 0h1M3 27h27"/><path stroke="#fff" d="M3 5h27M2 6h29M2 7h29M2 8h3m23 0h3M2 9h3m2 0h1m1 0h1m1 0h1m1 0h1m1 0h1m1 0h1m1 0h1m1 0h1m1 0h1m1 0h1m2 0h3M2 10h3m1 0h1m1 0h1m1 0h1m1 0h1m1 0h1m1 0h1m1 0h1m1 0h1m1 0h1m1 0h1m1 0h1m1 0h3M2 11h3m23 0h3M2 12h3m1 0h21m1 0h3M2 13h3m1 0h21m1 0h3M2 14h3m1 0h2m17 0h2m1 0h3M2 15h3m1 0h21m1 0h3M2 16h3m1 0h2m16 0h3m1 0h3M2 17h3m1 0h21m1 0h3M2 18h3m1 0h2m17 0h2m1 0h3M2 19h3m1 0h21m1 0h3M2 20h3m1 0h2m16 0h3m1 0h3M2 21h3m1 0h21m1 0h3M2 22h3m1 0h21m1 0h3M2 23h3m23 0h3M2 24h29M2 25h29M3 26h27"/></svg>