<svg xmlns="http://www.w3.org/2000/svg" width="32" height="32" shape-rendering="crispEdges" viewBox="0 -0.5 32 32"><path stroke="#000" d="M2 0h4m7 0h4m4 0h5M2 1h1m3 0h1m5 0h1m3 0h1m2 0h2m5 0h2M2 2h1m3 0h1m5 0h1m3 0h1m1 0h1m3 0h3m3 0h1M2 3h1m4 0h1m3 0h1m4 0h1m1 0h1m2 0h1m3 0h1m2 0h1M2 4h1m4 0h1m3 0h1m4 0h1m1 0h1m2 0h1m3 0h4M2 5h1m5 0h1m1 0h1m5 0h1m1 0h1m3 0h3M2 6h1m2 0h1m2 0h1m1 0h1m2 0h1m2 0h1m2 0h2m4 0h2M2 7h1m2 0h2m2 0h1m2 0h2m2 0h1m4 0h3m3 0h1M2 8h1m2 0h2m2 0h1m2 0h2m2 0h1m1 0h3m3 0h1m3 0h1M2 9h1m2 0h1m1 0h1m3 0h1m1 0h1m2 0h1m1 0h1m2 0h1m3 0h1m2 0h1M2 10h1m2 0h1m1 0h1m3 0h1m1 0h1m2 0h1m1 0h1m2 0h4m3 0h1M2 11h1m2 0h1m2 0h1m1 0h1m2 0h1m2 0h1m2 0h1m7 0h1M1 12h10m1 0h7m1 0h7M1 13h1m9 0h1m7 0h1m7 0h2M1 14h1m8 0h1m7 0h1m10 0h1M1 15h1m7 0h1m7 0h1m12 0h1M1 16h1m3 0h5m3 0h5m3 0h6m2 0h2M1 17h1m3 0h4m3 0h1m2 0h3m2 0h1m3 0h1m1 0h5M1 18h1m3 0h4m3 0h1m2 0h3m2 0h1m3 0h1m2 0h3M1 19h1m3 0h1m2 0h1m3 0h1m2 0h1m2 0h1m1 0h1m3 0h3M1 20h1m3 0h1m2 0h1m3 0h1m2 0h1m3 0h2m3 0h1m2 0h2M1 21h1m3 0h1m2 0h1m3 0h1m2 0h1m4 0h1m3 0h1m4 0h1M1 22h1m3 0h1m2 0h1m3 0h1m2 0h1m4 0h1m3 0h2m4 0h1M1 23h1m3 0h1m2 0h1m2 0h2m2 0h1m2 0h3m3 0h3m3 0h1M1 24h1m3 0h1m3 0h1m1 0h1m3 0h1m1 0h2m2 0h1m1 0h1m2 0h1m3 0h1M1 25h1m3 0h6m3 0h5m3 0h4m4 0h1M1 26h1m12 0h1m2 0h3m9 0h2M1 27h1m10 0h2m4 0h3m7 0h3M1 28h1m9 0h2m5 0h4m5 0h4M1 29h1m1 0h27M1 30h28M2 31h9m2 0h7m1 0h7"/><path stroke="#fff" d="M3 1h3m7 0h3m5 0h5M3 2h3m7 0h3m3 0h3m3 0h3M3 3h4m5 0h4m3 0h2m5 0h2M3 4h4m5 0h4m3 0h2M3 5h5m3 0h5m3 0h3M3 6h2m1 0h2m3 0h2m1 0h2m5 0h4M3 7h2m2 0h2m1 0h2m2 0h2m8 0h3M3 8h2m2 0h2m1 0h2m2 0h2m9 0h3M3 9h2m3 0h3m3 0h2m3 0h2m5 0h2M3 10h2m3 0h3m3 0h2m3 0h2m4 0h3M3 11h2m4 0h1m4 0h2m4 0h7M2 13h9m1 0h7m1 0h7M2 14h8m1 0h7m1 0h10M2 15h7m1 0h7m1 0h12M2 16h3m5 0h3m5 0h3m6 0h2M2 17h3m4 0h3m1 0h2m3 0h2m1 0h3M2 18h3m4 0h3m1 0h2m3 0h2m1 0h3M2 19h3m4 0h3m1 0h2m4 0h1m1 0h3M2 20h3m4 0h3m1 0h2m6 0h3m1 0h2M2 21h3m4 0h3m1 0h2m6 0h3m1 0h4M2 22h3m4 0h3m1 0h2m6 0h3m2 0h4M2 23h3m4 0h2m2 0h2m6 0h3m3 0h3M2 24h3m5 0h1m1 0h3m4 0h2m1 0h1m4 0h3M2 25h3m6 0h3m5 0h3m4 0h4M2 26h12m1 0h2m3 0h9M2 27h10m2 0h4m3 0h7M2 28h9m2 0h5m4 0h5M2 29h1"/></svg>