<svg xmlns="http://www.w3.org/2000/svg" width="32" height="32" shape-rendering="crispEdges" viewBox="0 -0.5 32 32"><path stroke="#000" d="M10 0h1m0 1h2m-2 1h3m-3 1h4M3 4h5m3 0h4m6 0h4M2 5h2m1 0h1m1 0h2m2 0h2m1 0h2m4 0h1m4 0h1M1 6h1m1 0h3m1 0h2m2 0h1m3 0h1m3 0h1m2 0h2m2 0h1M1 7h2m3 0h1m1 0h1m2 0h1m3 0h1m3 0h1m1 0h1m2 0h1m1 0h1M1 8h1m1 0h3m2 0h1m3 0h3m4 0h1m1 0h1m2 0h1m1 0h1M2 9h1m5 0h1m3 0h1m1 0h1m4 0h1m1 0h1m1 0h1m1 0h1m1 0h3M2 10h1m5 0h1m3 0h1m1 0h1m4 0h1m1 0h2m1 0h1m1 0h1m3 0h1M3 11h1m3 0h2m3 0h1m1 0h1m5 0h1m2 0h1m1 0h1m1 0h2m2 0h1M3 12h4m2 0h1m2 0h3m5 0h1m1 0h1m1 0h1m1 0h1m2 0h1m1 0h1M4 13h1m4 0h1m2 0h1m1 0h1m5 0h1m1 0h2m1 0h1m3 0h1m1 0h1M4 14h1m4 0h1m2 0h1m1 0h1m4 0h1m5 0h4m2 0h1M4 15h1m5 0h3m1 0h5m1 0h1m1 0h3m5 0h1M5 16h1m4 0h1m1 0h1m1 0h1m2 0h1m3 0h2m2 0h5M5 17h1m4 0h1m1 0h1m1 0h1m1 0h1m2 0h2M4 18h2m5 0h2m1 0h2m2 0h1m1 0h2M4 19h1m1 0h2m3 0h2m1 0h1m2 0h3m1 0h1M4 20h2m2 0h10m2 0h2M5 21h3m10 0h3M5 22h1m2 0h11m1 0h1M5 23h1m13 0h2M5 24h1m12 0h1m1 0h1M5 25h1m13 0h2M5 26h1m12 0h1m1 0h1M5 27h1m13 0h2M5 28h1m12 0h1m1 0h1M5 29h1m13 0h2M6 30h2m10 0h2M8 31h10"/><path stroke="#fff" d="M4 5h1m1 0h1m6 0h1m7 0h4M2 6h1m3 0h1m5 0h3m5 0h2m2 0h2M3 7h3m1 0h1m4 0h3m5 0h1m4 0h1M2 8h1m3 0h2m12 0h1m4 0h1M3 9h5m5 0h1m6 0h1m3 0h1M3 10h5m5 0h1m6 0h1m2 0h1m3 0h3M4 11h3m6 0h1m7 0h2m3 0h1m2 0h2M7 12h2m12 0h1m3 0h1m4 0h1M5 13h4m4 0h1m7 0h1m2 0h1m5 0h1M5 14h4m4 0h1m6 0h5m4 0h2M5 15h5m3 0h1m5 0h1m1 0h1m3 0h5M6 16h4m1 0h1m1 0h1m1 0h2m1 0h3M6 17h4m1 0h1m1 0h1m1 0h1m1 0h2M6 18h5m2 0h1m2 0h2m1 0h1M5 19h1m2 0h3m2 0h1m1 0h2m3 0h1M6 20h2m10 0h2M8 21h10M6 22h2m11 0h1M6 23h13M6 24h12m1 0h1M6 25h13M6 26h12m1 0h1M6 27h13M6 28h12m1 0h1M6 29h13M8 30h10"/></svg>