<svg xmlns="http://www.w3.org/2000/svg" width="32" height="32" shape-rendering="crispEdges" viewBox="0 -0.5 32 32"><path stroke="#000" d="M16 1h1m-2 1h1m-4 1h2m1 0h1m-4 1h1m1 0h2m-6 1h2m1 0h1m-4 1h1m1 0h2M8 7h2m1 0h1m8 0h4M8 8h1m1 0h2m9 0h1m1 0h1M8 9h1m10 0h2m2 0h1M1 10h2m1 0h13m3 0h1m2 0h1M1 11h1m1 0h1m3 0h1m8 0h1m1 0h2m2 0h1M2 12h1m5 0h8m3 0h1m2 0h1m4 0h3M2 13h1m6 0h1m7 0h2m2 0h1m3 0h1m3 0h1M2 14h1m7 0h1m7 0h1m2 0h1m2 0h1m4 0h1M2 15h1m8 0h1m4 0h2m2 0h1m2 0h1m4 0h1M2 16h1m9 0h1m4 0h1m2 0h1m1 0h1m2 0h1m1 0h1M2 17h1m10 0h1m1 0h2m2 0h1m1 0h1m2 0h1m1 0h1M3 18h1m10 0h1m1 0h1m2 0h2m2 0h1m1 0h1M4 19h1m10 0h1m3 0h1m4 0h1M5 20h1m10 0h1m1 0h1m4 0h1M6 21h1m10 0h2m3 0h5M7 22h1m10 0h1m2 0h2m4 0h1M8 23h1m10 0h3m6 0h1M9 24h1m9 0h1m1 0h1m6 0h1m-19 1h1m8 0h3m6 0h1m-18 1h1m7 0h1m1 0h1m6 0h1m-17 1h1m6 0h1m2 0h1m4 0h1m-15 1h1m4 0h1m4 0h4m-13 1h4"/><path stroke="#fff" d="M22 8h1m-2 1h1M2 11h1m17 0h1m-2 2h1m7 0h1M6 14h1m1 0h1m16 0h1M7 15h1m10 0h1m5 0h1M6 16h1m1 0h1m14 0h1m-7 1h1m4 0h1m-2 1h1m-2 1h1m-2 1h1m4 2h2m-3 1h4m-7 1h1m1 0h4m1 0h1m-6 1h4m1 0h1m-5 1h1m2 0h1m-3 1h2"/><path stroke="silver" d="M22 9h1m-2 1h1M8 11h8m5 0h1m-2 1h1m-1 1h1m7 0h1m-10 1h1m6 0h3M3 15h1m15 0h1m5 0h3M4 16h1m13 0h1m5 0h1m1 0h1M5 17h1m12 0h1m4 0h1m1 0h1M6 18h1m10 0h1m4 0h1m1 0h1M7 19h1m9 0h1m3 0h3M8 20h1m11 0h3M9 21h1m9 0h3m-12 1h1m8 0h2m2 0h1m2 0h1m-16 1h1m10 0h1m4 0h1m-16 1h1m13 0h1m-14 1h1m12 0h1m-13 1h1m7 0h1m1 0h2m1 0h1m-13 1h2m6 0h1m2 0h1"/><path stroke="gray" d="M3 10h1m18 0h1M1 12h1m19 0h1m4 0h1m-1 1h1m-7 1h1m-2 2h1m-2 2h1m-3 1h1m1 0h1m-2 1h1"/><path stroke="red" d="M4 11h3m-4 1h5m-5 1h6m-6 1h3m1 0h1m1 0h1m-6 1h3m1 0h3m-8 1h1m1 0h1m1 0h1m1 0h3m-9 1h2m1 0h7m-9 1h2m1 0h7m-9 1h2m1 0h7m-9 1h2m1 0h7m-9 1h2m1 0h7m-9 1h2m1 0h7m-9 1h2m1 0h7m-9 1h2m1 0h6m-8 1h2m1 0h5m-7 1h2m1 0h3m-5 1h2m-1 1h2"/><path stroke="maroon" d="M18 26h1m-2 1h2m-3 1h2"/></svg>