<svg xmlns="http://www.w3.org/2000/svg" width="32" height="32" shape-rendering="crispEdges" viewBox="0 -0.5 32 32"><path stroke="#000" d="M5 1h22M5 2h1m20 0h1M5 3h22M5 4h22M5 5h3m2 0h17M5 6h2m1 0h2m1 0h1m1 0h14M5 7h2m1 0h19M5 8h2m1 0h2m1 0h1m1 0h18M5 9h3m2 0h6m14 0h1M5 10h26M5 11h11m14 0h1M5 12h11m9 0h4m1 0h1M1 13h23m6 0h1M1 14h1m21 0h1m1 0h4m1 0h1M1 15h23m6 0h1M1 16h1m21 0h1m1 0h4m1 0h1M1 17h1m3 0h3m3 0h3m3 0h3m3 0h1m6 0h1M1 18h1m3 0h1m1 0h1m3 0h1m1 0h1m3 0h1m1 0h1m3 0h1m1 0h4m1 0h1M1 19h1m2 0h4m2 0h4m2 0h1m1 0h1m1 0h1m2 0h1m6 0h1M1 20h1m3 0h3m3 0h3m2 0h5m2 0h1m1 0h4m1 0h1M1 21h1m21 0h1m6 0h1M1 22h1m2 0h4m2 0h5m2 0h4m2 0h1m1 0h4m1 0h1M1 23h1m21 0h1m6 0h1M1 24h1m4 0h2m2 0h5m2 0h3m3 0h8M1 25h1m3 0h1m1 0h1m2 0h2m1 0h1m3 0h1m1 0h2m2 0h1M1 26h1m2 0h4m3 0h2m4 0h4m2 0h1M1 27h1m21 0h1M1 28h1m2 0h4m2 0h5m2 0h4m2 0h1M1 29h1m21 0h1M1 30h23"/><path stroke="#fff" d="M6 2h20M8 5h2M7 6h1m2 0h1m1 0h1M7 7h1M7 8h1m2 0h1m1 0h1M8 9h2m6 0h14m-14 2h14m-14 1h9m4 0h1m-6 1h6M2 14h21m1 0h1m4 0h1m-6 1h6M2 16h21m1 0h1m4 0h1M2 17h3m3 0h3m3 0h3m3 0h3m1 0h6M2 18h3m1 0h1m1 0h3m1 0h1m1 0h3m1 0h1m1 0h3m1 0h1m4 0h1M2 19h2m4 0h2m4 0h2m1 0h1m1 0h1m1 0h2m1 0h6M2 20h3m3 0h3m3 0h2m5 0h2m1 0h1m4 0h1M2 21h21m1 0h6M2 22h2m4 0h2m5 0h2m4 0h2m1 0h1m4 0h1M2 23h21m1 0h6M2 24h4m2 0h2m5 0h2m3 0h3M2 25h3m1 0h1m1 0h2m2 0h1m1 0h3m1 0h1m2 0h2M2 26h2m4 0h3m2 0h4m4 0h2M2 27h21M2 28h2m4 0h2m5 0h2m4 0h2M2 29h21"/></svg>