<svg xmlns="http://www.w3.org/2000/svg" width="32" height="32" shape-rendering="crispEdges" viewBox="0 -0.5 32 32"><path stroke="#fff" d="M2 2h1m23 0h1M2 3h1m23 0h2M2 4h2m21 0h4M1 5h3m21 0h4M1 6h4m19 0h6M1 7h4m19 0h6M0 8h6m17 0h8M0 9h6m17 0h8M0 10h6m16 0h9M0 11h5m1 0h2m16 0h8M0 12h4m1 0h4m13 0h2m1 0h7M0 13h3m1 0h4m15 0h2m1 0h6M1 14h1m1 0h4m1 0h2m11 0h2m1 0h2m1 0h5M3 15h3m1 0h7m1 0h9m1 0h2m1 0h3M3 16h2m1 0h7m1 0h11m1 0h2m1 0h1M4 17h1m1 0h6m1 0h3m2 0h8m1 0h1M6 18h7m3 0h2m1 0h6M7 19h12m1 0h4M8 20h1m2 0h1m2 0h6M9 21h2m1 0h2m2 0h8M8 22h2m1 0h2m1 0h2m1 0h2m-9 1h2m1 0h2m1 0h1m1 0h4m-10 1h2m1 0h2m-3 1h2m1 0h2"/><path stroke="#000" d="M3 2h1m21 0h1M3 3h1m21 0h1M4 4h1m19 0h1M4 5h1m19 0h1M5 6h1m17 0h1M5 7h1m17 0h1M6 8h1m15 0h1M6 9h1m15 0h1M6 10h2m13 0h1M5 11h1m2 0h1m12 0h3M4 12h1m4 0h1m11 0h1m2 0h1M3 13h1m4 0h2m11 0h2m2 0h1M0 14h1m1 0h1m4 0h1m2 0h11m2 0h1m2 0h1M1 15h2m3 0h1m7 0h1m9 0h1m2 0h1m3 0h1M2 16h1m2 0h1m7 0h1m11 0h1m2 0h1m1 0h1M3 17h1m1 0h1m6 0h1m3 0h2m8 0h1m1 0h2M4 18h2m7 0h3m2 0h1m6 0h3M6 19h1m12 0h1m4 0h1M7 20h1m1 0h2m1 0h2m6 0h5M7 21h2m2 0h1m2 0h2m8 0h1M7 22h1m2 0h1m2 0h1m2 0h1m2 0h5M8 23h2m2 0h1m2 0h1m1 0h1m4 0h1m-13 1h2m2 0h1m2 0h5m-10 1h2m2 0h1m2 0h1M7 26h1m6 0h5m5 0h1M4 27h1m3 0h2m12 0h2m3 0h1M5 28h1m20 0h1M6 29h3m14 0h3"/></svg>