<svg xmlns="http://www.w3.org/2000/svg" viewBox="0 -0.5 32 32" shape-rendering="crispEdges">
<path stroke="#000000" d="M0 0h1M3 4h27M2 5h1M30 5h1M1 6h1M31 6h1M1 7h1M31 7h1M1 8h1M5 8h23M31 8h1M1 9h1M5 9h1M27 9h1M31 9h1M1 10h1M5 10h1M27 10h1M31 10h1M1 11h1M5 11h23M31 11h1M1 12h1M5 12h1M27 12h1M31 12h1M1 13h1M5 13h1M27 13h1M31 13h1M1 14h1M5 14h1M27 14h1M31 14h1M1 15h1M5 15h1M27 15h1M31 15h1M1 16h1M5 16h1M27 16h1M31 16h1M1 17h1M5 17h1M27 17h1M31 17h1M1 18h1M5 18h1M27 18h1M31 18h1M1 19h1M5 19h1M27 19h1M31 19h1M1 20h1M5 20h1M27 20h1M31 20h1M1 21h1M5 21h1M27 21h1M31 21h1M1 22h1M5 22h1M27 22h1M31 22h1M1 23h1M5 23h23M31 23h1M1 24h1M31 24h1M1 25h1M31 25h1M2 26h1M30 26h1M3 27h27" />
<path stroke="#ffffff" d="M0 0h1M3 5h27M2 6h1M2 7h1M2 8h1M28 8h1M2 9h1M28 9h1M2 10h1M28 10h1M2 11h1M28 11h1M2 12h1M6 12h21M28 12h1M2 13h1M6 13h21M28 13h1M2 14h1M6 14h21M28 14h1M2 15h1M6 15h21M28 15h1M2 16h1M6 16h21M28 16h1M2 17h1M6 17h21M28 17h1M2 18h1M6 18h21M28 18h1M2 19h1M6 19h21M28 19h1M2 20h1M6 20h21M28 20h1M2 21h1M6 21h21M28 21h1M2 22h1M6 22h21M28 22h1M2 23h1M28 23h1M2 24h1M5 24h23M2 25h1" />
<path stroke="#c0c0c0" d="M0 0h1M3 6h27M3 7h2M28 7h2M3 8h1M29 8h1M3 9h1M7 9h1M9 9h1M11 9h1M13 9h1M15 9h1M17 9h1M19 9h1M21 9h1M23 9h1M25 9h1M29 9h1M3 10h1M6 10h1M8 10h1M10 10h1M12 10h1M14 10h1M16 10h1M18 10h1M20 10h1M22 10h1M24 10h1M26 10h1M29 10h1M3 11h1M29 11h1M3 12h1M29 12h1M3 13h1M29 13h1M3 14h1M29 14h1M3 15h1M29 15h1M3 16h1M29 16h1M3 17h1M29 17h1M3 18h1M29 18h1M3 19h1M29 19h1M3 20h1M29 20h1M3 21h1M29 21h1M3 22h1M29 22h1M3 23h1M29 23h1M3 24h2M28 24h2M3 25h27" />
<path stroke="#808080" d="M0 0h1M30 6h1M5 7h23M30 7h1M4 8h1M30 8h1M4 9h1M30 9h1M4 10h1M30 10h1M4 11h1M30 11h1M4 12h1M30 12h1M4 13h1M30 13h1M4 14h1M30 14h1M4 15h1M30 15h1M4 16h1M30 16h1M4 17h1M30 17h1M4 18h1M30 18h1M4 19h1M30 19h1M4 20h1M30 20h1M4 21h1M30 21h1M4 22h1M30 22h1M4 23h1M30 23h1M30 24h1M30 25h1M3 26h27" />
<path stroke="#00ffff" d="M0 0h1M6 9h1M8 9h1M10 9h1M12 9h1M14 9h1M16 9h1M18 9h1M20 9h1M22 9h1M24 9h1M26 9h1M7 10h1M9 10h1M11 10h1M13 10h1M15 10h1M17 10h1M19 10h1M21 10h1M23 10h1M25 10h1" />
</svg>