<svg xmlns="http://www.w3.org/2000/svg" width="32" height="32" shape-rendering="crispEdges" viewBox="0 -0.5 32 32"><path stroke="#000" d="M1 3h30M1 4h1m28 0h1M1 5h1m28 0h1M1 6h30M1 7h1m28 0h1M1 8h1m28 0h1M1 9h1m4 0h3m6 0h3m8 0h1m3 0h1M1 10h1m3 0h1m2 0h1m5 0h1m2 0h1m8 0h1m3 0h1M1 11h1m2 0h6m3 0h1m2 0h2m8 0h1m3 0h1M1 12h1m2 0h1m4 0h1m4 0h2m1 0h1m9 0h1m2 0h1M1 13h1m3 0h5m5 0h3m4 0h6m2 0h1M1 14h1m28 0h1M1 15h1m2 0h6m3 0h6m3 0h6m2 0h1M1 16h1m28 0h1M1 17h1m28 0h1M1 18h1m6 0h1m5 0h1m2 0h2m4 0h3m4 0h1M1 19h1m11 0h1m2 0h1m1 0h1m3 0h1m3 0h1m3 0h1M1 20h1m11 0h1m1 0h1m1 0h1m4 0h1m3 0h1m3 0h1M1 21h1m4 0h1m1 0h1m5 0h1m1 0h1m5 0h1m3 0h1m3 0h1M1 22h1m12 0h2m7 0h3m4 0h1M1 23h1m28 0h1M1 24h1m2 0h6m3 0h6m3 0h6m2 0h1M1 25h1m28 0h1M1 26h1m28 0h1M1 27h30"/><path stroke="#0ff" d="M2 4h1m1 0h1m1 0h1m1 0h1m1 0h1m1 0h1m1 0h1m1 0h1m1 0h1m1 0h1m1 0h1m1 0h1m1 0h1m1 0h1M3 5h1m1 0h1m1 0h1m1 0h1m1 0h1m1 0h1m1 0h1m1 0h1m1 0h1m1 0h1m1 0h1m1 0h1m1 0h1m1 0h1m-7 14h1m1 0h1m-3 1h1m-1 1h3"/><path stroke="silver" d="M3 4h1m1 0h1m1 0h1m1 0h1m1 0h1m1 0h1m1 0h1m1 0h1m1 0h1m1 0h1m1 0h1m1 0h1m1 0h1m1 0h1M2 5h1m1 0h1m1 0h1m1 0h1m1 0h1m1 0h1m1 0h1m1 0h1m1 0h1m1 0h1m1 0h1m1 0h1m1 0h1m1 0h1M5 12h4"/><path stroke="gray" d="M31 4h1m-1 1h1m-1 1h1m-1 1h1m-1 1h1m-9 1h3m5 0h1m-9 1h1m7 0h1m-9 1h1m7 0h1m-19 1h1m8 0h5m4 0h1M4 13h1m26 0h1m-1 1h1m-1 1h1m-1 1h1m-1 1h1m-1 1h1m-1 1h1m-1 1h1m-1 1h1m-1 1h1m-1 1h1m-1 1h1m-1 1h1m-1 1h1m-1 1h1M2 28h30"/><path stroke="#fff" d="M2 7h28M2 8h28M2 9h4m3 0h6m3 0h5m4 0h3M2 10h3m1 0h2m1 0h5m4 0h5m4 0h3M2 11h2m6 0h3m5 0h5m4 0h3M2 12h2m6 0h3m3 0h1m1 0h4m6 0h2M2 13h2m6 0h5m3 0h4m6 0h2M2 14h28M2 15h2m6 0h3m6 0h3m6 0h2M2 16h28M2 17h28M2 18h6m1 0h5m1 0h2m2 0h4m3 0h4M2 19h5m2 0h4m1 0h2m3 0h3m5 0h3M2 20h4m1 0h1m1 0h4m1 0h1m3 0h4m5 0h3M2 21h3m4 0h5m3 0h5m5 0h3M2 22h2m2 0h2m2 0h4m2 0h7m3 0h4M2 23h28M2 24h2m6 0h3m6 0h3m6 0h2M2 25h28M2 26h28"/><path stroke="teal" d="M15 10h2m-3 1h2"/><path stroke="#00f" d="M24 10h2m-2 1h2m-2 8h1m-1 1h2"/><path stroke="purple" d="M7 19h2m-3 1h1m1 0h1m-4 1h1m1 0h1m-4 1h2m2 0h2"/><path stroke="red" d="M17 19h1"/><path stroke="#ff0" d="M16 20h1m-2 1h1"/></svg>