<svg xmlns="http://www.w3.org/2000/svg" viewBox="0 -0.5 32 32" shape-rendering="crispEdges">
<path stroke="#000000" d="M0 0h1M1 6h29M0 7h1M30 7h1M0 8h1M2 8h1M27 8h1M30 8h1M0 9h1M30 9h1M0 10h1M30 10h1M0 11h1M30 11h1M0 12h1M5 12h3M11 12h9M23 12h3M30 12h1M0 13h1M4 13h1M6 13h1M8 13h1M11 13h1M22 13h1M24 13h1M26 13h1M30 13h1M0 14h1M4 14h2M7 14h2M11 14h1M22 14h2M25 14h2M30 14h1M0 15h1M4 15h1M6 15h1M8 15h1M11 15h1M22 15h1M24 15h1M26 15h1M30 15h1M0 16h1M5 16h3M11 16h1M23 16h3M30 16h1M0 17h1M30 17h1M0 18h1M30 18h1M0 19h1M30 19h1M0 20h1M30 20h1M0 21h1M14 21h1M23 21h1M30 21h1M0 22h1M10 22h1M18 22h1M30 22h1M0 23h1M2 23h1M8 23h1M20 23h1M24 23h1M27 23h1M30 23h1M0 24h1M5 24h1M24 24h1M30 24h1M0 25h1M5 25h1M9 25h3M14 25h3M19 25h3M24 25h1M30 25h1M1 26h29" />
<path stroke="#ffffff" d="M0 0h1M1 7h27M1 8h1M1 9h1M1 10h1M1 11h1M1 12h1M1 13h1M5 13h1M7 13h1M9 13h1M19 13h1M23 13h1M25 13h1M27 13h1M1 14h1M9 14h1M19 14h1M27 14h1M1 15h1M5 15h1M7 15h1M9 15h1M19 15h1M23 15h1M25 15h1M27 15h1M1 16h1M8 16h2M12 16h8M26 16h2M1 17h1M5 17h4M23 17h4M1 18h1M1 19h1M1 20h1M7 20h15M1 21h1M6 21h1M15 21h1M1 22h1M6 22h1M11 22h1M19 22h1M1 23h1M5 23h1M9 23h1M21 23h1" />
<path stroke="#808080" d="M0 0h1M28 7h2M28 8h2M28 9h2M28 10h2M4 11h4M22 11h4M28 11h2M3 12h2M8 12h1M21 12h2M26 12h1M28 12h2M3 13h1M17 13h2M21 13h1M28 13h2M3 14h1M6 14h1M21 14h1M24 14h1M28 14h2M3 15h1M21 15h1M28 15h2M4 16h1M22 16h1M28 16h2M28 17h2M28 18h2M28 19h2M22 20h2M28 20h2M28 21h2M23 22h2M28 22h2M28 23h2M1 24h4M6 24h18M25 24h5M1 25h4M6 25h3M12 25h2M17 25h2M22 25h2M25 25h5" />
<path stroke="#c0c0c0" d="M0 0h1M3 8h24M2 9h26M2 10h26M2 11h2M8 11h14M26 11h2M2 12h1M9 12h2M20 12h1M27 12h1M2 13h1M10 13h1M20 13h1M2 14h1M10 14h1M17 14h2M20 14h1M2 15h1M10 15h1M17 15h2M20 15h1M2 16h2M10 16h1M20 16h2M2 17h3M9 17h14M27 17h1M2 18h26M2 19h26M2 20h5M24 20h4M2 21h4M7 21h7M16 21h7M24 21h4M2 22h4M7 22h3M12 22h6M20 22h3M25 22h3M3 23h2M6 23h2M10 23h10M22 23h2M25 23h2" />
<path stroke="#808000" d="M0 0h1M12 13h5M12 14h1M16 14h1M12 15h1M16 15h1" />
<path stroke="#ffff00" d="M0 0h1M13 14h3M13 15h3" />
</svg>