<svg xmlns="http://www.w3.org/2000/svg" viewBox="0 -0.5 32 32" shape-rendering="crispEdges">
<path stroke="#000000" d="M0 0h1M10 0h1M11 1h2M11 2h1M13 2h1M11 3h1M14 3h1M3 4h5M11 4h1M14 4h1M21 4h4M2 5h2M5 5h1M7 5h2M11 5h1M15 5h1M20 5h1M25 5h1M1 6h1M3 6h3M7 6h2M11 6h1M15 6h1M19 6h1M22 6h2M26 6h1M1 7h2M6 7h1M8 7h1M11 7h1M15 7h1M19 7h1M21 7h1M24 7h1M26 7h1M1 8h1M3 8h3M8 8h1M12 8h3M19 8h1M21 8h1M24 8h1M26 8h1M2 9h1M8 9h1M12 9h1M14 9h1M19 9h1M21 9h1M23 9h1M25 9h1M27 9h3M2 10h1M8 10h1M12 10h1M14 10h1M19 10h1M21 10h2M24 10h1M26 10h1M30 10h1M3 11h1M7 11h2M12 11h1M14 11h1M20 11h1M23 11h1M25 11h1M27 11h2M31 11h1M3 12h4M9 12h1M12 12h3M20 12h1M22 12h1M24 12h1M26 12h1M29 12h1M31 12h1M4 13h1M9 13h1M12 13h1M14 13h1M20 13h1M22 13h2M25 13h1M29 13h1M31 13h1M4 14h1M9 14h1M12 14h1M14 14h1M19 14h1M25 14h4M31 14h1M4 15h1M10 15h3M14 15h5M20 15h1M22 15h3M30 15h1M5 16h1M10 16h1M12 16h1M14 16h1M17 16h1M21 16h2M25 16h5M5 17h1M10 17h1M12 17h1M14 17h1M16 17h1M19 17h2M4 18h2M11 18h2M14 18h2M18 18h1M20 18h2M4 19h1M6 19h2M11 19h2M14 19h1M17 19h3M21 19h1M4 20h2M8 20h10M20 20h2M5 21h3M18 21h3M5 22h1M8 22h10M20 22h1M5 23h1M20 23h1M5 24h1M20 24h1M5 25h1M20 25h1M5 26h1M20 26h1M5 27h1M20 27h1M5 28h1M20 28h1M5 29h1M20 29h1M6 30h2M18 30h2M8 31h10" />
<path stroke="#0000ff" d="M0 0h1M12 2h1M12 3h2M12 4h2M12 5h1M14 5h1" />
<path stroke="#ffff00" d="M0 0h1M4 5h1M2 6h1M3 7h1M3 9h2M4 10h1M4 11h2M5 13h1M5 14h1M6 15h1M6 16h1M6 17h1M7 18h1" />
<path stroke="#808000" d="M0 0h1M6 5h1M6 6h1M4 7h2M7 7h1M2 8h1M6 8h2M6 9h2M3 10h1M7 10h1M7 12h2M7 13h2M8 14h1M5 15h1M8 15h2M8 16h2M9 17h1M6 18h1M9 18h2M8 19h3" />
<path stroke="#ffffff" d="M0 0h1M13 5h1M13 11h1M6 20h1M9 21h1M11 21h1M13 21h1M15 21h1M17 21h1M9 25h1M9 26h1M9 27h2M10 28h1" />
<path stroke="#808080" d="M0 0h1M21 5h1M24 5h1M14 6h1M20 6h1M25 6h1M13 7h2M13 9h1M20 10h1M29 10h1M30 11h1M30 14h1M25 15h1M29 15h1M19 18h1" />
<path stroke="#c0c0c0" d="M0 0h1M22 5h2M12 6h2M21 6h1M24 6h1M12 7h1M20 7h1M25 7h1M20 8h1M25 8h1M5 9h1M20 9h1M24 9h1M5 10h2M13 10h1M23 10h1M27 10h2M6 11h1M21 11h2M26 11h1M29 11h1M21 12h1M25 12h1M30 12h1M6 13h1M21 13h1M24 13h1M30 13h1M6 14h2M20 14h5M29 14h1M7 15h1M19 15h1M21 15h1M26 15h3M7 16h1M18 16h3M7 17h2M17 17h2M8 18h1M16 18h2M15 19h2M7 24h1M7 25h1M17 25h1M7 26h1M17 26h1M7 27h1M17 27h1M7 28h1M9 28h1M17 28h1M7 29h1M17 29h1M8 30h9" />
<path stroke="#ff0000" d="M0 0h1M13 13h1M13 14h1M13 15h1M13 16h1M13 17h1M13 18h1M13 19h1" />
<path stroke="#00ffff" d="M0 0h1M11 16h1M15 16h1M7 20h1M18 20h1M8 21h1M10 21h1M12 21h1M14 21h1M16 21h1M8 24h8M8 25h1M10 25h7M8 26h1M10 26h7M8 27h1M11 27h6M8 28h1M11 28h6M8 29h9" />
<path stroke="#008080" d="M0 0h1M16 16h1M11 17h1M15 17h1M5 19h1M20 19h1M19 20h1M6 22h2M18 22h2M6 23h14M6 24h1M16 24h4M6 25h1M18 25h2M6 26h1M18 26h2M6 27h1M18 27h2M6 28h1M18 28h2M6 29h1M18 29h2M17 30h1" />
</svg>