<svg xmlns="http://www.w3.org/2000/svg" width="32" height="32" shape-rendering="crispEdges" viewBox="0 -0.5 32 32"><path stroke="#000" d="M6 0h23M5 1h1m22 0h2M4 2h1m22 0h1m1 0h2M3 3h1m22 0h1m1 0h1m1 0h1M2 4h24m1 0h1m1 0h2M1 5h1m23 0h2m1 0h1m1 0h1M0 6h1m25 0h2m1 0h2M0 7h1m25 0h1m1 0h1m1 0h1M0 8h1m4 0h17m4 0h2m1 0h2M0 9h1m3 0h1m17 0h1m3 0h1m1 0h1m1 0h1M0 10h1m2 0h3m12 0h2m2 0h1m3 0h2m1 0h2M0 11h1m2 0h1m1 0h1m5 0h7m2 0h1m1 0h1m3 0h1m1 0h1m1 0h1M0 12h1m2 0h1m1 0h1m4 0h1m9 0h1m1 0h1m3 0h2m1 0h2M0 13h1m2 0h1m1 0h1m5 0h9m2 0h1m3 0h1m1 0h1m1 0h1M0 14h1m2 0h3m16 0h1m3 0h2m1 0h2M0 15h1m3 0h1m7 0h4m6 0h1m3 0h1m1 0h1m1 0h1M0 16h1m3 0h1m6 0h1m4 0h1m5 0h1m3 0h2m1 0h2M0 17h1m3 0h1m5 0h1m1 0h3m2 0h1m4 0h1m3 0h1m1 0h1m1 0h1M0 18h1m3 0h1m5 0h2m2 0h2m1 0h1m4 0h1m3 0h2m1 0h2M0 19h1m2 0h3m4 0h2m2 0h2m1 0h1m4 0h1m3 0h1m1 0h1m1 0h1M0 20h1m2 0h1m1 0h1m4 0h1m1 0h3m2 0h1m4 0h1m3 0h2m1 0h2M0 21h1m2 0h1m1 0h1m5 0h1m4 0h1m5 0h1m3 0h1m1 0h1m1 0h1M0 22h1m2 0h1m1 0h1m6 0h4m6 0h1m3 0h2m1 0h2M0 23h1m2 0h3m16 0h1m3 0h1m1 0h1m1 0h1M0 24h1m3 0h1m17 0h1m3 0h2m1 0h1M0 25h1m4 0h17m4 0h1m1 0h2M0 26h1m25 0h4M0 27h1m25 0h3M1 28h1m23 0h1M2 29h24M2 30h1m1 0h3m14 0h1m1 0h3M3 31h3m16 0h3"/><path stroke="#fff" d="M6 1h22M5 2h22m1 0h1M4 3h22m1 0h1m1 0h1m-4 1h1m1 0h1M2 5h23m2 0h1m1 0h1M1 6h25m2 0h1M1 7h25m1 0h1m1 0h1M1 8h4m17 0h4m2 0h1M1 9h3m1 0h17m1 0h3m1 0h1m1 0h1M1 10h2m3 0h12m2 0h2m1 0h3m2 0h1M1 11h2m1 0h1m1 0h5m7 0h2m1 0h1m1 0h3m1 0h1m1 0h1M1 12h2m1 0h1m1 0h4m1 0h9m1 0h1m1 0h3m2 0h1M1 13h2m1 0h1m1 0h5m9 0h2m1 0h3m1 0h1m1 0h1M1 14h2m3 0h16m1 0h3m2 0h1M1 15h3m1 0h7m4 0h6m1 0h3m1 0h1m1 0h1M1 16h3m1 0h6m1 0h4m1 0h5m1 0h3m2 0h1M1 17h3m1 0h5m1 0h1m3 0h2m1 0h4m1 0h3m1 0h1m1 0h1M1 18h3m1 0h5m2 0h2m2 0h1m1 0h4m1 0h3m2 0h1M1 19h2m3 0h4m2 0h2m2 0h1m1 0h4m1 0h3m1 0h1m1 0h1M1 20h2m1 0h1m1 0h4m1 0h1m3 0h2m1 0h4m1 0h3m2 0h1M1 21h2m1 0h1m1 0h5m1 0h4m1 0h5m1 0h3m1 0h1m1 0h1M1 22h2m1 0h1m1 0h6m4 0h6m1 0h3m2 0h1M1 23h2m3 0h16m1 0h3m1 0h1m1 0h1M1 24h3m1 0h17m1 0h3m2 0h1M1 25h4m17 0h4m1 0h1M1 26h25M1 27h25M2 28h23M3 30h1m18 0h1"/></svg>