<svg xmlns="http://www.w3.org/2000/svg" width="32" height="32" shape-rendering="crispEdges" viewBox="0 -0.5 32 32"><path stroke="#000" d="M16 0h2m-5 1h3m2 0h3m-9 1h1m2 0h1m2 0h1m2 0h1M12 3h1m2 0h1m2 0h1m2 0h1M12 4h1m2 0h1m2 0h1m2 0h3M12 5h1m2 0h1m2 0h1m2 0h1m2 0h1M12 6h1m2 0h1m2 0h1m2 0h1m2 0h1M12 7h1m2 0h1m2 0h1m2 0h1m2 0h1M12 8h1m2 0h1m2 0h1m2 0h1m2 0h1M7 9h3m2 0h1m2 0h1m2 0h1m2 0h1m2 0h1M7 10h1m2 0h1m1 0h1m8 0h1m2 0h1M8 11h1m2 0h2m11 0h1M8 12h1m3 0h1m11 0h1M9 13h1m14 0h1M9 14h1m14 0h1m-15 1h1m13 0h1m-15 1h1m12 0h1m-14 1h1m12 0h1m-13 1h1m11 0h1m-13 1h1m10 0h1m-11 1h1m9 0h1m-10 1h1m7 0h1m-8 1h1m6 0h1m-8 1h1m6 0h1m-9 1h9m-9 1h1m8 0h1m-10 1h1m8 0h1m-10 1h1m8 0h1m-10 1h1m8 0h1m-10 1h1m8 0h1m-10 1h1m8 0h1"/><path stroke="#fff" d="M16 1h1m-4 1h1m2 0h1m2 0h1m-7 1h1m2 0h1m2 0h1m-7 1h1m2 0h1m2 0h1m-7 1h1m2 0h1m2 0h1m2 0h1M13 6h1m2 0h1m2 0h1m2 0h1M13 7h1m2 0h1m2 0h1m2 0h1M13 8h1m2 0h1m2 0h1m2 0h1M13 9h2m1 0h2m1 0h1m2 0h1M8 10h1m4 0h8m1 0h1M9 11h1m3 0h10M9 12h2m4 0h8m-13 1h4m2 0h7m-13 1h5m1 0h7m-12 1h4m1 0h6m-11 1h11m-11 1h11m-10 1h9m-9 1h9m-8 1h7m-6 1h6m-5 1h4m-4 1h4"/><path stroke="silver" d="M17 1h1m-4 1h1m2 0h1m2 0h1m-7 1h1m2 0h1m2 0h1m-7 1h1m2 0h1m2 0h1m-7 1h1m2 0h1m2 0h1m2 0h1M14 6h1m2 0h1m2 0h1m2 0h1M14 7h1m2 0h1m2 0h1m2 0h1M14 8h1m2 0h1m2 0h1m2 0h1m-4 1h1m2 0h1M9 10h1m13 0h1m-14 1h1m12 0h1m-13 1h1m2 0h1m8 0h1m-10 1h2m7 0h1m-9 1h1m7 0h1m-9 1h1m6 0h1m-1 1h1m-1 1h1m-2 1h1m-1 1h1m-2 1h1m-1 1h1m-2 1h1m-1 1h1"/><path stroke="gray" d="M13 12h1m9 3h1m-2 3h1m-2 2h1m-2 2h1m-1 1h1"/><path stroke="red" d="M14 25h5m-5 1h4m1 0h1m-6 1h5m-5 1h4m1 0h1m-6 1h5m-5 1h4m1 0h1"/><path stroke="maroon" d="M19 25h3m-4 1h1m1 0h2m-3 1h3m-4 1h1m1 0h2m-3 1h3m-4 1h1m1 0h2"/></svg>