<svg xmlns="http://www.w3.org/2000/svg" width="32" height="32" shape-rendering="crispEdges" viewBox="0 -0.5 32 32"><path stroke="#fff" d="M0 0h32M0 1h12m16 0h4M0 2h12m1 0h11m1 0h1m2 0h4M0 3h12m1 0h10m1 0h1m1 0h1m1 0h4M0 4h12m1 0h9m1 0h1m1 0h2m1 0h4M0 5h9m2 0h1m1 0h8m1 0h1m1 0h3m1 0h4M0 6h9m4 0h7m1 0h1m1 0h4m1 0h4M0 7h9m4 0h6m1 0h1m1 0h5m1 0h4M0 8h9m5 0h5m1 0h1m1 0h5m1 0h4M0 9h9m6 0h4m1 0h1m1 0h5m1 0h4M0 10h2m14 0h3m1 0h1m1 0h5m1 0h4M0 11h1m16 0h2m1 0h1m1 0h5m1 0h4M0 12h1m17 0h1m1 0h1m1 0h5m1 0h4M0 13h1m17 0h1m1 0h1m1 0h5m1 0h4M0 14h1m16 0h2m1 0h1m1 0h5m1 0h4M0 15h2m14 0h3m1 0h1m1 0h1m2 0h2m1 0h4M0 16h9m6 0h4m1 0h1m2 0h1m1 0h2m1 0h4M0 17h9m5 0h5m1 0h1m2 0h1m1 0h2m1 0h4M0 18h9m4 0h6m1 0h1m1 0h1m2 0h2m1 0h4M0 19h9m4 0h6m1 0h1m1 0h5m1 0h4M0 20h9m2 0h1m1 0h6m1 0h1m1 0h5m1 0h4M0 21h9m1 0h2m1 0h6m1 0h1m1 0h5m1 0h4M0 22h12m8 0h1m1 0h5m1 0h4M0 23h12m1 0h2m2 0h2m1 0h1m1 0h5m1 0h4M0 24h12m3 0h3m2 0h1m1 0h5m1 0h4m-19 1h3m2 0h1m1 0h1m1 0h5M1 26h3m2 0h3m2 0h3m2 0h3m1 0h1m1 0h4m1 0h2m2 0h1M0 27h2m2 0h3m2 0h3m2 0h3m3 0h1m1 0h3m1 0h1m2 0h3M2 28h3m2 0h3m2 0h3m2 0h2m1 0h1m1 0h2m3 0h3M1 29h2m2 0h3m2 0h3m2 0h3m2 0h1m1 0h1m2 0h3m2 0h1M3 30h3m2 0h3m2 0h3m2 0h1m1 0h1m2 0h3m2 0h2M6 31h3m2 0h3m2 0h3m3 0h2m2 0h2"/><path stroke="#000" d="M12 1h16M12 2h1m11 0h1m1 0h2M12 3h1m10 0h1m1 0h1m1 0h1M12 4h1m9 0h1m1 0h1m2 0h1M9 5h2m1 0h1m8 0h1m1 0h1m3 0h1M9 6h4m7 0h1m1 0h1m4 0h1M9 7h4m6 0h1m1 0h1m5 0h1M9 8h5m5 0h1m1 0h1m5 0h1M9 9h6m4 0h1m1 0h1m5 0h1M2 10h14m3 0h1m1 0h1m5 0h1M1 11h16m2 0h1m1 0h1m5 0h1M1 12h17m1 0h1m1 0h1m5 0h1M1 13h17m1 0h1m1 0h1m5 0h1M1 14h16m2 0h1m1 0h1m5 0h1M2 15h14m3 0h1m1 0h1m1 0h2m2 0h1M9 16h6m4 0h1m1 0h2m1 0h1m2 0h1M9 17h5m5 0h1m1 0h2m1 0h1m2 0h1M9 18h4m6 0h1m1 0h1m1 0h2m2 0h1M9 19h4m6 0h1m1 0h1m5 0h1M9 20h2m1 0h1m6 0h1m1 0h1m5 0h1M9 21h1m2 0h1m6 0h1m1 0h1m5 0h1m-16 1h8m1 0h1m5 0h1m-16 1h1m2 0h2m2 0h1m1 0h1m5 0h1m-16 1h3m3 0h2m1 0h1m5 0h1M0 25h13m3 0h2m1 0h1m1 0h1m5 0h5M0 26h1m3 0h2m3 0h2m3 0h2m3 0h1m1 0h1m4 0h1m2 0h2M2 27h2m3 0h2m3 0h2m3 0h3m1 0h1m3 0h1m1 0h2M0 28h2m3 0h2m3 0h2m3 0h2m2 0h1m1 0h1m2 0h3m3 0h2M3 29h2m3 0h2m3 0h2m3 0h2m1 0h1m1 0h2m3 0h2M2 30h1m3 0h2m3 0h2m3 0h2m1 0h1m1 0h2m3 0h2M4 31h2m3 0h2m3 0h2m3 0h3m2 0h2"/></svg>