<svg xmlns="http://www.w3.org/2000/svg" width="32" height="32" shape-rendering="crispEdges" viewBox="0 -0.5 32 32"><path stroke="#000" d="M15 1h2m-2 1h1m1 0h1m-3 1h1m2 0h1m-4 1h1m3 0h1m-5 1h1m4 0h1m-6 1h1m5 0h1m-7 1h1m6 0h1m-8 1h1m7 0h1M4 9h12m8 0h1M3 10h1m21 0h1M3 11h1m22 0h1M3 12h1m23 0h1M3 13h1m24 0h1M3 14h1m25 0h1M3 15h1m25 0h1M3 16h1m24 0h1M3 17h1m23 0h1M3 18h1m22 0h1M3 19h1m21 0h1M3 20h1m20 0h1M4 21h12m7 0h1m-9 1h1m6 0h1m-8 1h1m5 0h1m-7 1h1m4 0h1m-6 1h1m3 0h1m-5 1h1m2 0h1m-4 1h1m1 0h1m-3 1h2"/><path stroke="gray" d="M16 2h1m0 1h1m-1 1h2m-1 1h2m-1 1h2m-1 1h2m-1 1h2m-1 1h2m-1 1h2m-1 1h2m-1 1h2m-1 1h2m-1 1h2m-2 1h2m-3 1h2m-3 1h2m-3 1h2m-3 1h2M4 20h13m5 0h2m-3 1h2m-3 1h2m-3 1h2m-3 1h2m-3 1h2m-2 1h1m-2 1h1"/><path stroke="#fff" d="M16 3h1m-1 1h1m-1 1h1m-1 1h1m-1 1h1m-1 1h1m-1 1h1M4 10h13M4 11h1m-1 1h1m-1 1h1m-1 1h1m-1 1h1m-1 1h1m-1 1h1m-1 1h1m-1 1h1m11 2h1m-1 1h1m-1 1h1m-1 1h1m-1 1h1m-1 1h1"/><path stroke="silver" d="M17 5h1m-1 1h2m-2 1h3m-3 1h4m-4 1h5m-5 1h6M5 11h19M5 12h20M5 13h21M5 14h22M5 15h22M5 16h21M5 17h20M5 18h19M5 19h18m-6 1h5m-5 1h4m-4 1h3m-3 1h2m-2 1h1"/></svg>