<svg xmlns="http://www.w3.org/2000/svg" viewBox="0 -0.5 32 32" shape-rendering="crispEdges">
<path stroke="#000000" d="M0 0h1M14 0h18M3 1h2M12 1h2M23 1h1M27 1h1M2 2h1M5 2h2M10 2h2M23 2h1M27 2h1M1 3h9M12 3h3M23 3h1M27 3h1M2 4h2M9 4h3M13 4h1M15 4h1M21 4h3M27 4h1M4 5h10M15 5h1M19 5h2M22 5h2M27 5h1M6 6h2M13 6h2M17 6h2M22 6h1M26 6h1M8 7h6M16 7h1M23 7h4M10 8h3M15 8h1M17 8h2M27 8h3M12 9h9M30 9h2M14 10h2M21 10h3M16 11h5M24 11h1M18 12h3M24 12h1M0 13h21M24 13h1M0 14h24M0 15h24M0 16h24M0 17h24M0 18h24M0 19h24M0 20h24M0 21h24M30 21h2M0 22h24M28 22h2M0 23h28M0 24h24M27 24h1M0 25h14M23 25h1M27 25h1M0 26h12M23 26h1M27 26h1M0 27h11M13 27h2M23 27h1M27 27h1M0 28h14M20 28h4M27 28h1M7 29h2M19 29h1M22 29h1M26 29h1M9 30h2M18 30h1M23 30h9M11 31h7" />
<path stroke="#ffffff" d="M0 0h1M14 1h9M3 2h2M15 2h7M16 3h4M4 4h5M12 4h1M14 4h1M16 4h2M14 5h1M16 5h1M8 6h5M15 6h1M14 7h1M16 8h1M16 10h5M22 11h1M21 12h1M23 12h1M22 13h1M14 25h9M12 26h8M11 27h2M16 27h3M15 28h3M14 29h3" />
<path stroke="#00ffff" d="M0 0h1M24 1h1M28 1h4M24 2h1M28 2h1M24 3h1M28 3h1M24 4h1M28 4h1M24 5h1M28 5h1M23 6h1M27 6h1M27 7h1M30 22h2M28 23h2M24 24h3M28 24h1M24 25h1M28 25h1M24 26h1M28 26h1M24 27h1M28 27h1M24 28h1M28 28h1M23 29h1M27 29h1" />
<path stroke="#008080" d="M0 0h1M25 1h2M25 2h2M29 2h3M25 3h2M29 3h3M25 4h2M29 4h3M25 5h2M29 5h3M24 6h2M28 6h4M28 7h4M30 8h2M30 23h2M29 24h3M25 25h2M29 25h3M25 26h2M29 26h3M25 27h2M29 27h3M25 28h2M29 28h3M24 29h2M28 29h4" />
<path stroke="#c0c0c0" d="M0 0h1M12 2h3M22 2h1M10 3h2M15 3h1M20 3h1M18 4h1M17 5h1M16 6h1M15 7h1M13 8h2M20 26h3M15 27h1M19 27h1M14 28h1M18 28h1M9 29h5M17 29h1M11 30h6" />
<path stroke="#808080" d="M0 0h1M21 3h2M19 4h2M18 5h1M20 27h3M19 28h1M18 29h1M17 30h1" />
<path stroke="#ffff00" d="M0 0h1M21 11h1M23 11h1M22 12h1M21 13h1M23 13h1" />
</svg>