<svg xmlns="http://www.w3.org/2000/svg" width="32" height="32" shape-rendering="crispEdges" viewBox="0 -0.5 32 32"><path stroke="#000" d="M12 3h3m-4 1h1m3 0h2m-7 1h1m2 0h1m3 0h2M9 6h1m2 0h2m1 0h1m3 0h2M8 7h1m2 0h1m1 0h2m2 0h1m3 0h2M7 8h1m2 0h1m2 0h1m2 0h1m1 0h2m3 0h2M6 9h1m5 0h1m2 0h1m1 0h1m2 0h1m4 0h2M5 10h1m2 0h2m4 0h1m4 0h1m3 0h1m3 0h2M4 11h1m5 0h2m3 0h2m1 0h1m1 0h2m1 0h1m1 0h2m2 0h2M3 12h1m2 0h2m4 0h2m4 0h3m1 0h1m1 0h1m2 0h1m3 0h1M2 13h1m5 0h2m4 0h2m4 0h2m3 0h1m4 0h1M1 14h1m2 0h2m4 0h2m6 0h1m3 0h2m1 0h1m3 0h1m1 0h1M0 15h1m5 0h2m4 0h2m3 0h1m1 0h2m3 0h1m3 0h1m1 0h1M0 16h1m1 0h2m4 0h2m6 0h1m1 0h1m2 0h2m4 0h1m1 0h1m1 0h1M0 17h1m3 0h2m4 0h2m3 0h3m1 0h1m1 0h1m1 0h1m2 0h1m1 0h1m1 0h1M0 18h3m3 0h2m6 0h2m2 0h1m1 0h1m1 0h1m2 0h1m1 0h1m1 0h1m1 0h1M0 19h1m2 0h2m3 0h2m4 0h5m1 0h2m2 0h1m1 0h1m1 0h1m1 0h1M1 20h2m2 0h2m9 0h5m2 0h1m1 0h1m1 0h1m1 0h1M3 21h2m2 0h2m3 0h2m4 0h2m2 0h1m1 0h1m1 0h1m1 0h1M5 22h2m7 0h2m5 0h1m1 0h1m1 0h1m1 0h1M7 23h2m2 0h2m3 0h2m2 0h1m1 0h1m1 0h1m1 0h1M9 24h2m2 0h2m4 0h1m1 0h1m1 0h1m1 0h1m-15 1h2m2 0h2m1 0h1m1 0h1m1 0h1m1 0h1m-12 1h2m3 0h1m1 0h2m1 0h1m-9 1h2m1 0h1m3 0h1m-6 1h5"/><path stroke="#fff" d="M12 4h3m-4 1h2m1 0h3m-7 1h2m2 0h1m1 0h3M9 7h2m1 0h1m2 0h2m1 0h3M8 8h2m1 0h2m1 0h2m1 0h1m2 0h3M7 9h5m1 0h2m1 0h1m1 0h2m1 0h4M6 10h2m2 0h4m1 0h4m1 0h3m1 0h3M5 11h5m2 0h3m2 0h1m1 0h1m2 0h1m1 0h1m2 0h2M4 12h2m2 0h4m2 0h4m3 0h1m1 0h1m1 0h2m1 0h3M3 13h5m2 0h4m2 0h4m2 0h3m1 0h4m1 0h1M2 14h2m2 0h4m2 0h6m1 0h3m2 0h1m1 0h3m1 0h1M1 15h5m2 0h4m2 0h3m1 0h1m2 0h3m1 0h3m1 0h1m1 0h1M1 16h1m2 0h4m2 0h6m1 0h1m1 0h2m2 0h4m1 0h1m1 0h1M1 17h3m2 0h4m2 0h3m3 0h1m1 0h1m1 0h1m1 0h2m1 0h1m1 0h1m1 0h1M3 18h3m2 0h6m2 0h2m1 0h1m1 0h1m1 0h2m1 0h1m1 0h1m1 0h1M1 19h2m2 0h3m2 0h4m5 0h1m2 0h2m1 0h1m1 0h1m1 0h1M3 20h2m2 0h9m5 0h2m1 0h1m1 0h1m1 0h1M5 21h2m2 0h3m2 0h4m2 0h2m1 0h1m1 0h1m1 0h1M7 22h7m2 0h5m1 0h1m1 0h1m1 0h1M9 23h2m2 0h3m2 0h2m1 0h1m1 0h1m1 0h1m-15 1h2m2 0h4m1 0h1m1 0h1m1 0h1m-12 1h2m2 0h1m1 0h1m1 0h1m1 0h1m-9 1h3m1 0h1m2 0h1m-6 1h1m1 0h3"/></svg>