<svg xmlns="http://www.w3.org/2000/svg" viewBox="0 -0.5 32 32" shape-rendering="crispEdges">
<path stroke="#000000" d="M0 0h1M11 0h3M9 1h1M15 1h2M8 2h1M16 2h1M8 3h2M15 3h2M8 4h1M11 4h3M16 4h2M8 5h1M12 5h1M16 5h1M18 5h2M7 6h2M12 6h1M16 6h1M20 6h2M5 7h2M8 7h1M12 7h1M16 7h1M22 7h2M3 8h2M8 8h1M12 8h1M15 8h3M24 8h2M1 9h2M8 9h1M12 9h2M19 9h1M26 9h2M1 10h1M8 10h1M12 10h1M20 10h1M28 10h2M1 11h1M8 11h1M12 11h2M19 11h2M30 11h1M1 12h1M8 12h1M12 12h1M15 12h3M20 12h1M30 12h1M1 13h1M8 13h1M12 13h1M16 13h1M20 13h1M30 13h1M1 14h1M8 14h1M12 14h1M16 14h1M20 14h1M30 14h1M1 15h1M8 15h1M12 15h1M16 15h1M19 15h3M30 15h1M1 16h1M8 16h1M12 16h1M16 16h2M23 16h1M30 16h1M1 17h1M8 17h1M12 17h1M16 17h1M24 17h1M30 17h1M1 18h1M8 18h1M12 18h1M16 18h2M23 18h2M30 18h1M1 19h1M8 19h1M12 19h1M16 19h1M19 19h3M24 19h1M30 19h1M1 20h1M8 20h1M12 20h1M16 20h1M20 20h1M24 20h2M30 20h1M1 21h1M6 21h3M12 21h1M16 21h1M20 21h1M24 21h1M26 21h2M30 21h1M1 22h1M4 22h2M9 22h2M12 22h1M16 22h1M20 22h1M24 22h1M28 22h3M1 23h3M11 23h2M16 23h1M20 23h1M24 23h1M30 23h1M1 24h1M13 24h2M16 24h1M20 24h1M24 24h1M29 24h2M2 25h2M15 25h2M20 25h1M23 25h2M27 25h2M4 26h2M17 26h2M20 26h3M25 26h2M6 27h2M19 27h2M23 27h2M8 28h2M21 28h2M10 29h2M19 29h2M12 30h2M17 30h2M14 31h3" />
<path stroke="#808080" d="M0 0h1M14 0h1M10 1h1M14 1h1M10 3h1M14 3h1M14 9h1M18 9h1M14 11h1M18 11h1M25 21h1M25 22h3M25 23h3M25 24h1" />
<path stroke="#ffff00" d="M0 0h1M11 1h1M13 1h1M10 2h1M12 2h1M14 2h1M11 3h1M13 3h1M9 4h2M9 5h3M9 6h3M9 7h3M9 8h3M10 9h2M10 10h2M11 11h1M11 12h1" />
<path stroke="#ffffff" d="M0 0h1M12 1h1M9 2h1M11 2h1M13 2h1M15 2h1M12 3h1M20 7h2M20 8h4M16 9h1M22 9h4M13 10h1M15 10h1M17 10h1M19 10h1M24 10h4M16 11h1M24 11h6M24 12h6M24 13h6M24 14h6M26 15h4M28 16h2M28 17h2M28 18h2M28 19h2M28 20h2M28 21h2M7 22h1M4 23h1M6 23h1M8 23h1M10 23h1M28 23h2M3 24h1M5 24h1M7 24h1M9 24h1M11 24h1M27 24h1M4 25h1M6 25h1M8 25h1M10 25h1M12 25h1M14 25h1M26 25h1M7 26h1M9 26h1M11 26h1M13 26h1M15 26h1M23 26h1M8 27h1M10 27h1M12 27h1M14 27h1M16 27h1M18 27h1M22 27h1M11 28h1M13 28h1M15 28h1M17 28h1M19 28h1M12 29h1M14 29h1M16 29h1M18 29h1M15 30h1" />
<path stroke="#808000" d="M0 0h1M14 4h2M13 5h3M13 6h3M13 7h3M13 8h2M9 9h1M9 10h1M9 11h2M9 12h2M9 13h3M9 14h3M9 15h3M9 16h3M9 17h3M9 18h3M9 19h3M9 20h3M9 21h3M11 22h1" />
<path stroke="#c0c0c0" d="M0 0h1M17 5h1M17 6h3M7 7h1M17 7h3M5 8h3M18 8h2M3 9h5M20 9h2M2 10h6M21 10h3M2 11h6M21 11h3M2 12h6M21 12h3M2 13h6M21 13h3M2 14h6M21 14h3M2 15h6M22 15h4M2 16h6M24 16h4M2 17h6M25 17h3M2 18h6M25 18h3M2 19h6M25 19h3M2 20h6M26 20h2M2 21h4M2 22h2M6 22h1M8 22h1M5 23h1M7 23h1M9 23h1M2 24h1M4 24h1M6 24h1M8 24h1M10 24h1M12 24h1M26 24h1M28 24h1M5 25h1M7 25h1M9 25h1M11 25h1M13 25h1M25 25h1M6 26h1M8 26h1M10 26h1M12 26h1M14 26h1M16 26h1M24 26h1M9 27h1M11 27h1M13 27h1M15 27h1M17 27h1M21 27h1M10 28h1M12 28h1M14 28h1M16 28h1M18 28h1M20 28h1M13 29h1M15 29h1M17 29h1M14 30h1M16 30h1" />
<path stroke="#00ffff" d="M0 0h1M15 9h1M17 9h1M14 10h1M16 10h1M18 10h1M15 11h1M17 11h1M13 12h2M13 13h3M13 14h3M14 15h2M14 16h2M15 17h1M15 18h1" />
<path stroke="#008080" d="M0 0h1M18 12h2M17 13h3M17 14h3M13 15h1M17 15h2M13 16h1M13 17h2M13 18h2M13 19h3M13 20h3M13 21h3M13 22h3M13 23h3M15 24h1" />
<path stroke="#800080" d="M0 0h1M18 16h1M22 16h1M18 18h1M22 18h1M22 19h2M21 20h3M21 21h3M17 22h1M21 22h3M17 23h1M21 23h3M17 24h2M21 24h3M17 25h2M21 25h2M19 26h1" />
<path stroke="#ff00ff" d="M0 0h1M19 16h3M17 17h7M19 18h3M17 19h2M17 20h3M17 21h3M18 22h2M18 23h2M19 24h1M19 25h1" />
</svg>