<svg xmlns="http://www.w3.org/2000/svg" width="32" height="32" shape-rendering="crispEdges" viewBox="0 -0.5 32 32"><path stroke="#000" d="M1 6h29M0 7h1m29 0h1M0 8h1m1 0h1m24 0h1m1 0h2M0 9h1m28 0h2M0 10h1m28 0h2M0 11h1m28 0h2M0 12h1m4 0h3m3 0h9m3 0h3m3 0h2M0 13h1m3 0h1m1 0h1m1 0h1m2 0h1m4 0h1m2 0h1m2 0h1m1 0h1m1 0h1m2 0h2M0 14h1m3 0h2m1 0h2m2 0h1m4 0h1m2 0h1m2 0h2m1 0h2m2 0h2M0 15h1m3 0h1m1 0h1m1 0h1m2 0h1m4 0h1m2 0h1m2 0h1m1 0h1m1 0h1m2 0h2M0 16h1m4 0h3m3 0h9m3 0h3m3 0h2M0 17h1m28 0h2M0 18h1m28 0h2M0 19h1m28 0h2M0 20h1m6 0h16m6 0h2M0 21h1m5 0h1m7 0h1m8 0h1m5 0h2M0 22h1m5 0h1m3 0h1m7 0h1m4 0h1m5 0h2M0 23h1m1 0h1m2 0h1m2 0h1m11 0h1m3 0h1m4 0h2M0 24h1m4 0h20m4 0h2M0 25h1m1 0h4m3 0h3m2 0h3m2 0h3m2 0h7M1 26h29"/><path stroke="#fff" d="M1 7h29M1 8h1m1 0h24m1 0h1M1 9h28M1 10h28M1 11h28M1 12h4m3 0h3m9 0h3m3 0h3M1 13h3m1 0h1m1 0h1m1 0h2m1 0h4m1 0h2m1 0h2m1 0h1m1 0h1m1 0h2M1 14h3m2 0h1m2 0h2m1 0h4m1 0h2m1 0h2m2 0h1m2 0h2M1 15h3m1 0h1m1 0h1m1 0h2m1 0h4m1 0h2m1 0h2m1 0h1m1 0h1m1 0h2M1 16h4m3 0h3m9 0h3m3 0h3M1 17h28M1 18h28M1 19h28M1 20h6m16 0h6M1 21h5m1 0h7m1 0h8m1 0h5M1 22h5m1 0h3m1 0h7m1 0h4m1 0h5M1 23h1m1 0h2m1 0h2m1 0h11m1 0h3m1 0h4M1 24h4m20 0h4M1 25h1m4 0h3m3 0h2m3 0h2m3 0h2"/></svg>