<svg xmlns="http://www.w3.org/2000/svg" width="32" height="32" shape-rendering="crispEdges" viewBox="0 -0.5 32 32"><path stroke="#000" d="M11 0h3M9 1h1m5 0h2M8 2h1m7 0h1M8 3h2m5 0h2M8 4h1m2 0h3m2 0h2M8 5h1m3 0h1m3 0h1m1 0h2M7 6h2m3 0h1m3 0h1m3 0h2M5 7h2m1 0h1m3 0h1m3 0h1m5 0h2M3 8h2m3 0h1m3 0h1m2 0h3m6 0h2M1 9h2m5 0h1m3 0h2m5 0h1m6 0h2M1 10h1m6 0h1m3 0h1m7 0h1m7 0h2M1 11h1m6 0h1m3 0h2m5 0h2m9 0h1M1 12h1m6 0h1m3 0h1m2 0h3m2 0h1m9 0h1M1 13h1m6 0h1m3 0h1m3 0h1m3 0h1m9 0h1M1 14h1m6 0h1m3 0h1m3 0h1m3 0h1m9 0h1M1 15h1m6 0h1m3 0h1m3 0h1m2 0h3m8 0h1M1 16h1m6 0h1m3 0h1m3 0h2m5 0h1m6 0h1M1 17h1m6 0h1m3 0h1m3 0h1m7 0h1m5 0h1M1 18h1m6 0h1m3 0h1m3 0h2m5 0h2m5 0h1M1 19h1m6 0h1m3 0h1m3 0h1m2 0h3m2 0h1m5 0h1M1 20h1m6 0h1m3 0h1m3 0h1m3 0h1m3 0h2m4 0h1M1 21h1m4 0h3m3 0h1m3 0h1m3 0h1m3 0h1m1 0h2m2 0h1M1 22h1m2 0h2m3 0h2m1 0h1m3 0h1m3 0h1m3 0h1m3 0h3M1 23h3m7 0h2m3 0h1m3 0h1m3 0h1m5 0h1M1 24h1m11 0h2m1 0h1m3 0h1m3 0h1m4 0h2M2 25h2m11 0h2m3 0h1m2 0h2m2 0h2M4 26h2m11 0h2m1 0h3m2 0h2M6 27h2m11 0h2m2 0h2M8 28h2m11 0h2m-13 1h2m7 0h2m-9 1h2m3 0h2m-5 1h3"/><path stroke="gray" d="M14 0h1m-5 1h1m3 0h1m-5 2h1m3 0h1m-1 6h1m3 0h1m-5 2h1m3 0h1m6 10h1m-1 1h3m-3 1h3m-3 1h1"/><path stroke="#ff0" d="M11 1h1m1 0h1m-4 1h1m1 0h1m1 0h1m-4 1h1m1 0h1M9 4h2M9 5h3M9 6h3M9 7h3M9 8h3m-2 1h2m-2 1h2m-1 1h1m-1 1h1"/><path stroke="#fff" d="M12 1h1M9 2h1m1 0h1m1 0h1m1 0h1m-4 1h1m7 4h2m-2 1h4m-8 1h1m5 0h4m-13 1h1m1 0h1m1 0h1m1 0h1m4 0h4m-12 1h1m7 0h6m-6 1h6m-6 1h6m-6 1h6m-4 1h4m-2 1h2m-2 1h2m-2 1h2m-2 1h2m-2 1h2m-2 1h2M7 22h1m-4 1h1m1 0h1m1 0h1m1 0h1m17 0h2M3 24h1m1 0h1m1 0h1m1 0h1m1 0h1m15 0h1M4 25h1m1 0h1m1 0h1m1 0h1m1 0h1m1 0h1m11 0h1M7 26h1m1 0h1m1 0h1m1 0h1m1 0h1m7 0h1M8 27h1m1 0h1m1 0h1m1 0h1m1 0h1m1 0h1m3 0h1m-12 1h1m1 0h1m1 0h1m1 0h1m1 0h1m-8 1h1m1 0h1m1 0h1m1 0h1m-4 1h1"/><path stroke="olive" d="M14 4h2m-3 1h3m-3 1h3m-3 1h3m-3 1h2M9 9h1m-1 1h1m-1 1h2m-2 1h2m-2 1h3m-3 1h3m-3 1h3m-3 1h3m-3 1h3m-3 1h3m-3 1h3m-3 1h3m-3 1h3m-1 1h1"/><path stroke="silver" d="M17 5h1m-1 1h3M7 7h1m9 0h3M5 8h3m10 0h2M3 9h5m12 0h2M2 10h6m13 0h3M2 11h6m13 0h3M2 12h6m13 0h3M2 13h6m13 0h3M2 14h6m13 0h3M2 15h6m14 0h4M2 16h6m16 0h4M2 17h6m17 0h3M2 18h6m17 0h3M2 19h6m17 0h3M2 20h6m18 0h2M2 21h4m-4 1h2m2 0h1m1 0h1m-4 1h1m1 0h1m1 0h1m-8 1h1m1 0h1m1 0h1m1 0h1m1 0h1m1 0h1m13 0h1m1 0h1M5 25h1m1 0h1m1 0h1m1 0h1m1 0h1m11 0h1M6 26h1m1 0h1m1 0h1m1 0h1m1 0h1m1 0h1m7 0h1M9 27h1m1 0h1m1 0h1m1 0h1m1 0h1m3 0h1m-12 1h1m1 0h1m1 0h1m1 0h1m1 0h1m1 0h1m-8 1h1m1 0h1m1 0h1m-4 1h1m1 0h1"/><path stroke="#0ff" d="M15 9h1m1 0h1m-4 1h1m1 0h1m1 0h1m-4 1h1m1 0h1m-5 1h2m-2 1h3m-3 1h3m-2 1h2m-2 1h2m-1 1h1m-1 1h1"/><path stroke="teal" d="M18 12h2m-3 1h3m-3 1h3m-7 1h1m3 0h2m-6 1h1m-1 1h2m-2 1h2m-2 1h3m-3 1h3m-3 1h3m-3 1h3m-3 1h3m-1 1h1"/><path stroke="purple" d="M18 16h1m3 0h1m-5 2h1m3 0h1m-1 1h2m-3 1h3m-3 1h3m-7 1h1m3 0h3m-7 1h1m3 0h3m-7 1h2m2 0h3m-7 1h2m2 0h2m-4 1h1"/><path stroke="#f0f" d="M19 16h3m-5 1h7m-5 1h3m-5 1h2m-2 1h3m-3 1h3m-2 1h2m-2 1h2m-1 1h1m-1 1h1"/></svg>