<svg xmlns="http://www.w3.org/2000/svg" width="32" height="32" shape-rendering="crispEdges" viewBox="0 -0.5 32 32"><path stroke="#000" d="M15 0h3m-4 1h5m-6 1h3m1 0h3m-7 1h2m1 0h4m-7 1h2m1 0h4m-7 1h2m1 0h4m-7 1h2m1 0h4m-7 1h2m1 0h4m-7 1h2m1 0h4m-7 1h2m1 0h4m-7 1h2m1 0h4m-7 1h2m1 0h4m-7 1h2m1 0h4m-7 1h2m1 0h4m-7 1h2m1 0h4m-7 1h2m1 0h4m-7 1h2m1 0h4m-7 1h2m1 0h4m-7 1h7m-7 1h7m-7 1h7m-7 1h7m-6 1h5m-4 1h3m-3 2h3m-4 1h5m-6 1h2m2 0h3m-7 1h2m1 0h4m-7 1h7m-6 1h5m-4 1h3"/><path stroke="#fff" d="M16 2h1m-2 1h1m-1 1h1m-1 1h1m-1 1h1m-1 1h1m-1 1h1m-1 1h1m-1 1h1m-1 1h1m-1 1h1m-1 1h1m-1 1h1m-1 1h1m-1 1h1m-1 1h1m-1 10h2m-2 1h1"/></svg>