<svg xmlns="http://www.w3.org/2000/svg" width="32" height="32" shape-rendering="crispEdges" viewBox="0 -0.5 32 32"><path stroke="#fff" d="M0 0h32M0 1h12m16 0h4M0 2h12m17 0h3M0 3h12m18 0h2M0 4h12m18 0h2M0 5h9m2 0h1m18 0h2M0 6h9m21 0h2M0 7h9m21 0h2M0 8h9m21 0h2M0 9h9m21 0h2M0 10h2m9 0h1m18 0h2M0 11h1m11 0h1m17 0h2M0 12h1m3 0h10m16 0h2M0 13h1m29 0h2M0 14h1m29 0h2M0 15h2m28 0h2M0 16h3m20 0h1m6 0h2M0 17h4m26 0h2M0 18h9m21 0h2M0 19h9m21 0h2M0 20h9m21 0h2M0 21h9m21 0h2M0 22h10m1 0h1m18 0h2M0 23h12m1 0h2m2 0h2m11 0h2M0 24h12m3 0h3m12 0h2m-19 1h3m2 0h1M1 26h3m2 0h3m2 0h3m2 0h3m8 0h2m2 0h1M0 27h2m2 0h3m2 0h3m2 0h3m9 0h1m2 0h3M2 28h3m2 0h3m2 0h3m2 0h2m8 0h3M1 29h2m2 0h3m2 0h3m2 0h3m7 0h3m2 0h1M3 30h3m2 0h3m2 0h3m2 0h1m4 0h3m2 0h2M6 31h3m2 0h3m2 0h3m3 0h2m2 0h2"/><path stroke="#000" d="M12 1h16M12 2h1m11 0h1m2 0h1M12 3h1m10 0h1m3 0h1M12 4h1m9 0h1m4 0h1M9 5h2m1 0h1m8 0h1m5 0h1M9 6h1m1 0h2m7 0h1m6 0h1M9 7h1m2 0h1m6 0h1m7 0h1M9 8h1m3 0h1m5 0h1m7 0h1M9 9h1m4 0h1m4 0h1m7 0h1M2 10h8m5 0h1m3 0h1m7 0h1M1 11h1m14 0h1m2 0h1m7 0h1M1 12h1m15 0h1m1 0h1m7 0h1M1 13h1m15 0h1m1 0h1m7 0h1M1 14h1m14 0h1m2 0h1m7 0h1M2 15h8m5 0h1m3 0h1m3 0h2m2 0h1M9 16h1m4 0h1m4 0h1m2 0h1m1 0h1m2 0h1M9 17h1m3 0h1m5 0h1m2 0h1m1 0h1m2 0h1M9 18h1m2 0h1m6 0h1m3 0h2m2 0h1M9 19h1m1 0h2m6 0h1m7 0h1M9 20h2m1 0h1m6 0h1m7 0h1M9 21h1m2 0h1m6 0h1m7 0h1m-16 1h8m7 0h1m-16 1h1m6 0h1m7 0h1m-16 1h1m6 0h1m7 0h1M0 25h13m6 0h1m7 0h5m-13 1h1m6 0h1m-8 1h1m5 0h1m-7 1h1m4 0h1m-6 1h1m3 0h1m-5 1h1m2 0h1m-4 1h3"/><path stroke="gray" d="M13 2h11m4 0h1M13 3h10m5 0h1M13 4h9m6 0h1M13 5h8m7 0h1M13 6h7m8 0h1M13 7h6m9 0h1M14 8h5m9 0h1M15 9h4m9 0h1m-13 1h3m9 0h1m-12 1h2m9 0h1m-11 1h1m9 0h1m-11 1h1m9 0h1m-12 1h2m9 0h1m-13 1h3m9 0h1m-14 1h4m9 0h1m-15 1h5m4 0h1m4 0h1m-16 1h6m9 0h1m-16 1h6m9 0h1m-16 1h6m9 0h1m-16 1h6m9 0h1m-1 1h1m-1 1h1m-1 1h1"/><path stroke="#0ff" d="M25 2h2m-3 1h2m-3 1h2m-3 1h2m-3 1h2M10 7h1m9 0h2M10 8h2m8 0h2M10 9h3m7 0h2m-12 1h1m1 0h2m6 0h2M2 11h10m1 0h2m5 0h2M2 12h2m10 0h2m4 0h2M2 13h13m5 0h2m-12 1h4m6 0h2m-12 1h3m7 0h2m-12 1h2m8 0h2m-12 1h1m9 0h2m-2 1h2m-2 1h2m-2 1h2m-2 1h2m-2 1h2m-2 1h2m-2 1h2m-2 1h2m-2 1h2m-2 1h2m-2 1h2m-2 1h2m-2 1h2"/><path stroke="teal" d="M26 3h1m-2 1h2m-3 1h3M10 6h1m12 0h4M11 7h1m10 0h5M12 8h1m9 0h5M13 9h1m8 0h5m-13 1h1m7 0h5m-12 1h1m6 0h5m-11 1h1m5 0h5m-12 1h2m5 0h5M2 14h8m4 0h2m6 0h5m-14 1h2m7 0h1m2 0h2m-15 1h2m11 0h2m-16 1h2m12 0h2m-17 1h2m10 0h1m2 0h2m-17 1h1m11 0h5m-5 1h5m-5 1h5m-5 1h5m-5 1h5m-5 1h5m-5 1h5m-5 1h4m-4 1h3m-3 1h2m-2 1h1"/><path stroke="silver" d="M29 3h1m-1 1h1m-1 1h1m-1 1h1m-1 1h1m-1 1h1m-1 1h1m-1 1h1m-1 1h1m-1 1h1m-1 1h1m-1 1h1m-1 1h1M3 16h6m20 0h1M4 17h5m20 0h1m-1 1h1m-1 1h1m-19 1h1m17 0h1m-20 1h2m17 0h1m-20 1h1m18 0h1m-15 1h2m12 0h1m-17 1h2m3 0h1m10 0h1m-14 1h2M0 26h1m3 0h2m3 0h2m3 0h2m13 0h2M2 27h2m3 0h2m3 0h2m3 0h2m8 0h2M0 28h2m3 0h2m3 0h2m3 0h2m8 0h2m3 0h2M3 29h2m3 0h2m3 0h2m3 0h1m5 0h1m3 0h2M2 30h1m3 0h2m3 0h2m3 0h2m8 0h2M4 31h2m3 0h2m3 0h2m8 0h2"/></svg>