<svg xmlns="http://www.w3.org/2000/svg" width="32" height="32" shape-rendering="crispEdges" viewBox="0 -0.5 32 32"><path stroke="#000" d="M9 2h16M9 3h1m14 0h1M8 5h1m14 0h1M8 6h1m14 0h1M8 7h1m14 0h1M4 8h5m14 0h5M0 9h2m1 0h1m4 0h1m14 0h1m4 0h1m1 0h2M0 10h1m1 0h2m4 0h1m14 0h1m4 0h2m1 0h1M0 11h1m2 0h1m2 0h5m10 0h5m2 0h1m2 0h1M0 12h1m1 0h2m1 0h1m5 0h1m8 0h1m5 0h1m1 0h2m1 0h1M0 13h2m1 0h2m7 0h1m6 0h1m7 0h2m1 0h2M3 14h2m8 0h6m8 0h2M4 15h1m22 0h1M4 16h1m22 0h1M4 17h1m22 0h1M4 18h1m2 0h1m2 0h1m2 0h1m2 0h1m2 0h1m2 0h1m2 0h1m1 0h1M3 19h1m1 0h21m2 0h1M2 20h1m3 0h1m2 0h1m2 0h1m2 0h1m2 0h1m2 0h1m2 0h1m2 0h1m1 0h1M1 21h1m2 0h24m2 0h1M0 22h1m4 0h1m2 0h1m2 0h1m2 0h1m2 0h1m2 0h1m2 0h1m2 0h1m2 0h1m1 0h1M0 23h1m2 0h27m1 0h1M0 24h1m30 0h1M0 25h1m30 0h1M0 26h1m30 0h1M1 27h30M1 28h1m3 0h1m18 0h1m3 0h1M2 29h3m20 0h3"/><path stroke="#fff" d="M10 3h14M10 4h13M9 5h2m3 0h9M9 6h14M9 7h2m9 0h3M9 8h14M9 9h2m10 0h2M1 10h1m2 0h4m1 0h14m2 0h3m2 0h1M1 11h1m9 0h3m4 0h3m9 0h1M6 12h1m1 0h1m1 0h1m1 0h1m1 0h4m1 0h1m2 0h1m1 0h1M5 13h1m1 0h1m1 0h1m1 0h1m9 0h1m1 0h1m1 0h1M6 14h1m1 0h1m1 0h1m1 0h1m7 0h1m1 0h1m1 0h1M5 15h1m1 0h1m1 0h1m1 0h1m1 0h1m1 0h1m1 0h1m1 0h1m1 0h1m1 0h1m1 0h1M6 16h1m1 0h1m1 0h1m1 0h1m1 0h1m1 0h1m1 0h1m1 0h1m1 0h1m1 0h1M5 17h1m1 0h1m1 0h1m1 0h1m1 0h1m1 0h1m1 0h1m1 0h1m1 0h1m1 0h1m1 0h1M6 18h1m1 0h2m1 0h2m1 0h2m1 0h2m1 0h2m1 0h2M4 20h2m1 0h2m1 0h2m1 0h2m1 0h2m1 0h2m1 0h2m1 0h2M3 21h1m-2 1h3m1 0h2m1 0h2m1 0h2m1 0h2m1 0h2m1 0h2m1 0h2m1 0h2M1 23h1m0 1h1m1 0h1m1 0h1m1 0h1m1 0h1m1 0h1m1 0h1m1 0h1m1 0h1m1 0h1m1 0h1m1 0h1m1 0h1m1 0h1M1 25h1m1 0h1m1 0h1m1 0h1m1 0h1m1 0h1m1 0h1m1 0h1m1 0h1m1 0h1m1 0h1m1 0h1m1 0h1m1 0h1m1 0h1M2 28h1m22 0h1"/><path stroke="gray" d="M8 4h2m13 0h2m-1 5h1M2 11h1m1 0h2m8 0h4m8 0h2m1 0h1M1 12h1m2 0h1m8 0h1m4 0h1m8 0h1m2 0h1M3 28h2m21 0h2"/><path stroke="#00f" d="M11 5h3m-3 2h9m-9 2h10"/><path stroke="silver" d="M4 9h4m17 0h3m-4 1h1m-12 3h6"/><path stroke="#ff0" d="M7 12h1m1 0h1m11 0h1m1 0h1M6 13h1m1 0h1m1 0h1m9 0h1m1 0h1m1 0h1M5 14h1m1 0h1m1 0h1m1 0h1m7 0h1m1 0h1m1 0h1m1 0h1M6 15h1m1 0h1m1 0h1m1 0h1m1 0h1m1 0h1m1 0h1m1 0h1m1 0h1m1 0h1M5 16h1m1 0h1m1 0h1m1 0h1m1 0h1m1 0h1m1 0h1m1 0h1m1 0h1m1 0h1m1 0h1M6 17h1m1 0h1m1 0h1m1 0h1m1 0h1m1 0h1m1 0h1m1 0h1m1 0h1m1 0h1M5 18h1m-2 1h1m21 0h1M3 20h1m-2 1h1m25 0h1M1 22h1m0 1h1m-2 1h1m1 0h1m1 0h1m1 0h1m1 0h1m1 0h1m1 0h1m1 0h1m1 0h1m1 0h1m1 0h1m1 0h1m1 0h1m1 0h1m1 0h1M2 25h1m1 0h1m1 0h1m1 0h1m1 0h1m1 0h1m1 0h1m1 0h1m1 0h1m1 0h1m1 0h1m1 0h1m1 0h1m1 0h1"/><path stroke="olive" d="M25 12h1m0 1h1m-1 1h1m-1 1h1m-1 1h1m-1 1h1m-1 1h1m0 1h1m0 1h1m0 1h1m0 1h1m-1 1h1m-1 1h1m-1 1h1M1 26h30"/></svg>