<svg xmlns="http://www.w3.org/2000/svg" viewBox="0 -0.5 32 32" shape-rendering="crispEdges">
<path stroke="#000000" d="M0 0h1M16 1h1M15 2h1M12 3h2M15 3h1M12 4h1M14 4h2M10 5h2M13 5h1M10 6h1M12 6h2M8 7h2M11 7h1M20 7h4M8 8h1M10 8h2M21 8h1M23 8h1M8 9h1M19 9h2M23 9h1M1 10h2M4 10h13M20 10h1M23 10h1M1 11h1M3 11h1M7 11h1M16 11h1M18 11h2M22 11h1M2 12h1M8 12h8M19 12h1M22 12h1M27 12h3M2 13h1M9 13h1M17 13h2M21 13h1M25 13h1M29 13h1M2 14h1M10 14h1M18 14h1M21 14h1M24 14h1M29 14h1M2 15h1M11 15h1M16 15h2M20 15h1M23 15h1M28 15h1M2 16h1M12 16h1M17 16h1M20 16h1M22 16h1M25 16h1M27 16h1M2 17h1M13 17h1M15 17h2M19 17h1M21 17h1M24 17h1M26 17h1M3 18h1M14 18h1M16 18h1M19 18h2M23 18h1M25 18h1M4 19h1M15 19h1M19 19h1M24 19h1M5 20h1M16 20h1M18 20h1M23 20h1M6 21h1M17 21h2M22 21h5M7 22h1M18 22h1M21 22h2M27 22h1M8 23h1M19 23h3M28 23h1M9 24h1M19 24h1M21 24h1M28 24h1M10 25h1M19 25h3M28 25h1M11 26h1M19 26h1M21 26h1M28 26h1M12 27h1M19 27h1M22 27h1M27 27h1M13 28h1M18 28h1M23 28h4M14 29h4" />
<path stroke="#ffffff" d="M0 0h1M22 8h1M21 9h1M2 11h1M20 11h1M19 13h1M27 13h1M6 14h1M8 14h1M25 14h1M7 15h1M18 15h1M24 15h1M6 16h1M8 16h1M23 16h1M17 17h1M22 17h1M21 18h1M20 19h1M19 20h1M24 22h2M23 23h4M20 24h1M22 24h4M27 24h1M22 25h4M27 25h1M23 26h1M26 26h1M24 27h2" />
<path stroke="#c0c0c0" d="M0 0h1M22 9h1M21 10h1M8 11h8M21 11h1M20 12h1M20 13h1M28 13h1M19 14h1M26 14h3M3 15h1M19 15h1M25 15h3M4 16h1M18 16h1M24 16h1M26 16h1M5 17h1M18 17h1M23 17h1M25 17h1M6 18h1M17 18h1M22 18h1M24 18h1M7 19h1M17 19h1M21 19h3M8 20h1M20 20h3M9 21h1M19 21h3M10 22h1M19 22h2M23 22h1M26 22h1M11 23h1M22 23h1M27 23h1M12 24h1M26 24h1M13 25h1M26 25h1M14 26h1M22 26h1M24 26h2M27 26h1M15 27h2M23 27h1M26 27h1" />
<path stroke="#808080" d="M0 0h1M3 10h1M22 10h1M1 12h1M21 12h1M26 12h1M26 13h1M20 14h1M19 16h1M18 18h1M16 19h1M18 19h1M17 20h1" />
<path stroke="#ff0000" d="M0 0h1M4 11h3M3 12h5M3 13h6M3 14h3M7 14h1M9 14h1M4 15h3M8 15h3M3 16h1M5 16h1M7 16h1M9 16h3M3 17h2M6 17h7M4 18h2M7 18h7M5 19h2M8 19h7M6 20h2M9 20h7M7 21h2M10 21h7M8 22h2M11 22h7M9 23h2M12 23h7M10 24h2M13 24h6M11 25h2M14 25h5M12 26h2M15 26h3M13 27h2M14 28h2" />
<path stroke="#800000" d="M0 0h1M18 26h1M17 27h2M16 28h2" />
</svg>