<svg xmlns="http://www.w3.org/2000/svg" width="32" height="32" shape-rendering="crispEdges" viewBox="0 -0.5 32 32"><path stroke="#000" d="M4 0h25M4 1h1m1 0h1m1 0h1m1 0h1m1 0h1m1 0h1m1 0h1m1 0h1m1 0h1m1 0h1m1 0h1m1 0h1m1 0h1M4 2h2m1 0h1m1 0h1m1 0h1m1 0h1m1 0h3m1 0h1m1 0h1m1 0h1m1 0h1m1 0h2M4 3h3m1 0h1m1 0h1m1 0h1m1 0h2m1 0h2m1 0h1m1 0h1m1 0h1m1 0h3M4 4h4m1 0h1m1 0h1m1 0h1m1 0h3m1 0h1m1 0h1m1 0h1m1 0h4M4 5h1m1 0h3m1 0h1m1 0h1m1 0h1m1 0h1m1 0h1m1 0h1m1 0h1m1 0h5M4 6h2m1 0h19m1 0h2M4 7h1m1 0h1m1 0h17m1 0h3M4 8h2m1 0h1m1 0h1m1 0h1m1 0h1m1 0h3m1 0h1m1 0h1m1 0h1m1 0h1m1 0h2M4 9h1m1 0h1m1 0h1m1 0h1m1 0h1m1 0h2m1 0h2m1 0h1m1 0h1m1 0h1m1 0h3M4 10h2m1 0h1m1 0h1m1 0h1m1 0h1m1 0h3m1 0h1m1 0h1m1 0h1m1 0h1m1 0h2M4 11h1m1 0h1m1 0h1m1 0h1m1 0h1m1 0h1m1 0h1m1 0h1m1 0h1m1 0h1m1 0h1m1 0h3M4 12h2m1 0h1m1 0h1m1 0h1m1 0h1m1 0h3m1 0h1m1 0h1m1 0h1m1 0h1m1 0h2M4 13h1m1 0h1m1 0h1m1 0h1m1 0h1m1 0h1m1 0h1m1 0h1m1 0h1m1 0h1m1 0h1m1 0h3M4 14h2m1 0h1m1 0h1m1 0h1m1 0h1m1 0h3m1 0h1m1 0h1m1 0h1m1 0h1m1 0h2M4 15h1m1 0h1m1 0h1m1 0h1m1 0h1m1 0h1m1 0h1m1 0h1m1 0h1m1 0h1m1 0h1m1 0h3M4 16h2m1 0h1m1 0h1m1 0h1m1 0h1m1 0h3m1 0h1m1 0h1m1 0h1m1 0h1m1 0h2M4 17h1m1 0h1m1 0h1m1 0h1m1 0h1m1 0h1m1 0h1m1 0h1m1 0h1m1 0h1m1 0h1m1 0h3M4 18h2m1 0h1m1 0h1m1 0h1m1 0h1m1 0h3m1 0h1m1 0h1m1 0h1m1 0h1m1 0h2M4 19h1m1 0h1m1 0h1m1 0h1m1 0h1m1 0h1m1 0h1m1 0h1m1 0h1m1 0h1m1 0h1m1 0h3M4 20h2m1 0h1m1 0h1m1 0h1m1 0h1m1 0h3m1 0h1m1 0h1m1 0h1m1 0h1m1 0h2M4 21h1m1 0h1m1 0h1m1 0h1m1 0h1m1 0h1m1 0h1m1 0h1m1 0h1m1 0h1m1 0h1m1 0h3M4 22h2m1 0h1m1 0h1m1 0h1m1 0h1m1 0h3m1 0h1m1 0h1m1 0h1m1 0h1m1 0h2M4 23h1m1 0h1m1 0h1m1 0h1m1 0h1m1 0h1m1 0h1m1 0h1m1 0h1m1 0h1m1 0h1m1 0h3M4 24h2m1 0h1m1 0h1m1 0h1m1 0h1m1 0h3m1 0h1m1 0h1m1 0h1m1 0h1m1 0h2M4 25h1m1 0h1m1 0h1m1 0h1m1 0h1m1 0h1m1 0h1m1 0h1m1 0h1m1 0h1m1 0h1m1 0h3M4 26h2m1 0h1m1 0h1m1 0h1m1 0h1m1 0h3m1 0h1m1 0h1m1 0h1m1 0h1m1 0h2M4 27h1m1 0h23M4 28h2m1 0h1m1 0h1m1 0h1m1 0h1m1 0h1m1 0h1m1 0h1m1 0h1m1 0h1m1 0h1m1 0h2M4 29h1m1 0h1m1 0h1m1 0h1m1 0h1m1 0h1m1 0h1m1 0h1m1 0h1m1 0h1m1 0h1m1 0h3M4 30h25M4 31h25"/><path stroke="#fff" d="M5 1h1m1 0h1m1 0h1m1 0h1m1 0h1m1 0h1m1 0h1m1 0h1m1 0h1m1 0h1m1 0h1m1 0h1M6 2h1m1 0h1m1 0h1m1 0h1m1 0h1m3 0h1m1 0h1m1 0h1m1 0h1m1 0h1M7 3h1m1 0h1m1 0h1m1 0h1m2 0h1m2 0h1m1 0h1m1 0h1m1 0h1M8 4h1m1 0h1m1 0h1m1 0h1m3 0h1m1 0h1m1 0h1m1 0h1M5 5h1m3 0h1m1 0h1m1 0h1m1 0h1m1 0h1m1 0h1m1 0h1m1 0h1M6 6h1m19 0h1M5 7h1m1 0h1m17 0h1M6 8h1m1 0h1m1 0h1m1 0h1m1 0h1m3 0h1m1 0h1m1 0h1m1 0h1m1 0h1M5 9h1m1 0h1m1 0h1m1 0h1m1 0h1m2 0h1m2 0h1m1 0h1m1 0h1m1 0h1M6 10h1m1 0h1m1 0h1m1 0h1m1 0h1m3 0h1m1 0h1m1 0h1m1 0h1m1 0h1M5 11h1m1 0h1m1 0h1m1 0h1m1 0h1m1 0h1m1 0h1m1 0h1m1 0h1m1 0h1m1 0h1M6 12h1m1 0h1m1 0h1m1 0h1m1 0h1m3 0h1m1 0h1m1 0h1m1 0h1m1 0h1M5 13h1m1 0h1m1 0h1m1 0h1m1 0h1m1 0h1m1 0h1m1 0h1m1 0h1m1 0h1m1 0h1M6 14h1m1 0h1m1 0h1m1 0h1m1 0h1m3 0h1m1 0h1m1 0h1m1 0h1m1 0h1M5 15h1m1 0h1m1 0h1m1 0h1m1 0h1m1 0h1m1 0h1m1 0h1m1 0h1m1 0h1m1 0h1M6 16h1m1 0h1m1 0h1m1 0h1m1 0h1m3 0h1m1 0h1m1 0h1m1 0h1m1 0h1M5 17h1m1 0h1m1 0h1m1 0h1m1 0h1m1 0h1m1 0h1m1 0h1m1 0h1m1 0h1m1 0h1M6 18h1m1 0h1m1 0h1m1 0h1m1 0h1m3 0h1m1 0h1m1 0h1m1 0h1m1 0h1M5 19h1m1 0h1m1 0h1m1 0h1m1 0h1m1 0h1m1 0h1m1 0h1m1 0h1m1 0h1m1 0h1M6 20h1m1 0h1m1 0h1m1 0h1m1 0h1m3 0h1m1 0h1m1 0h1m1 0h1m1 0h1M5 21h1m1 0h1m1 0h1m1 0h1m1 0h1m1 0h1m1 0h1m1 0h1m1 0h1m1 0h1m1 0h1M6 22h1m1 0h1m1 0h1m1 0h1m1 0h1m3 0h1m1 0h1m1 0h1m1 0h1m1 0h1M5 23h1m1 0h1m1 0h1m1 0h1m1 0h1m1 0h1m1 0h1m1 0h1m1 0h1m1 0h1m1 0h1M6 24h1m1 0h1m1 0h1m1 0h1m1 0h1m3 0h1m1 0h1m1 0h1m1 0h1m1 0h1M5 25h1m1 0h1m1 0h1m1 0h1m1 0h1m1 0h1m1 0h1m1 0h1m1 0h1m1 0h1m1 0h1M6 26h1m1 0h1m1 0h1m1 0h1m1 0h1m3 0h1m1 0h1m1 0h1m1 0h1m1 0h1M5 27h1m0 1h1m1 0h1m1 0h1m1 0h1m1 0h1m1 0h1m1 0h1m1 0h1m1 0h1m1 0h1m1 0h1M5 29h1m1 0h1m1 0h1m1 0h1m1 0h1m1 0h1m1 0h1m1 0h1m1 0h1m1 0h1m1 0h1"/></svg>