<svg xmlns="http://www.w3.org/2000/svg" viewBox="0 -0.5 32 32" shape-rendering="crispEdges">
<path stroke="#000000" d="M0 0h1M9 2h6M7 3h2M15 3h3M6 4h1M18 4h3M5 5h1M12 5h2M21 5h2M4 6h1M11 6h1M14 6h1M23 6h2M4 7h2M11 7h1M15 7h1M25 7h2M4 8h1M6 8h2M9 8h3M15 8h1M19 8h2M27 8h1M4 9h1M8 9h1M15 9h1M18 9h1M21 9h1M28 9h1M5 10h1M7 10h1M16 10h3M22 10h1M29 10h1M6 11h1M18 11h1M22 11h1M30 11h1M5 12h1M11 12h1M22 12h1M31 12h1M4 13h1M13 13h1M22 13h1M31 13h1M3 14h1M9 14h1M15 14h1M22 14h1M31 14h1M2 15h1M11 15h1M22 15h1M31 15h1M1 16h1M7 16h1M13 16h1M22 16h2M31 16h1M0 17h1M9 17h1M22 17h1M30 17h2M0 18h1M11 18h1M22 18h1M27 18h3M31 18h1M0 19h1M23 19h1M31 19h1M0 20h1M23 20h2M30 20h1M0 21h1M24 21h6M0 22h2M25 22h2M2 23h2M23 23h2M4 24h2M21 24h2M6 25h2M19 25h2M8 26h2M17 26h2M10 27h2M15 27h2M12 28h3" />
<path stroke="#ffffff" d="M0 0h1M9 3h1M10 4h5M15 5h3M12 6h1M18 6h2M20 7h2M22 8h2M19 9h1M24 9h1M25 10h1M10 11h2M26 11h1M12 12h2M26 12h1M30 12h1M8 13h2M14 13h2M27 13h3M10 14h2M6 15h2M12 15h2M8 16h2M2 17h2M10 17h2M2 18h4M4 19h4M6 20h4M8 21h4M10 22h3M12 23h1" />
<path stroke="#ffff00" d="M0 0h1M10 3h5M7 4h3M15 4h3M6 5h4M14 5h1M18 5h3M5 6h4M13 6h1M15 6h3M20 6h3M6 7h2M12 7h1M16 7h4M22 7h3M5 8h1M12 8h1M17 8h2M24 8h3M5 9h2M10 9h3M20 9h1M23 9h1M25 9h3M9 10h7M19 10h1M24 10h1M26 10h3M8 11h2M13 11h5M19 11h1M24 11h2M27 11h3M7 12h3M15 12h5M24 12h2M27 12h3M6 13h2M11 13h1M17 13h5M24 13h3M5 14h3M13 14h1M16 14h5M24 14h3M4 15h2M9 15h1M15 15h5M24 15h3M3 16h3M11 16h1M14 16h5M24 16h3M4 17h4M13 17h5M25 17h2M6 18h4M12 18h5M24 18h1M2 19h2M8 19h8M24 19h3M2 20h4M10 20h5M25 20h2M2 21h6M12 21h2M4 22h6M6 23h6M8 24h5M10 25h3M12 26h1" />
<path stroke="#808000" d="M0 0h1M10 5h2M9 6h2M8 7h3M14 7h1M8 8h1M14 8h1M16 8h1M21 8h1M7 9h1M14 9h1M16 9h2M22 9h1M6 10h1M21 10h1M23 10h1M12 11h1M21 11h1M23 11h1M10 12h1M14 12h1M21 12h1M23 12h1M10 13h1M12 13h1M16 13h1M23 13h1M30 13h1M8 14h1M12 14h1M14 14h1M23 14h1M28 14h3M8 15h1M10 15h1M14 15h1M21 15h1M23 15h1M28 15h3M6 16h1M10 16h1M12 16h1M20 16h2M28 16h3M8 17h1M12 17h1M19 17h3M23 17h2M28 17h2M10 18h1M18 18h4M23 18h1M25 18h2M30 18h1M17 19h6M28 19h3M16 20h7M27 20h3M15 21h9M14 22h11M13 23h10M13 24h8M13 25h6M13 26h4M13 27h2" />
<path stroke="#c0c0c0" d="M0 0h1M13 7h1M13 8h1M9 9h1M13 9h1M8 10h1M20 10h1M7 11h1M20 11h1M6 12h1M20 12h1M5 13h1M4 14h1M21 14h1M27 14h1M3 15h1M20 15h1M27 15h1M2 16h1M19 16h1M27 16h1M1 17h1M18 17h1M27 17h1M1 18h1M17 18h1M1 19h1M16 19h1M27 19h1M1 20h1M15 20h1M1 21h1M14 21h1M2 22h2M13 22h1M4 23h2M6 24h2M8 25h2M10 26h2M12 27h1" />
</svg>