<svg xmlns="http://www.w3.org/2000/svg" width="32" height="32" shape-rendering="crispEdges" viewBox="0 -0.5 32 32"><path stroke="teal" d="M2 2h1M2 3h1M2 4h2M1 5h3M1 6h4M1 7h4M0 8h6M0 9h6m-6 1h6m-6 1h5m-5 1h4m2 0h3m-9 1h3m2 0h3m-7 1h1m2 0h3m-3 1h2m-3 1h2m-1 1h1"/><path stroke="#000" d="M3 2h1m21 0h1M3 3h1m21 0h1M4 4h1m19 0h1M4 5h1m19 0h1M5 6h1m17 0h1M5 7h1m17 0h1M6 8h1m15 0h1M6 9h1m15 0h1M6 10h2m13 0h1M5 11h1m2 0h1m13 0h2M4 12h1m4 0h1m11 0h1m2 0h1M3 13h1m4 0h2m11 0h2m2 0h1M0 14h1m1 0h1m4 0h1m2 0h11m2 0h1m2 0h1M1 15h2m3 0h1m7 0h1m9 0h1m2 0h1m3 0h1M2 16h1m2 0h1m7 0h1m11 0h1m2 0h1m1 0h1M3 17h1m1 0h1m6 0h1m3 0h2m8 0h1m1 0h2M4 18h2m7 0h3m2 0h1m6 0h3M6 19h1m12 0h1m4 0h1M7 20h1m1 0h2m1 0h2m6 0h5M7 21h2m2 0h1m2 0h2m8 0h1M7 22h1m2 0h1m2 0h1m2 0h1m2 0h5M8 23h2m2 0h1m2 0h1m1 0h1m4 0h1m-13 1h2m2 0h1m2 0h5m-10 1h2m2 0h1m2 0h1m-6 1h5"/><path stroke="silver" d="M26 2h1m0 1h1m-2 1h1m1 0h1m-4 1h1m1 0h1m-4 1h1m1 0h1m1 0h1m-4 1h1m1 0h1m1 0h1m-6 1h1m1 0h1m1 0h3m-8 1h1m1 0h1m1 0h3m-6 1h1m1 0h3m1 0h1m-6 1h3m1 0h1m1 0h1m-7 1h2m1 0h1m1 0h1m-4 1h1m1 0h1M8 14h2m18 0h1M7 15h2m-3 1h2m18 0h2M6 17h1m8 0h1m2 0h1m5 0h1M6 18h1m5 0h1m3 0h2m1 0h1m3 0h1m-6 1h1m1 0h4m-13 1h1m2 0h1m4 0h1m-8 1h1m3 0h1m3 0h2m-11 1h1m2 0h1m2 0h1m-8 1h1m2 0h1m2 0h1m1 0h2m-8 1h1m2 0h1m-2 1h1"/><path stroke="#fff" d="M26 3h1m-2 1h1m1 0h1m-2 1h1m1 0h1m-4 1h1m1 0h1m1 0h1m-6 1h1m1 0h1m1 0h1m-6 1h1m1 0h1m1 0h1m-4 1h1m1 0h1m-4 1h1m1 0h1m-2 1h1m-3 3h1M9 15h5m1 0h9M8 16h5m1 0h11M7 17h5m1 0h2m4 0h5M7 18h5m8 0h3M7 19h11M8 20h1m6 0h4M9 21h2m2 0h1m3 0h3M8 22h2m2 0h1m2 0h1m2 0h1m-8 1h1m2 0h1m-2 1h1m2 0h1m-2 1h1"/><path stroke="gray" d="M30 9h1m-9 1h1m6 0h1m-9 1h1m6 0h1m1 0h1m-4 1h1m1 0h1m1 0h1m-6 1h1m1 0h1m1 0h2m-11 1h1m5 0h1m1 0h3m-4 1h3m-2 1h1m-5 1h1m1 0h1m-4 1h1m-3 3h2m-4 2h2m-5 2h2M7 26h1m16 0h1M4 27h1m3 0h2m12 0h2m3 0h1M5 28h1m20 0h1M6 29h3m14 0h3"/><path stroke="#0ff" d="M6 11h2m-3 1h1m-2 1h1m-2 1h1m-1 1h1"/><path stroke="#ff0" d="M22 12h2m-1 1h2m-1 1h2m-1 1h2"/></svg>