<svg xmlns="http://www.w3.org/2000/svg" viewBox="0 -0.5 32 32" shape-rendering="crispEdges">
<path stroke="#000000" d="M0 0h1M12 3h3M11 4h1M15 4h2M10 5h1M13 5h1M17 5h2M9 6h1M12 6h2M15 6h1M19 6h2M8 7h1M11 7h1M13 7h2M17 7h1M21 7h2M7 8h1M10 8h1M13 8h1M16 8h1M19 8h1M23 8h2M6 9h1M12 9h1M15 9h1M17 9h1M20 9h1M25 9h2M5 10h1M9 10h1M14 10h1M19 10h1M27 10h2M4 11h1M11 11h1M16 11h1M18 11h1M23 11h1M25 11h1M29 11h2M3 12h1M7 12h1M13 12h1M18 12h3M22 12h1M24 12h1M27 12h1M31 12h1M2 13h1M9 13h1M15 13h1M20 13h2M25 13h1M30 13h1M1 14h1M5 14h1M11 14h1M18 14h1M22 14h1M25 14h1M29 14h1M31 14h1M0 15h1M7 15h1M13 15h1M17 15h1M19 15h2M24 15h1M28 15h1M30 15h1M0 16h1M3 16h1M9 16h1M16 16h1M21 16h2M27 16h1M29 16h1M31 16h1M0 17h1M5 17h1M11 17h1M15 17h1M23 17h1M26 17h1M28 17h1M30 17h1M0 18h1M2 18h1M7 18h1M14 18h1M22 18h1M25 18h1M27 18h1M29 18h1M31 18h1M0 19h1M4 19h1M9 19h1M14 19h2M21 19h1M24 19h1M26 19h1M28 19h1M30 19h1M1 20h2M16 20h2M20 20h1M23 20h1M25 20h1M27 20h1M29 20h1M3 21h2M8 21h1M13 21h1M18 21h2M22 21h1M24 21h1M26 21h1M28 21h1M5 22h2M10 22h1M15 22h1M21 22h1M23 22h1M25 22h1M27 22h1M7 23h2M17 23h1M20 23h1M22 23h1M24 23h1M26 23h1M9 24h2M14 24h1M19 24h1M21 24h1M23 24h1M25 24h1M11 25h2M16 25h1M18 25h1M20 25h1M22 25h1M24 25h1M13 26h2M18 26h1M20 26h2M23 26h1M15 27h2M18 27h1M22 27h1M17 28h5" />
<path stroke="#ffffff" d="M0 0h1M12 4h3M11 5h2M14 5h3M10 6h2M14 6h1M16 6h3M9 7h2M12 7h1M15 7h2M19 7h2M8 8h2M11 8h2M14 8h2M17 8h1M20 8h3M7 9h1M9 9h3M13 9h2M18 9h2M21 9h4M6 10h2M11 10h3M16 10h3M20 10h1M22 10h1M24 10h3M5 11h1M7 11h3M13 11h2M17 11h1M19 11h1M22 11h1M24 11h1M27 11h2M4 12h2M9 12h3M15 12h3M21 12h1M23 12h1M25 12h1M28 12h3M3 13h1M5 13h3M11 13h3M17 13h3M22 13h3M26 13h4M2 14h2M7 14h3M13 14h3M17 14h1M19 14h3M24 14h1M26 14h3M3 15h3M9 15h3M15 15h2M18 15h1M21 15h2M25 15h3M1 16h1M5 16h3M11 16h3M15 16h1M18 16h3M23 16h4M1 17h3M7 17h3M13 17h2M20 17h3M24 17h2M4 18h2M9 18h3M13 18h1M23 18h2M6 19h2M11 19h3M22 19h2M8 20h2M13 20h3M21 20h2M10 21h2M15 21h3M20 21h2M12 22h2M17 22h4M11 23h1M14 23h2M18 23h2M16 24h3M17 25h1" />
<path stroke="#808080" d="M0 0h1M18 7h1M18 8h1M8 10h1M10 10h1M15 10h1M21 10h1M23 10h1M10 11h1M20 11h2M26 11h1M6 12h1M8 12h1M14 12h1M26 12h1M8 13h1M14 13h1M16 13h1M4 14h1M6 14h1M12 14h1M23 14h1M1 15h1M6 15h1M12 15h1M14 15h1M23 15h1M2 16h1M4 16h1M10 16h1M4 17h1M10 17h1M12 17h1M3 18h1M8 18h1M15 18h3M1 19h1M5 19h1M8 19h1M10 19h1M16 19h4M3 20h1M7 20h1M10 20h1M18 20h2M5 21h1M9 21h1M14 21h1M7 22h1M11 22h1M14 22h1M16 22h1M9 23h1M13 23h1M16 23h1M11 24h1M13 24h1M15 24h1M13 25h1M15 26h1M17 27h1M19 27h1" />
<path stroke="#c0c0c0" d="M0 0h1M8 9h1M16 9h1M6 11h1M12 11h1M15 11h1M12 12h1M4 13h1M10 13h1M31 13h1M10 14h1M16 14h1M30 14h1M2 15h1M8 15h1M29 15h1M31 15h1M8 16h1M14 16h1M17 16h1M28 16h1M30 16h1M6 17h1M16 17h4M27 17h1M29 17h1M31 17h1M1 18h1M6 18h1M12 18h1M18 18h4M26 18h1M28 18h1M30 18h1M2 19h2M20 19h1M25 19h1M27 19h1M29 19h1M4 20h3M11 20h2M24 20h1M26 20h1M28 20h1M6 21h2M12 21h1M23 21h1M25 21h1M27 21h1M8 22h2M22 22h1M24 22h1M26 22h1M10 23h1M12 23h1M21 23h1M23 23h1M25 23h1M12 24h1M20 24h1M22 24h1M24 24h1M14 25h2M19 25h1M21 25h1M23 25h1M16 26h2M19 26h1M22 26h1M20 27h2" />
</svg>