<svg xmlns="http://www.w3.org/2000/svg" viewBox="0 -0.5 32 32" shape-rendering="crispEdges">
<path stroke="#000000" d="M0 0h1M1 3h30M1 4h1M30 4h1M1 5h1M30 5h1M1 6h30M1 7h1M30 7h1M1 8h1M30 8h1M1 9h1M6 9h3M15 9h3M26 9h1M30 9h1M1 10h1M5 10h1M8 10h1M14 10h1M17 10h1M26 10h1M30 10h1M1 11h1M4 11h6M13 11h1M16 11h2M26 11h1M30 11h1M1 12h1M4 12h1M9 12h1M14 12h2M17 12h1M27 12h1M30 12h1M1 13h1M5 13h5M15 13h3M22 13h6M30 13h1M1 14h1M30 14h1M1 15h1M4 15h6M13 15h6M22 15h6M30 15h1M1 16h1M30 16h1M1 17h1M30 17h1M1 18h1M8 18h1M14 18h1M17 18h2M23 18h3M30 18h1M1 19h1M13 19h1M16 19h1M18 19h1M22 19h1M26 19h1M30 19h1M1 20h1M13 20h1M15 20h1M17 20h1M22 20h1M26 20h1M30 20h1M1 21h1M6 21h1M8 21h1M14 21h1M16 21h1M22 21h1M26 21h1M30 21h1M1 22h1M14 22h2M23 22h3M30 22h1M1 23h1M30 23h1M1 24h1M4 24h6M13 24h6M22 24h6M30 24h1M1 25h1M30 25h1M1 26h1M30 26h1M1 27h30" />
<path stroke="#00ffff" d="M0 0h1M2 4h1M4 4h1M6 4h1M8 4h1M10 4h1M12 4h1M14 4h1M16 4h1M18 4h1M20 4h1M22 4h1M24 4h1M26 4h1M28 4h1M3 5h1M5 5h1M7 5h1M9 5h1M11 5h1M13 5h1M15 5h1M17 5h1M19 5h1M21 5h1M23 5h1M25 5h1M27 5h1M29 5h1M23 19h1M25 19h1M23 20h1M23 21h3" />
<path stroke="#c0c0c0" d="M0 0h1M3 4h1M5 4h1M7 4h1M9 4h1M11 4h1M13 4h1M15 4h1M17 4h1M19 4h1M21 4h1M23 4h1M25 4h1M27 4h1M29 4h1M2 5h1M4 5h1M6 5h1M8 5h1M10 5h1M12 5h1M14 5h1M16 5h1M18 5h1M20 5h1M22 5h1M24 5h1M26 5h1M28 5h1M5 12h4" />
<path stroke="#808080" d="M0 0h1M31 4h1M31 5h1M31 6h1M31 7h1M31 8h1M23 9h3M31 9h1M23 10h1M31 10h1M23 11h1M31 11h1M13 12h1M22 12h5M31 12h1M4 13h1M31 13h1M31 14h1M31 15h1M31 16h1M31 17h1M31 18h1M31 19h1M31 20h1M31 21h1M31 22h1M31 23h1M31 24h1M31 25h1M31 26h1M31 27h1M2 28h30" />
<path stroke="#ffffff" d="M0 0h1M2 7h28M2 8h28M2 9h4M9 9h6M18 9h5M27 9h3M2 10h3M6 10h2M9 10h5M18 10h5M27 10h3M2 11h2M10 11h3M18 11h5M27 11h3M2 12h2M10 12h3M16 12h1M18 12h4M28 12h2M2 13h2M10 13h5M18 13h4M28 13h2M2 14h28M2 15h2M10 15h3M19 15h3M28 15h2M2 16h28M2 17h28M2 18h6M9 18h5M15 18h2M19 18h4M26 18h4M2 19h5M9 19h4M14 19h2M19 19h3M27 19h3M2 20h4M7 20h1M9 20h4M14 20h1M18 20h4M27 20h3M2 21h3M9 21h5M17 21h5M27 21h3M2 22h2M6 22h2M10 22h4M16 22h7M26 22h4M2 23h28M2 24h2M10 24h3M19 24h3M28 24h2M2 25h28M2 26h28" />
<path stroke="#008080" d="M0 0h1M15 10h2M14 11h2" />
<path stroke="#0000ff" d="M0 0h1M24 10h2M24 11h2M24 19h1M24 20h2" />
<path stroke="#800080" d="M0 0h1M7 19h2M6 20h1M8 20h1M5 21h1M7 21h1M4 22h2M8 22h2" />
<path stroke="#ff0000" d="M0 0h1M17 19h1" />
<path stroke="#ffff00" d="M0 0h1M16 20h1M15 21h1" />
</svg>