<svg xmlns="http://www.w3.org/2000/svg" width="32" height="32" shape-rendering="crispEdges" viewBox="0 -0.5 32 32"><path stroke="#000" d="M9 2h6M7 3h2m6 0h3M6 4h1m11 0h3M5 5h1m6 0h2m7 0h2M4 6h1m6 0h1m2 0h1m8 0h2M4 7h2m4 0h2m2 0h2m9 0h1M4 8h1m1 0h2m1 0h3m2 0h2m3 0h2m5 0h2M4 9h1m3 0h1m5 0h5m2 0h1m6 0h1M5 10h1m1 0h1m8 0h3m2 0h2m6 0h1M6 11h1m5 0h1m5 0h1m2 0h2m7 0h1M5 12h1m4 0h2m2 0h1m6 0h2m8 0h1M4 13h1m5 0h1m1 0h2m2 0h1m4 0h2m8 0h1M3 14h1m4 0h2m2 0h1m1 0h2m6 0h1m8 0h1M2 15h1m5 0h1m1 0h2m2 0h1m6 0h2m8 0h1M1 16h1m4 0h2m2 0h1m1 0h2m6 0h1m1 0h2m6 0h2M0 17h3m5 0h2m2 0h1m6 0h1m1 0h2m1 0h1m4 0h1m1 0h1M0 18h1m2 0h2m5 0h2m6 0h1m1 0h1m1 0h1m2 0h4m2 0h1M0 19h1m4 0h2m10 0h1m1 0h1m1 0h3m7 0h1M0 20h1m6 0h2m7 0h1m1 0h1m1 0h1m1 0h3m5 0h1M0 21h1m8 0h2m4 0h1m1 0h1m1 0h1m1 0h1m1 0h7M0 22h2m9 0h2m1 0h1m1 0h1m1 0h1m1 0h1m1 0h1m1 0h3M2 23h2m9 0h1m1 0h1m1 0h1m1 0h1m1 0h1m1 0h2M4 24h2m7 0h2m1 0h1m1 0h1m1 0h3M6 25h2m5 0h1m1 0h1m1 0h1m1 0h2M8 26h2m3 0h2m1 0h3m-9 1h2m1 0h1m1 0h2m-5 1h3"/><path stroke="#fff" d="M9 3h6M7 4h11M6 5h6m2 0h7M5 6h6m1 0h2m1 0h8M6 7h4m2 0h2m2 0h9M5 8h1m2 0h1m3 0h2m2 0h3m2 0h5M5 9h3m1 0h5m5 0h2m1 0h6M6 10h1m1 0h8m3 0h2m2 0h6M7 11h5m1 0h5m1 0h2m2 0h7M6 12h4m2 0h2m1 0h6m2 0h8M5 13h5m1 0h1m2 0h2m1 0h4m2 0h8M4 14h4m2 0h2m1 0h1m2 0h6m1 0h8M3 15h5m1 0h1m2 0h2m1 0h6m2 0h8M2 16h4m2 0h2m1 0h1m2 0h6m1 0h1m2 0h6M3 17h5m2 0h2m1 0h6m1 0h1m2 0h1m1 0h4m1 0h1M1 18h2m2 0h5m2 0h6m1 0h1m1 0h1m1 0h2m4 0h2M1 19h4m2 0h10m1 0h1m1 0h1m3 0h7M1 20h6m2 0h7m1 0h1m1 0h1m1 0h1m3 0h5M1 21h8m2 0h4m1 0h1m1 0h1m1 0h1m1 0h1M2 22h9m2 0h1m1 0h1m1 0h1m1 0h1m1 0h1m1 0h1M4 23h9m1 0h1m1 0h1m1 0h1m1 0h1m1 0h1M6 24h7m2 0h1m1 0h1m1 0h1M8 25h5m1 0h1m1 0h1m1 0h1m-9 1h3m2 0h1m-4 1h1m1 0h1"/></svg>