<svg xmlns="http://www.w3.org/2000/svg" width="32" height="32" shape-rendering="crispEdges" viewBox="0 -0.5 32 32"><path stroke="#000" d="M1 0h5m6 0h3m2 0h3m6 0h5M1 1h1m4 0h1m3 0h2m3 0h2m3 0h2m3 0h1m4 0h1M1 2h1m1 0h3m1 0h3m2 0h3m2 0h3m2 0h3m1 0h3m1 0h1M1 3h1m1 0h1m1 0h1m4 0h2m3 0h2m3 0h2m4 0h1m1 0h1m1 0h1M1 4h1m1 0h2m1 0h4m12 0h4m1 0h2m1 0h1M2 5h1m2 0h22m2 0h1M3 6h1m1 0h2m6 0h1m1 0h1m1 0h1m1 0h1m6 0h1m1 0h1M3 7h1m1 0h2m5 0h7m1 0h1m5 0h1m1 0h1M3 8h1m1 0h2m4 0h2m5 0h4m4 0h1m1 0h1M2 9h1m1 0h1m1 0h1m4 0h1m7 0h1m1 0h1m5 0h1m1 0h1M2 10h1m1 0h1m1 0h1m3 0h2m7 0h2m1 0h1m4 0h1m1 0h1M1 11h1m1 0h1m2 0h1m3 0h3m3 0h1m2 0h1m1 0h2m5 0h1m1 0h1M1 12h1m1 0h1m2 0h1m3 0h2m1 0h1m1 0h1m1 0h4m1 0h1m5 0h1m1 0h1M1 13h1m1 0h1m2 0h1m3 0h2m2 0h1m4 0h1m1 0h2m5 0h1m1 0h1M2 14h1m1 0h1m1 0h1m2 0h3m2 0h1m4 0h2m1 0h1m4 0h1m1 0h1M2 15h1m1 0h1m1 0h1m2 0h1m1 0h1m2 0h2m3 0h1m1 0h2m4 0h1m1 0h1M2 16h1m1 0h1m1 0h1m2 0h3m4 0h1m2 0h2m1 0h1m4 0h1m1 0h1M2 17h1m1 0h1m1 0h1m2 0h1m1 0h2m1 0h2m3 0h1m1 0h2m4 0h1m1 0h1M1 18h1m1 0h1m2 0h1m2 0h2m1 0h2m3 0h4m1 0h1m5 0h1m1 0h1M1 19h1m1 0h1m2 0h1m2 0h1m1 0h1m1 0h4m2 0h1m1 0h2m5 0h1m1 0h1M1 20h1m1 0h1m2 0h1m2 0h2m1 0h1m1 0h1m4 0h2m1 0h1m5 0h1m1 0h1M2 21h1m1 0h1m1 0h1m2 0h1m1 0h1m1 0h2m4 0h1m1 0h1m1 0h1m3 0h1m1 0h1M2 22h1m1 0h1m1 0h1m2 0h5m5 0h2m1 0h2m3 0h1m1 0h1M3 23h1m1 0h2m2 0h1m1 0h1m6 0h2m1 0h1m1 0h1m2 0h1m1 0h1M3 24h1m1 0h2m1 0h1m1 0h1m1 0h1m5 0h1m1 0h1m1 0h1m1 0h1m1 0h1m1 0h1M3 25h1m1 0h2m1 0h2m1 0h1m1 0h5m1 0h1m1 0h1m1 0h2m1 0h1m1 0h1M2 26h1m2 0h2m1 0h1m1 0h1m1 0h1m1 0h1m1 0h1m1 0h1m1 0h1m1 0h1m1 0h1m1 0h1m2 0h1M1 27h1m1 0h2m1 0h4m12 0h4m1 0h2m1 0h1M1 28h1m1 0h1m1 0h1m4 0h2m3 0h2m3 0h2m4 0h1m1 0h1m1 0h1M1 29h1m1 0h3m1 0h3m2 0h3m2 0h3m2 0h3m1 0h3m1 0h1M1 30h1m4 0h1m3 0h2m3 0h2m3 0h2m3 0h1m4 0h1M1 31h5m6 0h3m2 0h3m6 0h5"/><path stroke="#ff0" d="M2 1h4m6 0h3m2 0h3m6 0h4M2 2h1m3 0h1m3 0h2m3 0h2m3 0h2m3 0h1m3 0h1M2 3h1m1 0h1m1 0h4m12 0h4m1 0h1m1 0h1M2 4h1m2 0h1m23 0h1M3 5h2m22 0h2M4 6h1m22 0h1M4 7h1m22 0h1M4 8h1m22 0h1M3 9h1m16 0h1m7 0h1M3 10h1m24 0h1M2 11h1m26 0h1M2 12h1m26 0h1M2 13h1m26 0h1M3 14h1m24 0h1M3 15h1m24 0h1M3 16h1m24 0h1M3 17h1m24 0h1M2 18h1m26 0h1M2 19h1m26 0h1M2 20h1m26 0h1M3 21h1m24 0h1M3 22h1m24 0h1M4 23h1m22 0h1M4 24h1m22 0h1M4 25h1m22 0h1M3 26h2m22 0h2M2 27h1m26 0h1M2 28h1m1 0h1m1 0h4m12 0h4m1 0h1m1 0h1M2 29h1m3 0h1m3 0h2m3 0h2m3 0h2m3 0h1m3 0h1M2 30h4m6 0h3m2 0h3m6 0h4"/><path stroke="olive" d="M12 3h3m2 0h3M10 4h12m4 0h1M5 9h1m20 0h1M5 10h1m20 0h1M4 11h2m20 0h2M4 12h2m20 0h2M4 13h2m20 0h2M5 14h1m20 0h1M5 15h1m20 0h1M5 16h1m20 0h1M5 17h1m20 0h1M4 18h2m20 0h2M4 19h2m20 0h2M4 20h2m20 0h2M5 21h1m20 0h1M5 22h1m20 0h1M5 27h1m4 0h12m4 0h1m-15 1h3m2 0h3"/><path stroke="#0ff" d="M7 6h1m1 0h3m8 0h2m1 0h1M7 7h2m2 0h1M9 8h1m13 0h2M8 9h2m14 0h1M7 10h1m1 0h1m13 0h1M8 11h2m14 0h1m-1 1h1"/><path stroke="silver" d="M8 6h1m3 0h1m9 0h1m1 0h2M9 7h2m10 0h5M7 8h2m1 0h1m2 0h5m4 0h1m2 0h1M7 9h1m2 0h1m1 0h1m5 0h1m4 0h1m1 0h1M8 10h1m3 0h1m3 0h1m1 0h1m5 0h2M7 11h1m7 0h1m1 0h2m4 0h1m1 0h1M7 12h3m2 0h1m1 0h1m1 0h1m6 0h1m1 0h1M7 13h3m5 0h1m7 0h3M7 14h2m6 0h1m2 0h1m4 0h3M7 15h2m7 0h1m1 0h1m4 0h3M7 16h2m3 0h1m1 0h2m7 0h3M8 17h1m4 0h1m3 0h2m5 0h1M7 18h1m6 0h3m6 0h1m1 0h1M8 19h1m15 0h1M7 20h1m7 0h2m6 0h1m1 0h1M8 21h1m6 0h3m6 0h1M7 22h1m17 0h1M8 23h1m15 0h1M7 24h1m17 0h1M7 26h1m17 0h1"/><path stroke="gray" d="M14 6h1m1 0h1m1 0h1m0 1h1m2 2h1m-2 1h1m-2 1h1m0 1h1m-2 1h1m0 1h1m-12 1h1m9 0h1m0 1h1m-12 1h1m9 0h1m-10 1h1m9 0h1m-12 1h1m1 0h1m4 0h2m1 0h1m-10 1h1m1 0h1m3 0h2m2 0h1m-12 1h1m1 0h1m5 0h1m1 0h1m1 0h1m-5 1h1m2 0h1m-12 1h1m9 0h1m1 0h1M9 24h1m1 0h1m2 0h1m4 0h1m1 0h1m1 0h1M7 25h1m2 0h1m1 0h1m5 0h1m1 0h1m1 0h1M9 26h1m1 0h1m1 0h1m1 0h1m1 0h1m1 0h1m1 0h1m1 0h1"/><path stroke="#fff" d="M13 9h5m-5 1h3m1 0h1m-5 1h2m-3 2h2m2 0h3m-7 1h2m2 0h2m-6 1h2m3 0h1m-5 1h1m3 0h2m-3 1h1m-3 5h4m-6 1h6m-5 1h1m1 0h3"/><path stroke="#0f0" d="M7 17h1m15 0h1m1 0h1M8 18h1m15 0h1M7 19h1m15 0h1m1 0h1M8 20h1m15 0h1M7 21h1m17 0h1M8 22h1m15 0h1M7 23h1m17 0h1m-1 2h1"/></svg>