<svg xmlns="http://www.w3.org/2000/svg" width="32" height="32" shape-rendering="crispEdges" viewBox="0 -0.5 32 32"><path stroke="#000" d="M8 0h5M6 1h2m5 0h2M5 2h1m9 0h2M5 3h1m11 0h2M4 4h1m14 0h2M4 5h1m16 0h2M3 6h1m19 0h2M3 7h1m21 0h2M3 8h1m19 0h3m1 0h1M3 9h1m18 0h1m1 0h1m1 0h1m1 0h1M3 10h1m2 0h2m13 0h1m1 0h1m1 0h1m1 0h2M3 11h1m2 0h4m11 0h2m1 0h3m1 0h2M3 12h1m2 0h6m8 0h2m1 0h2m2 0h1m1 0h1M3 13h1m2 0h8m6 0h1m1 0h1m1 0h1m3 0h2M3 14h1m2 0h4m2 0h4m4 0h2m1 0h1m1 0h2m1 0h2M3 15h1m2 0h4m4 0h4m2 0h1m1 0h1m1 0h2m1 0h3M3 16h2m3 0h2m6 0h2m2 0h2m1 0h1m1 0h3m1 0h1M5 17h2m13 0h1m1 0h1m1 0h1m1 0h1m1 0h2M7 18h2m11 0h2m1 0h1m1 0h1m1 0h1m1 0h1M9 19h2m9 0h1m1 0h1m1 0h1m1 0h1m1 0h2m-20 1h3m7 0h2m1 0h1m1 0h1m1 0h3m-20 1h1m2 0h2m5 0h1m1 0h1m1 0h1m1 0h2m-18 1h1m3 0h3m3 0h2m1 0h3m-16 1h1m3 0h2m1 0h2m1 0h1m1 0h2m-14 1h1m3 0h1m1 0h1m1 0h4m-12 1h1m3 0h2m1 0h2m-9 1h1m3 0h1m1 0h1m1 0h1m-9 1h1m3 0h2m1 0h2m-9 1h1m3 0h1m1 0h1m1 0h1m-9 1h1m3 0h2m1 0h2m-5 1h1m1 0h1m1 0h1m-5 1h2"/><path stroke="#fff" d="M8 1h5M6 2h9M6 3h11M5 4h14M5 5h16M4 6h19M4 7h21M4 8h19m3 0h1M4 9h18m1 0h1m1 0h1m1 0h1M4 10h2m2 0h13m1 0h1m1 0h1m1 0h1M4 11h2m4 0h11m2 0h1m3 0h1M4 12h2m6 0h8m2 0h1m2 0h2m1 0h1M4 13h2m8 0h6m1 0h1m1 0h1m1 0h3M4 14h2m4 0h2m4 0h4m2 0h1m1 0h1m2 0h1M4 15h2m4 0h4m4 0h2m1 0h1m1 0h1m2 0h1M5 16h3m2 0h6m2 0h2m2 0h1m1 0h1m3 0h1M7 17h13m1 0h1m1 0h1m1 0h1m1 0h1M9 18h11m2 0h1m1 0h1m1 0h1m1 0h1m-18 1h9m1 0h1m1 0h1m1 0h1m1 0h1m-15 1h7m2 0h1m1 0h1m1 0h1m-16 1h2m2 0h5m1 0h1m1 0h1m1 0h1m-15 1h3m3 0h3m2 0h1m-12 1h3m2 0h1m2 0h1m1 0h1m-11 1h3m1 0h1m1 0h1m-7 1h3m2 0h1m-6 1h3m1 0h1m1 0h1m-7 1h3m2 0h1m-6 1h3m1 0h1m1 0h1m-7 1h3m2 0h1m-5 1h2m1 0h1m1 0h1m-2 1h1"/></svg>