<svg xmlns="http://www.w3.org/2000/svg" width="32" height="32" shape-rendering="crispEdges" viewBox="0 -0.5 32 32"><path stroke="#000" d="M9 2h6M7 3h2m6 0h3M6 4h1m11 0h3M5 5h1m6 0h2m7 0h2M4 6h1m6 0h1m2 0h1m8 0h2M4 7h2m5 0h1m3 0h1m9 0h2M4 8h1m1 0h2m1 0h3m3 0h1m3 0h2m6 0h1M4 9h1m3 0h1m6 0h1m2 0h1m2 0h1m6 0h1M5 10h1m1 0h1m8 0h3m3 0h1m6 0h1M6 11h1m11 0h1m3 0h1m7 0h1M5 12h1m5 0h1m10 0h1m8 0h1M4 13h1m8 0h1m8 0h1m8 0h1M3 14h1m5 0h1m5 0h1m6 0h1m8 0h1M2 15h1m8 0h1m10 0h1m8 0h1M1 16h1m5 0h1m5 0h1m8 0h2m7 0h1M0 17h1m8 0h1m12 0h1m7 0h2M0 18h1m10 0h1m10 0h1m4 0h3m1 0h1M0 19h1m22 0h1m7 0h1M0 20h1m22 0h2m5 0h1M0 21h1m23 0h6M0 22h2m23 0h2M2 23h2m19 0h2M4 24h2m15 0h2M6 25h2m11 0h2M8 26h2m7 0h2m-9 1h2m3 0h2m-5 1h3"/><path stroke="#fff" d="M9 3h1m0 1h5m0 1h3m-6 1h1m5 0h2m0 1h2m0 1h2m-5 1h1m4 0h1m0 1h1m-16 1h2m14 0h1m-15 1h2m12 0h1m3 0h1M8 13h2m4 0h2m11 0h3m-20 1h2m-6 1h2m4 0h2m-6 1h2m-8 1h2m6 0h2M2 18h4m-2 1h4m-2 1h4m-2 1h4m-2 1h3m-1 1h1"/><path stroke="#ff0" d="M10 3h5M7 4h3m5 0h3M6 5h4m4 0h1m3 0h3M5 6h4m4 0h1m1 0h3m2 0h3M6 7h2m4 0h1m3 0h4m2 0h3M5 8h1m6 0h1m4 0h2m5 0h3M5 9h2m3 0h3m7 0h1m2 0h1m1 0h3M9 10h7m3 0h1m4 0h1m1 0h3M8 11h2m3 0h5m1 0h1m4 0h2m1 0h3M7 12h3m5 0h5m4 0h2m1 0h3M6 13h2m3 0h1m5 0h5m2 0h3M5 14h3m5 0h1m2 0h5m3 0h3M4 15h2m3 0h1m5 0h5m4 0h3M3 16h3m5 0h1m2 0h5m5 0h3M4 17h4m5 0h5m7 0h2M6 18h4m2 0h5m7 0h1M2 19h2m4 0h8m8 0h3M2 20h4m4 0h5m10 0h2M2 21h6m4 0h2M4 22h6m-4 1h6m-4 1h5m-3 1h3m-1 1h1"/><path stroke="olive" d="M10 5h2M9 6h2M8 7h3m3 0h1M8 8h1m5 0h1m1 0h1m4 0h1M7 9h1m6 0h1m1 0h2m4 0h1M6 10h1m14 0h1m1 0h1m-12 1h1m8 0h1m1 0h1m-14 1h1m3 0h1m6 0h1m1 0h1m-14 1h1m1 0h1m3 0h1m6 0h1m6 0h1M8 14h1m3 0h1m1 0h1m8 0h1m4 0h3M8 15h1m1 0h1m3 0h1m6 0h1m1 0h1m4 0h3M6 16h1m3 0h1m1 0h1m7 0h2m6 0h3M8 17h1m3 0h1m6 0h3m1 0h2m3 0h2m-20 1h1m7 0h4m1 0h1m1 0h2m3 0h1m-14 1h6m5 0h3m-15 1h7m4 0h3m-15 1h9m-10 1h11m-12 1h10m-10 1h8m-8 1h6m-6 1h4m-4 1h2"/><path stroke="silver" d="M13 7h1m-1 1h1M9 9h1m3 0h1m-6 1h1m11 0h1M7 11h1m12 0h1M6 12h1m13 0h1M5 13h1m-2 1h1m16 0h1m5 0h1M3 15h1m16 0h1m6 0h1M2 16h1m16 0h1m7 0h1M1 17h1m16 0h1m8 0h1M1 18h1m15 0h1M1 19h1m14 0h1m10 0h1M1 20h1m13 0h1M1 21h1m12 0h1M2 22h2m9 0h1M4 23h2m0 1h2m0 1h2m0 1h2m0 1h1"/></svg>