<svg xmlns="http://www.w3.org/2000/svg" viewBox="0 -0.5 32 32" shape-rendering="crispEdges">
<path stroke="#000000" d="M0 0h1M7 0h12M4 1h3M10 1h1M19 1h3M2 2h2M11 2h4M22 2h2M1 3h1M24 3h1M0 4h1M3 4h1M10 4h1M17 4h1M25 4h1M0 5h1M4 5h4M11 5h4M18 5h4M25 5h1M0 6h1M25 6h1M1 7h1M10 7h1M24 7h1M2 8h2M11 8h4M22 8h2M2 9h1M4 9h2M20 9h2M23 9h3M2 10h3M6 10h14M21 10h7M2 11h1M5 11h3M9 11h2M12 11h2M15 11h2M18 11h3M23 11h1M25 11h1M27 11h3M1 12h2M5 12h1M8 12h10M20 12h1M23 12h1M26 12h3M30 12h1M0 13h1M2 13h1M5 13h1M8 13h1M12 13h1M16 13h1M20 13h1M23 13h1M26 13h1M29 13h3M0 14h1M2 14h2M5 14h1M8 14h1M12 14h1M16 14h1M20 14h1M22 14h2M26 14h1M30 14h2M0 15h1M2 15h1M4 15h3M8 15h1M12 15h1M16 15h1M19 15h3M23 15h1M26 15h1M31 15h1M0 16h1M3 16h2M6 16h14M21 16h2M24 16h3M30 16h2M1 17h1M5 17h3M9 17h2M12 17h2M15 17h2M18 17h3M24 17h4M29 17h1M31 17h1M2 18h2M8 18h10M22 18h2M26 18h6M4 19h3M19 19h3M25 19h2M28 19h2M31 19h1M7 20h12M23 20h2M26 20h3M31 20h1M22 21h4M28 21h1M31 21h1M22 22h1M24 22h1M28 22h1M31 22h1M22 23h3M28 23h1M30 23h2M22 24h2M25 24h1M27 24h3M31 24h1M22 25h1M24 25h3M28 25h3M22 26h1M25 26h4M22 27h1M25 27h2M22 28h2M25 28h1M22 29h4M23 30h1M25 30h1M24 31h2" />
<path stroke="#ffffff" d="M0 0h1M7 1h1M15 1h1M4 2h1M2 3h1M4 3h4M11 3h4M18 3h4M1 4h1M8 4h1M15 4h1M22 4h1M1 5h1M2 6h2M11 6h4M22 6h1M4 7h3M15 7h1M20 7h2M7 8h3M15 8h5M2 17h2M4 18h3M7 19h11" />
<path stroke="#c0c0c0" d="M0 0h1M8 1h2M16 1h2M5 2h5M15 2h6M3 3h1M8 3h3M15 3h3M22 3h1M2 4h1M9 4h1M16 4h1M23 4h1M2 5h1M8 5h2M15 5h2M22 5h2M1 6h1M4 6h7M15 6h7M2 7h2M7 7h3M16 7h4M4 8h3M3 9h1M7 9h12M5 10h1M8 11h1M11 11h1M14 11h1M26 11h1M29 12h1M1 15h1M3 15h1M1 16h1M5 16h1M8 17h1M11 17h1M14 17h1M22 17h2M30 17h1M19 18h3M18 19h1M27 19h1M25 20h1M23 22h1M24 24h1M30 24h1M27 25h1M24 30h1" />
<path stroke="#808080" d="M0 0h1M11 1h4M18 1h1M10 2h1M21 2h1M23 3h1M4 4h4M11 4h4M18 4h4M24 4h1M3 5h1M10 5h1M17 5h1M24 5h1M23 6h2M11 7h4M22 7h2M10 8h1M20 8h2M6 9h1M19 9h1M22 9h1M20 10h1M17 11h1M1 13h1M1 14h1M22 15h1M2 16h1M20 16h1M23 16h1M4 17h1M17 17h1M21 17h1M7 18h1M18 18h1" />
<path stroke="#00ffff" d="M0 0h1M3 11h1M3 12h1M6 12h1M6 13h1M10 13h1M14 13h1M28 13h1M10 14h1M14 14h1M28 14h1M28 15h1M29 20h1M26 21h1M29 21h1M26 22h1M26 23h1M23 25h1M23 26h1" />
<path stroke="#008080" d="M0 0h1M4 11h1M21 11h2M24 11h1M4 12h1M7 12h1M18 12h2M21 12h2M24 12h2M3 13h2M7 13h1M9 13h1M11 13h1M13 13h1M15 13h1M17 13h3M21 13h2M24 13h2M27 13h1M4 14h1M6 14h2M9 14h1M11 14h1M13 14h1M15 14h1M17 14h3M21 14h1M24 14h2M27 14h1M29 14h1M7 15h1M9 15h3M13 15h3M17 15h2M24 15h2M27 15h1M29 15h2M27 16h3M28 17h1M30 19h1M30 20h1M27 21h1M30 21h1M25 22h1M27 22h1M29 22h2M25 23h1M27 23h1M29 23h1M26 24h1M24 26h1M23 27h2M24 28h1" />
</svg>