<svg xmlns="http://www.w3.org/2000/svg" width="32" height="32" shape-rendering="crispEdges" viewBox="0 -0.5 32 32"><path stroke="#000" d="M15 0h3m-4 1h1m3 0h1m-6 1h1m5 0h1m-7 1h1m5 0h1m-7 1h1m5 0h1m-7 1h1m5 0h1m-7 1h1m5 0h1m-7 1h1m5 0h1m-7 1h1m5 0h1m-7 1h1m5 0h1m-7 1h1m5 0h1m-7 1h1m5 0h1m-7 1h1m5 0h1m-7 1h1m5 0h1m-7 1h1m5 0h1m-7 1h1m5 0h1m-7 1h1m5 0h1m-7 1h1m5 0h1m-7 1h1m5 0h1m-7 1h1m5 0h1m-7 1h1m5 0h1m-7 1h1m5 0h1m-6 1h1m3 0h1m-4 1h3m-3 2h3m-4 1h1m3 0h1m-6 1h1m5 0h1m-7 1h1m5 0h1m-7 1h1m5 0h1m-6 1h1m3 0h1m-4 1h3"/><path stroke="#f0f" d="M15 1h2m-3 1h2m1 0h1m-4 1h1m1 0h2m-4 1h1m1 0h2m-4 1h1m1 0h2m-4 1h1m1 0h2m-4 1h1m1 0h2m-4 1h1m1 0h2m-4 1h1m1 0h2m-4 1h1m1 0h2m-4 1h1m1 0h2m-4 1h1m1 0h2m-4 1h1m1 0h2m-4 1h1m1 0h2m-4 1h1m1 0h2m-4 1h1m1 0h2m-4 1h1m1 0h2m-4 1h4m-4 1h4m-4 1h4m-3 1h3m-3 5h2m-3 1h1m2 0h1m-4 1h1m1 0h2m-3 1h3"/><path stroke="purple" d="M17 1h1m0 1h1m-1 1h1m-1 1h1m-1 1h1m-1 1h1m-1 1h1m-1 1h1m-1 1h1m-1 1h1m-1 1h1m-1 1h1m-1 1h1m-1 1h1m-1 1h1m-1 1h1m-1 1h1m-1 1h1m-1 1h1m-1 1h1m-5 1h1m3 0h1m-4 1h3m-1 4h1m0 1h1m-1 1h1m-5 1h1m3 0h1m-4 1h3"/><path stroke="silver" d="M16 2h1m-2 1h1m-1 14h1m0 10h1m-2 1h1"/><path stroke="#fff" d="M15 4h1m-1 1h1m-1 1h1m-1 1h1m-1 1h1m-1 1h1m-1 1h1m-1 1h1m-1 1h1m-1 1h1m-1 1h1m-1 1h1m-1 1h1m-1 11h1"/></svg>