<svg xmlns="http://www.w3.org/2000/svg" width="32" height="32" shape-rendering="crispEdges" viewBox="0 -0.5 32 32"><path stroke="#000" d="M7 0h12M4 1h3m3 0h4m5 0h3M2 2h2m7 0h4m7 0h2M1 3h1m22 0h1M0 4h1m2 0h4m3 0h4m3 0h4m4 0h1M0 5h1m3 0h4m3 0h4m3 0h4m3 0h1M0 6h1m24 0h1M1 7h1m8 0h4m10 0h1M2 8h2m7 0h4m7 0h2M2 9h1m1 0h2m14 0h2m1 0h3M2 10h3m1 0h14m1 0h7M2 11h1m2 0h3m1 0h2m1 0h2m1 0h2m1 0h3m2 0h1m1 0h1m1 0h3M1 12h2m2 0h1m2 0h10m2 0h1m2 0h1m2 0h3m1 0h1M0 13h1m1 0h1m2 0h1m2 0h1m3 0h1m3 0h1m3 0h1m2 0h1m2 0h1m2 0h3M0 14h1m1 0h2m1 0h1m2 0h1m3 0h1m3 0h1m3 0h1m1 0h2m2 0h1m3 0h2M0 15h1m1 0h1m1 0h3m1 0h1m3 0h1m3 0h1m2 0h3m1 0h1m2 0h1m4 0h1M0 16h1m2 0h2m1 0h14m1 0h2m1 0h3m3 0h2M1 17h1m3 0h3m1 0h2m1 0h2m1 0h2m1 0h3m3 0h4m1 0h1m1 0h1M2 18h2m4 0h10m4 0h2m2 0h6M4 19h3m12 0h3m3 0h2m1 0h2m1 0h1M7 20h12m4 0h2m1 0h3m2 0h1m-10 1h4m2 0h1m2 0h1m-10 1h1m1 0h1m3 0h1m2 0h1m-10 1h3m3 0h1m1 0h2m-10 1h2m1 0h1m1 0h3m1 0h1m-10 1h1m1 0h3m1 0h3m-9 1h1m2 0h4m-7 1h1m2 0h2m-5 1h2m1 0h1m-4 1h4m-3 1h1m1 0h1m-2 1h2"/><path stroke="#fff" d="M7 1h3m4 0h5M4 2h7m4 0h7M2 3h22M1 4h2m4 0h3m4 0h3m4 0h4M1 5h3m4 0h3m4 0h3m4 0h3M1 6h24M2 7h8m4 0h10M4 8h7m4 0h7M3 9h1m2 0h14m2 0h1M5 10h1m14 0h1M3 11h2m3 0h1m2 0h1m2 0h1m2 0h1m3 0h2m1 0h1m1 0h1M3 12h2m1 0h2m10 0h2m1 0h2m1 0h2m3 0h1M1 13h1m1 0h2m1 0h2m1 0h3m1 0h3m1 0h3m1 0h2m1 0h2m1 0h2M1 14h1m2 0h1m1 0h2m1 0h3m1 0h3m1 0h3m1 0h1m2 0h2m1 0h3M1 15h1m1 0h1m3 0h1m1 0h3m1 0h3m1 0h2m3 0h1m1 0h2m1 0h4M1 16h2m2 0h1m14 0h1m2 0h1m3 0h3M2 17h3m3 0h1m2 0h1m2 0h1m2 0h1m3 0h3m4 0h1m1 0h1M4 18h4m10 0h4M7 19h12m8 0h1m2 0h1m-6 1h1m3 0h2m-5 1h2m1 0h2m-8 1h1m1 0h3m1 0h2m-6 1h3m1 0h1m-6 1h1m1 0h1m3 0h1m-8 1h1m3 0h1m-5 1h2m-2 1h2m-1 1h1m-1 2h1"/></svg>