<svg xmlns="http://www.w3.org/2000/svg" width="32" height="32" shape-rendering="crispEdges" viewBox="0 -0.5 32 32"><path stroke="#000" d="M10 0h1m0 1h2m-2 1h1m1 0h1m-3 1h1m2 0h1M3 4h5m3 0h1m2 0h1m6 0h4M2 5h2m1 0h1m1 0h2m2 0h1m3 0h1m4 0h1m4 0h1M1 6h1m1 0h3m1 0h2m2 0h1m3 0h1m3 0h1m2 0h2m2 0h1M1 7h2m3 0h1m1 0h1m2 0h1m3 0h1m3 0h1m1 0h1m2 0h1m1 0h1M1 8h1m1 0h3m2 0h1m3 0h3m4 0h1m1 0h1m2 0h1m1 0h1M2 9h1m5 0h1m3 0h1m1 0h1m4 0h1m1 0h1m1 0h1m1 0h1m1 0h3M2 10h1m5 0h1m3 0h1m1 0h1m4 0h1m1 0h2m1 0h1m1 0h1m3 0h1M3 11h1m3 0h2m3 0h1m1 0h1m5 0h1m2 0h1m1 0h1m1 0h2m2 0h1M3 12h4m2 0h1m2 0h3m5 0h1m1 0h1m1 0h1m1 0h1m2 0h1m1 0h1M4 13h1m4 0h1m2 0h1m1 0h1m5 0h1m1 0h2m1 0h1m3 0h1m1 0h1M4 14h1m4 0h1m2 0h1m1 0h1m4 0h1m5 0h4m2 0h1M4 15h1m5 0h3m1 0h5m1 0h1m1 0h3m5 0h1M5 16h1m4 0h1m1 0h1m1 0h1m2 0h1m3 0h2m2 0h5M5 17h1m4 0h1m1 0h1m1 0h1m1 0h1m2 0h2M4 18h2m5 0h2m1 0h2m2 0h1m1 0h2M4 19h1m1 0h2m3 0h2m1 0h1m2 0h3m1 0h1M4 20h2m2 0h10m2 0h2M5 21h3m10 0h3M5 22h1m2 0h10m2 0h1M5 23h1m14 0h1M5 24h1m14 0h1M5 25h1m14 0h1M5 26h1m14 0h1M5 27h1m14 0h1M5 28h1m14 0h1M5 29h1m14 0h1M6 30h2m10 0h2M8 31h10"/><path stroke="#00f" d="M12 2h1m-1 1h2m-2 1h2m-2 1h1m1 0h1"/><path stroke="#ff0" d="M4 5h1M2 6h1m0 1h1M3 9h2m-1 1h1m-1 1h2m-1 2h1m-1 1h1m0 1h1m-1 1h1m-1 1h1m0 1h1"/><path stroke="olive" d="M6 5h1M6 6h1M4 7h2m1 0h1M2 8h1m3 0h2M6 9h2m-5 1h1m3 0h1m-1 2h2m-2 1h2m-1 1h1m-4 1h1m2 0h2m-2 1h2m-1 1h1m-4 1h1m2 0h2m-3 1h3"/><path stroke="#fff" d="M13 5h1m-1 6h1m-8 9h1m2 1h1m1 0h1m1 0h1m1 0h1m1 0h1m-9 4h1m-1 1h1m-1 1h2m-1 1h1"/><path stroke="gray" d="M21 5h1m2 0h1M14 6h1m5 0h1m4 0h1M13 7h2m-2 2h1m6 1h1m8 0h1m0 1h1m-1 3h1m-6 1h1m3 0h1m-11 3h1"/><path stroke="silver" d="M22 5h2M12 6h2m7 0h1m2 0h1M12 7h1m7 0h1m4 0h1m-6 1h1m4 0h1M5 9h1m14 0h1m3 0h1M5 10h2m6 0h1m9 0h1m3 0h2M6 11h1m14 0h2m3 0h1m2 0h1m-9 1h1m3 0h1m4 0h1M6 13h1m14 0h1m2 0h1m5 0h1M6 14h2m12 0h5m4 0h1M7 15h1m11 0h1m1 0h1m4 0h3M7 16h1m10 0h3M7 17h2m8 0h2M8 18h1m7 0h2m-3 1h2M7 24h1m-1 1h1m9 0h1M7 26h1m9 0h1M7 27h1m9 0h1M7 28h1m1 0h1m7 0h1M7 29h1m9 0h1M8 30h9"/><path stroke="red" d="M13 13h1m-1 1h1m-1 1h1m-1 1h1m-1 1h1m-1 1h1m-1 1h1"/><path stroke="#0ff" d="M11 16h1m3 0h1m-9 4h1m10 0h1M8 21h1m1 0h1m1 0h1m1 0h1m1 0h1m-9 3h8m-8 1h1m1 0h7m-9 1h1m1 0h7m-9 1h1m2 0h6m-9 1h1m2 0h6m-9 1h9"/><path stroke="teal" d="M16 16h1m-6 1h1m3 0h1M5 19h1m14 0h1m-2 1h1M6 22h2m10 0h2M6 23h14M6 24h1m9 0h4M6 25h1m11 0h2M6 26h1m11 0h2M6 27h1m11 0h2M6 28h1m11 0h2M6 29h1m11 0h2m-3 1h1"/></svg>