<svg xmlns="http://www.w3.org/2000/svg" width="32" height="32" shape-rendering="crispEdges" viewBox="0 -0.5 32 32"><path stroke="#000" d="M11 9h8M7 10h4m8 0h1M4 11h3m2 0h1m10 0h1m3 0h7M1 12h3m4 0h1m3 0h2m7 0h10M0 13h1m6 0h1m3 0h1m2 0h1m9 0h7M0 14h1m3 0h7m3 0h2m8 0h7M1 15h3m4 0h1m3 0h2m2 0h1m7 0h7M9 16h3m3 0h2m7 0h7M9 17h1m3 0h2m2 0h1m6 0h7m-21 1h3m3 0h2m3 0h10m-21 1h1m3 0h2m3 0h2m3 0h7m-20 1h8m6 0h6"/><path stroke="#fff" d="M11 10h8M7 11h2m1 0h10M4 12h4m1 0h3m2 0h7M1 13h6m1 0h3m1 0h2m1 0h9M1 14h3m7 0h3m2 0h8M9 15h3m2 0h2m1 0h7m-12 1h3m2 0h7m-14 1h3m2 0h2m1 0h6m-11 1h3m2 0h3m-10 1h3m2 0h3"/></svg>