<svg xmlns="http://www.w3.org/2000/svg" width="32" height="32" shape-rendering="crispEdges" viewBox="0 -0.5 32 32"><path stroke="#000" d="M13 9h8m-9 1h1m8 0h4M1 11h7m3 0h1m10 0h1m2 0h3M1 12h10m7 0h2m3 0h1m4 0h3M1 13h7m9 0h1m2 0h1m3 0h1m6 0h1M1 14h7m8 0h2m3 0h7m3 0h1M1 15h7m7 0h1m2 0h2m3 0h1m4 0h3M1 16h7m7 0h2m3 0h3M1 17h7m6 0h1m2 0h2m3 0h1M1 18h10m3 0h2m3 0h3M1 19h7m3 0h2m3 0h2m3 0h1M1 20h6m6 0h8"/><path stroke="#fff" d="M13 10h8m-9 1h10m1 0h2m-14 1h7m2 0h3m1 0h4M8 13h9m1 0h2m1 0h3m1 0h6M8 14h8m2 0h3m7 0h3M8 15h7m1 0h2m2 0h3M8 16h7m2 0h3M8 17h6m1 0h2m2 0h3m-11 1h3m2 0h3m-6 1h3m2 0h3"/></svg>