<svg xmlns="http://www.w3.org/2000/svg" width="32" height="32" shape-rendering="crispEdges" viewBox="0 -0.5 32 32"><path stroke="#fff" d="M0 0h1m5 0h6m3 0h2m3 0h6m5 0h1M0 1h1m1 0h4m1 0h3m2 0h3m2 0h3m2 0h3m1 0h4m1 0h1M0 2h1m1 0h1m3 0h1m3 0h2m3 0h2m3 0h2m3 0h1m3 0h1m1 0h1M0 3h1m1 0h1m1 0h1m1 0h4m12 0h4m1 0h1m1 0h1m1 0h1M0 4h1m1 0h1m2 0h1m23 0h1m1 0h1M0 5h2m1 0h2m22 0h2m1 0h2M0 6h3m1 0h1m2 0h6m7 0h6m1 0h1m1 0h3M0 7h3m1 0h1m2 0h5m9 0h5m1 0h1m1 0h3M0 8h3m1 0h1m2 0h4m2 0h5m4 0h4m1 0h1m1 0h3M0 9h2m1 0h1m3 0h4m1 0h7m1 0h1m2 0h3m2 0h1m1 0h2M0 10h2m1 0h1m3 0h3m2 0h7m4 0h3m2 0h1m1 0h2M0 11h1m1 0h1m4 0h3m3 0h3m1 0h2m4 0h3m3 0h1m1 0h1M0 12h1m1 0h1m4 0h3m2 0h1m1 0h1m1 0h1m6 0h3m3 0h1m1 0h1M0 13h1m1 0h1m4 0h3m2 0h2m1 0h4m4 0h3m3 0h1m1 0h1M0 14h2m1 0h1m3 0h2m3 0h2m1 0h4m4 0h3m2 0h1m1 0h2M0 15h2m1 0h1m3 0h2m3 0h2m2 0h3m4 0h3m2 0h1m1 0h2M0 16h2m1 0h1m3 0h2m3 0h4m1 0h2m4 0h3m2 0h1m1 0h2M0 17h2m1 0h1m4 0h1m4 0h1m2 0h3m5 0h1m3 0h1m1 0h2M0 18h1m1 0h1m4 0h1m6 0h3m6 0h1m1 0h1m3 0h1m1 0h1M0 19h1m1 0h1m5 0h1m15 0h1m4 0h1m1 0h1M0 20h1m1 0h1m4 0h1m7 0h2m6 0h1m1 0h1m3 0h1m1 0h1M0 21h2m1 0h1m4 0h1m6 0h3m6 0h1m3 0h1m1 0h2M0 22h2m1 0h1m3 0h1m6 0h4m7 0h1m2 0h1m1 0h2M0 23h3m1 0h1m3 0h1m3 0h6m6 0h1m2 0h1m1 0h3M0 24h3m1 0h1m2 0h1m5 0h1m1 0h3m7 0h1m1 0h1m1 0h3M0 25h3m1 0h1m22 0h1m1 0h3M0 26h2m1 0h2m2 0h1m17 0h1m1 0h2m1 0h2M0 27h1m1 0h1m26 0h1m1 0h1M0 28h1m1 0h1m1 0h1m1 0h4m12 0h4m1 0h1m1 0h1m1 0h1M0 29h1m1 0h1m3 0h1m3 0h2m3 0h2m3 0h2m3 0h1m3 0h1m1 0h1M0 30h1m1 0h4m1 0h3m2 0h3m2 0h3m2 0h3m1 0h4m1 0h1M0 31h1m5 0h6m3 0h2m3 0h6m5 0h1"/><path stroke="#000" d="M1 0h5m6 0h3m2 0h3m6 0h5M1 1h1m4 0h1m3 0h2m3 0h2m3 0h2m3 0h1m4 0h1M1 2h1m1 0h3m1 0h3m2 0h3m2 0h3m2 0h3m1 0h3m1 0h1M1 3h1m1 0h1m1 0h1m4 0h12m4 0h1m1 0h1m1 0h1M1 4h1m1 0h2m1 0h23m1 0h1M2 5h1m2 0h22m2 0h1M3 6h1m1 0h2m6 0h7m6 0h1m1 0h1M3 7h1m1 0h2m5 0h9m5 0h1m1 0h1M3 8h1m1 0h2m4 0h2m5 0h4m4 0h1m1 0h1M2 9h1m1 0h3m4 0h1m7 0h1m1 0h2m3 0h2m1 0h1M2 10h1m1 0h3m3 0h2m7 0h4m3 0h2m1 0h1M1 11h1m1 0h4m3 0h3m3 0h1m2 0h4m3 0h3m1 0h1M1 12h1m1 0h4m3 0h2m1 0h1m1 0h1m1 0h6m3 0h3m1 0h1M1 13h1m1 0h4m3 0h2m2 0h1m4 0h4m3 0h3m1 0h1M2 14h1m1 0h3m2 0h3m2 0h1m4 0h4m3 0h2m1 0h1M2 15h1m1 0h3m2 0h3m2 0h2m3 0h4m3 0h2m1 0h1M2 16h1m1 0h3m2 0h3m4 0h1m2 0h4m3 0h2m1 0h1M2 17h1m1 0h4m1 0h4m1 0h2m3 0h5m1 0h3m1 0h1M1 18h1m1 0h4m1 0h6m3 0h6m1 0h1m1 0h3m1 0h1M1 19h1m1 0h5m1 0h15m1 0h4m1 0h1M1 20h1m1 0h4m1 0h7m2 0h6m1 0h1m1 0h3m1 0h1M2 21h1m1 0h4m1 0h6m3 0h6m1 0h3m1 0h1M2 22h1m1 0h3m1 0h6m4 0h7m1 0h2m1 0h1M3 23h1m1 0h3m1 0h3m6 0h6m1 0h2m1 0h1M3 24h1m1 0h2m1 0h5m1 0h1m3 0h7m1 0h1m1 0h1M3 25h1m1 0h22m1 0h1M2 26h1m2 0h2m1 0h17m1 0h1m2 0h1M1 27h1m1 0h26m1 0h1M1 28h1m1 0h1m1 0h1m4 0h12m4 0h1m1 0h1m1 0h1M1 29h1m1 0h3m1 0h3m2 0h3m2 0h3m2 0h3m1 0h3m1 0h1M1 30h1m4 0h1m3 0h2m3 0h2m3 0h2m3 0h1m4 0h1M1 31h5m6 0h3m2 0h3m6 0h5"/></svg>