<svg xmlns="http://www.w3.org/2000/svg" width="32" height="32" shape-rendering="crispEdges" viewBox="0 -0.5 32 32"><path stroke="#000" d="M16 1h1m-2 1h1m-4 1h2m1 0h1m-4 1h1m1 0h2m-6 1h2m1 0h1m-4 1h1m1 0h2M8 7h2m1 0h1m8 0h4M8 8h1m1 0h2m9 0h1m1 0h1M8 9h1m10 0h2m2 0h1M1 10h2m1 0h13m3 0h1m2 0h1M1 11h1m1 0h5m8 0h1m1 0h2m2 0h1M2 12h14m3 0h1m2 0h1m4 0h3M2 13h8m7 0h2m2 0h1m3 0h2m2 0h1M2 14h4m1 0h1m1 0h2m7 0h1m2 0h1m2 0h1m4 0h1M2 15h1m1 0h3m1 0h4m4 0h2m2 0h1m2 0h1m4 0h1M2 16h2m1 0h1m1 0h1m1 0h4m4 0h1m2 0h1m1 0h1m2 0h1m1 0h1M2 17h3m1 0h8m1 0h2m2 0h1m1 0h1m2 0h1m1 0h1M3 18h3m1 0h8m1 0h1m2 0h2m2 0h1m1 0h1M4 19h3m1 0h8m3 0h1m4 0h1M5 20h3m1 0h8m1 0h1m4 0h1M6 21h3m1 0h9m3 0h5M7 22h3m1 0h8m2 0h2m4 0h1M8 23h3m1 0h10m6 0h1M9 24h3m1 0h7m1 0h1m6 0h1m-19 1h3m1 0h8m6 0h1m-18 1h3m1 0h5m1 0h1m6 0h1m-17 1h3m2 0h3m2 0h1m4 0h1m-15 1h6m4 0h4m-13 1h4"/><path stroke="#fff" d="M22 8h1m-2 1h2m-2 1h2M2 11h1m5 0h8m4 0h2m-2 1h2m-3 1h2m6 0h2M6 14h1m1 0h1m10 0h2m4 0h4M3 15h1m3 0h1m10 0h2m4 0h4M4 16h1m1 0h1m1 0h1m9 0h2m3 0h2m1 0h1M5 17h1m11 0h2m3 0h2m1 0h1M6 18h1m10 0h2m2 0h2m1 0h1M7 19h1m8 0h3m1 0h4M8 20h1m8 0h1m1 0h4M9 21h1m9 0h3m-12 1h1m8 0h2m2 0h4m-16 1h1m10 0h6m-16 1h1m7 0h1m1 0h6m-15 1h1m8 0h6m-14 1h1m7 0h6m-13 1h2m6 0h4"/></svg>