<svg xmlns="http://www.w3.org/2000/svg" width="32" height="32" shape-rendering="crispEdges" viewBox="0 -0.5 32 32"><path stroke="#000" d="M2 0h4m7 0h4m4 0h5M2 1h1m3 0h1m5 0h1m3 0h1m2 0h2m5 0h2M2 2h1m3 0h1m5 0h1m3 0h1m1 0h1m3 0h3m3 0h1M2 3h1m4 0h1m3 0h1m4 0h1m1 0h1m2 0h1m3 0h1m2 0h1M2 4h1m4 0h1m3 0h1m4 0h1m1 0h1m2 0h1m3 0h4M2 5h1m5 0h1m1 0h1m5 0h1m1 0h1m3 0h3M2 6h1m2 0h1m2 0h1m1 0h1m2 0h1m2 0h1m2 0h2m4 0h2M2 7h1m2 0h2m2 0h1m2 0h2m2 0h1m4 0h3m3 0h1M2 8h1m2 0h2m2 0h1m2 0h2m2 0h1m1 0h3m3 0h1m3 0h1M2 9h1m2 0h1m1 0h1m3 0h1m1 0h1m2 0h1m1 0h1m2 0h1m3 0h1m2 0h1M2 10h1m2 0h1m1 0h1m3 0h1m1 0h1m2 0h1m1 0h1m2 0h4m3 0h1M2 11h1m2 0h1m2 0h1m1 0h1m2 0h1m2 0h1m2 0h1m7 0h1M1 12h10m1 0h7m1 0h7M1 13h1m9 0h1m7 0h1m7 0h2M1 14h1m8 0h1m7 0h1m10 0h1M1 15h1m7 0h1m7 0h1m12 0h1M1 16h1m7 0h1m3 0h3m1 0h1m3 0h5m4 0h1M1 17h1m6 0h1m3 0h1m2 0h1m1 0h1m2 0h1m3 0h1m1 0h1m3 0h1M1 18h1m3 0h4m3 0h1m2 0h3m2 0h1m3 0h1m2 0h3M1 19h1m3 0h1m2 0h1m3 0h1m2 0h1m1 0h1m2 0h1m3 0h3M1 20h1m3 0h1m2 0h1m3 0h1m2 0h1m2 0h1m1 0h1m3 0h1m2 0h2M1 21h1m3 0h1m2 0h1m3 0h1m2 0h1m3 0h2m3 0h1m4 0h1M1 22h1m3 0h1m2 0h1m3 0h1m2 0h1m4 0h1m3 0h1m5 0h1M1 23h1m3 0h1m2 0h1m2 0h2m2 0h1m2 0h3m3 0h2m4 0h1M1 24h1m3 0h1m3 0h1m1 0h1m3 0h1m1 0h1m3 0h1m1 0h1m2 0h1m3 0h1M1 25h1m3 0h6m3 0h4m4 0h4m4 0h1M1 26h1m12 0h1m2 0h1m12 0h1M1 27h1m10 0h2m3 0h1m12 0h1M1 28h1m10 0h1m5 0h1m11 0h1M1 29h1m10 0h1m6 0h1m9 0h1M1 30h1m9 0h2m7 0h1m6 0h2M2 31h9m2 0h7m1 0h6"/><path stroke="silver" d="M3 1h2m8 0h2m6 0h4M3 2h3m7 0h2m4 0h2m4 0h2M3 3h3m6 0h3m4 0h1m6 0h1M3 4h1m1 0h2m5 0h3m4 0h1M3 5h1m2 0h1m4 0h2m1 0h1m4 0h1M3 6h1m2 0h2m3 0h2m1 0h1m6 0h3M3 7h1m3 0h1m2 0h2m2 0h1m9 0h2M3 8h1m3 0h2m1 0h2m2 0h1m10 0h2M3 9h1m4 0h1m1 0h1m3 0h1m4 0h2m5 0h1M3 10h1m4 0h3m3 0h1m4 0h2m4 0h2M3 11h1m5 0h1m4 0h1m5 0h6"/><path stroke="gray" d="M5 1h1m9 0h1m9 0h1M15 2h1m5 0h1m5 0h1M6 3h1m8 0h1m4 0h1m6 0h1M4 4h1m10 0h1m4 0h1M4 5h2m1 0h1m5 0h1m1 0h1m4 0h2M4 6h1m10 0h1m8 0h1M4 7h1m3 0h1m6 0h1m10 0h1M4 8h1m10 0h1m11 0h1M4 9h1m4 0h1m5 0h1m11 0h1M4 10h1m10 0h1m11 0h1M4 11h1m10 0h1m10 0h1"/><path stroke="red" d="M2 13h8m-8 1h7m-7 1h7m-7 1h3m-3 1h3m8 0h2M2 18h3m8 0h2M2 19h3m8 0h2M2 20h3m8 0h2M2 21h3m8 0h2M2 22h3m8 0h2M2 23h3m8 0h2M2 24h3m7 0h2M2 25h3m6 0h2M2 26h11M2 27h10M2 28h9m-9 1h1"/><path stroke="maroon" d="M10 13h1m-2 1h1m-5 2h4m-4 1h3m6 7h1m-2 1h1m-1 1h1m-3 2h1m-9 1h9M2 30h9"/><path stroke="#00f" d="M12 13h1m1 0h1m1 0h1m-6 1h1m1 0h1m1 0h1m-6 1h1m1 0h1m1 0h1m1 0h1m-6 1h1m-2 1h1m12 0h1M9 18h1m12 0h1m-13 1h1m12 0h1M9 20h1m12 0h1m-13 1h1m12 0h1M9 22h1m12 0h1m-13 1h1m12 0h1m-2 1h1m-8 2h1m-2 1h1m1 0h1m-4 1h1m1 0h1m1 0h1"/><path stroke="#f0f" d="M13 13h1m1 0h1m1 0h1m-6 1h1m1 0h1m1 0h1m-6 1h1m1 0h1m1 0h1m-6 1h1m-2 1h1m12 0h1m-13 1h1m12 0h1M9 19h1m12 0h1m-13 1h1m12 0h1M9 21h1m12 0h1m-13 1h1m12 0h1M9 23h1m12 0h1m-13 1h1m5 2h1m-2 1h1m-2 1h1m1 0h1"/><path stroke="navy" d="M18 13h1m-2 1h1m-2 3h1m4 0h1m-11 1h1m9 1h1m-11 1h1m9 1h1m-11 1h1m9 1h1m-8 6h1m1 0h1m1 0h1m-6 1h1m1 0h1m1 0h1m1 0h1"/><path stroke="#ff0" d="M20 13h7m-8 1h10m-11 1h12m-12 1h3m6 0h2m-11 1h2m-2 1h2m-1 1h1m5 1h2m-2 1h4m-3 1h4m-3 1h3m-12 1h3m6 0h3m-11 1h3m4 0h4m-11 1h10m-9 1h8m-6 1h5"/><path stroke="purple" d="M12 16h1m3 0h1m-6 1h1m9 1h1m-11 1h1m9 1h1m-11 1h1m9 1h1m-9 7h1m1 0h1m1 0h1m-4 1h1m1 0h1m1 0h1"/><path stroke="olive" d="M26 16h1m2 0h1m-3 1h3m-12 2h1m0 1h1m5 2h1m0 1h1m-9 2h1m-1 1h1m10 0h1m-12 1h2m8 0h2m-11 1h3m5 0h3m-10 1h9m-8 1h6"/></svg>