<svg xmlns="http://www.w3.org/2000/svg" viewBox="0 -0.5 32 32" shape-rendering="crispEdges">
<path stroke="#000000" d="M0 0h1M6 0h23M5 1h1M29 1h1M4 2h1M30 2h1M3 3h1M30 3h1M2 4h1M30 4h1M1 5h1M30 5h1M0 6h1M30 6h1M0 7h1M26 7h1M30 7h1M0 8h1M5 8h17M26 8h1M30 8h1M0 9h1M4 9h1M22 9h1M26 9h1M30 9h1M0 10h1M5 10h1M18 10h2M22 10h1M26 10h1M30 10h1M0 11h1M5 11h1M11 11h7M20 11h1M22 11h1M26 11h1M30 11h1M0 12h1M5 12h1M10 12h1M20 12h1M22 12h1M26 12h1M30 12h1M0 13h1M5 13h1M11 13h9M22 13h1M26 13h1M30 13h1M0 14h1M3 14h3M22 14h1M26 14h1M30 14h1M0 15h1M4 15h1M12 15h4M22 15h1M26 15h1M30 15h1M0 16h1M4 16h1M11 16h1M16 16h1M22 16h1M26 16h1M30 16h1M0 17h1M4 17h1M10 17h1M12 17h3M17 17h1M22 17h1M26 17h1M30 17h1M0 18h1M4 18h1M10 18h2M14 18h2M17 18h1M22 18h1M26 18h1M30 18h1M0 19h1M5 19h1M10 19h2M14 19h2M17 19h1M22 19h1M26 19h1M30 19h1M0 20h1M5 20h1M10 20h1M12 20h3M17 20h1M22 20h1M26 20h1M30 20h1M0 21h1M5 21h1M11 21h1M16 21h1M22 21h1M26 21h1M30 21h1M0 22h1M5 22h1M12 22h4M22 22h1M26 22h1M30 22h1M0 23h1M3 23h3M22 23h1M26 23h1M30 23h1M0 24h1M4 24h1M22 24h1M26 24h1M29 24h1M0 25h1M5 25h17M26 25h1M28 25h2M0 26h1M27 26h1M29 26h1M0 27h1M26 27h3M1 28h1M25 28h1M2 29h24M2 30h1M6 30h1M21 30h1M25 30h1M3 31h3M22 31h3" />
<path stroke="#c0c0c0" d="M0 0h1M6 1h21M28 1h1M5 2h21M27 2h1M29 2h1M4 3h21M26 3h1M28 3h1M25 4h1M27 4h1M4 5h20M26 5h1M3 6h22M2 7h24M2 8h3M22 8h4M2 9h2M23 9h3M2 10h1M6 10h12M20 10h1M23 10h3M2 11h1M4 11h1M7 11h4M23 11h3M2 12h1M4 12h1M7 12h3M23 12h3M2 13h1M4 13h1M7 13h4M23 13h3M2 14h1M7 14h5M23 14h3M2 15h2M7 15h5M16 15h5M23 15h3M2 16h2M6 16h5M17 16h4M23 16h3M2 17h2M6 17h4M18 17h3M23 17h3M2 18h2M6 18h4M19 18h2M23 18h3M2 19h1M6 19h4M19 19h2M23 19h3M2 20h1M4 20h1M7 20h3M19 20h2M23 20h3M2 21h1M4 21h1M7 21h4M19 21h2M23 21h3M2 22h1M4 22h1M7 22h5M18 22h3M23 22h3M2 23h1M7 23h6M17 23h4M23 23h3M2 24h2M23 24h3M2 25h3M22 25h4M2 26h23M3 27h21" />
<path stroke="#808080" d="M0 0h1M27 1h1M26 2h1M28 2h1M25 3h1M27 3h1M29 3h1M24 4h1M26 4h1M28 4h2M25 5h1M27 5h3M25 6h5M27 7h3M27 8h3M21 9h1M27 9h3M3 10h2M21 10h1M27 10h3M3 11h1M6 11h1M21 11h1M27 11h3M3 12h1M6 12h1M21 12h1M27 12h3M3 13h1M6 13h1M20 13h2M27 13h3M6 14h1M12 14h10M27 14h3M5 15h2M21 15h1M27 15h3M21 16h1M27 16h3M21 17h1M27 17h3M18 18h1M21 18h1M27 18h3M3 19h2M18 19h1M21 19h1M27 19h3M3 20h1M6 20h1M18 20h1M21 20h1M27 20h3M3 21h1M6 21h1M17 21h2M21 21h1M27 21h3M3 22h1M6 22h1M16 22h2M21 22h1M27 22h3M6 23h1M13 23h4M21 23h1M27 23h3M5 24h17M27 24h2M27 25h1M25 26h2M28 26h1M2 27h1M24 27h2M2 28h23M4 30h2M23 30h2" />
<path stroke="#ffffff" d="M0 0h1M3 4h21M2 5h2M24 5h1M1 6h2M1 7h1M1 8h1M1 9h1M5 9h16M1 10h1M1 11h1M1 12h1M1 13h1M1 14h1M1 15h1M1 16h1M5 16h1M12 16h4M1 17h1M5 17h1M11 17h1M15 17h2M1 18h1M5 18h1M12 18h1M16 18h1M1 19h1M16 19h1M1 20h1M11 20h1M15 20h2M1 21h1M12 21h4M1 22h1M1 23h1M1 24h1M1 25h1M1 26h1M1 27h1M3 30h1M22 30h1" />
<path stroke="#00ffff" d="M0 0h1M18 11h1M11 12h7" />
<path stroke="#008080" d="M0 0h1M19 11h1M18 12h2" />
<path stroke="#ff00ff" d="M0 0h1M13 18h1M12 19h2" />
</svg>