<svg xmlns="http://www.w3.org/2000/svg" viewBox="0 -0.5 32 32" shape-rendering="crispEdges">
<path stroke="#000000" d="M0 0h1M11 9h8M7 10h4M19 10h1M4 11h3M9 11h1M20 11h1M24 11h7M1 12h3M8 12h1M12 12h2M21 12h4M0 13h1M7 13h1M11 13h1M14 13h1M24 13h1M0 14h1M4 14h7M14 14h2M24 14h1M1 15h3M8 15h1M12 15h2M16 15h1M24 15h1M9 16h3M15 16h2M24 16h1M9 17h1M13 17h2M17 17h1M24 17h1M10 18h3M16 18h2M21 18h4M10 19h1M14 19h2M19 19h2M24 19h1M11 20h8M25 20h6" />
<path stroke="#ffffff" d="M0 0h1M11 10h7M10 11h9M4 12h2M9 12h1M15 12h5M1 13h3M16 13h7M11 14h1M17 14h5M9 15h2M18 15h3M12 16h2M10 17h2M14 18h1M11 19h2" />
<path stroke="#c0c0c0" d="M0 0h1M18 10h1M7 11h2M19 11h1M6 12h2M10 12h2M14 12h1M20 12h1M4 13h2M8 13h3M12 13h2M15 13h1M23 13h1M1 14h3M12 14h2M16 14h1M22 14h2M11 15h1M14 15h2M17 15h1M21 15h2M14 16h1M17 16h5M12 17h1M15 17h2M19 17h2M13 18h1M15 18h1M13 19h1" />
<path stroke="#0000ff" d="M0 0h1M25 12h6M25 13h6M25 14h6M25 15h6M25 16h1M27 16h1M29 16h1M26 17h1M28 17h1M30 17h1" />
<path stroke="#808080" d="M0 0h1M6 13h1M23 15h1M22 16h2M18 17h1M21 17h3M18 18h3M16 19h3" />
<path stroke="#000080" d="M0 0h1M26 16h1M28 16h1M30 16h1M25 17h1M27 17h1M29 17h1M25 18h6M25 19h6" />
</svg>