<svg xmlns="http://www.w3.org/2000/svg" width="32" height="32" shape-rendering="crispEdges" viewBox="0 -0.5 32 32"><path stroke="#000" d="M0 0h27M0 1h1m7 0h1m17 0h1M0 2h1m7 0h1m2 0h11m4 0h1M0 3h1m1 0h5m1 0h1m2 0h11m4 0h1M0 4h1m7 0h1m17 0h1M0 5h1m7 0h1m2 0h7m8 0h1M0 6h1m1 0h4m2 0h1m2 0h7m8 0h1M0 7h1m7 0h1m17 0h1M0 8h1m7 0h1m7 0h8m2 0h1M0 9h1m1 0h5m1 0h1m7 0h8m2 0h1M0 10h1m7 0h1m17 0h1M0 11h1m7 0h1m4 0h6m7 0h1M0 12h1m1 0h29M0 13h1m3 0h1m25 0h1M0 14h1m3 0h1m25 0h1M0 15h1m1 0h3m15 0h9m1 0h1M0 16h1m3 0h1m15 0h1m7 0h1m1 0h1M0 17h1m3 0h1m1 0h9m2 0h4m7 0h1m1 0h1M0 18h1m1 0h3m1 0h1m7 0h1m2 0h1m2 0h9m1 0h1M0 19h1m3 0h1m1 0h1m7 0h4m12 0h1M0 20h1m3 0h1m1 0h9m2 0h1m2 0h9m1 0h1M0 21h1m1 0h3m12 0h1m2 0h1m7 0h1m1 0h1M0 22h1m3 0h1m12 0h4m7 0h1m1 0h1M0 23h1m3 0h1m12 0h1m2 0h9m1 0h1M0 24h1m1 0h3m12 0h1m12 0h1M0 25h1m3 0h1m12 0h1m2 0h9m1 0h1M0 26h1m3 0h1m12 0h1m2 0h1m7 0h1m1 0h1M0 27h5m12 0h4m7 0h1m1 0h1M4 28h1m15 0h9m1 0h1M4 29h1m25 0h1M4 30h27"/><path stroke="#fff" d="M1 1h7m1 0h17M1 2h7m1 0h2m11 0h4M1 3h1m5 0h1m1 0h2m11 0h4M1 4h7m1 0h17M1 5h7m1 0h2m7 0h8M1 6h1m4 0h2m1 0h2m7 0h8M1 7h7m1 0h17M1 8h7m1 0h7m8 0h2M1 9h1m5 0h1m1 0h7m8 0h2M1 10h7m1 0h17M1 11h7m1 0h4m6 0h7M1 12h1m-1 1h3m1 0h25M1 14h3m1 0h25M1 15h1m3 0h15m9 0h1M1 16h3m1 0h15m1 0h7m1 0h1M1 17h3m1 0h1m9 0h2m4 0h7m1 0h1M1 18h1m3 0h1m1 0h7m1 0h2m1 0h2m9 0h1M1 19h3m1 0h1m1 0h7m4 0h12M1 20h3m1 0h1m9 0h2m1 0h2m9 0h1M1 21h1m3 0h12m1 0h2m1 0h7m1 0h1M1 22h3m1 0h12m4 0h7m1 0h1M1 23h3m1 0h12m1 0h2m9 0h1M1 24h1m3 0h12m1 0h12M1 25h3m1 0h12m1 0h2m9 0h1M1 26h3m1 0h12m1 0h2m1 0h7m1 0h1M5 27h12m4 0h7m1 0h1M5 28h15m9 0h1M5 29h25"/></svg>