<svg xmlns="http://www.w3.org/2000/svg" viewBox="0 -0.5 32 32" shape-rendering="crispEdges">
<path stroke="#000000" d="M0 0h1M8 0h5M6 1h2M13 1h2M5 2h1M15 2h2M5 3h1M17 3h2M4 4h1M19 4h2M4 5h1M21 5h2M3 6h1M23 6h2M3 7h1M25 7h2M3 8h1M23 8h2M27 8h1M3 9h1M22 9h1M28 9h1M3 10h1M6 10h2M21 10h1M28 10h1M3 11h1M6 11h1M8 11h2M21 11h1M25 11h2M29 11h1M3 12h1M6 12h1M9 12h3M20 12h1M24 12h1M27 12h1M29 12h1M3 13h1M6 13h1M9 13h5M20 13h1M24 13h1M28 13h2M3 14h1M6 14h1M9 14h1M12 14h4M20 14h1M25 14h1M28 14h2M3 15h1M6 15h2M9 15h1M14 15h4M20 15h1M25 15h1M28 15h2M3 16h2M8 16h2M16 16h2M20 16h1M26 16h2M29 16h1M5 17h2M20 17h1M29 17h1M7 18h2M20 18h1M29 18h1M9 19h2M20 19h1M29 19h1M10 20h3M20 20h1M28 20h2M10 21h1M13 21h2M20 21h1M26 21h2M10 22h1M14 22h3M20 22h1M24 22h2M10 23h1M14 23h2M17 23h2M20 23h1M22 23h2M10 24h1M14 24h1M16 24h1M18 24h4M10 25h1M14 25h2M17 25h2M10 26h1M14 26h1M16 26h1M18 26h1M10 27h1M14 27h2M17 27h2M10 28h1M14 28h1M16 28h1M18 28h1M10 29h1M14 29h2M17 29h2M14 30h1M16 30h1M18 30h1M14 31h2" />
<path stroke="#c0c0c0" d="M0 0h1M8 1h3M8 2h5M7 3h1M9 3h1M11 3h4M10 4h1M12 4h1M14 4h3M13 5h1M15 5h4M5 6h1M14 6h1M16 6h1M18 6h3M4 7h1M6 7h1M8 7h1M17 7h1M19 7h4M5 8h1M7 8h1M9 8h1M11 8h1M18 8h1M20 8h1M22 8h1M25 8h1M4 9h5M10 9h1M12 9h1M21 9h1M24 9h1M26 9h1M4 10h2M9 10h3M13 10h1M15 10h1M23 10h1M25 10h1M27 10h1M4 11h2M11 11h2M14 11h1M16 11h1M18 11h1M20 11h1M22 11h1M24 11h1M28 11h1M4 12h2M13 12h3M17 12h1M19 12h1M21 12h1M23 12h1M4 13h2M15 13h2M18 13h1M22 13h1M25 13h2M4 14h2M10 14h1M17 14h1M19 14h1M21 14h1M23 14h1M4 15h2M10 15h3M19 15h1M22 15h1M24 15h1M5 16h2M10 16h5M18 16h2M21 16h1M23 16h1M25 16h1M7 17h10M18 17h2M22 17h1M24 17h1M26 17h1M28 17h1M9 18h11M21 18h1M23 18h1M25 18h1M27 18h1M11 19h9M22 19h1M24 19h1M26 19h1M28 19h1M13 20h7M21 20h1M23 20h1M25 20h1M27 20h1M15 21h5M22 21h1M24 21h1M17 22h3M21 22h1M23 22h1M19 23h1" />
<path stroke="#808080" d="M0 0h1M11 1h2M6 2h1M13 2h2M15 3h2M17 4h2M19 5h2M21 6h2M23 7h2M26 8h1M23 9h1M25 9h1M27 9h1M8 10h1M22 10h1M24 10h1M26 10h1M10 11h1M23 11h1M27 11h1M12 12h1M22 12h1M25 12h2M28 12h1M14 13h1M21 13h1M23 13h1M27 13h1M11 14h1M16 14h1M22 14h1M24 14h1M27 14h1M13 15h1M18 15h1M21 15h1M23 15h1M27 15h1M7 16h1M15 16h1M22 16h1M24 16h1M28 16h1M17 17h1M21 17h1M23 17h1M25 17h1M27 17h1M22 18h1M24 18h1M26 18h1M28 18h1M21 19h1M23 19h1M25 19h1M27 19h1M22 20h1M24 20h1M26 20h1M21 21h1M23 21h1M25 21h1M22 22h1M16 23h1M21 23h1M15 24h1M17 24h1M16 25h1M15 26h1M17 26h1M16 27h1M15 28h1M17 28h1M16 29h1M15 30h1M17 30h1M16 31h1" />
<path stroke="#ffffff" d="M0 0h1M7 2h1M6 3h1M8 3h1M10 3h1M5 4h5M11 4h1M13 4h1M5 5h8M14 5h1M4 6h1M6 6h8M15 6h1M17 6h1M5 7h1M7 7h1M9 7h8M18 7h1M4 8h1M6 8h1M8 8h1M10 8h1M12 8h6M19 8h1M21 8h1M9 9h1M11 9h1M13 9h8M12 10h1M14 10h1M16 10h5M13 11h1M15 11h1M17 11h1M19 11h1M16 12h1M18 12h1M17 13h1M19 13h1M18 14h1M26 14h1M26 15h1" />
<path stroke="#ff0000" d="M0 0h1M7 11h1M7 12h2M7 13h2M7 14h2M8 15h1" />
<path stroke="#808000" d="M0 0h1M11 21h2M11 22h3M11 23h3M11 24h3M11 25h3M11 26h3M11 27h3M11 28h3M11 29h3M12 30h2" />
</svg>