<svg xmlns="http://www.w3.org/2000/svg" width="32" height="32" shape-rendering="crispEdges" viewBox="0 -0.5 32 32"><path stroke="#000" d="M9 2h16M9 3h1m14 0h1M8 4h1m14 0h1M8 5h1m2 0h3m9 0h1M8 6h1m14 0h1M8 7h1m2 0h9m3 0h1M4 8h5m14 0h5M0 9h2m1 0h1m4 0h1m2 0h10m2 0h2m3 0h1m1 0h2M0 10h1m1 0h7m14 0h7m1 0h1M0 11h2m1 0h8m3 0h4m3 0h8m1 0h2M0 12h6m5 0h1m1 0h1m4 0h1m1 0h1m5 0h6M0 13h2m1 0h2m7 0h1m6 0h1m7 0h2m1 0h2M3 14h2m8 0h6m8 0h2M4 15h1m22 0h1M4 16h1m22 0h1M4 17h1m22 0h1M4 18h1m2 0h1m2 0h1m2 0h1m2 0h1m2 0h1m2 0h1m2 0h1m1 0h1M3 19h1m1 0h21m2 0h1M2 20h1m3 0h1m2 0h1m2 0h1m2 0h1m2 0h1m2 0h1m2 0h1m2 0h1m1 0h1M1 21h1m2 0h24m2 0h1M0 22h1m4 0h1m2 0h1m2 0h1m2 0h1m2 0h1m2 0h1m2 0h1m2 0h1m2 0h1m1 0h1M0 23h1m2 0h27m1 0h1M0 24h1m30 0h1M0 25h1m30 0h1M0 26h1m30 0h1M1 27h30M1 28h1m1 0h3m18 0h1m1 0h3M2 29h3m20 0h3"/><path stroke="#fff" d="M10 3h14M9 4h14M9 5h2m3 0h9M9 6h14M9 7h2m9 0h3M9 8h14M4 9h4m1 0h2m10 0h2m2 0h3M1 10h1m7 0h14m7 0h1M2 11h1m8 0h3m4 0h3m8 0h1M6 12h5m1 0h1m1 0h4m1 0h1m1 0h5M5 13h7m1 0h6m1 0h7M5 14h8m6 0h8M5 15h22M5 16h22M5 17h22M5 18h2m1 0h2m1 0h2m1 0h2m1 0h2m1 0h2m1 0h2m1 0h1M4 19h1m21 0h2M3 20h3m1 0h2m1 0h2m1 0h2m1 0h2m1 0h2m1 0h2m1 0h2m1 0h1M2 21h2m24 0h2M1 22h4m1 0h2m1 0h2m1 0h2m1 0h2m1 0h2m1 0h2m1 0h2m1 0h2m1 0h1M1 23h2m27 0h1M1 24h30M1 25h30M1 26h30M2 28h1m22 0h1"/></svg>