<svg xmlns="http://www.w3.org/2000/svg" width="32" height="32" shape-rendering="crispEdges" viewBox="0 -0.5 32 32"><path stroke="#000" d="M1 6h30M1 7h1m28 0h1M1 8h1m2 0h1m1 0h1m4 0h1m4 0h1m4 0h1m4 0h1m3 0h1M1 9h1m4 0h1m4 0h1m4 0h1m4 0h1m4 0h1m3 0h1M1 10h1m2 0h1m1 0h1m4 0h1m4 0h1m4 0h1m4 0h1m3 0h1M1 11h1m4 0h1m4 0h1m4 0h1m4 0h1m4 0h1m3 0h1M1 12h1m2 0h1m1 0h1m4 0h1m4 0h1m4 0h1m4 0h1m3 0h1M1 13h1m4 0h1m4 0h1m4 0h1m4 0h1m4 0h1m3 0h1M1 14h1m2 0h1m1 0h1m4 0h1m4 0h1m4 0h1m4 0h1m3 0h1M1 15h1m4 0h1m4 0h1m4 0h1m1 0h1m2 0h1m4 0h1m3 0h1M1 16h1m2 0h1m1 0h1m4 0h1m4 0h2m1 0h1m1 0h1m4 0h1m3 0h1M1 17h1m4 0h1m4 0h1m4 0h1m2 0h1m1 0h1m4 0h1m3 0h1M1 18h1m2 0h1m1 0h1m4 0h1m3 0h2m3 0h2m4 0h1m3 0h1M1 19h1m4 0h1m3 0h3m1 0h1m1 0h1m3 0h2m4 0h1m1 0h1m1 0h1M1 20h1m2 0h1m1 0h1m3 0h2m1 0h1m2 0h1m4 0h1m4 0h2m2 0h1M1 21h1m4 0h1m2 0h1m1 0h1m4 0h1m4 0h1m4 0h1m3 0h1M1 22h1m2 0h1m1 0h1m2 0h1m1 0h1m4 0h1m4 0h2m2 0h2m3 0h1M1 23h1m4 0h1m1 0h1m2 0h1m4 0h1m4 0h2m1 0h1m1 0h1m3 0h1M1 24h1m2 0h1m1 0h1m1 0h1m2 0h1m4 0h1m4 0h1m1 0h1m2 0h1m3 0h1M1 25h1m4 0h2m3 0h1m4 0h1m4 0h1m4 0h1m3 0h1M1 26h1m2 0h1m1 0h23m1 0h1M1 27h1m28 0h1M1 28h30"/><path stroke="#fff" d="M2 7h28M2 8h2m1 0h1m1 0h4m1 0h4m1 0h4m1 0h4m1 0h3M2 9h4m1 0h4m1 0h4m1 0h4m1 0h4m1 0h3M2 10h2m1 0h1m1 0h4m1 0h4m1 0h4m1 0h4m1 0h3M2 11h4m1 0h4m1 0h4m1 0h4m1 0h4m1 0h3M2 12h2m1 0h1m1 0h4m1 0h4m1 0h4m1 0h4m1 0h3M2 13h4m1 0h4m1 0h4m1 0h4m1 0h4m1 0h3M2 14h2m1 0h1m1 0h4m1 0h4m1 0h4m1 0h4m1 0h3M2 15h4m1 0h4m1 0h4m1 0h1m1 0h2m1 0h4m1 0h3M2 16h2m1 0h1m1 0h4m1 0h4m2 0h1m1 0h1m1 0h4m1 0h3M2 17h4m1 0h4m1 0h4m1 0h2m1 0h1m1 0h4m1 0h3M2 18h2m1 0h1m1 0h4m1 0h3m2 0h3m2 0h4m1 0h3M2 19h4m1 0h3m3 0h1m1 0h1m1 0h3m2 0h4m1 0h1m1 0h1M2 20h2m1 0h1m1 0h3m2 0h1m1 0h2m1 0h4m1 0h4m2 0h2M2 21h4m1 0h2m1 0h1m1 0h4m1 0h4m1 0h4m1 0h3M2 22h2m1 0h1m1 0h2m1 0h1m1 0h4m1 0h4m2 0h2m2 0h3M2 23h4m1 0h1m1 0h2m1 0h4m1 0h4m2 0h1m1 0h1m1 0h3M2 24h2m1 0h1m1 0h1m1 0h2m1 0h4m1 0h4m1 0h1m1 0h2m1 0h3M2 25h4m2 0h3m1 0h4m1 0h4m1 0h4m1 0h3M2 26h2m1 0h1m23 0h1M2 27h28"/></svg>