<svg xmlns="http://www.w3.org/2000/svg" viewBox="0 -0.5 32 32" shape-rendering="crispEdges">
<path stroke="#000000" d="M0 0h1M4 2h23M29 2h2M4 3h1M26 3h1M28 3h1M31 3h1M4 4h1M26 4h2M31 4h1M4 5h1M26 5h1M30 5h1M4 6h1M25 6h1M29 6h1M4 7h1M24 7h1M28 7h1M4 8h1M8 8h1M23 8h1M27 8h1M4 9h1M8 9h2M22 9h1M26 9h1M4 10h1M8 10h1M10 10h1M21 10h1M25 10h2M4 11h1M8 11h1M11 11h1M20 11h1M24 11h1M26 11h1M4 12h1M8 12h1M12 12h1M20 12h1M23 12h1M26 12h1M4 13h1M8 13h1M13 13h1M19 13h1M21 13h2M26 13h1M4 14h1M8 14h1M14 14h1M19 14h2M26 14h1M4 15h1M8 15h1M11 15h1M15 15h1M18 15h1M26 15h1M4 16h1M8 16h1M11 16h2M16 16h1M26 16h1M4 17h1M8 17h1M11 17h1M13 17h1M17 17h1M26 17h1M4 18h1M8 18h1M11 18h1M14 18h1M18 18h1M26 18h2M4 19h1M8 19h1M11 19h5M19 19h1M26 19h1M28 19h1M4 20h1M8 20h1M20 20h1M26 20h1M29 20h1M4 21h1M8 21h1M21 21h1M26 21h1M29 21h1M0 22h27M29 22h2M0 23h1M26 23h1M29 23h1M31 23h1M0 24h1M26 24h1M29 24h1M31 24h1M0 25h1M26 25h1M29 25h1M31 25h1M0 26h27M29 26h2M4 27h1M26 27h1M29 27h1M4 28h1M26 28h1M29 28h1M4 29h23M28 29h1M26 30h2" />
<path stroke="#ffffff" d="M0 0h1M5 3h21M29 3h1M5 4h21M28 4h1M5 5h21M27 5h1M5 6h20M26 6h1M5 7h19M25 7h1M5 8h3M9 8h14M24 8h1M5 9h3M11 9h11M23 9h1M5 10h3M9 10h1M12 10h9M22 10h1M5 11h3M9 11h1M13 11h7M21 11h1M5 12h3M9 12h1M14 12h6M25 12h1M5 13h3M9 13h1M15 13h4M24 13h2M5 14h3M9 14h1M11 14h1M16 14h3M23 14h3M5 15h3M9 15h1M12 15h1M17 15h1M20 15h6M5 16h3M9 16h1M13 16h1M18 16h8M5 17h3M9 17h1M14 17h1M19 17h7M5 18h3M9 18h1M13 18h1M15 18h1M20 18h6M5 19h3M9 19h1M16 19h1M21 19h5M5 20h3M9 20h1M11 20h7M22 20h4M5 21h3M9 21h1M23 21h3M2 23h1M4 23h1M6 23h1M8 23h1M10 23h1M12 23h1M14 23h1M16 23h1M18 23h1M20 23h1M22 23h1M24 23h1M1 24h1M3 24h1M5 24h1M7 24h1M9 24h1M11 24h1M13 24h1M15 24h1M17 24h1M19 24h1M21 24h1M23 24h1M25 24h1M5 28h21" />
<path stroke="#808080" d="M0 0h1M27 3h1M27 9h1M27 10h1M27 11h1M27 12h1M27 13h1M27 14h1M27 15h1M27 16h1M27 17h1M28 20h1M28 21h1M28 22h1M28 23h1M28 24h1M28 25h1M28 26h1M28 27h1M28 28h1M5 30h21" />
<path stroke="#00ffff" d="M0 0h1M30 3h1M29 4h1M28 5h1M27 6h1M26 7h1M25 8h1M24 9h1M23 10h1M22 11h1M21 12h1M20 13h1" />
<path stroke="#008080" d="M0 0h1M30 4h1M29 5h1M28 6h1M27 7h1M26 8h1M25 9h1M24 10h1M23 11h1M22 12h1" />
<path stroke="#c0c0c0" d="M0 0h1M10 9h1M11 10h1M10 11h1M12 11h1M25 11h1M10 12h2M13 12h1M24 12h1M10 13h3M14 13h1M23 13h1M10 14h1M12 14h2M15 14h1M21 14h2M10 15h1M13 15h2M16 15h1M19 15h1M10 16h1M14 16h2M17 16h1M10 17h1M12 17h1M15 17h2M18 17h1M10 18h1M12 18h1M16 18h2M19 18h1M10 19h1M17 19h2M20 19h1M27 19h1M10 20h1M18 20h2M21 20h1M27 20h1M10 21h11M22 21h1M27 21h1M27 22h1M27 23h1M30 23h1M27 24h1M30 24h1M27 25h1M30 25h1M27 26h1M5 27h21M27 27h1M27 28h1M27 29h1" />
<path stroke="#ffff00" d="M0 0h1M1 23h1M3 23h1M5 23h1M7 23h1M9 23h1M11 23h1M13 23h1M15 23h1M17 23h1M19 23h1M21 23h1M23 23h1M25 23h1M2 24h1M4 24h1M6 24h1M8 24h1M10 24h1M12 24h1M14 24h1M16 24h1M18 24h1M20 24h1M22 24h1M24 24h1" />
<path stroke="#808000" d="M0 0h1M1 25h25" />
</svg>