<svg xmlns="http://www.w3.org/2000/svg" width="32" height="32" shape-rendering="crispEdges" viewBox="0 -0.5 32 32"><path stroke="#000" d="M9 2h2m7 0h1M8 3h1m2 0h2m4 0h1m1 0h1M8 4h1m4 0h2m1 0h1m3 0h1M7 5h1m7 0h1m5 0h1M7 6h1m6 0h1m7 0h1M6 7h1m6 0h1m9 0h1m1 0h2M6 8h1m5 0h1m10 0h2m1 0h1M5 9h1m5 0h1m9 0h2m4 0h1M5 10h1m4 0h1m8 0h2m6 0h1M4 11h1m4 0h1m7 0h2m9 0h1M4 12h1m3 0h1m6 0h2m11 0h1M3 13h1m3 0h1m5 0h2m14 0h1M3 14h1m2 0h1m4 0h2m16 0h1M2 15h1m2 0h1m3 0h2m19 0h1M2 16h1m1 0h1m2 0h2m21 0h1M1 17h1m1 0h1m3 0h1m23 0h1M1 18h1m2 0h1m3 0h1m21 0h2M0 19h1m4 0h1m2 0h1m19 0h2M0 20h2m4 0h1m2 0h1m16 0h2M2 21h2m3 0h1m1 0h1m14 0h2M4 22h2m2 0h1m1 0h1m11 0h2M6 23h2m1 0h2m9 0h2M8 24h2m1 0h1m6 0h2m-10 1h2m4 0h2m-6 1h1m1 0h2m-4 1h2"/><path stroke="silver" d="M9 3h2m7 0h1M9 4h4m4 0h1m1 0h1M8 5h6m2 0h1m1 0h1m1 0h1M8 6h5m2 0h1m1 0h1m1 0h1m1 0h1M7 7h5m2 0h1m1 0h1m1 0h1m1 0h1m1 0h1M7 8h4m2 0h1m1 0h1m1 0h1m1 0h1M6 9h4m2 0h1m1 0h1m1 0h1m1 0h1M6 10h3m2 0h1m1 0h1m1 0h1m8 0h1M5 11h3m2 0h1m1 0h1m1 0h1m11 0h1M5 12h2m2 0h1m1 0h1m11 0h1M4 13h2m2 0h1m1 0h1m14 0h1M4 14h1m2 0h1m-5 1h1m2 0h1m-2 1h1m-2 1h1m-3 1h1m2 0h1m-5 1h3m2 0h1m-5 1h3m2 0h1m-4 1h2m0 1h1"/><path stroke="#fff" d="M18 4h1m-2 1h1m1 0h1m-4 1h1m1 0h1m1 0h1m-6 1h1m1 0h1m1 0h1m1 0h1m-8 1h1m1 0h1m1 0h1m1 0h1m4 0h1M13 9h1m1 0h1m1 0h1m5 0h4m-15 1h1m1 0h1m1 0h1m4 0h3m2 0h1m-16 1h1m1 0h1m5 0h4m4 0h1m-18 1h1m1 0h1m4 0h6m4 0h1M9 13h1m5 0h9m2 0h3M8 14h1m4 0h16m-18 1h19M9 16h3m2 0h7m2 0h7M5 17h1m2 0h2m2 0h7m2 0h10M6 18h1m2 0h4m1 0h3m2 0h3m1 0h7M9 19h2m2 0h7m2 0h6m-18 1h8m2 0h6m-16 1h14m-13 1h11m-11 1h9m-8 1h6m-6 1h4m-3 1h1"/><path stroke="gray" d="M14 5h1m-2 1h1m-2 1h1m-2 1h1m9 0h2M10 9h1m8 0h2M9 10h1m7 0h2m6 0h1M8 11h1m6 0h2m6 0h1M7 12h1m5 0h2m11 0h1M6 13h1m4 0h2m11 0h1M5 14h1m3 0h2m-7 1h1m2 0h2m-6 1h1m2 0h1m-5 1h1m3 0h1m-4 1h1m3 0h1m-4 1h1m2 0h1m-3 1h1m2 0h1m-3 1h1m1 0h1m-2 1h1m1 0h1m-2 1h1m1 1h1"/><path stroke="#f0f" d="M24 11h2m-2 1h2"/><path stroke="#00f" d="M12 16h2m7 0h2m-13 1h2m7 0h2m-8 1h1m3 0h2m3 0h1m-12 1h2m7 0h2m-4 1h2"/></svg>