<svg xmlns="http://www.w3.org/2000/svg" width="32" height="32" shape-rendering="crispEdges" viewBox="0 -0.5 32 32"><path stroke="#000" d="M21 0h5m-6 1h1m5 0h1m-8 1h1m7 0h1m-9 1h1m7 0h1M12 4h2m5 0h1m7 0h1M11 5h1m2 0h2m4 0h1m5 0h1M11 6h1m4 0h2m3 0h5M10 7h1m7 0h4m3 0h2M10 8h1m8 0h1m1 0h1m3 0h1m1 0h1M9 9h1m8 0h1m2 0h1m3 0h1m2 0h1M9 10h1m8 0h1m3 0h3m3 0h1M8 11h1m9 0h1m9 0h1M8 12h1m9 0h1m9 0h2M7 13h1m11 0h1m7 0h1m2 0h2M7 14h1m12 0h7m4 0h1M6 15h1m16 0h1m6 0h1M6 16h1m16 0h1m6 0h1M5 17h1m23 0h1M5 18h1m23 0h1M4 19h1m23 0h1M3 20h1m24 0h1M0 21h3m24 0h1M0 22h1m26 0h1M1 23h1m24 0h1M2 24h1m23 0h1M3 25h2m20 0h1M5 26h2m17 0h2M7 27h2m14 0h2M9 28h2m6 0h7m-13 1h2m4 0h1m4 0h1m-10 1h4m3 0h2m-7 1h5"/><path stroke="teal" d="M21 1h5m-6 1h7m-6 1h6m-7 1h1m5 0h1m-6 1h5m-4 2h3m-5 1h1m2 0h2m1 0h1m-7 1h1m2 0h2m1 0h2m-8 1h2m3 0h3m-9 1h1m1 0h5m1 0h1m-9 1h2m5 0h2m-8 1h7"/><path stroke="#0ff" d="M20 3h1m0 1h5m-4 4h1m-4 1h1m2 0h1m-4 1h1m0 1h1m5 0h1m-6 1h5"/><path stroke="#fff" d="M12 5h1m0 1h1m1 0h1m-4 1h1m1 0h1m1 0h1m-6 1h1m1 0h1m1 0h1m1 0h1m-8 1h1m1 0h1m1 0h1m1 0h1m-6 1h1m1 0h1m1 0h1m1 0h1m-8 1h1m1 0h1m1 0h1m1 0h1m-8 1h1m1 0h1m1 0h1m1 0h1m1 0h1M8 13h1m1 0h1m1 0h1m1 0h1m1 0h1m1 0h1M9 14h1m1 0h1m1 0h1m1 0h1m1 0h1m1 0h1M8 15h1m1 0h1m1 0h1m1 0h1m1 0h1m1 0h1m1 0h1m1 0h1M7 16h1m1 0h1m1 0h1m1 0h1m1 0h1m1 0h1m1 0h1m1 0h1M6 17h1m1 0h1m1 0h1m1 0h1m1 0h1m1 0h1m1 0h1m1 0h1m1 0h1M7 18h1m1 0h1m1 0h1m1 0h1m1 0h1m1 0h1m1 0h1m1 0h1m1 0h1M6 19h1m1 0h1m1 0h1m1 0h1m1 0h1m1 0h1m1 0h1m1 0h1m1 0h1m1 0h1m1 0h1M5 20h1m1 0h1m1 0h1m1 0h1m1 0h1m1 0h1m1 0h1m1 0h1m1 0h1m1 0h1m1 0h1M4 21h1m1 0h1m1 0h1m1 0h1m1 0h1m1 0h1m1 0h1m1 0h1m1 0h1m1 0h1m1 0h1M1 22h1m1 0h1m1 0h1m1 0h1m1 0h1m1 0h1m1 0h1m1 0h1m1 0h1m1 0h1m1 0h1m1 0h1M2 23h1m1 0h1m1 0h1m1 0h1m1 0h1m1 0h1m1 0h1m1 0h1m1 0h1m1 0h1m1 0h1m1 0h1M5 24h1m1 0h1m1 0h1m1 0h1m1 0h1m1 0h1m1 0h1m1 0h1m1 0h1m1 0h1M6 25h1m1 0h1m1 0h1m1 0h1m1 0h1m1 0h1m1 0h1m1 0h1m1 0h1M7 26h1m1 0h1m1 0h1m1 0h1m1 0h1m1 0h1m1 0h1m1 0h1m-12 1h1m1 0h1m1 0h1m1 0h1m1 0h1m1 0h1m-10 1h1m1 0h1m1 0h1m-2 1h1m3 0h2"/><path stroke="#ff0" d="M13 5h1m-2 1h1m1 0h1m-4 1h1m1 0h1m1 0h1m1 0h1m-6 1h1m1 0h1m1 0h1m1 0h1m-8 1h1m1 0h1m1 0h1m1 0h1m-8 1h1m1 0h1m1 0h1m1 0h1m-8 1h1m1 0h1m1 0h1m1 0h1m1 0h1m-8 1h1m1 0h1m1 0h1m1 0h1m-8 1h1m1 0h1m1 0h1m1 0h1m1 0h1M8 14h1m1 0h1m1 0h1m1 0h1m1 0h1m1 0h1M7 15h1m1 0h1m1 0h1m1 0h1m1 0h1m1 0h1m1 0h1m1 0h1M8 16h1m1 0h1m1 0h1m1 0h1m1 0h1m1 0h1m1 0h1m1 0h1M7 17h1m1 0h1m1 0h1m1 0h1m1 0h1m1 0h1m1 0h1m1 0h1M6 18h1m1 0h1m1 0h1m1 0h1m1 0h1m1 0h1m1 0h1m1 0h1m1 0h1M5 19h1m1 0h1m1 0h1m1 0h1m1 0h1m1 0h1m1 0h1m1 0h1m1 0h1m1 0h1m1 0h1M4 20h1m1 0h1m1 0h1m1 0h1m1 0h1m1 0h1m1 0h1m1 0h1m1 0h1m1 0h1m1 0h1M3 21h1m1 0h1m1 0h1m1 0h1m1 0h1m1 0h1m1 0h1m1 0h1m1 0h1m1 0h1m1 0h1m1 0h1M2 22h1m1 0h1m1 0h1m1 0h1m1 0h1m1 0h1m1 0h1m1 0h1m1 0h1m1 0h1m1 0h1m1 0h1M3 23h1m1 0h1m1 0h1m1 0h1m1 0h1m1 0h1m1 0h1m1 0h1m1 0h1m1 0h1m1 0h1M4 24h1m1 0h1m1 0h1m1 0h1m1 0h1m1 0h1m1 0h1m1 0h1m1 0h1m1 0h1M5 25h1m1 0h1m1 0h1m1 0h1m1 0h1m1 0h1m1 0h1m1 0h1m1 0h1m1 0h1M8 26h1m1 0h1m1 0h1m1 0h1m1 0h1m1 0h1m1 0h1m1 0h1M9 27h1m1 0h1m1 0h1m1 0h1m1 0h1m1 0h1m-8 1h1m1 0h1m1 0h1m-4 1h1m1 0h1m4 0h1m-3 1h1"/><path stroke="silver" d="M28 13h1m-2 1h1m-4 1h1m1 0h1m1 0h1m-4 1h1m1 0h1m-4 1h1m1 0h1m-2 1h1m-5 9h1m-6 2h1"/><path stroke="olive" d="M29 13h1m-2 1h3m-6 1h1m1 0h1m1 0h1m-6 1h1m1 0h1m1 0h2m-7 1h1m1 0h1m1 0h2m-5 1h1m1 0h3m-2 1h1m-2 1h2m-2 1h1m-2 1h2m-2 1h1m-2 1h2m-2 1h1m-2 1h1"/><path stroke="gray" d="M3 24h1m18 3h1m-2 2h1m-5 1h1m1 0h1"/></svg>