<svg xmlns="http://www.w3.org/2000/svg" width="32" height="32" shape-rendering="crispEdges" viewBox="0 -0.5 32 32"><path stroke="#000" d="M0 0h27M0 1h1m7 0h1m17 0h1M0 2h1m7 0h1m17 0h1M0 3h1m1 0h5m1 0h1m17 0h1M0 4h1m7 0h1m17 0h1M0 5h1m7 0h1m17 0h1M0 6h1m1 0h4m2 0h1m17 0h1M0 7h1m7 0h1m17 0h1M0 8h1m7 0h1m17 0h1M0 9h1m1 0h5m1 0h1m17 0h1M0 10h1m7 0h1m17 0h1M0 11h1m7 0h1m17 0h1M0 12h1m1 0h29M0 13h1m3 0h1m25 0h1M0 14h1m3 0h1m25 0h1M0 15h1m1 0h3m23 0h1m1 0h1M0 16h1m3 0h1m23 0h1m1 0h1M0 17h1m3 0h1m9 0h1m2 0h3m8 0h1m1 0h1M0 18h1m1 0h3m9 0h1m2 0h1m2 0h9m1 0h1M0 19h1m3 0h1m9 0h4m12 0h1M0 20h1m3 0h1m1 0h9m2 0h1m10 0h1m1 0h1M0 21h1m1 0h3m12 0h1m10 0h1m1 0h1M0 22h1m3 0h1m12 0h3m8 0h1m1 0h1M0 23h1m3 0h1m12 0h1m2 0h9m1 0h1M0 24h1m1 0h3m12 0h1m12 0h1M0 25h1m3 0h1m12 0h1m10 0h1m1 0h1M0 26h1m3 0h1m12 0h1m10 0h1m1 0h1M0 27h5m12 0h3m8 0h1m1 0h1M4 28h1m15 0h9m1 0h1M4 29h1m25 0h1M4 30h27"/><path stroke="silver" d="M1 1h7M1 2h7M1 3h1m5 0h1M1 4h7M1 5h7M1 6h1m4 0h2M1 7h7M1 8h7M1 9h1m5 0h1m-7 1h7m-7 1h7m-7 1h1m-1 1h3m-3 1h3m-3 1h1m-1 1h3m25 0h1M1 17h3m25 0h1M1 18h1m13 0h1m2 0h2m9 0h1M1 19h3m14 0h1m2 0h9M1 20h3m11 0h2m1 0h1m10 0h1M1 21h1m5 0h9m2 0h1m10 0h1M1 22h3m25 0h1M1 23h3m14 0h2m9 0h1M1 24h1m16 0h1m2 0h9M1 25h3m14 0h1m10 0h1M1 26h3m14 0h1m10 0h1m-1 1h1m-12 1h2m9 0h1m-9 1h9"/><path stroke="#fff" d="M9 1h17M9 2h2m11 0h4M9 3h2m11 0h4M9 4h17M9 5h2m7 0h8M9 6h2m7 0h8M9 7h17M9 8h7m8 0h2M9 9h7m8 0h2M9 10h17M9 11h4m6 0h7M5 13h25M5 14h25M5 15h15m9 0h1M5 16h15M5 17h1m9 0h2M5 18h1m10 0h1M5 19h1m13 0h2M5 20h1m13 0h1M5 21h2m9 0h1m2 0h1M5 22h12M5 23h12M5 24h12m2 0h2M5 25h12m2 0h1M5 26h12m2 0h1M5 27h12M5 28h13M5 29h16"/><path stroke="gray" d="M27 1h1m-1 1h1m-1 1h1m-1 1h1m-1 1h1m-1 1h1m-1 1h1m-1 1h1m-1 1h1m-1 1h1m-1 1h1m3 2h1m-1 1h1m-1 1h1m-1 1h1m-1 1h1m-1 1h1m-1 1h1m-1 1h1m-1 1h1m-1 1h1m-1 1h1m-1 1h1m-1 1h1m-1 1h1m-1 1h1M1 28h3m27 0h1m-1 1h1m-1 1h1M5 31h27"/><path stroke="#00f" d="M11 2h10m-8 9h5"/><path stroke="navy" d="M21 2h1M11 3h11m-4 8h1"/><path stroke="#f0f" d="M11 5h6m-1 3h7"/><path stroke="purple" d="M17 5h1m-7 1h7m5 2h1m-8 1h8"/><path stroke="olive" d="M20 15h8m-8 1h1M6 17h8m6 0h1M6 18h1m-1 1h1m13 1h8m-8 1h1m-1 1h1m-1 3h8m-8 1h1m-1 1h1"/><path stroke="#ff0" d="M21 16h7m-7 1h7M7 18h7m-7 1h7m7 2h7m-7 1h7m-7 4h7m-7 1h7"/></svg>