<svg xmlns="http://www.w3.org/2000/svg" width="32" height="32" shape-rendering="crispEdges" viewBox="0 -0.5 32 32"><path stroke="#000" d="M7 0h12M4 1h3m3 0h1m8 0h3M2 2h2m7 0h4m7 0h2M1 3h1m22 0h1M0 4h1m2 0h1m6 0h1m6 0h1m7 0h1M0 5h1m3 0h4m3 0h4m3 0h4m3 0h1M0 6h1m24 0h1M1 7h1m8 0h1m13 0h1M2 8h2m7 0h4m7 0h2M2 9h1m1 0h2m14 0h2m1 0h3M2 10h3m1 0h14m1 0h7M2 11h1m2 0h3m1 0h2m1 0h2m1 0h2m1 0h3m2 0h1m1 0h1m1 0h3M1 12h2m2 0h1m2 0h10m2 0h1m2 0h1m2 0h3m1 0h1M0 13h1m1 0h1m2 0h1m2 0h1m3 0h1m3 0h1m3 0h1m2 0h1m2 0h1m2 0h3M0 14h1m1 0h2m1 0h1m2 0h1m3 0h1m3 0h1m3 0h1m1 0h2m2 0h1m3 0h2M0 15h1m1 0h1m1 0h3m1 0h1m3 0h1m3 0h1m2 0h3m1 0h1m2 0h1m4 0h1M0 16h1m2 0h2m1 0h14m1 0h2m1 0h3m3 0h2M1 17h1m3 0h3m1 0h2m1 0h2m1 0h2m1 0h3m3 0h4m1 0h1m1 0h1M2 18h2m4 0h10m4 0h2m2 0h6M4 19h3m12 0h3m3 0h2m1 0h2m1 0h1M7 20h12m4 0h2m1 0h3m2 0h1m-10 1h4m2 0h1m2 0h1m-10 1h1m1 0h1m3 0h1m2 0h1m-10 1h3m3 0h1m1 0h2m-10 1h2m1 0h1m1 0h3m1 0h1m-10 1h1m1 0h3m1 0h3m-9 1h1m2 0h4m-7 1h1m2 0h2m-5 1h2m1 0h1m-4 1h4m-3 1h1m1 0h1m-2 1h2"/><path stroke="#fff" d="M7 1h1m7 0h1M4 2h1M2 3h1m1 0h4m3 0h4m3 0h4M1 4h1m6 0h1m6 0h1m6 0h1M1 5h1m0 1h2m7 0h4m7 0h1M4 7h3m8 0h1m4 0h2M7 8h3m5 0h5M2 17h2m0 1h3m0 1h11"/><path stroke="silver" d="M8 1h2m6 0h2M5 2h5m5 0h6M3 3h1m4 0h3m4 0h3m4 0h1M2 4h1m6 0h1m6 0h1m6 0h1M2 5h1m5 0h2m5 0h2m5 0h2M1 6h1m2 0h7m4 0h7M2 7h2m3 0h3m6 0h4M4 8h3M3 9h1m3 0h12M5 10h1m2 1h1m2 0h1m2 0h1m11 0h1m2 1h1M1 15h1m1 0h1m-3 1h1m3 0h1m2 1h1m2 0h1m2 0h1m7 0h2m6 0h1m-12 1h3m-4 1h1m8 0h1m-3 1h1m-3 2h1m0 2h1m5 0h1m-4 1h1m-4 5h1"/><path stroke="gray" d="M11 1h4m3 0h1m-9 1h1m10 0h1m1 1h1M4 4h4m3 0h4m3 0h4m2 0h1M3 5h1m6 0h1m6 0h1m6 0h1m-2 1h2M11 7h4m7 0h2M10 8h1m9 0h2M6 9h1m12 0h1m2 0h1m-3 1h1m-4 1h1M1 13h1m-1 1h1m20 1h1M2 16h1m17 0h1m2 0h1M4 17h1m12 0h1m3 0h1M7 18h1m10 0h1"/><path stroke="#0ff" d="M3 11h1m-1 1h1m2 0h1m-1 1h1m3 0h1m3 0h1m13 0h1m-19 1h1m3 0h1m13 0h1m-1 1h1m0 5h1m-4 1h1m2 0h1m-4 1h1m-1 1h1m-4 2h1m-1 1h1"/><path stroke="teal" d="M4 11h1m16 0h2m1 0h1M4 12h1m2 0h1m10 0h2m1 0h2m1 0h2M3 13h2m2 0h1m1 0h1m1 0h1m1 0h1m1 0h1m1 0h3m1 0h2m1 0h2m1 0h1M4 14h1m1 0h2m1 0h1m1 0h1m1 0h1m1 0h1m1 0h3m1 0h1m2 0h2m1 0h1m1 0h1M7 15h1m1 0h3m1 0h3m1 0h2m5 0h2m1 0h1m1 0h2m-4 1h3m-2 1h1m1 2h1m-1 1h1m-4 1h1m2 0h1m-6 1h1m1 0h1m1 0h2m-6 1h1m1 0h1m1 0h1m-4 1h1m-3 2h1m-2 1h2m-1 1h1"/></svg>