<svg xmlns="http://www.w3.org/2000/svg" viewBox="0 -0.5 32 32" shape-rendering="crispEdges">
<path stroke="#000000" d="M0 0h1M9 2h2M18 2h1M8 3h1M11 3h2M17 3h1M19 3h1M8 4h1M13 4h2M16 4h1M20 4h1M7 5h1M15 5h1M21 5h1M7 6h1M14 6h1M22 6h1M6 7h1M13 7h1M23 7h1M25 7h2M6 8h1M12 8h1M23 8h2M26 8h1M5 9h1M11 9h1M21 9h2M27 9h1M5 10h1M10 10h1M19 10h2M27 10h1M4 11h1M9 11h1M17 11h2M28 11h1M4 12h1M8 12h1M15 12h2M28 12h1M3 13h1M7 13h1M13 13h2M29 13h1M3 14h1M6 14h1M11 14h2M29 14h1M2 15h1M5 15h1M9 15h2M30 15h1M2 16h1M4 16h1M7 16h2M30 16h1M1 17h1M3 17h1M7 17h1M31 17h1M1 18h1M4 18h1M8 18h1M30 18h2M0 19h1M5 19h1M8 19h1M28 19h2M0 20h2M6 20h1M9 20h1M26 20h2M2 21h2M7 21h1M9 21h1M24 21h2M4 22h2M8 22h1M10 22h1M22 22h2M6 23h2M9 23h2M20 23h2M8 24h2M11 24h1M18 24h2M10 25h2M16 25h2M12 26h1M14 26h2M12 27h2" />
<path stroke="#c0c0c0" d="M0 0h1M9 3h2M18 3h1M9 4h4M17 4h1M19 4h1M8 5h6M16 5h1M18 5h1M20 5h1M8 6h5M15 6h1M17 6h1M19 6h1M21 6h1M7 7h5M14 7h1M16 7h1M18 7h1M20 7h1M22 7h1M7 8h4M13 8h1M15 8h1M17 8h1M19 8h1M6 9h4M12 9h1M14 9h1M16 9h1M18 9h1M6 10h3M11 10h1M13 10h1M15 10h1M24 10h1M5 11h3M10 11h1M12 11h1M14 11h1M26 11h1M5 12h2M9 12h1M11 12h1M23 12h1M4 13h2M8 13h1M10 13h1M25 13h1M4 14h1M7 14h1M3 15h1M6 15h1M5 16h1M4 17h1M2 18h1M5 18h1M1 19h3M6 19h1M2 20h3M7 20h1M4 21h2M6 22h1" />
<path stroke="#ffffff" d="M0 0h1M18 4h1M17 5h1M19 5h1M16 6h1M18 6h1M20 6h1M15 7h1M17 7h1M19 7h1M21 7h1M14 8h1M16 8h1M18 8h1M20 8h1M25 8h1M13 9h1M15 9h1M17 9h1M23 9h4M12 10h1M14 10h1M16 10h1M21 10h3M26 10h1M11 11h1M13 11h1M19 11h4M27 11h1M10 12h1M12 12h1M17 12h6M27 12h1M9 13h1M15 13h9M26 13h3M8 14h1M13 14h16M11 15h19M9 16h3M14 16h7M23 16h7M5 17h1M8 17h2M12 17h7M21 17h10M6 18h1M9 18h4M14 18h3M19 18h3M23 18h7M9 19h2M13 19h7M22 19h6M10 20h8M20 20h6M10 21h14M11 22h11M11 23h9M12 24h6M12 25h4M13 26h1" />
<path stroke="#808080" d="M0 0h1M14 5h1M13 6h1M12 7h1M11 8h1M21 8h2M10 9h1M19 9h2M9 10h1M17 10h2M25 10h1M8 11h1M15 11h2M23 11h1M7 12h1M13 12h2M26 12h1M6 13h1M11 13h2M24 13h1M5 14h1M9 14h2M4 15h1M7 15h2M3 16h1M6 16h1M2 17h1M6 17h1M3 18h1M7 18h1M4 19h1M7 19h1M5 20h1M8 20h1M6 21h1M8 21h1M7 22h1M9 22h1M8 23h1M10 24h1" />
<path stroke="#ff00ff" d="M0 0h1M24 11h2M24 12h2" />
<path stroke="#0000ff" d="M0 0h1M12 16h2M21 16h2M10 17h2M19 17h2M13 18h1M17 18h2M22 18h1M11 19h2M20 19h2M18 20h2" />
</svg>