<svg xmlns="http://www.w3.org/2000/svg" viewBox="0 -0.5 32 32" shape-rendering="crispEdges">
<path stroke="#000000" d="M0 0h1M21 0h5M20 1h1M26 1h1M19 2h1M27 2h1M19 3h1M27 3h1M12 4h2M19 4h1M27 4h1M11 5h1M14 5h2M20 5h1M26 5h1M11 6h1M16 6h2M21 6h5M10 7h1M18 7h4M25 7h2M10 8h1M19 8h1M21 8h1M25 8h1M27 8h1M9 9h1M18 9h1M21 9h1M25 9h1M28 9h1M9 10h1M18 10h1M22 10h3M28 10h1M8 11h1M18 11h1M28 11h1M8 12h1M18 12h1M28 12h2M7 13h1M19 13h1M27 13h1M30 13h2M7 14h1M20 14h7M31 14h1M6 15h1M23 15h1M30 15h1M6 16h1M23 16h1M30 16h1M5 17h1M29 17h1M5 18h1M29 18h1M4 19h1M28 19h1M3 20h1M28 20h1M0 21h3M27 21h1M0 22h1M27 22h1M1 23h1M26 23h1M2 24h1M26 24h1M3 25h2M25 25h1M5 26h2M24 26h2M7 27h2M23 27h2M9 28h2M17 28h7M11 29h2M17 29h1M22 29h1M13 30h4M20 30h2M15 31h5" />
<path stroke="#008080" d="M0 0h1M21 1h5M20 2h7M21 3h6M20 4h1M26 4h1M21 5h5M22 7h3M20 8h1M23 8h2M26 8h1M20 9h1M23 9h2M26 9h2M20 10h2M25 10h3M19 11h1M21 11h5M27 11h1M19 12h2M26 12h2M20 13h7" />
<path stroke="#00ffff" d="M0 0h1M20 3h1M21 4h5M22 8h1M19 9h1M22 9h1M19 10h1M20 11h1M26 11h1M21 12h5" />
<path stroke="#ffffff" d="M0 0h1M12 5h1M13 6h1M15 6h1M12 7h1M14 7h1M16 7h1M11 8h1M13 8h1M15 8h1M17 8h1M10 9h1M12 9h1M14 9h1M16 9h1M11 10h1M13 10h1M15 10h1M17 10h1M10 11h1M12 11h1M14 11h1M16 11h1M9 12h1M11 12h1M13 12h1M15 12h1M17 12h1M8 13h1M10 13h1M12 13h1M14 13h1M16 13h1M18 13h1M9 14h1M11 14h1M13 14h1M15 14h1M17 14h1M19 14h1M8 15h1M10 15h1M12 15h1M14 15h1M16 15h1M18 15h1M20 15h1M22 15h1M7 16h1M9 16h1M11 16h1M13 16h1M15 16h1M17 16h1M19 16h1M21 16h1M6 17h1M8 17h1M10 17h1M12 17h1M14 17h1M16 17h1M18 17h1M20 17h1M22 17h1M7 18h1M9 18h1M11 18h1M13 18h1M15 18h1M17 18h1M19 18h1M21 18h1M23 18h1M6 19h1M8 19h1M10 19h1M12 19h1M14 19h1M16 19h1M18 19h1M20 19h1M22 19h1M24 19h1M26 19h1M5 20h1M7 20h1M9 20h1M11 20h1M13 20h1M15 20h1M17 20h1M19 20h1M21 20h1M23 20h1M25 20h1M4 21h1M6 21h1M8 21h1M10 21h1M12 21h1M14 21h1M16 21h1M18 21h1M20 21h1M22 21h1M24 21h1M1 22h1M3 22h1M5 22h1M7 22h1M9 22h1M11 22h1M13 22h1M15 22h1M17 22h1M19 22h1M21 22h1M23 22h1M2 23h1M4 23h1M6 23h1M8 23h1M10 23h1M12 23h1M14 23h1M16 23h1M18 23h1M20 23h1M22 23h1M24 23h1M5 24h1M7 24h1M9 24h1M11 24h1M13 24h1M15 24h1M17 24h1M19 24h1M21 24h1M23 24h1M6 25h1M8 25h1M10 25h1M12 25h1M14 25h1M16 25h1M18 25h1M20 25h1M22 25h1M7 26h1M9 26h1M11 26h1M13 26h1M15 26h1M17 26h1M19 26h1M21 26h1M10 27h1M12 27h1M14 27h1M16 27h1M18 27h1M20 27h1M11 28h1M13 28h1M15 28h1M14 29h1M18 29h2" />
<path stroke="#ffff00" d="M0 0h1M13 5h1M12 6h1M14 6h1M11 7h1M13 7h1M15 7h1M17 7h1M12 8h1M14 8h1M16 8h1M18 8h1M11 9h1M13 9h1M15 9h1M17 9h1M10 10h1M12 10h1M14 10h1M16 10h1M9 11h1M11 11h1M13 11h1M15 11h1M17 11h1M10 12h1M12 12h1M14 12h1M16 12h1M9 13h1M11 13h1M13 13h1M15 13h1M17 13h1M8 14h1M10 14h1M12 14h1M14 14h1M16 14h1M18 14h1M7 15h1M9 15h1M11 15h1M13 15h1M15 15h1M17 15h1M19 15h1M21 15h1M8 16h1M10 16h1M12 16h1M14 16h1M16 16h1M18 16h1M20 16h1M22 16h1M7 17h1M9 17h1M11 17h1M13 17h1M15 17h1M17 17h1M19 17h1M21 17h1M6 18h1M8 18h1M10 18h1M12 18h1M14 18h1M16 18h1M18 18h1M20 18h1M22 18h1M5 19h1M7 19h1M9 19h1M11 19h1M13 19h1M15 19h1M17 19h1M19 19h1M21 19h1M23 19h1M25 19h1M4 20h1M6 20h1M8 20h1M10 20h1M12 20h1M14 20h1M16 20h1M18 20h1M20 20h1M22 20h1M24 20h1M3 21h1M5 21h1M7 21h1M9 21h1M11 21h1M13 21h1M15 21h1M17 21h1M19 21h1M21 21h1M23 21h1M25 21h1M2 22h1M4 22h1M6 22h1M8 22h1M10 22h1M12 22h1M14 22h1M16 22h1M18 22h1M20 22h1M22 22h1M24 22h1M3 23h1M5 23h1M7 23h1M9 23h1M11 23h1M13 23h1M15 23h1M17 23h1M19 23h1M21 23h1M23 23h1M4 24h1M6 24h1M8 24h1M10 24h1M12 24h1M14 24h1M16 24h1M18 24h1M20 24h1M22 24h1M5 25h1M7 25h1M9 25h1M11 25h1M13 25h1M15 25h1M17 25h1M19 25h1M21 25h1M23 25h1M8 26h1M10 26h1M12 26h1M14 26h1M16 26h1M18 26h1M20 26h1M22 26h1M9 27h1M11 27h1M13 27h1M15 27h1M17 27h1M19 27h1M12 28h1M14 28h1M16 28h1M13 29h1M15 29h1M20 29h1M18 30h1" />
<path stroke="#c0c0c0" d="M0 0h1M28 13h1M27 14h1M24 15h1M26 15h1M28 15h1M25 16h1M27 16h1M24 17h1M26 17h1M25 18h1M21 27h1M16 29h1" />
<path stroke="#808000" d="M0 0h1M29 13h1M28 14h3M25 15h1M27 15h1M29 15h1M24 16h1M26 16h1M28 16h2M23 17h1M25 17h1M27 17h2M24 18h1M26 18h3M27 19h1M26 20h2M26 21h1M25 22h2M25 23h1M24 24h2M24 25h1M23 26h1" />
<path stroke="#808080" d="M0 0h1M3 24h1M22 27h1M21 29h1M17 30h1M19 30h1" />
</svg>