<svg xmlns="http://www.w3.org/2000/svg" width="32" height="32" shape-rendering="crispEdges" viewBox="0 -0.5 32 32"><path stroke="#000" d="M1 6h30M1 7h1m28 0h1M1 8h1m28 0h1M1 9h1m28 0h1M1 10h1m28 0h1M1 11h1m28 0h1M1 12h1m28 0h1M1 13h1m28 0h1M1 14h1m28 0h1M1 15h1m28 0h1M1 16h1m28 0h1M1 17h1m28 0h1M1 18h1m28 0h1M1 19h1m28 0h1M1 20h1m28 0h1M1 21h1m28 0h1M1 22h1m28 0h1M1 23h1m28 0h1M1 24h1m28 0h1M1 25h1m28 0h1M1 26h1m28 0h1M1 27h1m28 0h1M1 28h30"/><path stroke="#fff" d="M2 7h28M2 8h2m1 0h1m1 0h4m1 0h4m1 0h4m1 0h4m1 0h3M2 9h4m1 0h4m1 0h4m1 0h4m1 0h4m1 0h3M2 10h2m1 0h1m1 0h4m1 0h4m1 0h4m1 0h4m1 0h3M2 11h4m1 0h4m1 0h4m1 0h4m1 0h4m1 0h3M2 12h2m1 0h1m1 0h4m1 0h4m1 0h4m1 0h4m1 0h3M2 13h4m1 0h4m1 0h4m1 0h4m1 0h4m1 0h3M2 14h2m1 0h1m1 0h4m1 0h4m1 0h4m1 0h4m1 0h3M2 15h4m1 0h4m1 0h4m1 0h1m1 0h2m1 0h4m1 0h3M2 16h2m1 0h1m1 0h4m1 0h4m2 0h1m1 0h1m1 0h4m1 0h3M2 17h4m1 0h4m1 0h4m1 0h2m1 0h1m1 0h4m1 0h3M2 18h2m1 0h1m1 0h4m1 0h3m2 0h3m2 0h4m1 0h3M2 19h4m1 0h3m3 0h1m1 0h1m1 0h3m2 0h4m1 0h1m1 0h1M2 20h2m1 0h1m1 0h3m2 0h1m1 0h2m1 0h4m1 0h4m2 0h2M2 21h4m1 0h2m1 0h1m1 0h4m1 0h4m1 0h4m1 0h3M2 22h2m1 0h1m1 0h2m1 0h1m1 0h4m1 0h4m2 0h2m2 0h3M2 23h4m1 0h1m1 0h2m1 0h4m1 0h4m2 0h1m1 0h1m1 0h3M2 24h2m1 0h1m1 0h1m1 0h2m1 0h4m1 0h4m1 0h1m1 0h2m1 0h3M2 25h4m2 0h3m1 0h4m1 0h4m1 0h4m1 0h3M2 26h2m1 0h1m23 0h1M2 27h28"/><path stroke="gray" d="M31 7h1m-1 1h1m-1 1h1m-1 1h1m-1 1h1m-1 1h1m-1 1h1m-1 1h1m-1 1h1m-1 1h1m-1 1h1m-1 1h1m-1 1h1m-1 1h1m-1 1h1m-1 1h1m-1 1h1m-1 1h1m-1 1h1m-1 1h1m-1 1h1m-1 1h1M2 29h30"/><path stroke="#00f" d="M4 8h1m1 0h1m4 0h1m4 0h1m4 0h1m4 0h1M6 9h1m4 0h1m4 0h1m4 0h1m4 0h1M4 10h1m1 0h1m4 0h1m4 0h1m4 0h1m4 0h1M6 11h1m4 0h1m4 0h1m4 0h1m4 0h1M4 12h1m1 0h1m4 0h1m4 0h1m4 0h1m4 0h1M6 13h1m4 0h1m4 0h1m4 0h1m4 0h1M4 14h1m1 0h1m4 0h1m4 0h1m4 0h1m4 0h1M6 15h1m4 0h1m4 0h1m4 0h1m4 0h1M4 16h1m1 0h1m4 0h1m4 0h1m4 0h1m4 0h1M6 17h1m4 0h1m9 0h1m4 0h1M4 18h1m1 0h1m9 0h1m4 0h1m4 0h1M6 19h1m4 0h1m4 0h1m4 0h1m4 0h1M4 20h1m1 0h1m4 0h1m4 0h1m9 0h1M6 21h1m4 0h1m4 0h1M4 22h1m1 0h1m4 0h1m4 0h1m4 0h1m4 0h1M6 23h1m4 0h1m4 0h1m4 0h1m4 0h1M4 24h1m1 0h1m4 0h1m4 0h1m4 0h1m4 0h1M6 25h1m4 0h1m4 0h1m4 0h1m4 0h1M4 26h1m2 0h22"/><path stroke="#f0f" d="M18 15h1m-2 1h1m1 0h1m-4 1h1m2 0h1m-9 1h1m3 0h1m4 0h1m-11 1h1m1 0h1m1 0h1m5 0h1m7 0h1m-19 1h1m2 0h1m7 0h1m5 0h1M9 21h1m11 0h1m4 0h1M9 22h1m12 0h1m2 0h1M8 23h1m13 0h1m1 0h1M8 24h1m14 0h1M7 25h1m-2 1h1"/></svg>