<svg xmlns="http://www.w3.org/2000/svg" viewBox="0 -0.5 16 16" shape-rendering="crispEdges">
<path stroke="#000000" d="M0 0h1M8 1h6M7 2h1M14 2h1M6 3h1M8 3h1M1 4h5M7 4h1M9 4h1M1 5h1M4 5h1M6 5h1M8 5h1M10 5h1M14 5h1M1 6h1M3 6h1M5 6h1M7 6h1M9 6h1M11 6h3M1 7h1M3 7h2M8 7h1M10 7h1M12 7h1M1 8h1M9 8h1M12 8h1M1 9h1M12 9h1M1 10h1M3 10h2M6 10h5M12 10h1M1 11h1M12 11h1M1 12h1M3 12h2M6 12h5M12 12h1M1 13h1M12 13h1M1 14h12" />
<path stroke="#000080" d="M0 0h1M15 1h1M15 2h1M15 3h1M15 4h1M15 5h1M15 6h1" />
<path stroke="#c0c0c0" d="M0 0h1M8 2h6M7 3h1M9 3h6M6 4h1M8 4h1M10 4h5M5 5h1M7 5h1M9 5h1M11 5h3M4 6h1M8 6h1M10 6h1M9 7h1" />
<path stroke="#ffffff" d="M0 0h1M2 5h2M2 6h1M6 6h1M2 7h1M5 7h3M11 7h1M2 8h7M10 8h2M2 9h10M2 10h1M5 10h1M11 10h1M2 11h10M2 12h1M5 12h1M11 12h1M2 13h10" />
</svg>