<svg xmlns="http://www.w3.org/2000/svg" viewBox="0 -0.5 32 32" shape-rendering="crispEdges">
<path stroke="#000000" d="M0 0h1M5 3h1M26 3h1M6 4h1M13 4h6M25 4h1M7 5h1M11 5h10M24 5h1M11 6h2M19 6h2M9 7h2M21 7h2M9 8h2M21 8h2M8 9h2M22 9h2M8 10h2M22 10h2M8 11h2M22 11h2M8 12h2M22 12h2M3 13h3M8 13h2M22 13h2M26 13h3M8 14h2M22 14h2M9 15h2M21 15h2M9 16h2M21 16h2M10 17h2M20 17h2M10 18h2M20 18h2M11 19h2M19 19h2M11 20h2M19 20h2M11 21h2M19 21h2M24 21h1M8 22h1M12 22h1M19 22h1M25 22h1M7 23h1M12 23h2M18 23h2M26 23h1M6 24h1M12 24h2M18 24h2M27 24h1M5 25h1M12 25h2M18 25h2M12 26h2M18 26h2M13 27h2M17 27h2M13 28h6M15 29h2" />
<path stroke="#ffffff" d="M0 0h1M13 6h2M11 7h4M11 8h3M10 9h3M10 10h3M10 11h2M10 12h2M10 13h3M10 14h3M11 15h3M11 16h3M12 17h3M12 18h3M13 19h2M13 20h2M13 21h2M13 22h2M14 23h1M14 24h1M14 25h1M14 26h1" />
<path stroke="#ffff00" d="M0 0h1M15 6h4M15 7h6M14 8h7M13 9h9M13 10h9M12 11h10M12 12h10M14 13h4M19 13h3M14 14h4M19 14h3M15 15h2M18 15h3M15 16h2M18 16h3M17 17h3M16 18h4M16 19h3M16 20h3M16 21h3M16 22h3" />
<path stroke="#808080" d="M0 0h1M13 13h1M18 13h1M13 14h1M18 14h1M14 15h1M17 15h1M14 16h1M17 16h1M15 17h2M15 18h1M15 19h1M15 20h1M15 21h1M15 22h1M17 23h1M17 24h1M17 25h1M17 26h1" />
<path stroke="#c0c0c0" d="M0 0h1M15 23h2M15 24h2M15 25h2M15 26h2M15 27h2" />
</svg>