<svg xmlns="http://www.w3.org/2000/svg" width="32" height="32" shape-rendering="crispEdges" viewBox="0 -0.5 32 32"><path stroke="gray" d="M7 2h15M7 3h1m13 0h1M7 4h1m13 0h2M7 5h1m13 0h1m1 0h1M7 6h1m13 0h1m2 0h1M7 7h1m13 0h1M7 8h1M7 9h1m4 0h1m-6 1h1m12 0h1m-8 1h1m4 0h2m-7 1h1m2 0h2m-5 1h1m1 0h1m-3 1h1m-1 1h1m-9 1h1m4 0h1m2 0h1m1 0h5m-7 1h1m-1 1h1m-1 1h1m1 0h1m-3 1h1m2 0h2M7 21h1m5 0h1m4 0h2M7 22h1m4 0h1m7 0h1M7 23h1m-1 1h1m-1 1h1m-1 1h1m-1 1h1m-1 1h1"/><path stroke="#fff" d="M8 3h13M8 4h13M8 5h13m1 0h1M8 6h13m1 0h2M8 7h13M8 8h2m2 0h13M8 9h1m4 0h12m-11 1h6m1 0h4M8 11h1m3 0h1m2 0h3m2 0h5M7 12h1m3 0h2m2 0h1m2 0h7M6 13h1m1 0h1m2 0h2m3 0h9M4 14h1m2 0h1m3 0h2m3 0h9M6 15h1m1 0h1m3 0h1m3 0h9M4 16h1m2 0h1m4 0h1m7 0h5M6 17h1m1 0h1m2 0h2m3 0h9M7 18h1m3 0h2m3 0h9M8 19h1m2 0h2m3 0h9m-14 1h2m5 0h7m-9 1h2m2 0h5M8 22h1m7 0h4m1 0h4M8 23h2m6 0h9M8 24h3m4 0h10M8 25h4m2 0h11M8 26h17M8 27h17"/><path stroke="#000" d="M22 3h1m0 1h1m0 1h1m0 1h1m-4 1h5m-1 1h1M11 9h1m14 0h1m-17 1h1m15 0h1m-1 1h1M9 12h1m16 0h1M9 13h1m16 0h1M9 14h2m15 0h1M9 15h1m1 0h1m14 0h1M9 16h1m1 0h1m14 0h1M3 17h1m5 0h2m15 0h1M4 18h2m3 0h1m16 0h1M6 19h1m2 0h1m16 0h1M7 20h1m18 0h1M8 21h1m1 0h1m15 0h1M9 22h1m1 0h1m14 0h1m-17 1h1m15 0h1m-1 1h1m-1 1h1m-1 1h1m-1 1h1m-1 1h1M7 29h20"/><path stroke="teal" d="M10 8h2M9 9h1m-2 1h1m-2 1h1m1 0h2m-5 1h1m-3 1h2m-3 1h1m1 0h1m-3 1h1m1 0h1m-3 1h1m0 1h2m3 3h2m0 3h1"/><path stroke="silver" d="M25 8h1m-1 1h1m-15 1h3m11 0h1m-15 1h1m2 0h1m10 0h1m-16 1h1m3 0h1m10 0h1m-16 1h1m3 0h1m10 0h1m-12 1h2m9 0h1m-16 1h1m3 0h2m9 0h1m-12 1h1m10 0h1m-12 1h2m9 0h1m-16 1h1m3 0h2m9 0h1M5 19h1m4 0h1m3 0h1m10 0h1M6 20h1m7 0h2m9 0h1m-15 1h2m1 0h2m9 0h1m-13 1h3m9 0h1m-14 1h4m9 0h1m-15 1h4m10 0h1m-14 1h2m11 0h1m-1 1h1m-1 1h1M8 28h18"/><path stroke="#0ff" d="M10 9h1m-2 1h1m-2 2h1m-2 1h1m-2 1h1m1 0h1m-5 1h1m2 0h1m-2 1h1m1 0h1m-2 1h1m-2 1h1m1 0h1m-2 1h1m0 1h1m0 1h1m0 1h1"/></svg>