<svg xmlns="http://www.w3.org/2000/svg" width="32" height="32" shape-rendering="crispEdges" viewBox="0 -0.5 32 32"><path stroke="gray" d="M10 2h15M10 3h1m13 0h1M10 4h1m13 0h2M10 5h1m13 0h1m1 0h1M10 6h1m13 0h1m2 0h1M10 7h1m13 0h1M10 8h1m-1 1h1m-1 1h1m-1 1h1m-1 1h1m13 1h1m-8 1h2m4 0h2m-4 1h1m2 0h1m-6 1h2m3 0h1m-6 1h2m1 0h1m1 0h1m-4 1h2m1 0h1m-2 1h2m-1 1h1m-15 1h1m-1 1h1m-1 1h1m-1 1h1m-1 1h1m-1 1h1m-1 1h1m-1 1h1"/><path stroke="#fff" d="M11 3h13M11 4h13M11 5h13m1 0h1M11 6h13m1 0h2M11 7h13M11 8h17M11 9h17m-17 1h17m-17 1h17m-17 1h17m-13 1h9m1 0h3m-12 1h1m2 0h3m3 0h3m-9 1h1m2 0h1m2 0h1m1 0h1m-7 1h1m5 0h1m-1 1h1m-1 1h1m-1 1h1m-10 1h1m2 0h1m5 0h1m-10 1h6m3 0h1m-10 1h8m1 0h1m-17 1h17m-17 1h17m-17 1h17m-17 1h17m-17 1h17"/><path stroke="#000" d="M25 3h1m0 1h1m0 1h1m0 1h1m-4 1h5m-1 1h1m-1 1h1m-1 1h1m-1 1h1m-1 1h1m-1 1h1M5 14h1m5 0h1m3 0h1m13 0h1M4 15h2m5 0h1m3 0h1m2 0h1m10 0h1M3 16h1m1 0h6m4 0h1m2 0h1m10 0h1m-15 1h2m1 0h1m10 0h1m-19 1h1m1 0h1m1 0h1m1 0h2m10 0h1m-15 1h1m13 0h1M5 20h11m13 0h1m-1 1h1m-1 1h1m-1 1h1m-1 1h1m-1 1h1m-1 1h1m-1 1h1m-1 1h1m-20 1h20"/><path stroke="silver" d="M28 8h1m-1 1h1m-1 1h1m-1 1h1m-1 1h1m-1 1h1m-7 1h1m5 0h1m-9 1h1m5 0h1m1 0h1m-12 1h1m5 0h1m1 0h2m1 0h1m-4 1h2m1 0h1m-13 1h1m2 0h2m2 0h1m1 0h2m1 0h1m-13 1h7m2 0h2m1 0h1m-13 1h2m1 0h2m1 0h2m1 0h2m1 0h1M7 21h3m1 0h7m6 0h3m1 0h1M7 22h3m1 0h7m8 0h1m1 0h1m-1 1h1m-1 1h1m-1 1h1m-1 1h1m-1 1h1m-18 1h18"/><path stroke="teal" d="M3 12h1m-1 1h2m1 0h9M3 14h1m6 0h1m3 0h1M3 15h1m2 0h5m3 0h1m1 0h1m-3 1h1M5 17h1m8 0h1m2 0h1M5 18h1m8 0h1M5 19h10"/><path stroke="#0ff" d="M6 14h4m2 0h2m-2 1h2m3 0h1m-7 1h3m2 0h1M6 17h8m-7 1h4m1 0h1"/><path stroke="#ff0" d="M23 15h1m-2 1h1m-2 1h1m1 0h1"/><path stroke="red" d="M6 18h1"/></svg>