<svg xmlns="http://www.w3.org/2000/svg" viewBox="0 -0.5 16 16" shape-rendering="crispEdges">
<path stroke="#808080" d="M0 0h1M2 0h10M2 1h1M12 1h1M2 2h1M13 2h1M2 3h1M2 4h1M2 5h1M2 6h1M2 7h1M2 8h1M2 9h1M2 10h1M2 11h1M2 12h1M2 13h1M2 14h1" />
<path stroke="#ffffff" d="M0 0h1M3 1h8M3 2h8M12 2h1M3 3h3M8 3h3M3 4h3M10 4h3M3 5h3M7 5h1M10 5h3M3 6h3M7 6h2M10 6h3M3 7h3M7 7h2M10 7h3M3 8h2M7 8h2M10 8h3M3 9h1M7 9h2M10 9h3M3 10h1M6 10h2M10 10h3M3 11h4M10 11h3M3 12h4M9 12h4M3 13h10" />
<path stroke="#c0c0c0" d="M0 0h1M11 1h1M11 2h1M13 4h1M13 5h1M13 6h1M13 7h1M13 8h1M13 9h1M13 10h1M13 11h1M13 12h1M13 13h1M3 14h11" />
<path stroke="#800080" d="M0 0h1M6 3h2M6 4h4M6 5h1M8 5h2M6 6h1M9 6h1M6 7h1M9 7h1M5 8h2M9 8h1M4 9h3M9 9h1M4 10h2M8 10h2M7 11h3M7 12h2" />
<path stroke="#000000" d="M0 0h1M11 3h4M14 4h1M14 5h1M14 6h1M14 7h1M14 8h1M14 9h1M14 10h1M14 11h1M14 12h1M14 13h1M14 14h1M2 15h13" />
</svg>