<svg xmlns="http://www.w3.org/2000/svg" width="32" height="32" shape-rendering="crispEdges" viewBox="0 -0.5 32 32"><path stroke="gray" d="M8 2h15M8 3h1m13 0h1M8 4h1m13 0h2M8 5h1m13 0h1m1 0h1M8 6h1m13 0h1m2 0h1M8 7h1m13 0h1M8 8h1M8 9h1m4 0h1m-6 1h1m12 0h1m-8 1h1m4 0h2m-7 1h1m2 0h2m-5 1h1m1 0h1m-3 1h1m-1 1h1m-4 1h1m2 0h1m1 0h5m-7 1h1m-1 1h1m-1 1h1m1 0h1m-3 1h1m2 0h2M8 21h1m5 0h1m4 0h2M8 22h1m4 0h1m7 0h1M8 23h1m-1 1h1m-1 1h1m-1 1h1m-1 1h1m-1 1h1"/><path stroke="#fff" d="M9 3h13M9 4h13M9 5h13m1 0h1M9 6h13m1 0h2M9 7h13M9 8h2m2 0h13M9 9h1m4 0h12m-11 1h6m1 0h4m-13 1h1m2 0h3m2 0h5m-14 1h2m2 0h1m2 0h7M9 13h1m2 0h2m3 0h9M8 14h1m3 0h2m3 0h9M7 15h1m1 0h1m3 0h1m3 0h9M8 16h1m4 0h1m7 0h5M7 17h1m1 0h1m2 0h2m3 0h9M8 18h1m3 0h2m3 0h9M9 19h1m2 0h2m3 0h9m-14 1h2m5 0h7m-9 1h2m2 0h5M9 22h1m7 0h4m1 0h4M9 23h2m6 0h9M9 24h3m4 0h10M9 25h4m2 0h11M9 26h17M9 27h17"/><path stroke="#000" d="M23 3h1m0 1h1m0 1h1m0 1h1m-4 1h5M11 8h2m14 0h1M12 9h1m14 0h1m-17 1h1m15 0h1m-1 1h1m-18 1h1m16 0h1m-18 1h1m16 0h1m-18 1h2m15 0h1m-18 1h1m1 0h1m14 0h1m-18 1h1m1 0h1m14 0h1M4 17h1m5 0h2m15 0h1M5 18h2m3 0h1m16 0h1M7 19h1m2 0h1m16 0h1M8 20h1m18 0h1M9 21h1m1 0h1m15 0h1m-18 1h1m1 0h1m14 0h1m-17 1h2m14 0h1m-1 1h1m-1 1h1m-1 1h1m-1 1h1m-1 1h1M8 29h20"/><path stroke="silver" d="M26 8h1m-1 1h1m-15 1h3m11 0h1m-15 1h1m2 0h1m10 0h1m-16 1h1m3 0h1m10 0h1m-16 1h1m3 0h1m10 0h1m-12 1h2m9 0h1m-16 1h1m3 0h2m9 0h1m-12 1h1m10 0h1m-12 1h2m9 0h1m-16 1h1m3 0h2m9 0h1M6 19h1m4 0h1m3 0h1m10 0h1M7 20h1m7 0h2m9 0h1m-15 1h2m1 0h2m9 0h1m-13 1h3m9 0h1m-14 1h4m9 0h1m-15 1h4m10 0h1m-14 1h2m11 0h1m-1 1h1m-1 1h1M9 28h18"/><path stroke="green" d="M10 9h2m-3 1h1m-2 1h1m1 0h2m-5 1h1m-3 1h2m-3 1h1m1 0h1m-3 1h1m1 0h1m-3 1h1m1 0h1m-2 1h2m0 1h1m0 1h1m0 1h3m-2 1h1m0 1h1"/><path stroke="#ff0" d="M10 10h1m-2 1h1m-2 1h1m-2 1h1m-3 1h1m-1 1h1"/><path stroke="#0f0" d="M9 12h1m-2 1h1m-2 1h1m1 0h1m-2 1h1m-4 1h1m1 0h1m1 0h1m-2 1h1m0 1h1"/></svg>