<svg xmlns="http://www.w3.org/2000/svg" viewBox="0 -0.5 16 16" shape-rendering="crispEdges">
<path stroke="#808080" d="M0 0h1M4 0h9M4 1h1M13 1h1M4 2h1M14 2h1M4 3h1M4 4h1M4 5h1M12 6h2M11 7h2M4 12h1M4 13h1M4 14h1" />
<path stroke="#ffffff" d="M0 0h1M5 1h7M5 2h7M13 2h1M5 3h7M5 4h9M5 5h9M10 6h2M11 10h1M11 11h3M5 12h9M5 13h9" />
<path stroke="#c0c0c0" d="M0 0h1M12 1h1M12 2h1M14 4h1M14 5h1M2 6h1M14 6h1M14 7h1M12 8h1M14 8h1M14 9h1M14 10h1M14 11h1M14 12h1M14 13h1M5 14h10" />
<path stroke="#000000" d="M0 0h1M12 3h4M15 4h1M15 5h1M15 6h1M1 7h2M6 7h1M10 7h1M13 7h1M15 7h1M0 8h1M2 8h4M10 8h1M13 8h1M15 8h1M10 9h2M13 9h1M15 9h1M6 10h1M8 10h1M10 10h1M12 10h2M15 10h1M2 11h9M15 11h1M15 12h1M15 13h1M15 14h1M4 15h12" />
<path stroke="#800080" d="M0 0h1M0 5h1M0 6h2M3 6h7M0 7h1M9 7h1M9 8h1M2 9h1M9 9h1M12 9h1M2 10h1M9 10h1" />
<path stroke="#ff00ff" d="M0 0h1M3 7h3M7 7h2M6 8h3M11 8h1M3 9h6M4 10h2M7 10h1" />
<path stroke="#ff0000" d="M0 0h1M3 10h1" />
</svg>