<svg xmlns="http://www.w3.org/2000/svg" width="32" height="32" shape-rendering="crispEdges" viewBox="0 -0.5 32 32"><path stroke="gray" d="M9 2h15M9 3h1m13 0h1M9 4h1m13 0h2M9 5h1m13 0h1m1 0h1M9 6h1m13 0h1m2 0h1M9 7h1m13 0h1M9 8h1M9 9h1m-1 1h1m-1 1h1m-1 1h1m13 1h1m-2 1h2m-4 1h1m2 0h1m-6 1h2m3 0h1m-6 1h2m1 0h1m1 0h1m-4 1h2m1 0h1m-2 1h2m-1 1h1M9 21h1m-1 1h1m-1 1h1m-1 1h1m-1 1h1m-1 1h1m-1 1h1m-1 1h1"/><path stroke="#fff" d="M10 3h13M10 4h13M10 5h13m1 0h1M10 6h13m1 0h2M10 7h13M10 8h17M10 9h17m-17 1h17m-17 1h17m-17 1h17m-13 1h9m1 0h3m-12 1h1m2 0h3m3 0h3m-9 1h1m2 0h1m2 0h1m1 0h1m-7 1h1m5 0h1m-1 1h1m-1 1h1m-1 1h1m-10 1h1m2 0h1m5 0h1m-10 1h6m3 0h1m-10 1h8m1 0h1m-17 1h17m-17 1h17m-17 1h17m-17 1h17m-17 1h17"/><path stroke="#000" d="M24 3h1m0 1h1m0 1h1m0 1h1m-4 1h5m-1 1h1m-1 1h1m-1 1h1m-1 1h1m-1 1h1m-1 1h1M4 14h1m5 0h1m3 0h1m13 0h1M3 15h2m5 0h1m3 0h1m2 0h1m10 0h1M2 16h1m1 0h6m4 0h1m2 0h1m10 0h1m-15 1h2m1 0h1m10 0h1m-19 1h1m1 0h1m1 0h1m1 0h2m10 0h1m-15 1h1m13 0h1M4 20h11m13 0h1m-1 1h1m-1 1h1m-1 1h1m-1 1h1m-1 1h1m-1 1h1m-1 1h1m-1 1h1M9 29h20"/><path stroke="silver" d="M27 8h1m-1 1h1m-1 1h1m-1 1h1m-1 1h1m-1 1h1m-7 1h1m5 0h1m-9 1h1m5 0h1m1 0h1m-12 1h1m5 0h1m1 0h2m1 0h1m-4 1h2m1 0h1m-13 1h1m2 0h2m2 0h1m1 0h2m1 0h1m-13 1h7m2 0h2m1 0h1m-13 1h2m1 0h2m1 0h2m1 0h2m1 0h1M6 21h3m1 0h7m6 0h3m1 0h1M6 22h3m1 0h7m8 0h1m1 0h1m-1 1h1m-1 1h1m-1 1h1m-1 1h1m-1 1h1m-18 1h18"/><path stroke="purple" d="M2 12h1m-1 1h2m1 0h9M2 14h1m6 0h1m3 0h1m2 0h2M2 15h1m2 0h5m3 0h1m1 0h1m-3 1h1M4 17h1m8 0h1m2 0h1M4 18h1m8 0h1M4 19h10"/><path stroke="#f0f" d="M3 14h1m1 0h4m2 0h2m-2 1h2m3 0h1m-7 1h3m2 0h1M5 17h8m-7 1h4m1 0h1"/><path stroke="#ff0" d="M22 15h1m-2 1h1m-2 1h1m1 0h1"/><path stroke="red" d="M5 18h1"/></svg>