<svg xmlns="http://www.w3.org/2000/svg" viewBox="0 -0.5 16 16" shape-rendering="crispEdges">
<path stroke="#808080" d="M0 0h1M4 0h9M4 1h1M13 1h1M4 2h1M14 2h1M4 3h1M6 3h1M8 4h1M5 5h1M8 5h1M11 5h1M8 6h1M10 6h1M6 7h1M8 7h1M2 8h1M8 8h1M10 8h3M8 9h1M2 10h1M8 10h1M10 10h1M8 11h1M11 11h1M4 12h1M4 13h1M4 14h1" />
<path stroke="#ffffff" d="M0 0h1M5 1h7M5 2h7M13 2h1M8 3h4M5 4h1M9 4h5M4 5h1M7 5h1M9 5h2M12 5h2M3 6h1M7 6h1M9 6h1M11 6h3M1 7h1M4 7h1M7 7h1M9 7h5M4 8h1M7 8h1M9 8h1M13 8h1M7 9h1M9 9h5M7 10h1M9 10h1M11 10h3M9 11h2M12 11h2M8 12h6M5 13h9" />
<path stroke="#c0c0c0" d="M0 0h1M12 1h1M12 2h1M7 4h1M14 4h1M14 5h1M6 6h1M14 6h1M2 7h1M14 7h1M14 8h1M6 9h1M14 9h1M14 10h1M14 11h1M14 12h1M14 13h1M5 14h10" />
<path stroke="#808000" d="M0 0h1M5 3h1M4 4h1M2 5h2M1 6h2M0 7h1M3 9h1M4 10h1M5 11h2" />
<path stroke="#000000" d="M0 0h1M7 3h1M12 3h4M6 4h1M15 4h1M6 5h1M15 5h1M5 6h1M15 6h1M5 7h1M15 7h1M0 8h1M5 8h2M15 8h1M1 9h2M5 9h1M15 9h1M3 10h1M6 10h1M15 10h1M4 11h1M7 11h1M15 11h1M5 12h3M15 12h1M15 13h1M15 14h1M4 15h12" />
<path stroke="#ffff00" d="M0 0h1M4 6h1M3 7h1M1 8h1M3 8h1M4 9h1M5 10h1" />
</svg>