<svg xmlns="http://www.w3.org/2000/svg" viewBox="0 -0.5 32 32" shape-rendering="crispEdges">
<path stroke="#000000" d="M0 0h1M11 2h5M9 3h2M16 3h2M8 4h2M17 4h2M8 5h1M18 5h1M7 6h1M19 6h1M30 6h1M7 7h1M19 7h1M30 7h1M7 8h1M19 8h1M30 8h1M7 9h1M19 9h1M30 9h1M7 10h1M19 10h1M30 10h1M30 11h1M19 12h1M30 12h1M11 13h5M18 13h1M30 13h1M16 14h2M30 14h1M10 15h6M30 15h1M9 16h1M29 16h1M8 17h1M28 17h1M7 18h21M6 19h1M5 20h1M4 21h1M1 22h3" />
<path stroke="#808080" d="M0 0h1M4 5h4M9 5h9M19 5h10M3 6h1M29 6h1M2 7h1M28 7h2M1 8h1M27 8h3M1 9h1M27 9h3M1 10h1M27 10h3M1 11h1M7 11h2M19 11h1M27 11h3M1 12h1M8 12h11M27 12h3M1 13h1M4 13h3M10 13h1M16 13h2M19 13h5M27 13h3M1 14h1M11 14h5M27 14h3M1 15h1M27 15h3M1 16h1M27 16h2M1 17h2M9 17h19" />
<path stroke="#c0c0c0" d="M0 0h1M4 6h3M8 6h11M20 6h9M3 7h4M8 7h11M20 7h8M3 9h4M8 9h11M20 9h7M3 10h4M8 10h11M20 10h2M24 10h3M3 11h4M9 11h10M20 11h2M24 11h3M3 12h5M20 12h7M3 13h1M7 13h1M24 13h3M3 14h1M6 14h1M24 14h3M3 15h3M18 15h9M3 16h2M10 16h17M3 17h1M2 18h1M1 19h1" />
<path stroke="#ffffff" d="M0 0h1M2 8h5M8 8h11M20 8h7M2 9h1M2 10h1M2 11h1M2 12h1M2 13h1M2 14h1M4 14h2M18 14h6M2 15h1M16 15h2M2 16h1" />
<path stroke="#ff0000" d="M0 0h1M22 10h2M22 11h2" />
<path stroke="#808000" d="M0 0h1M8 13h2M7 14h4M6 15h4M5 16h4M4 17h4M3 18h4M2 19h4M1 20h4M1 21h3" />
</svg>