<svg xmlns="http://www.w3.org/2000/svg" viewBox="0 -0.5 32 32" shape-rendering="crispEdges">
<path stroke="#000000" d="M0 0h1M20 2h5M18 3h2M25 3h2M17 4h2M26 4h2M17 5h1M27 5h1M16 6h1M28 6h1M30 6h1M16 7h1M28 7h1M30 7h1M16 8h1M28 8h1M30 8h1M16 9h1M28 9h1M30 9h1M16 10h1M28 10h1M30 10h1M30 11h1M28 12h1M30 12h1M9 13h7M27 13h1M30 13h1M9 14h6M25 14h2M30 14h1M19 15h6M30 15h1M18 16h1M29 16h1M17 17h1M28 17h1M2 18h9M16 18h12M15 19h1M14 20h1M13 21h1M10 22h3" />
<path stroke="#808080" d="M0 0h1M4 5h13M18 5h9M28 5h1M3 6h1M29 6h1M2 7h1M29 7h1M1 8h1M27 8h1M29 8h1M1 9h1M27 9h1M29 9h1M1 10h1M27 10h1M29 10h1M1 11h1M16 11h2M27 11h3M1 12h1M9 12h9M27 12h1M29 12h1M1 13h1M4 13h5M19 13h5M25 13h2M28 13h2M1 14h1M20 14h5M27 14h3M1 15h1M27 15h3M1 16h1M27 16h2M1 17h11M18 17h10" />
<path stroke="#c0c0c0" d="M0 0h1M4 6h12M17 6h11M3 7h13M17 7h11M3 9h13M17 9h10M3 10h13M17 10h5M24 10h3M3 11h13M18 11h4M24 11h3M3 12h6M18 12h9M3 13h1M16 13h1M24 13h1M3 14h1M15 14h1M3 15h6M14 15h1M25 15h2M3 16h11M19 16h8M12 17h1M11 18h1M10 19h1" />
<path stroke="#ffffff" d="M0 0h1M2 8h14M17 8h10M2 9h1M2 10h1M2 11h1M2 12h1M2 13h1M2 14h1M4 14h5M2 15h1M9 15h5M2 16h1" />
<path stroke="#ff0000" d="M0 0h1M22 10h2M22 11h2" />
<path stroke="#808000" d="M0 0h1M17 13h2M16 14h4M15 15h4M14 16h4M13 17h4M12 18h4M11 19h4M10 20h4M10 21h3" />
</svg>