<svg xmlns="http://www.w3.org/2000/svg" viewBox="0 -0.5 32 32" shape-rendering="crispEdges">
<path stroke="#808080" d="M0 0h1M4 5h25M3 6h1M29 6h1M2 7h1M28 7h2M1 8h1M27 8h3M1 9h1M27 9h3M1 10h1M28 10h2M1 11h1M28 11h2M1 12h1M9 12h7M17 12h1M27 12h1M29 12h1M1 13h1M4 13h5M18 13h6M27 13h1M29 13h1M1 14h1M27 14h1M29 14h1M1 15h1M27 15h1M29 15h1M1 16h1M27 16h1M1 17h28M17 18h1M27 18h1M19 19h1M25 19h2M20 20h5" />
<path stroke="#c0c0c0" d="M0 0h1M4 6h25M3 7h25M3 9h15M20 9h5M3 10h14M19 10h3M24 10h2M3 11h14M18 11h4M24 11h3M3 12h6M18 12h9M3 13h1M24 13h3M3 14h1M24 14h3M3 15h6M18 15h9M3 16h13M17 16h10M16 19h1M15 20h1M14 21h1M13 22h1M12 23h1M11 24h1M10 25h1" />
<path stroke="#000000" d="M0 0h1M30 6h1M30 7h1M20 8h5M30 8h1M18 9h2M25 9h2M30 9h1M17 10h2M26 10h2M30 10h1M17 11h1M27 11h1M30 11h1M16 12h1M28 12h1M30 12h1M9 13h9M28 13h1M30 13h1M9 14h9M28 14h1M30 14h1M16 15h1M28 15h1M30 15h1M16 16h1M28 16h2M2 18h15M18 18h9M28 18h1M27 19h1M25 20h2M19 21h6M18 22h1M17 23h1M16 24h1M15 25h1M14 26h1M13 27h1M10 28h3" />
<path stroke="#ffffff" d="M0 0h1M2 8h18M25 8h2M2 9h1M2 10h1M2 11h1M2 12h1M2 13h1M2 14h1M4 14h5M18 14h6M2 15h1M9 15h7M17 15h1M2 16h1" />
<path stroke="#ff0000" d="M0 0h1M22 10h2M22 11h2" />
<path stroke="#808000" d="M0 0h1M17 19h2M16 20h4M15 21h4M14 22h4M13 23h4M12 24h4M11 25h4M10 26h4M10 27h3" />
</svg>