<svg xmlns="http://www.w3.org/2000/svg" viewBox="0 -0.5 32 32" shape-rendering="crispEdges">
<path stroke="#808080" d="M0 0h1M4 5h25M3 6h1M29 6h1M2 7h1M28 7h2M1 8h1M27 8h3M1 9h1M27 9h3M1 10h1M27 10h3M1 11h1M27 11h3M1 12h1M27 12h3M1 13h1M4 13h5M10 13h8M22 13h2M27 13h3M1 14h1M18 14h3M27 14h3M1 15h1M27 15h3M1 16h1M27 16h2M1 17h8M22 17h6M9 18h13M10 19h1M20 19h1M12 20h1M18 20h2M13 21h5" />
<path stroke="#c0c0c0" d="M0 0h1M4 6h25M3 7h25M3 9h10M18 9h9M3 10h8M13 10h5M20 10h2M24 10h3M3 11h7M12 11h7M21 11h1M24 11h3M3 12h7M11 12h9M21 12h6M3 13h1M18 13h3M24 13h3M3 14h1M24 14h3M3 15h6M22 15h5M3 16h6M18 16h3M22 16h5M10 17h11M9 20h1M8 21h1M7 22h1M6 23h1M5 24h1M4 25h1M3 26h1" />
<path stroke="#000000" d="M0 0h1M30 6h1M30 7h1M30 8h1M13 9h5M30 9h1M11 10h2M18 10h2M30 10h1M10 11h2M19 11h2M30 11h1M10 12h1M20 12h1M30 12h1M9 13h1M21 13h1M30 13h1M9 14h9M21 14h1M30 14h1M9 15h9M21 15h1M30 15h1M9 16h1M21 16h1M29 16h1M9 17h1M21 17h1M28 17h1M2 18h7M22 18h6M21 19h1M20 20h1M18 21h2M12 22h6M11 23h1M10 24h1M9 25h1M8 26h1M7 27h1M6 28h1M3 29h3" />
<path stroke="#ffffff" d="M0 0h1M2 8h25M2 9h1M2 10h1M2 11h1M2 12h1M2 13h1M2 14h1M4 14h5M22 14h2M2 15h1M18 15h3M2 16h1M10 16h8" />
<path stroke="#ff0000" d="M0 0h1M22 10h2M22 11h2" />
<path stroke="#808000" d="M0 0h1M10 20h2M9 21h4M8 22h4M7 23h4M6 24h4M5 25h4M4 26h4M3 27h4M3 28h3" />
</svg>