<svg xmlns="http://www.w3.org/2000/svg" viewBox="0 -0.5 32 32" shape-rendering="crispEdges">
<path stroke="#000000" d="M0 0h1M11 5h10M8 6h3M21 6h3M6 7h2M24 7h2M4 8h2M26 8h2M3 9h1M14 9h2M28 9h1M2 10h1M13 10h1M15 10h1M29 10h1M1 11h1M12 11h1M15 11h1M30 11h1M1 12h1M11 12h1M15 12h1M30 12h1M0 13h1M8 13h3M15 13h2M31 13h1M0 14h1M8 14h1M15 14h1M17 14h1M31 14h1M0 15h1M8 15h1M15 15h1M17 15h1M31 15h1M0 16h1M8 16h1M15 16h1M17 16h1M31 16h1M0 17h1M8 17h4M15 17h2M31 17h1M1 18h1M11 18h1M15 18h1M30 18h1M1 19h1M12 19h1M15 19h1M30 19h1M2 20h1M13 20h1M15 20h1M29 20h1M3 21h1M14 21h2M28 21h1M4 22h2M27 22h1M6 23h2M25 23h2M8 24h3M23 24h2M11 25h6M22 25h1M16 26h1M21 26h1M16 27h1M20 27h1M16 28h1M19 28h1M16 29h1M18 29h1M16 30h2M16 31h1" />
<path stroke="#ffffff" d="M0 0h1M11 6h10M8 7h3M21 7h3M6 8h2M24 8h2M4 9h2M26 9h2M3 10h1M28 10h1M2 11h1M14 11h1M2 12h1M13 12h1M1 13h1M12 13h1M1 14h1M16 14h1M1 15h1M9 15h1M1 16h1M1 17h1" />
<path stroke="#c0c0c0" d="M0 0h1M11 7h10M8 8h16M6 9h8M16 9h10M4 10h9M14 10h1M16 10h12M3 11h9M13 11h1M16 11h5M22 11h8M3 12h8M12 12h1M16 12h2M19 12h3M23 12h7M2 13h6M11 13h1M17 13h2M20 13h2M23 13h7M2 14h6M9 14h1M18 14h2M21 14h2M24 14h6M2 15h6M16 15h1M18 15h2M21 15h2M24 15h6M2 16h6M18 16h2M21 16h2M24 16h6M2 17h6M17 17h2M20 17h3M24 17h6M2 18h9M16 18h2M19 18h3M23 18h6M2 19h10M16 19h6M23 19h6M4 20h9M16 20h5M22 20h6M6 21h8M16 21h10M8 22h16M11 23h12M17 24h5M18 25h3M18 26h2M18 27h1" />
<path stroke="#008000" d="M0 0h1M21 11h1M18 12h1M22 12h1M19 13h1M22 13h1M20 14h1M23 14h1M20 15h1M23 15h1M20 16h1M23 16h1M19 17h1M23 17h1M18 18h1M22 18h1M22 19h1M21 20h1" />
<path stroke="#808080" d="M0 0h1M0 12h1M31 12h1M30 13h1M30 14h1M30 15h1M9 16h2M16 16h1M30 16h1M30 17h1M0 18h1M12 18h1M29 18h1M31 18h1M13 19h1M29 19h1M3 20h1M14 20h1M28 20h1M4 21h2M26 21h2M6 22h2M24 22h3M8 23h3M23 23h2M11 24h6M22 24h1M17 25h1M21 25h1M17 26h1M20 26h1M17 27h1M19 27h1M17 28h2M17 29h1" />
<path stroke="#ffff00" d="M0 0h1M14 12h1M13 13h2M10 14h5M10 15h5M12 16h3M14 17h1" />
<path stroke="#808000" d="M0 0h1M11 16h1M12 17h2M13 18h2M14 19h1" />
</svg>