<svg xmlns="http://www.w3.org/2000/svg" width="32" height="32" shape-rendering="crispEdges" viewBox="0 -0.5 32 32"><path stroke="gray" d="M2 0h10m8 0h10M1 1h1m9 0h1m7 0h1m9 0h1M1 2h1m9 0h1m7 0h1m9 0h1M1 3h1m9 0h1m7 0h1m9 0h1M1 4h1m9 0h1m7 0h1m9 0h1M1 5h1m9 0h1m7 0h1m9 0h1M1 6h1m9 0h1m7 0h1m9 0h1M1 7h1m2 0h6m1 0h1m7 0h1m2 0h6m1 0h1M1 8h1m9 0h1m7 0h1m9 0h1M0 9h2m10 0h1m5 0h2m10 0h1M0 10h1m11 0h1m5 0h1m11 0h1M0 11h1m11 0h1m5 0h1m11 0h1M0 12h13m5 0h13M7 13h5m-6 1h2m4 0h2m-9 1h1m2 0h2m4 0h2M5 16h1m2 0h1m7 0h1M5 17h1m6 0h2m3 0h1M5 18h1m5 0h2m-9 1h1m-2 1h1m-1 1h1m-2 1h2m-3 1h1m-2 1h1m16 0h2M0 25h1m14 0h4M0 26h1m12 0h6M5 27h1m5 0h6m-8 1h6m-6 1h4m-4 1h2"/><path stroke="silver" d="M2 1h9m9 0h9M2 2h1m7 0h1m9 0h1m7 0h1M2 3h1m7 0h1m9 0h1m7 0h1M2 4h1m7 0h1m9 0h1m7 0h1M2 5h1m7 0h1m9 0h1m7 0h1M2 6h1m7 0h1m9 0h1m7 0h1M2 7h1m7 0h1m9 0h1m7 0h1M2 8h9m9 0h9M2 11h1m2 0h3m3 0h1m8 0h1m2 0h3m3 0h1M7 18h1m1 0h1m-4 1h1m1 0h1m1 0h1m2 0h1m-9 1h1m1 0h1m1 0h1m2 0h1m-5 1h1m2 0h1m-2 1h1m-9 1h1m6 0h1m7 0h2M1 24h1m13 0h2M1 25h3m9 0h2M1 26h2m1 0h2m5 0h2M2 27h3m1 0h2m1 0h2m-7 1h3m1 0h1m-3 1h3m-1 1h1"/><path stroke="#000" d="M12 1h1m17 0h1M3 2h7m2 0h1m8 0h7m2 0h1M3 3h1m8 0h1m8 0h1m8 0h1M3 4h1m8 0h1m8 0h1m8 0h1M3 5h1m8 0h1m8 0h1m8 0h1M3 6h1m8 0h1m8 0h1m8 0h1M3 7h1m8 0h1m8 0h1m8 0h1M12 8h1m17 0h1M2 9h10m1 0h1m6 0h10m1 0h1m-19 1h1m17 0h1M3 11h2m3 0h3m2 0h1m12 0h3m2 0h1m-19 1h1m17 0h1M1 13h6m5 0h1m6 0h12m-21 2h1m18 0h1m-20 1h1m-5 1h2m2 0h2m2 0h1m14 0h1m-16 1h1m3 0h1m-5 1h1m3 0h1m10 0h1m-16 1h1m3 0h1m-4 1h4m10 0h1m-13 1h2M3 23h1m11 0h2m2 0h1m9 0h1M4 24h2m7 0h2m4 0h1M6 25h2m3 0h2m6 0h1m9 0h1M8 26h3m8 0h1M0 27h2m15 0h2m10 0h1M2 28h2m11 0h2M4 29h2m7 0h3m1 0h1m1 0h1m1 0h1m1 0h1m1 0h1m1 0h1m1 0h1M6 30h2m3 0h2m-5 1h3"/><path stroke="#0ff" d="M4 3h1m17 0h1M4 4h1m17 0h1"/><path stroke="teal" d="M5 3h5m13 0h5M5 4h5m13 0h5M4 5h6m12 0h6M4 6h6m12 0h6"/><path stroke="#fff" d="M1 10h11m7 0h11M1 11h1m17 0h1M4 21h2m0 1h2m0 1h1m-7 1h2m0 1h2m0 1h2m0 1h1"/><path stroke="#00f" d="M14 11h4"/><path stroke="#0f0" d="M21 11h2"/><path stroke="#ff0" d="M8 14h4m-6 1h2m3 0h3m-8 1h2m1 0h1m2 0h4m-8 1h2m5 0h2M6 18h1m3 0h1m2 0h1m1 0h3M5 19h1m5 0h2m3 0h2M4 20h1m5 0h2m-6 1h1m2 0h2m-7 1h2m2 0h2m-6 1h4m-2 1h3m-1 1h1"/><path stroke="red" d="M27 15h2m1 0h2m-5 1h5m-5 1h2m1 0h2m-5 1h5m-5 1h2m1 0h2M3 26h1m3 2h1"/><path stroke="olive" d="M11 16h1m-4 2h1m-2 1h1m1 0h1m5 0h1M6 20h1m1 0h1m4 0h1m1 0h3M7 21h1m4 0h3m-4 1h6m-7 1h5m-6 1h4m-4 1h2"/></svg>