<svg xmlns="http://www.w3.org/2000/svg" viewBox="0 -0.5 32 32" shape-rendering="crispEdges">
<path stroke="#808080" d="M0 0h1M2 0h10M20 0h10M1 1h1M11 1h1M19 1h1M29 1h1M1 2h1M11 2h1M19 2h1M29 2h1M1 3h1M11 3h1M19 3h1M29 3h1M1 4h1M11 4h1M19 4h1M29 4h1M1 5h1M11 5h1M19 5h1M29 5h1M1 6h1M11 6h1M19 6h1M29 6h1M1 7h1M4 7h6M11 7h1M19 7h1M22 7h6M29 7h1M1 8h1M11 8h1M19 8h1M29 8h1M0 9h2M12 9h1M18 9h2M30 9h1M0 10h1M12 10h1M18 10h1M30 10h1M0 11h1M12 11h1M18 11h1M30 11h1M0 12h13M18 12h13M7 13h5M6 14h2M12 14h2M5 15h1M8 15h2M14 15h2M5 16h1M8 16h1M16 16h1M5 17h1M12 17h2M17 17h1M5 18h1M11 18h2M4 19h1M3 20h1M3 21h1M2 22h2M1 23h1M0 24h1M17 24h2M0 25h1M15 25h4M0 26h1M13 26h6M11 27h6M7 28h1M9 28h6M9 29h4M9 30h2" />
<path stroke="#c0c0c0" d="M0 0h1M2 1h9M20 1h9M2 2h1M10 2h1M20 2h1M28 2h1M2 3h1M10 3h1M20 3h1M28 3h1M2 4h1M10 4h1M20 4h1M28 4h1M2 5h1M10 5h1M20 5h1M28 5h1M2 6h1M10 6h1M20 6h1M28 6h1M2 7h1M10 7h1M20 7h1M28 7h1M2 8h9M20 8h9M2 11h1M5 11h3M11 11h1M20 11h1M23 11h3M29 11h1M7 18h1M9 18h1M6 19h1M8 19h1M10 19h1M13 19h1M5 20h1M7 20h1M9 20h1M12 20h1M8 21h1M11 21h1M10 22h1M2 23h1M9 23h1M17 23h2M1 24h1M15 24h2M1 25h3M13 25h2M1 26h2M4 26h2M11 26h2M2 27h3M6 27h2M9 27h2M4 28h3M8 28h1M6 29h3M8 30h1" />
<path stroke="#000000" d="M0 0h1M12 1h1M30 1h1M3 2h7M12 2h1M21 2h7M30 2h1M3 3h1M12 3h1M21 3h1M30 3h1M3 4h1M12 4h1M21 4h1M30 4h1M3 5h1M12 5h1M21 5h1M30 5h1M3 6h1M12 6h1M21 6h1M30 6h1M3 7h1M12 7h1M21 7h1M30 7h1M12 8h1M30 8h1M2 9h10M13 9h1M20 9h10M31 9h1M13 10h1M31 10h1M8 11h3M13 11h1M21 11h2M26 11h3M31 11h1M13 12h1M31 12h1M1 13h6M12 13h1M19 13h12M10 15h1M29 15h1M10 16h1M6 17h2M10 17h2M14 17h1M29 17h1M14 18h1M18 18h1M14 19h1M18 19h1M29 19h1M14 20h1M18 20h1M15 21h4M29 21h1M17 22h2M3 23h1M15 23h2M19 23h1M29 23h1M4 24h2M13 24h2M19 24h1M6 25h2M11 25h2M19 25h1M29 25h1M8 26h3M19 26h1M0 27h2M17 27h2M29 27h1M2 28h2M15 28h2M4 29h2M13 29h3M17 29h1M19 29h1M21 29h1M23 29h1M25 29h1M27 29h1M29 29h1M6 30h2M11 30h2M8 31h3" />
<path stroke="#00ffff" d="M0 0h1M4 3h1M22 3h1M4 4h1M22 4h1" />
<path stroke="#008080" d="M0 0h1M5 3h5M23 3h5M5 4h5M23 4h5M4 5h6M22 5h6M4 6h6M22 6h6" />
<path stroke="#ffffff" d="M0 0h1M1 10h11M19 10h11M1 11h1M19 11h1M4 21h2M6 22h2M8 23h1M2 24h2M4 25h2M6 26h2M8 27h1" />
<path stroke="#008000" d="M0 0h1M3 11h2" />
<path stroke="#0000ff" d="M0 0h1M14 11h4" />
<path stroke="#ffff00" d="M0 0h1M8 14h4M6 15h2M11 15h3M6 16h2M9 16h1M12 16h4M8 17h2M15 17h2M6 18h1M10 18h1M13 18h1M15 18h3M5 19h1M11 19h2M16 19h2M4 20h1M10 20h2M6 21h1M9 21h2M4 22h2M8 22h2M4 23h4M6 24h3M8 25h1" />
<path stroke="#808000" d="M0 0h1M11 16h1M8 18h1M7 19h1M9 19h1M15 19h1M6 20h1M8 20h1M13 20h1M15 20h3M7 21h1M12 21h3M11 22h6M10 23h5M9 24h4M9 25h2" />
<path stroke="#ff0000" d="M0 0h1M3 26h1M5 27h1M27 27h2M30 27h2M27 28h5M28 29h1M30 29h2M27 30h5M27 31h5" />
</svg>