<svg xmlns="http://www.w3.org/2000/svg" width="32" height="32" shape-rendering="crispEdges" viewBox="0 -0.5 32 32"><path stroke="gray" d="M13 1h2m-3 1h1m-2 1h1m1 0h1m-4 1h1m1 0h2M9 5h1m1 0h11M8 6h1m1 0h3m9 0h2M7 7h1m1 0h2m13 0h2M6 8h1m1 0h1M5 9h1m1 0h1m-4 1h1m1 0h1m-4 1h1m1 0h1m-4 1h1m1 0h2m9 0h4M1 13h1m1 0h2m9 0h1M0 14h1m1 0h3m-5 1h1m3 0h2m11 0h1M0 16h1m5 0h2m10 0h1m9 0h1M0 17h1m7 0h2m18 0h2M0 18h1m9 0h2m15 0h2m1 0h2M0 19h1m11 0h2m12 0h2m2 0h1M0 20h1m13 0h2m9 0h2m2 0h1M0 21h1m15 0h2m6 0h2m2 0h1M0 22h3m15 0h2m2 0h3m2 0h1M3 23h2m14 0h4m3 0h1M5 24h2m12 0h2m4 0h1M7 25h2m10 0h3m2 0h1M9 26h2m8 0h5m-13 1h2m6 0h4m-10 1h2m4 0h3m-7 1h2m2 0h2m-4 1h3"/><path stroke="#fff" d="M13 2h1m-2 1h1m-2 1h1m-2 1h1M9 6h1m3 0h2M8 7h1m4 0h2M7 8h1m6 0h2M6 9h1m7 0h2M5 10h1m8 0h2M4 11h1m10 0h1M3 12h1m-2 1h1m13 0h2M1 14h1m12 0h4M1 15h3m11 0h1M1 16h1m2 0h2m-5 1h1m4 0h2m10 0h1M1 18h1m6 0h2m8 0h2M1 19h1m2 0h2m4 0h2m7 0h2m8 0h1M1 20h1m4 0h2m4 0h2m6 0h2m6 0h1M1 21h1m2 0h2m2 0h2m4 0h2m5 0h1m5 0h1M6 22h2m2 0h2m4 0h2m8 0h1M8 23h2m2 0h2m11 0h1m-16 1h2m12 0h1m-13 1h2m9 0h1"/><path stroke="#000" d="M14 2h1m-1 1h1m-1 1h1m11 4h1m0 1h1m-1 1h1m0 1h1m-1 1h1m-10 1h1m8 0h1m-16 1h1m5 0h1m8 0h1m-16 1h1m4 0h1m9 0h1m-15 1h4m9 0h1m-1 1h1m-2 1h1m-2 1h1m5 0h1m-8 1h1m5 0h1m-9 1h2m5 0h1m-10 1h2m6 0h1M1 23h2m24 0h1M3 24h2m21 0h1M5 25h2m18 0h1M7 26h2m15 0h1M9 27h2m12 0h1m-13 1h2m9 0h1m-10 1h2m6 0h1m-7 1h2m3 0h1m-4 1h3"/><path stroke="#ff0" d="M15 6h6m-6 1h7m1 0h1m-8 1h5m1 0h1m-7 1h6m-6 1h5m-5 1h4M5 13h9m5 2h9m-13 2h3m-4 1h1m1 0h2m-3 1h1m1 0h2m-3 1h4m-2 1h3"/><path stroke="silver" d="M21 6h1m-1 2h1m2 0h1m-2 1h1m-2 1h1m-2 1h1m-8 1h1m0 1h1m2 0h1m-1 1h1m-5 1h1m1 0h1M2 16h2m-2 1h4m-4 1h6m21 0h1M2 19h2m2 0h4m6 0h1m11 0h1M2 20h4m2 0h4m15 0h1M2 21h2m2 0h2m2 0h4m12 0h1M3 22h3m2 0h2m2 0h4m9 0h1M5 23h3m2 0h2m2 0h5m4 0h2M7 24h3m2 0h7m2 0h3M9 25h3m2 0h5m3 0h1m-12 1h4m2 0h2m-6 1h2m2 0h2m-4 1h4m-2 1h2"/><path stroke="#0ff" d="M11 7h2M9 8h5M8 9h6m-4 1h4m-2 1h3m11 0h1m-4 1h1m1 0h1m1 0h1m-8 1h1m1 0h1m1 0h1m1 0h1M5 14h8m7 0h8M6 15h1m1 0h1m1 0h1m1 0h1m-4 1h1m1 0h1m7 1h3m-2 1h5m-4 1h4m-3 1h2"/><path stroke="#f0f" d="M22 7h1m0 1h1m1 0h1m-4 1h1m1 0h3m-6 1h1m1 0h4m-7 1h1m1 0h4m1 0h1m-9 1h4m1 0h1m1 0h1m-6 1h1m1 0h1m1 0h1m1 0h1M7 15h1m1 0h1m1 0h1m-4 1h1m1 0h1m1 0h2m-4 1h5m-3 1h2m1 0h1m-2 1h1"/><path stroke="#0f0" d="M7 10h3m-4 1h6m-6 1h8m5 4h8m-5 1h5m-2 1h1m-11 8h2"/><path stroke="green" d="M15 27h2"/></svg>