<svg xmlns="http://www.w3.org/2000/svg" viewBox="0 -0.5 16 16" shape-rendering="crispEdges">
<path stroke="#808080" d="M0 0h1M7 0h2M5 1h2M9 1h2M3 2h2M11 2h2M1 3h2M13 3h2M1 4h1M1 5h1M14 5h1M0 6h1M2 6h2M12 6h2M0 7h1M10 7h2M0 8h1M9 8h1M14 8h1M8 9h1M12 9h3M10 10h5M2 11h2M9 11h6M4 12h2M9 12h4M6 13h2M9 13h2M8 14h1" />
<path stroke="#ffffff" d="M0 0h1M7 1h2M5 2h2M3 3h2M2 4h2M4 5h2M1 6h1M6 6h2M3 7h1M8 7h2M6 9h1M7 10h2" />
<path stroke="#c0c0c0" d="M0 0h1M7 2h4M5 3h8M4 4h11M2 5h2M6 5h8M4 6h2M8 6h4M1 7h1M6 7h2M14 7h1M8 8h1M12 8h2M7 9h1M10 9h2M5 10h2M9 10h1M4 11h5M6 12h3M8 13h1" />
<path stroke="#000000" d="M0 0h1M15 4h1M15 5h1M14 6h2M12 7h2M15 7h1M6 8h2M10 8h2M15 8h1M4 9h2M9 9h1M15 9h1M0 10h5M15 10h1M15 11h1M13 12h2M11 13h2M9 14h2" />
<path stroke="#008000" d="M0 0h1M2 7h1M4 7h1M1 8h1M3 8h1M5 8h1M0 9h1" />
<path stroke="#00ff00" d="M0 0h1M5 7h1M2 8h1M4 8h1M1 9h3" />
</svg>