<svg xmlns="http://www.w3.org/2000/svg" width="32" height="32" shape-rendering="crispEdges" viewBox="0 -0.5 32 32"><path stroke="gray" d="M3 13h28M2 14h1m27 0h1M1 15h1m27 0h2M0 16h1m27 0h3M0 17h1m27 0h3M0 18h1m8 0h15m4 0h3M0 19h1m6 0h2m15 0h2m2 0h3M0 20h1m6 0h2m15 0h2m2 0h3M0 21h1m27 0h3M0 22h1m27 0h3M0 23h1m27 0h3M0 24h1m6 0h1m1 0h1m1 0h1m1 0h1m1 0h1m1 0h1m1 0h1m1 0h1m1 0h1m1 0h1m2 0h3M0 25h1m27 0h3M0 26h1m27 0h2M0 27h29"/><path stroke="silver" d="M3 14h27M2 15h27M2 17h26M2 18h7m15 0h4M2 19h1m2 0h2m19 0h2M2 20h1m2 0h2m19 0h2M2 21h5m19 0h2M2 22h7m15 0h4M2 23h26M2 24h5m1 0h1m1 0h1m1 0h1m1 0h1m1 0h1m1 0h1m1 0h1m1 0h1m1 0h1m1 0h2M2 25h5m1 0h1m1 0h1m1 0h1m1 0h1m1 0h1m1 0h1m1 0h1m1 0h1m1 0h1m1 0h2M2 26h26"/><path stroke="#000" d="M31 14h1m-1 1h1m-1 1h1m-1 1h1m-1 1h1M9 19h15m7 0h1M9 20h15m7 0h1M9 21h15m7 0h1m-1 1h1m-1 1h1m-1 1h1m-1 1h1m-2 1h1m-2 1h1M1 28h28"/><path stroke="#fff" d="M1 16h27M1 17h1m-1 1h1m-1 1h1m-1 1h1m-1 1h1m5 0h2m15 0h2M1 22h1m7 0h15M1 23h1m-1 1h1m-1 1h1m5 0h1m1 0h1m1 0h1m1 0h1m1 0h1m1 0h1m1 0h1m1 0h1m1 0h1m1 0h1M1 26h1"/><path stroke="red" d="M3 19h2m-2 1h2"/></svg>