<svg xmlns="http://www.w3.org/2000/svg" width="32" height="32" shape-rendering="crispEdges" viewBox="0 -0.5 32 32"><path stroke="gray" d="M3 0h25M2 1h1m24 0h1M1 2h1m24 0h2M0 3h1m24 0h3M0 4h1m24 0h3M0 5h1m24 0h3M0 6h1m24 0h3M0 7h1m2 0h20m2 0h3M0 8h1m24 0h3M0 9h1m2 0h7M0 10h1m-1 1h1m-1 1h9m-3 3h14m1 0h2M5 16h1m13 0h1m1 0h2M5 17h1m13 0h1M5 18h1m13 0h1m-1 1h1M5 20h1m13 0h1M5 21h1m13 0h1M5 22h1m13 0h1M5 23h1m13 0h1M5 24h1m13 0h1M5 25h1m4 0h7m2 0h1M5 26h1m4 0h1m2 0h1m5 0h1M5 27h1m4 0h1m2 0h1m5 0h1M5 28h1m4 0h4m5 0h1M5 29h5m5 0h5"/><path stroke="silver" d="M3 1h24M2 2h24M2 4h18m3 0h2M2 5h18m3 0h2M2 6h23M2 7h1m20 0h2M2 8h1m20 0h2M2 9h1m-1 1h1m-1 1h7m3 0h1m1 0h1m1 0h1m1 0h1m1 0h1m1 0h1m1 0h1m1 0h1m1 0h1m-18 1h1m1 0h1m1 0h1m1 0h1m1 0h1m1 0h1m1 0h1m1 0h1m1 0h1m1 0h1m-14 1h1m7 0h1m-5 2h1m3 0h1M7 16h1m10 0h1m5 1h1m-7 1h1m2 0h1m1 0h1m1 0h1m1 0h1m1 0h1m-12 1h1m7 0h1m1 0h1m-11 1h1m2 0h1m3 0h1m1 0h1m1 0h1m-12 1h1m3 0h1m5 0h1M7 22h1m9 0h2M7 23h12M7 24h12M7 25h3m7 0h2M7 26h3m2 0h1m2 0h2m1 0h1M7 27h3m2 0h1m2 0h2m1 0h1M7 28h3m5 0h2m1 0h1"/><path stroke="#000" d="M28 1h1m-1 1h1m-1 1h1m-1 1h1m-1 1h1m-1 1h1m-1 1h1m-1 1h1m2 2h1m-21 1h1m17 0h1m1 0h1m-1 1h1M1 13h8m22 0h1m-20 1h2m4 0h5m3 0h2m3 0h1m-6 1h1m4 0h1m-12 1h1m10 0h1m-14 1h1m1 0h1m10 0h1m-12 1h1m10 0h1m-12 1h1m10 0h1m-12 1h1m1 0h1m8 0h1m-12 1h1m8 0h1m1 0h1m-12 1h2m2 0h1m2 0h1m3 0h1m-12 1h11m-11 1h1m-1 1h1m-10 1h1m2 0h1m5 0h1m-10 1h1m2 0h1m5 0h1m-7 1h1m5 0h1m-11 1h5m5 0h1M6 30h14"/><path stroke="#fff" d="M1 3h24M1 4h1M1 5h1M1 6h1M1 7h1M1 8h1m1 0h20M1 9h1m-1 1h1m1 0h6m1 0h20M1 11h1m8 0h1m-1 1h1m-1 1h1m-1 1h1m4 0h1m7 0h1m5 0h1m-7 1h1m3 0h1m1 0h1M6 16h1m1 0h10m5 0h1m4 0h2M6 17h1m1 0h10m3 0h3m2 0h3M6 18h1m2 0h9m-8 1h8m3 0h4M6 20h1m2 0h9m5 0h1M6 21h1m1 0h10m6 0h1M6 22h1m1 0h9M6 23h1m-1 1h1m-1 1h1m-1 1h1m10 0h1M6 27h1m10 0h1M6 28h1m10 0h1"/><path stroke="#0f0" d="M20 4h3"/><path stroke="green" d="M20 5h3"/><path stroke="olive" d="M10 9h21M9 10h1m20 0h1M9 11h1m20 0h1M9 12h1m20 0h1M9 13h1m2 0h3m2 0h7m2 0h3m1 0h1M9 14h1m1 0h1m2 0h1m2 0h1m7 0h1m2 0h1m1 0h1m-6 1h1m2 0h1m1 0h1m-6 1h3m2 0h1m-1 1h1m-1 1h1m-6 1h1m4 0h1m-5 1h1m3 0h1m-8 1h1m2 0h1m3 0h1m-9 1h2m1 0h2m1 0h3"/><path stroke="#ff0" d="M13 11h1m1 0h1m1 0h1m1 0h1m1 0h1m1 0h1m1 0h1m1 0h1m-16 1h1m1 0h1m1 0h1m1 0h1m1 0h1m1 0h1m1 0h1m1 0h1m1 0h1m-18 1h1m3 0h1m9 0h1m3 0h1m-14 1h1m7 0h1m-1 2h1m0 1h1m3 0h1m-8 1h1m1 0h1m1 0h1m1 0h1m-2 1h1m1 0h1m-6 1h1m3 0h1m-8 1h1m3 0h1m1 0h1"/><path stroke="red" d="M2 15h1m-2 1h1m-1 1h1m5 0h1m-7 1h1m5 0h2m-7 1h8m-3 1h2m-2 1h1"/></svg>