<svg xmlns="http://www.w3.org/2000/svg" width="16" height="16" shape-rendering="crispEdges" viewBox="0 -0.5 16 16"><path stroke="gray" d="M7 0h2M5 1h2m2 0h2M3 2h2m6 0h2M1 3h2m10 0h2M1 4h1M1 5h1m12 0h1M0 6h1m1 0h2m8 0h2M0 7h1m9 0h2M0 8h1m8 0h1m4 0h1M8 9h1m3 0h3m-5 1h5M2 11h2m5 0h6M4 12h2m3 0h4m-7 1h2m1 0h2m-3 1h1"/><path stroke="#fff" d="M7 1h2M5 2h2M3 3h2M2 4h2m0 1h2M1 6h1m4 0h2M3 7h1m4 0h2M6 9h1m0 1h2"/><path stroke="silver" d="M7 2h4M5 3h8M4 4h11M2 5h2m2 0h8M4 6h2m2 0h4M1 7h1m4 0h2m6 0h1M8 8h1m3 0h2M7 9h1m2 0h2m-7 1h2m2 0h1m-6 1h5m-3 1h3m-1 1h1"/><path stroke="#000" d="M15 4h1m-1 1h1m-2 1h2m-4 1h2m1 0h1M6 8h2m2 0h2m3 0h1M4 9h2m3 0h1m5 0h1M0 10h5m10 0h1m-1 1h1m-3 1h2m-4 1h2m-4 1h2"/><path stroke="green" d="M2 7h1m1 0h1M1 8h1m1 0h1m1 0h1M0 9h1"/><path stroke="#0f0" d="M5 7h1M2 8h1m1 0h1M1 9h3"/></svg>