<svg xmlns="http://www.w3.org/2000/svg" viewBox="0 -0.5 32 32" shape-rendering="crispEdges">
<path stroke="#808080" d="M0 0h1M13 1h2M12 2h1M11 3h1M13 3h1M10 4h1M12 4h2M9 5h1M11 5h11M8 6h1M10 6h3M22 6h2M7 7h1M9 7h2M24 7h2M6 8h1M8 8h1M5 9h1M7 9h1M4 10h1M6 10h1M3 11h1M5 11h1M2 12h1M4 12h2M15 12h4M1 13h1M3 13h2M14 13h1M0 14h1M2 14h3M0 15h1M4 15h2M17 15h1M0 16h1M6 16h2M18 16h1M28 16h1M0 17h1M8 17h2M28 17h2M0 18h1M10 18h2M27 18h2M30 18h2M0 19h1M12 19h2M26 19h2M30 19h1M0 20h1M14 20h2M25 20h2M29 20h1M0 21h1M16 21h2M24 21h2M28 21h1M0 22h3M18 22h2M22 22h3M27 22h1M3 23h2M19 23h4M26 23h1M5 24h2M19 24h2M25 24h1M7 25h2M19 25h3M24 25h1M9 26h2M19 26h5M11 27h2M19 27h4M13 28h2M19 28h3M15 29h2M19 29h2M17 30h3" />
<path stroke="#ffffff" d="M0 0h1M13 2h1M12 3h1M11 4h1M10 5h1M9 6h1M13 6h2M8 7h1M13 7h2M7 8h1M14 8h2M6 9h1M14 9h2M5 10h1M14 10h2M4 11h1M15 11h1M3 12h1M2 13h1M16 13h2M1 14h1M14 14h4M1 15h3M15 15h1M1 16h1M4 16h2M1 17h1M6 17h2M18 17h1M1 18h1M8 18h2M18 18h2M1 19h1M4 19h2M10 19h2M19 19h2M29 19h1M1 20h1M6 20h2M12 20h2M20 20h2M28 20h1M1 21h1M4 21h2M8 21h2M14 21h2M21 21h1M27 21h1M6 22h2M10 22h2M16 22h2M26 22h1M8 23h2M12 23h2M25 23h1M10 24h2M24 24h1M12 25h2M23 25h1" />
<path stroke="#000000" d="M0 0h1M14 2h1M14 3h1M14 4h1M26 8h1M27 9h1M27 10h1M28 11h1M28 12h1M19 13h1M28 13h1M13 14h1M19 14h1M28 14h1M13 15h1M18 15h1M28 15h1M14 16h4M27 16h1M27 17h1M26 18h1M25 19h1M31 19h1M24 20h1M30 20h1M22 21h2M29 21h1M20 22h2M28 22h1M1 23h2M27 23h1M3 24h2M26 24h1M5 25h2M25 25h1M7 26h2M24 26h1M9 27h2M23 27h1M11 28h2M22 28h1M13 29h2M21 29h1M15 30h2M20 30h1M17 31h3" />
<path stroke="#ffff00" d="M0 0h1M15 6h6M15 7h7M23 7h1M16 8h5M22 8h1M16 9h6M16 10h5M16 11h4M5 13h9M19 15h9M15 17h3M14 18h1M16 18h2M15 19h1M17 19h2M16 20h4M18 21h3" />
<path stroke="#c0c0c0" d="M0 0h1M21 6h1M21 8h1M24 8h1M23 9h1M22 10h1M21 11h1M14 12h1M15 13h1M18 13h1M18 14h1M14 15h1M16 15h1M2 16h2M2 17h4M2 18h6M29 18h1M2 19h2M6 19h4M16 19h1M28 19h1M2 20h4M8 20h4M27 20h1M2 21h2M6 21h2M10 21h4M26 21h1M3 22h3M8 22h2M12 22h4M25 22h1M5 23h3M10 23h2M14 23h5M23 23h2M7 24h3M12 24h7M21 24h3M9 25h3M14 25h5M22 25h1M11 26h4M17 26h2M13 27h2M17 27h2M15 28h4M17 29h2" />
<path stroke="#00ffff" d="M0 0h1M11 7h2M9 8h5M8 9h6M10 10h4M12 11h3M26 11h1M23 12h1M25 12h1M27 12h1M20 13h1M22 13h1M24 13h1M26 13h1M5 14h8M20 14h8M6 15h1M8 15h1M10 15h1M12 15h1M9 16h1M11 16h1M19 17h3M20 18h5M21 19h4M22 20h2" />
<path stroke="#ff00ff" d="M0 0h1M22 7h1M23 8h1M25 8h1M22 9h1M24 9h3M21 10h1M23 10h4M20 11h1M22 11h4M27 11h1M19 12h4M24 12h1M26 12h1M21 13h1M23 13h1M25 13h1M27 13h1M7 15h1M9 15h1M11 15h1M8 16h1M10 16h1M12 16h2M10 17h5M12 18h2M15 18h1M14 19h1" />
<path stroke="#00ff00" d="M0 0h1M7 10h3M6 11h6M6 12h8M19 16h8M22 17h5M25 18h1M15 26h2" />
<path stroke="#008000" d="M0 0h1M15 27h2" />
</svg>