<svg xmlns="http://www.w3.org/2000/svg" width="32" height="32" shape-rendering="crispEdges" viewBox="0 -0.5 32 32"><path stroke="gray" d="M4 15h26M3 16h1m25 0h1M2 17h1m25 0h2M1 18h1m25 0h3M1 19h1m25 0h3M1 20h1m25 0h3M1 21h1m25 0h3M1 22h1m2 0h21m2 0h3M1 23h1m25 0h3M1 24h1m2 0h21m2 0h3M1 25h1m25 0h3M1 26h1m25 0h2M1 27h27"/><path stroke="silver" d="M4 16h25M3 17h25M3 19h19m3 0h2M3 20h19m3 0h2M3 21h24M3 22h1m21 0h2M3 23h1m21 0h2M3 24h1m21 0h2M3 25h1m21 0h2M3 26h24"/><path stroke="#000" d="M30 16h1m-1 1h1m-1 1h1m-1 1h1m-1 1h1m-1 1h1m-1 1h1m-1 1h1m-1 1h1m-1 1h1m-2 1h1m-2 1h1M2 28h26"/><path stroke="#fff" d="M2 18h25M2 19h1m-1 1h1m-1 1h1m-1 1h1m-1 1h1m1 0h21M2 24h1m-1 1h1m1 0h21M2 26h1"/><path stroke="#0f0" d="M22 19h3"/><path stroke="green" d="M22 20h3"/></svg>