<svg xmlns="http://www.w3.org/2000/svg" viewBox="0 -0.5 16 16" shape-rendering="crispEdges">
<path stroke="#808080" d="M0 0h1M2 0h12M13 1h1M0 2h1M13 2h1M0 3h1M12 3h2M0 4h1M2 4h9M12 4h2M0 5h1M0 6h5M5 8h6M4 9h1M4 13h1M6 13h4M4 14h1M6 14h1M8 14h1M4 15h1" />
<path stroke="#c0c0c0" d="M0 0h1M2 1h11M1 3h8M11 3h1M1 4h1M11 4h1M1 5h4M14 7h1M11 8h1M13 8h1M5 9h1M10 9h1M12 9h1M14 9h1M5 10h1M10 10h1M10 11h1M5 12h6M5 13h1M10 13h1M5 14h1M10 14h1" />
<path stroke="#000000" d="M0 0h1M14 1h1M14 2h1M14 3h1M14 4h1M1 7h4M8 7h1M13 7h1M11 9h1M11 10h1M13 10h1M11 11h4M11 12h1M11 13h1M7 14h1M11 14h1M5 15h7" />
<path stroke="#ffffff" d="M0 0h1M1 2h12M6 6h9M6 7h1M6 9h4M6 10h4M6 11h4M9 14h1" />
<path stroke="#00ff00" d="M0 0h1M9 3h1" />
<path stroke="#008000" d="M0 0h1M10 3h1" />
<path stroke="#808000" d="M0 0h1M5 5h11M5 6h1M15 6h1M5 7h1M7 7h1M10 7h1M12 7h1M15 7h1M12 8h1M15 8h1M15 9h1M12 10h1M14 10h2" />
<path stroke="#ffff00" d="M0 0h1M9 7h1M11 7h1M14 8h1M13 9h1" />
<path stroke="#ff0000" d="M0 0h1M2 8h1M1 9h1M1 10h1M4 10h1M2 11h4M4 12h1" />
</svg>