<svg xmlns="http://www.w3.org/2000/svg" width="32" height="32" shape-rendering="crispEdges" viewBox="0 -0.5 32 32"><path stroke="gray" d="M9 0h13M8 1h1m1 0h1M5 2h3m3 0h2M3 3h2m3 0h1m4 0h2M2 4h1m2 0h4m6 0h2M2 5h1m1 0h5m8 0h2M2 6h1m2 0h4m16 0h1M2 7h1m4 0h2m17 0h2M2 8h1m25 0h2M3 9h1m-1 1h1m-1 1h1m24 0h2M3 12h1m21 0h5M4 13h1m7 0h1m9 0h7M4 14h1m15 0h9M4 15h1m15 0h9M4 16h1m15 0h9M5 17h1m14 0h8M5 18h1m14 0h8M5 19h1m14 0h8M5 20h1m14 0h8M6 21h1m2 0h1m6 0h1m3 0h7M6 22h1m13 0h7M6 23h1m4 0h1m8 0h7M6 24h3m3 0h1m7 0h7M9 25h2m2 0h1m6 0h6m-15 1h2m7 0h6m-13 1h2m5 0h6m-11 1h2m3 0h6m-9 1h2m1 0h4m-5 1h3"/><path stroke="#000" d="M22 0h1m0 1h1m0 1h1m-1 1h1m-1 1h1m-1 1h1m-6 1h1m4 0h1m-6 1h1m4 0h1m-6 1h1m3 0h1m-5 1h1m2 0h1m7 0h1m-12 1h1m2 0h1m7 0h1m-12 1h1m2 0h1m7 0h1m-12 1h1m10 0h1m-2 1h1m-1 1h1m-1 1h1m-1 1h1m-2 1h1m-1 1h1m-1 1h1m-1 1h1m-2 1h1m-1 1h1m-1 1h1m-1 1h1M7 25h2m17 0h1M9 26h2m15 0h1m-16 1h2m13 0h1m-14 1h2m11 0h1m-12 1h2m7 0h2m-9 1h2m3 0h2m-5 1h3"/><path stroke="silver" d="M9 1h1M9 2h1m3 0h1m1 0h1m1 0h1m1 0h1m1 0h1M9 3h1m2 0h1m3 0h1m1 0h1m1 0h1m1 0h1M9 4h1m1 0h1m1 0h1m3 0h1m1 0h1m1 0h1M9 5h1m2 0h1m1 0h1m1 0h1m3 0h1m1 0h1M9 6h1m1 0h1m1 0h1m1 0h1m1 0h1m3 0h1M3 7h2m4 0h1m2 0h1m1 0h1m1 0h1m3 0h1m1 0h1M3 8h4m2 0h1m1 0h1m1 0h1m1 0h1m1 0h1m3 0h1m2 0h2M4 9h5m3 0h1m1 0h1m1 0h1m3 0h1m2 0h5M4 10h7m2 0h1m1 0h1m1 0h1m5 0h5M4 11h9m3 0h1m3 0h1m2 0h2M4 12h11m2 0h1M5 13h7m3 0h2M5 14h6m5 0h1m1 0h2M5 15h2m4 0h3m4 0h2M5 16h3m3 0h4m3 0h2M6 17h1m4 0h3m4 0h2M6 18h1m2 0h1m1 0h9M6 19h1m2 0h8m1 0h2M6 20h1m2 0h4m1 0h3m1 0h2M7 21h1m2 0h2m2 0h2m2 0h2M7 22h2m1 0h1m7 0h2M7 23h4m6 0h3M9 24h3m2 0h6m-9 1h2m1 0h6m-7 1h7m-5 1h5m-3 1h3m-1 1h1"/><path stroke="#fff" d="M11 1h11M8 2h1m1 0h1M5 3h3m2 0h1M3 4h2m5 0h1M3 5h1m6 0h1M3 6h2m5 0h1M5 7h2m3 0h1m14 0h1M7 8h2m1 0h1m15 0h2M9 9h2m17 0h2m-19 1h2m15 0h2m-17 1h2m10 0h3m-13 1h2m5 0h3m-8 1h5"/><path stroke="#bfbf00" d="M22 1h1m0 1h1m-1 1h1m-1 1h1m-1 1h1m-6 1h1m4 0h1m-6 1h1m4 0h1m-6 1h1m3 0h1m-5 1h1m2 0h1m-4 1h1m2 0h1m-4 1h1m2 0h1m-4 1h1m2 0h1"/><path stroke="#ff0" d="M14 2h1m1 0h1m1 0h1m1 0h1m1 0h1M11 3h1m3 0h1m1 0h1m1 0h1m1 0h1M12 4h1m1 0h1m3 0h1m1 0h1m1 0h1M11 5h1m1 0h1m1 0h1m3 0h1m1 0h1M12 6h1m1 0h1m1 0h1m3 0h1m1 0h1M11 7h1m1 0h1m1 0h1m1 0h1m3 0h1M12 8h1m1 0h1m1 0h1m3 0h1M11 9h1m1 0h1m1 0h1m1 0h1m-4 1h1m1 0h1m3 0h1m-6 1h1m1 0h1m2 1h1"/><path stroke="#00bf00" d="M13 13h2m-4 1h5m1 0h1M7 15h4m3 0h4M8 16h3m4 0h3M7 17h4m3 0h4M7 18h2m1 0h1m-4 1h2m8 0h1M7 20h2m4 0h1m3 0h1M8 21h1m3 0h2m3 0h1m-9 1h1m1 0h7m-6 1h5m-4 1h1"/></svg>