<svg xmlns="http://www.w3.org/2000/svg" viewBox="0 -0.5 32 32" shape-rendering="crispEdges">
<path stroke="#808080" d="M0 0h1M8 0h13M7 1h2M20 1h1M4 2h3M8 2h1M20 2h1M2 3h2M7 3h2M20 3h1M1 4h1M4 4h5M1 5h1M3 5h6M21 5h3M1 6h1M4 6h5M1 7h1M6 7h3M25 7h2M1 8h1M27 8h2M2 9h1M2 10h1M2 11h1M27 11h2M2 12h1M24 12h5M3 13h1M11 13h1M21 13h7M3 14h1M19 14h9M3 15h1M19 15h9M3 16h1M19 16h9M4 17h1M19 17h8M4 18h1M19 18h8M4 19h1M19 19h8M4 20h1M19 20h8M5 21h1M8 21h1M15 21h1M19 21h7M5 22h1M19 22h7M5 23h1M10 23h1M19 23h7M5 24h3M11 24h1M19 24h7M8 25h2M12 25h1M19 25h6M10 26h2M19 26h6M12 27h2M19 27h6M14 28h2M19 28h6M16 29h2M19 29h4M18 30h3" />
<path stroke="#ffffff" d="M0 0h1M9 1h11M7 2h1M9 2h11M4 3h3M9 3h11M21 3h1M2 4h2M9 4h11M2 5h1M9 5h2M19 5h2M2 6h2M9 6h15M4 7h2M9 7h2M22 7h2M6 8h2M10 8h14M25 8h2M8 9h2M22 9h2M27 9h2M10 10h2M14 10h10M27 10h2M12 11h2M24 11h3M14 12h2M21 12h3M16 13h5" />
<path stroke="#000000" d="M0 0h1M21 1h1M22 2h1M23 3h1M20 4h5M24 5h1M24 6h1M24 7h1M24 8h1M24 9h1M29 9h1M24 10h1M29 10h1M29 11h1M29 12h1M28 13h1M28 14h1M28 15h1M28 16h1M27 17h1M27 18h1M27 19h1M27 20h1M26 21h1M26 22h1M26 23h1M26 24h1M6 25h2M25 25h1M8 26h2M25 26h1M10 27h2M25 27h1M12 28h2M25 28h1M14 29h2M23 29h2M16 30h2M21 30h2M18 31h3" />
<path stroke="#c0c0c0" d="M0 0h1M21 2h1M22 3h1M2 7h2M2 8h4M8 8h2M3 9h5M10 9h1M25 9h2M3 10h7M12 10h2M25 10h2M3 11h9M14 11h1M22 11h2M3 12h11M16 12h5M4 13h7M14 13h2M4 14h6M15 14h1M17 14h2M4 15h2M10 15h3M17 15h2M4 16h3M10 16h4M17 16h2M5 17h1M10 17h3M17 17h2M5 18h1M8 18h1M10 18h9M5 19h1M8 19h8M17 19h2M5 20h1M8 20h4M13 20h3M17 20h2M6 21h1M9 21h2M13 21h2M17 21h2M6 22h2M9 22h1M17 22h2M6 23h4M16 23h3M8 24h3M13 24h6M10 25h2M13 25h6M12 26h7M14 27h5M16 28h3M18 29h1" />
<path stroke="#0000ff" d="M0 0h1M11 5h8M11 7h11M11 9h11M15 11h7" />
<path stroke="#008000" d="M0 0h1M12 13h2M10 14h5M16 14h1M6 15h4M13 15h4M7 16h3M14 16h3M6 17h4M13 17h4M6 18h2M9 18h1M6 19h2M16 19h1M6 20h2M12 20h1M16 20h1M7 21h1M11 21h2M16 21h1M8 22h1M10 22h7M11 23h5M12 24h1" />
</svg>