<svg xmlns="http://www.w3.org/2000/svg" viewBox="0 -0.5 32 32" shape-rendering="crispEdges">
<path stroke="#808080" d="M0 0h1M9 0h13M8 1h1M10 1h1M5 2h3M11 2h2M3 3h2M8 3h1M13 3h2M2 4h1M5 4h4M15 4h2M2 5h1M4 5h5M17 5h2M2 6h1M5 6h4M25 6h1M2 7h1M7 7h2M26 7h2M2 8h1M28 8h2M3 9h1M3 10h1M3 11h1M28 11h2M3 12h1M25 12h5M4 13h1M12 13h1M22 13h7M4 14h1M20 14h9M4 15h1M20 15h9M4 16h1M20 16h9M5 17h1M20 17h8M5 18h1M20 18h8M5 19h1M20 19h8M5 20h1M20 20h8M6 21h1M9 21h1M16 21h1M20 21h7M6 22h1M20 22h7M6 23h1M11 23h1M20 23h7M6 24h3M12 24h1M20 24h7M9 25h2M13 25h1M20 25h6M11 26h2M20 26h6M13 27h2M20 27h6M15 28h2M20 28h6M17 29h2M20 29h4M19 30h3" />
<path stroke="#000000" d="M0 0h1M22 0h1M23 1h1M24 2h1M24 3h1M24 4h1M24 5h1M19 6h1M24 6h1M19 7h1M24 7h1M19 8h1M23 8h1M19 9h1M22 9h1M30 9h1M19 10h1M22 10h1M30 10h1M19 11h1M22 11h1M30 11h1M19 12h1M30 12h1M29 13h1M29 14h1M29 15h1M29 16h1M28 17h1M28 18h1M28 19h1M28 20h1M27 21h1M27 22h1M27 23h1M27 24h1M7 25h2M26 25h1M9 26h2M26 26h1M11 27h2M26 27h1M13 28h2M26 28h1M15 29h2M24 29h2M17 30h2M22 30h2M19 31h3" />
<path stroke="#c0c0c0" d="M0 0h1M9 1h1M9 2h1M13 2h1M15 2h1M17 2h1M19 2h1M21 2h1M9 3h1M12 3h1M16 3h1M18 3h1M20 3h1M22 3h1M9 4h1M11 4h1M13 4h1M17 4h1M19 4h1M21 4h1M9 5h1M12 5h1M14 5h1M16 5h1M20 5h1M22 5h1M9 6h1M11 6h1M13 6h1M15 6h1M17 6h1M21 6h1M3 7h2M9 7h1M12 7h1M14 7h1M16 7h1M20 7h1M22 7h1M3 8h4M9 8h1M11 8h1M13 8h1M15 8h1M17 8h1M21 8h1M24 8h2M4 9h5M12 9h1M14 9h1M16 9h1M20 9h1M23 9h5M4 10h7M13 10h1M15 10h1M17 10h1M23 10h5M4 11h9M16 11h1M20 11h1M23 11h2M4 12h11M17 12h1M5 13h7M15 13h2M5 14h6M16 14h1M18 14h2M5 15h2M11 15h3M18 15h2M5 16h3M11 16h4M18 16h2M6 17h1M11 17h3M18 17h2M6 18h1M9 18h1M11 18h9M6 19h1M9 19h8M18 19h2M6 20h1M9 20h4M14 20h3M18 20h2M7 21h1M10 21h2M14 21h2M18 21h2M7 22h2M10 22h1M18 22h2M7 23h4M17 23h3M9 24h3M14 24h6M11 25h2M14 25h6M13 26h7M15 27h5M17 28h3M19 29h1" />
<path stroke="#ffffff" d="M0 0h1M11 1h11M8 2h1M10 2h1M5 3h3M10 3h1M3 4h2M10 4h1M3 5h1M10 5h1M3 6h2M10 6h1M5 7h2M10 7h1M25 7h1M7 8h2M10 8h1M26 8h2M9 9h2M28 9h2M11 10h2M28 10h2M13 11h2M25 11h3M15 12h2M22 12h3M17 13h5" />
<path stroke="#bfbf00" d="M0 0h1M22 1h1M23 2h1M23 3h1M23 4h1M23 5h1M18 6h1M23 6h1M18 7h1M23 7h1M18 8h1M22 8h1M18 9h1M21 9h1M18 10h1M21 10h1M18 11h1M21 11h1M18 12h1M21 12h1" />
<path stroke="#ffff00" d="M0 0h1M14 2h1M16 2h1M18 2h1M20 2h1M22 2h1M11 3h1M15 3h1M17 3h1M19 3h1M21 3h1M12 4h1M14 4h1M18 4h1M20 4h1M22 4h1M11 5h1M13 5h1M15 5h1M19 5h1M21 5h1M12 6h1M14 6h1M16 6h1M20 6h1M22 6h1M11 7h1M13 7h1M15 7h1M17 7h1M21 7h1M12 8h1M14 8h1M16 8h1M20 8h1M11 9h1M13 9h1M15 9h1M17 9h1M14 10h1M16 10h1M20 10h1M15 11h1M17 11h1M20 12h1" />
<path stroke="#00bf00" d="M0 0h1M13 13h2M11 14h5M17 14h1M7 15h4M14 15h4M8 16h3M15 16h3M7 17h4M14 17h4M7 18h2M10 18h1M7 19h2M17 19h1M7 20h2M13 20h1M17 20h1M8 21h1M12 21h2M17 21h1M9 22h1M11 22h7M12 23h5M13 24h1" />
</svg>