<svg xmlns="http://www.w3.org/2000/svg" viewBox="0 -0.5 16 16" shape-rendering="crispEdges">
<path stroke="#808080" d="M0 0h1M5 0h4M3 1h2M6 1h1M9 1h2M1 2h2M5 2h1M11 2h2M1 3h1M4 3h2M7 3h1M13 3h2M1 4h1M7 4h2M1 5h1M8 5h1M14 5h1M2 6h1M12 6h3M2 7h1M11 7h4M2 8h1M11 8h3M2 9h1M11 9h3M3 10h1M11 10h3M3 11h1M11 11h3M11 12h2M11 13h2M11 14h2" />
<path stroke="#ffffff" d="M0 0h1M5 1h1M7 1h2M3 2h2M9 2h2M2 3h2M11 3h2M4 4h2M13 4h2M6 5h2M12 5h2M8 6h4" />
<path stroke="#000000" d="M0 0h1M6 2h1M6 3h1M6 4h1M15 4h1M15 5h1M15 6h1M15 7h1M14 8h1M14 9h1M14 10h1M14 11h1M3 12h2M13 12h1M5 13h2M13 13h1M7 14h2M13 14h1M9 15h4" />
<path stroke="#c0c0c0" d="M0 0h1M7 2h2M8 3h3M2 4h2M9 4h4M2 5h4M9 5h3M3 6h3M3 7h2M6 7h2M10 7h1M3 8h1M7 8h1M10 8h1M3 9h2M6 9h5M4 10h1M6 10h1M8 10h1M10 10h1M4 11h2M10 11h1M5 12h2M8 12h3M7 13h4M9 14h2" />
<path stroke="#008000" d="M0 0h1M6 6h2M5 7h1M8 7h2M4 8h3M8 8h2M5 9h1M5 10h1M7 10h1M9 10h1M6 11h4M7 12h1" />
</svg>