<svg xmlns="http://www.w3.org/2000/svg" width="16" height="16" shape-rendering="crispEdges" viewBox="0 -0.5 16 16"><path stroke="gray" d="M5 0h4M3 1h2m1 0h1m2 0h2M1 2h2m2 0h1m5 0h2M1 3h1m2 0h2m1 0h1m5 0h2M1 4h1m5 0h2M1 5h1m6 0h1m5 0h1M2 6h1m9 0h3M2 7h1m8 0h4M2 8h1m8 0h3M2 9h1m8 0h3M3 10h1m7 0h3M3 11h1m7 0h3m-3 1h2m-2 1h2m-2 1h2"/><path stroke="#fff" d="M5 1h1m1 0h2M3 2h2m4 0h2M2 3h2m7 0h2M4 4h2m7 0h2M6 5h2m4 0h2M8 6h4"/><path stroke="#000" d="M6 2h1M6 3h1M6 4h1m8 0h1m-1 1h1m-1 1h1m-1 1h1m-2 1h1m-1 1h1m-1 1h1m-1 1h1M3 12h2m8 0h1m-9 1h2m6 0h1m-7 1h2m4 0h1m-5 1h4"/><path stroke="silver" d="M7 2h2M8 3h3M2 4h2m5 0h4M2 5h4m3 0h3M3 6h3M3 7h2m1 0h2m2 0h1M3 8h1m3 0h1m2 0h1M3 9h2m1 0h5m-7 1h1m1 0h1m1 0h1m1 0h1m-7 1h2m4 0h1m-6 1h2m1 0h3m-4 1h4m-2 1h2"/><path stroke="green" d="M6 6h2M5 7h1m2 0h2M4 8h3m1 0h2M5 9h1m-1 1h1m1 0h1m1 0h1m-4 1h4m-3 1h1"/></svg>