<svg xmlns="http://www.w3.org/2000/svg" viewBox="0 -0.5 16 16" shape-rendering="crispEdges">
<path stroke="#000000" d="M0 0h1M2 0h10M2 1h1M11 1h2M2 2h1M11 2h1M13 2h1M2 3h1M11 3h4M2 4h1M14 4h1M2 5h1M14 5h1M2 6h1M14 6h1M2 7h1M14 7h1M2 8h1M14 8h1M2 9h1M14 9h1M2 10h1M14 10h1M2 11h1M14 11h1M2 12h1M14 12h1M2 13h1M14 13h1M2 14h1M14 14h1M2 15h13" />
<path stroke="#ffffff" d="M0 0h1M3 1h8M3 2h8M12 2h1M3 3h5M9 3h2M3 4h5M10 4h4M3 5h3M11 5h3M3 6h2M6 6h2M10 6h4M3 7h2M6 7h2M9 7h5M3 8h2M6 8h5M12 8h2M3 9h5M9 9h2M12 9h2M3 10h4M9 10h2M12 10h2M3 11h3M11 11h3M3 12h4M9 12h5M3 13h5M9 13h5M3 14h11" />
<path stroke="#008000" d="M0 0h1M8 3h1M8 4h2M6 5h5M5 6h1M8 6h2M5 7h1M8 7h1M5 8h1M11 8h1M8 9h1M11 9h1M7 10h2M11 10h1M6 11h5M7 12h2M8 13h1" />
</svg>