<svg xmlns="http://www.w3.org/2000/svg" viewBox="0 -0.5 32 32" shape-rendering="crispEdges">
<path stroke="#808080" d="M0 0h1M18 0h1M17 1h1M16 2h1M15 3h1M26 3h3M15 4h1M25 4h1M15 5h1M24 5h1M5 6h5M11 6h1M16 6h1M23 6h1M3 7h2M13 7h1M17 7h1M24 7h1M2 8h1M14 8h1M25 8h1M1 9h1M15 9h1M26 9h1M1 10h1M7 10h1M9 10h1M11 10h1M13 10h1M15 10h7M0 11h1M0 12h1M22 12h3M0 13h1M0 14h1M0 15h1M0 16h2M15 16h1M0 17h2M15 17h1M0 18h1M2 18h1M14 18h1M16 18h1M0 19h1M14 19h2M17 19h1M0 20h1M11 20h1M15 20h1M18 20h1M0 21h1M12 21h1M19 21h1M0 22h1M13 22h1M20 22h1M0 23h1M21 23h1M0 24h1M22 24h1M0 25h1M23 25h1M0 26h1M24 26h1M0 27h1M25 27h1M0 28h1M0 29h1M0 30h1" />
<path stroke="#ffffff" d="M0 0h1M18 1h1M17 2h1M19 2h1M16 3h1M18 3h1M20 3h1M17 4h1M19 4h1M26 4h1M18 5h1M25 5h1M27 5h1M24 6h1M26 6h1M28 6h1M25 7h1M27 7h1M26 8h1M6 11h1M8 11h1M12 11h1M17 11h1M19 11h1M16 12h3M4 13h1M6 13h1M8 13h1M10 13h1M17 13h1M22 13h1M9 14h1M11 14h1M18 14h1M21 14h1M23 14h1M2 15h1M4 15h1M10 15h1M20 15h1M22 15h1M24 15h1M3 16h1M11 16h1M21 16h1M23 16h1M4 17h1M22 17h1M1 19h1M2 20h1M4 20h1M13 20h1M6 21h4M14 21h1M2 22h1M4 22h1M6 22h1M8 22h1M1 23h1M3 23h1M7 23h1M9 23h1M2 24h1M4 24h1M6 24h1M8 24h1M1 25h1M3 25h1M7 25h1M9 25h1M13 25h1M15 25h1M11 26h4M1 27h1M3 27h1M7 27h1M9 27h1M11 27h1M13 27h1M2 28h1M4 28h1M6 28h1M8 28h1M12 28h1M14 28h1M1 29h1M3 29h1M7 29h1M9 29h1M11 29h1M13 29h1M2 30h1M4 30h1M6 30h1M8 30h1M12 30h1M14 30h1" />
<path stroke="#000000" d="M0 0h1M19 1h1M20 2h1M21 3h1M21 4h1M29 4h1M21 5h1M30 5h1M10 6h1M20 6h1M31 6h1M11 7h2M19 7h1M30 7h1M13 8h1M18 8h1M29 8h1M14 9h1M27 9h2M14 10h1M15 11h1M21 11h1M15 12h1M21 12h1M15 13h1M21 13h1M25 13h1M7 14h1M15 14h1M26 14h1M15 15h1M27 15h1M7 16h1M14 16h1M20 16h1M26 16h1M14 17h1M16 17h4M21 17h1M25 17h1M7 18h1M9 18h1M13 18h1M15 18h1M19 18h1M21 18h4M3 19h2M11 19h2M16 19h1M19 19h1M21 19h1M5 20h6M17 20h1M19 20h1M21 20h1M5 21h1M18 21h1M20 21h2M12 22h1M19 22h1M21 22h1M12 23h1M20 23h1M12 24h3M21 24h1M11 25h1M22 25h1M10 26h1M23 26h1M17 27h1M24 27h1M17 28h2M25 28h1M17 29h1M25 29h1M16 30h1M25 30h1M0 31h16M22 31h3" />
<path stroke="#00ffff" d="M0 0h1M18 2h1M17 3h1M19 3h1M18 4h1M26 5h1M25 6h1M27 6h1M5 7h1M7 7h1M9 7h1M26 7h1M4 8h1M6 8h1M8 8h1M10 8h1M3 9h1M5 9h1M7 9h1M9 9h1M11 9h1M2 10h1M4 10h1M6 10h1M8 10h1M10 10h1M12 10h1M1 11h1M3 11h1M5 11h1M7 11h1M9 11h1M11 11h1M13 11h1M16 11h1M18 11h1M2 12h1M4 12h1M6 12h1M8 12h1M10 12h1M12 12h1M1 13h1M3 13h1M5 13h1M7 13h1M9 13h1M11 13h1M13 13h1M16 13h1M18 13h1M2 14h1M4 14h1M6 14h1M8 14h1M10 14h1M12 14h1M17 14h1M22 14h1M1 15h1M3 15h1M5 15h1M7 15h1M9 15h1M11 15h1M13 15h1M18 15h1M21 15h1M23 15h1M2 16h1M4 16h1M6 16h1M8 16h1M10 16h1M12 16h1M22 16h1M3 17h1M5 17h1M7 17h1M9 17h1M11 17h1M1 18h1M4 18h1M6 18h1M8 18h1M10 18h1M17 18h1M2 19h1M1 20h1M3 20h1M15 21h1M1 22h1M3 22h1M7 22h1M9 22h1M15 22h2M2 23h1M4 23h1M6 23h1M8 23h1M16 23h2M1 24h1M3 24h1M7 24h1M9 24h1M17 24h2M2 25h1M4 25h1M6 25h1M8 25h1M12 25h1M14 25h1M18 25h2M19 26h2M2 27h1M4 27h1M6 27h1M8 27h1M12 27h1M14 27h1M20 27h2M1 28h1M3 28h1M7 28h1M9 28h1M11 28h1M13 28h1M21 28h2M2 29h1M4 29h1M6 29h1M8 29h1M12 29h1M14 29h1M22 29h2M1 30h1M3 30h1M7 30h1M9 30h1M11 30h1M13 30h1M23 30h1" />
<path stroke="#008080" d="M0 0h1M16 4h1M20 4h1M27 4h2M16 5h2M19 5h2M28 5h2M17 6h3M29 6h2M10 7h1M18 7h1M28 7h2M9 8h1M11 8h2M27 8h2M8 9h1M10 9h1M12 9h2M10 11h1M14 11h1M20 11h1M5 12h1M7 12h1M9 12h1M11 12h1M13 12h2M19 12h2M12 13h1M14 13h1M19 13h2M23 13h2M3 14h1M5 14h1M13 14h2M16 14h1M19 14h2M24 14h2M6 15h1M8 15h1M12 15h1M14 15h1M16 15h2M19 15h1M25 15h2M5 16h1M9 16h1M13 16h1M16 16h4M24 16h2M6 17h1M8 17h1M10 17h1M12 17h2M20 17h1M23 17h2M5 18h1M11 18h2M18 18h1M20 18h1M5 19h6M18 19h1M20 19h1M20 20h1M1 21h4M10 21h2M5 22h1M10 22h2M5 23h1M10 23h2M13 23h1M5 24h1M10 24h2M5 25h1M10 25h1M1 26h9M15 26h2M5 27h1M10 27h1M15 27h2M5 28h1M10 28h1M15 28h2M5 29h1M10 29h1M15 29h2M5 30h1M10 30h1M15 30h1" />
<path stroke="#c0c0c0" d="M0 0h1M2 17h1M3 18h1M13 19h1M12 20h1M14 20h1M13 21h1" />
<path stroke="#0000ff" d="M0 0h1M16 20h1M16 21h2M14 22h1M17 22h2M15 23h1M18 23h2M16 24h1M19 24h2M17 25h1M20 25h2M18 26h1M21 26h2M19 27h1M22 27h2M20 28h1M23 28h2M21 29h1M24 29h1M22 30h1M24 30h1" />
<path stroke="#000080" d="M0 0h1M14 23h1M15 24h1M16 25h1M17 26h1M18 27h1M19 28h1M20 29h1M21 30h1" />
</svg>