<svg xmlns="http://www.w3.org/2000/svg" width="32" height="32" shape-rendering="crispEdges" viewBox="0 -0.5 32 32"><path stroke="gray" d="M18 0h1m-2 1h1m-2 1h1m-2 1h1m10 0h3M15 4h1m9 0h1M15 5h1m8 0h1M5 6h5m1 0h1m4 0h1m6 0h1M3 7h2m8 0h1m3 0h1m6 0h1M2 8h1m11 0h1m10 0h1M1 9h1m13 0h1m10 0h1M1 10h1m5 0h1m1 0h1m1 0h1m1 0h1m1 0h7M0 11h1m-1 1h1m21 0h3M0 13h1m-1 1h1m-1 1h1m-1 1h2m13 0h1M0 17h2m13 0h1M0 18h1m1 0h1m11 0h1m1 0h1M0 19h1m13 0h2m1 0h1M0 20h1m10 0h1m3 0h1m2 0h1M0 21h1m11 0h1m6 0h1M0 22h1m12 0h1m6 0h1M0 23h1m20 0h1M0 24h1m21 0h1M0 25h1m22 0h1M0 26h1m23 0h1M0 27h1m24 0h1M0 28h1m-1 1h1m-1 1h1"/><path stroke="#fff" d="M18 1h1m-2 1h1m1 0h1m-4 1h1m1 0h1m1 0h1m-4 1h1m1 0h1m6 0h1m-9 1h1m6 0h1m1 0h1m-4 1h1m1 0h1m1 0h1m-4 1h1m1 0h1m-2 1h1M6 11h1m1 0h1m3 0h1m4 0h1m1 0h1m-4 1h3M4 13h1m1 0h1m1 0h1m1 0h1m6 0h1m4 0h1M9 14h1m1 0h1m6 0h1m2 0h1m1 0h1M2 15h1m1 0h1m5 0h1m9 0h1m1 0h1m1 0h1M3 16h1m7 0h1m9 0h1m1 0h1M4 17h1m17 0h1M1 19h1m0 1h1m1 0h1m8 0h1m-8 1h4m4 0h1M2 22h1m1 0h1m1 0h1m1 0h1m-8 1h1m1 0h1m3 0h1m1 0h1m-8 1h1m1 0h1m1 0h1m1 0h1m-8 1h1m1 0h1m3 0h1m1 0h1m3 0h1m1 0h1m-5 1h4M1 27h1m1 0h1m3 0h1m1 0h1m1 0h1m1 0h1M2 28h1m1 0h1m1 0h1m1 0h1m3 0h1m1 0h1M1 29h1m1 0h1m3 0h1m1 0h1m1 0h1m1 0h1M2 30h1m1 0h1m1 0h1m1 0h1m3 0h1m1 0h1"/><path stroke="#000" d="M19 1h1m0 1h1m0 1h1m-1 1h1m7 0h1m-9 1h1m8 0h1M10 6h1m9 0h1m10 0h1M11 7h2m6 0h1m10 0h1M13 8h1m4 0h1m10 0h1M14 9h1m12 0h2m-15 1h1m0 1h1m5 0h1m-7 1h1m5 0h1m-7 1h1m5 0h1m3 0h1M7 14h1m7 0h1m10 0h1m-12 1h1m11 0h1M7 16h1m6 0h1m5 0h1m5 0h1m-13 1h1m1 0h4m1 0h1m3 0h1M7 18h1m1 0h1m3 0h1m1 0h1m3 0h1m1 0h4M3 19h2m6 0h2m3 0h1m2 0h1m1 0h1M5 20h6m6 0h1m1 0h1m1 0h1M5 21h1m12 0h1m1 0h2m-10 1h1m6 0h1m1 0h1m-10 1h1m7 0h1m-9 1h3m6 0h1m-11 1h1m10 0h1m-13 1h1m12 0h1m-7 1h1m6 0h1m-8 1h2m6 0h1m-9 1h1m7 0h1m-10 1h1m8 0h1M0 31h16m6 0h3"/><path stroke="#0ff" d="M18 2h1m-2 1h1m1 0h1m-2 1h1m7 1h1m-2 1h1m1 0h1M5 7h1m1 0h1m1 0h1m16 0h1M4 8h1m1 0h1m1 0h1m1 0h1M3 9h1m1 0h1m1 0h1m1 0h1m1 0h1M2 10h1m1 0h1m1 0h1m1 0h1m1 0h1m1 0h1M1 11h1m1 0h1m1 0h1m1 0h1m1 0h1m1 0h1m1 0h1m2 0h1m1 0h1M2 12h1m1 0h1m1 0h1m1 0h1m1 0h1m1 0h1M1 13h1m1 0h1m1 0h1m1 0h1m1 0h1m1 0h1m1 0h1m2 0h1m1 0h1M2 14h1m1 0h1m1 0h1m1 0h1m1 0h1m1 0h1m4 0h1m4 0h1M1 15h1m1 0h1m1 0h1m1 0h1m1 0h1m1 0h1m1 0h1m4 0h1m2 0h1m1 0h1M2 16h1m1 0h1m1 0h1m1 0h1m1 0h1m1 0h1m9 0h1M3 17h1m1 0h1m1 0h1m1 0h1m1 0h1M1 18h1m2 0h1m1 0h1m1 0h1m1 0h1m6 0h1M2 19h1m-2 1h1m1 0h1m11 1h1M1 22h1m1 0h1m3 0h1m1 0h1m5 0h2M2 23h1m1 0h1m1 0h1m1 0h1m7 0h2M1 24h1m1 0h1m3 0h1m1 0h1m7 0h2M2 25h1m1 0h1m1 0h1m1 0h1m3 0h1m1 0h1m3 0h2m-1 1h2M2 27h1m1 0h1m1 0h1m1 0h1m3 0h1m1 0h1m5 0h2M1 28h1m1 0h1m3 0h1m1 0h1m1 0h1m1 0h1m7 0h2M2 29h1m1 0h1m1 0h1m1 0h1m3 0h1m1 0h1m7 0h2M1 30h1m1 0h1m3 0h1m1 0h1m1 0h1m1 0h1m9 0h1"/><path stroke="teal" d="M16 4h1m3 0h1m6 0h2M16 5h2m1 0h2m7 0h2M17 6h3m9 0h2M10 7h1m7 0h1m9 0h2M9 8h1m1 0h2m14 0h2M8 9h1m1 0h1m1 0h2m-4 2h1m3 0h1m5 0h1M5 12h1m1 0h1m1 0h1m1 0h1m1 0h2m4 0h2m-9 1h1m1 0h1m4 0h2m2 0h2M3 14h1m1 0h1m7 0h2m1 0h1m2 0h2m3 0h2M6 15h1m1 0h1m3 0h1m1 0h1m1 0h2m1 0h1m5 0h2M5 16h1m3 0h1m3 0h1m2 0h4m4 0h2M6 17h1m1 0h1m1 0h1m1 0h2m6 0h1m2 0h2M5 18h1m5 0h2m5 0h1m1 0h1M5 19h6m7 0h1m1 0h1m-1 1h1M1 21h4m5 0h2m-7 1h1m4 0h2m-7 1h1m4 0h2m1 0h1m-9 1h1m4 0h2m-7 1h1m4 0h1M1 26h9m5 0h2M5 27h1m4 0h1m4 0h2M5 28h1m4 0h1m4 0h2M5 29h1m4 0h1m4 0h2M5 30h1m4 0h1m4 0h1"/><path stroke="silver" d="M2 17h1m0 1h1m9 1h1m-2 1h1m1 0h1m-2 1h1"/><path stroke="#00f" d="M16 20h1m-1 1h2m-4 1h1m2 0h2m-4 1h1m2 0h2m-4 1h1m2 0h2m-4 1h1m2 0h2m-4 1h1m2 0h2m-4 1h1m2 0h2m-4 1h1m2 0h2m-4 1h1m2 0h1m-3 1h1m1 0h1"/><path stroke="navy" d="M14 23h1m0 1h1m0 1h1m0 1h1m0 1h1m0 1h1m0 1h1m0 1h1"/></svg>