<svg xmlns="http://www.w3.org/2000/svg" viewBox="0 -0.5 16 16" shape-rendering="crispEdges">
<path stroke="#808080" d="M0 0h1M9 0h1M8 1h1M7 2h1M13 2h1M8 3h1M12 3h1M3 4h6M11 4h1M2 5h1M10 5h1M12 5h1M1 6h1M0 7h1M0 8h1M0 9h1M0 10h1M0 11h1M0 12h1M0 13h1M0 14h1" />
<path stroke="#ffffff" d="M0 0h1M9 1h1M13 3h1M5 5h2M3 6h1M6 6h1M2 7h1M1 8h1M8 8h1M5 9h1M2 10h1M5 10h1M1 11h1M4 11h1M7 12h1M2 13h1M5 13h1M8 13h1M1 14h1M4 14h1M7 14h1" />
<path stroke="#000000" d="M0 0h1M10 1h1M11 2h1M10 3h1M14 3h1M9 4h1M15 4h1M8 5h1M11 5h1M14 5h1M4 6h1M8 6h1M10 6h1M12 6h2M4 7h1M8 7h3M12 7h1M4 8h4M10 8h1M12 8h1M3 9h1M7 9h1M10 9h3M7 10h1M10 10h1M12 10h1M7 11h4M12 11h1M10 12h1M12 12h1M10 13h2M10 14h1M0 15h10" />
<path stroke="#008080" d="M0 0h1M8 2h1M10 2h1M9 3h1M12 4h1M14 4h1M3 5h2M7 5h1M9 5h1M13 5h1M7 6h1M9 6h1M11 6h1M3 7h1M5 7h3M11 7h1M3 8h1M9 8h1M11 8h1M1 9h2M4 9h1M6 9h1M9 9h1M3 10h1M6 10h1M8 10h2M11 10h1M3 11h1M6 11h1M11 11h1M1 12h6M9 12h1M11 12h1M3 13h1M6 13h1M9 13h1M3 14h1M6 14h1M9 14h1" />
<path stroke="#00ffff" d="M0 0h1M9 2h1M13 4h1M2 6h1M5 6h1M1 7h1M2 8h1M8 9h1M1 10h1M4 10h1M2 11h1M5 11h1M8 12h1M1 13h1M4 13h1M7 13h1M2 14h1M5 14h1M8 14h1" />
</svg>