<svg xmlns="http://www.w3.org/2000/svg" viewBox="0 -0.5 16 16" shape-rendering="crispEdges">
<path stroke="#808080" d="M0 0h1M0 0h13M0 1h1M12 1h2M0 2h1M12 2h1M14 2h1M0 3h1M12 3h1M0 4h1M0 5h1M0 6h1M0 7h1M0 8h1M0 9h1M0 10h1M0 11h1M0 12h1M0 13h1M7 13h1M12 13h1M3 14h1M13 14h1" />
<path stroke="#ffffff" d="M0 0h1M1 1h11M1 2h11M13 2h1M1 3h2M6 3h2M10 3h1M1 4h1M4 4h1M7 4h1M10 4h1M13 4h1M1 5h1M4 5h1M7 5h1M10 5h1M13 5h1M1 6h2M6 6h2M10 6h1M13 6h1M1 7h13M1 8h1M4 8h1M7 8h2M12 8h2M1 9h1M4 9h1M7 9h1M10 9h1M13 9h1M1 10h1M4 10h1M7 10h1M10 10h1M13 10h1M1 11h1M4 11h1M7 11h2M12 11h2M2 12h6M12 12h2M13 13h1" />
<path stroke="#0000ff" d="M0 0h1M3 3h3M8 3h2M11 3h1M2 4h2M5 4h2M8 4h2M11 4h2M2 5h2M5 5h2M8 5h2M11 5h2M3 6h3M8 6h2M11 6h2M2 8h2M5 8h2M9 8h3M2 9h2M5 9h2M8 9h2M11 9h2M2 10h2M5 10h2M8 10h2M11 10h2M2 11h2M5 11h2M9 11h3" />
<path stroke="#000000" d="M0 0h1M13 3h3M15 4h1M15 5h1M15 6h1M15 7h1M15 8h1M15 9h1M15 10h1M15 11h1M15 12h1M1 13h2M8 13h4M15 13h1M4 14h4M12 14h1M15 14h1M13 15h3" />
<path stroke="#c0c0c0" d="M0 0h1M14 4h1M14 5h1M14 6h1M14 7h1M14 8h1M14 9h1M14 10h1M14 11h1M1 12h1M8 12h4M14 12h1M3 13h4M14 13h1M14 14h1" />
</svg>