<svg xmlns="http://www.w3.org/2000/svg" width="32" height="32" shape-rendering="crispEdges" viewBox="0 -0.5 32 32"><path stroke="gray" d="M18 0h1m-2 1h1m-2 1h1m-2 1h1m10 0h3M15 4h1m9 0h1M15 5h1m8 0h1m-9 1h1m6 0h1m-7 1h1m6 0h1m0 1h1m0 1h1M6 10h16M5 11h1m-2 1h1m17 0h3M3 13h1m-2 1h1m-2 1h1m-2 1h1m-1 1h1m-1 1h1m-1 1h1m-1 1h1m-1 1h1m-1 1h1m-1 1h1m-1 1h1m-1 1h1m-1 1h1m-1 1h1m-1 1h1m-1 1h1m-1 1h1"/><path stroke="#fff" d="M18 1h1m-2 1h1m1 0h1m-4 1h1m1 0h1m1 0h1m-4 1h1m1 0h1m6 0h1m-9 1h1m6 0h1m1 0h1m-4 1h1m1 0h1m1 0h1m-4 1h1m1 0h1m-2 1h1M7 11h1m1 0h1m1 0h1m1 0h1m3 0h1m1 0h1m-5 1h4M5 13h1m1 0h1m1 0h1m1 0h1m5 0h1m4 0h1M8 14h4m6 0h1m2 0h1m1 0h1M3 15h1m1 0h1m3 0h1m1 0h1m8 0h1m1 0h1m1 0h1M1 16h4m5 0h1m10 0h1m1 0h1M1 17h1m1 0h1m7 0h1m10 0h1M2 18h1m1 0h1m9 0h1m1 0h1M1 19h1m1 0h1m9 0h4M2 20h1m1 0h1m5 0h1m3 0h1m1 0h1M6 21h4m5 0h1M2 22h1m1 0h1m1 0h1m1 0h1m7 0h1M1 23h1m1 0h1m3 0h1m1 0h1m-8 1h1m1 0h1m1 0h1m1 0h1m-8 1h1m1 0h1m3 0h1m1 0h1m3 0h1m1 0h1m-5 1h4M1 27h1m1 0h1m3 0h1m1 0h1m1 0h1m1 0h1M2 28h1m1 0h1m1 0h1m1 0h1m3 0h1m1 0h1M1 29h1m1 0h1m3 0h1m1 0h1m1 0h1m1 0h1M2 30h1m1 0h1m1 0h1m1 0h1m3 0h1m1 0h1"/><path stroke="#000" d="M19 1h1m0 1h1m0 1h1m-1 1h1m7 0h1m-9 1h1m8 0h1M20 6h1m10 0h1M19 7h1m10 0h1M18 8h1m10 0h1m-3 1h2m-8 2h1m-8 1h1m6 0h1m-8 1h1m6 0h1m3 0h1M7 14h1m6 0h1m11 0h1M7 15h1m6 0h1m12 0h1M7 16h1m6 0h1m5 0h1m5 0h1M7 17h1m6 0h6m1 0h1m3 0h1M7 18h1m5 0h1m5 0h1m1 0h4M7 19h6m6 0h1m1 0h1M6 20h1m5 0h1m6 0h1m1 0h1M5 21h1m6 0h1m6 0h3m-10 1h1m6 0h1m1 0h1m-10 1h1m5 0h2m1 0h1m-10 1h6m1 0h1m1 0h1m-11 1h1m5 0h1m1 0h1m1 0h1m-12 1h1m6 0h1m1 0h2m-4 1h1m1 0h1m-3 1h2m-2 1h1m-2 1h1M0 31h16"/><path stroke="#0ff" d="M18 2h1m-2 1h1m1 0h1m-2 1h1m7 1h1m-2 1h1m1 0h1m-2 1h1M6 11h1m1 0h1m3 0h1m1 0h1m1 0h1m1 0h1M4 13h1m1 0h1m3 0h1m1 0h1m3 0h1m1 0h1m-2 1h1m4 0h1M2 15h1m1 0h1m5 0h1m7 0h1m2 0h1m1 0h1m-13 1h1m10 0h1M2 17h1m1 0h1m-4 1h1m1 0h1m11 0h1m1 0h1M2 19h1m1 0h1m-4 1h1m1 0h1m5 0h1m5 0h1m0 1h1M1 22h1m1 0h1m3 0h1m1 0h1m-8 1h1m1 0h1m1 0h1m1 0h1m-8 1h1m1 0h1m3 0h1m1 0h1m-8 1h1m1 0h1m1 0h1m1 0h1m3 0h1m1 0h1M2 27h1m1 0h1m1 0h1m1 0h1m3 0h1m1 0h1M1 28h1m1 0h1m3 0h1m1 0h1m1 0h1m1 0h1M2 29h1m1 0h1m1 0h1m1 0h1m3 0h1m1 0h1M1 30h1m1 0h1m3 0h1m1 0h1m1 0h1m1 0h1"/><path stroke="teal" d="M16 4h1m3 0h1m6 0h2M16 5h2m1 0h2m7 0h2M17 6h3m9 0h2M18 7h1m9 0h2m-3 1h2m-19 3h1m4 0h1m4 0h1M5 12h9m5 0h2M8 13h1m4 0h1m1 0h1m3 0h2m2 0h2M3 14h4m5 0h2m1 0h2m2 0h2m3 0h2M6 15h1m1 0h1m3 0h2m1 0h3m1 0h1m5 0h2M5 16h2m1 0h2m2 0h2m1 0h5m4 0h2M5 17h2m1 0h3m1 0h2m6 0h1m2 0h2M5 18h2m1 0h5m5 0h1m1 0h1M5 19h2m10 0h2m1 0h1M5 20h1m1 0h2m2 0h1m1 0h1m3 0h2m1 0h1M1 21h4m5 0h2m1 0h2m2 0h2M5 22h1m4 0h2m1 0h3m1 0h2m1 0h1M5 23h1m4 0h2m1 0h5m2 0h1M5 24h1m4 0h2m6 0h1m1 0h1M5 25h1m4 0h1m5 0h1m1 0h1m1 0h1M1 26h9m5 0h2m1 0h1M5 27h1m4 0h1m4 0h2m1 0h1M5 28h1m4 0h1m4 0h2M5 29h1m4 0h1m4 0h2M5 30h1m4 0h1m4 0h1"/></svg>