<svg xmlns="http://www.w3.org/2000/svg" width="32" height="32" shape-rendering="crispEdges" viewBox="0 -0.5 32 32"><path stroke="gray" d="M8 0h19M8 1h1m17 0h1M8 2h1m5 0h1m11 0h2M8 3h1m4 0h1m12 0h1m1 0h1M8 4h1m3 0h1m9 0h2m2 0h1m2 0h1M8 5h1m2 0h1m9 0h1m4 0h1M8 6h1m2 0h1m8 0h1M8 7h1m3 0h1m6 0h1M8 8h1m4 0h1m6 0h1M8 9h1m12 0h1M5 10h13M4 11h1m14 0h2M3 12h1m14 0h1M2 13h1m-2 1h1m-2 1h1m16 0h1M0 16h1m17 0h1M0 17h1m-1 1h1m-1 1h1m-1 1h1m-1 1h1m-1 1h1m-1 1h1m-1 1h1m-1 1h1m-1 1h1m7 2h1m-1 1h1m-1 1h1"/><path stroke="#fff" d="M9 1h17M9 2h5m1 0h11M9 3h4m3 0h10m1 0h1M9 4h3m2 0h1m2 0h5m2 0h2m1 0h2M9 5h2m2 0h1m1 0h1m2 0h3m4 0h1M9 6h2m3 0h1m3 0h2m2 0h1m3 0h4M9 7h3m5 0h2m2 0h1m1 0h1m3 0h3M9 8h4m3 0h4m2 0h1m3 0h4M9 9h5m1 0h6m4 0h5m-12 1h4m2 0h6M6 11h1m3 0h1m3 0h1m3 0h1m2 0h9m-17 1h2m7 0h8M4 13h1m3 0h1m5 0h1m4 0h1m3 0h7M6 14h3m9 0h1m1 0h1m3 0h6M1 15h3m4 0h1m10 0h1m3 0h7M2 16h1m19 0h8M1 17h1m1 0h1m8 0h1m5 0h1m2 0h9M2 18h1m7 0h3m5 0h12M5 19h3m4 0h1m5 0h6m2 0h4M2 20h1m3 0h1m11 0h4m6 0h2M1 21h1m1 0h1m1 0h1m1 0h1m10 0h5m4 0h3M2 22h1m3 0h1m13 0h5m1 0h4M9 23h3m7 0h2m4 0h5M2 24h1m3 0h1m3 0h1m7 0h2m4 0h6M1 25h1m1 0h1m1 0h1m1 0h1m1 0h1m1 0h1m5 0h2m4 0h7M2 26h1m3 0h1m3 0h1m5 0h14m-15 1h15m-16 1h16m-17 1h17"/><path stroke="#000" d="M27 1h1m0 1h1M15 3h1m13 0h1M16 4h1m13 0h1M17 5h1m6 0h1m2 0h5M17 6h1m7 0h1m5 0h1M16 7h1m9 0h1m4 0h1M15 8h1m9 0h1m5 0h1M14 9h1m9 0h1m6 0h1m-10 1h2m7 0h1m-15 1h1m13 0h1m-21 1h1m5 0h1m3 0h1m9 0h1m-21 1h1m10 0h1m8 0h1M5 14h1m5 0h1m11 0h1m7 0h1M5 15h1m5 0h1m4 0h1m5 0h1m8 0h1M5 16h1m5 0h5m1 0h1m3 0h1m9 0h1M5 17h1m4 0h1m4 0h1m1 0h1m1 0h2m10 0h1M5 18h5m5 0h1m1 0h1m13 0h1M4 19h1m4 0h1m5 0h3m13 0h1M9 20h1m5 0h1m1 0h1m13 0h1M9 21h1m4 0h2m1 0h1m13 0h1M9 22h5m1 0h1m1 0h1m13 0h1M8 23h1m4 0h1m1 0h2m14 0h1m-19 1h1m1 0h1m15 0h1m-19 1h2m16 0h1m-19 1h1m17 0h1M0 27h13m18 0h1m-1 1h1m-1 1h1m-1 1h1M8 31h24"/><path stroke="#0ff" d="M14 3h1m-2 1h1m1 0h1m-2 1h1m6 1h1m-2 1h1m1 0h1m-2 1h1M5 11h1m1 0h1m1 0h1m1 0h1m1 0h1m1 0h1m-4 1h1M3 13h1m1 0h1m1 0h1m1 0h1m3 0h1m4 0h1m-5 1h1m2 0h1m1 0h1M7 15h1m10 0h1M1 16h1m1 0h1m4 0h1m-7 1h1m8 0h1m1 0h1M1 18h1m1 0h1m7 1h1M1 20h1m1 0h1m1 0h1m1 0h1m4 0h1M2 21h1m3 0h1m-6 1h1m1 0h1m1 0h1m1 0h1m-7 2h1m1 0h1m1 0h1m1 0h1m1 0h1m1 0h1M2 25h1m3 0h1m3 0h1M1 26h1m1 0h1m1 0h1m1 0h1m1 0h1m1 0h1"/><path stroke="teal" d="M12 5h1m3 0h1m5 0h2M12 6h2m1 0h2m6 0h2M13 7h3m8 0h2M14 8h1m8 0h2m-3 1h2M8 11h1m3 0h1m3 0h1M4 12h7m4 0h2m2 0h2M6 13h1m3 0h1m1 0h1m2 0h2m3 0h2M2 14h3m4 0h2m1 0h2m1 0h1m5 0h2M4 15h1m1 0h1m2 0h2m1 0h4m4 0h2M4 16h1m1 0h2m1 0h2m5 0h1m2 0h2M4 17h1m1 0h4m4 0h1m1 0h1M4 18h1m8 0h2m1 0h1M1 19h3m4 0h1m1 0h1m2 0h2M4 20h1m3 0h1m1 0h2m1 0h2m1 0h1M4 21h1m3 0h1m1 0h4m2 0h1M4 22h1m3 0h1m5 0h1m1 0h1M1 23h7m4 0h1m1 0h1M4 24h1m3 0h1m3 0h1m1 0h1M4 25h1m3 0h1m3 0h1m-9 1h1m3 0h1m3 0h1"/><path stroke="silver" d="M30 6h1m-1 1h1m-1 1h1m-1 1h1m-1 1h1m-1 1h1m-1 1h1m-14 1h1m12 0h1m-15 1h1m13 0h1m-1 1h1m-1 1h1m-1 1h1m-1 1h1m-7 1h2m4 0h1m-9 1h6m2 0h1m-8 1h4m3 0h1m-13 1h2m5 0h1m4 0h1m-14 1h2m2 0h4m5 0h1m-15 1h2m2 0h4m6 0h1m-16 1h2m2 0h4m7 0h1m-17 1h2m14 0h1m-18 1h2m15 0h1M2 28h6m1 0h5m16 0h1M2 29h6m1 0h4m17 0h1M9 30h22"/></svg>