<svg xmlns="http://www.w3.org/2000/svg" viewBox="0 -0.5 16 16" shape-rendering="crispEdges">
<path stroke="#808080" d="M0 0h1M0 0h13M0 1h1M12 1h2M0 2h1M12 2h1M14 2h1M0 3h1M12 3h1M0 4h1M0 5h1M0 6h1M0 7h1M0 8h1M0 9h1M0 10h1M0 11h1M0 12h1M0 13h1M7 13h1M12 13h1M3 14h1M13 14h1" />
<path stroke="#ffffff" d="M0 0h1M1 1h11M1 2h11M13 2h1M1 3h7M10 3h2M1 4h7M10 4h4M1 5h2M7 5h1M12 5h2M1 6h4M7 6h1M10 6h1M13 6h1M1 7h2M7 7h1M10 7h1M13 7h1M1 8h1M4 8h1M7 8h1M10 8h1M13 8h1M1 9h2M12 9h2M1 10h13M1 11h13M2 12h6M12 12h2M13 13h1" />
<path stroke="#800000" d="M0 0h1M8 3h2M8 4h2M3 5h3M8 5h4M5 6h2M8 6h2M11 6h2M3 7h4M8 7h2M11 7h2M2 8h2M5 8h2M8 8h2M11 8h2M3 9h9" />
<path stroke="#000000" d="M0 0h1M13 3h3M15 4h1M15 5h1M15 6h1M15 7h1M15 8h1M15 9h1M15 10h1M15 11h1M15 12h1M1 13h2M8 13h4M15 13h1M4 14h4M12 14h1M15 14h1M13 15h3" />
<path stroke="#c0c0c0" d="M0 0h1M14 4h1M6 5h1M14 5h1M14 6h1M14 7h1M14 8h1M14 9h1M14 10h1M14 11h1M1 12h1M8 12h4M14 12h1M3 13h4M14 13h1M14 14h1" />
</svg>