<svg xmlns="http://www.w3.org/2000/svg" viewBox="0 -0.5 16 16" shape-rendering="crispEdges">
<path stroke="#808080" d="M0 0h1M3 0h10M3 1h1M13 1h1M3 2h1M14 2h1M3 3h1M3 4h7M2 5h1M1 6h1M0 7h1M0 8h1M0 9h1M0 10h1M0 11h1M3 13h1M3 14h1" />
<path stroke="#ffffff" d="M0 0h1M4 1h8M4 2h8M13 2h1M4 3h8M10 4h4M5 5h1M10 5h4M3 6h1M6 6h1M10 6h4M2 7h1M10 7h4M1 8h1M10 8h4M5 9h1M10 9h4M2 10h1M5 10h1M10 10h4M1 11h1M4 11h1M9 11h5M8 12h6M4 13h10" />
<path stroke="#c0c0c0" d="M0 0h1M12 1h1M12 2h1M14 4h1M14 5h1M14 6h1M14 7h1M14 8h1M14 9h1M14 10h1M14 11h1M14 12h1M14 13h1M4 14h11" />
<path stroke="#000000" d="M0 0h1M12 3h4M15 4h1M9 5h1M15 5h1M4 6h1M9 6h1M15 6h1M4 7h1M8 7h2M15 7h1M4 8h4M9 8h1M15 8h1M3 9h1M7 9h1M9 9h1M15 9h1M7 10h1M9 10h1M15 10h1M7 11h2M15 11h1M0 12h8M15 12h1M15 13h1M15 14h1M3 15h13" />
<path stroke="#008080" d="M0 0h1M3 5h2M7 5h2M5 6h1M7 6h2M3 7h1M5 7h3M3 8h1M8 8h1M1 9h2M4 9h1M6 9h1M8 9h1M3 10h1M6 10h1M8 10h1M3 11h1M6 11h1" />
<path stroke="#00ffff" d="M0 0h1M6 5h1M2 6h1M1 7h1M2 8h1M1 10h1M4 10h1M2 11h1M5 11h1" />
</svg>