<svg xmlns="http://www.w3.org/2000/svg" width="16" height="16" shape-rendering="crispEdges" viewBox="0 -0.5 16 16"><path stroke="gray" d="M3 0h10M3 1h1m9 0h1M3 2h1m10 0h1M3 3h1M3 4h7M2 5h1M1 6h1M0 7h1M0 8h1M0 9h1m-1 1h1m-1 1h1m2 2h1m-1 1h1"/><path stroke="#fff" d="M4 1h8M4 2h8m1 0h1M4 3h8m-2 1h4M5 5h1m4 0h4M3 6h1m2 0h1m3 0h4M2 7h1m7 0h4M1 8h1m8 0h4M5 9h1m4 0h4M2 10h1m2 0h1m4 0h4M1 11h1m2 0h1m4 0h5m-6 1h6M4 13h10"/><path stroke="silver" d="M12 1h1m-1 1h1m1 2h1m-1 1h1m-1 1h1m-1 1h1m-1 1h1m-1 1h1m-1 1h1m-1 1h1m-1 1h1m-1 1h1M4 14h11"/><path stroke="#000" d="M12 3h4m-1 1h1M9 5h1m5 0h1M4 6h1m4 0h1m5 0h1M4 7h1m3 0h2m5 0h1M4 8h4m1 0h1m5 0h1M3 9h1m3 0h1m1 0h1m5 0h1m-9 1h1m1 0h1m5 0h1m-9 1h2m6 0h1M0 12h8m7 0h1m-1 1h1m-1 1h1M3 15h13"/><path stroke="teal" d="M3 5h2m2 0h2M5 6h1m1 0h2M3 7h1m1 0h3M3 8h1m4 0h1M1 9h2m1 0h1m1 0h1m1 0h1m-6 1h1m2 0h1m1 0h1m-6 1h1m2 0h1"/><path stroke="#0ff" d="M6 5h1M2 6h1M1 7h1m0 1h1m-2 2h1m2 0h1m-3 1h1m2 0h1"/></svg>