<svg xmlns="http://www.w3.org/2000/svg" viewBox="0 -0.5 32 32" shape-rendering="crispEdges">
<path stroke="#000000" d="M0 0h1M11 2h2M10 3h1M13 3h1M15 3h2M9 4h1M14 4h1M17 4h1M8 5h1M15 5h1M18 5h1M7 6h1M16 6h1M19 6h1M6 7h1M10 7h1M17 7h1M20 7h1M5 8h1M11 8h1M18 8h1M21 8h1M4 9h1M9 9h1M12 9h1M19 9h1M22 9h1M3 10h1M8 10h1M10 10h1M13 10h1M18 10h1M20 10h1M23 10h1M3 11h1M9 11h1M11 11h1M14 11h1M17 11h1M19 11h1M21 11h1M24 11h1M4 12h1M10 12h1M12 12h1M15 12h1M18 12h1M22 12h1M24 12h1M4 13h2M11 13h1M13 13h1M16 13h1M23 13h2M4 14h1M6 14h1M12 14h1M22 14h1M24 14h1M4 15h1M7 15h1M11 15h7M21 15h1M24 15h1M4 16h1M8 16h1M10 16h1M18 16h1M20 16h1M24 16h1M4 17h1M9 17h1M19 17h1M24 17h1M4 18h1M8 18h1M20 18h1M24 18h1M4 19h1M7 19h1M21 19h1M24 19h1M4 20h1M6 20h1M22 20h1M24 20h1M4 21h2M23 21h2M4 22h21" />
<path stroke="#ffff00" d="M0 0h1M11 3h2M10 4h4M9 5h6M8 6h8M7 7h3M11 7h6M6 8h5M12 8h6M5 9h4M10 9h2M13 9h6M4 10h4M9 10h1M11 10h2M14 10h4M19 10h1M4 11h5M10 11h1M12 11h2M15 11h2M18 11h1M20 11h1M5 12h5M11 12h1M13 12h2M16 12h2M19 12h3M6 13h5M12 13h1M14 13h2M17 13h6M7 14h5M13 14h9M8 15h3M18 15h3M9 16h1M19 16h1" />
<path stroke="#808080" d="M0 0h1M15 4h2M16 5h2M17 6h2M18 7h2M19 8h2M20 9h2M21 10h2M22 11h2M23 12h1M25 12h1M25 13h1M5 14h1M23 14h1M25 14h1M6 15h1M22 15h1M25 15h1M5 16h1M7 16h1M12 16h1M14 16h1M16 16h1M21 16h1M23 16h1M25 16h1M6 17h1M8 17h1M11 17h1M13 17h1M15 17h1M17 17h1M20 17h1M22 17h1M25 17h1M5 18h1M7 18h1M10 18h1M12 18h1M14 18h1M16 18h1M18 18h1M21 18h1M23 18h1M25 18h1M6 19h1M9 19h1M11 19h1M13 19h1M15 19h1M17 19h1M19 19h1M22 19h1M25 19h1M5 20h1M8 20h1M10 20h1M12 20h1M14 20h1M16 20h1M18 20h1M20 20h1M23 20h1M25 20h1M7 21h1M9 21h1M11 21h1M13 21h1M15 21h1M17 21h1M19 21h1M21 21h1M25 21h1M25 22h1M5 23h21" />
</svg>