<svg xmlns="http://www.w3.org/2000/svg" width="32" height="32" shape-rendering="crispEdges" viewBox="0 -0.5 32 32"><path stroke="red" d="M12 0h8M9 1h14M7 2h5m8 0h5M6 3h3m14 0h3M5 4h3m16 0h3M4 5h4m17 0h3M3 6h6m17 0h3M2 7h3m2 0h3m17 0h3M2 8h2m4 0h3m17 0h2M1 9h2m6 0h3m17 0h2M1 10h2m7 0h3m16 0h2M1 11h2m8 0h3m15 0h2M0 12h2m10 0h3m15 0h2M0 13h2m11 0h3m14 0h2M0 14h2m12 0h3m13 0h2M0 15h2m13 0h2m13 0h2M0 16h2m14 0h2m12 0h2M0 17h2m14 0h3m11 0h2M0 18h2m15 0h3m10 0h2M0 19h2m16 0h3m9 0h2M1 20h2m16 0h3m7 0h2M1 21h2m17 0h3m6 0h2M1 22h2m18 0h3m5 0h2M2 23h2m18 0h3m3 0h2M2 24h3m18 0h3m1 0h3M3 25h3m18 0h5M4 26h3m18 0h3M5 27h3m16 0h4M6 28h3m14 0h3M7 29h5m8 0h5M9 30h14m-11 1h8"/><path stroke="#000" d="M17 2h1m1 0h1m-4 1h1m3 0h1m-6 1h1m2 0h1m2 0h1m-8 1h1m2 0h1m1 0h1m2 0h1M10 6h1m2 0h1m2 0h1m3 0h1m2 0h1M11 7h1m5 0h1m1 0h1m4 0h1M4 8h1m7 0h1m5 0h1m6 0h1M6 9h1m5 0h2m12 0h1M9 10h1m3 0h2m8 0h1m3 0h1M3 11h1m4 0h1m5 0h2m6 0h1m3 0h1M7 12h1m7 0h2m4 0h1m3 0h1M6 13h1m9 0h2m2 0h1m3 0h1M5 14h1m3 0h1m1 0h1m5 0h2m4 0h1M4 15h1m3 0h1m1 0h1m6 0h3m2 0h1M3 16h1m3 0h1m1 0h1m8 0h3M2 17h1m3 0h1m1 0h1m10 0h3m1 0h2m3 0h2M5 18h1m1 0h1m12 0h3m2 0h1m1 0h1m1 0h1M2 19h1m3 0h1m14 0h3m2 0h2m1 0h1M3 20h1m13 0h1m4 0h1m1 0h1m2 0h1M3 21h2m11 0h1m1 0h1m5 0h1m2 0h1M4 22h2m9 0h1m2 0h1m7 0h1m4 0h1M4 23h1m1 0h1m7 0h1m3 0h1m7 0h1m4 0h1M5 24h1m1 0h1m5 0h1m4 0h1m11 0h2M8 25h1m3 0h1m5 0h1m10 0h2M8 26h2m1 0h1m6 0h1m9 0h2m1 0h1m-22 1h1m7 0h1m11 0h1m-13 1h1m10 0h1m-12 1h1m8 0h2m-4 1h2m-3 1h1"/><path stroke="#fff" d="M18 2h1m-2 1h1m1 0h1m-4 1h1m3 0h1m-6 1h1m5 0h1m-8 1h1m7 0h1M13 7h1m1 0h1m5 0h1m1 0h1M14 8h1m1 0h1m3 0h1m1 0h1m1 0h1M15 9h1m1 0h1m1 0h1m1 0h1m1 0h1m1 0h1m-10 1h1m1 0h1m1 0h1m1 0h1m1 0h1m1 0h1M9 11h1m7 0h1m1 0h1m1 0h1m1 0h1m1 0h1M8 12h1m1 0h1m7 0h1m1 0h1m1 0h1m1 0h1M7 13h1m1 0h1m1 0h1m7 0h1m1 0h1m1 0h1M6 14h1m1 0h1m1 0h1m1 0h1m7 0h1m1 0h1M5 15h1m1 0h1m1 0h1m1 0h1m1 0h1m7 0h1M4 16h1m1 0h1m1 0h1m1 0h1m1 0h1m1 0h1M3 17h1m1 0h1m1 0h1m1 0h1m1 0h1m1 0h1m1 0h1M2 18h1m1 0h1m1 0h1m1 0h1m1 0h1m1 0h1m1 0h1m1 0h1m6 0h2m3 0h1M3 19h1m1 0h1m1 0h1m1 0h1m1 0h1m1 0h1m1 0h1m1 0h1m6 0h2m2 0h1M4 20h1m1 0h1m1 0h1m1 0h1m1 0h1m1 0h1m1 0h1m1 0h1m4 0h1m1 0h2m1 0h1M5 21h1m1 0h1m1 0h1m1 0h1m1 0h1m1 0h1m3 0h1m3 0h1m1 0h1m2 0h1m2 0h1M6 22h1m1 0h1m1 0h1m1 0h1m1 0h1m4 0h2m3 0h2m2 0h1M7 23h1m1 0h1m1 0h1m1 0h1m5 0h3m5 0h1M8 24h1m1 0h1m1 0h1m6 0h4m3 0h1M9 25h1m1 0h1m7 0h5m7 0h1m-22 1h1m8 0h6m5 0h1m-12 1h5m5 0h1m-10 1h1m1 0h1m3 0h1m1 0h1m-10 1h1m5 0h1m-2 1h1m-4 1h1m1 0h1"/><path stroke="#ff0" d="M18 3h1m-2 1h1m1 0h1m-4 1h1m3 0h1m-6 1h1m5 0h1M10 7h1m3 0h1m1 0h1m3 0h1m1 0h1M11 8h1m1 0h1m1 0h1m1 0h1m1 0h1m1 0h1m1 0h1M14 9h1m1 0h1m1 0h1m1 0h1m1 0h1m1 0h1m-10 1h1m1 0h1m1 0h1m1 0h1m3 0h1m-16 1h1m5 0h1m1 0h1m1 0h1m3 0h1M9 12h1m1 0h1m5 0h1m1 0h1m3 0h1M8 13h1m1 0h1m1 0h1m5 0h1m3 0h1M7 14h1m5 0h1m7 0h1M6 15h1m5 0h1m1 0h1m5 0h1M5 16h1m5 0h1m1 0h1m1 0h1M4 17h1m5 0h1m1 0h1m1 0h1M3 18h1m5 0h1m1 0h1m1 0h1m1 0h1M4 19h1m3 0h1m1 0h1m1 0h1m1 0h1m1 0h1M5 20h1m1 0h1m1 0h1m1 0h1m1 0h1m1 0h1M6 21h1m1 0h1m1 0h1m1 0h1m1 0h1m-8 1h1m1 0h1m1 0h1m1 0h1m-6 1h1m1 0h1m1 0h1m-4 1h1m1 0h1m-2 1h1"/><path stroke="gray" d="M18 5h1M9 6h1m7 0h1m1 0h1m-8 1h1m5 0h1m0 7h1m1 2h1m0 1h1M3 22h1m27 5h1m-2 1h1m-4 2h1m-3 1h1"/><path stroke="#0ff" d="M18 6h1"/><path stroke="silver" d="M31 20h1m-6 1h1m0 1h1m-3 1h1m4 0h1m-3 4h1m-10 1h1m1 0h1m5 0h1m-2 1h1m-4 1h1m-4 1h1m1 0h1"/><path stroke="olive" d="M5 23h1m0 1h1m-1 1h2m-1 1h1"/></svg>