<svg xmlns="http://www.w3.org/2000/svg" viewBox="0 -0.5 32 32" shape-rendering="crispEdges">
<path stroke="#ff0000" d="M0 0h1M12 0h8M9 1h14M7 2h5M20 2h5M6 3h3M23 3h3M5 4h3M24 4h3M4 5h4M25 5h3M3 6h6M26 6h3M2 7h3M7 7h3M27 7h3M2 8h2M8 8h3M28 8h2M1 9h2M9 9h3M29 9h2M1 10h2M10 10h3M29 10h2M1 11h2M11 11h3M29 11h2M0 12h2M12 12h3M30 12h2M0 13h2M13 13h3M30 13h2M0 14h2M14 14h3M30 14h2M0 15h2M15 15h2M30 15h2M0 16h2M16 16h2M30 16h2M0 17h2M16 17h3M30 17h2M0 18h2M17 18h3M30 18h2M0 19h2M18 19h3M30 19h2M1 20h2M19 20h3M29 20h2M1 21h2M20 21h3M29 21h2M1 22h2M21 22h3M29 22h2M2 23h2M22 23h3M28 23h2M2 24h3M23 24h3M27 24h3M3 25h3M24 25h5M4 26h3M25 26h3M5 27h3M24 27h4M6 28h3M23 28h3M7 29h5M20 29h5M9 30h14M12 31h8" />
<path stroke="#000000" d="M0 0h1M17 2h1M19 2h1M16 3h1M20 3h1M15 4h1M18 4h1M21 4h1M14 5h1M17 5h1M19 5h1M22 5h1M10 6h1M13 6h1M16 6h1M20 6h1M23 6h1M11 7h1M17 7h1M19 7h1M24 7h1M4 8h1M12 8h1M18 8h1M25 8h1M6 9h1M12 9h2M26 9h1M9 10h1M13 10h2M23 10h1M27 10h1M3 11h1M8 11h1M14 11h2M22 11h1M26 11h1M7 12h1M15 12h2M21 12h1M25 12h1M6 13h1M16 13h2M20 13h1M24 13h1M5 14h1M9 14h1M11 14h1M17 14h2M23 14h1M4 15h1M8 15h1M10 15h1M17 15h3M22 15h1M3 16h1M7 16h1M9 16h1M18 16h3M2 17h1M6 17h1M8 17h1M19 17h3M23 17h2M28 17h2M5 18h1M7 18h1M20 18h3M25 18h1M27 18h1M29 18h1M2 19h1M6 19h1M21 19h3M26 19h2M29 19h1M3 20h1M17 20h1M22 20h1M24 20h1M27 20h1M3 21h2M16 21h1M18 21h1M24 21h1M27 21h1M4 22h2M15 22h1M18 22h1M26 22h1M31 22h1M4 23h1M6 23h1M14 23h1M18 23h1M26 23h1M31 23h1M5 24h1M7 24h1M13 24h1M18 24h1M30 24h2M8 25h1M12 25h1M18 25h1M29 25h2M8 26h2M11 26h1M18 26h1M28 26h2M31 26h1M10 27h1M18 27h1M30 27h1M18 28h1M29 28h1M18 29h1M27 29h2M25 30h2M24 31h1" />
<path stroke="#ffffff" d="M0 0h1M18 2h1M17 3h1M19 3h1M16 4h1M20 4h1M15 5h1M21 5h1M14 6h1M22 6h1M13 7h1M15 7h1M21 7h1M23 7h1M14 8h1M16 8h1M20 8h1M22 8h1M24 8h1M15 9h1M17 9h1M19 9h1M21 9h1M23 9h1M25 9h1M16 10h1M18 10h1M20 10h1M22 10h1M24 10h1M26 10h1M9 11h1M17 11h1M19 11h1M21 11h1M23 11h1M25 11h1M8 12h1M10 12h1M18 12h1M20 12h1M22 12h1M24 12h1M7 13h1M9 13h1M11 13h1M19 13h1M21 13h1M23 13h1M6 14h1M8 14h1M10 14h1M12 14h1M20 14h1M22 14h1M5 15h1M7 15h1M9 15h1M11 15h1M13 15h1M21 15h1M4 16h1M6 16h1M8 16h1M10 16h1M12 16h1M14 16h1M3 17h1M5 17h1M7 17h1M9 17h1M11 17h1M13 17h1M15 17h1M2 18h1M4 18h1M6 18h1M8 18h1M10 18h1M12 18h1M14 18h1M16 18h1M23 18h2M28 18h1M3 19h1M5 19h1M7 19h1M9 19h1M11 19h1M13 19h1M15 19h1M17 19h1M24 19h2M28 19h1M4 20h1M6 20h1M8 20h1M10 20h1M12 20h1M14 20h1M16 20h1M18 20h1M23 20h1M25 20h2M28 20h1M5 21h1M7 21h1M9 21h1M11 21h1M13 21h1M15 21h1M19 21h1M23 21h1M25 21h1M28 21h1M31 21h1M6 22h1M8 22h1M10 22h1M12 22h1M14 22h1M19 22h2M24 22h2M28 22h1M7 23h1M9 23h1M11 23h1M13 23h1M19 23h3M27 23h1M8 24h1M10 24h1M12 24h1M19 24h4M26 24h1M9 25h1M11 25h1M19 25h5M31 25h1M10 26h1M19 26h6M30 26h1M19 27h5M29 27h1M20 28h1M22 28h1M26 28h1M28 28h1M19 29h1M25 29h1M24 30h1M21 31h1M23 31h1" />
<path stroke="#ffff00" d="M0 0h1M18 3h1M17 4h1M19 4h1M16 5h1M20 5h1M15 6h1M21 6h1M10 7h1M14 7h1M16 7h1M20 7h1M22 7h1M11 8h1M13 8h1M15 8h1M17 8h1M19 8h1M21 8h1M23 8h1M14 9h1M16 9h1M18 9h1M20 9h1M22 9h1M24 9h1M15 10h1M17 10h1M19 10h1M21 10h1M25 10h1M10 11h1M16 11h1M18 11h1M20 11h1M24 11h1M9 12h1M11 12h1M17 12h1M19 12h1M23 12h1M8 13h1M10 13h1M12 13h1M18 13h1M22 13h1M7 14h1M13 14h1M21 14h1M6 15h1M12 15h1M14 15h1M20 15h1M5 16h1M11 16h1M13 16h1M15 16h1M4 17h1M10 17h1M12 17h1M14 17h1M3 18h1M9 18h1M11 18h1M13 18h1M15 18h1M4 19h1M8 19h1M10 19h1M12 19h1M14 19h1M16 19h1M5 20h1M7 20h1M9 20h1M11 20h1M13 20h1M15 20h1M6 21h1M8 21h1M10 21h1M12 21h1M14 21h1M7 22h1M9 22h1M11 22h1M13 22h1M8 23h1M10 23h1M12 23h1M9 24h1M11 24h1M10 25h1" />
<path stroke="#808080" d="M0 0h1M18 5h1M9 6h1M17 6h1M19 6h1M12 7h1M18 7h1M19 14h1M21 16h1M22 17h1M3 22h1M31 27h1M30 28h1M27 30h1M25 31h1" />
<path stroke="#00ffff" d="M0 0h1M18 6h1" />
<path stroke="#c0c0c0" d="M0 0h1M31 20h1M26 21h1M27 22h1M25 23h1M30 23h1M28 27h1M19 28h1M21 28h1M27 28h1M26 29h1M23 30h1M20 31h1M22 31h1" />
<path stroke="#808000" d="M0 0h1M5 23h1M6 24h1M6 25h2M7 26h1" />
</svg>