<svg xmlns="http://www.w3.org/2000/svg" viewBox="0 -0.5 32 32" shape-rendering="crispEdges">
<path stroke="#808080" d="M0 0h1M9 4h1M16 4h1M9 5h2M12 5h1M11 6h1M14 6h4M17 7h2M18 8h2M19 9h1M3 10h2M19 10h2M22 10h1M9 11h1M19 11h1M21 11h1M10 12h1M13 12h1M13 14h2M15 15h1M21 15h1M3 16h3M21 16h1M6 17h1M9 17h1M20 17h1M10 18h1M11 19h1M19 19h1M13 20h1M17 20h2M9 21h1M15 21h2M9 22h1M16 22h1" />
<path stroke="#000000" d="M0 0h1M10 4h6M7 5h2M11 5h1M13 5h6M6 6h1M10 6h1M12 6h2M18 6h2M5 7h1M9 7h1M13 7h1M19 7h2M4 8h1M12 8h1M20 8h2M4 9h1M11 9h1M20 9h2M10 10h4M21 10h1M3 11h1M10 11h1M14 11h1M20 11h1M22 11h1M3 12h1M11 12h2M15 12h3M19 12h4M3 13h1M9 13h7M17 13h3M21 13h2M3 14h1M8 14h1M15 14h2M18 14h2M21 14h2M3 15h1M8 15h1M16 15h1M22 15h1M9 16h2M16 16h1M22 16h1M4 17h2M11 17h1M15 17h2M21 17h1M4 18h3M12 18h1M15 18h1M20 18h2M5 19h2M12 19h1M14 19h1M20 19h1M6 20h1M12 20h1M14 20h1M19 20h1M7 21h2M13 21h2M17 21h2M10 22h6" />
<path stroke="#008000" d="M0 0h1M7 6h3M6 7h1M5 8h1M15 20h1" />
<path stroke="#00ffff" d="M0 0h1M7 7h1M11 7h2M6 8h1M8 8h1M10 8h2M13 8h1M7 9h1M9 9h2M6 10h1M8 10h2M5 11h1M7 11h1M11 11h1M6 12h1M9 12h1M5 13h1M6 14h1M17 15h3M6 16h1M8 16h1M17 16h2M7 17h1M10 17h1M17 17h2M7 18h3M11 18h1M16 18h2M8 19h3M15 19h1M10 20h2" />
<path stroke="#808000" d="M0 0h1M14 7h3M14 8h4M12 9h7M14 10h5M15 11h4M18 12h1M9 14h4M9 15h6M11 16h5M12 17h3M13 18h2M13 19h1" />
<path stroke="#008080" d="M0 0h1M5 9h1M5 10h1M4 11h1M12 11h2M4 12h1M14 12h1M4 13h1M8 13h1M16 13h1M20 13h1M4 14h1M20 14h1M4 15h2M20 15h1M19 16h2M19 17h1M18 18h2M7 19h1M16 19h3M7 20h3M16 20h1M10 21h3" />
<path stroke="#00ff00" d="M0 0h1M17 14h1" />
</svg>