<svg xmlns="http://www.w3.org/2000/svg" width="32" height="32" shape-rendering="crispEdges" viewBox="0 -0.5 32 32"><path stroke="#000" d="M18 1h1m-2 1h1m1 0h1m-4 1h1m3 0h1m-6 1h1m2 0h1m2 0h1m-8 1h1m2 0h1m1 0h1m2 0h1M10 6h1m2 0h1m2 0h1m3 0h1m2 0h1M7 7h1m1 0h1m1 0h1m5 0h1m1 0h1m4 0h1M4 8h1m5 0h1m1 0h1m5 0h1m6 0h1M6 9h1m4 0h3m12 0h1M9 10h1m2 0h3m8 0h1m3 0h1M3 11h1m4 0h1m4 0h3m6 0h1m3 0h1M7 12h1m6 0h3m4 0h1m3 0h1M6 13h1m8 0h3m2 0h1m3 0h1M1 14h1m3 0h1m3 0h1m1 0h1m4 0h3m4 0h1M4 15h1m3 0h1m1 0h1m6 0h3m2 0h1M3 16h1m3 0h1m1 0h1m8 0h3M2 17h1m3 0h1m1 0h1m7 0h1m2 0h3m1 0h2m3 0h2M1 18h1m3 0h1m1 0h1m12 0h3m2 0h1m1 0h1m1 0h1M2 19h1m3 0h1m11 0h1m1 0h4m2 0h2m1 0h1m1 0h1M2 20h2m13 0h1m1 0h1m1 0h2m1 0h1m2 0h1m1 0h2M3 21h2m11 0h1m1 0h1m2 0h1m2 0h1m2 0h1m1 0h2M4 22h2m9 0h1m2 0h1m2 0h3m2 0h1m2 0h1m1 0h1M4 23h1m1 0h1m7 0h1m3 0h1m7 0h1m1 0h2m1 0h1M5 24h1m1 0h1m5 0h1m4 0h1m6 0h1m2 0h1m1 0h2M5 25h1m2 0h1m3 0h1m5 0h1m8 0h1m1 0h2M6 26h1m1 0h2m1 0h1m6 0h1m7 0h1m1 0h2m1 0h1M7 27h1m2 0h1m7 0h1m8 0h1m2 0h1m-13 1h1m10 0h1m-12 1h1m8 0h2m-11 1h1m6 0h2m-9 1h1m5 0h1"/><path stroke="#fff" d="M18 2h1m-2 1h1m1 0h1m-4 1h1m3 0h1m-6 1h1m5 0h1m-8 1h1m7 0h1M13 7h1m1 0h1m5 0h1m1 0h1M14 8h1m1 0h1m3 0h1m1 0h1m1 0h1M15 9h1m1 0h1m1 0h1m1 0h1m1 0h1m1 0h1m-16 1h1m5 0h1m1 0h1m1 0h1m1 0h1m1 0h1m1 0h1M9 11h1m1 0h1m5 0h1m1 0h1m1 0h1m1 0h1m1 0h1M8 12h1m1 0h1m1 0h1m5 0h1m1 0h1m1 0h1m1 0h1M7 13h1m1 0h1m1 0h1m1 0h1m5 0h1m1 0h1m1 0h1M6 14h1m1 0h1m1 0h1m1 0h1m1 0h1m5 0h1m1 0h1M5 15h1m1 0h1m1 0h1m1 0h1m1 0h1m1 0h1m5 0h1M4 16h1m1 0h1m1 0h1m1 0h1m1 0h1m1 0h1m1 0h1M3 17h1m1 0h1m1 0h1m1 0h1m1 0h1m1 0h1m1 0h1m1 0h1M2 18h1m1 0h1m1 0h1m1 0h1m1 0h1m1 0h1m1 0h1m1 0h1m1 0h1m4 0h2m3 0h1M3 19h1m1 0h1m1 0h1m1 0h1m1 0h1m1 0h1m1 0h1m1 0h1m1 0h1m4 0h2m2 0h1M4 20h1m1 0h1m1 0h1m1 0h1m1 0h1m1 0h1m1 0h1m1 0h1m1 0h1m2 0h1m1 0h2m1 0h1M5 21h1m1 0h1m1 0h1m1 0h1m1 0h1m1 0h1m3 0h2m1 0h2m1 0h1m2 0h1m2 0h1M6 22h1m1 0h1m1 0h1m1 0h1m1 0h1m4 0h2m3 0h2m2 0h1m1 0h1M7 23h1m1 0h1m1 0h1m1 0h1m5 0h6m2 0h1M8 24h1m1 0h1m1 0h1m6 0h6m1 0h1M9 25h1m1 0h1m7 0h7m5 0h1m-22 1h1m8 0h6m5 0h1m-12 1h5m1 0h1m3 0h1m-10 1h1m1 0h1m1 0h1m1 0h1m1 0h1m-10 1h1m1 0h1m1 0h1m1 0h1m-6 1h1m1 0h1m1 0h1m-6 1h1m1 0h1m1 0h1"/><path stroke="#ff0" d="M18 3h1m-2 1h1m1 0h1m-4 1h1m3 0h1m-6 1h1m5 0h1M10 7h1m3 0h1m1 0h1m3 0h1m1 0h1M11 8h1m1 0h1m1 0h1m1 0h1m1 0h1m1 0h1m1 0h1M14 9h1m1 0h1m1 0h1m1 0h1m1 0h1m1 0h1m-14 1h1m3 0h1m1 0h1m1 0h1m1 0h1m3 0h1m-16 1h1m1 0h1m3 0h1m1 0h1m1 0h1m3 0h1M9 12h1m1 0h1m1 0h1m3 0h1m1 0h1m3 0h1M8 13h1m1 0h1m1 0h1m1 0h1m3 0h1m3 0h1M7 14h1m5 0h1m1 0h1m5 0h1M6 15h1m5 0h1m1 0h1m1 0h1m3 0h1M5 16h1m5 0h1m1 0h1m1 0h1M4 17h1m5 0h1m1 0h1m1 0h1m3 0h1M3 18h1m5 0h1m1 0h1m1 0h1m1 0h1m1 0h1M4 19h1m3 0h1m1 0h1m1 0h1m1 0h1m1 0h1M5 20h1m1 0h1m1 0h1m1 0h1m1 0h1m1 0h1M6 21h1m1 0h1m1 0h1m1 0h1m1 0h1m-8 1h1m1 0h1m1 0h1m1 0h1m-6 1h1m1 0h1m1 0h1m-4 1h1m1 0h1m-2 1h1"/><path stroke="gray" d="M18 5h1M9 6h1m7 0h1m1 0h1m-8 1h1m5 0h1m-9 2h1m8 5h1m-3 2h1m3 0h1m0 1h1m-4 1h1M1 19h1m1 3h1m0 2h1m1 3h1m24 0h1m-2 1h1m-4 2h1m-3 1h1"/><path stroke="#0ff" d="M18 6h1"/><path stroke="silver" d="M31 20h1m-6 1h1m0 1h1m-3 1h1m4 0h1m-4 1h1m1 0h1m-4 1h1m1 0h1m-4 1h1m1 0h1m-4 1h1m1 0h1m1 0h1m-10 1h1m1 0h1m1 0h1m1 0h1m1 0h1m-8 1h1m1 0h1m1 0h1m1 0h1m-8 1h1m1 0h1m1 0h1m-4 1h1m1 0h1"/><path stroke="olive" d="M5 23h1m0 1h1m-1 1h2m-1 1h1"/></svg>