<svg xmlns="http://www.w3.org/2000/svg" viewBox="0 -0.5 32 32" shape-rendering="crispEdges">
<path stroke="#808080" d="M0 0h1M5 0h6M25 0h6M5 1h1M25 1h1M30 1h1M5 2h1M25 2h1M30 2h1M5 3h1M25 3h1M30 3h1M5 4h1M25 4h1M30 4h1M18 5h6M25 5h1M30 5h1M3 6h10M18 6h1M25 6h1M30 6h1M3 7h1M18 7h1M25 7h1M27 7h4M3 8h1M18 8h1M25 8h1M30 8h1M3 9h1M18 9h1M25 9h6M15 12h1M29 12h1M7 14h1M8 15h1M10 15h1M14 17h1M22 17h1M11 18h1M23 21h6M23 22h1M23 23h1M17 24h2M23 24h1M15 25h4M23 25h1M13 26h6M11 27h6M21 27h10M9 28h6M21 28h1M9 29h4M21 29h1M9 30h2M21 30h1" />
<path stroke="#0000ff" d="M0 0h1M6 1h4M6 2h1M6 3h1M19 6h4M19 7h1M14 8h2M19 8h1M15 9h1M15 10h1M17 12h11M29 14h1M29 15h1M29 16h1M20 17h1M24 17h6M19 18h1M24 22h4M24 23h1M24 24h1" />
<path stroke="#c0c0c0" d="M0 0h1M10 1h1M10 2h1M10 3h1M27 3h3M6 4h5M27 4h3M27 5h3M23 6h1M27 6h3M23 7h1M5 8h5M23 8h1M27 8h3M5 9h8M19 9h5M14 11h2M28 11h2M14 12h1M28 12h1M21 16h2M21 17h1M7 18h1M9 18h1M6 19h1M8 19h1M10 19h1M13 19h1M5 20h1M7 20h1M9 20h1M12 20h1M8 21h1M11 21h1M10 22h1M28 22h1M2 23h1M9 23h1M17 23h2M28 23h1M1 24h1M15 24h2M28 24h1M1 25h3M13 25h2M24 25h5M1 26h2M4 26h2M11 26h2M2 27h3M6 27h2M9 27h2M4 28h3M8 28h1M6 29h3M23 29h5M8 30h1M23 30h8" />
<path stroke="#000000" d="M0 0h1M11 1h1M31 1h1M11 2h1M27 2h3M31 2h1M11 3h1M31 3h1M11 4h1M31 4h1M5 5h7M31 5h1M13 6h1M24 6h1M31 6h1M13 7h1M24 7h1M31 7h1M10 8h4M24 8h1M31 8h1M13 9h1M24 9h1M31 9h1M3 10h11M18 10h14M16 11h1M30 11h1M16 12h1M30 12h1M7 13h5M14 13h3M28 13h3M6 14h1M12 14h2M5 15h1M9 15h1M14 15h2M5 16h1M8 16h1M10 16h1M16 16h1M23 16h1M5 17h3M10 17h2M13 17h1M17 17h1M23 17h1M4 18h2M12 18h1M14 18h1M18 18h1M21 18h3M4 19h1M14 19h1M18 19h1M3 20h1M14 20h1M18 20h1M3 21h1M15 21h4M2 22h2M17 22h2M29 22h1M1 23h1M3 23h1M15 23h2M19 23h1M29 23h1M0 24h1M4 24h2M13 24h2M19 24h1M29 24h1M0 25h1M6 25h2M11 25h2M19 25h1M29 25h1M0 26h1M8 26h3M19 26h1M23 26h7M0 27h2M17 27h2M31 27h1M2 28h2M15 28h2M18 28h1M31 28h1M4 29h2M13 29h3M18 29h3M28 29h4M6 30h2M11 30h2M31 30h1M8 31h3M21 31h11" />
<path stroke="#ffffff" d="M0 0h1M26 1h4M26 2h1M26 3h1M26 4h1M26 5h1M26 6h1M4 7h9M26 7h1M4 8h1M26 8h1M4 9h1M4 21h2M6 22h2M8 23h1M2 24h2M4 25h2M6 26h2M8 27h1M22 28h9M22 29h1M22 30h1" />
<path stroke="#0000bf" d="M0 0h1M7 2h3M7 3h3M20 7h3M20 8h3M25 23h3M25 24h3" />
<path stroke="#ffff00" d="M0 0h1M8 14h4M6 15h2M11 15h3M6 16h2M9 16h1M12 16h4M8 17h2M15 17h2M6 18h1M10 18h1M13 18h1M15 18h3M5 19h1M11 19h2M16 19h2M4 20h1M10 20h2M6 21h1M9 21h2M4 22h2M8 22h2M4 23h4M6 24h3M8 25h1" />
<path stroke="#bfbf00" d="M0 0h1M11 16h1M12 17h1M8 18h1M7 19h1M9 19h1M15 19h1M6 20h1M8 20h1M13 20h1M15 20h3M7 21h1M12 21h3M11 22h6M10 23h5M9 24h4M9 25h2" />
<path stroke="#ff0000" d="M0 0h1M3 26h1M5 27h1M7 28h1" />
</svg>