<svg xmlns="http://www.w3.org/2000/svg" width="32" height="32" shape-rendering="crispEdges" viewBox="0 -0.5 32 32"><path stroke="gray" d="M5 0h6m14 0h6M5 1h1m19 0h1m4 0h1M5 2h1m19 0h1m4 0h1M5 3h1m19 0h1m4 0h1M5 4h1m19 0h1m4 0h1M18 5h6m1 0h1m4 0h1M3 6h10m5 0h1m6 0h1m4 0h1M3 7h1m14 0h1m6 0h1m1 0h4M3 8h1m14 0h1m6 0h1m4 0h1M3 9h1m14 0h1m6 0h6m-16 3h1m13 0h1M7 14h1m0 1h1m1 0h1m3 2h1m7 0h1m-12 1h1m11 3h6m-6 1h1m-1 1h1m-7 1h2m4 0h1m-9 1h4m4 0h1m-11 1h6m-8 1h6m4 0h10M9 28h6m6 0h1M9 29h4m8 0h1M9 30h2m10 0h1"/><path stroke="#00f" d="M6 1h4M6 2h1M6 3h1m12 3h4m-4 1h1m-6 1h2m3 0h1m-5 1h1m-1 1h1m1 2h11m1 2h1m-1 1h1m-1 1h1m-10 1h1m3 0h6m-11 1h1m4 4h4m-4 1h1m-1 1h1"/><path stroke="silver" d="M10 1h1m-1 1h1m-1 1h1m16 0h3M6 4h5m16 0h3m-3 1h3m-7 1h1m3 0h3m-7 1h1M5 8h5m13 0h1m3 0h3M5 9h8m6 0h5m-10 2h2m12 0h2m-16 1h1m13 0h1m-8 4h2m-2 1h1M7 18h1m1 0h1m-4 1h1m1 0h1m1 0h1m2 0h1m-9 1h1m1 0h1m1 0h1m2 0h1m-5 1h1m2 0h1m-2 1h1m17 0h1M2 23h1m6 0h1m7 0h2m9 0h1M1 24h1m13 0h2m11 0h1M1 25h3m9 0h2m9 0h5M1 26h2m1 0h2m5 0h2M2 27h3m1 0h2m1 0h2m-7 1h3m1 0h1m-3 1h3m14 0h5M8 30h1m14 0h8"/><path stroke="#000" d="M11 1h1m19 0h1M11 2h1m15 0h3m1 0h1M11 3h1m19 0h1M11 4h1m19 0h1M5 5h7m19 0h1M13 6h1m10 0h1m6 0h1M13 7h1m10 0h1m6 0h1M10 8h4m10 0h1m6 0h1M13 9h1m10 0h1m6 0h1M3 10h11m4 0h14m-16 1h1m13 0h1m-15 1h1m13 0h1M7 13h5m2 0h3m11 0h3M6 14h1m5 0h2m-9 1h1m3 0h1m4 0h2M5 16h1m2 0h1m1 0h1m5 0h1m6 0h1M5 17h3m2 0h2m1 0h1m3 0h1m5 0h1M4 18h2m6 0h1m1 0h1m3 0h1m2 0h3M4 19h1m9 0h1m3 0h1M3 20h1m10 0h1m3 0h1M3 21h1m11 0h4M2 22h2m13 0h2m10 0h1M1 23h1m1 0h1m11 0h2m2 0h1m9 0h1M0 24h1m3 0h2m7 0h2m4 0h1m9 0h1M0 25h1m5 0h2m3 0h2m6 0h1m9 0h1M0 26h1m7 0h3m8 0h1m3 0h7M0 27h2m15 0h2m12 0h1M2 28h2m11 0h2m1 0h1m12 0h1M4 29h2m7 0h3m2 0h3m7 0h4M6 30h2m3 0h2m18 0h1M8 31h3m10 0h11"/><path stroke="#fff" d="M26 1h4m-4 1h1m-1 1h1m-1 1h1m-1 1h1m-1 1h1M4 7h9m13 0h1M4 8h1m21 0h1M4 9h1M4 21h2m0 1h2m0 1h1m-7 1h2m0 1h2m0 1h2m0 1h1m13 1h9m-9 1h1m-1 1h1"/><path stroke="#0000bf" d="M7 2h3M7 3h3m10 4h3m-3 1h3m2 15h3m-3 1h3"/><path stroke="#ff0" d="M8 14h4m-6 1h2m3 0h3m-8 1h2m1 0h1m2 0h4m-8 1h2m5 0h2M6 18h1m3 0h1m2 0h1m1 0h3M5 19h1m5 0h2m3 0h2M4 20h1m5 0h2m-6 1h1m2 0h2m-7 1h2m2 0h2m-6 1h4m-2 1h3m-1 1h1"/><path stroke="#bfbf00" d="M11 16h1m0 1h1m-5 1h1m-2 1h1m1 0h1m5 0h1M6 20h1m1 0h1m4 0h1m1 0h3M7 21h1m4 0h3m-4 1h6m-7 1h5m-6 1h4m-4 1h2"/><path stroke="red" d="M3 26h1m1 1h1m1 1h1"/></svg>