<svg xmlns="http://www.w3.org/2000/svg" viewBox="0 -0.5 16 16" shape-rendering="crispEdges">
<path stroke="#808080" d="M0 0h1M6 0h9M5 1h1M14 1h1M5 2h1M14 2h1M5 3h1M14 3h1M5 4h1M14 4h1M5 5h1M14 5h1M5 6h1M14 6h1M5 7h1M15 7h1M15 8h1M4 9h1M14 9h2M14 10h2M10 11h5" />
<path stroke="#ffffff" d="M0 0h1M6 1h8M6 2h1M6 3h1M6 4h1M6 5h1M6 6h1M5 9h9M6 11h3M6 12h2M7 13h2" />
<path stroke="#000000" d="M0 0h1M15 1h1M15 2h1M7 3h5M15 3h1M7 4h1M15 4h1M7 5h1M15 5h1M15 6h1M14 7h1M5 8h9M4 10h5M4 11h1M9 11h1M15 11h1M4 12h1M8 12h1M10 12h5M4 13h2M9 13h4M1 14h3M6 14h1M13 14h1M7 15h6" />
<path stroke="#c0c0c0" d="M0 0h1M7 2h7M13 3h1M13 4h1M13 5h1M13 6h1M6 7h8M14 8h1M9 10h5M5 11h1M5 12h1M9 12h1M6 13h1M7 14h6" />
<path stroke="#000080" d="M0 0h1M12 3h1M12 4h1M12 5h1M7 6h6M1 9h3M1 11h3M1 12h3M1 13h3" />
<path stroke="#0000ff" d="M0 0h1M8 4h4M8 5h4M1 10h3" />
</svg>