<svg xmlns="http://www.w3.org/2000/svg" width="32" height="32" shape-rendering="crispEdges" viewBox="0 -0.5 32 32"><path stroke="gray" d="M8 0h21M7 1h1m20 0h1M6 2h1m20 0h2M5 3h1m21 0h2M5 4h1m2 0h17m2 0h2M5 5h1m21 0h2M5 6h1m21 0h2M5 7h1m21 0h2M5 8h1m21 0h2M5 9h1m21 0h2M5 10h1m21 0h2M5 11h1m21 0h2M5 12h1m21 0h2M5 13h1m21 0h2M5 14h1m21 0h2M5 15h1m21 0h2M5 16h1m21 0h2M5 17h1m21 0h2M5 18h1m21 0h2m1 0h2M5 19h23m1 0h2m-3 1h2m1 0h1M3 21h26m1 0h2m-3 1h3m-3 1h3M9 24h18m2 0h3m-14 1h2m9 0h3m-9 1h1m5 0h3m-3 1h2m-8 1h7m-12 1h3m4 1h1m-12 1h10"/><path stroke="silver" d="M8 1h19M7 3h20M7 4h1m18 0h1M7 5h1m18 0h1M7 6h1m18 0h1M7 7h1m18 0h1M7 8h1m18 0h1M7 9h1m18 0h1M7 10h1m18 0h1M7 11h1m18 0h1M7 12h1m18 0h1M7 13h1m18 0h1M7 14h1m18 0h1M7 15h1m18 0h1M7 16h1m18 0h1M7 17h1m18 0h1M7 18h20m4 1h1m-2 1h1m-2 1h1M9 23h20m-2 1h2M9 25h1m17 0h2M9 26h1m12 0h1m1 0h5M9 27h1m13 0h6M9 28h3m-1 1h3m-2 1h4m8 0h1"/><path stroke="#fff" d="M27 1h1M7 2h20M6 3h1M6 4h1m18 0h1M6 5h1m18 0h1M6 6h1m18 0h1M6 7h1m18 0h1M6 8h1m18 0h1M6 9h1m18 0h1M6 10h1m18 0h1M6 11h1m18 0h1M6 12h1m18 0h1M6 13h1m18 0h1M6 14h1m18 0h1M6 15h1m18 0h1M6 16h1m18 0h1M6 17h1m1 0h18M6 18h1m1 4h21m-19 3h8m-8 1h10m-10 1h6m1 0h5m-10 1h5m-3 1h4m-2 1h8"/><path stroke="#000" d="M29 1h1m-1 1h1m-1 1h1m-1 1h1M8 5h16m5 0h1M8 6h1m20 0h1M8 7h1m20 0h1M8 8h1m20 0h1M8 9h1m20 0h1M8 10h1m20 0h1M8 11h1m20 0h1M8 12h1m20 0h1M8 13h1m20 0h1M8 14h1m20 0h1M8 15h1m20 0h1m-1 1h1m-1 1h1m-1 1h1m-2 1h1M5 20h23M8 23h1m-1 1h1m-1 1h1m11 0h7M8 26h1m11 0h2M8 27h1m7 0h1m5 0h1m8 0h1M8 28h1m8 0h6m7 0h1M8 29h3m10 0h9M8 30h1m2 0h1m14 0h1M0 31h8m4 0h2m10 0h2"/><path stroke="navy" d="M24 5h1m-1 1h1m-1 1h1m-1 1h1m-1 1h1m-1 1h1m-1 1h1m-1 1h1m-1 1h1m-1 1h1m-1 1h1M8 16h17M0 22h8m-8 3h8m-8 1h8m-8 1h8m-8 1h8m-8 1h8m-8 1h8"/><path stroke="#00f" d="M9 6h15M9 7h1m1 0h13M9 8h1m1 0h13M9 9h15M9 10h15M9 11h15M9 12h15M9 13h15M9 14h15M9 15h15M0 23h8m-8 1h8"/><path stroke="#0ff" d="M10 7h1m-1 1h1"/></svg>