<svg xmlns="http://www.w3.org/2000/svg" viewBox="0 -0.5 16 16" shape-rendering="crispEdges">
<path stroke="#808080" d="M0 0h1M2 0h6M1 1h1M1 2h1M6 2h1M1 3h1M6 3h1M1 4h1M6 4h1M1 5h1M8 6h6M0 7h1M7 7h1M0 8h1M7 8h1M12 8h1M7 9h1M12 9h1M7 10h1M12 10h1M7 11h1M6 13h1M14 13h1M6 14h1M14 14h1" />
<path stroke="#ffffff" d="M0 0h1M2 1h6M1 7h6M8 7h6M7 13h7" />
<path stroke="#000000" d="M0 0h1M8 1h1M2 2h4M8 2h1M2 3h1M8 3h1M2 4h1M8 4h1M8 5h1M1 6h7M14 7h1M8 8h4M14 8h1M1 9h6M8 9h1M14 9h1M8 10h1M14 10h1M14 11h1M7 12h7M15 12h1M15 13h1M15 14h1M7 15h8" />
<path stroke="#c0c0c0" d="M0 0h1M7 2h1M7 3h1M7 4h1M2 5h6M1 8h1M3 8h4M13 8h1M13 9h1M13 10h1M8 11h6M14 12h1M7 14h1M9 14h5" />
<path stroke="#000080" d="M0 0h1M9 2h4M12 3h1M12 4h1M12 5h1" />
<path stroke="#008000" d="M0 0h1M3 3h3M3 4h3M9 9h3M9 10h3" />
<path stroke="#00ff00" d="M0 0h1M2 8h1M8 14h1" />
</svg>