<svg xmlns="http://www.w3.org/2000/svg" width="16" height="16" shape-rendering="crispEdges" viewBox="0 -0.5 16 16"><path stroke="gray" d="M6 0h9M5 1h1m8 0h1M5 2h1m8 0h1M5 3h1m8 0h1M5 4h1m8 0h1M5 5h1m8 0h1M5 6h1m8 0h1M5 7h1m9 0h1m-1 1h1M4 9h1m9 0h2m-2 1h2m-6 1h5"/><path stroke="#fff" d="M6 1h8M6 2h1M6 3h1M6 4h1M6 5h1M6 6h1M5 9h9m-8 2h3m-3 1h2m-1 1h2"/><path stroke="#000" d="M15 1h1m-1 1h1M7 3h5m3 0h1M7 4h1m7 0h1M7 5h1m7 0h1m-1 1h1m-2 1h1M5 8h9M4 10h5m-5 1h1m4 0h1m5 0h1M4 12h1m3 0h1m1 0h5M4 13h2m3 0h4M1 14h3m2 0h1m6 0h1m-7 1h6"/><path stroke="silver" d="M7 2h7m-1 1h1m-1 1h1m-1 1h1m-1 1h1M6 7h8m0 1h1m-6 2h5m-9 1h1m-1 1h1m3 0h1m-4 1h1m0 1h6"/><path stroke="navy" d="M12 3h1m-1 1h1m-1 1h1M7 6h6M1 9h3m-3 2h3m-3 1h3m-3 1h3"/><path stroke="#00f" d="M8 4h4M8 5h4M1 10h3"/></svg>