<svg xmlns="http://www.w3.org/2000/svg" viewBox="0 -0.5 32 32" shape-rendering="crispEdges">
<path stroke="#808080" d="M0 0h1M10 0h3M7 1h3M11 1h1M4 2h3M10 2h1M14 2h1M16 2h1M2 3h2M7 3h4M1 4h1M4 4h7M20 4h1M1 5h1M3 5h8M17 5h1M1 6h1M4 6h6M24 6h1M1 7h1M6 7h4M25 7h2M1 8h1M8 8h1M11 8h1M27 8h2M2 9h1M13 9h1M22 9h1M2 10h1M15 10h1M20 10h3M2 11h1M18 11h5M27 11h2M2 12h1M17 12h4M24 12h5M3 13h1M21 13h7M3 14h1M19 14h9M3 15h1M19 15h9M3 16h1M19 16h9M4 17h1M19 17h8M4 18h1M19 18h8M4 19h1M19 19h8M4 20h1M19 20h8M5 21h1M19 21h7M5 22h1M19 22h7M5 23h1M19 23h7M6 24h2M19 24h7M8 25h2M19 25h6M10 26h2M19 26h6M12 27h2M19 27h6M14 28h2M19 28h6M16 29h2M19 29h4M18 30h3" />
<path stroke="#808000" d="M0 0h1M13 0h5M12 1h1M18 1h2M11 2h1M20 2h2M11 3h2M17 3h1M22 3h1M11 4h1M18 4h1M23 4h1M11 5h1M14 5h1M22 5h1M10 6h1M13 6h1M15 6h1M22 6h1M10 7h1M14 7h1M19 7h1M21 7h2M12 8h1M18 8h3M14 9h1M16 9h4M16 10h2" />
<path stroke="#ffffff" d="M0 0h1M10 1h1M13 1h1M15 1h1M17 1h1M7 2h3M18 2h1M4 3h3M15 3h1M19 3h1M21 3h1M2 4h2M22 4h1M2 5h1M21 5h1M2 6h2M17 6h1M4 7h2M11 7h1M16 7h1M24 7h1M6 8h2M13 8h1M25 8h2M8 9h2M15 9h1M27 9h2M10 10h2M27 10h2M12 11h2M24 11h3M14 12h2M21 12h3M16 13h5" />
<path stroke="#ffff00" d="M0 0h1M14 1h1M16 1h1M12 2h1M17 2h1M19 2h1M18 3h1M20 3h1M13 4h1M15 4h1M21 4h1M12 5h1M16 5h1M19 5h1M11 6h1M18 6h1M21 6h1M12 7h2M17 7h1M14 8h3" />
<path stroke="#c0c0c0" d="M0 0h1M13 2h1M14 4h1M13 5h1M15 5h1M12 6h1M14 6h1M16 6h1M19 6h1M2 7h2M15 7h1M18 7h1M2 8h4M9 8h2M17 8h1M23 8h2M3 9h5M11 9h2M24 9h3M3 10h7M13 10h2M24 10h3M3 11h9M15 11h1M3 12h11M16 12h1M4 13h8M14 13h2M4 14h6M15 14h4M4 15h2M10 15h3M15 15h4M4 16h3M10 16h4M17 16h2M5 17h1M10 17h3M17 17h2M5 18h1M8 18h1M10 18h9M5 19h1M8 19h8M17 19h2M5 20h1M8 20h4M13 20h3M17 20h2M6 21h1M8 21h3M13 21h3M17 21h2M6 22h2M9 22h1M17 22h2M6 23h5M16 23h3M8 24h4M13 24h6M10 25h9M12 26h7M14 27h5M16 28h3M18 29h1" />
<path stroke="#000000" d="M0 0h1M15 2h1M13 3h2M16 3h1M12 4h1M16 4h2M19 4h1M18 5h1M20 5h1M23 5h1M20 6h1M23 6h1M20 7h1M23 7h1M21 8h2M20 9h2M23 9h1M29 9h1M18 10h2M23 10h1M29 10h1M16 11h2M23 11h1M29 11h1M29 12h1M28 13h1M28 14h1M28 15h1M28 16h1M27 17h1M27 18h1M27 19h1M27 20h1M26 21h1M26 22h1M26 23h1M5 24h1M26 24h1M6 25h2M25 25h1M8 26h2M25 26h1M10 27h2M25 27h1M12 28h2M25 28h1M14 29h2M23 29h2M16 30h2M21 30h2M18 31h3" />
<path stroke="#008000" d="M0 0h1M10 9h1M12 13h2M10 14h5M6 15h4M13 15h2M7 16h3M14 16h3M6 17h4M13 17h4M6 18h2M9 18h1M6 19h2M16 19h1M6 20h2M12 20h1M16 20h1M7 21h1M11 21h2M16 21h1M8 22h1M10 22h7M11 23h5M12 24h1" />
<path stroke="#800000" d="M0 0h1M12 10h1M14 11h1" />
</svg>