<svg xmlns="http://www.w3.org/2000/svg" width="32" height="32" shape-rendering="crispEdges" viewBox="0 -0.5 32 32"><path stroke="gray" d="M4 2h9M3 3h1m9 0h1M2 4h1m11 0h1M1 5h1m13 0h1M0 6h1m15 0h14M0 7h1M0 8h1M0 9h1m8 0h5M0 10h1m8 0h1m3 0h1M0 11h1m8 0h1m3 0h1M0 12h1m8 0h5M0 13h1m7 0h1m5 0h1m4 0h2M0 14h1m7 0h7m3 0h1m2 0h2M0 15h1m16 0h2M0 16h1m16 0h1M0 17h1m15 0h1M0 18h1m8 0h5m2 0h1m4 0h2M0 19h1m8 0h1m3 0h1m6 0h1M0 20h1m8 0h1m3 0h1M0 21h1m8 0h5M0 22h1m7 0h1m5 0h1M0 23h1m7 0h7M0 24h1m-1 1h1m-1 1h1m-1 1h1"/><path stroke="#fff" d="M4 3h9M3 4h1M2 5h1M1 7h29M1 8h1M1 9h1m-1 1h1m-1 1h1m-1 1h1m-1 1h1m-1 1h1m-1 1h1m-1 1h1m-1 1h1m-1 1h1m-1 1h1m-1 1h1m-1 1h1m-1 1h1m-1 1h1m-1 1h1m-1 1h1m-1 1h1"/><path stroke="#ff0" d="M4 4h1m1 0h1m1 0h1m1 0h1m1 0h1M3 5h1m1 0h1m1 0h1m1 0h1m1 0h1m1 0h1M2 8h1m1 0h1m1 0h1m1 0h1m1 0h1m1 0h1m1 0h1m1 0h1m1 0h1m1 0h1m1 0h1m1 0h1m1 0h1m1 0h1M3 9h1m1 0h1m1 0h1m7 0h1m1 0h1m1 0h1m1 0h1m1 0h1m1 0h1m1 0h1m1 0h1M2 10h1m1 0h1m1 0h1m1 0h1m7 0h1m1 0h1m1 0h1m1 0h1m1 0h1m1 0h1m1 0h1M3 11h1m1 0h1m1 0h1m7 0h1m1 0h1m1 0h1m1 0h1m1 0h1m1 0h1m1 0h1m1 0h1M2 12h1m1 0h1m1 0h1m1 0h1m7 0h1m1 0h1m1 0h1m1 0h1m1 0h1m1 0h1m1 0h1M3 13h1m1 0h1m1 0h1m9 0h1m3 0h1m1 0h1m1 0h1m1 0h1m1 0h1M2 14h1m1 0h1m1 0h1m12 0h2m3 0h1m1 0h1m1 0h1M3 15h1m1 0h1m1 0h1m13 0h2m2 0h1m1 0h1m1 0h1M2 16h1m1 0h1m1 0h1m1 0h1m1 0h1m1 0h1m1 0h1m1 0h1m1 0h1m1 0h1m3 0h1m1 0h1m1 0h1M3 17h1m1 0h1m1 0h1m1 0h1m1 0h1m1 0h1m1 0h1m3 0h1m5 0h1m1 0h1m1 0h1M2 18h1m1 0h1m1 0h1m1 0h1m5 0h1m9 0h1m1 0h1m1 0h1M3 19h1m1 0h1m1 0h1m7 0h1m7 0h1m1 0h1m1 0h1m1 0h1M2 20h1m1 0h1m1 0h1m1 0h1m7 0h1m7 0h1m1 0h1m1 0h1M3 21h1m1 0h1m1 0h1m7 0h1m1 0h1m1 0h1m1 0h1m1 0h1m1 0h1m1 0h1m1 0h1M2 22h1m1 0h1m1 0h1m9 0h1m1 0h1m1 0h1m3 0h1m1 0h1m1 0h1M3 23h1m1 0h1m1 0h1m9 0h1m1 0h1m1 0h1m1 0h1m1 0h1m1 0h1m1 0h1M2 24h1m1 0h1m1 0h1m1 0h1m7 0h1m1 0h1m1 0h1m1 0h1m1 0h1m1 0h1m1 0h1M3 25h1m1 0h1m1 0h1m1 0h1m1 0h1m1 0h1m1 0h1m1 0h1m1 0h1m1 0h1m1 0h1m1 0h1m1 0h1m1 0h1M2 26h1m1 0h1m1 0h1m1 0h1m1 0h1m1 0h1m1 0h1m1 0h1m1 0h1m1 0h1m1 0h1m1 0h1m1 0h1m1 0h1"/><path stroke="silver" d="M5 4h1m1 0h1m1 0h1m1 0h1m1 0h1M4 5h1m1 0h1m1 0h1m1 0h1m1 0h1m1 0h1M1 6h15M3 8h1m1 0h1m1 0h1m1 0h1m1 0h1m1 0h1m1 0h1m1 0h1m1 0h1m1 0h1m1 0h1m1 0h1m1 0h1m1 0h1M2 9h1m1 0h1m1 0h1m1 0h1m5 0h1m1 0h1m1 0h1m1 0h1m1 0h1m1 0h1m1 0h1m1 0h1M3 10h1m1 0h1m1 0h1m7 0h1m1 0h1m1 0h1m1 0h1m1 0h1m1 0h1m1 0h1m1 0h1M2 11h1m1 0h1m1 0h1m1 0h1m7 0h1m1 0h1m1 0h1m1 0h1m1 0h1m1 0h1m1 0h1M3 12h1m1 0h1m1 0h1m7 0h1m1 0h1m1 0h1m1 0h1m1 0h1m1 0h1m1 0h1m1 0h1M2 13h1m1 0h1m1 0h1m2 0h5m2 0h1m1 0h1m3 0h1m1 0h1m1 0h1m1 0h1M3 14h1m1 0h1m1 0h1m15 0h1m1 0h1m1 0h1m1 0h1M2 15h1m1 0h1m1 0h1m1 0h1m7 0h1m7 0h1m1 0h1m1 0h1M3 16h1m1 0h1m1 0h1m1 0h1m1 0h1m1 0h1m1 0h1m3 0h1m5 0h1m1 0h1m1 0h1M2 17h1m1 0h1m1 0h1m1 0h1m1 0h1m1 0h1m1 0h1m9 0h1m1 0h1m1 0h1M3 18h1m1 0h1m1 0h1m7 0h1m1 0h2m6 0h1m1 0h1m1 0h1M2 19h1m1 0h1m1 0h1m1 0h1m9 0h2m4 0h1m1 0h1m1 0h1M3 20h1m1 0h1m1 0h1m7 0h1m1 0h1m3 0h1m1 0h1m1 0h1m1 0h1m1 0h1M2 21h1m1 0h1m1 0h1m1 0h1m7 0h1m1 0h1m1 0h1m3 0h1m1 0h1m1 0h1M3 22h1m1 0h1m1 0h1m1 0h5m3 0h1m1 0h1m1 0h1m1 0h1m1 0h1m1 0h1m1 0h1M2 23h1m1 0h1m1 0h1m17 0h1m1 0h1m1 0h1M3 24h1m1 0h1m1 0h1m15 0h1m1 0h1m1 0h1m1 0h1M2 25h1m1 0h1m1 0h1m1 0h1m1 0h1m1 0h1m1 0h1m1 0h1m1 0h1m1 0h1m1 0h1m1 0h1m1 0h1m1 0h1M3 26h1m1 0h1m1 0h1m1 0h1m1 0h1m1 0h1m1 0h1m1 0h1m1 0h1m1 0h1m1 0h1m1 0h1m1 0h1m1 0h1"/><path stroke="#000" d="M30 7h1m0 1h1m-1 1h1m-18 1h1m16 0h1m-18 1h1m16 0h1m-18 1h1m16 0h1m-17 1h1m15 0h1m-17 1h1m15 0h1M9 15h7m4 0h1m2 0h1m7 0h1m-11 1h1m1 0h1m7 0h1m-11 1h3m7 0h1m-13 1h2m2 0h1m7 0h1m-18 1h1m1 0h2m3 0h2m8 0h1m-18 1h1m3 0h3m10 0h1m-18 1h1m16 0h1m-17 1h1m15 0h1m-17 1h1m15 0h1M9 24h7m15 0h1m-1 1h1m-1 1h1m-1 1h1M1 28h30"/><path stroke="olive" d="M30 8h1m-1 1h1m-1 1h1m-1 1h1m-1 1h1m-1 1h1m-1 1h1m-12 1h1m10 0h1m-9 1h1m7 0h1m-14 1h2m1 0h1m9 0h1m-1 1h1m-1 1h1m-1 1h1m-1 1h1m-1 1h1m-1 1h1m-1 1h1m-1 1h1m-1 1h1M1 27h30"/><path stroke="#0ff" d="M10 10h3m-3 1h3m-3 8h3m-3 1h3"/><path stroke="#00f" d="M16 14h2m4 6h1m-1 1h1m-1 1h1m-7 1h1m1 0h1m1 0h1m1 0h1m-6 1h1m1 0h1m1 0h1"/></svg>