<svg xmlns="http://www.w3.org/2000/svg" viewBox="0 -0.5 32 32" shape-rendering="crispEdges">
<path stroke="#808000" d="M0 0h1M7 0h1M13 0h2M16 0h5M6 1h1M15 1h2M21 1h2M6 2h2M12 2h1M17 2h1M23 2h2M6 3h1M13 3h1M18 3h1M20 3h1M25 3h1M6 4h1M9 4h1M17 4h1M21 4h1M26 4h1M5 5h1M8 5h1M10 5h1M17 5h1M25 5h1M5 6h1M9 6h1M14 6h1M16 6h2M25 6h1M7 7h1M13 7h3M22 7h1M24 7h2M9 8h1M11 8h4M21 8h3M11 9h2M19 9h4M19 10h2" />
<path stroke="#ffffff" d="M0 0h1M8 0h1M10 0h1M12 0h1M13 1h1M18 1h1M20 1h1M10 2h1M14 2h1M16 2h1M21 2h1M4 3h2M17 3h1M22 3h1M24 3h1M2 4h2M16 4h1M25 4h1M2 5h1M12 5h1M24 5h1M2 6h2M6 6h1M11 6h1M20 6h1M4 7h2M8 7h1M19 7h1M6 8h2M10 8h1M26 8h1M8 9h2M27 9h2M9 10h3M27 10h2M12 11h2M24 11h3M14 12h2M21 12h3M16 13h5" />
<path stroke="#ffff00" d="M0 0h1M9 0h1M11 0h1M7 1h1M12 1h1M14 1h1M17 1h1M19 1h1M13 2h1M15 2h1M20 2h1M22 2h1M8 3h1M10 3h1M16 3h1M21 3h1M23 3h1M7 4h1M11 4h1M14 4h1M24 4h1M6 5h1M13 5h1M16 5h1M19 5h1M22 5h1M7 6h2M12 6h1M21 6h1M24 6h1M9 7h3M20 7h1M19 8h1" />
<path stroke="#c0c0c0" d="M0 0h1M8 1h1M9 3h1M8 4h1M10 4h1M7 5h1M9 5h1M11 5h1M14 5h1M10 6h1M13 6h1M19 6h1M22 6h1M2 7h2M12 7h1M18 7h1M21 7h1M2 8h4M20 8h1M3 9h5M3 10h6M3 11h9M3 12h11M16 12h1M18 12h1M4 13h8M14 13h2M4 14h6M15 14h4M4 15h2M10 15h3M17 15h2M4 16h3M10 16h4M17 16h2M5 17h1M10 17h3M17 17h2M5 18h1M8 18h1M10 18h9M5 19h1M8 19h8M17 19h2M5 20h1M8 20h4M13 20h3M17 20h2M6 21h1M8 21h3M13 21h3M17 21h2M6 22h2M9 22h1M17 22h2M6 23h5M16 23h3M8 24h4M13 24h6M10 25h9M12 26h7M14 27h5M16 28h3M18 29h1" />
<path stroke="#808080" d="M0 0h1M9 1h1M11 1h1M4 2h2M19 2h1M2 3h2M15 3h1M1 4h1M4 4h2M12 4h1M23 4h1M1 5h1M3 5h2M20 5h1M1 6h1M4 6h1M1 7h1M6 7h1M1 8h1M8 8h1M17 8h1M27 8h2M2 9h1M10 9h1M15 9h3M25 9h1M2 10h1M13 10h5M23 10h3M2 11h1M14 11h2M18 11h1M21 11h3M27 11h2M2 12h1M19 12h2M24 12h5M3 13h1M21 13h7M3 14h1M19 14h9M3 15h1M19 15h9M3 16h1M19 16h9M4 17h1M19 17h8M4 18h1M19 18h8M4 19h1M19 19h8M4 20h1M19 20h8M5 21h1M19 21h7M5 22h1M19 22h7M5 23h1M19 23h7M6 24h2M19 24h7M8 25h2M19 25h6M10 26h2M19 26h6M12 27h2M19 27h6M14 28h2M19 28h6M16 29h2M19 29h4M18 30h3" />
<path stroke="#000000" d="M0 0h1M10 1h1M8 2h2M11 2h1M18 2h1M7 3h1M11 3h2M14 3h1M19 3h1M13 4h1M15 4h1M18 4h3M22 4h1M15 5h1M18 5h1M21 5h1M23 5h1M26 5h1M15 6h1M18 6h1M23 6h1M26 6h1M16 7h2M23 7h1M26 7h1M15 8h2M18 8h1M24 8h2M13 9h2M18 9h1M23 9h2M26 9h1M29 9h1M12 10h1M18 10h1M21 10h2M26 10h1M29 10h1M16 11h2M19 11h2M29 11h1M29 12h1M28 13h1M28 14h1M28 15h1M28 16h1M27 17h1M27 18h1M27 19h1M27 20h1M26 21h1M26 22h1M26 23h1M5 24h1M26 24h1M6 25h2M25 25h1M8 26h2M25 26h1M10 27h2M25 27h1M12 28h2M25 28h1M14 29h2M23 29h2M16 30h2M21 30h2M18 31h3" />
<path stroke="#800000" d="M0 0h1M17 12h1" />
<path stroke="#008000" d="M0 0h1M12 13h2M10 14h5M6 15h4M13 15h4M7 16h3M14 16h3M6 17h4M13 17h4M6 18h2M9 18h1M6 19h2M16 19h1M6 20h2M12 20h1M16 20h1M7 21h1M11 21h2M16 21h1M8 22h1M10 22h7M11 23h5M12 24h1" />
</svg>