<svg xmlns="http://www.w3.org/2000/svg" width="16" height="16" shape-rendering="crispEdges" viewBox="0 -0.5 16 16"><path stroke="olive" d="M3 0h11M2 1h1m10 0h1M2 2h11M8 5h2M7 6h1m2 0h2M7 7h2M6 8h1m4 0h1M6 9h2m2 0h1m-3 1h2"/><path stroke="#000" d="M14 0h1m-1 1h1m-1 1h1m-1 1h1m-1 1h1m-1 1h1m-1 1h1M9 7h1m2 0h1m1 0h1m-5 1h1m1 0h1m1 0h1m-4 1h2m1 0h1M5 10h1m6 0h1m1 0h1m-8 1h1m3 0h1m2 0h1m-7 1h3m3 0h1m-1 1h1m-1 1h1m-2 1h1"/><path stroke="#ff0" d="M3 1h10M8 6h2m0 1h2M7 8h1m1 0h1M8 9h2"/><path stroke="silver" d="M13 2h1m-1 1h1m-1 1h1m-1 1h1m-1 1h1m-1 1h1M8 8h1m4 0h1m-1 1h1m-7 1h1m5 0h1m-6 1h1m4 0h1m-1 1h1M2 13h11M3 14h1m1 0h1m1 0h1m1 0h1m1 0h1"/><path stroke="gray" d="M2 3h1M2 4h1m1 0h5M2 5h1m1 0h1M2 6h1m1 0h1M2 7h1m1 0h3M2 8h1m1 0h1M2 9h1m1 0h2m-4 1h1m3 0h1m3 0h2M2 11h1m3 0h1m2 0h2M1 12h1m-1 1h1m11 0h1M2 14h1m1 0h1m1 0h1m1 0h1m1 0h1m1 0h2M3 15h10"/><path stroke="#fff" d="M3 3h10M3 4h1m5 0h4M3 5h1m6 0h3M3 6h1m8 0h1M3 7h1M3 8h1M3 9h1m-1 1h2m-2 1h3m6 0h1M2 12h6m3 0h2"/><path stroke="#0ff" d="M5 5h3M5 6h2"/><path stroke="#0f0" d="M5 8h1"/></svg>