<svg xmlns="http://www.w3.org/2000/svg" width="16" height="16" shape-rendering="crispEdges" viewBox="0 -0.5 16 16"><path stroke="gray" d="M2 1h5M1 2h1m5 0h1M0 3h1m7 0h6M0 4h1m12 0h1M0 5h1m2 0h3m7 0h1M0 6h1m2 0h1m9 0h1M0 7h1m2 0h1m6 0h1m2 0h1M0 8h1m9 0h1m2 0h1M0 9h1m2 0h3m7 0h1M0 10h1m2 0h1m9 0h1M0 11h1m2 0h1m9 0h1M0 12h14"/><path stroke="#ff0" d="M2 2h1m1 0h1m1 0h1M1 3h1m1 0h1m1 0h1m1 0h1M2 5h1m3 0h1m3 0h1m1 0h1M9 6h1M2 7h1m3 0h1m1 0h1m3 0h1M3 8h1m1 0h1m2 0h1M2 9h1m3 0h1m5 0h1m-6 1h1m3 0h1M2 11h1m7 0h1m1 0h1"/><path stroke="silver" d="M3 2h1m1 0h1M2 3h1m1 0h1m1 0h1m0 2h1m3 0h1M2 6h1m9 0h1M2 8h1m1 0h1m1 0h1m2 0h1m2 0h1M7 9h1m3 0h1M2 10h1m3 0h1m1 0h1m1 0h1m1 0h1m-2 1h1"/><path stroke="#fff" d="M1 4h12M1 5h1M1 6h1M1 7h1M1 8h1M1 9h1m-1 1h1m-1 1h1"/><path stroke="#000" d="M14 4h1m-1 1h1M5 6h1m5 0h1m2 0h1M4 7h2m3 0h1m1 0h1m2 0h1m-4 1h1m2 0h1M8 9h3m3 0h1M5 10h1m8 0h1M4 11h2m8 0h1m-1 1h1M1 13h14"/><path stroke="olive" d="M8 5h2M8 6h1m1 0h1M7 7h1M7 8h1"/><path stroke="#0ff" d="M4 6h1m-1 4h1"/><path stroke="#00f" d="M6 6h2m1 4h1m-4 1h4"/></svg>