<svg xmlns="http://www.w3.org/2000/svg" width="32" height="32" shape-rendering="crispEdges" viewBox="0 -0.5 32 32"><path stroke="gray" d="M2 0h10M1 1h1m9 0h1M1 2h1m9 0h1M1 3h1m9 0h1M1 4h1m9 0h1m8 0h5M1 5h1m9 0h1m7 0h2m4 0h2M1 6h1m9 0h1m6 0h1m2 0h1m1 0h1m3 0h2M1 7h1m2 0h6m1 0h1m6 0h1m10 0h1M1 8h1m9 0h1m6 0h1m8 0h1M1 9h1m10 0h1m5 0h1m5 0h1M0 10h1m11 0h1m4 0h1M0 11h1m11 0h1m3 0h1M0 12h13m2 0h1m-1 1h1m-1 1h1m-2 1h1m15 0h1m-17 1h1m13 0h3m-17 1h1m11 0h5M2 18h10m12 0h6M1 19h1m9 0h1m10 0h6M1 20h1m9 0h1m10 0h4M1 21h1m9 0h1m10 0h2M1 22h1m9 0h1M1 23h1m9 0h1M1 24h1m9 0h1M1 25h1m2 0h6m1 0h1M1 26h1m9 0h1M1 27h1m10 0h1M0 28h1m11 0h1M0 29h1m11 0h1M0 30h13"/><path stroke="silver" d="M2 1h9M2 2h1m7 0h1M2 3h1m7 0h1M2 4h1m7 0h1M2 5h1m7 0h1M2 6h1m7 0h1M2 7h1m7 0h1M2 8h9m9 1h1m1 0h1m-4 1h1m1 0h1m1 0h1m2 0h1M2 11h1m2 0h3m3 0h1m6 0h1m1 0h1m1 0h1m2 0h1m-5 1h1m2 0h1m-2 1h1m-2 1h1m7 0h1m-3 1h2m-15 1h2m9 0h2m-13 1h1m1 0h2m5 0h2m-11 1h3m1 0h2m1 0h2M2 19h9m6 0h3m1 0h1M2 20h1m7 0h1m8 0h3M2 21h1m7 0h1m10 0h1M2 22h1m7 0h1m-9 1h1m7 0h1m-9 1h1m7 0h1m-9 1h1m7 0h1m-9 1h9m-9 3h1m2 0h3m3 0h1"/><path stroke="#000" d="M12 1h1M3 2h7m2 0h1M3 3h1m8 0h1M3 4h1m8 0h1M3 5h1m8 0h1M3 6h1m8 0h1m9 0h1M3 7h1m8 0h1m8 0h1m1 0h1M12 8h1m6 0h2m2 0h2m1 0h1m3 0h1M2 9h10m1 0h1m11 0h1m1 0h1m3 0h1m-19 1h1m13 0h1m3 0h1M8 11h3m2 0h1m13 0h1m3 0h1m-19 1h1m14 0h4M1 13h12m17 0h1m-15 1h1m11 0h2m1 0h1m-15 1h2m7 0h2m3 0h1m-13 1h2m3 0h2m5 0h1m-11 1h3m7 0h1m-18 1h1m15 0h2m-20 1h1m2 0h2m11 0h2M3 20h7m2 0h1m4 0h2m7 0h2M3 21h1m8 0h1m6 0h2m3 0h2M3 22h1m8 0h1m8 0h3M3 23h1m8 0h1M3 24h1m8 0h1M3 25h1m8 0h1m-1 1h1M2 27h10m1 0h1m-1 1h1m-6 1h3m2 0h1m-1 1h1M1 31h12"/><path stroke="#0ff" d="M4 3h1M4 4h1M4 21h1m-1 1h1"/><path stroke="teal" d="M5 3h5M5 4h5M4 5h6M4 6h6M5 21h5m-5 1h5m-6 1h6m-6 1h6"/><path stroke="#ff0" d="M21 5h4m-6 1h2m3 0h3m-8 1h2m1 0h1m2 0h4m-8 1h2m5 0h2M19 9h1m3 0h1m2 0h1m1 0h3m-13 1h1m5 0h2m3 0h2m-14 1h1m5 0h2m-9 1h1m2 0h1m2 0h2m-8 1h3m2 0h2m-6 1h4m-2 1h3m-1 1h1"/><path stroke="olive" d="M24 7h1m0 1h1m-5 1h1m-2 1h1m1 0h1m5 0h1m-10 1h1m1 0h1m4 0h1m1 0h3m-11 1h1m4 0h3m-4 1h6m-7 1h5m-6 1h4m-4 1h2"/><path stroke="#fff" d="M1 10h11M1 11h1m15 1h2m0 1h2m0 1h1m-7 1h2m0 1h2m0 1h2m0 1h1M1 28h11M1 29h1"/><path stroke="#00f" d="M14 10h3m12 10h1m-1 1h1m-1 1h1m-1 1h1m-1 1h1m-1 1h1m-13 1h1m3 0h1m3 0h1m3 0h1m-14 1h1m1 0h1m1 0h1m1 0h1m1 0h1m1 0h1m2 0h1m-16 1h1m1 0h1m1 0h1m1 0h1m1 0h1m1 0h1m1 0h1m1 0h1m-14 1h1m3 0h1m3 0h1m3 0h1"/><path stroke="#0f0" d="M3 11h2M3 29h2"/><path stroke="red" d="M16 17h1m1 1h1m1 1h1"/></svg>