<svg xmlns="http://www.w3.org/2000/svg" viewBox="0 -0.5 32 32" shape-rendering="crispEdges">
<path stroke="#808000" d="M0 0h1M13 0h5M11 1h2M18 1h2M10 2h1M20 2h1M9 3h1M8 4h1M8 5h1M7 6h1M22 6h1M7 7h1M22 7h1M7 8h1M22 8h1M7 9h1M22 9h1M7 10h1M22 10h1M21 11h1M9 12h1M21 12h1M10 13h1M20 13h1M11 14h1M19 14h1M11 15h1M19 15h1M12 16h2M17 16h2M14 17h3" />
<path stroke="#ffff00" d="M0 0h1M13 1h5M11 2h1M13 2h1M15 2h1M17 2h1M19 2h1M10 3h1M18 3h3M9 4h1M17 4h1M19 4h1M21 4h1M18 5h1M20 5h2M8 6h1M17 6h1M19 6h1M21 6h1M8 7h1M18 7h1M20 7h2M9 8h1M17 8h1M19 8h1M21 8h1M8 9h3M12 9h1M14 9h1M16 9h1M18 9h1M20 9h2M8 10h2M11 10h1M13 10h1M15 10h1M17 10h1M19 10h1M21 10h1M9 11h4M18 11h3M10 12h2M13 12h1M17 12h1M19 12h1M11 13h3M17 13h3M12 14h2M15 14h1M17 14h1M12 15h7M14 16h3" />
<path stroke="#ffffff" d="M0 0h1M12 2h1M14 2h1M16 2h1M18 2h1M11 3h3M17 3h1M10 4h4M18 4h1M20 4h1M9 5h5M17 5h1M19 5h1M9 6h5M18 6h1M20 6h1M9 7h5M17 7h1M19 7h1M8 8h1M10 8h5M16 8h1M18 8h1M20 8h1M11 9h1M13 9h1M17 9h1M19 9h1M10 10h1M12 10h1M14 10h1M16 10h1M18 10h1M20 10h1M13 11h1M17 11h1M12 12h1M18 12h1M20 12h1M9 14h1M14 14h1M16 14h1M18 14h1M21 14h1M8 15h1M22 15h1M7 16h1M9 16h1M21 16h1M23 16h1M6 17h1M8 17h1M10 17h1M20 17h1M22 17h1M24 17h1M7 18h1M9 18h1M12 18h2M21 18h1M23 18h1M8 19h1M10 19h1M14 19h1M20 19h1M22 19h1M9 20h1M11 20h1M13 20h1M19 20h1M21 20h1M10 21h1M14 21h1M20 21h1M11 22h1M19 22h1M12 23h1M18 23h1M13 24h1M15 24h1M17 24h1M14 25h1M16 25h1M15 26h1" />
<path stroke="#808080" d="M0 0h1M14 3h1M16 3h1M14 7h1M16 7h1M14 11h1M16 11h1M8 13h1M14 13h1M16 13h1M7 14h1M6 15h1M5 16h1M11 17h1M11 18h1M5 19h1M11 19h2M25 19h1M4 20h3M12 20h1M24 20h3M5 21h3M12 21h2M23 21h3M6 22h3M22 22h3M7 23h3M21 23h3M8 24h3M20 24h3M9 25h3M19 25h3M10 26h3M18 26h3M11 27h3M17 27h3M12 28h3M16 28h3M13 29h5M14 30h3M15 31h1" />
<path stroke="#000000" d="M0 0h1M15 3h1M21 3h1M14 4h3M22 4h1M14 5h3M22 5h1M14 6h3M23 6h1M15 7h1M23 7h1M15 8h1M23 8h1M15 9h1M23 9h1M23 10h1M8 11h1M15 11h1M22 11h1M8 12h1M14 12h3M22 12h1M9 13h1M15 13h1M21 13h2M10 14h1M20 14h1M23 14h1M10 15h1M20 15h1M24 15h1M11 16h1M19 16h1M25 16h1M4 17h1M12 17h2M17 17h3M26 17h1M5 18h1M14 18h3M19 18h1M25 18h1M6 19h1M13 19h1M17 19h3M24 19h1M7 20h1M14 20h3M18 20h1M23 20h1M8 21h1M17 21h2M22 21h1M9 22h1M13 22h5M21 22h1M10 23h1M14 23h3M20 23h1M11 24h1M19 24h1M12 25h1M18 25h1M13 26h1M17 26h1M14 27h1M16 27h1M15 28h1" />
<path stroke="#00ffff" d="M0 0h1M8 14h1M22 14h1M7 15h1M9 15h1M21 15h1M23 15h1M6 16h1M8 16h1M10 16h1M20 16h1M22 16h1M24 16h1M5 17h1M7 17h1M9 17h1M21 17h1M23 17h1M25 17h1M6 18h1M8 18h1M10 18h1M20 18h1M22 18h1M24 18h1M7 19h1M9 19h1M21 19h1M23 19h1M8 20h1M10 20h1M20 20h1M22 20h1M9 21h1M11 21h1M19 21h1M21 21h1M10 22h1M12 22h1M18 22h1M20 22h1M11 23h1M13 23h1M17 23h1M19 23h1M12 24h1M14 24h1M16 24h1M18 24h1M13 25h1M15 25h1M17 25h1M14 26h1M16 26h1M15 27h1" />
<path stroke="#c0c0c0" d="M0 0h1M17 18h2M15 19h2M17 20h1M15 21h2" />
</svg>