<svg xmlns="http://www.w3.org/2000/svg" viewBox="0 -0.5 16 16" shape-rendering="crispEdges">
<path stroke="#808000" d="M0 0h1M3 0h11M2 1h1M13 1h1M2 2h11M8 5h2M7 6h1M10 6h2M7 7h2M6 8h1M11 8h1M6 9h2M10 9h1M8 10h2" />
<path stroke="#000000" d="M0 0h1M14 0h1M14 1h1M14 2h1M14 3h1M14 4h1M14 5h1M14 6h1M9 7h1M12 7h1M14 7h1M10 8h1M12 8h1M14 8h1M11 9h2M14 9h1M5 10h1M12 10h1M14 10h1M7 11h1M11 11h1M14 11h1M8 12h3M14 12h1M14 13h1M14 14h1M13 15h1" />
<path stroke="#ffff00" d="M0 0h1M3 1h10M8 6h2M10 7h2M7 8h1M9 8h1M8 9h2" />
<path stroke="#c0c0c0" d="M0 0h1M13 2h1M13 3h1M13 4h1M13 5h1M13 6h1M13 7h1M8 8h1M13 8h1M13 9h1M7 10h1M13 10h1M8 11h1M13 11h1M13 12h1M2 13h11M3 14h1M5 14h1M7 14h1M9 14h1M11 14h1" />
<path stroke="#808080" d="M0 0h1M2 3h1M2 4h1M4 4h5M2 5h1M4 5h1M2 6h1M4 6h1M2 7h1M4 7h3M2 8h1M4 8h1M2 9h1M4 9h2M2 10h1M6 10h1M10 10h2M2 11h1M6 11h1M9 11h2M1 12h1M1 13h1M13 13h1M2 14h1M4 14h1M6 14h1M8 14h1M10 14h1M12 14h2M3 15h10" />
<path stroke="#ffffff" d="M0 0h1M3 3h10M3 4h1M9 4h4M3 5h1M10 5h3M3 6h1M12 6h1M3 7h1M3 8h1M3 9h1M3 10h2M3 11h3M12 11h1M2 12h6M11 12h2" />
<path stroke="#00ffff" d="M0 0h1M5 5h3M5 6h2" />
<path stroke="#00ff00" d="M0 0h1M5 8h1" />
</svg>