<svg xmlns="http://www.w3.org/2000/svg" width="32" height="32" shape-rendering="crispEdges" viewBox="0 -0.5 32 32"><path stroke="olive" d="M7 0h1m5 0h2m1 0h5M6 1h1m8 0h2m4 0h2M6 2h2m4 0h1m4 0h1m5 0h2M6 3h1m6 0h1m4 0h1m1 0h1m4 0h1M6 4h1m2 0h1m7 0h1m3 0h1m4 0h1M5 5h1m2 0h1m1 0h1m6 0h1m7 0h1M5 6h1m3 0h1m4 0h1m1 0h2m7 0h1M7 7h1m5 0h3m6 0h1m1 0h2M9 8h1m1 0h4m6 0h3M11 9h2m6 0h4m-4 1h2"/><path stroke="#fff" d="M8 0h1m1 0h1m1 0h1m0 1h1m4 0h1m1 0h1M10 2h1m3 0h1m1 0h1m4 0h1M4 3h2m11 0h1m4 0h1m1 0h1M2 4h2m12 0h1m8 0h1M2 5h1m9 0h1m11 0h1M2 6h2m2 0h1m4 0h1m8 0h1M4 7h2m2 0h1m10 0h1M6 8h2m2 0h1m15 0h1M8 9h2m17 0h2M9 10h3m15 0h2m-17 1h2m10 0h3m-13 1h2m5 0h3m-8 1h5"/><path stroke="#ff0" d="M9 0h1m1 0h1M7 1h1m4 0h1m1 0h1m2 0h1m1 0h1m-7 1h1m1 0h1m4 0h1m1 0h1M8 3h1m1 0h1m5 0h1m4 0h1m1 0h1M7 4h1m3 0h1m2 0h1m9 0h1M6 5h1m6 0h1m2 0h1m2 0h1m2 0h1M7 6h2m3 0h1m8 0h1m2 0h1M9 7h3m8 0h1m-2 1h1"/><path stroke="silver" d="M8 1h1m0 2h1M8 4h1m1 0h1M7 5h1m1 0h1m1 0h1m2 0h1m-5 1h1m2 0h1m5 0h1m2 0h1M2 7h2m8 0h1m5 0h1m2 0h1M2 8h4m14 0h1M3 9h5m-5 1h6m-6 1h9m-9 1h11m2 0h1m1 0h1M4 13h8m2 0h2M4 14h6m5 0h4M4 15h2m4 0h3m4 0h2M4 16h3m3 0h4m3 0h2M5 17h1m4 0h3m4 0h2M5 18h1m2 0h1m1 0h9M5 19h1m2 0h8m1 0h2M5 20h1m2 0h4m1 0h3m1 0h2M6 21h1m1 0h3m2 0h3m1 0h2M6 22h2m1 0h1m7 0h2M6 23h5m5 0h3M8 24h4m1 0h6m-9 1h9m-7 1h7m-5 1h5m-3 1h3m-1 1h1"/><path stroke="gray" d="M9 1h1m1 0h1M4 2h2m13 0h1M2 3h2m11 0h1M1 4h1m2 0h2m6 0h1m10 0h1M1 5h1m1 0h2m15 0h1M1 6h1m2 0h1M1 7h1m4 0h1M1 8h1m6 0h1m8 0h1m9 0h2M2 9h1m7 0h1m4 0h3m7 0h1M2 10h1m10 0h5m5 0h3M2 11h1m11 0h2m2 0h1m2 0h3m3 0h2M2 12h1m16 0h2m3 0h5M3 13h1m17 0h7M3 14h1m15 0h9M3 15h1m15 0h9M3 16h1m15 0h9M4 17h1m14 0h8M4 18h1m14 0h8M4 19h1m14 0h8M4 20h1m14 0h8M5 21h1m13 0h7M5 22h1m13 0h7M5 23h1m13 0h7M6 24h2m11 0h7M8 25h2m9 0h6m-15 1h2m7 0h6m-13 1h2m5 0h6m-11 1h2m3 0h6m-9 1h2m1 0h4m-5 1h3"/><path stroke="#000" d="M10 1h1M8 2h2m1 0h1m6 0h1M7 3h1m3 0h2m1 0h1m4 0h1m-7 1h1m1 0h1m2 0h3m1 0h1m-8 1h1m2 0h1m2 0h1m1 0h1m2 0h1M15 6h1m2 0h1m4 0h1m2 0h1M16 7h2m5 0h1m2 0h1M15 8h2m1 0h1m5 0h2M13 9h2m3 0h1m4 0h2m1 0h1m2 0h1m-18 1h1m5 0h1m2 0h2m3 0h1m2 0h1m-14 1h2m1 0h2m8 0h1m-1 1h1m-2 1h1m-1 1h1m-1 1h1m-1 1h1m-2 1h1m-1 1h1m-1 1h1m-1 1h1m-2 1h1m-1 1h1m-1 1h1M5 24h1m20 0h1M6 25h2m17 0h1M8 26h2m15 0h1m-16 1h2m13 0h1m-14 1h2m11 0h1m-12 1h2m7 0h2m-9 1h2m3 0h2m-5 1h3"/><path stroke="maroon" d="M17 12h1"/><path stroke="green" d="M12 13h2m-4 1h5m-9 1h4m3 0h4M7 16h3m4 0h3M6 17h4m3 0h4M6 18h2m1 0h1m-4 1h2m8 0h1M6 20h2m4 0h1m3 0h1M7 21h1m3 0h2m3 0h1m-9 1h1m1 0h7m-6 1h5m-4 1h1"/></svg>