<svg xmlns="http://www.w3.org/2000/svg" width="32" height="32" shape-rendering="crispEdges" viewBox="0 -0.5 32 32"><path stroke="olive" d="M5 0h24M4 1h1m23 0h1M4 2h1m22 0h2M4 3h1m22 0h2M4 4h1m22 0h1m-13 6h5m-6 1h1m5 0h2m-9 1h1m8 0h2m-11 1h1m5 0h1m4 0h1m-12 1h1m6 0h1m4 0h1m-13 1h1m2 0h1m-5 1h1m2 0h1m1 0h1m6 0h1m-13 1h1m3 0h1m4 0h1m1 0h2m-5 1h3m-5 1h4m-4 1h2"/><path stroke="#000" d="M29 0h1m-1 1h1m-1 1h1m-1 1h1m-1 1h1m-1 1h1m-1 1h1m-1 1h1M15 8h1m13 0h1M9 9h5m1 0h1m13 0h1M9 10h1m19 0h1M9 11h1m19 0h1M9 12h1m7 0h1m11 0h1m-15 1h2m1 0h1m10 0h1M8 14h5m1 0h1m3 0h2m1 0h1m7 0h1m-10 1h1m1 0h1m2 0h1m3 0h1m-8 1h1m2 0h1m3 0h1M7 17h5m10 0h1m2 0h1m3 0h1m-7 1h2m4 0h1m-8 1h2m1 0h1m3 0h1m-10 1h2m3 0h1m3 0h1m-12 1h2m5 0h1m3 0h1m-19 1h2m10 0h2m4 0h1m-17 1h2m6 0h2m6 0h1m-15 1h2m2 0h2m8 0h1m-13 1h2m10 0h1m-1 1h1m-1 1h1m-1 1h1m-1 1h1m-2 1h1"/><path stroke="#ff0" d="M5 1h1m1 0h1m1 0h1m1 0h1m1 0h1m1 0h1m1 0h1m1 0h1m1 0h1m1 0h1m1 0h1m1 0h1M5 3h1m1 0h1m1 0h1m1 0h1m1 0h1m1 0h1m1 0h1m1 0h1m1 0h1m1 0h1m1 0h1M6 4h1m1 0h1m1 0h1m1 0h1m1 0h1m1 0h1m1 0h1m1 0h1m1 0h1m1 0h1m1 0h1m-12 7h5m-6 1h2m3 0h3m-8 1h1m5 0h4m-9 1h1m1 0h1m5 0h2m-11 1h1m3 0h1m2 0h1m1 0h2m-12 1h1m6 0h1m2 0h1m-9 1h1m3 0h1m-7 1h2m2 0h2m-4 1h2m0 1h1"/><path stroke="silver" d="M6 1h1m1 0h1m1 0h1m1 0h1m1 0h1m1 0h1m1 0h1m1 0h1m1 0h1m1 0h1m1 0h1M6 3h1m1 0h1m1 0h1m1 0h1m1 0h1m1 0h1m1 0h1m1 0h1m1 0h1m1 0h1m1 0h1M5 4h1m1 0h1m1 0h1m1 0h1m1 0h1m1 0h1m1 0h1m1 0h1m1 0h1m1 0h1m1 0h1M14 9h1m-1 1h1m-7 3h5m3 1h1m-2 1h1m1 0h1M7 16h1m6 0h1m1 0h1m1 0h1m2 0h1m-5 1h1m2 0h1m-2 1h1m4 1h1m-3 1h2m-12 1h2m6 0h2m-9 1h3m2 0h2m-5 1h3m9 0h1m-11 1h1m9 0h1m-1 1h1m-2 1h2m-2 1h1M4 28h23m0 1h1M6 30h22"/><path stroke="#fff" d="M5 2h22M5 5h1m1 0h1m1 0h1m1 0h1m1 0h1m1 0h1m1 0h1m1 0h1m1 0h1m1 0h1m1 0h1M5 6h22M5 7h3m8 0h11M5 8h2m1 0h7m1 0h11M5 9h2m1 0h1m7 0h11M5 10h2m1 0h1m11 0h7M5 11h2m1 0h1m13 0h5M5 12h2m1 0h1m15 0h3M5 13h2m10 0h1m7 0h2M5 14h1m20 0h1M5 15h1m1 0h6m13 0h1M5 16h1m13 0h1m6 0h1M5 17h2m6 0h2m3 0h1m7 0h1M5 18h7m3 0h2m8 0h2M5 19h6m1 0h1m4 0h1m8 0h1M5 20h6m2 0h2m11 0h1M5 21h6m4 0h2m9 0h1M5 22h6m6 0h1m7 0h2M4 23h9m10 0h3M4 24h11m6 0h5M4 25h13m2 0h7M3 26h22"/><path stroke="gray" d="M28 4h1M4 5h1m1 0h1m1 0h1m1 0h1m1 0h1m1 0h1m1 0h1m1 0h1m1 0h1m1 0h1m1 0h1m1 0h3M4 6h1m22 0h2M4 7h1m3 0h8m11 0h2M4 8h1m2 0h1m19 0h2M4 9h1m2 0h1m19 0h2M4 10h1m2 0h1m19 0h2M4 11h1m2 0h1m19 0h2M4 12h1m2 0h1m2 0h3m3 0h1m1 0h1m8 0h2M4 13h1m2 0h1m19 0h2M4 14h1m1 0h2m14 0h1m4 0h2M4 15h1m1 0h1m12 0h1m7 0h2M4 16h1m1 0h1m2 0h3m15 0h2M4 17h1m22 0h2M4 18h1m7 0h1m14 0h2M4 19h1m6 0h1m1 0h2m12 0h2M4 20h1m6 0h1m3 0h2m7 0h1m2 0h2M4 21h1m6 0h1m5 0h1m4 0h3m2 0h2M4 22h1m15 0h3m4 0h2M3 23h1m14 0h3m5 0h1m1 0h1M3 24h1m14 0h1m7 0h1m1 0h1M3 25h1m22 0h1m1 0h1M2 26h1m22 0h1m2 0h1M2 27h24m1 0h2M3 28h1m23 0h2M3 29h24m1 0h1M5 30h1m-1 1h23"/><path stroke="#0ff" d="M10 10h1"/><path stroke="teal" d="M11 10h3m-4 1h4"/><path stroke="#0f0" d="M8 16h1m3 4h1"/><path stroke="red" d="M14 21h1m1 1h1"/></svg>