<svg xmlns="http://www.w3.org/2000/svg" width="32" height="32" shape-rendering="crispEdges" viewBox="0 -0.5 32 32"><path stroke="gray" d="M5 0h24M4 1h1m23 0h1M3 2h1m23 0h2M2 3h1m23 0h3M1 4h1m23 0h4M1 5h1m23 0h4M1 6h1m23 0h4M1 7h1m23 0h4M1 8h1m23 0h4M1 9h1m23 0h4M1 10h1m23 0h4M1 11h1m23 0h4M1 12h1m23 0h4M1 13h1m23 0h4M1 14h1m23 0h4M1 15h1m23 0h4M1 16h1m23 0h4M1 17h1m23 0h4M1 18h1m23 0h4M1 19h1m23 0h4M1 20h1m23 0h4M1 21h1m23 0h4M1 22h1m23 0h4M1 23h1m23 0h4M1 24h1m23 0h4M1 25h1m23 0h4M1 26h1m23 0h4M1 27h1m23 0h4M1 28h1m23 0h3M1 29h1m23 0h2M1 30h1m23 0h1"/><path stroke="#000" d="M29 0h1m-1 1h1m-1 1h1m-1 1h1m-1 1h1m-1 1h1m-1 1h1m-1 1h1m-1 1h1m-1 1h1m-1 1h1m-1 1h1m-1 1h1m-1 1h1m-1 1h1m-1 1h1m-1 1h1m-1 1h1m-1 1h1m-1 1h1m-1 1h1m-1 1h1m-1 1h1m-1 1h1m-1 1h1m-1 1h1m-1 1h1m-1 1h1m-2 1h1m-2 1h1m-2 1h1M1 31h25"/><path stroke="silver" d="M5 1h23M4 2h23M3 3h23M3 5h22M3 6h22M3 7h2m17 0h3M3 8h2m17 0h3M3 9h2m17 0h3M3 10h2m17 0h3M3 11h2m17 0h3M3 12h2m17 0h3M3 13h22M3 14h22M3 15h2m17 0h3M3 16h2m17 0h3M3 17h2m17 0h3M3 18h2m17 0h3M3 19h2m17 0h3M3 20h2m17 0h3M3 21h22M3 22h22M3 23h2m17 0h3M3 24h2m17 0h3M3 25h2m17 0h3M3 26h2m17 0h3M3 27h2m17 0h3M3 28h2m17 0h3M3 29h22M3 30h22"/><path stroke="#fff" d="M2 4h23M2 5h1M2 6h1M2 7h1m18 0h1M2 8h1m18 0h1M2 9h1m18 0h1M2 10h1m18 0h1M2 11h1m18 0h1M2 12h1m2 0h17M2 13h1m-1 1h1m-1 1h1m18 0h1M2 16h1m18 0h1M2 17h1m18 0h1M2 18h1m18 0h1M2 19h1m18 0h1M2 20h1m2 0h17M2 21h1m-1 1h1m-1 1h1m18 0h1M2 24h1m18 0h1M2 25h1m18 0h1M2 26h1m18 0h1M2 27h1m18 0h1M2 28h1m2 0h17M2 29h1m-1 1h1"/><path stroke="green" d="M5 7h16M5 8h1M5 9h1m-1 1h1m-1 1h1m-1 4h16M5 16h1m-1 1h1m-1 1h1m-1 1h1"/><path stroke="#0f0" d="M6 8h15M6 9h15M6 10h15M6 11h15M6 16h15M6 17h15M6 18h15M6 19h15"/><path stroke="maroon" d="M5 23h16M5 24h1m-1 1h1m-1 1h1m-1 1h1"/><path stroke="red" d="M6 24h15M6 25h15M6 26h15M6 27h15"/></svg>