<svg xmlns="http://www.w3.org/2000/svg" width="16" height="16" shape-rendering="crispEdges" viewBox="0 -0.5 16 16"><path stroke="gray" d="M3 0h12M2 1h1m11 0h1M1 2h1m11 0h2M1 3h1m11 0h2M1 4h1m11 0h2M1 5h1m11 0h2M1 6h1m11 0h2M1 7h1m11 0h2M1 8h1m11 0h2M1 9h1m11 0h2M1 10h1m11 0h2M1 11h1m11 0h2M1 12h1m11 0h2M1 13h1m11 0h2M1 14h1m11 0h1"/><path stroke="#000" d="M15 0h1m-1 1h1m-1 1h1m-1 1h1m-1 1h1m-1 1h1m-1 1h1m-1 1h1m-1 1h1m-1 1h1m-1 1h1m-1 1h1m-1 1h1m-1 1h1m-2 1h1M1 15h13"/><path stroke="silver" d="M3 1h11M3 3h10M3 4h1m7 0h2M3 5h1m7 0h2M3 6h1m7 0h2M3 7h10M3 8h1m7 0h2M3 9h1m7 0h2M3 10h1m7 0h2M3 11h10M3 12h1m8 0h1M3 13h1m8 0h1M3 14h1m8 0h1"/><path stroke="#fff" d="M2 2h11M2 3h1M2 4h1M2 5h1m7 0h1M2 6h1m1 0h7M2 7h1M2 8h1M2 9h1m7 0h1m-9 1h1m1 0h7m-9 1h1m-1 1h1m8 0h1M2 13h1m8 0h1M2 14h1m1 0h8"/><path stroke="green" d="M4 4h7M4 5h1M4 8h7M4 9h1"/><path stroke="#0f0" d="M5 5h5M5 9h5"/><path stroke="maroon" d="M4 12h7m-7 1h1"/><path stroke="red" d="M5 13h6"/></svg>