<svg xmlns="http://www.w3.org/2000/svg" viewBox="0 -0.5 16 16" shape-rendering="crispEdges">
<path stroke="#808080" d="M0 0h1M3 0h12M2 1h1M14 1h1M1 2h1M13 2h2M1 3h1M13 3h2M1 4h1M13 4h2M1 5h1M13 5h2M1 6h1M13 6h2M1 7h1M13 7h2M1 8h1M13 8h2M1 9h1M13 9h2M1 10h1M13 10h2M1 11h1M13 11h2M1 12h1M13 12h2M1 13h1M13 13h2M1 14h1M13 14h1" />
<path stroke="#000000" d="M0 0h1M15 0h1M15 1h1M15 2h1M15 3h1M15 4h1M15 5h1M15 6h1M15 7h1M15 8h1M15 9h1M15 10h1M15 11h1M15 12h1M15 13h1M14 14h1M1 15h13" />
<path stroke="#c0c0c0" d="M0 0h1M3 1h11M3 3h10M3 4h1M11 4h2M3 5h1M11 5h2M3 6h1M11 6h2M3 7h10M3 8h1M11 8h2M3 9h1M11 9h2M3 10h1M11 10h2M3 11h10M3 12h1M12 12h1M3 13h1M12 13h1M3 14h1M12 14h1" />
<path stroke="#ffffff" d="M0 0h1M2 2h11M2 3h1M2 4h1M2 5h1M10 5h1M2 6h1M4 6h7M2 7h1M2 8h1M2 9h1M10 9h1M2 10h1M4 10h7M2 11h1M2 12h1M11 12h1M2 13h1M11 13h1M2 14h1M4 14h8" />
<path stroke="#008000" d="M0 0h1M4 4h7M4 5h1M4 8h7M4 9h1" />
<path stroke="#00ff00" d="M0 0h1M5 5h5M5 9h5" />
<path stroke="#800000" d="M0 0h1M4 12h7M4 13h1" />
<path stroke="#ff0000" d="M0 0h1M5 13h6" />
</svg>