<svg xmlns="http://www.w3.org/2000/svg" width="32" height="32" shape-rendering="crispEdges" viewBox="0 -0.5 32 32"><path stroke="#000" d="M3 1h1m14 0h8M3 2h1m2 0h1m6 0h1m2 0h12M5 3h2m2 0h1m1 0h3m1 0h14M5 4h1m2 0h2m1 0h3m1 0h3m3 0h2m3 0h3M8 5h1m2 0h1m3 0h2m4 0h2m4 0h2M15 6h2m4 0h2m4 0h2M15 7h2m4 0h2m4 0h2M15 8h2m4 0h2m4 0h2M3 9h1m11 0h2m2 0h6m2 0h2M3 10h1m2 0h1m6 0h1m1 0h14M5 11h2m2 0h1m1 0h3m1 0h3m3 0h2m3 0h3M5 12h1m2 0h2m1 0h3m1 0h2m4 0h2m4 0h2M8 13h1m2 0h1m3 0h2m4 0h2m4 0h2m-14 1h2m4 0h2m4 0h2m-14 1h2m4 0h2m4 0h2m-14 1h2m2 0h6m2 0h2M3 17h1m11 0h14M3 18h1m2 0h1m6 0h1m1 0h14M5 19h2m2 0h1m1 0h3m1 0h4m6 0h4M5 20h1m2 0h2m1 0h3m1 0h2m10 0h2M8 21h1m2 0h1m-9 2h1m1 0h1m1 0h1m1 0h1m2 0h2m2 0h2m1 0h2m1 0h2m1 0h5M3 24h3m1 0h2m2 0h1m1 0h1m1 0h1m1 0h1m1 0h1m1 0h1m1 0h1m1 0h1m2 0h1M3 25h1m1 0h1m1 0h2m2 0h2m2 0h1m1 0h1m2 0h2m1 0h1m1 0h2m1 0h1M3 26h1m1 0h1m1 0h1m1 0h3m1 0h1m1 0h2m2 0h2m1 0h1m2 0h1m2 0h1M3 28h1m1 0h1m1 0h1m1 0h1m2 0h1m1 0h2m3 0h2m2 0h1m1 0h1m1 0h2M3 29h1m1 0h1m1 0h1m1 0h2m1 0h1m1 0h1m1 0h1m1 0h1m2 0h1m1 0h1m1 0h1m1 0h1M3 30h3m1 0h1m1 0h1m1 0h2m1 0h1m1 0h1m1 0h1m2 0h1m1 0h3m2 0h1M3 31h1m1 0h1m1 0h1m1 0h1m2 0h1m1 0h2m3 0h2m2 0h1m1 0h1m1 0h2"/><path stroke="maroon" d="M18 4h1m-1 5h1"/><path stroke="red" d="M19 4h2M3 5h1m13 0h4M3 6h1m2 0h1m6 0h1m3 0h4M5 7h2m2 0h1m1 0h3m3 0h4M5 8h1m2 0h2m1 0h3m3 0h4M8 9h1m2 0h1m5 0h1"/><path stroke="green" d="M23 4h2m-2 1h4m-4 1h4m-4 1h4m-4 1h4m-1 1h1"/><path stroke="navy" d="M25 4h1m-1 5h1m-8 2h1m-1 5h1"/><path stroke="#00f" d="M19 11h2m-4 1h4M3 13h1m13 0h4M3 14h1m2 0h1m6 0h1m3 0h4M5 15h2m2 0h1m1 0h3m3 0h4M5 16h1m2 0h2m1 0h3m3 0h1M8 17h1m2 0h1"/><path stroke="#ff0" d="M23 11h2m-2 1h4m-4 1h4m-4 1h4m-4 1h4m-1 1h1"/><path stroke="olive" d="M25 11h1m-1 5h1"/></svg>