<svg xmlns="http://www.w3.org/2000/svg" width="32" height="32" shape-rendering="crispEdges" viewBox="0 -0.5 32 32"><path stroke="gray" d="M11 0h16M10 1h1m15 0h1M9 2h1m15 0h2M8 3h1m16 0h2M8 4h1m1 0h13m2 0h2M8 5h1m1 0h1m11 0h1m2 0h2M8 6h1m1 0h1m11 0h1m2 0h2M8 7h1m1 0h1m11 0h1m2 0h2M8 8h1m1 0h1m11 0h1m2 0h2M8 9h1m1 0h1m11 0h1m2 0h2M4 10h1m3 0h1m1 0h1m11 0h1m2 0h2M3 11h1m4 0h5m9 0h1m2 0h2M2 12h1m4 0h1m14 0h1m2 0h2M1 13h1m2 0h1m2 0h1m7 0h8m2 0h2M0 14h1m2 0h1m4 0h5m12 0h2m1 0h3M0 15h1m1 0h1m3 0h2m6 0h2m9 0h1m1 0h2m1 0h1M0 16h2m1 0h5m18 0h2m1 0h2M1 17h2m11 0h13m1 0h3M2 18h1m24 0h4m-17 1h2m11 0h4m-19 1h1m1 0h2m11 0h4m-19 1h1m1 0h2m2 0h1m3 0h2m1 0h1m1 0h3m-18 1h1m1 0h2m1 0h6m1 0h5m-17 1h1m1 0h1m8 0h5M2 24h1m5 0h1m3 0h1M2 25h1m5 0h1m3 0h1M2 26h1m5 0h1m3 0h1M2 27h1m5 0h1m2 0h1m8 0h9M2 28h1m5 0h1m1 0h1m8 0h1M2 29h1m5 0h2m8 0h1m3 0h2m2 0h1M2 30h1m5 0h1m8 0h1m3 0h1m2 0h2"/><path stroke="silver" d="M11 1h14M10 3h15m-1 1h1m-1 1h1m-1 1h1m-1 1h1m-1 1h1m-1 1h1m-1 1h1m-1 1h1M4 12h1m7 0h1m11 0h1M3 13h1m1 0h1m6 0h1m11 0h1M2 14h1m1 0h3m7 0h2m8 0h1M1 15h1m1 0h3m2 0h1m7 0h9m4 0h1M2 16h1m5 0h2m18 0h1M9 17h1m17 0h1m-14 1h2m0 1h11m-1 1h1m-16 1h1m4 0h1m2 0h1m1 0h1m4 0h1m-17 1h2m-3 1h3m-3 1h3m-3 1h3m-3 1h3m-3 1h2m-2 1h1m9 1h3m2 0h2M3 30h5m10 0h3m2 0h1"/><path stroke="#fff" d="M25 1h1M10 2h15M9 3h1M9 4h1m13 0h1M9 5h1m13 0h1M9 6h1m13 0h1M9 7h1m13 0h1M9 8h1m13 0h1M9 9h1m13 0h1M9 10h1m13 0h1M4 11h1m18 0h1M3 12h1m4 0h4m11 0h1M2 13h1m5 0h4m11 0h1M1 14h1m14 0h8M9 15h3m-2 1h1m-8 1h5m-5 1h5m8 0h11m-7 3h1m-4 2h1m1 0h1m1 0h1M3 24h5m-5 1h5m-5 1h5m-5 1h5m-5 1h5m12 0h1m1 0h1m1 0h1m1 0h1M3 29h5m14 1h1"/><path stroke="#000" d="M27 1h1m-1 1h1m-1 1h1m-1 1h1M11 5h11m5 0h1M11 6h1m15 0h1M11 7h1m15 0h1M11 8h1m15 0h1M11 9h1m15 0h1M5 10h1m5 0h1m15 0h1M5 11h1m21 0h1M5 12h1m7 0h1m13 0h1M6 13h1m6 0h2m12 0h1M7 14h1m5 0h1m13 0h1m-16 1h2m12 0h1m4 0h1m-21 1h1m1 0h13m5 0h1M8 17h1m1 0h1m2 0h1m17 0h1M8 18h2m3 0h1m17 0h1M8 19h1m4 0h1m17 0h1m-19 1h1m2 0h10m5 0h1m-19 1h1m3 0h1m6 0h1m5 0h1m-18 1h1m2 0h1m6 0h1m5 0h1m-17 1h1m1 0h1m12 0h1m-16 1h15m-15 1h1m-1 1h1m-2 1h1m16 0h1m-19 1h1m16 0h1m-19 1h1m16 0h1M9 30h1m16 0h1M2 31h7m7 0h10"/><path stroke="#00f" d="M12 6h10M12 7h1m1 0h8M12 8h1m1 0h8M12 9h10m-10 1h10m-9 1h9m-7 1h7M3 19h5m-5 1h5m-5 1h5m-5 1h5m-5 1h5"/><path stroke="#0ff" d="M13 7h1m-1 1h1"/><path stroke="navy" d="M14 12h1m-3 4h1m-2 1h2m-3 1h3M2 19h1m6 0h4M2 20h1m5 0h4M2 21h1m5 0h3m-9 1h1m5 0h2m-8 1h1m5 0h1"/><path stroke="#ff0" d="M16 23h1m1 0h1m1 0h1m1 0h1m-2 5h1m1 0h1m1 0h1m1 0h1"/></svg>