<svg xmlns="http://www.w3.org/2000/svg" viewBox="0 -0.5 16 16" shape-rendering="crispEdges">
<path stroke="#000000" d="M0 0h1M1 1h14M1 2h1M3 2h1M12 2h1M14 2h1M1 3h1M3 3h1M12 3h3M1 4h1M3 4h1M12 4h1M14 4h1M1 5h1M3 5h1M12 5h1M14 5h1M1 6h1M3 6h1M12 6h1M14 6h1M1 7h1M3 7h1M12 7h1M14 7h1M1 8h1M4 8h8M14 8h1M1 9h1M14 9h1M1 10h1M4 10h9M14 10h1M1 11h1M4 11h6M12 11h1M14 11h1M1 12h1M4 12h6M12 12h1M14 12h1M1 13h1M4 13h6M12 13h1M14 13h1M2 14h13" />
<path stroke="#808000" d="M0 0h1M2 2h1M2 3h1M2 4h1M13 4h1M2 5h1M13 5h1M2 6h1M13 6h1M2 7h1M13 7h1M2 8h2M12 8h2M2 9h12M2 10h2M13 10h1M2 11h2M13 11h1M2 12h2M13 12h1M2 13h2M13 13h1" />
</svg>