<svg xmlns="http://www.w3.org/2000/svg" viewBox="0 -0.5 16 16" shape-rendering="crispEdges">
<path stroke="#808080" d="M0 0h1M6 0h2M5 1h1M4 2h1M6 2h5M3 3h1M5 3h1M11 3h2M2 4h1M4 4h1M13 4h1M1 5h1M3 5h1M8 5h1M14 5h1M0 6h1M2 6h1M7 6h1M0 7h1M0 8h1M14 8h2M0 9h1M13 9h1M0 10h2M10 10h1M12 10h1M2 11h2M10 11h2M4 12h2M10 12h2M6 13h2M10 13h1M8 14h2" />
<path stroke="#c0c0c0" d="M0 0h1M6 1h1M5 2h1M4 3h1M3 4h1M3 6h1M11 6h1M4 7h1M2 8h2M2 9h4M9 9h1M14 9h1M2 10h6M13 10h1M4 11h6M12 11h1M6 12h1M9 12h1M8 13h2" />
<path stroke="#000000" d="M0 0h1M7 1h1M9 6h1M14 6h1M8 7h2M14 7h1M13 8h1M12 9h1M15 9h1M11 10h1M14 10h1M0 11h2M13 11h1M2 12h2M12 12h1M4 13h2M11 13h1M6 14h2M10 14h1M8 15h2" />
<path stroke="#00ffff" d="M0 0h1M6 3h1M5 4h2M6 5h2M12 6h2" />
<path stroke="#ffffff" d="M0 0h1M7 3h1M7 4h1M2 5h1M1 6h1M8 6h1M1 7h3M1 8h1M4 8h2M1 9h1M6 9h2M8 10h2" />
<path stroke="#ffff00" d="M0 0h1M8 3h3M8 4h3M9 5h1M4 6h3M9 8h1M10 9h1" />
<path stroke="#ff00ff" d="M0 0h1M11 4h2M10 5h4M10 6h1M7 7h1M6 8h3M8 9h1" />
<path stroke="#00ff00" d="M0 0h1M4 5h2M5 7h2M10 7h3M10 8h3M11 9h1M7 12h1" />
<path stroke="#808000" d="M0 0h1M13 7h1" />
<path stroke="#008000" d="M0 0h1M8 12h1" />
</svg>