<svg xmlns="http://www.w3.org/2000/svg" width="16" height="16" shape-rendering="crispEdges" viewBox="0 -0.5 16 16"><path stroke="gray" d="M6 0h2M5 1h1M4 2h1m1 0h5M3 3h1m1 0h1m5 0h2M2 4h1m1 0h1m8 0h1M1 5h1m1 0h1m4 0h1m5 0h1M0 6h1m1 0h1m4 0h1M0 7h1M0 8h1m13 0h2M0 9h1m12 0h1M0 10h2m8 0h1m1 0h1M2 11h2m6 0h2m-8 1h2m4 0h2m-6 1h2m2 0h1m-3 1h2"/><path stroke="silver" d="M6 1h1M5 2h1M4 3h1M3 4h1M3 6h1m7 0h1M4 7h1M2 8h2M2 9h4m3 0h1m4 0h1M2 10h6m5 0h1M4 11h6m2 0h1m-7 1h1m2 0h1m-2 1h2"/><path stroke="#000" d="M7 1h1m1 5h1m4 0h1M8 7h2m4 0h1m-2 1h1m-2 1h1m2 0h1m-5 1h1m2 0h1M0 11h2m11 0h1M2 12h2m8 0h1m-9 1h2m5 0h1m-6 1h2m2 0h1m-3 1h2"/><path stroke="#0ff" d="M6 3h1M5 4h2M6 5h2m4 1h2"/><path stroke="#fff" d="M7 3h1M7 4h1M2 5h1M1 6h1m6 0h1M1 7h3M1 8h1m2 0h2M1 9h1m4 0h2m0 1h2"/><path stroke="#ff0" d="M8 3h3M8 4h3M9 5h1M4 6h3m2 2h1m0 1h1"/><path stroke="#f0f" d="M11 4h2m-3 1h4m-4 1h1M7 7h1M6 8h3M8 9h1"/><path stroke="#0f0" d="M4 5h2M5 7h2m3 0h3m-3 1h3m-2 1h1m-5 3h1"/><path stroke="olive" d="M13 7h1"/><path stroke="green" d="M8 12h1"/></svg>