<svg xmlns="http://www.w3.org/2000/svg" width="32" height="32" shape-rendering="crispEdges" viewBox="0 -0.5 32 32"><path stroke="#000" d="M8 1h7M6 2h2m7 0h2M5 3h1m11 0h1M4 4h1m13 0h1M4 5h1m14 0h1M3 6h1m16 0h1M3 7h1m16 0h1M3 8h1m17 0h1M3 9h1m17 0h1M3 10h1m17 0h1M3 11h1m17 0h1M3 12h1m17 0h1M4 13h1m16 0h1M4 14h1m16 0h1M5 15h1m14 0h1M6 16h1m13 0h1M7 17h1m11 0h2M8 18h2m7 0h4m-11 1h9m2 0h1m-7 1h2m5 0h1M8 21h7m8 0h1m0 1h1m0 1h1m0 1h1m0 1h1m0 1h1m0 1h1m0 1h1m-1 1h1m-1 1h1m-3 1h2"/><path stroke="gray" d="M8 2h6M6 3h2M3 5h1M2 6h1M2 7h1M1 8h1M1 9h1m-1 1h1m-1 1h1m-1 1h1m-1 1h1m-1 1h1m0 1h1m-1 1h1m0 1h1m0 1h1m0 1h1m13 0h2M6 20h2m1 0h6m2 0h1m2 0h2m-5 1h1m0 1h1"/><path stroke="silver" d="M14 2h1m-2 1h4m-2 1h3m-2 1h2M2 8h1m17 0h1M2 9h1m17 0h1m-1 1h1m-1 1h1m-1 1h1m-1 1h1m-1 1h1M5 16h1m-2 1h3m-2 1h3m-2 1h4m-2 1h1m10 0h1m-2 1h1m1 0h1m-2 1h1"/><path stroke="teal" d="M8 3h5M5 4h3m5 0h2M5 5h1m9 0h1M4 6h1m11 0h1M4 7h1m12 0h1M4 8h1m13 0h1M4 9h1m13 0h1M4 10h1m14 0h1M4 11h1m14 0h1M4 12h1m14 0h1M5 13h1m13 0h1M5 14h1m13 0h1M6 15h1m12 0h1M7 16h1m11 0h1M8 17h1m9 0h1m-9 1h1"/><path stroke="#0ff" d="M8 4h1m1 0h1m1 0h1M7 5h1m1 0h1m1 0h1m1 0h1M6 6h1m1 0h1m1 0h1m1 0h1m1 0h1M5 7h1m1 0h1m3 0h1m1 0h1m1 0h1M6 8h1m3 0h1m1 0h1m1 0h1m1 0h1M5 9h1m5 0h1m1 0h1m1 0h1m1 0h1M6 10h1m3 0h1m1 0h1m1 0h1m1 0h1m1 0h1M5 11h1m5 0h1m1 0h1m1 0h1m1 0h1M6 12h1m5 0h1m1 0h1m1 0h1m1 0h1M7 13h1m3 0h1m1 0h1m1 0h1m1 0h1M6 14h1m1 0h1m3 0h1m1 0h1m1 0h1m1 0h1M7 15h1m1 0h1m3 0h1m1 0h1m1 0h1M8 16h1m1 0h1m1 0h1m1 0h1m1 0h1m1 0h1M9 17h1m1 0h1m1 0h1m1 0h1m1 0h1m-6 1h1m1 0h1m1 0h1m4 4h1m-2 1h1m1 0h1m-2 1h1m1 0h1m-2 1h1m1 0h1m-2 1h1m1 0h1m-2 1h1m1 0h1m-2 1h1m1 0h1m-2 1h1m1 0h1m-2 1h1"/><path stroke="#fff" d="M9 4h1m1 0h1M6 5h1m1 0h1m1 0h1m1 0h1m1 0h1m3 0h1M5 6h1m1 0h1m1 0h1m1 0h1m1 0h1m1 0h1m1 0h3M6 7h1m1 0h3m1 0h1m1 0h1m1 0h1m1 0h2M5 8h1m1 0h3m1 0h1m1 0h1m1 0h1m1 0h1m1 0h1M6 9h5m1 0h1m1 0h1m1 0h1m2 0h1M2 10h1m2 0h1m1 0h3m1 0h1m1 0h1m1 0h1m1 0h1M2 11h1m3 0h5m1 0h1m1 0h1m1 0h1m1 0h1M2 12h1m2 0h1m1 0h5m1 0h1m1 0h1m1 0h1M2 13h2m2 0h1m1 0h3m1 0h1m1 0h1m1 0h1m1 0h1M2 14h2m3 0h1m1 0h3m1 0h1m1 0h1m1 0h1M3 15h2m3 0h1m1 0h3m1 0h1m1 0h1m1 0h1M3 16h2m4 0h1m1 0h1m1 0h1m1 0h1m1 0h1m-8 1h1m1 0h1m1 0h1m1 0h1m-6 1h1m1 0h1m1 0h1m2 2h1m0 1h1m0 1h1m0 1h1m0 1h1m0 1h1m0 1h1m0 1h1m0 1h1m0 1h1m0 1h1"/><path stroke="#00f" d="M21 21h2m-1 1h2m-1 1h2m-1 1h2m-1 1h2m-1 1h2m-1 1h2m-1 1h2m-1 1h1m-1 1h1"/><path stroke="navy" d="M19 23h1m0 1h1m0 1h1m0 1h1m0 1h1m0 1h1m0 1h1m0 1h1m0 1h1"/></svg>