<svg xmlns="http://www.w3.org/2000/svg" viewBox="0 -0.5 16 16" shape-rendering="crispEdges">
<path stroke="#808080" d="M0 0h1M3 0h5M2 1h1M6 1h1M1 2h1M6 2h1M0 3h1M0 4h1M8 4h2M0 5h1M0 6h1M2 6h1M0 7h1M1 8h1M4 8h1M2 9h1M4 9h1M10 9h1M3 10h5M9 10h1" />
<path stroke="#008080" d="M0 0h1M3 1h3M2 2h1M7 2h1M8 3h1M9 5h1M9 6h1M9 7h1M8 8h1" />
<path stroke="#c0c0c0" d="M0 0h1M7 1h1M8 2h1M9 3h1M3 9h1M10 10h1" />
<path stroke="#000000" d="M0 0h1M8 1h1M9 2h1M1 3h1M10 3h1M1 4h1M10 4h1M1 5h1M10 5h1M1 6h1M10 6h1M2 7h1M10 7h1M3 8h1M9 8h2M5 9h5M11 9h1M12 10h1M13 11h1M14 12h1M15 13h1M15 14h1M14 15h1" />
<path stroke="#ffffff" d="M0 0h1M3 2h1M5 2h1M2 3h1M4 3h1M6 3h1M3 4h1M5 4h1M7 4h1M2 5h1M4 5h1M6 5h1M8 5h1M3 6h3M7 6h1M1 7h1M4 7h1M6 7h1M8 7h1M2 8h1M5 8h1M7 8h1M11 11h1M12 12h1M13 13h1" />
<path stroke="#00ffff" d="M0 0h1M4 2h1M3 3h1M5 3h1M7 3h1M2 4h1M4 4h1M6 4h1M3 5h1M5 5h1M7 5h1M6 6h1M8 6h1M3 7h1M5 7h1M7 7h1M6 8h1M10 11h1M11 12h1M12 13h1M13 14h1" />
<path stroke="#000080" d="M0 0h1M8 10h1M9 11h1M10 12h1M11 13h1M12 14h1M13 15h1" />
<path stroke="#0000ff" d="M0 0h1M11 10h1M12 11h1M13 12h1M14 13h1M14 14h1" />
</svg>