<svg xmlns="http://www.w3.org/2000/svg" width="16" height="16" shape-rendering="crispEdges" viewBox="0 -0.5 16 16"><path stroke="gray" d="M3 0h5M2 1h1m3 0h1M1 2h1m4 0h1M0 3h1M0 4h1m7 0h2M0 5h1M0 6h1m1 0h1M0 7h1m0 1h1m2 0h1M2 9h1m1 0h1m5 0h1m-8 1h5m1 0h1"/><path stroke="teal" d="M3 1h3M2 2h1m4 0h1m0 1h1m0 2h1M9 6h1M9 7h1M8 8h1"/><path stroke="silver" d="M7 1h1m0 1h1m0 1h1M3 9h1m6 1h1"/><path stroke="#000" d="M8 1h1m0 1h1M1 3h1m8 0h1M1 4h1m8 0h1M1 5h1m8 0h1M1 6h1m8 0h1M2 7h1m7 0h1M3 8h1m5 0h2M5 9h5m1 0h1m0 1h1m0 1h1m0 1h1m0 1h1m-1 1h1m-2 1h1"/><path stroke="#fff" d="M3 2h1m1 0h1M2 3h1m1 0h1m1 0h1M3 4h1m1 0h1m1 0h1M2 5h1m1 0h1m1 0h1m1 0h1M3 6h3m1 0h1M1 7h1m2 0h1m1 0h1m1 0h1M2 8h1m2 0h1m1 0h1m3 3h1m0 1h1m0 1h1"/><path stroke="#0ff" d="M4 2h1M3 3h1m1 0h1m1 0h1M2 4h1m1 0h1m1 0h1M3 5h1m1 0h1m1 0h1M6 6h1m1 0h1M3 7h1m1 0h1m1 0h1M6 8h1m3 3h1m0 1h1m0 1h1m0 1h1"/><path stroke="navy" d="M8 10h1m0 1h1m0 1h1m0 1h1m0 1h1m0 1h1"/><path stroke="#00f" d="M11 10h1m0 1h1m0 1h1m0 1h1m-1 1h1"/></svg>