<svg xmlns="http://www.w3.org/2000/svg" width="32" height="32" shape-rendering="crispEdges" viewBox="0 -0.5 32 32"><path stroke="gray" d="M2 5h27M2 6h1m25 0h1M2 7h1m25 0h1M2 8h1m25 0h1M2 9h1m25 0h1M2 10h1m25 0h1M2 11h1m25 0h1M2 12h1m25 0h1M2 13h1m25 0h1M2 14h1m25 0h1M2 15h1m25 0h1M2 16h1m25 0h1M2 17h1m25 0h1M2 18h1m25 0h1M2 19h1m25 0h1M2 20h1m25 0h1M2 21h1m25 0h1M2 22h1m25 0h1M2 23h1m25 0h1M2 24h27"/><path stroke="#000" d="M3 6h1m23 0h1m1 0h1M4 7h1m21 0h1m2 0h1M5 8h1m19 0h1m3 0h1M6 9h1m17 0h1m4 0h1M7 10h1m15 0h1m5 0h1M8 11h1m13 0h1m6 0h1M9 12h1m11 0h1m7 0h1m-20 1h1m9 0h1m8 0h1m-19 1h1m7 0h1m9 0h1m-20 1h1m1 0h1m5 0h1m1 0h1m8 0h1M9 16h1m3 0h1m3 0h1m3 0h1m7 0h1M8 17h1m5 0h1m1 0h1m5 0h1m6 0h1M7 18h1m7 0h1m7 0h1m5 0h1M6 19h1m17 0h1m4 0h1M5 20h1m19 0h1m3 0h1M4 21h1m21 0h1m2 0h1M3 22h1m23 0h1m1 0h1m-1 1h1m-1 1h1M4 25h26"/><path stroke="#ff0" d="M4 6h1m1 0h1m1 0h1m1 0h1m1 0h1m1 0h1m1 0h1m1 0h1m1 0h1m1 0h1m1 0h1m1 0h1M3 7h1m1 0h1m1 0h1m1 0h1m1 0h1m1 0h1m1 0h1m1 0h1m1 0h1m1 0h1m1 0h1m1 0h1m1 0h1M4 8h1m1 0h1m1 0h1m1 0h1m1 0h1m1 0h1m1 0h1m1 0h1m1 0h1m1 0h1m1 0h1m1 0h1M3 9h1m1 0h1m1 0h1m1 0h1m1 0h1m1 0h1m1 0h1m1 0h1m1 0h1m1 0h1m1 0h1m1 0h1m1 0h1M4 10h1m1 0h1m1 0h1m1 0h1m1 0h1m1 0h1m1 0h1m1 0h1m1 0h1m1 0h1m1 0h1m1 0h1M3 11h1m1 0h1m1 0h1m1 0h1m1 0h1m1 0h1m1 0h1m1 0h1m1 0h1m1 0h1m1 0h1m1 0h1m1 0h1M4 12h1m1 0h1m1 0h1m1 0h1m1 0h1m1 0h1m1 0h1m1 0h1m1 0h1m1 0h1m1 0h1m1 0h1M3 13h1m1 0h1m1 0h1m1 0h1m1 0h1m1 0h1m1 0h1m1 0h1m1 0h1m1 0h1m1 0h1m1 0h1m1 0h1M4 14h1m1 0h1m1 0h1m1 0h1m1 0h1m1 0h1m1 0h1m1 0h1m1 0h1m1 0h1m1 0h1m1 0h1M3 15h1m1 0h1m1 0h1m1 0h1m1 0h1m1 0h1m1 0h1m1 0h1m1 0h1m1 0h1m1 0h1m1 0h1m1 0h1M4 16h1m1 0h1m1 0h1m1 0h1m1 0h1m1 0h1m1 0h1m1 0h1m1 0h1m1 0h1m1 0h1m1 0h1M3 17h1m1 0h1m1 0h1m1 0h1m1 0h1m1 0h1m1 0h1m1 0h1m1 0h1m1 0h1m1 0h1m1 0h1m1 0h1M4 18h1m1 0h1m1 0h1m1 0h1m1 0h1m1 0h1m1 0h1m1 0h1m1 0h1m1 0h1m1 0h1m1 0h1M3 19h1m1 0h1m1 0h1m1 0h1m1 0h1m1 0h1m1 0h1m1 0h1m1 0h1m1 0h1m1 0h1m1 0h1m1 0h1M4 20h1m1 0h1m1 0h1m1 0h1m1 0h1m1 0h1m1 0h1m1 0h1m1 0h1m1 0h1m1 0h1m1 0h1M3 21h1m1 0h1m1 0h1m1 0h1m1 0h1m1 0h1m1 0h1m1 0h1m1 0h1m1 0h1m1 0h1m1 0h1m1 0h1M4 22h1m1 0h1m1 0h1m1 0h1m1 0h1m1 0h1m1 0h1m1 0h1m1 0h1m1 0h1m1 0h1m1 0h1M3 23h1m1 0h1m1 0h1m1 0h1m1 0h1m1 0h1m1 0h1m1 0h1m1 0h1m1 0h1m1 0h1m1 0h1m1 0h1"/><path stroke="#fff" d="M5 6h1m1 0h1m1 0h1m1 0h1m1 0h1m1 0h1m1 0h1m1 0h1m1 0h1m1 0h1m1 0h1M3 8h1m-1 2h1m-1 2h1m-1 2h1m-1 2h1m-1 2h1m-1 2h1"/><path stroke="silver" d="M6 7h1m1 0h1m1 0h1m1 0h1m1 0h1m1 0h1m1 0h1m1 0h1m1 0h1m1 0h1M7 8h1m1 0h1m1 0h1m1 0h1m1 0h1m1 0h1m1 0h1m1 0h1m1 0h1m3 0h1M4 9h1m3 0h1m1 0h1m1 0h1m1 0h1m1 0h1m1 0h1m1 0h1m1 0h1m3 0h1M5 10h1m3 0h1m1 0h1m1 0h1m1 0h1m1 0h1m1 0h1m1 0h1m3 0h1m1 0h1M4 11h1m1 0h1m3 0h1m1 0h1m1 0h1m1 0h1m1 0h1m1 0h1m3 0h1m1 0h1M5 12h1m1 0h1m3 0h1m1 0h1m1 0h1m1 0h1m1 0h1m3 0h1m1 0h1m1 0h1M4 13h1m1 0h1m1 0h1m3 0h1m1 0h1m1 0h1m1 0h1m3 0h1m1 0h1m1 0h1M5 14h1m1 0h1m1 0h1m3 0h1m1 0h1m1 0h1m3 0h1m1 0h1m1 0h1m1 0h1M4 15h1m1 0h1m1 0h1m5 0h1m1 0h1m5 0h1m1 0h1m1 0h1M5 16h1m1 0h1m3 0h1m3 0h1m3 0h1m3 0h1m1 0h1m1 0h1M4 17h1m1 0h1m3 0h1m1 0h1m5 0h1m1 0h1m3 0h1m1 0h1M5 18h1m3 0h1m1 0h1m1 0h1m3 0h1m1 0h1m1 0h1m3 0h1m1 0h1M4 19h1m3 0h1m1 0h1m1 0h1m1 0h1m1 0h1m1 0h1m1 0h1m1 0h1m3 0h1M7 20h1m1 0h1m1 0h1m1 0h1m1 0h1m1 0h1m1 0h1m1 0h1m1 0h1m3 0h1M6 21h1m1 0h1m1 0h1m1 0h1m1 0h1m1 0h1m1 0h1m1 0h1m1 0h1m1 0h1M5 22h1m1 0h1m1 0h1m1 0h1m1 0h1m1 0h1m1 0h1m1 0h1m1 0h1m1 0h1m1 0h1M4 23h1m1 0h1m1 0h1m1 0h1m1 0h1m1 0h1m1 0h1m1 0h1m1 0h1m1 0h1m1 0h1m1 0h1"/></svg>