<svg xmlns="http://www.w3.org/2000/svg" width="32" height="32" shape-rendering="crispEdges" viewBox="0 -0.5 32 32"><path stroke="gray" d="M4 4h16M4 5h1m14 0h1M4 6h1m3 0h7m4 0h1M4 7h1m3 0h1m10 0h1M4 8h1m3 0h1m10 0h1M4 9h1m3 0h1m10 0h1M4 10h1m3 0h1m6 0h5M4 11h1m3 0h1m5 0h1M4 12h1m3 0h1m5 0h5m3 0h2M4 13h1m9 0h1m2 0h2M4 14h1m9 0h1m2 0h2M4 15h1m9 0h1m2 0h2M4 16h1m3 0h1m5 0h1m2 0h2M4 17h1m9 0h1m2 0h2M4 18h1m9 0h1m2 0h2M4 19h1m-1 1h1m-1 1h1m-1 1h1"/><path stroke="#000" d="M20 4h1m-1 1h1m-1 1h1M9 7h5m6 0h1M9 8h1m10 0h1M9 9h1m3 0h1m6 0h1M9 10h2m1 0h1m7 0h1M9 11h1m1 0h1m7 0h2M9 12h1m9 0h2m-9 1h2m5 0h3m2 0h1m-6 1h1m4 0h1M9 15h1m9 0h1m4 0h1M9 16h1m3 0h1m5 0h2m3 0h1m-13 1h1m6 0h1m1 0h1m2 0h3m-14 1h1m5 0h2m6 0h1M6 19h1m7 0h6m3 0h1m3 0h1M6 20h1m3 0h1m12 0h1m3 0h1M6 21h1m2 0h1m3 0h2m4 0h2m3 0h1m2 0h1M7 22h2m3 0h1m5 0h1m5 0h3M4 23h5m2 0h1m6 0h1m5 0h2m-15 1h1m1 0h2m3 0h3m3 0h1m-14 1h2m5 0h1m2 0h1m2 0h1m-15 1h2m3 0h1m2 0h1m3 0h2m-9 1h4"/><path stroke="silver" d="M5 5h14M5 6h3m8 0h3M5 7h3m6 0h1m1 0h3M5 8h3m5 0h2m1 0h3M5 9h3m4 0h1m1 0h1m1 0h3M5 10h3m3 0h1m2 0h1M5 11h3m10 0h1M5 12h3m4 0h2m-9 1h3m8 0h1M5 14h4m7 0h1M5 15h4m7 0h1M5 16h3m8 0h1M5 17h1m10 0h1M5 18h1m10 0h1M5 19h1m-1 1h1m-1 1h1m-1 1h2"/><path stroke="#fff" d="M15 6h1m-1 1h1m-6 1h3m2 0h1m-6 1h2m3 0h1m-3 1h1m-4 1h1m1 0h2m1 0h3M8 13h1m2 0h1m3 0h1m7 0h1m-14 1h1m1 0h1m2 0h1m6 0h1m-12 1h1m1 0h1m1 0h1m5 0h1m-11 1h2m2 0h1m6 0h1m-12 1h1m1 0h1m1 0h1m4 0h1m2 0h1M8 18h1m1 0h1m1 0h1m2 0h1m6 0h1m1 0h1m1 0h1m-16 1h1m1 0h1m7 0h1m-10 1h1m1 0h1m1 0h1m1 0h1m1 0h1m-10 1h1m5 0h1m3 0h1m1 0h1m-8 1h1m5 0h1m-6 1h1"/><path stroke="olive" d="M10 12h2m-3 1h1m-1 1h1m3 0h1m6 0h1m-11 1h1m12 0h1m-14 1h1m12 0h1M6 17h4m-4 1h1m0 1h4m13 0h3M7 20h3m1 0h1m10 0h1m1 0h3M7 21h2m6 0h1m2 0h1m6 0h2M9 22h2m2 0h3m3 0h3m1 0h1M9 23h1m2 0h4m3 0h5M9 24h1m2 0h1m2 0h3m3 0h3M9 25h1m5 0h3m4 0h2m-8 1h2"/><path stroke="#ff0" d="M10 13h1m11 0h1m-12 1h1m9 0h1m1 0h1m-12 1h1m7 0h1m1 0h1m-2 1h1m-12 1h1m11 0h1M7 18h1m1 0h1m1 0h1m9 0h1m1 0h1m1 0h1m-14 1h1m7 0h1m1 0h1m-10 1h1m1 0h1m1 0h1m1 0h1m1 0h1m-12 1h1m1 0h1m3 0h1m5 0h1m-12 1h1m5 0h1m-8 1h1m5 0h1m-7 1h1m-1 1h1"/></svg>