<svg xmlns="http://www.w3.org/2000/svg" width="16" height="16" shape-rendering="crispEdges" viewBox="0 -0.5 16 16"><path stroke="gray" d="M0 0h12M0 1h1M0 2h1M0 3h1m2 0h4M0 4h1m2 0h1M0 5h1m2 0h1m5 0h2M0 6h1m2 0h1m5 0h1M0 7h1m8 0h1M0 8h1m2 0h2m4 0h1M0 9h1m2 0h1m-4 1h1m2 0h1m-4 1h1m2 0h1m-4 1h1m-1 1h1m-1 1h9"/><path stroke="#000" d="M12 0h1m-1 1h1m-1 1h1m-1 1h1M4 4h2m6 0h1M4 5h1m7 0h1M4 6h1m3 0h1m2 0h2m1 0h1M6 7h1m4 0h1m2 0h1M6 8h1m1 0h1m2 0h2m1 0h2M4 9h2m3 0h3m3 0h1M4 10h2m1 0h1m5 0h1m1 0h1M4 11h1m1 0h1m2 0h1m4 0h1m-7 1h2m2 0h1m2 0h1M6 13h2m1 0h1m1 0h4m-6 1h4M0 15h13"/><path stroke="silver" d="M1 1h11M1 2h11M1 3h2m5 0h4M1 4h2m3 0h1m1 0h4M1 5h2m5 0h1m2 0h1M1 6h2m2 0h1M1 7h2M1 8h2M1 9h2m-2 1h2m-2 1h2m2 0h1m-5 1h2m-2 1h5m2 0h1"/><path stroke="#fff" d="M7 3h1M7 4h1M5 5h1m4 1h1M3 7h3m4 0h1M7 8h1m2 0h1M8 9h1m3 0h1m-4 1h1m1 0h1m-2 1h1m-8 1h3"/><path stroke="olive" d="M6 5h2M6 6h1m6 0h1M7 7h1m4 0h1M5 8h1m7 0h1M6 9h1m7 0h1m-9 1h1m7 0h1m-7 1h1m2 0h2m-7 1h2m3 0h1m1 0h1m-4 1h1"/><path stroke="#ff0" d="M7 6h1m0 1h1m4 0h1M7 9h1m5 0h1m-6 1h1m1 0h1m1 0h1m-6 1h1m5 0h1m-4 1h1m3 0h1"/></svg>