<svg xmlns="http://www.w3.org/2000/svg" viewBox="0 -0.5 16 16" shape-rendering="crispEdges">
<path stroke="#ffffff" d="M0 0h1M0 0h16M0 1h16M0 2h11M12 2h4M0 3h16M0 4h11M12 4h4M0 5h8M9 5h5M15 5h1M0 6h3M7 6h2M10 6h1M12 6h1M14 6h2M0 7h2M8 7h2M11 7h1M13 7h3M0 8h1M11 8h2M14 8h1M0 9h1M13 9h3M0 10h1M12 10h1M14 10h2M0 11h1M12 11h2M15 11h1M0 12h1M12 12h4M0 13h1M12 13h4M0 14h1M12 14h4M0 15h1M12 15h4" />
<path stroke="#000000" d="M0 0h1M11 2h1M11 4h1M8 5h1M14 5h1M3 6h4M9 6h1M11 6h1M13 6h1M2 7h1M7 7h1M10 7h1M12 7h1M1 8h10M13 8h1M15 8h1M1 9h1M11 9h2M1 10h1M11 10h1M13 10h1M1 11h1M11 11h1M14 11h1M1 12h1M11 12h1M1 13h1M11 13h1M1 14h1M11 14h1M1 15h11" />
<path stroke="#ffff00" d="M0 0h1M3 7h4M2 9h9M2 10h9M2 11h9M2 12h9M2 13h9M2 14h9" />
</svg>