<svg xmlns="http://www.w3.org/2000/svg" viewBox="0 -0.5 16 16" shape-rendering="crispEdges">
<path stroke="#808080" d="M0 0h1M0 1h7M0 2h1M7 2h1M0 3h1M8 3h1M0 4h1M0 5h1M0 6h1M0 7h1M0 8h1M0 9h1M5 9h11M0 10h1M4 10h1M14 10h1M0 11h1M3 11h1M13 11h2M3 12h1M6 12h1M13 12h2M3 13h1M13 13h2M3 14h11M3 15h1" />
<path stroke="#ff0000" d="M0 0h1M9 1h3M12 2h1M13 3h1M13 4h1M11 5h5M12 6h3M13 7h1" />
<path stroke="#ffffff" d="M0 0h1M1 2h3M5 2h1M1 3h1M3 3h3M7 3h1M1 4h2M1 5h1M3 5h1M7 5h1M1 6h1M7 6h1M1 7h1M7 7h1M1 8h2M6 8h2M1 9h1M3 9h2M1 10h3M4 11h9M6 13h4" />
<path stroke="#ffff00" d="M0 0h1M4 2h1M2 3h1M2 9h1" />
<path stroke="#c0c0c0" d="M0 0h1M6 2h1M6 3h1M4 5h1M8 5h1M3 6h1M8 6h1M8 7h1M8 8h1M5 10h9M1 11h2M4 12h2M10 12h1M4 13h2M10 13h3" />
<path stroke="#008080" d="M0 0h1M3 4h3M2 5h1M2 6h1M2 7h1" />
<path stroke="#000000" d="M0 0h1M6 4h4M9 5h1M9 6h1M9 7h1M9 8h1M15 10h1M15 11h1M0 12h3M7 12h3M15 12h1M15 13h1M14 14h1M4 15h10" />
<path stroke="#008000" d="M0 0h1M5 5h1M4 6h1M11 12h1" />
<path stroke="#000080" d="M0 0h1M6 5h1M6 6h1M6 7h1M3 8h3" />
<path stroke="#0000ff" d="M0 0h1M5 6h1M3 7h3" />
<path stroke="#00ff00" d="M0 0h1M12 12h1" />
</svg>