<svg xmlns="http://www.w3.org/2000/svg" viewBox="0 -0.5 16 16" shape-rendering="crispEdges">
<path stroke="#808080" d="M0 0h1M5 1h4M3 2h2M9 2h2M2 3h1M1 4h1M1 5h1M0 6h1M0 7h1M0 8h1M12 8h1M14 8h1M0 9h1M13 9h1M0 10h1M13 11h1M10 12h1M13 12h1M10 13h1M12 13h1M14 13h1" />
<path stroke="#c0c0c0" d="M0 0h1M5 2h1M4 3h1M3 4h1M2 5h1M1 6h1M3 6h1M10 7h1M13 7h2M3 8h1M10 8h1M2 9h1M4 9h2M11 9h2M12 10h1M11 11h1M14 12h1" />
<path stroke="#0000ff" d="M0 0h1M6 2h1M6 3h1M6 5h2M5 6h4M4 7h1M9 7h1M9 8h1M10 9h1M2 10h2M9 10h2M1 11h1M3 11h3M8 11h1M2 12h6M3 13h2M8 13h1" />
<path stroke="#008080" d="M0 0h1M7 2h2M4 4h1M9 5h1M9 6h1M1 8h1M1 9h1M9 9h1" />
<path stroke="#ffffff" d="M0 0h1M3 3h1M5 3h1M2 4h1M3 5h1M2 6h1M4 6h1M1 7h3M11 7h2M2 8h1M4 8h1M11 8h1M3 9h1M4 10h1M12 11h1M11 12h2M11 13h1" />
<path stroke="#008000" d="M0 0h1M7 3h4M5 4h7M4 5h2M8 5h1M5 7h4M5 8h4M6 9h3M1 10h1M5 10h3M2 11h1M6 11h2" />
<path stroke="#000080" d="M0 0h1M11 3h1M8 10h1M11 10h1M9 11h2M1 12h1M8 12h2M2 13h1M5 13h3M9 13h1M3 14h6" />
<path stroke="#000000" d="M0 0h1M12 4h1M10 6h6M15 7h1M13 8h1M15 8h1M14 9h1M13 10h1M14 11h1M15 12h1M13 13h1M15 13h1M9 14h1M5 15h4M10 15h6" />
<path stroke="#ff0000" d="M0 0h1M10 5h1M13 5h2M10 14h1M13 14h2" />
<path stroke="#ff00ff" d="M0 0h1M11 5h2M11 14h2" />
<path stroke="#800000" d="M0 0h1M15 5h1M15 14h1" />
</svg>