<svg xmlns="http://www.w3.org/2000/svg" width="16" height="16" shape-rendering="crispEdges" viewBox="0 -0.5 16 16"><path stroke="gray" d="M1 1h10M1 2h1m9 0h1M1 3h1m10 0h1M1 4h1M1 5h1M1 6h1m8 0h1M1 7h1M1 8h1m4 0h1M1 9h1m2 0h1m-4 1h1m-1 1h1m-1 1h1m-1 1h1m-1 1h1"/><path stroke="#fff" d="M2 2h2m1 0h3m1 0h1M3 3h3m1 0h3m1 0h1M2 4h2M3 5h1m2 0h1m4 0h1M2 6h2m1 0h1m5 0h1M3 7h1m1 0h1m5 0h1M2 8h2m7 0h1M3 9h1m7 0h1M2 10h2m7 0h1m-9 1h2m6 0h1M2 12h2m1 0h3m1 0h3m-9 1h3m1 0h3m1 0h1"/><path stroke="#ff0" d="M4 2h1m3 0h1M2 3h1m3 0h1M4 4h1M2 5h1M2 7h1M2 9h1m-1 2h1m7 0h1m-7 1h1m3 0h1m-7 1h1m3 0h1m3 0h1"/><path stroke="silver" d="M10 2h1m-1 1h1M5 4h1m3 0h1M4 5h1m5 0h1m1 0h1M6 6h1m5 0h1M6 7h1m5 0h1M5 8h1m6 0h1m-1 1h1m-9 1h1m5 0h1m1 0h1m-8 1h1m3 0h1m2 0h1m-1 1h1m-1 1h1M2 14h11"/><path stroke="teal" d="M6 4h3M5 5h1m1 0h1m1 0h1M4 6h1m3 0h1M4 7h1M4 8h1m3 0h1"/><path stroke="#000" d="M10 4h4m-1 1h1m-1 1h1m-1 1h1m-1 1h1m-1 1h1m-5 1h1m3 0h1m-8 1h3m4 0h1m-1 1h1m-1 1h1m-1 1h1M1 15h13"/><path stroke="green" d="M8 5h1m0 1h1M7 7h1M7 8h1M7 9h1"/><path stroke="#00f" d="M7 6h1m1 1h1M9 8h1M5 9h2m1 0h1m-3 1h1"/><path stroke="navy" d="M8 7h1m1 0h1m-1 1h1M9 9h2m-6 1h1m1 0h2"/></svg>