<svg xmlns="http://www.w3.org/2000/svg" width="16" height="16" shape-rendering="crispEdges" viewBox="0 -0.5 16 16"><path stroke="gray" d="M2 0h14M2 1h1M2 2h1M2 3h13M2 4h1m11 0h1m-1 1h1m-1 1h1M0 7h1m13 0h1M0 8h1m1 0h1m1 0h1m9 0h1M1 9h1m1 0h1m10 0h1M2 10h1m11 0h1M1 11h1m1 0h1m1 0h10M0 12h1m2 0h1m-4 1h1m1 0h1m1 0h1"/><path stroke="navy" d="M3 1h1m2 0h9M3 2h1m2 0h5"/><path stroke="red" d="M4 1h1M1 5h4m-4 9h4"/><path stroke="#ff0" d="M5 1h1"/><path stroke="#000" d="M15 1h1m-4 1h1m1 0h2m-1 1h1m-1 1h1m-1 1h1M0 6h6m9 0h1M5 7h1m9 0h1M3 8h1m1 0h1m9 0h1M4 9h1m10 0h1M3 10h1m11 0h1M4 11h1m10 0h1M5 12h11M3 13h1m1 0h1m-6 2h6"/><path stroke="#0ff" d="M4 2h1"/><path stroke="#0f0" d="M5 2h1"/><path stroke="silver" d="M11 2h1m1 0h1M3 4h1M3 7h2M2 9h1m-2 3h1m2 0h1"/><path stroke="#fff" d="M4 4h10M6 5h8M6 6h8M1 7h2m3 0h8M1 8h1m4 0h8M5 9h9M4 10h10M2 11h1m-1 1h1m-2 1h1"/><path stroke="maroon" d="M0 5h1m4 0h1m-6 9h1m4 0h1"/></svg>