<svg xmlns="http://www.w3.org/2000/svg" width="32" height="32" shape-rendering="crispEdges" viewBox="0 -0.5 32 32"><path stroke="#818181" d="M12 0h8m0 1h3m-6 5h1m1 2h1m-5 1h3m-8 1h1M0 12h1m5 8h1m-1 1h1"/><path stroke="#b2b2b2" d="M9 1h3m5 0h1M7 2h2m1 0h1m3 5h1m-1 2h1m-5 3h1m-1 1h1"/><path stroke="#fff" d="M12 1h2M6 4h1m2 0h1m1 0h1M5 5h4M4 6h1m1 0h1M5 7h2m10 7h1m1 0h1m-4 1h1m1 0h1m-4 1h1m1 0h1m-2 1h2m-3 1h1m1 0h1m-2 1h1m-2 1h1m1 0h1m-2 1h1m6 3h1m0 1h1"/><path stroke="#a6caf0" d="M14 1h1m4 0h1m-9 1h1m2 0h1m2 0h1m1 0h4m-5 1h1m-4 2h2m-7 1h1m2 0h1m-3 1h1M3 8h1m3 0h2m-3 2h2m0 2h1"/><path stroke="#9cf" d="M15 1h2m-6 2h1m-2 1h1m2 0h4m-7 1h2m1 0h1m-3 1h1M4 9h3m-5 1h1m0 1h1m3 0h1m-7 1h1m1 0h1m-1 1h1m-1 1h1"/><path stroke="#cff" d="M18 1h1m-7 1h1m-3 1h1M9 5h1M3 7h2m4 0h1M4 8h2M3 9h1m4 2h1"/><path stroke="silver" d="M9 2h1M6 3h1m12 0h1m-8 6h1m0 1h1m-1 1h1m4 2h1m1 0h1m-5 1h1m-2 1h1m-2 2h1m-1 2h1m2 3h1m5 1h1m-2 1h1m1 0h1m-2 1h1"/><path stroke="#6cf" d="M13 2h1m1 0h2m-2 1h2m-5 2h1m-1 1h1M2 11h1m1 0h1m1 0h1m-5 1h1m1 0h1m-3 1h1m2 0h1"/><path stroke="#ccf" d="M18 2h1m-6 1h1m-2 1h1m1 1h1m-1 1h1M8 7h1m4 0h1M6 8h1m2 0h1m1 0h2M7 9h2m-5 1h1"/><path stroke="#666" d="M23 2h2m-1 1h2m0 1h1m-6 5h1m-10 2h1m11 3h2m-13 1h1m15 0h1m-19 2h1m12 5h1m0 1h1"/><path stroke="#e3e3e3" d="M7 3h3M5 4h1m1 0h2M4 5h1M3 6h1m1 0h1m7 3h1"/><path stroke="#80ffff" d="M12 3h1m1 0h1m2 0h1M5 10h1m2 0h1m14 6h1m-1 2h1m-2 1h1m-4 1h1m1 0h1m-4 1h1m1 0h1m-2 1h1"/><path stroke="#99c" d="M20 3h2m1 0h1M10 9h1m-2 1h1M0 13h1m8 0h1m1 1h1m-9 1h1"/><path stroke="#9cc" d="M22 3h1"/><path stroke="#99f" d="M17 4h1"/><path stroke="#999" d="M18 4h1m5 1h1M8 6h1m10 1h1m-6 1h1m5 0h1m-2 1h2m-2 1h1"/><path stroke="#996" d="M19 4h1m-2 1h1m-4 2h2m-4 5h1"/><path stroke="#093" d="M20 4h1m0 1h1m1 2h1m3 0h1m-13 4h2m3 0h1m2 0h1m3 0h1m-7 1h1m3 0h1m-12 2h1m-5 2h1m0 2h1m-2 2h1m0 1h1"/><path stroke="#993" d="M21 4h1"/><path stroke="#696" d="M22 4h1m-5 2h1m-8 3h1m3 1h4m-8 2h1m-3 3h1"/><path stroke="#a0a0a4" d="M23 4h3m-9 1h1m-8 6h1m0 2h1"/><path stroke="#393" d="M19 5h1m2 1h1m3 0h1M17 7h1m2 0h1m3 0h1m1 0h1M15 8h4m6 0h1m1 0h1m-6 1h1m1 0h1m1 0h1m1 0h1m-8 1h1m1 0h2m1 0h1m-10 1h1m4 0h1m3 0h1m-13 1h1m7 0h1m1 0h1m-13 1h2m1 0h1m-6 2h3m-1 3h1m-3 1h2m-5 1h1m4 0h1m1 2h1"/><path stroke="#808040" d="M20 5h1m2 0h1m-1 1h3m-8 3h1m-8 1h1m8 0h1m-10 1h1m0 1h1m-1 2h1m-2 2h1m-1 4h1"/><path stroke="#693" d="M22 5h1m-4 1h1m1 0h1m-1 1h1m-3 4h1M9 21h1m3 0h1"/><path stroke="#777" d="M25 5h1M9 11h1m2 5h1m-4 1h1m2 0h1"/><path stroke="#396" d="M26 5h1m-5 3h1M8 19h1m4 4h1"/><path stroke="#333" d="M27 5h1m0 1h1m0 1h1m-4 1h1m1 0h1m-4 1h1m3 0h2m-9 1h1m4 0h1m2 0h1m-7 1h1m3 0h1m-12 1h1m11 0h2m-9 1h1m1 0h1m1 0h1m1 0h1m-6 1h1m2 0h2m2 0h2m-8 1h1m6 0h1m-8 1h1m1 0h1m2 0h2m-6 1h1m2 0h1m1 0h1m-6 1h3m3 0h1m-7 1h1m2 0h3m-7 1h3m2 0h2m-7 1h1m2 0h2m-6 1h1m1 0h2M9 23h1m4 0h1m1 0h2m3 0h2m3 0h1m-16 1h1m1 0h1m4 0h3m6 0h1M3 25h1m11 0h3m1 0h2m7 0h1M4 26h1m9 0h3m2 0h1m2 0h1m6 0h1M5 27h1m11 0h2m11 0h1M6 28h1m12 0h2m1 0h3m6 0h1M7 29h2m8 0h2m2 0h1m9 0h1m-14 1h2m11 0h1m-4 1h3"/><path stroke="#cc9" d="M7 6h1m1 6h1"/><path stroke="#cfc" d="M9 6h1m11 8h1m-2 1h1m1 0h1m-4 1h1m1 0h1m-4 1h1m1 0h1m1 0h1m-4 1h1m1 0h1m-4 1h1m1 0h1"/><path stroke="#c0dcc0" d="M15 6h2M7 7h1m2 0h1m1 0h1m-3 1h1M9 9h1m-7 1h1"/><path stroke="#c99" d="M20 6h1"/><path stroke="#004040" d="M27 6h1m-3 4h1m-3 3h1m-11 9h1m-2 1h1m15 0h1M8 24h1m19 0h1M9 25h3m2 0h1m-8 1h1m1 0h3m1 0h1m-2 1h1m1 0h1m-3 1h1m1 0h4m-8 1h1m3 0h3m-3 1h1"/><path stroke="#69c" d="M2 7h1M2 8h1M1 9h2m-2 1h1m-1 1h1m-2 3h1m7 1h1m-8 1h3m-2 1h2m-2 1h1"/><path stroke="#663" d="M18 7h1m3 0h1m2 0h1m-5 1h1m2 0h1m-2 1h1m3 0h1m-10 2h1m2 0h1m3 0h1m-11 1h2m6 0h1m-10 1h1m-2 1h1m14 0h1m-19 3h1m-2 1h2m-2 1h1m2 0h1m-6 2h1m2 0h1m1 0h1m-5 1h1m2 0h1m-1 1h1m-2 1h1"/><path stroke="#330" d="M28 7h1m0 1h1m-2 2h2m-1 1h2m-5 1h3m2 0h1m-7 1h1m1 0h1m2 0h2m-3 1h1m-3 1h2m1 0h1m-4 1h2m2 0h1m-6 1h2m1 0h1m1 0h1m-4 1h3m-5 1h1m4 0h1m-5 1h2m-4 1h2m2 0h1m-3 1h2M7 23h2m6 0h1m11 0h1M9 24h1m2 0h1m1 0h4m-5 1h1m4 0h1m2 0h1m-5 1h2m1 0h2m-3 1h2m1 0h2m-6 1h1m2 0h1m-3 1h2m1 0h3m-8 1h1m2 0h3m-5 1h2"/><path stroke="#d7d7d7" d="M13 8h1m0 2h1"/><path stroke="#366" d="M23 8h1m1 7h1M9 20h1m-9 1h1m-1 1h1m5 0h1m1 0h2m1 0h1M2 23h1m3 0h1m-5 1h5m-2 1h1"/><path stroke="#9c9" d="M12 10h1"/><path stroke="#69f" d="M5 11h1m-1 1h1m-5 1h1m2 0h1m-3 1h1m1 0h1m-3 1h1"/><path stroke="#966" d="M14 11h1m-6 5h1"/><path stroke="#39f" d="M6 12h1m-1 1h1m-2 1h1"/><path stroke="#6cc" d="M7 12h1m0 1h1"/><path stroke="gray" d="M18 12h3m-5 1h2m3 0h1m-7 1h1m-2 1h1m-1 1h1m-2 1h1m-1 1h1m-1 1h1m0 1h1m-1 1h1m0 1h1m8 1h1m-4 1h1m3 0h1m-4 1h1m0 1h1"/><path stroke="#36c" d="M7 13h1m2 1h1m-4 2h1m-8 1h1m3 0h1m1 0h1m-2 1h1m-3 1h1"/><path stroke="#0ff" d="M19 13h1m-2 1h1m1 0h1m-4 1h1m1 0h1m1 0h1m-6 1h1m1 0h1m1 0h1m1 0h1m-8 1h1m3 0h1m1 0h1m-8 1h1m1 0h1m1 0h1m1 0h1m1 0h1m-8 1h1m1 0h1m1 0h1m1 0h1m-6 1h1m1 0h1m1 0h1m-4 1h1m1 0h1"/><path stroke="#633" d="M29 13h1m-5 3h1m1 3h1M8 20h1"/><path stroke="#3cc" d="M1 14h1m2 1h1"/><path stroke="#39c" d="M6 14h4M0 15h2m3 0h3m-8 1h1m3 0h3m-6 1h1m3 0h1m-3 1h2m-3 1h1"/><path stroke="teal" d="M22 14h1m0 1h1m0 2h1m-1 1h1m-1 1h1m-2 1h1m-9 1h1m6 0h2m-8 1h1m4 0h2m-5 1h3"/><path stroke="#5f5f5f" d="M26 15h1"/><path stroke="#699" d="M8 16h1m4 0h1"/><path stroke="#369" d="M7 17h2m-8 1h1m4 0h2m-8 1h2m2 0h3m-7 1h6m-4 1h4m-4 1h4m-3 1h2"/><path stroke="#0cf" d="M23 17h1m-1 2h1m-2 1h1m-2 1h1m-4 1h1m1 0h1"/><path stroke="#069" d="M0 18h1"/><path stroke="#669" d="M8 18h1m-2 1h1m-2 3h1"/><path stroke="#004080" d="M13 20h1m-9 3h1"/><path stroke="#066" d="M8 21h1m1 2h1"/><path stroke="#036" d="M30 21h1m-1 1h1m-2 1h1m-1 1h1M7 25h1m-2 1h1m1 0h1m3 0h1m-7 1h2m2 0h2m1 0h1m1 0h2M7 28h1m2 0h2m1 0h1m-3 1h3m-2 1h2m1 0h2m-5 1h6"/><path stroke="#336" d="M29 22h1M7 24h1m-4 1h1m1 0h1m1 0h1m-4 1h1m2 1h2m11 0h1M8 28h2m-1 1h1m-1 1h3"/><path stroke="maroon" d="M26 24h1m0 1h1m0 1h1m0 1h1m0 1h1m-1 1h1m-1 1h1"/><path stroke="#033" d="M12 25h1"/><path stroke="#c00" d="M25 25h1m-2 1h1m1 0h1m-2 1h1m1 0h1m-2 1h1m1 0h1m-2 1h1m1 0h1m-2 1h2"/><path stroke="#900" d="M26 25h1m0 1h1m-4 1h1m3 0h1m-4 1h1m3 0h1m-4 1h1m0 1h1"/><path stroke="#f99" d="M25 26h1m0 1h1m0 1h1m0 1h1"/></svg>