<svg xmlns="http://www.w3.org/2000/svg" viewBox="0 -0.5 16 16" shape-rendering="crispEdges">
<path stroke="#808080" d="M0 0h1M5 0h3M3 1h2M8 1h2M2 2h1M1 3h1M9 3h1M1 4h1M0 5h1M0 6h1M0 7h1M1 8h1M1 9h1M2 10h1M3 11h1" />
<path stroke="#c0c0c0" d="M0 0h1M5 1h1M4 2h1M3 3h1M6 3h1M2 4h1M6 4h1M1 5h1M3 5h1M6 5h1M2 6h1M6 6h1M9 6h1M5 7h2M9 7h1M6 8h1M9 8h1M6 9h1M9 9h1M6 10h1M9 10h1M6 11h1M9 11h1M6 12h1M9 12h1M6 13h1M9 13h1M6 14h1M9 14h1" />
<path stroke="#ffffff" d="M0 0h1M6 1h1M3 2h1M5 2h1M9 2h1M2 3h1M3 4h1M9 4h1M2 5h1M12 6h1M12 7h1M12 8h1" />
<path stroke="#000000" d="M0 0h1M7 1h1M6 2h2M7 3h1M7 4h1M10 4h1M13 4h1M7 5h1M9 5h2M7 6h1M10 6h1M15 6h1M7 7h1M10 7h1M15 7h1M7 8h2M10 8h1M15 8h1M7 9h1M10 9h1M12 9h2M15 9h1M7 10h1M10 10h2M14 10h2M4 11h1M7 11h1M10 11h2M5 12h1M7 12h1M10 12h1M7 13h1M10 13h1M7 14h1M10 14h1" />
<path stroke="#008000" d="M0 0h1M8 2h1M5 3h1M4 4h1M5 5h1M1 7h1M2 8h1" />
<path stroke="#800000" d="M0 0h1M10 2h2M8 3h1M12 3h2" />
<path stroke="#008080" d="M0 0h1M4 3h1M1 6h1M4 6h2M2 9h1" />
<path stroke="#ff00ff" d="M0 0h1M10 3h1" />
<path stroke="#ff0000" d="M0 0h1M11 3h1M8 4h1M11 4h2M8 5h1M11 5h1M8 6h1M8 7h1" />
<path stroke="#0000ff" d="M0 0h1M5 4h1M4 5h1M3 6h1M2 7h3M3 8h3M3 9h3M3 10h2" />
<path stroke="#808000" d="M0 0h1M12 5h2M11 6h1M14 6h1M14 7h1M14 8h1M14 9h1" />
<path stroke="#ffff00" d="M0 0h1M13 6h1M11 7h1M13 7h1M11 8h1M13 8h1M11 9h1" />
<path stroke="#000080" d="M0 0h1M5 10h1M5 11h1" />
</svg>