<svg xmlns="http://www.w3.org/2000/svg" width="32" height="32" shape-rendering="crispEdges" viewBox="0 -0.5 32 32"><path stroke="#000" d="M6 0h18M6 1h1m16 0h2M6 2h1m16 0h1m1 0h1M6 3h1m16 0h1m2 0h1M6 4h1m16 0h1m3 0h1M6 5h1m16 0h1m4 0h1M5 6h6m12 0h1m5 0h1M3 7h2m6 0h2m10 0h8M2 8h1m2 0h1m7 0h7m10 0h1M1 9h1m3 0h1m8 0h1m15 0h1M1 10h1m3 0h1m8 0h1m15 0h1M0 11h1m4 0h1m9 0h1m14 0h1M0 12h1m4 0h1m9 0h10m5 0h1M0 13h1m4 0h1m3 0h5m1 0h1m14 0h1M0 14h1m4 0h1m9 0h10m5 0h1M0 15h1m4 0h1m3 0h5m1 0h1m14 0h1M1 16h1m3 0h1m8 0h11m5 0h1M1 17h1m3 0h1m3 0h3m2 0h1m15 0h1M2 18h1m2 0h1m7 0h1m1 0h10m5 0h1M3 19h2m6 0h2m3 0h1m13 0h1M5 20h7m4 0h9m5 0h1M6 21h1m5 0h1m2 0h1m2 0h1m11 0h1M6 22h1m3 0h5m4 0h6m5 0h1M6 23h1m7 0h1m5 0h1m9 0h1M6 24h1m3 0h6m5 0h4m5 0h1M6 25h1m9 0h1m5 0h1m7 0h1M6 26h1m10 0h1m5 0h1m6 0h1M6 27h1m11 0h1m5 0h1m5 0h1M6 28h1m12 0h1m5 0h1m4 0h1M6 29h15m4 0h6m-10 1h1m3 0h1m-4 1h3"/><path stroke="#fff" d="M7 1h16M7 2h16m1 0h1M7 3h16m1 0h2M7 4h16m1 0h3M7 5h16m1 0h4M11 6h12m1 0h5M5 7h6m2 0h10M3 8h2m1 0h7m7 0h10M2 9h3m1 0h8m1 0h15M2 10h3m1 0h8m1 0h15M1 11h4m1 0h9m1 0h14M1 12h4m1 0h9m10 0h5M1 13h4m1 0h3m5 0h1m1 0h14M1 14h4m1 0h9m10 0h5M1 15h4m1 0h3m5 0h1m1 0h14M2 16h3m1 0h8m11 0h5M2 17h3m1 0h3m3 0h2m1 0h15M3 18h2m1 0h7m1 0h1m10 0h5M5 19h6m2 0h3m1 0h13m-18 1h4m9 0h5M7 21h5m1 0h2m1 0h2m1 0h11M7 22h3m5 0h4m6 0h5M7 23h7m1 0h5m1 0h9M7 24h3m6 0h5m4 0h5M7 25h9m1 0h5m1 0h7M7 26h10m1 0h5m1 0h6M7 27h11m1 0h5m1 0h5M7 28h12m1 0h5m1 0h4m-9 1h4m-3 1h3"/></svg>