<svg xmlns="http://www.w3.org/2000/svg" viewBox="0 -0.5 16 16" shape-rendering="crispEdges">
<path stroke="#808080" d="M0 0h1M4 0h4M2 1h2M8 1h4M1 2h1M10 2h1M12 2h1M1 3h1M3 3h2M1 4h1M6 4h1M9 4h1M11 4h2M1 5h1M8 5h2M11 5h2M1 6h1M8 6h2M11 6h2M1 7h1M8 7h2M11 7h1M1 8h1M8 8h2M0 9h1M8 9h2M11 9h1M0 10h1M8 10h1M11 10h1M0 11h1M9 11h1M12 11h1M10 12h3M8 13h4M8 14h2" />
<path stroke="#c0c0c0" d="M0 0h1M4 1h4M2 2h1M5 2h5M11 2h1M2 3h1M7 3h3M11 3h2M2 4h1M8 4h1M2 5h1M7 5h1M2 6h1M7 6h1M2 7h1M7 7h1M3 8h2M7 8h1M2 9h1M5 9h3M1 10h1M4 10h1M7 10h1M12 10h1M1 11h3M6 11h1M10 11h2M3 12h3M8 12h2M5 13h3M7 14h1" />
<path stroke="#ffffff" d="M0 0h1M3 2h2M5 3h2M7 4h1M1 9h1M2 10h2M4 11h2M6 12h2" />
<path stroke="#000000" d="M0 0h1M10 3h1M13 3h1M10 4h1M13 4h1M10 5h1M13 5h1M10 6h1M13 6h1M10 7h1M12 7h1M2 8h1M10 8h2M3 9h2M10 9h1M12 9h1M5 10h2M9 10h2M13 10h1M7 11h2M13 11h1M1 12h2M13 12h1M3 13h2M12 13h2M5 14h2M10 14h2M7 15h3" />
<path stroke="#0000ff" d="M0 0h1M3 4h1M3 5h1M5 5h1M3 6h2M6 6h1M3 7h4M5 8h2" />
<path stroke="#000080" d="M0 0h1M4 4h2M6 5h1" />
<path stroke="#00ffff" d="M0 0h1M4 5h1M5 6h1" />
</svg>