<svg xmlns="http://www.w3.org/2000/svg" width="32" height="32" shape-rendering="crispEdges" viewBox="0 -0.5 32 32"><path stroke="gray" d="M9 0h8M8 1h1m7 0h1M8 2h1m1 0h5m1 0h1M8 3h1m1 0h1m5 0h1M8 4h1m1 0h1m5 0h1M8 5h1m1 0h1m5 0h1M8 6h1m7 0h1M8 7h8M7 8h1M7 9h1m-1 1h11M3 19h5m-6 1h1m5 0h1m-8 1h1m7 0h6M1 22h1m12 0h1M1 23h1m12 0h1M0 24h13m1 0h1M0 25h1m10 0h1m2 0h1M0 26h1m12 0h2M1 27h1m10 0h1m1 0h1M1 28h1m12 0h1M2 29h1m10 0h1M2 30h12"/><path stroke="olive" d="M22 0h2m-3 1h1m2 0h3m-9 1h2m1 0h1m2 0h1m-8 1h1m9 0h3M17 4h1m9 0h3M18 5h1m2 0h2m4 0h1M17 6h2m1 0h1m1 0h2m-8 1h1m3 0h1m2 0h1m4 0h3M16 8h1m3 0h1m2 0h1m4 0h3M20 9h1m1 0h2m-3 1h2m4 0h1m-11 1h1m9 0h3m-13 1h1m9 0h3m-6 1h1m-1 1h3"/><path stroke="#000" d="M24 0h3M17 1h1m9 0h1M17 2h1m2 0h1m4 0h5M20 3h2m2 0h1m5 0h1m-1 1h1M17 5h1m5 0h1m2 0h1m1 0h2m-6 1h1m1 0h5M21 7h1m2 0h1m6 0h1M21 8h1m2 0h1m6 0h1M13 9h3m1 0h2m5 0h1m1 0h5m-13 1h1m4 0h1m2 0h1m1 0h2M8 11h9m13 0h1m-11 1h2m2 0h1m5 0h1m-13 1h4m3 0h5m-9 1h1m5 0h1m-6 1h5m-12 7h1m-1 1h1m-1 1h1m-4 1h1m2 0h1m-4 1h1m2 0h1m-3 1h1m1 0h1m-3 1h1m1 0h1m-2 1h2m-2 1h2M3 31h13"/><path stroke="silver" d="M9 1h7M9 2h1m5 0h1M9 3h1m5 0h1M9 4h1m5 0h1M9 5h1m5 0h1M9 6h7M9 9h4m3 0h1M3 21h1m1 0h1m1 0h1m-4 1h1m1 0h1m1 0h1m-6 1h1m1 0h1m1 0h1m1 0h1m1 0h1m1 0h1m-1 2h1M2 26h1m1 0h1m1 0h1m1 0h1m1 0h1m-8 1h1m1 0h1m1 0h1m1 0h1m1 0h1m-8 1h1m1 0h1m1 0h1m1 0h1m1 0h1m-8 1h1m1 0h1m1 0h1m1 0h1"/><path stroke="#fff" d="M22 1h1m0 1h1m-6 1h1m3 0h1m2 0h1m-7 1h1m1 0h1m1 0h1m2 0h1m-7 1h1m4 0h1m-7 1h1m1 0h1m-4 1h1m3 0h1m2 0h1m1 0h1M8 8h8m1 0h1m1 0h1m6 0h1M8 9h1m16 0h1m-7 1h1m-2 1h1m1 0h1m1 0h1m2 0h1m-7 1h1m3 0h1m2 0h1m-5 1h1m0 1h1M3 20h5m-6 1h1m5 0h1m-7 1h1m6 0h5M2 23h1m-2 2h10M1 26h1m0 1h1m-1 1h1m0 1h1"/><path stroke="#ff0" d="M23 1h1m-2 1h1m-4 1h1m3 0h1m2 0h1m-9 1h1m1 0h1m1 0h1m1 0h2m-7 1h1m4 0h1m0 1h1m-9 1h1m1 0h1m6 0h1m-9 1h1m3 0h1m2 0h1m1 0h1m-9 1h1m1 0h1m-2 1h1m3 0h2m-7 1h1m1 0h1m1 0h2m1 0h1m-9 1h1m3 0h1m2 0h1m-3 1h1m-2 1h1M4 21h1m1 0h1m-4 1h1m1 0h1m1 0h1m-4 1h1m1 0h1m1 0h1m1 0h1m1 0h1m0 1h1M3 26h1m1 0h1m1 0h1m1 0h1m1 0h1m-8 1h1m1 0h1m1 0h1m1 0h1m-8 1h1m1 0h1m1 0h1m1 0h1m1 0h1m-8 1h1m1 0h1m1 0h1m1 0h1m1 0h1"/><path stroke="#0ff" d="M11 3h4m-4 1h4m-4 1h4"/><path stroke="red" d="M14 13h1m-2 1h1m-1 1h1m-2 1h1m-1 1h1m-3 1h5m-4 1h3m-2 1h1"/></svg>