<svg xmlns="http://www.w3.org/2000/svg" viewBox="0 -0.5 16 16" shape-rendering="crispEdges">
<path stroke="#808080" d="M0 0h1M2 0h14M2 1h1M2 2h1M2 3h13M2 4h1M14 4h1M14 5h1M14 6h1M0 7h1M14 7h1M0 8h1M2 8h1M4 8h1M14 8h1M1 9h1M3 9h1M14 9h1M2 10h1M14 10h1M1 11h1M3 11h1M5 11h10M0 12h1M3 12h1M0 13h1M2 13h1M4 13h1" />
<path stroke="#000080" d="M0 0h1M3 1h1M6 1h9M3 2h1M6 2h5" />
<path stroke="#ff0000" d="M0 0h1M4 1h1M1 5h4M1 14h4" />
<path stroke="#ffff00" d="M0 0h1M5 1h1" />
<path stroke="#000000" d="M0 0h1M15 1h1M12 2h1M14 2h2M15 3h1M15 4h1M15 5h1M0 6h6M15 6h1M5 7h1M15 7h1M3 8h1M5 8h1M15 8h1M4 9h1M15 9h1M3 10h1M15 10h1M4 11h1M15 11h1M5 12h11M3 13h1M5 13h1M0 15h6" />
<path stroke="#00ffff" d="M0 0h1M4 2h1" />
<path stroke="#00ff00" d="M0 0h1M5 2h1" />
<path stroke="#c0c0c0" d="M0 0h1M11 2h1M13 2h1M3 4h1M3 7h2M2 9h1M1 12h1M4 12h1" />
<path stroke="#ffffff" d="M0 0h1M4 4h10M6 5h8M6 6h8M1 7h2M6 7h8M1 8h1M6 8h8M5 9h9M4 10h10M2 11h1M2 12h1M1 13h1" />
<path stroke="#800000" d="M0 0h1M0 5h1M5 5h1M0 14h1M5 14h1" />
</svg>