<svg xmlns="http://www.w3.org/2000/svg" viewBox="0 -0.5 16 16" shape-rendering="crispEdges">
<path stroke="#000000" d="M0 0h1M2 0h1M4 0h1M6 0h1M8 0h1M10 0h1M1 1h1M11 1h1M2 2h1M4 2h1M6 2h1M8 2h1M10 2h1M12 2h1M12 3h1M12 4h1M3 5h3M7 5h2M12 5h1M12 6h1M3 7h6M12 7h1M12 8h1M3 9h6M12 9h1M12 10h1M3 11h6M12 11h1M12 12h1M12 13h1M12 14h1M1 15h11" />
<path stroke="#ffffff" d="M0 0h1M2 1h1M4 1h1M6 1h1M8 1h1M10 1h1M1 2h1M3 2h1M5 2h1M7 2h1M9 2h1M11 2h1M1 3h10M1 4h10M1 5h2M6 5h1M9 5h2M1 6h10M1 7h2M9 7h2M1 8h10M1 9h2M9 9h2M1 10h10M1 11h2M9 11h2M1 12h10M1 13h10" />
<path stroke="#808080" d="M0 0h1M3 1h1M5 1h1M7 1h1M9 1h1M0 2h1M0 3h1M0 4h1M0 5h1M0 6h1M0 7h1M0 8h1M0 9h1M0 10h1M0 11h1M0 12h1M0 13h1M0 14h1" />
<path stroke="#c0c0c0" d="M0 0h1M11 3h1M11 4h1M11 5h1M11 6h1M11 7h1M11 8h1M11 9h1M11 10h1M11 11h1M11 12h1M11 13h1M1 14h11" />
</svg>