<svg xmlns="http://www.w3.org/2000/svg" width="32" height="32" shape-rendering="crispEdges" viewBox="0 -0.5 32 32"><path stroke="gray" d="M24 0h1m-1 1h1m-1 1h1m-1 1h1m-1 1h1m-1 1h1m-1 1h1m-1 1h1m-1 1h1m-9 1h6m7 0h3m-17 1h1m-1 1h1m-1 1h1m-1 1h1m-1 1h1m-1 1h1m-1 1h1m-1 1h1m-1 1h1m-1 1h1m-1 1h1M0 21h5m7 0h4m-9 4h1m-1 1h1m-1 1h1m-1 1h1m-1 1h1m-1 1h1m-1 1h1"/><path stroke="#fff" d="M25 0h1m-1 1h1m-1 1h1m-1 1h1m-1 1h1m-1 1h1m-1 1h1m-1 1h1m-1 1h1m-10 2h6m2 0h1m4 0h3m-16 1h1m7 0h1m-9 1h1m-1 1h1m-1 1h1m-1 1h1m-1 1h1m-1 1h1m-1 1h1m-1 1h1m-1 1h1m-1 1h1M0 22h5m2 0h1m4 0h5M7 23h1m0 2h1m-1 1h1m-1 1h1m-1 1h1m-1 1h1m-1 1h1m-1 1h1"/><path stroke="#000" d="M26 0h1m-1 1h1m-1 1h1m-1 1h1m-1 1h1m-1 1h1m-1 1h1m-1 1h1m-1 1h1m1 1h1m-1 1h1m-12 1h5m6 0h4m-15 1h1m4 0h7m-12 1h1m-1 1h1m-1 1h1m-1 1h1m-1 1h1m-1 1h1m-1 1h1m-1 1h1m-7 1h1m5 0h1m-7 1h1m5 0h1M0 23h5m6 0h6M5 24h7m-3 1h1m-1 1h1m-1 1h1m-1 1h1m-1 1h1m-1 1h1m-1 1h1"/><path stroke="olive" d="M22 9h6m-6 1h1m3 0h2m-6 1h1m3 0h2M5 21h6m-6 1h1m3 0h2m-6 1h1m3 0h2"/><path stroke="#ff0" d="M23 10h1m1 0h1m-3 1h1m1 0h1M6 22h1m1 0h1m-3 1h1m1 0h1"/></svg>