<svg xmlns="http://www.w3.org/2000/svg" width="16" height="16" shape-rendering="crispEdges" viewBox="0 -0.5 16 16"><path stroke="gray" d="M2 4h13M1 5h1m12 0h1M0 6h1m12 0h2M0 7h1m12 0h2M0 8h1m3 0h1m6 0h1m1 0h2M0 9h1m12 0h2M0 10h1m12 0h2M0 11h1m12 0h2M0 12h1m1 0h12"/><path stroke="silver" d="M2 5h12M2 7h11M3 8h1m8 0h1M2 9h2m8 0h1M2 10h3m6 0h2M2 11h11"/><path stroke="#000" d="M15 5h1m-1 1h1m-1 1h1M5 8h6m4 0h1M5 9h6m4 0h1m-1 1h1m-1 1h1m-2 1h1M1 13h13"/><path stroke="#fff" d="M1 6h12M1 7h1M1 8h1M1 9h1m2 0h1m6 0h1M1 10h1m3 0h6M1 11h1m-1 1h1"/><path stroke="red" d="M2 8h1"/></svg>