<svg xmlns="http://www.w3.org/2000/svg" width="32" height="32" shape-rendering="crispEdges" viewBox="0 -0.5 32 32"><path stroke="gray" d="M19 1h3m-4 1h1m3 0h2m-7 1h1m6 0h2M16 4h1m9 0h2M15 5h1m-2 1h1m-3 1h3m-5 1h2m1 0h1M8 9h2m3 0h1m-8 1h2m3 0h2m9 0h3M4 11h2m3 0h3m10 0h1m2 0h2M2 12h2m3 0h4m12 0h2m2 0h1M0 13h2m3 0h2m2 0h2m10 0h2m2 0h3M0 14h1m2 0h2m6 0h2m6 0h2m2 0h5m1 0h1M0 15h1m2 0h1m9 0h2m2 0h2m2 0h7m2 0h2M0 16h1m2 0h1m11 0h2m2 0h9m2 0h1M0 17h1m2 0h1m9 0h2m2 0h11m1 0h1M0 18h1m2 0h1m7 0h2m2 0h13M0 19h1m2 0h1m7 0h1m1 0h14M0 20h2m1 0h1m7 0h1m1 0h12M1 21h3m7 0h1m1 0h10m2 0h2M1 22h1m2 0h2m5 0h1m1 0h8m2 0h4M6 23h2m3 0h1m1 0h6m2 0h4M8 24h2m1 0h1m1 0h4m2 0h4m-13 1h2m1 0h2m2 0h4m-9 1h1m2 0h4m-6 1h4m-4 1h2"/><path stroke="#fff" d="M19 2h3m-4 1h6m-7 1h2m2 0h5M16 5h5m2 0h2M15 6h2m2 0h5m-9 1h4m2 0h2M12 8h1m1 0h2m2 0h4M10 9h1m3 0h4m2 0h1M8 10h1m4 0h2m2 0h4M6 11h1m7 0h3m2 0h1M4 12h1m11 0h4M2 13h1m15 0h1M1 14h2m-2 1h1m2 0h2m-5 1h1m4 0h2m-7 1h1m6 0h2m-9 1h1m8 0h1M1 19h1m10 0h1"/><path stroke="#00f" d="M19 4h2m0 1h2m-6 1h2m0 1h2m-5 1h2m0 1h2m-5 1h2m0 1h2"/><path stroke="silver" d="M25 5h1m-2 1h1m-2 1h1m-2 1h1M11 9h2m8 0h1M9 10h2m-4 1h2m11 0h1m2 0h2M5 12h2m4 0h3m7 0h2m2 0h2M3 13h2m2 0h2m2 0h5m3 0h1m3 0h2M5 14h2m2 0h2m2 0h5m3 0h2M2 15h1m3 0h3m2 0h2m2 0h2m2 0h2m8 0h1M2 16h1m1 0h2m2 0h7m2 0h2m10 0h1M2 17h1m1 0h4m2 0h3m2 0h2M2 18h1m1 0h6m3 0h2M2 19h1m1 0h7m-9 1h1m1 0h7m1 0h1m-9 1h7m1 0h1M2 22h2m2 0h5m1 0h1M2 23h4m2 0h3m1 0h1m-9 1h4m2 0h1m1 0h1m-7 1h4m2 0h1m-5 1h4m-2 1h3m-1 1h1"/><path stroke="#000" d="M26 5h2m-3 1h1m-2 1h1m-2 1h1m-2 1h1m-2 1h1m-10 1h2m7 0h1m-8 1h2m4 0h1m7 0h1m-13 1h2m2 0h1m7 0h1m-11 1h1m9 0h1m-1 1h1m-1 1h1m2 0h1m-4 1h1m1 0h1m-3 1h2m-3 1h2m-4 1h3m-5 1h2m2 0h1m-7 1h2m4 0h1M1 23h1m17 0h2m4 0h2M2 24h2m13 0h2m4 0h2M4 25h2m9 0h2m4 0h2M6 26h2m5 0h2m4 0h2M8 27h2m7 0h2m-9 1h2m3 0h2m-5 1h3"/><path stroke="#0f0" d="M7 14h2"/><path stroke="red" d="M9 15h2"/></svg>