<svg xmlns="http://www.w3.org/2000/svg" width="16" height="16" shape-rendering="crispEdges" viewBox="0 -0.5 16 16"><path stroke="gray" d="M2 0h5M1 1h1m5 0h1M0 2h1m7 0h5M0 3h1m11 0h1M0 4h1M0 5h1M0 6h1M0 7h1M0 8h1M0 9h1m-1 1h9m3 0h1"/><path stroke="silver" d="M2 1h1m1 0h1m1 0h1M1 2h1m1 0h1m1 0h1m1 0h1M3 4h1m1 0h1m1 0h1m1 0h1m1 0h1M2 5h1m1 0h1m1 0h1m1 0h1m1 0h1M3 6h1m1 0h1m1 0h1m1 0h1M2 7h1m1 0h1m1 0h1m1 0h1m1 0h1M3 8h1m1 0h1m1 0h1m1 0h1M2 9h1m1 0h1m1 0h1m1 0h1m0 3h1"/><path stroke="#ff0" d="M3 1h1m1 0h1M2 2h1m1 0h1m1 0h1M2 4h1m1 0h1m1 0h1m1 0h1m1 0h1M3 5h1m1 0h1m1 0h1m1 0h1m1 0h1M2 6h1m1 0h1m1 0h1m1 0h1m1 0h1M3 7h1m1 0h1m1 0h1m1 0h1M2 8h1m1 0h1m1 0h1m1 0h1M3 9h1m1 0h1m1 0h1m1 0h1"/><path stroke="#fff" d="M1 3h11M1 4h1M1 5h1M1 6h1M1 7h1M1 8h1M1 9h1m-1 5h1m1 0h1m1 0h1m1 0h1"/><path stroke="maroon" d="M13 3h1m0 1h1"/><path stroke="teal" d="M12 4h1m-1 1h2m-3 1h1m-1 1h1m-2 1h1m-1 1h1m-2 1h1m-1 1h1"/><path stroke="red" d="M13 4h1"/><path stroke="#000" d="M14 5h1m-2 1h1m-1 1h1m-2 1h2m-2 1h2m-3 1h1m1 0h1M1 11h8m2 0h3m-4 1h1m-2 1h1m3 0h1m-1 1h1M0 15h14"/><path stroke="#0ff" d="M12 6h1m-1 1h1m-2 1h1m-1 1h1m-2 1h1m-1 1h1"/><path stroke="#00f" d="M0 13h9m1 0h3M0 14h1m1 0h1m1 0h1m1 0h1m1 0h5"/></svg>