<svg xmlns="http://www.w3.org/2000/svg" width="32" height="32" shape-rendering="crispEdges" viewBox="0 -0.5 32 32"><path stroke="gray" d="M9 4h4M7 5h2m4 0h2M5 6h2m8 0h7M4 7h1m12 0h2m3 0h2M4 8h1m14 0h2m3 0h2M4 9h1m3 0h2m11 0h2m3 0h1M4 10h1m5 0h2m13 0h2M4 11h1m7 0h2m7 0h2m1 0h3M4 12h1m9 0h2m3 0h4m1 0h3M4 13h1m11 0h1m2 0h4m1 0h3M4 14h1m14 0h4m1 0h3M4 15h1m14 0h4m1 0h3M4 16h1m14 0h4m1 0h3M4 17h1m14 0h4m1 0h3M4 18h1m14 0h4m1 0h3M4 19h2m13 0h4m1 0h3M4 20h1m1 0h2m11 0h4m1 0h2M8 21h2m9 0h4m1 0h1m-15 1h2m7 0h4m-11 1h2m5 0h4m-9 1h2m3 0h4m-7 1h2m1 0h4m-5 1h3"/><path stroke="silver" d="M9 5h4M8 6h7m-5 1h7m2 0h3M6 8h4m2 0h7m2 0h3M6 9h1m3 0h2m2 0h7m2 0h3M6 10h1m5 0h2m2 0h7m1 0h1M6 11h1m7 0h2m2 0h3M6 12h1m9 0h2M6 13h1m5 0h1m4 0h2M6 14h1m5 0h1m4 0h2M6 15h1m10 0h2M6 16h1m10 0h2M6 17h1m10 0h2M6 18h1m10 0h2M6 19h3m8 0h2M8 20h3m6 0h2m-9 1h3m4 0h2m-7 1h3m2 0h2m-5 1h5m-3 1h3m-1 1h1"/><path stroke="#fff" d="M7 6h1M5 7h5M5 8h1m4 0h2M5 9h1m6 0h2m-9 1h1m8 0h2M5 11h1m10 0h2M5 12h1m12 0h1M5 13h1m-1 1h1m-1 1h1m-1 1h1m-1 1h1m-1 1h1"/><path stroke="#000" d="M7 9h1m-1 1h1m15 0h1m3 0h1M7 11h1m15 0h1m3 0h1M7 12h1m15 0h1m3 0h1M7 13h1m15 0h1m3 0h1M7 14h1m15 0h1m3 0h1M7 15h1m15 0h1m3 0h1M7 16h1m15 0h1m3 0h1M7 17h1m15 0h1m3 0h1m-5 1h1m3 0h1m-5 1h1m3 0h1M5 20h1m17 0h1m2 0h1M6 21h2m15 0h1m1 0h1M8 22h2m13 0h2m-15 1h2m11 0h1m-12 1h2m9 0h1m-10 1h2m7 0h1m-8 1h2m3 0h2m-5 1h3"/><path stroke="navy" d="M8 10h2m0 1h2m0 1h2m0 1h2m0 1h1m-1 1h1m-1 1h1m-1 1h1M7 18h2m7 0h1m-8 1h2m5 0h1m-6 1h2m3 0h1m-4 1h2m1 0h1m-2 1h2"/><path stroke="#00f" d="M8 11h2m-2 1h4m-4 1h3m-3 1h2m3 0h3m-8 1h2m3 0h3m-8 1h2m3 0h3m-8 1h2m3 0h3m-7 1h2m3 0h2m-5 1h5m-3 1h3m-1 1h1"/><path stroke="olive" d="M11 13h1m-2 1h1m1 1h1m-1 1h1m-3 1h1m0 1h1"/><path stroke="#ff0" d="M13 13h1m-3 1h1m-2 1h2m-2 1h2m-1 1h2m-1 1h2"/></svg>