<svg xmlns="http://www.w3.org/2000/svg" viewBox="0 -0.5 32 32" shape-rendering="crispEdges">
<path stroke="#808080" d="M0 0h1M4 0h8M3 1h1M12 1h1M2 2h1M13 2h1M1 3h1M14 3h1M0 4h1M15 4h12M0 5h1M0 6h1M0 7h1M8 7h18M0 8h1M8 8h1M25 8h1M0 9h1M8 9h1M25 9h2M0 10h1M8 10h1M25 10h1M27 10h1M0 11h1M8 11h1M25 11h1M28 11h1M0 12h1M8 12h1M25 12h1M29 12h1M0 13h1M8 13h1M25 13h1M0 14h1M8 14h1M0 15h1M8 15h1M0 16h1M8 16h1M0 17h1M8 17h1M0 18h1M0 20h1M16 20h1M22 20h1M24 20h1M28 20h1M30 20h2M14 21h2M18 21h4M25 21h3M29 21h1M0 22h1M16 22h1M18 22h1M22 22h1M26 22h1M30 22h1M15 23h1M19 23h1M21 23h1M25 23h1M27 23h1M31 23h1M16 24h1M18 24h1M20 24h1M22 24h1M24 24h1M26 24h1M28 24h1M31 24h1M15 25h1M17 25h1M19 25h1M21 25h1M23 25h1M27 25h1M29 25h1M16 26h1M18 26h1M22 26h1M26 26h1M30 26h2M15 27h1M17 27h1M19 27h1M21 27h1M25 27h1M29 27h1M16 28h1M22 28h1M24 28h1M31 28h1M14 29h1M17 29h1M20 29h1M26 29h1M28 29h1M30 29h1M8 31h1M12 31h1M16 31h1M19 31h1M22 31h1M26 31h1M30 31h1" />
<path stroke="#ffffff" d="M0 0h1M4 1h8M3 2h1M2 3h1M1 5h26M1 6h1M1 7h1M1 8h1M9 8h16M1 9h1M9 9h16M1 10h1M9 10h16M1 11h1M9 11h16M26 11h1M1 12h1M9 12h16M26 12h2M1 13h1M9 13h3M20 13h5M1 14h1M9 14h21M1 15h1M9 15h3M28 15h2M1 16h1M9 16h21M1 17h1M9 17h3M28 17h2M1 18h1M11 18h19M1 19h1M28 19h2M8 20h2M14 20h2M17 20h5M23 20h1M25 20h1M27 20h1M29 20h1M1 21h1M8 21h2M22 21h1M24 21h1M28 21h1M30 21h1M8 22h2M15 22h1M17 22h1M19 22h1M21 22h1M23 22h1M25 22h1M27 22h3M8 23h2M16 23h1M18 23h1M20 23h1M22 23h1M24 23h1M26 23h1M28 23h1M30 23h1M8 24h2M15 24h1M17 24h1M19 24h1M21 24h1M23 24h1M25 24h1M27 24h1M16 25h1M18 25h1M22 25h1M24 25h1M26 25h1M30 25h1M8 26h2M15 26h1M17 26h1M20 26h1M25 26h1M28 26h1M8 27h2M16 27h1M22 27h1M26 28h1M30 28h1M12 29h1" />
<path stroke="#ffff00" d="M0 0h1M4 2h1M6 2h1M8 2h1M10 2h1M12 2h1M3 3h1M5 3h1M7 3h1M9 3h1M11 3h1M13 3h1M2 6h1M4 6h1M6 6h1M8 6h1M10 6h1M12 6h1M14 6h1M16 6h1M18 6h1M20 6h1M22 6h1M24 6h1M26 6h1M3 7h1M5 7h1M7 7h1M2 8h1M4 8h1M6 8h1M3 9h1M5 9h1M7 9h1M2 10h1M4 10h1M6 10h1M3 11h1M5 11h1M7 11h1M2 12h1M4 12h1M6 12h1M3 13h1M5 13h1M7 13h1M2 14h1M4 14h1M6 14h1M3 15h1M5 15h1M7 15h1M2 16h1M4 16h1M6 16h1M3 17h1M5 17h1M7 17h1M2 18h1M6 18h1M3 19h1M2 20h1M2 22h1M1 24h1" />
<path stroke="#c0c0c0" d="M0 0h1M5 2h1M7 2h1M9 2h1M11 2h1M4 3h1M6 3h1M8 3h1M10 3h1M12 3h1M1 4h14M3 6h1M5 6h1M7 6h1M9 6h1M11 6h1M13 6h1M15 6h1M17 6h1M19 6h1M21 6h1M23 6h1M25 6h1M2 7h1M4 7h1M6 7h1M26 7h1M3 8h1M5 8h1M7 8h1M2 9h1M4 9h1M6 9h1M3 10h1M5 10h1M7 10h1M26 10h1M2 11h1M4 11h1M6 11h1M27 11h1M3 12h1M5 12h1M7 12h1M28 12h1M2 13h1M4 13h1M6 13h1M3 14h1M5 14h1M7 14h1M30 14h1M2 15h1M4 15h1M6 15h1M30 15h1M3 16h1M5 16h1M7 16h1M30 16h1M2 17h1M4 17h1M6 17h1M30 17h1M3 18h1M5 18h1M30 18h1M2 19h1M4 19h1M30 19h1M1 20h1M26 20h1M3 21h1M16 21h2M23 21h1M20 22h1M24 22h1M17 23h1M23 23h1M29 23h1M29 24h2M20 25h1M25 25h1M28 25h1M19 26h1M21 26h1M29 26h1" />
<path stroke="#000000" d="M0 0h1M27 4h1M27 5h2M28 6h1M28 7h1M26 8h1M28 8h1M27 9h2M28 10h1M29 11h1M30 12h1M26 13h6M31 14h1M31 15h1M31 16h1M31 17h1M31 18h1M31 19h1M31 21h1" />
<path stroke="#808000" d="M0 0h1M27 6h1M27 7h1M27 8h1" />
<path stroke="#0000ff" d="M0 0h1M12 13h8M12 15h16M12 17h16M13 19h15" />
<path stroke="#ff0000" d="M0 0h1M7 18h4M5 19h8M4 20h4M10 20h4M4 21h4M10 21h4M3 22h5M10 22h5M3 23h5M10 23h5M3 24h5M10 24h5M3 25h12M4 26h4M10 26h4M4 27h4M10 27h4M5 28h8M7 29h4" />
</svg>