<svg xmlns="http://www.w3.org/2000/svg" width="16" height="16" shape-rendering="crispEdges" viewBox="0 -0.5 16 16"><path stroke="olive" d="M3 0h2M3 1h1m1 0h2M4 2h2m1 0h2M6 3h2M7 4h1M7 5h1M7 6h1"/><path stroke="purple" d="M11 0h1m0 1h1m0 1h1m0 1h1M9 7h2M8 8h1m2 0h1M9 9h2m-1 1h1m-1 1h1m-1 1h1m-2 1h2"/><path stroke="maroon" d="M0 1h2M0 2h1m1 0h2M0 3h3m1 0h1M0 4h1m2 0h1M0 5h1M0 6h1M0 7h1M0 8h1M0 9h1m-1 1h1m-1 1h1m7 2h1m-2 1h2"/><path stroke="#fff" d="M4 1h1m1 1h1m0 8h1"/><path stroke="silver" d="M10 1h1m0 1h1m0 1h1m0 1h1m-4 1h1m0 1h1m0 1h1"/><path stroke="#f0f" d="M11 1h1M1 2h1m10 0h1M3 3h1m9 0h1M8 7h1m0 1h2m-2 2h1m-1 1h1m-1 1h1"/><path stroke="#ff0" d="M5 3h1M5 4h2M5 5h2"/><path stroke="#000" d="M8 3h1M4 4h1m3 0h1M8 5h1M8 6h1M7 7h1M7 8h1m3 1h1m-1 1h1m-1 1h1M0 12h2m9 0h1M2 13h2m7 0h1m-8 1h2m3 0h2m-5 1h3"/><path stroke="red" d="M1 4h2M1 5h2M1 6h2M1 7h2M1 8h2M1 9h2m-2 1h2m-2 1h2m-1 1h3m-1 1h3m-1 1h1"/><path stroke="#0f0" d="M10 4h1m0 1h1M4 6h1m7 0h1M3 7h1m2 0h1M3 8h3M4 9h2"/><path stroke="green" d="M11 4h1M3 5h2m7 0h1M3 6h1m1 0h2m6 0h1M4 7h2m0 1h1M6 9h1"/><path stroke="gray" d="M14 4h1m-2 3h1m1 3h1"/><path stroke="#00f" d="M3 9h1m-1 1h3m-3 1h3m-1 1h1"/><path stroke="teal" d="M7 9h2m6 0h1M6 10h1m1 0h1m3 0h3m-8 1h2m-2 1h2m-2 1h1"/><path stroke="#0ff" d="M12 9h3m-9 2h1m-1 1h1"/></svg>