<svg xmlns="http://www.w3.org/2000/svg" viewBox="0 -0.5 16 16" shape-rendering="crispEdges">
<path stroke="#000000" d="M0 0h1M3 0h1M5 0h1M7 0h1M9 0h1M11 0h1M2 1h1M12 1h1M3 2h1M5 2h1M7 2h1M9 2h1M11 2h1M13 2h1M13 3h1M13 4h1M4 5h3M8 5h2M13 5h1M13 6h1M4 7h6M13 7h1M13 8h1M4 9h2M10 9h1M13 9h1M8 10h1M13 10h1M4 11h2M10 11h1M13 11h1M7 12h1M9 12h1M13 12h1M13 13h1M13 14h1M2 15h11" />
<path stroke="#ffffff" d="M0 0h1M3 1h1M5 1h1M7 1h1M9 1h1M11 1h1M2 2h1M4 2h1M6 2h1M8 2h1M10 2h1M12 2h1M2 3h10M2 4h10M2 5h2M7 5h1M10 5h2M2 6h10M2 7h2M10 7h2M2 8h5M10 8h2M2 9h2M11 9h1M2 10h4M11 10h1M2 11h2M11 11h1M2 12h5M10 12h2M2 13h10" />
<path stroke="#808080" d="M0 0h1M4 1h1M6 1h1M8 1h1M10 1h1M1 2h1M1 3h1M1 4h1M1 5h1M1 6h1M1 7h1M1 8h1M1 9h1M1 10h1M1 11h1M1 12h1M1 13h1M1 14h1" />
<path stroke="#c0c0c0" d="M0 0h1M12 3h1M12 4h1M12 5h1M12 6h1M12 7h1M7 8h1M9 8h1M12 8h1M6 9h1M12 9h1M12 10h1M6 11h1M12 11h1M12 12h1M12 13h1M2 14h11" />
<path stroke="#bfbf00" d="M0 0h1M8 8h1M7 9h1M9 9h1M6 10h1M10 10h1M7 11h1M9 11h1M8 12h1" />
<path stroke="#ffff00" d="M0 0h1M8 9h1M7 10h1M9 10h1M8 11h1" />
</svg>