<svg xmlns="http://www.w3.org/2000/svg" viewBox="0 -0.5 16 16" shape-rendering="crispEdges">
<path stroke="#008080" d="M0 0h1M7 0h1M7 1h2M7 2h2M6 3h1M8 3h2" />
<path stroke="#000000" d="M0 0h1M8 0h1M9 1h2M9 2h1M11 2h2M10 3h1M13 3h2M5 4h7M15 4h1M14 5h1M14 6h1M13 7h1M13 8h1M15 8h1M7 9h1M15 9h1M7 10h1M13 10h1M15 10h1M6 11h1M13 11h1M15 11h1M2 12h5M8 12h5M15 12h1M14 13h1M14 14h1M0 15h14" />
<path stroke="#00ffff" d="M0 0h1M7 3h1" />
<path stroke="#808080" d="M0 0h1M2 8h11M14 8h1M2 9h1M4 9h1M1 10h1M3 10h1M1 11h1M3 11h1M14 11h1M0 12h1M13 12h2M0 13h1M13 13h1M0 14h14" />
<path stroke="#c0c0c0" d="M0 0h1M3 9h1M8 9h1M11 9h4M2 10h1M8 10h1M14 10h1M2 11h1M7 11h1M1 12h1M7 12h1" />
<path stroke="#ffffff" d="M0 0h1M5 9h2M4 10h3M4 11h2M1 13h12" />
<path stroke="#808000" d="M0 0h1M9 9h2M9 10h1M11 10h2M8 11h1" />
<path stroke="#ffff00" d="M0 0h1M10 10h1M9 11h4" />
</svg>