<svg xmlns="http://www.w3.org/2000/svg" width="16" height="16" shape-rendering="crispEdges" viewBox="0 -0.5 16 16"><path stroke="gray" d="M2 0h9M2 1h1m8 0h1M2 2h1m9 0h1M2 3h1M2 4h2M1 5h1M0 6h1M0 7h1M0 8h1m0 1h1m4 0h2m-6 1h1m2 0h1m-4 1h1m-1 1h1"/><path stroke="#fff" d="M3 1h7M3 2h7m1 0h1M3 3h7M6 4h6M2 5h1m1 0h1m2 0h5M1 6h1m1 0h1m4 0h4M2 7h1m5 0h4M1 8h1m6 0h4M9 9h3m-2 1h2m-9 1h3m5 0h1"/><path stroke="silver" d="M10 1h1m-1 1h1M5 4h1m6 0h1M6 5h1m5 0h1M5 6h1m1 0h1m4 0h1M4 7h1m2 0h1m4 0h1M3 8h1m1 0h1m1 0h1m4 0h1M2 9h1m1 0h1m3 0h1m3 0h1m-7 1h1m2 0h1m2 0h1m-3 1h1m1 0h1M3 12h4m4 0h2"/><path stroke="#000" d="M10 3h4M4 4h1m8 0h1M5 5h1m7 0h1M6 6h1m6 0h1M6 7h1m6 0h1M6 8h1m6 0h1M5 9h1m7 0h1M3 10h2m8 0h1m-1 1h1m-1 1h1M2 13h6m4 0h2m-2 1h1m-3 1h2"/><path stroke="#0ff" d="M3 5h1M2 6h1m1 0h1M1 7h1m1 0h1m1 0h1M2 8h1m1 0h1M3 9h1m3 2h1m0 1h1m0 1h1m0 1h1"/><path stroke="#00f" d="M7 10h2m-1 1h2m-1 1h2m-1 1h2m-1 1h1"/><path stroke="navy" d="M6 11h1m0 1h1m0 1h1m0 1h1"/></svg>