<svg xmlns="http://www.w3.org/2000/svg" width="16" height="16" shape-rendering="crispEdges" viewBox="0 -0.5 16 16"><path stroke="#000" d="M2 0h2M2 1h4M2 2h1m1 0h2M2 3h1m2 0h1m7 0h1M1 4h2m2 0h1m8 0h1M0 5h3m2 0h1m8 0h1M0 6h2m2 0h2m9 0h1M3 7h3m2 0h1m6 0h1M3 8h2m2 0h1m1 0h1m5 0h1M8 9h1m6 0h1m-1 1h1m-2 1h1m-1 1h1m-2 1h1m-3 1h2m-5 1h3"/><path stroke="gray" d="M6 1h5m0 1h2M3 3h2M4 4h1M1 7h1m5 0h1m1 0h1M1 8h1M1 9h1m5 0h1m1 0h1m-9 1h1m0 1h1m-1 1h1m0 1h1m0 1h2m0 1h2"/><path stroke="#ff0" d="M6 2h2M6 3h2M6 4h2M6 5h2M7 6h1m2 4h1m-1 1h1m-1 1h2m-1 1h2"/><path stroke="silver" d="M8 2h3M8 3h5M8 4h4m1 0h1M8 5h3m1 0h2M2 6h2m4 0h2m1 0h4M2 7h1m7 0h5M2 8h1m7 0h5M2 9h4m5 0h4M2 10h3m1 0h2m4 0h3M3 11h1m1 0h4m4 0h1M4 12h5m-5 1h5m-3 1h3"/><path stroke="#0ff" d="M3 4h1m0 1h1m1 1h1M6 7h1m3 2h1m0 1h1m-1 1h2m-1 1h2"/><path stroke="#fff" d="M12 4h1m-2 1h1m-2 1h1M8 8h1M6 9h1m-2 1h1m2 0h1m-5 1h1m-2 1h1"/><path stroke="#0f0" d="M3 5h1m1 3h2m2 2h1m-1 1h1m-1 1h1m-1 1h2m-2 1h2"/></svg>