<svg xmlns="http://www.w3.org/2000/svg" width="16" height="16" shape-rendering="crispEdges" viewBox="0 -0.5 16 16"><path stroke="gray" d="M9 1h3M7 2h2m3 0h2M6 3h1M5 4h1M5 5h1m3 0h1m1 0h1M5 6h1M5 7h1m3 0h1m1 0h1M1 8h5M0 9h1m5 0h1m-7 1h1m6 0h2m-9 1h1m12 0h1M0 12h1m12 0h1M0 13h14"/><path stroke="#ff0" d="M9 2h2M9 3h2M9 4h2m1 4h1m0 1h1"/><path stroke="silver" d="M11 2h1m-1 1h3m-3 1h2m1 0h1M6 5h1m6 0h2M6 6h2m4 0h3M6 7h3m4 0h2M6 8h3m1 0h2M7 9h1m1 0h3M2 10h5m2 0h3m0 1h1M2 12h2m5 0h4"/><path stroke="#0ff" d="M7 3h2M8 4h1m3 3h1m0 1h2"/><path stroke="#000" d="M14 3h1m0 1h1m-6 1h1m4 0h1M9 6h1m1 0h1m3 0h1m-6 1h1m4 0h1m-1 1h1m-2 1h1m-3 1h3M4 11h8m2 0h1m-1 1h1m-1 1h1M1 14h13"/><path stroke="#0f0" d="M6 4h2M7 5h2M8 6h1m3 3h1M2 11h1"/><path stroke="#fff" d="M13 4h1m-2 1h1M9 8h1M1 9h5m2 0h1m-8 1h1m-1 1h1m-1 1h1m2 0h5"/><path stroke="green" d="M3 11h1"/></svg>