<svg xmlns="http://www.w3.org/2000/svg" viewBox="0 -0.5 16 16" shape-rendering="crispEdges">
<path stroke="#808080" d="M0 0h1M3 0h9M3 1h1M12 1h1M3 2h1M13 2h1M3 3h1M3 4h2M2 5h1M1 6h1M1 7h1M1 8h1M2 9h1M7 9h2M3 10h1M6 10h1M3 11h1M3 12h1" />
<path stroke="#ffffff" d="M0 0h1M4 1h7M4 2h7M12 2h1M4 3h7M7 4h6M3 5h1M5 5h1M8 5h5M2 6h1M4 6h1M9 6h4M3 7h1M9 7h4M2 8h1M9 8h4M10 9h3M11 10h2M4 11h3M12 11h1" />
<path stroke="#c0c0c0" d="M0 0h1M11 1h1M11 2h1M6 4h1M13 4h1M7 5h1M13 5h1M6 6h1M8 6h1M13 6h1M5 7h1M8 7h1M13 7h1M4 8h1M6 8h1M8 8h1M13 8h1M3 9h1M5 9h1M9 9h1M13 9h1M7 10h1M10 10h1M13 10h1M11 11h1M13 11h1M4 12h4M12 12h2" />
<path stroke="#000000" d="M0 0h1M11 3h4M5 4h1M14 4h1M6 5h1M14 5h1M7 6h1M14 6h1M7 7h1M14 7h1M7 8h1M14 8h1M6 9h1M14 9h1M4 10h2M14 10h1M14 11h1M14 12h1M3 13h6M13 13h2M13 14h1M11 15h2" />
<path stroke="#00ffff" d="M0 0h1M4 5h1M3 6h1M5 6h1M2 7h1M4 7h1M6 7h1M3 8h1M5 8h1M4 9h1M8 11h1M9 12h1M10 13h1M11 14h1" />
<path stroke="#0000ff" d="M0 0h1M8 10h2M9 11h2M10 12h2M11 13h2M12 14h1" />
<path stroke="#000080" d="M0 0h1M7 11h1M8 12h1M9 13h1M10 14h1" />
</svg>