<svg xmlns="http://www.w3.org/2000/svg" width="32" height="32" shape-rendering="crispEdges" viewBox="0 -0.5 32 32"><path stroke="gray" d="M11 0h10M10 1h1m9 0h1M10 2h1m1 0h1m5 0h1m1 0h1M10 3h1m1 0h1m5 0h1m1 0h1M10 4h1m1 0h1m5 0h1m1 0h1M10 5h1m1 0h1m5 0h1m1 0h1M10 6h1m1 0h1m5 0h1m1 0h1M10 7h1m9 0h1M10 8h11M10 9h1m-2 1h1m11 0h1M9 11h1m6 0h4m1 0h1M9 12h1m11 0h1M9 13h13M2 17h10m7 0h10M1 18h1m9 0h1m6 0h1m9 0h1M1 19h1m1 0h1m7 0h1m6 0h1m1 0h1m7 0h1M1 20h1m1 0h1m7 0h1m6 0h1m1 0h1m7 0h1M1 21h1m1 0h1m7 0h1m6 0h1m1 0h1m7 0h1M1 22h1m1 0h1m7 0h1m6 0h1m1 0h1m7 0h1M1 23h1m1 0h1m7 0h1m6 0h1m1 0h1m7 0h1M1 24h1m9 0h1m6 0h1m9 0h1M1 25h11m6 0h11M1 26h1m16 0h1M0 27h1m11 0h1m4 0h1m11 0h1M0 28h1m6 0h4m1 0h1m4 0h1m6 0h4m1 0h1M0 29h1m11 0h1m4 0h1m11 0h1M0 30h13m4 0h13"/><path stroke="#fff" d="M11 1h1m-1 1h1m-1 1h1m-1 1h1m-1 1h1m-1 1h1m-1 1h1m-2 3h11m-11 1h1m-1 1h1m-9 6h1m16 0h1M2 19h1m16 0h1M2 20h1m16 0h1M2 21h1m16 0h1M2 22h1m16 0h1M2 23h1m16 0h1M2 24h1m16 0h1M1 27h11m6 0h11M1 28h1m16 0h1M1 29h1m16 0h1"/><path stroke="silver" d="M12 1h8m-1 1h1m-1 1h1m-1 1h1m-1 1h1m-1 1h1m-8 1h8m1 2h1m-11 2h5m4 0h1m-10 1h1m2 0h2m4 0h1M3 18h8m9 0h8m-18 1h1m16 0h1m-18 1h1m16 0h1m-18 1h1m16 0h1m-18 1h1m16 0h1m-18 1h1m16 0h1M3 24h8m9 0h8m-16 2h1m16 0h1M2 28h5m4 0h1m7 0h5m4 0h1M2 29h1m2 0h2m4 0h1m7 0h1m2 0h2m4 0h1"/><path stroke="#000" d="M21 1h1m-9 1h5m3 0h1m-9 1h1m7 0h1m-9 1h1m7 0h1m-9 1h1m7 0h1m-9 1h1m7 0h1m-1 1h1m-1 1h1M11 9h10m1 0h1m-1 1h1m-1 1h1m-7 1h4m2 0h1m-1 1h1m-13 1h12m-7 1h1m-1 1h1m-1 1h1m-4 1h1m2 0h1m13 0h1M4 19h6m2 0h1m1 0h3m4 0h6m2 0h1M4 20h1m7 0h2m3 0h1m3 0h1m7 0h1M4 21h1m7 0h1m8 0h1m7 0h1M4 22h1m7 0h1m8 0h1m7 0h1M4 23h1m7 0h1m8 0h1m7 0h1m-18 1h1m16 0h1m-18 1h1m16 0h1M2 26h10m1 0h1m5 0h10m1 0h1m-18 1h1m16 0h1m-18 1h1m16 0h1M7 29h4m2 0h1m10 0h4m2 0h1m-18 1h1m16 0h1M1 31h12m5 0h12"/><path stroke="#0ff" d="M14 3h1M5 20h1m16 0h1"/><path stroke="#00bfbf" d="M15 3h3m-4 1h4m-4 1h4m-4 1h4"/><path stroke="#0f0" d="M12 12h2M3 29h2m15 0h2"/><path stroke="#00f" d="M6 20h3m14 0h3M5 21h4m13 0h4M5 22h4m13 0h4"/><path stroke="#0000bf" d="M9 20h1m16 0h1M9 21h1m16 0h1M9 22h1m16 0h1M5 23h5m12 0h5"/></svg>