<svg xmlns="http://www.w3.org/2000/svg" width="16" height="16" shape-rendering="crispEdges" viewBox="0 -0.5 16 16"><path stroke="gray" d="M2 0h12m-1 1h1M0 2h1m12 0h1M0 3h1m11 0h2M0 4h1m1 0h9m1 0h2M0 5h1M0 6h5m0 2h6M4 9h1m-1 4h1m1 0h4m-6 1h1m1 0h1m1 0h1m-5 1h1"/><path stroke="silver" d="M2 1h11M1 3h8m2 0h1M1 4h1m9 0h1M1 5h4m9 2h1m-4 1h1m1 0h1M5 9h1m4 0h1m1 0h1m1 0h1M5 10h1m4 0h1m-1 1h1m-6 1h6m-6 1h1m4 0h1m-6 1h1m4 0h1"/><path stroke="#000" d="M14 1h1m-1 1h1m-1 1h1m-1 1h1M1 7h4m3 0h1m4 0h1m-3 2h1m-1 1h1m1 0h1m-3 1h4m-4 1h1m-1 1h1m-5 1h1m3 0h1m-7 1h7"/><path stroke="#fff" d="M1 2h12M6 6h9M6 7h1M6 9h4m-4 1h4m-4 1h4m-1 3h1"/><path stroke="#0f0" d="M9 3h1"/><path stroke="green" d="M10 3h1"/><path stroke="olive" d="M5 5h11M5 6h1m9 0h1M5 7h1m1 0h1m2 0h1m1 0h1m2 0h1m-4 1h1m2 0h1m-1 1h1m-4 1h1m1 0h2"/><path stroke="#ff0" d="M9 7h1m1 0h1m2 1h1m-2 1h1"/><path stroke="red" d="M2 8h1M1 9h1m-1 1h1m2 0h1m-3 1h4m-2 1h1"/></svg>