<svg xmlns="http://www.w3.org/2000/svg" viewBox="0 -0.5 16 16" shape-rendering="crispEdges">
<path stroke="#808080" d="M0 0h1M12 0h1M12 1h1M12 2h1M12 3h1M8 4h3M14 4h2M7 5h1M7 6h1M7 7h1M7 8h1M7 9h1M0 10h2M5 10h3M3 12h1M3 13h1M3 14h1M3 15h1" />
<path stroke="#000000" d="M0 0h1M13 0h1M13 1h1M13 2h1M13 3h1M8 5h3M14 5h2M8 6h1M11 6h4M8 7h1M8 8h1M8 9h1M8 10h1M0 11h2M5 11h4M4 12h2M4 13h1M4 14h1M4 15h1" />
<path stroke="#808000" d="M0 0h1M12 4h2M13 5h1M2 11h1M4 11h1" />
<path stroke="#ffff00" d="M0 0h1M11 5h2" />
<path stroke="#ffffff" d="M0 0h1M3 11h1" />
</svg>