<svg xmlns="http://www.w3.org/2000/svg" width="16" height="16" shape-rendering="crispEdges" viewBox="0 -0.5 16 16"><path stroke="#000" d="M3 0h1m1 0h1m1 0h1m1 0h1m1 0h1M2 1h1m9 0h1M3 2h1m1 0h1m1 0h1m1 0h1m1 0h1m1 0h1m-1 1h1m-1 1h1M4 5h3m1 0h2m3 0h1m-1 1h1M4 7h6m3 0h1m-1 1h1M4 9h2m4 0h1m2 0h1m-6 1h1m4 0h1M4 11h2m4 0h1m2 0h1m-7 1h1m1 0h1m3 0h1m-1 1h1m-1 1h1M2 15h11"/><path stroke="#fff" d="M3 1h1m1 0h1m1 0h1m1 0h1m1 0h1M2 2h1m1 0h1m1 0h1m1 0h1m1 0h1m1 0h1M2 3h10M2 4h10M2 5h2m3 0h1m2 0h2M2 6h10M2 7h2m6 0h2M2 8h5m3 0h2M2 9h2m7 0h1M2 10h4m5 0h1M2 11h2m7 0h1M2 12h5m3 0h2M2 13h10"/><path stroke="gray" d="M4 1h1m1 0h1m1 0h1m1 0h1M1 2h1M1 3h1M1 4h1M1 5h1M1 6h1M1 7h1M1 8h1M1 9h1m-1 1h1m-1 1h1m-1 1h1m-1 1h1m-1 1h1"/><path stroke="silver" d="M12 3h1m-1 1h1m-1 1h1m-1 1h1m-1 1h1M7 8h1m1 0h1m2 0h1M6 9h1m5 0h1m-1 1h1m-7 1h1m5 0h1m-1 1h1m-1 1h1M2 14h11"/><path stroke="#bfbf00" d="M8 8h1M7 9h1m1 0h1m-4 1h1m3 0h1m-4 1h1m1 0h1m-2 1h1"/><path stroke="#ff0" d="M8 9h1m-2 1h1m1 0h1m-2 1h1"/></svg>