<svg xmlns="http://www.w3.org/2000/svg" width="32" height="32" shape-rendering="crispEdges" viewBox="0 -0.5 32 32"><path stroke="gray" d="M15 4h2m-4 1h2m2 0h2m-8 1h2m6 0h2M9 7h2m10 0h2M7 8h2m14 0h2M6 9h1m18 0h2M6 10h1m-1 1h1m18 0h2M6 12h2m15 0h4M5 13h2m1 0h2m11 0h5M4 14h1m14 0h5M4 15h1m13 0h4m4 0h1M4 16h1m9 0h2m2 0h2m4 0h3m-11 1h2m4 0h5m-7 1h7M5 19h2m4 0h2m5 0h9M7 20h2m4 0h2m3 0h9M9 21h2m7 0h7m-14 1h2m5 0h5m-10 1h2m3 0h3m-6 1h2m1 0h1"/><path stroke="#fff" d="M15 5h2m-4 1h2m-4 1h2M9 8h2M7 9h2m-2 1h1m1 0h2m-4 1h1m3 0h2m0 1h2m0 1h2M5 14h2m10 0h2M7 15h1m-2 1h1m-2 1h1m6 0h2m0 1h2m0 1h2"/><path stroke="silver" d="M15 6h4m-6 1h8M11 8h12M9 9h16M8 10h1m2 0h16M8 11h3m2 0h12M8 12h5m2 0h8M7 13h1m2 0h2m2 0h1m2 0h4M8 14h2m6 0h1m9 0h1M5 15h1m9 0h3m6 0h2m-13 1h1m2 0h2m4 0h2m-10 1h2m4 0h2m-9 1h1m2 0h4M7 19h4m2 0h3m-7 1h4m2 0h3m-7 1h4m2 0h1m-5 1h2m2 0h1m-3 1h3m-1 1h1"/><path stroke="#000" d="M27 10h1m-1 1h1m-1 1h1m-2 1h2m-13 1h1m8 0h2m1 0h1m-15 1h2m7 0h2m3 0h1m-17 1h2m7 0h2m5 0h1m-17 1h1m6 0h2m7 0h1M4 18h9m14 0h1m-1 1h1m-1 1h1m-3 1h2m-4 1h2m-4 1h2m-4 1h2m-4 1h2"/><path stroke="green" d="M12 13h2m-7 1h1m2 0h2m2 0h1m-9 1h1m1 0h2m2 0h1m-8 1h1m4 0h1m-7 1h1m4 0h2m4 5h2"/><path stroke="#0f0" d="M12 14h2m-4 1h2m-5 1h3m-4 1h3m6 4h2"/></svg>