<svg xmlns="http://www.w3.org/2000/svg" width="16" height="16" shape-rendering="crispEdges" viewBox="0 -0.5 16 16"><path stroke="olive" d="M3 0h11M2 1h1m10 0h1M2 2h11"/><path stroke="#000" d="M14 0h1m-1 1h1m-1 1h1m-1 1h1m-1 1h1m-1 1h1m-4 1h1m2 0h1m-5 1h1m3 0h1M9 8h1m1 0h1m2 0h1m-4 1h1m2 0h1M5 10h2m2 0h2m3 0h1m-8 1h2m5 0h1m-1 1h1m-1 1h1m-1 1h1m-2 1h1"/><path stroke="#ff0" d="M3 1h10"/><path stroke="silver" d="M13 2h1m-1 1h1m-1 1h1m-1 1h1m-1 1h1m-1 1h1m-1 1h1m-1 1h1m-7 1h1m5 0h1m-1 1h1m-1 1h1M2 13h11"/><path stroke="gray" d="M2 3h1M2 4h1M2 5h1m6 0h2M2 6h1m5 0h1M2 7h1m4 0h1M2 8h1m2 0h2m3 0h1M2 9h1m2 0h1m2 0h3m-9 1h1m5 0h1m-7 1h1m-2 1h1m-1 1h1m11 0h1M2 14h12M3 15h10"/><path stroke="#fff" d="M3 3h10M3 4h10M3 5h6m2 0h2M3 6h5m1 0h2m1 0h1M3 7h4m1 0h2m1 0h2M3 8h2m7 0h1M3 9h2m1 0h2m4 0h1M3 10h2m6 0h2M3 11h4m2 0h4M2 12h11"/><path stroke="#0f0" d="M7 8h1"/><path stroke="red" d="M8 8h1"/></svg>