<svg xmlns="http://www.w3.org/2000/svg" width="32" height="32" shape-rendering="crispEdges" viewBox="0 -0.5 32 32"><path stroke="gray" d="M5 0h9M4 1h1m9 0h1M3 2h1m11 0h1M2 3h1m13 0h1M1 4h1m15 0h10M1 5h1M1 6h1M1 7h1M1 8h1m24 0h1M1 9h1m24 0h1m1 0h1M1 10h1m-1 1h1m-1 1h1m-1 1h1m-1 1h1m-1 1h1m-1 1h1m-1 1h1m-1 1h1m-1 1h1m-1 1h1m-1 1h1m17 3h1m-1 1h1"/><path stroke="#fff" d="M5 1h9M4 2h1M3 3h1M2 5h25M2 6h1M2 7h1M2 8h1M2 9h1m-1 1h1m23 0h1M2 11h1m-1 1h1m22 0h1M2 13h1m-1 1h1m21 0h1M2 15h1m-1 1h1m20 0h1M2 17h1m-1 1h1m19 0h1M2 19h1m-1 1h1m18 0h1m-2 2h1m-1 1h1m-1 1h1M3 26h1m1 0h2m1 0h2m1 0h1m1 0h1m1 0h1m1 0h1M3 27h2m2 0h1m2 0h2m1 0h1m1 0h3M3 28h1m1 0h1m2 0h2m1 0h1m1 0h1m1 0h1m1 0h1"/><path stroke="#ff0" d="M5 2h1m1 0h1m1 0h1m1 0h1m1 0h1M4 3h1m1 0h1m1 0h1m1 0h1m1 0h1m1 0h1M3 6h1m1 0h1m1 0h1m1 0h1m1 0h1m1 0h1m1 0h1m1 0h1m1 0h1m1 0h1m1 0h1m1 0h1M4 7h1m1 0h1m1 0h1m1 0h1m1 0h1m1 0h1m1 0h1m1 0h1m1 0h1m1 0h1m1 0h1m1 0h1M3 8h1m1 0h1m1 0h1m1 0h1m1 0h1m1 0h1m1 0h1m1 0h1m1 0h1m1 0h1m1 0h1m1 0h1M4 9h1m1 0h1m1 0h1m1 0h1m1 0h1m1 0h1m1 0h1m1 0h1m1 0h1m1 0h1m1 0h1M3 10h1m1 0h1m1 0h1m1 0h1m1 0h1m1 0h1m1 0h1m1 0h1m1 0h1m1 0h1m1 0h1M4 11h1m1 0h1m1 0h1m1 0h1m1 0h1m1 0h1m1 0h1m1 0h1m1 0h1m1 0h1m1 0h1M3 12h1m1 0h1m1 0h1m1 0h1m1 0h1m1 0h1m1 0h1m1 0h1m1 0h1m1 0h1m1 0h1M4 13h1m1 0h1m1 0h1m1 0h1m1 0h1m1 0h1m1 0h1m1 0h1m1 0h1m1 0h1M3 14h1m1 0h1m1 0h1m1 0h1m1 0h1m1 0h1m1 0h1m1 0h1m1 0h1m1 0h1M4 15h1m1 0h1m1 0h1m1 0h1m1 0h1m1 0h1m1 0h1m1 0h1m1 0h1m1 0h1M3 16h1m1 0h1m1 0h1m1 0h1m1 0h1m1 0h1m1 0h1m1 0h1m1 0h1m1 0h1M4 17h1m1 0h1m1 0h1m1 0h1m1 0h1m1 0h1m1 0h1m1 0h1m1 0h1M3 18h1m1 0h1m1 0h1m1 0h1m1 0h1m1 0h1m1 0h1m1 0h1m1 0h1M4 19h1m1 0h1m1 0h1m1 0h1m1 0h1m1 0h1m1 0h1m1 0h1m1 0h1m5 0h1M3 20h1m1 0h1m1 0h1m1 0h1m1 0h1m1 0h1m1 0h1m1 0h1m1 0h1m5 0h1"/><path stroke="silver" d="M6 2h1m1 0h1m1 0h1m1 0h1m1 0h1M5 3h1m1 0h1m1 0h1m1 0h1m1 0h1m1 0h1M2 4h15M4 6h1m1 0h1m1 0h1m1 0h1m1 0h1m1 0h1m1 0h1m1 0h1m1 0h1m1 0h1m1 0h1m1 0h1M3 7h1m1 0h1m1 0h1m1 0h1m1 0h1m1 0h1m1 0h1m1 0h1m1 0h1m1 0h1m1 0h1m1 0h1M4 8h1m1 0h1m1 0h1m1 0h1m1 0h1m1 0h1m1 0h1m1 0h1m1 0h1m1 0h1m1 0h1M3 9h1m1 0h1m1 0h1m1 0h1m1 0h1m1 0h1m1 0h1m1 0h1m1 0h1m1 0h1m1 0h1m1 0h1m1 0h1M4 10h1m1 0h1m1 0h1m1 0h1m1 0h1m1 0h1m1 0h1m1 0h1m1 0h1m1 0h1m1 0h1M3 11h1m1 0h1m1 0h1m1 0h1m1 0h1m1 0h1m1 0h1m1 0h1m1 0h1m1 0h1m1 0h1M4 12h1m1 0h1m1 0h1m1 0h1m1 0h1m1 0h1m1 0h1m1 0h1m1 0h1m1 0h1M3 13h1m1 0h1m1 0h1m1 0h1m1 0h1m1 0h1m1 0h1m1 0h1m1 0h1m1 0h1m1 0h1M4 14h1m1 0h1m1 0h1m1 0h1m1 0h1m1 0h1m1 0h1m1 0h1m1 0h1m1 0h1M3 15h1m1 0h1m1 0h1m1 0h1m1 0h1m1 0h1m1 0h1m1 0h1m1 0h1m1 0h1M4 16h1m1 0h1m1 0h1m1 0h1m1 0h1m1 0h1m1 0h1m1 0h1m1 0h1M3 17h1m1 0h1m1 0h1m1 0h1m1 0h1m1 0h1m1 0h1m1 0h1m1 0h1m1 0h1M4 18h1m1 0h1m1 0h1m1 0h1m1 0h1m1 0h1m1 0h1m1 0h1m1 0h1m5 0h1M3 19h1m1 0h1m1 0h1m1 0h1m1 0h1m1 0h1m1 0h1m1 0h1m1 0h1M4 20h1m1 0h1m1 0h1m1 0h1m1 0h1m1 0h1m1 0h1m1 0h1m7 0h1M1 24h1m1 0h1m1 0h1m1 0h1m1 0h1m1 0h1m1 0h1m1 0h1m1 0h1m3 0h1m1 0h1m1 0h1m1 0h1m1 0h1M0 25h1m29 0h1M0 27h1m29 0h1M0 29h1m29 0h1M1 30h1m1 0h1m1 0h1m1 0h1m1 0h1m1 0h1m1 0h1m1 0h1m1 0h1m1 0h1m1 0h1m1 0h1m1 0h1m1 0h1m1 0h1"/><path stroke="#000" d="M27 4h1m-1 1h2m1 3h1m-2 1h2m-2 1h1m-1 1h1m-2 1h1m-1 1h1m-2 1h2m-2 1h2m-3 1h1m1 0h1m-3 1h1m1 0h1m-4 1h1m2 0h1m-4 1h1m2 0h1m-5 1h1m3 0h1m-5 1h1m3 0h1M2 22h17m4 0h5m-5 1h1M0 24h1m1 0h1m1 0h1m1 0h1m1 0h1m1 0h1m1 0h1m1 0h1m1 0h1m1 0h1m3 0h1m1 0h1m1 0h1m1 0h1m1 0h1m-11 1h2M0 26h1m18 0h2m9 0h1m-12 1h1M0 28h1m29 0h1M0 30h1m1 0h1m1 0h1m1 0h1m1 0h1m1 0h1m1 0h1m1 0h1m1 0h1m1 0h1m1 0h1m1 0h1m1 0h1m1 0h1m1 0h1m1 0h1"/><path stroke="olive" d="M27 6h1m-1 10h1m-1 1h1m-1 1h1m-1 1h1m-1 1h1M2 21h18m5 0h3"/><path stroke="maroon" d="M28 6h2m-3 1h1m2 0h1m-4 1h3"/><path stroke="red" d="M28 7h2"/><path stroke="teal" d="M25 10h1m2 0h1m-4 1h1m1 0h2m-5 1h1m2 0h1m-4 1h1m1 0h2m-5 1h1m2 0h1m-4 1h1m1 0h2m-5 1h1m2 0h1m-4 1h1m1 0h2m-5 1h1m2 0h1m-4 1h1m1 0h2m-5 1h1m2 0h1m-4 1h1m1 0h2m-5 1h1m2 0h1m-4 1h1m2 0h1"/><path stroke="#0ff" d="M27 10h1m-2 1h1m-1 1h1m-2 1h1m-1 1h1m-2 1h1m-1 1h1m-2 1h1m-1 1h1m-2 1h1m-1 1h1m-2 1h1m-1 1h1m-1 1h1"/><path stroke="#00f" d="M1 25h18m3 0h8M1 26h2m1 0h1m2 0h1m2 0h1m1 0h1m1 0h1m1 0h1m1 0h1m2 0h9M1 27h2m2 0h2m1 0h2m2 0h1m1 0h1m3 0h1m1 0h10M1 28h2m1 0h1m1 0h2m2 0h1m1 0h1m1 0h1m1 0h1m1 0h12M1 29h29"/></svg>