<svg xmlns="http://www.w3.org/2000/svg" width="32" height="32" shape-rendering="crispEdges" viewBox="0 -0.5 32 32"><path stroke="gray" d="M6 4h8M5 5h1m8 0h1M4 6h1m10 0h7M4 7h1M4 8h1M4 9h1m-1 1h1m-1 1h1m4 0h18M4 12h1m4 0h1m-6 1h1m4 0h1m-6 1h1m4 0h1m-6 1h1m4 0h1m-6 1h1m4 0h1m-6 1h1m4 0h1m-6 1h1m4 0h1m-1 1h1m-1 1h1m-1 1h1m-1 1h1m-1 1h1m2 0h3m2 0h3m2 0h3M9 24h1m-1 1h1m-1 1h1"/><path stroke="#fff" d="M6 5h1M5 7h17M5 8h1M5 9h1m-1 1h1m-1 1h1m-1 1h1m-1 1h1m14 0h1m1 0h1m1 0h1M5 14h1m-1 1h1m-1 1h1m5 0h15M5 17h1m5 0h15M5 18h1m5 0h2m2 0h2m1 0h5m1 0h2m-15 1h1m3 0h2m3 0h3m2 0h1m-15 1h1m3 0h2m3 0h2m3 0h1m-15 1h1m2 0h2m4 0h2m3 0h1m-15 1h15m-15 1h1m3 0h2m3 0h2m3 0h1m-15 1h15m-15 1h15"/><path stroke="#ff0" d="M7 5h7M6 8h1m1 0h1m1 0h1m1 0h1m1 0h1m1 0h1m1 0h1m1 0h1M7 9h1m1 0h1m1 0h1m1 0h1m1 0h1m1 0h1m1 0h1m1 0h1M6 10h1m1 0h1m1 0h1m1 0h1m1 0h1m1 0h1m1 0h1m1 0h1M7 11h1m-2 1h1m1 0h1m-2 1h1m-2 1h1m1 0h1m-2 1h1m-2 1h1m1 0h1m-2 1h1m-2 1h1m1 0h1m4 1h1"/><path stroke="silver" d="M5 6h10M7 8h1m1 0h1m1 0h1m1 0h1m1 0h1m1 0h1m1 0h1m1 0h1M6 9h1m1 0h1m1 0h1m1 0h1m1 0h1m1 0h1m1 0h1m1 0h1M7 10h1m1 0h1m1 0h1m1 0h1m1 0h1m1 0h1m1 0h1m1 0h1M6 11h1m1 0h1m-2 1h1m2 0h17M6 13h1m1 0h1m1 0h1m15 0h1M7 14h1m2 0h1m15 0h1M6 15h1m1 0h1m1 0h17M7 16h1m2 0h1m15 0h1M6 17h1m1 0h1m1 0h1m15 0h1M7 18h1m2 0h1m15 0h1m-17 1h1m15 0h1m-17 1h1m8 0h1m6 0h1m-17 1h1m1 0h1m4 0h1m8 0h1m-17 1h1m15 0h1m-17 1h1m15 0h1m-17 1h1m15 0h1m-17 1h1m15 0h1m-17 1h17"/><path stroke="#000" d="M22 7h1m0 1h1m-1 1h1m-1 1h1m3 1h1m-1 1h1m-7 1h1m1 0h1m1 0h1m1 0h1m-8 1h6m1 0h1m-1 1h1m-1 1h1m-1 1h1m-1 1h1m-1 1h1M5 20h4m18 0h1m-1 1h1m-1 1h1m-1 1h1m-1 1h1m-1 1h1m-1 1h1M9 27h19"/><path stroke="olive" d="M22 8h1m-1 1h1m-1 1h1M4 19h5"/><path stroke="navy" d="M11 13h9m-9 1h9"/><path stroke="red" d="M13 18h1m-2 1h1m0 1h1"/><path stroke="maroon" d="M14 18h1m-1 1h1m-3 1h1m1 0h1m-2 1h1"/><path stroke="#00f" d="M17 18h1m0 1h2m-3 1h2m5 0h1"/><path stroke="green" d="M23 18h1m-1 1h2m-3 1h1m-1 1h3"/><path stroke="#0ff" d="M17 19h1"/><path stroke="#0f0" d="M23 20h1"/><path stroke="purple" d="M16 21h1m1 0h2"/></svg>