<svg xmlns="http://www.w3.org/2000/svg" width="16" height="16" shape-rendering="crispEdges" viewBox="0 -0.5 16 16"><path stroke="gray" d="M1 0h10M1 1h1m9 0h1M1 2h1m1 0h3m6 0h1M1 3h1m3 0h1M1 4h1m3 0h1M1 5h1m3 0h1M1 6h1M1 7h1M1 8h1M1 9h1m-1 1h1m-1 1h1m-1 1h1m-1 1h1m-1 1h1"/><path stroke="#fff" d="M2 1h8M2 2h1m3 0h4m1 0h1M2 3h1m1 0h1m1 0h4M2 4h1m1 0h1m1 0h1m4 0h1M2 5h1m3 0h6M2 6h1m3 0h1m4 0h1M2 7h10M2 8h1m6 0h1m1 0h1M2 9h7m2 0h1M2 10h1m4 0h1m1 0h1m1 0h1M2 11h5m4 0h1M2 12h1m2 0h1m1 0h3m1 0h1M2 13h10"/><path stroke="silver" d="M10 1h1m-1 1h1m1 2h1m-1 1h1m-1 1h1m-1 1h1m-1 1h1m-1 1h1m-1 1h1m-1 1h1m-1 1h1m-1 1h1M2 14h11"/><path stroke="#00f" d="M3 3h1M3 4h1m3 0h4M7 6h4M3 8h6m-6 2h4m-4 2h2"/><path stroke="#000" d="M10 3h4m-1 1h1m-1 1h1M3 6h3m7 0h1m-1 1h1m-1 1h1m-1 1h1m-1 1h1m-1 1h1m-1 1h1m-1 1h1m-1 1h1M1 15h13"/><path stroke="red" d="M3 5h2m5 3h1M9 9h2m-3 1h1m1 0h1m-4 1h4m-5 1h1m3 0h1"/></svg>