<svg xmlns="http://www.w3.org/2000/svg" width="32" height="32" shape-rendering="crispEdges" viewBox="0 -0.5 32 32"><path stroke="green" d="M10 0h12M7 1h3m1 0h1m1 0h1m1 0h1m1 0h7m1 0h1M4 2h3m1 0h1m1 0h1m1 0h1m1 0h3m1 0h1m1 0h1m1 0h1m1 0h1m1 0h1M3 3h1m2 0h1m1 0h1m1 0h1m1 0h8m1 0h1m1 0h5M2 4h1m1 0h4m1 0h3m1 0h1m1 0h2m2 0h1m1 0h9M1 5h1m1 0h1m2 0h3m1 0h5m1 0h5m1 0h1m1 0h2m1 0h1m1 0h2M0 6h1m1 0h1m1 0h2m1 0h1m1 0h1m1 0h1m1 0h1m1 0h3m2 0h1m1 0h10M0 7h2m2 0h11m1 0h6m1 0h1m1 0h1m1 0h3M0 8h1m1 0h4m1 0h3m1 0h3m1 0h2m1 0h1m1 0h5m1 0h1m1 0h2M0 9h2m2 0h5m1 0h10m1 0h1m1 0h1m1 0h4m1 0h1M1 10h3m1 0h1m1 0h1m1 0h1m1 0h2m1 0h3m1 0h9m2 0h1M1 11h1m1 0h6m1 0h3m2 0h1m1 0h3m1 0h3m1 0h1m1 0h2M2 12h2m1 0h3m1 0h3m1 0h2m1 0h3m1 0h1m1 0h1m1 0h1m1 0h1m2 0h1M5 13h1m1 0h3m1 0h1m1 0h3m1 0h1m1 0h3m3 0h1m1 0h1m-18 1h3m1 0h6m1 0h1m1 0h1m2 0h1m-15 1h6m2 0h1m1 0h1m-6 1h1"/><path stroke="#fff" d="M10 1h1m1 0h1m3 0h1M7 2h1M4 3h1M3 4h1m4 0h1M2 5h1M1 8h1m0 1h1"/><path stroke="#0f0" d="M14 1h1m9 0h1M11 2h1m5 0h1m1 0h1m1 0h1m1 0h1m1 0h1M5 3h1m1 0h1m1 0h1m10 0h1m1 0h1M12 4h1m1 0h1m2 0h2m1 0h1M4 5h1m4 0h1m5 0h1m5 0h1m1 0h1m2 0h1m1 0h1M1 6h1m1 0h1m2 0h1m1 0h1m1 0h1m1 0h1m1 0h1m3 0h2m1 0h1M2 7h1m12 0h1m6 0h1m1 0h1m1 0h1m3 0h1M6 8h1m3 0h1m3 0h1m2 0h1m1 0h1m5 0h1m1 0h1M3 9h1m5 0h1m10 0h1m1 0h1m1 0h1M4 10h1m1 0h1m1 0h1m1 0h1m2 0h1m3 0h1m9 0h1M2 11h1m6 0h1m3 0h2m1 0h1m3 0h1m3 0h1M4 12h1m3 0h1m3 0h1m2 0h1m3 0h1m1 0h1M4 13h1m1 0h1m3 0h1m1 0h1m3 0h1m1 0h1m3 0h1M9 14h1m3 0h1m4 1h1"/><path stroke="#ff0" d="M9 2h1m3 0h1m-3 1h1M5 5h1M3 7h1"/><path stroke="#000" d="M31 7h1m-2 1h2m-3 1h1m1 0h1m-4 1h1m1 0h2m-6 1h1m2 0h2m-8 1h1m1 0h1m1 0h2m1 0h1M3 13h1m19 0h2m1 0h1m1 0h2M4 14h2m1 0h2m11 0h1m1 0h1m1 0h2m1 0h2M6 15h1m1 0h4m7 0h1m1 0h1m1 0h4M9 16h1m2 0h3m1 0h1m1 0h7m-15 1h1m4 0h3m4 0h2m-13 1h1m4 0h1m4 0h2m-11 1h1m2 0h2m3 0h2m-6 1h1m2 0h2m-6 1h2m1 0h2m-4 1h3m-4 1h3m-2 1h1m-2 1h2m-1 1h1m-2 1h2m-1 1h1m-2 1h1m1 0h1m-4 1h1m1 0h1m1 0h1m-8 1h9"/><path stroke="olive" d="M6 14h1m0 2h1m7 0h1m-8 1h1m11 0h1M9 18h1m3 0h2m4 0h1m-10 1h1m2 0h2m3 0h1m-8 1h1m1 0h2m2 0h1m-6 1h3m-2 1h2m-2 1h2m-2 1h2m-2 1h2m-2 1h2m-2 1h2m-2 1h2m-2 1h2m-3 1h2"/><path stroke="maroon" d="M7 15h1m0 1h1m0 1h1m3 0h2m6 0h1m-12 1h1m4 0h1m4 0h1m-10 1h1m7 0h1m-8 1h1m2 0h1m2 0h1m-2 1h1m-3 1h1m-1 2h1m-1 2h1m-1 2h1m0 1h1m-2 1h1m1 0h1"/></svg>