<svg xmlns="http://www.w3.org/2000/svg" viewBox="0 -0.5 32 32" shape-rendering="crispEdges">
<path stroke="#000000" d="M0 0h1M1 3h1M1 4h1M18 4h10M3 5h1M16 5h14M3 6h1M6 6h1M13 6h1M15 6h16M5 7h2M9 7h1M11 7h3M15 7h3M22 7h2M28 7h3M5 8h1M8 8h2M11 8h3M15 8h2M22 8h2M29 8h2M8 9h1M11 9h1M15 9h2M22 9h2M29 9h2M15 10h2M22 10h2M29 10h2M1 11h1M15 11h2M22 11h2M29 11h2M1 12h1M15 12h2M22 12h2M29 12h2M3 13h1M15 13h2M20 13h6M29 13h2M3 14h1M6 14h1M13 14h1M15 14h16M5 15h2M9 15h1M11 15h3M15 15h3M22 15h2M28 15h3M5 16h1M8 16h2M11 16h3M15 16h2M22 16h2M29 16h2M8 17h1M11 17h1M15 17h2M22 17h2M29 17h2M15 18h2M22 18h2M29 18h2M1 19h1M15 19h2M22 19h2M29 19h2M1 20h1M15 20h2M22 20h2M29 20h2M3 21h1M15 21h2M20 21h6M29 21h2M3 22h1M6 22h1M13 22h1M15 22h16M5 23h2M9 23h1M11 23h3M15 23h16M5 24h1M8 24h2M11 24h3M15 24h4M27 24h4M8 25h1M11 25h1M15 25h2M29 25h2" />
<path stroke="#ff0000" d="M0 0h1M1 7h1M20 7h2M1 8h1M17 8h5M3 9h1M17 9h5M3 10h1M6 10h1M13 10h1M17 10h5M5 11h2M9 11h1M11 11h3M17 11h5M5 12h1M8 12h2M11 12h3M17 12h5M8 13h1M11 13h1M17 13h1" />
<path stroke="#800000" d="M0 0h1M18 7h2M18 13h2" />
<path stroke="#00ff00" d="M0 0h1M24 7h2M24 8h5M24 9h5M24 10h5M24 11h5M24 12h5M28 13h1" />
<path stroke="#008000" d="M0 0h1M26 7h2M26 13h2" />
<path stroke="#0000ff" d="M0 0h1M1 15h1M20 15h2M1 16h1M17 16h5M3 17h1M17 17h5M3 18h1M6 18h1M13 18h1M17 18h5M5 19h2M9 19h1M11 19h3M17 19h5M5 20h1M8 20h2M11 20h3M17 20h5M8 21h1M11 21h1M17 21h1" />
<path stroke="#000080" d="M0 0h1M18 15h2M18 21h2" />
<path stroke="#ffff00" d="M0 0h1M24 15h2M24 16h5M24 17h5M24 18h5M24 19h5M24 20h5M28 21h1" />
<path stroke="#808000" d="M0 0h1M26 15h2M26 21h2" />
</svg>