<svg xmlns="http://www.w3.org/2000/svg" width="32" height="32" shape-rendering="crispEdges" viewBox="0 -0.5 32 32"><path stroke="purple" d="M23 0h2m-3 1h2m1 0h1m-2 1h1m1 0h1m-2 1h1m1 0h1m-2 1h1m1 0h1m-2 1h1m1 0h1m-2 1h1m1 0h1m-15 8h2m0 1h2m-5 1h2m3 0h2m-5 1h2m0 1h3m-2 1h2m-2 1h2m-2 1h2m-2 1h2m-2 1h2m-2 1h2m-2 1h2m-2 1h2m-2 1h2m-3 1h1"/><path stroke="gray" d="M7 1h3M6 2h1m3 0h2M6 3h1m5 0h2M6 4h1m7 0h2m15 15h1"/><path stroke="#fff" d="M24 1h1M7 2h1m17 0h1M9 3h1m16 0h1M11 4h1m15 0h1M13 5h1m14 0h1m-9 5h1M7 11h1m13 0h1M9 12h1m12 0h1m-12 1h1m11 0h1"/><path stroke="#ff0" d="M8 2h2m0 1h2M7 4h2m3 0h2M8 5h3m3 0h1m-5 1h3m-2 1h3m-3 1h3m-3 1h3m-3 1h3m-2 1h2"/><path stroke="#000" d="M22 2h1m0 1h1m0 1h1m-9 1h1m8 0h1M16 6h1m9 0h1M10 7h1m5 0h1m10 0h1m1 0h1M10 8h1m5 0h1m11 0h1M10 9h1m5 0h1m-7 1h1m5 0h1m-1 1h1m1 0h1m-3 1h1m2 0h1m-6 1h1m1 0h1m3 0h1m-7 1h1m6 0h1m-8 1h1m7 0h1m1 0h1m-11 1h1m8 0h1m-10 1h1m7 0h1m-9 1h1m7 0h1m-9 1h1m7 0h1m-1 1h1m8 0h1m-14 1h1m3 0h1m3 0h5m-13 1h1m3 0h1m-5 1h1m3 0h1M0 24h2m16 0h1m3 0h1M2 25h2m14 0h1m3 0h1M4 26h2m12 0h1m3 0h1M6 27h2m10 0h1m3 0h1M8 28h2m8 0h1m1 0h2m-12 1h2m6 0h2m-8 1h2m2 0h2m-4 1h2"/><path stroke="#f0f" d="M23 2h1m0 1h1M1 4h1m23 0h1M3 5h1m22 0h1M5 6h1m21 0h1M7 7h1m7 8h3m-1 1h3m-5 1h2m2 0h3m-7 1h4m-3 1h4m-2 1h2m-1 1h1m-1 1h1m-1 1h1m-1 1h1m-1 1h1m-1 1h1m-1 1h1"/><path stroke="maroon" d="M1 3h3M0 4h1m3 0h2M0 5h3m3 0h2M0 6h1m2 0h2m3 0h2M0 7h1m4 0h2m2 0h1M0 8h1m6 0h3M0 9h1m7 0h2M0 10h1m-1 1h1m-1 1h1m-1 1h1m-1 1h1m-1 1h1m-1 1h1m-1 1h1m-1 1h1m-1 1h1m-1 1h1m-1 1h1m-1 1h1m-1 1h1m15 4h2m-3 1h3m-3 1h3m-3 1h1"/><path stroke="olive" d="M7 3h2m0 1h2m0 1h2m2 0h1m-3 1h3m-2 1h2m-2 1h2m-2 1h2m-2 1h2m-2 1h2m-2 1h2m-1 1h1m-1 1h1"/><path stroke="silver" d="M22 3h1m0 1h1m0 1h1m0 1h1m3 0h1m-4 1h1m1 0h1m1 0h1m-4 1h1m1 0h1m-9 1h1m6 0h1m-7 1h1m0 1h1m0 1h1m0 1h1m-2 1h1m1 0h1m-4 1h1m1 0h1m-2 1h1"/><path stroke="red" d="M2 4h2m0 1h2M1 6h2m3 0h2M1 7h4m3 0h1M1 8h6M1 9h7m-7 1h6m-6 1h5m-5 1h5m-5 1h5m-5 1h5m-5 1h5m-5 1h5m-5 1h5m-5 1h5m-5 1h5m-5 1h5m-5 1h5m-5 1h5m-5 1h5m-4 1h6m-4 1h6m-4 1h6m-4 1h6m-4 1h5m-3 1h3m-1 1h1"/><path stroke="green" d="M19 9h2M7 10h3m8 0h2m1 0h1M6 11h1m3 0h2m8 0h1m1 0h1M6 12h3m3 0h2m7 0h1m1 0h1M6 13h1m2 0h2m11 0h1m1 0h1M6 14h1m4 0h3m9 0h1m1 0h1M6 15h1m5 0h2m-8 1h1m5 0h2m-2 1h2m-2 1h2m-2 1h2"/><path stroke="#0f0" d="M8 11h2m9 0h1m-10 1h2m8 0h1M7 13h2m3 0h2m7 0h1M7 14h4m11 0h1M7 15h5m-5 1h5m-5 1h5m-3 1h3m-1 1h1"/><path stroke="navy" d="M6 17h1m-1 1h1m-1 1h1m-1 1h1m5 0h1m-7 1h1m-1 1h1m-1 1h2m0 1h2m0 1h2"/><path stroke="#00f" d="M7 18h2m-2 1h4m-4 1h5m-5 1h5m-5 1h5m-4 1h4m-2 1h2"/><path stroke="teal" d="M26 18h6m-17 1h1m9 0h6m-18 1h1m2 0h2m7 0h1m-14 1h3m10 0h1m-14 1h1m2 0h3m-6 1h1m3 0h2m-6 1h1m3 0h2m-6 1h1m3 0h2m-6 1h2m2 0h2m-4 1h2"/><path stroke="#0ff" d="M14 20h2m10 0h5m-16 1h3m-5 1h2m-2 1h3m-3 1h3m-3 1h3m-2 1h2"/></svg>