<svg xmlns="http://www.w3.org/2000/svg" width="32" height="32" shape-rendering="crispEdges" viewBox="0 -0.5 32 32"><path stroke="gray" d="M4 0h8M3 1h1m8 0h1M2 2h1m10 0h1M1 3h1m12 0h1M0 4h1m14 0h12M0 5h1M0 6h1M0 7h1m7 0h18M0 8h1m7 0h1m16 0h1M0 9h1m7 0h1m16 0h2M0 10h1m7 0h1m16 0h1m1 0h1M0 11h1m7 0h1m16 0h1m2 0h1M0 12h1m7 0h1m16 0h1m3 0h1M0 13h1m7 0h1m16 0h1M0 14h1m7 0h1m-9 1h1m7 0h1m-9 1h1m7 0h1m-9 1h1m7 0h1m-9 1h1m-1 2h1m15 0h1m5 0h1m1 0h1m3 0h1m1 0h2m-18 1h2m2 0h4m3 0h3m1 0h1M0 22h1m15 0h1m1 0h1m3 0h1m3 0h1m3 0h1m-16 1h1m3 0h1m1 0h1m3 0h1m1 0h1m3 0h1m-16 1h1m1 0h1m1 0h1m1 0h1m1 0h1m1 0h1m1 0h1m2 0h1m-17 1h1m1 0h1m1 0h1m1 0h1m1 0h1m3 0h1m1 0h1m-14 1h1m1 0h1m3 0h1m3 0h1m3 0h2m-17 1h1m1 0h1m1 0h1m1 0h1m3 0h1m3 0h1m-14 1h1m5 0h1m1 0h1m6 0h1m-18 1h1m2 0h1m2 0h1m5 0h1m1 0h1m1 0h1M8 31h1m3 0h1m3 0h1m2 0h1m2 0h1m3 0h1m3 0h1"/><path stroke="#fff" d="M4 1h8M3 2h1M2 3h1M1 5h26M1 6h1M1 7h1M1 8h1m7 0h16M1 9h1m7 0h16M1 10h1m7 0h16M1 11h1m7 0h16m1 0h1M1 12h1m7 0h16m1 0h2M1 13h1m7 0h3m8 0h5M1 14h1m7 0h21M1 15h1m7 0h3m16 0h2M1 16h1m7 0h21M1 17h1m7 0h3m16 0h2M1 18h1m9 0h19M1 19h1m26 0h2M8 20h2m4 0h2m1 0h5m1 0h1m1 0h1m1 0h1m1 0h1M1 21h1m6 0h2m12 0h1m1 0h1m3 0h1m1 0h1M8 22h2m5 0h1m1 0h1m1 0h1m1 0h1m1 0h1m1 0h1m1 0h3M8 23h2m6 0h1m1 0h1m1 0h1m1 0h1m1 0h1m1 0h1m1 0h1m1 0h1M8 24h2m5 0h1m1 0h1m1 0h1m1 0h1m1 0h1m1 0h1m1 0h1m-12 1h1m1 0h1m3 0h1m1 0h1m1 0h1m3 0h1M8 26h2m5 0h1m1 0h1m2 0h1m4 0h1m2 0h1M8 27h2m6 0h1m5 0h1m3 1h1m3 0h1m-19 1h1"/><path stroke="#ff0" d="M4 2h1m1 0h1m1 0h1m1 0h1m1 0h1M3 3h1m1 0h1m1 0h1m1 0h1m1 0h1m1 0h1M2 6h1m1 0h1m1 0h1m1 0h1m1 0h1m1 0h1m1 0h1m1 0h1m1 0h1m1 0h1m1 0h1m1 0h1m1 0h1M3 7h1m1 0h1m1 0h1M2 8h1m1 0h1m1 0h1M3 9h1m1 0h1m1 0h1m-6 1h1m1 0h1m1 0h1m-4 1h1m1 0h1m1 0h1m-6 1h1m1 0h1m1 0h1m-4 1h1m1 0h1m1 0h1m-6 1h1m1 0h1m1 0h1m-4 1h1m1 0h1m1 0h1m-6 1h1m1 0h1m1 0h1m-4 1h1m1 0h1m1 0h1m-6 1h1m3 0h1m-4 1h1m-2 1h1m-1 2h1m-2 2h1"/><path stroke="silver" d="M5 2h1m1 0h1m1 0h1m1 0h1M4 3h1m1 0h1m1 0h1m1 0h1m1 0h1M1 4h14M3 6h1m1 0h1m1 0h1m1 0h1m1 0h1m1 0h1m1 0h1m1 0h1m1 0h1m1 0h1m1 0h1m1 0h1M2 7h1m1 0h1m1 0h1m19 0h1M3 8h1m1 0h1m1 0h1M2 9h1m1 0h1m1 0h1m-4 1h1m1 0h1m1 0h1m18 0h1M2 11h1m1 0h1m1 0h1m20 0h1M3 12h1m1 0h1m1 0h1m20 0h1M2 13h1m1 0h1m1 0h1m-4 1h1m1 0h1m1 0h1m22 0h1M2 15h1m1 0h1m1 0h1m23 0h1M3 16h1m1 0h1m1 0h1m22 0h1M2 17h1m1 0h1m1 0h1m23 0h1M3 18h1m1 0h1m24 0h1M2 19h1m1 0h1m25 0h1M1 20h1m24 0h1M3 21h1m12 0h2m5 0h1m-4 1h1m3 0h1m-8 1h1m5 0h1m5 0h1m-1 1h2m-11 1h1m4 0h1m2 0h1m-10 1h1m1 0h1m7 0h1"/><path stroke="#000" d="M27 4h1m-1 1h2m-1 1h1m-1 1h1m-3 1h1m1 0h1m-2 1h2m-1 1h1m0 1h1m0 1h1m-5 1h6m-1 1h1m-1 1h1m-1 1h1m-1 1h1m-1 1h1m-1 1h1m-1 2h1"/><path stroke="olive" d="M27 6h1m-1 1h1m-1 1h1"/><path stroke="#00f" d="M12 13h8m-8 2h16m-16 2h16m-15 2h15"/><path stroke="red" d="M7 18h4m-6 1h8m-9 1h4m2 0h4M4 21h4m2 0h4M3 22h5m2 0h5M3 23h5m2 0h5M3 24h5m2 0h5M3 25h12M4 26h4m2 0h4M4 27h4m2 0h4m-9 1h8m-6 1h4"/></svg>