<svg xmlns="http://www.w3.org/2000/svg" viewBox="0 -0.5 16 16" shape-rendering="crispEdges">
<path stroke="#808080" d="M0 0h1M2 3h13M1 4h1M14 4h1M0 5h1M13 5h2M0 6h1M13 6h2M0 7h1M5 7h4M13 7h2M0 8h1M2 8h3M9 8h3M13 8h2M0 9h1M13 9h2M0 10h14" />
<path stroke="#c0c0c0" d="M0 0h1M2 4h12M1 6h10M12 6h1M1 7h4M9 7h4M1 8h1M12 8h1M1 9h4M9 9h4" />
<path stroke="#000000" d="M0 0h1M15 4h1M15 5h1M15 6h1M15 7h1M5 8h4M15 8h1M15 9h1M14 10h1M1 11h13" />
<path stroke="#ffffff" d="M0 0h1M1 5h12M5 9h4" />
<path stroke="#ff0000" d="M0 0h1M11 6h1" />
</svg>