<svg xmlns="http://www.w3.org/2000/svg" width="32" height="32" shape-rendering="crispEdges" viewBox="0 -0.5 32 32"><path stroke="gray" d="M16 0h3m-4 1h1m3 0h2m-7 1h1m6 0h2M12 3h3m8 0h2M10 4h2m1 0h1M8 5h2m3 0h1M6 6h2m3 0h2m9 0h3M4 7h2m3 0h3m10 0h1m2 0h2M2 8h2m3 0h4m12 0h2m2 0h1M0 9h2m3 0h2m2 0h2m10 0h2m2 0h3M0 10h1m2 0h2m6 0h2m6 0h2m2 0h5m1 0h1M0 11h1m2 0h1m9 0h2m2 0h2m2 0h7m2 0h2M0 12h1m2 0h1m11 0h2m2 0h9m2 0h1M0 13h1m2 0h1m9 0h2m2 0h11m1 0h1M0 14h1m2 0h1m7 0h2m2 0h13M0 15h1m2 0h1m7 0h1m1 0h14M0 16h2m1 0h1m7 0h1m1 0h12M1 17h3m7 0h1m1 0h18M1 18h1m2 0h2m5 0h1m1 0h5m12 0h1M6 19h2m3 0h1m1 0h5m12 0h1M8 20h2m1 0h1m1 0h5m12 0h1m-21 1h2m1 0h2m2 0h1m12 0h1m-19 1h1m2 0h3m12 0h1m-18 1h5m12 0h1m-18 1h2m2 0h1m12 0h1m-14 1h1m12 0h1m-14 1h1m4 0h6m2 0h1m-14 1h1m4 0h1m2 0h1m4 0h1m-14 1h1m4 0h1m2 0h1m4 0h1m-14 1h1m4 0h4m4 0h1m-14 1h5m5 0h4"/><path stroke="#fff" d="M16 1h3m-4 1h6m-6 1h8M12 4h1m1 0h2m2 0h4M10 5h1m3 0h4m2 0h1M8 6h1m4 0h2m2 0h4M6 7h1m7 0h3m2 0h1M4 8h1m11 0h4M2 9h1m15 0h1M1 10h2m-2 1h1m2 0h2m-5 1h1m4 0h2m-7 1h1m6 0h2m-9 1h1m8 0h1M1 15h1m10 0h1m5 3h1m1 0h9m-11 1h1m1 0h9m-11 1h1m1 0h9m-11 1h1m1 0h9m-11 1h1m1 0h9m-11 1h1m1 0h9m-11 1h1m-1 1h1m-1 1h1m-1 1h1m9 0h1m-11 1h1m9 0h1m-11 1h1m9 0h1"/><path stroke="#00f" d="M16 4h2m0 1h2m-5 1h2m0 1h2"/><path stroke="silver" d="M22 4h1M11 5h2m8 0h1M9 6h2M7 7h2m11 0h1m2 0h2M5 8h2m4 0h3m7 0h2m2 0h2M3 9h2m2 0h2m2 0h5m3 0h1m3 0h2M5 10h2m2 0h2m2 0h5m3 0h2M2 11h1m3 0h3m2 0h2m2 0h2m2 0h2m8 0h1M2 12h1m1 0h2m2 0h7m2 0h2m10 0h1M2 13h1m1 0h4m2 0h3m2 0h2M2 14h1m1 0h6m3 0h2M2 15h1m1 0h7m-9 1h1m1 0h7m1 0h1m-9 1h7m1 0h1M2 18h2m2 0h5m1 0h1m6 0h1m9 0h1M2 19h4m2 0h3m1 0h1m6 0h1M4 20h4m2 0h1m1 0h1m6 0h1m9 0h1M6 21h4m2 0h1m6 0h1m9 0h1M8 22h4m7 0h1m9 0h1m-20 1h3m6 0h1m9 0h1m-18 1h1m6 0h11m-11 1h11m-11 1h3m6 0h2m-11 1h3m2 0h1m2 0h1m1 0h1m-11 1h3m2 0h1m2 0h1m1 0h1m-11 1h3m5 0h1m1 0h1"/><path stroke="#000" d="M23 4h2m-3 1h1m-2 1h1M12 7h2m7 0h1m-8 1h2m4 0h1m7 0h1M16 9h2m2 0h1m7 0h1m-11 1h1m9 0h1m-1 1h1m-1 1h1m2 0h1m-4 1h1m1 0h1m-3 1h2m-3 1h2m-4 1h3m3 2h1M1 19h1m27 0h1m1 0h1M2 20h2m27 0h1M4 21h2m9 0h2m14 0h1M6 22h2m5 0h2m16 0h1M8 23h2m21 0h1m-22 1h2m3 0h2m14 0h1m-20 1h3m16 0h1m-1 1h1m-9 1h1m2 0h1m4 0h1m-9 1h1m2 0h1m4 0h1m-6 1h1m4 0h1m-10 1h5m4 0h1m-14 1h13"/><path stroke="#0f0" d="M7 10h2"/><path stroke="red" d="M9 11h2M6 24h1m-2 1h1m-1 1h1m-1 1h1m5 0h1m-6 1h1m4 0h2m-6 1h7m-3 1h2m-2 1h1"/></svg>