<svg xmlns="http://www.w3.org/2000/svg" width="16" height="16" shape-rendering="crispEdges" viewBox="0 -0.5 16 16"><path stroke="gray" d="M2 1h5M1 2h1m5 0h1M0 3h1m7 0h6M0 4h1m12 0h1M0 5h1m7 0h2m3 0h1M0 6h1m6 0h1m5 0h1M0 7h1m5 0h1m6 0h1M0 8h1m3 0h2m3 0h1m3 0h1M0 9h1m3 0h1m2 0h3m3 0h1M0 10h1m6 0h1m5 0h1M0 11h1m12 0h1M0 12h14"/><path stroke="#ff0" d="M2 2h1m1 0h1m1 0h1M1 3h1m1 0h1m1 0h1m1 0h1M2 5h1m1 0h1m1 0h1m3 0h1m1 0h1M3 6h1m1 0h1m5 0h1M2 7h1m1 0h1m5 0h1m1 0h1M3 8h1m7 0h1M2 9h1m9 0h1M3 10h1m7 0h1M2 11h1m1 0h1m3 0h1m1 0h1m1 0h1"/><path stroke="silver" d="M3 2h1m1 0h1M2 3h1m1 0h1m1 0h1M3 5h1m1 0h1m1 0h1m3 0h1M2 6h1m1 0h1m1 0h1m5 0h1M3 7h1m1 0h1m5 0h1M2 8h1m9 0h1M3 9h1m7 0h1M2 10h1m3 0h1m3 0h1m1 0h1M3 11h1m1 0h1m3 0h1m1 0h1"/><path stroke="#fff" d="M1 4h12M1 5h1M1 6h1m6 0h2M1 7h1m5 0h2M1 8h1M1 9h1m3 0h2m-6 1h1m-1 1h1"/><path stroke="#000" d="M14 4h1m-1 1h1m-5 1h1m3 0h1M9 7h1m4 0h1M8 8h1m1 0h1m3 0h1m-5 1h1m3 0h1M4 10h2m2 0h2m4 0h1m-9 1h2m6 0h1m-1 1h1M1 13h14"/><path stroke="#0f0" d="M6 8h1"/><path stroke="red" d="M7 8h1"/></svg>