<svg xmlns="http://www.w3.org/2000/svg" width="32" height="32" shape-rendering="crispEdges" viewBox="0 -0.5 32 32"><path stroke="navy" d="M0 21h8m-8 3h8m-8 1h8m-8 1h8m-8 1h8m-8 1h8m-8 1h8"/><path stroke="#00f" d="M0 22h8m-8 1h8"/><path stroke="#000" d="M8 22h1m-1 1h1m-1 1h1m-1 1h1m11 0h2M8 26h1m7 0h1m5 0h1M8 27h1m8 0h6M8 28h3m10 0h6M8 29h1m2 0h1m14 0h1M0 30h8m4 0h2m10 0h2m-12 1h10"/><path stroke="gray" d="M9 23h9m0 1h2m-2 4h3m4 1h1m-12 1h10"/><path stroke="silver" d="M9 24h1m-1 1h1m-1 1h1m-1 1h3m-1 1h3m-2 1h4m8 0h1"/><path stroke="#fff" d="M10 24h8m-8 1h10m-10 1h6m1 0h5m-10 1h5m-3 1h4m-2 1h8"/></svg>