<svg xmlns="http://www.w3.org/2000/svg" viewBox="0 -0.5 16 16" shape-rendering="crispEdges">
<path stroke="#808080" d="M0 0h1M2 0h5M1 1h1M7 1h1M0 2h1M8 2h6M0 3h1M13 3h1M0 4h1M13 4h1M0 5h1M4 5h11M0 6h1M4 6h1M0 7h1M4 7h2M14 7h1M0 8h1M4 8h2M14 8h1M0 9h1M4 9h1M0 10h1M4 10h1M0 11h5M4 12h1M4 13h1M4 14h1" />
<path stroke="#c0c0c0" d="M0 0h1M2 1h1M4 1h1M6 1h1M1 2h1M3 2h1M5 2h1M7 2h1M3 4h1M5 4h1M7 4h1M9 4h1M11 4h1M2 5h1M3 6h1M5 6h10M2 7h1M3 8h1M2 9h1M14 9h1M3 10h1M14 10h1M14 11h1M14 12h1M14 13h1M5 14h10" />
<path stroke="#ffff00" d="M0 0h1M3 1h1M5 1h1M2 2h1M4 2h1M6 2h1M2 4h1M4 4h1M6 4h1M8 4h1M10 4h1M12 4h1M3 5h1M2 6h1M3 7h1M2 8h1M3 9h1M2 10h1M7 10h1" />
<path stroke="#ffffff" d="M0 0h1M1 3h12M1 4h1M1 5h1M1 6h1M1 7h1M1 8h1M1 9h1M5 9h9M1 10h1M5 10h2M9 10h2M12 10h2M5 11h1M9 11h1M13 11h1M5 12h2M8 12h3M13 12h1M5 13h9" />
<path stroke="#000000" d="M0 0h1M14 3h1M14 4h1M15 5h1M15 6h1M15 7h1M15 8h1M15 9h1M15 10h1M15 11h1M1 12h3M15 12h1M15 13h1M15 14h1M4 15h12" />
<path stroke="#000080" d="M0 0h1M6 7h8M6 8h8" />
<path stroke="#800000" d="M0 0h1M8 10h1M6 11h1M8 11h1M7 12h1" />
<path stroke="#0000ff" d="M0 0h1M11 10h1M12 11h1" />
<path stroke="#ff0000" d="M0 0h1M7 11h1" />
<path stroke="#008000" d="M0 0h1M10 11h1M11 12h2" />
<path stroke="#00ffff" d="M0 0h1M11 11h1" />
</svg>