<svg xmlns="http://www.w3.org/2000/svg" width="32" height="32" shape-rendering="crispEdges" viewBox="0 -0.5 32 32"><path stroke="olive" d="M23 0h1m-2 1h1m1 0h1m-3 1h1m2 0h1m-3 1h1m1 0h1m0 1h1m-1 1h1m-2 1h1m1 0h1m-1 1h1m-2 1h2m-2 1h1m-1 1h1m-1 1h1m-1 1h1m-1 1h1m-2 1h1m-1 1h1m-2 1h1M6 17h2m15 0h2M5 18h1m2 0h1m13 0h2M6 19h1m14 0h2M7 20h2m2 0h1m7 0h2M9 21h2m2 0h6m-8 1h3m1 1h1m-4 1h1m1 0h3m-8 1h3m4 0h3M7 26h2m3 0h3m4 0h3M6 27h1m2 0h2m7 0h2m2 0h2M6 28h1m4 0h5m4 0h4M7 29h2m10 0h3M9 30h8"/><path stroke="teal" d="M12 1h1m1 0h3m-7 1h2m7 0h2M9 3h1M8 4h1M7 5h1m15 0h1M7 6h1m15 0h1M6 7h1m16 0h1m-2 1h2M6 9h1m17 0h1M6 10h1m17 0h1M6 11h1m15 0h1m1 0h1m-4 1h1m1 0h1M7 14h1m12 0h1M7 15h1m11 0h1m-3 1h1m2 0h2m-9 1h1m2 0h1m1 0h2m-7 1h1m3 0h4m-7 1h3"/><path stroke="#f0f" d="M13 1h1m3 0h2m-5 1h3m-7 1h1m2 0h1m3 0h1m-6 1h1m5 0h2M8 5h1m1 0h1m9 0h1m0 1h1M9 7h1M6 8h1m1 0h1m8 0h1m-8 1h1m7 0h1M7 10h1m3 0h1m7 0h1M7 11h1m4 0h1m5 0h1m1 0h1M6 12h1m1 0h1m4 0h1m3 0h1M6 13h1m2 0h1m4 0h1m1 0h1m-8 1h1m5 0h1m-6 1h1m5 0h1m-6 1h1"/><path stroke="#fff" d="M23 1h1m-1 1h1m-9 3h1m-4 1h1m1 0h1m1 0h1m-6 1h1m1 0h1m1 0h1m-4 1h1m1 0h1m1 0h1m-6 1h1m1 0h1m1 0h1m-4 1h1m1 0h1m-9 8h1m5 7h1m-4 1h2m-3 1h1m-2 1h2"/><path stroke="#0ff" d="M12 2h2m3 0h2m-8 1h2m1 0h3m1 0h1M9 4h2m2 0h5M9 5h1m1 0h2m-3 1h2m1 0h1m3 0h1m-8 1h1m1 0h1m4 0h2M9 8h1m1 0h1m3 0h1m5 0h1M9 9h1m4 0h1m1 0h1m-8 1h2m2 0h1m1 0h2m-9 1h2m1 0h1m1 0h4M7 12h1m1 0h1m1 0h2m1 0h3M7 13h2m1 0h4m1 0h1m1 0h1m-5 1h2m1 0h2m-3 1h1m2 0h1m-6 1h4"/><path stroke="#000" d="M21 2h1m0 1h1m0 1h1m0 1h1m-1 1h1m0 1h1m-1 1h1m-1 1h1m1 0h1m-3 1h1m1 0h1m-3 1h1m1 0h1m-3 1h1m1 0h1m-3 1h1m1 0h1m-4 1h1m1 0h1m-3 1h1m1 0h1M7 16h1m15 0h1m1 0h1M8 17h1m13 0h1m2 0h1M9 18h1m11 0h1m2 0h1m-15 1h2m7 0h2m2 0h1m-12 1h7m2 0h2m-4 1h2m-7 1h5m-5 1h1m1 0h1m-4 1h1m3 0h2m0 1h3m-7 1h4m3 0h2m-4 1h2m2 0h1m-9 1h4m4 0h1M6 29h1m15 0h3M7 30h2m8 0h7M9 31h13"/><path stroke="#ff0" d="M24 2h1m-1 1h1m-1 1h2m-1 1h1m0 1h1m-1 1h1M7 18h1m-1 1h3m-1 1h2m0 1h2m0 4h3m-5 1h1m-5 1h1m3 0h7m-9 1h2m-2 1h10"/><path stroke="#0f0" d="M19 3h1m0 1h1m-3 1h2m1 0h1M8 6h1m9 0h3M7 7h2m10 0h2M7 8h1m0 1h1m-1 1h1"/><path stroke="gray" d="M20 3h2M11 4h1m10 0h1M13 5h2m1 0h2m4 0h1M9 6h1m5 0h1m-2 1h1m1 0h1m4 0h2M13 8h1m6 0h1M7 9h1m4 0h1m7 0h1m-11 2h1m-1 1h1m11 1h2m-2 1h2M8 15h1m4 0h2m6 0h1m1 0h1M8 16h1m3 0h1m-4 1h2m1 0h1m-3 1h3"/><path stroke="silver" d="M21 4h1m0 2h1M10 8h1m11 1h1m-1 1h1m-3 2h1m-4 3h1m-9 1h1m1 1h1m2 0h2"/><path stroke="purple" d="M24 7h1m-1 1h1m-2 1h1m-1 1h1m-1 1h1m-2 1h1m1 0h1m-4 1h1m2 0h1m-4 1h1m-2 1h1m1 0h1m-5 1h2m2 0h1m-6 1h1m2 0h2m-8 1h3m-5 1h2m3 0h2"/><path stroke="green" d="M18 8h2m-3 1h1m1 0h1m1 0h1m-5 1h2m1 0h2m-5 1h1m1 0h1m1 0h1m-4 1h2m-2 1h3M8 14h1m1 0h3m5 0h2M9 15h1m1 0h2m-3 1h1"/></svg>