<svg xmlns="http://www.w3.org/2000/svg" viewBox="0 -0.5 16 16" shape-rendering="crispEdges">
<path stroke="#808080" d="M0 0h11M1 1h1M11 1h1M1 2h1M12 2h1M1 3h1M1 4h1M1 5h1M1 6h1M1 7h1M6 7h2M1 8h1M8 8h1M1 9h1M5 9h1M8 9h2M1 10h1M1 11h1M1 12h1M1 13h1M1 14h1" />
<path stroke="#ffffff" d="M0 0h1M2 1h8M2 2h8M11 2h1M2 3h8M2 4h10M2 5h2M7 5h5M2 6h2M8 6h4M2 7h1M9 7h3M2 8h2M7 8h1M10 8h2M2 9h3M6 9h1M11 9h1M2 10h4M10 10h2M2 11h5M9 11h3M2 12h10M2 13h10" />
<path stroke="#c0c0c0" d="M0 0h1M10 1h1M10 2h1M12 4h1M12 5h1M12 6h1M12 7h1M5 8h1M12 8h1M12 9h1M7 10h2M12 10h1M12 11h1M12 12h1M12 13h1M2 14h11" />
<path stroke="#000000" d="M0 0h1M10 3h4M13 4h1M6 5h1M13 5h1M4 6h1M7 6h1M13 6h1M5 7h1M8 7h1M13 7h1M4 8h1M6 8h1M9 8h1M13 8h1M7 9h1M10 9h1M13 9h1M6 10h1M9 10h1M13 10h1M7 11h2M13 11h1M13 12h1M13 13h1M13 14h1M1 15h13" />
<path stroke="#808000" d="M0 0h1M4 5h2M6 6h1M3 7h1" />
<path stroke="#ffff00" d="M0 0h1M5 6h1M4 7h1" />
</svg>