<svg xmlns="http://www.w3.org/2000/svg" width="16" height="16" shape-rendering="crispEdges" viewBox="0 -0.5 16 16"><path stroke="gray" d="M2 0h13M1 1h1m12 0h1M0 2h1m12 0h2M0 3h1m12 0h2M0 4h1m12 0h2M0 5h1m1 0h10m1 0h2M0 6h1m12 0h1m-6 4h1"/><path stroke="silver" d="M2 1h12M1 3h10M1 4h12M1 5h1m10 0h1M1 6h1m10 0h1M7 9h1m-8 1h5m2 0h1m3 0h5"/><path stroke="#000" d="M15 1h1m-1 1h1m-1 1h1m-1 1h1m-1 1h1m-2 1h1M1 7h13M7 8h2M8 9h1m-9 2h6m4 0h6"/><path stroke="#fff" d="M1 2h12M2 6h10"/><path stroke="green" d="M11 3h1"/><path stroke="#0f0" d="M12 3h1"/><path stroke="red" d="M5 10h2m2 0h2m-5 1h4m-3 1h2m-3 1h4m-5 1h2m2 0h2"/></svg>