<svg xmlns="http://www.w3.org/2000/svg" width="16" height="16" shape-rendering="crispEdges" viewBox="0 -0.5 16 16"><path stroke="gray" d="M3 0h9M3 1h1m8 0h1M3 2h1m9 0h1M3 3h1M3 4h2M2 5h1M1 6h1M1 7h1M1 8h1m0 1h1m4 0h2m-6 1h1m2 0h1m-4 1h1m-1 1h1"/><path stroke="#fff" d="M4 1h7M4 2h7m1 0h1M4 3h7M7 4h6M3 5h1m1 0h1m2 0h5M2 6h1m1 0h1m4 0h4M3 7h1m5 0h4M2 8h1m6 0h4m-3 1h3m-2 1h2m-9 1h3m5 0h1"/><path stroke="silver" d="M11 1h1m-1 1h1M6 4h1m6 0h1M7 5h1m5 0h1M6 6h1m1 0h1m4 0h1M5 7h1m2 0h1m4 0h1M4 8h1m1 0h1m1 0h1m4 0h1M3 9h1m1 0h1m3 0h1m3 0h1m-7 1h1m2 0h1m2 0h1m-3 1h1m1 0h1M4 12h4m4 0h2"/><path stroke="#000" d="M11 3h4M5 4h1m8 0h1M6 5h1m7 0h1M7 6h1m6 0h1M7 7h1m6 0h1M7 8h1m6 0h1M6 9h1m7 0h1M4 10h2m8 0h1m-1 1h1m-1 1h1M3 13h6m4 0h2m-2 1h1m-3 1h2"/><path stroke="#0ff" d="M4 5h1M3 6h1m1 0h1M2 7h1m1 0h1m1 0h1M3 8h1m1 0h1M4 9h1m3 2h1m0 1h1m0 1h1m0 1h1"/><path stroke="#00f" d="M8 10h2m-1 1h2m-1 1h2m-1 1h2m-1 1h1"/><path stroke="navy" d="M7 11h1m0 1h1m0 1h1m0 1h1"/></svg>