<svg xmlns="http://www.w3.org/2000/svg" width="32" height="32" shape-rendering="crispEdges" viewBox="0 -0.5 32 32"><path stroke="gray" d="M4 0h20M4 1h1m18 0h1M4 2h1m18 0h2M4 3h1m18 0h1m1 0h1M4 4h1m18 0h1m2 0h1M4 5h1m18 0h1m3 0h1M4 6h1m18 0h1M4 7h1M4 8h1M4 9h1m-1 1h1m-1 1h1m-1 1h1m-1 1h1m-1 1h1m-1 1h1m-1 1h1m-1 1h1m-1 1h1m-1 1h1m-1 1h1m-1 1h1m-1 1h1m-1 1h1m-1 1h1m-1 1h1m-1 1h1m-1 1h1m-1 1h1m-1 1h1m-1 1h1"/><path stroke="#fff" d="M5 1h18M5 2h18M5 3h18M5 4h18m1 0h1M5 5h18m1 0h2M5 6h18M5 7h23M5 8h23M5 9h23M5 10h13m4 0h6M5 11h11m8 0h4M5 12h4m1 0h5m10 0h3M5 13h4m1 0h1m1 0h1m12 0h3M5 14h6m14 0h3M5 15h4m1 0h5m10 0h3M5 16h4m1 0h1m1 0h1m12 0h3M5 17h6m14 0h3M5 18h4m1 0h5m10 0h3M5 19h4m1 0h1m1 0h1m12 0h3M5 20h6m14 0h3M5 21h4m1 0h5m10 0h3M5 22h4m1 0h1m1 0h1m5 0h4m3 0h3M5 23h6m5 0h8m1 0h3M5 24h23M5 25h23M5 26h23M5 27h23M5 28h23M5 29h23"/><path stroke="#000" d="M24 1h1m0 1h1m0 1h1m0 1h1m0 1h1m-5 1h6m-1 1h1m-1 1h1m-1 1h1m-12 1h4m7 0h1m-14 1h8m5 0h1M9 12h1m5 0h3m1 0h1m2 0h3m4 0h1M9 13h1m1 0h1m1 0h4m2 0h1m3 0h2m4 0h1m-19 1h5m3 0h1m3 0h2m4 0h1m-15 1h1m2 0h4m1 0h2m4 0h1m-15 1h1m1 0h8m4 0h1m-15 1h3m1 0h1m2 0h3m4 0h1m-15 1h2m2 0h1m3 0h2m4 0h1m-15 1h1m3 0h1m3 0h2m4 0h1m-15 1h1m2 0h4m1 0h2m4 0h1M9 21h1m5 0h1m1 0h8m4 0h1M9 22h1m1 0h1m1 0h5m4 0h3m4 0h1m-19 1h5m8 0h1m4 0h1m-1 1h1m-1 1h1m-1 1h1m-1 1h1m-1 1h1m-1 1h1m-1 1h1M4 31h26"/><path stroke="silver" d="M24 3h1m0 1h1m0 1h1m1 2h1m-1 1h1m-1 1h1m-1 1h1m-1 1h1m-1 1h1m-1 1h1m-1 1h1m-1 1h1m-1 1h1m-1 1h1m-1 1h1m-1 1h1m-1 1h1m-1 1h1m-1 1h1m-1 1h1m-1 1h1m-1 1h1m-1 1h1m-1 1h1m-1 1h1m-1 1h1M5 30h24"/><path stroke="red" d="M18 12h1m-2 1h2m-3 1h3M9 15h1m6 0h2m-9 1h1m1 0h1m1 0h2m-4 1h4"/><path stroke="green" d="M20 12h2m-2 1h3m-3 1h3m-1 1h1"/><path stroke="maroon" d="M16 16h1"/><path stroke="#00f" d="M18 17h1M9 18h1m7 0h2M9 19h1m1 0h1m1 0h2m1 0h3m-8 1h4m1 0h2"/><path stroke="#ff0" d="M20 17h2m-2 1h3m-3 1h3m-1 1h1"/><path stroke="navy" d="M16 21h1"/></svg>