<svg xmlns="http://www.w3.org/2000/svg" viewBox="0 -0.5 16 16" shape-rendering="crispEdges">
<path stroke="#808080" d="M0 0h11M1 1h1M11 1h1M1 2h1M3 2h3M12 2h1M1 3h1M5 3h1M1 4h1M5 4h1M1 5h1M5 5h1M1 6h1M1 7h1M1 8h1M1 9h1M1 10h1M1 11h1M1 12h1M1 13h1M1 14h1" />
<path stroke="#ffffff" d="M0 0h1M2 1h8M2 2h1M6 2h4M11 2h1M2 3h1M4 3h1M6 3h4M2 4h1M4 4h1M6 4h1M11 4h1M2 5h1M6 5h6M2 6h1M6 6h1M11 6h1M2 7h10M2 8h1M9 8h1M11 8h1M2 9h7M11 9h1M2 10h1M7 10h1M9 10h1M11 10h1M2 11h5M11 11h1M2 12h1M5 12h1M7 12h3M11 12h1M2 13h10" />
<path stroke="#c0c0c0" d="M0 0h1M10 1h1M10 2h1M12 4h1M12 5h1M12 6h1M12 7h1M12 8h1M12 9h1M12 10h1M12 11h1M12 12h1M12 13h1M2 14h11" />
<path stroke="#0000ff" d="M0 0h1M3 3h1M3 4h1M7 4h4M7 6h4M3 8h6M3 10h4M3 12h2" />
<path stroke="#000000" d="M0 0h1M10 3h4M13 4h1M13 5h1M3 6h3M13 6h1M13 7h1M13 8h1M13 9h1M13 10h1M13 11h1M13 12h1M13 13h1M13 14h1M1 15h13" />
<path stroke="#ff0000" d="M0 0h1M3 5h2M10 8h1M9 9h2M8 10h1M10 10h1M7 11h4M6 12h1M10 12h1" />
</svg>