<svg xmlns="http://www.w3.org/2000/svg" viewBox="0 -0.5 16 16" shape-rendering="crispEdges">
<path stroke="#808080" d="M0 0h1M9 1h3M7 2h2M12 2h2M6 3h1M5 4h1M5 5h1M9 5h1M11 5h1M5 6h1M5 7h1M9 7h1M11 7h1M1 8h5M0 9h1M6 9h1M0 10h1M7 10h2M0 11h1M13 11h1M0 12h1M13 12h1M0 13h14" />
<path stroke="#ffff00" d="M0 0h1M9 2h2M9 3h2M9 4h2M12 8h1M13 9h1" />
<path stroke="#c0c0c0" d="M0 0h1M11 2h1M11 3h3M11 4h2M14 4h1M6 5h1M13 5h2M6 6h2M12 6h3M6 7h3M13 7h2M6 8h3M10 8h2M7 9h1M9 9h3M2 10h5M9 10h3M12 11h1M2 12h2M9 12h4" />
<path stroke="#00ffff" d="M0 0h1M7 3h2M8 4h1M12 7h1M13 8h2" />
<path stroke="#000000" d="M0 0h1M14 3h1M15 4h1M10 5h1M15 5h1M9 6h1M11 6h1M15 6h1M10 7h1M15 7h1M15 8h1M14 9h1M12 10h3M4 11h8M14 11h1M14 12h1M14 13h1M1 14h13" />
<path stroke="#00ff00" d="M0 0h1M6 4h2M7 5h2M8 6h1M12 9h1M2 11h1" />
<path stroke="#ffffff" d="M0 0h1M13 4h1M12 5h1M9 8h1M1 9h5M8 9h1M1 10h1M1 11h1M1 12h1M4 12h5" />
<path stroke="#008000" d="M0 0h1M3 11h1" />
</svg>