<svg xmlns="http://www.w3.org/2000/svg" width="32" height="32" shape-rendering="crispEdges" viewBox="0 -0.5 32 32"><path stroke="gray" d="M3 0h20M3 1h1m18 0h1M3 2h1m18 0h2M3 3h1m18 0h1m1 0h1M3 4h1m18 0h1m2 0h1M3 5h1m18 0h1m3 0h1M3 6h1m18 0h1M3 7h1M3 8h1M3 9h1m-1 1h1m-1 1h1m-1 1h1m-1 1h1m-1 1h1m-1 1h1m-1 1h1m-1 1h1m-1 1h1m-1 1h1m-1 1h1m-1 1h1m-1 1h1m-1 1h1m-1 1h1m-1 1h1m-1 1h1m-1 1h1m-1 1h1m-1 1h1m-1 1h1"/><path stroke="#fff" d="M4 1h18M4 2h18M4 3h18M4 4h18m1 0h1M4 5h18m1 0h2M4 6h18M4 7h23M4 8h23M4 9h11m1 0h11M4 10h11m3 0h9M4 11h10m4 0h9M4 12h10m5 0h8M4 13h9m6 0h8M4 14h9m7 0h7M4 15h8m2 0h2m4 0h7M4 16h8m2 0h2m5 0h6M4 17h7m2 0h4m4 0h6M4 18h7m2 0h4m5 0h5M4 19h6m2 0h6m4 0h5M4 20h6m13 0h4M4 21h5m2 0h7m5 0h4M4 22h5m2 0h8m5 0h3M4 23h4m2 0h9m5 0h3M4 24h2m6 0h5m8 0h2M4 25h3m6 0h5m8 0h1M4 26h23M4 27h23M4 28h23M4 29h23"/><path stroke="#000" d="M23 1h1m0 1h1m0 1h1m0 1h1m0 1h1m-5 1h6m-1 1h1m-1 1h1m-1 1h1m-1 1h1m-1 1h1m-1 1h1m-1 1h1m-1 1h1m-1 1h1m-1 1h1m-1 1h1m-1 1h1m-1 1h1m-1 1h1m-1 1h1m-1 1h1m-1 1h1m-1 1h1m-1 1h1m-1 1h1m-1 1h1m-1 1h1m-1 1h1m-1 1h1M3 31h26"/><path stroke="silver" d="M23 3h1m0 1h1m0 1h1m1 2h1m-1 1h1m-1 1h1m-11 1h1m9 0h1m-11 1h1m9 0h1m-10 1h1m8 0h1m-14 1h1m3 0h1m8 0h1m-14 1h1m4 0h1m7 0h1m-15 1h1m5 0h1m7 0h1m-15 1h1m6 0h1m6 0h1m-16 1h1m7 0h1m6 0h1m-16 1h1m8 0h1m5 0h1m-17 1h1m9 0h1m5 0h1m-6 1h1m4 0h1m-18 1h1m11 0h1m4 0h1m-18 1h1m12 0h1m3 0h1M9 23h1m13 0h1m3 0h1m-1 1h1M7 25h6m5 0h8m1 0h1m-1 1h1m-1 1h1m-1 1h1m-1 1h1M4 30h24"/><path stroke="red" d="M15 9h1m-1 1h2m-3 1h3m-3 1h4m-5 1h1m1 0h3m-5 1h1m1 0h4m-7 1h1m3 0h3m-7 1h1m3 0h4m-9 1h1m5 0h3m-9 1h1m5 0h4m-11 1h1m7 0h3m-11 1h12M9 21h1m8 0h4M9 22h1m9 0h4M8 23h1m10 0h4M6 24h6m5 0h8"/></svg>