<svg xmlns="http://www.w3.org/2000/svg" width="32" height="32" shape-rendering="crispEdges" viewBox="0 -0.5 32 32"><path stroke="gray" d="M10 4h13M10 5h1m11 0h1M10 6h1m11 0h2M8 7h4m10 0h1m1 0h1M6 8h2m14 0h1m2 0h1M5 9h1m-1 1h1m9 0h1M4 11h1m11 0h1M4 12h1m11 0h1M4 13h1m11 0h1M4 14h1m6 0h3m2 0h1M5 15h1m9 0h1M5 16h1m5 0h2m2 0h1M6 17h2m6 0h1m1 0h1m-3 1h1m2 0h1m-8 1h2m6 0h1m-9 1h1m1 0h1m6 0h1m-10 1h1m2 0h1m6 0h1m-11 1h1m10 0h1m-12 1h1m11 0h1m-13 1h1"/><path stroke="#fff" d="M11 5h11M11 6h11m-9 1h9m1 0h1M8 8h1m1 0h1m3 0h8m1 0h2M7 9h1m7 0h7M6 10h1m1 0h1m11 0h6M5 11h1m1 0h2m8 0h9M6 12h1m1 0h1m8 0h9M5 13h1m1 0h2m15 0h2M6 14h1m1 0h1m8 0h9M7 15h1m16 0h2M8 16h1m7 0h10m-2 1h2m-8 1h8m-13 1h1m10 0h2m-15 1h1m8 0h6m-15 1h2m8 0h5m-15 1h3m8 0h4m-15 1h4m8 0h3"/><path stroke="#000" d="M23 5h1m0 1h1m0 1h1M13 8h1m12 0h1M14 9h1m7 0h6m-14 1h1m12 0h1m-13 1h1m11 0h1m-13 1h1m11 0h1m-13 1h1m11 0h1m-13 1h1m11 0h1m-14 1h1m12 0h1m-14 1h1m12 0h1m-15 1h1m1 0h1m11 0h1M8 18h5m3 0h1m10 0h1m-11 1h1m9 0h1m-10 1h1m8 0h1m-9 1h1m7 0h1m-8 1h1m6 0h1m-7 1h1m5 0h1m-6 1h1m4 0h1m-18 1h7m5 0h6m-6 1h1m-4 1h3"/><path stroke="silver" d="M12 7h1M9 8h1M9 9h1m1 0h1m-3 1h2m1 0h1m3 0h4m6 0h1M9 11h1m1 0h1m1 0h1m12 0h1M9 12h2m1 0h1m13 0h1M9 13h1m1 0h1m1 0h1m3 0h7m2 0h1M9 14h2m15 0h1M9 15h1m1 0h1m4 0h8m2 0h1M6 16h1m2 0h2m15 0h1M9 17h1m1 0h1m5 0h7m2 0h1m-14 1h1m12 0h1m-15 1h1m1 0h1m4 0h5m2 0h1m-1 1h1m-1 1h1m-1 1h1m-1 1h1m-16 1h5m7 0h4"/><path stroke="#0ff" d="M11 8h1M6 9h1m1 0h1m1 0h1m1 0h1m-6 1h1m3 0h1m1 0h1m-8 1h1m3 0h1m1 0h1m-8 1h1m1 0h1m3 0h1m1 0h1m-8 1h1m3 0h1m1 0h1m-8 1h1m1 0h1m-2 1h1m1 0h1m1 0h1m1 0h1m-6 1h1m0 1h1m1 0h1m3 3h2m-1 1h2m-1 1h2m-1 1h2m-1 1h2m-1 1h2m-1 1h1"/><path stroke="teal" d="M12 8h1m0 1h1m0 2h1m-1 1h1m-1 1h1m-1 1h1m-2 1h1m-1 1h1m-2 1h1"/><path stroke="#00f" d="M15 18h1m-1 1h2m-4 1h1m2 0h2m-4 1h1m2 0h2m-4 1h1m2 0h2m-4 1h1m2 0h2m-4 1h1m2 0h2m-4 1h1m2 0h1m-3 1h1m1 0h1"/><path stroke="navy" d="M14 22h1m0 1h1m0 1h1m0 1h1m0 1h1"/></svg>