<svg xmlns="http://www.w3.org/2000/svg" width="16" height="16" shape-rendering="crispEdges" viewBox="0 -0.5 16 16"><path stroke="gray" d="M2 0h5M1 1h1m5 0h1M0 2h1m7 0h6M0 3h1m12 0h1M0 4h1m12 0h1M0 5h1m3 0h11M0 6h1m3 0h1M0 7h1m3 0h1M0 8h1m3 0h1M0 9h1m3 0h1m-5 1h1m3 0h1m-5 1h5m-1 1h1m-1 1h1m-1 1h1"/><path stroke="silver" d="M2 1h1m1 0h1m1 0h1M1 2h1m1 0h1m1 0h1m1 0h1M3 4h1m1 0h1m1 0h1m1 0h1m1 0h1M2 5h1m0 1h1m1 0h10M2 7h1m2 0h1m8 0h1M3 8h1m1 0h1m8 0h1M2 9h1m11 0h1M3 10h1m10 0h1m-1 1h1m-4 1h1m2 0h1m-1 1h1M5 14h10"/><path stroke="#ff0" d="M3 1h1m1 0h1M2 2h1m1 0h1m1 0h1M2 4h1m1 0h1m1 0h1m1 0h1m1 0h1m1 0h1M3 5h1M2 6h1m0 1h1M2 8h1m0 1h1m-2 1h1m4 0h1"/><path stroke="#fff" d="M1 3h12M1 4h1M1 5h1M1 6h1M1 7h1M1 8h1M1 9h1m3 0h9M1 10h1m3 0h2m2 0h2m1 0h2m-9 1h1m3 0h2m2 0h1m-9 1h2m1 0h2m3 0h1m-9 1h9"/><path stroke="#000" d="M14 3h1m-1 1h1m0 1h1m-1 1h1m-1 1h1m-1 1h1m-1 1h1m-1 1h1m-1 1h1M1 12h3m11 0h1m-1 1h1m-1 1h1M4 15h12"/><path stroke="navy" d="M6 7h8M6 8h8"/><path stroke="maroon" d="M8 10h1m-3 1h1m1 0h1m-2 1h1"/><path stroke="#00f" d="M11 10h1m0 1h1"/><path stroke="red" d="M7 11h1"/><path stroke="#0ff" d="M11 11h1"/><path stroke="purple" d="M10 12h1m1 0h1"/></svg>