<svg xmlns="http://www.w3.org/2000/svg" width="16" height="16" shape-rendering="crispEdges" viewBox="0 -0.5 16 16"><path stroke="gray" d="M4 0h7M3 1h1M2 2h7M2 3h1m6 0h1M2 4h1m6 0h1M2 5h1M2 6h1M2 7h1M2 8h1M2 9h1m-1 1h1m-1 1h1m-1 1h1m-1 1h1m-1 1h1"/><path stroke="#000" d="M11 0h2m-3 1h1m1 0h2M9 2h1m1 0h1m1 0h2m-5 1h1m1 0h1m1 0h1m-4 1h1m1 0h2M9 5h4m1 0h1m-3 1h1m1 0h1m-3 1h1m1 0h1m-3 1h1m1 0h1m-3 1h1m1 0h1m-3 1h1m1 0h1m-3 1h1m1 0h1m-3 1h1m1 0h1m-3 1h1m1 0h1m-3 1h2M2 15h11"/><path stroke="silver" d="M4 1h6m1 0h1m-2 1h1m1 0h1m-2 1h1m1 0h1m-2 1h1m0 1h1m-3 1h1m1 0h1m-3 1h1m1 0h1m-3 1h1m1 0h1m-3 1h1m1 0h1m-3 1h1m1 0h1m-3 1h1m1 0h1m-3 1h1m1 0h1m-3 1h1m1 0h1M3 14h9"/><path stroke="#fff" d="M3 3h6M3 4h6m1 0h1M3 5h6M3 6h8M3 7h8M3 8h8M3 9h8m-8 1h8m-8 1h8m-8 1h8m-8 1h8"/></svg>