<svg xmlns="http://www.w3.org/2000/svg" viewBox="0 -0.5 16 16" shape-rendering="crispEdges">
<path stroke="#808080" d="M0 0h1M2 0h13M1 1h1M14 1h1M0 2h1M13 2h2M0 3h1M13 3h2M0 4h1M13 4h2M0 5h1M2 5h10M13 5h2M0 6h1M13 6h1M8 10h1" />
<path stroke="#c0c0c0" d="M0 0h1M2 1h12M1 3h10M1 4h12M1 5h1M12 5h1M1 6h1M12 6h1M7 9h1M0 10h5M7 10h1M11 10h5" />
<path stroke="#000000" d="M0 0h1M15 1h1M15 2h1M15 3h1M15 4h1M15 5h1M14 6h1M1 7h13M7 8h2M8 9h1M0 11h6M10 11h6" />
<path stroke="#ffffff" d="M0 0h1M1 2h12M2 6h10" />
<path stroke="#008000" d="M0 0h1M11 3h1" />
<path stroke="#00ff00" d="M0 0h1M12 3h1" />
<path stroke="#ff0000" d="M0 0h1M5 10h2M9 10h2M6 11h4M7 12h2M6 13h4M5 14h2M9 14h2" />
</svg>