<svg xmlns="http://www.w3.org/2000/svg" viewBox="0 -0.5 16 16" shape-rendering="crispEdges">
<path stroke="#808080" d="M0 0h1M2 0h9M2 1h1M11 1h1M2 2h1M12 2h1M2 3h1M2 4h2M1 5h1M0 6h1M0 7h1M0 8h1M1 9h1M6 9h2M2 10h1M5 10h1M2 11h1M2 12h1" />
<path stroke="#ffffff" d="M0 0h1M3 1h7M3 2h7M11 2h1M3 3h7M6 4h6M2 5h1M4 5h1M7 5h5M1 6h1M3 6h1M8 6h4M2 7h1M8 7h4M1 8h1M8 8h4M9 9h3M10 10h2M3 11h3M11 11h1" />
<path stroke="#c0c0c0" d="M0 0h1M10 1h1M10 2h1M5 4h1M12 4h1M6 5h1M12 5h1M5 6h1M7 6h1M12 6h1M4 7h1M7 7h1M12 7h1M3 8h1M5 8h1M7 8h1M12 8h1M2 9h1M4 9h1M8 9h1M12 9h1M6 10h1M9 10h1M12 10h1M10 11h1M12 11h1M3 12h4M11 12h2" />
<path stroke="#000000" d="M0 0h1M10 3h4M4 4h1M13 4h1M5 5h1M13 5h1M6 6h1M13 6h1M6 7h1M13 7h1M6 8h1M13 8h1M5 9h1M13 9h1M3 10h2M13 10h1M13 11h1M13 12h1M2 13h6M12 13h2M12 14h1M10 15h2" />
<path stroke="#00ffff" d="M0 0h1M3 5h1M2 6h1M4 6h1M1 7h1M3 7h1M5 7h1M2 8h1M4 8h1M3 9h1M7 11h1M8 12h1M9 13h1M10 14h1" />
<path stroke="#0000ff" d="M0 0h1M7 10h2M8 11h2M9 12h2M10 13h2M11 14h1" />
<path stroke="#000080" d="M0 0h1M6 11h1M7 12h1M8 13h1M9 14h1" />
</svg>