<svg xmlns="http://www.w3.org/2000/svg" width="32" height="32" shape-rendering="crispEdges" viewBox="0 -0.5 32 32"><path stroke="gray" d="M16 0h6m-9 1h3m-5 1h3m-4 1h1M9 4h1M8 5h1M8 6h1m19 0h1M7 7h1m19 0h1m1 0h1M7 8h1m18 0h1m1 0h1M6 9h1m10 0h4m4 0h1m1 0h1m1 0h1M6 10h1m9 0h1m4 0h1m2 0h1m1 0h1m1 0h1m1 0h1M6 11h1m8 0h1m6 0h2m1 0h1m1 0h1m1 0h1M6 12h1m8 0h1m6 0h1M6 13h2m1 0h1m1 0h1m1 0h1m1 0h1m6 0h1M6 14h1m1 0h1m1 0h1m1 0h1m1 0h2m6 0h1M6 15h2m1 0h1m1 0h1m1 0h1m2 0h1m4 0h1M6 16h1m1 0h1m1 0h1m1 0h1m4 0h4M3 17h5m1 0h1m1 0h1M2 18h1m4 0h2m1 0h1M1 19h1m6 0h2M0 20h1m7 0h1m-9 1h1m8 0h1M0 22h1m9 0h1m17 0h1M0 23h1m2 0h10m11 0h1m2 0h2M0 24h1m12 0h3m9 0h4M0 25h1m13 0h1m7 0h3m1 0h3M0 26h1m16 0h6m3 0h3M0 27h1m25 0h3M0 28h1m25 0h2M0 29h27"/><path stroke="#ff0" d="M16 1h3m-3 1h3m-3 1h3m-2 1h2m-2 1h2m-2 1h2m-2 1h2m-2 1h2m0 9h1m-2 1h2m-1 1h1m-2 1h2m-1 1h1m-2 1h3m-2 1h2m-3 1h3"/><path stroke="silver" d="M19 1h3m-3 1h6m-6 1h8m-8 1h8M9 5h2m8 0h7m1 0h1M10 6h2m7 0h6m1 0h1M11 7h2m6 0h5m1 0h1m2 0h1M8 8h2m2 0h2m5 0h4m1 0h1m2 0h1m1 0h1M7 9h5m1 0h2m6 0h1m1 0h1m2 0h1m1 0h1m1 0h1M7 10h6m1 0h2m9 0h1m1 0h1m1 0h1M7 11h7m10 0h1m1 0h1m1 0h1m1 0h1M7 12h8m8 0h8M8 13h1m1 0h1m1 0h1m1 0h1m8 0h8M7 14h1m1 0h1m1 0h1m1 0h1m9 0h8M8 15h1m1 0h1m1 0h1m2 0h1m6 0h9M7 16h1m1 0h1m1 0h1m2 0h1m1 0h1m5 0h9M8 17h1m1 0h1m2 0h1m1 0h4m1 0h1m2 0h7M3 18h4m2 0h1m2 0h1m1 0h4m3 0h1m2 0h6M2 19h6m3 0h1m1 0h6m2 0h1m3 0h4m-19 1h1m1 0h6m4 0h1m3 0h3M2 21h7m2 0h8m3 0h1m4 0h1M2 22h1m8 0h7m5 0h1M2 23h1m10 0h6m4 0h1M2 24h1m13 0h2M2 25h1m22 0h1M2 26h1m3 0h11m6 0h3M2 27h1m3 0h20M2 28h24"/><path stroke="#000" d="M22 1h3m0 1h2m0 1h1m0 1h1m0 1h1m-1 1h1m0 1h1m-1 1h1m0 1h1m-15 1h4m10 0h1m-16 1h1m4 0h1m9 0h1m-16 1h1m4 0h1m9 0h1m-16 1h1m4 0h1m9 0h1m-16 1h1m4 0h1m9 0h1m-15 1h4m10 0h1m-1 1h1m-2 1h1m-1 1h1m-2 1h1m-1 1h1m-2 1h2m-3 1h1m1 0h1m-5 1h2m2 0h1M3 24h10m9 0h3m4 0h1m-15 1h7m7 0h1m-1 1h1m-1 1h1m-2 1h1m-2 1h1M1 30h26"/><path stroke="#0ff" d="M14 2h2m-3 1h3m-2 1h3m-3 1h3M9 6h1m5 0h2M8 7h3m4 0h2m-7 1h2m4 0h1m-5 1h1m0 1h1m0 1h1m6 5h1m-1 1h2m-1 1h2m-2 1h3m-2 1h3m-3 1h4m-3 1h3"/><path stroke="#0f0" d="M11 3h2m-3 1h4m-3 1h3m-2 1h3m-2 1h2m-1 1h2m-1 1h2m3 9h1m-1 1h1m-1 1h2m-2 1h2m-1 1h2m-2 1h2m-2 1h1M3 26h3"/><path stroke="#fff" d="M27 4h1m-2 1h1m1 0h1m-4 1h1m1 0h1m-4 1h1m1 0h1m-4 1h1m1 0h1m-4 1h1m1 0h1m-3 1h2m-10 5h1m-2 1h1m1 0h1m-4 1h1m1 0h1m-4 1h1m1 0h1m-4 1h1m1 0h1M1 20h7m1 0h1m1 0h1M1 21h1m8 0h1M1 22h1m1 0h7m-9 1h1m-1 1h1m-1 1h1m1 0h11M1 26h1m-1 1h1m-1 1h1"/><path stroke="green" d="M3 27h3"/></svg>