<svg xmlns="http://www.w3.org/2000/svg" viewBox="0 -0.5 16 16" shape-rendering="crispEdges">
<path stroke="#808080" d="M0 0h1M0 0h12M0 1h1M0 2h1M0 3h1M3 3h4M0 4h1M3 4h1M0 5h1M3 5h1M9 5h2M0 6h1M3 6h1M9 6h1M0 7h1M9 7h1M0 8h1M3 8h2M9 8h1M0 9h1M3 9h1M0 10h1M3 10h1M0 11h1M3 11h1M0 12h1M0 13h1M0 14h9" />
<path stroke="#000000" d="M0 0h1M12 0h1M12 1h1M12 2h1M12 3h1M4 4h2M12 4h1M4 5h1M12 5h1M4 6h1M8 6h1M11 6h2M14 6h1M6 7h1M11 7h1M14 7h1M6 8h1M8 8h1M11 8h2M14 8h2M4 9h2M9 9h3M15 9h1M4 10h2M7 10h1M13 10h1M15 10h1M4 11h1M6 11h1M9 11h1M14 11h1M8 12h2M12 12h1M15 12h1M6 13h2M9 13h1M11 13h4M9 14h4M0 15h13" />
<path stroke="#c0c0c0" d="M0 0h1M1 1h11M1 2h11M1 3h2M8 3h4M1 4h2M6 4h1M8 4h4M1 5h2M8 5h1M11 5h1M1 6h2M5 6h1M1 7h2M1 8h2M1 9h2M1 10h2M1 11h2M5 11h1M1 12h2M1 13h5M8 13h1" />
<path stroke="#ffffff" d="M0 0h1M7 3h1M7 4h1M5 5h1M10 6h1M3 7h3M10 7h1M7 8h1M10 8h1M8 9h1M12 9h1M9 10h1M11 10h1M10 11h1M3 12h3" />
<path stroke="#808000" d="M0 0h1M6 5h2M6 6h1M13 6h1M7 7h1M12 7h1M5 8h1M13 8h1M6 9h1M14 9h1M6 10h1M14 10h1M8 11h1M11 11h2M6 12h2M11 12h1M13 12h1M10 13h1" />
<path stroke="#ffff00" d="M0 0h1M7 6h1M8 7h1M13 7h1M7 9h1M13 9h1M8 10h1M10 10h1M12 10h1M7 11h1M13 11h1M10 12h1M14 12h1" />
</svg>