<svg xmlns="http://www.w3.org/2000/svg" viewBox="0 -0.5 16 16" shape-rendering="crispEdges">
<path stroke="#808080" d="M0 0h1M2 4h13M1 5h1M14 5h1M0 6h1M13 6h2M0 7h1M13 7h2M0 8h1M4 8h1M11 8h1M13 8h2M0 9h1M13 9h2M0 10h1M13 10h2M0 11h1M13 11h2M0 12h1M2 12h12" />
<path stroke="#c0c0c0" d="M0 0h1M2 5h12M2 7h11M3 8h1M12 8h1M2 9h2M12 9h1M2 10h3M11 10h2M2 11h11" />
<path stroke="#000000" d="M0 0h1M15 5h1M15 6h1M15 7h1M5 8h6M15 8h1M5 9h6M15 9h1M15 10h1M15 11h1M14 12h1M1 13h13" />
<path stroke="#ffffff" d="M0 0h1M1 6h12M1 7h1M1 8h1M1 9h1M4 9h1M11 9h1M1 10h1M5 10h6M1 11h1M1 12h1" />
<path stroke="#ff0000" d="M0 0h1M2 8h1" />
</svg>