<svg xmlns="http://www.w3.org/2000/svg" width="16" height="16" shape-rendering="crispEdges" viewBox="0 -0.5 16 16"><path stroke="gray" d="M8 0h3M7 1h1m3 0h2M5 2h2M3 3h2m1 0h1M1 4h2m4 0h2m4 0h2M0 5h1m8 0h2m2 0h2M0 6h1m10 0h4M0 7h1m8 0h6M0 8h1m6 0h9M0 9h2m5 0h2m-8 1h3m3 0h2m-8 1h1m2 0h2m1 0h2m-3 1h1m1 0h1m-2 1h2m1 0h4m-6 1h1m1 0h1m1 0h1m-5 1h1"/><path stroke="#fff" d="M8 1h3M7 2h6M5 3h1m2 0h4M3 4h1m6 0h1M1 5h1M1 6h3M1 7h1m2 0h2M1 8h1m4 0h1m3 1h4m-4 1h4m-4 1h4m-1 3h1"/><path stroke="#000" d="M13 2h2m-3 1h1m-2 1h1m-1 1h1m3 0h1m-1 1h1m-1 1h1m-1 2h1m-1 1h1m-1 1h1M2 12h2m3 0h1m7 0h1M4 13h2m9 0h1M6 14h2m3 0h1m3 0h1m-7 1h6"/><path stroke="silver" d="M7 3h1M4 4h3m2 0h1m2 0h1M2 5h2m2 0h3m3 0h1M4 6h2m2 0h3M2 7h2m2 0h3M2 8h4M2 9h5m2 0h1m4 0h1M4 10h3m2 0h1m4 0h1M2 11h2m2 0h1m2 0h1m4 0h1M4 12h2m3 0h6m-9 1h1m2 0h1m4 0h1m-6 1h1m4 0h1"/><path stroke="#0f0" d="M4 5h2"/><path stroke="red" d="M6 6h2"/></svg>