<svg xmlns="http://www.w3.org/2000/svg" width="32" height="32" shape-rendering="crispEdges" viewBox="0 -0.5 32 32"><path stroke="purple" d="M15 4h2m-3 1h1m1 0h2m-5 1h1m1 0h5m-8 1h1m1 0h8M11 8h1m1 0h4m4 0h3M10 9h1m1 0h4m6 0h4M9 10h1m1 0h6m1 0h2m3 0h4M8 11h1m1 0h9m4 0h3M7 12h1m1 0h7m6 0h3M6 13h1m1 0h7m5 0h4M5 14h1m1 0h9m2 0h5M4 15h1m3 0h5m3 0h6M4 16h1m5 0h3m3 0h5M4 17h1m7 0h8m6 0h1M4 18h1m9 0h5m6 0h1M4 19h1m11 0h2m6 0h1M4 20h3m16 0h1M7 21h2m13 0h1M9 22h2m10 0h1m-11 1h2m7 0h1m-8 1h2m4 0h1m-5 1h2m1 0h1m-2 1h1"/><path stroke="#000" d="M17 4h1m0 1h2m0 1h2m0 1h2m0 1h2m0 1h2m-1 1h1m-2 1h1m-2 1h2m-3 1h1m1 0h1m-4 1h1m2 0h1M5 15h3m14 0h1m3 0h1M5 16h1m2 0h2m11 0h1m4 0h2M5 17h1m4 0h2m8 0h1m6 0h1M5 18h1m6 0h2m5 0h1m6 0h1M5 19h1m8 0h2m2 0h1m6 0h1m-10 1h2m6 0h1M5 21h2m16 0h1M7 22h2m13 0h1M9 23h2m10 0h1m-11 1h2m7 0h1m-8 1h2m4 0h1m-5 1h2m1 0h1m-2 1h1"/><path stroke="gray" d="M15 5h1m-2 1h1m-2 1h1m-2 1h1m-2 1h1m-2 1h1m-2 1h1m-2 1h1m-2 1h1m17 0h1M6 14h1m17 0h1m-2 1h1M6 16h2m14 0h1M8 17h2m11 0h1m3 0h1m-16 1h2m8 0h1m3 0h1m-13 1h2m5 0h1m3 0h1M7 20h2m5 0h2m2 0h1m3 0h1M9 21h2m5 0h2m3 0h1m-11 1h2m7 0h1m-8 1h2m4 0h1m-5 1h2m1 0h1m-2 1h1"/><path stroke="olive" d="M17 8h1m2 0h1m-4 2h1m4 0h1m-4 1h1m2 0h1m-7 1h1m4 0h1m-7 1h1m2 0h2m-4 1h2m-5 1h1m1 0h1m-3 1h1m1 0h1"/><path stroke="#ff0" d="M18 8h2m-4 1h6m-2 1h2m-2 1h2m-5 1h4m-5 1h2m-4 2h1m-1 1h1"/><path stroke="silver" d="M25 14h1m-2 1h2m-3 1h3M6 17h2m14 0h3M6 18h1m14 0h3M6 19h1m13 0h3m-4 1h3m-4 1h3m-3 1h2m-2 1h1"/><path stroke="#fff" d="M7 18h3m-3 1h5m-3 1h5m-3 1h5m-3 1h5m-3 1h3m-1 1h1"/></svg>