<svg xmlns="http://www.w3.org/2000/svg" width="16" height="16" shape-rendering="crispEdges" viewBox="0 -0.5 16 16"><path stroke="gray" d="M3 0h3M1 1h2m3 0h5M0 2h1m7 0h2m1 0h2M0 3h1m1 0h2m6 0h2m1 0h2M0 4h1m3 0h2m6 0h1m1 0h1M0 5h1m5 0h2m3 0h1m1 0h2M0 6h1m9 0h2m1 0h2M0 7h1m9 0h2m1 0h2M0 8h1m9 0h2m1 0h2M0 9h1m9 0h2m1 0h2M0 10h1m9 0h2m1 0h1M1 11h2m7 0h2m-9 1h2m5 0h2m-7 1h2m3 0h2m-5 1h3"/><path stroke="silver" d="M3 1h3M1 2h1m2 0h4m2 0h1M1 3h1m4 0h4m2 0h1M1 4h1m6 0h4m1 0h1M1 5h1m8 0h1M1 6h1m6 0h2M1 7h1m6 0h2M1 8h1m6 0h2M1 9h1m6 0h2m-9 1h2m5 0h2m-7 1h2m3 0h2m-5 1h2m1 0h2m-3 1h3"/><path stroke="#fff" d="M2 2h2m0 1h2m0 1h2m0 1h2"/><path stroke="#000" d="M2 4h1m12 0h1M2 5h1m9 0h1m2 0h1M2 6h1m9 0h1m2 0h1M2 7h1m9 0h1m2 0h1M2 8h1m9 0h1m2 0h1M2 9h1m9 0h1m2 0h1m-4 1h1m1 0h1M0 11h1m11 0h2M1 12h2m9 0h1M3 13h2m7 0h1m-8 1h2m3 0h2m-5 1h3"/><path stroke="navy" d="M3 4h1m0 1h2m1 1h1M7 7h1M7 8h1M7 9h1m-5 1h2m2 0h1m-3 1h3m-1 1h1"/><path stroke="#00f" d="M3 5h1M3 6h1m1 0h2M3 7h1m1 0h2M4 8h1M3 9h1m1 0h2m-2 1h2"/><path stroke="#0ff" d="M4 6h1M4 7h1M3 8h1m1 0h2M4 9h1"/></svg>