<svg xmlns="http://www.w3.org/2000/svg" width="32" height="32" shape-rendering="crispEdges" viewBox="0 -0.5 32 32"><path stroke="gray" d="M0 1h31M0 2h1m29 0h1M0 3h1m29 0h1M0 4h1m29 0h1M0 5h1m29 0h1M0 6h1m29 0h1M0 7h1m29 0h1M0 8h1m1 0h27m1 0h1M0 9h1m1 0h1m27 0h1M0 10h1m1 0h1m27 0h1M0 11h1m1 0h1m12 0h3m12 0h1M0 12h1m1 0h1m11 0h1m15 0h1M0 13h1m1 0h1m10 0h2m1 0h2m1 0h1m1 0h1m8 0h1M0 14h1m1 0h1m11 0h1m2 0h1m12 0h1M0 15h1m1 0h1m11 0h1m1 0h2m12 0h1M0 16h1m1 0h1m10 0h2m2 0h1m1 0h1m10 0h1M0 17h1m1 0h1m10 0h2m1 0h2m12 0h1M0 18h1m1 0h1m27 0h1M0 19h1m1 0h1m27 0h1M0 20h1m1 0h1m5 0h1m21 0h1M0 21h1m1 0h1m27 0h1M0 22h1m1 0h1m27 0h1M0 23h1m1 0h1m27 0h1M0 24h1m1 0h1m27 0h1M0 25h1m1 0h1m27 0h1M0 26h1m1 0h1m27 0h1M0 27h1m29 0h1M0 28h31"/><path stroke="#000" d="M31 1h1m-1 1h1m-1 1h1m-9 1h1m2 0h1m2 0h1m1 0h1m-9 1h1m2 0h1m2 0h1m1 0h1M21 6h9m1 0h1m-1 1h1m-1 1h1m-1 1h1m-1 1h1m-1 1h1m-14 1h1m12 0h1m-14 1h1m12 0h1m-14 1h1m3 0h1m8 0h1m-22 1h1m7 0h1m3 0h1m8 0h1m-14 1h1m3 0h2m7 0h1m-14 1h1m5 0h1m6 0h1M8 18h1m5 0h5m2 0h1m2 0h1m6 0h1M8 19h1m2 0h1m9 0h1m2 0h1m6 0h1M9 20h2m2 0h1m4 0h1m3 0h2m7 0h1m-20 1h1m4 0h1m4 0h1m8 0h1m-20 1h1m1 0h1m2 0h3m2 0h1m8 0h1m-21 1h2m2 0h1m1 0h1m2 0h2m9 0h1m-17 1h3m13 0h1m-1 1h1m-1 1h1m-1 1h1m-1 1h1M0 29h32"/><path stroke="silver" d="M1 2h29M1 3h1M1 4h1m19 0h2m1 0h2m1 0h2M1 5h1m19 0h2m1 0h2m1 0h2M1 6h1M1 7h29M1 8h1m27 0h1M1 9h1m27 0h1M1 10h1m27 0h1M1 11h1m27 0h1M1 12h1m15 0h1m11 0h1M1 13h1m13 0h1m13 0h1M1 14h1m14 0h1m12 0h1M1 15h1m27 0h1M1 16h1m14 0h1m4 0h1m7 0h1M1 17h1m27 0h1M1 18h1m17 0h1m9 0h1M1 19h1m27 0h1M1 20h1m14 0h1m4 0h1m2 0h1m4 0h1M1 21h1m27 0h1M1 22h1m27 0h1M1 23h1m8 0h1m2 0h1m5 0h1m9 0h1M1 24h1m27 0h1M1 25h1m27 0h1M1 26h1m27 0h1M1 27h29"/><path stroke="navy" d="M2 3h28M2 4h19M2 5h19M2 6h19"/><path stroke="#fff" d="M3 9h26M3 10h26M3 11h12m3 0h11M3 12h11m1 0h2m2 0h10M3 13h8m11 0h7M3 14h7m1 0h1m3 0h1m4 0h1m2 0h6M3 15h7m2 0h2m1 0h1m3 0h1m3 0h6M3 16h5m4 0h1m2 0h1m8 0h5M3 17h5m1 0h1m1 0h1m3 0h1m4 0h1m1 0h1m2 0h4M3 18h5m4 0h1m12 0h4M3 19h5m5 0h2m2 0h1m7 0h4M3 20h5m12 0h1m4 0h4M3 21h7m6 0h1m6 0h6M3 22h7m13 0h6M3 23h7m4 0h1m3 0h1m3 0h7M3 24h12m3 0h11M3 25h26M3 26h26"/><path stroke="olive" d="M11 13h2m7 0h1m-11 1h1m8 0h1m-9 1h1m9 0h1M8 16h4m-4 1h1m1 0h1m8 0h1M9 18h3m10 0h2M9 19h2m1 0h1m7 0h1m1 0h2m-10 1h2m1 0h1m1 0h1m-10 1h1m2 0h3m3 0h3m-12 1h1m2 0h1m1 0h2m3 0h2"/><path stroke="#ff0" d="M12 14h2m7 0h1m-2 1h1m-1 1h1m-9 1h1m8 0h1m1 0h1m-11 1h1m6 0h1m-6 1h2m1 0h2m-9 1h2m-2 1h1m6 0h1m-8 1h1m4 1h1"/></svg>