<svg xmlns="http://www.w3.org/2000/svg" viewBox="0 -0.5 16 16" shape-rendering="crispEdges">
<path stroke="#008000" d="M0 0h1M4 0h8M2 1h2M5 1h1M7 1h2M10 1h1M12 1h2M1 2h1M3 2h1M6 2h1M8 2h2M11 2h4M0 3h1M2 3h1M4 3h2M7 3h2M10 3h3M14 3h2M0 4h1M2 4h3M6 4h1M8 4h3M12 4h3M0 5h4M5 5h1M7 5h1M9 5h1M14 5h1M4 6h2M7 6h3M11 6h1M13 6h1M6 7h1M8 7h1M10 7h1M12 7h1" />
<path stroke="#ffffff" d="M0 0h1M4 1h1M1 3h1" />
<path stroke="#ffff00" d="M0 0h1M6 1h1M2 2h1M5 2h1" />
<path stroke="#00ff00" d="M0 0h1M9 1h1M11 1h1M4 2h1M7 2h1M10 2h1M3 3h1M6 3h1M9 3h1M13 3h1M1 4h1M5 4h1M7 4h1M11 4h1M4 5h1M6 5h1M8 5h1M10 5h1M12 5h1M2 6h1M6 6h1" />
<path stroke="#000000" d="M0 0h1M15 4h1M11 5h1M13 5h1M15 5h1M1 6h1M3 6h1M10 6h1M12 6h1M14 6h2M2 7h4M7 7h1M9 7h1M11 7h1M13 7h2M6 8h7M8 9h1M11 9h1M8 10h1M10 10h1M8 11h2M8 12h1M8 13h1M8 14h1M5 15h5" />
<path stroke="#808000" d="M0 0h1M3 8h1M4 9h1M6 9h1M5 10h2M6 11h1M6 12h1M6 13h1M6 14h1" />
<path stroke="#800000" d="M0 0h1M4 8h1M5 9h1M7 9h1M10 9h1M7 10h1M9 10h1M7 11h1M7 12h1M7 13h1M7 14h1" />
<path stroke="#c0c0c0" d="M0 0h1M9 9h1" />
</svg>