<svg xmlns="http://www.w3.org/2000/svg" width="16" height="16" shape-rendering="crispEdges" viewBox="0 -0.5 16 16"><path stroke="gray" d="M2 0h10M2 1h1m9 0h1M2 2h1m10 0h1M2 3h1M2 4h1M2 5h1M2 6h1M2 7h1M2 8h1M2 9h1m-1 1h1m-1 1h1m-1 1h1m-1 1h1m-1 1h1"/><path stroke="#fff" d="M3 1h8M3 2h8m1 0h1M3 3h8M3 4h5m2 0h3M3 5h4m3 0h3M3 6h4m4 0h2M3 7h3m2 0h1m2 0h2M3 8h3m1 0h2m3 0h1M3 9h2m7 0h1M3 10h2m1 0h4m-7 1h1m3 0h2m-6 1h10M3 13h10"/><path stroke="silver" d="M11 1h1m-1 1h1M9 4h1m3 0h1M7 5h1m5 0h1m-4 1h1m2 0h1M6 7h1m6 0h1m-3 1h1m1 0h1M5 9h1m7 0h1m-2 1h2m-1 1h1m-1 1h1m-1 1h1M3 14h11"/><path stroke="#000" d="M11 3h4m-1 1h1m-1 1h1m-1 1h1m-1 1h1m-1 1h1m-1 1h1m-1 1h1m-1 1h1m-1 1h1m-1 1h1m-1 1h1M2 15h13"/><path stroke="red" d="M8 4h1M8 5h2M7 6h3M7 7h1m1 0h2M6 8h1m2 0h2M6 9h6m-7 1h1m4 0h2m-8 1h3m2 0h4"/></svg>