<svg xmlns="http://www.w3.org/2000/svg" viewBox="0 -0.5 32 32" shape-rendering="crispEdges">
<path stroke="#808080" d="M0 0h1M19 0h5M18 1h1M24 1h1M17 2h1M25 2h6M17 3h1M30 3h1M17 4h1M30 4h1M16 5h13M30 5h1M16 6h1M27 6h1M30 6h1M9 7h3M16 7h1M29 7h2M8 8h1M12 8h2M17 8h1M28 8h1M30 8h1M7 9h1M14 9h2M17 9h1M30 9h1M6 10h1M18 10h1M29 10h1M6 11h1M18 11h12M5 12h1M5 13h1M14 13h1M4 14h1M15 14h2M4 15h1M6 18h1M16 18h2M3 19h3M2 20h1M5 20h1M1 21h1M1 22h1M1 23h1M6 23h1M0 24h13M0 25h1M11 25h1M0 26h1M13 26h2M1 27h1M12 27h1M14 27h1M1 28h1M14 28h1M2 29h1M13 29h1M2 30h12" />
<path stroke="#ffffff" d="M0 0h1M19 1h5M18 2h1M24 2h1M18 3h1M25 3h5M18 4h1M17 6h10M17 7h1M9 8h3M18 8h1M8 9h6M18 9h1M7 10h9M19 10h1M7 11h8M6 12h8M6 13h7M5 14h8M14 14h1M5 15h7M13 15h4M6 16h6M13 16h3M8 17h3M12 17h3M7 18h1M10 18h1M12 18h2M15 18h1M6 19h4M12 19h2M15 19h3M3 20h2M6 20h7M14 20h3M2 21h1M7 21h6M14 21h2M2 22h1M9 22h3M13 22h2M2 23h1M7 23h2M11 23h1M13 23h2M13 24h1M1 25h10M13 25h1M1 26h1M2 27h1M2 28h1M3 29h1" />
<path stroke="#c0c0c0" d="M0 0h1M19 2h1M21 2h1M23 2h1M20 3h1M22 3h1M24 3h1M19 4h1M21 4h1M23 4h1M25 4h1M27 4h1M29 4h1M29 6h1M18 7h1M20 7h1M22 7h1M24 7h1M26 7h1M19 8h1M21 8h1M23 8h1M25 8h1M27 8h1M20 9h1M22 9h1M24 9h1M26 9h1M28 9h1M21 10h1M23 10h1M25 10h1M27 10h1M3 21h1M4 22h1M6 22h1M3 23h1M5 23h1M2 26h1M4 26h1M6 26h1M8 26h1M10 26h1M3 27h1M5 27h1M7 27h1M9 27h1M11 27h1M4 28h1M6 28h1M8 28h1M10 28h1M12 28h1M5 29h1M7 29h1M9 29h1M11 29h1" />
<path stroke="#ffff00" d="M0 0h1M20 2h1M22 2h1M19 3h1M21 3h1M23 3h1M20 4h1M22 4h1M24 4h1M26 4h1M28 4h1M29 5h1M19 7h1M21 7h1M23 7h1M25 7h1M27 7h1M20 8h1M22 8h1M24 8h1M26 8h1M19 9h1M21 9h1M23 9h1M25 9h1M27 9h1M20 10h1M22 10h1M24 10h1M26 10h1M28 10h1M4 21h1M3 22h1M5 22h1M4 23h1M3 26h1M5 26h1M7 26h1M9 26h1M11 26h1M4 27h1M6 27h1M8 27h1M10 27h1M3 28h1M5 28h1M7 28h1M9 28h1M11 28h1M4 29h1M6 29h1M8 29h1M10 29h1M12 29h1" />
<path stroke="#000000" d="M0 0h1M31 3h1M31 4h1M31 5h1M28 6h1M31 6h1M28 7h1M31 7h1M29 8h1M31 8h1M29 9h1M31 9h1M16 10h1M30 10h2M15 11h1M30 11h2M14 12h1M20 12h12M13 13h1M13 14h1M12 15h1M17 15h1M4 16h2M12 16h1M16 16h1M6 17h2M11 17h1M15 17h1M8 18h2M11 18h1M14 18h1M10 19h2M14 19h1M18 19h1M13 20h1M17 20h1M5 21h2M13 21h1M16 21h1M7 22h2M12 22h1M15 22h1M9 23h2M12 23h1M15 23h1M14 24h2M12 25h1M14 25h2M12 26h1M15 26h1M13 27h1M15 27h1M13 28h1M15 28h1M14 29h2M14 30h2M3 31h13" />
<path stroke="#ff0000" d="M0 0h1M25 16h1M24 17h3M23 18h5M25 19h1M25 20h1M24 21h1M24 22h1M22 23h2M19 24h3" />
</svg>