<svg xmlns="http://www.w3.org/2000/svg" width="32" height="32" shape-rendering="crispEdges" viewBox="0 -0.5 32 32"><path stroke="gray" d="M4 0h28M4 1h1M4 2h1m25 0h1M4 3h1m25 0h1M4 4h1m25 0h1M4 5h1m25 0h1M4 6h1m25 0h1M4 7h1m1 0h23m1 0h1M4 8h1m1 0h1m23 0h1M4 9h1m1 0h1m23 0h1m-1 1h1m-1 1h1m-1 1h1M1 13h1m7 0h2m19 0h1M1 14h1m7 0h2m19 0h1M1 15h1m7 0h2m19 0h1M1 16h1m7 0h2m19 0h1M1 17h1m2 0h1m4 0h2m19 0h1M2 18h1m6 0h1m20 0h1M3 19h1m4 0h1m21 0h1M4 20h1m2 0h1m22 0h1M4 21h1m2 0h1m22 0h1M3 22h1m4 0h1m21 0h1M2 23h1m6 0h1m20 0h1M1 24h1m7 0h2m1 0h19M1 25h1m7 0h2M1 26h1m7 0h2M1 27h1m2 0h1m4 0h2M1 28h1m1 0h1m1 0h1m4 0h1"/><path stroke="silver" d="M5 1h26M5 2h1M5 3h1m15 0h2m1 0h2m1 0h2M5 4h1m15 0h2m1 0h2m1 0h2M5 5h1M5 6h25M5 7h1m23 0h1M5 8h1m23 0h1M5 9h1m23 0h1m-1 1h1M3 11h3m23 0h1m-1 1h1M2 13h1m2 0h4m20 0h1M2 14h1m3 0h3m20 0h1M2 15h1m3 0h3m20 0h1M2 16h1m3 0h3m20 0h1M2 17h2m1 0h1m1 0h1m21 0h1M3 18h1m2 0h1m1 0h1m20 0h1M4 19h1m2 0h1m21 0h1M6 20h1m22 0h1M6 21h1m22 0h1M4 22h1m1 0h2m21 0h1M3 23h1m3 0h2m2 0h19M2 24h1m3 0h3m-7 1h1m4 0h2m-7 1h1m3 0h1m1 0h1m-7 1h1m4 0h1m-6 1h1m3 0h1m1 0h1m-6 2h3"/><path stroke="#000" d="M31 1h1m-1 1h1m-9 1h1m2 0h1m2 0h1m1 0h1m-9 1h1m2 0h1m2 0h1m1 0h1M21 5h9m1 0h1m-1 1h1m-1 1h1m-1 1h1m-1 1h1m-20 1h1m18 0h1m-20 1h1m18 0h1M1 12h11m19 0h1m-21 1h1m19 0h1m-21 1h1m19 0h1m-21 1h1m19 0h1m-21 1h1m19 0h1M6 17h1m1 0h1m2 0h1m19 0h1M5 18h1m1 0h1m2 0h1m20 0h1M6 19h1m2 0h1m21 0h1M8 20h1m22 0h1M8 21h1m22 0h1M9 22h1m21 0h1M6 23h1m3 0h1m20 0h1m-21 1h1m19 0h1M6 25h1m4 0h21M5 26h1m1 0h1m3 0h1m-6 1h1m1 0h1m2 0h1m-5 1h1m1 0h1m1 0h1M1 29h11m0 1h1M0 31h13"/><path stroke="navy" d="M6 2h1m4 0h19M6 3h1m4 0h10M6 4h1m4 0h10M6 5h1m4 0h10"/><path stroke="red" d="M7 2h1m-7 9h1m4 0h6M1 30h1m4 0h6"/><path stroke="maroon" d="M8 2h1M7 3h2m-9 7h12M0 11h1M0 30h1"/><path stroke="#ff0" d="M9 2h1"/><path stroke="olive" d="M10 2h1M9 3h2"/><path stroke="#0ff" d="M7 4h1"/><path stroke="#00f" d="M8 4h1M7 5h2"/><path stroke="#0f0" d="M9 4h1"/><path stroke="green" d="M10 4h1M9 5h2"/><path stroke="#fff" d="M7 8h22M7 9h22m-16 1h16M2 11h1m10 0h16m-17 1h17M3 13h2m7 0h17M3 14h3m6 0h17M3 15h3m6 0h17M3 16h3m6 0h17m-17 1h17M4 18h1m6 0h18M5 19h1m4 0h19M5 20h1m3 0h20M5 21h1m3 0h20M5 22h1m4 0h19M4 23h2m-3 1h3m-3 1h3m-3 1h2m-2 1h1m1 0h1m-2 1h1m-3 2h1"/></svg>