<svg xmlns="http://www.w3.org/2000/svg" width="16" height="16" shape-rendering="crispEdges" viewBox="0 -0.5 16 16"><path stroke="#000" d="M10 3h2M8 4h1m3 0h1M6 5h1m6 0h1M4 6h1m9 0h1M2 7h1m12 0h1m-1 1h1m-3 1h1m1 0h1M0 10h1m10 0h1m2 0h1M1 11h1m7 0h1m2 0h1m1 0h1M2 12h1m4 0h1m2 0h1m1 0h1M3 13h1m1 0h1m2 0h1m1 0h1m-7 1h1m1 0h1m1 0h1m-3 1h1"/><path stroke="gray" d="M9 4h1M7 5h1M5 6h1M3 7h1m10 0h1M1 8h1m10 0h3M0 9h1m9 0h3m-5 1h3m2 0h1M2 11h1m3 0h3m2 0h1m-9 1h1m1 0h2m2 0h1m-3 1h1m-3 1h1"/><path stroke="silver" d="M10 4h2M8 5h5M6 6h8M4 7h10M2 8h10M2 9h8m4 0h1M1 10h1m1 0h5m4 0h1m-9 1h2m4 0h1m-3 1h1m-5 1h1m1 0h1"/><path stroke="#fff" d="M1 9h1m0 1h1m0 1h1m0 1h1"/></svg>