<svg xmlns="http://www.w3.org/2000/svg" width="16" height="16" shape-rendering="crispEdges" viewBox="0 -0.5 16 16"><path stroke="green" d="M4 0h8M2 1h2m1 0h1m1 0h2m1 0h1m1 0h2M1 2h1m1 0h1m2 0h1m1 0h2m1 0h4M0 3h1m1 0h1m1 0h2m1 0h2m1 0h3m1 0h2M0 4h1m1 0h3m1 0h1m1 0h3m1 0h3M0 5h4m1 0h1m1 0h1m1 0h1m4 0h1M4 6h2m1 0h3m1 0h1m1 0h1M6 7h1m1 0h1m1 0h1m1 0h1"/><path stroke="#fff" d="M4 1h1M1 3h1"/><path stroke="#ff0" d="M6 1h1M2 2h1m2 0h1"/><path stroke="#0f0" d="M9 1h1m1 0h1M4 2h1m2 0h1m2 0h1M3 3h1m2 0h1m2 0h1m3 0h1M1 4h1m3 0h1m1 0h1m3 0h1M4 5h1m1 0h1m1 0h1m1 0h1m1 0h1M2 6h1m3 0h1"/><path stroke="#000" d="M15 4h1m-5 1h1m1 0h1m1 0h1M1 6h1m1 0h1m6 0h1m1 0h1m1 0h2M2 7h4m1 0h1m1 0h1m1 0h1m1 0h2M6 8h7M8 9h1m2 0h1m-4 1h1m1 0h1m-3 1h2m-2 1h1m-1 1h1m-1 1h1m-4 1h5"/><path stroke="olive" d="M3 8h1m0 1h1m1 0h1m-2 1h2m-1 1h1m-1 1h1m-1 1h1m-1 1h1"/><path stroke="maroon" d="M4 8h1m0 1h1m1 0h1m2 0h1m-4 1h1m1 0h1m-3 1h1m-1 1h1m-1 1h1m-1 1h1"/><path stroke="silver" d="M9 9h1"/></svg>