<svg xmlns="http://www.w3.org/2000/svg" width="32" height="32" shape-rendering="crispEdges" viewBox="0 -0.5 32 32"><path stroke="gray" d="M16 4h1m-2 1h1m-2 1h1M9 7h5M8 8h1m3 0h1M7 9h1m3 0h1m10 0h3M7 10h1m2 0h1m-4 1h1m1 0h1m-5 1h2m-3 1h1m-1 1h1m-1 1h1m17 0h1M5 16h1m-1 1h1m17 0h2M5 18h1m0 1h1m-1 1h1m17 0h1M6 21h1m0 1h1m-1 1h1m17 0h1M7 24h1"/><path stroke="silver" d="M16 5h1m0 1h1m0 1h1m0 1h1M9 9h1m10 0h1m0 1h1m0 1h1M7 12h15m1 0h1m0 1h1M5 14h1m1 0h1m1 0h1m1 0h1m1 0h1m1 0h1m1 0h1m1 0h1m1 0h1m3 0h1M6 15h1m1 0h1m1 0h1m1 0h1m1 0h1m1 0h1m1 0h1m1 0h1m5 0h1M7 16h1m1 0h1m1 0h1m1 0h1m1 0h1m1 0h1m1 0h1m1 0h1m3 0h1M6 17h1m1 0h1m1 0h1m1 0h1m1 0h1m1 0h1m1 0h1m1 0h1m1 0h1M7 18h1m1 0h1m1 0h1m1 0h1m1 0h1m1 0h1m1 0h1m1 0h1m1 0h1M8 19h1m1 0h1m1 0h1m1 0h1m1 0h1m1 0h1m1 0h1m1 0h1M7 20h1m1 0h1m1 0h1m1 0h1m1 0h1m1 0h1m1 0h1m1 0h1m1 0h1M8 21h1m1 0h1m1 0h1m1 0h1m1 0h1m1 0h1m1 0h1m1 0h1m1 0h1M9 22h1m1 0h1m1 0h1m1 0h1m1 0h1m1 0h1m1 0h1m1 0h1M8 23h1m1 0h1m1 0h1m1 0h1m1 0h1m1 0h1m1 0h1m1 0h1m1 0h1"/><path stroke="#000" d="M17 5h1m0 1h1m0 1h1m0 1h1m0 1h1m0 1h1m0 1h1m2 0h1m-3 1h1m1 0h1m-5 1h1m2 0h2m-5 1h1m3 0h1m-4 1h1m3 0h1m-5 1h1m2 0h1m-2 1h2m-3 1h1m1 0h1m-3 1h1m1 0h1m-2 1h2m-2 1h2m-2 1h2m-1 1h1m-1 1h1M8 25h18"/><path stroke="#fff" d="M15 6h2m-3 1h4M9 8h3m1 0h3m1 0h2M8 9h1m3 0h3m1 0h1m1 0h2M8 10h1m2 0h3m1 0h1m1 0h1m1 0h2M8 11h1m1 0h3m1 0h1m1 0h1m1 0h1m1 0h2m0 1h1M5 13h17m1 0h1m-1 1h2m-1 1h2m-2 1h1"/><path stroke="#00f" d="M16 8h1m-2 1h1m1 0h1m-4 1h1m1 0h1m1 0h1m-6 1h1m1 0h1m1 0h1m1 0h1"/><path stroke="#ff0" d="M10 9h1m-2 1h1m13 0h2m-1 1h1M6 14h1m1 0h1m1 0h1m1 0h1m1 0h1m1 0h1m1 0h1m1 0h1M5 15h1m1 0h1m1 0h1m1 0h1m1 0h1m1 0h1m1 0h1m1 0h1m1 0h1M6 16h1m1 0h1m1 0h1m1 0h1m1 0h1m1 0h1m1 0h1m1 0h1m1 0h1M7 17h1m1 0h1m1 0h1m1 0h1m1 0h1m1 0h1m1 0h1m1 0h1M6 18h1m1 0h1m1 0h1m1 0h1m1 0h1m1 0h1m1 0h1m1 0h1m1 0h1M7 19h1m1 0h1m1 0h1m1 0h1m1 0h1m1 0h1m1 0h1m1 0h1m1 0h1M8 20h1m1 0h1m1 0h1m1 0h1m1 0h1m1 0h1m1 0h1m1 0h1M7 21h1m1 0h1m1 0h1m1 0h1m1 0h1m1 0h1m1 0h1m1 0h1m1 0h1M8 22h1m1 0h1m1 0h1m1 0h1m1 0h1m1 0h1m1 0h1m1 0h1m1 0h1M9 23h1m1 0h1m1 0h1m1 0h1m1 0h1m1 0h1m1 0h1m1 0h1"/><path stroke="olive" d="M25 10h1m-1 1h1m-1 1h1m-1 6h1m-1 1h1M8 24h18"/></svg>