<svg xmlns="http://www.w3.org/2000/svg" viewBox="0 -0.5 16 16" shape-rendering="crispEdges">
<path stroke="#808080" d="M0 0h1M0 1h16M0 2h1M14 2h1M0 3h1M14 3h1M0 4h1M14 4h1M0 5h1M2 5h13M0 6h1M14 6h1M0 7h1M14 7h1M0 8h1M14 8h1M0 9h1M7 9h2M14 9h1M0 10h1M14 10h1M0 11h1M14 11h1M0 12h1M14 12h1M0 13h15" />
<path stroke="#c0c0c0" d="M0 0h1M1 2h13M1 3h1M1 4h1M1 5h1M1 6h1M1 7h1M1 8h1M1 9h1M1 10h1M7 10h1M1 11h1M1 12h1" />
<path stroke="#000000" d="M0 0h1M15 2h1M15 3h1M9 4h1M11 4h1M13 4h1M15 4h1M15 5h1M15 6h1M8 7h1M15 7h1M6 8h1M9 8h1M15 8h1M9 9h1M15 9h1M6 10h1M9 10h1M15 10h1M7 11h2M15 11h1M15 12h1M15 13h1M0 14h16" />
<path stroke="#000080" d="M0 0h1M2 3h12M2 4h6" />
<path stroke="#ffffff" d="M0 0h1M8 4h1M10 4h1M12 4h1M2 6h12M2 7h4M9 7h5M2 8h4M10 8h4M2 9h3M11 9h3M2 10h4M10 10h4M2 11h5M9 11h5M2 12h12" />
<path stroke="#808000" d="M0 0h1M6 7h2M8 8h1M5 9h1M10 9h1" />
<path stroke="#ffff00" d="M0 0h1M7 8h1M6 9h1M8 10h1" />
</svg>