<svg xmlns="http://www.w3.org/2000/svg" viewBox="0 -0.5 32 32" shape-rendering="crispEdges">
<path stroke="#808080" d="M0 0h1M10 9h2M7 10h3M11 10h1M5 11h2M11 11h1M3 12h2M11 12h1M1 13h2M11 13h1M3 14h2M11 14h1M4 15h1M11 15h1M3 16h1M7 16h2M11 16h1M2 17h1M6 17h1M9 17h3M1 18h1M6 18h1M11 18h1M1 19h1M5 19h1M0 20h1M5 20h1M0 21h2M4 21h1M0 22h1M2 22h1M4 22h1M0 23h2M3 23h2M2 24h1M4 24h1M4 25h1" />
<path stroke="#000000" d="M0 0h1M12 9h1M12 10h1M12 11h1M12 12h1M12 13h1M12 14h1M12 15h1M12 16h1M7 17h1M12 17h1M7 18h1M12 18h1M6 19h1M6 20h1M5 21h1M5 22h1M5 23h1M0 24h2M5 24h1M2 25h2M5 25h1M4 26h2M5 27h1" />
<path stroke="#c0c0c0" d="M0 0h1M10 10h1M7 11h4M6 12h5M3 13h1M5 13h1M7 13h4M6 14h1M8 14h1M10 14h1M7 15h1M9 15h1M10 16h1M3 17h1M2 18h1M4 18h1M2 19h2M1 20h4M2 21h2M1 22h1M3 22h1M2 23h1M3 24h1" />
<path stroke="#ffffff" d="M0 0h1M5 12h1M4 13h1M6 13h1M5 14h1M7 14h1M9 14h1M5 15h2M8 15h1M10 15h1M4 16h3M9 16h1M4 17h2M3 18h1M5 18h1M4 19h1" />
</svg>