<svg xmlns="http://www.w3.org/2000/svg" width="32" height="32" shape-rendering="crispEdges" viewBox="0 -0.5 32 32"><path stroke="gray" d="M3 1h20M3 2h1m18 0h1M3 3h1m18 0h2M3 4h1m18 0h1m1 0h1M3 5h1m18 0h1m2 0h1M3 6h1m18 0h1m3 0h1M3 7h1m18 0h1M3 8h1M3 9h1m-1 1h1m-1 1h1m-1 1h1m-1 1h1m7 0h13M3 14h1m-1 1h1m3 0h17M3 16h1m-1 1h1m3 0h17M3 18h1m-1 1h1m-1 1h1m-1 1h1m-1 1h1m-1 1h1m-1 1h1m-1 1h1m-1 1h1m-1 1h1m-1 1h1"/><path stroke="#fff" d="M4 2h18M4 3h18M4 4h18M4 5h18m1 0h1M4 6h10m3 0h5m1 0h2M4 7h18M4 8h23M4 9h3m17 0h3M4 10h23M4 11h3m17 0h3M4 12h6m14 0h3M4 13h3m17 0h3M4 14h3m18 0h2M4 15h3m18 0h2M4 16h1m19 0h3M4 17h1m21 0h1M4 18h1m21 0h1M4 19h3m17 0h3M4 20h23M4 21h3m17 0h3M4 22h23M4 23h3m7 0h13M4 24h23M4 25h23M4 26h23M6 27h5m7 0h9m-7 1h7m-6 1h5"/><path stroke="#000" d="M23 2h1m0 1h1m0 1h1m0 1h1m0 1h1m-5 1h6m-1 1h1m-1 1h1m-1 1h1m-1 1h1m-1 1h1m-1 1h1m-1 1h1m-1 1h1m-1 1h1m-1 1h1m-1 1h1m-1 1h1m-1 1h1m-1 1h1m-1 1h1m-1 1h1m-1 1h1m-1 1h1m-1 1h1m-1 1h1M4 28h2m5 0h7m10 0h1M6 29h5m7 0h2m8 0h1m-9 1h1m5 0h3m-8 1h5"/><path stroke="silver" d="M23 4h1m0 1h1m0 1h1m1 2h1m-1 1h1m-1 1h1m-1 1h1m-1 1h1m-1 1h1m-1 1h1m-1 1h1m-1 1h1m-1 1h1m-1 1h1m-1 1h1m-1 1h1m-1 1h1m-1 1h1m-1 1h1m-1 1h1m-1 1h1m-1 1h1M4 27h2m5 0h7m9 0h1M6 28h5m7 0h2m7 0h1m-8 1h1m5 0h2m-7 1h5"/><path stroke="#00f" d="M14 6h3M7 9h17M7 11h17M7 13h4m-4 6h17M7 21h17M7 23h7"/><path stroke="#ff0" d="M10 12h14M7 14h18m-1 1h1M5 16h19M5 17h2m17 0h2M5 18h21"/></svg>