<svg xmlns="http://www.w3.org/2000/svg" viewBox="0 -0.5 16 16" shape-rendering="crispEdges">
<path stroke="#808080" d="M0 0h1M2 1h10M2 2h1M12 2h1M2 3h1M13 3h1M2 4h1M2 5h1M2 6h1M2 7h1M2 8h1M5 8h6M2 9h1M2 10h1M5 10h3M2 11h1M2 12h1M2 13h1" />
<path stroke="#ffffff" d="M0 0h1M3 2h8M3 3h8M12 3h1M3 4h4M9 4h2M3 5h10M3 6h2M11 6h2M3 7h1M3 8h1M3 9h1M3 10h1M11 10h2M3 11h1M8 11h5M5 12h8M6 13h3M12 13h1" />
<path stroke="#c0c0c0" d="M0 0h1M11 2h1M11 3h1M13 5h1M13 6h1M13 7h1M13 8h1M13 9h1M13 10h1M13 11h1M3 12h2M13 12h1M5 13h1M9 13h3M13 13h1M6 14h3M12 14h2" />
<path stroke="#0000ff" d="M0 0h1M7 4h2M5 6h6M8 10h3" />
<path stroke="#000000" d="M0 0h1M11 4h4M14 5h1M14 6h1M14 7h1M14 8h1M14 9h1M14 10h1M14 11h1M14 12h1M3 13h2M14 13h1M5 14h1M9 14h3M14 14h1M6 15h3M12 15h3" />
<path stroke="#ffff00" d="M0 0h1M4 7h9M4 8h1M11 8h2M4 9h9M4 10h1M4 11h4" />
</svg>