<svg xmlns="http://www.w3.org/2000/svg" width="16" height="16" shape-rendering="crispEdges" viewBox="0 -0.5 16 16"><path stroke="gray" d="M2 1h10M2 2h1m9 0h1M2 3h1m10 0h1M2 4h1M2 5h1M2 6h1M2 7h1M2 8h1m2 0h6M2 9h1m-1 1h1m2 0h3m-6 1h1m-1 1h1m-1 1h1"/><path stroke="#fff" d="M3 2h8M3 3h8m1 0h1M3 4h4m2 0h2M3 5h10M3 6h2m6 0h2M3 7h1M3 8h1M3 9h1m-1 1h1m7 0h2M3 11h1m4 0h5m-8 1h8m-7 1h3m3 0h1"/><path stroke="silver" d="M11 2h1m-1 1h1m1 2h1m-1 1h1m-1 1h1m-1 1h1m-1 1h1m-1 1h1m-1 1h1M3 12h2m8 0h1m-9 1h1m3 0h3m1 0h1m-8 1h3m3 0h2"/><path stroke="#00f" d="M7 4h2M5 6h6m-3 4h3"/><path stroke="#000" d="M11 4h4m-1 1h1m-1 1h1m-1 1h1m-1 1h1m-1 1h1m-1 1h1m-1 1h1m-1 1h1M3 13h2m9 0h1M5 14h1m3 0h3m2 0h1m-9 1h3m3 0h3"/><path stroke="#ff0" d="M4 7h9M4 8h1m6 0h2M4 9h9m-9 1h1m-1 1h4"/></svg>