<svg xmlns="http://www.w3.org/2000/svg" width="32" height="32" shape-rendering="crispEdges" viewBox="0 -0.5 32 32"><path stroke="gray" d="M11 0h7M9 1h2m7 0h2M7 2h2m11 0h2M6 3h1M5 4h1M4 5h1M3 6h1M2 7h1M2 8h1M1 9h1m-1 1h1m13 0h13M0 11h1m26 0h1M0 12h1m25 0h2M0 13h1m25 0h2M0 14h1m10 0h1m1 0h1m1 0h9m2 0h2M0 15h1m10 0h1m1 0h1m12 0h2M0 16h1m10 0h1m1 0h1m12 0h2M0 17h1m10 0h1m1 0h1m12 0h2M1 18h1m9 0h1m1 0h1m12 0h2M1 19h1m9 0h1m1 0h1m12 0h2M2 20h1m8 0h1m1 0h1m12 0h2M2 21h1m8 0h1m1 0h1m12 0h2M3 22h1m7 0h1m14 0h2m1 0h2M4 23h1m6 0h1m14 0h1m1 0h2M5 24h1m21 0h2m1 0h1M6 25h1m3 0h18m1 0h2M9 26h1m18 0h3M9 27h1m9 0h7m2 0h3M9 28h1m18 0h3M9 29h1m18 0h2M9 30h20"/><path stroke="#fff" d="M11 1h1m2 0h1M9 2h1m2 0h1M7 3h2m2 0h1M6 4h1m1 0h3M5 5h3m1 0h1M4 6h1M3 7h1m3 0h2M4 8h2m1 0h1M2 9h1m1 0h5m-6 1h3m-5 1h1m1 0h3m20 0h1M2 12h4m6 0h1m3 0h10M3 13h3m1 0h1m-4 1h1m1 0h1m1 0h1m15 0h1m-1 1h1m-13 1h1m11 0h1m-13 1h1m11 0h1m-13 1h1m11 0h1m-13 1h1m11 0h1m-13 1h1m11 0h1m-13 1h1m11 0h1m-13 1h13m-15 4h18m-18 1h1m-1 1h1m-1 1h1"/><path stroke="teal" d="M12 1h2m1 0h3M9 3h2m-1 2h1M5 6h1M4 7h1m14 1h1M9 10h1m-8 1h1m-2 1h1m0 1h1m-2 1h1m1 0h1m-2 1h1m-2 1h1m1 0h1m-2 1h1m7 0h1m-7 1h1m-1 1h1m-2 2h1m0 1h1"/><path stroke="silver" d="M10 2h1M7 4h1M7 6h1M5 7h1M3 8h1m2 0h1M3 9h1m-2 1h1m3 0h1m3 1h1m3 0h12M6 12h1m-6 1h1m4 0h1m7 0h12M2 14h1m4 0h1m17 0h1M1 15h1m1 0h1m2 0h1m18 0h1M2 16h1m1 0h1m2 0h2m16 0h1M1 17h1m1 0h1m5 0h1m15 0h1m-1 1h1m-1 1h1m-1 1h1m-1 1h1m-1 1h1m-14 1h14m4 0h1m-2 1h1m-2 1h1m-18 2h8m7 0h2m-17 1h2m2 0h4m7 0h2m-17 1h2m2 0h13"/><path stroke="green" d="M11 2h1m2 0h2m1 0h3m-6 1h8m-8 1h9M8 5h1m2 0h1m1 0h10M6 6h1m1 0h1m1 0h14M9 7h3m1 0h10m1 0h1M8 8h6m3 0h1m2 0h4m1 0h1M9 9h2m9 0h5m1 0h1M7 10h2m-3 1h2m0 2h3m-2 1h1m-3 1h4m-2 1h2m-9 2h1m-1 1h2m-1 1h1m9 9h2"/><path stroke="#00f" d="M13 2h1m2 0h1m-5 1h2m-3 1h1m1 0h1m-2 1h1M9 6h1M6 7h1m7 1h3m1 0h1m-8 1h1m1 0h2m1 0h2m1 0h1m-9 1h1m-4 1h2m-3 1h2m-4 2h1m-2 1h2m-1 1h2m8 0h8M4 17h5m6 0h1m1 0h6M3 18h1m1 0h6m4 0h1m1 0h6M5 19h6m4 0h8M4 20h7m4 0h8M4 21h7m-6 1h6m-6 1h6m-4 1h5m-4 1h1"/><path stroke="#000" d="M22 3h1m0 1h1m0 1h1m0 1h1m0 1h1m-1 1h1m0 1h1m0 2h1m-1 1h1m-1 1h1m-1 1h1m-15 1h9m5 0h1m-15 1h1m13 0h1m-15 1h1m13 0h1m-15 1h1m13 0h1m-15 1h1m13 0h1m-15 1h1m13 0h1m-1 1h1m-1 1h1m-2 1h1m3 0h1m-20 1h15m4 0h1m-1 1h1M7 26h2m22 0h1m-1 1h1m-13 1h7m5 0h1m-2 1h1m-2 1h1m-20 1h19"/><path stroke="navy" d="M12 4h1m10 1h1m0 1h1m-2 1h1m1 0h1m-2 1h1m-7 1h1m6 0h1m-13 1h1m9 5h1m-1 1h1m-1 1h1m-1 1h1m-1 1h1m-1 1h1m-10 1h10M6 24h1m0 1h1m1 0h1"/><path stroke="#ff0" d="M12 7h1m-1 2h1m2 0h1m-6 1h1m1 0h1m1 0h1m-4 1h3m-5 1h3m1 0h3m-5 1h3m-4 1h1m1 0h1m1 0h1m-3 1h1"/><path stroke="#0ff" d="M16 17h1m-1 1h1"/><path stroke="#0f0" d="M13 28h2"/></svg>