<svg xmlns="http://www.w3.org/2000/svg" width="16" height="16" shape-rendering="crispEdges" viewBox="0 -0.5 16 16"><path stroke="#000" d="M1 0h5M1 1h1m3 0h2M1 2h1m3 0h3M1 3h1m1 0h2m2 0h1M1 4h1m5 0h1M1 5h1m1 0h3m1 0h1M1 6h1m5 0h1m4 0h1m2 0h1M1 7h1m5 0h1m5 0h1m1 0h1M1 8h7m5 0h3m-5 1h2m2 0h1M6 10h1m1 0h2m3 0h2m-9 1h1m3 0h3m-7 1h1m0 1h1m-1 1h1m-7 1h7"/><path stroke="#fff" d="M2 1h3M2 2h3M2 3h1m2 0h2M2 4h5M2 5h1m3 0h1M2 6h5M2 7h5"/><path stroke="gray" d="M11 4h2m-3 1h1m2 0h2M9 6h2M9 7h1M8 8h1M1 9h6m1 0h1m4 0h2M1 10h1m3 0h1m6 0h1M1 11h1m3 0h1m-5 1h5m-6 1h1m5 0h1m-7 1h1m2 0h4"/><path stroke="#00f" d="M8 5h2m4 6h1m-1 1h1m-1 1h1m-7 1h1m1 0h1m1 0h1m1 0h1m-6 1h1m1 0h1m1 0h1"/><path stroke="#ff0" d="M11 5h2m0 1h2m-5 1h1m1 0h1m-2 1h1"/><path stroke="olive" d="M11 6h1m2 1h1M9 8h2m1 0h1"/><path stroke="silver" d="M11 7h1M9 9h2m-1 1h2M1 13h5"/><path stroke="#0ff" d="M2 10h3m-3 1h3"/><path stroke="#0f0" d="M1 14h2"/></svg>