<svg xmlns="http://www.w3.org/2000/svg" width="32" height="32" shape-rendering="crispEdges" viewBox="0 -0.5 32 32"><path stroke="#000" d="M2 0h10M2 1h1m8 0h2M2 2h1m8 0h1m1 0h1M2 3h1m8 0h4M2 4h1m1 0h5m5 0h1M2 5h1m11 0h1M2 6h1m11 0h1m7 0h1M2 7h1m1 0h5m1 0h2m2 0h1m6 0h1m1 0h1M2 8h1m11 0h1m4 0h2m2 0h2m1 0h1m3 0h1M2 9h1m11 0h1m10 0h1m1 0h1m3 0h1M2 10h1m2 0h7m2 0h1m12 0h1m3 0h1M2 11h1m11 0h1m12 0h1m3 0h1M2 12h1m11 0h1m13 0h4M2 13h1m11 0h1m15 0h1M2 14h13m1 0h1m11 0h2m1 0h1m-15 1h2m7 0h2m3 0h1m-13 1h2m3 0h2m5 0h1m-11 1h3m7 0h1m-18 1h1m15 0h2m-20 1h1m2 0h2m11 0h2M3 20h7m2 0h1m4 0h2m7 0h2M3 21h1m8 0h1m6 0h2m3 0h2M3 22h1m8 0h1m8 0h3M3 23h1m8 0h1M3 24h1m8 0h1M3 25h1m8 0h1m-1 1h1M2 27h10m1 0h1m-1 1h1m-6 1h3m2 0h1m-1 1h1M1 31h12"/><path stroke="#fff" d="M3 1h8M3 2h8m1 0h1M3 3h8M3 4h1m5 0h5M3 5h11M3 6h11M3 7h1m5 0h1m2 0h2M3 8h11M3 9h11M3 10h2m7 0h2M3 11h11M3 12h11m3 0h2M3 13h11m5 0h2m0 1h1m-7 1h2m0 1h2m0 1h2m0 1h1M1 28h11M1 29h1"/><path stroke="gray" d="M20 4h5m-6 1h2m4 0h2m-9 1h1m2 0h1m1 0h1m3 0h2M18 7h1m10 0h1M18 8h1m8 0h1M18 9h1m5 0h1m-8 1h1m-2 1h1m-2 1h1m-1 1h1m-1 1h1m-2 1h1m15 0h1m-17 1h1m13 0h3m-17 1h1m11 0h5M2 18h10m12 0h6M1 19h1m9 0h1m10 0h6M1 20h1m9 0h1m10 0h4M1 21h1m9 0h1m10 0h2M1 22h1m9 0h1M1 23h1m9 0h1M1 24h1m9 0h1M1 25h1m2 0h6m1 0h1M1 26h1m9 0h1M1 27h1m10 0h1M0 28h1m11 0h1M0 29h1m11 0h1M0 30h13"/><path stroke="#ff0" d="M21 5h4m-6 1h2m3 0h3m-8 1h2m1 0h1m2 0h4m-8 1h2m5 0h2M19 9h1m3 0h1m2 0h1m1 0h3m-13 1h1m5 0h2m3 0h2m-14 1h1m5 0h2m-9 1h1m2 0h1m2 0h2m-8 1h3m2 0h2m-6 1h4m-2 1h3m-1 1h1"/><path stroke="olive" d="M24 7h1m0 1h1m-5 1h1m-2 1h1m1 0h1m5 0h1m-10 1h1m1 0h1m4 0h1m1 0h3m-11 1h1m4 0h3m-4 1h6m-7 1h5m-6 1h4m-4 1h2"/><path stroke="#00f" d="M15 9h3m11 11h1m-1 1h1m-1 1h1m-1 1h1m-1 1h1m-1 1h1m-13 1h1m3 0h1m3 0h1m3 0h1m-14 1h1m1 0h1m1 0h1m1 0h1m1 0h1m1 0h1m2 0h1m-16 1h1m1 0h1m1 0h1m1 0h1m1 0h1m1 0h1m1 0h1m1 0h1m-14 1h1m3 0h1m3 0h1m3 0h1"/><path stroke="silver" d="M20 9h1m1 0h1m-4 1h1m1 0h1m1 0h1m2 0h1m-9 1h1m1 0h1m1 0h1m2 0h1m-5 1h1m2 0h1m-2 1h1m-2 1h1m7 0h1m-3 1h2m-15 1h2m9 0h2m-13 1h1m1 0h2m5 0h2m-11 1h3m1 0h2m1 0h2M2 19h9m6 0h3m1 0h1M2 20h1m7 0h1m8 0h3M2 21h1m7 0h1m10 0h1M2 22h1m7 0h1m-9 1h1m7 0h1m-9 1h1m7 0h1m-9 1h1m7 0h1m-9 1h9m-9 3h1m2 0h3m3 0h1"/><path stroke="red" d="M16 17h1m1 1h1m1 1h1"/><path stroke="#0ff" d="M4 21h1m-1 1h1"/><path stroke="teal" d="M5 21h5m-5 1h5m-6 1h6m-6 1h6"/><path stroke="#0f0" d="M3 29h2"/></svg>