<svg xmlns="http://www.w3.org/2000/svg" viewBox="0 -0.5 16 16" shape-rendering="crispEdges">
<path stroke="#000000" d="M0 0h6M1 1h1M5 1h2M1 2h1M5 2h3M1 3h1M3 3h2M7 3h1M1 4h1M7 4h1M1 5h1M3 5h3M7 5h1M1 6h1M7 6h1M12 6h1M15 6h1M1 7h1M7 7h1M13 7h1M15 7h1M1 8h7M13 8h3M11 9h2M15 9h1M6 10h1M8 10h2M13 10h2M6 11h1M10 11h3M6 12h1M7 13h1M7 14h1M1 15h7" />
<path stroke="#ffffff" d="M0 0h1M2 1h3M2 2h3M2 3h1M5 3h2M2 4h5M2 5h1M6 5h1M2 6h5M2 7h5" />
<path stroke="#808080" d="M0 0h1M11 4h2M10 5h1M13 5h2M9 6h2M9 7h1M8 8h1M1 9h6M8 9h1M13 9h2M1 10h1M5 10h1M12 10h1M1 11h1M5 11h1M1 12h5M0 13h1M6 13h1M0 14h1M3 14h4" />
<path stroke="#0000ff" d="M0 0h1M8 5h2M14 11h1M14 12h1M14 13h1M8 14h1M10 14h1M12 14h1M14 14h1M9 15h1M11 15h1M13 15h1" />
<path stroke="#ffff00" d="M0 0h1M11 5h2M13 6h2M10 7h1M12 7h1M11 8h1" />
<path stroke="#808000" d="M0 0h1M11 6h1M14 7h1M9 8h2M12 8h1" />
<path stroke="#c0c0c0" d="M0 0h1M11 7h1M9 9h2M10 10h2M1 13h5" />
<path stroke="#00ffff" d="M0 0h1M2 10h3M2 11h3" />
<path stroke="#00ff00" d="M0 0h1M1 14h2" />
</svg>