<svg xmlns="http://www.w3.org/2000/svg" width="32" height="32" shape-rendering="crispEdges" viewBox="0 -0.5 32 32"><path stroke="gray" d="M12 0h15M12 1h1m13 0h1M12 2h1m13 0h2M9 3h15m2 0h1m1 0h1M9 4h1m13 0h1m2 0h1m2 0h1M9 5h1m13 0h2m1 0h1M9 6h1m13 0h1m1 0h1M9 7h1m13 0h1m2 0h1M9 8h1m13 0h1M9 9h1m-1 1h1m10 0h1m1 0h1M9 11h1m-1 1h1m9 0h2m2 0h1M9 13h1m13 0h1M9 14h1m13 0h1M9 15h1m13 0h1M9 16h1m13 0h1M9 17h1m10 0h1m2 0h1M9 18h1m5 0h1m7 0h1M9 19h1m13 0h1M9 20h1m13 0h1M9 21h1m9 0h2m2 0h1M9 22h1m13 0h1M9 23h1m12 0h1M9 24h1m-1 1h1m-1 1h1m-1 1h1m-1 1h1"/><path stroke="#fff" d="M13 1h13M13 2h13m-2 1h2m1 0h1M10 4h13m2 0h1m1 0h2M10 5h13M10 6h13m1 0h1m2 0h3M10 7h13m1 0h2m2 0h2M10 8h13m6 0h1M10 9h10m2 0h5m2 0h1m-20 1h9m4 0h4m2 0h1m-20 1h8m5 0h4m2 0h1m-20 1h7m5 0h1m1 0h3m2 0h1m-20 1h6m2 0h1m2 0h2m1 0h3m2 0h1m-20 1h4m3 0h1m3 0h2m1 0h3m2 0h1m-20 1h3m1 0h1m1 0h1m1 0h1m2 0h2m1 0h3m2 0h1m-20 1h3m4 0h1m4 0h1m1 0h3m2 0h1m-20 1h3m3 0h1m1 0h1m3 0h1m1 0h3m2 0h1m-20 1h3m4 0h1m3 0h2m1 0h3m2 0h1m-20 1h4m4 0h1m2 0h2m1 0h3m2 0h1m-20 1h6m5 0h2m1 0h3m2 0h1m-20 1h7m4 0h2m1 0h3m2 0h1m-20 1h8m6 0h3m2 0h1m-20 1h9m4 0h4m2 0h1m-20 1h10m2 0h5m2 0h1m-20 1h17m-17 1h17m-17 1h17"/><path stroke="#000" d="M27 1h1m0 1h1m0 1h1m-6 1h1m5 0h1m-6 1h1m1 0h5m-6 1h1m4 0h1m-5 1h1m3 0h1m-8 1h5m2 0h1M20 9h2m6 0h1m2 0h1m-11 1h1m6 0h1m2 0h1m-12 1h1m7 0h1m2 0h1m-4 1h1m2 0h1m-13 1h1m8 0h1m2 0h1m-13 1h1m8 0h1m2 0h1m-13 1h2m7 0h1m2 0h1m-13 1h1m1 0h1m6 0h1m2 0h1m-13 1h1m1 0h1m6 0h1m2 0h1m-19 1h1m5 0h2m7 0h1m2 0h1m-18 1h2m3 0h1m8 0h1m2 0h1m-16 1h1m2 0h1m8 0h1m2 0h1m-15 1h1m10 0h1m2 0h1m-14 1h1m1 0h1m7 0h1m2 0h1m-13 1h1m1 0h1m6 0h1m2 0h1m-12 1h2m6 0h1m2 0h1m-4 1h1m2 0h1m-4 1h4m-4 1h1m-1 1h1M9 29h20"/><path stroke="silver" d="M30 6h1m-1 1h1m-1 1h1m-4 1h1m2 0h1m-4 1h1m2 0h1m-10 1h2m4 0h1m2 0h1m-10 1h1m5 0h1m2 0h1m-11 1h1m6 0h1m2 0h1m-11 1h1m6 0h1m2 0h1m-16 1h1m11 0h1m2 0h1m-16 1h1m4 0h1m6 0h1m2 0h1m-16 1h1m11 0h1m2 0h1m-4 1h1m2 0h1m-11 1h1m6 0h1m2 0h1m-11 1h1m6 0h1m2 0h1m-4 1h1m2 0h1m-10 1h2m4 0h1m2 0h1m-4 1h1m2 0h1m-4 1h1m2 0h1m-4 1h1m1 0h2m-4 1h1m-1 1h1m-18 1h18"/><path stroke="red" d="M2 7h2M1 8h1M0 9h1m-1 1h1m4 0h1m-5 1h1m3 0h2m-5 1h6m-3 1h2m-2 1h1m-4 2h2m-3 1h1m-2 1h1m-1 1h1m4 0h1m-5 1h1m3 0h2m-5 1h6m-3 1h2m-2 1h1"/><path stroke="olive" d="M19 10h1m-2 1h1m-2 1h1m-2 1h1m-3 1h2m-3 1h1m-1 1h1m-1 1h1m0 1h1m1 1h1m0 1h1m0 1h1m0 1h1m0 1h1"/><path stroke="#ff0" d="M19 11h1m-2 1h1m-2 1h1m-2 1h1m1 0h1m-2 1h1m-4 1h1m1 0h1m1 0h1m-5 1h1m2 0h1m-2 1h1m1 0h1m-2 1h1m0 1h1"/></svg>