<svg xmlns="http://www.w3.org/2000/svg" viewBox="0 -0.5 16 16" shape-rendering="crispEdges">
<path stroke="#808080" d="M0 0h1M3 0h10M3 1h1M12 1h2M3 2h1M12 2h1M14 2h1M3 3h1M8 3h1M10 3h3M3 4h1M3 5h1M9 5h1M12 5h1M3 6h1M12 6h1M3 7h1M10 7h1M12 7h1M3 8h1M6 8h1M12 8h1M3 9h1M12 9h1M3 10h1M12 10h1M3 11h1M3 12h1M3 13h1M3 14h1" />
<path stroke="#ffffff" d="M0 0h1M4 1h8M4 2h8M13 2h1M4 3h4M4 4h3M9 4h1M13 4h1M4 5h2M8 5h1M11 5h1M13 5h1M4 6h1M7 6h1M11 6h1M13 6h1M5 7h1M8 7h1M11 7h1M13 7h1M8 8h1M11 8h1M13 8h1M4 9h1M11 9h1M13 9h1M4 10h3M11 10h1M13 10h1M4 11h4M13 11h1M4 12h5M12 12h2M4 13h10" />
<path stroke="#808000" d="M0 0h1M9 3h1M7 4h2M11 4h2M6 5h2M5 6h2M4 7h1M4 8h1M7 9h1M8 10h1M9 11h2M12 11h1" />
<path stroke="#000000" d="M0 0h1M13 3h3M10 4h1M15 4h1M10 5h1M15 5h1M9 6h1M15 6h1M9 7h1M15 7h1M9 8h2M15 8h1M5 9h2M9 9h1M15 9h1M7 10h1M10 10h1M15 10h1M8 11h1M11 11h1M15 11h1M9 12h3M15 12h1M15 13h1M15 14h1M3 15h13" />
<path stroke="#ff0000" d="M0 0h1M1 4h1M0 5h1M0 6h1M2 6h1M1 7h2M1 9h1M0 10h1M0 11h1M2 11h1M1 12h2" />
<path stroke="#c0c0c0" d="M0 0h1M14 4h1M14 5h1M10 6h1M14 6h1M6 7h1M14 7h1M14 8h1M10 9h1M14 9h1M14 10h1M14 11h1M14 12h1M14 13h1M4 14h11" />
<path stroke="#ffff00" d="M0 0h1M8 6h1M7 7h1M5 8h1M7 8h1M8 9h1M9 10h1" />
</svg>