<svg xmlns="http://www.w3.org/2000/svg" width="16" height="16" shape-rendering="crispEdges" viewBox="0 -0.5 16 16"><path stroke="gray" d="M3 0h10M3 1h1m8 0h2M3 2h1m8 0h1m1 0h1M3 3h1m4 0h1m1 0h3M3 4h1M3 5h1m5 0h1m2 0h1M3 6h1m8 0h1M3 7h1m6 0h1m1 0h1M3 8h1m2 0h1m5 0h1M3 9h1m8 0h1M3 10h1m8 0h1M3 11h1m-1 1h1m-1 1h1m-1 1h1"/><path stroke="#fff" d="M4 1h8M4 2h8m1 0h1M4 3h4M4 4h3m2 0h1m3 0h1M4 5h2m2 0h1m2 0h1m1 0h1M4 6h1m2 0h1m3 0h1m1 0h1M5 7h1m2 0h1m2 0h1m1 0h1M8 8h1m2 0h1m1 0h1M4 9h1m6 0h1m1 0h1M4 10h3m4 0h1m1 0h1M4 11h4m5 0h1M4 12h5m3 0h2M4 13h10"/><path stroke="olive" d="M9 3h1M7 4h2m2 0h2M6 5h2M5 6h2M4 7h1M4 8h1m2 1h1m0 1h1m0 1h2m1 0h1"/><path stroke="#000" d="M13 3h3m-6 1h1m4 0h1m-6 1h1m4 0h1M9 6h1m5 0h1M9 7h1m5 0h1M9 8h2m4 0h1M5 9h2m2 0h1m5 0h1m-9 1h1m2 0h1m4 0h1m-8 1h1m2 0h1m3 0h1m-7 1h3m3 0h1m-1 1h1m-1 1h1M3 15h13"/><path stroke="red" d="M1 4h1M0 5h1M0 6h1m1 0h1M1 7h2M1 9h1m-2 1h1m-1 1h1m1 0h1m-2 1h2"/><path stroke="silver" d="M14 4h1m-1 1h1m-5 1h1m3 0h1M6 7h1m7 0h1m-1 1h1m-5 1h1m3 0h1m-1 1h1m-1 1h1m-1 1h1m-1 1h1M4 14h11"/><path stroke="#ff0" d="M8 6h1M7 7h1M5 8h1m1 0h1m0 1h1m0 1h1"/></svg>