<svg xmlns="http://www.w3.org/2000/svg" viewBox="0 -0.5 16 16" shape-rendering="crispEdges">
<path stroke="#000000" d="M0 0h1M7 0h2M8 1h1M7 2h1M6 4h1M6 5h1M6 6h2M6 7h1M8 7h1M6 8h1M8 8h1M0 9h1M6 9h2M1 10h2M6 10h1M3 11h1M6 11h1M4 12h1M5 13h1M7 13h1M6 14h1M8 14h1M7 15h2" />
<path stroke="#bfbf00" d="M0 0h1M6 1h1M5 2h1M4 3h1M3 4h1M1 5h2M0 6h1M0 7h1M0 8h1M1 9h1M3 10h1M4 11h1M5 12h1M6 13h1M7 14h1" />
<path stroke="#808080" d="M0 0h1M7 1h1M9 1h1M6 3h2M10 3h1M14 3h1M10 4h1M13 4h1M10 5h1M12 5h1M10 6h1M10 7h1M7 8h1M10 8h1M12 8h4M2 9h1M10 9h1M10 10h1M10 11h1M12 11h1M6 12h2M10 12h1M13 12h1M10 13h1M14 13h1M9 14h1" />
<path stroke="#ffff00" d="M0 0h1M6 2h1M5 3h1M4 4h1M3 5h1M5 5h1M4 6h1M1 7h1M3 7h1M5 7h1M1 8h1M4 8h1M3 9h1M5 9h1M4 10h1M5 11h1" />
<path stroke="#c0c0c0" d="M0 0h1M8 2h2M8 3h1M7 4h1M7 5h1M2 6h1M2 7h1M7 7h1M2 8h1M7 10h1M7 11h1M8 13h2" />
<path stroke="#ffffff" d="M0 0h1M9 3h1M5 4h1M8 4h2M4 5h1M8 5h2M1 6h1M3 6h1M5 6h1M8 6h2M4 7h1M9 7h1M3 8h1M5 8h1M9 8h1M4 9h1M8 9h2M5 10h1M8 10h2M8 11h2M8 12h2" />
</svg>