<svg xmlns="http://www.w3.org/2000/svg" width="32" height="32" shape-rendering="crispEdges" viewBox="0 -0.5 32 32"><path stroke="gray" d="M0 0h24M0 1h1M0 2h1m21 0h1M0 3h1m21 0h1M0 4h1m21 0h1M0 5h1m2 0h5m3 0h1m4 0h5m1 0h1M0 6h1m10 0h1m10 0h1M0 7h1m10 0h1m10 0h1M0 8h1m10 0h1m10 0h1M0 9h1m2 0h5m3 0h1m4 0h5m1 0h1M0 10h1m7 0h8m6 0h1M0 11h1m7 0h1m13 0h1M0 12h1m7 0h1m13 0h1m6 0h1M0 13h1m2 0h5m3 0h1m4 0h5m1 0h1m3 0h1m2 0h1M0 14h1m10 0h1m10 0h1m7 0h1M0 15h1m10 0h1m18 0h1M0 16h1m10 0h1m18 0h1M0 17h1m2 0h5m3 0h1m4 0h4m11 0h1M0 18h1m10 0h1m14 0h1m4 0h1M0 19h1m10 0h1m15 0h1m3 0h1M0 20h1m10 0h1m15 0h1m3 0h1M0 21h1m2 0h5m3 0h1m15 0h1m3 0h1M0 22h1m10 0h1m14 0h2m3 0h1M0 23h1m10 0h1m19 0h1M0 24h1m10 0h1m14 0h2m3 0h1M0 25h1m2 0h5m3 0h1m4 0h2m8 0h1m4 0h1M0 26h1m10 0h1m14 0h1m3 0h1M0 27h1m24 0h2m3 0h1M0 28h1m21 0h1m7 0h1M0 29h1m21 0h1m6 0h1M0 30h1m1 0h21m6 0h1M0 31h1"/><path stroke="#fff" d="M1 1h22M1 2h1M1 3h1M1 4h1M1 5h1m11 0h1M1 6h1m1 0h5m5 0h1m2 0h5M1 7h1m11 0h1M1 8h1m11 0h1M1 9h1m11 0h1M1 10h1m1 0h5m8 0h5M1 11h1m7 0h1m-9 1h1m-1 1h1m11 0h1M1 14h1m1 0h5m5 0h1m2 0h5m7 0h2M1 15h1m11 0h1m11 0h1m2 0h2M1 16h1m11 0h1m10 0h1m3 0h2M1 17h1m11 0h1m9 0h1m4 0h3M1 18h1m1 0h5m5 0h1m2 0h1m5 0h1m1 0h1m3 0h3M1 19h1m11 0h1m3 0h1m2 0h5m3 0h3M1 20h1m11 0h1m3 0h2m1 0h1m1 0h1m1 0h1m1 0h1m2 0h2M1 21h1m11 0h1m3 0h1m3 0h1m1 0h2m4 0h2M1 22h1m1 0h5m5 0h1m3 0h1m11 0h2M1 23h1m11 0h1m3 0h1m11 0h2M1 24h1m11 0h1m15 0h2M1 25h1m11 0h1m14 0h3M1 26h1m1 0h5m5 0h1m2 0h5m7 0h2M1 27h1m8 0h4m14 0h2M1 28h1m26 0h2M1 29h1m26 0h1M1 30h1"/><path stroke="#000" d="M23 1h1m-1 1h1m-1 1h1M10 4h4m9 0h1M10 5h1m12 0h1M10 6h1m12 0h1M10 7h1m12 0h1M10 8h1m12 0h1M10 9h1m12 0h1m-1 1h1m-9 1h1m7 0h1m3 0h2M9 12h7m7 0h1m3 0h1m-18 1h1m12 0h1m3 0h1m-18 1h1m15 0h1m-17 1h1m15 0h1m-17 1h1m15 0h1m-17 1h1m14 0h1m-16 1h1m14 0h1m-16 1h1m14 0h2m-17 1h1m14 0h1m2 0h1m-19 1h1m14 0h1m2 0h1m-19 1h1m14 0h1m2 0h1m-19 1h1m14 0h3m-18 1h1m14 0h1m-16 1h1m7 0h3m4 0h1m-16 1h1m10 0h1m3 0h1m-4 1h1m0 1h1m2 0h1m-4 1h2m1 0h1m-4 1h1m1 0h1m1 0h1M1 31h23m2 0h3"/><path stroke="silver" d="M2 2h20M2 3h20M2 4h8m4 0h8M2 5h1m5 0h2m2 0h1m1 0h2m5 0h1M2 6h1m5 0h2m2 0h1m1 0h2m5 0h1M2 7h8m2 0h1m1 0h8M2 8h8m2 0h1m1 0h8M2 9h1m5 0h2m2 0h1m1 0h2m5 0h1M2 10h1m18 0h1M2 11h6m2 0h5m1 0h6M2 12h6m8 0h6m4 0h1m1 0h1M2 13h1m5 0h2m2 0h1m1 0h2m5 0h1m3 0h1m2 0h1M2 14h1m5 0h2m2 0h1m1 0h2m5 0h1m2 0h1m2 0h1M2 15h8m2 0h1m1 0h8m1 0h1m3 0h1M2 16h8m2 0h1m1 0h7m1 0h1m4 0h1M2 17h1m5 0h2m2 0h1m1 0h2m5 0h1m4 0h2M2 18h1m5 0h2m2 0h1m1 0h2m11 0h1M2 19h8m2 0h1m1 0h2M2 20h8m2 0h1m1 0h2M2 21h1m5 0h2m2 0h1m1 0h2m10 0h1M2 22h1m5 0h2m2 0h1m1 0h2m2 0h1m1 0h1m1 0h1m1 0h1M2 23h8m2 0h1m1 0h2m5 0h1m1 0h1m4 0h1M2 24h8m2 0h1m1 0h3m5 0h1m1 0h1m3 0h1M2 25h1m5 0h2m2 0h1m1 0h2m5 0h1m1 0h1m3 0h1M2 26h1m5 0h2m2 0h1m1 0h2m8 0h1m2 0h1M2 27h8m4 0h8m5 0h1M2 28h20m5 0h1M2 29h20m5 0h1m0 1h1"/><path stroke="olive" d="M26 11h1m-2 1h1m-2 1h1m-2 1h1m-2 1h1m-2 1h1m-2 1h1m-4 1h3m-4 1h1m2 0h1m-4 1h1m2 0h1m-4 1h1m2 0h1m-4 1h1m2 0h1m-4 1h1m2 0h1m-3 1h4m1 2h1m0 1h2m-1 1h2m-1 1h1m0 1h1"/><path stroke="#ff0" d="M25 14h1m-2 1h1m-2 1h1m1 0h1m-4 1h1m1 0h1m-5 1h2m1 0h1m-6 1h1m2 1h1m1 0h1m-6 1h1m1 0h1m1 0h1m-2 1h1m1 0h1m-6 1h1m1 0h1m1 0h1m1 0h1m-4 1h1m1 0h1m-2 1h1m1 0h1m-2 1h1"/></svg>