<svg xmlns="http://www.w3.org/2000/svg" viewBox="0 -0.5 32 32" shape-rendering="crispEdges">
<path stroke="#000000" d="M0 0h1M9 1h2M9 2h3M9 3h1M8 4h2M12 4h1M8 5h1M12 5h1M8 6h1M12 6h1M8 7h2M12 7h1M8 8h1M10 8h1M12 8h1M8 9h3M12 9h1M2 10h1M4 10h1M8 10h2M12 10h1M3 11h2M8 11h1M12 11h1M5 12h1M8 12h1M12 12h1M6 13h1M8 13h2M12 13h1M7 14h1M9 14h1M12 14h1M8 15h1M10 15h2M9 16h2" />
<path stroke="#808000" d="M0 0h1M8 2h1M7 3h1M6 4h1M5 5h1M3 6h2M2 7h1M2 8h1M2 9h1M3 10h1M5 11h1M6 12h1M7 13h1M8 14h1M9 15h1" />
<path stroke="#ffff00" d="M0 0h1M8 3h1M7 4h1M6 5h1M5 6h1M7 6h1M6 7h1M3 8h1M5 8h1M7 8h1M3 9h1M6 9h1M5 10h1M7 10h1M6 11h1M7 12h1" />
<path stroke="#c0c0c0" d="M0 0h1M10 3h2M10 4h1M9 5h1M9 6h1M4 7h1M4 8h1M9 8h1M4 9h1M9 11h1M9 12h1M10 14h2" />
<path stroke="#ffffff" d="M0 0h1M11 4h1M7 5h1M10 5h2M6 6h1M10 6h2M3 7h1M5 7h1M7 7h1M10 7h2M6 8h1M11 8h1M5 9h1M7 9h1M11 9h1M6 10h1M10 10h2M7 11h1M10 11h2M10 12h2M10 13h2" />
</svg>