<svg xmlns="http://www.w3.org/2000/svg" width="16" height="16" shape-rendering="crispEdges" viewBox="0 -0.5 16 16"><path stroke="gray" d="M2 0h12M2 1h1M2 2h1m9 0h1M2 3h1m9 0h1M2 4h1m1 0h2m4 0h3M2 5h1m3 0h4m2 0h1M2 6h1m9 0h1M2 7h1m1 0h2m4 0h3M2 8h1m9 0h1M2 9h1m9 0h1M2 10h1m1 0h2m4 0h3M2 11h1m9 0h1M2 12h1m9 0h1M2 13h1m9 0h1M2 14h1m1 0h9"/><path stroke="#fff" d="M3 1h10M3 2h1M3 3h1M3 4h1m4 0h1M3 5h3m4 0h2M3 6h1M3 7h1m4 0h1M3 8h3m2 0h1m1 0h2M3 9h1m4 0h1m-6 1h1m4 0h1m-6 1h3m2 0h1m1 0h2m-9 1h1m3 0h2m-6 1h1m-1 1h1"/><path stroke="#000" d="M13 1h1m-1 1h1M7 3h2m4 0h1M7 4h1m5 0h1m-1 1h1M6 6h4m3 0h1M7 7h1m5 0h1M7 8h1m5 0h1M7 9h1m5 0h1m-7 1h1m5 0h1m-7 1h1m5 0h1m-1 1h1m-1 1h1m-1 1h1M2 15h12"/><path stroke="silver" d="M4 2h8M4 3h3m2 0h3M6 4h1m2 0h1M4 6h2m4 0h2M6 7h1m2 0h1M6 8h1m2 0h1M4 9h3m2 0h3m-6 1h1m2 0h1m-4 1h1m2 0h1m-6 1h3m2 0h3m-8 1h8"/></svg>