<svg xmlns="http://www.w3.org/2000/svg" viewBox="0 -0.5 32 32" shape-rendering="crispEdges">
<path stroke="#808000" d="M0 0h1M4 2h2M6 3h1M7 4h1M8 5h1M9 6h1M10 7h2M12 8h1M12 9h1M12 10h1M11 11h1M9 12h1M8 13h1M7 14h1M6 15h1M5 16h1" />
<path stroke="#000000" d="M0 0h1M3 3h3M5 4h1M2 5h1M5 5h2M2 6h1M6 6h1M2 7h1M6 7h1M2 8h1M5 8h2M2 9h1M4 9h1M6 9h1M2 10h1M4 10h3M2 11h1M5 11h2M10 11h1M12 11h1M2 12h1M6 12h1M10 12h2M2 13h1M6 13h1M9 13h1M2 14h1M5 14h2M8 14h1M2 15h1M5 15h1M7 15h1M3 16h2M6 16h1M4 17h2" />
<path stroke="#c0c0c0" d="M0 0h1M2 4h3M4 5h1M5 6h1M5 7h1M10 8h1M5 9h1M10 9h1M10 10h1M5 12h1M5 13h1M3 15h2" />
<path stroke="#ffff00" d="M0 0h1M6 4h1M7 5h1M8 6h1M7 7h1M9 7h1M8 8h1M7 9h1M9 9h1M11 9h1M8 10h1M11 10h1M7 11h1M9 11h1M8 12h1M7 13h1" />
<path stroke="#ffffff" d="M0 0h1M3 5h1M3 6h2M7 6h1M3 7h2M8 7h1M3 8h2M7 8h1M9 8h1M11 8h1M3 9h1M8 9h1M3 10h1M7 10h1M9 10h1M3 11h2M8 11h1M3 12h2M7 12h1M3 13h2M3 14h2" />
</svg>