<svg xmlns="http://www.w3.org/2000/svg" viewBox="0 -0.5 16 16" shape-rendering="crispEdges">
<path stroke="#808080" d="M0 0h1M2 0h12M2 1h1M2 2h1M12 2h1M2 3h1M12 3h1M2 4h1M4 4h2M10 4h3M2 5h1M6 5h4M12 5h1M2 6h1M12 6h1M2 7h1M4 7h2M10 7h3M2 8h1M12 8h1M2 9h1M12 9h1M2 10h1M4 10h2M10 10h3M2 11h1M12 11h1M2 12h1M12 12h1M2 13h1M12 13h1M2 14h1M4 14h9" />
<path stroke="#ffffff" d="M0 0h1M3 1h10M3 2h1M3 3h1M3 4h1M8 4h1M3 5h3M10 5h2M3 6h1M3 7h1M8 7h1M3 8h3M8 8h1M10 8h2M3 9h1M8 9h1M3 10h1M8 10h1M3 11h3M8 11h1M10 11h2M3 12h1M7 12h2M3 13h1M3 14h1" />
<path stroke="#000000" d="M0 0h1M13 1h1M13 2h1M7 3h2M13 3h1M7 4h1M13 4h1M13 5h1M6 6h4M13 6h1M7 7h1M13 7h1M7 8h1M13 8h1M7 9h1M13 9h1M7 10h1M13 10h1M7 11h1M13 11h1M13 12h1M13 13h1M13 14h1M2 15h12" />
<path stroke="#c0c0c0" d="M0 0h1M4 2h8M4 3h3M9 3h3M6 4h1M9 4h1M4 6h2M10 6h2M6 7h1M9 7h1M6 8h1M9 8h1M4 9h3M9 9h3M6 10h1M9 10h1M6 11h1M9 11h1M4 12h3M9 12h3M4 13h8" />
</svg>