<svg xmlns="http://www.w3.org/2000/svg" viewBox="0 -0.5 16 16" shape-rendering="crispEdges">
<path stroke="#808080" d="M0 0h1M5 0h7M4 1h1M4 2h7M3 3h1M3 4h1M3 5h1M12 5h1M2 6h2M11 6h2M2 7h2M11 7h1M3 8h1M11 8h1M3 9h1M11 9h1M3 10h1M11 10h1M3 11h1M11 11h1M3 12h1M11 12h1M3 13h1M11 13h1M3 14h1M11 14h1M3 15h1" />
<path stroke="#c0c0c0" d="M0 0h1M5 1h7M11 2h1M4 6h7M4 7h1M6 7h2M10 7h1M4 8h1M10 8h1M4 9h1M10 9h1M4 10h1M10 10h1M4 11h1M10 11h1M4 12h1M10 12h1M4 13h1M10 13h1M4 14h7" />
<path stroke="#000000" d="M0 0h1M12 1h1M12 2h1M11 3h2M11 4h2M11 5h1M13 5h1M13 6h1M12 7h1M12 8h1M12 9h1M12 10h1M12 11h1M12 12h1M12 13h1M12 14h1M4 15h8" />
<path stroke="#ffffff" d="M0 0h1M4 3h7M4 4h1M6 4h3M10 4h1M4 5h1M6 5h3M10 5h1" />
<path stroke="#800000" d="M0 0h1M5 4h1M9 4h1M5 5h1M9 5h1" />
<path stroke="#000080" d="M0 0h1M5 7h1M8 7h2M5 8h5M5 9h5M5 10h5M5 11h5M5 12h5M5 13h5" />
</svg>