<svg xmlns="http://www.w3.org/2000/svg" width="32" height="32" shape-rendering="crispEdges" viewBox="0 -0.5 32 32"><path stroke="#000" d="M10 1h14M9 2h1m14 0h1M9 3h1m15 0h1M10 4h1m14 0h1M8 5h14m3 0h1M7 6h1m14 0h1m2 0h1M7 7h1m14 0h1m2 0h1M7 8h1m14 0h1m2 0h1M7 9h1m14 0h1m1 0h2M7 10h1m14 0h2m2 0h1M6 11h6m4 0h7m4 0h1M5 12h2m4 0h1m4 0h1m6 0h1m2 0h1M4 13h1m1 0h1m1 0h5m2 0h6m3 0h2M5 14h2m1 0h1m4 0h2m5 0h1m4 0h1M6 15h1m1 0h1m11 0h1m4 0h1M6 16h1m1 0h1m11 0h1m4 0h1M6 17h1m1 0h1m11 0h1m4 0h1M6 18h1m1 0h1m11 0h1m4 0h1M6 19h1m1 0h1m11 0h1m4 0h1M6 20h1m1 0h1m11 0h1m4 0h1M6 21h1m1 0h1m11 0h1m4 0h1M6 22h1m1 0h1m11 0h1m4 0h1M6 23h1m1 0h1m11 0h1m4 0h1M6 24h1m1 0h1m11 0h1m4 0h1M6 25h1m1 0h1m11 0h1m4 0h1M6 26h1m1 0h1m11 0h1m4 0h1M6 27h1m1 0h1m11 0h1m4 0h1M6 28h1m1 0h1m11 0h1m4 0h1M6 29h1m1 0h13m3 0h1M6 30h1m16 0h1M6 31h17"/><path stroke="#fff" d="M10 2h14M8 6h14M8 7h2m1 0h8m1 0h2M8 8h1m3 0h6m3 0h1M8 9h1m3 0h6m3 0h1M8 10h2m1 0h8m1 0h2m-9 1h3m-2 1h2m6 0h1m-1 1h1m-1 1h1m-1 1h1m-1 1h1m-1 1h1m-1 1h1m-1 1h1m-1 1h1m-1 1h1m-1 1h1m-1 1h1m-1 1h1m-1 1h1m-1 1h1m-1 1h1m-1 1h1m-1 1h1m-1 1h1"/><path stroke="gray" d="M10 3h15m-3 2h1m0 1h1m-1 1h1m-1 1h1m-1 1h1m0 1h2m-3 1h2m-2 2h1m-1 1h2m-2 1h2m-2 1h2m-2 1h2m-2 1h2m-2 1h2m-2 1h2m-2 1h2m-2 1h2m-2 1h2m-2 1h2m-2 1h2m-2 1h2m-2 1h2m-2 1h2m-2 1h1"/><path stroke="silver" d="M11 4h14m-2 1h2m-1 1h1m-1 1h1m-1 1h1m-13 3h1m12 0h2M7 12h4m1 0h2m3 0h5m2 0h2M5 13h1m1 0h1m5 0h2m6 0h1M7 14h1m13 0h1M7 15h1m13 0h1M7 16h1m13 0h1M7 17h1m13 0h1M7 18h1m13 0h1M7 19h1m13 0h1M7 20h1m13 0h1M7 21h1m13 0h1M7 22h1m13 0h1M7 23h1m13 0h1M7 24h1m13 0h1M7 25h1m13 0h1M7 26h1m13 0h1M7 27h1m13 0h1M7 28h1m13 0h1M7 29h1m13 0h1M7 30h15"/><path stroke="maroon" d="M10 7h1m8 0h1M9 8h3m6 0h3M9 9h3m6 0h3m-11 1h1m8 0h1"/><path stroke="navy" d="M9 14h4m2 0h5M9 15h11M9 16h11M9 17h11M9 18h11M9 19h11M9 20h11M9 21h11M9 22h11M9 23h11M9 24h11M9 25h11M9 26h11M9 27h11M9 28h11"/></svg>