<svg xmlns="http://www.w3.org/2000/svg" width="16" height="16" shape-rendering="crispEdges" viewBox="0 -0.5 16 16"><path stroke="gray" d="M5 0h7M4 1h1M4 2h7M3 3h1M3 4h1M3 5h1m8 0h1M2 6h2m7 0h2M2 7h2m7 0h1M3 8h1m7 0h1M3 9h1m7 0h1m-9 1h1m7 0h1m-9 1h1m7 0h1m-9 1h1m7 0h1m-9 1h1m7 0h1m-9 1h1m7 0h1m-9 1h1"/><path stroke="silver" d="M5 1h7m-1 1h1M4 6h7M4 7h1m1 0h2m2 0h1M4 8h1m5 0h1M4 9h1m5 0h1m-7 1h1m5 0h1m-7 1h1m5 0h1m-7 1h1m5 0h1m-7 1h1m5 0h1m-7 1h7"/><path stroke="#000" d="M12 1h1m-1 1h1m-2 1h2m-2 1h2m-2 1h1m1 0h1m-1 1h1m-2 1h1m-1 1h1m-1 1h1m-1 1h1m-1 1h1m-1 1h1m-1 1h1m-1 1h1m-9 1h8"/><path stroke="#fff" d="M4 3h7M4 4h1m1 0h3m1 0h1M4 5h1m1 0h3m1 0h1"/><path stroke="maroon" d="M5 4h1m3 0h1M5 5h1m3 0h1"/><path stroke="navy" d="M5 7h1m2 0h2M5 8h5M5 9h5m-5 1h5m-5 1h5m-5 1h5m-5 1h5"/></svg>