<svg xmlns="http://www.w3.org/2000/svg" viewBox="0 -0.5 16 16" shape-rendering="crispEdges">
<path stroke="#000000" d="M0 0h1M3 2h1M6 2h2M11 2h2M2 3h1M4 3h1M6 3h1M8 3h1M10 3h1M2 4h3M6 4h2M10 4h1M2 5h1M4 5h1M6 5h1M8 5h1M10 5h1M2 6h1M4 6h1M6 6h2M11 6h2" />
<path stroke="#000080" d="M0 0h1M15 4h1M14 5h1M13 6h1M12 7h1M11 8h1M10 9h1M3 10h1M9 10h1M2 11h3M8 11h2M3 12h3M7 12h2M4 13h4M5 14h3M6 15h1" />
<path stroke="#ffffff" d="M0 0h1M15 5h1M14 6h1M13 7h1M12 8h1M11 9h1M4 10h1M10 10h1M5 11h1M10 11h1M6 12h1M9 12h1M8 13h1M8 14h1M7 15h1" />
</svg>