<svg xmlns="http://www.w3.org/2000/svg" width="32" height="32" shape-rendering="crispEdges" viewBox="0 -0.5 32 32"><path stroke="olive" d="M16 6h1m-1 1h1m-2 1h1m1 0h1m-3 1h1m1 0h1m-4 1h1m-1 1h1m-2 1h1m-1 1h1m-8 1h7m-6 1h1m0 1h1m0 1h1m0 1h1m0 1h1m-2 1h1m-1 1h1m-2 1h1m-1 1h1m-2 1h1"/><path stroke="#ff0" d="M16 8h1m-1 1h1m-2 1h3m-3 1h3m-4 1h5m-5 1h5m-6 1h7M8 15h17M9 16h15m-14 1h13m-12 1h11m-10 1h9m-10 1h5m1 0h5m-11 1h4m3 0h4m-12 1h3m7 0h3m-13 1h2m9 0h2M9 24h1m13 0h1"/><path stroke="#000" d="M18 10h1m-1 1h1m0 1h1m-1 1h1m0 1h7m-2 1h1m-2 1h1m-2 1h1m-2 1h1m-2 1h1m-6 1h1m5 0h1m-8 1h1m1 0h1m4 0h1m-10 1h2m3 0h2m3 0h1m-12 1h1m7 0h1m2 0h1m-14 1h2m9 0h2m1 0h1M8 25h2m13 0h2"/></svg>