<svg xmlns="http://www.w3.org/2000/svg" viewBox="0 -0.5 16 16" shape-rendering="crispEdges">
<path stroke="#000000" d="M0 0h1M1 1h2M4 1h3M8 1h1M15 1h1M0 2h1M3 2h2M6 2h2M15 2h1M0 3h1M3 3h1M11 3h1M15 3h1M1 4h2M11 4h1M15 4h1M3 5h1M11 5h1M15 5h1M0 6h1M11 6h1M15 6h1M0 7h2M11 7h1M15 7h1M1 8h3M11 8h1M15 8h1M11 9h1M15 9h1M11 10h1M15 10h1M11 11h1M15 11h1M11 12h1M15 12h1M11 13h1M15 13h1M11 14h4M4 15h8" />
<path stroke="#0000ff" d="M0 0h1M3 1h1M5 2h1M0 4h1M0 5h3M1 6h2M2 7h1M6 10h2" />
<path stroke="#808080" d="M0 0h1M9 1h6M14 2h1M5 3h6M14 3h1M10 4h1M12 4h1M14 4h1M5 5h1M10 5h1M14 5h1M5 6h4M10 6h1M12 6h1M14 6h1M10 7h1M14 7h1M5 8h4M10 8h1M14 8h1M3 9h1M10 9h1M14 9h1M3 10h1M10 10h1M12 10h1M14 10h1M3 11h1M10 11h1M12 11h1M14 11h1M3 12h1M5 12h4M10 12h1M14 12h1M3 13h1M5 13h1M8 13h1M10 13h1M12 13h3M3 14h1M10 14h1M3 15h1" />
<path stroke="#00ff00" d="M0 0h1M1 2h2M1 3h2M12 3h1M8 5h1" />
<path stroke="#c0c0c0" d="M0 0h1M8 2h6M13 3h1M4 4h6M13 4h1M4 5h1M9 5h1M12 5h2M4 6h1M9 6h1M13 6h1M4 7h6M13 7h1M4 8h1M9 8h1M13 8h1M4 9h1M9 9h1M13 9h1M4 10h1M9 10h1M13 10h1M4 11h1M9 11h1M13 11h1M4 12h1M9 12h1M12 12h2M4 13h1M9 13h1M4 14h6" />
<path stroke="#000080" d="M0 0h1M4 3h1M3 4h1M3 6h1M3 7h1M12 8h1M5 10h1M8 10h1" />
<path stroke="#ffffff" d="M0 0h1M6 5h1M12 7h1M5 9h4M12 9h1M5 11h4M6 13h2" />
<path stroke="#ff0000" d="M0 0h1M7 5h1" />
</svg>