<svg xmlns="http://www.w3.org/2000/svg" width="32" height="32" shape-rendering="crispEdges" viewBox="0 -0.5 32 32"><path stroke="gray" d="M0 2h8m13 0h8M0 3h1m6 0h1m13 0h1m6 0h1M0 4h1m6 0h1m13 0h1m6 0h1M0 5h1m20 0h1M0 6h1m20 0h1M0 7h1m20 0h1M0 8h1m20 0h1M0 9h1m20 0h1M0 10h1m20 0h1M0 11h1m20 0h1M0 12h1m20 0h1M0 13h1m20 0h1M0 14h1m20 0h1M0 15h1m20 0h1M2 19h5m14 0h5M1 20h1m5 0h1m12 0h1m5 0h1M0 21h1m7 0h4m7 0h1m7 0h4M0 22h1m10 0h1m7 0h1m10 0h1M0 23h1m10 0h1m7 0h1m10 0h1M0 24h1m10 0h1m7 0h1m10 0h1M0 25h1m10 0h1m7 0h1m10 0h1M0 26h1m10 0h1m7 0h1m10 0h1M0 27h1m10 0h1m7 0h1m10 0h1M0 28h12m7 0h12"/><path stroke="#fff" d="M1 3h6m15 0h6M1 4h6m1 0h1m13 0h6m1 0h1M1 5h6m15 0h6M1 6h8m13 0h8M1 7h2m4 0h2m13 0h2m4 0h2M1 8h8m13 0h8M1 9h2m5 0h1m13 0h2m5 0h1M1 10h8m13 0h8M1 11h2m5 0h1m13 0h2m5 0h1M1 12h8m13 0h8M1 13h8m13 0h8M1 14h8m13 0h8M1 22h10m9 0h10M1 23h1m18 0h1M1 24h1m18 0h1M1 25h1m18 0h1M1 26h1m18 0h1M1 27h1m18 0h1"/><path stroke="#000" d="M8 3h1m20 0h1M9 4h1m20 0h1M7 5h4m17 0h4M10 6h1m20 0h1M10 7h1m20 0h1M10 8h1m20 0h1M10 9h1m20 0h1m-22 1h1m20 0h1m-22 1h1m20 0h1m-22 1h1m20 0h1m-22 1h1m20 0h1m-22 1h1m20 0h1m-22 1h1m20 0h1M0 16h11m10 0h11m-20 6h1m18 0h1m-20 1h1m18 0h1m-20 1h1m18 0h1m-20 1h1m18 0h1m-20 1h1m18 0h1m-20 1h1m18 0h1m-20 1h1m18 0h1M1 29h12m7 0h12"/><path stroke="silver" d="M9 6h1m20 0h1M9 7h1m20 0h1M9 8h1m20 0h1M9 9h1m20 0h1M9 10h1m20 0h1M9 11h1m20 0h1M9 12h1m20 0h1M9 13h1m20 0h1M9 14h1m20 0h1M1 15h9m12 0h9M3 20h1m1 0h1m16 0h1m1 0h1M2 21h1m1 0h1m1 0h1m14 0h1m1 0h1m1 0h1M3 23h1m1 0h1m1 0h1m1 0h1m12 0h1m1 0h1m1 0h1m1 0h1M2 24h1m1 0h1m1 0h1m1 0h1m1 0h1m10 0h1m1 0h1m1 0h1m1 0h1m1 0h1M3 25h1m1 0h1m1 0h1m1 0h1m12 0h1m1 0h1m1 0h1m1 0h1M2 26h1m1 0h1m1 0h1m1 0h1m1 0h1m10 0h1m1 0h1m1 0h1m1 0h1m1 0h1M3 27h1m1 0h1m1 0h1m1 0h1m12 0h1m1 0h1m1 0h1m1 0h1"/><path stroke="#00f" d="M3 7h4m17 0h4M17 8h1M3 9h5m9 0h2m5 0h5m-16 1h7M3 11h5m9 0h2m5 0h5m-12 1h1m-3 11h1m-1 1h2m-3 1h4m-3 1h2m-2 1h1"/><path stroke="#ff0" d="M2 20h1m1 0h1m1 0h1m14 0h1m1 0h1m1 0h1M1 21h1m1 0h1m1 0h1m1 0h1m12 0h1m1 0h1m1 0h1m1 0h1M2 23h1m1 0h1m1 0h1m1 0h1m1 0h1m10 0h1m1 0h1m1 0h1m1 0h1m1 0h1M3 24h1m1 0h1m1 0h1m1 0h1m12 0h1m1 0h1m1 0h1m1 0h1M2 25h1m1 0h1m1 0h1m1 0h1m1 0h1m10 0h1m1 0h1m1 0h1m1 0h1m1 0h1M3 26h1m1 0h1m1 0h1m1 0h1m12 0h1m1 0h1m1 0h1m1 0h1M2 27h1m1 0h1m1 0h1m1 0h1m1 0h1m10 0h1m1 0h1m1 0h1m1 0h1m1 0h1"/></svg>