<svg xmlns="http://www.w3.org/2000/svg" width="32" height="32" shape-rendering="crispEdges" viewBox="0 -0.5 32 32"><path stroke="olive" d="M12 3h8m-9 1h1m8 0h1M10 5h1m-1 1h1M4 7h6m3 0h6m3 0h8M3 8h1M2 9h6m7 0h1m1 0h2m2 0h8m1 0h1M1 10h1m27 0h1M0 11h1m3 0h1m15 0h1m1 0h1m1 0h1m1 0h1m3 0h1M0 12h1m2 0h1m17 0h1m1 0h1m1 0h1m1 0h3M0 13h1m1 0h1m19 0h1m1 0h1m1 0h1m1 0h1m1 0h1M0 14h1m3 0h21m2 0h3M0 15h1m1 0h2m21 0h2m1 0h1m1 0h1M0 16h1m2 0h1m1 0h1m1 0h1m1 0h1m1 0h1m1 0h1m1 0h1m1 0h1m1 0h1m1 0h1m1 0h1m1 0h1m1 0h3M0 17h1m1 0h1m1 0h1m1 0h1m1 0h1m1 0h1m1 0h1m1 0h1m1 0h1m1 0h1m1 0h1m1 0h1m1 0h1m1 0h1m1 0h1m1 0h1M0 18h1m2 0h1m1 0h1m1 0h1m1 0h1m1 0h1m1 0h1m1 0h1m1 0h1m1 0h1m1 0h1m1 0h1m1 0h1m1 0h3M0 19h1m1 0h1m1 0h1m1 0h1m1 0h1m1 0h1m1 0h1m1 0h1m1 0h1m1 0h1m1 0h1m1 0h1m1 0h1m1 0h1m1 0h1m1 0h1M0 20h1m2 0h1m1 0h1m1 0h1m1 0h1m1 0h1m1 0h1m1 0h1m1 0h1m1 0h1m1 0h1m1 0h1m1 0h1m1 0h3M0 21h1m1 0h1m1 0h1m1 0h1m1 0h1m1 0h1m1 0h1m1 0h1m1 0h1m1 0h1m1 0h1m1 0h1m1 0h1m1 0h1m1 0h1m1 0h1M0 22h1m2 0h1m1 0h1m1 0h1m1 0h1m1 0h1m1 0h1m1 0h1m1 0h1m1 0h1m1 0h1m1 0h1m1 0h1m1 0h3M0 23h1m1 0h1m1 0h1m1 0h1m1 0h1m1 0h1m1 0h1m1 0h1m1 0h1m1 0h1m1 0h1m1 0h1m1 0h1m1 0h1m1 0h1m1 0h1M0 24h1m2 0h1m1 0h1m1 0h1m1 0h1m1 0h1m1 0h1m1 0h1m1 0h1m1 0h1m1 0h1m1 0h1m1 0h1m1 0h3M0 25h1m1 0h1m1 0h1m1 0h1m1 0h1m1 0h1m1 0h1m1 0h1m1 0h1m1 0h1m1 0h1m1 0h1m1 0h1m1 0h1m1 0h1m1 0h1M0 26h1m2 0h1m1 0h1m1 0h1m1 0h1m1 0h1m1 0h1m1 0h1m1 0h1m1 0h1m1 0h1m1 0h1m1 0h1m1 0h3M0 27h29"/><path stroke="#fff" d="M12 4h1m-2 1h1M4 8h1m5 0h2M9 9h1m1 0h2M3 10h1m1 0h1m2 0h1m1 0h1m1 0h2m5 0h1m1 0h1m1 0h1m1 0h1m1 0h1M1 11h2m4 0h1m1 0h3m1 0h1m1 0h2m11 0h1M6 12h1m1 0h5m1 0h4M1 13h1m3 0h1m1 0h5m1 0h6M1 15h1m-1 2h1m-1 2h1m-1 2h1m-1 2h1m-1 2h1"/><path stroke="silver" d="M13 4h7m-8 1h1m6 0h2m-1 1h1M11 7h1m8 0h1M5 8h4m3 0h1m1 0h5m1 0h1m1 0h8M13 9h1m6 0h1m8 0h1M2 10h1m1 0h1m1 0h1m7 0h1m1 0h1m1 0h1m1 0h1m1 0h1m1 0h1m1 0h1M3 11h1m1 0h1m11 0h1m1 0h1m1 0h1m1 0h1m1 0h1m1 0h1M1 12h2m1 0h1m13 0h1m1 0h1m1 0h1m1 0h1m1 0h1M3 13h1m15 0h1m1 0h1m1 0h1m1 0h1m1 0h1M1 14h2m23 0h1M4 15h21m2 0h1M1 16h2m1 0h1m1 0h1m1 0h1m1 0h1m1 0h1m1 0h1m1 0h1m1 0h1m1 0h1m1 0h1m1 0h1m1 0h1M3 17h1m1 0h1m1 0h1m1 0h1m1 0h1m1 0h1m1 0h1m1 0h1m1 0h1m1 0h1m1 0h1m1 0h1m1 0h1M1 18h2m1 0h1m1 0h1m1 0h1m1 0h1m1 0h1m1 0h1m1 0h1m1 0h1m1 0h1m1 0h1m1 0h1m1 0h1M3 19h1m1 0h1m1 0h1m1 0h1m1 0h1m1 0h1m1 0h1m1 0h1m1 0h1m1 0h1m1 0h1m1 0h1m1 0h1M1 20h2m1 0h1m1 0h1m1 0h1m1 0h1m1 0h1m1 0h1m1 0h1m1 0h1m1 0h1m1 0h1m1 0h1m1 0h1M3 21h1m1 0h1m1 0h1m1 0h1m1 0h1m1 0h1m1 0h1m1 0h1m1 0h1m1 0h1m1 0h1m1 0h1m1 0h1M1 22h2m1 0h1m1 0h1m1 0h1m1 0h1m1 0h1m1 0h1m1 0h1m1 0h1m1 0h1m1 0h1m1 0h1m1 0h1M3 23h1m1 0h1m1 0h1m1 0h1m1 0h1m1 0h1m1 0h1m1 0h1m1 0h1m1 0h1m1 0h1m1 0h1m1 0h1M1 24h2m1 0h1m1 0h1m1 0h1m1 0h1m1 0h1m1 0h1m1 0h1m1 0h1m1 0h1m1 0h1m1 0h1m1 0h1M3 25h1m1 0h1m1 0h1m1 0h1m1 0h1m1 0h1m1 0h1m1 0h1m1 0h1m1 0h1m1 0h1m1 0h1m1 0h1M1 26h2m1 0h1m1 0h1m1 0h1m1 0h1m1 0h1m1 0h1m1 0h1m1 0h1m1 0h1m1 0h1m1 0h1m1 0h1"/><path stroke="#000" d="M13 5h6m2 0h1M12 6h1m6 0h1m1 0h1M12 7h1m6 0h1m1 0h1m-9 1h1m5 0h1m1 0h1m8 0h1M10 9h1m3 0h1m1 0h1m2 0h1m11 0h1m-21 1h1m5 0h1m10 0h1m2 0h1m-20 1h1m5 0h1m10 0h1m1 0h1m-13 1h1m11 0h1m-12 1h1m10 0h1m-1 1h1m-1 1h1m-1 1h1m-1 1h1m-1 1h1m-1 1h1m-1 1h1m-1 1h1m-1 1h1m-1 1h1m-1 1h1m-1 1h1m-2 1h1m-2 1h1M1 28h28"/><path stroke="gray" d="M11 6h1m-2 1h1M9 8h1M8 9h1m-2 1h1m1 0h1m5 0h1m14 0h1M6 11h1m1 0h1m5 0h1M5 12h1m1 0h1m5 0h1m16 0h1M4 13h1m1 0h1m5 0h1m16 0h1M3 14h1m21 0h1m4 0h1m-2 1h1m0 1h1m-2 1h1m0 1h1m-2 1h1m0 1h1m-2 1h1m0 1h1m-2 1h1m0 1h1m-2 1h1"/></svg>