<svg xmlns="http://www.w3.org/2000/svg" width="16" height="16" shape-rendering="crispEdges" viewBox="0 -0.5 16 16"><path stroke="olive" d="M5 1h5M4 2h1m5 0h1M4 3h1m5 0h1M1 4h7m1 0h5M0 5h1m13 0h1M0 6h1m2 0h1m7 0h1m1 0h1M0 7h1m1 0h1m9 0h1m1 0h1M0 8h1m1 0h11M0 9h1m1 0h1m9 0h1m1 0h1M0 10h1m2 0h1m1 0h1m1 0h1m1 0h1m1 0h1m1 0h1M0 11h1m1 0h1m1 0h1m1 0h1m1 0h1m1 0h1m1 0h1m1 0h1M0 12h1m2 0h1m1 0h1m1 0h1m1 0h1m1 0h1m1 0h1M0 13h15"/><path stroke="#fff" d="M5 2h1M1 5h1m1 0h1m7 0h1m1 0h1M7 6h2M1 7h1m2 0h2m2 0h2M1 9h1m-1 2h1"/><path stroke="silver" d="M6 2h4M5 3h1M2 5h1m1 0h1m1 0h1m1 0h1m1 0h1m1 0h1M1 6h2m2 0h1m3 0h1m2 0h1M6 7h1m3 0h1m2 0h1M1 8h1m1 1h9m1 0h1M1 10h2m1 0h1m1 0h1m1 0h1m1 0h1m1 0h1M3 11h1m1 0h1m1 0h1m1 0h1m1 0h1m1 0h1M1 12h2m1 0h1m1 0h1m1 0h1m1 0h1m1 0h1"/><path stroke="#000" d="M6 3h4M8 4h1m5 0h1M5 5h1m3 0h1m5 0h1M6 6h1m3 0h1m4 0h1M7 7h1m3 0h1m3 0h1m-1 1h1m-1 1h1m-1 1h1m-1 1h1m-1 1h1m-1 1h1M1 14h14"/><path stroke="gray" d="M7 5h1M4 6h1m9 0h1M3 7h1m9 1h2m-1 2h1m-1 2h1"/></svg>