<svg xmlns="http://www.w3.org/2000/svg" viewBox="0 -0.5 16 16" shape-rendering="crispEdges">
<path stroke="#808000" d="M0 0h1M5 1h5M4 2h1M10 2h1M4 3h1M10 3h1M1 4h7M9 4h5M0 5h1M14 5h1M0 6h1M3 6h1M11 6h1M13 6h1M0 7h1M2 7h1M12 7h1M14 7h1M0 8h1M2 8h11M0 9h1M2 9h1M12 9h1M14 9h1M0 10h1M3 10h1M5 10h1M7 10h1M9 10h1M11 10h1M13 10h1M0 11h1M2 11h1M4 11h1M6 11h1M8 11h1M10 11h1M12 11h1M14 11h1M0 12h1M3 12h1M5 12h1M7 12h1M9 12h1M11 12h1M13 12h1M0 13h15" />
<path stroke="#ffffff" d="M0 0h1M5 2h1M1 5h1M3 5h1M11 5h1M13 5h1M7 6h2M1 7h1M4 7h2M8 7h2M1 9h1M1 11h1" />
<path stroke="#c0c0c0" d="M0 0h1M6 2h4M5 3h1M2 5h1M4 5h1M6 5h1M8 5h1M10 5h1M12 5h1M1 6h2M5 6h1M9 6h1M12 6h1M6 7h1M10 7h1M13 7h1M1 8h1M3 9h9M13 9h1M1 10h2M4 10h1M6 10h1M8 10h1M10 10h1M12 10h1M3 11h1M5 11h1M7 11h1M9 11h1M11 11h1M13 11h1M1 12h2M4 12h1M6 12h1M8 12h1M10 12h1M12 12h1" />
<path stroke="#000000" d="M0 0h1M6 3h4M8 4h1M14 4h1M5 5h1M9 5h1M15 5h1M6 6h1M10 6h1M15 6h1M7 7h1M11 7h1M15 7h1M15 8h1M15 9h1M15 10h1M15 11h1M15 12h1M15 13h1M1 14h14" />
<path stroke="#808080" d="M0 0h1M7 5h1M4 6h1M14 6h1M3 7h1M13 8h2M14 10h1M14 12h1" />
</svg>