<svg xmlns="http://www.w3.org/2000/svg" viewBox="0 -0.5 32 32" shape-rendering="crispEdges">
<path stroke="#808080" d="M0 0h1M3 0h10M2 1h1M12 1h1M2 2h1M4 2h7M12 2h1M2 3h1M4 3h1M12 3h1M2 4h1M4 4h1M12 4h1M2 5h1M4 5h1M12 5h1M2 6h1M4 6h1M12 6h1M2 7h1M12 7h1M2 8h11M1 9h1M13 9h1M1 10h2M5 10h1M8 10h1M11 10h1M0 11h2M4 11h1M7 11h1M10 11h1M13 11h2M0 12h1M22 19h1M25 19h1M21 20h2M25 20h1M21 21h2M25 21h1M18 22h3M22 22h2M25 22h5M30 23h1M30 25h1M30 27h1M30 29h1" />
<path stroke="#c0c0c0" d="M0 0h1M3 1h9M3 2h1M11 2h1M3 3h1M11 3h1M3 4h1M11 4h1M3 5h1M11 5h1M3 6h1M11 6h1M3 7h9M4 10h1M7 10h1M10 10h1M13 10h1M3 11h1M6 11h1M9 11h1M12 11h1M1 12h14M23 20h2M19 21h1M27 21h4M17 22h1M18 23h1M26 23h1M28 23h1M17 24h1M18 25h1M20 25h7M28 25h1M17 26h1M19 26h1M21 26h1M23 26h1M25 26h1M27 26h1M18 27h1M20 27h1M22 27h1M24 27h1M26 27h1M28 27h1M17 28h1M19 28h1M21 28h1M23 28h1M25 28h1M27 28h1M18 29h1M20 29h1M22 29h1M24 29h1M26 29h1M28 29h1M31 31h1" />
<path stroke="#000000" d="M0 0h1M13 1h1M13 2h1M13 3h1M6 4h4M13 4h1M6 5h1M9 5h1M13 5h1M6 6h4M13 6h1M13 7h1M13 8h1M14 9h1M3 10h1M6 10h1M9 10h1M12 10h1M14 10h1M2 11h1M5 11h1M8 11h1M11 11h1M15 11h1M15 12h1M0 13h16M23 19h2M26 19h1M26 20h1M26 21h1M31 21h1M30 22h2M31 23h1M31 24h1M31 25h1M31 26h1M31 27h1M31 28h1M31 29h1M31 30h1M17 31h14" />
<path stroke="#00ffff" d="M0 0h1M5 3h6M5 4h1M10 4h1M5 5h1M10 5h1M5 6h1M10 6h1" />
<path stroke="#ffffff" d="M0 0h1M7 5h2M2 9h11M18 21h1M20 21h1M21 22h1M24 22h1M17 23h1M20 23h6M17 25h1M17 27h1M17 29h1" />
<path stroke="#0000ff" d="M0 0h1M18 10h1M19 11h1M20 12h1M23 12h1M21 13h1M23 13h1M22 14h2M20 15h4M8 16h4M8 17h2M8 18h1M10 18h1M8 19h1M11 19h1M12 20h1M13 21h1" />
<path stroke="#808000" d="M0 0h1M22 18h4M21 19h1M18 20h3M27 20h4M17 21h1M23 21h2M16 22h1M16 23h1M19 23h1M27 23h1M29 23h1M16 24h1M18 24h13M16 25h1M19 25h1M27 25h1M29 25h1M16 26h1M18 26h1M20 26h1M22 26h1M24 26h1M26 26h1M28 26h3M16 27h1M19 27h1M21 27h1M23 27h1M25 27h1M27 27h1M29 27h1M16 28h1M18 28h1M20 28h1M22 28h1M24 28h1M26 28h1M28 28h3M16 29h1M19 29h1M21 29h1M23 29h1M25 29h1M27 29h1M29 29h1M16 30h15" />
</svg>