<svg xmlns="http://www.w3.org/2000/svg" viewBox="0 -0.5 32 32" shape-rendering="crispEdges">
<path stroke="#808080" d="M0 0h1M0 0h10M0 1h1M9 1h1M0 2h1M9 2h1M0 3h1M0 4h1M0 5h1M0 6h1M0 7h1M0 8h1M0 9h1M0 10h1M0 11h1M0 12h1M0 13h1M0 14h1M0 15h1M19 15h2M23 15h6M19 16h1M28 16h1M19 17h1M28 17h1M19 22h1M19 23h1M19 24h1M19 25h1M19 26h1M19 27h1M19 28h1M19 29h1M19 30h1" />
<path stroke="#ffffff" d="M0 0h1M1 1h8M1 2h8M10 2h1M1 3h8M1 4h10M1 5h2M7 5h4M1 6h10M1 7h2M10 7h1M1 8h10M1 9h2M10 9h1M1 10h10M1 11h2M10 11h1M1 12h9M1 13h9M1 14h8M20 16h1M23 16h5M20 17h1M23 17h5M29 17h1M22 18h6M22 19h8M21 20h1M26 20h4M20 21h10M20 22h2M29 22h1M20 23h10M20 24h2M29 24h1M20 25h10M20 26h2M29 26h1M20 27h10M20 28h10M20 29h10" />
<path stroke="#000000" d="M0 0h1M10 1h1M11 2h1M9 3h4M12 4h1M12 5h1M12 6h1M12 7h1M12 8h1M12 9h1M12 14h1M12 15h1M0 16h9M11 16h2M29 16h1M30 17h1M28 18h4M31 19h1M31 20h1M31 21h1M31 22h1M31 23h1M31 24h1M31 25h1M31 26h1M31 27h1M31 28h1M31 29h1M31 30h1M19 31h13" />
<path stroke="#c0c0c0" d="M0 0h1M11 4h1M11 5h1M11 6h1M11 7h1M11 8h1M11 9h1M11 10h1M11 14h1M1 15h8M11 15h1M30 19h1M30 20h1M30 21h1M30 22h1M30 23h1M30 24h1M30 25h1M30 26h1M30 27h1M30 28h1M30 29h1M20 30h11" />
<path stroke="#0000ff" d="M0 0h1M3 5h4M3 7h7M3 9h7M3 11h7M22 20h4M22 22h7M22 24h7M22 26h7" />
<path stroke="#ff0000" d="M0 0h1M14 9h4M12 10h8M11 11h3M18 11h3M10 12h4M19 12h3M10 13h5M20 13h2M9 14h2M13 14h3M21 14h2M9 15h2M14 15h3M21 15h2M9 16h2M15 16h3M21 16h2M9 17h2M16 17h3M21 17h2M10 18h2M17 18h5M10 19h3M18 19h4M11 20h3M18 20h3M12 21h8M14 22h4" />
</svg>