<svg xmlns="http://www.w3.org/2000/svg" viewBox="0 -0.5 32 32" shape-rendering="crispEdges">
<path stroke="#808000" d="M0 0h1M6 0h4M5 1h1M2 2h3M11 2h4M1 3h1M7 3h2M0 4h1M0 5h1M3 5h1M11 5h1M13 5h1M0 6h1M2 6h13M0 7h1M3 7h1M11 7h1M13 7h1M0 8h1M2 8h1M4 8h1M6 8h1M8 8h1M10 8h1M12 8h3M0 9h1M3 9h1M5 9h1M7 9h1M9 9h1M11 9h1M13 9h1M0 10h1M2 10h1M4 10h1M6 10h1M8 10h1M10 10h1M12 10h3M0 11h1M3 11h1M5 11h1M7 11h1M9 11h1M11 11h1M13 11h1M0 12h15" />
<path stroke="#808080" d="M0 0h1M6 1h1M9 1h1M5 2h2M9 2h1M5 3h2M9 3h1M2 4h3M6 4h2M9 4h5M14 5h1M14 7h1M14 9h1M14 11h1M18 19h5M17 20h1M23 20h1M16 21h1M24 21h7M16 22h1M30 22h1M16 23h1M30 23h1M16 24h1M30 24h1M16 25h1M30 25h1M16 26h1M30 26h1M16 27h1M30 27h1M16 28h1M30 28h1M16 29h1M30 29h1M16 30h15" />
<path stroke="#000000" d="M0 0h1M7 1h2M10 1h1M10 2h1M10 3h1M15 3h1M14 4h2M15 5h1M15 6h1M15 7h1M15 8h1M15 9h1M15 10h1M15 11h1M15 12h1M1 13h14M31 22h1M31 23h1M31 24h1M31 25h1M31 26h1M31 27h1M31 28h1M31 29h1M31 30h1M17 31h15" />
<path stroke="#ffffff" d="M0 0h1M2 3h1M4 3h1M5 4h1M8 4h1M1 5h1M4 5h6M1 7h1M1 9h1M1 11h1M17 22h13M17 23h1M17 24h1M17 25h1M17 26h1M17 27h1M17 28h1M17 29h1" />
<path stroke="#c0c0c0" d="M0 0h1M3 3h1M11 3h4M1 4h1M2 5h1M10 5h1M12 5h1M1 6h1M2 7h1M4 7h7M12 7h1M1 8h1M3 8h1M5 8h1M7 8h1M9 8h1M11 8h1M2 9h1M4 9h1M6 9h1M8 9h1M10 9h1M12 9h1M1 10h1M3 10h1M5 10h1M7 10h1M9 10h1M11 10h1M2 11h1M4 11h1M6 11h1M8 11h1M10 11h1M12 11h1M19 20h1M21 20h1M18 21h1M20 21h1M22 21h1M19 23h1M21 23h1M23 23h1M25 23h1M27 23h1M29 23h1M18 24h1M20 24h1M22 24h1M24 24h1M26 24h1M28 24h1M19 25h1M21 25h1M23 25h1M25 25h1M27 25h1M29 25h1M18 26h1M20 26h1M22 26h1M24 26h1M26 26h1M28 26h1M19 27h1M21 27h1M23 27h1M25 27h1M27 27h1M29 27h1M18 28h1M20 28h1M22 28h1M24 28h1M26 28h1M28 28h1M19 29h1M21 29h1M23 29h1M25 29h1M27 29h1M29 29h1" />
<path stroke="#0000ff" d="M0 0h1M21 6h1M20 7h2M19 8h7M20 9h2M26 9h1M21 10h1M26 10h1M26 11h1M26 12h1M26 14h1M26 16h1" />
<path stroke="#ffff00" d="M0 0h1M18 20h1M20 20h1M22 20h1M17 21h1M19 21h1M21 21h1M23 21h1M18 23h1M20 23h1M22 23h1M24 23h1M26 23h1M28 23h1M19 24h1M21 24h1M23 24h1M25 24h1M27 24h1M29 24h1M18 25h1M20 25h1M22 25h1M24 25h1M26 25h1M28 25h1M19 26h1M21 26h1M23 26h1M25 26h1M27 26h1M29 26h1M18 27h1M20 27h1M22 27h1M24 27h1M26 27h1M28 27h1M19 28h1M21 28h1M23 28h1M25 28h1M27 28h1M29 28h1M18 29h1M20 29h1M22 29h1M24 29h1M26 29h1M28 29h1" />
</svg>