<svg xmlns="http://www.w3.org/2000/svg" width="32" height="32" shape-rendering="crispEdges" viewBox="0 -0.5 32 32"><path stroke="gray" d="M2 0h5M1 1h1m5 0h1M0 2h1m7 0h7M0 3h1m13 0h1M0 4h1m13 0h1M0 5h1m13 0h1M0 6h1m13 0h1M0 7h1m13 0h1M0 8h1m13 0h1M0 9h1m-1 1h1m-1 1h11m3 0h1m7 8h1m-6 1h1m5 0h1m0 1h7m-1 1h1m-15 1h1m13 0h1m-15 1h1m13 0h1m-15 1h1m13 0h1m-15 1h1m13 0h1m-15 1h1m13 0h1m-15 1h1m13 0h1m-15 1h1m13 0h1m-15 1h15"/><path stroke="#ff0" d="M2 1h1m1 0h1m1 0h1M1 2h1m1 0h1m1 0h1m1 0h1M2 4h1m1 0h1m1 0h1m1 0h1m1 0h1m1 0h1M3 5h1m1 0h1m1 0h1m1 0h1m1 0h1m1 0h1M2 6h1m1 0h1m1 0h1m1 0h1m1 0h1m1 0h1M3 7h1m1 0h1m1 0h1m1 0h1m1 0h1m1 0h1M2 8h1m1 0h1m1 0h1m1 0h1m1 0h1m1 0h1M3 9h1m1 0h1m1 0h1m1 0h1m1 0h1m1 0h1M2 10h1m1 0h1m1 0h1m1 0h1m1 0h1m11 10h1m-2 1h1m1 0h1m-6 2h1m1 0h1m1 0h1m1 0h1m1 0h1m1 0h1m-10 1h1m1 0h1m1 0h1m1 0h1m1 0h1m1 0h1m-12 1h1m1 0h1m1 0h1m1 0h1m1 0h1m1 0h1m-10 1h1m1 0h1m1 0h1m1 0h1m1 0h1m1 0h1m-12 1h1m1 0h1m1 0h1m1 0h1m1 0h1m1 0h1m-10 1h1m1 0h1m1 0h1m1 0h1m1 0h1m1 0h1m-12 1h1m1 0h1m1 0h1m1 0h1m1 0h1m1 0h1"/><path stroke="silver" d="M3 1h1m1 0h1M2 2h1m1 0h1m1 0h1M3 4h1m1 0h1m1 0h1m1 0h1m1 0h1m1 0h1M2 5h1m1 0h1m1 0h1m1 0h1m1 0h1m1 0h1M3 6h1m1 0h1m1 0h1m1 0h1m1 0h1m1 0h1M2 7h1m1 0h1m1 0h1m1 0h1m1 0h1m1 0h1M3 8h1m1 0h1m1 0h1m1 0h1m1 0h1m1 0h1M2 9h1m1 0h1m1 0h1m1 0h1m1 0h1m1 0h1M3 10h1m1 0h1m1 0h1m1 0h1m1 0h1m9 10h1m-2 1h1m1 0h1m-4 2h1m1 0h1m1 0h1m1 0h1m1 0h1m1 0h1m-12 1h1m1 0h1m1 0h1m1 0h1m1 0h1m1 0h1m-10 1h1m1 0h1m1 0h1m1 0h1m1 0h1m1 0h1m-12 1h1m1 0h1m1 0h1m1 0h1m1 0h1m1 0h1m-10 1h1m1 0h1m1 0h1m1 0h1m1 0h1m1 0h1m-12 1h1m1 0h1m1 0h1m1 0h1m1 0h1m1 0h1m-10 1h1m1 0h1m1 0h1m1 0h1m1 0h1m1 0h1"/><path stroke="#fff" d="M1 3h13M1 4h1M1 5h1M1 6h1M1 7h1M1 8h1M1 9h1m-1 1h1m16 12h12m-13 1h1m-1 1h1m-1 1h1m-1 1h1m-1 1h1m-1 1h1m-1 1h1"/><path stroke="#000" d="M15 3h1m-1 1h1m-1 1h1m-1 1h1m-1 1h1m-1 1h1m-1 3h1M1 12h9m4 0h2m15 10h1m-1 1h1m-1 1h1m-1 1h1m-1 1h1m-1 1h1m-1 1h1m-1 1h1m-1 1h1m-15 1h15"/><path stroke="red" d="M14 9h4m-6 1h8m-9 1h3m4 0h3m-11 1h4m5 0h3m-12 1h5m5 0h2M9 14h2m2 0h3m5 0h2M9 15h2m3 0h3m4 0h2M9 16h2m4 0h3m3 0h2M9 17h2m5 0h3m2 0h2m-13 1h2m5 0h5m-12 1h3m5 0h4m-11 1h3m4 0h3m-9 1h8m-6 1h4"/></svg>