<svg xmlns="http://www.w3.org/2000/svg" viewBox="0 -0.5 32 32" shape-rendering="crispEdges">
<path stroke="#808080" d="M0 0h1M8 0h8M8 1h1M15 1h1M8 2h1M15 2h1M8 3h1M2 4h5M8 4h1M1 5h1M7 5h2M0 6h1M8 6h7M0 7h1M14 7h1M0 8h1M14 8h1M0 9h1M14 9h1M0 10h1M14 10h1M0 11h1M14 11h1M0 12h1M14 12h1M0 13h1M14 13h1M0 14h1M14 14h1M0 15h15M21 15h8M21 16h1M28 16h1M21 17h1M28 17h1M21 18h1M15 19h5M21 19h1M14 20h1M20 20h2M13 21h1M21 21h7M13 22h1M27 22h1M13 23h1M27 23h1M13 24h1M27 24h1M13 25h1M27 25h1M13 26h1M27 26h1M13 27h1M27 27h1M13 28h1M27 28h1M13 29h1M27 29h1M13 30h15" />
<path stroke="#ffffff" d="M0 0h1M9 1h6M9 2h6M16 2h1M9 3h6M9 4h1M15 4h2M9 5h8M15 6h2M1 7h13M16 7h1M1 8h1M16 8h1M1 9h1M16 9h1M1 10h1M16 10h1M1 11h1M16 11h1M1 12h1M16 12h1M1 13h1M1 14h1M22 16h6M22 17h6M29 17h1M22 18h6M22 19h1M28 19h2M22 20h8M28 21h2M14 22h13M29 22h1M14 23h1M29 23h1M14 24h1M29 24h1M14 25h1M29 25h1M14 26h1M29 26h1M14 27h1M29 27h1M14 28h1M14 29h1" />
<path stroke="#000000" d="M0 0h1M16 1h1M17 2h1M15 3h4M18 4h1M18 5h1M18 6h1M15 7h1M18 7h1M15 8h1M18 8h1M15 9h1M18 9h1M15 10h1M18 10h1M15 11h1M18 11h1M15 12h1M18 12h1M15 13h1M18 13h1M15 14h4M15 15h1M1 16h15M29 16h1M30 17h1M28 18h4M31 19h1M31 20h1M31 21h1M28 22h1M31 22h1M28 23h1M31 23h1M28 24h1M31 24h1M28 25h1M31 25h1M28 26h1M31 26h1M28 27h1M31 27h1M28 28h1M31 28h1M28 29h4M28 30h1M14 31h15" />
<path stroke="#0000ff" d="M0 0h1M10 4h5M21 7h1M22 8h1M23 9h1M26 9h1M24 10h1M26 10h1M25 11h2M23 12h4M23 19h5" />
<path stroke="#c0c0c0" d="M0 0h1M17 4h1M3 5h1M5 5h1M17 5h1M2 6h1M4 6h1M6 6h1M17 6h1M17 7h1M3 8h1M5 8h1M7 8h1M9 8h1M11 8h1M13 8h1M17 8h1M2 9h1M4 9h1M6 9h1M8 9h1M10 9h1M12 9h1M17 9h1M3 10h1M5 10h1M7 10h1M9 10h1M11 10h1M13 10h1M17 10h1M2 11h1M4 11h1M6 11h1M8 11h1M10 11h1M12 11h1M17 11h1M3 12h1M5 12h1M7 12h1M9 12h1M11 12h1M13 12h1M17 12h1M2 13h1M4 13h1M6 13h1M8 13h1M10 13h1M12 13h1M16 13h2M3 14h1M5 14h1M7 14h1M9 14h1M11 14h1M13 14h1M30 19h1M16 20h1M18 20h1M30 20h1M15 21h1M17 21h1M19 21h1M30 21h1M30 22h1M16 23h1M18 23h1M20 23h1M22 23h1M24 23h1M26 23h1M30 23h1M15 24h1M17 24h1M19 24h1M21 24h1M23 24h1M25 24h1M30 24h1M16 25h1M18 25h1M20 25h1M22 25h1M24 25h1M26 25h1M30 25h1M15 26h1M17 26h1M19 26h1M21 26h1M23 26h1M25 26h1M30 26h1M16 27h1M18 27h1M20 27h1M22 27h1M24 27h1M26 27h1M30 27h1M15 28h1M17 28h1M19 28h1M21 28h1M23 28h1M25 28h1M29 28h2M16 29h1M18 29h1M20 29h1M22 29h1M24 29h1M26 29h1" />
<path stroke="#ffff00" d="M0 0h1M2 5h1M4 5h1M6 5h1M1 6h1M3 6h1M5 6h1M7 6h1M2 8h1M4 8h1M6 8h1M8 8h1M10 8h1M12 8h1M3 9h1M5 9h1M7 9h1M9 9h1M11 9h1M13 9h1M2 10h1M4 10h1M6 10h1M8 10h1M10 10h1M12 10h1M3 11h1M5 11h1M7 11h1M9 11h1M11 11h1M13 11h1M2 12h1M4 12h1M6 12h1M8 12h1M10 12h1M12 12h1M3 13h1M5 13h1M7 13h1M9 13h1M11 13h1M13 13h1M2 14h1M4 14h1M6 14h1M8 14h1M10 14h1M12 14h1M15 20h1M17 20h1M19 20h1M14 21h1M16 21h1M18 21h1M20 21h1M15 23h1M17 23h1M19 23h1M21 23h1M23 23h1M25 23h1M16 24h1M18 24h1M20 24h1M22 24h1M24 24h1M26 24h1M15 25h1M17 25h1M19 25h1M21 25h1M23 25h1M25 25h1M16 26h1M18 26h1M20 26h1M22 26h1M24 26h1M26 26h1M15 27h1M17 27h1M19 27h1M21 27h1M23 27h1M25 27h1M16 28h1M18 28h1M20 28h1M22 28h1M24 28h1M26 28h1M15 29h1M17 29h1M19 29h1M21 29h1M23 29h1M25 29h1" />
</svg>