<svg xmlns="http://www.w3.org/2000/svg" viewBox="0 -0.5 32 32" shape-rendering="crispEdges">
<path stroke="#808080" d="M0 0h1M0 2h8M21 2h8M0 3h1M7 3h1M21 3h1M28 3h1M0 4h1M7 4h1M21 4h1M28 4h1M0 5h1M21 5h1M0 6h1M21 6h1M0 7h1M21 7h1M0 8h1M21 8h1M0 9h1M21 9h1M0 10h1M21 10h1M0 11h1M21 11h1M0 12h1M21 12h1M0 13h1M21 13h1M0 14h1M21 14h1M0 15h1M21 15h1M2 19h5M21 19h5M1 20h1M7 20h1M20 20h1M26 20h1M0 21h1M8 21h4M19 21h1M27 21h4M0 22h1M11 22h1M19 22h1M30 22h1M0 23h1M11 23h1M19 23h1M30 23h1M0 24h1M11 24h1M19 24h1M30 24h1M0 25h1M11 25h1M19 25h1M30 25h1M0 26h1M11 26h1M19 26h1M30 26h1M0 27h1M11 27h1M19 27h1M30 27h1M0 28h12M19 28h12" />
<path stroke="#ffffff" d="M0 0h1M1 3h6M22 3h6M1 4h6M8 4h1M22 4h6M29 4h1M1 5h6M22 5h6M1 6h8M22 6h8M1 7h2M7 7h2M22 7h2M28 7h2M1 8h8M22 8h8M1 9h2M8 9h1M22 9h2M29 9h1M1 10h8M22 10h8M1 11h2M8 11h1M22 11h2M29 11h1M1 12h8M22 12h8M1 13h8M22 13h8M1 14h8M22 14h8M1 22h10M20 22h10M1 23h1M20 23h1M1 24h1M20 24h1M1 25h1M20 25h1M1 26h1M20 26h1M1 27h1M20 27h1" />
<path stroke="#000000" d="M0 0h1M8 3h1M29 3h1M9 4h1M30 4h1M7 5h4M28 5h4M10 6h1M31 6h1M10 7h1M31 7h1M10 8h1M31 8h1M10 9h1M31 9h1M10 10h1M31 10h1M10 11h1M31 11h1M10 12h1M31 12h1M10 13h1M31 13h1M10 14h1M31 14h1M10 15h1M31 15h1M0 16h11M21 16h11M12 22h1M31 22h1M12 23h1M31 23h1M12 24h1M31 24h1M12 25h1M31 25h1M12 26h1M31 26h1M12 27h1M31 27h1M12 28h1M31 28h1M1 29h12M20 29h12" />
<path stroke="#c0c0c0" d="M0 0h1M9 6h1M30 6h1M9 7h1M30 7h1M9 8h1M30 8h1M9 9h1M30 9h1M9 10h1M30 10h1M9 11h1M30 11h1M9 12h1M30 12h1M9 13h1M30 13h1M9 14h1M30 14h1M1 15h9M22 15h9M3 20h1M5 20h1M22 20h1M24 20h1M2 21h1M4 21h1M6 21h1M21 21h1M23 21h1M25 21h1M3 23h1M5 23h1M7 23h1M9 23h1M22 23h1M24 23h1M26 23h1M28 23h1M2 24h1M4 24h1M6 24h1M8 24h1M10 24h1M21 24h1M23 24h1M25 24h1M27 24h1M29 24h1M3 25h1M5 25h1M7 25h1M9 25h1M22 25h1M24 25h1M26 25h1M28 25h1M2 26h1M4 26h1M6 26h1M8 26h1M10 26h1M21 26h1M23 26h1M25 26h1M27 26h1M29 26h1M3 27h1M5 27h1M7 27h1M9 27h1M22 27h1M24 27h1M26 27h1M28 27h1" />
<path stroke="#0000ff" d="M0 0h1M3 7h4M24 7h4M17 8h1M3 9h5M17 9h2M24 9h5M13 10h7M3 11h5M17 11h2M24 11h5M17 12h1M15 23h1M15 24h2M14 25h4M15 26h2M15 27h1" />
<path stroke="#ffff00" d="M0 0h1M2 20h1M4 20h1M6 20h1M21 20h1M23 20h1M25 20h1M1 21h1M3 21h1M5 21h1M7 21h1M20 21h1M22 21h1M24 21h1M26 21h1M2 23h1M4 23h1M6 23h1M8 23h1M10 23h1M21 23h1M23 23h1M25 23h1M27 23h1M29 23h1M3 24h1M5 24h1M7 24h1M9 24h1M22 24h1M24 24h1M26 24h1M28 24h1M2 25h1M4 25h1M6 25h1M8 25h1M10 25h1M21 25h1M23 25h1M25 25h1M27 25h1M29 25h1M3 26h1M5 26h1M7 26h1M9 26h1M22 26h1M24 26h1M26 26h1M28 26h1M2 27h1M4 27h1M6 27h1M8 27h1M10 27h1M21 27h1M23 27h1M25 27h1M27 27h1M29 27h1" />
</svg>