<svg xmlns="http://www.w3.org/2000/svg" viewBox="0 -0.5 32 32" shape-rendering="crispEdges">
<path stroke="#808080" d="M0 0h1M2 0h5M1 1h1M7 1h1M0 2h1M8 2h7M0 3h1M14 3h1M0 4h1M14 4h1M0 5h1M14 5h1M0 6h1M14 6h1M0 7h1M14 7h1M0 8h1M14 8h1M0 9h1M0 10h1M0 11h11M14 11h1M22 19h1M17 20h1M23 20h1M24 21h7M30 22h1M16 23h1M30 23h1M16 24h1M30 24h1M16 25h1M30 25h1M16 26h1M30 26h1M16 27h1M30 27h1M16 28h1M30 28h1M16 29h1M30 29h1M16 30h15" />
<path stroke="#ffff00" d="M0 0h1M2 1h1M4 1h1M6 1h1M1 2h1M3 2h1M5 2h1M7 2h1M2 4h1M4 4h1M6 4h1M8 4h1M10 4h1M12 4h1M3 5h1M5 5h1M7 5h1M9 5h1M11 5h1M13 5h1M2 6h1M4 6h1M6 6h1M8 6h1M10 6h1M12 6h1M3 7h1M5 7h1M7 7h1M9 7h1M11 7h1M13 7h1M2 8h1M4 8h1M6 8h1M8 8h1M10 8h1M12 8h1M3 9h1M5 9h1M7 9h1M9 9h1M11 9h1M13 9h1M2 10h1M4 10h1M6 10h1M8 10h1M10 10h1M22 20h1M21 21h1M23 21h1M18 23h1M20 23h1M22 23h1M24 23h1M26 23h1M28 23h1M19 24h1M21 24h1M23 24h1M25 24h1M27 24h1M29 24h1M18 25h1M20 25h1M22 25h1M24 25h1M26 25h1M28 25h1M19 26h1M21 26h1M23 26h1M25 26h1M27 26h1M29 26h1M18 27h1M20 27h1M22 27h1M24 27h1M26 27h1M28 27h1M19 28h1M21 28h1M23 28h1M25 28h1M27 28h1M29 28h1M18 29h1M20 29h1M22 29h1M24 29h1M26 29h1M28 29h1" />
<path stroke="#c0c0c0" d="M0 0h1M3 1h1M5 1h1M2 2h1M4 2h1M6 2h1M3 4h1M5 4h1M7 4h1M9 4h1M11 4h1M13 4h1M2 5h1M4 5h1M6 5h1M8 5h1M10 5h1M12 5h1M3 6h1M5 6h1M7 6h1M9 6h1M11 6h1M13 6h1M2 7h1M4 7h1M6 7h1M8 7h1M10 7h1M12 7h1M3 8h1M5 8h1M7 8h1M9 8h1M11 8h1M13 8h1M2 9h1M4 9h1M6 9h1M8 9h1M10 9h1M12 9h1M3 10h1M5 10h1M7 10h1M9 10h1M11 10h1M21 20h1M20 21h1M22 21h1M19 23h1M21 23h1M23 23h1M25 23h1M27 23h1M29 23h1M18 24h1M20 24h1M22 24h1M24 24h1M26 24h1M28 24h1M19 25h1M21 25h1M23 25h1M25 25h1M27 25h1M29 25h1M18 26h1M20 26h1M22 26h1M24 26h1M26 26h1M28 26h1M19 27h1M21 27h1M23 27h1M25 27h1M27 27h1M29 27h1M18 28h1M20 28h1M22 28h1M24 28h1M26 28h1M28 28h1M19 29h1M21 29h1M23 29h1M25 29h1M27 29h1M29 29h1" />
<path stroke="#ffffff" d="M0 0h1M1 3h13M1 4h1M1 5h1M1 6h1M1 7h1M1 8h1M1 9h1M1 10h1M18 22h12M17 23h1M17 24h1M17 25h1M17 26h1M17 27h1M17 28h1M17 29h1" />
<path stroke="#000000" d="M0 0h1M15 3h1M15 4h1M15 5h1M15 6h1M15 7h1M15 8h1M15 11h1M1 12h9M14 12h2M31 22h1M31 23h1M31 24h1M31 25h1M31 26h1M31 27h1M31 28h1M31 29h1M31 30h1M17 31h15" />
<path stroke="#ff0000" d="M0 0h1M14 9h4M12 10h8M11 11h3M18 11h3M10 12h4M19 12h3M10 13h5M20 13h2M9 14h2M13 14h3M21 14h2M9 15h2M14 15h3M21 15h2M9 16h2M15 16h3M21 16h2M9 17h2M16 17h3M21 17h2M10 18h2M17 18h5M10 19h3M18 19h4M11 20h3M18 20h3M12 21h8M14 22h4" />
</svg>