<svg xmlns="http://www.w3.org/2000/svg" viewBox="0 -0.5 32 32" shape-rendering="crispEdges">
<path stroke="#808080" d="M0 0h1M0 0h10M0 1h1M9 1h1M0 2h1M9 2h1M0 3h1M0 4h1M0 5h1M0 6h1M0 7h1M0 8h1M0 9h1M0 10h1M0 11h1M0 12h1M0 13h1M0 14h1M0 15h1M19 15h10M19 16h1M28 16h1M19 17h1M28 17h1M19 18h1M19 19h1M19 20h1M19 21h1M19 22h1M19 23h1M19 24h1M19 25h1M19 26h1M19 27h1M19 28h1M19 29h1M19 30h1" />
<path stroke="#ffffff" d="M0 0h1M1 1h8M1 2h8M10 2h1M1 3h8M1 4h10M1 5h2M7 5h4M1 6h10M1 7h2M10 7h1M1 8h10M1 9h2M10 9h1M1 10h10M1 11h2M10 11h1M1 12h10M1 13h10M1 14h10M20 16h8M20 17h8M29 17h1M20 18h8M20 19h10M20 20h2M26 20h4M20 21h10M20 22h2M29 22h1M20 23h10M20 24h2M29 24h1M20 25h10M20 26h2M29 26h1M20 27h10M20 28h10M20 29h10" />
<path stroke="#000000" d="M0 0h1M10 1h1M11 2h1M9 3h4M12 4h1M12 5h1M12 6h1M12 7h1M12 8h1M12 9h1M12 10h1M12 11h1M12 12h1M12 13h1M12 14h1M12 15h1M0 16h13M29 16h1M30 17h1M28 18h4M31 19h1M31 20h1M31 21h1M31 22h1M31 23h1M31 24h1M31 25h1M31 26h1M31 27h1M31 28h1M31 29h1M31 30h1M19 31h13" />
<path stroke="#c0c0c0" d="M0 0h1M11 4h1M11 5h1M11 6h1M11 7h1M11 8h1M11 9h1M11 10h1M11 11h1M11 12h1M11 13h1M11 14h1M1 15h11M30 19h1M30 20h1M30 21h1M30 22h1M30 23h1M30 24h1M30 25h1M30 26h1M30 27h1M30 28h1M30 29h1M20 30h11" />
<path stroke="#0000ff" d="M0 0h1M3 5h4M3 7h7M15 7h1M16 8h1M3 9h7M17 9h1M20 9h1M18 10h1M20 10h1M3 11h7M19 11h2M17 12h4M22 20h4M22 22h7M22 24h7M22 26h7" />
</svg>