<svg xmlns="http://www.w3.org/2000/svg" width="32" height="32" shape-rendering="crispEdges" viewBox="0 -0.5 32 32"><path stroke="gray" d="M8 0h8M8 1h1m6 0h1M8 2h1m6 0h1M8 3h1M2 4h5m1 0h1M1 5h1m5 0h2M0 6h1m7 0h7M0 7h1m13 0h1M0 8h1m13 0h1M0 9h1m13 0h1M0 10h1m13 0h1M0 11h1m13 0h1M0 12h1m13 0h1M0 13h1m13 0h1M0 14h1m13 0h1M0 15h15m6 0h8m-8 1h1m6 0h1m-8 1h1m6 0h1m-8 1h1m-7 1h5m1 0h1m-8 1h1m5 0h2m-9 1h1m7 0h7m-15 1h1m13 0h1m-15 1h1m13 0h1m-15 1h1m13 0h1m-15 1h1m13 0h1m-15 1h1m13 0h1m-15 1h1m13 0h1m-15 1h1m13 0h1m-15 1h1m13 0h1m-15 1h15"/><path stroke="#fff" d="M9 1h6M9 2h6m1 0h1M9 3h6M9 4h1m5 0h2M9 5h8m-2 1h2M1 7h13m2 0h1M1 8h1m14 0h1M1 9h1m14 0h1M1 10h1m14 0h1M1 11h1m14 0h1M1 12h1m14 0h1M1 13h1m-1 1h1m20 2h6m-6 1h6m1 0h1m-8 1h6m-6 1h1m5 0h2m-8 1h8m-2 1h2m-16 1h13m2 0h1m-16 1h1m14 0h1m-16 1h1m14 0h1m-16 1h1m14 0h1m-16 1h1m14 0h1m-16 1h1m14 0h1m-16 1h1m-1 1h1"/><path stroke="#000" d="M16 1h1m0 1h1m-3 1h4m-1 1h1m-1 1h1m-1 1h1m-4 1h1m2 0h1m-4 1h1m2 0h1m-4 1h1m2 0h1m-4 1h1m2 0h1m-4 1h1m2 0h1m-4 1h1m2 0h1m-4 1h1m2 0h1m-4 1h4m-4 1h1M1 16h15m13 0h1m0 1h1m-3 1h4m-1 1h1m-1 1h1m-1 1h1m-4 1h1m2 0h1m-4 1h1m2 0h1m-4 1h1m2 0h1m-4 1h1m2 0h1m-4 1h1m2 0h1m-4 1h1m2 0h1m-4 1h1m2 0h1m-4 1h4m-4 1h1m-15 1h15"/><path stroke="#00f" d="M10 4h5m6 3h1m0 1h1m0 1h1m2 0h1m-3 1h1m1 0h1m-2 1h2m-4 1h4m-4 7h5"/><path stroke="silver" d="M17 4h1M3 5h1m1 0h1m11 0h1M2 6h1m1 0h1m1 0h1m10 0h1m-1 1h1M3 8h1m1 0h1m1 0h1m1 0h1m1 0h1m1 0h1m3 0h1M2 9h1m1 0h1m1 0h1m1 0h1m1 0h1m1 0h1m4 0h1M3 10h1m1 0h1m1 0h1m1 0h1m1 0h1m1 0h1m3 0h1M2 11h1m1 0h1m1 0h1m1 0h1m1 0h1m1 0h1m4 0h1M3 12h1m1 0h1m1 0h1m1 0h1m1 0h1m1 0h1m3 0h1M2 13h1m1 0h1m1 0h1m1 0h1m1 0h1m1 0h1m3 0h2M3 14h1m1 0h1m1 0h1m1 0h1m1 0h1m1 0h1m16 5h1m-15 1h1m1 0h1m11 0h1m-16 1h1m1 0h1m1 0h1m10 0h1m-1 1h1m-15 1h1m1 0h1m1 0h1m1 0h1m1 0h1m1 0h1m3 0h1m-16 1h1m1 0h1m1 0h1m1 0h1m1 0h1m1 0h1m4 0h1m-15 1h1m1 0h1m1 0h1m1 0h1m1 0h1m1 0h1m3 0h1m-16 1h1m1 0h1m1 0h1m1 0h1m1 0h1m1 0h1m4 0h1m-15 1h1m1 0h1m1 0h1m1 0h1m1 0h1m1 0h1m3 0h1m-16 1h1m1 0h1m1 0h1m1 0h1m1 0h1m1 0h1m3 0h2m-15 1h1m1 0h1m1 0h1m1 0h1m1 0h1m1 0h1"/><path stroke="#ff0" d="M2 5h1m1 0h1m1 0h1M1 6h1m1 0h1m1 0h1m1 0h1M2 8h1m1 0h1m1 0h1m1 0h1m1 0h1m1 0h1M3 9h1m1 0h1m1 0h1m1 0h1m1 0h1m1 0h1M2 10h1m1 0h1m1 0h1m1 0h1m1 0h1m1 0h1M3 11h1m1 0h1m1 0h1m1 0h1m1 0h1m1 0h1M2 12h1m1 0h1m1 0h1m1 0h1m1 0h1m1 0h1M3 13h1m1 0h1m1 0h1m1 0h1m1 0h1m1 0h1M2 14h1m1 0h1m1 0h1m1 0h1m1 0h1m1 0h1m2 6h1m1 0h1m1 0h1m-6 1h1m1 0h1m1 0h1m1 0h1m-6 2h1m1 0h1m1 0h1m1 0h1m1 0h1m1 0h1m-10 1h1m1 0h1m1 0h1m1 0h1m1 0h1m1 0h1m-12 1h1m1 0h1m1 0h1m1 0h1m1 0h1m1 0h1m-10 1h1m1 0h1m1 0h1m1 0h1m1 0h1m1 0h1m-12 1h1m1 0h1m1 0h1m1 0h1m1 0h1m1 0h1m-10 1h1m1 0h1m1 0h1m1 0h1m1 0h1m1 0h1m-12 1h1m1 0h1m1 0h1m1 0h1m1 0h1m1 0h1"/></svg>