<svg xmlns="http://www.w3.org/2000/svg" viewBox="0 -0.5 32 32" shape-rendering="crispEdges">
<path stroke="#808080" d="M0 0h1M13 3h6M12 4h1M6 5h3M11 5h1M23 5h1M26 5h1M4 6h1M7 6h1M11 6h1M14 6h4M25 6h1M3 7h1M2 8h1M28 8h2M1 9h1M27 9h3M1 10h1M27 10h3M1 11h1M27 11h3M1 12h1M27 12h3M1 13h1M23 13h2M27 13h3M1 14h1M5 14h19M27 14h3M1 15h1M27 15h3M1 16h1M27 16h3M1 17h1M27 17h3M1 18h1M23 18h2M27 18h3M1 19h1M5 19h19M27 19h3M1 20h1M27 20h3M1 21h1M27 21h3M1 22h1M27 22h3M1 23h1M23 23h2M27 23h3M1 24h1M5 24h19M27 24h3M1 25h1M27 25h2M1 26h27" />
<path stroke="#ffffff" d="M0 0h1M13 4h1M12 5h1M6 6h1M24 6h1M2 9h25M2 10h1M2 11h1M2 12h1M5 12h19M2 13h1M4 13h1M2 14h1M2 15h1M2 16h1M2 17h1M5 17h19M2 18h1M4 18h1M2 19h1M2 20h1M2 21h1M2 22h1M5 22h19M2 23h1M4 23h1M2 24h1M2 25h1" />
<path stroke="#c0c0c0" d="M0 0h1M14 4h5M13 5h1M18 5h2M12 6h1M19 6h1M4 7h1M9 7h2M14 7h4M21 7h2M27 7h2M3 8h25M3 10h24M3 11h24M3 12h2M24 12h3M3 13h1M5 13h18M25 13h2M3 14h2M24 14h3M3 15h24M3 16h24M3 17h2M24 17h3M3 18h1M5 18h18M25 18h2M3 19h2M24 19h3M3 20h24M3 21h24M3 22h2M24 22h3M3 23h1M5 23h18M25 23h2M3 24h2M24 24h3M3 25h24" />
<path stroke="#000000" d="M0 0h1M19 4h1M14 5h4M20 5h1M24 5h2M5 6h1M8 6h3M13 6h1M18 6h1M20 6h4M26 6h3M5 7h4M11 7h3M18 7h3M23 7h4M29 7h1M30 8h1M30 9h1M30 10h1M30 11h1M30 12h1M30 13h1M30 14h1M30 15h1M30 16h1M30 17h1M30 18h1M30 19h1M30 20h1M30 21h1M30 22h1M30 23h1M30 24h1M29 25h1M28 26h1M2 27h26" />
</svg>