<svg xmlns="http://www.w3.org/2000/svg" viewBox="0 -0.5 64 64" shape-rendering="crispEdges">
<path stroke="#000000" d="M0 0h1M8 8h28M8 9h1M35 9h2M8 10h1M35 10h1M37 10h1M8 11h1M35 11h1M38 11h1M8 12h1M35 12h1M39 12h1M8 13h1M35 13h1M40 13h1M8 14h1M15 14h2M18 14h1M21 14h1M23 14h1M35 14h1M41 14h1M8 15h1M13 15h2M17 15h1M22 15h1M26 15h1M35 15h1M42 15h1M8 16h1M35 16h1M43 16h1M8 17h1M35 17h1M44 17h1M8 18h1M35 18h1M45 18h1M8 19h1M35 19h1M46 19h1M8 20h1M35 20h13M8 21h1M19 21h1M21 21h1M25 21h1M27 21h1M47 21h1M8 22h1M20 22h1M23 22h1M25 22h1M47 22h1M8 23h1M47 23h1M8 24h1M47 24h1M8 25h1M47 25h1M8 26h1M18 26h1M47 26h1M8 27h1M19 27h1M24 27h1M29 27h1M33 27h1M47 27h1M8 28h1M18 28h2M22 28h1M24 28h1M27 28h1M29 28h2M32 28h1M34 28h1M36 28h1M38 28h2M47 28h1M8 29h1M47 29h1M8 30h1M47 30h1M8 31h1M47 31h1M8 32h1M47 32h1M8 33h1M47 33h1M8 34h1M14 34h1M21 34h1M26 34h1M31 34h1M37 34h1M47 34h1M8 35h1M17 35h1M19 35h1M29 35h1M33 35h1M37 35h1M47 35h1M8 36h1M19 36h2M22 36h2M25 36h1M27 36h1M31 36h1M36 36h1M40 36h3M47 36h1M8 37h1M47 37h1M8 38h1M47 38h1M8 39h1M47 39h1M8 40h1M47 40h1M8 41h1M47 41h1M8 42h1M47 42h1M8 43h1M17 43h1M21 43h1M47 43h1M8 44h1M19 44h2M23 44h1M27 44h1M30 44h1M36 44h2M40 44h1M42 44h1M47 44h1M8 45h1M32 45h1M47 45h1M8 46h1M47 46h1M8 47h1M47 47h1M8 48h1M47 48h1M8 49h1M47 49h1M8 50h1M47 50h1M8 51h1M47 51h1M8 52h40" />
<path stroke="#ffffff" d="M0 0h1M9 9h26M9 10h26M36 10h1M9 11h26M36 11h2M9 12h26M36 12h3M9 13h26M36 13h4M9 14h6M17 14h1M19 14h2M22 14h1M24 14h11M36 14h5M9 15h4M15 15h2M18 15h4M23 15h3M27 15h8M36 15h6M9 16h26M36 16h7M9 17h26M36 17h8M9 18h26M36 18h9M9 19h26M36 19h10M9 20h26M9 21h10M20 21h1M22 21h3M26 21h1M28 21h19M9 22h11M21 22h2M24 22h1M26 22h21M9 23h38M9 24h38M9 25h38M9 26h9M19 26h28M9 27h10M20 27h4M25 27h4M30 27h3M34 27h13M9 28h9M20 28h2M23 28h1M25 28h2M28 28h1M31 28h1M33 28h1M35 28h1M37 28h1M40 28h7M9 29h38M9 30h38M9 31h38M9 32h38M9 33h38M9 34h5M15 34h6M22 34h4M27 34h4M32 34h5M38 34h9M9 35h8M18 35h1M20 35h9M30 35h3M34 35h3M38 35h9M9 36h10M21 36h1M24 36h1M26 36h1M28 36h3M32 36h4M37 36h3M43 36h4M9 37h38M9 38h38M9 39h38M9 40h38M9 41h38M9 42h38M9 43h8M18 43h3M22 43h25M9 44h10M21 44h2M24 44h3M28 44h2M31 44h5M38 44h2M41 44h1M43 44h4M9 45h23M33 45h14M9 46h38M9 47h38M9 48h38M9 49h38M9 50h38M9 51h38" />
</svg>