<svg xmlns="http://www.w3.org/2000/svg" viewBox="0 -0.5 32 32" shape-rendering="crispEdges">
<path stroke="#000000" d="M0 0h1M0 0h32M0 1h1M31 1h1M0 2h1M6 2h10M31 2h1M0 3h1M6 3h1M14 3h3M31 3h1M0 4h1M6 4h1M14 4h1M16 4h2M31 4h1M0 5h1M6 5h1M14 5h1M17 5h2M31 5h1M0 6h1M6 6h1M14 6h5M31 6h1M0 7h1M6 7h1M18 7h1M31 7h1M0 8h1M6 8h1M18 8h1M31 8h1M0 9h1M6 9h1M13 9h10M31 9h1M0 10h1M6 10h1M13 10h11M31 10h1M0 11h1M6 11h1M13 11h2M21 11h4M31 11h1M0 12h1M3 12h4M13 12h2M21 12h2M24 12h2M31 12h1M0 13h1M3 13h1M6 13h1M13 13h2M21 13h6M31 13h1M0 14h1M3 14h1M6 14h1M13 14h2M21 14h6M31 14h1M0 15h1M3 15h1M6 15h1M13 15h2M25 15h2M31 15h1M0 16h1M3 16h1M6 16h1M13 16h2M25 16h2M31 16h1M0 17h1M3 17h1M6 17h1M13 17h2M25 17h2M31 17h1M0 18h1M3 18h1M6 18h9M25 18h2M31 18h1M0 19h1M3 19h1M13 19h2M25 19h2M31 19h1M0 20h1M3 20h1M13 20h2M25 20h2M31 20h1M0 21h1M3 21h1M13 21h2M25 21h2M31 21h1M0 22h1M3 22h1M13 22h2M25 22h2M31 22h1M0 23h1M3 23h1M13 23h2M25 23h2M31 23h1M0 24h1M3 24h1M13 24h2M25 24h2M31 24h1M0 25h1M3 25h1M13 25h14M31 25h1M0 26h1M3 26h1M13 26h14M31 26h1M0 27h1M3 27h1M15 27h1M31 27h1M0 28h1M3 28h13M31 28h1M0 29h1M31 29h1M0 30h1M31 30h1M0 31h32" />
<path stroke="#008080" d="M0 0h1M7 3h7M7 4h7M15 4h1M7 5h7M15 5h2M7 6h7M7 7h11M7 8h11M7 9h6M7 10h6M7 11h6M7 12h6M4 13h2M7 13h6M4 14h2M7 14h6M4 15h2M7 15h6M4 16h2M7 16h6M4 17h2M7 17h6M4 18h2M4 19h9M4 20h9M4 21h9M4 22h9M4 23h9M4 24h9M4 25h9M4 26h9M4 27h11" />
<path stroke="#ffffff" d="M0 0h1M15 11h1M17 11h1M19 11h1M16 12h1M18 12h1M20 12h1M23 12h1M15 13h1M17 13h1M19 13h1M16 14h1M18 14h1M20 14h1M15 15h1M17 15h1M19 15h1M21 15h1M23 15h1M16 16h1M18 16h1M20 16h1M22 16h1M24 16h1M15 17h1M17 17h1M19 17h1M21 17h1M23 17h1M16 18h1M18 18h1M20 18h1M22 18h1M24 18h1M15 19h1M17 19h1M19 19h1M21 19h1M23 19h1M16 20h1M18 20h1M20 20h1M22 20h1M24 20h1M15 21h1M17 21h1M19 21h1M21 21h1M23 21h1M16 22h1M18 22h1M20 22h1M22 22h1M24 22h1M15 23h1M17 23h1M19 23h1M21 23h1M23 23h1M16 24h1M18 24h1M20 24h1M22 24h1M24 24h1" />
<path stroke="#00ffff" d="M0 0h1M16 11h1M18 11h1M20 11h1M15 12h1M17 12h1M19 12h1M16 13h1M18 13h1M20 13h1M15 14h1M17 14h1M19 14h1M16 15h1M18 15h1M20 15h1M22 15h1M24 15h1M15 16h1M17 16h1M19 16h1M21 16h1M23 16h1M16 17h1M18 17h1M20 17h1M22 17h1M24 17h1M15 18h1M17 18h1M19 18h1M21 18h1M23 18h1M16 19h1M18 19h1M20 19h1M22 19h1M24 19h1M15 20h1M17 20h1M19 20h1M21 20h1M23 20h1M16 21h1M18 21h1M20 21h1M22 21h1M24 21h1M15 22h1M17 22h1M19 22h1M21 22h1M23 22h1M16 23h1M18 23h1M20 23h1M22 23h1M24 23h1M15 24h1M17 24h1M19 24h1M21 24h1M23 24h1" />
</svg>