<svg xmlns="http://www.w3.org/2000/svg" width="32" height="32" shape-rendering="crispEdges" viewBox="0 -0.5 32 32"><path stroke="#000" d="M0 0h32M0 1h1m30 0h1M0 2h1m5 0h10m15 0h1M0 3h1m5 0h1m7 0h3m14 0h1M0 4h1m5 0h1m7 0h1m1 0h2m13 0h1M0 5h1m5 0h1m7 0h1m2 0h2m12 0h1M0 6h1m5 0h1m7 0h5m12 0h1M0 7h1m5 0h1m11 0h1m12 0h1M0 8h1m5 0h1m11 0h1m12 0h1M0 9h1m5 0h1m6 0h10m8 0h1M0 10h1m5 0h1m6 0h11m7 0h1M0 11h1m5 0h1m6 0h2m6 0h4m6 0h1M0 12h1m2 0h4m6 0h2m6 0h2m1 0h2m5 0h1M0 13h1m2 0h1m2 0h1m6 0h2m6 0h6m4 0h1M0 14h1m2 0h1m2 0h1m6 0h2m6 0h6m4 0h1M0 15h1m2 0h1m2 0h1m6 0h2m10 0h2m4 0h1M0 16h1m2 0h1m2 0h1m6 0h2m10 0h2m4 0h1M0 17h1m2 0h1m2 0h1m6 0h2m10 0h2m4 0h1M0 18h1m2 0h1m2 0h9m10 0h2m4 0h1M0 19h1m2 0h1m9 0h2m10 0h2m4 0h1M0 20h1m2 0h1m9 0h2m10 0h2m4 0h1M0 21h1m2 0h1m9 0h2m10 0h2m4 0h1M0 22h1m2 0h1m9 0h2m10 0h2m4 0h1M0 23h1m2 0h1m9 0h2m10 0h2m4 0h1M0 24h1m2 0h1m9 0h2m10 0h2m4 0h1M0 25h1m2 0h1m9 0h14m4 0h1M0 26h1m2 0h1m9 0h14m4 0h1M0 27h1m2 0h1m11 0h1m15 0h1M0 28h1m2 0h13m15 0h1M0 29h1m30 0h1M0 30h1m30 0h1M0 31h32"/><path stroke="teal" d="M7 3h7M7 4h7m1 0h1M7 5h7m1 0h2M7 6h7M7 7h11M7 8h11M7 9h6m-6 1h6m-6 1h6m-6 1h6m-9 1h2m1 0h6m-9 1h2m1 0h6m-9 1h2m1 0h6m-9 1h2m1 0h6m-9 1h2m1 0h6m-9 1h2m-2 1h9m-9 1h9m-9 1h9m-9 1h9m-9 1h9m-9 1h9m-9 1h9m-9 1h9m-9 1h11"/><path stroke="#fff" d="M15 11h1m1 0h1m1 0h1m-4 1h1m1 0h1m1 0h1m2 0h1m-9 1h1m1 0h1m1 0h1m-4 1h1m1 0h1m1 0h1m-6 1h1m1 0h1m1 0h1m1 0h1m1 0h1m-8 1h1m1 0h1m1 0h1m1 0h1m1 0h1m-10 1h1m1 0h1m1 0h1m1 0h1m1 0h1m-8 1h1m1 0h1m1 0h1m1 0h1m1 0h1m-10 1h1m1 0h1m1 0h1m1 0h1m1 0h1m-8 1h1m1 0h1m1 0h1m1 0h1m1 0h1m-10 1h1m1 0h1m1 0h1m1 0h1m1 0h1m-8 1h1m1 0h1m1 0h1m1 0h1m1 0h1m-10 1h1m1 0h1m1 0h1m1 0h1m1 0h1m-8 1h1m1 0h1m1 0h1m1 0h1m1 0h1"/><path stroke="#0ff" d="M16 11h1m1 0h1m1 0h1m-6 1h1m1 0h1m1 0h1m-4 1h1m1 0h1m1 0h1m-6 1h1m1 0h1m1 0h1m-4 1h1m1 0h1m1 0h1m1 0h1m1 0h1m-10 1h1m1 0h1m1 0h1m1 0h1m1 0h1m-8 1h1m1 0h1m1 0h1m1 0h1m1 0h1m-10 1h1m1 0h1m1 0h1m1 0h1m1 0h1m-8 1h1m1 0h1m1 0h1m1 0h1m1 0h1m-10 1h1m1 0h1m1 0h1m1 0h1m1 0h1m-8 1h1m1 0h1m1 0h1m1 0h1m1 0h1m-10 1h1m1 0h1m1 0h1m1 0h1m1 0h1m-8 1h1m1 0h1m1 0h1m1 0h1m1 0h1m-10 1h1m1 0h1m1 0h1m1 0h1m1 0h1"/></svg>