<svg xmlns="http://www.w3.org/2000/svg" viewBox="0 -0.5 32 32" shape-rendering="crispEdges">
<path stroke="#000000" d="M0 0h1M0 0h31M0 1h1M30 1h1M0 2h1M30 2h1M0 3h1M30 3h1M0 4h1M30 4h1M0 5h1M30 5h1M0 6h1M30 6h1M0 7h1M30 7h1M0 8h1M30 8h1M0 9h1M30 9h1M0 10h1M7 10h1M30 10h1M0 11h1M6 11h1M8 11h1M30 11h1M0 12h1M6 12h1M9 12h1M30 12h1M0 13h1M5 13h1M10 13h1M30 13h1M0 14h1M5 14h1M11 14h1M25 14h3M30 14h1M0 15h5M12 15h4M24 15h1M28 15h1M30 15h1M0 16h1M16 16h1M24 16h1M29 16h2M0 17h1M16 17h1M23 17h1M30 17h1M0 18h1M17 18h1M23 18h1M30 18h1M0 19h1M17 19h1M22 19h1M30 19h1M0 20h1M18 20h4M30 20h1M0 21h1M30 21h1M0 22h1M30 22h1M0 23h1M15 23h2M26 23h1M30 23h1M0 24h1M14 24h1M17 24h1M25 24h1M27 24h1M30 24h1M0 25h4M13 25h1M18 25h1M25 25h1M28 25h1M30 25h1M0 26h1M4 26h2M10 26h3M19 26h6M29 26h2M0 27h1M6 27h4M30 27h1M0 28h1M30 28h1M0 29h31M0 30h31" />
<path stroke="#ffffff" d="M0 0h1M31 0h1M1 1h29M1 2h29M1 3h29M1 4h29M1 5h29M1 7h29M1 8h29M1 9h29M1 10h6M8 10h22M1 11h5M9 11h21M1 13h4M11 13h19M1 14h4M12 14h13M28 14h2M16 15h8M29 15h1M17 16h7M17 17h6M18 19h4M0 31h1" />
<path stroke="#808080" d="M0 0h1M31 1h1M31 2h1M31 3h1M31 4h1M31 5h1M31 6h1M31 7h1M31 8h1M31 9h1M31 10h1M31 11h1M31 12h1M31 13h1M31 14h1M31 15h1M31 16h1M31 17h1M31 18h1M31 19h1M31 20h1M31 21h1M31 22h1M31 23h1M31 24h1M31 25h1M31 26h1M31 27h1M31 28h1M31 29h1M31 30h1M1 31h31" />
<path stroke="#c0c0c0" d="M0 0h1M1 6h29M1 12h5M10 12h20M18 18h5" />
<path stroke="#800080" d="M0 0h1M7 11h1M7 12h2M6 13h4M6 14h5M5 15h7M25 15h3M1 16h15M25 16h4M1 17h15M24 17h6M1 18h16M24 18h6M1 19h16M23 19h7M1 20h17M22 20h8M1 21h29M1 22h29M1 23h14M17 23h9M27 23h3M1 24h13M18 24h7M28 24h2M4 25h9M19 25h6M29 25h1M6 26h4" />
<path stroke="#00ffff" d="M0 0h1M15 24h2M26 24h1M14 25h4M26 25h2M1 26h3M13 26h6M25 26h4M1 27h5M10 27h20M1 28h29" />
</svg>