<svg xmlns="http://www.w3.org/2000/svg" width="32" height="32" shape-rendering="crispEdges" viewBox="0 -0.5 32 32"><path stroke="gray" d="M14 0h5m-6 1h1m4 0h1m-9 1h4m4 0h1M7 3h3m3 0h1m2 0h3m1 0h2M9 4h2m8 0h5M11 5h3m9 0h1m-2 1h1m1 0h1m-2 1h1m-2 1h1m1 0h1m-2 1h1m-2 1h1m1 0h1m-2 1h1m-2 1h1m1 0h1m-2 1h1m-2 1h1m1 0h1m-2 1h1m-2 1h1m1 0h1m-10 1h2m6 0h1m-2 1h1m1 0h1m-8 1h1m5 0h1m-2 1h1m1 0h1m-8 1h1m5 0h1m-2 1h1m1 0h1m-2 1h1m-2 1h1m1 0h1m-2 1h1m-2 1h1m1 0h1m-2 1h1m-2 1h1m-2 1h1m-10 1h1m1 0h1m1 0h1m1 0h1m1 0h1"/><path stroke="#fff" d="M14 1h3m-3 1h1m-1 1h1M7 4h2m15 0h1M9 5h1m12 0h1M10 6h12M9 7h1m0 1h1M9 9h1m0 1h1m-2 1h1m0 1h1m-2 1h1m0 1h1m-2 1h1m0 1h1m-2 1h1m0 1h1m-2 1h1m0 1h1m-2 1h1m0 1h1m-2 1h1m0 1h1m-2 1h1m0 1h1m-2 1h1m0 1h1"/><path stroke="silver" d="M17 1h1m-3 1h3m-8 1h3m2 0h1m-5 1h3M7 5h1m6 0h8M8 6h1M7 7h1m3 0h1m1 0h1m1 0h1m1 0h1m1 0h1m1 0h1M8 8h1m3 0h1m1 0h1m1 0h1m1 0h1m1 0h1M7 9h1m3 0h1m7 0h1m1 0h1M8 10h1m5 0h1m1 0h1m3 0h1M7 11h1m3 0h1m3 0h1m5 0h1M8 12h1m7 0h1m3 0h1M7 13h1m3 0h1m3 0h1m5 0h1M8 14h1m3 0h1m1 0h1m5 0h1M7 15h1m3 0h1m1 0h1m5 0h1m1 0h1M8 16h1m3 0h1m1 0h1m3 0h1m1 0h1M7 17h1m3 0h1m1 0h1m3 0h1m1 0h1m1 0h1M8 18h1m3 0h1m1 0h1m1 0h1m1 0h1m1 0h1M7 19h1m3 0h1m1 0h1m5 0h1m1 0h1M8 20h1m3 0h1m5 0h1m1 0h1M7 21h1m3 0h1m1 0h1m5 0h1m1 0h1M8 22h1m3 0h1m1 0h1m1 0h1m1 0h1m1 0h1M7 23h1m3 0h1m1 0h1m1 0h1m1 0h1m1 0h1m1 0h1M8 24h1m3 0h1m1 0h1m1 0h1m1 0h1m1 0h1M7 25h1m3 0h1m1 0h1m1 0h1m1 0h1m1 0h1m1 0h1M8 26h1m3 0h1m1 0h1m1 0h1m1 0h1m1 0h1M7 27h1m3 0h1m1 0h1m1 0h1m1 0h1m1 0h1m1 0h1M8 28h1m3 0h1m1 0h1m1 0h1m1 0h1m1 0h1M9 29h1m1 0h1m1 0h1m1 0h1m1 0h1m1 0h1"/><path stroke="#000" d="M19 2h3m-3 1h1m2 0h3M14 4h5m6 0h1m-1 1h1m-1 1h1m-1 1h1m-1 1h1m-1 1h1m-1 1h1m-1 1h1m-1 1h1m-1 1h1m-1 1h1m-1 1h1m-1 1h1m-1 1h1m-1 1h1m-1 1h1m-1 1h1m-1 1h1m-1 1h1m-1 1h1m-1 1h1m-1 1h1m-1 1h1m-1 1h1m-2 1h1m-2 1h1m-3 1h2m-12 1h10"/><path stroke="olive" d="M6 4h1M6 5h1M6 6h1M6 7h1M6 8h1M6 9h1m-1 1h1m-1 1h1m-1 1h1m-1 1h1m-1 1h1m-1 1h1m-1 1h1m-1 1h1m-1 1h1m-1 1h1m-1 1h1m-1 1h1m-1 1h1m-1 1h1m-1 1h1m-1 1h1m-1 1h1m-1 1h1m0 1h1m0 1h1m0 1h2"/><path stroke="#ff0" d="M8 5h1m1 0h1m13 0h1M7 6h1m1 0h1m13 0h1M8 7h1m1 0h1m1 0h1m1 0h1m1 0h1m1 0h1m1 0h1m1 0h1m1 0h1M7 8h1m1 0h1m1 0h1m1 0h1m1 0h1m1 0h1m1 0h1m1 0h1m1 0h1M8 9h1m1 0h1m1 0h1m7 0h1m1 0h1m1 0h1M7 10h1m1 0h1m1 0h1m3 0h1m5 0h1m1 0h1M8 11h1m1 0h1m5 0h1m3 0h1m1 0h1m1 0h1M7 12h1m1 0h1m1 0h1m3 0h1m5 0h1m1 0h1M8 13h1m1 0h1m1 0h1m3 0h1m3 0h1m1 0h1m1 0h1M7 14h1m1 0h1m1 0h1m1 0h1m1 0h1m3 0h1m1 0h1m1 0h1M8 15h1m1 0h1m1 0h1m1 0h1m3 0h1m1 0h1m1 0h1m1 0h1M7 16h1m1 0h1m1 0h1m1 0h1m3 0h1m1 0h1m1 0h1m1 0h1M8 17h1m1 0h1m1 0h1m1 0h1m3 0h1m1 0h1m1 0h1m1 0h1M7 18h1m1 0h1m1 0h1m1 0h1m1 0h1m1 0h1m1 0h1m1 0h1m1 0h1M8 19h1m1 0h1m1 0h1m1 0h1m3 0h1m1 0h1m1 0h1m1 0h1M7 20h1m1 0h1m1 0h1m1 0h1m5 0h1m1 0h1m1 0h1M8 21h1m1 0h1m1 0h1m1 0h1m3 0h1m1 0h1m1 0h1m1 0h1M7 22h1m1 0h1m1 0h1m1 0h1m1 0h1m1 0h1m1 0h1m1 0h1m1 0h1M8 23h1m1 0h1m1 0h1m1 0h1m1 0h1m1 0h1m1 0h1m1 0h1m1 0h1M7 24h1m1 0h1m1 0h1m1 0h1m1 0h1m1 0h1m1 0h1m1 0h1m1 0h1M8 25h1m1 0h1m1 0h1m1 0h1m1 0h1m1 0h1m1 0h1m1 0h1m1 0h1M7 26h1m1 0h1m1 0h1m1 0h1m1 0h1m1 0h1m1 0h1m1 0h1m1 0h1M8 27h1m1 0h1m1 0h1m1 0h1m1 0h1m1 0h1m1 0h1m1 0h1m1 0h1M9 28h1m1 0h1m1 0h1m1 0h1m1 0h1m1 0h1m1 0h1m1 0h1m-14 1h1m1 0h1m1 0h1m1 0h1m1 0h1m1 0h1m1 0h1m-12 1h1m1 0h1m1 0h1m1 0h1m1 0h1"/><path stroke="red" d="M13 9h6m-7 1h2m3 0h3m-8 1h3m2 0h3m-8 1h3m2 0h3m-7 1h2m2 0h3m-4 1h3m-4 1h3m-3 1h2m-2 3h2m-3 1h4m-3 1h2"/></svg>