<svg xmlns="http://www.w3.org/2000/svg" width="16" height="16" shape-rendering="crispEdges" viewBox="0 -0.5 16 16"><path stroke="gray" d="M7 0h1m3 0h1M9 3h2m2 0h1M6 4h9M5 5h1m8 0h1M6 6h1m0 1h1m5 0h1M7 8h1m5 0h1M7 9h1m5 0h1m-2 1h1M2 12h4m3 0h1M0 13h2m4 0h3"/><path stroke="#000" d="M8 0h1m3 0h1m1 3h1m0 1h1m-1 1h1M7 6h8m-1 1h1m-1 1h1m-1 1h1m-7 1h1m4 0h1m-5 1h4m-2 1h1m-1 1h1M2 14h3m5 0h1M0 15h2m3 0h5"/><path stroke="olive" d="M9 0h1m3 0h1M7 1h1m1 0h1m1 0h1m1 0h1M7 2h1m1 0h1m1 0h1m1 0h1M7 3h1m3 0h1"/><path stroke="#ff0" d="M8 1h1m3 0h1M8 2h1m3 0h1M8 3h1m3 0h1"/><path stroke="#fff" d="M6 5h1m1 2h3M8 8h1M8 9h1m0 1h1m0 2h1m-9 1h4m3 0h1M0 14h2m4 0h3"/><path stroke="silver" d="M7 5h7m-3 2h2M9 8h4M9 9h4m-3 1h2m-2 3h1m-6 1h1m3 0h1"/></svg>