<svg xmlns="http://www.w3.org/2000/svg" width="16" height="16" shape-rendering="crispEdges" viewBox="0 -0.5 16 16"><path stroke="gray" d="M6 0h3M3 1h3m2 0h1M2 2h2m1 0h1m2 0h1m2 0h1M2 3h1m1 0h8M2 4h1m8 0h1M2 5h1m8 0h1M2 6h1m8 0h1M2 7h1m8 0h1"/><path stroke="#000" d="M9 0h1M9 1h3M9 2h1m2 0h1m-1 1h1m-1 1h1m-1 1h1m-1 1h1m-1 1h1m-1 1h1m-1 1h1m-1 1h1m-1 1h1m-1 1h1m-1 1h1M3 14h1m7 0h1m-8 1h7"/><path stroke="#fff" d="M6 1h1M4 2h1M3 3h1M3 4h1M3 5h1M3 6h1M3 7h1"/><path stroke="silver" d="M7 1h1M6 2h2m2 0h1M4 4h7M4 5h3m1 0h3M4 6h2m3 0h2M4 7h3m1 0h3M4 8h7"/><path stroke="red" d="M7 5h1M6 6h3M7 7h1m-2 6h3"/><path stroke="navy" d="M2 8h2m7 0h1M2 9h10M2 10h1m1 0h1m1 0h1m1 0h1m1 0h2M2 11h2m1 0h1m1 0h1m1 0h1m1 0h1M2 12h1m1 0h1m1 0h1m1 0h1m1 0h2M2 13h2m1 0h1m3 0h1m1 0h1m-8 1h7"/><path stroke="#00f" d="M3 10h1m1 0h1m1 0h1m1 0h1m-6 1h1m1 0h1m1 0h1m1 0h1m-8 1h1m1 0h1m1 0h1m1 0h1m-6 1h1m5 0h1"/></svg>