<svg xmlns="http://www.w3.org/2000/svg" width="32" height="32" shape-rendering="crispEdges" viewBox="0 -0.5 32 32"><path stroke="gray" d="M14 0h5m-6 1h1m4 0h1m-9 1h4m4 0h1M7 3h3m3 0h1m2 0h3m1 0h2M6 4h3m10 0h6M6 5h1m2 0h2m12 0h2M6 6h1m4 0h12m1 0h1M6 7h1m17 0h1M6 8h1m17 0h1M6 9h1m17 0h1M6 10h1m17 0h1M6 11h1m17 0h1M6 12h1m17 0h1M6 13h1m17 0h1M6 14h1m17 0h1M6 15h1m17 0h1M9 17h1m12 0h1"/><path stroke="#fff" d="M14 1h3m-3 1h1m-5 1h3m1 0h1M9 4h1M7 5h1M7 6h1M7 7h1M7 8h1M7 9h1m-1 1h1m-1 1h1m-1 1h1m-1 1h1m-1 1h1m-1 1h1"/><path stroke="silver" d="M17 1h1m-3 1h3m-3 1h1m-6 1h4M8 5h1m2 0h12M8 6h3m12 0h1M8 7h16M8 8h16M8 9h7m2 0h7M8 10h7m2 0h7M8 11h5m6 0h5M8 12h5m6 0h5M8 13h7m2 0h7M8 14h7m2 0h7M8 15h16M8 16h16m-14 1h12"/><path stroke="#000" d="M19 2h3m-3 1h1m2 0h3M14 4h5m6 0h1m-1 1h1m-1 1h1m-1 1h1m-1 1h1m-1 1h1m-1 1h1m-1 1h1m-1 1h1m-1 1h1m-1 1h1m-1 1h1m-1 1h1m-1 1h1m-1 1h1m-1 1h1m-1 1h1m-1 1h1m-1 1h1m-1 1h1m-1 1h1m-1 1h1m-1 1h1m-1 1h1M7 28h1m16 0h1M8 29h1m14 0h1M9 30h2m10 0h2m-12 1h10"/><path stroke="red" d="M15 9h2m-2 1h2m-4 1h6m-6 1h6m-4 1h2m-2 1h2m-5 12h7"/><path stroke="navy" d="M6 16h2m16 0h1M6 17h2m15 0h2M6 18h1m1 0h1m1 0h1m1 0h1m1 0h1m1 0h1m1 0h1m1 0h1m1 0h1m1 0h1M6 19h2m1 0h1m1 0h1m1 0h1m1 0h1m1 0h1m1 0h1m1 0h1m1 0h2M6 20h1m1 0h1m1 0h1m1 0h1m1 0h1m1 0h1m1 0h1m1 0h1m1 0h1m1 0h1M6 21h2m1 0h1m1 0h1m1 0h1m1 0h1m1 0h1m1 0h1m1 0h1m1 0h2M6 22h1m1 0h1m1 0h1m1 0h1m1 0h1m1 0h1m1 0h1m1 0h1m1 0h1m1 0h1M6 23h2m1 0h1m1 0h1m1 0h1m1 0h1m1 0h1m1 0h1m1 0h1m1 0h2M6 24h1m1 0h1m1 0h1m1 0h1m1 0h1m1 0h1m1 0h1m1 0h1m1 0h1m1 0h1M6 25h2m1 0h1m1 0h1m1 0h1m1 0h1m1 0h1m1 0h1m1 0h1m1 0h2M6 26h1m1 0h1m1 0h1m9 0h1m1 0h1m1 0h1M6 27h2m1 0h1m1 0h1m1 0h1m1 0h1m1 0h1m1 0h1m1 0h1m1 0h2M8 28h1m1 0h1m1 0h1m1 0h1m1 0h1m1 0h1m1 0h1m1 0h2M9 29h1m1 0h1m1 0h1m1 0h1m1 0h1m1 0h1m1 0h2m-12 1h10"/><path stroke="#00f" d="M8 17h1m-2 1h1m1 0h1m1 0h1m1 0h1m1 0h1m1 0h1m1 0h1m1 0h1m1 0h1M8 19h1m1 0h1m1 0h1m1 0h1m1 0h1m1 0h1m1 0h1m1 0h1M7 20h1m1 0h1m1 0h1m1 0h1m1 0h1m1 0h1m1 0h1m1 0h1m1 0h1M8 21h1m1 0h1m1 0h1m1 0h1m1 0h1m1 0h1m1 0h1m1 0h1M7 22h1m1 0h1m1 0h1m1 0h1m1 0h1m1 0h1m1 0h1m1 0h1m1 0h1M8 23h1m1 0h1m1 0h1m1 0h1m1 0h1m1 0h1m1 0h1m1 0h1M7 24h1m1 0h1m1 0h1m1 0h1m1 0h1m1 0h1m1 0h1m1 0h1m1 0h1M8 25h1m1 0h1m1 0h1m1 0h1m1 0h1m1 0h1m1 0h1m1 0h1M7 26h1m1 0h1m1 0h1m7 0h1m1 0h1m1 0h1M8 27h1m1 0h1m1 0h1m1 0h1m1 0h1m1 0h1m1 0h1m1 0h1M9 28h1m1 0h1m1 0h1m1 0h1m1 0h1m1 0h1m1 0h1m-12 1h1m1 0h1m1 0h1m1 0h1m1 0h1m1 0h1"/></svg>