<svg xmlns="http://www.w3.org/2000/svg" width="32" height="32" shape-rendering="crispEdges" viewBox="0 -0.5 32 32"><path stroke="gray" d="M14 0h5m-6 1h1m4 0h1m-9 1h4m4 0h1M7 3h3m3 0h1m2 0h3m1 0h2M6 4h3m10 0h6M6 5h1m2 0h2m12 0h2M6 6h1m4 0h12m1 0h1M6 7h1m17 0h1M6 8h1m17 0h1M6 9h1m17 0h1M6 12h1m-1 1h1m17 0h1M6 14h1m17 0h1M6 15h1m17 0h1M6 16h1m17 0h1M6 17h1m17 0h1M6 18h1m17 0h1M6 19h1m17 0h1M6 20h1m17 0h1M6 21h1m17 0h1M6 22h1m17 0h1M6 23h1m17 0h1m-15 4h1m10 0h1"/><path stroke="#fff" d="M14 1h3m-3 1h1m-5 1h3m1 0h1M9 4h1M7 5h1M7 6h1M7 7h1M7 8h1M7 9h1m-1 4h1m-1 1h1m-1 1h1m-1 1h1m-1 1h1m-1 1h1m-1 1h1m-1 1h1m-1 1h1m-1 1h1m-1 1h1m-1 1h1"/><path stroke="silver" d="M17 1h1m-3 1h3m-3 1h1m-6 1h4M8 5h1m2 0h12M8 6h3m12 0h1M8 7h16M8 8h16M8 9h7m2 0h7M9 10h6m2 0h6m-13 1h3m6 0h3m-11 1h2m6 0h2m-9 1h3m2 0h3M8 14h1m4 0h2m2 0h2m4 0h1M8 15h2m4 0h4m4 0h2M8 16h3m4 0h2m4 0h3M8 17h4m8 0h4M8 18h5m6 0h5M8 19h5m6 0h5M8 20h4m8 0h4M8 21h3m4 0h2m4 0h3M8 22h2m4 0h4m4 0h2M8 23h1m4 0h6m4 0h1m-12 1h8m-9 1h10m-11 1h2m7 0h3m-11 1h10"/><path stroke="#000" d="M19 2h3m-3 1h1m2 0h3M14 4h5m6 0h1m-1 1h1m-1 1h1m-1 1h1m-1 1h1M15 9h2m8 0h1m-11 1h2m-4 1h6m-6 1h6m6 0h1m-11 1h2m8 0h1m-11 1h2m8 0h1m-1 1h1m-1 1h1m-1 1h1m-1 1h1m-1 1h1m-1 1h1m-1 1h1m-1 1h1m-1 1h1m-1 1h1m-1 1h1m-14 1h7M7 28h1m16 0h1M8 29h1m14 0h1M9 30h2m10 0h2m-12 1h10"/><path stroke="red" d="M5 10h4m14 0h4M6 11h4m12 0h4M7 12h4m10 0h4M8 13h4m8 0h4M9 14h4m6 0h4m-13 1h4m4 0h4m-11 1h4m2 0h4m-9 1h8m-7 1h6m-6 1h6m-7 1h8m-9 1h4m2 0h4m-11 1h4m4 0h4M9 23h4m6 0h4M8 24h4m8 0h4M7 25h4m10 0h4M6 26h4m12 0h4M5 27h4m14 0h4"/><path stroke="navy" d="M6 24h1m17 0h1M6 25h1m2 2h1m12 0h1M8 28h1m1 0h1m1 0h1m1 0h1m1 0h1m1 0h1m1 0h1m1 0h1M9 29h1m1 0h1m1 0h1m1 0h1m1 0h1m1 0h1m1 0h1m-11 1h10"/><path stroke="#00f" d="M9 28h1m1 0h1m1 0h1m1 0h1m1 0h1m1 0h1m1 0h1m1 0h1m-14 1h1m1 0h1m1 0h1m1 0h1m1 0h1m1 0h1m1 0h1"/></svg>