<svg xmlns="http://www.w3.org/2000/svg" viewBox="0 -0.5 16 16" shape-rendering="crispEdges">
<path stroke="#808080" d="M0 0h1M9 0h3M6 1h3M11 1h1M1 2h1M4 2h1M8 2h1M11 2h1M14 2h1M7 3h8M3 4h1M6 4h1M14 4h1M0 5h8M14 5h1M0 6h1M7 6h1M14 6h1M0 7h1M14 7h1M1 8h1M6 8h1M14 8h1M1 9h1M6 9h1M13 9h1M5 10h1M14 10h1M13 11h1M3 12h1M14 12h1M0 13h3M13 13h1M0 14h1" />
<path stroke="#000000" d="M0 0h1M12 0h1M12 1h3M2 2h1M5 2h1M12 2h1M15 2h1M15 3h1M7 4h1M15 4h1M8 5h1M15 5h1M8 6h1M15 6h1M1 7h7M15 7h1M7 8h1M15 8h1M7 9h1M15 9h1M2 10h1M6 10h1M15 10h1M3 11h3M15 11h1M5 12h1M15 12h1M5 13h1M15 13h1M4 14h1M6 14h1M14 14h1M0 15h4M7 15h7" />
<path stroke="#ffffff" d="M0 0h1M9 1h1M7 2h1M8 4h1M9 5h1M1 6h1M8 7h1M2 8h3M8 8h1M2 9h1M7 11h1M4 12h1M6 12h1M3 13h1M7 13h1M1 14h2" />
<path stroke="#c0c0c0" d="M0 0h1M10 1h1M9 2h2M13 2h1M9 4h5M11 5h3M2 6h5M12 6h2M9 7h1M11 7h3M5 8h1M9 8h5M3 9h3M9 9h1M11 9h1M3 10h2M8 10h1M10 10h1M12 10h1M9 11h1M11 11h1M8 12h1M10 12h1M12 12h1M4 13h1M3 14h1M8 14h1M10 14h1M12 14h1" />
<path stroke="#808000" d="M0 0h1M3 2h1M6 2h1M1 3h1M3 3h2M6 3h1M1 4h1M4 4h1" />
<path stroke="#ffff00" d="M0 0h1M2 3h1M5 3h1M2 4h1M5 4h1M8 9h1M10 9h1M12 9h1M14 9h1M7 10h1M9 10h1M11 10h1M13 10h1M6 11h1M8 11h1M10 11h1M12 11h1M14 11h1M7 12h1M9 12h1M11 12h1M13 12h1M6 13h1M8 13h1M12 13h1M14 13h1M7 14h1M9 14h1M11 14h1M13 14h1" />
<path stroke="#ff0000" d="M0 0h1M10 5h1M9 6h3M10 7h1M9 13h3" />
</svg>