<svg xmlns="http://www.w3.org/2000/svg" width="16" height="16" shape-rendering="crispEdges" viewBox="0 -0.5 16 16"><path stroke="gray" d="M9 0h3M6 1h3m2 0h1M1 2h1m2 0h1m3 0h1m2 0h1m2 0h1M7 3h8M3 4h1m2 0h1m7 0h1M0 5h8m6 0h1M0 6h1m6 0h1m6 0h1M0 7h1m13 0h1M1 8h1m4 0h1m7 0h1M1 9h1m4 0h1m6 0h1m-9 1h1m8 0h1m-2 1h1M3 12h1m10 0h1M0 13h3m10 0h1M0 14h1"/><path stroke="#000" d="M12 0h1m-1 1h3M2 2h1m2 0h1m6 0h1m2 0h1m-1 1h1M7 4h1m7 0h1M8 5h1m6 0h1M8 6h1m6 0h1M1 7h7m7 0h1M7 8h1m7 0h1M7 9h1m7 0h1M2 10h1m3 0h1m8 0h1M3 11h3m9 0h1M5 12h1m9 0h1M5 13h1m9 0h1M4 14h1m1 0h1m7 0h1M0 15h4m3 0h7"/><path stroke="#fff" d="M9 1h1M7 2h1m0 2h1m0 1h1M1 6h1m6 1h1M2 8h3m3 0h1M2 9h1m4 2h1m-4 1h1m1 0h1m-4 1h1m3 0h1m-7 1h2"/><path stroke="silver" d="M10 1h1M9 2h2m2 0h1M9 4h5m-3 1h3M2 6h5m5 0h2M9 7h1m1 0h3M5 8h1m3 0h5M3 9h3m3 0h1m1 0h1m-9 1h2m3 0h1m1 0h1m1 0h1m-4 1h1m1 0h1m-4 1h1m1 0h1m1 0h1m-9 1h1m-2 1h1m4 0h1m1 0h1m1 0h1"/><path stroke="olive" d="M3 2h1m2 0h1M1 3h1m1 0h2m1 0h1M1 4h1m2 0h1"/><path stroke="#ff0" d="M2 3h1m2 0h1M2 4h1m2 0h1m2 5h1m1 0h1m1 0h1m1 0h1m-8 1h1m1 0h1m1 0h1m1 0h1m-8 1h1m1 0h1m1 0h1m1 0h1m1 0h1m-8 1h1m1 0h1m1 0h1m1 0h1m-8 1h1m1 0h1m3 0h1m1 0h1m-8 1h1m1 0h1m1 0h1m1 0h1"/><path stroke="red" d="M10 5h1M9 6h3m-2 1h1m-2 6h3"/></svg>