<svg xmlns="http://www.w3.org/2000/svg" width="32" height="32" shape-rendering="crispEdges" viewBox="0 -0.5 32 32"><path stroke="gray" d="M17 0h1m4 0h1m-8 5h1m4 0h1m-7 1h1m4 0h1m4 0h3M13 7h1m9 0h1m2 0h1M12 8h1m12 0h2M12 9h1m12 0h1m-12 2h1m9 0h2m-12 1h1m2 0h5m2 0h2m-12 1h1m9 0h2m-12 1h1m2 0h5m2 0h2m-12 1h1m9 0h2m-11 1h1m7 0h2m-9 1h1m6 0h1m-6 2h1m2 0h2m-5 1h1m0 1h3m-3 1h1m1 0h1m-3 1h1m1 0h1M4 24h6m9 0h1m1 0h1M2 25h2m6 0h3m5 0h1m1 0h1M1 26h1m2 0h6m3 0h5m1 0h2M1 27h1m1 0h2m4 0h4m5 0h2M0 28h1m1 0h2m8 0h6M0 29h1m1 0h1m-3 1h1m1 0h1m-3 1h1m1 0h1"/><path stroke="#000" d="M18 0h1m4 0h1m-6 1h1m4 0h1m-6 1h1m4 0h1m-6 1h1m4 0h1m-6 1h1m4 0h1m-6 1h2m3 0h4m-9 1h1m4 0h1m3 0h1M17 7h1m4 0h1m4 0h1m-1 1h1m-2 1h1m-14 1h14m-1 1h1m-1 1h1m-1 1h1m-1 1h1m-1 1h1m-2 1h1m-2 1h1m-8 1h7m-1 1h1m-5 1h4m-1 1h1m-1 1h1m-1 1h1m-1 1h1m-2 1h1m-1 1h1M5 27h4m11 0h1M4 28h1m4 0h3m6 0h2M3 29h1m8 0h6M3 30h1m-1 1h1"/><path stroke="olive" d="M16 1h1m4 0h1m-6 1h1m4 0h1m-6 1h1m4 0h1m-6 1h1m4 0h1m-6 1h1m4 0h1m-6 1h1m4 0h1m-6 1h1m4 0h1"/><path stroke="#ff0" d="M17 1h1m4 0h1m-6 1h1m4 0h1m-6 1h1m4 0h1m-6 1h1m4 0h1m-6 1h1m4 0h1"/><path stroke="silver" d="M15 6h1m1 0h1m2 0h1m1 0h1m-8 1h1m2 0h3m3 0h1M13 8h1m-1 1h12m-9 2h1m5 0h2m-8 1h1m5 0h2m-8 1h1m5 0h2m-8 1h1m5 0h2m-8 1h1m5 0h2m-7 1h6m-5 1h5m-4 2h2M1 28h1m-1 1h1m-1 1h1m-1 1h1"/><path stroke="#fff" d="M14 7h1m10 0h1M14 8h11m-10 3h1m1 0h5m-7 1h1m-1 1h1m1 0h5m-7 1h1m-1 1h1m1 0h5m-6 1h1m0 1h1m2 5h1m-1 1h1m-1 1h1M4 25h6m9 0h1M2 26h2m6 0h3m5 0h1M2 27h1m10 0h5"/></svg>