<svg xmlns="http://www.w3.org/2000/svg" viewBox="0 -0.5 32 32" shape-rendering="crispEdges">
<path stroke="#808080" d="M0 0h1M17 0h1M22 0h1M15 5h1M20 5h1M14 6h1M19 6h1M24 6h3M13 7h1M23 7h1M26 7h1M12 8h1M25 8h2M12 9h1M25 9h1M14 11h1M24 11h2M14 12h1M17 12h5M24 12h2M14 13h1M24 13h2M14 14h1M17 14h5M24 14h2M14 15h1M24 15h2M15 16h1M23 16h2M16 17h1M23 17h1M18 19h1M21 19h2M18 20h1M19 21h3M19 22h1M21 22h1M19 23h1M21 23h1M4 24h6M19 24h1M21 24h1M2 25h2M10 25h3M18 25h1M20 25h1M1 26h1M4 26h6M13 26h5M19 26h2M1 27h1M3 27h2M9 27h4M18 27h2M0 28h1M2 28h2M12 28h6M0 29h1M2 29h1M0 30h1M2 30h1M0 31h1M2 31h1" />
<path stroke="#000000" d="M0 0h1M18 0h1M23 0h1M18 1h1M23 1h1M18 2h1M23 2h1M18 3h1M23 3h1M18 4h1M23 4h1M18 5h2M23 5h4M18 6h1M23 6h1M27 6h1M17 7h1M22 7h1M27 7h1M27 8h1M26 9h1M13 10h14M26 11h1M26 12h1M26 13h1M26 14h1M26 15h1M25 16h1M24 17h1M17 18h7M23 19h1M19 20h4M22 21h1M22 22h1M22 23h1M22 24h1M21 25h1M21 26h1M5 27h4M20 27h1M4 28h1M9 28h3M18 28h2M3 29h1M12 29h6M3 30h1M3 31h1" />
<path stroke="#808000" d="M0 0h1M16 1h1M21 1h1M16 2h1M21 2h1M16 3h1M21 3h1M16 4h1M21 4h1M16 5h1M21 5h1M16 6h1M21 6h1M16 7h1M21 7h1" />
<path stroke="#ffff00" d="M0 0h1M17 1h1M22 1h1M17 2h1M22 2h1M17 3h1M22 3h1M17 4h1M22 4h1M17 5h1M22 5h1" />
<path stroke="#c0c0c0" d="M0 0h1M15 6h1M17 6h1M20 6h1M22 6h1M15 7h1M18 7h3M24 7h1M13 8h1M13 9h12M16 11h1M22 11h2M16 12h1M22 12h2M16 13h1M22 13h2M16 14h1M22 14h2M16 15h1M22 15h2M17 16h6M18 17h5M19 19h2M1 28h1M1 29h1M1 30h1M1 31h1" />
<path stroke="#ffffff" d="M0 0h1M14 7h1M25 7h1M14 8h11M15 11h1M17 11h5M15 12h1M15 13h1M17 13h5M15 14h1M15 15h1M17 15h5M16 16h1M17 17h1M20 22h1M20 23h1M20 24h1M4 25h6M19 25h1M2 26h2M10 26h3M18 26h1M2 27h1M13 27h5" />
</svg>