<svg xmlns="http://www.w3.org/2000/svg" viewBox="0 -0.5 16 16" shape-rendering="crispEdges">
<path stroke="#808080" d="M0 0h1M6 0h3M3 1h3M8 1h1M2 2h2M5 2h1M8 2h1M11 2h1M2 3h1M4 3h8M2 4h1M11 4h1M2 5h1M11 5h1M2 6h1M11 6h1M2 7h1M11 7h1" />
<path stroke="#000000" d="M0 0h1M9 0h1M9 1h3M9 2h1M12 2h1M12 3h1M12 4h1M12 5h1M12 6h1M12 7h1M12 8h1M12 9h1M12 10h1M12 11h1M12 12h1M12 13h1M3 14h1M11 14h1M4 15h7" />
<path stroke="#ffffff" d="M0 0h1M6 1h1M4 2h1M3 3h1M3 4h1M3 5h1M3 6h1M3 7h1" />
<path stroke="#c0c0c0" d="M0 0h1M7 1h1M6 2h2M10 2h1M4 4h7M4 5h3M8 5h3M4 6h2M9 6h2M4 7h3M8 7h3M4 8h7" />
<path stroke="#ff0000" d="M0 0h1M7 5h1M6 6h3M7 7h1M6 13h3" />
<path stroke="#000080" d="M0 0h1M2 8h2M11 8h1M2 9h10M2 10h1M4 10h1M6 10h1M8 10h1M10 10h2M2 11h2M5 11h1M7 11h1M9 11h1M11 11h1M2 12h1M4 12h1M6 12h1M8 12h1M10 12h2M2 13h2M5 13h1M9 13h1M11 13h1M4 14h7" />
<path stroke="#0000ff" d="M0 0h1M3 10h1M5 10h1M7 10h1M9 10h1M4 11h1M6 11h1M8 11h1M10 11h1M3 12h1M5 12h1M7 12h1M9 12h1M4 13h1M10 13h1" />
</svg>