<svg xmlns="http://www.w3.org/2000/svg" width="32" height="32" shape-rendering="crispEdges" viewBox="0 -0.5 32 32"><path stroke="gray" d="M14 0h5m-6 1h1m4 0h1m-9 1h4m4 0h1M7 3h3m3 0h1m2 0h3m1 0h2M6 4h3m10 0h6M6 5h1m2 0h2m12 0h2M6 6h1m4 0h12m1 0h1M6 7h1m17 0h1M6 8h1m17 0h1M6 9h1m17 0h1M6 10h1m17 0h1M6 11h1m17 0h1M6 12h1m17 0h1M6 13h1m17 0h1M6 14h1m17 0h1M6 15h1m17 0h1M6 16h1m17 0h1M6 17h1m17 0h1M6 18h1m17 0h1M6 19h1m17 0h1M6 20h1m17 0h1M6 21h1m17 0h1M6 22h1m17 0h1M6 23h1m17 0h1M7 24h1m16 0h1M8 25h1m14 0h1M9 26h1m12 0h1m-13 1h1m10 0h1"/><path stroke="#fff" d="M14 1h3m-3 1h1m-5 1h3m1 0h1M9 4h1M7 5h1M7 6h1M7 7h1M7 8h1M7 9h1m-1 1h1m-1 1h1m-1 1h1m-1 1h1m-1 1h1m-1 1h1m-1 1h1m-1 1h1m-1 1h1m-1 1h1m-1 1h1m-1 1h1m-1 1h1m-1 1h1"/><path stroke="silver" d="M17 1h1m-3 1h3m-3 1h1m-6 1h4M8 5h1m2 0h12M8 6h3m12 0h1M8 7h16M8 8h16M8 9h7m2 0h7M8 10h7m2 0h7M8 11h5m6 0h5M8 12h5m6 0h5M8 13h7m2 0h7M8 14h7m2 0h7M8 15h16M8 16h16M8 17h16M8 18h16M8 19h16M8 20h16M8 21h16M8 22h16M8 23h16M8 24h16M9 25h14m-13 1h2m7 0h3m-11 1h10"/><path stroke="#000" d="M19 2h3m-3 1h1m2 0h3M14 4h5m6 0h1m-1 1h1m-1 1h1m-1 1h1m-1 1h1M15 9h2m8 0h1m-11 1h2m8 0h1m-13 1h6m6 0h1m-13 1h6m6 0h1m-11 1h2m8 0h1m-11 1h2m8 0h1m-1 1h1m-1 1h1m-1 1h1m-1 1h1m-1 1h1m-1 1h1m-1 1h1m-1 1h1m-1 1h1m-1 1h1m-1 1h1m-14 1h7m6 0h1m-1 1h1M7 28h1m16 0h1M8 29h1m14 0h1M9 30h2m10 0h2m-12 1h10"/><path stroke="navy" d="M6 24h1m-1 1h2m16 0h1M6 26h1m1 0h1m14 0h2M6 27h2m1 0h1m12 0h3M8 28h1m1 0h1m1 0h1m1 0h1m1 0h1m1 0h1m1 0h1m1 0h2M9 29h1m1 0h1m1 0h1m1 0h1m1 0h1m1 0h1m1 0h2m-12 1h10"/><path stroke="#00f" d="M7 26h1m0 1h1m0 1h1m1 0h1m1 0h1m1 0h1m1 0h1m1 0h1m1 0h1m-12 1h1m1 0h1m1 0h1m1 0h1m1 0h1m1 0h1"/></svg>