<svg xmlns="http://www.w3.org/2000/svg" viewBox="0 -0.5 32 32" shape-rendering="crispEdges">
<path stroke="#000000" d="M0 0h1M13 1h6M12 2h1M18 2h2M11 3h1M20 3h1M12 4h2M15 4h4M20 4h1M11 5h1M18 5h2M12 6h1M20 6h1M10 7h2M18 7h2M21 7h1M8 8h2M12 8h1M20 8h1M22 8h2M6 9h2M11 9h1M18 9h2M24 9h2M5 10h1M12 10h1M20 10h1M26 10h1M5 11h1M13 11h6M24 11h3M5 12h1M22 12h2M26 12h1M5 13h1M21 13h1M26 13h1M5 14h1M20 14h1M26 14h1M5 15h1M20 15h1M26 15h1M6 16h2M20 16h1M24 16h2M8 17h2M20 17h1M22 17h2M10 18h12M12 19h1M20 19h1M10 20h2M18 20h2M21 20h1M8 21h2M12 21h1M20 21h1M22 21h2M6 22h2M11 22h1M18 22h2M24 22h2M5 23h1M12 23h1M20 23h1M26 23h1M5 24h1M13 24h6M24 24h3M5 25h1M22 25h2M26 25h1M5 26h1M21 26h1M26 26h1M5 27h1M20 27h1M26 27h1M5 28h1M20 28h1M26 28h1M6 29h2M20 29h1M24 29h2M8 30h2M20 30h1M22 30h2M10 31h12" />
<path stroke="#808080" d="M0 0h1M13 2h5M11 4h1M19 4h1M12 5h3M20 5h1M11 6h1M15 6h5M12 7h3M20 7h1M11 8h1M15 8h5M12 9h3M20 9h1M11 10h1M13 10h7M12 11h1M19 11h1M24 12h2M22 13h4M21 14h5M21 15h5M21 16h3M21 17h1M11 19h1M15 19h5M12 20h3M20 20h1M11 21h1M15 21h5M12 22h3M20 22h1M11 23h1M15 23h5M12 24h1M19 24h1M24 25h2M22 26h4M21 27h5M21 28h5M21 29h3M21 30h1" />
<path stroke="#c0c0c0" d="M0 0h1M12 3h8M14 4h1M15 5h3M13 6h2M15 7h3M10 8h1M13 8h2M21 8h1M8 9h3M15 9h3M21 9h3M6 10h5M21 10h5M8 11h4M20 11h4M6 12h2M10 12h12M6 13h4M6 14h5M12 14h8M6 15h5M12 15h8M8 16h3M12 16h8M10 17h1M12 17h8M13 19h2M15 20h3M10 21h1M13 21h2M21 21h1M8 22h3M15 22h3M21 22h3M6 23h5M13 23h2M21 23h5M8 24h4M20 24h4M6 25h2M10 25h12M6 26h4M6 27h5M12 27h8M6 28h5M12 28h8M8 29h3M12 29h8M10 30h1M12 30h8" />
<path stroke="#ffffff" d="M0 0h1M6 11h2M8 12h2M10 13h11M11 14h1M11 15h1M11 16h1M11 17h1M6 24h2M8 25h2M10 26h11M11 27h1M11 28h1M11 29h1M11 30h1" />
</svg>