<svg xmlns="http://www.w3.org/2000/svg" width="32" height="32" shape-rendering="crispEdges" viewBox="0 -0.5 32 32"><path stroke="gray" d="M7 0h21M5 1h2m22 0h1M4 2h1m23 0h1m1 0h1M3 3h1m25 0h1m1 0h1M3 4h1m27 0h1M2 5h1m27 0h1M2 6h1m27 0h1M2 7h1m27 0h1M2 8h1m6 0h15m6 0h1M2 9h1m27 0h1M2 10h1m27 0h1M2 11h1m6 0h15m6 0h1M2 12h1m27 0h1M2 13h1m27 0h1M2 14h1m6 0h15m6 0h1M2 15h1m27 0h1M2 16h1m27 0h1M2 17h1m6 0h15m6 0h1M2 18h1m27 0h1M2 19h1m27 0h1M2 20h1m27 0h1M3 21h1m26 0h1M3 22h1m26 0h1M4 23h2m25 0h1M7 24h19m3 0h1m1 0h1m-4 1h1m1 0h1M8 26h17m2 0h1m1 0h1m-4 1h1m1 0h1m-2 1h1m-3 1h2m-2 1h1"/><path stroke="#fff" d="M7 1h3m1 0h3m1 0h3m1 0h3m1 0h3M5 2h3m1 0h3m1 0h3m1 0h3m1 0h3m1 0h2M4 3h2m1 0h3m1 0h3m1 0h3m1 0h3m1 0h3m1 0h1M5 4h3m1 0h3m1 0h3m1 0h3m1 0h3m1 0h3M3 5h3m1 0h3m1 0h3m1 0h3m1 0h3m1 0h3m1 0h2M3 6h1m1 0h3m1 0h3m1 0h3m1 0h3m1 0h3m1 0h3M3 7h3m1 0h3m1 0h3m1 0h3m1 0h3m1 0h3m1 0h2M3 8h1m1 0h3m17 0h3M3 9h3m1 0h3m1 0h3m1 0h3m1 0h3m1 0h3m1 0h2M3 10h1m1 0h3m1 0h3m1 0h3m1 0h3m1 0h3m1 0h3M3 11h3m1 0h2m15 0h2m1 0h2M3 12h1m1 0h3m1 0h3m1 0h3m1 0h3m1 0h3m1 0h3M3 13h3m1 0h3m1 0h3m1 0h3m1 0h3m1 0h3m1 0h2M3 14h1m1 0h3m17 0h3M3 15h3m1 0h3m1 0h3m1 0h3m1 0h3m1 0h3m1 0h2M3 16h1m1 0h3m1 0h3m1 0h3m1 0h3m1 0h3m1 0h3M3 17h3m1 0h2m15 0h2m1 0h2M3 18h1m1 0h3m1 0h3m1 0h3m1 0h3m1 0h3m1 0h3M3 19h3m1 0h3m1 0h3m1 0h3m1 0h3m1 0h3m1 0h2M3 20h1m1 0h3m1 0h3m1 0h3m1 0h3m1 0h3m1 0h3M4 21h2m1 0h3m1 0h3m1 0h3m1 0h3m1 0h3m1 0h2M5 22h3m1 0h3m1 0h3m1 0h3m1 0h3m1 0h3M7 23h3m1 0h3m1 0h3m1 0h3m1 0h3m1 0h2m-3 1h2"/><path stroke="#ff0" d="M10 1h1m3 0h1m3 0h1m3 0h1M8 2h1m3 0h1m3 0h1m3 0h1m3 0h1M6 3h1m3 0h1m3 0h1m3 0h1m3 0h1m3 0h1M4 4h1m3 0h1m3 0h1m3 0h1m3 0h1m3 0h1m3 0h1M6 5h1m3 0h1m3 0h1m3 0h1m3 0h1m3 0h1M4 6h1m3 0h1m3 0h1m3 0h1m3 0h1m3 0h1m3 0h1M6 7h1m3 0h1m3 0h1m3 0h1m3 0h1m3 0h1M4 8h1m3 0h1m15 0h1m3 0h1M6 9h1m3 0h1m3 0h1m3 0h1m3 0h1m3 0h1M4 10h1m3 0h1m3 0h1m3 0h1m3 0h1m3 0h1m3 0h1M6 11h1m19 0h1M4 12h1m3 0h1m3 0h1m3 0h1m3 0h1m3 0h1m3 0h1M6 13h1m3 0h1m3 0h1m3 0h1m3 0h1m3 0h1M4 14h1m3 0h1m15 0h1m3 0h1M6 15h1m3 0h1m3 0h1m3 0h1m3 0h1m3 0h1M4 16h1m3 0h1m3 0h1m3 0h1m3 0h1m3 0h1m3 0h1M6 17h1m19 0h1M4 18h1m3 0h1m3 0h1m3 0h1m3 0h1m3 0h1m3 0h1M6 19h1m3 0h1m3 0h1m3 0h1m3 0h1m3 0h1M4 20h1m3 0h1m3 0h1m3 0h1m3 0h1m3 0h1m3 0h1M6 21h1m3 0h1m3 0h1m3 0h1m3 0h1m3 0h1M8 22h1m3 0h1m3 0h1m3 0h1m3 0h1m3 0h1m-19 1h1m3 0h1m3 0h1m3 0h1m3 0h1m-1 2h1"/><path stroke="silver" d="M26 1h1m0 1h1m0 1h1m0 1h1m-1 1h1m-1 1h1m-1 1h1m-1 1h1m-1 1h1m-1 1h1m-1 1h1m-1 1h1m-1 1h1m-1 1h1m-1 1h1m-1 1h1m-1 1h1m-1 1h1m-1 1h1m-1 1h1m-1 1h1M4 22h1m24 0h1M6 23h1m22 0h1m-2 1h1m-2 1h1m-2 1h1"/><path stroke="#000" d="M27 1h2m0 1h1m0 1h1m-1 1h1m0 1h1m-1 1h1m-1 1h1m-1 1h1m-1 1h1m-1 1h1m-1 1h1m-1 1h1m-1 1h1m-1 1h1m-1 1h1m-1 1h1m-1 1h1m-1 1h1m-1 1h1m-1 1h1m-1 1h1m-1 1h1m-2 1h1M5 24h2m23 0h1M7 25h19m3 0h1m-5 1h1m2 0h1m-4 1h1m1 0h1m-3 1h2m-3 1h1"/></svg>