<svg xmlns="http://www.w3.org/2000/svg" width="16" height="16" shape-rendering="crispEdges" viewBox="0 -0.5 16 16"><path stroke="gray" d="M5 0h6M3 1h2m6 0h2M2 2h1M1 3h1M0 4h1M0 5h1M0 6h1M0 7h1M0 8h1m0 1h1m0 1h1"/><path stroke="silver" d="M5 1h1m4 0h1M1 4h1m12 0h1M1 8h1m12 0h1m-6 4h1"/><path stroke="#fff" d="M6 1h4M3 2h10M2 3h12M2 4h2m7 0h3M1 5h14M1 6h3m9 0h2M1 7h14M2 8h2m8 0h2M2 9h12M3 10h10m-8 1h6m-4 1h2m-1 1h1"/><path stroke="#000" d="M13 2h1m0 1h1m0 1h1m-1 1h1m-1 1h1m-1 1h1m-1 1h1m-2 1h1m-2 1h1M3 11h2m6 0h2m-8 1h2m3 0h1m-4 1h1m1 0h1m-2 1h2m-1 1h1"/><path stroke="#00f" d="M4 4h7M4 6h9M4 8h8"/></svg>