<svg xmlns="http://www.w3.org/2000/svg" viewBox="0 -0.5 16 16" shape-rendering="crispEdges">
<path stroke="#808080" d="M0 0h1M5 0h6M3 1h2M11 1h2M2 2h1M1 3h1M0 4h1M0 5h1M0 6h1M0 7h1M0 8h1M1 9h1M2 10h1" />
<path stroke="#c0c0c0" d="M0 0h1M5 1h1M10 1h1M1 4h1M14 4h1M1 8h1M14 8h1M9 12h1" />
<path stroke="#ffffff" d="M0 0h1M6 1h4M3 2h10M2 3h12M2 4h2M11 4h3M1 5h14M1 6h3M13 6h2M1 7h14M2 8h2M12 8h2M2 9h12M3 10h10M5 11h6M7 12h2M8 13h1" />
<path stroke="#000000" d="M0 0h1M13 2h1M14 3h1M15 4h1M15 5h1M15 6h1M15 7h1M15 8h1M14 9h1M13 10h1M3 11h2M11 11h2M5 12h2M10 12h1M7 13h1M9 13h1M8 14h2M9 15h1" />
<path stroke="#0000ff" d="M0 0h1M4 4h7M4 6h9M4 8h8" />
</svg>