<svg xmlns="http://www.w3.org/2000/svg" viewBox="0 -0.5 16 16" shape-rendering="crispEdges">
<path stroke="#808080" d="M0 0h1M2 0h10M1 1h1M13 1h1M0 2h1M0 3h1M4 3h6M0 4h1M0 5h1M4 5h6M0 6h1M0 7h1M4 7h6M0 8h1M1 9h1M1 10h1M13 11h1M3 12h6M12 12h1M11 13h1M9 14h2" />
<path stroke="#ffffff" d="M0 0h1M2 1h1M4 1h1M6 1h1M8 1h1M10 1h1M1 2h11M1 3h1M3 3h1M11 3h1M1 4h11M2 5h1M10 5h1M1 6h11M1 7h1M3 7h1M11 7h1M1 8h11M2 9h1M4 9h1M6 9h1M8 9h1M10 9h1M10 10h2" />
<path stroke="#ffff00" d="M0 0h1M3 1h1M5 1h1M7 1h1M9 1h1M2 3h1M10 3h1M1 5h1M3 5h1M11 5h1M2 7h1M10 7h1M3 9h1M5 9h1M7 9h1M9 9h1M11 9h1M10 11h1" />
<path stroke="#c0c0c0" d="M0 0h1M11 1h1M12 2h1M12 3h1M12 4h1M12 5h1M12 6h1M12 7h1M12 8h1M12 9h1M2 10h8M12 10h1M11 11h1M10 12h1" />
<path stroke="#000000" d="M0 0h1M12 1h1M13 2h1M13 3h1M13 4h1M13 5h1M13 6h1M13 7h1M13 8h1M13 9h1M13 10h1M2 11h8M12 11h1M9 12h1M11 12h1M8 13h3" />
</svg>