<svg xmlns="http://www.w3.org/2000/svg" width="16" height="16" shape-rendering="crispEdges" viewBox="0 -0.5 16 16"><path stroke="gray" d="M2 0h10M1 1h1m11 0h1M0 2h1M0 3h1m3 0h6M0 4h1M0 5h1m3 0h6M0 6h1M0 7h1m3 0h6M0 8h1m0 1h1m-1 1h1m11 1h1M3 12h6m3 0h1m-2 1h1m-3 1h2"/><path stroke="#fff" d="M2 1h1m1 0h1m1 0h1m1 0h1m1 0h1M1 2h11M1 3h1m1 0h1m7 0h1M1 4h11M2 5h1m7 0h1M1 6h11M1 7h1m1 0h1m7 0h1M1 8h11M2 9h1m1 0h1m1 0h1m1 0h1m1 0h1m-1 1h2"/><path stroke="#ff0" d="M3 1h1m1 0h1m1 0h1m1 0h1M2 3h1m7 0h1M1 5h1m1 0h1m7 0h1M2 7h1m7 0h1M3 9h1m1 0h1m1 0h1m1 0h1m1 0h1m-2 2h1"/><path stroke="silver" d="M11 1h1m0 1h1m-1 1h1m-1 1h1m-1 1h1m-1 1h1m-1 1h1m-1 1h1m-1 1h1M2 10h8m2 0h1m-2 1h1m-2 1h1"/><path stroke="#000" d="M12 1h1m0 1h1m-1 1h1m-1 1h1m-1 1h1m-1 1h1m-1 1h1m-1 1h1m-1 1h1m-1 1h1M2 11h8m2 0h1m-4 1h1m1 0h1m-4 1h3"/></svg>