<svg xmlns="http://www.w3.org/2000/svg" width="32" height="32" shape-rendering="crispEdges" viewBox="0 -0.5 32 32"><path stroke="gray" d="M1 0h12m1 0h12M1 1h1m12 0h1m11 0h1M1 2h1m12 0h1m11 0h1M1 3h1m12 0h1m11 0h1m1 0h1M1 4h1m24 0h1m1 0h1M1 5h1m24 0h1m1 0h1M1 6h1m12 0h1m11 0h1m1 0h1M1 7h1m12 0h1m11 0h1m1 0h1M1 8h1m12 0h1m11 0h1m1 0h1M1 9h1m12 0h1m11 0h1m1 0h1M1 10h1m24 0h1m1 0h1M1 11h1m24 0h1m1 0h1M1 12h1m12 0h1m11 0h1m1 0h1M1 13h1m12 0h1m11 0h1m1 0h1M1 14h1m24 0h1m1 0h1M1 15h1m24 0h1m1 0h1M1 16h1m24 0h1m1 0h1M1 17h1m24 0h1m1 0h1M1 18h1m24 0h1m1 0h1M1 19h1m24 0h1m1 0h1M1 20h4m18 0h4m1 0h1M2 21h1m25 0h1M2 22h3m18 0h6"/><path stroke="#000" d="M26 0h1M13 1h1m13 0h1M0 2h1m12 0h1m14 0h2M0 3h1m12 0h1m15 0h2M0 4h1m11 0h1m2 0h1m13 0h2M0 5h1m11 0h4m13 0h2M0 6h1m12 0h1m15 0h2M0 7h1m12 0h1m15 0h2M0 8h1m12 0h1m15 0h2M0 9h1m12 0h1m15 0h2M0 10h1m11 0h1m2 0h1m13 0h2M0 11h1m11 0h4m13 0h2M0 12h1m12 0h1m15 0h2M0 13h1m12 0h1m15 0h2M0 14h1m3 0h6m8 0h6m5 0h2M0 15h1m17 0h1m10 0h2M0 16h1m3 0h4m4 0h1m6 0h5m5 0h2M0 17h1m9 0h2m8 0h1m8 0h2M0 18h1m8 0h1m3 0h1m7 0h1m7 0h2M0 19h1m7 0h1m12 0h1m7 0h2M0 20h1m7 0h1m13 0h1m6 0h2M0 21h2m5 0h1m14 0h1m6 0h2M0 22h2m5 0h1m10 0h1m3 0h1m6 0h2M0 23h5m2 0h1m1 0h1m12 0h9M1 24h4m2 0h1m14 0h8M8 25h1m13 0h1M8 26h1m12 0h1M9 27h1m4 0h1m6 0h1m-12 1h1m9 0h1m-2 1h1m-3 1h2m-8 1h6"/><path stroke="#fff" d="M2 1h10m3 0h11M2 2h10m3 0h11M2 3h4m2 0h4m3 0h4m3 0h4M2 4h3m3 0h4m1 0h1m2 0h2m5 0h3M2 5h3m3 0h4m4 0h2m2 0h1m2 0h3M2 6h4m2 0h4m3 0h6m2 0h3M2 7h4m2 0h4m3 0h5m3 0h3M2 8h4m2 0h4m3 0h4m3 0h4M2 9h4m2 0h4m3 0h3m3 0h5M2 10h3m4 0h3m1 0h1m2 0h2m5 0h3M2 11h3m4 0h3m4 0h2m5 0h3M2 12h10m3 0h11M2 13h10m3 0h11M2 14h2m6 0h1m6 0h1m6 0h2M2 15h7m10 0h7M2 16h2m20 0h2M2 17h5m5 0h4m5 0h5M2 18h4m4 0h3m2 0h3m4 0h4M2 19h4m3 0h10m3 0h4M9 20h4m1 0h5M8 21h5m1 0h1m1 0h4M8 22h1m1 0h3m2 0h3m1 0h1M8 23h1m1 0h3m4 0h1m1 0h1M8 24h4m1 0h7M9 25h2m1 0h7M9 26h10m-9 1h3m2 0h3m-6 1h4"/><path stroke="silver" d="M12 1h1m-1 1h1m14 0h1M12 3h1m14 0h1M14 4h1m12 0h1m-1 1h1M12 6h1m14 0h1M12 7h1m14 0h1M12 8h1m14 0h1M12 9h1m14 0h1m-14 1h1m12 0h1m-1 1h1m-16 1h1m14 0h1m-16 1h1m14 0h1m-1 1h1m-1 1h1m-1 1h1m-1 1h1m-14 1h1m12 0h1m-1 1h1m-1 1h1M3 21h2m18 0h5M9 22h1m6 1h1m1 0h1m-6 4h1"/><path stroke="#00f" d="M6 3h2m11 0h3M5 4h3m10 0h5M5 5h3m10 0h2m1 0h2M6 6h2m13 0h2M6 7h2m12 0h3M6 8h2m11 0h3M6 9h2m10 0h3M5 10h4m9 0h5M5 11h4m9 0h5"/><path stroke="maroon" d="M11 14h6m-8 1h2m6 0h1M8 16h1m4 0h3m-9 1h1m8 0h2M6 18h1m11 0h1M6 19h1m12 0h1M5 20h1m13 0h1M5 21h1m14 0h1M5 22h1m14 0h1M5 23h1m14 0h1M5 24h1m14 0h1M5 25h1m13 0h1M6 26h1m12 0h1M6 27h1m11 0h1M7 28h1m3 0h1m4 0h2M8 29h1m3 0h4m-7 1h2"/><path stroke="red" d="M11 15h6m-8 1h3m4 0h3M8 17h2m8 0h2M7 18h2m10 0h2M7 19h1m12 0h1M6 20h2m12 0h2M6 21h1m14 0h1M6 22h1m14 0h1M6 23h1m14 0h1M6 24h1m14 0h1M6 25h2m12 0h2M7 26h1m12 0h1M7 27h2m10 0h2M8 28h2m8 0h2M9 29h3m4 0h3m-8 1h6"/><path stroke="navy" d="M13 20h1m-1 1h1m-1 1h1m-1 1h3"/><path stroke="olive" d="M15 21h1m-2 1h1m-3 2h1m-2 1h1"/></svg>