<svg xmlns="http://www.w3.org/2000/svg" width="16" height="16" shape-rendering="crispEdges" viewBox="0 -0.5 16 16"><path stroke="gray" d="M1 0h5m1 0h7M0 1h1m12 0h1M0 2h1m12 0h1M0 3h1m12 0h1M0 4h1m12 0h1M0 5h1m12 0h1M0 6h1m12 0h1M0 7h1m12 0h1M0 8h1m12 0h1M0 9h1m4 0h1m2 0h1m4 0h1M0 10h1m5 0h1m6 0h1M0 11h3m3 0h2m3 0h3m-9 2h1m2 0h1"/><path stroke="#fff" d="M1 1h5m2 0h4M1 2h2m1 0h2m2 0h1M1 3h1m2 0h2m2 0h1m1 0h1M1 4h2m1 0h2m2 0h2M1 5h2m1 0h2m2 0h1m1 0h2M1 6h1m3 0h1m2 0h1M1 7h4m4 0h3M1 8h1M1 9h2m3 0h2m3 0h1M1 10h2m2 0h1m1 0h2m2 0h1m-7 1h1m2 0h1m-4 1h4m-3 1h2"/><path stroke="#000" d="M6 1h1m7 0h1M6 2h1m7 0h1M6 3h1m7 0h1M6 4h1m7 0h1M6 5h1m7 0h1M6 6h1m7 0h1m-1 1h1M2 8h2m6 0h2m2 0h1m-1 1h1m-1 1h1m-1 1h1M0 12h3m8 0h4"/><path stroke="silver" d="M7 1h1m4 0h1M7 2h1m1 0h1m1 0h2M7 3h1m4 0h1M7 4h1m3 0h2M7 5h1m4 0h1M7 6h1m4 0h1m-1 1h1m-1 1h1m-1 1h1m-1 1h1"/><path stroke="#00f" d="M3 2h1m6 0h1M2 3h2m5 0h1m1 0h1M3 4h1m6 0h1M3 5h1m5 0h1M2 6h3m4 0h3"/><path stroke="maroon" d="M5 7h4M4 8h1m4 0h1M3 9h1m6 0h1m-8 1h1m6 0h1m-8 1h1m6 0h1m-8 1h1m6 0h1m-8 1h1m6 0h1m-7 1h1m4 0h1m-5 1h4"/><path stroke="red" d="M5 8h4M4 9h1m4 0h1m-6 1h1m4 0h1m-6 1h1m4 0h1m-6 1h1m4 0h1m-6 1h1m4 0h1m-5 1h4"/></svg>