<svg xmlns="http://www.w3.org/2000/svg" viewBox="0 -0.5 16 16" shape-rendering="crispEdges">
<path stroke="#808080" d="M0 0h6M7 0h7M0 1h1M13 1h1M0 2h1M13 2h1M0 3h1M13 3h1M0 4h1M13 4h1M0 5h1M13 5h1M0 6h1M13 6h1M0 7h1M13 7h1M0 8h1M13 8h1M0 9h1M5 9h1M8 9h1M13 9h1M0 10h1M6 10h1M13 10h1M0 11h3M6 11h2M11 11h3M5 13h1M8 13h1" />
<path stroke="#ffffff" d="M0 0h1M1 1h5M8 1h4M1 2h2M4 2h2M8 2h1M1 3h1M4 3h2M8 3h1M10 3h1M1 4h2M4 4h2M8 4h2M1 5h2M4 5h2M8 5h1M10 5h2M1 6h1M5 6h1M8 6h1M1 7h4M9 7h3M1 8h1M1 9h2M6 9h2M11 9h1M1 10h2M5 10h1M7 10h2M11 10h1M5 11h1M8 11h1M5 12h4M6 13h2" />
<path stroke="#000000" d="M0 0h1M6 1h1M14 1h1M6 2h1M14 2h1M6 3h1M14 3h1M6 4h1M14 4h1M6 5h1M14 5h1M6 6h1M14 6h1M14 7h1M2 8h2M10 8h2M14 8h1M14 9h1M14 10h1M14 11h1M0 12h3M11 12h4" />
<path stroke="#c0c0c0" d="M0 0h1M7 1h1M12 1h1M7 2h1M9 2h1M11 2h2M7 3h1M12 3h1M7 4h1M11 4h2M7 5h1M12 5h1M7 6h1M12 6h1M12 7h1M12 8h1M12 9h1M12 10h1" />
<path stroke="#0000ff" d="M0 0h1M3 2h1M10 2h1M2 3h2M9 3h1M11 3h1M3 4h1M10 4h1M3 5h1M9 5h1M2 6h3M9 6h3" />
<path stroke="#800000" d="M0 0h1M5 7h4M4 8h1M9 8h1M3 9h1M10 9h1M3 10h1M10 10h1M3 11h1M10 11h1M3 12h1M10 12h1M3 13h1M10 13h1M4 14h1M9 14h1M5 15h4" />
<path stroke="#ff0000" d="M0 0h1M5 8h4M4 9h1M9 9h1M4 10h1M9 10h1M4 11h1M9 11h1M4 12h1M9 12h1M4 13h1M9 13h1M5 14h4" />
</svg>