<svg xmlns="http://www.w3.org/2000/svg" viewBox="0 -0.5 32 32" shape-rendering="crispEdges">
<path stroke="#000000" d="M0 0h1M0 0h32M4 1h6M13 1h6M22 1h6M4 2h7M13 2h7M22 2h7M4 3h8M13 3h8M22 3h8M0 5h32M2 6h19M22 6h9M4 7h3M9 7h3M13 7h3M18 7h3M22 7h3M27 7h3M0 9h32M2 10h29M4 11h3M9 11h3M13 11h7M22 11h8M4 12h3M9 12h3M14 12h7M22 12h7M0 14h32M2 15h29M4 16h3M9 16h3M18 16h3M22 16h3M13 17h3M0 18h32M2 19h29M4 20h7M14 20h6M22 20h3M4 21h6M15 21h4M22 21h3M0 23h32M2 24h29M0 26h32M1 27h3M5 27h1M8 27h2M12 27h12M25 27h7M2 28h1M4 28h2M8 28h2M11 28h13M25 28h7M2 29h2M5 29h1M7 29h3M12 29h1M14 29h1M16 29h1M18 29h1M20 29h4M25 29h1M27 29h1M29 29h3M1 30h2M4 30h2M7 30h3M12 30h1M14 30h1M16 30h1M18 30h1M20 30h1M22 30h2M25 30h1M27 30h1M29 30h1M31 30h1M0 31h32" />
<path stroke="#ffffff" d="M0 0h1M0 1h4M10 1h3M19 1h3M28 1h4M0 2h4M11 2h2M20 2h2M29 2h3M0 3h4M12 3h1M21 3h1M30 3h2M0 4h32M0 6h2M21 6h1M31 6h1M0 7h4M7 7h2M12 7h1M16 7h2M21 7h1M25 7h2M30 7h2M0 8h32M0 10h2M31 10h1M0 11h4M7 11h2M12 11h1M20 11h2M30 11h2M0 12h4M7 12h2M12 12h2M21 12h1M29 12h3M0 13h32M0 15h2M31 15h1M0 16h4M7 16h2M12 16h6M21 16h1M25 16h7M0 17h13M16 17h16M0 19h2M31 19h1M0 20h4M11 20h3M20 20h2M25 20h7M0 21h4M10 21h5M19 21h3M25 21h7M0 22h32M0 24h2M31 24h1M0 25h32M0 27h1M4 27h1M6 27h2M10 27h2M24 27h1M0 28h2M3 28h1M6 28h2M10 28h1M24 28h1M0 29h2M4 29h1M6 29h1M10 29h2M13 29h1M15 29h1M17 29h1M19 29h1M24 29h1M26 29h1M28 29h1M0 30h1M3 30h1M6 30h1M10 30h2M13 30h1M15 30h1M17 30h1M19 30h1M21 30h1M24 30h1M26 30h1M28 30h1M30 30h1" />
</svg>