<svg xmlns="http://www.w3.org/2000/svg" width="32" height="32" shape-rendering="crispEdges" viewBox="0 -0.5 32 32"><path stroke="#000" d="M0 0h32M0 1h1m30 0h1M0 2h1m30 0h1M0 3h1m8 0h14m8 0h1M0 4h1m7 0h16m7 0h1M0 5h1m8 0h3m1 0h4m3 0h3m8 0h1M0 6h1m7 0h3m2 0h3m1 0h3m1 0h3m7 0h1M0 7h1m8 0h3m1 0h3m1 0h6m8 0h1M0 8h1m7 0h4m1 0h3m4 0h4m7 0h1M0 9h1m8 0h3m1 0h3m1 0h3m1 0h2m8 0h1M0 10h1m7 0h4m1 0h3m1 0h3m1 0h3m7 0h1M0 11h1m8 0h2m3 0h3m3 0h3m8 0h1M0 12h1m7 0h16m7 0h1M0 13h1m8 0h14m8 0h1M0 14h1m7 0h16m7 0h1M0 15h1m6 0h18m6 0h1M0 16h1m5 0h3m5 0h4m5 0h3m5 0h1M0 17h1m4 0h3m1 0h5m1 0h2m1 0h5m1 0h3m4 0h1M0 18h1m5 0h2m1 0h5m1 0h2m1 0h5m1 0h2m5 0h1M0 19h1m4 0h9m1 0h8m1 0h3m4 0h1M0 20h1m5 0h8m1 0h8m1 0h2m5 0h1M0 21h1m4 0h5m4 0h4m5 0h4m4 0h1M0 22h1m5 0h8m1 0h2m1 0h8m5 0h1M0 23h1m4 0h9m1 0h2m1 0h9m4 0h1M0 24h1m5 0h2m1 0h5m1 0h2m1 0h8m5 0h1M0 25h1m4 0h3m1 0h5m1 0h2m1 0h9m4 0h1M0 26h1m5 0h3m5 0h3m7 0h2m5 0h1M0 27h1m4 0h22m4 0h1M0 28h1m5 0h20m5 0h1M0 29h1m30 0h1M0 30h1m30 0h1M0 31h32"/><path stroke="silver" d="M1 1h30M1 2h1m28 0h1M1 3h1m6 0h1m14 0h1m6 0h1M1 4h1m28 0h1M1 5h1m6 0h1m14 0h1m6 0h1M1 6h1m28 0h1M1 7h1m6 0h1m14 0h1m6 0h1M1 8h1m28 0h1M1 9h1m6 0h1m14 0h1m6 0h1M1 10h1m28 0h1M1 11h1m6 0h1m14 0h1m6 0h1M1 12h1m28 0h1M1 13h1m6 0h1m14 0h1m6 0h1M1 14h1m5 0h1m16 0h1m5 0h1M1 15h1m4 0h1m18 0h1m4 0h1M1 16h1m3 0h1m20 0h1m3 0h1M1 17h1m28 0h1M1 18h1m3 0h1m20 0h1m3 0h1M1 19h1m28 0h1M1 20h1m3 0h1m20 0h1m3 0h1M1 21h1m28 0h1M1 22h1m3 0h1m20 0h1m3 0h1M1 23h1m28 0h1M1 24h1m3 0h1m20 0h1m3 0h1M1 25h1m28 0h1M1 26h1m3 0h1m20 0h1m3 0h1M1 27h1m28 0h1M1 28h1m3 0h1m20 0h1m3 0h1M1 29h1m28 0h1M1 30h30"/><path stroke="#fff" d="M2 2h28M2 3h1m26 0h1M2 4h1m26 0h1M2 5h1m26 0h1M2 6h1m26 0h1M2 7h1m26 0h1M2 8h1m26 0h1M2 9h1m26 0h1M2 10h1m26 0h1M2 11h1m26 0h1M2 12h1m26 0h1M2 13h1m26 0h1M2 14h1m26 0h1M2 15h1m26 0h1M2 16h1m26 0h1M2 17h1m26 0h1M2 18h1m26 0h1M2 19h1m26 0h1M2 20h1m26 0h1M2 21h1m26 0h1M2 22h1m26 0h1M2 23h1m26 0h1M2 24h1m26 0h1M2 25h1m26 0h1M2 26h1m26 0h1M2 27h1m26 0h1M2 28h1m26 0h1M2 29h28"/><path stroke="teal" d="M3 3h5m16 0h5M3 4h5m16 0h5M3 5h5m16 0h5M3 6h5m16 0h5M3 7h5m16 0h5M3 8h5m16 0h5M3 9h5m16 0h5M3 10h5m16 0h5M3 11h5m16 0h5M3 12h5m16 0h5M3 13h5m16 0h5M3 14h4m18 0h4M3 15h3m20 0h3M3 16h2m22 0h2M3 17h2m22 0h2M3 18h2m22 0h2M3 19h2m22 0h2M3 20h2m22 0h2M3 21h2m22 0h2M3 22h2m22 0h2M3 23h2m22 0h2M3 24h2m22 0h2M3 25h2m22 0h2M3 26h2m22 0h2M3 27h2m22 0h2M3 28h2m22 0h2"/><path stroke="#0ff" d="M12 5h1m4 0h3m-9 1h2m3 0h1m3 0h1m-9 1h1m3 0h1m-5 1h1m3 0h4m-8 1h1m3 0h1m3 0h1m-9 1h1m3 0h1m3 0h1m-10 1h3m3 0h3"/><path stroke="#ff0" d="M9 16h5m4 0h5M8 17h1m5 0h1m2 0h1m5 0h1M8 18h1m5 0h1m2 0h1m5 0h1m-10 1h1m8 0h1m-10 1h1m8 0h1m-14 1h4m4 0h5m-9 1h1m2 0h1m-4 1h1m2 0h1M8 24h1m5 0h1m2 0h1M8 25h1m5 0h1m2 0h1m-9 1h5m3 0h7"/></svg>