<svg xmlns="http://www.w3.org/2000/svg" viewBox="0 -0.5 32 32" shape-rendering="crispEdges">
<path stroke="#000000" d="M0 0h1M0 0h32M0 1h1M31 1h1M0 2h1M31 2h1M0 3h1M9 3h14M31 3h1M0 4h1M8 4h16M31 4h1M0 5h1M9 5h3M13 5h4M20 5h3M31 5h1M0 6h1M8 6h3M13 6h3M17 6h3M21 6h3M31 6h1M0 7h1M9 7h3M13 7h3M17 7h6M31 7h1M0 8h1M8 8h4M13 8h3M20 8h4M31 8h1M0 9h1M9 9h3M13 9h3M17 9h3M21 9h2M31 9h1M0 10h1M8 10h4M13 10h3M17 10h3M21 10h3M31 10h1M0 11h1M9 11h2M14 11h3M20 11h3M31 11h1M0 12h1M8 12h16M31 12h1M0 13h1M9 13h14M31 13h1M0 14h1M8 14h16M31 14h1M0 15h1M7 15h18M31 15h1M0 16h1M6 16h3M14 16h4M23 16h3M31 16h1M0 17h1M5 17h3M9 17h5M15 17h2M18 17h5M24 17h3M31 17h1M0 18h1M6 18h2M9 18h5M15 18h2M18 18h5M24 18h2M31 18h1M0 19h1M5 19h9M15 19h8M24 19h3M31 19h1M0 20h1M6 20h8M15 20h8M24 20h2M31 20h1M0 21h1M5 21h5M14 21h4M23 21h4M31 21h1M0 22h1M6 22h8M15 22h2M18 22h8M31 22h1M0 23h1M5 23h9M15 23h2M18 23h9M31 23h1M0 24h1M6 24h2M9 24h5M15 24h2M18 24h8M31 24h1M0 25h1M5 25h3M9 25h5M15 25h2M18 25h9M31 25h1M0 26h1M6 26h3M14 26h3M24 26h2M31 26h1M0 27h1M5 27h22M31 27h1M0 28h1M6 28h20M31 28h1M0 29h1M31 29h1M0 30h1M31 30h1M0 31h32" />
<path stroke="#c0c0c0" d="M0 0h1M1 1h30M1 2h1M30 2h1M1 3h1M8 3h1M23 3h1M30 3h1M1 4h1M30 4h1M1 5h1M8 5h1M23 5h1M30 5h1M1 6h1M30 6h1M1 7h1M8 7h1M23 7h1M30 7h1M1 8h1M30 8h1M1 9h1M8 9h1M23 9h1M30 9h1M1 10h1M30 10h1M1 11h1M8 11h1M23 11h1M30 11h1M1 12h1M30 12h1M1 13h1M8 13h1M23 13h1M30 13h1M1 14h1M7 14h1M24 14h1M30 14h1M1 15h1M6 15h1M25 15h1M30 15h1M1 16h1M5 16h1M26 16h1M30 16h1M1 17h1M30 17h1M1 18h1M5 18h1M26 18h1M30 18h1M1 19h1M30 19h1M1 20h1M5 20h1M26 20h1M30 20h1M1 21h1M30 21h1M1 22h1M5 22h1M26 22h1M30 22h1M1 23h1M30 23h1M1 24h1M5 24h1M26 24h1M30 24h1M1 25h1M30 25h1M1 26h1M5 26h1M26 26h1M30 26h1M1 27h1M30 27h1M1 28h1M5 28h1M26 28h1M30 28h1M1 29h1M30 29h1M1 30h30" />
<path stroke="#ffffff" d="M0 0h1M2 2h28M2 3h1M29 3h1M2 4h1M29 4h1M2 5h1M29 5h1M2 6h1M29 6h1M2 7h1M29 7h1M2 8h1M29 8h1M2 9h1M29 9h1M2 10h1M29 10h1M2 11h1M29 11h1M2 12h1M29 12h1M2 13h1M29 13h1M2 14h1M29 14h1M2 15h1M29 15h1M2 16h1M29 16h1M2 17h1M29 17h1M2 18h1M29 18h1M2 19h1M29 19h1M2 20h1M29 20h1M2 21h1M29 21h1M2 22h1M29 22h1M2 23h1M29 23h1M2 24h1M29 24h1M2 25h1M29 25h1M2 26h1M29 26h1M2 27h1M29 27h1M2 28h1M29 28h1M2 29h28" />
<path stroke="#008080" d="M0 0h1M3 3h5M24 3h5M3 4h5M24 4h5M3 5h5M24 5h5M3 6h5M24 6h5M3 7h5M24 7h5M3 8h5M24 8h5M3 9h5M24 9h5M3 10h5M24 10h5M3 11h5M24 11h5M3 12h5M24 12h5M3 13h5M24 13h5M3 14h4M25 14h4M3 15h3M26 15h3M3 16h2M27 16h2M3 17h2M27 17h2M3 18h2M27 18h2M3 19h2M27 19h2M3 20h2M27 20h2M3 21h2M27 21h2M3 22h2M27 22h2M3 23h2M27 23h2M3 24h2M27 24h2M3 25h2M27 25h2M3 26h2M27 26h2M3 27h2M27 27h2M3 28h2M27 28h2" />
<path stroke="#00ffff" d="M0 0h1M12 5h1M17 5h3M11 6h2M16 6h1M20 6h1M12 7h1M16 7h1M12 8h1M16 8h4M12 9h1M16 9h1M20 9h1M12 10h1M16 10h1M20 10h1M11 11h3M17 11h3" />
<path stroke="#ffff00" d="M0 0h1M9 16h5M18 16h5M8 17h1M14 17h1M17 17h1M23 17h1M8 18h1M14 18h1M17 18h1M23 18h1M14 19h1M23 19h1M14 20h1M23 20h1M10 21h4M18 21h5M14 22h1M17 22h1M14 23h1M17 23h1M8 24h1M14 24h1M17 24h1M8 25h1M14 25h1M17 25h1M9 26h5M17 26h7" />
</svg>