<svg xmlns="http://www.w3.org/2000/svg" viewBox="0 -0.5 16 16" shape-rendering="crispEdges">
<path stroke="#000000" d="M0 0h1M2 1h7M1 2h10M1 3h10M0 4h8M10 4h1M0 5h6M9 5h1M0 6h5M9 6h1M0 7h4M10 7h1M0 8h4M9 8h1M0 9h5M9 9h1M1 10h3M9 10h1M2 11h2M6 11h3M2 12h1M7 12h1M1 13h3M8 13h1M0 14h1M4 14h2M7 14h1M9 14h1M6 15h2" />
<path stroke="#c0c0c0" d="M0 0h1M8 4h1M7 5h1M6 6h1M5 7h1M7 7h1M9 7h1M4 8h1M6 8h1M8 8h1M5 9h1M7 9h1M4 10h1M6 10h1M8 10h1M5 11h1M4 12h1M6 12h1M5 13h1M7 13h1M6 14h1" />
<path stroke="#ffffff" d="M0 0h1M9 4h1M6 5h1M8 5h1M5 6h1M7 6h1M4 7h1M6 7h1M8 7h1M5 8h1M7 8h1M6 9h1M8 9h1M5 10h1M7 10h1M4 11h1M3 12h1M5 12h1M4 13h1M6 13h1" />
<path stroke="#000080" d="M0 0h1M8 6h1" />
<path stroke="#0000ff" d="M0 0h1M1 14h3M8 14h1M0 15h6M8 15h2" />
</svg>