<svg xmlns="http://www.w3.org/2000/svg" width="32" height="32" shape-rendering="crispEdges" viewBox="0 -0.5 32 32"><path stroke="gray" d="M10 0h18M9 1h1m17 0h1M8 2h1m17 0h2M7 3h1m18 0h2M7 4h1m2 0h2m6 0h6m2 0h2M7 5h1m18 0h2m-2 1h2m-2 1h2m-2 1h2M7 9h1m18 0h2M7 10h1m19 0h1M8 11h5m14 0h1M7 12h1m-7 1h1m2 0h1m2 0h1m-8 1h1m2 0h1m4 0h5m13 0h1M0 15h1m5 0h2m18 0h1M0 16h1m2 0h5m6 0h1m11 0h1m2 0h2M0 17h1m16 0h5m3 0h2m2 0h1m0 1h1m-15 1h11m2 0h2m-2 1h2m-17 1h2m13 0h2m-17 1h2m1 0h9m2 0h3m-17 1h2m12 0h3M2 24h1m11 0h2m12 0h3M2 25h1m11 0h2m12 0h2M2 26h1m9 0h1m1 0h1m11 0h3M2 27h1m8 0h1M2 28h1m-1 1h1m-1 1h1m5 0h1"/><path stroke="silver" d="M10 1h16M9 3h17M9 4h1m15 0h1m-1 1h1m-1 1h1M9 7h1m15 0h1M9 8h1m15 0h1M9 9h1m-6 3h1m7 0h1m12 0h1M5 13h1m6 0h1m12 0h1M4 14h3m18 0h1M3 15h3m2 0h1m5 0h1m10 0h1M8 16h2m8 0h4m3 0h1M9 17h1m20 0h1m-2 1h1m-15 2h1m0 1h11m-11 1h1m-5 2h1m3 0h1m10 0h1m-17 1h2m14 0h1m-18 1h2m-2 1h1m-8 3h5"/><path stroke="#fff" d="M26 1h1M9 2h17M8 3h1M8 4h1m15 0h1M8 5h1m15 0h1m-1 1h1m-1 1h1M8 8h1M8 9h1m15 2h1M8 12h4m12 0h1M8 13h4m12 0h1m-1 1h1M9 15h3m7 0h6m-15 1h1m-8 1h5m-5 1h5m8 2h11M5 24h3m12 0h1M6 25h2m-5 1h1m12 0h7M3 27h2m-2 1h3m-3 1h5m15 1h2"/><path stroke="#000" d="M28 1h1m-1 1h1m-1 1h1m-1 1h1m-8 1h2m5 0h1m-1 1h1M10 7h1m17 0h1M10 8h1m17 0h1M10 9h1m17 0h1M8 10h5m15 0h1M2 11h1m2 0h1m1 0h1m5 0h1m14 0h1M1 12h1m3 0h2m6 0h1m14 0h1M0 13h1m5 0h1m6 0h1m14 0h1M7 14h1m5 0h2m-3 1h2m-3 1h1m1 0h1m-6 1h1m1 0h1m2 0h1m17 0h1M8 18h2m7 0h10m4 0h1M8 19h1m22 0h1m-1 1h1m-1 1h1m-1 1h1m-19 1h1m2 0h10m5 0h1m-19 1h1m3 0h3m1 0h4m6 0h1m-19 1h1m2 0h8m6 0h1m-18 1h1m1 0h1m13 0h1m-18 1h10m3 0h4m-18 1h1m10 1h7M9 30h1m10 0h3m2 0h4M2 31h7m10 0h9"/><path stroke="red" d="M12 4h6M9 5h12M7 6h5m6 0h5M6 7h3m12 0h3M5 8h3m13 0h4M4 9h3m13 0h6M3 10h3m13 0h4m1 0h3M3 11h2m14 0h3m3 0h2M2 12h2m14 0h3m5 0h2M2 13h2m13 0h4m5 0h2M1 14h2m13 0h4m7 0h2M1 15h2m12 0h4m8 0h2M1 16h2m12 0h3m9 0h2M1 17h2m11 0h3m10 0h2M1 18h2m10 0h4m10 0h2M1 19h2m9 0h4m11 0h2M1 20h2m9 0h3m12 0h2M1 21h2m8 0h3m13 0h2M2 22h2m6 0h4m12 0h2M2 23h2m5 0h4m13 0h2M3 24h2m3 0h4m13 0h2M3 25h3m2 0h3m13 0h3M4 26h6m13 0h3M5 27h5m12 0h3M6 28h5m8 0h5M8 29h14m-11 1h8"/><path stroke="navy" d="M23 5h1m-1 1h1m-1 4h1m-1 1h1m-10 1h1m8 0h1m-10 1h1m8 0h1m-9 1h1m4 0h4m-12 2h1m-2 1h2m-3 1h3m-4 1h3m-4 1h4m-4 1h3m-3 1h2m-2 1h1"/><path stroke="#00f" d="M12 6h6m-7 1h1m1 0h8M11 8h1m1 0h8M11 9h9m-7 1h6m-5 1h5m3 0h1m-8 1h3m3 0h2m-8 1h2m4 0h2M3 19h5m-5 1h5m-5 1h5m-4 1h4m-4 1h4"/><path stroke="#0ff" d="M12 7h1m-1 1h1"/><path stroke="#0f0" d="M22 16h3"/><path stroke="green" d="M22 17h3"/><path stroke="teal" d="M19 30h1"/></svg>