<svg xmlns="http://www.w3.org/2000/svg" viewBox="0 -0.5 32 32" shape-rendering="crispEdges">
<path stroke="#808080" d="M0 0h1M10 0h18M9 1h1M27 1h1M8 2h1M26 2h2M7 3h1M26 3h2M7 4h1M10 4h2M18 4h6M26 4h2M7 5h1M26 5h2M26 6h2M26 7h2M26 8h2M7 9h1M26 9h2M7 10h1M27 10h1M8 11h5M27 11h1M7 12h1M1 13h1M4 13h1M7 13h1M0 14h1M3 14h1M8 14h5M26 14h1M0 15h1M6 15h2M26 15h1M0 16h1M3 16h5M14 16h1M26 16h1M29 16h2M0 17h1M17 17h5M25 17h2M29 17h1M30 18h1M16 19h11M29 19h2M29 20h2M14 21h2M29 21h2M14 22h2M17 22h9M28 22h3M14 23h2M28 23h3M2 24h1M14 24h2M28 24h3M2 25h1M14 25h2M28 25h2M2 26h1M12 26h1M14 26h1M26 26h3M2 27h1M11 27h1M2 28h1M2 29h1M2 30h1M8 30h1" />
<path stroke="#c0c0c0" d="M0 0h1M10 1h16M9 3h17M9 4h1M25 4h1M25 5h1M25 6h1M9 7h1M25 7h1M9 8h1M25 8h1M9 9h1M4 12h1M12 12h1M25 12h1M5 13h1M12 13h1M25 13h1M4 14h3M25 14h1M3 15h3M8 15h1M14 15h1M25 15h1M8 16h2M18 16h4M25 16h1M9 17h1M30 17h1M29 18h1M15 20h1M16 21h11M16 22h1M12 24h1M16 24h1M27 24h1M11 25h2M27 25h1M10 26h2M10 27h1M3 30h5" />
<path stroke="#ffffff" d="M0 0h1M26 1h1M9 2h17M8 3h1M8 4h1M24 4h1M8 5h1M24 5h1M24 6h1M24 7h1M8 8h1M8 9h1M24 11h1M8 12h4M24 12h1M8 13h4M24 13h1M24 14h1M9 15h3M19 15h6M10 16h1M3 17h5M3 18h5M16 20h11M5 24h3M20 24h1M6 25h2M3 26h1M16 26h7M3 27h2M3 28h3M3 29h5M23 30h2" />
<path stroke="#000000" d="M0 0h1M28 1h1M28 2h1M28 3h1M28 4h1M21 5h2M28 5h1M28 6h1M10 7h1M28 7h1M10 8h1M28 8h1M10 9h1M28 9h1M8 10h5M28 10h1M2 11h1M5 11h1M7 11h1M13 11h1M28 11h1M1 12h1M5 12h2M13 12h1M28 12h1M0 13h1M6 13h1M13 13h1M28 13h1M7 14h1M13 14h2M12 15h2M11 16h1M13 16h1M8 17h1M10 17h1M13 17h1M31 17h1M8 18h2M17 18h10M31 18h1M8 19h1M31 19h1M31 20h1M31 21h1M31 22h1M13 23h1M16 23h10M31 23h1M13 24h1M17 24h3M21 24h4M31 24h1M13 25h1M16 25h8M30 25h1M13 26h1M15 26h1M29 26h1M12 27h10M25 27h4M11 28h1M22 29h7M9 30h1M20 30h3M25 30h4M2 31h7M19 31h9" />
<path stroke="#ff0000" d="M0 0h1M12 4h6M9 5h12M7 6h5M18 6h5M6 7h3M21 7h3M5 8h3M21 8h4M4 9h3M20 9h6M3 10h3M19 10h4M24 10h3M3 11h2M19 11h3M25 11h2M2 12h2M18 12h3M26 12h2M2 13h2M17 13h4M26 13h2M1 14h2M16 14h4M27 14h2M1 15h2M15 15h4M27 15h2M1 16h2M15 16h3M27 16h2M1 17h2M14 17h3M27 17h2M1 18h2M13 18h4M27 18h2M1 19h2M12 19h4M27 19h2M1 20h2M12 20h3M27 20h2M1 21h2M11 21h3M27 21h2M2 22h2M10 22h4M26 22h2M2 23h2M9 23h4M26 23h2M3 24h2M8 24h4M25 24h2M3 25h3M8 25h3M24 25h3M4 26h6M23 26h3M5 27h5M22 27h3M6 28h5M19 28h5M8 29h14M11 30h8" />
<path stroke="#000080" d="M0 0h1M23 5h1M23 6h1M23 10h1M23 11h1M14 12h1M23 12h1M14 13h1M23 13h1M15 14h1M20 14h4M12 16h1M11 17h2M10 18h3M9 19h3M8 20h4M8 21h3M8 22h2M8 23h1" />
<path stroke="#0000ff" d="M0 0h1M12 6h6M11 7h1M13 7h8M11 8h1M13 8h8M11 9h9M13 10h6M14 11h5M22 11h1M15 12h3M21 12h2M15 13h2M21 13h2M3 19h5M3 20h5M3 21h5M4 22h4M4 23h4" />
<path stroke="#00ffff" d="M0 0h1M12 7h1M12 8h1" />
<path stroke="#00ff00" d="M0 0h1M22 16h3" />
<path stroke="#008000" d="M0 0h1M22 17h3" />
<path stroke="#008080" d="M0 0h1M19 30h1" />
</svg>