<svg xmlns="http://www.w3.org/2000/svg" width="16" height="16" shape-rendering="crispEdges" viewBox="0 -0.5 16 16"><path stroke="#000" d="M9 0h2m-1 1h1M9 2h1M8 4h1M8 5h1M8 6h2M8 7h1m1 0h1M8 8h1m1 0h1M2 9h1m5 0h2m-7 1h2m3 0h1m-4 1h1m2 0h1m-3 1h1m0 1h1m1 0h1m-2 1h1m1 0h1m-2 1h2"/><path stroke="olive" d="M8 1h1M7 2h1M6 3h1M5 4h1M3 5h2M2 6h1M2 7h1M2 8h1m0 1h1m1 1h1m0 1h1m0 1h1m0 1h1m0 1h1"/><path stroke="gray" d="M9 1h1m1 0h1M8 3h2m2 0h1m-1 1h1m-1 1h1m-1 1h1m-1 1h1M9 8h1m2 0h1M4 9h1m7 0h1m-1 1h1m-1 1h1m-5 1h2m2 0h1m-1 1h1m-2 1h1"/><path stroke="#ff0" d="M8 2h1M7 3h1M6 4h1M5 5h1m1 0h1M6 6h1M3 7h1m1 0h1m1 0h1M3 8h1m2 0h1M5 9h1m1 0h1m-2 1h1m0 1h1"/><path stroke="silver" d="M10 2h2m-2 1h1M9 4h1M9 5h1M4 6h1M4 7h1m4 0h1M4 8h1m4 2h1m-1 1h1m0 2h2"/><path stroke="#fff" d="M11 3h1M7 4h1m2 0h2M6 5h1m3 0h2M3 6h1m1 0h1m1 0h1m2 0h2M6 7h1m4 0h1M5 8h1m1 0h1m3 0h1M6 9h1m3 0h2m-5 1h1m2 0h2m-2 1h2m-2 1h2"/></svg>