<svg xmlns="http://www.w3.org/2000/svg" viewBox="0 -0.5 16 16" shape-rendering="crispEdges">
<path stroke="#000000" d="M0 0h1M9 0h2M10 1h1M9 2h1M8 4h1M8 5h1M8 6h2M8 7h1M10 7h1M8 8h1M10 8h1M2 9h1M8 9h2M3 10h2M8 10h1M5 11h1M8 11h1M6 12h1M7 13h1M9 13h1M8 14h1M10 14h1M9 15h2" />
<path stroke="#808000" d="M0 0h1M8 1h1M7 2h1M6 3h1M5 4h1M3 5h2M2 6h1M2 7h1M2 8h1M3 9h1M5 10h1M6 11h1M7 12h1M8 13h1M9 14h1" />
<path stroke="#808080" d="M0 0h1M9 1h1M11 1h1M8 3h2M12 3h1M12 4h1M12 5h1M12 6h1M12 7h1M9 8h1M12 8h1M4 9h1M12 9h1M12 10h1M12 11h1M8 12h2M12 12h1M12 13h1M11 14h1" />
<path stroke="#ffff00" d="M0 0h1M8 2h1M7 3h1M6 4h1M5 5h1M7 5h1M6 6h1M3 7h1M5 7h1M7 7h1M3 8h1M6 8h1M5 9h1M7 9h1M6 10h1M7 11h1" />
<path stroke="#c0c0c0" d="M0 0h1M10 2h2M10 3h1M9 4h1M9 5h1M4 6h1M4 7h1M9 7h1M4 8h1M9 10h1M9 11h1M10 13h2" />
<path stroke="#ffffff" d="M0 0h1M11 3h1M7 4h1M10 4h2M6 5h1M10 5h2M3 6h1M5 6h1M7 6h1M10 6h2M6 7h1M11 7h1M5 8h1M7 8h1M11 8h1M6 9h1M10 9h2M7 10h1M10 10h2M10 11h2M10 12h2" />
</svg>