<svg xmlns="http://www.w3.org/2000/svg" viewBox="0 -0.5 32 32" shape-rendering="crispEdges">
<path stroke="#000000" d="M0 0h1M15 0h1M14 1h1M16 1h1M13 2h1M17 2h1M12 3h1M18 3h1M11 4h1M14 4h1M19 4h1M10 5h1M13 5h1M15 5h1M20 5h1M9 6h1M12 6h1M14 6h1M16 6h1M21 6h1M8 7h1M11 7h1M13 7h1M17 7h1M22 7h1M7 8h1M10 8h1M12 8h1M16 8h1M23 8h1M6 9h1M9 9h1M11 9h1M15 9h1M24 9h1M5 10h1M8 10h1M10 10h1M14 10h1M25 10h1M4 11h1M7 11h1M9 11h1M13 11h1M26 11h1M3 12h1M6 12h1M8 12h1M12 12h1M27 12h1M2 13h1M5 13h1M7 13h1M11 13h1M15 13h1M25 13h1M28 13h1M1 14h1M6 14h1M10 14h1M14 14h1M16 14h1M24 14h1M26 14h1M29 14h1M2 15h1M7 15h1M9 15h1M13 15h1M15 15h1M17 15h1M23 15h1M25 15h1M27 15h1M30 15h1M2 16h2M8 16h1M12 16h1M14 16h1M16 16h1M18 16h1M22 16h1M24 16h1M26 16h1M28 16h1M30 16h1M1 17h1M4 17h1M11 17h1M13 17h1M15 17h1M17 17h1M19 17h1M21 17h1M23 17h1M25 17h1M27 17h1M30 17h1M1 18h1M5 18h1M10 18h1M12 18h1M14 18h1M16 18h1M18 18h1M20 18h1M22 18h1M24 18h1M26 18h1M29 18h1M1 19h2M6 19h1M11 19h1M13 19h1M15 19h1M17 19h1M19 19h1M21 19h1M23 19h1M25 19h1M28 19h1M1 20h1M3 20h1M7 20h1M12 20h1M14 20h1M16 20h1M18 20h1M20 20h1M22 20h1M24 20h1M27 20h1M1 21h1M4 21h1M8 21h1M13 21h1M15 21h1M17 21h1M19 21h1M21 21h1M23 21h1M26 21h1M2 22h1M5 22h1M9 22h1M16 22h1M18 22h1M20 22h1M22 22h1M25 22h1M2 23h2M6 23h1M10 23h1M15 23h1M17 23h1M19 23h1M21 23h1M24 23h1M1 24h1M4 24h1M7 24h1M11 24h1M16 24h1M18 24h1M20 24h1M23 24h1M2 25h1M5 25h1M8 25h1M12 25h1M17 25h1M19 25h1M22 25h1M3 26h2M6 26h1M9 26h1M13 26h1M18 26h1M21 26h1M5 27h1M8 27h1M10 27h1M14 27h1M20 27h1M6 28h2M9 28h1M11 28h1M15 28h1M19 28h1M8 29h1M12 29h1M15 29h1M18 29h1M9 30h2M13 30h1M15 30h1M17 30h1M11 31h6" />
<path stroke="#ffffff" d="M0 0h1M15 1h1M14 2h3M13 3h5M12 4h2M15 4h4M11 5h2M14 5h1M16 5h4M10 6h2M13 6h1M15 6h1M17 6h4M9 7h2M12 7h1M14 7h3M18 7h4M8 8h2M13 8h3M17 8h6M7 9h2M12 9h3M16 9h3M21 9h3M6 10h2M11 10h1M13 10h1M15 10h3M22 10h3M5 11h2M10 11h1M12 11h1M14 11h3M23 11h3M4 12h2M7 12h1M9 12h3M13 12h4M20 12h1M24 12h3M3 13h2M6 13h1M8 13h3M12 13h3M16 13h2M23 13h2M26 13h2M2 14h4M7 14h3M11 14h3M15 14h1M17 14h2M22 14h2M25 14h1M27 14h2M3 15h4M8 15h1M10 15h3M14 15h1M16 15h1M18 15h2M21 15h2M24 15h1M26 15h1M28 15h1M4 16h4M9 16h3M13 16h1M15 16h1M17 16h1M19 16h3M23 16h1M25 16h1M27 16h1M5 17h6M12 17h1M14 17h1M16 17h1M18 17h1M20 17h1M22 17h1M24 17h1M26 17h1M2 18h1M6 18h4M11 18h1M13 18h1M15 18h1M17 18h1M19 18h1M21 18h1M23 18h1M25 18h1M3 19h1M7 19h4M12 19h1M14 19h1M16 19h1M18 19h1M20 19h1M22 19h1M24 19h1M4 20h1M8 20h4M13 20h1M15 20h1M17 20h1M19 20h1M21 20h1M23 20h1M5 21h1M9 21h4M14 21h1M16 21h1M18 21h1M20 21h1M22 21h1M3 22h1M6 22h1M10 22h6M17 22h1M19 22h1M21 22h1M4 23h1M7 23h1M11 23h4M16 23h1M18 23h1M20 23h1M5 24h1M8 24h1M12 24h4M17 24h1M19 24h1M3 25h1M6 25h1M9 25h1M13 25h4M18 25h1M5 26h1M7 26h1M10 26h1M14 26h4M6 27h1M9 27h1M11 27h1M15 27h2M8 28h1M12 28h1M9 29h1M13 29h1M11 30h1" />
<path stroke="#808080" d="M0 0h1M11 8h1M10 9h1M19 9h2M9 10h1M12 10h1M18 10h1M20 10h2M8 11h1M11 11h1M17 11h2M22 11h1M17 12h1M19 12h1M21 12h3M20 13h1M22 13h1M19 14h3M20 15h1M2 17h2M29 17h1M4 18h1M28 18h1M5 19h1M27 19h1M2 20h1M6 20h1M26 20h1M3 21h1M7 21h1M25 21h1M8 22h1M24 22h1M9 23h1M23 23h1M2 24h1M10 24h1M22 24h1M11 25h1M21 25h1M12 26h1M20 26h1M7 27h1M13 27h1M19 27h1M14 28h1M18 28h1M10 29h1M14 29h1M16 29h2M12 30h1M14 30h1M16 30h1" />
<path stroke="#c0c0c0" d="M0 0h1M19 10h1M19 11h3M18 12h1M18 13h2M21 13h1M29 15h1M29 16h1M28 17h1M3 18h1M27 18h1M4 19h1M26 19h1M5 20h1M25 20h1M2 21h1M6 21h1M24 21h1M4 22h1M7 22h1M23 22h1M5 23h1M8 23h1M22 23h1M3 24h1M6 24h1M9 24h1M21 24h1M4 25h1M7 25h1M10 25h1M20 25h1M8 26h1M11 26h1M19 26h1M12 27h1M17 27h2M10 28h1M13 28h1M16 28h2M11 29h1" />
</svg>