<svg xmlns="http://www.w3.org/2000/svg" viewBox="0 -0.5 32 32" shape-rendering="crispEdges">
<path stroke="#808080" d="M0 0h1M0 0h16M0 1h1M15 1h1M0 2h1M15 2h2M0 3h1M15 3h1M17 3h1M0 4h1M15 4h1M18 4h1M0 5h1M15 5h1M19 5h1M0 6h1M15 6h1M0 7h1M0 8h1M0 9h1M0 10h1M0 11h1M0 12h1M0 13h1M0 14h1M4 14h18M23 14h9M0 15h1M4 15h2M30 15h1M0 16h1M4 16h1M6 16h1M29 16h1M0 17h1M4 17h1M7 17h1M28 17h1M0 18h1M4 18h1M8 18h1M27 18h1M0 19h1M4 19h1M9 19h1M26 19h1M0 20h1M4 20h1M10 20h1M25 20h1M0 21h1M4 21h1M10 21h2M24 21h2M0 22h1M4 22h1M9 22h1M12 22h1M23 22h1M26 22h1M0 23h1M4 23h1M8 23h1M13 23h1M22 23h1M27 23h1M0 24h1M4 24h1M7 24h1M14 24h1M21 24h1M28 24h1M0 25h1M4 25h1M6 25h1M15 25h1M20 25h1M29 25h1M0 26h1M4 26h2M16 26h1M19 26h1M30 26h1M4 27h1M17 27h2M4 28h1M4 29h1" />
<path stroke="#ffffff" d="M0 0h1M1 1h14M1 2h14M1 3h14M1 4h14M16 4h1M1 5h8M12 5h3M16 5h2M1 6h14M1 7h19M1 8h2M17 8h3M1 9h19M1 10h2M17 10h3M1 11h19M1 12h2M17 12h1M1 13h16M18 13h2M1 14h2M1 15h3M7 15h3M11 15h3M15 15h3M19 15h3M23 15h3M27 15h3M1 16h2M5 16h1M7 16h1M9 16h3M13 16h3M17 16h3M25 16h3M1 17h3M5 17h1M8 17h2M11 17h3M15 17h3M19 17h2M24 17h2M27 17h1M1 18h2M5 18h3M9 18h3M13 18h3M17 18h3M21 18h1M23 18h1M25 18h2M29 18h1M1 19h3M5 19h1M7 19h2M11 19h3M15 19h3M19 19h3M23 19h3M28 19h2M1 20h2M5 20h3M9 20h1M11 20h1M13 20h3M17 20h3M21 20h3M27 20h1M29 20h1M1 21h3M5 21h1M7 21h3M12 21h2M15 21h3M19 21h3M23 21h1M27 21h3M1 22h2M5 22h3M10 22h2M13 22h3M17 22h3M21 22h2M27 22h1M29 22h1M1 23h3M5 23h1M7 23h1M9 23h1M11 23h2M15 23h3M19 23h3M24 23h2M28 23h2M1 24h3M5 24h2M9 24h3M13 24h1M15 24h1M17 24h3M23 24h1M25 24h2M29 24h1M1 25h3M5 25h1M7 25h3M11 25h3M16 25h2M19 25h1M23 25h3M27 25h1M6 26h2M9 26h3M13 26h3M17 26h2M21 26h3M25 26h3M5 27h1M7 27h3M11 27h3M15 27h2M20 27h2M23 27h3M27 27h3M5 28h3M9 28h3M13 28h3M19 28h1M21 28h3M25 28h3M29 28h1" />
<path stroke="#000000" d="M0 0h1M16 1h1M17 2h1M18 3h1M19 4h1M20 5h1M16 6h6M21 7h1M21 8h1M21 9h1M21 10h1M21 11h1M21 12h1M31 15h1M31 16h1M31 17h1M31 18h1M31 19h1M31 20h1M31 21h1M31 22h1M31 23h1M31 24h1M31 25h1M31 26h1M0 27h4M31 27h1M31 28h1M31 29h1M4 30h28" />
<path stroke="#c0c0c0" d="M0 0h1M16 3h1M17 4h1M18 5h1M20 7h1M20 8h1M20 9h1M20 10h1M20 11h1M20 13h1M30 16h1M29 17h2M28 18h1M30 18h1M27 19h1M30 19h1M26 20h1M30 20h1M30 21h1M24 22h2M30 22h1M23 23h1M26 23h1M30 23h1M22 24h1M27 24h1M30 24h1M21 25h1M28 25h1M30 25h1M1 26h3M20 26h1M29 26h1M19 27h1M30 27h1M17 28h2M30 28h1M5 29h26" />
<path stroke="#0000ff" d="M0 0h1M9 5h3M3 8h14M3 10h14M3 12h14M3 14h1M3 16h1M3 18h1M3 20h1M3 22h1" />
<path stroke="#ff0000" d="M0 0h1M18 12h3M17 13h1M21 13h1M22 14h1M22 15h1M20 16h5M21 17h3M22 18h1" />
<path stroke="#ffff00" d="M0 0h1M6 15h1M10 15h1M14 15h1M18 15h1M26 15h1M8 16h1M12 16h1M16 16h1M28 16h1M6 17h1M10 17h1M14 17h1M18 17h1M26 17h1M12 18h1M16 18h1M20 18h1M24 18h1M6 19h1M10 19h1M14 19h1M18 19h1M22 19h1M8 20h1M12 20h1M16 20h1M20 20h1M24 20h1M28 20h1M6 21h1M14 21h1M18 21h1M22 21h1M26 21h1M8 22h1M16 22h1M20 22h1M28 22h1M6 23h1M10 23h1M14 23h1M18 23h1M8 24h1M12 24h1M16 24h1M20 24h1M24 24h1M10 25h1M14 25h1M18 25h1M22 25h1M26 25h1M8 26h1M12 26h1M24 26h1M28 26h1M6 27h1M10 27h1M14 27h1M22 27h1M26 27h1M8 28h1M12 28h1M16 28h1M20 28h1M24 28h1M28 28h1" />
</svg>