<svg xmlns="http://www.w3.org/2000/svg" width="32" height="32" shape-rendering="crispEdges" viewBox="0 -0.5 32 32"><path stroke="#000" d="M15 0h1m-2 1h1m1 0h1m-4 1h1m3 0h1m-6 1h1m5 0h1m-8 1h1m2 0h1m4 0h1M10 5h1m2 0h1m1 0h1m4 0h1M9 6h1m2 0h1m1 0h1m1 0h1m4 0h1M8 7h1m2 0h1m1 0h1m3 0h1m4 0h1M7 8h1m2 0h1m1 0h1m3 0h1m6 0h1M6 9h1m2 0h1m1 0h1m3 0h1m8 0h1M5 10h1m2 0h1m1 0h1m3 0h1m10 0h1M4 11h1m2 0h1m1 0h1m3 0h1m12 0h1M3 12h1m2 0h1m1 0h1m3 0h1m14 0h1M2 13h1m2 0h1m1 0h1m3 0h1m3 0h1m9 0h1m2 0h1M1 14h1m4 0h1m3 0h1m3 0h1m1 0h1m7 0h1m1 0h1m2 0h1M2 15h1m4 0h1m1 0h1m3 0h1m1 0h1m1 0h1m5 0h1m1 0h1m1 0h1m2 0h1M2 16h2m4 0h1m3 0h1m1 0h1m1 0h1m1 0h1m3 0h1m1 0h1m1 0h1m1 0h1m1 0h1M1 17h1m2 0h1m6 0h1m1 0h1m1 0h1m1 0h1m1 0h1m1 0h1m1 0h1m1 0h1m1 0h1m2 0h1M1 18h1m3 0h1m4 0h1m1 0h1m1 0h1m1 0h1m1 0h1m1 0h1m1 0h1m1 0h1m1 0h1m2 0h1M1 19h2m3 0h1m4 0h1m1 0h1m1 0h1m1 0h1m1 0h1m1 0h1m1 0h1m1 0h1m2 0h1M1 20h1m1 0h1m3 0h1m4 0h1m1 0h1m1 0h1m1 0h1m1 0h1m1 0h1m1 0h1m2 0h1M1 21h1m2 0h1m3 0h1m4 0h1m1 0h1m1 0h1m1 0h1m1 0h1m1 0h1m2 0h1M2 22h1m2 0h1m3 0h1m6 0h1m1 0h1m1 0h1m1 0h1m2 0h1M2 23h2m2 0h1m3 0h1m4 0h1m1 0h1m1 0h1m1 0h1m2 0h1M1 24h1m2 0h1m2 0h1m3 0h1m4 0h1m1 0h1m1 0h1m2 0h1M2 25h1m2 0h1m2 0h1m3 0h1m4 0h1m1 0h1m2 0h1M3 26h2m1 0h1m2 0h1m3 0h1m4 0h1m2 0h1M5 27h1m2 0h1m1 0h1m3 0h1m5 0h1M6 28h2m1 0h1m1 0h1m3 0h1m3 0h1M8 29h1m3 0h1m2 0h1m2 0h1M9 30h2m2 0h1m1 0h1m1 0h1m-7 1h6"/><path stroke="#fff" d="M15 1h1m-2 1h3m-4 1h5m-6 1h2m1 0h4m-8 1h2m1 0h1m1 0h4M10 6h2m1 0h1m1 0h1m1 0h4M9 7h2m1 0h1m1 0h3m1 0h4M8 8h2m3 0h3m1 0h6M7 9h2m3 0h3m1 0h3m2 0h3M6 10h2m3 0h1m1 0h1m1 0h3m4 0h3M5 11h2m3 0h1m1 0h1m1 0h3m6 0h3M4 12h2m1 0h1m1 0h3m1 0h4m3 0h1m3 0h3M3 13h2m1 0h1m1 0h3m1 0h3m1 0h2m5 0h2m1 0h2M2 14h4m1 0h3m1 0h3m1 0h1m1 0h2m3 0h2m1 0h1m1 0h2M3 15h4m1 0h1m1 0h3m1 0h1m1 0h1m1 0h2m1 0h2m1 0h1m1 0h1m1 0h1M4 16h4m1 0h3m1 0h1m1 0h1m1 0h1m1 0h3m1 0h1m1 0h1m1 0h1M5 17h6m1 0h1m1 0h1m1 0h1m1 0h1m1 0h1m1 0h1m1 0h1m1 0h1M2 18h1m3 0h4m1 0h1m1 0h1m1 0h1m1 0h1m1 0h1m1 0h1m1 0h1m1 0h1M3 19h1m3 0h4m1 0h1m1 0h1m1 0h1m1 0h1m1 0h1m1 0h1m1 0h1M4 20h1m3 0h4m1 0h1m1 0h1m1 0h1m1 0h1m1 0h1m1 0h1M5 21h1m3 0h4m1 0h1m1 0h1m1 0h1m1 0h1m1 0h1M3 22h1m2 0h1m3 0h6m1 0h1m1 0h1m1 0h1M4 23h1m2 0h1m3 0h4m1 0h1m1 0h1m1 0h1M5 24h1m2 0h1m3 0h4m1 0h1m1 0h1M3 25h1m2 0h1m2 0h1m3 0h4m1 0h1M5 26h1m1 0h1m2 0h1m3 0h4M6 27h1m2 0h1m1 0h1m3 0h2m-9 1h1m3 0h1m-4 1h1m3 0h1m-3 1h1"/><path stroke="gray" d="M11 8h1m-2 1h1m8 0h2M9 10h1m2 0h1m5 0h1m1 0h2M8 11h1m2 0h1m5 0h2m3 0h1m-6 1h1m1 0h1m1 0h3m-4 1h1m1 0h1m-4 1h3m-2 1h1M2 17h2m25 0h1M4 18h1m23 0h1M5 19h1m21 0h1M2 20h1m3 0h1m19 0h1M3 21h1m3 0h1m17 0h1M8 22h1m15 0h1M9 23h1m13 0h1M2 24h1m7 0h1m11 0h1m-12 1h1m9 0h1m-10 1h1m7 0h1M7 27h1m5 0h1m5 0h1m-6 1h1m3 0h1m-9 1h1m3 0h1m1 0h2m-6 1h1m1 0h1m1 0h1"/><path stroke="silver" d="M19 10h1m-1 1h3m-4 1h1m-1 1h2m1 0h1m7 2h1m-1 1h1m-2 1h1M3 18h1m23 0h1M4 19h1m21 0h1M5 20h1m19 0h1M2 21h1m3 0h1m17 0h1M4 22h1m2 0h1m15 0h1M5 23h1m2 0h1m13 0h1M3 24h1m2 0h1m2 0h1m11 0h1M4 25h1m2 0h1m2 0h1m9 0h1M8 26h1m2 0h1m7 0h1m-8 1h1m4 0h2m-9 1h1m2 0h1m2 0h2m-7 1h1"/></svg>