<svg xmlns="http://www.w3.org/2000/svg" width="32" height="32" shape-rendering="crispEdges" viewBox="0 -0.5 32 32"><path stroke="gray" d="M0 0h16M0 1h1m14 0h1M0 2h1m14 0h2M0 3h1m14 0h1m1 0h1M0 4h1m14 0h1m2 0h1M0 5h1m14 0h1m3 0h1M0 6h1m14 0h1M0 7h1M0 8h1M0 9h1m-1 1h1m-1 1h1m-1 1h1m-1 1h1m-1 1h1m3 0h18m1 0h9M0 15h1m3 0h2m24 0h1M0 16h1m3 0h1m1 0h1m22 0h1M0 17h1m3 0h1m2 0h1m20 0h1M0 18h1m3 0h1m3 0h1m18 0h1M0 19h1m3 0h1m4 0h1m16 0h1M0 20h1m3 0h1m5 0h1m14 0h1M0 21h1m3 0h1m5 0h2m12 0h2M0 22h1m3 0h1m4 0h1m2 0h1m10 0h1m2 0h1M0 23h1m3 0h1m3 0h1m4 0h1m8 0h1m4 0h1M0 24h1m3 0h1m2 0h1m6 0h1m6 0h1m6 0h1M0 25h1m3 0h1m1 0h1m8 0h1m4 0h1m8 0h1M0 26h1m3 0h2m10 0h1m2 0h1m10 0h1M4 27h1m12 0h2M4 28h1m-1 1h1"/><path stroke="#fff" d="M1 1h14M1 2h14M1 3h14M1 4h14m1 0h1M1 5h8m3 0h3m1 0h2M1 6h14M1 7h19M1 8h2m14 0h3M1 9h19M1 10h2m14 0h3M1 11h19M1 12h2m14 0h1M1 13h16m1 0h2M1 14h2m-2 1h3m3 0h3m1 0h3m1 0h3m1 0h3m1 0h3m1 0h3M1 16h2m2 0h1m1 0h1m1 0h3m1 0h3m1 0h3m5 0h3M1 17h3m1 0h1m2 0h2m1 0h3m1 0h3m1 0h2m3 0h2m1 0h1M1 18h2m2 0h3m1 0h3m1 0h3m1 0h3m1 0h1m1 0h1m1 0h2m2 0h1M1 19h3m1 0h1m1 0h2m2 0h3m1 0h3m1 0h3m1 0h3m2 0h2M1 20h2m2 0h3m1 0h1m1 0h1m1 0h3m1 0h3m1 0h3m3 0h1m1 0h1M1 21h3m1 0h1m1 0h3m2 0h2m1 0h3m1 0h3m1 0h1m3 0h3M1 22h2m2 0h3m2 0h2m1 0h3m1 0h3m1 0h2m4 0h1m1 0h1M1 23h3m1 0h1m1 0h1m1 0h1m1 0h2m2 0h3m1 0h3m2 0h2m2 0h2M1 24h3m1 0h2m2 0h3m1 0h1m1 0h1m1 0h3m3 0h1m1 0h2m2 0h1M1 25h3m1 0h1m1 0h3m1 0h3m2 0h2m1 0h1m3 0h3m1 0h1M6 26h2m1 0h3m1 0h3m1 0h2m2 0h3m1 0h3M5 27h1m1 0h3m1 0h3m1 0h2m3 0h2m1 0h3m1 0h3M5 28h3m1 0h3m1 0h3m3 0h1m1 0h3m1 0h3m1 0h1"/><path stroke="#000" d="M16 1h1m0 1h1m0 1h1m0 1h1m0 1h1m-5 1h6m-1 1h1m-1 1h1m-1 1h1m-1 1h1m-1 1h1m-1 1h1m9 3h1m-1 1h1m-1 1h1m-1 1h1m-1 1h1m-1 1h1m-1 1h1m-1 1h1m-1 1h1m-1 1h1m-1 1h1m-1 1h1M0 27h4m27 0h1m-1 1h1m-1 1h1M4 30h28"/><path stroke="silver" d="M16 3h1m0 1h1m0 1h1m1 2h1m-1 1h1m-1 1h1m-1 1h1m-1 1h1m-1 2h1m9 3h1m-2 1h2m-3 1h1m1 0h1m-4 1h1m2 0h1m-5 1h1m3 0h1m-1 1h1m-7 1h2m4 0h1m-8 1h1m2 0h1m3 0h1m-9 1h1m4 0h1m2 0h1m-10 1h1m6 0h1m1 0h1M1 26h3m16 0h1m8 0h1m-11 1h1m10 0h1m-14 1h2m11 0h1M5 29h26"/><path stroke="#00f" d="M9 5h3M3 8h14M3 10h14M3 12h14M3 14h1m-1 2h1m-1 2h1m-1 2h1m-1 2h1"/><path stroke="red" d="M18 12h3m-4 1h1m3 0h1m0 1h1m-1 1h1m-3 1h5m-4 1h3m-2 1h1"/><path stroke="#ff0" d="M6 15h1m3 0h1m3 0h1m3 0h1m7 0h1M8 16h1m3 0h1m3 0h1m11 0h1M6 17h1m3 0h1m3 0h1m3 0h1m7 0h1m-15 1h1m3 0h1m3 0h1m3 0h1M6 19h1m3 0h1m3 0h1m3 0h1m3 0h1M8 20h1m3 0h1m3 0h1m3 0h1m3 0h1m3 0h1M6 21h1m7 0h1m3 0h1m3 0h1m3 0h1M8 22h1m7 0h1m3 0h1m7 0h1M6 23h1m3 0h1m3 0h1m3 0h1M8 24h1m3 0h1m3 0h1m3 0h1m3 0h1m-15 1h1m3 0h1m3 0h1m3 0h1m3 0h1M8 26h1m3 0h1m11 0h1m3 0h1M6 27h1m3 0h1m3 0h1m7 0h1m3 0h1M8 28h1m3 0h1m3 0h1m3 0h1m3 0h1m3 0h1"/></svg>