<svg xmlns="http://www.w3.org/2000/svg" viewBox="0 -0.5 32 32" shape-rendering="crispEdges">
<path stroke="#808080" d="M0 0h1M8 0h18M8 1h1M25 1h1M8 2h1M25 2h2M8 3h1M25 3h1M27 3h1M8 4h1M25 4h1M28 4h1M8 5h1M25 5h1M29 5h1M8 6h1M25 6h1M8 19h1M8 20h1M8 21h1M8 22h1M8 23h1M8 24h1M8 25h1M8 26h1M8 27h1M8 28h1M8 29h1M8 30h1" />
<path stroke="#ffffff" d="M0 0h1M9 1h16M9 2h16M9 3h16M9 4h16M26 4h1M9 5h16M26 5h2M9 6h16M10 7h10M22 7h8M11 8h8M23 8h7M12 9h6M24 9h6M12 10h6M24 10h6M12 11h6M24 11h6M12 12h6M24 12h6M13 13h4M23 13h7M14 14h2M22 14h8M21 15h9M21 16h9M21 17h9M21 18h9M9 19h1M22 19h8M9 20h2M23 20h7M9 21h3M24 21h6M9 22h3M24 22h6M9 23h3M24 23h6M9 24h3M24 24h6M9 25h4M17 25h2M23 25h7M9 26h5M16 26h4M22 26h8M9 27h21M9 28h21M9 29h21" />
<path stroke="#000000" d="M0 0h1M26 1h1M27 2h1M28 3h1M29 4h1M30 5h1M26 6h6M31 7h1M31 8h1M11 9h1M23 9h1M31 9h1M11 10h1M23 10h1M31 10h1M11 11h1M23 11h1M31 11h1M11 12h1M23 12h1M31 12h1M10 13h1M22 13h1M31 13h1M9 14h1M21 14h1M31 14h1M8 15h1M14 15h1M20 15h1M31 15h1M8 16h1M14 16h1M20 16h1M31 16h1M8 17h1M14 17h1M20 17h1M31 17h1M8 18h1M14 18h1M20 18h1M31 18h1M7 19h1M13 19h1M19 19h1M31 19h1M6 20h1M12 20h1M18 20h1M31 20h1M17 21h1M23 21h1M31 21h1M17 22h1M23 22h1M31 22h1M17 23h1M23 23h1M31 23h1M17 24h1M23 24h1M31 24h1M5 25h1M16 25h1M22 25h1M31 25h1M5 26h1M15 26h1M21 26h1M31 26h1M5 27h1M31 27h1M5 28h1M31 28h1M4 29h1M31 29h1M3 30h1M31 30h1M8 31h24" />
<path stroke="#c0c0c0" d="M0 0h1M26 3h1M27 4h1M28 5h1M30 7h1M30 8h1M30 9h1M30 10h1M30 11h1M30 12h1M30 13h1M11 14h1M30 14h1M10 15h1M12 15h1M30 15h1M11 16h1M30 16h1M30 17h1M30 18h1M30 19h1M20 20h1M30 20h1M19 21h1M21 21h1M30 21h1M20 22h1M30 22h1M30 23h1M30 24h1M30 25h1M30 26h1M30 27h1M30 28h1M30 29h1M9 30h22" />
<path stroke="#008000" d="M0 0h1M8 7h2M7 8h1M10 8h1M6 9h1M6 10h1M10 10h1M6 11h1M9 11h2M6 12h1M9 12h2M9 13h1M17 13h2M16 14h1M19 14h1M15 15h1M19 16h1M18 17h2M18 18h2M18 19h1M2 23h2M1 24h1M4 24h1M0 25h1M0 26h1M4 26h1M0 27h1M3 27h2M0 28h1M3 28h2M1 29h1M3 29h1M2 30h1" />
<path stroke="#800080" d="M0 0h1M20 7h1M19 8h1M18 9h1M5 13h1M4 14h1M3 15h1M14 19h1M13 20h1M12 21h1" />
<path stroke="#ff00ff" d="M0 0h1M21 7h1M20 8h3M19 9h4M20 10h2M6 13h1M5 14h3M4 15h4M5 16h2M15 19h1M14 20h3M13 21h4M14 22h2" />
<path stroke="#ffff00" d="M0 0h1M8 8h2M7 9h4M8 10h2M17 14h2M16 15h4M17 16h2M2 24h2M1 25h4M2 26h2" />
<path stroke="#00ff00" d="M0 0h1M7 10h1M7 11h2M7 12h2M7 13h2M8 14h1M15 16h2M15 17h3M15 18h3M16 19h2M17 20h1M1 26h1M1 27h2M1 28h2M2 29h1" />
<path stroke="#800000" d="M0 0h1M18 10h1M22 10h1M18 11h1M21 11h2M18 12h1M21 12h2M21 13h1M3 16h1M7 16h1M3 17h1M6 17h2M3 18h1M6 18h2M4 19h1M6 19h1M5 20h1M12 22h1M16 22h1M12 23h1M15 23h2M12 24h1M15 24h2M13 25h1M15 25h1M14 26h1" />
<path stroke="#ff0000" d="M0 0h1M19 10h1M19 11h2M19 12h2M19 13h2M20 14h1M4 16h1M4 17h2M4 18h2M5 19h1M13 22h1M13 23h2M13 24h2M14 25h1" />
<path stroke="#008080" d="M0 0h1M11 13h2M10 14h1M13 14h1M20 19h2M19 20h1M22 20h1" />
<path stroke="#00ffff" d="M0 0h1M12 14h1M11 15h1M13 15h1M12 16h1M21 20h1M20 21h1M22 21h1M21 22h1" />
<path stroke="#0000ff" d="M0 0h1M9 15h1M9 16h2M9 17h3M9 18h3M10 19h2M11 20h1M18 21h1M18 22h2M18 23h3M18 24h3M19 25h2M20 26h1" />
<path stroke="#000080" d="M0 0h1M13 16h1M12 17h2M12 18h2M12 19h1M22 22h1M21 23h2M21 24h2M21 25h1" />
</svg>