<svg xmlns="http://www.w3.org/2000/svg" viewBox="0 -0.5 16 16" shape-rendering="crispEdges">
<path stroke="#808080" d="M0 0h1M5 0h5M3 1h2M2 2h1M1 3h1M6 3h7M1 4h1M6 4h1M13 4h1M0 5h1M6 5h1M14 5h1M0 6h1M6 6h1M0 7h1M5 7h2M0 8h1M5 8h2M0 9h1M5 9h2M0 10h1M6 10h1M6 11h1M6 12h1M6 13h1M6 14h1" />
<path stroke="#c0c0c0" d="M0 0h1M5 1h1M4 2h1M3 3h1M2 4h1M12 4h1M1 5h1M3 5h1M12 5h1M1 7h1M3 7h2M14 7h1M2 8h3M14 8h1M2 9h1M14 9h1M5 10h1M14 10h1M14 11h1M14 12h1M14 13h1M7 14h8" />
<path stroke="#ffffff" d="M0 0h1M6 1h1M3 2h1M5 2h1M2 3h1M3 4h1M7 4h2M10 4h2M2 5h1M8 5h3M13 5h1M1 6h1M7 6h2M11 6h1M2 7h1M8 7h3M12 7h2M7 8h1M8 9h3M12 9h2M7 10h1M8 11h3M12 11h2M7 12h1M8 13h3M12 13h2" />
<path stroke="#0000ff" d="M0 0h1M7 1h1M10 1h2M6 2h1M8 2h1M11 2h1M4 5h2M2 6h1M4 6h1M9 6h2M8 8h5M3 9h1M2 10h3M8 10h5M1 11h1M3 11h3M2 12h4M8 12h5M3 13h2" />
<path stroke="#008080" d="M0 0h1M8 1h2M4 3h1M1 8h1M1 9h1M4 9h1" />
<path stroke="#008000" d="M0 0h1M7 2h1M9 2h2M5 3h1M4 4h2M3 6h1M5 6h1M1 10h1M2 11h1" />
<path stroke="#000080" d="M0 0h1M12 2h1M1 12h1M2 13h1M5 13h1M3 14h3" />
<path stroke="#000000" d="M0 0h1M13 3h1M12 6h4M15 7h1M15 8h1M15 9h1M15 10h1M15 11h1M15 12h1M15 13h1M15 14h1M5 15h11" />
<path stroke="#ffff00" d="M0 0h1M9 4h1M7 5h1M11 5h1M7 7h1M11 7h1M13 8h1M7 9h1M11 9h1M13 10h1M7 11h1M11 11h1M13 12h1M7 13h1M11 13h1" />
</svg>