<svg xmlns="http://www.w3.org/2000/svg" width="16" height="16" shape-rendering="crispEdges" viewBox="0 -0.5 16 16"><path stroke="gray" d="M5 0h5M3 1h2M2 2h1M1 3h1m4 0h7M1 4h1m4 0h1m6 0h1M0 5h1m5 0h1m7 0h1M0 6h1m5 0h1M0 7h1m4 0h2M0 8h1m4 0h2M0 9h1m4 0h2m-7 1h1m5 0h1m-1 1h1m-1 1h1m-1 1h1m-1 1h1"/><path stroke="silver" d="M5 1h1M4 2h1M3 3h1M2 4h1m9 0h1M1 5h1m1 0h1m8 0h1M1 7h1m1 0h2m9 0h1M2 8h3m9 0h1M2 9h1m11 0h1M5 10h1m8 0h1m-1 1h1m-1 1h1m-1 1h1m-8 1h8"/><path stroke="#fff" d="M6 1h1M3 2h1m1 0h1M2 3h1m0 1h1m3 0h2m1 0h2M2 5h1m5 0h3m2 0h1M1 6h1m5 0h2m2 0h1M2 7h1m5 0h3m1 0h2M7 8h1m0 1h3m1 0h2m-7 1h1m0 1h3m1 0h2m-7 1h1m0 1h3m1 0h2"/><path stroke="#00f" d="M7 1h1m2 0h2M6 2h1m1 0h1m2 0h1M4 5h2M2 6h1m1 0h1m4 0h2M8 8h5M3 9h1m-2 1h3m3 0h5M1 11h1m1 0h3m-4 1h4m2 0h5M3 13h2"/><path stroke="teal" d="M8 1h2M4 3h1M1 8h1M1 9h1m2 0h1"/><path stroke="green" d="M7 2h1m1 0h2M5 3h1M4 4h2M3 6h1m1 0h1m-5 4h1m0 1h1"/><path stroke="navy" d="M12 2h1M1 12h1m0 1h1m2 0h1m-3 1h3"/><path stroke="#000" d="M13 3h1m-2 3h4m-1 1h1m-1 1h1m-1 1h1m-1 1h1m-1 1h1m-1 1h1m-1 1h1m-1 1h1M5 15h11"/><path stroke="#ff0" d="M9 4h1M7 5h1m3 0h1M7 7h1m3 0h1m1 1h1M7 9h1m3 0h1m1 1h1m-7 1h1m3 0h1m1 1h1m-7 1h1m3 0h1"/></svg>