<svg xmlns="http://www.w3.org/2000/svg" width="32" height="32" shape-rendering="crispEdges" viewBox="0 -0.5 32 32"><path stroke="#000" d="M10 0h20M10 1h1m17 0h2M10 2h1m15 0h2m1 0h1M10 3h1m13 0h2m3 0h1M10 4h1m11 0h2m5 0h1M10 5h1m9 0h2m7 0h1M10 6h1m7 0h2m9 0h1M10 7h1m5 0h2m11 0h1M9 8h2m5 0h1m12 0h1M9 9h2m5 0h1m12 0h1M9 10h3m4 0h1m12 0h1M0 11h1m1 0h1m1 0h9m3 0h1m12 0h1M0 12h1m1 0h1m1 0h10m2 0h1m12 0h1M0 13h1m1 0h1m1 0h11m1 0h1m12 0h1M0 14h1m1 0h1m1 0h10m2 0h1m12 0h1M0 15h1m1 0h1m1 0h9m3 0h1m2 0h2m8 0h1M9 16h3m4 0h1m1 0h1m1 0h1m8 0h1M9 17h2m5 0h1m1 0h3m8 0h1M9 18h2m5 0h1m2 0h2m8 0h1m-20 1h1m5 0h1m12 0h1m-20 1h1m5 0h1m12 0h1m-20 1h1m5 0h1m12 0h1m-20 1h5m1 0h1m12 0h1m-20 1h1m5 0h1m12 0h1m-20 1h1m5 0h1m12 0h1M0 25h11m5 0h1m11 0h4m-16 1h1m9 0h2m-12 1h1m7 0h2m-10 1h1m5 0h2m-8 1h1m3 0h2m-6 1h1m1 0h2m-4 1h2"/><path stroke="#fff" d="M11 1h17M11 2h15m2 0h1M11 3h13m2 0h3M11 4h11m2 0h5M11 5h9m2 0h7M11 6h7m2 0h9M11 7h5m2 0h11M11 8h5m1 0h12M11 9h5m1 0h12m-17 1h4m1 0h12m-16 1h3m1 0h12m-15 1h2m1 0h12m-14 1h1m1 0h12m-15 1h2m1 0h12m-16 1h3m1 0h2m2 0h8m-17 1h4m1 0h1m1 0h1m1 0h8m-18 1h5m1 0h1m3 0h8m-18 1h5m1 0h2m2 0h8m-18 1h5m1 0h12m-18 1h5m1 0h12m-18 1h5m1 0h12m-14 1h1m1 0h12m-14 1h1m1 0h12m-14 1h1m1 0h12m-14 1h1m1 0h11m-13 1h1m1 0h9m-11 1h1m1 0h7m-9 1h1m1 0h5m-7 1h1m1 0h3m-5 1h1m1 0h1"/></svg>