<svg xmlns="http://www.w3.org/2000/svg" width="32" height="32" shape-rendering="crispEdges" viewBox="0 -0.5 32 32"><path stroke="#000" d="M11 0h8M8 1h4m6 0h4M6 2h3m12 0h3M5 3h2m16 0h2M4 4h1m20 0h1M3 5h1m8 0h6m8 0h1M2 6h1m8 0h1m3 0h4m8 0h1M1 7h2m7 0h2m4 0h4m7 0h2M1 8h1m8 0h4m2 0h4m8 0h1M0 9h2m8 0h4m2 0h4m8 0h2M0 10h1m10 0h2m2 0h4m10 0h1M0 11h1m14 0h3m11 0h1M0 12h1m13 0h3m12 0h1M0 13h1m13 0h2m13 0h1M0 14h1m13 0h2m13 0h1M0 15h2m26 0h2M1 16h1m12 0h2m12 0h1M1 17h2m10 0h4m10 0h2M2 18h1m10 0h4m10 0h1M3 19h1m10 0h2m10 0h1M4 20h1m20 0h1M5 21h2m16 0h2M6 22h3m12 0h3M8 23h4m6 0h4m-11 1h4m3 0h1m-5 1h1m3 0h1m-5 1h1m3 0h1m-4 1h1m2 0h1m-3 1h1m1 0h1m-2 1h2"/><path stroke="#fff" d="M12 1h6M9 2h12M7 3h16M5 4h20M4 5h8m6 0h8M3 6h8m1 0h3m4 0h8M3 7h7m2 0h4m4 0h7M2 8h8m4 0h2m4 0h8M2 9h8m4 0h2m4 0h8M1 10h10m2 0h2m4 0h10M1 11h14m3 0h11M1 12h13m3 0h12M1 13h13m2 0h13M1 14h13m2 0h13M2 15h26M2 16h12m2 0h12M3 17h10m4 0h10M3 18h10m4 0h10M4 19h10m2 0h10M5 20h20M7 21h16M9 22h12m-9 1h6m-3 1h3m-3 1h3m-3 1h3m-2 1h2m-1 1h1"/></svg>