<svg xmlns="http://www.w3.org/2000/svg" width="12" height="12" shape-rendering="crispEdges" viewBox="0 -0.5 12 12"><path stroke="#000" d="M6 1h4M5 2h6M0 3h1m3 0h2m1 0h2m1 0h2M2 4h3m2 0h2m2 0h1M4 5h1m1 0h4m1 0h1M4 6h2m1 0h2m1 0h2M4 7h1m2 0h2m2 0h1M4 8h1m1 0h4m1 0h1M0 9h1m3 0h8M2 10h4m4 0h2"/><path stroke="gray" d="M1 3h1m1 0h1M1 5h1m1 0h1M1 7h1m1 0h1M1 9h1m1 0h1"/><path stroke="red" d="M6 3h1M5 4h2M0 5h1m1 1h2"/><path stroke="#0f0" d="M9 3h1M9 4h1"/><path stroke="green" d="M10 4h1m-1 1h1"/><path stroke="maroon" d="M5 5h1"/><path stroke="#00f" d="M6 6h1M0 7h1m4 0h2M2 8h2m1 0h1"/><path stroke="#ff0" d="M9 6h1M9 7h1"/><path stroke="olive" d="M10 7h1m-1 1h1"/></svg>