<svg xmlns="http://www.w3.org/2000/svg" width="32" height="32" shape-rendering="crispEdges" viewBox="0 -0.5 32 32"><path stroke="silver" d="M2 4h27M2 5h1M2 6h1m1 0h24M2 7h1m1 0h1m22 0h1M2 8h1m1 0h1m22 0h1M2 9h1m1 0h1m22 0h1M2 10h1m1 0h24M2 11h1m1 0h1m22 0h1M2 12h1m1 0h1m22 0h1M2 13h1m1 0h24M2 14h1m1 0h24M2 15h1m1 0h24M2 16h1m1 0h24M2 17h1m1 0h24M2 18h1m1 0h24M2 19h1m1 0h24M2 20h1m1 0h24M2 21h1m1 0h24M2 22h1m1 0h24M2 23h1m1 0h24M2 24h1m1 0h24M2 25h1m1 0h24M2 26h1"/><path stroke="#000" d="M29 4h1m-1 1h1m-1 1h1m-1 1h1m-1 1h1m-1 1h1m-1 1h1m-1 1h1m-1 1h1m-1 1h1m-1 1h1m-1 1h1m-1 1h1m-1 1h1m-1 1h1m-1 1h1m-1 1h1m-1 1h1m-1 1h1m-1 1h1m-1 1h1m-1 1h1m-1 1h1M2 27h28"/><path stroke="#fff" d="M3 5h25M3 6h1M3 7h1M3 8h1M3 9h1m-1 1h1m-1 1h1m-1 1h1m1 0h22M3 13h1m-1 1h1m-1 1h1m-1 1h1m-1 1h1m-1 1h1m-1 1h1m-1 1h1m-1 1h1m-1 1h1m-1 1h1m-1 1h1m-1 1h1"/><path stroke="gray" d="M28 5h1m-1 1h1m-1 1h1m-1 1h1m-1 1h1m-1 1h1M5 11h22m1 0h1m-1 1h1m-1 1h1m-1 1h1m-1 1h1m-1 1h1m-1 1h1m-1 1h1m-1 1h1m-1 1h1m-1 1h1m-1 1h1m-1 1h1m-1 1h1m-1 1h1M3 26h26"/><path stroke="#00f" d="M5 7h22M5 8h22M5 9h22"/></svg>