<svg xmlns="http://www.w3.org/2000/svg" viewBox="0 -0.5 16 16" shape-rendering="crispEdges">
<path stroke="#c0c0c0" d="M0 0h1M1 2h13M1 3h1M1 4h1M3 4h10M1 5h1M3 5h1M12 5h1M1 6h1M3 6h1M12 6h1M1 7h1M3 7h10M1 8h1M3 8h1M12 8h1M1 9h1M3 9h10M1 10h1M3 10h10M1 11h1M3 11h10M1 12h1" />
<path stroke="#000000" d="M0 0h1M14 2h1M14 3h1M14 4h1M14 5h1M14 6h1M14 7h1M14 8h1M14 9h1M14 10h1M14 11h1M14 12h1M1 13h14" />
<path stroke="#ffffff" d="M0 0h1M2 3h11M2 4h1M2 5h1M2 6h1M2 7h1M2 8h1M2 9h1M2 10h1M2 11h1" />
<path stroke="#808080" d="M0 0h1M13 3h1M13 4h1M13 5h1M13 6h1M13 7h1M4 8h8M13 8h1M13 9h1M13 10h1M13 11h1M2 12h12" />
<path stroke="#0000ff" d="M0 0h1M4 5h8M4 6h8" />
</svg>