<svg xmlns="http://www.w3.org/2000/svg" width="22" height="22" shape-rendering="crispEdges" viewBox="0 -0.5 22 22"><path stroke="#000" d="M14 3h6M0 4h1m11 0h9M0 5h1m1 0h1m6 0h1m1 0h3m2 0h1m2 0h3M2 6h1m1 0h1m1 0h1m1 0h2m1 0h2m3 0h1m3 0h2M4 7h1m1 0h1m1 0h1m2 0h2m3 0h1m3 0h2M11 8h2m3 0h1m3 0h2M11 9h2m1 0h5m1 0h2M0 10h1m10 0h11M0 11h1m1 0h1m6 0h1m1 0h3m2 0h1m3 0h2M2 12h1m1 0h1m1 0h1m1 0h2m1 0h2m3 0h1m3 0h2M4 13h1m1 0h1m1 0h1m2 0h2m3 0h1m3 0h2m-11 1h2m3 0h1m3 0h2m-11 1h2m1 0h5m1 0h2M0 16h1m10 0h11M0 17h1m1 0h1m6 0h1m1 0h4m3 0h4M2 18h1m1 0h1m1 0h1m1 0h2m1 0h2m7 0h2M4 19h1m1 0h1m1 0h1"/><path stroke="maroon" d="M14 5h1"/><path stroke="red" d="M15 5h1m-3 1h3M0 7h1m12 0h3M0 8h1m1 0h1m6 0h1m3 0h3M2 9h1m1 0h1m1 0h1m1 0h2m3 0h1M4 10h1m1 0h1m1 0h1"/><path stroke="#0f0" d="M17 5h1m-1 1h3m-3 1h3m-3 1h3"/><path stroke="green" d="M18 5h1m0 4h1"/><path stroke="navy" d="M14 11h1"/><path stroke="#00f" d="M15 11h1m-3 1h3M0 13h1m12 0h3M0 14h1m1 0h1m6 0h1m3 0h3M2 15h1m1 0h1m1 0h1m1 0h2m3 0h1M4 16h1m1 0h1m1 0h1"/><path stroke="#ff0" d="M17 11h2m-2 1h3m-3 1h3m-3 1h3"/><path stroke="olive" d="M19 11h1m-1 4h1"/></svg>