<svg xmlns="http://www.w3.org/2000/svg" width="32" height="32" shape-rendering="crispEdges" viewBox="0 -0.5 32 32"><path stroke="gray" d="M11 0h8M8 1h3m8 0h3M6 2h2m14 0h2M5 3h1m18 0h1M4 4h1M3 5h1M2 6h1M1 7h1M1 8h1m27 0h1M0 9h1m29 0h1M0 10h1m29 0h1M0 11h1m29 0h2M0 12h1m29 0h2M0 13h1m29 0h2M0 14h1m29 0h2M0 15h1m29 0h2M1 16h1m27 0h3M1 17h1m27 0h3M2 18h1m25 0h3m-4 1h4m-5 1h4m-5 1h4m-5 1h4M7 23h1m14 0h5M8 24h3m8 0h7m-16 1h4m5 0h5m-11 1h1m5 0h2m-2 1h2m-2 1h2m-2 1h2m-3 1h3m-2 1h2"/><path stroke="silver" d="M11 1h1m6 0h1M8 2h1m12 0h1M6 3h1m16 0h1M11 5h1m6 0h1m-9 1h1m1 0h1m6 0h1M2 7h1m24 0h1M1 9h1m13 0h1m12 0h1m-19 1h1m2 0h1m0 1h1m1 2h1M1 15h1m26 0h1m-16 1h1m2 0h1M2 17h1m24 0h1m-15 2h1m2 0h1M6 21h1m16 0h1M8 22h1m12 0h1m-11 1h1m6 0h1m-5 1h1"/><path stroke="#fff" d="M12 1h6M9 2h12M7 3h16M5 4h20M4 5h7m8 0h7M3 6h7m3 0h2m5 0h7M3 7h7m2 0h4m4 0h7M2 8h8m4 0h2m4 0h8M2 9h8m4 0h1m5 0h8M1 10h9m4 0h1m4 0h10M1 11h13m4 0h11M1 12h13m3 0h12M1 13h13m3 0h12M1 14h13m2 0h13M2 15h26M2 16h11m4 0h11M3 17h10m4 0h10M3 18h10m4 0h10M4 19h9m4 0h9M5 20h20M7 21h16M9 22h12m-9 1h6m-3 1h3m-3 1h3m-3 1h3m-2 1h2m-1 1h1"/><path stroke="#000" d="M25 4h1m0 1h1m0 1h1m0 1h1m-1 1h1m0 1h1m-1 1h1m-1 1h1m-1 1h1m-1 1h1m-1 1h1m-1 1h1m-2 1h1m-1 1h1m-2 1h1M3 19h1m22 0h1M4 20h1m20 0h1M5 21h1m18 0h1M6 22h2m14 0h2M8 23h3m8 0h3m-11 1h3m4 0h1m-5 1h1m3 0h1m-5 1h1m3 0h1m-4 1h1m2 0h1m-3 1h1m1 0h1m-2 1h2"/><path stroke="#00f" d="M12 5h6m-7 1h1m3 0h4m-9 1h2m4 0h4M10 8h4m2 0h4M10 9h4m2 0h4m-9 1h2m2 0h4m-4 1h3m-4 1h3m-3 1h2m-2 1h2m-2 2h2m-3 1h4m-4 1h4m-3 1h2"/></svg>