<svg xmlns="http://www.w3.org/2000/svg" width="32" height="32" shape-rendering="crispEdges" viewBox="0 -0.5 32 32"><path stroke="#000" d="M10 0h20M10 1h1m18 0h1M10 2h1m18 0h1M10 3h1m18 0h1M10 4h1m18 0h1M10 5h1m18 0h1M10 6h1m18 0h1M10 7h1m18 0h1M10 8h1m18 0h1m-1 1h1m-1 1h1m-1 1h1m-1 1h1m-1 1h1m-1 1h1m-10 1h1m8 0h1m-10 1h1m8 0h1m-12 1h1m1 0h1m8 0h1m-20 1h1m8 0h2m8 0h1m-20 1h1m18 0h1m-20 1h1m18 0h1m-20 1h1m18 0h1m-20 1h5m14 0h1m-20 1h1m18 0h1m-20 1h1m18 0h1M0 25h11m17 0h4m-6 1h2m-4 1h2m-4 1h2m-4 1h2m-4 1h2m-4 1h2"/><path stroke="gray" d="M11 1h17M11 2h15M11 3h13M11 4h11M11 5h9m-9 1h7m-7 1h5m-5 1h5m-5 1h5m-4 1h4m-3 1h3m-2 1h2m-1 1h1m-2 1h2m-3 1h3m3 0h1m-8 1h4m2 0h1m-8 1h5m3 0h1m-9 1h5m-5 1h5m-5 1h5m-5 1h5m-1 1h1m-1 1h1m-1 1h1m-1 1h1m-1 1h1m-1 1h1m-1 1h1m-1 1h1m-1 1h1"/><path stroke="#0ff" d="M28 1h1m-3 1h2m-4 1h2m-4 1h2m-4 1h2m-4 1h2m-4 1h2m-2 1h1m-1 1h1m-1 1h1m-1 1h1m-1 1h1m-1 1h1m-1 1h1m-1 1h1m-1 1h1m-1 1h1m-1 1h1m-1 1h1m-1 1h1m-1 1h1m-1 1h1m-1 1h1m-1 1h1m-1 1h1m-1 1h1m-1 1h1m-1 1h1m-1 1h1m-1 1h1"/><path stroke="#00bfbf" d="M28 2h1m-3 1h3m-5 1h5m-7 1h7m-9 1h9M18 7h11M17 8h12M17 9h12m-12 1h12m-12 1h12m-12 1h12m-12 1h12m-12 1h12m-12 1h2m2 0h8m-12 1h1m3 0h8m-12 1h1m3 0h8m-12 1h2m2 0h8m-12 1h12m-12 1h12m-12 1h12m-12 1h12m-12 1h12m-12 1h12m-12 1h11m-11 1h9m-9 1h7m-7 1h5m-5 1h3m-3 1h1"/><path stroke="red" d="M9 8h1M9 9h2m-2 1h3M0 11h1m1 0h1m1 0h9M0 12h1m1 0h1m1 0h10M0 13h1m1 0h1m1 0h10M0 14h1m1 0h1m1 0h9m-4 1h3m-3 1h2m-2 1h1"/><path stroke="#bf0000" d="M14 13h1m-2 1h1M0 15h1m1 0h1m1 0h5m3 0h1m-2 1h1m-2 1h1m-2 1h1"/><path stroke="#fff" d="M19 16h1"/></svg>