<svg xmlns="http://www.w3.org/2000/svg" width="32" height="32" shape-rendering="crispEdges" viewBox="0 -0.5 32 32"><path stroke="#000" d="M13 0h3m-4 1h1m2 0h2m-6 1h1m4 0h2m-7 1h1m5 0h1m-8 1h1m6 0h2m-9 1h1m7 0h1M9 6h1m8 0h2M9 7h1m9 0h1M8 8h1m10 0h2M8 9h1m4 0h3m4 0h1M7 10h1m4 0h5m3 0h2M7 11h1m4 0h5m4 0h1M6 12h1m5 0h5m4 0h2M6 13h1m5 0h5m5 0h1M5 14h1m6 0h5m5 0h2M5 15h1m7 0h3m7 0h1M4 16h1m8 0h3m7 0h2M4 17h1m8 0h3m8 0h1M3 18h1m10 0h1m9 0h2M3 19h1m10 0h1m10 0h1M2 20h1m11 0h1m10 0h2M2 21h1m23 0h1M1 22h1m12 0h2m10 0h2M1 23h1m11 0h4m10 0h1M0 24h1m12 0h4m10 0h2M0 25h1m13 0h2m12 0h1M0 26h1m27 0h1M0 27h1m26 0h2M1 28h1m24 0h2M2 29h25"/><path stroke="#fff" d="M13 1h2m-3 1h4m-4 1h5m-6 1h6m-6 1h7m-8 1h8m-8 1h9M9 8h10M9 9h4m3 0h4M8 10h4m5 0h3M8 11h4m5 0h4M7 12h5m5 0h4M7 13h5m5 0h5M6 14h6m5 0h5M6 15h7m3 0h7M5 16h8m3 0h7M5 17h8m3 0h8M4 18h10m1 0h9M4 19h10m1 0h10M3 20h11m1 0h10M3 21h23M2 22h12m2 0h10M2 23h11m4 0h10M1 24h12m4 0h10M1 25h13m2 0h12M1 26h27M1 27h26M2 28h24"/></svg>