<svg xmlns="http://www.w3.org/2000/svg" width="16" height="16" shape-rendering="crispEdges" viewBox="0 -0.5 16 16"><path stroke="#000" d="M9 1h4M7 2h8M0 3h1m5 0h3m1 0h2m1 0h3M0 4h1m1 0h1m1 0h4m2 0h2m2 0h2M2 5h6m2 0h2m2 0h2M6 6h2m1 0h4m1 0h2M6 7h10M6 8h3m1 0h2m1 0h3M6 9h2m2 0h2m2 0h2M6 10h2m2 0h2m2 0h2M6 11h2m1 0h4m1 0h2M0 12h1m5 0h10M0 13h1m1 0h1m1 0h5m4 0h3M2 14h5m8 0h1"/><path stroke="red" d="M9 3h1M8 4h2M8 5h2M0 6h1m7 0h1M0 7h1m1 0h1m1 0h2M2 8h4"/><path stroke="#0f0" d="M12 3h1m-1 1h2m-2 1h2m-1 1h1"/><path stroke="#00f" d="M9 8h1M0 9h1m7 0h2M0 10h1m1 0h1m1 0h2m2 0h2m-8 1h4m2 0h1"/><path stroke="#ff0" d="M12 8h1m-1 1h2m-2 1h2m-1 1h1"/></svg>