<svg xmlns="http://www.w3.org/2000/svg" width="16" height="16" shape-rendering="crispEdges" viewBox="0 -0.5 16 16"><path stroke="#000" d="M2 1h7M1 2h10M1 3h10M0 4h8m2 0h1M0 5h6m3 0h1M0 6h5m4 0h1M0 7h4m6 0h1M0 8h4m5 0h1M0 9h5m4 0h1m-9 1h3m5 0h1m-8 1h2m2 0h3m-7 1h1m4 0h1m-7 1h3m4 0h1m-9 1h1m3 0h2m1 0h1m1 0h1m-4 1h2"/><path stroke="silver" d="M8 4h1M7 5h1M6 6h1M5 7h1m1 0h1m1 0h1M4 8h1m1 0h1m1 0h1M5 9h1m1 0h1m-4 1h1m1 0h1m1 0h1m-4 1h1m-2 1h1m1 0h1m-2 1h1m1 0h1m-2 1h1"/><path stroke="#fff" d="M9 4h1M6 5h1m1 0h1M5 6h1m1 0h1M4 7h1m1 0h1m1 0h1M5 8h1m1 0h1M6 9h1m1 0h1m-4 1h1m1 0h1m-4 1h1m-2 1h1m1 0h1m-2 1h1m1 0h1"/><path stroke="navy" d="M8 6h1"/><path stroke="#00f" d="M1 14h3m4 0h1m-9 1h6m2 0h2"/></svg>