<svg xmlns="http://www.w3.org/2000/svg" width="14" height="14" shape-rendering="crispEdges" viewBox="0 -0.5 14 14"><path stroke="#000" d="M0 1h1m6 0h5M0 2h1m1 0h1m1 0h9M2 3h6m1 0h1m1 0h3M5 4h2m2 0h1m2 0h2M5 5h2m1 0h3m1 0h2M5 6h9M5 7h3m1 0h1m1 0h3M5 8h2m2 0h1m2 0h2M5 9h2m1 0h3m1 0h2M0 10h1m4 0h9M0 11h1m1 0h1m1 0h4m3 0h3M2 12h4m7 0h1"/><path stroke="red" d="M8 3h1M0 4h1m6 0h2M0 5h1m1 0h1m1 0h1m2 0h1M2 6h3"/><path stroke="#0f0" d="M10 3h1m-1 1h2m-1 1h1"/><path stroke="#00f" d="M0 7h1m7 0h1M0 8h1m1 0h1m1 0h1m2 0h2M2 9h3m2 0h1"/><path stroke="#ff0" d="M10 7h1m-1 1h2m-1 1h1"/></svg>