<svg xmlns="http://www.w3.org/2000/svg" width="16" height="16" shape-rendering="crispEdges" viewBox="0 -0.5 16 16"><path stroke="silver" d="M1 2h13M1 3h1M1 4h1m1 0h10M1 5h1m1 0h1m8 0h1M1 6h1m1 0h1m8 0h1M1 7h1m1 0h10M1 8h1m1 0h1m8 0h1M1 9h1m1 0h10M1 10h1m1 0h10M1 11h1m1 0h10M1 12h1"/><path stroke="#000" d="M14 2h1m-1 1h1m-1 1h1m-1 1h1m-1 1h1m-1 1h1m-1 1h1m-1 1h1m-1 1h1m-1 1h1m-1 1h1M1 13h14"/><path stroke="#fff" d="M2 3h11M2 4h1M2 5h1M2 6h1M2 7h1M2 8h1M2 9h1m-1 1h1m-1 1h1"/><path stroke="gray" d="M13 3h1m-1 1h1m-1 1h1m-1 1h1m-1 1h1M4 8h8m1 0h1m-1 1h1m-1 1h1m-1 1h1M2 12h12"/><path stroke="#00f" d="M4 5h8M4 6h8"/></svg>