<svg xmlns="http://www.w3.org/2000/svg" viewBox="0 -0.5 32 32" shape-rendering="crispEdges">
<path stroke="#800000" d="M0 0h1M11 0h8M8 1h3M19 1h3M7 2h1M22 2h1M5 3h2M23 3h2M4 4h1M25 4h1M3 5h1M26 5h1M3 6h1M26 6h1M2 7h1M27 7h1M1 8h1M28 8h1M1 9h1M28 9h1M1 10h1M28 10h1M0 11h1M29 11h1M0 12h1M29 12h1M0 13h1M29 13h1M0 14h1M29 14h1M0 15h1M29 15h1M0 16h1M29 16h1M0 17h1M29 17h1M0 18h1M29 18h1M1 19h1M28 19h1M1 20h1M28 20h1M1 21h1M28 21h1M2 22h1M27 22h1M3 23h1M26 23h1M3 24h1M26 24h1M4 25h1M25 25h1M5 26h2M23 26h2M7 27h1M22 27h1M8 28h3M19 28h3M11 29h8" />
<path stroke="#ff0000" d="M0 0h1M11 1h8M8 2h14M7 3h16M5 4h20M4 5h22M4 6h22M3 7h6M10 7h10M21 7h6M2 8h6M11 8h8M22 8h6M2 9h5M12 9h6M23 9h5M2 10h6M13 10h4M22 10h6M1 11h8M14 11h2M21 11h8M1 12h9M20 12h9M1 13h10M19 13h10M1 14h11M18 14h11M1 15h11M18 15h11M1 16h10M19 16h10M1 17h9M20 17h9M1 18h8M14 18h2M21 18h8M2 19h6M13 19h4M22 19h6M2 20h5M12 20h6M23 20h5M2 21h6M11 21h8M22 21h6M3 22h6M10 22h10M21 22h6M4 23h22M4 24h22M5 25h20M7 26h16M8 27h14M11 28h8" />
<path stroke="#808080" d="M0 0h1M27 6h1M28 7h1M29 9h1M29 10h2M30 11h1M30 12h1M30 13h2M30 14h2M30 15h2M30 16h2M30 17h2M30 18h2M29 19h3M29 20h3M29 21h2M28 22h3M27 23h4M27 24h3M26 25h3M25 26h4M6 27h1M23 27h5M7 28h1M22 28h5M9 29h2M19 29h6M10 30h14M13 31h8" />
<path stroke="#ffffff" d="M0 0h1M9 7h1M20 7h1M8 8h3M19 8h3M7 9h5M18 9h5M8 10h5M17 10h5M9 11h5M16 11h5M10 12h10M11 13h8M12 14h6M12 15h6M11 16h8M10 17h10M9 18h5M16 18h5M8 19h5M17 19h5M7 20h5M18 20h5M8 21h3M19 21h3M9 22h1M20 22h1" />
</svg>