<svg xmlns="http://www.w3.org/2000/svg" width="10" height="10" shape-rendering="crispEdges" viewBox="0 -0.5 10 10"><path stroke="#000" d="M0 1h1m3 0h5M1 2h4m1 0h1m1 0h2M3 3h1m2 0h1m2 0h1M3 4h1m1 0h3m1 0h1M3 5h2m1 0h1m1 0h2M3 6h1m2 0h1m2 0h1M0 7h1m2 0h1m1 0h3m1 0h1M1 8h4m3 0h2"/><path stroke="red" d="M5 2h1M0 3h1m3 0h2M1 4h2"/><path stroke="#0f0" d="M7 2h1M7 3h2"/><path stroke="maroon" d="M4 4h1"/><path stroke="green" d="M8 4h1"/><path stroke="#00f" d="M0 5h1m4 0h1M1 6h2m1 0h2"/><path stroke="#ff0" d="M7 5h1M7 6h2"/><path stroke="navy" d="M4 7h1"/><path stroke="olive" d="M8 7h1"/></svg>