<svg xmlns="http://www.w3.org/2000/svg" width="32" height="32" shape-rendering="crispEdges" viewBox="0 -0.5 32 32"><path stroke="maroon" d="M11 0h8M8 1h3m8 0h3M7 2h1m14 0h1M5 3h2m16 0h2M4 4h1m20 0h1M3 5h1m22 0h1M3 6h1m22 0h1M2 7h1m24 0h1M1 8h1m26 0h1M1 9h1m26 0h1M1 10h1m26 0h1M0 11h1m28 0h1M0 12h1m28 0h1M0 13h1m28 0h1M0 14h1m28 0h1M0 15h1m28 0h1M0 16h1m28 0h1M0 17h1m28 0h1M0 18h1m28 0h1M1 19h1m26 0h1M1 20h1m26 0h1M1 21h1m26 0h1M2 22h1m24 0h1M3 23h1m22 0h1M3 24h1m22 0h1M4 25h1m20 0h1M5 26h2m16 0h2M7 27h1m14 0h1M8 28h3m8 0h3m-11 1h8"/><path stroke="red" d="M11 1h8M8 2h14M7 3h16M5 4h20M4 5h22M4 6h22M3 7h6m1 0h10m1 0h6M2 8h6m3 0h8m3 0h6M2 9h5m5 0h6m5 0h5M2 10h6m5 0h4m5 0h6M1 11h8m5 0h2m5 0h8M1 12h9m10 0h9M1 13h10m8 0h10M1 14h11m6 0h11M1 15h11m6 0h11M1 16h10m8 0h10M1 17h9m10 0h9M1 18h8m5 0h2m5 0h8M2 19h6m5 0h4m5 0h6M2 20h5m5 0h6m5 0h5M2 21h6m3 0h8m3 0h6M3 22h6m1 0h10m1 0h6M4 23h22M4 24h22M5 25h20M7 26h16M8 27h14m-11 1h8"/><path stroke="gray" d="M27 6h1m0 1h1m0 2h1m-1 1h2m-1 1h1m-1 1h1m-1 1h2m-2 1h2m-2 1h2m-2 1h2m-2 1h2m-2 1h2m-3 1h3m-3 1h3m-3 1h2m-3 1h3m-4 1h4m-4 1h3m-4 1h3m-4 1h4M6 27h1m16 0h5M7 28h1m14 0h5M9 29h2m8 0h6m-15 1h14m-11 1h8"/><path stroke="#fff" d="M9 7h1m10 0h1M8 8h3m8 0h3M7 9h5m6 0h5M8 10h5m4 0h5M9 11h5m2 0h5m-11 1h10m-9 1h8m-7 1h6m-6 1h6m-7 1h8m-9 1h10M9 18h5m2 0h5M8 19h5m4 0h5M7 20h5m6 0h5M8 21h3m8 0h3M9 22h1m10 0h1"/></svg>