<svg xmlns="http://www.w3.org/2000/svg" viewBox="0 -0.5 32 32" shape-rendering="crispEdges">
<path stroke="#000000" d="M0 0h1M10 0h20M10 1h1M29 1h1M10 2h1M29 2h1M10 3h1M29 3h1M10 4h1M29 4h1M10 5h1M29 5h1M10 6h1M29 6h1M10 7h1M29 7h1M10 8h1M29 8h1M29 9h1M29 10h1M29 11h1M29 12h1M29 13h1M29 14h1M20 15h1M29 15h1M20 16h1M29 16h1M18 17h1M20 17h1M29 17h1M10 18h1M19 18h2M29 18h1M10 19h1M29 19h1M10 20h1M29 20h1M10 21h1M29 21h1M10 22h5M29 22h1M10 23h1M29 23h1M10 24h1M29 24h1M0 25h11M28 25h4M26 26h2M24 27h2M22 28h2M20 29h2M18 30h2M16 31h2" />
<path stroke="#808080" d="M0 0h1M11 1h17M11 2h15M11 3h13M11 4h11M11 5h9M11 6h7M11 7h5M11 8h5M11 9h5M12 10h4M13 11h3M14 12h2M15 13h1M14 14h2M13 15h3M19 15h1M12 16h4M18 16h1M11 17h5M19 17h1M11 18h5M11 19h5M11 20h5M11 21h5M15 22h1M15 23h1M15 24h1M15 25h1M15 26h1M15 27h1M15 28h1M15 29h1M15 30h1" />
<path stroke="#00ffff" d="M0 0h1M28 1h1M26 2h2M24 3h2M22 4h2M20 5h2M18 6h2M16 7h2M16 8h1M16 9h1M16 10h1M16 11h1M16 12h1M16 13h1M16 14h1M16 15h1M16 16h1M16 17h1M16 18h1M16 19h1M16 20h1M16 21h1M16 22h1M16 23h1M16 24h1M16 25h1M16 26h1M16 27h1M16 28h1M16 29h1M16 30h1" />
<path stroke="#00bfbf" d="M0 0h1M28 2h1M26 3h3M24 4h5M22 5h7M20 6h9M18 7h11M17 8h12M17 9h12M17 10h12M17 11h12M17 12h12M17 13h12M17 14h12M17 15h2M21 15h8M17 16h1M21 16h8M17 17h1M21 17h8M17 18h2M21 18h8M17 19h12M17 20h12M17 21h12M17 22h12M17 23h12M17 24h12M17 25h11M17 26h9M17 27h7M17 28h5M17 29h3M17 30h1" />
<path stroke="#ff0000" d="M0 0h1M9 8h1M9 9h2M9 10h3M0 11h1M2 11h1M4 11h9M0 12h1M2 12h1M4 12h10M0 13h1M2 13h1M4 13h10M0 14h1M2 14h1M4 14h9M9 15h3M9 16h2M9 17h1" />
<path stroke="#bf0000" d="M0 0h1M14 13h1M13 14h1M0 15h1M2 15h1M4 15h5M12 15h1M11 16h1M10 17h1M9 18h1" />
<path stroke="#ffffff" d="M0 0h1M19 16h1" />
</svg>