<svg xmlns="http://www.w3.org/2000/svg" width="32" height="32" shape-rendering="crispEdges" viewBox="0 -0.5 32 32"><path stroke="#000" d="M2 4h28M2 5h1m26 0h1M2 6h1m1 0h24m1 0h1M2 7h1m1 0h24m1 0h1M2 8h1m1 0h24m1 0h1M2 9h1m1 0h24m1 0h1M2 10h1m1 0h1m22 0h1m1 0h1M2 11h1m1 0h24m1 0h1M2 12h1m1 0h1m22 0h1m1 0h1M2 13h1m1 0h1m22 0h1m1 0h1M2 14h1m1 0h1m22 0h1m1 0h1M2 15h1m1 0h1m22 0h1m1 0h1M2 16h1m1 0h1m22 0h1m1 0h1M2 17h1m1 0h1m22 0h1m1 0h1M2 18h1m1 0h1m22 0h1m1 0h1M2 19h1m1 0h1m22 0h1m1 0h1M2 20h1m1 0h1m22 0h1m1 0h1M2 21h1m1 0h1m22 0h1m1 0h1M2 22h1m1 0h1m22 0h1m1 0h1M2 23h1m1 0h1m22 0h1m1 0h1M2 24h1m1 0h1m22 0h1m1 0h1M2 25h1m1 0h24m1 0h1M2 26h1m26 0h1M2 27h28"/><path stroke="#fff" d="M3 5h26M3 6h1m24 0h1M3 7h1m24 0h1M3 8h1m24 0h1M3 9h1m24 0h1M3 10h1m1 0h22m1 0h1M3 11h1m24 0h1M3 12h1m1 0h22m1 0h1M3 13h1m1 0h22m1 0h1M3 14h1m1 0h22m1 0h1M3 15h1m1 0h22m1 0h1M3 16h1m1 0h22m1 0h1M3 17h1m1 0h22m1 0h1M3 18h1m1 0h22m1 0h1M3 19h1m1 0h22m1 0h1M3 20h1m1 0h22m1 0h1M3 21h1m1 0h22m1 0h1M3 22h1m1 0h22m1 0h1M3 23h1m1 0h22m1 0h1M3 24h1m1 0h22m1 0h1M3 25h1m24 0h1M3 26h26"/></svg>