<svg xmlns="http://www.w3.org/2000/svg" viewBox="0 -0.5 10 10" shape-rendering="crispEdges">
<path stroke="#000000" d="M0 0h1M0 1h1M4 1h5M1 2h4M6 2h1M8 2h2M3 3h1M6 3h1M9 3h1M3 4h1M5 4h3M9 4h1M3 5h2M6 5h1M8 5h2M3 6h1M6 6h1M9 6h1M0 7h1M3 7h1M5 7h3M9 7h1M1 8h4M8 8h2" />
<path stroke="#ff0000" d="M0 0h1M5 2h1M0 3h1M4 3h2M1 4h2" />
<path stroke="#00ff00" d="M0 0h1M7 2h1M7 3h2" />
<path stroke="#800000" d="M0 0h1M4 4h1" />
<path stroke="#008000" d="M0 0h1M8 4h1" />
<path stroke="#0000ff" d="M0 0h1M0 5h1M5 5h1M1 6h2M4 6h2" />
<path stroke="#ffff00" d="M0 0h1M7 5h1M7 6h2" />
<path stroke="#000080" d="M0 0h1M4 7h1" />
<path stroke="#808000" d="M0 0h1M8 7h1" />
</svg>