<svg xmlns="http://www.w3.org/2000/svg" width="32" height="32" shape-rendering="crispEdges" viewBox="0 -0.5 32 32"><path stroke="#000" d="M19 5h8M17 6h12M1 7h1m12 0h1m1 0h14M1 8h1m2 0h1m5 0h1m1 0h3m1 0h3m3 0h2m3 0h3M3 9h2m2 0h1m1 0h2m1 0h3m1 0h2m4 0h2m4 0h2M3 10h1m2 0h2m1 0h2m1 0h1m3 0h2m4 0h2m4 0h2M6 11h1m2 0h1m6 0h2m4 0h2m4 0h2m-14 1h2m4 0h2m4 0h2m-14 1h2m2 0h6m2 0h2m-14 1h14M1 15h1m12 0h1m1 0h14M1 16h1m2 0h1m5 0h1m1 0h3m1 0h3m3 0h2m3 0h3M3 17h2m2 0h1m1 0h2m1 0h3m1 0h2m4 0h2m4 0h2M3 18h1m2 0h2m1 0h2m1 0h1m3 0h2m4 0h2m4 0h2M6 19h1m2 0h1m6 0h2m4 0h2m4 0h2m-14 1h2m4 0h2m4 0h2m-14 1h2m2 0h6m2 0h2m-14 1h14M1 23h1m12 0h1m1 0h14M1 24h1m2 0h1m5 0h1m1 0h3m1 0h4m6 0h4M3 25h2m2 0h1m1 0h2m1 0h3m1 0h2m10 0h2M3 26h1m2 0h2m1 0h2m1 0h1m-7 1h1m2 0h1"/><path stroke="maroon" d="M19 8h1m-1 5h1"/><path stroke="red" d="M20 8h2m-4 1h4m-4 1h4M1 11h1m12 0h1m3 0h4M1 12h1m2 0h1m5 0h1m1 0h3m3 0h4M3 13h2m2 0h1m1 0h2m1 0h3m3 0h1M3 14h1m2 0h2m1 0h2m1 0h1m-7 1h1m2 0h1"/><path stroke="#0f0" d="M24 8h2m-2 1h4m-4 1h4m-4 1h4m-4 1h4m-1 1h1"/><path stroke="green" d="M26 8h1m-1 5h1"/><path stroke="navy" d="M19 16h1m-1 5h1"/><path stroke="#00f" d="M20 16h2m-4 1h4m-4 1h4M1 19h1m12 0h1m3 0h4M1 20h1m2 0h1m5 0h1m1 0h3m3 0h4M3 21h2m2 0h1m1 0h2m1 0h3m3 0h1M3 22h1m2 0h2m1 0h2m1 0h1m-7 1h1m2 0h1"/><path stroke="#ff0" d="M24 16h2m-2 1h4m-4 1h4m-4 1h4m-4 1h4m-1 1h1"/><path stroke="olive" d="M26 16h1m-1 5h1"/></svg>