<svg xmlns="http://www.w3.org/2000/svg" viewBox="0 -0.5 32 32" shape-rendering="crispEdges">
<path stroke="#808080" d="M0 0h1M11 0h8M8 1h3M19 1h3M6 2h2M22 2h2M5 3h1M24 3h1M4 4h1M3 5h1M2 6h1M1 7h1M1 8h1M29 8h1M0 9h1M30 9h1M0 10h1M30 10h1M0 11h1M30 11h2M0 12h1M30 12h2M0 13h1M30 13h2M0 14h1M30 14h2M0 15h1M30 15h2M1 16h1M29 16h3M1 17h1M29 17h3M2 18h1M28 18h3M27 19h4M26 20h4M25 21h4M24 22h4M7 23h1M22 23h5M8 24h3M19 24h7M10 25h4M19 25h5M13 26h1M19 26h2M19 27h2M19 28h2M19 29h2M18 30h3M19 31h2" />
<path stroke="#c0c0c0" d="M0 0h1M11 1h1M18 1h1M8 2h1M21 2h1M6 3h1M23 3h1M11 5h1M18 5h1M10 6h1M12 6h1M19 6h1M2 7h1M27 7h1M1 9h1M15 9h1M28 9h1M10 10h1M13 10h1M14 11h1M16 13h1M1 15h1M28 15h1M13 16h1M16 16h1M2 17h1M27 17h1M13 19h1M16 19h1M6 21h1M23 21h1M8 22h1M21 22h1M11 23h1M18 23h1M14 24h1" />
<path stroke="#ffffff" d="M0 0h1M12 1h6M9 2h12M7 3h16M5 4h20M4 5h7M19 5h7M3 6h7M13 6h2M20 6h7M3 7h7M12 7h4M20 7h7M2 8h8M14 8h2M20 8h8M2 9h8M14 9h1M20 9h8M1 10h9M14 10h1M19 10h10M1 11h13M18 11h11M1 12h13M17 12h12M1 13h13M17 13h12M1 14h13M16 14h13M2 15h26M2 16h11M17 16h11M3 17h10M17 17h10M3 18h10M17 18h10M4 19h9M17 19h9M5 20h20M7 21h16M9 22h12M12 23h6M15 24h3M15 25h3M15 26h3M16 27h2M17 28h1" />
<path stroke="#000000" d="M0 0h1M25 4h1M26 5h1M27 6h1M28 7h1M28 8h1M29 9h1M29 10h1M29 11h1M29 12h1M29 13h1M29 14h1M29 15h1M28 16h1M28 17h1M27 18h1M3 19h1M26 19h1M4 20h1M25 20h1M5 21h1M24 21h1M6 22h2M22 22h2M8 23h3M19 23h3M11 24h3M18 24h1M14 25h1M18 25h1M14 26h1M18 26h1M15 27h1M18 27h1M16 28h1M18 28h1M17 29h2" />
<path stroke="#0000ff" d="M0 0h1M12 5h6M11 6h1M15 6h4M10 7h2M16 7h4M10 8h4M16 8h4M10 9h4M16 9h4M11 10h2M15 10h4M15 11h3M14 12h3M14 13h2M14 14h2M14 16h2M13 17h4M13 18h4M14 19h2" />
</svg>