<svg xmlns="http://www.w3.org/2000/svg" width="32" height="32" shape-rendering="crispEdges" viewBox="0 -0.5 32 32"><path stroke="#000" d="M8 8h9M6 9h13M5 10h15M4 11h16M4 12h11m3 0h2M3 13h11m4 0h1M3 14h10m4 0h1M3 15h9m3 0h3M3 16h7m8 0h1M3 17h6m9 0h1M3 18h6m10 0h1M3 19h7m7 0h2M4 20h7m6 0h1M4 21h6m7 0h1M5 22h4m8 0h1M6 23h3m3 0h5M6 24h1m7 0h1m-1 1h1"/><path stroke="#fff" d="M15 12h2m-3 1h3m-4 1h4m-5 1h3m-5 1h5m1 0h1m-8 1h8m-8 1h8m-7 1h6m-5 1h5m-6 1h6m-7 1h2m-2 1h3m-5 1h6m-5 1h5m-3 1h3m-1 1h1"/><path stroke="silver" d="M17 12h1m-1 1h1m-1 3h1m-1 1h1m-1 1h2m-3 1h1m-1 1h1m-1 1h1m-6 1h6"/><path stroke="#00f" d="M15 16h1M6 26h2m-3 1h5m5 0h1m-9 1h5m2 0h2"/><path stroke="gray" d="M13 24h1m-1 1h1m-1 1h2m-2 1h1"/><path stroke="navy" d="M5 25h3m-3 1h1m2 0h2m5 0h1M4 27h1m5 0h2m2 0h1m1 0h1M4 28h3m5 0h2m2 0h2M7 29h9"/></svg>