<svg xmlns="http://www.w3.org/2000/svg" viewBox="0 -0.5 32 32" shape-rendering="crispEdges">
<path stroke="#000000" d="M0 0h1M6 6h3M15 6h2M5 7h1M9 7h1M14 7h1M17 7h1M5 8h1M9 8h1M14 8h1M17 8h1M5 9h14M4 10h1M19 10h1M4 11h1M19 11h1M3 12h1M20 12h3M24 12h3M3 13h1M9 13h1M12 13h1M15 13h2M18 13h2M23 13h1M26 13h1M2 14h1M8 14h1M11 14h1M15 14h1M17 14h1M20 14h1M24 14h1M27 14h1M2 15h1M9 15h1M12 15h1M15 15h1M18 15h1M21 15h1M27 15h1M1 16h1M6 16h11M19 16h1M28 16h1M1 17h1M17 17h1M28 17h1M1 18h1M16 18h1M18 18h1M28 18h1M1 19h1M16 19h1M19 19h1M29 19h1M1 20h1M16 20h1M28 20h3M1 21h1M17 21h1M27 21h1M30 21h1M1 22h1M18 22h1M26 22h1M30 22h1M2 23h20M26 23h1M29 23h1M2 24h1M21 24h2M25 24h1M28 24h1M2 25h23M27 25h1M3 26h19M24 26h3" />
<path stroke="#ffffff" d="M0 0h1M6 7h2M15 7h1M6 8h1M6 10h11M6 11h3M10 11h1M12 11h1M14 11h1M16 11h2M5 12h3M9 12h1M11 12h1M13 12h1M16 12h4M4 13h3M14 13h1M17 13h1M21 13h2M25 13h1M4 14h2M19 14h1M22 14h2M25 14h1M4 15h2M7 15h2M10 15h2M13 15h2M16 15h1M20 15h1M22 15h4M3 16h3M17 16h1M20 16h6M3 17h14M18 17h9M2 18h1M17 18h1M19 18h8M17 19h2M20 19h7M18 20h9M19 21h7M20 22h6M23 23h2" />
<path stroke="#808080" d="M0 0h1M8 7h1M16 7h1M8 8h1M16 8h1M8 12h1M10 12h1M12 12h1M14 12h2M7 13h1M20 13h1M24 13h1M6 14h1M10 14h1M12 14h3M16 14h1M18 14h1M21 14h1M6 15h1M17 15h1M28 15h1M2 16h1M18 16h1M29 18h1M4 19h12M3 20h13M17 20h1M3 21h14M18 21h1M26 21h1M28 21h2M3 22h15M19 22h1M27 22h3M22 23h1M25 23h1M27 23h2M3 24h18M23 24h2M26 24h2M25 25h2" />
<path stroke="#c0c0c0" d="M0 0h1M7 8h1M15 8h1M5 10h1M17 10h2M5 11h1M9 11h1M11 11h1M13 11h1M15 11h1M18 11h1M4 12h1M8 13h1M10 13h2M13 13h1M3 14h1M7 14h1M9 14h1M26 14h1M3 15h1M19 15h1M26 15h1M26 16h2M2 17h1M27 17h1M3 18h13M27 18h1M2 19h2M27 19h2M2 20h1M27 20h1M2 21h1M2 22h1" />
</svg>