<svg xmlns="http://www.w3.org/2000/svg" width="32" height="32" shape-rendering="crispEdges" viewBox="0 -0.5 32 32"><path stroke="gray" d="M12 0h8m0 1h3m0 1h2m-1 1h2m-8 1h2m2 0h5M17 5h2m5 0h2M8 6h1m8 0h2M2 7h1m12 0h2m2 0h1M2 8h1m11 0h1m4 0h2M1 9h2m8 0h1m3 0h3m1 0h3M1 10h1m8 0h1m4 0h5M1 11h1m7 0h2m1 0h1m1 0h1M0 12h1m10 0h1m1 0h1m4 0h3m-10 1h1m4 0h2m3 0h1M0 14h1m14 0h1m8 0h2M8 15h2m3 0h2m11 0h1m2 0h1M1 16h3m4 0h2m2 0h3M2 17h2m5 0h1m1 0h3M2 18h1m5 0h1m4 0h1m6 2h1m-1 1h1m-1 1h1m3 0h1m-5 1h1m3 0h2m-6 1h2m3 0h1m-6 1h1m1 0h1m-3 1h1m2 0h1m-4 1h1m-1 1h1m-1 1h1m-1 1h1M1 31h20"/><path stroke="silver" d="M9 1h3m2 0h4m1 0h1M7 2h5m2 0h1m2 0h6M6 3h4m1 0h4m2 0h7M5 4h1m1 0h2m1 0h1m1 0h6M4 5h1m5 0h2m1 0h4M3 6h1m1 0h1m1 0h1m1 0h3m1 0h4m3 0h1M7 7h2m1 0h5M3 8h1m2 0h8M4 9h7m1 0h3M2 10h8m2 0h3M3 11h1m1 0h1m1 0h1m5 0h1M1 12h1m1 0h1m1 0h1m1 0h4M0 13h2m1 0h2m3 0h3m7 0h1m1 0h1M2 14h3m6 0h1m4 0h1m4 0h1M2 15h2m11 0h1m4 0h1m1 0h1m-4 1h1m1 0h1m1 0h1m-10 1h1m3 0h1m1 0h1m1 0h1m-4 1h1m1 0h1m1 0h1m-4 1h1m1 0h1m-2 1h1m1 3h1m-2 1h1m1 0h1m-2 1h1m1 1h1m0 1h1m0 1h1m0 1h1"/><path stroke="#fff" d="M12 1h2m4 0h1m-7 1h1m-3 1h1M6 4h1m2 0h1m1 0h1M5 5h5M4 6h1m1 0h1M3 7h4m2 0h1M4 8h2M3 9h1m4 2h1m8 3h1m1 0h1m-4 1h1m1 0h1m-4 1h1m1 0h1m-2 1h2m-3 1h1m1 0h1M1 20h3m1 0h1m2 0h1m2 0h2m1 0h1m1 0h1m1 0h1M4 21h1m1 0h2m1 0h2m2 0h1m3 0h1M1 22h3m1 0h1m2 0h1m2 0h2m1 0h1m3 0h1M4 23h1m1 0h2m1 0h2m2 0h1m3 0h1M1 24h3m8 0h1m1 0h1m1 0h1m1 0h1m4 0h1M4 25h1m1 0h2m1 0h2m2 0h1m1 0h1m1 0h1m6 0h1M1 26h3m8 0h1m1 0h1m1 0h1m1 0h1M4 27h1m1 0h2m1 0h2m2 0h1m1 0h1m1 0h1M1 28h3m8 0h1m1 0h1m1 0h1m1 0h1M4 29h1m1 0h2m1 0h2m2 0h1m1 0h1m1 0h1"/><path stroke="#0ff" d="M13 2h1m1 0h2m-2 1h2m-5 2h1m-1 1h1M2 11h1m1 0h1m1 0h1m-5 1h1m1 0h1m1 0h1m-5 1h1m2 0h2m12 0h1M1 14h1m3 0h1m12 0h1m1 0h1M4 15h1m12 0h1m1 0h1m1 0h1m-6 1h1m1 0h1m1 0h1m1 0h1m-8 1h1m3 0h1m1 0h1m1 0h1m-10 1h1m1 0h1m1 0h1m1 0h1m1 0h1m-2 1h1m1 0h1m-2 1h1m-2 1h1"/><path stroke="green" d="M20 4h1m-2 1h1m1 0h1m0 1h1m3 0h1M17 7h1m2 0h1m2 0h2m1 0h2M15 8h4m6 0h1m1 0h1m-6 1h1m1 0h1m1 0h1m1 0h1m-8 1h1m1 0h2m1 0h1m-12 1h3m2 0h1m1 0h2m2 0h2m-14 1h1m6 0h2m1 0h2m-14 1h2m1 0h1m-2 1h1m-5 1h3m-3 1h1m0 2h2"/><path stroke="olive" d="M21 4h1m-2 1h1m1 0h2m-5 1h1m1 0h1m1 0h3m-8 1h1m2 0h2m2 0h1m-5 1h1m2 0h1m-7 1h1m4 0h1m3 0h1m-17 1h1m8 0h1m-10 1h1m6 0h2m1 0h1m3 0h1m-14 1h1m2 0h2m6 0h1m-10 1h1m-3 1h2m14 0h1m-18 2h1m-2 1h1m-2 1h2"/><path stroke="teal" d="M26 5h1m-5 3h2M7 13h1m-2 1h5m11 0h1M0 15h2m3 0h3m15 0h1m1 0h1M0 16h1m3 0h4m-8 1h2m2 0h5m15 0h1M0 18h2m1 0h5m16 0h1m-1 1h1m-2 1h1m-2 1h2m-3 1h2"/><path stroke="#000" d="M27 5h1m-1 1h2m-1 1h2m-4 1h1m1 0h2m-5 1h1m3 0h2m-9 1h1m2 0h1m1 0h4m-7 1h1m3 0h3m-14 1h1m8 0h6m-10 1h7m1 0h2m-9 1h1m2 0h2m1 0h3m-8 1h1m2 0h2m1 0h2m-8 1h1m1 0h6m-7 1h7m-7 1h7M0 19h20m5 0h2m1 0h4M0 20h1m18 0h1m4 0h7M0 21h1m18 0h1m4 0h6M0 22h1m18 0h1m3 0h1m1 0h4M0 23h1m18 0h1m1 0h2m3 0h3M0 24h1m4 0h7m7 0h1m7 0h2M0 25h1m18 0h1m1 0h1m6 0h1M0 26h1m4 0h7m7 0h1m1 0h2m6 0h1M0 27h1m18 0h1m2 0h2m6 0h1M0 28h1m4 0h7m7 0h1m1 0h4m6 0h1M0 29h1m18 0h1m1 0h4m6 0h1M0 30h20m1 0h2m8 0h1m-4 1h3"/><path stroke="maroon" d="M29 13h1m-5 3h1m1 3h1m-2 5h1m-1 1h2m-1 1h2m-5 1h1m3 0h2m-5 1h1m3 0h2m-5 1h1m3 0h1m-4 1h1m2 0h1"/><path stroke="#ff0" d="M4 20h1m1 0h2m1 0h2m2 0h1m1 0h1m1 0h1M1 21h3m1 0h1m2 0h1m2 0h2m1 0h1m3 0h1M4 22h1m1 0h2m1 0h2m2 0h1m3 0h1M1 23h3m1 0h1m2 0h1m2 0h2m1 0h1m3 0h1M4 24h1m8 0h1m1 0h1m1 0h1M1 25h3m1 0h1m2 0h1m2 0h2m1 0h1m1 0h1m1 0h1M4 26h1m8 0h1m1 0h1m1 0h1M1 27h3m1 0h1m2 0h1m2 0h2m1 0h1m1 0h1m1 0h1M4 28h1m8 0h1m1 0h1m1 0h1M1 29h3m1 0h1m2 0h1m2 0h2m1 0h1m1 0h1m1 0h1"/><path stroke="purple" d="M15 21h2m-2 1h2m-2 1h2"/><path stroke="navy" d="M30 21h1m-2 1h2m-2 1h1m-1 1h1m-9 3h1"/><path stroke="red" d="M25 25h1m-2 1h1m1 0h1m-2 1h1m1 0h1m-2 1h1m1 0h1m-2 1h1m1 0h1m-2 1h2"/></svg>