<svg xmlns="http://www.w3.org/2000/svg" width="32" height="32" shape-rendering="crispEdges" viewBox="0 -0.5 32 32"><path stroke="#000" d="M3 0h2m1 0h2m1 0h2m1 0h2m1 0h2m1 0h2m1 0h2m1 0h1m1 1h1M3 2h1m2 0h1m2 0h1m2 0h1m2 0h1m2 0h1m2 0h1m3 0h1m1 0h1M3 3h1m2 0h1m2 0h1m2 0h1m2 0h1m2 0h1m2 0h1m3 0h1m1 0h1m-3 1h1m1 0h1m-3 1h1m-1 1h1m-1 1h1m4 0h1m-6 1h1m3 0h2m-2 1h1m-1 1h1m-2 1h1m-1 1h1m-2 1h1m-1 1h1m-2 1h2m-2 1h2m-3 1h1m1 0h1m-3 1h1m1 0h1m-4 1h2m1 0h1m-4 1h2m1 0h1m-5 1h1m1 0h1m1 0h1m-5 1h1m1 0h1m1 0h1m-6 1h1m2 0h1m1 0h1m-8 1h2m3 0h1m1 0h1m-9 1h2m4 0h1m1 0h1m-9 1h1m5 0h1m1 0h1m-3 1h1m1 0h1m-3 1h1m1 0h1m-3 1h1m1 0h1m-4 1h1m1 0h1M3 31h23"/><path stroke="gray" d="M2 1h1m1 0h2m1 0h2m1 0h2m1 0h2m1 0h2m1 0h2m1 0h2m1 0h1M1 2h1m22 0h1M1 3h1m22 0h1M1 4h1M1 5h1M1 6h1M1 7h1M1 8h1M1 9h1m-1 1h1m-1 1h1m-1 1h1m-1 1h1m-1 1h1m-1 1h1m-1 1h1m-1 1h1m-1 1h1m-1 1h1m-1 1h1m-1 1h1m-1 1h1m-1 1h1m17 0h1M1 24h1m17 0h1M1 25h1m-1 1h1m-1 1h1m-1 1h1m-1 1h1m0 1h1"/><path stroke="#fff" d="M3 1h1m2 0h1m2 0h1m2 0h1m2 0h1m2 0h1m2 0h1m2 0h1M2 2h1m1 0h2m1 0h2m1 0h2m1 0h2m1 0h2m1 0h2m1 0h2M2 3h1m1 0h2m1 0h2m1 0h2m1 0h2m1 0h2m1 0h2m1 0h2M2 4h22M2 5h22M2 6h22M2 8h22M2 9h22m2 0h1m-1 1h1M2 11h22m1 0h1M2 12h22m1 0h1m-2 1h1M2 14h21m1 0h1M2 15h20m1 0h1m-1 1h1M2 17h19m1 0h1M2 18h19m1 0h1m-2 1h1M2 20h18m1 0h1M2 21h17m1 0h1m-1 1h1M2 23h17m1 0h1m2 0h1M2 24h17m3 0h2M2 26h17m1 0h4M2 27h22M2 29h22"/><path stroke="silver" d="M26 2h1m-1 1h1m-3 1h1m1 0h1m-3 1h1m1 0h1m-3 1h1m1 0h1M2 7h23m-1 1h1m-1 1h1M2 10h23M2 13h21M2 16h20m4 1h1m-1 1h1M2 19h18m6 0h1m-1 1h1m-3 1h1m1 0h1M2 22h17m5 0h1m1 0h1m-6 1h1m2 0h1m1 0h1m-3 1h1m1 0h1M2 25h17m2 0h4m1 0h1m-3 1h1m1 0h1m-3 1h1m1 0h1M2 28h23m1 0h1m-3 1h1m1 0h1M3 30h21m1 0h1"/><path stroke="maroon" d="M27 5h3m-3 1h1m2 0h1m-4 1h3"/><path stroke="red" d="M28 6h2"/><path stroke="green" d="M26 7h1m-1 1h1m1 0h1"/><path stroke="#0f0" d="M27 8h1m0 1h1"/><path stroke="olive" d="M25 9h1m-1 1h1m2 0h1m-5 1h1m2 0h1m-4 1h1m2 0h1m-5 1h1m2 0h1m-4 1h1m2 0h1m-5 1h1m2 0h1m-4 1h1m2 0h1m-5 1h1m2 0h1m-4 1h1m2 0h1m-5 1h1m2 0h1m-4 1h1m2 0h1m-5 1h1m2 0h1m-4 1h1m2 0h1"/><path stroke="#ff0" d="M27 9h1m-1 1h1m-2 1h1m-1 1h1m-2 1h1m-1 1h1m-2 1h1m-1 1h1m-2 1h1m-1 1h1m-2 1h1m-1 1h1m-2 1h1m-1 1h1"/></svg>