<svg xmlns="http://www.w3.org/2000/svg" viewBox="0 -0.5 32 32" shape-rendering="crispEdges">
<path stroke="#808080" d="M0 0h1M2 4h28M1 5h1M30 5h1M0 6h1M0 7h1M0 8h1M0 9h1M0 10h1M0 11h1M0 12h1M0 13h1M0 14h1M0 15h1M0 16h1M0 17h1M0 18h1M0 19h1M0 20h1M0 21h1M0 22h1M10 22h2M20 22h2M0 23h1M9 23h1M19 23h1M0 24h1M10 24h1M19 24h1M0 25h1M10 25h1M19 25h1M0 26h1M10 26h1M19 26h1" />
<path stroke="#ffffff" d="M0 0h1M2 5h28M1 6h29M1 7h29M1 8h2M8 8h1M14 8h1M16 8h1M20 8h10M1 9h2M7 9h1M9 9h1M15 9h1M20 9h10M1 10h29M1 11h29M1 12h29M1 13h2M12 13h3M26 13h4M1 14h29M1 15h29M1 16h2M11 16h4M28 16h2M1 17h29M1 18h29M1 19h2M12 19h3M28 19h2M1 20h29M1 21h9M12 21h8M22 21h8M1 22h8M13 22h6M23 22h7M1 23h7M13 23h5M23 23h7M1 24h8M13 24h5M22 24h8M1 25h8M13 25h5M22 25h8" />
<path stroke="#c0c0c0" d="M0 0h1M30 6h1M30 7h1M4 8h1M6 8h1M10 8h1M12 8h1M18 8h1M30 8h1M3 9h1M5 9h1M11 9h1M13 9h1M17 9h1M19 9h1M30 9h1M30 10h1M30 11h1M30 12h1M30 13h1M30 14h1M30 15h1M30 16h1M30 17h1M30 18h1M30 19h1M30 20h1M10 21h2M20 21h2M30 21h1M9 22h1M12 22h1M19 22h1M22 22h1M30 22h1M8 23h1M18 23h1M30 23h1M9 24h1M18 24h1M30 24h1M9 25h1M18 25h1M30 25h1M1 26h9M13 26h6M22 26h9" />
<path stroke="#000000" d="M0 0h1M31 6h1M31 7h1M31 8h1M31 9h1M31 10h1M31 11h1M31 12h1M31 13h1M31 14h1M31 15h1M31 16h1M31 17h1M31 18h1M31 19h1M31 20h1M31 21h1M31 22h1M12 23h1M22 23h1M31 23h1M12 24h1M21 24h1M31 24h1M12 25h1M21 25h1M31 25h1M12 26h1M21 26h1M31 26h1M1 27h10M12 27h8M21 27h11" />
<path stroke="#008000" d="M0 0h1M3 8h1M5 8h1M7 8h1M9 8h1M11 8h1M13 8h1M15 8h1M17 8h1M19 8h1M4 9h1M6 9h1M8 9h1M10 9h1M12 9h1M14 9h1M16 9h1M18 9h1M3 13h9M15 13h11M3 16h8M15 16h13M3 19h9M15 19h13" />
</svg>