<svg xmlns="http://www.w3.org/2000/svg" viewBox="0 -0.5 32 32" shape-rendering="crispEdges">
<path stroke="#808080" d="M0 0h1M10 8h10M10 9h1M20 9h1M10 10h1M21 10h1M10 11h1M10 12h1M10 13h1M15 13h1M10 14h1M19 14h1M10 15h1M10 16h1M15 16h1M10 17h1M13 17h1M10 18h1M10 19h1M10 20h1M10 21h1M10 22h1" />
<path stroke="#ffffff" d="M0 0h1M11 9h3M15 9h3M11 10h1M13 10h3M17 10h2M20 10h1M11 11h3M15 11h3M11 12h1M13 12h1M19 12h1M11 13h2M20 13h1M11 14h1M11 15h2M14 15h1M20 15h1M11 16h1M11 17h2M20 17h1M11 18h1M11 19h3M19 19h2M11 20h1M13 20h3M17 20h3M11 21h3M15 21h3M19 21h2" />
<path stroke="#ffff00" d="M0 0h1M14 9h1M18 9h1M12 10h1M16 10h1M14 11h1M18 11h1M12 12h1M20 12h1M12 14h1M20 14h1M12 16h1M20 16h1M12 18h1M20 18h1M12 20h1M16 20h1M20 20h1M14 21h1M18 21h1" />
<path stroke="#c0c0c0" d="M0 0h1M19 9h1M19 10h1M14 12h1M18 12h1M21 12h1M13 13h1M19 13h1M21 13h1M14 14h1M21 14h1M15 15h1M21 15h1M14 16h1M21 16h1M21 17h1M13 18h1M19 18h1M21 18h1M14 19h1M18 19h1M21 19h1M21 20h1M21 21h1M11 22h11" />
<path stroke="#000000" d="M0 0h1M19 11h4M22 12h1M22 13h1M22 14h1M22 15h1M22 16h1M22 17h1M18 18h1M22 18h1M15 19h3M22 19h1M22 20h1M22 21h1M22 22h1M10 23h13" />
<path stroke="#008080" d="M0 0h1M15 12h3M14 13h1M16 13h1M18 13h1M13 14h1M15 14h1M17 14h1M13 15h1M13 16h1M17 16h1" />
<path stroke="#008000" d="M0 0h1M17 13h1M18 14h1M16 15h1M16 16h1M16 17h1" />
<path stroke="#0000ff" d="M0 0h1M16 14h1M18 15h1M18 16h1M14 17h2M17 17h1M15 18h1" />
<path stroke="#000080" d="M0 0h1M17 15h1M19 15h1M19 16h1M18 17h2M14 18h1M16 18h2" />
</svg>