<svg xmlns="http://www.w3.org/2000/svg" width="16" height="16" shape-rendering="crispEdges" viewBox="0 -0.5 16 16"><path stroke="#000" d="M2 0h1M0 1h6M0 2h1m1 0h1m2 0h8M0 3h1m1 0h1m3 0h1m5 0h2M0 4h1m1 0h1m3 0h1m5 0h2M0 5h1m1 0h1m3 0h1m5 0h2M0 6h1m1 0h1m3 0h1m5 0h2M0 7h1m1 0h1m3 0h1m5 0h2M0 8h1m1 0h1m3 0h1m4 0h2m1 0h1M0 9h2m4 0h1m3 0h1m1 0h1m1 0h1M2 10h3m1 0h6m2 0h1M5 11h2m4 0h1m2 0h1m-3 1h1m1 0h1m-3 1h4m-4 1h1m2 0h1m-4 1h1m2 0h1"/><path stroke="#fff" d="M1 2h1m1 0h2M1 3h1m1 0h3m1 0h5M1 4h1m1 0h3m1 0h1m1 0h1m1 0h1M3 5h3m1 0h5M3 6h3m1 0h1m1 0h1m1 0h1M3 7h3m1 0h5M3 8h3m1 0h3m3 0h1m-3 1h1m1 0h1m-2 1h2m-2 1h2m-1 1h1"/><path stroke="gray" d="M8 4h1m1 0h1M8 6h1m1 0h1M3 9h3m1 0h3m-5 1h1"/><path stroke="silver" d="M1 5h1M1 6h1M1 7h1M1 8h1m8 0h1M2 9h1"/><path stroke="red" d="M13 14h2m-2 1h2"/></svg>