<svg xmlns="http://www.w3.org/2000/svg" width="16" height="16" shape-rendering="crispEdges" viewBox="0 -0.5 16 16"><path stroke="gray" d="M3 2h9M3 3h1m7 0h1M3 4h1m7 0h1m-1 1h1m-1 1h1m-1 1h1m-1 1h1m-1 1h1m-1 1h1m-1 1h1m-9 1h1m7 0h1m-9 1h5m3 0h1"/><path stroke="#fff" d="M4 3h7M4 4h7M6 5h5M4 6h1m2 0h4M2 7h2m1 0h1m2 0h3M2 8h1m1 0h1m1 0h1m1 0h3M2 9h2m1 0h1m2 0h3m-7 1h1m3 0h3m-2 1h2m-7 1h3m3 0h1"/><path stroke="#000" d="M3 5h3M2 6h1m3 0h1M1 7h1m5 0h1M1 8h1m5 0h1M1 9h1m5 0h1m-6 1h1m3 0h2m-5 1h6m-2 1h3m-2 1h3m-2 1h3m-2 1h2"/><path stroke="silver" d="M3 6h1m1 0h1M4 7h1m1 0h1M3 8h1m1 0h1M4 9h1m1 0h1m-4 1h1m1 0h1"/></svg>