<svg xmlns="http://www.w3.org/2000/svg" width="32" height="32" shape-rendering="crispEdges" viewBox="0 -0.5 32 32"><path stroke="#000" d="M11 7h9m-9 1h1m8 0h1M11 9h1m9 0h1m-11 1h1m7 0h4m-12 1h1m1 0h1m8 0h1m-13 1h1m3 0h1m7 0h1M9 13h1m5 0h1m6 0h1M9 14h1m5 0h1m6 0h1M9 15h1m5 0h1m6 0h1m-13 1h1m3 0h1m7 0h1m-12 1h3m8 0h1m-12 1h1m10 0h1m-12 1h1m10 0h1m-12 1h6m4 0h2m-2 1h1m-3 1h2"/><path stroke="#fff" d="M12 8h7m-7 1h7m1 0h1m-9 1h7m-4 1h6m-10 1h1m1 0h1m2 0h5m-11 1h1m1 0h1m4 0h4m-10 1h1m5 0h4m-11 1h1m6 0h4m-3 1h3m-2 1h2m-9 1h3m5 0h1"/><path stroke="silver" d="M19 8h1m-1 1h1m-6 2h1m6 0h1m-7 1h1m5 0h1m-8 1h1m1 0h1m4 0h1m-9 1h1m2 0h1m4 0h1m-10 1h1m1 0h1m1 0h1m4 0h1m-11 1h1m1 0h1m3 0h1m3 0h1m-7 1h1m2 0h1m2 0h1m-3 1h1m1 0h1m-10 1h4m4 0h2"/><path stroke="gray" d="M12 11h1m2 5h2m-3 1h1"/><path stroke="#0ff" d="M12 12h1m-2 1h1m1 0h1m-4 1h1m1 0h1m1 0h1m-4 1h1m1 0h1m-2 1h1m3 2h1m0 1h1m0 1h1m0 1h1"/><path stroke="#00f" d="M16 17h2m-1 1h2m-1 1h2m-1 1h2m-1 1h1"/><path stroke="navy" d="M15 18h1m0 1h1m0 1h1m0 1h1"/></svg>