<svg xmlns="http://www.w3.org/2000/svg" viewBox="0 -0.5 32 32" shape-rendering="crispEdges">
<path stroke="#000000" d="M0 0h1M9 0h10M3 1h4M8 1h1M11 1h1M19 1h1M3 2h1M6 2h2M12 2h1M20 2h1M3 3h1M6 3h1M13 3h1M21 3h1M3 4h1M5 4h1M9 4h1M14 4h1M22 4h1M3 5h2M8 5h3M15 5h1M23 5h1M3 6h1M7 6h1M11 6h1M16 6h1M24 6h1M2 7h1M7 7h1M11 7h1M17 7h1M25 7h1M1 8h1M7 8h5M18 8h1M24 8h1M0 9h1M19 9h1M22 9h3M0 10h22M24 10h1M1 11h1M24 11h1M1 12h1M4 12h4M13 12h4M24 12h1M1 13h1M4 13h2M7 13h1M13 13h2M16 13h1M24 13h1M1 14h1M4 14h1M7 14h1M13 14h1M16 14h1M24 14h1M1 15h1M4 15h1M7 15h1M13 15h1M16 15h1M24 15h1M1 16h1M4 16h4M13 16h4M24 16h1M1 17h1M24 17h1M1 18h1M8 18h5M24 18h1M1 19h1M8 19h1M12 19h1M24 19h1M1 20h1M8 20h1M12 20h1M16 20h7M24 20h1M1 21h1M8 21h1M12 21h1M15 21h1M23 21h2M1 22h1M8 22h1M12 22h1M15 22h8M24 22h1M1 23h1M7 23h8M24 23h5M1 24h1M6 24h2M13 24h1M23 24h1M1 25h6M29 25h1M5 26h1M28 26h1M5 27h1M10 27h3M21 27h3M27 27h2M5 28h1M9 28h2M12 28h2M20 28h2M23 28h2M27 28h1M6 29h4M13 29h8M24 29h3M9 30h2M12 30h3M20 30h2M23 30h3M10 31h4M21 31h4" />
<path stroke="#c0c0c0" d="M0 0h1M9 1h2M8 2h4M13 2h1M17 2h1M7 3h6M6 4h3M10 4h4M17 4h1M5 5h3M11 5h4M4 6h3M12 6h4M22 6h1M3 7h4M13 7h4M20 7h1M2 8h5M13 8h5M1 9h7M13 9h6M20 11h1M20 12h2M20 13h2M20 14h3M20 15h2M23 15h1M20 16h3M20 17h2M23 17h1M20 18h3M20 19h2M23 19h1M11 28h1M22 28h1M10 29h3M21 29h3M11 30h1M22 30h1" />
<path stroke="#808080" d="M0 0h1M12 1h7M4 2h2M14 2h3M18 2h2M4 3h2M14 3h7M4 4h1M15 4h2M18 4h4M16 5h7M8 6h1M17 6h5M23 6h1M12 7h1M18 7h2M21 7h4M12 8h1M19 8h5M8 9h5M20 9h2M22 10h2M2 11h18M21 11h3M3 12h1M8 12h1M12 12h1M17 12h1M19 12h1M22 12h2M3 13h1M8 13h1M12 13h1M17 13h1M19 13h1M22 13h2M3 14h1M8 14h1M12 14h1M17 14h1M19 14h1M23 14h1M3 15h1M8 15h1M12 15h1M17 15h1M19 15h1M22 15h1M3 16h1M8 16h1M12 16h1M17 16h1M19 16h1M23 16h1M19 17h1M22 17h1M19 18h1M23 18h1M19 19h1M22 19h1M23 20h1M23 22h1M16 23h1M22 23h2M16 24h1M29 26h1M29 27h3M28 28h3M27 29h3M7 30h2M15 30h5M26 30h3M14 31h7M25 31h3" />
<path stroke="#ffff00" d="M0 0h1M9 6h2M8 7h3M6 13h1M15 13h1M5 14h2M14 14h2M5 15h2M14 15h2M11 19h1M11 20h1M11 21h1M6 27h1" />
<path stroke="#ffffff" d="M0 0h1M2 12h1M9 12h3M18 12h1M2 13h1M9 13h3M18 13h1M2 14h1M9 14h3M18 14h1M2 15h1M9 15h3M18 15h1M2 16h1M9 16h3M18 16h1M2 17h17M2 18h6M13 18h6M2 19h6M9 19h2M13 19h6M2 20h6M9 20h2M13 20h3M2 21h6M9 21h2M13 21h2M2 22h6M9 22h3M13 22h2M2 23h5M18 23h1M20 23h1M2 24h4M15 24h1M17 24h1M19 24h1M21 24h1" />
<path stroke="#ff0000" d="M0 0h1M16 21h7M8 24h5M24 24h4M6 26h21" />
<path stroke="#00ffff" d="M0 0h1M15 23h1M17 23h1M19 23h1M21 23h1M14 24h1M18 24h1M20 24h1M22 24h1" />
<path stroke="#800000" d="M0 0h1M28 24h2M7 25h22M27 26h1M7 27h3M13 27h8M24 27h3M6 28h3M14 28h6M25 28h2" />
</svg>