<svg xmlns="http://www.w3.org/2000/svg" width="32" height="32" shape-rendering="crispEdges" viewBox="0 -0.5 32 32"><path stroke="#000" d="M3 1h3M1 2h3m2 0h3M0 3h2m1 0h1m5 0h2M0 4h2m1 0h1m7 0h1M0 5h2m1 0h1m8 0h1m1 0h12M0 6h2m1 0h1m8 0h2m11 0h1M0 7h2m1 0h1m8 0h1m12 0h2M0 8h2m1 0h1m8 0h1m12 0h2M0 9h2m1 0h1m8 0h1m12 0h2M0 10h2m1 0h1m8 0h1m12 0h2M0 11h2m1 0h1m8 0h1m12 0h2M0 12h2m1 0h1m8 0h1m12 0h2M0 13h2m1 0h1m8 0h1m12 0h2M0 14h2m1 0h1m8 0h1m12 0h3M0 15h2m1 0h1m8 0h1m12 0h3M0 16h2m1 0h1m8 0h1m12 0h2m1 0h1M0 17h2m1 0h3m6 0h1m8 0h2m2 0h2m1 0h1M0 18h2m4 0h3m3 0h1m8 0h1m1 0h1m1 0h2m2 0h1M0 19h6m3 0h2m1 0h1m1 0h8m2 0h2m3 0h1M5 20h3m3 0h3m8 0h1m6 0h1M8 21h3m1 0h1m1 0h10m5 0h1m-19 1h3m9 0h1m5 0h1m-7 1h1m5 0h1m-6 1h1m4 0h1m-5 1h1m3 0h1m-6 1h8m-8 1h1m6 0h1m-8 1h1m6 0h1m-8 1h8"/><path stroke="#fff" d="M4 2h2M2 3h1m1 0h5M2 4h1m1 0h1m1 0h5M2 5h1m1 0h3m1 0h4M2 6h1m1 0h5m1 0h2m2 0h11M2 7h1m1 0h1m1 0h5m2 0h12M4 8h3m1 0h4m1 0h3m1 0h1m1 0h1m1 0h1m1 0h2M4 9h5m1 0h2m1 0h12M4 10h1m1 0h5m2 0h3m1 0h1m1 0h1m1 0h1m1 0h2M4 11h3m1 0h4m1 0h12M4 12h5m1 0h2m1 0h3m1 0h1m1 0h1m1 0h1m1 0h2M6 13h5m2 0h12M4 14h3m1 0h4m1 0h3m1 0h1m1 0h1m1 0h1m1 0h2M4 15h5m1 0h2m1 0h11M4 16h7m2 0h3m1 0h1m1 0h1m1 0h1m1 0h2m2 0h1M6 17h6m1 0h8m2 0h2m2 0h1M9 18h3m1 0h8m1 0h1m1 0h1m2 0h2m-18 1h1m1 0h1m8 0h2m2 0h3m-6 1h6m-5 1h5m-5 1h5m-5 1h5m-4 1h4m-3 1h3"/><path stroke="gray" d="M5 4h1m1 1h1m1 1h1M5 7h1m5 0h1M7 8h1m8 0h1m1 0h1m1 0h1m1 0h1M9 9h1m-5 1h1m5 0h1m4 0h1m1 0h1m1 0h1m1 0h1M7 11h1m1 1h1m6 0h1m1 0h1m1 0h1m1 0h1M5 13h1m5 0h1m-5 1h1m8 0h1m1 0h1m1 0h1m1 0h1M9 15h1m1 1h1m4 0h1m1 0h1m1 0h1m1 0h1m-9 4h8"/><path stroke="silver" d="M2 8h1M2 9h1m-1 1h1m-1 1h1m-1 1h1m-1 1h1m-1 2h1m-1 1h1m-1 1h1m-1 1h4m0 1h3m-1 1h3m0 1h1m1 0h1"/><path stroke="red" d="M4 13h1m-3 1h1m21 1h1m0 12h6m-6 1h6"/></svg>