<svg xmlns="http://www.w3.org/2000/svg" width="32" height="32" shape-rendering="crispEdges" viewBox="0 -0.5 32 32"><path stroke="#000" d="M9 0h10M3 1h4m1 0h1m2 0h1m7 0h1M3 2h1m2 0h2m4 0h1m7 0h1M3 3h1m2 0h1m6 0h1m7 0h1M3 4h1m1 0h1m3 0h1m4 0h1m7 0h1M3 5h2m3 0h3m4 0h1m7 0h1M3 6h1m3 0h1m3 0h1m4 0h1m7 0h1M2 7h1m4 0h1m3 0h1m5 0h1m7 0h1M1 8h1m5 0h5m6 0h1m5 0h1M0 9h1m18 0h1m2 0h3M0 10h22m2 0h1M1 11h1m22 0h1M1 12h1m2 0h4m5 0h4m7 0h1M1 13h1m2 0h2m1 0h1m5 0h2m1 0h1m7 0h1M1 14h1m2 0h1m2 0h1m5 0h1m2 0h1m7 0h1M1 15h1m2 0h1m2 0h1m5 0h1m2 0h1m7 0h1M1 16h1m2 0h4m5 0h4m7 0h1M1 17h1m22 0h1M1 18h1m6 0h5m11 0h1M1 19h1m6 0h1m3 0h1m11 0h1M1 20h1m6 0h1m3 0h1m3 0h7m1 0h1M1 21h1m6 0h1m3 0h1m2 0h1m7 0h2M1 22h1m6 0h1m3 0h1m2 0h8m1 0h1M1 23h1m5 0h8m9 0h5M1 24h1m4 0h2m5 0h1m9 0h1M1 25h6m22 0h1M5 26h1m22 0h1M5 27h1m4 0h3m8 0h3m3 0h2M5 28h1m3 0h2m1 0h2m6 0h2m1 0h2m2 0h1M6 29h4m3 0h8m3 0h3M9 30h2m1 0h3m5 0h2m1 0h3m-16 1h4m7 0h4"/><path stroke="silver" d="M9 1h2M8 2h4m1 0h1m3 0h1M7 3h6M6 4h3m1 0h4m3 0h1M5 5h3m3 0h4M4 6h3m5 0h4m6 0h1M3 7h4m6 0h4m3 0h1M2 8h5m6 0h5M1 9h7m5 0h6m1 2h1m-1 1h2m-2 1h2m-2 1h3m-3 1h2m1 0h1m-4 1h3m-3 1h2m1 0h1m-4 1h3m-3 1h2m1 0h1m-13 9h1m10 0h1m-13 1h3m8 0h3m-13 1h1m10 0h1"/><path stroke="gray" d="M12 1h7M4 2h2m8 0h3m1 0h2M4 3h2m8 0h7M4 4h1m10 0h2m1 0h4m-6 1h7M8 6h1m8 0h5m1 0h1M12 7h1m5 0h2m1 0h4M12 8h1m6 0h5M8 9h5m7 0h2m0 1h2M2 11h18m1 0h3M3 12h1m4 0h1m3 0h1m4 0h1m1 0h1m2 0h2M3 13h1m4 0h1m3 0h1m4 0h1m1 0h1m2 0h2M3 14h1m4 0h1m3 0h1m4 0h1m1 0h1m3 0h1M3 15h1m4 0h1m3 0h1m4 0h1m1 0h1m2 0h1M3 16h1m4 0h1m3 0h1m4 0h1m1 0h1m3 0h1m-5 1h1m2 0h1m-4 1h1m3 0h1m-5 1h1m2 0h1m0 1h1m-1 2h1m-8 1h1m5 0h2m-8 1h1m12 2h1m-1 1h3m-4 1h3m-4 1h3M7 30h2m6 0h5m6 0h3m-15 1h7m4 0h3"/><path stroke="#ff0" d="M9 6h2M8 7h3m-5 6h1m8 0h1M5 14h2m7 0h2M5 15h2m7 0h2m-5 4h1m-1 1h1m-1 1h1m-6 6h1"/><path stroke="#fff" d="M2 12h1m6 0h3m6 0h1M2 13h1m6 0h3m6 0h1M2 14h1m6 0h3m6 0h1M2 15h1m6 0h3m6 0h1M2 16h1m6 0h3m6 0h1M2 17h17M2 18h6m5 0h6M2 19h6m1 0h2m2 0h6M2 20h6m1 0h2m2 0h3M2 21h6m1 0h2m2 0h2M2 22h6m1 0h3m1 0h2M2 23h5m11 0h1m1 0h1M2 24h4m9 0h1m1 0h1m1 0h1m1 0h1"/><path stroke="red" d="M16 21h7M8 24h5m11 0h4M6 26h21"/><path stroke="#0ff" d="M15 23h1m1 0h1m1 0h1m1 0h1m-8 1h1m3 0h1m1 0h1m1 0h1"/><path stroke="maroon" d="M28 24h2M7 25h22m-2 1h1M7 27h3m3 0h8m3 0h3M6 28h3m5 0h6m5 0h2"/></svg>