<svg xmlns="http://www.w3.org/2000/svg" width="32" height="32" shape-rendering="crispEdges" viewBox="0 -0.5 32 32"><path stroke="gray" d="M12 0h8m0 1h3m0 1h2m-1 1h2m-8 1h2m2 0h5M17 5h2m5 0h2M8 6h1m8 0h2M2 7h1m12 0h2m2 0h1M2 8h1m11 0h1m4 0h2M1 9h2m8 0h1m3 0h3m1 0h3M1 10h1m8 0h1m4 0h5M1 11h1m7 0h2m1 0h1m1 0h1M0 12h1m10 0h1m1 0h1m4 0h3m-10 1h1m4 0h2m3 0h1M0 14h1m14 0h1m8 0h2M8 15h2m3 0h2m11 0h1m2 0h1M1 16h3m4 0h2m2 0h3M2 17h2m5 0h1m1 0h3M2 18h1m5 0h1m4 0h1m-7 1h1m5 0h1m-8 1h1m7 0h1m-9 1h1m7 0h1m-9 1h1m8 0h1m8 0h1m-1 1h2m-5 1h1m3 0h1m-4 1h1m0 1h1"/><path stroke="silver" d="M9 1h3m2 0h4m1 0h1M7 2h5m2 0h1m2 0h6M6 3h4m1 0h4m2 0h7M5 4h1m1 0h2m1 0h1m1 0h6M4 5h1m5 0h2m1 0h4M3 6h1m1 0h1m1 0h1m1 0h3m1 0h4m3 0h1M7 7h2m1 0h5M3 8h1m2 0h8M4 9h7m1 0h3M2 10h8m2 0h3M3 11h1m1 0h1m1 0h1m5 0h1M1 12h1m1 0h1m1 0h1m1 0h4M0 13h2m1 0h2m3 0h3m7 0h1m1 0h1M2 14h3m6 0h1m4 0h1m4 0h1M2 15h2m11 0h1m4 0h1m1 0h1m-4 1h1m1 0h1m1 0h1m-10 1h1m3 0h1m1 0h1m1 0h1m-4 1h1m1 0h1m1 0h1m-10 1h1m3 0h1m1 0h1m1 0h1m-4 1h1m1 0h1m-4 1h1m1 0h1m-4 1h1m1 0h1m3 1h1m-2 1h1m1 0h1m-2 1h1m1 1h1m0 1h1m0 1h1m0 1h1"/><path stroke="#fff" d="M12 1h2m4 0h1m-7 1h1m-3 1h1M6 4h1m2 0h1m1 0h1M5 5h5M4 6h1m1 0h1M3 7h4m2 0h1M4 8h2M3 9h1m4 2h1m8 3h1m1 0h1m-4 1h1m1 0h1m-4 1h1m1 0h1m-2 1h2m-3 1h1m1 0h1m-2 1h1m-2 1h1m1 0h1m-2 1h1m6 3h1m0 1h1"/><path stroke="#0ff" d="M13 2h1m1 0h2m-2 1h2m-5 2h1m-1 1h1M2 11h1m1 0h1m1 0h1m-5 1h1m1 0h1m1 0h1m-5 1h1m2 0h2m12 0h1M1 14h1m3 0h1m12 0h1m1 0h1M4 15h1m12 0h1m1 0h1m1 0h1m-6 1h1m1 0h1m1 0h1m1 0h1m-8 1h1m3 0h1m1 0h1m1 0h1m-10 1h1m1 0h1m1 0h1m1 0h1m1 0h1m-8 1h1m1 0h1m1 0h1m1 0h1m1 0h1m-8 1h1m1 0h1m1 0h1m1 0h1m-6 1h1m1 0h1m1 0h1m-4 1h1m1 0h1"/><path stroke="green" d="M20 4h1m-2 1h1m1 0h1m0 1h1m3 0h1M17 7h1m2 0h1m2 0h2m1 0h2M15 8h4m6 0h1m1 0h1m-6 1h1m1 0h1m1 0h1m1 0h1m-8 1h1m1 0h2m1 0h1m-12 1h3m2 0h1m1 0h2m2 0h2m-14 1h1m6 0h2m1 0h2m-14 1h2m1 0h1m-2 1h1m-5 1h3m-3 1h1m0 2h2m-3 1h2m-5 1h1m2 0h1m1 0h1m-2 1h1m2 1h1"/><path stroke="olive" d="M21 4h1m-2 1h1m1 0h2m-5 1h1m1 0h1m1 0h3m-8 1h1m2 0h2m2 0h1m-5 1h1m2 0h1m-7 1h1m4 0h1m3 0h1m-17 1h1m8 0h1m-10 1h1m6 0h2m1 0h1m3 0h1m-14 1h1m2 0h2m6 0h1m-10 1h1m-3 1h2m14 0h1m-18 2h1m-2 1h1m-2 1h2m-2 1h1m2 0h1m-2 1h1m-5 1h1m1 0h2m1 0h2m-6 1h1m2 0h1m-1 1h1m-2 1h1"/><path stroke="teal" d="M26 5h1m-5 3h2M7 13h1m-2 1h5m11 0h1M0 15h2m3 0h3m15 0h1m1 0h1M0 16h1m3 0h4m-8 1h2m2 0h5m15 0h1M0 18h2m1 0h5m16 0h1M0 19h7m1 0h1m15 0h1M0 20h6m3 0h1m13 0h1M1 21h5m2 0h1m6 0h1m6 0h2M1 22h5m1 0h1m1 0h2m1 0h1m3 0h1m4 0h2M2 23h3m1 0h1m3 0h1m2 0h1m4 0h3M2 24h5m-2 1h1"/><path stroke="#000" d="M27 5h1m-1 1h2m-1 1h2m-4 1h1m1 0h2m-5 1h1m3 0h2m-9 1h1m2 0h1m1 0h4m-7 1h1m3 0h3m-14 1h1m8 0h6m-10 1h7m1 0h2m-9 1h1m2 0h2m1 0h3m-8 1h1m2 0h2m1 0h2m-8 1h1m1 0h6m-7 1h7m-7 1h7m-7 1h2m1 0h4m-8 1h7m-7 1h6m-17 1h1m9 0h1m1 0h4M7 23h3m2 0h1m1 0h4m3 0h2m3 0h3M8 24h2m1 0h10m6 0h2M3 25h1m5 0h13m6 0h1M4 26h1m2 0h1m1 0h3m1 0h10m6 0h1M5 27h1m6 0h1m1 0h1m2 0h4m1 0h2m6 0h1M6 28h1m5 0h1m1 0h11m6 0h1M7 29h2m1 0h1m3 0h11m6 0h1m-18 1h1m2 0h6m8 0h1m-14 1h2m8 0h3"/><path stroke="maroon" d="M29 13h1m-5 3h1m1 3h1M8 20h1m17 4h1m-1 1h2m-1 1h2m-5 1h1m3 0h2m-5 1h1m3 0h2m-5 1h1m3 0h1m-4 1h1m2 0h1"/><path stroke="navy" d="M13 20h1m16 1h1m-2 1h2M5 23h1m23 0h1M7 24h1m21 0h1M4 25h1m1 0h3m-4 1h2m1 0h1m3 0h1m-7 1h6m1 0h1m1 0h2m4 0h1M7 28h5m1 0h1m-5 1h1m1 0h3m-5 1h5m1 0h2m-5 1h6"/><path stroke="red" d="M25 25h1m-2 1h1m1 0h1m-2 1h1m1 0h1m-2 1h1m1 0h1m-2 1h1m1 0h1m-2 1h2"/></svg>