<svg xmlns="http://www.w3.org/2000/svg" viewBox="0 -0.5 32 32" shape-rendering="crispEdges">
<path stroke="#000000" d="M0 0h1M3 0h2M6 0h2M9 0h2M12 0h2M15 0h2M18 0h2M21 0h2M24 0h1M26 1h1M3 2h1M6 2h1M9 2h1M12 2h1M15 2h1M18 2h1M21 2h1M25 2h1M27 2h1M3 3h1M6 3h1M9 3h1M12 3h1M15 3h1M18 3h1M21 3h1M25 3h1M27 3h1M25 4h1M27 4h1M25 5h1M25 6h1M25 7h1M30 7h1M25 8h1M29 8h2M29 9h1M29 10h1M28 11h1M28 12h1M27 13h1M27 14h1M26 15h2M26 16h2M25 17h1M27 17h1M25 18h1M27 18h1M24 19h2M27 19h1M24 20h2M27 20h1M23 21h1M25 21h1M27 21h1M23 22h1M25 22h1M27 22h1M22 23h1M25 23h1M27 23h1M20 24h2M25 24h1M27 24h1M19 25h2M25 25h1M27 25h1M19 26h1M25 26h1M27 26h1M25 27h1M27 27h1M25 28h1M27 28h1M25 29h1M27 29h1M24 30h1M26 30h1M3 31h23" />
<path stroke="#808080" d="M0 0h1M2 1h1M4 1h2M7 1h2M10 1h2M13 1h2M16 1h2M19 1h2M22 1h2M25 1h1M1 2h1M24 2h1M1 3h1M24 3h1M1 4h1M1 5h1M1 6h1M1 7h1M1 8h1M1 9h1M1 10h1M1 11h1M1 12h1M1 13h1M1 14h1M1 15h1M1 16h1M1 17h1M1 18h1M1 19h1M1 20h1M1 21h1M1 22h1M1 23h1M19 23h1M1 24h1M19 24h1M1 25h1M1 26h1M1 27h1M1 28h1M1 29h1M2 30h1" />
<path stroke="#ffffff" d="M0 0h1M3 1h1M6 1h1M9 1h1M12 1h1M15 1h1M18 1h1M21 1h1M24 1h1M2 2h1M4 2h2M7 2h2M10 2h2M13 2h2M16 2h2M19 2h2M22 2h2M2 3h1M4 3h2M7 3h2M10 3h2M13 3h2M16 3h2M19 3h2M22 3h2M2 4h22M2 5h22M2 6h22M2 8h22M2 9h22M26 9h1M26 10h1M2 11h22M25 11h1M2 12h22M25 12h1M24 13h1M2 14h21M24 14h1M2 15h20M23 15h1M23 16h1M2 17h19M22 17h1M2 18h19M22 18h1M21 19h1M2 20h18M21 20h1M2 21h17M20 21h1M20 22h1M2 23h17M20 23h1M23 23h1M2 24h17M22 24h2M2 26h17M20 26h4M2 27h22M2 29h22" />
<path stroke="#c0c0c0" d="M0 0h1M26 2h1M26 3h1M24 4h1M26 4h1M24 5h1M26 5h1M24 6h1M26 6h1M2 7h23M24 8h1M24 9h1M2 10h23M2 13h21M2 16h20M26 17h1M26 18h1M2 19h18M26 19h1M26 20h1M24 21h1M26 21h1M2 22h17M24 22h1M26 22h1M21 23h1M24 23h1M26 23h1M24 24h1M26 24h1M2 25h17M21 25h4M26 25h1M24 26h1M26 26h1M24 27h1M26 27h1M2 28h23M26 28h1M24 29h1M26 29h1M3 30h21M25 30h1" />
<path stroke="#800000" d="M0 0h1M27 5h3M27 6h1M30 6h1M27 7h3" />
<path stroke="#ff0000" d="M0 0h1M28 6h2" />
<path stroke="#008000" d="M0 0h1M26 7h1M26 8h1M28 8h1" />
<path stroke="#00ff00" d="M0 0h1M27 8h1M28 9h1" />
<path stroke="#808000" d="M0 0h1M25 9h1M25 10h1M28 10h1M24 11h1M27 11h1M24 12h1M27 12h1M23 13h1M26 13h1M23 14h1M26 14h1M22 15h1M25 15h1M22 16h1M25 16h1M21 17h1M24 17h1M21 18h1M24 18h1M20 19h1M23 19h1M20 20h1M23 20h1M19 21h1M22 21h1M19 22h1M22 22h1" />
<path stroke="#ffff00" d="M0 0h1M27 9h1M27 10h1M26 11h1M26 12h1M25 13h1M25 14h1M24 15h1M24 16h1M23 17h1M23 18h1M22 19h1M22 20h1M21 21h1M21 22h1" />
</svg>