<svg xmlns="http://www.w3.org/2000/svg" viewBox="0 -0.5 32 32" shape-rendering="crispEdges">
<path stroke="#000080" d="M0 0h1M7 4h2M23 4h2M6 5h1M9 5h1M22 5h1M25 5h1M5 6h1M10 6h1M21 6h1M26 6h1M5 7h1M10 7h1M21 7h1M26 7h1M5 8h1M10 8h1M21 8h1M26 8h1M6 9h1M9 9h1M22 9h1M25 9h1M7 10h2M23 10h2M7 11h2M23 11h2M5 12h2M9 12h2M21 12h2M25 12h2M4 13h1M11 13h1M20 13h1M27 13h1M3 14h1M12 14h1M19 14h1M28 14h1M2 15h1M4 15h1M11 15h1M13 15h1M18 15h1M20 15h1M27 15h1M29 15h1M2 16h2M5 16h1M10 16h1M12 16h1M14 16h1M17 16h1M19 16h1M21 16h1M26 16h1M28 16h2M1 17h2M5 17h1M10 17h1M13 17h1M15 17h2M18 17h1M21 17h1M26 17h1M29 17h2M1 18h2M5 18h1M10 18h1M14 18h1M17 18h1M21 18h1M26 18h1M29 18h2M1 19h1M5 19h1M10 19h1M15 19h2M21 19h1M26 19h1M30 19h1M5 20h1M7 20h2M10 20h1M21 20h1M23 20h2M26 20h1M5 21h2M9 21h2M21 21h2M25 21h2M5 22h2M9 22h2M21 22h2M25 22h2M5 23h2M9 23h2M21 23h2M25 23h2M5 24h2M9 24h2M21 24h2M25 24h2M5 25h2M9 25h2M21 25h2M25 25h2M4 26h1M6 26h1M9 26h1M11 26h1M20 26h1M22 26h1M25 26h1M27 26h1M3 27h4M9 27h4M19 27h4M25 27h4" />
<path stroke="#0000ff" d="M0 0h1M7 5h2M23 5h2M6 6h4M22 6h4M6 7h4M22 7h4M6 8h4M22 8h4M7 9h2M23 9h2M7 12h2M23 12h2M5 13h6M21 13h6M4 14h8M20 14h8M3 15h1M5 15h6M12 15h1M19 15h1M21 15h6M28 15h1M6 16h4M13 16h1M18 16h1M22 16h4M6 17h4M14 17h1M17 17h1M22 17h4M6 18h4M15 18h2M22 18h4M6 19h4M22 19h4M6 20h1M9 20h1M22 20h1M25 20h1M5 26h1M10 26h1M21 26h1M26 26h1" />
</svg>