<svg xmlns="http://www.w3.org/2000/svg" viewBox="0 -0.5 32 32" shape-rendering="crispEdges">
<path stroke="#808080" d="M0 0h1M12 0h8M20 1h3M23 2h2M24 3h2M18 4h2M22 4h5M17 5h2M24 5h2M8 6h1M17 6h2M2 7h1M15 7h2M19 7h1M2 8h1M14 8h1M19 8h2M1 9h2M11 9h1M15 9h3M19 9h3M1 10h1M10 10h1M15 10h5M1 11h1M9 11h2M12 11h1M14 11h1M0 12h1M11 12h1M13 12h1M18 12h3M11 13h1M16 13h2M21 13h1M0 14h1M15 14h1M24 14h2M8 15h2M13 15h2M26 15h1M29 15h1M1 16h3M8 16h2M12 16h3M2 17h2M9 17h1M11 17h3M2 18h1M8 18h1M13 18h1M7 19h1M13 19h1M6 20h1M14 20h1M6 21h1M14 21h1M6 22h1M15 22h1M24 22h1M24 23h2M21 24h1M25 24h1M22 25h1M23 26h1" />
<path stroke="#c0c0c0" d="M0 0h1M9 1h3M14 1h4M19 1h1M7 2h5M14 2h1M17 2h6M6 3h4M11 3h4M17 3h7M5 4h1M7 4h2M10 4h1M12 4h6M4 5h1M10 5h2M13 5h4M3 6h1M5 6h1M7 6h1M9 6h3M13 6h4M20 6h1M7 7h2M10 7h5M3 8h1M6 8h8M4 9h7M12 9h3M2 10h8M12 10h3M3 11h1M5 11h1M7 11h1M13 11h1M1 12h1M3 12h1M5 12h1M7 12h4M0 13h2M3 13h2M8 13h3M18 13h1M20 13h1M2 14h3M11 14h1M16 14h1M21 14h1M2 15h2M15 15h1M20 15h1M22 15h1M19 16h1M21 16h1M23 16h1M14 17h1M18 17h1M20 17h1M22 17h1M19 18h1M21 18h1M23 18h1M14 19h1M18 19h1M20 19h1M22 19h1M19 20h1M21 20h1M18 21h1M20 21h1M17 22h1M19 22h1M23 23h1M22 24h1M24 24h1M23 25h1M25 26h1M26 27h1M27 28h1M28 29h1" />
<path stroke="#ffffff" d="M0 0h1M12 1h2M18 1h1M12 2h1M10 3h1M6 4h1M9 4h1M11 4h1M5 5h5M4 6h1M6 6h1M3 7h4M9 7h1M4 8h2M3 9h1M8 11h1M17 14h1M19 14h1M16 15h1M18 15h1M15 16h1M17 16h1M16 17h2M15 18h1M17 18h1M16 19h1M15 20h1M17 20h1M16 21h1M23 24h1M24 25h1" />
<path stroke="#00ffff" d="M0 0h1M13 2h1M15 2h2M15 3h2M12 5h1M12 6h1M2 11h1M4 11h1M6 11h1M2 12h1M4 12h1M6 12h1M2 13h1M5 13h2M19 13h1M1 14h1M5 14h1M18 14h1M20 14h1M4 15h1M17 15h1M19 15h1M21 15h1M16 16h1M18 16h1M20 16h1M22 16h1M15 17h1M19 17h1M21 17h1M23 17h1M14 18h1M16 18h1M18 18h1M20 18h1M22 18h1M15 19h1M17 19h1M19 19h1M21 19h1M23 19h1M16 20h1M18 20h1M20 20h1M22 20h1M17 21h1M19 21h1M21 21h1M18 22h1M20 22h1" />
<path stroke="#008000" d="M0 0h1M20 4h1M19 5h1M21 5h1M22 6h1M26 6h1M17 7h1M20 7h1M23 7h2M26 7h2M15 8h4M25 8h1M27 8h1M22 9h1M24 9h1M26 9h1M28 9h1M21 10h1M23 10h2M26 10h1M15 11h3M20 11h1M22 11h2M26 11h2M14 12h1M21 12h2M24 12h2M12 13h2M15 13h1M14 14h1M10 15h3M10 16h1M11 18h2M10 19h2M7 20h1M10 20h1M12 20h1M11 21h1M14 22h1" />
<path stroke="#808000" d="M0 0h1M21 4h1M20 5h1M22 5h2M19 6h1M21 6h1M23 6h3M18 7h1M21 7h2M25 7h1M21 8h1M24 8h1M18 9h1M23 9h1M27 9h1M11 10h1M20 10h1M11 11h1M18 11h2M21 11h1M25 11h1M12 12h1M15 12h2M23 12h1M14 13h1M12 14h2M28 14h1M11 16h1M10 17h1M9 18h2M9 19h1M12 19h1M11 20h1M7 21h1M9 21h2M12 21h2M8 22h1M11 22h1M11 23h1M10 24h1" />
<path stroke="#008080" d="M0 0h1M26 5h1M22 8h2M7 13h1M6 14h5M22 14h1M0 15h2M5 15h3M23 15h1M25 15h1M0 16h1M4 16h4M0 17h2M4 17h5M24 17h1M0 18h2M3 18h5M24 18h1M0 19h7M8 19h1M24 19h1M0 20h6M9 20h1M23 20h1M1 21h5M8 21h1M15 21h1M22 21h2M1 22h5M7 22h1M9 22h2M12 22h1M16 22h1M21 22h2M2 23h3M6 23h1M10 23h1M13 23h1M18 23h3M2 24h5M5 25h1" />
<path stroke="#000000" d="M0 0h1M27 5h1M27 6h2M28 7h2M26 8h1M28 8h2M25 9h1M29 9h2M22 10h1M25 10h1M27 10h4M24 11h1M28 11h3M17 12h1M26 12h6M22 13h7M30 13h2M23 14h1M26 14h2M29 14h3M24 15h1M27 15h2M30 15h2M24 16h1M26 16h6M25 17h7M25 18h7M25 19h2M28 19h4M24 20h7M24 21h6M13 22h1M23 22h1M25 22h4M7 23h3M12 23h1M14 23h4M21 23h2M26 23h3M8 24h2M11 24h10M27 24h2M3 25h1M9 25h13M28 25h1M4 26h1M7 26h1M9 26h3M13 26h10M29 26h1M5 27h1M12 27h1M14 27h1M17 27h4M22 27h2M30 27h1M6 28h1M12 28h1M14 28h11M31 28h1M7 29h2M10 29h1M14 29h11M31 29h1M14 30h1M17 30h6M31 30h1M18 31h2M28 31h3" />
<path stroke="#800000" d="M0 0h1M29 13h1M25 16h1M27 19h1M8 20h1M26 24h1M26 25h2M27 26h2M24 27h1M28 27h2M25 28h1M29 28h2M26 29h1M30 29h1M27 30h1M30 30h1" />
<path stroke="#000080" d="M0 0h1M13 20h1M30 21h1M29 22h2M5 23h1M29 23h1M7 24h1M29 24h1M4 25h1M6 25h3M5 26h2M8 26h1M12 26h1M6 27h6M13 27h1M15 27h2M21 27h1M7 28h5M13 28h1M9 29h1M11 29h3M9 30h5M15 30h2M12 31h6" />
<path stroke="#ff0000" d="M0 0h1M25 25h1M24 26h1M26 26h1M25 27h1M27 27h1M26 28h1M28 28h1M27 29h1M29 29h1M28 30h2" />
</svg>