<svg xmlns="http://www.w3.org/2000/svg" viewBox="0 -0.5 16 16" shape-rendering="crispEdges">
<path stroke="#808080" d="M0 0h1M3 2h9M3 3h1M11 3h1M3 4h1M11 4h1M11 5h1M11 6h1M11 7h1M11 8h1M11 9h1M11 10h1M11 11h1M3 12h1M11 12h1M3 13h5M11 13h1" />
<path stroke="#ffffff" d="M0 0h1M4 3h7M4 4h7M6 5h5M4 6h1M7 6h4M2 7h2M5 7h1M8 7h3M2 8h1M4 8h1M6 8h1M8 8h3M2 9h2M5 9h1M8 9h3M4 10h1M8 10h3M9 11h2M4 12h3M10 12h1" />
<path stroke="#000000" d="M0 0h1M3 5h3M2 6h1M6 6h1M1 7h1M7 7h1M1 8h1M7 8h1M1 9h1M7 9h1M2 10h1M6 10h2M3 11h6M7 12h3M8 13h3M9 14h3M10 15h2" />
<path stroke="#c0c0c0" d="M0 0h1M3 6h1M5 6h1M4 7h1M6 7h1M3 8h1M5 8h1M4 9h1M6 9h1M3 10h1M5 10h1" />
</svg>