<svg xmlns="http://www.w3.org/2000/svg" width="32" height="32" shape-rendering="crispEdges" viewBox="0 -0.5 32 32"><path stroke="navy" d="M5 2h17M5 3h1m16 0h1M5 4h1m17 0h1M5 5h1m18 0h1M5 6h1m19 0h1M5 7h1M5 8h1M5 9h1m-1 1h1m2 0h16M5 11h1m2 0h1m14 0h1M5 12h1m2 0h1m14 0h1M5 13h1m2 0h1m14 0h1M5 14h1m2 0h1m14 0h1M5 15h1m2 0h1m14 0h1M5 16h1m2 0h1m14 0h1M5 17h1m2 0h1m14 0h1M5 18h1m2 0h1m14 0h1M5 19h1m2 0h1m14 0h1M5 20h1m2 0h1m14 0h1M5 21h1m2 0h1m14 0h1M5 22h1m2 0h1m14 0h1M5 23h1m2 0h1m14 0h1M5 24h1m2 0h1m14 0h1M5 25h1m2 0h16M5 26h1m-1 1h1m-1 1h1"/><path stroke="#fff" d="M6 3h15M6 4h15m1 0h1M6 5h15m1 0h2M6 6h15m1 0h3M6 7h15M6 8h15M6 9h20M6 10h2m16 0h2M6 11h2m16 0h2M6 12h2m2 0h12m2 0h2M6 13h2m2 0h1m10 0h1m2 0h2M6 14h2m2 0h1m10 0h1m2 0h2M6 15h2m2 0h1m10 0h1m2 0h2M6 16h2m2 0h1m10 0h1m2 0h2M6 17h2m2 0h1m10 0h1m2 0h2M6 18h2m2 0h1m10 0h1m2 0h2M6 19h2m2 0h1m10 0h1m2 0h2M6 20h2m2 0h1m10 0h1m2 0h2M6 21h2m2 0h1m10 0h1m2 0h2M6 22h2m2 0h1m10 0h1m2 0h2M6 23h2m2 0h12m2 0h2M6 24h2m16 0h2M6 25h2m16 0h2M6 26h20M6 27h20M6 28h20"/><path stroke="gray" d="M21 3h1m-1 1h1m-1 1h1m-1 1h1m-1 1h5m1 1h1m-1 1h1m-1 1h1m-1 1h1m-1 1h1m-1 1h1m-1 1h1m-16 1h1m14 0h1m-17 1h1m1 0h1m1 0h1m11 0h1m-14 1h1m12 0h1m-15 1h1m13 0h1m-16 1h1m14 0h1m-17 1h1m15 0h1m-17 1h1m15 0h1m-17 1h7m1 0h2m6 0h1m-1 1h1m-1 1h1m-1 1h1m-1 1h1m-1 1h1m-1 1h1m-1 1h1M6 30h22"/><path stroke="#000" d="M26 7h1m-1 1h1m-1 1h1m-1 1h1m-1 1h1m-1 1h1m-9 1h1m7 0h1m-9 1h2m6 0h1m-10 1h1m1 0h1m6 0h1m-11 1h1m2 0h1m6 0h1m-7 1h1m5 0h1m-12 1h1m3 0h1m6 0h1m-11 1h1m3 0h1m5 0h1m-8 1h1m6 0h1m-1 1h1m-1 1h1m-1 1h1m-1 1h1m-1 1h1m-1 1h1m-1 1h1m-1 1h1M5 29h22"/><path stroke="silver" d="M21 8h5m-11 9h1m-2 1h1m-2 1h3m-4 1h5m3 0h1m-9 1h6m1 0h2"/><path stroke="maroon" d="M9 11h14M9 12h1m12 0h1M9 13h1m12 0h1M9 14h1m12 0h1M9 15h1m12 0h1M9 16h1m12 0h1M9 17h1m12 0h1M9 18h1m12 0h1M9 19h1m12 0h1M9 20h1m12 0h1M9 21h1m8 0h1m3 0h1M9 22h1m8 0h1m3 0h1M9 23h1m12 0h1M9 24h14"/><path stroke="#0ff" d="M11 13h7m1 0h2m-10 1h7m2 0h1m-10 1h1m1 0h4m3 0h1m-7 1h1m5 0h1m-1 2h1"/><path stroke="green" d="M18 15h1m-2 1h2m-3 1h4m-4 1h3m-2 1h3m-3 1h2"/><path stroke="teal" d="M12 16h1m-2 1h3m-3 1h2m-2 1h1"/></svg>