<svg xmlns="http://www.w3.org/2000/svg" viewBox="0 -0.5 16 16" shape-rendering="crispEdges">
<path stroke="#000080" d="M0 0h1M0 0h16M0 1h1M15 1h1M0 2h1M15 2h1M0 3h1M15 3h1M0 4h1M15 4h1M0 5h1M15 5h1M0 6h1M15 6h1M0 7h1M15 7h1M0 8h1M15 8h1M0 9h1M15 9h1M0 10h1M15 10h1M0 11h1M15 11h1M0 12h1M15 12h1M0 13h1M15 13h1M0 14h1M15 14h1M0 15h16" />
<path stroke="#800000" d="M0 0h1M1 1h14M1 2h1M14 2h1M1 3h1M14 3h1M1 4h1M14 4h1M1 5h1M14 5h1M1 6h1M14 6h1M1 7h1M14 7h1M1 8h1M14 8h1M1 9h1M14 9h1M1 10h1M14 10h1M1 11h1M10 11h1M14 11h1M1 12h1M10 12h1M14 12h1M1 13h1M14 13h1M1 14h14" />
<path stroke="#ffffff" d="M0 0h1M2 2h12M2 3h1M13 3h1M2 4h1M13 4h1M2 5h1M13 5h1M2 6h1M13 6h1M2 7h1M13 7h1M2 8h1M13 8h1M2 9h1M13 9h1M2 10h1M13 10h1M2 11h1M13 11h1M2 12h1M13 12h1M2 13h12" />
<path stroke="#00ffff" d="M0 0h1M3 3h7M11 3h2M3 4h7M12 4h1M3 5h1M5 5h4M12 5h1M6 6h1M12 6h1M12 8h1" />
<path stroke="#000000" d="M0 0h1M10 3h1M10 4h2M9 5h1M11 5h1M8 6h1M11 6h1M12 7h1M7 8h1M11 8h1M8 9h1M12 9h1M11 10h1" />
<path stroke="#808080" d="M0 0h1M4 5h1M3 6h1M5 6h1M7 6h1M6 7h1M5 8h1M4 9h1M3 10h1M3 11h1M3 12h7M11 12h2" />
<path stroke="#008000" d="M0 0h1M10 5h1M9 6h2M8 7h4M8 8h3M9 9h3M9 10h2" />
<path stroke="#008080" d="M0 0h1M4 6h1M3 7h3M3 8h2M3 9h1" />
<path stroke="#c0c0c0" d="M0 0h1M7 7h1M6 8h1M5 9h3M4 10h5M12 10h1M4 11h6M11 11h2" />
</svg>