<svg xmlns="http://www.w3.org/2000/svg" width="16" height="16" shape-rendering="crispEdges" viewBox="0 -0.5 16 16"><path stroke="navy" d="M0 0h16M0 1h1m14 0h1M0 2h1m14 0h1M0 3h1m14 0h1M0 4h1m14 0h1M0 5h1m14 0h1M0 6h1m14 0h1M0 7h1m14 0h1M0 8h1m14 0h1M0 9h1m14 0h1M0 10h1m14 0h1M0 11h1m14 0h1M0 12h1m14 0h1M0 13h1m14 0h1M0 14h1m14 0h1M0 15h16"/><path stroke="maroon" d="M1 1h14M1 2h1m12 0h1M1 3h1m12 0h1M1 4h1m12 0h1M1 5h1m12 0h1M1 6h1m12 0h1M1 7h1m12 0h1M1 8h1m12 0h1M1 9h1m12 0h1M1 10h1m12 0h1M1 11h1m8 0h1m3 0h1M1 12h1m8 0h1m3 0h1M1 13h1m12 0h1M1 14h14"/><path stroke="#fff" d="M2 2h12M2 3h1m10 0h1M2 4h1m10 0h1M2 5h1m10 0h1M2 6h1m10 0h1M2 7h1m10 0h1M2 8h1m10 0h1M2 9h1m10 0h1M2 10h1m10 0h1M2 11h1m10 0h1M2 12h1m10 0h1M2 13h12"/><path stroke="#0ff" d="M3 3h7m1 0h2M3 4h7m2 0h1M3 5h1m1 0h4m3 0h1M6 6h1m5 0h1m-1 2h1"/><path stroke="#000" d="M10 3h1m-1 1h2M9 5h1m1 0h1M8 6h1m2 0h1m0 1h1M7 8h1m3 0h1M8 9h1m3 0h1m-2 1h1"/><path stroke="gray" d="M4 5h1M3 6h1m1 0h1m1 0h1M6 7h1M5 8h1M4 9h1m-2 1h1m-1 1h1m-1 1h7m1 0h2"/><path stroke="green" d="M10 5h1M9 6h2M8 7h4M8 8h3M9 9h3m-3 1h2"/><path stroke="teal" d="M4 6h1M3 7h3M3 8h2M3 9h1"/><path stroke="silver" d="M7 7h1M6 8h1M5 9h3m-4 1h5m3 0h1m-9 1h6m1 0h2"/></svg>