<svg xmlns="http://www.w3.org/2000/svg" width="16" height="16" shape-rendering="crispEdges" viewBox="0 -0.5 16 16"><path stroke="navy" d="M2 0h9M2 1h1m8 0h1M2 2h1m9 0h1M2 3h1M2 4h1M2 5h1M2 6h1M2 7h1M2 8h1M2 9h1m-1 1h1m-1 1h1m-1 1h1m-1 1h1"/><path stroke="#fff" d="M3 1h7M3 2h7m1 0h1M3 3h7M3 4h10M3 13h10"/><path stroke="gray" d="M10 1h1m-1 1h1m-1 1h3M3 5h6m1 0h3M3 10h1m8 0h1"/><path stroke="#000" d="M13 3h1m-1 1h1M9 5h1m3 0h1m-1 1h1M8 7h1m1 0h1m2 0h1M7 8h1m3 0h1m1 0h1M8 9h1m1 0h1m2 0h1m-7 1h1m3 0h1m1 0h1m-1 1h1m-1 1h1m-1 1h1M2 14h12"/><path stroke="#0ff" d="M3 6h6m1 0h3M3 7h2m1 0h2m3 0h2M3 8h1m8 0h1m-2 1h2"/><path stroke="green" d="M9 6h1M9 7h1M8 8h3M9 9h1m-2 1h3"/><path stroke="teal" d="M5 7h1M4 8h1m1 0h1M3 9h1"/><path stroke="silver" d="M5 8h1M4 9h4m-4 1h3m-4 1h6m1 0h3"/><path stroke="maroon" d="M9 11h1m-7 1h10"/></svg>