<svg xmlns="http://www.w3.org/2000/svg" width="32" height="32" shape-rendering="crispEdges" viewBox="0 -0.5 32 32"><path stroke="navy" d="M0 0h32M0 1h1m30 0h1M0 2h1m30 0h1M0 3h1m30 0h1M0 4h1m30 0h1M0 5h1m30 0h1M0 6h1m30 0h1M0 7h1m30 0h1M0 8h1m30 0h1M0 9h1m30 0h1M0 10h1m30 0h1M0 11h1m30 0h1M0 12h1m30 0h1M0 13h1m30 0h1M0 14h1m30 0h1M0 15h1m30 0h1M0 16h1m30 0h1M0 17h1m30 0h1M0 18h1m30 0h1M0 19h1m30 0h1M0 20h1m30 0h1M0 21h1m30 0h1M0 22h1m30 0h1M0 23h1m30 0h1M0 24h1m30 0h1M0 25h1m30 0h1M0 26h1m30 0h1M0 27h1m30 0h1M0 28h1m30 0h1M0 29h1m30 0h1M0 30h1m30 0h1M0 31h32"/><path stroke="maroon" d="M1 1h1m1 0h1m1 0h1m1 0h1m1 0h1m1 0h1m1 0h1m1 0h1m1 0h1m1 0h1m1 0h1m1 0h1m1 0h1m1 0h1m1 0h1M2 2h29M1 3h2m26 0h1M2 4h1m26 0h2M1 5h2m26 0h1M2 6h1m26 0h2M1 7h2m26 0h1M2 8h1m26 0h2M1 9h2m26 0h1M2 10h1m26 0h2M1 11h2m26 0h1M2 12h1m26 0h2M1 13h2m26 0h1M2 14h1m26 0h2M1 15h2m26 0h1M2 16h1m26 0h2M1 17h2m26 0h1M2 18h1m26 0h2M1 19h2m26 0h1M2 20h1m26 0h2M1 21h2m26 0h1M2 22h1m26 0h2M1 23h2m17 0h1m8 0h1M2 24h1m17 0h1m8 0h2M1 25h2m17 0h1m8 0h1M2 26h1m26 0h2M1 27h2m26 0h1M2 28h1m26 0h2M1 29h29M2 30h1m1 0h1m1 0h1m1 0h1m1 0h1m1 0h1m1 0h1m1 0h1m1 0h1m1 0h1m1 0h1m1 0h1m1 0h1m1 0h1m1 0h1"/><path stroke="olive" d="M2 1h1m1 0h1m1 0h1m1 0h1m1 0h1m1 0h1m1 0h1m1 0h1m1 0h1m1 0h1m1 0h1m1 0h1m1 0h1m1 0h1m1 0h1M1 2h1m28 1h1M1 4h1m28 1h1M1 6h1m28 1h1M1 8h1m28 1h1M1 10h1m28 1h1M1 12h1m28 1h1M1 14h1m28 1h1M1 16h1m28 1h1M1 18h1m28 1h1M1 20h1m28 1h1M1 22h1m28 1h1M1 24h1m4 1h13m3 0h4m4 0h1M1 26h1m28 1h1M1 28h1m28 1h1M1 30h1m1 0h1m1 0h1m1 0h1m1 0h1m1 0h1m1 0h1m1 0h1m1 0h1m1 0h1m1 0h1m1 0h1m1 0h1m1 0h1m1 0h1"/><path stroke="#fff" d="M3 3h26M3 4h26M3 5h2m22 0h2M3 6h2m2 0h1m1 0h1m1 0h1m1 0h1m1 0h1m1 0h1m1 0h1m3 0h1m1 0h1m1 0h2M3 7h2m1 0h1m1 0h1m1 0h1m1 0h1m1 0h1m1 0h1m1 0h1m3 0h1m1 0h1m2 0h2M3 8h2m2 0h1m1 0h1m1 0h1m1 0h1m1 0h1m1 0h1m1 0h1m3 0h1m1 0h1m1 0h2M3 9h2m1 0h1m1 0h1m3 0h1m1 0h1m1 0h1m1 0h1m5 0h1m2 0h2M3 10h2m2 0h1m5 0h1m1 0h1m1 0h1m5 0h1m1 0h1m1 0h2M3 11h2m1 0h1m7 0h1m1 0h1m10 0h2M3 12h2m20 0h1m1 0h2M3 13h2m10 0h1m8 0h1m2 0h2M3 14h2m9 0h1m12 0h2M3 15h2m8 0h1m13 0h2M3 16h2m7 0h1m14 0h2M3 17h2m6 0h1m1 0h1m13 0h2M3 18h2m5 0h1m1 0h1m1 0h1m12 0h2M3 19h2m4 0h1m1 0h1m1 0h1m13 0h2M3 20h2m3 0h1m1 0h1m1 0h1m14 0h2M3 21h2m2 0h1m1 0h1m17 0h2M3 22h2m22 0h2M3 23h2m22 0h2M3 24h2m22 0h2M3 25h2m22 0h2M3 26h2m22 0h2M3 27h26M3 28h26"/><path stroke="teal" d="M5 5h22M5 6h1m20 0h1M5 7h1m20 0h1M5 8h1m15 0h1m4 0h1M5 9h1m16 0h1m3 0h1M5 10h1m15 0h1m4 0h1M5 11h1m4 0h1m9 0h1m1 0h1m3 0h1M5 12h1m3 0h1m1 0h1m7 0h1m1 0h1m4 0h1M5 13h1m2 0h1m1 0h1m1 0h1m13 0h1M5 14h1m1 0h1m1 0h1m1 0h1m9 0h1m4 0h1M5 15h2m1 0h1m1 0h1m9 0h1m1 0h1m3 0h1M5 16h1m1 0h1m1 0h1m8 0h1m2 0h1m1 0h1m2 0h1M5 17h2m1 0h1m9 0h1m1 0h1m1 0h1m1 0h1m1 0h1M5 18h1m1 0h1m9 0h2m2 0h1m1 0h1m2 0h1M5 19h2m11 0h1m1 0h1m1 0h1m1 0h1m1 0h1M5 20h1m13 0h1m1 0h1m1 0h1m1 0h2M5 21h1m12 0h1m1 0h1m1 0h1m3 0h1M5 22h1m13 0h1m1 0h1m4 0h1M5 23h1m20 0h1M5 24h1m20 0h1M5 25h1m20 0h1M5 26h22"/><path stroke="#0ff" d="M6 6h1m1 0h1m1 0h1m1 0h1m1 0h1m1 0h1m1 0h1m1 0h1m1 0h1m1 0h1M7 7h1m1 0h1m1 0h1m1 0h1m1 0h1m1 0h1m1 0h1m3 0h1m1 0h1M6 8h1m1 0h1m1 0h1m1 0h1m1 0h1m1 0h1m1 0h1m5 0h1M7 9h1m1 0h1m1 0h1m1 0h1m1 0h1m1 0h1m7 0h1M6 10h1m1 0h1m1 0h1m1 0h1m1 0h1m1 0h1m7 0h1M7 11h1m1 0h1m1 0h1m1 0h1m3 0h1m7 0h1M6 12h1m1 0h1m1 0h1m13 0h1M7 13h1m1 0h1m13 0h1m1 0h1M6 14h1m1 0h1m1 0h1m-4 1h1m1 0h1m15 0h1M6 16h1m1 0h1m-2 1h1m-2 1h1"/><path stroke="#000" d="M21 6h1m-2 1h2m-2 1h1m1 0h1M10 9h1m8 0h1m3 0h1M9 10h1m1 0h1m6 0h1m3 0h1M8 11h1m3 0h1m5 0h1m4 0h2M7 12h1m5 0h1m2 0h3m1 0h1m1 0h2M6 13h1m10 0h1m3 0h1m-6 1h1m5 0h4m-12 1h2m7 0h2m-12 1h1m10 0h2m-12 1h2m3 0h1m1 0h1m1 0h1m1 0h1m-10 1h1m5 0h1m2 0h1m-12 1h2m3 0h1m3 0h1m1 0h1m-11 1h1m6 0h1m1 0h1m-9 1h2m5 0h3m-8 1h1m1 0h1m1 0h1m-4 1h1m1 0h1m-3 1h1m1 0h1m-3 1h1m1 0h1"/><path stroke="#0f0" d="M20 9h1m-1 1h1m-2 1h1m-2 2h1m-2 1h1m1 0h1m-4 1h1m1 0h1m-5 1h1m4 0h1m-4 1h2m1 1h2m-5 1h2m0 1h1"/><path stroke="green" d="M21 9h1m-3 1h1m1 1h1m-3 2h2m1 0h1m-5 1h1m1 0h1m-4 1h1m1 0h1m1 0h1m-7 1h3m2 0h1m1 0h1m1 2h1m-4 1h1m-6 1h2m2 0h1m-2 1h1m1 0h1"/><path stroke="gray" d="M15 11h1m-2 1h1m-2 1h1m-2 1h1m-2 1h1m-2 1h1m-2 1h1m-2 1h1m-2 1h1m-2 1h1m-1 4h13m3 0h4"/><path stroke="silver" d="M12 12h1m2 0h1m-5 1h1m2 0h1m1 0h1m-4 1h1m1 0h1m-4 1h1m-2 1h1m-2 1h1m1 0h1m-4 1h1m1 0h1m1 0h1m1 0h1m-8 1h1m1 0h1m1 0h1m-6 1h1m1 0h1m1 0h1m1 0h2m-9 1h1m1 0h1m1 0h6M6 22h12m5 0h3M6 23h13m3 0h4"/></svg>