<svg xmlns="http://www.w3.org/2000/svg" viewBox="0 -0.5 16 16" shape-rendering="crispEdges">
<path stroke="#808080" d="M0 0h1M5 0h5M3 1h2M10 1h2M2 2h1M1 3h1M1 4h1M0 5h1M7 5h2M0 6h1M6 6h1M0 7h1M5 7h1M0 8h1M5 8h1M0 9h1M5 9h1M0 10h1M6 10h1M11 10h2M7 11h1M10 11h1" />
<path stroke="#c0c0c0" d="M0 0h1M5 1h1M4 2h1M3 3h1M2 4h1M1 5h1M3 5h1M9 6h1M1 7h1M3 7h2M8 7h1M10 7h1M2 8h3M7 8h1M9 8h1M2 9h1M6 9h1M8 9h1M10 9h1M5 10h1M7 10h1M9 10h1" />
<path stroke="#ffffff" d="M0 0h1M6 1h1M3 2h1M5 2h1M2 3h1M3 4h1M2 5h1M4 5h1M1 6h3M7 6h1M2 7h1M6 7h1M11 11h1" />
<path stroke="#0000ff" d="M0 0h1M7 1h1M6 2h1M6 4h3M5 5h2M13 5h1M4 6h1M11 6h2M12 7h1M3 9h1M12 9h1M2 10h3M1 11h1M3 11h3M2 12h5M8 12h1M3 13h2M7 13h1M9 13h1" />
<path stroke="#008080" d="M0 0h1M8 1h2M4 3h1M10 4h1M10 5h1M13 6h1M1 8h1M1 9h1M4 9h1M10 12h1" />
<path stroke="#000000" d="M0 0h1M7 2h5M5 3h9M4 4h2M9 4h1M11 4h3M9 5h1M11 5h2M14 5h1M10 6h1M14 6h1M11 7h1M14 7h1M11 8h1M14 8h1M11 9h1M14 9h1M10 10h1M14 10h1M8 11h2M10 14h2M15 14h1M5 15h5M14 15h2" />
<path stroke="#000080" d="M0 0h1M12 2h1M13 7h1M12 8h2M13 9h1M13 10h1M1 12h1M9 12h1M2 13h1M5 13h2M8 13h1M10 13h2M3 14h7" />
<path stroke="#008000" d="M0 0h1M5 6h1M1 10h1M2 11h1M6 11h1M7 12h1" />
<path stroke="#00ffff" d="M0 0h1M8 6h1M7 7h1M9 7h1M6 8h1M8 8h1M10 8h1M7 9h1M9 9h1M8 10h1" />
<path stroke="#ff0000" d="M0 0h1M12 11h1M13 12h1M14 13h1M14 14h1" />
<path stroke="#800000" d="M0 0h1M13 11h1M11 12h1M14 12h1M12 13h1M15 13h1M13 14h1" />
<path stroke="#ff00ff" d="M0 0h1M12 12h1M13 13h1" />
</svg>