<svg xmlns="http://www.w3.org/2000/svg" viewBox="0 -0.5 16 16" shape-rendering="crispEdges">
<path stroke="#808080" d="M0 0h1M3 0h6M2 1h2M1 2h1M0 3h2M0 4h1M0 5h1M0 6h1M0 7h1M11 7h1M0 8h1M11 8h1M3 11h1" />
<path stroke="#008080" d="M0 0h1M4 1h1M9 7h1" />
<path stroke="#c0c0c0" d="M0 0h1M5 1h1M3 2h1M4 3h1M2 4h1" />
<path stroke="#008000" d="M0 0h1M6 1h3M5 2h5M3 4h2M6 4h2M2 5h5M3 6h5M5 7h4M5 8h2M8 8h1M5 9h1" />
<path stroke="#000000" d="M0 0h1M9 1h1M12 1h1M10 2h1M12 2h2M8 3h5M14 3h1M8 4h1M15 4h1M8 5h1M15 5h1M8 6h5M14 6h1M12 7h2M7 8h1M12 8h1M1 9h1M6 9h2M10 9h1M2 10h1M5 10h1M7 10h5M4 11h1M11 11h1M4 12h1M11 12h1M5 13h1M7 13h5M6 14h2M7 15h1" />
<path stroke="#ffffff" d="M0 0h1M2 2h1M4 2h1M3 3h1" />
<path stroke="#0000ff" d="M0 0h1M2 3h1M5 3h3M1 4h1M1 5h1M1 6h2M1 7h4M10 7h1M2 8h3M9 8h1M2 9h3M8 9h1M4 10h1" />
<path stroke="#00ffff" d="M0 0h1M13 3h1M9 4h6M9 5h6M13 6h1M6 10h1M5 11h6M5 12h6M6 13h1" />
<path stroke="#000080" d="M0 0h1M5 4h1M7 5h1M1 8h1M10 8h1M9 9h1M3 10h1" />
</svg>