<svg xmlns="http://www.w3.org/2000/svg" viewBox="0 -0.5 32 32" shape-rendering="crispEdges">
<path stroke="#808080" d="M0 0h1M1 3h21M1 4h1M1 5h1M1 6h1M1 7h1M1 8h1M1 9h1M16 9h12M1 10h1M15 10h1M27 10h1M1 11h1M14 11h1M26 11h2M1 12h1M14 12h1M16 12h9M26 12h2M1 13h1M14 13h1M16 13h1M24 13h1M26 13h2M1 14h1M14 14h1M16 14h1M24 14h1M26 14h2M1 15h1M14 15h1M16 15h1M24 15h1M26 15h2M14 16h1M16 16h1M24 16h1M26 16h2M5 17h1M14 17h1M16 17h1M24 17h1M26 17h2M5 18h1M14 18h1M16 18h9M26 18h2M5 19h1M14 19h1M26 19h2M5 20h1M14 20h1M26 20h1M28 20h2M5 21h1M14 21h1M27 21h2M5 22h1M13 22h15M29 22h1M0 23h4M9 23h4M28 23h2M12 24h1M21 24h1M27 24h3M12 25h1M28 25h2M12 26h17" />
<path stroke="#000000" d="M0 0h1M22 3h1M22 4h1M22 5h1M15 6h3M22 6h1M22 7h1M22 8h1M28 10h1M28 11h1M28 12h1M17 13h7M28 13h1M28 14h1M28 15h1M1 16h13M28 16h1M7 17h1M28 17h1M7 18h1M28 18h1M7 19h1M28 19h1M7 20h1M27 20h1M7 21h1M15 21h12M30 21h1M7 22h1M30 22h1M8 23h1M30 23h1M8 24h1M22 24h5M30 24h1M0 25h4M8 25h4M30 25h1M4 26h5M29 26h1M13 27h16" />
<path stroke="#ffffff" d="M0 0h1M2 4h16M2 5h1M9 5h9M2 6h13M2 7h1M8 7h10M2 8h19M2 9h14M2 10h8M2 11h12M15 11h11M2 12h8M15 12h1M25 12h1M2 13h12M15 13h1M25 13h1M2 14h12M15 14h1M25 14h1M15 15h1M25 15h1M15 16h1M25 16h1M15 17h1M25 17h1M15 18h1M25 18h1M15 19h11M13 23h15M5 24h1M13 24h1M5 25h1M13 25h1" />
<path stroke="#c0c0c0" d="M0 0h1M18 4h4M21 5h1M21 6h1M21 7h1M21 8h1M16 10h11M2 15h12M6 17h1M6 18h1M6 19h1M6 20h1M15 20h11M6 21h1M29 21h1M6 22h1M28 22h1M0 24h4M9 24h3M14 24h1M16 24h5M14 25h1M16 25h12" />
<path stroke="#0000ff" d="M0 0h1M3 5h6M3 7h5M10 10h5M10 12h4" />
<path stroke="#ff0000" d="M0 0h1M18 5h1M20 5h1M18 7h1M20 7h1" />
<path stroke="#800000" d="M0 0h1M19 5h1M18 6h3M19 7h1" />
<path stroke="#008080" d="M0 0h1M17 14h7M17 15h1M19 15h5M17 16h7M17 17h7" />
<path stroke="#00ffff" d="M0 0h1M18 15h1" />
<path stroke="#808000" d="M0 0h1M4 23h4M4 24h1M7 24h1M4 25h1M7 25h1" />
<path stroke="#ffff00" d="M0 0h1M6 24h1M6 25h1" />
<path stroke="#00ff00" d="M0 0h1M15 24h1" />
<path stroke="#008000" d="M0 0h1M15 25h1" />
</svg>