<svg xmlns="http://www.w3.org/2000/svg" viewBox="0 -0.5 16 16" shape-rendering="crispEdges">
<path stroke="#808080" d="M0 0h1M0 0h15M0 1h1M0 2h1M0 3h15M0 4h1M14 4h1M0 5h1M14 5h1M0 6h1M8 6h1M14 6h1M0 7h1M6 7h1M14 7h1M0 8h1M5 8h1M14 8h1M0 9h1M14 9h1M0 10h1M14 10h1M0 11h1M5 11h1M10 11h1M14 11h1M0 12h1M6 12h1M9 12h1M14 12h1M0 13h1M14 13h1M0 14h15" />
<path stroke="#000000" d="M0 0h1M15 0h1M15 1h1M10 2h1M12 2h1M14 2h2M15 3h1M15 4h1M15 5h1M15 6h1M15 7h1M15 8h1M15 9h1M15 10h1M15 11h1M15 12h1M15 13h1M15 14h1M0 15h16" />
<path stroke="#000080" d="M0 0h1M1 1h1M4 1h11M1 2h1M4 2h5" />
<path stroke="#ff0000" d="M0 0h1M2 1h1" />
<path stroke="#ffff00" d="M0 0h1M3 1h1" />
<path stroke="#00ffff" d="M0 0h1M2 2h1" />
<path stroke="#00ff00" d="M0 0h1M3 2h1" />
<path stroke="#c0c0c0" d="M0 0h1M9 2h1M11 2h1M13 2h1M1 4h1M1 5h1M1 6h1M1 7h1M1 8h1M1 9h1M1 10h1M1 11h1M1 12h1M1 13h1" />
<path stroke="#ffffff" d="M0 0h1M2 4h12M2 5h5M9 5h5M2 6h5M9 6h5M2 7h4M10 7h4M2 8h3M8 8h6M2 9h3M6 9h1M11 9h3M2 10h3M6 10h4M12 10h2M2 11h3M7 11h2M13 11h1M2 12h4M10 12h4M2 13h12" />
<path stroke="#0000ff" d="M0 0h1M7 5h2M7 6h1M7 7h3M6 8h2M5 9h1M7 9h4M5 10h1M10 10h2M6 11h1M9 11h1M11 11h2M7 12h2" />
</svg>