<svg xmlns="http://www.w3.org/2000/svg" width="32" height="32" shape-rendering="crispEdges" viewBox="0 -0.5 32 32"><path stroke="gray" d="M4 0h9M3 1h1m9 0h1M2 2h1m11 0h1M1 3h1m13 0h1M0 4h1m15 0h14M0 5h1M0 6h1M0 7h1m8 0h4M0 8h1m6 0h2m4 0h1m2 0h1M0 9h1m5 0h1m10 0h1M0 10h1m4 0h1m-6 1h1m4 0h1m-6 1h1m3 0h1m14 0h1M0 13h1m3 0h1m-5 1h1m3 0h1m14 0h1M0 15h1m3 0h1m-5 1h1m3 0h1m14 0h1M0 17h1m4 0h1m12 0h1M0 18h1m4 0h1m-6 1h1m5 0h1m10 0h1M0 20h1m16 0h2M0 21h1m13 0h1m3 0h1M0 22h1m14 0h1M0 23h1m15 0h1M0 24h1m-1 1h1"/><path stroke="#fff" d="M4 1h9M3 2h1M2 3h1M1 5h29M1 6h1M1 7h1M1 8h1M1 9h1m6 0h1m1 0h1m1 0h1M1 10h1m5 0h1m1 0h1m1 0h1M1 11h1m4 0h1m1 0h3M1 12h1m5 0h3m-9 1h1m4 0h1m1 0h2m-9 1h1m5 0h2m-8 1h1m4 0h1m1 0h1m-8 1h1m5 0h1m-7 1h1m6 0h1m-8 1h1m-1 1h1m-1 1h1m-1 1h1m14 0h1M1 22h1m15 0h1M1 23h1m-1 1h1"/><path stroke="#ff0" d="M4 2h1m1 0h1m1 0h1m1 0h1m1 0h1M3 3h1m1 0h1m1 0h1m1 0h1m1 0h1m1 0h1M2 6h1m1 0h1m1 0h1m1 0h1m1 0h1m1 0h1m1 0h1m1 0h1m1 0h1m1 0h1m1 0h1m1 0h1m1 0h1m1 0h1M3 7h1m1 0h1m1 0h1m9 0h1m1 0h1m1 0h1m1 0h1m1 0h1m1 0h1m1 0h1M2 8h1m1 0h1m1 0h1m11 0h1m1 0h1m1 0h1m1 0h1m1 0h1m1 0h1M3 9h1m1 0h1m13 0h1m1 0h1m1 0h1m1 0h1m1 0h1m1 0h1M2 10h1m1 0h1m15 0h1m1 0h1m1 0h1m1 0h1m1 0h1M3 11h1m17 0h1m1 0h1m1 0h1m1 0h1m1 0h1M2 12h1m17 0h1m1 0h1m1 0h1m1 0h1m1 0h1M3 13h1m17 0h1m1 0h1m1 0h1m1 0h1m1 0h1M2 14h1m17 0h1m1 0h1m1 0h1m1 0h1m1 0h1M3 15h1m17 0h1m1 0h1m1 0h1m1 0h1m1 0h1M2 16h1m17 0h1m1 0h1m1 0h1m1 0h1m1 0h1M3 17h1m17 0h1m1 0h1m1 0h1m1 0h1m1 0h1M2 18h1m1 0h1m15 0h1m1 0h1m1 0h1m1 0h1m1 0h1M3 19h1m1 0h1m15 0h1m1 0h1m1 0h1m1 0h1m1 0h1M2 20h1m1 0h1m1 0h1m15 0h1m1 0h1m1 0h1m1 0h1M3 21h1m1 0h1m1 0h1m15 0h1m1 0h1m1 0h1m1 0h1M2 22h1m1 0h1m1 0h1m1 0h1m1 0h1m1 0h1m1 0h1m9 0h1m1 0h1m1 0h1M3 23h1m1 0h1m1 0h1m1 0h1m1 0h1m1 0h1m1 0h1m9 0h1m1 0h1m1 0h1M2 24h1m1 0h1m1 0h1m1 0h1m1 0h1m1 0h1m1 0h1m1 0h1m9 0h1m1 0h1"/><path stroke="silver" d="M5 2h1m1 0h1m1 0h1m1 0h1m1 0h1M4 3h1m1 0h1m1 0h1m1 0h1m1 0h1m1 0h1M1 4h15M3 6h1m1 0h1m1 0h1m1 0h1m1 0h1m1 0h1m1 0h1m1 0h1m1 0h1m1 0h1m1 0h1m1 0h1m1 0h1m1 0h1M2 7h1m1 0h1m1 0h1m1 0h1m7 0h1m1 0h1m1 0h1m1 0h1m1 0h1m1 0h1m1 0h1M3 8h1m1 0h1m3 0h1m1 0h1m5 0h1m1 0h1m1 0h1m1 0h1m1 0h1m1 0h1m1 0h1M2 9h1m1 0h1m2 0h1m6 0h1m3 0h1m1 0h1m1 0h1m1 0h1m1 0h1m1 0h1M3 10h1m2 0h1m6 0h1m1 0h1m3 0h1m1 0h1m1 0h1m1 0h1m1 0h1m1 0h1M2 11h1m1 0h1m7 0h1m1 0h1m1 0h1m2 0h2m1 0h1m1 0h1m1 0h1m1 0h1M3 12h1m1 0h1m5 0h1m1 0h1m1 0h1m5 0h1m1 0h1m1 0h1m1 0h1m1 0h1M2 13h1m7 0h1m1 0h1m1 0h1m1 0h1m3 0h1m1 0h1m1 0h1m1 0h1m1 0h1M3 14h1m1 0h1m3 0h1m1 0h1m1 0h1m1 0h1m5 0h1m1 0h1m1 0h1m1 0h1m1 0h1M2 15h1m7 0h1m1 0h1m1 0h1m1 0h1m3 0h1m1 0h1m1 0h1m1 0h1m1 0h1M3 16h1m1 0h1m3 0h1m1 0h1m1 0h1m1 0h1m5 0h1m1 0h1m1 0h1m1 0h1m1 0h1M2 17h1m1 0h1m1 0h1m3 0h1m1 0h1m1 0h1m4 0h2m1 0h1m1 0h1m1 0h1m1 0h1M3 18h1m3 0h1m1 0h1m1 0h1m1 0h1m5 0h1m1 0h1m1 0h1m1 0h1m1 0h1m1 0h1M2 19h1m1 0h1m3 0h1m1 0h1m1 0h1m7 0h1m1 0h1m1 0h1m1 0h1m1 0h1M3 20h1m1 0h1m10 0h1m4 0h1m1 0h1m1 0h1m1 0h1m1 0h1M2 21h1m1 0h1m1 0h1m1 0h1m6 0h1m1 0h1m4 0h1m1 0h1m1 0h1m1 0h1M3 22h1m1 0h1m1 0h1m1 0h1m1 0h1m1 0h1m2 0h1m6 0h1m1 0h1m1 0h1m1 0h1M2 23h1m1 0h1m1 0h1m1 0h1m1 0h1m1 0h1m1 0h1m9 0h1m1 0h1m1 0h1M3 24h1m1 0h1m1 0h1m1 0h1m1 0h1m1 0h1m1 0h1m9 0h1m1 0h1m1 0h1"/><path stroke="#000" d="M30 5h1m0 1h1M13 7h1m17 0h1M14 8h2m15 0h1M16 9h1m14 0h1m-15 1h1m13 0h1m-15 1h1m13 0h1m-14 1h1m12 0h1m-14 1h1m12 0h1m-14 1h1m12 0h1m-14 1h1m12 0h1m-14 1h1m12 0h1m-15 1h1m13 0h1m-15 1h1m13 0h1m-16 1h1m1 0h1m12 0h1M7 20h2m5 0h2m3 0h1m11 0h1M9 21h5m6 0h1m10 0h1m-11 1h1m9 0h1m-10 1h1m8 0h1m-9 1h1m7 0h1m-8 1h1m6 0h1M1 26h18m6 0h6m-5 1h1m0 1h1m-1 1h1m-1 1h1m-4 1h3"/><path stroke="olive" d="M30 6h1M14 7h2m14 0h1m-1 1h1m-1 1h1m-13 1h1m11 0h1m-13 1h1m11 0h1m-1 1h1m-12 1h1m10 0h1m-1 1h1m-12 1h1m10 0h1m-1 1h1m-1 1h1m-13 1h1m11 0h1m-12 1h1m10 0h1m-11 1h1m9 0h1m-10 1h1m8 0h1m-9 1h1m7 0h1m-8 1h1m6 0h1m-7 1h1m5 0h1M1 25h17m7 0h6"/><path stroke="#0ff" d="M10 8h1m1 0h1M9 9h1m1 0h1m1 0h1m-6 1h1m1 0h1m1 0h1m1 0h1m-8 1h1m3 0h1m1 0h1m1 0h1M6 12h1m3 0h1m1 0h1m1 0h1m1 0h1M5 13h1m1 0h1m3 0h1m1 0h1m1 0h1M6 14h1m3 0h1m1 0h1m1 0h1m1 0h1M5 15h1m1 0h1m1 0h1m1 0h1m1 0h1m1 0h1M6 16h1m1 0h1m1 0h1m1 0h1m1 0h1m1 0h1M7 17h1m1 0h1m1 0h1m1 0h1m1 0h1m-8 1h1m1 0h1m1 0h1m1 0h1m-6 1h1m1 0h1m1 0h1m4 3h1m-1 1h2m-1 1h2m-1 1h2m-1 1h2m-1 1h2m-1 1h2m-1 1h2m-1 1h1"/><path stroke="teal" d="M15 9h1m0 1h1m0 2h1m-1 1h1m-1 1h1m-1 1h1m-1 1h1m-2 1h1M6 18h1m8 0h2M7 19h1m6 0h2m-7 1h5"/><path stroke="#00f" d="M19 21h1m-1 1h2m-4 1h1m2 0h2m-4 1h1m2 0h2m-4 1h1m2 0h2m-4 1h1m2 0h2m-4 1h1m2 0h2m-4 1h1m2 0h2m-4 1h1m2 0h1m-3 1h1m1 0h1"/><path stroke="navy" d="M17 24h1m0 1h1m0 1h1m0 1h1m0 1h1m0 1h1m0 1h1"/></svg>