<svg xmlns="http://www.w3.org/2000/svg" width="32" height="32" shape-rendering="crispEdges" viewBox="0 -0.5 32 32"><path stroke="#000" d="M4 0h9M3 1h1m9 0h1M2 2h1m11 0h1M1 3h1m13 0h1M0 4h30M0 5h1m29 0h1M0 6h1m30 0h1M0 7h1m8 0h5m17 0h1M0 8h1m6 0h2m5 0h2m15 0h1M0 9h1m5 0h1m9 0h1m14 0h1M0 10h1m4 0h1m11 0h1m13 0h1M0 11h1m4 0h1m3 0h1m7 0h1m13 0h1M0 12h1m3 0h1m4 0h1m8 0h1m12 0h1M0 13h1m3 0h1m3 0h1m9 0h1m12 0h1M0 14h1m3 0h1m3 0h1m9 0h1m12 0h1M0 15h1m3 0h1m3 0h1m9 0h1m12 0h1M0 16h1m3 0h1m13 0h1m12 0h1M0 17h1m4 0h1m11 0h1m13 0h1M0 18h1m4 0h1m11 0h1m13 0h1M0 19h1m5 0h1m9 0h1m1 0h1m12 0h1M0 20h1m6 0h2m5 0h2m3 0h1m11 0h1M0 21h1m8 0h6m4 0h2m10 0h1M0 22h1m14 0h1m2 0h1m2 0h1m9 0h1M0 23h1m15 0h2m4 0h1m8 0h1M0 24h1m16 0h1m5 0h1m7 0h1M0 25h1m17 0h1m5 0h1m6 0h1M1 26h19m5 0h6m-11 1h1m5 0h1m-6 1h1m5 0h1m-6 1h1m4 0h1m-5 1h1m3 0h1m-4 1h3"/><path stroke="#fff" d="M4 1h9M3 2h11M2 3h13M1 5h29M1 6h30M1 7h8m5 0h17M1 8h6m2 0h5m2 0h15M1 9h5m1 0h9m1 0h14M1 10h4m1 0h11m1 0h13M1 11h4m1 0h3m1 0h7m1 0h13M1 12h3m1 0h4m1 0h8m1 0h12M1 13h3m1 0h3m1 0h9m1 0h12M1 14h3m1 0h3m1 0h9m1 0h12M1 15h3m1 0h3m1 0h9m1 0h12M1 16h3m1 0h13m1 0h12M1 17h4m1 0h11m1 0h13M1 18h4m1 0h11m1 0h13M1 19h5m1 0h9m1 0h1m1 0h12M1 20h6m2 0h5m2 0h3m1 0h11M1 21h8m6 0h4m2 0h10M1 22h14m1 0h2m1 0h2m1 0h9M1 23h15m2 0h4m1 0h8M1 24h16m1 0h5m1 0h7M1 25h17m1 0h5m1 0h6m-11 1h5m-4 1h5m-4 1h5m-4 1h4m-3 1h3"/></svg>