<svg xmlns="http://www.w3.org/2000/svg" width="32" height="32" shape-rendering="crispEdges" viewBox="0 -0.5 32 32"><path stroke="gray" d="M0 2h31M0 3h1m29 0h1M0 4h1m29 0h1M0 5h1m29 0h1M0 6h1m29 0h1M0 7h1m29 0h1M0 8h1m29 0h1M0 9h1m1 0h27m1 0h1M0 10h1m1 0h1m27 0h1M0 11h1m1 0h1m27 0h1M0 12h1m1 0h1m27 0h1M0 13h1m1 0h1m27 0h1M0 14h1m1 0h1m27 0h1M0 15h1m1 0h1m27 0h1M0 16h1m1 0h1m27 0h1M0 17h1m1 0h1m27 0h1M0 18h1m1 0h1m27 0h1M0 19h1m1 0h1m27 0h1M0 20h1m1 0h1m27 0h1M0 21h1m1 0h1m27 0h1M0 22h1m1 0h1m27 0h1M0 23h1m1 0h1m27 0h1M0 24h1m1 0h1m27 0h1M0 25h1m1 0h1m27 0h1M0 26h1m1 0h1m27 0h1M0 27h1m29 0h1M0 28h31"/><path stroke="#000" d="M31 2h1m-1 1h1m-1 1h1m-9 1h1m2 0h1m2 0h1m1 0h1m-9 1h1m2 0h1m2 0h1m1 0h1M21 7h9m1 0h1m-1 1h1m-1 1h1m-1 1h1m-1 1h1m-1 1h1m-1 1h1m-1 1h1m-1 1h1m-1 1h1m-1 1h1m-1 1h1m-1 1h1m-1 1h1m-1 1h1m-1 1h1m-1 1h1m-1 1h1m-1 1h1m-1 1h1m-1 1h1m-1 1h1M0 29h32"/><path stroke="silver" d="M1 3h29M1 4h1M1 5h1m19 0h2m1 0h2m1 0h2M1 6h1m19 0h2m1 0h2m1 0h2M1 7h1M1 8h29M1 9h1m27 0h1M1 10h1m27 0h1M1 11h1m27 0h1M1 12h1m27 0h1M1 13h1m27 0h1M1 14h1m27 0h1M1 15h1m13 0h1m4 0h1m8 0h1M1 16h1m14 0h1m12 0h1M1 17h1m5 0h1m21 0h1M1 18h1m4 0h1m22 0h1M1 19h1m27 0h1M1 20h1m6 0h1m7 0h1m12 0h1M1 21h1m13 0h1m4 0h1m8 0h1M1 22h1m27 0h1M1 23h1m27 0h1M1 24h1m27 0h1M1 25h1m27 0h1M1 26h1m27 0h1M1 27h29"/><path stroke="navy" d="M2 4h1m4 0h23M2 5h1m4 0h14M2 6h1m4 0h14M2 7h1m4 0h14"/><path stroke="red" d="M3 4h1"/><path stroke="maroon" d="M4 4h1M3 5h2"/><path stroke="#ff0" d="M5 4h1"/><path stroke="olive" d="M6 4h1M5 5h2"/><path stroke="#0ff" d="M3 6h1"/><path stroke="#00f" d="M4 6h1M3 7h2"/><path stroke="#0f0" d="M5 6h1"/><path stroke="green" d="M6 6h1M5 7h2"/><path stroke="#fff" d="M3 10h26M3 11h26M3 12h26M3 13h10m2 0h14M3 14h10m2 0h14M3 15h4m4 0h2m5 0h2m5 0h4M3 16h3m1 0h3m2 0h1m6 0h1m2 0h2m2 0h3M3 17h4m5 0h1m2 0h2m2 0h1m2 0h7M3 18h3m3 0h1m2 0h1m2 0h2m2 0h1m2 0h7M3 19h3m2 0h2m2 0h1m2 0h2m2 0h1m2 0h7M3 20h3m3 0h1m2 0h1m6 0h1m2 0h2m2 0h3M3 21h4m5 0h1m5 0h2m5 0h4M3 22h26M3 23h26M3 24h26M3 25h26M3 26h26"/><path stroke="purple" d="M13 13h2m-2 1h2m-8 1h4m2 0h2m1 0h2m3 0h4M6 16h1m3 0h2m1 0h3m1 0h2m1 0h2m2 0h2M8 17h4m1 0h2m2 0h2m1 0h2M7 18h2m1 0h2m1 0h2m2 0h2m1 0h2M6 19h2m2 0h2m1 0h2m2 0h2m1 0h2M6 20h2m2 0h2m1 0h3m1 0h2m1 0h2m2 0h2M7 21h5m1 0h2m1 0h2m3 0h4"/></svg>