<svg xmlns="http://www.w3.org/2000/svg" width="32" height="32" shape-rendering="crispEdges" viewBox="0 -0.5 32 32"><path stroke="#000" d="M0 3h30M0 4h1m28 0h1M0 5h1m28 0h1M0 6h30M0 7h1m28 0h1M0 8h1m28 0h1M0 9h1m4 0h2m10 0h2m10 0h1M0 10h1m4 0h1m1 0h1m1 0h5m3 0h1m1 0h1m1 0h5m3 0h1M0 11h1m4 0h3m9 0h3m9 0h1M0 12h1m28 0h1M0 13h1m4 0h2m10 0h2m10 0h1M0 14h1m4 0h1m1 0h1m1 0h4m4 0h1m1 0h1m1 0h4m4 0h1M0 15h1m4 0h3m9 0h3m9 0h1M0 16h1m28 0h1M0 17h1m4 0h2m10 0h2m10 0h1M0 18h1m4 0h1m1 0h1m1 0h5m3 0h1m1 0h1m1 0h5m3 0h1M0 19h1m4 0h3m9 0h3m9 0h1M0 20h1m28 0h1M0 21h1m4 0h2m10 0h2m10 0h1M0 22h1m4 0h1m1 0h1m1 0h4m4 0h1m1 0h1m1 0h4m4 0h1M0 23h1m4 0h3m9 0h3m9 0h1M0 24h1m28 0h1M0 25h1m28 0h1M0 26h1m28 0h1M0 27h30"/><path stroke="#0ff" d="M1 4h1m1 0h1m1 0h1m1 0h1m1 0h1m1 0h1m1 0h1m1 0h1m1 0h1m1 0h1m1 0h1m1 0h1m1 0h1m1 0h1M2 5h1m1 0h1m1 0h1m1 0h1m1 0h1m1 0h1m1 0h1m1 0h1m1 0h1m1 0h1m1 0h1m1 0h1m1 0h1m1 0h1"/><path stroke="silver" d="M2 4h1m1 0h1m1 0h1m1 0h1m1 0h1m1 0h1m1 0h1m1 0h1m1 0h1m1 0h1m1 0h1m1 0h1m1 0h1m1 0h1M1 5h1m1 0h1m1 0h1m1 0h1m1 0h1m1 0h1m1 0h1m1 0h1m1 0h1m1 0h1m1 0h1m1 0h1m1 0h1m1 0h1"/><path stroke="gray" d="M30 4h1m-1 1h1m-1 1h1m-1 1h1m-1 1h1m-1 1h1m-1 1h1m-1 1h1m-1 1h1m-1 1h1m-1 1h1m-1 1h1m-1 1h1m-1 1h1m-1 1h1m-1 1h1m-1 1h1m-1 1h1m-1 1h1m-1 1h1m-1 1h1m-1 1h1m-1 1h1m-1 1h1M1 28h30"/><path stroke="#fff" d="M1 7h28M1 8h28M1 9h4m2 0h10m2 0h10M1 10h4m1 0h1m1 0h1m5 0h3m1 0h1m1 0h1m5 0h3M1 11h4m3 0h9m3 0h9M1 12h28M1 13h4m2 0h10m2 0h10M1 14h4m1 0h1m1 0h1m4 0h4m1 0h1m1 0h1m4 0h4M1 15h4m3 0h9m3 0h9M1 16h28M1 17h4m2 0h10m2 0h10M1 18h4m1 0h1m1 0h1m5 0h3m1 0h1m1 0h1m5 0h3M1 19h4m3 0h9m3 0h9M1 20h28M1 21h4m2 0h10m2 0h10M1 22h4m1 0h1m1 0h1m4 0h4m1 0h1m1 0h1m4 0h4M1 23h4m3 0h9m3 0h9M1 24h28M1 25h28M1 26h28"/></svg>