<svg xmlns="http://www.w3.org/2000/svg" viewBox="0 -0.5 32 32" shape-rendering="crispEdges">
<path stroke="#000000" d="M0 0h1M0 3h30M0 4h1M29 4h1M0 5h1M29 5h1M0 6h30M0 7h1M17 7h1M29 7h1M0 8h1M3 8h2M17 8h1M29 8h1M0 9h1M2 9h1M5 9h2M17 9h1M19 9h2M29 9h1M0 10h1M2 10h1M7 10h1M17 10h1M19 10h1M21 10h1M23 10h5M29 10h1M0 11h1M2 11h1M7 11h1M17 11h1M19 11h3M29 11h1M0 12h1M2 12h6M10 12h2M17 12h1M29 12h1M0 13h1M4 13h1M9 13h1M12 13h2M17 13h1M19 13h2M29 13h1M0 14h1M4 14h1M9 14h1M14 14h1M17 14h1M19 14h1M21 14h1M23 14h4M29 14h1M0 15h1M4 15h6M14 15h1M17 15h1M19 15h3M29 15h1M0 16h1M4 16h1M9 16h6M17 16h1M29 16h1M0 17h1M4 17h1M17 17h1M19 17h2M29 17h1M0 18h1M4 18h1M10 18h2M17 18h1M19 18h1M21 18h1M23 18h5M29 18h1M0 19h1M4 19h1M9 19h1M12 19h2M17 19h1M19 19h3M29 19h1M0 20h1M4 20h1M9 20h1M14 20h1M17 20h1M29 20h1M0 21h1M4 21h6M14 21h1M17 21h1M19 21h2M29 21h1M0 22h1M4 22h1M9 22h6M17 22h1M19 22h1M21 22h1M23 22h4M29 22h1M0 23h1M4 23h1M17 23h1M19 23h3M29 23h1M0 24h1M4 24h1M10 24h2M17 24h1M29 24h1M0 25h1M4 25h1M9 25h1M12 25h2M17 25h1M29 25h1M0 26h1M4 26h1M9 26h1M14 26h1M17 26h1M29 26h1M0 27h30" />
<path stroke="#00ffff" d="M0 0h1M1 4h1M3 4h1M5 4h1M7 4h1M9 4h1M11 4h1M13 4h1M15 4h1M17 4h1M19 4h1M21 4h1M23 4h1M25 4h1M27 4h1M2 5h1M4 5h1M6 5h1M8 5h1M10 5h1M12 5h1M14 5h1M16 5h1M18 5h1M20 5h1M22 5h1M24 5h1M26 5h1M28 5h1" />
<path stroke="#c0c0c0" d="M0 0h1M2 4h1M4 4h1M6 4h1M8 4h1M10 4h1M12 4h1M14 4h1M16 4h1M18 4h1M20 4h1M22 4h1M24 4h1M26 4h1M28 4h1M1 5h1M3 5h1M5 5h1M7 5h1M9 5h1M11 5h1M13 5h1M15 5h1M17 5h1M19 5h1M21 5h1M23 5h1M25 5h1M27 5h1" />
<path stroke="#808080" d="M0 0h1M30 4h1M30 5h1M30 6h1M30 7h1M30 8h1M7 9h1M30 9h1M30 10h1M30 11h1M30 12h1M14 13h1M30 13h1M30 14h1M30 15h1M30 16h1M30 17h1M30 18h1M14 19h1M30 19h1M30 20h1M30 21h1M30 22h1M30 23h1M30 24h1M14 25h1M30 25h1M30 26h1M30 27h1M1 28h30" />
<path stroke="#ffffff" d="M0 0h1M1 7h16M18 7h11M1 8h2M5 8h12M18 8h11M1 9h1M4 9h1M8 9h9M18 9h1M21 9h8M1 10h1M3 10h1M5 10h1M8 10h9M18 10h1M20 10h1M22 10h1M28 10h1M1 11h1M4 11h1M6 11h1M8 11h9M18 11h1M22 11h7M1 12h1M8 12h2M12 12h5M18 12h11M1 13h3M5 13h4M11 13h1M15 13h2M18 13h1M21 13h8M1 14h3M5 14h4M10 14h1M12 14h1M15 14h2M18 14h1M20 14h1M22 14h1M27 14h2M1 15h3M11 15h1M13 15h1M15 15h2M18 15h1M22 15h7M1 16h3M5 16h4M15 16h2M18 16h11M1 17h3M5 17h12M18 17h1M21 17h8M1 18h3M5 18h5M12 18h5M18 18h1M20 18h1M22 18h1M28 18h1M1 19h3M5 19h4M11 19h1M15 19h2M18 19h1M22 19h7M1 20h3M5 20h4M10 20h1M12 20h1M15 20h2M18 20h11M1 21h3M11 21h1M13 21h1M15 21h2M18 21h1M21 21h8M1 22h3M5 22h4M15 22h2M18 22h1M20 22h1M22 22h1M27 22h2M1 23h3M5 23h12M18 23h1M22 23h7M1 24h3M5 24h5M12 24h5M18 24h11M1 25h3M5 25h4M11 25h1M15 25h2M18 25h11M1 26h3M5 26h4M10 26h1M12 26h1M15 26h2M18 26h11" />
<path stroke="#ffff00" d="M0 0h1M3 9h1M4 10h1M6 10h1M3 11h1M5 11h1M10 13h1M11 14h1M13 14h1M10 15h1M12 15h1M10 19h1M11 20h1M13 20h1M10 21h1M12 21h1M10 25h1M11 26h1M13 26h1" />
</svg>