<svg xmlns="http://www.w3.org/2000/svg" width="32" height="32" shape-rendering="crispEdges" viewBox="0 -0.5 32 32"><path stroke="#000" d="M0 3h30M0 4h1m28 0h1M0 5h1m28 0h1M0 6h30M0 7h1m16 0h1m11 0h1M0 8h1m2 0h2m12 0h1m11 0h1M0 9h1m1 0h1m2 0h2m10 0h1m1 0h2m8 0h1M0 10h1m1 0h1m4 0h1m9 0h1m1 0h1m1 0h1m1 0h5m1 0h1M0 11h1m1 0h1m4 0h1m9 0h1m1 0h3m7 0h1M0 12h1m1 0h6m2 0h2m5 0h1m11 0h1M0 13h1m3 0h1m4 0h1m2 0h2m3 0h1m1 0h2m8 0h1M0 14h1m3 0h1m4 0h1m4 0h1m2 0h1m1 0h1m1 0h1m1 0h4m2 0h1M0 15h1m3 0h6m4 0h1m2 0h1m1 0h3m7 0h1M0 16h1m3 0h1m4 0h6m2 0h1m11 0h1M0 17h1m3 0h1m12 0h1m1 0h2m8 0h1M0 18h1m3 0h1m5 0h2m5 0h1m1 0h1m1 0h1m1 0h5m1 0h1M0 19h1m3 0h1m4 0h1m2 0h2m3 0h1m1 0h3m7 0h1M0 20h1m3 0h1m4 0h1m4 0h1m2 0h1m11 0h1M0 21h1m3 0h6m4 0h1m2 0h1m1 0h2m8 0h1M0 22h1m3 0h1m4 0h6m2 0h1m1 0h1m1 0h1m1 0h4m2 0h1M0 23h1m3 0h1m12 0h1m1 0h3m7 0h1M0 24h1m3 0h1m5 0h2m5 0h1m11 0h1M0 25h1m3 0h1m4 0h1m2 0h2m3 0h1m11 0h1M0 26h1m3 0h1m4 0h1m4 0h1m2 0h1m11 0h1M0 27h30"/><path stroke="#0ff" d="M1 4h1m1 0h1m1 0h1m1 0h1m1 0h1m1 0h1m1 0h1m1 0h1m1 0h1m1 0h1m1 0h1m1 0h1m1 0h1m1 0h1M2 5h1m1 0h1m1 0h1m1 0h1m1 0h1m1 0h1m1 0h1m1 0h1m1 0h1m1 0h1m1 0h1m1 0h1m1 0h1m1 0h1"/><path stroke="silver" d="M2 4h1m1 0h1m1 0h1m1 0h1m1 0h1m1 0h1m1 0h1m1 0h1m1 0h1m1 0h1m1 0h1m1 0h1m1 0h1m1 0h1M1 5h1m1 0h1m1 0h1m1 0h1m1 0h1m1 0h1m1 0h1m1 0h1m1 0h1m1 0h1m1 0h1m1 0h1m1 0h1m1 0h1"/><path stroke="gray" d="M30 4h1m-1 1h1m-1 1h1m-1 1h1m-1 1h1M7 9h1m22 0h1m-1 1h1m-1 1h1m-1 1h1m-17 1h1m15 0h1m-1 1h1m-1 1h1m-1 1h1m-1 1h1m-1 1h1m-17 1h1m15 0h1m-1 1h1m-1 1h1m-1 1h1m-1 1h1m-1 1h1m-17 1h1m15 0h1m-1 1h1m-1 1h1M1 28h30"/><path stroke="#fff" d="M1 7h16m1 0h11M1 8h2m2 0h12m1 0h11M1 9h1m2 0h1m3 0h9m1 0h1m2 0h8M1 10h1m1 0h1m1 0h1m2 0h9m1 0h1m1 0h1m1 0h1m5 0h1M1 11h1m2 0h1m1 0h1m1 0h9m1 0h1m3 0h7M1 12h1m6 0h2m2 0h5m1 0h11M1 13h3m1 0h4m2 0h1m3 0h2m1 0h1m2 0h8M1 14h3m1 0h4m1 0h1m1 0h1m2 0h2m1 0h1m1 0h1m1 0h1m4 0h2M1 15h3m7 0h1m1 0h1m1 0h2m1 0h1m3 0h7M1 16h3m1 0h4m6 0h2m1 0h11M1 17h3m1 0h12m1 0h1m2 0h8M1 18h3m1 0h5m2 0h5m1 0h1m1 0h1m1 0h1m5 0h1M1 19h3m1 0h4m2 0h1m3 0h2m1 0h1m3 0h7M1 20h3m1 0h4m1 0h1m1 0h1m2 0h2m1 0h11M1 21h3m7 0h1m1 0h1m1 0h2m1 0h1m2 0h8M1 22h3m1 0h4m6 0h2m1 0h1m1 0h1m1 0h1m4 0h2M1 23h3m1 0h12m1 0h1m3 0h7M1 24h3m1 0h5m2 0h5m1 0h11M1 25h3m1 0h4m2 0h1m3 0h2m1 0h11M1 26h3m1 0h4m1 0h1m1 0h1m2 0h2m1 0h11"/><path stroke="#ff0" d="M3 9h1m0 1h1m1 0h1m-4 1h1m1 0h1m4 2h1m0 1h1m1 0h1m-4 1h1m1 0h1m-3 4h1m0 1h1m1 0h1m-4 1h1m1 0h1m-3 4h1m0 1h1m1 0h1"/></svg>