<svg xmlns="http://www.w3.org/2000/svg" width="32" height="32" shape-rendering="crispEdges" viewBox="0 -0.5 32 32"><path stroke="#000" d="M1 3h30M1 4h1m28 0h1M1 5h1m28 0h1M1 6h30M1 7h1m28 0h1M1 8h1m3 0h2m23 0h1M1 9h1m2 0h1m2 0h2m21 0h1M1 10h1m2 0h1m4 0h1m20 0h1M1 11h1m2 0h1m4 0h1m20 0h1M1 12h1m2 0h6m2 0h2m16 0h1M1 13h1m4 0h1m4 0h1m2 0h2m14 0h1M1 14h1m4 0h1m4 0h1m4 0h1m13 0h1M1 15h1m4 0h6m4 0h1m13 0h1M1 16h1m4 0h1m4 0h6m2 0h2m9 0h1M1 17h1m4 0h1m6 0h1m4 0h1m2 0h2m7 0h1M1 18h1m4 0h1m6 0h1m4 0h1m4 0h1m6 0h1M1 19h1m4 0h1m6 0h6m4 0h1m6 0h1M1 20h1m4 0h1m11 0h6m6 0h1M1 21h1m4 0h1m5 0h2m16 0h1M1 22h1m4 0h1m4 0h1m2 0h2m14 0h1M1 23h1m4 0h1m4 0h1m4 0h1m13 0h1M1 24h1m4 0h6m4 0h1m13 0h1M1 25h1m4 0h1m4 0h6m2 0h2m9 0h1M1 26h1m4 0h1m6 0h1m4 0h1m2 0h2m7 0h1M1 27h30"/><path stroke="#fff" d="M2 4h28M2 5h28M2 7h28M2 8h3m2 0h23M2 9h2m1 0h2m2 0h21M2 10h2m1 0h4m1 0h20M2 11h2m1 0h4m1 0h20M2 12h2m6 0h2m2 0h16M2 13h4m1 0h4m1 0h2m2 0h14M2 14h4m1 0h4m1 0h4m1 0h13M2 15h4m6 0h4m1 0h13M2 16h4m1 0h4m6 0h2m2 0h9M2 17h4m1 0h6m1 0h4m1 0h2m2 0h7M2 18h4m1 0h6m1 0h4m1 0h4m1 0h6M2 19h4m1 0h6m6 0h4m1 0h6M2 20h4m1 0h11m6 0h6M2 21h4m1 0h5m2 0h16M2 22h4m1 0h4m1 0h2m2 0h14M2 23h4m1 0h4m1 0h4m1 0h13M2 24h4m6 0h4m1 0h13M2 25h4m1 0h4m6 0h2m2 0h9M2 26h4m1 0h6m1 0h4m1 0h2m2 0h7"/></svg>