<svg xmlns="http://www.w3.org/2000/svg" width="32" height="32" shape-rendering="crispEdges" viewBox="0 -0.5 32 32"><path stroke="#000" d="M1 3h30M1 4h1m28 0h1M1 5h1m28 0h1M1 6h30M1 7h1m16 0h1m11 0h1M1 8h1m2 0h2m12 0h1m11 0h1M1 9h1m1 0h1m2 0h3m9 0h1m1 0h2m8 0h1M1 10h1m1 0h1m4 0h1m9 0h1m1 0h1m1 0h1m1 0h5m1 0h1M1 11h1m1 0h1m4 0h1m9 0h1m1 0h3m7 0h1M1 12h1m1 0h6m2 0h2m5 0h1m11 0h1M1 13h1m3 0h1m4 0h1m2 0h3m2 0h1m1 0h2m8 0h1M1 14h1m3 0h1m4 0h1m4 0h1m2 0h1m1 0h1m1 0h1m1 0h4m2 0h1M1 15h1m3 0h6m4 0h1m2 0h1m1 0h3m7 0h1M1 16h1m3 0h1m4 0h6m2 0h1m11 0h1M1 17h1m3 0h1m12 0h1m1 0h2m8 0h1M1 18h1m3 0h1m5 0h2m5 0h1m1 0h1m1 0h1m1 0h5m1 0h1M1 19h1m3 0h1m4 0h1m2 0h3m2 0h1m1 0h3m7 0h1M1 20h1m3 0h1m4 0h1m4 0h1m2 0h1m11 0h1M1 21h1m3 0h6m4 0h1m2 0h1m1 0h2m8 0h1M1 22h1m3 0h1m4 0h6m2 0h1m1 0h1m1 0h1m1 0h4m2 0h1M1 23h1m3 0h1m12 0h1m1 0h3m7 0h1M1 24h1m3 0h1m5 0h2m5 0h1m11 0h1M1 25h1m3 0h1m4 0h1m2 0h3m2 0h1m11 0h1M1 26h1m3 0h1m4 0h1m4 0h1m2 0h1m11 0h1M1 27h30"/><path stroke="#fff" d="M2 4h28M2 5h28M2 7h16m1 0h11M2 8h2m2 0h12m1 0h11M2 9h1m1 0h2m3 0h9m1 0h1m2 0h8M2 10h1m1 0h4m1 0h9m1 0h1m1 0h1m1 0h1m5 0h1M2 11h1m1 0h4m1 0h9m1 0h1m3 0h7M2 12h1m6 0h2m2 0h5m1 0h11M2 13h3m1 0h4m1 0h2m3 0h2m1 0h1m2 0h8M2 14h3m1 0h4m1 0h4m1 0h2m1 0h1m1 0h1m1 0h1m4 0h2M2 15h3m6 0h4m1 0h2m1 0h1m3 0h7M2 16h3m1 0h4m6 0h2m1 0h11M2 17h3m1 0h12m1 0h1m2 0h8M2 18h3m1 0h5m2 0h5m1 0h1m1 0h1m1 0h1m5 0h1M2 19h3m1 0h4m1 0h2m3 0h2m1 0h1m3 0h7M2 20h3m1 0h4m1 0h4m1 0h2m1 0h11M2 21h3m6 0h4m1 0h2m1 0h1m2 0h8M2 22h3m1 0h4m6 0h2m1 0h1m1 0h1m1 0h1m4 0h2M2 23h3m1 0h12m1 0h1m3 0h7M2 24h3m1 0h5m2 0h5m1 0h11M2 25h3m1 0h4m1 0h2m3 0h2m1 0h11M2 26h3m1 0h4m1 0h4m1 0h2m1 0h11"/></svg>