<svg xmlns="http://www.w3.org/2000/svg" width="32" height="32" shape-rendering="crispEdges" viewBox="0 -0.5 32 32"><path stroke="#000" d="M1 3h30M1 4h1m28 0h1M1 5h1m28 0h1M1 6h30M1 7h1m28 0h1M1 8h1m28 0h1M1 9h1m4 0h2m10 0h2m10 0h1M1 10h1m4 0h1m1 0h1m1 0h5m3 0h1m1 0h1m1 0h5m3 0h1M1 11h1m4 0h3m9 0h3m9 0h1M1 12h1m28 0h1M1 13h1m4 0h2m10 0h2m10 0h1M1 14h1m4 0h1m1 0h1m1 0h4m4 0h1m1 0h1m1 0h4m4 0h1M1 15h1m4 0h3m9 0h3m9 0h1M1 16h1m28 0h1M1 17h1m4 0h2m10 0h2m10 0h1M1 18h1m4 0h1m1 0h1m1 0h5m3 0h1m1 0h1m1 0h5m3 0h1M1 19h1m4 0h3m9 0h3m9 0h1M1 20h1m28 0h1M1 21h1m4 0h2m10 0h2m10 0h1M1 22h1m4 0h1m1 0h1m1 0h4m4 0h1m1 0h1m1 0h4m4 0h1M1 23h1m4 0h3m9 0h3m9 0h1M1 24h1m28 0h1M1 25h1m28 0h1M1 26h1m28 0h1M1 27h30"/><path stroke="#fff" d="M2 4h28M2 5h28M2 7h28M2 8h28M2 9h4m2 0h10m2 0h10M2 10h4m1 0h1m1 0h1m5 0h3m1 0h1m1 0h1m5 0h3M2 11h4m3 0h9m3 0h9M2 12h28M2 13h4m2 0h10m2 0h10M2 14h4m1 0h1m1 0h1m4 0h4m1 0h1m1 0h1m4 0h4M2 15h4m3 0h9m3 0h9M2 16h28M2 17h4m2 0h10m2 0h10M2 18h4m1 0h1m1 0h1m5 0h3m1 0h1m1 0h1m5 0h3M2 19h4m3 0h9m3 0h9M2 20h28M2 21h4m2 0h10m2 0h10M2 22h4m1 0h1m1 0h1m4 0h4m1 0h1m1 0h1m4 0h4M2 23h4m3 0h9m3 0h9M2 24h28M2 25h28M2 26h28"/></svg>