<svg xmlns="http://www.w3.org/2000/svg" viewBox="0 -0.5 32 32" shape-rendering="crispEdges">
<path stroke="#000000" d="M0 0h1M0 3h30M0 4h1M29 4h1M0 5h1M29 5h1M0 6h30M0 7h1M29 7h1M0 8h1M29 8h1M0 9h1M5 9h2M17 9h2M29 9h1M0 10h1M5 10h1M7 10h1M9 10h5M17 10h1M19 10h1M21 10h5M29 10h1M0 11h1M5 11h3M17 11h3M29 11h1M0 12h1M29 12h1M0 13h1M5 13h2M17 13h2M29 13h1M0 14h1M5 14h1M7 14h1M9 14h4M17 14h1M19 14h1M21 14h4M29 14h1M0 15h1M5 15h3M17 15h3M29 15h1M0 16h1M29 16h1M0 17h1M5 17h2M17 17h2M29 17h1M0 18h1M5 18h1M7 18h1M9 18h5M17 18h1M19 18h1M21 18h5M29 18h1M0 19h1M5 19h3M17 19h3M29 19h1M0 20h1M29 20h1M0 21h1M5 21h2M17 21h2M29 21h1M0 22h1M5 22h1M7 22h1M9 22h4M17 22h1M19 22h1M21 22h4M29 22h1M0 23h1M5 23h3M17 23h3M29 23h1M0 24h1M29 24h1M0 25h1M29 25h1M0 26h1M29 26h1M0 27h30" />
<path stroke="#00ffff" d="M0 0h1M1 4h1M3 4h1M5 4h1M7 4h1M9 4h1M11 4h1M13 4h1M15 4h1M17 4h1M19 4h1M21 4h1M23 4h1M25 4h1M27 4h1M2 5h1M4 5h1M6 5h1M8 5h1M10 5h1M12 5h1M14 5h1M16 5h1M18 5h1M20 5h1M22 5h1M24 5h1M26 5h1M28 5h1" />
<path stroke="#c0c0c0" d="M0 0h1M2 4h1M4 4h1M6 4h1M8 4h1M10 4h1M12 4h1M14 4h1M16 4h1M18 4h1M20 4h1M22 4h1M24 4h1M26 4h1M28 4h1M1 5h1M3 5h1M5 5h1M7 5h1M9 5h1M11 5h1M13 5h1M15 5h1M17 5h1M19 5h1M21 5h1M23 5h1M25 5h1M27 5h1" />
<path stroke="#808080" d="M0 0h1M30 4h1M30 5h1M30 6h1M30 7h1M30 8h1M30 9h1M30 10h1M30 11h1M30 12h1M30 13h1M30 14h1M30 15h1M30 16h1M30 17h1M30 18h1M30 19h1M30 20h1M30 21h1M30 22h1M30 23h1M30 24h1M30 25h1M30 26h1M30 27h1M1 28h30" />
<path stroke="#ffffff" d="M0 0h1M1 7h28M1 8h28M1 9h4M7 9h10M19 9h10M1 10h4M6 10h1M8 10h1M14 10h3M18 10h1M20 10h1M26 10h3M1 11h4M8 11h9M20 11h9M1 12h28M1 13h4M7 13h10M19 13h10M1 14h4M6 14h1M8 14h1M13 14h4M18 14h1M20 14h1M25 14h4M1 15h4M8 15h9M20 15h9M1 16h28M1 17h4M7 17h10M19 17h10M1 18h4M6 18h1M8 18h1M14 18h3M18 18h1M20 18h1M26 18h3M1 19h4M8 19h9M20 19h9M1 20h28M1 21h4M7 21h10M19 21h10M1 22h4M6 22h1M8 22h1M13 22h4M18 22h1M20 22h1M25 22h4M1 23h4M8 23h9M20 23h9M1 24h28M1 25h28M1 26h28" />
</svg>