<svg xmlns="http://www.w3.org/2000/svg" viewBox="0 -0.5 32 32" shape-rendering="crispEdges">
<path stroke="#000000" d="M0 0h1M9 2h18M8 3h1M26 3h1M7 4h1M26 4h1M6 5h1M26 5h1M5 6h1M26 6h1M5 7h1M26 7h1M5 8h1M20 8h1M26 8h1M5 9h1M20 9h1M26 9h1M5 10h1M20 10h1M26 10h1M5 11h1M11 11h6M20 11h1M26 11h1M5 12h1M11 12h1M16 12h1M20 12h1M26 12h1M5 13h1M11 13h1M16 13h1M20 13h1M26 13h1M5 14h1M20 14h1M26 14h1M5 15h1M20 15h1M26 15h1M5 16h1M20 16h1M26 16h1M5 17h1M7 17h14M26 17h1M5 18h1M26 18h1M5 19h1M20 19h1M26 19h1M5 20h1M20 20h1M26 20h1M5 21h1M20 21h1M26 21h1M5 22h1M11 22h6M20 22h1M26 22h1M5 23h1M11 23h1M16 23h1M20 23h1M26 23h1M5 24h1M11 24h1M16 24h1M20 24h1M26 24h1M5 25h1M20 25h1M26 25h1M5 26h1M20 26h1M26 26h1M5 27h1M20 27h1M25 27h1M5 28h1M7 28h14M24 28h1M5 29h1M23 29h1M5 30h18" />
<path stroke="#c0c0c0" d="M0 0h1M9 3h1M11 3h1M13 3h1M15 3h1M17 3h1M19 3h1M21 3h1M23 3h1M8 4h1M10 4h1M12 4h1M14 4h1M16 4h1M18 4h1M20 4h1M22 4h1M7 5h1M9 5h1M11 5h1M13 5h1M15 5h1M17 5h1M19 5h1M21 5h1M7 7h1M9 7h1M11 7h1M13 7h1M15 7h1M17 7h1M19 7h1M21 7h2M6 8h1M22 8h1M21 9h2M6 10h1M10 10h1M12 10h1M14 10h1M16 10h1M18 10h1M22 10h1M9 11h1M17 11h1M19 11h1M21 11h2M6 12h1M10 12h1M18 12h1M22 12h1M9 13h1M17 13h1M19 13h1M21 13h2M6 14h1M10 14h1M18 14h1M22 14h1M9 15h1M11 15h1M13 15h1M15 15h1M17 15h1M19 15h1M21 15h2M6 16h1M10 16h1M12 16h1M14 16h1M16 16h1M18 16h1M22 16h1M21 17h2M6 18h1M8 18h1M10 18h1M12 18h1M14 18h1M16 18h1M18 18h1M20 18h1M22 18h1M21 19h2M6 20h1M22 20h1M9 21h1M11 21h1M13 21h1M15 21h1M17 21h1M19 21h1M21 21h2M6 22h1M10 22h1M18 22h1M22 22h1M9 23h1M17 23h1M19 23h1M21 23h2M6 24h1M10 24h1M18 24h1M22 24h1M9 25h1M17 25h1M19 25h1M21 25h2M6 26h1M10 26h1M12 26h1M14 26h1M16 26h1M18 26h1M22 26h1M9 27h1M11 27h1M13 27h1M15 27h1M17 27h1M19 27h1M21 27h2M6 28h1M22 28h1M7 29h1M9 29h1M11 29h1M13 29h1M15 29h1M17 29h1M19 29h1M21 29h2" />
<path stroke="#ffff00" d="M0 0h1M10 3h1M12 3h1M14 3h1M16 3h1M18 3h1M20 3h1M22 3h1M24 3h1M9 4h1M11 4h1M13 4h1M15 4h1M17 4h1M19 4h1M21 4h1M23 4h1M8 5h1M10 5h1M12 5h1M14 5h1M16 5h1M18 5h1M20 5h1M22 5h1M6 7h1M8 7h1M10 7h1M12 7h1M14 7h1M16 7h1M18 7h1M20 7h1M21 8h1M6 9h1M9 10h1M11 10h1M13 10h1M15 10h1M17 10h1M19 10h1M21 10h1M6 11h1M10 11h1M18 11h1M9 12h1M17 12h1M19 12h1M21 12h1M6 13h1M10 13h1M18 13h1M9 14h1M17 14h1M19 14h1M21 14h1M6 15h1M10 15h1M12 15h1M14 15h1M16 15h1M18 15h1M9 16h1M11 16h1M13 16h1M15 16h1M17 16h1M19 16h1M21 16h1M6 17h1M7 18h1M9 18h1M11 18h1M13 18h1M15 18h1M17 18h1M19 18h1M21 18h1M6 19h1M21 20h1M6 21h1M10 21h1M12 21h1M14 21h1M16 21h1M18 21h1M9 22h1M17 22h1M19 22h1M21 22h1M6 23h1M10 23h1M18 23h1M9 24h1M17 24h1M19 24h1M21 24h1M6 25h1M10 25h1M18 25h1M9 26h1M11 26h1M13 26h1M15 26h1M17 26h1M19 26h1M21 26h1M6 27h1M10 27h1M12 27h1M14 27h1M16 27h1M18 27h1M21 28h1M6 29h1M8 29h1M10 29h1M12 29h1M14 29h1M16 29h1M18 29h1M20 29h1" />
<path stroke="#ffffff" d="M0 0h1M25 3h1M24 4h1M23 5h1M6 6h17M8 9h12M8 10h1M8 11h1M8 12h1M8 13h1M8 14h1M11 14h6M8 15h1M8 16h1M8 20h12M8 21h1M8 22h1M8 23h1M8 24h1M8 25h1M11 25h6M8 26h1M8 27h1" />
<path stroke="#808000" d="M0 0h1M25 4h1M24 5h2M23 6h3M23 7h3M7 8h13M23 8h3M7 9h1M23 9h3M7 10h1M23 10h3M7 11h1M23 11h3M7 12h1M12 12h4M23 12h3M7 13h1M12 13h4M23 13h3M7 14h1M23 14h3M7 15h1M23 15h3M7 16h1M23 16h3M23 17h3M23 18h3M7 19h13M23 19h3M7 20h1M23 20h3M7 21h1M23 21h3M7 22h1M23 22h3M7 23h1M12 23h4M23 23h3M7 24h1M12 24h4M23 24h3M7 25h1M23 25h3M7 26h1M23 26h3M7 27h1M23 27h2M23 28h1" />
</svg>