<svg xmlns="http://www.w3.org/2000/svg" viewBox="0 -0.5 32 32" shape-rendering="crispEdges">
<path stroke="#000000" d="M0 0h1M0 3h30M0 4h1M29 4h1M0 5h1M29 5h1M0 6h30M0 7h1M29 7h1M0 8h1M4 8h2M29 8h1M0 9h1M3 9h1M6 9h2M29 9h1M0 10h1M3 10h1M8 10h1M29 10h1M0 11h1M3 11h1M8 11h1M29 11h1M0 12h1M3 12h6M11 12h2M29 12h1M0 13h1M5 13h1M10 13h1M13 13h2M29 13h1M0 14h1M5 14h1M10 14h1M15 14h1M29 14h1M0 15h1M5 15h6M15 15h1M29 15h1M0 16h1M5 16h1M10 16h6M18 16h2M29 16h1M0 17h1M5 17h1M12 17h1M17 17h1M20 17h2M29 17h1M0 18h1M5 18h1M12 18h1M17 18h1M22 18h1M29 18h1M0 19h1M5 19h1M12 19h6M22 19h1M29 19h1M0 20h1M5 20h1M17 20h6M29 20h1M0 21h1M5 21h1M11 21h2M29 21h1M0 22h1M5 22h1M10 22h1M13 22h2M29 22h1M0 23h1M5 23h1M10 23h1M15 23h1M29 23h1M0 24h1M5 24h6M15 24h1M29 24h1M0 25h1M5 25h1M10 25h6M18 25h2M29 25h1M0 26h1M5 26h1M12 26h1M17 26h1M20 26h2M29 26h1M0 27h30" />
<path stroke="#00ffff" d="M0 0h1M1 4h1M3 4h1M5 4h1M7 4h1M9 4h1M11 4h1M13 4h1M15 4h1M17 4h1M19 4h1M21 4h1M23 4h1M25 4h1M27 4h1M2 5h1M4 5h1M6 5h1M8 5h1M10 5h1M12 5h1M14 5h1M16 5h1M18 5h1M20 5h1M22 5h1M24 5h1M26 5h1M28 5h1" />
<path stroke="#c0c0c0" d="M0 0h1M2 4h1M4 4h1M6 4h1M8 4h1M10 4h1M12 4h1M14 4h1M16 4h1M18 4h1M20 4h1M22 4h1M24 4h1M26 4h1M28 4h1M1 5h1M3 5h1M5 5h1M7 5h1M9 5h1M11 5h1M13 5h1M15 5h1M17 5h1M19 5h1M21 5h1M23 5h1M25 5h1M27 5h1" />
<path stroke="#808080" d="M0 0h1M30 4h1M30 5h1M30 6h1M30 7h1M30 8h1M8 9h1M30 9h1M30 10h1M30 11h1M30 12h1M15 13h1M30 13h1M30 14h1M30 15h1M30 16h1M22 17h1M30 17h1M30 18h1M30 19h1M30 20h1M30 21h1M15 22h1M30 22h1M30 23h1M30 24h1M30 25h1M22 26h1M30 26h1M30 27h1M1 28h30" />
<path stroke="#ffffff" d="M0 0h1M1 7h28M1 8h3M6 8h23M1 9h2M5 9h1M9 9h20M1 10h2M4 10h1M6 10h1M9 10h20M1 11h2M5 11h1M7 11h1M9 11h20M1 12h2M9 12h2M13 12h16M1 13h4M6 13h4M12 13h1M16 13h13M1 14h4M6 14h4M11 14h1M13 14h1M16 14h13M1 15h4M12 15h1M14 15h1M16 15h13M1 16h4M6 16h4M16 16h2M20 16h9M1 17h4M6 17h6M13 17h4M19 17h1M23 17h6M1 18h4M6 18h6M13 18h4M18 18h1M20 18h1M23 18h6M1 19h4M6 19h6M19 19h1M21 19h1M23 19h6M1 20h4M6 20h11M23 20h6M1 21h4M6 21h5M13 21h16M1 22h4M6 22h4M12 22h1M16 22h13M1 23h4M6 23h4M11 23h1M13 23h1M16 23h13M1 24h4M12 24h1M14 24h1M16 24h13M1 25h4M6 25h4M16 25h2M20 25h9M1 26h4M6 26h6M13 26h4M23 26h6" />
<path stroke="#ffff00" d="M0 0h1M4 9h1M5 10h1M7 10h1M4 11h1M6 11h1M11 13h1M12 14h1M14 14h1M11 15h1M13 15h1M18 17h1M19 18h1M21 18h1M18 19h1M20 19h1M11 22h1M12 23h1M14 23h1M11 24h1M13 24h1M18 26h2" />
</svg>