<svg xmlns="http://www.w3.org/2000/svg" width="32" height="32" shape-rendering="crispEdges" viewBox="0 -0.5 32 32"><path stroke="#000" d="M9 2h18M8 3h1m16 0h2M7 4h1m16 0h1m1 0h1M6 5h1m16 0h1m2 0h1M5 6h18m3 0h1M5 7h1m16 0h1m3 0h1M5 8h1m1 0h14m1 0h1m3 0h1M5 9h1m1 0h1m12 0h1m1 0h1m3 0h1M5 10h1m1 0h1m12 0h1m1 0h1m3 0h1M5 11h1m1 0h1m3 0h6m3 0h1m1 0h1m3 0h1M5 12h1m1 0h1m3 0h1m4 0h1m3 0h1m1 0h1m3 0h1M5 13h1m1 0h1m3 0h6m3 0h1m1 0h1m3 0h1M5 14h1m1 0h1m12 0h1m1 0h1m3 0h1M5 15h1m1 0h1m12 0h1m1 0h1m3 0h1M5 16h1m1 0h1m12 0h1m1 0h1m3 0h1M5 17h1m1 0h14m1 0h1m3 0h1M5 18h1m16 0h1m3 0h1M5 19h1m1 0h14m1 0h1m3 0h1M5 20h1m1 0h1m12 0h1m1 0h1m3 0h1M5 21h1m1 0h1m12 0h1m1 0h1m3 0h1M5 22h1m1 0h1m3 0h6m3 0h1m1 0h1m3 0h1M5 23h1m1 0h1m3 0h1m4 0h1m3 0h1m1 0h1m3 0h1M5 24h1m1 0h1m3 0h6m3 0h1m1 0h1m3 0h1M5 25h1m1 0h1m12 0h1m1 0h1m3 0h1M5 26h1m1 0h1m12 0h1m1 0h1m3 0h1M5 27h1m1 0h1m12 0h1m1 0h1m2 0h1M5 28h1m1 0h14m1 0h1m1 0h1M5 29h1m16 0h2M5 30h18"/><path stroke="#fff" d="M9 3h16M8 4h16m1 0h1M7 5h16m1 0h2m-3 1h3M6 7h16m1 0h3M6 8h1m14 0h1m1 0h3M6 9h1m1 0h12m1 0h1m1 0h3M6 10h1m1 0h12m1 0h1m1 0h3M6 11h1m1 0h3m6 0h3m1 0h1m1 0h3M6 12h1m1 0h3m1 0h4m1 0h3m1 0h1m1 0h3M6 13h1m1 0h3m6 0h3m1 0h1m1 0h3M6 14h1m1 0h12m1 0h1m1 0h3M6 15h1m1 0h12m1 0h1m1 0h3M6 16h1m1 0h12m1 0h1m1 0h3M6 17h1m14 0h1m1 0h3M6 18h16m1 0h3M6 19h1m14 0h1m1 0h3M6 20h1m1 0h12m1 0h1m1 0h3M6 21h1m1 0h12m1 0h1m1 0h3M6 22h1m1 0h3m6 0h3m1 0h1m1 0h3M6 23h1m1 0h3m1 0h4m1 0h3m1 0h1m1 0h3M6 24h1m1 0h3m6 0h3m1 0h1m1 0h3M6 25h1m1 0h12m1 0h1m1 0h3M6 26h1m1 0h12m1 0h1m1 0h3M6 27h1m1 0h12m1 0h1m1 0h2M6 28h1m14 0h1m1 0h1M6 29h16"/></svg>