<svg xmlns="http://www.w3.org/2000/svg" width="32" height="32" shape-rendering="crispEdges" viewBox="0 -0.5 32 32"><path stroke="#000" d="M0 3h30M0 4h1m28 0h1M0 5h1m28 0h1M0 6h30M0 7h1m28 0h1M0 8h1m3 0h2m23 0h1M0 9h1m2 0h1m2 0h2m21 0h1M0 10h1m2 0h1m4 0h1m20 0h1M0 11h1m2 0h1m4 0h1m20 0h1M0 12h1m2 0h6m2 0h2m16 0h1M0 13h1m4 0h1m4 0h1m2 0h2m14 0h1M0 14h1m4 0h1m4 0h1m4 0h1m13 0h1M0 15h1m4 0h6m4 0h1m13 0h1M0 16h1m4 0h1m4 0h6m2 0h2m9 0h1M0 17h1m4 0h1m6 0h1m4 0h1m2 0h2m7 0h1M0 18h1m4 0h1m6 0h1m4 0h1m4 0h1m6 0h1M0 19h1m4 0h1m6 0h6m4 0h1m6 0h1M0 20h1m4 0h1m11 0h6m6 0h1M0 21h1m4 0h1m5 0h2m16 0h1M0 22h1m4 0h1m4 0h1m2 0h2m14 0h1M0 23h1m4 0h1m4 0h1m4 0h1m13 0h1M0 24h1m4 0h6m4 0h1m13 0h1M0 25h1m4 0h1m4 0h6m2 0h2m9 0h1M0 26h1m4 0h1m6 0h1m4 0h1m2 0h2m7 0h1M0 27h30"/><path stroke="#0ff" d="M1 4h1m1 0h1m1 0h1m1 0h1m1 0h1m1 0h1m1 0h1m1 0h1m1 0h1m1 0h1m1 0h1m1 0h1m1 0h1m1 0h1M2 5h1m1 0h1m1 0h1m1 0h1m1 0h1m1 0h1m1 0h1m1 0h1m1 0h1m1 0h1m1 0h1m1 0h1m1 0h1m1 0h1"/><path stroke="silver" d="M2 4h1m1 0h1m1 0h1m1 0h1m1 0h1m1 0h1m1 0h1m1 0h1m1 0h1m1 0h1m1 0h1m1 0h1m1 0h1m1 0h1M1 5h1m1 0h1m1 0h1m1 0h1m1 0h1m1 0h1m1 0h1m1 0h1m1 0h1m1 0h1m1 0h1m1 0h1m1 0h1m1 0h1"/><path stroke="gray" d="M30 4h1m-1 1h1m-1 1h1m-1 1h1m-1 1h1M8 9h1m21 0h1m-1 1h1m-1 1h1m-1 1h1m-16 1h1m14 0h1m-1 1h1m-1 1h1m-1 1h1m-9 1h1m7 0h1m-1 1h1m-1 1h1m-1 1h1m-1 1h1m-16 1h1m14 0h1m-1 1h1m-1 1h1m-1 1h1m-9 1h1m7 0h1m-1 1h1M1 28h30"/><path stroke="#fff" d="M1 7h28M1 8h3m2 0h23M1 9h2m2 0h1m3 0h20M1 10h2m1 0h1m1 0h1m2 0h20M1 11h2m2 0h1m1 0h1m1 0h20M1 12h2m6 0h2m2 0h16M1 13h4m1 0h4m2 0h1m3 0h13M1 14h4m1 0h4m1 0h1m1 0h1m2 0h13M1 15h4m7 0h1m1 0h1m1 0h13M1 16h4m1 0h4m6 0h2m2 0h9M1 17h4m1 0h6m1 0h4m2 0h1m3 0h6M1 18h4m1 0h6m1 0h4m1 0h1m1 0h1m2 0h6M1 19h4m1 0h6m7 0h1m1 0h1m1 0h6M1 20h4m1 0h11m6 0h6M1 21h4m1 0h5m2 0h16M1 22h4m1 0h4m2 0h1m3 0h13M1 23h4m1 0h4m1 0h1m1 0h1m2 0h13M1 24h4m7 0h1m1 0h1m1 0h13M1 25h4m1 0h4m6 0h2m2 0h9M1 26h4m1 0h6m1 0h4m6 0h6"/><path stroke="#ff0" d="M4 9h1m0 1h1m1 0h1m-4 1h1m1 0h1m4 2h1m0 1h1m1 0h1m-4 1h1m1 0h1m4 2h1m0 1h1m1 0h1m-4 1h1m1 0h1m-10 3h1m0 1h1m1 0h1m-4 1h1m1 0h1m4 2h2"/></svg>