<svg xmlns="http://www.w3.org/2000/svg" width="32" height="32" shape-rendering="crispEdges" viewBox="0 -0.5 32 32"><path stroke="#000" d="M9 2h18M8 3h1m17 0h1M7 4h1m18 0h1M6 5h1m19 0h1M5 6h1m20 0h1M5 7h1m20 0h1M5 8h1m14 0h1m5 0h1M5 9h1m14 0h1m5 0h1M5 10h1m14 0h1m5 0h1M5 11h1m5 0h6m3 0h1m5 0h1M5 12h1m5 0h1m4 0h1m3 0h1m5 0h1M5 13h1m5 0h1m4 0h1m3 0h1m5 0h1M5 14h1m14 0h1m5 0h1M5 15h1m14 0h1m5 0h1M5 16h1m14 0h1m5 0h1M5 17h1m1 0h14m5 0h1M5 18h1m20 0h1M5 19h1m14 0h1m5 0h1M5 20h1m14 0h1m5 0h1M5 21h1m14 0h1m5 0h1M5 22h1m5 0h6m3 0h1m5 0h1M5 23h1m5 0h1m4 0h1m3 0h1m5 0h1M5 24h1m5 0h1m4 0h1m3 0h1m5 0h1M5 25h1m14 0h1m5 0h1M5 26h1m14 0h1m5 0h1M5 27h1m14 0h1m4 0h1M5 28h1m1 0h14m3 0h1M5 29h1m17 0h1M5 30h18"/><path stroke="silver" d="M9 3h1m1 0h1m1 0h1m1 0h1m1 0h1m1 0h1m1 0h1m1 0h1M8 4h1m1 0h1m1 0h1m1 0h1m1 0h1m1 0h1m1 0h1m1 0h1M7 5h1m1 0h1m1 0h1m1 0h1m1 0h1m1 0h1m1 0h1m1 0h1M7 7h1m1 0h1m1 0h1m1 0h1m1 0h1m1 0h1m1 0h1m1 0h2M6 8h1m15 0h1m-2 1h2M6 10h1m3 0h1m1 0h1m1 0h1m1 0h1m1 0h1m3 0h1M9 11h1m7 0h1m1 0h1m1 0h2M6 12h1m3 0h1m7 0h1m3 0h1M9 13h1m7 0h1m1 0h1m1 0h2M6 14h1m3 0h1m7 0h1m3 0h1M9 15h1m1 0h1m1 0h1m1 0h1m1 0h1m1 0h1m1 0h2M6 16h1m3 0h1m1 0h1m1 0h1m1 0h1m1 0h1m3 0h1m-2 1h2M6 18h1m1 0h1m1 0h1m1 0h1m1 0h1m1 0h1m1 0h1m1 0h1m1 0h1m-2 1h2M6 20h1m15 0h1M9 21h1m1 0h1m1 0h1m1 0h1m1 0h1m1 0h1m1 0h2M6 22h1m3 0h1m7 0h1m3 0h1M9 23h1m7 0h1m1 0h1m1 0h2M6 24h1m3 0h1m7 0h1m3 0h1M9 25h1m7 0h1m1 0h1m1 0h2M6 26h1m3 0h1m1 0h1m1 0h1m1 0h1m1 0h1m3 0h1M9 27h1m1 0h1m1 0h1m1 0h1m1 0h1m1 0h1m1 0h2M6 28h1m15 0h1M7 29h1m1 0h1m1 0h1m1 0h1m1 0h1m1 0h1m1 0h1m1 0h2"/><path stroke="#ff0" d="M10 3h1m1 0h1m1 0h1m1 0h1m1 0h1m1 0h1m1 0h1m1 0h1M9 4h1m1 0h1m1 0h1m1 0h1m1 0h1m1 0h1m1 0h1m1 0h1M8 5h1m1 0h1m1 0h1m1 0h1m1 0h1m1 0h1m1 0h1m1 0h1M6 7h1m1 0h1m1 0h1m1 0h1m1 0h1m1 0h1m1 0h1m1 0h1m0 1h1M6 9h1m2 1h1m1 0h1m1 0h1m1 0h1m1 0h1m1 0h1m1 0h1M6 11h1m3 0h1m7 0h1M9 12h1m7 0h1m1 0h1m1 0h1M6 13h1m3 0h1m7 0h1M9 14h1m7 0h1m1 0h1m1 0h1M6 15h1m3 0h1m1 0h1m1 0h1m1 0h1m1 0h1M9 16h1m1 0h1m1 0h1m1 0h1m1 0h1m1 0h1m1 0h1M6 17h1m0 1h1m1 0h1m1 0h1m1 0h1m1 0h1m1 0h1m1 0h1m1 0h1M6 19h1m14 1h1M6 21h1m3 0h1m1 0h1m1 0h1m1 0h1m1 0h1M9 22h1m7 0h1m1 0h1m1 0h1M6 23h1m3 0h1m7 0h1M9 24h1m7 0h1m1 0h1m1 0h1M6 25h1m3 0h1m7 0h1M9 26h1m1 0h1m1 0h1m1 0h1m1 0h1m1 0h1m1 0h1M6 27h1m3 0h1m1 0h1m1 0h1m1 0h1m1 0h1m2 1h1M6 29h1m1 0h1m1 0h1m1 0h1m1 0h1m1 0h1m1 0h1m1 0h1"/><path stroke="#fff" d="M25 3h1m-2 1h1m-2 1h1M6 6h17M8 9h12M8 10h1m-1 1h1m-1 1h1m-1 1h1m-1 1h1m2 0h6m-9 1h1m-1 1h1m-1 4h12M8 21h1m-1 1h1m-1 1h1m-1 1h1m-1 1h1m2 0h6m-9 1h1m-1 1h1"/><path stroke="olive" d="M25 4h1m-2 1h2m-3 1h3m-3 1h3M7 8h13m3 0h3M7 9h1m15 0h3M7 10h1m15 0h3M7 11h1m15 0h3M7 12h1m4 0h4m7 0h3M7 13h1m4 0h4m7 0h3M7 14h1m15 0h3M7 15h1m15 0h3M7 16h1m15 0h3m-3 1h3m-3 1h3M7 19h13m3 0h3M7 20h1m15 0h3M7 21h1m15 0h3M7 22h1m15 0h3M7 23h1m4 0h4m7 0h3M7 24h1m4 0h4m7 0h3M7 25h1m15 0h3M7 26h1m15 0h3M7 27h1m15 0h2m-2 1h1"/></svg>