<svg xmlns="http://www.w3.org/2000/svg" width="16" height="16" shape-rendering="crispEdges" viewBox="0 -0.5 16 16"><path stroke="gray" d="M2 0h10M2 1h1m8 0h2M2 2h1M2 3h1M2 4h1M2 5h1M2 6h1M2 7h1M2 8h1M2 9h1m-1 1h1m-1 1h1m-1 1h1m-1 1h1m-1 1h1"/><path stroke="#fff" d="M3 1h3m1 0h3M3 2h1m1 0h3m1 0h2M3 3h3m1 0h3m1 0h1M3 4h1m1 0h1m4 0h2M3 5h2m2 0h2m2 0h1M3 6h1m3 0h1m3 0h1M3 7h3m1 0h2m2 0h1M3 8h1m1 0h3m2 0h2M3 9h3m3 0h1m1 0h1m-9 1h1m1 0h3m1 0h3m-9 1h3m3 0h1m1 0h1m-9 1h1m1 0h2m2 0h3m-9 1h3m1 0h3m1 0h1"/><path stroke="#ff0" d="M6 1h1m3 0h1M4 2h1m3 0h1M6 3h1m3 0h1M4 4h1M4 6h1m3 0h1M6 7h1M4 8h1m1 1h1m3 0h1m-7 1h1m3 0h1m-3 1h1m3 0h1m-7 1h1m1 1h1m3 0h1"/><path stroke="#000" d="M11 2h3m-1 1h1m-1 1h1m-1 1h1m-1 1h1m-1 1h1m-1 1h1m-1 1h1m-1 1h1m-1 1h1m-1 1h1m-1 1h1m-1 1h1M2 15h12"/><path stroke="silver" d="M12 3h1m-1 1h1m-1 1h1m-1 1h1m-1 1h1m-1 1h1m-1 1h1m-1 1h1m-1 1h1m-1 1h1m-1 1h1M3 14h10"/><path stroke="#00f" d="M6 4h4M5 5h2m2 0h2M5 6h2m2 0h2M9 7h2M8 8h2M7 9h2m-2 2h2m-2 1h2"/></svg>