<svg xmlns="http://www.w3.org/2000/svg" width="32" height="32" shape-rendering="crispEdges" viewBox="0 -0.5 32 32"><path stroke="gray" d="M4 0h19M4 1h1m17 0h1M4 2h1m17 0h2M4 3h1m17 0h1m1 0h1M4 4h1m17 0h1m2 0h1M4 5h1m17 0h1M4 6h1M4 7h1M4 8h1M4 9h1m-1 1h1m-1 1h1m-1 1h1m-1 1h1m15 0h1M4 14h1m-1 1h1m-1 1h1m-1 1h1m-1 1h1m-1 1h1m-1 1h1m-1 1h1m-1 1h1m-1 1h1m-1 1h1m-1 1h1m-1 1h1m-1 1h1m-1 1h1m-1 1h1m-1 1h1"/><path stroke="#fff" d="M5 1h2m1 0h3m1 0h3m1 0h3m1 0h2M6 2h3m1 0h3m1 0h3m1 0h3M5 3h2m1 0h3m1 0h3m1 0h3m1 0h2m1 0h1M6 4h3m1 0h3m1 0h3m1 0h3m2 0h2M5 5h2m1 0h3m1 0h3m1 0h3m1 0h2M6 6h3m1 0h3m1 0h3m1 0h3m1 0h3M5 7h2m1 0h3m1 0h1m7 0h3m1 0h2M6 8h3m1 0h2m8 0h1m1 0h3M5 9h2m1 0h3m3 0h1m6 0h2m1 0h2M6 10h3m5 0h2m6 0h3M5 11h2m1 0h2m3 0h2m1 0h1m4 0h2m1 0h2M6 12h3m5 0h3m5 0h3M5 13h2m1 0h3m1 0h3m6 0h2m1 0h2M6 14h3m1 0h3m1 0h2m4 0h1m1 0h3M5 15h2m1 0h3m1 0h3m5 0h3m1 0h2M6 16h3m1 0h3m1 0h1m3 0h3m1 0h3M5 17h2m1 0h3m1 0h3m2 0h2m1 0h3m1 0h2M6 18h3m1 0h3m1 0h1m3 0h3m1 0h3M5 19h2m1 0h3m1 0h3m2 0h2m1 0h3m1 0h2M6 20h3m1 0h3m1 0h3m1 0h3m1 0h3M5 21h2m1 0h3m1 0h3m1 0h3m1 0h3m1 0h2M6 22h3m1 0h3m5 0h3m1 0h3M5 23h2m1 0h3m1 0h2m4 0h1m1 0h3m1 0h2M6 24h3m1 0h3m5 0h3m1 0h3M5 25h2m1 0h3m1 0h2m4 0h1m1 0h3m1 0h2M6 26h3m1 0h3m1 0h3m1 0h3m1 0h3M5 27h2m1 0h3m1 0h3m1 0h3m1 0h3m1 0h2M6 28h3m1 0h3m1 0h3m1 0h3m1 0h3M5 29h2m1 0h3m1 0h3m1 0h3m1 0h3m1 0h2"/><path stroke="#ff0" d="M7 1h1m3 0h1m3 0h1m3 0h1M5 2h1m3 0h1m3 0h1m3 0h1m3 0h1M7 3h1m3 0h1m3 0h1m3 0h1M5 4h1m3 0h1m3 0h1m3 0h1m3 0h1M7 5h1m3 0h1m3 0h1m3 0h1M5 6h1m3 0h1m3 0h1m3 0h1m3 0h1m3 0h1M7 7h1m3 0h1m7 0h1m3 0h1M5 8h1m3 0h1m11 0h1m3 0h1M7 9h1m7 0h1m7 0h1M5 10h1m3 0h1m3 0h1m7 0h1m3 0h1M7 11h1m7 0h1m7 0h1M5 12h1m3 0h1m3 0h1m7 0h1m3 0h1M7 13h1m3 0h1m3 0h1m7 0h1M5 14h1m3 0h1m3 0h1m7 0h1m3 0h1M7 15h1m3 0h1m7 0h1m3 0h1M5 16h1m3 0h1m3 0h1m7 0h1m3 0h1M7 17h1m3 0h1m7 0h1m3 0h1M5 18h1m3 0h1m3 0h1m3 0h1m3 0h1m3 0h1M7 19h1m3 0h1m7 0h1m3 0h1M5 20h1m3 0h1m3 0h1m3 0h1m3 0h1m3 0h1M7 21h1m3 0h1m3 0h1m3 0h1m3 0h1M5 22h1m3 0h1m3 0h1m7 0h1m3 0h1M7 23h1m3 0h1m7 0h1m3 0h1M5 24h1m3 0h1m3 0h1m7 0h1m3 0h1M7 25h1m3 0h1m7 0h1m3 0h1M5 26h1m3 0h1m3 0h1m3 0h1m3 0h1m3 0h1M7 27h1m3 0h1m3 0h1m3 0h1m3 0h1M5 28h1m3 0h1m3 0h1m3 0h1m3 0h1m3 0h1M7 29h1m3 0h1m3 0h1m3 0h1m3 0h1"/><path stroke="#000" d="M23 1h1m0 1h1m0 1h1m0 1h1m-4 1h5m-1 1h1m-1 1h1m-1 1h1m-1 1h1m-1 1h1m-1 1h1m-1 1h1m-1 1h1m-1 1h1m-1 1h1m-1 1h1m-1 1h1m-1 1h1m-1 1h1m-1 1h1m-1 1h1m-1 1h1m-1 1h1m-1 1h1m-1 1h1m-1 1h1m-1 1h1m-1 1h1m-1 1h1m-1 1h1M4 31h24"/><path stroke="silver" d="M26 6h1m-9 1h1m7 0h1m-8 1h1m6 0h1M13 9h1m6 0h1m5 0h1m-11 1h1m9 0h1m-1 1h1m-17 1h1m1 0h1m13 0h1m-11 1h1m9 0h1m-1 1h1m-12 1h1m10 0h1m-1 1h1m-1 1h1m-1 1h1m-1 1h1m-1 1h1m-1 1h1m-13 1h1m2 0h1m8 0h1m-1 1h1m-1 1h1m-13 1h1m2 0h1m8 0h1m-1 1h1m-1 1h1m-1 1h1m-1 1h1M5 30h22"/><path stroke="teal" d="M13 7h1m3 0h1"/><path stroke="#00f" d="M14 7h3m-5 1h7m-8 1h2m3 0h4m-10 1h3m4 0h4m-11 1h3m4 0h4m-10 1h1m5 0h4m-4 1h3m-4 1h4m-4 1h3m-4 1h3m-3 1h2m-2 1h2m-2 1h2m-2 3h2m-3 1h4m-4 1h4m-3 1h2"/></svg>