<svg xmlns="http://www.w3.org/2000/svg" viewBox="0 -0.5 16 16" shape-rendering="crispEdges">
<path stroke="#800080" d="M0 0h1M7 0h1M6 1h1M8 1h1M5 2h1M7 2h4M4 3h1M6 3h7M3 4h1M5 4h2M11 4h3M2 5h1M4 5h2M8 5h1M11 5h2M1 6h1M3 6h4M10 6h2M0 7h1M2 7h4M8 7h3M0 8h1M3 8h7M14 8h1M0 9h1M5 9h4M13 9h1M0 10h1M7 10h1M12 10h1M11 11h1M10 12h1M9 13h1M8 14h1" />
<path stroke="#000000" d="M0 0h1M8 0h1M9 1h2M11 2h2M13 3h2M14 4h1M13 5h2M12 6h1M14 6h1M11 7h1M14 7h2M1 8h2M10 8h1M15 8h1M3 9h2M9 9h1M14 9h1M5 10h2M8 10h1M13 10h1M0 11h1M7 11h1M12 11h1M1 12h2M11 12h1M3 13h2M10 13h1M5 14h2M9 14h1M7 15h2" />
<path stroke="#808080" d="M0 0h1M7 1h1M6 2h1M5 3h1M4 4h1M3 5h1M2 6h1M13 6h1M1 7h1M12 7h1M11 8h1M1 9h2M10 9h1M1 10h1M3 10h2M9 10h1M1 11h1M5 11h2M8 11h1M3 12h1M7 12h1M5 13h1M7 14h1" />
<path stroke="#ffff00" d="M0 0h1M7 4h3M9 5h2M8 6h2M6 7h1" />
<path stroke="#808000" d="M0 0h1M10 4h1M6 5h2M7 7h1" />
<path stroke="#c0c0c0" d="M0 0h1M7 6h1M13 7h1M12 8h2M11 9h2M10 10h2M2 11h1M9 11h2M4 12h1M8 12h2M6 13h1M8 13h1" />
<path stroke="#ffffff" d="M0 0h1M2 10h1M3 11h2M5 12h2M7 13h1" />
</svg>