<svg xmlns="http://www.w3.org/2000/svg" width="16" height="16" shape-rendering="crispEdges" viewBox="0 -0.5 16 16"><path stroke="purple" d="M7 0h1M6 1h1m1 0h1M5 2h1m1 0h4M4 3h1m1 0h7M3 4h1m1 0h2m4 0h3M2 5h1m1 0h2m2 0h1m2 0h2M1 6h1m1 0h4m3 0h2M0 7h1m1 0h4m2 0h3M0 8h1m2 0h7m4 0h1M0 9h1m4 0h4m4 0h1M0 10h1m6 0h1m4 0h1m-2 1h1m-2 1h1m-2 1h1m-2 1h1"/><path stroke="#000" d="M8 0h1m0 1h2m0 1h2m0 1h2m-1 1h1m-2 1h2m-3 1h1m1 0h1m-4 1h1m2 0h2M1 8h2m7 0h1m4 0h1M3 9h2m4 0h1m4 0h1M5 10h2m1 0h1m4 0h1M0 11h1m6 0h1m4 0h1M1 12h2m8 0h1m-9 1h2m5 0h1m-6 1h2m2 0h1m-3 1h2"/><path stroke="gray" d="M7 1h1M6 2h1M5 3h1M4 4h1M3 5h1M2 6h1m10 0h1M1 7h1m10 0h1m-2 1h1M1 9h2m7 0h1M1 10h1m1 0h2m4 0h1m-9 1h1m3 0h2m1 0h1m-6 1h1m3 0h1m-3 1h1m1 1h1"/><path stroke="#ff0" d="M7 4h3M9 5h2M8 6h2M6 7h1"/><path stroke="olive" d="M10 4h1M6 5h2M7 7h1"/><path stroke="silver" d="M7 6h1m5 1h1m-2 1h2m-3 1h2m-3 1h2M2 11h1m6 0h2m-7 1h1m3 0h2m-4 1h1m1 0h1"/><path stroke="#fff" d="M2 10h1m0 1h2m0 1h2m0 1h1"/></svg>