<svg xmlns="http://www.w3.org/2000/svg" viewBox="0 -0.5 16 16" shape-rendering="crispEdges">
<path stroke="#808000" d="M0 0h1M6 0h6M4 1h2M12 1h1M3 2h1M12 2h2M2 3h1M12 3h1M2 4h1M6 4h1M8 4h1M12 4h1M2 5h1M6 5h1M12 5h1M2 6h1M8 6h1M12 6h1M7 7h1M11 7h1M6 8h1M10 8h1M6 9h1M10 9h1M6 10h1M10 10h1M7 12h3M6 13h1M10 13h1M6 14h1M10 14h1" />
<path stroke="#ffffff" d="M0 0h1M6 1h4" />
<path stroke="#c0c0c0" d="M0 0h1M10 1h2M4 2h1M11 2h1M3 3h1M10 12h1" />
<path stroke="#ffff00" d="M0 0h1M5 2h6M4 3h8M3 4h3M9 4h3M3 5h3M9 5h3M9 6h3M8 7h3M7 8h3M7 9h3M7 10h3M7 13h3M7 14h3" />
<path stroke="#000000" d="M0 0h1M13 3h1M7 4h1M13 4h1M7 5h2M13 5h1M3 6h4M13 6h1M12 7h1M11 8h1M11 9h1M11 10h1M6 11h5M11 12h1M11 13h1M11 14h1M7 15h4" />
</svg>