<svg xmlns="http://www.w3.org/2000/svg" width="32" height="32" shape-rendering="crispEdges" viewBox="0 -0.5 32 32"><path stroke="purple" d="M15 1h2m-3 1h1m1 0h2m-5 1h1m1 0h5m-8 1h1m1 0h8M11 5h1m1 0h11M10 6h1m1 0h14M9 7h1m1 0h5m5 0h7M8 8h1m1 0h5m7 0h8M7 9h1m1 0h5m9 0h8M6 10h1m1 0h5m3 0h4m3 0h7M5 11h1m1 0h8m1 0h3m4 0h6M4 12h1m1 0h10m6 0h6M3 13h1m1 0h9m7 0h6M2 14h1m1 0h9m6 0h7M1 15h1m1 0h12m2 0h8M0 16h1m3 0h8m3 0h9M0 17h1m5 0h6m3 0h9M0 18h1m7 0h4m3 0h7m8 0h1M0 19h1m9 0h11m8 0h1M0 20h1m11 0h8m8 0h1M0 21h1m13 0h5m8 0h1M0 22h3m13 0h2m8 0h1M3 23h2m20 0h1M5 24h2m17 0h1M7 25h2m14 0h1M9 26h2m11 0h1m-12 1h2m8 0h1m-9 1h2m5 0h1m-6 1h2m2 0h1m-3 1h2"/><path stroke="#000" d="M17 1h1m0 1h2m0 1h2m0 1h2m0 1h2m0 1h2m0 1h2m0 1h2m-1 1h1m-2 1h1m-2 1h2m-3 1h1m1 0h1m-4 1h1m2 0h1m-5 1h1m3 0h1m-6 1h1m4 0h1M1 16h3m20 0h1m5 0h1M1 17h1m2 0h2m24 0h2M1 18h1m4 0h2m14 0h1m6 0h1m1 0h1M1 19h1m6 0h2m11 0h1m6 0h1m1 0h1M1 20h1m8 0h2m8 0h1m6 0h1m1 0h1M1 21h1m10 0h2m5 0h1m6 0h1m1 0h1m-15 1h2m2 0h1m6 0h1m1 0h1M1 23h2m13 0h2m6 0h1m1 0h1M3 24h2m18 0h1m1 0h1M5 25h2m15 0h1m1 0h1M7 26h2m12 0h1m1 0h1M9 27h2m9 0h1m1 0h1m-12 1h2m6 0h1m1 0h1m-9 1h2m3 0h1m1 0h1m-6 1h2m2 0h1m-3 1h2"/><path stroke="gray" d="M15 2h1m-2 1h1m-2 1h1m-2 1h1m-2 1h1m-2 1h1M9 8h1M8 9h1m-2 1h1m-2 1h1m-2 1h1m23 0h1M4 13h1m23 0h1M3 14h1m23 0h1M2 15h1m23 0h1m-2 1h1M2 17h2m20 0h1M4 18h2m17 0h1M6 19h2m14 0h1M8 20h2m11 0h1m-12 1h2m8 0h1M3 22h2m7 0h2m5 0h1M5 23h2m7 0h2m2 0h1M7 24h2m7 0h2m-9 1h2m0 1h2m0 1h2m0 1h2m0 1h1"/><path stroke="olive" d="M16 7h1m3 0h1m-4 2h3m-7 1h1m1 1h1m3 0h1m-4 1h1m-3 1h1m5 0h1m-8 1h1m3 0h2m-4 1h2m-5 1h1m1 0h1m-3 2h1m1 0h1"/><path stroke="#ff0" d="M17 7h3m-5 1h7m-8 1h3m3 0h3m-9 1h2m4 0h3m-3 1h3m-6 1h5m-7 1h5m-6 1h3m-4 2h1m-2 1h3m-2 1h1"/><path stroke="silver" d="M29 13h1m-2 1h2m-3 1h3m-4 1h4m-5 1h5M2 18h2m20 0h5M2 19h1m2 0h1m17 0h5M2 20h1m4 0h1m14 0h5M2 21h1m6 0h1m11 0h5m-15 1h1m8 0h5m-12 1h1m5 0h5m-9 1h1m2 0h5m-5 1h4m-4 1h3m-3 1h2m-2 1h1"/><path stroke="#fff" d="M3 19h2m-2 1h4m-4 1h6m-4 1h6m-4 1h6m-4 1h6m-4 1h7m-5 1h5m-3 1h3m-1 1h1"/></svg>