<svg xmlns="http://www.w3.org/2000/svg" viewBox="0 -0.5 16 16" shape-rendering="crispEdges">
<path stroke="#808080" d="M0 0h1M2 0h10M2 1h1M11 1h2M2 2h1M2 3h1M2 4h1M2 5h1M2 6h1M2 7h1M2 8h1M2 9h1M2 10h1M2 11h1M2 12h1M2 13h1M2 14h1" />
<path stroke="#ffffff" d="M0 0h1M3 1h3M7 1h3M3 2h1M5 2h3M9 2h2M3 3h3M7 3h3M11 3h1M3 4h1M5 4h1M10 4h2M3 5h2M7 5h2M11 5h1M3 6h1M7 6h1M11 6h1M3 7h3M7 7h2M11 7h1M3 8h1M5 8h3M10 8h2M3 9h3M9 9h1M11 9h1M3 10h1M5 10h3M9 10h3M3 11h3M9 11h1M11 11h1M3 12h1M5 12h2M9 12h3M3 13h3M7 13h3M11 13h1" />
<path stroke="#ffff00" d="M0 0h1M6 1h1M10 1h1M4 2h1M8 2h1M6 3h1M10 3h1M4 4h1M4 6h1M8 6h1M6 7h1M4 8h1M6 9h1M10 9h1M4 10h1M8 10h1M6 11h1M10 11h1M4 12h1M6 13h1M10 13h1" />
<path stroke="#000000" d="M0 0h1M11 2h3M13 3h1M13 4h1M13 5h1M13 6h1M13 7h1M13 8h1M13 9h1M13 10h1M13 11h1M13 12h1M13 13h1M13 14h1M2 15h12" />
<path stroke="#c0c0c0" d="M0 0h1M12 3h1M12 4h1M12 5h1M12 6h1M12 7h1M12 8h1M12 9h1M12 10h1M12 11h1M12 12h1M12 13h1M3 14h10" />
<path stroke="#0000ff" d="M0 0h1M6 4h4M5 5h2M9 5h2M5 6h2M9 6h2M9 7h2M8 8h2M7 9h2M7 11h2M7 12h2" />
</svg>