<svg xmlns="http://www.w3.org/2000/svg" viewBox="0 -0.5 16 16" shape-rendering="crispEdges">
<path stroke="#808000" d="M0 0h1M6 0h4M5 1h1M9 1h1M4 2h1M9 2h2M4 3h1M10 3h1M4 4h1M10 4h1M4 5h1M6 5h5M12 5h1M3 6h10M2 7h1M12 7h1M2 8h1M12 8h1M2 9h1M4 9h7M12 9h1M2 10h1M12 10h1M2 11h1M4 11h7M12 11h1M2 12h1M12 12h1M2 13h11" />
<path stroke="#c0c0c0" d="M0 0h1M6 1h1M5 2h1M11 9h1M11 11h1" />
<path stroke="#000000" d="M0 0h1M7 1h2M10 1h1M6 2h1M11 2h1M5 3h1M11 3h1M5 4h1M11 4h1M5 5h1M11 5h1M13 6h1M13 7h1M13 8h1M13 9h1M13 10h1M13 11h1M13 12h1M13 13h1M2 14h11" />
<path stroke="#ffffff" d="M0 0h1M3 7h9M3 8h1M3 9h1M3 10h1M3 11h1M3 12h1" />
<path stroke="#ffff00" d="M0 0h1M4 8h8M4 10h8M4 12h8" />
</svg>