<svg xmlns="http://www.w3.org/2000/svg" width="16" height="16" shape-rendering="crispEdges" viewBox="0 -0.5 16 16"><path stroke="olive" d="M6 0h4M5 1h1m3 0h1M4 2h1m4 0h2M4 3h1m5 0h1M4 4h1m5 0h1M4 5h1m1 0h5m1 0h1M3 6h10M2 7h1m9 0h1M2 8h1m9 0h1M2 9h1m1 0h7m1 0h1M2 10h1m9 0h1M2 11h1m1 0h7m1 0h1M2 12h1m9 0h1M2 13h11"/><path stroke="silver" d="M6 1h1M5 2h1m5 7h1m-1 2h1"/><path stroke="#000" d="M7 1h2m1 0h1M6 2h1m4 0h1M5 3h1m5 0h1M5 4h1m5 0h1M5 5h1m5 0h1m1 1h1m-1 1h1m-1 1h1m-1 1h1m-1 1h1m-1 1h1m-1 1h1m-1 1h1M2 14h11"/><path stroke="#fff" d="M3 7h9M3 8h1M3 9h1m-1 1h1m-1 1h1m-1 1h1"/><path stroke="#ff0" d="M4 8h8m-8 2h8m-8 2h8"/></svg>