<svg xmlns="http://www.w3.org/2000/svg" width="16" height="16" shape-rendering="crispEdges" viewBox="0 -0.5 16 16"><path stroke="gray" d="M7 0h1M6 1h1m1 0h1M6 2h1m1 0h1m3 0h1M2 3h2m2 0h1m1 0h1m2 0h1M1 4h1m2 0h2m3 0h2M2 5h1m5 0h1m1 0h1M3 6h1m3 0h1m1 0h2M0 7h3m6 0h1M0 8h1m4 0h1m1 0h1m5 0h2M0 9h5m-2 1h1m1 0h2m-3 1h2m-3 1h1m7 0h1M2 13h1m4 0h1m4 0h1m-6 1h1"/><path stroke="#fff" d="M7 1h1M7 2h1M7 3h1M3 4h1m2 0h1M4 5h2M4 6h1M3 7h1m2 0h1M1 8h2"/><path stroke="silver" d="M12 3h1M2 4h1m4 0h2m2 0h1M3 5h1m2 0h2m1 0h1M5 6h2m1 0h1M4 7h2m1 0h1M3 8h2m1 0h1M5 9h1m-2 1h1m-2 1h1m-2 1h1m-2 1h1"/><path stroke="#000" d="M13 3h1m-2 1h2m-3 1h2m-2 1h1M8 7h1m1 0h5M8 8h5M6 9h9m-8 1h5m-6 1h7m-9 1h7m1 0h2M3 13h2m1 0h1m1 0h1m2 0h1m1 0h1M2 14h2m2 0h1m1 0h1m3 0h1m-7 1h3"/></svg>