<svg xmlns="http://www.w3.org/2000/svg" viewBox="0 -0.5 16 16" shape-rendering="crispEdges">
<path stroke="#808080" d="M0 0h1M7 0h1M6 1h1M8 1h1M6 2h1M8 2h1M12 2h1M2 3h2M6 3h1M8 3h1M11 3h1M1 4h1M4 4h2M9 4h2M2 5h1M8 5h1M10 5h1M3 6h1M7 6h1M9 6h2M0 7h3M9 7h1M0 8h1M5 8h1M7 8h1M13 8h2M0 9h5M3 10h1M5 10h2M4 11h2M3 12h1M11 12h1M2 13h1M7 13h1M12 13h1M7 14h1" />
<path stroke="#ffffff" d="M0 0h1M7 1h1M7 2h1M7 3h1M3 4h1M6 4h1M4 5h2M4 6h1M3 7h1M6 7h1M1 8h2" />
<path stroke="#c0c0c0" d="M0 0h1M12 3h1M2 4h1M7 4h2M11 4h1M3 5h1M6 5h2M9 5h1M5 6h2M8 6h1M4 7h2M7 7h1M3 8h2M6 8h1M5 9h1M4 10h1M3 11h1M2 12h1M1 13h1" />
<path stroke="#000000" d="M0 0h1M13 3h1M12 4h2M11 5h2M11 6h1M8 7h1M10 7h5M8 8h5M6 9h9M7 10h5M6 11h7M4 12h7M12 12h2M3 13h2M6 13h1M8 13h1M11 13h1M13 13h1M2 14h2M6 14h1M8 14h1M12 14h1M6 15h3" />
</svg>