<svg xmlns="http://www.w3.org/2000/svg" width="32" height="32" shape-rendering="crispEdges" viewBox="0 -0.5 32 32"><path stroke="silver" d="M14 0h1m-2 1h1m1 0h1m-3 1h1m1 0h1m-3 1h1m1 0h1M5 4h2m5 0h2m1 0h1m1 0h1M4 5h1m2 0h1m2 0h2m1 0h1m1 0h2m1 0h1M3 6h3m2 0h3m1 0h1m1 0h1m1 0h2m1 0h1M5 7h2m4 0h1m1 0h1m1 0h4m1 0h1M6 8h2m2 0h1m1 0h1m1 0h4m1 0h1M6 9h1m2 0h1m1 0h6m1 0h1m1 0h1M8 10h1m1 0h6m1 0h1m1 0h1M5 11h1m1 0h1m1 0h6m1 0h1m1 0h1m1 0h1M6 12h1m1 0h4m3 0h1m1 0h1m1 0h1M5 13h1m1 0h4m7 0h1M7 14h1m1 0h1m3 0h2M4 15h1m1 0h1m1 0h1m1 0h1m2 0h2M1 16h3m1 0h1m1 0h1m1 0h1m-6 1h1m1 0h1m1 0h1m1 0h1m-6 8h1m-2 1h1"/><path stroke="gray" d="M15 0h2m-1 1h1m-1 1h1m-1 1h1m-1 1h1m0 1h1m7 0h1m-8 1h1m1 0h1m3 0h2M3 7h2m14 0h1m1 0h2m1 0h1M4 8h2m12 0h1m1 0h3M5 9h1m11 0h1m1 0h1m1 0h1m1 0h1M5 10h1m10 0h1m1 0h1m1 0h3m1 0h1M4 11h1m10 0h1m1 0h1m1 0h1m1 0h1m1 0h1M4 12h1m7 0h3m1 0h1m1 0h1m1 0h3m1 0h1M4 13h1m6 0h2m2 0h1m1 0h1m1 0h3m1 0h1M1 14h3m2 0h1m1 0h1m1 0h2m3 0h1m2 0h3m1 0h1m1 0h1M0 15h1m4 0h1m1 0h1m1 0h1m1 0h1m3 0h1m3 0h1m1 0h1m1 0h1M0 16h1m3 0h1m1 0h1m1 0h1m1 0h1m1 0h4m4 0h1m1 0h1m5 0h3M1 17h3m1 0h1m1 0h1m1 0h1m1 0h1m9 0h1M4 18h9m7 0h1M5 19h7m1 0h1m5 0h1M6 20h1m1 0h1m1 0h1m1 0h1m1 0h1m1 0h1m1 0h1M7 21h1m1 0h1m1 0h1m1 0h1m1 0h1m1 0h1M8 22h1m1 0h1m1 0h1m1 0h1m1 0h1m-8 1h1m-5 1h1m-2 1h1m1 0h1m-2 1h1m18 0h1m0 1h1m-10 2h1m-2 1h2"/><path stroke="#fff" d="M14 1h1m-1 1h1m-1 1h1m-1 1h1M5 5h2m5 0h1m1 0h1m9 0h1M6 6h2m3 0h1m1 0h1m1 0h1m7 0h1M7 7h4m1 0h1m1 0h1M8 8h2m1 0h1m1 0h1M7 9h2m1 0h1m-5 1h2m1 0h1m-4 1h1m1 0h1m-4 1h1m1 0h1m-2 1h1m6 0h2M4 14h2m6 0h1M1 15h3m8 0h1"/><path stroke="#000" d="M17 1h1m-1 1h1m-1 1h1m0 1h1m5 0h2m-7 1h2m2 0h1m2 0h1m-6 1h2m3 0h2m-5 1h1m1 0h3m-5 1h4m-5 1h1m1 0h2m-3 1h1m1 0h1m-4 1h1m1 0h3m-4 1h1m1 0h2m-11 1h1m5 0h1m1 0h4m-12 1h2m3 0h1m1 0h1m1 0h6m-15 1h3m1 0h1m1 0h1m1 0h8m-21 1h1m4 0h4m1 0h1m1 0h5m3 0h1M0 17h1m11 0h9m1 0h10M1 18h3m9 0h7m1 0h10M3 19h2m7 0h1m1 0h5m1 0h8M3 20h3m1 0h1m1 0h1m1 0h1m1 0h1m1 0h1m1 0h1m1 0h8M4 21h3m1 0h1m1 0h1m1 0h1m1 0h1m1 0h1m1 0h9M4 22h4m1 0h1m1 0h1m1 0h1m1 0h1m1 0h9M5 23h4m1 0h16M4 24h1m1 0h21M3 25h1m3 0h21M3 26h1m2 0h18m1 0h3M4 27h4m1 0h12m2 0h2m1 0h1M5 28h2m4 0h8m5 0h2m-12 1h2m1 0h2m-5 1h1m2 0h2m-4 1h3"/></svg>