<svg xmlns="http://www.w3.org/2000/svg" width="16" height="16" shape-rendering="crispEdges" viewBox="0 -0.5 16 16"><path stroke="maroon" d="M3 0h2M2 1h1m1 0h1m1 0h2M1 2h1m3 0h1m2 0h1M2 3h2m5 0h1"/><path stroke="red" d="M3 1h1M2 2h3m1 0h2M4 3h3"/><path stroke="green" d="M0 3h1M0 4h2m8 0h1M9 5h2"/><path stroke="#0f0" d="M1 3h1m7 1h1"/><path stroke="#000" d="M7 3h2M7 4h1M7 5h1M7 6h1m0 2h1m2 0h2m2 0h1M8 9h3m2 0h3m-8 1h1m-5 1h2m2 0h1m-3 1h1m1 0h1m-2 1h2m-8 1h8"/><path stroke="#00f" d="M3 4h4"/><path stroke="navy" d="M3 5h4"/><path stroke="gray" d="M2 6h1m3 0h1m3 2h1"/><path stroke="#fff" d="M3 6h3"/><path stroke="purple" d="M1 7h8M1 8h1m5 0h1M1 9h2m3 0h2m-7 1h3m1 0h3m-7 1h3m2 0h2m-7 1h2m4 0h1m-7 1h1"/><path stroke="olive" d="M13 7h3"/><path stroke="#f0f" d="M2 8h5M3 9h3m-2 1h1m-2 2h3m-4 1h5"/><path stroke="#ff0" d="M13 8h2"/></svg>