<svg xmlns="http://www.w3.org/2000/svg" width="32" height="32" shape-rendering="crispEdges" viewBox="0 -0.5 32 32"><path stroke="maroon" d="M6 0h2M5 1h1m2 0h1M4 2h1m3 0h1m3 0h3M3 3h1m5 0h1m1 0h1m3 0h1M3 4h1m6 0h1m5 0h1M2 5h1m1 0h1m3 0h2m5 0h2M6 6h1m6 0h2m2 0h1M6 7h8"/><path stroke="#f0f" d="M6 1h2M5 2h1M4 3h1m7 0h3M4 4h1m6 0h1m3 0h1M3 5h1m6 0h1M2 15h1m1 0h12m1 0h1M2 16h2m1 0h10m1 0h1M2 17h1m1 0h1m1 0h8m1 0h1M2 18h1m2 0h1m1 0h6m1 0h1M2 19h1m3 0h1m1 0h4m1 0h1M2 20h1m4 0h1m1 0h2m1 0h1M2 21h1m5 0h1m2 0h1M2 22h1m-1 1h1m6 0h2m-9 1h1m5 0h4M2 25h1m4 0h6M2 26h1m3 0h8M2 27h1m2 0h10M2 28h1m1 0h12"/><path stroke="red" d="M6 2h2M5 3h4M5 4h5m2 0h3M6 5h2m3 0h4M7 6h6"/><path stroke="#000" d="M5 5h1m11 0h1M2 6h3m10 0h2m1 0h1M0 7h1m2 0h1m10 0h1m2 0h1m1 0h1M0 8h1m2 0h1m11 0h1m4 0h1M1 9h2m12 0h1m4 0h1m-3 1h2m-6 1h1m0 1h1m-1 1h1m2 2h1m-1 1h1m-1 1h1m-1 1h1m12 0h1m-14 1h4m3 0h2m4 0h1m-14 1h1m2 0h4m2 0h5m-14 1h1M9 22h2m7 0h1M8 23h1m2 0h1m6 0h1M7 24h1m4 0h1m5 0h1M6 25h1m6 0h1m4 0h1M5 26h1m8 0h1m3 0h1M4 27h1m10 0h1m2 0h1M3 28h1m12 0h1m1 0h1M2 29h1m14 0h2M1 30h18"/><path stroke="green" d="M1 6h1m0 1h1m15 0h1M1 8h2m14 0h1m1 0h1m-3 1h3"/><path stroke="#0f0" d="M1 7h1m16 1h1"/><path stroke="navy" d="M5 8h2m1 0h1m1 0h1m1 0h1m1 0h1M5 9h1m0 1h9"/><path stroke="#00f" d="M7 8h1m1 0h1m1 0h1m1 0h1M6 9h9"/><path stroke="gray" d="M6 11h1m5 0h2m-9 1h1m7 0h2M5 13h1m8 0h1m4 5h2m4 0h2m-5 1h3"/><path stroke="silver" d="M7 11h5m-1 1h2m-1 1h2m7 5h1m2 0h1"/><path stroke="#fff" d="M6 12h5m-5 1h6"/><path stroke="purple" d="M1 14h18M1 15h1m1 0h1m12 0h1M1 16h1m2 0h1m10 0h1m1 0h1M1 17h1m1 0h1m1 0h1m8 0h1m1 0h2M1 18h1m1 0h2m1 0h1m6 0h1m1 0h3M1 19h1m1 0h3m1 0h1m4 0h1m1 0h4M1 20h1m1 0h4m1 0h1m2 0h1m1 0h5M1 21h1m1 0h5m1 0h2m1 0h6M1 22h1m1 0h6m2 0h7M1 23h1m1 0h5m4 0h6M1 24h1m1 0h4m6 0h5M1 25h1m1 0h3m8 0h4M1 26h1m1 0h2m10 0h3M1 27h1m1 0h1m12 0h2M1 28h1m15 0h1M1 29h1m1 0h14"/><path stroke="olive" d="M27 17h5m-5 2h4"/><path stroke="#ff0" d="M27 18h4"/></svg>