<svg xmlns="http://www.w3.org/2000/svg" width="16" height="16" shape-rendering="crispEdges" viewBox="0 -0.5 16 16"><path stroke="maroon" d="M5 0h2M2 1h3m2 0h1M1 2h1m1 0h1M1 3h1M1 4h2"/><path stroke="red" d="M5 1h2M2 2h1m1 0h2M2 3h2"/><path stroke="#0f0" d="M8 1h1M1 5h1"/><path stroke="green" d="M9 1h1M8 2h2M0 5h1M0 6h2"/><path stroke="#00f" d="M6 2h1M4 3h3M3 4h2"/><path stroke="purple" d="M10 3h1M9 4h1M9 5h2M2 7h2M1 8h1m1 0h1M1 9h2"/><path stroke="#000" d="M11 3h1m-1 1h1m0 1h1m-1 1h1m0 1h1m-1 1h1m0 1h1m-2 1h2m-4 1h2m-4 1h2m1 0h1m-6 1h2m3 0h1m-8 1h2m6 0h1M3 15h2m8 0h1"/><path stroke="silver" d="M5 4h2M5 5h2M5 6h1"/><path stroke="gray" d="M7 4h1M3 5h1m3 0h1M3 6h1m6 2h1M4 9h1m3 0h1m-3 1h1m-1 1h1"/><path stroke="#f0f" d="M10 4h1M2 8h1"/><path stroke="#fff" d="M4 5h1M4 6h1"/><path stroke="teal" d="M8 5h1m2 0h1M6 6h2M4 7h2m3 0h1m2 0h1M6 8h3M0 9h1m4 0h2m2 0h2m2 0h1M0 10h1m2 0h2m2 0h2m3 0h1M1 11h1m2 0h2m4 0h1M1 12h1m2 0h1m3 0h1m-7 1h1m3 0h1m-5 1h1m1 0h1"/><path stroke="#0ff" d="M8 6h4M6 7h3m1 0h2M4 8h2m3 0h1m1 0h2M3 9h1m3 0h1m3 0h2M1 10h2m2 0h1m3 0h3M2 11h2m3 0h3m-8 1h2m1 0h3m-5 1h3m-3 1h1"/><path stroke="#ff0" d="M11 12h1m-2 1h1m-2 1h1m0 1h2"/><path stroke="olive" d="M9 13h1m1 0h1m-4 1h1m1 0h3m-5 1h2m2 0h1"/></svg>