<svg xmlns="http://www.w3.org/2000/svg" width="32" height="32" shape-rendering="crispEdges" viewBox="0 -0.5 32 32"><path stroke="maroon" d="M12 0h3m-5 1h2M9 2h1M5 3h5M3 4h2m3 0h1M3 5h1m3 0h1M2 6h1M2 7h1M2 8h1M2 9h1"/><path stroke="#f0f" d="M12 1h2m-4 1h2m-2 1h1M5 4h3m1 0h1M4 5h1m3 0h1M3 6h1m3 0h1M3 7h1M3 8h1m17 1h2M6 16h1m-2 1h1"/><path stroke="red" d="M14 1h1m-3 1h4m-5 1h3m-4 1h3M5 5h2m2 0h4M4 6h3m1 0h3M4 7h5"/><path stroke="#000" d="M15 1h1m0 1h1m-3 1h2m3 0h1m-7 1h1m5 0h1m-6 1h1m2 0h2m-5 1h1m0 1h1M4 8h3m9 0h1m-3 1h1m2 0h1m6 0h1M4 10h1m9 0h1m2 0h1m5 0h1m1 0h1M4 11h1m5 0h1m9 0h3m2 0h1M2 12h2m6 0h1m1 0h2m12 0h1m-1 1h1m0 1h1m-1 1h1M8 16h1m19 0h1M8 17h1m19 0h1M4 18h4m21 0h1m-1 1h1m0 1h1m-2 1h2m-4 1h2m-4 1h2m-4 1h3m-5 1h2m2 0h1m-7 1h2m4 0h2m-10 1h2m7 0h1m-12 1h2m9 0h1m-14 1h2m11 0h2m-17 1h2m14 0h1M9 31h2m16 0h1"/><path stroke="green" d="M17 2h2m-3 1h1m1 0h1m-3 1h3M3 9h1m-3 1h1m1 0h1m-3 1h3"/><path stroke="#0f0" d="M17 3h1M2 10h1"/><path stroke="navy" d="M13 5h1m-1 2h2m-4 1h2M7 9h1m1 0h2m-4 1h2m10 0h1m-3 1h2m-4 1h2m-4 1h2m-4 1h2m-4 1h2m-8 3h1m-1 1h1m0 1h1m24 0h1M4 21h1m22 0h2M5 22h1m19 0h2M5 23h1m17 0h2M6 24h1m14 0h2M6 25h1m12 0h2M7 26h1m9 0h2M7 27h1m7 0h2m-9 1h1m4 0h2m-7 1h1m2 0h2m-4 1h2"/><path stroke="#00f" d="M11 6h3M9 7h4M7 8h4M8 9h1m15 1h1m-6 1h1m3 0h2m-8 1h9m-11 1h11m-13 1h7m1 0h2m2 0h2m-16 1h7m1 0h1m2 0h1m1 0h1m1 0h1M9 16h9m1 0h2m1 0h1m1 0h1m1 0h2M9 17h9m2 0h1m5 0h2M8 18h7m2 0h2m1 0h2m1 0h1m1 0h4M4 19h4m2 0h5m1 0h1m1 0h1m3 0h2m2 0h3M5 20h2m1 0h2m1 0h1m4 0h1m1 0h7m1 0h3M5 21h2m1 0h2m1 0h1m1 0h1m4 0h9M6 22h1m4 0h1m1 0h1m1 0h1m1 0h8M6 23h2m1 0h3m3 0h1m2 0h5M7 24h1m2 0h7m1 0h3M7 25h2m1 0h9M8 26h9m-9 1h7m-6 1h4m-4 1h2"/><path stroke="silver" d="M13 8h1m1 0h1m-5 1h1m4 0h1m-1 1h1m-2 1h2m-3 1h1m-4 1h2m-3 1h1m7 15h1m0 2h3m2 0h2"/><path stroke="#fff" d="M14 8h1m-3 1h2m-5 1h5m1 0h1m-7 1h1m2 0h2m-5 1h1m1 0h1m-3 1h2m9 1h1m3 0h1m-7 1h1m2 0h1m1 0h1m1 0h1m-8 1h1m2 0h1m1 0h1m1 0h1m-7 1h1m2 0h1m1 0h2m-10 1h1m2 0h1m2 0h1m1 0h1M8 19h2m5 0h1m1 0h1m2 0h2m3 0h1M7 20h1m2 0h1m1 0h2m1 0h1m1 0h1m7 0h1M7 21h1m2 0h1m1 0h1m1 0h1m1 0h2M8 22h2m2 0h1m1 0h1m1 0h1m-9 1h1m4 0h2m2 0h1m-9 1h1m7 0h1m-9 1h1m8 3h1m0 2h1"/><path stroke="purple" d="M21 8h3m-4 1h1m2 0h1m-4 1h3M6 15h2m-3 1h1m1 0h1m-4 1h1m1 0h2"/><path stroke="gray" d="M15 9h1m-8 2h1m2 0h1m2 0h1m-7 1h1m-1 1h1m0 1h1m13 0h1M8 15h1m11 0h1m-3 2h1m2 0h1m1 0h1m-9 1h1m3 1h1m4 0h1m-11 1h1m0 1h1m-9 1h1m2 0h1m1 1h1m3 0h1m-9 1h1"/><path stroke="#ff0" d="M23 25h1m-3 1h3m-5 1h4m-4 1h2m2 0h2m-4 1h4m-5 1h4"/><path stroke="olive" d="M24 25h1m-1 1h1m-2 1h3m-9 1h1m3 0h2m2 0h1m-9 1h1m1 0h2m4 0h1m-9 1h2m5 0h3m-9 1h1m3 0h2m2 0h1"/></svg>