<svg xmlns="http://www.w3.org/2000/svg" viewBox="0 -0.5 16 16" shape-rendering="crispEdges">
<path stroke="#800000" d="M0 0h1M5 0h2M2 1h3M7 1h1M1 2h1M3 2h1M1 3h1M1 4h2" />
<path stroke="#ff0000" d="M0 0h1M5 1h2M2 2h1M4 2h2M2 3h2" />
<path stroke="#00ff00" d="M0 0h1M8 1h1M1 5h1" />
<path stroke="#008000" d="M0 0h1M9 1h1M8 2h2M0 5h1M0 6h2" />
<path stroke="#0000ff" d="M0 0h1M6 2h1M4 3h3M3 4h2" />
<path stroke="#800080" d="M0 0h1M10 3h1M9 4h1M9 5h2M2 7h2M1 8h1M3 8h1M1 9h2" />
<path stroke="#000000" d="M0 0h1M11 3h1M11 4h1M12 5h1M12 6h1M13 7h1M13 8h1M14 9h1M13 10h2M11 11h2M9 12h2M12 12h1M7 13h2M12 13h1M5 14h2M13 14h1M3 15h2M13 15h1" />
<path stroke="#c0c0c0" d="M0 0h1M5 4h2M5 5h2M5 6h1" />
<path stroke="#808080" d="M0 0h1M7 4h1M3 5h1M7 5h1M3 6h1M10 8h1M4 9h1M8 9h1M6 10h1M6 11h1" />
<path stroke="#ff00ff" d="M0 0h1M10 4h1M2 8h1" />
<path stroke="#ffffff" d="M0 0h1M4 5h1M4 6h1" />
<path stroke="#008080" d="M0 0h1M8 5h1M11 5h1M6 6h2M4 7h2M9 7h1M12 7h1M6 8h3M0 9h1M5 9h2M9 9h2M13 9h1M0 10h1M3 10h2M7 10h2M12 10h1M1 11h1M4 11h2M10 11h1M1 12h1M4 12h1M8 12h1M2 13h1M6 13h1M2 14h1M4 14h1" />
<path stroke="#00ffff" d="M0 0h1M8 6h4M6 7h3M10 7h2M4 8h2M9 8h1M11 8h2M3 9h1M7 9h1M11 9h2M1 10h2M5 10h1M9 10h3M2 11h2M7 11h3M2 12h2M5 12h3M3 13h3M3 14h1" />
<path stroke="#ffff00" d="M0 0h1M11 12h1M10 13h1M9 14h1M10 15h2" />
<path stroke="#808000" d="M0 0h1M9 13h1M11 13h1M8 14h1M10 14h3M8 15h2M12 15h1" />
</svg>