<svg xmlns="http://www.w3.org/2000/svg" viewBox="0 -0.5 32 32" shape-rendering="crispEdges">
<path stroke="#008000" d="M0 0h1M1 4h28M1 5h28M1 6h2M27 6h2M1 7h2M10 7h10M27 7h2M1 8h2M4 8h1M9 8h1M20 8h1M25 8h1M27 8h2M1 9h2M5 9h3M22 9h3M27 9h2M1 10h2M8 10h14M27 10h2M1 11h2M5 11h2M23 11h2M27 11h2M1 12h2M7 12h16M27 12h2M1 13h2M27 13h2M1 14h2M7 14h13M27 14h2M1 15h2M5 15h2M27 15h2M1 16h2M8 16h11M27 16h2M1 17h2M5 17h3M27 17h2M1 18h2M4 18h1M9 18h1M25 18h1M27 18h2M1 19h2M10 19h10M27 19h2M1 20h2M27 20h2M1 21h18M25 21h4M1 22h17M25 22h4" />
<path stroke="#ffffff" d="M0 0h1M3 6h24M3 7h7M20 7h7M3 8h1M5 8h4M10 8h10M21 8h4M26 8h1M3 9h2M8 9h14M25 9h2M3 10h5M22 10h5M3 11h2M7 11h16M25 11h2M3 12h4M23 12h4M3 13h24M3 14h4M24 14h3M3 15h2M7 15h12M25 15h2M3 16h5M25 16h2M3 17h2M8 17h11M25 17h2M3 18h1M5 18h4M10 18h10M24 18h1M26 18h1M3 19h7M24 19h3M3 20h16M25 20h2" />
<path stroke="#808080" d="M0 0h1M29 11h1M29 12h1M29 13h1M29 14h1M29 15h1M29 16h1M29 17h1M29 18h1M29 19h1M29 20h1M21 21h2M29 21h1M20 22h3M29 22h1M8 23h10M20 23h3M25 23h5M13 24h4M19 24h3M24 24h6M19 25h1M24 25h1M17 26h3M22 26h3" />
<path stroke="#ff0000" d="M0 0h1M20 14h4M19 15h6M19 16h6M19 17h6M20 18h4M20 19h4M19 20h6M19 21h2M23 21h2M18 22h2M23 22h2M18 23h2M23 23h2M17 24h2M22 24h2M17 25h2M22 25h2" />
</svg>