<svg xmlns="http://www.w3.org/2000/svg" width="16" height="16" shape-rendering="crispEdges" viewBox="0 -0.5 16 16"><path stroke="gray" d="M3 2h4M2 3h1m4 0h1M1 4h1m6 0h1M0 5h1m8 0h1M0 6h1m8 0h1M0 7h1m8 0h1M0 8h1m8 0h1M1 9h1m6 0h1m1 0h1m-9 1h1m4 0h1m-5 1h4"/><path stroke="silver" d="M7 2h1M0 9h1m8 1h1m-2 1h1m-2 1h1"/><path stroke="#000" d="M15 2h1M8 3h1m4 0h2M9 4h1m1 0h2m2 0h1m-6 1h1m2 0h2m-5 1h3m2 0h1m-6 1h1m2 0h2m-5 1h3m2 0h1M9 9h1m3 0h2M1 10h1m6 0h1m2 0h2M2 11h1m4 0h1m-5 1h4"/><path stroke="#fff" d="M3 3h1M2 4h4M1 5h3m1 0h2m1 0h1M1 6h2m2 0h1m2 0h1M1 7h1m5 0h2M1 8h2m2 0h4M2 9h2m1 0h3m-5 1h4"/><path stroke="red" d="M4 3h3M6 4h2M4 5h1m2 0h1M3 6h2m1 0h2M2 7h5M3 8h2M4 9h1"/></svg>