<svg xmlns="http://www.w3.org/2000/svg" width="32" height="32" shape-rendering="crispEdges" viewBox="0 -0.5 32 32"><path stroke="gray" d="M14 0h8M12 1h2m3 0h1m4 0h2M10 2h2m12 0h2M9 3h1M8 4h1m18 0h1M7 5h1m1 0h1m2 0h1m15 0h1M6 6h1M6 7h1M5 8h1M5 9h1m-2 1h1m7 0h2M4 11h1m5 0h2m2 0h2M4 12h1m3 0h2m3 0h1m2 0h2M4 13h1m1 0h2m2 0h2m1 0h1m4 0h2M4 14h2m2 0h4m1 0h2m5 0h2M2 15h2m2 0h6m1 0h2m7 0h2M0 16h2m2 0h8m1 0h3m8 0h2M0 17h1m1 0h10m1 0h4m9 0h2M0 18h1m3 0h8m2 0h3m9 0h1M0 19h1m3 0h6m2 0h2m2 0h2m6 0h3M0 20h1m4 0h3m2 0h6m6 0h5M0 21h1m4 0h1m2 0h10m2 0h7M0 22h1m5 0h10m2 0h9M0 23h1m5 0h5m5 0h11M0 24h1m7 0h2m5 0h12m-12 1h11m1 0h1m-13 1h9m-9 1h7m-7 1h5m-5 1h3m-3 1h1"/><path stroke="#fff" d="M14 1h1m-3 1h1m2 0h1m-6 1h2m2 0h1M9 4h1m1 0h3M8 5h1m1 0h1M7 6h1m2 0h2M8 7h1m1 0h1M6 8h1m1 0h4M7 9h2m-4 1h1m1 0h2m-3 1h3m3 0h2m-7 1h1m2 0h2m2 0h2m-8 1h2m6 0h2M6 14h2m10 0h2M4 15h2m14 0h2M2 16h2m18 0h2M1 17h1m22 0h2M2 18h2m20 0h2M3 19h1m18 0h2M4 20h1m15 0h2M4 21h1m13 0h2M5 22h1m10 0h2M5 23h1m5 0h3m1 0h1M6 24h2m2 0h1m3 0h1m-7 1h2"/><path stroke="teal" d="M15 1h1m3 0h3m-3 1h1m-8 1h2M8 6h1m18 0h1M18 7h1m4 0h1M12 9h1m4 0h1m9 0h1M6 10h1m17 0h1M5 11h1m17 3h1"/><path stroke="silver" d="M16 1h1m-4 1h1m-4 2h1M9 6h1M7 7h1m1 0h1M7 8h1M6 9h1m2 0h1m-1 2h1m-5 1h2m-2 1h1m8 0h2m-1 1h3m-3 1h5m-4 1h6m-5 1h7M1 18h1m15 0h7M1 19h2m15 0h4M1 20h3m14 0h2M1 21h3m-3 1h4m-4 1h4m9 0h1M2 24h4m5 0h3M4 25h4m2 0h5m-9 1h9m-7 1h7m-5 1h5m-3 1h3m-1 1h1"/><path stroke="#00f" d="M18 1h1m-3 1h1m3 0h1m-6 1h2m-3 1h1m1 0h1m0 3h1m1 0h2m1 0h1m-9 1h4m1 0h3m1 0h1M14 9h2m-5 1h1m2 0h7m2 0h1m-8 1h2m6 0h4m-9 1h2m5 0h3m-9 1h2m3 0h3m1 0h1m-8 1h1m2 0h3m-4 1h3m1 0h1m-3 1h2"/><path stroke="green" d="M14 2h1m2 0h2m2 0h3m-7 1h9m-9 1h10M11 5h1m1 0h2m1 0h11M12 6h15M11 7h6m4 0h1m2 0h3m1 0h1M12 8h2m4 0h1m5 0h4m1 0h1M10 9h2m6 0h9m1 0h1M9 10h2m10 0h1m3 0h3m1 0h1m-12 1h5m5 0h1m1 0h1m-13 1h1m2 0h3m5 0h1m-8 1h2m6 0h1m-2 1h1"/><path stroke="#000" d="M26 3h1m0 2h1m1 1h1m-3 1h1m1 0h1m0 1h1m-1 1h1m0 1h1m-1 1h1m-20 1h1m18 0h1m-20 1h1m18 0h1m-20 1h1m18 0h1m-20 1h1m18 0h1m-20 1h1m18 0h1m-20 1h1m18 0h1m-20 1h2m13 0h1m2 0h1m-21 1h2m2 0h2m11 0h1m2 0h1M8 20h2m6 0h2m9 0h1m1 0h1M6 21h2m19 0h1m1 0h1m-3 1h2m-2 1h1M1 24h1m25 0h1M2 25h2m22 0h1M4 26h2m18 0h2M6 27h2m14 0h2M8 28h2m10 0h2m-12 1h2m6 0h2m-8 1h2m2 0h2m-4 1h2"/><path stroke="navy" d="M15 4h1m-1 1h1m12 1h1m-7 2h1m5 0h1M13 9h1m2 0h1m12 0h1m-8 1h1m5 0h1m1 0h1m-8 1h1m5 0h1m-6 1h2m4 0h1m-7 1h1m3 0h1m-5 1h1m3 0h1m1 0h1m-4 1h1m1 0h2m-3 1h3m-3 1h3m-3 1h2m-2 1h2m-2 1h1m-1 1h1"/></svg>