<svg xmlns="http://www.w3.org/2000/svg" width="32" height="32" shape-rendering="crispEdges" viewBox="0 -0.5 32 32"><path stroke="gray" d="M0 21h10M0 22h1m-1 1h1m-1 1h1m-1 1h1m-1 1h1m-1 1h1m-1 1h1m-1 1h1m-1 1h1m-1 1h1"/><path stroke="#000" d="M10 21h1m-1 1h1m-7 1h4m2 0h1m-6 1h3m2 0h1m-7 1h4m2 0h1m-8 1h3m1 0h1m2 0h1m-8 1h2m5 0h1m-8 1h1m6 0h1m-7 1h1m5 0h1m-1 1h1M1 31h10"/><path stroke="#fff" d="M1 22h9m-9 1h3m4 0h2m-9 1h4m3 0h2m-9 1h3m4 0h2m-9 1h2m3 0h1m1 0h2m-9 1h2m2 0h5m-9 1h2m1 0h6m-9 1h3m1 0h5m-9 1h9"/></svg>