<svg xmlns="http://www.w3.org/2000/svg" width="32" height="32" shape-rendering="crispEdges" viewBox="0 -0.5 32 32"><path stroke="gray" d="M9 7h23M9 8h1M8 9h5m-7 1h2m-3 1h1m-2 1h1m-1 1h1m-2 1h1m-1 1h1m-1 1h1m-1 1h1m-1 1h1m0 1h1m-1 1h1m0 1h1m11 0h1m-1 1h2m-5 1h1m3 0h1m-4 1h1m0 1h1"/><path stroke="#fff" d="M10 8h20M15 9h11m3 0h1M9 10h1m1 0h1m1 0h1m3 0h9m3 0h1M6 11h1m1 0h1m1 0h1m1 0h1m1 0h1m3 0h8m3 0h1M5 12h1m1 0h1m1 0h1m1 0h1m1 0h1m1 0h1m3 0h11M6 13h1m1 0h1m1 0h1m1 0h1m1 0h1m1 0h1m2 0h11M5 14h1m1 0h1m1 0h1m1 0h1m1 0h1m1 0h1m4 0h10M4 15h1m1 0h1m1 0h1m1 0h1m1 0h1m1 0h1m1 0h1m10 0h3M5 16h1m1 0h1m1 0h1m1 0h1m1 0h1m1 0h1m4 0h10M4 17h1m1 0h1m1 0h1m1 0h1m1 0h1m1 0h1m1 0h1m10 0h3M5 18h1m1 0h1m1 0h1m1 0h1m1 0h1m1 0h1m4 0h10M6 19h1m1 0h1m1 0h1m1 0h1m1 0h1m4 0h11M7 20h1m1 0h1m1 0h1m1 0h1m-6 1h1m1 0h1m1 0h1m3 2h1m0 1h1"/><path stroke="silver" d="M30 8h1M14 9h1m15 0h1m-15 1h1m13 0h1m-14 1h1m12 0h1m-13 1h1m11 0h1m-13 1h1m11 0h1m-12 1h1m10 0h1m-1 1h1m-12 1h1m10 0h1m-1 1h1m-12 1h1m10 0h1m-13 1h1m11 0h1M5 20h1m13 0h12M6 21h1m9 1h1m-2 1h1m1 0h1m-2 1h1"/><path stroke="#000" d="M31 8h1M13 9h1m17 0h1m-18 1h2m15 0h1m-16 1h1m14 0h1m-15 1h1m13 0h1m-15 1h1m13 0h1m-14 1h1m12 0h1m-14 1h1m12 0h1m-14 1h1m12 0h1m-14 1h1m12 0h1m-14 1h1m12 0h1m-15 1h1m13 0h1m-15 1h2m12 0h1m-16 1h1m1 0h14M6 22h2m6 0h2m3 0h1M8 23h6m6 0h1m0 1h1m0 1h1m0 1h1m0 1h1m0 1h1m-1 1h1m-1 1h1m-4 1h3"/><path stroke="maroon" d="M26 9h1m1 0h1m-2 1h1m-2 1h1m1 0h1"/><path stroke="red" d="M27 9h1m-2 1h1m1 0h1m-2 1h1"/><path stroke="#0ff" d="M8 10h1m1 0h1m1 0h1m-6 1h1m1 0h1m1 0h1m1 0h1m-8 1h1m1 0h1m1 0h1m1 0h1m1 0h1M5 13h1m1 0h1m1 0h1m1 0h1m1 0h1m1 0h1M4 14h1m1 0h1m1 0h1m1 0h1m1 0h1m1 0h1m1 0h1M5 15h1m1 0h1m1 0h1m1 0h1m1 0h1m1 0h1M4 16h1m1 0h1m1 0h1m1 0h1m1 0h1m1 0h1m1 0h1M5 17h1m1 0h1m1 0h1m1 0h1m1 0h1m1 0h1M4 18h1m1 0h1m1 0h1m1 0h1m1 0h1m1 0h1m1 0h1M5 19h1m1 0h1m1 0h1m1 0h1m1 0h1m1 0h1M6 20h1m1 0h1m1 0h1m1 0h1m1 0h1m-8 1h1m1 0h1m1 0h1m1 0h1m4 3h1m-1 1h2m-1 1h2m-1 1h2m-1 1h2m-1 1h2m-1 1h1"/><path stroke="teal" d="M15 11h1m0 1h1m0 2h1m-1 1h1m-1 1h1m-1 1h1m-1 1h1m-2 1h1m-2 1h2m-3 1h2m-8 1h6"/><path stroke="navy" d="M19 15h1m-1 2h1m-3 9h1m0 1h1m0 1h1m0 1h1m0 1h1"/><path stroke="#00f" d="M20 15h7m-7 2h7m-8 6h1m-1 1h2m-4 1h1m2 0h2m-4 1h1m2 0h2m-4 1h1m2 0h2m-4 1h1m2 0h2m-4 1h1m2 0h1m-3 1h1m1 0h1"/></svg>