<svg xmlns="http://www.w3.org/2000/svg" viewBox="0 -0.5 16 16" shape-rendering="crispEdges">
<path stroke="#808080" d="M0 0h1M4 4h11M4 5h2M3 6h1M2 7h1M2 8h1M2 9h1M3 10h1M8 10h2M4 11h1M7 11h1" />
<path stroke="#000000" d="M0 0h1M15 4h1M6 5h1M15 5h1M7 6h1M15 6h1M8 7h1M15 7h1M8 8h1M15 8h1M8 9h1M15 9h1M7 10h1M10 10h6M5 11h2M11 11h1M12 12h1M13 13h1M13 14h1M11 15h2" />
<path stroke="#c0c0c0" d="M0 0h1M7 5h1M14 5h1M8 6h1M14 6h1M7 7h1M9 7h1M14 7h1M6 8h1M9 8h1M14 8h1M5 9h1M7 9h1M9 9h6M4 10h1M6 10h1M8 11h1" />
<path stroke="#ffffff" d="M0 0h1M8 5h5M4 6h1M6 6h1M9 6h4M3 7h1M5 7h1M13 7h1M4 8h1M10 8h4M3 9h1" />
<path stroke="#ff0000" d="M0 0h1M13 5h1M13 6h1" />
<path stroke="#00ffff" d="M0 0h1M5 6h1M4 7h1M6 7h1M3 8h1M5 8h1M7 8h1M4 9h1M6 9h1M5 10h1M9 12h1M10 13h1M11 14h1" />
<path stroke="#0000ff" d="M0 0h1M10 7h3M9 11h2M10 12h2M11 13h2M12 14h1" />
<path stroke="#000080" d="M0 0h1M8 12h1M9 13h1M10 14h1" />
</svg>