<svg xmlns="http://www.w3.org/2000/svg" viewBox="0 -0.5 16 16" shape-rendering="crispEdges">
<path stroke="#808080" d="M0 0h1M2 0h9M2 1h1M10 1h1M2 2h1M10 2h1M2 3h1M10 3h1M2 4h1M2 5h1M2 6h1M2 7h1M2 8h1M2 9h1M2 10h1M2 11h1M2 12h1M2 13h1M2 14h1" />
<path stroke="#000000" d="M0 0h1M11 0h1M12 1h1M13 2h1M11 3h3M13 4h1M13 5h1M13 6h1M13 7h1M13 8h1M13 9h1M13 10h1M13 11h1M13 12h1M13 13h1M13 14h1M2 15h12" />
<path stroke="#ffffff" d="M0 0h1M3 1h7M3 2h7M11 2h1M3 3h7M3 4h9M3 5h9M3 6h9M3 7h9M3 8h9M3 9h9M3 10h9M3 11h9M3 12h9M3 13h9" />
<path stroke="#c0c0c0" d="M0 0h1M11 1h1M12 2h1M12 4h1M12 5h1M12 6h1M12 7h1M12 8h1M12 9h1M12 10h1M12 11h1M12 12h1M12 13h1M3 14h10" />
</svg>