<svg xmlns="http://www.w3.org/2000/svg" width="32" height="32" shape-rendering="crispEdges" viewBox="0 -0.5 32 32"><path stroke="#000" d="M8 3h1M8 4h2M8 5h3M8 6h4m17 0h1M8 7h2m1 0h2m16 0h1M8 8h1m3 0h1m16 0h1M9 9h1m2 0h2m15 0h1M9 10h2m2 0h2m14 0h1m-20 1h1m3 0h1m14 0h1m-20 1h2m2 0h2m13 0h1m-19 1h1m3 0h1m13 0h1m-18 1h1m1 0h3m12 0h1m-18 1h2m2 0h1m12 0h1m-17 1h1m3 0h1m1 0h7m3 0h1m-17 1h1m3 0h1m11 0h1m-16 1h3m12 0h1m-12 1h5m6 0h1m-1 1h1m-1 1h1m-1 1h1m-1 1h1m-1 1h1M4 25h26"/><path stroke="gray" d="M2 5h6m3 0h18M2 6h1m25 0h1M2 7h1m25 0h1M2 8h1m25 0h1M2 9h1m25 0h1M2 10h1m25 0h1M2 11h1m25 0h1M2 12h1m25 0h1M2 13h1m25 0h1M2 14h1m25 0h1M2 15h1m25 0h1M2 16h1m25 0h1M2 17h1m25 0h1M2 18h1m25 0h1M2 19h1m25 0h1M2 20h1m25 0h1M2 21h1m25 0h1M2 22h1m25 0h1M2 23h1m25 0h1M2 24h27"/><path stroke="#fff" d="M3 6h1m1 0h1m1 0h1m5 0h1m1 0h1m1 0h1m1 0h1m1 0h1m1 0h1m1 0h1m1 0h1M3 8h1m5 0h1m-7 2h1m7 1h1m-9 1h1m8 1h1M3 14h1m9 0h1M3 16h1m-1 2h1m-1 2h1m-1 2h1"/><path stroke="#ff0" d="M4 6h1m1 0h1m5 0h1m1 0h1m1 0h1m1 0h1m1 0h1m1 0h1m1 0h1m1 0h1M3 7h1m1 0h1m1 0h1m2 0h1m2 0h1m1 0h1m1 0h1m1 0h1m1 0h1m1 0h1m1 0h1m1 0h1M4 8h1m1 0h1m3 0h1m3 0h1m1 0h1m1 0h1m1 0h1m1 0h1m1 0h1m1 0h1M3 9h1m1 0h1m1 0h1m2 0h2m3 0h1m1 0h1m1 0h1m1 0h1m1 0h1m1 0h1m1 0h1M4 10h1m1 0h1m1 0h1m2 0h2m3 0h1m1 0h1m1 0h1m1 0h1m1 0h1m1 0h1M3 11h1m1 0h1m1 0h1m1 0h1m2 0h1m2 0h1m1 0h1m1 0h1m1 0h1m1 0h1m1 0h1m1 0h1M4 12h1m1 0h1m1 0h1m3 0h2m2 0h1m1 0h1m1 0h1m1 0h1m1 0h1m1 0h1M3 13h1m1 0h1m1 0h1m1 0h1m3 0h1m3 0h1m1 0h1m1 0h1m1 0h1m1 0h1m1 0h1M4 14h1m1 0h1m1 0h1m1 0h1m7 0h1m1 0h1m1 0h1m1 0h1m1 0h1M3 15h1m1 0h1m1 0h1m1 0h1m1 0h1m5 0h1m1 0h1m1 0h1m1 0h1m1 0h1m1 0h1M4 16h1m1 0h1m1 0h1m1 0h1m1 0h1m5 0h1m7 0h1M3 17h1m1 0h1m1 0h1m1 0h1m1 0h1m7 0h1m1 0h1m1 0h1m1 0h1m1 0h1M4 18h1m1 0h1m1 0h1m1 0h1m1 0h1m5 0h1m1 0h1m1 0h1m1 0h1m1 0h1M3 19h1m1 0h1m1 0h1m1 0h1m1 0h1m1 0h1m1 0h1m1 0h1m5 0h1m1 0h1m1 0h1M4 20h1m1 0h1m1 0h1m1 0h1m1 0h1m1 0h1m1 0h1m1 0h1m1 0h1m1 0h1m1 0h1m1 0h1M3 21h1m1 0h1m1 0h1m1 0h1m1 0h1m1 0h1m1 0h1m1 0h1m1 0h1m1 0h1m1 0h1m1 0h1m1 0h1M4 22h1m1 0h1m1 0h1m1 0h1m1 0h1m1 0h1m1 0h1m1 0h1m1 0h1m1 0h1m1 0h1m1 0h1M3 23h1m1 0h1m1 0h1m1 0h1m1 0h1m1 0h1m1 0h1m1 0h1m1 0h1m1 0h1m1 0h1m1 0h1m1 0h1"/><path stroke="silver" d="M4 7h1m1 0h1m7 0h1m1 0h1m1 0h1m1 0h1m1 0h1m1 0h1m1 0h1M5 8h1m1 0h1m3 0h1m1 0h1m1 0h1m1 0h1m1 0h1m1 0h1m1 0h1m1 0h1m1 0h1M4 9h1m1 0h1m1 0h1m5 0h1m1 0h1m1 0h1m1 0h1m1 0h1m1 0h1m1 0h1M5 10h1m1 0h1m7 0h1m1 0h1m1 0h1m1 0h1m1 0h1m1 0h1m1 0h1M4 11h1m1 0h1m1 0h1m4 0h1m2 0h1m1 0h1m1 0h1m1 0h1m1 0h1m1 0h1M5 12h1m1 0h1m1 0h1m7 0h1m1 0h1m1 0h1m1 0h1m1 0h1m1 0h1M4 13h1m1 0h1m1 0h1m1 0h1m3 0h1m1 0h1m1 0h1m1 0h1m1 0h1m1 0h1m1 0h1M5 14h1m1 0h1m1 0h1m1 0h1m5 0h1m1 0h1m1 0h1m1 0h1m1 0h1m1 0h1M4 15h1m1 0h1m1 0h1m1 0h1m7 0h1m1 0h1m1 0h1m1 0h1m1 0h1M5 16h1m1 0h1m1 0h1m1 0h1m15 0h1M4 17h1m1 0h1m1 0h1m1 0h1m1 0h1m5 0h1m1 0h1m1 0h1m1 0h1m1 0h1M5 18h1m1 0h1m1 0h1m1 0h1m1 0h1m3 0h1m1 0h1m1 0h1m1 0h1m1 0h1m1 0h1M4 19h1m1 0h1m1 0h1m1 0h1m1 0h1m1 0h1m1 0h1m7 0h1m1 0h1M5 20h1m1 0h1m1 0h1m1 0h1m1 0h1m1 0h1m1 0h1m1 0h1m1 0h1m1 0h1m1 0h1m1 0h1M4 21h1m1 0h1m1 0h1m1 0h1m1 0h1m1 0h1m1 0h1m1 0h1m1 0h1m1 0h1m1 0h1m1 0h1M5 22h1m1 0h1m1 0h1m1 0h1m1 0h1m1 0h1m1 0h1m1 0h1m1 0h1m1 0h1m1 0h1m1 0h1M4 23h1m1 0h1m1 0h1m1 0h1m1 0h1m1 0h1m1 0h1m1 0h1m1 0h1m1 0h1m1 0h1m1 0h1"/><path stroke="maroon" d="M14 15h2m-2 1h3m-3 1h3"/></svg>