<svg xmlns="http://www.w3.org/2000/svg" width="16" height="16" shape-rendering="crispEdges" viewBox="0 -0.5 16 16"><path stroke="gray" d="M6 0h5M4 1h2m5 0h2M3 2h1m9 0h1M2 3h1M2 4h1M1 5h1m3 0h4M1 6h1m1 0h2m4 0h2M1 7h2m2 0h1m5 0h2M0 8h1m2 0h3m1 0h1M0 9h1m5 0h1m1 0h1m3 0h1M0 10h1m5 0h2m2 0h3M0 11h1m7 0h5m-5 1h5m-5 1h4m-4 1h2"/><path stroke="silver" d="M6 1h1m1 0h1M5 2h2M4 3h1M3 4h1M2 5h2m3 2h2M8 8h3M1 9h1m7 0h1m-9 1h3m-3 1h5m-4 1h6m-4 1h4m-2 1h2"/><path stroke="#fff" d="M7 1h1M4 2h1M3 3h1m0 1h1M2 6h1m2 0h1m1 0h2M3 7h2m4 0h2M1 8h2m8 0h2M2 9h2m6 0h2m-8 1h2m2 0h2m-4 1h2"/><path stroke="teal" d="M9 1h2M5 3h1m5 1h1M4 5h1m6 0h1m2 1h1"/><path stroke="#00f" d="M7 2h1M7 4h3M9 5h2m3 0h1m-4 1h3m-1 1h1"/><path stroke="green" d="M8 2h5M6 3h8M5 4h2m3 0h1m1 0h2m-2 1h2"/><path stroke="#000" d="M14 3h1m-1 1h1m0 1h1M6 6h1m8 0h1M6 7h1m8 0h1M6 8h1m6 0h1m1 0h1M4 9h2m1 0h1m5 0h1m1 0h1m-3 1h1m1 0h1m-3 1h2M0 12h2m11 0h2M2 13h2m8 0h2M4 14h2m4 0h2m-6 1h4"/><path stroke="navy" d="M14 7h1m-1 1h1m-1 1h1m-1 1h1"/></svg>