<svg xmlns="http://www.w3.org/2000/svg" width="16" height="16" shape-rendering="crispEdges" viewBox="0 -0.5 16 16"><path stroke="#000" d="M3 0h1M3 1h3M3 2h1m1 0h1M3 3h1m2 0h1m7 0h1M4 4h1m1 0h1m7 0h1M4 5h1m2 0h1m6 0h1M5 6h1m1 0h1m6 0h1M5 7h1m2 0h4m2 0h1M6 8h1m1 0h1m5 0h1M6 9h5m3 0h1m-1 1h1m-1 1h1M2 12h13"/><path stroke="gray" d="M1 2h2m3 0h8M1 3h1m11 0h1M1 4h1m11 0h1M1 5h1m11 0h1M1 6h1m11 0h1M1 7h1m11 0h1M1 8h1m11 0h1M1 9h1m11 0h1M1 10h1m11 0h1M1 11h13"/><path stroke="#ff0" d="M4 2h1M4 3h2m1 0h1m1 0h1m1 0h1M2 4h1m2 0h1m2 0h1m1 0h1m1 0h1M3 5h1m1 0h2m2 0h1m1 0h1M2 6h1m1 0h1m1 0h1m1 0h1m1 0h1m1 0h1M3 7h1M2 8h1m1 0h1m5 0h1m1 0h1M3 9h1m1 0h1m5 0h1m-8 1h1m1 0h1m1 0h1m1 0h1m1 0h1"/><path stroke="#fff" d="M2 3h1m5 0h1m1 0h1m1 0h1M2 5h1M2 7h1M2 9h1m-1 1h1"/><path stroke="silver" d="M3 4h1m3 0h1m1 0h1m1 0h1M8 5h1m1 0h1m1 0h1M3 6h1m5 0h1m1 0h1M4 7h1m7 0h1M3 8h1m1 0h1m3 0h1m1 0h1M4 9h1m7 0h1M3 10h1m1 0h1m1 0h1m1 0h1m1 0h1"/><path stroke="red" d="M6 7h2M7 8h1"/></svg>