<svg xmlns="http://www.w3.org/2000/svg" width="32" height="32" shape-rendering="crispEdges" viewBox="0 -0.5 32 32"><path stroke="gray" d="M8 4h6M6 5h2m6 0h2M4 6h2m10 0h3m9 0h4M3 7h1m14 0h2m6 0h2M2 8h1m16 0h1m5 0h1M2 9h1m20 0h2M1 10h1m18 0h3m5 0h4M1 11h1m24 0h2M0 12h1m20 0h1m3 0h1M0 13h1m20 0h1m1 0h2M0 14h1m20 0h2m5 0h4M0 15h1m25 0h2M0 16h1m20 0h1m3 0h1M0 17h1m20 0h1m1 0h2M1 18h1m19 0h2m5 0h4M1 19h1m24 0h2M2 20h1m16 0h1m5 0h1M2 21h1m16 0h1m3 0h2M2 22h2m16 0h3M3 23h3m10 0h2M6 24h2m6 0h2m-8 1h6"/><path stroke="#fff" d="M8 5h6M6 6h10M4 7h3m8 0h3M3 8h4m10 0h2M3 9h4m11 0h2M2 10h5m11 0h2M2 11h12m5 0h1M1 12h9m1 0h4m4 0h2M1 13h8m2 0h4m4 0h2M1 14h7m3 0h4m4 0h2M1 15h6m4 0h3m5 0h2M1 16h5m12 0h3M1 17h4m13 0h3M2 18h3m12 0h3M2 19h4m10 0h4M3 20h4m4 0h8M3 21h5m3 0h8M4 22h5m2 0h7M6 23h4m1 0h5m-8 1h6"/><path stroke="maroon" d="M7 7h8M7 8h1m7 0h2M7 9h1m9 0h1M7 10h1m9 0h1m-9 3h1m5 0h1m-8 1h1m6 0h1m-9 1h1m6 0h1m-9 1h1m4 0h3m-9 1h1"/><path stroke="#000" d="M28 7h4M20 8h1m5 0h2m-8 1h1m4 0h1M8 10h6m9 0h2m-11 1h1m3 0h1m2 0h2m5 0h4m-22 1h1m4 0h1m2 0h1m3 0h1m3 0h2m-18 1h1m7 0h1m3 0h1m2 0h1m-16 1h1m7 0h1m4 0h2m-15 1h1m7 0h1m2 0h2m5 0h4m-22 1h1m6 0h1m4 0h1m3 0h2m-11 1h1m4 0h1m2 0h1M5 18h1m10 0h1m6 0h2M6 19h1m3 0h6m4 0h3m5 0h4M7 20h1m2 0h1m9 0h2m4 0h2M8 21h1m1 0h1m9 0h1m4 0h1M9 22h2m7 0h2m3 0h2m-15 1h1m7 0h1m1 0h3M4 24h2m10 0h2M6 25h2m6 0h2m-8 1h6"/><path stroke="red" d="M8 8h7M8 9h9m-3 1h3m-2 1h3m-2 1h2m-2 1h2m-9 1h1m6 0h2M8 15h2m5 0h3M7 16h3m4 0h3M6 17h11M6 18h10m-9 1h3m-2 1h2m-1 1h1"/><path stroke="silver" d="M20 11h1m-1 7h1"/></svg>