<svg xmlns="http://www.w3.org/2000/svg" width="16" height="16" shape-rendering="crispEdges" viewBox="0 -0.5 16 16"><path stroke="olive" d="M5 1h10M5 2h1m8 0h1m-1 1h1m-1 1h1m-1 1h1m-1 1h1m-1 1h1m-1 1h1M5 9h1m8 0h1M4 10h1m8 0h2M4 11h1m8 0h1M3 12h1m7 0h2M3 13h3m2 0h3"/><path stroke="#fff" d="M6 2h1m1 0h1m1 0h1m1 0h1M7 3h1m1 0h1m1 0h1m1 0h1M8 4h1m1 0h1m1 0h1m-2 1h1m1 0h1M8 6h1m1 0h1m1 0h1M9 7h1m1 0h1m1 0h1M8 8h1m1 0h1m1 0h1M7 9h1m3 0h1m1 0h1m-8 1h1m1 0h1m-4 1h1m1 0h1m-4 1h1m1 0h1"/><path stroke="#ff0" d="M7 2h1m1 0h1m1 0h1m1 0h1M8 3h1m1 0h1m1 0h1M9 4h1m1 0h1m1 0h1m-4 1h1m1 0h1M9 6h1m1 0h1m1 0h1M8 7h1m1 0h1m1 0h1M7 8h1m1 0h1m1 0h1m1 0h1M6 9h1m1 0h1m3 0h1m-8 1h1m1 0h1m-2 1h1m3 0h1m1 0h1m-8 1h1m3 0h1"/><path stroke="#000" d="M15 2h1M1 3h2m2 0h2m8 0h1M0 4h1m2 0h2m2 0h1m7 0h1M0 5h1m2 0h1m1 0h1m1 0h3m5 0h1M0 6h1m2 0h3m1 0h1m7 0h1M1 7h2m1 0h1m1 0h2m7 0h1M4 8h3m8 0h1M9 9h2m4 0h1m-7 1h1m1 0h2m2 0h1m-8 1h2m4 0h1m-8 1h2m4 0h1m-8 1h2m3 0h2m-9 1h7"/><path stroke="#0ff" d="M1 4h2m2 0h2M1 5h1m2 0h1"/><path stroke="teal" d="M2 5h1m3 0h1M1 6h2m3 0h1M5 7h1"/><path stroke="silver" d="M10 10h1m0 1h1m-2 1h1"/></svg>