<svg xmlns="http://www.w3.org/2000/svg" width="32" height="32" shape-rendering="crispEdges" viewBox="0 -0.5 32 32"><path stroke="gray" d="M11 0h19M11 1h1m-1 1h1m-1 1h1m-1 1h1m-1 1h1m-1 1h1m-1 1h1m8 8h1M9 17h1m1 1h1m-5 1h1m5 0h1m-5 1h1m1 1h1M2 26h1m1 1h1m1 1h1m1 1h1m1 1h1"/><path stroke="#000" d="M30 0h1m-1 1h1m-1 1h1m-1 1h1m-1 1h1m-1 1h1m-1 1h1m-1 1h1M8 8h5m17 0h1M6 9h2m5 0h3m14 0h1M5 10h1m10 0h2m12 0h1M4 11h1m5 0h2m6 0h13M3 12h2m4 0h1m2 0h1m7 0h2M3 13h1m1 0h2m1 0h2m3 0h1m3 0h1m4 0h2M3 14h1m3 0h1m5 0h1m2 0h1m1 0h1m5 0h1M4 15h1m1 0h1m8 0h2m2 0h1m5 0h1M5 16h1m4 0h1m5 0h1m2 0h1m6 0h1M4 17h1m7 0h1m6 0h1m7 0h1M3 18h1m4 0h1m5 0h1m4 0h1m7 0h1M2 19h1m7 0h1m8 0h1m7 0h1M1 20h1m4 0h1m5 0h1m6 0h2m6 0h1M0 21h1m7 0h1m10 0h1m1 0h1m4 0h2M0 22h1m9 0h1m8 0h1m2 0h4m1 0h1M0 23h1m19 0h1m6 0h1M0 24h1m19 0h2m4 0h1M0 25h1m20 0h5M0 26h2m20 0h2M2 27h2m16 0h2M4 28h2m11 0h3M6 29h2m7 0h2m-9 1h2m3 0h2m-5 1h3"/><path stroke="#fff" d="M12 1h14M12 2h1m5 0h8M12 3h14M12 4h1m4 0h9M12 5h17M12 6h6m7 0h4M12 7h17M13 8h5m6 0h5M9 9h1m1 0h1m4 0h13M7 10h1m1 0h4m1 0h1m-9 1h1m1 0h1m4 0h3m0 1h3m-9 1h1m8 0h1m1 0h1M9 14h1m1 0h1m5 0h1m2 0h1m1 0h1M8 15h1m1 0h1m1 0h1m1 0h1m6 0h1m1 0h1M7 16h1m3 0h1m1 0h1m1 0h1m1 0h1m3 0h2m2 0h1M6 17h1m1 0h1m5 0h1m1 0h1m5 0h3M5 18h1m9 0h1m1 0h1m3 0h1m1 0h1M4 19h1m1 0h1m7 0h1m1 0h1m5 0h1M3 20h1m9 0h1m1 0h1m5 0h1m1 0h1M2 21h1m1 0h1m1 0h1m5 0h1m1 0h1m7 0h1M1 22h1m1 0h1m1 0h1m1 0h1m3 0h1m1 0h1M1 23h2m3 0h1m1 0h1m1 0h1m1 0h1M1 24h1m1 0h1m3 0h1m1 0h1m1 0h1M1 25h2m1 0h1m1 0h1m3 0h1m-8 1h1m1 0h1m1 0h1m-2 1h1m1 0h1m1 0h1m-4 1h1m1 0h1m0 1h1"/><path stroke="silver" d="M26 1h4m-1 1h1m-1 1h1m-1 1h1m-1 1h1m-1 1h1m-1 1h1m-1 1h1M8 9h1m20 0h1m-12 1h12M8 14h1m-2 1h1m-2 1h1m-2 1h1m-2 1h1m19 0h2M3 19h1m14 0h1M2 20h1m14 0h1M1 21h1m14 0h1M2 22h1m12 0h1M3 23h2m9 0h1M5 24h2m6 0h1m-7 1h2m3 0h1m-4 1h3"/><path stroke="#00f" d="M13 2h5m-5 2h4m1 2h7m-7 2h6"/><path stroke="red" d="M26 2h1m1 0h1m-3 2h1m1 0h1"/><path stroke="maroon" d="M27 2h1m-2 1h3m-2 1h1"/><path stroke="#ff0" d="M10 9h1m1 0h1m-7 1h1m1 0h1m4 0h1m1 0h1M5 11h1m1 0h1m1 0h1m2 0h1m3 0h2M6 12h1m3 0h1m3 0h2m3 0h1m-9 1h1m3 0h2m3 0h1M4 14h2m4 0h1m10 0h1m1 0h1M9 15h1m1 0h1m1 0h1m3 0h1m4 0h1M8 16h1m3 0h1m1 0h1m8 0h2M7 17h1m2 0h1m2 0h1m1 0h1m1 0h1m3 0h1m3 0h1M6 18h1m2 0h2m1 0h1m3 0h1m1 0h1m3 0h1M5 19h1m2 0h1m2 0h2m2 0h1m1 0h1m3 0h1m1 0h1M4 20h1m2 0h2m1 0h1m3 0h1m1 0h1m5 0h1M3 21h1m1 0h1m3 0h2m2 0h1m1 0h1m4 0h1m2 0h1M4 22h1m1 0h1m1 0h1m3 0h1m1 0h1m6 0h1M5 23h1m1 0h1m1 0h1m1 0h1m1 0h1m7 0h3M2 24h1m1 0h1m3 0h1m1 0h1m1 0h1m9 0h2M3 25h1m1 0h1m3 0h1m1 0h1m-8 1h1m1 0h1m1 0h1m-4 1h1m1 0h1m1 0h1m-2 1h1m1 0h1m-2 1h1"/><path stroke="olive" d="M5 12h1m1 0h2m2 0h1m1 0h1M4 13h1m2 0h1m4 0h1m1 0h1m3 0h1M6 14h1m5 0h1m1 0h2m3 0h1M5 15h1m12 0h1m5 0h1M9 16h1m8 0h1m1 0h1m-10 1h1m6 0h1m1 0h1m5 0h1M7 18h1m5 0h1m6 0h1m5 0h1M9 19h1m10 0h1m3 0h3M5 20h1m5 0h1m6 0h1m5 0h3M7 21h1m9 0h2m5 0h2M9 22h1m6 0h3m1 0h1m5 0h1m-12 1h5m4 0h3m-13 1h6m4 0h2m-13 1h8m-9 1h10m-11 1h9m-9 1h6m-6 1h4m-4 1h2"/></svg>