<svg xmlns="http://www.w3.org/2000/svg" width="32" height="32" shape-rendering="crispEdges" viewBox="0 -0.5 32 32"><path stroke="gray" d="M8 4h6M6 5h2m6 0h2M4 6h2m10 0h3m9 0h4M3 7h1m14 0h2m6 0h2M2 8h1m16 0h1m5 0h1M2 9h1m20 0h2M1 10h1m18 0h3m5 0h4M1 11h1m24 0h2M0 12h1m20 0h1m3 0h1M0 13h1m20 0h1m1 0h2M0 14h1m20 0h2m5 0h4M0 15h1m25 0h2M0 16h1m20 0h1m3 0h1M0 17h1m20 0h1m1 0h2M1 18h1m19 0h2m5 0h4M1 19h1m24 0h2M2 20h1m16 0h1m5 0h1M2 21h1m16 0h1m3 0h2M2 22h2m16 0h3M3 23h3m10 0h2M6 24h2m6 0h2m-8 1h6"/><path stroke="#fff" d="M8 5h6M6 6h10M4 7h14M3 8h1m3 0h9m2 0h1M3 9h1m5 0h6m4 0h1M2 10h2m6 0h4m5 0h1M2 11h2m7 0h2m5 0h3M1 12h5m10 0h5M1 13h7m7 0h6M1 14h8m6 0h6M1 15h7m7 0h6M1 16h6m9 0h5M1 17h5m5 0h2m4 0h4M2 18h3m5 0h4m3 0h3M2 19h3m5 0h5m3 0h2M3 20h2m4 0h7m2 0h1M3 21h16M4 22h14M6 23h10m-8 1h6"/><path stroke="#000" d="M28 7h4M20 8h1m5 0h2m-8 1h1m4 0h1m-9 1h2m4 0h2M4 11h2m10 0h2m3 0h2m5 0h4M6 12h2m7 0h1m6 0h1m3 0h2M8 13h2m4 0h1m7 0h1m2 0h1m-3 1h2m-4 1h2m5 0h4m-21 1h2m9 0h1m3 0h2m-18 1h1m2 0h1m8 0h1m2 0h1M9 18h1m4 0h1m8 0h2M9 19h1m5 0h1m4 0h3m5 0h4M5 20h4m7 0h1m3 0h2m4 0h2m-8 1h1m4 0h1m-8 1h2m3 0h2m-7 1h1m1 0h3M4 24h2m10 0h2M6 25h2m6 0h2m-8 1h6"/><path stroke="maroon" d="M4 8h3m9 0h2M4 9h1m2 0h2m6 0h1m2 0h1M4 10h1m4 0h1m4 0h1m-5 1h1m2 0h1m-3 1h2m-4 2h1m3 0h1m-6 1h1m5 0h1m-8 1h1m7 0h1M6 17h1m9 0h1M5 18h1m10 0h1M5 19h1m11 0h1m-1 1h1"/><path stroke="red" d="M5 9h2m9 0h2M5 10h4m6 0h2M6 11h4m4 0h2m-8 1h3m2 0h2m-5 1h4m-4 1h3m-4 1h5m-6 1h3m2 0h2m-8 1h3m4 0h2M6 18h3m6 0h1M6 19h3m7 0h1"/><path stroke="silver" d="M14 14h1m5 4h1"/></svg>