<svg xmlns="http://www.w3.org/2000/svg" viewBox="0 -0.5 16 16" shape-rendering="crispEdges">
<path stroke="#808080" d="M0 0h1M3 0h1M3 1h1M3 2h1M7 2h1M0 3h1M3 3h1M6 3h1M1 4h1M3 4h1M5 4h1M2 5h1M0 6h3M5 6h5M3 7h1M5 7h1M2 8h2M6 8h1M1 9h1M3 9h1M3 10h1" />
<path stroke="#ffff00" d="M0 0h1M4 0h1M0 2h1M4 2h1M1 3h1M7 3h1M2 4h1M4 4h1M6 4h1M1 5h1M3 5h1M5 5h1M7 5h1M9 5h1M4 6h1M2 7h1M6 7h1M1 8h1M4 8h1M7 8h1M0 9h1M4 10h1" />
<path stroke="#ffffff" d="M0 0h1M4 1h1M4 3h1M0 5h1M4 5h1M6 5h1M8 5h1M3 6h1M4 7h1M7 7h6M5 8h1M8 8h5M4 9h11M5 10h1M12 10h3M4 11h11M4 12h2M12 12h3M4 13h11" />
<path stroke="#000000" d="M0 0h1M10 6h6M15 7h1M15 8h1M15 9h1M15 10h1M3 11h1M15 11h1M3 12h1M15 12h1M3 13h1M15 13h1M3 14h13" />
<path stroke="#800000" d="M0 0h1M13 7h1M14 8h1" />
<path stroke="#ff0000" d="M0 0h1M14 7h1M13 8h1" />
<path stroke="#0000ff" d="M0 0h1M6 10h6M6 12h6" />
</svg>