<svg xmlns="http://www.w3.org/2000/svg" width="16" height="16" shape-rendering="crispEdges" viewBox="0 -0.5 16 16"><path stroke="gray" d="M2 2h4m3 0h4M0 3h3m3 0h1m1 0h1M0 4h1m1 0h1M0 5h1m1 0h1M0 6h1m1 0h1M0 7h1m1 0h1M0 8h1m1 0h1M0 9h1m1 0h1m-3 1h1m1 0h1m-3 1h1m-1 1h1"/><path stroke="#fff" d="M3 3h3m3 0h3M1 4h1m1 0h1m2 0h1m1 0h4M1 5h1m1 0h3m2 0h1m2 0h1M1 6h1m1 0h1m2 0h1m2 0h3m1 0h1M1 7h1m1 0h3m2 0h1m2 0h1M1 8h1m1 0h4m2 0h3M1 9h1m1 0h1m2 0h1m1 0h4M1 10h1m1 0h3m2 0h4M1 11h1m4 0h1m1 0h1m-8 1h5m3 0h5"/><path stroke="#000" d="M12 3h3M4 4h2m1 0h1m4 0h1m1 0h1M6 5h2m1 0h2m1 0h3M4 6h2m1 0h2m3 0h1m1 0h1M6 7h2m1 0h2m1 0h3M7 8h2m3 0h1m1 0h1M4 9h2m1 0h1m4 0h3m-9 1h2m4 0h1m1 0h1M2 11h4m1 0h1m1 0h6m-9 1h3m5 0h1M0 13h15"/><path stroke="#0f0" d="M13 4h1"/><path stroke="#ff0" d="M13 8h1"/><path stroke="#0ff" d="M13 10h1"/></svg>