<svg xmlns="http://www.w3.org/2000/svg" width="16" height="16" shape-rendering="crispEdges" viewBox="0 -0.5 16 16"><path stroke="gray" d="M5 0h4M4 1h1m4 0h4M3 2h4M2 3h1m4 0h4M2 4h1M2 5h1M2 6h1M1 7h2m11 0h1M0 8h12m1 0h2M0 9h1m11 0h3M0 10h1m11 0h3M0 11h1m11 0h3M0 12h1m11 0h2M0 13h1m11 0h1"/><path stroke="#ff0" d="M5 1h1m1 0h1m0 1h1m1 0h1m1 0h1M3 3h1m1 0h1m7 0h1M5 5h1m1 0h1m1 0h1m1 0h1m1 0h1M4 6h1m1 0h1m1 0h1m1 0h1M5 7h1m1 0h1m1 0h1m1 0h1"/><path stroke="silver" d="M6 1h1m1 0h1M7 2h1m1 0h1m1 0h1m1 0h1M4 3h1m1 0h1m6 1h1M4 5h1m1 0h1m1 0h1m1 0h1M5 6h1m1 0h1m1 0h1m1 0h1m1 0h1M4 7h1m1 0h1m1 0h1m1 0h1m-9 3h1m1 0h1m1 0h1m1 0h1m1 0h1m-8 1h1m1 0h1m1 0h1m1 0h1m1 0h1M2 12h1m1 0h1m1 0h1m1 0h1m1 0h1m-9 1h10"/><path stroke="#000" d="M13 1h1m0 1h1m-4 1h2m1 0h1m-3 1h1m1 0h1m-3 1h1m1 0h2m-4 1h1m1 0h2m-4 1h2m1 0h1m-4 1h1m2 0h1m-1 1h1m-1 1h1m-1 1h1m-2 1h1m-2 1h1M1 14h12"/><path stroke="#fff" d="M3 4h9M3 5h1M3 6h1M3 7h1M1 9h11M1 10h1m1 0h1m1 0h1m1 0h1m1 0h1m1 0h1M1 11h2m1 0h1m1 0h1m1 0h1m1 0h1M1 12h1m1 0h1m1 0h1m1 0h1m1 0h1m1 0h1M1 13h1"/></svg>