<svg xmlns="http://www.w3.org/2000/svg" width="16" height="16" shape-rendering="crispEdges" viewBox="0 -0.5 16 16"><path stroke="gray" d="M6 0h9M6 1h1m2 4h1M3 7h1m1 1h1m8 0h1M4 10h1m7 0h1"/><path stroke="#000" d="M15 0h1m-1 1h1M4 2h4m7 0h1M3 3h1m4 0h2m5 0h1M2 4h1m7 0h2m3 0h1M1 5h1m1 0h1m2 0h2m4 0h4M1 6h2m11 0h1M2 7h1m2 0h1m4 0h2m3 0h1M1 8h1m2 0h1m2 0h1m7 0h1M0 9h1m2 0h1m2 0h1m4 0h1m3 0h1M0 10h1m4 0h1m5 0h1m2 0h2M0 11h1m10 0h4M0 12h1m11 0h3M1 13h2m8 0h2M3 14h2m4 0h2m-6 1h4"/><path stroke="#fff" d="M7 1h6M8 2h5M5 3h1m1 0h1m5 0h1M6 4h1m1 0h1m1 1h1M7 6h1m4 0h1M4 7h1m3 0h1m4 0h1M3 8h1m8 0h1M1 9h1m5 0h1m-5 1h1m4 0h1m-4 1h1m1 0h1m-7 1h1m1 0h1m1 1h1"/><path stroke="red" d="M13 1h1m-1 1h1"/><path stroke="silver" d="M14 1h1m-1 1h1m-1 1h1M4 4h1m7 0h3M5 5h1M4 6h1m1 1h2m1 0h1M2 8h1m7 0h1m2 0h1M4 9h1m4 0h1m3 0h1M1 10h1m4 0h1m-5 1h2m0 1h3"/><path stroke="#ff0" d="M4 3h1m1 0h1M3 4h1m3 0h1m1 0h1M2 5h1m8 0h1M5 6h2m6 0h1m-2 1h1m1 0h1M6 8h1m1 0h2M2 9h1m2 0h1m2 0h1m3 0h1M2 10h1m4 0h1m-7 1h1m2 0h1m1 0h1m-5 1h1m0 1h2m0 1h1"/><path stroke="#00f" d="M10 3h3"/><path stroke="olive" d="M5 4h1M4 5h1m3 0h1M3 6h1m4 0h4m-1 2h1m-2 1h1m3 0h1m-6 1h2m2 0h1m-6 1h3m-4 1h5m-6 1h5m-5 1h3"/></svg>