<svg xmlns="http://www.w3.org/2000/svg" viewBox="0 -0.5 16 16" shape-rendering="crispEdges">
<path stroke="#808080" d="M0 0h12M1 1h1M1 2h1M1 3h1M1 4h1M1 5h1M4 5h11M1 6h1M4 6h2M3 7h1M2 8h1M2 9h1M2 10h1M3 11h1M8 11h2M4 12h1M7 12h1" />
<path stroke="#000000" d="M0 0h1M12 0h1M12 1h1M12 2h1M12 3h1M12 4h1M15 5h1M6 6h1M15 6h1M1 7h2M7 7h1M15 7h1M8 8h1M15 8h1M8 9h1M15 9h1M8 10h1M15 10h1M7 11h1M10 11h6M5 12h2M11 12h1M12 13h1M13 14h1M13 15h1" />
<path stroke="#0000ff" d="M0 0h1M2 1h2M5 3h5M10 8h3M9 12h2M10 13h2M11 14h2M12 15h1" />
<path stroke="#ffffff" d="M0 0h1M4 1h6M2 2h8M2 3h3M10 3h1M2 4h9M2 5h2M8 6h5M4 7h1M6 7h1M9 7h4M3 8h1M5 8h1M13 8h1M4 9h1M10 9h4M3 10h1" />
<path stroke="#ff0000" d="M0 0h1M10 1h1M10 2h1M13 6h1M13 7h1" />
<path stroke="#c0c0c0" d="M0 0h1M11 1h1M11 2h1M11 3h1M11 4h1M2 6h2M7 6h1M14 6h1M8 7h1M14 7h1M7 8h1M9 8h1M14 8h1M6 9h1M9 9h1M14 9h1M5 10h1M7 10h1M9 10h6M4 11h1M6 11h1M8 12h1" />
<path stroke="#00ffff" d="M0 0h1M5 7h1M4 8h1M6 8h1M3 9h1M5 9h1M7 9h1M4 10h1M6 10h1M5 11h1M9 13h1M10 14h1M11 15h1" />
<path stroke="#000080" d="M0 0h1M8 13h1M9 14h1M10 15h1" />
</svg>