<svg xmlns="http://www.w3.org/2000/svg" width="32" height="32" shape-rendering="crispEdges" viewBox="0 -0.5 32 32"><path stroke="olive" d="M8 4h23M8 5h1m21 0h1M8 6h1m21 0h1m-1 1h1m-2 2h1m-14 1h1m12 0h1m-1 1h1m-14 1h1m1 0h1m10 0h1m-15 1h1m1 0h1m-2 1h1m1 0h1m9 0h1M7 15h1m7 0h1m1 0h1m10 0h1M7 16h1m6 0h1m1 0h1M7 17h1m5 0h1m1 0h1m-9 1h1m19 0h1M6 19h1m12 0h1m7 0h1M6 20h1m11 0h1m1 0h1M6 21h1m10 0h1m1 0h1m1 0h1m4 0h1M5 22h1m10 0h1m1 0h1m1 0h1m1 0h1M4 23h1m10 0h1m1 0h1m1 0h1m1 0h1m1 0h1m1 0h1M3 24h1m10 0h1m1 0h1m1 0h1m1 0h1m1 0h1M2 25h1m10 0h1m1 0h1m1 0h1m1 0h1M1 26h1m8 0h1m1 0h1m1 0h1M0 27h1"/><path stroke="#000" d="M31 4h1m-1 1h1m-1 1h1m-1 1h1M14 8h1m15 0h1M7 9h3m4 0h1m15 0h1M6 10h1m3 0h1m3 0h1m15 0h1M6 11h1m3 0h1m3 0h4m12 0h1M6 12h1m3 0h1m3 0h1m15 0h1M6 13h4m4 0h1m14 0h1M5 14h1m1 0h1m6 0h1m14 0h1M2 15h3m3 0h1m4 0h1m15 0h1M9 16h4m15 0h2m-2 1h2m-12 1h2m8 0h1m-12 1h1m2 0h1m7 0h1m-13 1h1m4 0h1m5 0h1m-13 1h1m6 0h2m3 0h1m-14 1h1m9 0h4m-15 1h1m12 0h1m-15 1h1m11 0h2m-16 1h2m9 0h3M8 26h2m5 0h6M5 27h10M0 28h5"/><path stroke="#ff0" d="M9 5h1m1 0h1m1 0h1m1 0h1m1 0h1m1 0h1m1 0h1m1 0h1m1 0h1m1 0h1m1 0h1M14 6h1m1 0h1m1 0h1m1 0h1m1 0h1m1 0h1m1 0h1m1 0h1M15 7h1m1 0h1m1 0h1m1 0h1m1 0h1m1 0h1m1 0h1m1 0h1M16 8h1m1 0h1m1 0h1m1 0h1m1 0h1m1 0h1m1 0h1M15 9h1m1 0h1m1 0h1m1 0h1m1 0h1m1 0h1m1 0h1m-10 1h1m1 0h1m1 0h1m1 0h1m1 0h1m1 0h1m-10 1h1m1 0h1m1 0h1m1 0h1m1 0h1m-8 1h1m1 0h1m1 0h1m1 0h1m1 0h1m-10 1h1m1 0h1m1 0h1m1 0h1m1 0h1m-8 1h1m1 0h1m1 0h1m1 0h1m-8 1h1m1 0h1m1 0h1m1 0h1m1 0h1M8 16h1m9 0h1m1 0h1m1 0h1m1 0h1m1 0h1M9 17h1m1 0h1m5 0h1m1 0h1m1 0h1m1 0h1m1 0h1m1 0h1M8 18h1m1 0h1m1 0h1m1 0h1m1 0h1m3 0h1m1 0h1m1 0h1m1 0h1M7 19h1m1 0h1m1 0h1m1 0h1m1 0h1m7 0h1m1 0h1M8 20h1m1 0h1m1 0h1m1 0h1m7 0h1m1 0h1m1 0h1M7 21h1m1 0h1m1 0h1m1 0h1m11 0h1M6 22h1m1 0h1m1 0h1m1 0h1m-8 1h1m1 0h1m1 0h1m1 0h1m-8 1h1m1 0h1m1 0h1m1 0h1m-8 1h1m1 0h1m1 0h1m1 0h1m-8 1h1m1 0h1m1 0h1m-6 1h3"/><path stroke="#fff" d="M10 5h1m1 0h1m1 0h1m1 0h1m1 0h1m1 0h1m1 0h1m1 0h1m1 0h1m1 0h1M13 6h1m1 0h1m1 0h1m1 0h1m1 0h1m1 0h1m1 0h1m1 0h1m1 0h1M14 7h1m1 0h1m1 0h1m1 0h1m1 0h1m1 0h1m1 0h1m1 0h1M15 8h1m1 0h1m1 0h1m1 0h1m1 0h1m1 0h1m1 0h1m1 0h1M16 9h1m1 0h1m1 0h1m1 0h1m1 0h1m1 0h1m1 0h1m-12 1h1m1 0h1m1 0h1m1 0h1m1 0h1m1 0h1m-10 1h1m1 0h1m1 0h1m1 0h1m1 0h1m1 0h1m-10 1h1m1 0h1m1 0h1m1 0h1m1 0h1m-10 1h1m1 0h1m1 0h1m1 0h1m1 0h1m1 0h1m-10 1h1m1 0h1m1 0h1m1 0h1m1 0h1m-10 1h1m1 0h1m1 0h1m1 0h1m1 0h1m-10 1h1m1 0h1m1 0h1m1 0h1m1 0h1m1 0h1M8 17h1m1 0h1m1 0h1m1 0h1m1 0h1m1 0h1m1 0h1m1 0h1m1 0h1m1 0h1M9 18h1m1 0h1m1 0h1m1 0h1m1 0h1m3 0h1m1 0h1m1 0h1M8 19h1m1 0h1m1 0h1m1 0h1m1 0h1m4 0h2m1 0h1m1 0h1M7 20h1m1 0h1m1 0h1m1 0h1m1 0h1m7 0h1m1 0h1M8 21h1m1 0h1m1 0h1m1 0h1m9 0h1M7 22h1m1 0h1m1 0h1m1 0h1m-8 1h1m1 0h1m1 0h1m1 0h1m-8 1h1m1 0h1m1 0h1m1 0h1m-8 1h1m1 0h1m1 0h1m-6 1h1m1 0h1m1 0h1m-4 1h1"/><path stroke="navy" d="M9 6h4M2 7h3m2 0h2m4 0h1M1 8h1m3 0h1m1 0h1M0 9h1m5 0h1m-7 1h1m-1 1h1m-1 1h1m-1 1h1m0 1h1"/><path stroke="#0ff" d="M9 7h2M3 8h1m7 0h1M4 9h1m7 0h1m-9 1h1m3 0h2m2 0h1m-9 1h1m7 0h1m-9 1h1m7 0h1m-9 1h1m7 0h1m-2 1h1"/><path stroke="teal" d="M11 7h2M2 8h1m1 0h1m3 0h3m1 0h2M1 9h3m1 0h1m4 0h2m1 0h1M1 10h3m1 0h1m1 0h1m3 0h1m1 0h1M1 11h3m1 0h1m1 0h3m1 0h1m1 0h1M1 12h3m1 0h1m1 0h3m1 0h1m1 0h1M1 13h3m1 0h1m4 0h2m1 0h1M2 14h3m3 0h3m1 0h2m-5 1h4"/><path stroke="silver" d="M15 10h1m-1 2h1m1 0h1m-2 1h1m-2 1h1m1 0h1m-4 1h1m1 0h1m-4 1h1m1 0h1m2 3h1m-2 1h1m1 0h1m-4 1h1m1 0h1m1 0h1m-6 1h1m1 0h1m1 0h1m1 0h1m1 0h1m-10 1h1m1 0h1m1 0h1m1 0h1m1 0h1m1 0h1m-12 1h1m1 0h1m1 0h1m1 0h1m1 0h1m1 0h1m-12 1h1m1 0h1m1 0h1m1 0h1m1 0h1m-10 1h1m1 0h1"/></svg>