<svg xmlns="http://www.w3.org/2000/svg" viewBox="0 -0.5 16 16" shape-rendering="crispEdges">
<path stroke="#808080" d="M0 0h1M6 0h5M4 1h2M11 1h2M3 2h1M13 2h1M2 3h1M2 4h1M1 5h1M5 5h4M1 6h1M3 6h2M9 6h2M1 7h2M5 7h1M11 7h2M0 8h1M3 8h3M7 8h1M0 9h1M6 9h1M8 9h1M12 9h1M0 10h1M6 10h2M10 10h3M0 11h1M8 11h5M8 12h5M8 13h4M8 14h2" />
<path stroke="#c0c0c0" d="M0 0h1M6 1h1M8 1h1M5 2h2M4 3h1M3 4h1M2 5h2M7 7h2M8 8h3M1 9h1M9 9h1M1 10h3M1 11h5M2 12h6M4 13h4M6 14h2" />
<path stroke="#ffffff" d="M0 0h1M7 1h1M4 2h1M3 3h1M4 4h1M2 6h1M5 6h1M7 6h2M3 7h2M9 7h2M1 8h2M11 8h2M2 9h2M10 9h2M4 10h2M8 10h2M6 11h2" />
<path stroke="#008080" d="M0 0h1M9 1h2M5 3h1M11 4h1M4 5h1M11 5h1M14 6h1" />
<path stroke="#0000ff" d="M0 0h1M7 2h1M7 4h3M9 5h2M14 5h1M11 6h3M13 7h1" />
<path stroke="#008000" d="M0 0h1M8 2h5M6 3h8M5 4h2M10 4h1M12 4h2M12 5h2" />
<path stroke="#000000" d="M0 0h1M14 3h1M14 4h1M15 5h1M6 6h1M15 6h1M6 7h1M15 7h1M6 8h1M13 8h1M15 8h1M4 9h2M7 9h1M13 9h1M15 9h1M13 10h1M15 10h1M13 11h2M0 12h2M13 12h2M2 13h2M12 13h2M4 14h2M10 14h2M6 15h4" />
<path stroke="#000080" d="M0 0h1M14 7h1M14 8h1M14 9h1M14 10h1" />
</svg>