<svg xmlns="http://www.w3.org/2000/svg" viewBox="0 -0.5 16 16" shape-rendering="crispEdges">
<path stroke="#808080" d="M0 0h1M3 2h4M2 3h1M7 3h1M1 4h1M8 4h1M0 5h1M9 5h1M0 6h1M9 6h1M0 7h1M9 7h1M0 8h1M9 8h1M1 9h1M8 9h1M10 9h1M2 10h1M7 10h1M3 11h4" />
<path stroke="#c0c0c0" d="M0 0h1M7 2h1M0 9h1M9 10h1M8 11h1M7 12h1" />
<path stroke="#000000" d="M0 0h1M15 2h1M8 3h1M13 3h2M9 4h1M11 4h2M15 4h1M10 5h1M13 5h2M10 6h3M15 6h1M10 7h1M13 7h2M10 8h3M15 8h1M9 9h1M13 9h2M1 10h1M8 10h1M11 10h2M2 11h1M7 11h1M3 12h4" />
<path stroke="#ffffff" d="M0 0h1M3 3h4M4 4h2M1 5h2M7 5h2M1 6h3M6 6h3M1 7h2M7 7h2M1 8h1M4 8h2M7 8h2M4 9h3M3 10h4" />
<path stroke="#ff0000" d="M0 0h1M2 4h1M6 4h2M3 5h1M6 5h1M4 6h2M3 7h4M2 8h2M6 8h1M2 9h2M7 9h1" />
<path stroke="#800000" d="M0 0h1M3 4h1M4 5h2" />
</svg>