<svg xmlns="http://www.w3.org/2000/svg" viewBox="0 -0.5 16 16" shape-rendering="crispEdges">
<path stroke="#808080" d="M0 0h1M3 1h5M2 2h1M8 2h1M1 3h1M9 3h6M1 4h1M14 4h1M1 5h1M14 5h1M0 6h13M14 6h1M0 7h1M11 7h1M14 7h1M0 8h1M13 8h2M1 9h1M12 9h1M14 9h1M1 10h1M14 10h1M2 11h1M13 11h1M2 12h4M7 12h1M9 12h1M11 12h3" />
<path stroke="#ffffff" d="M0 0h1M3 2h5M2 3h1M8 3h1M2 4h1M9 4h5M2 5h1M1 7h6M8 7h3M1 8h1M2 9h1M2 10h1M3 11h1" />
<path stroke="#c0c0c0" d="M0 0h1M3 3h1M5 3h1M7 3h1M4 4h1M6 4h1M8 4h1M3 5h1M5 5h1M7 5h1M9 5h1M11 5h1M13 5h1M13 7h1M2 8h1M4 8h1M6 8h1M8 8h1M10 8h1M3 9h1M5 9h1M9 9h1M11 9h1M12 10h1M5 11h1M9 11h1M11 11h1" />
<path stroke="#ffff00" d="M0 0h1M4 3h1M6 3h1M3 4h1M5 4h1M7 4h1M4 5h1M6 5h1M8 5h1M10 5h1M12 5h1M13 6h1M3 8h1M11 8h1M4 9h1M10 9h1M3 10h1M7 10h1M11 10h1M4 11h1M6 11h1M10 11h1M12 11h1" />
<path stroke="#000000" d="M0 0h1M15 4h1M15 5h1M15 6h1M12 7h1M15 7h1M12 8h1M15 8h1M13 9h1M15 9h1M13 10h1M15 10h1M14 11h2M14 12h2M3 13h13" />
<path stroke="#0000ff" d="M0 0h1M7 7h1M5 8h1M7 8h1M9 8h1M6 9h3M4 10h3M8 10h3M7 11h2M6 12h1M8 12h1M10 12h1" />
</svg>