<svg xmlns="http://www.w3.org/2000/svg" width="32" height="32" shape-rendering="crispEdges" viewBox="0 -0.5 32 32"><path stroke="gray" d="M4 3h10m3 0h10M2 4h3m9 0h3m9 0h2M0 5h3m1 0h1m9 0h1m11 0h1m2 0h1M0 6h1m1 0h1m1 0h1m9 0h1m11 0h1M0 7h1m1 0h1m1 0h1m9 0h1m11 0h1M0 8h1m1 0h1m1 0h1m9 0h1m11 0h1M0 9h1m1 0h1m1 0h1m9 0h1m11 0h1M0 10h1m1 0h1m1 0h1m9 0h1m11 0h1M0 11h1m1 0h1m1 0h1m9 0h1m11 0h1M0 12h1m1 0h1m1 0h1m9 0h1m11 0h1M0 13h1m1 0h1m1 0h1m9 0h1m11 0h1M0 14h1m1 0h1m1 0h1m9 0h1m11 0h1M0 15h1m1 0h1m1 0h1m9 0h1m11 0h1M0 16h1m1 0h1m1 0h1m9 0h1m11 0h1M0 17h1m1 0h1m1 0h1m9 0h1m11 0h1M0 18h1m1 0h1m1 0h1m9 0h1m11 0h1M0 19h1m1 0h1m1 0h1m9 0h1m11 0h1M0 20h1m1 0h1m1 0h1m9 0h1m11 0h1M0 21h1m1 0h1m1 0h1m9 0h1m11 0h1M0 22h1m1 0h1m1 0h1m9 0h1m11 0h1M0 23h1m1 0h1m1 0h1m9 0h1m11 0h1M0 24h1m1 0h1m1 0h1m9 0h1m11 0h1M0 25h1m1 0h1m1 0h11m2 0h10M0 26h1m13 0h1m1 0h1M0 27h1"/><path stroke="#fff" d="M5 4h9m3 0h9M3 5h1m1 0h9m2 0h10M3 6h1m1 0h1m10 0h1m8 0h1M3 7h1m1 0h9m3 0h9M3 8h1m1 0h1m10 0h1m8 0h1M3 9h1m1 0h9m3 0h9M3 10h1m1 0h1m10 0h1m8 0h1M3 11h1m1 0h9m3 0h9M3 12h1m1 0h1m10 0h1m8 0h1M3 13h1m1 0h9m3 0h9M3 14h1m1 0h9m2 0h1m8 0h1M3 15h1m1 0h1m11 0h9M3 16h1m1 0h9m2 0h1m8 0h1M3 17h1m1 0h1m11 0h9M3 18h1m1 0h9m2 0h10M3 19h1m1 0h1m10 0h1m8 0h1M3 20h1m1 0h9m3 0h9M3 21h1m1 0h9m2 0h1m8 0h1M3 22h1m1 0h9m3 0h9M3 23h1m1 0h9m2 0h10M3 24h1m1 0h9m2 0h10M3 25h1m12 0h1"/><path stroke="#000" d="M28 4h1M15 5h1m12 0h1m1 0h1M15 6h1m15 0h1M15 7h1m15 0h1M15 8h1m15 0h1M15 9h1m12 0h4m-17 1h1m12 0h1m1 0h1m-16 1h1m15 0h1m-17 1h1m15 0h1m-17 1h1m15 0h1m-17 1h1m12 0h4m-17 1h1m12 0h1m1 0h1m-16 1h1m15 0h1m-17 1h1m15 0h1m-17 1h1m15 0h1m-17 1h1m12 0h4m-17 1h1m12 0h1m1 0h1m-16 1h1m15 0h1m-17 1h1m15 0h1m-17 1h1m15 0h1m-17 1h1m12 0h4m-17 1h1m12 0h1m1 0h1M2 26h11m2 0h1m2 0h11m1 0h1m-18 1h5m12 0h1M0 28h13m5 0h13m-18 1h5"/><path stroke="silver" d="M27 5h1M6 6h8m3 0h8m2 0h1M16 7h1m10 0h1M6 8h8m3 0h8m2 0h1M16 9h1m10 0h1M6 10h8m3 0h8m2 0h1m-12 1h1m10 0h1M6 12h8m3 0h8m2 0h1m-12 1h1m10 0h1m-11 1h8m2 0h1M6 15h8m2 0h1m10 0h1m-11 1h8m2 0h1M6 17h8m2 0h1m10 0h1m-1 1h1M6 19h8m3 0h8m2 0h1m-12 1h1m10 0h1m-11 1h8m2 0h1m-12 1h1m10 0h1m-1 1h1m-1 1h1m-1 1h1m-15 1h1m3 0h1"/><path stroke="teal" d="M1 6h1M1 7h1M1 8h1M1 9h1m-1 1h1m27 0h1M1 11h1m-1 1h1m-1 1h1m-1 1h1m-1 1h1m27 0h1M1 16h1m-1 1h1m-1 1h1m-1 1h1m-1 1h1m27 0h1M1 21h1m26 0h3M1 22h1m-1 1h1m-1 1h1m-1 1h1m27 0h1M1 26h1m27 0h1M1 27h12m5 0h12m-17 1h5"/><path stroke="green" d="M28 6h3"/><path stroke="#0f0" d="M28 7h3m-3 1h3"/><path stroke="purple" d="M28 11h3"/><path stroke="#f0f" d="M28 12h3m-3 1h3"/><path stroke="olive" d="M28 16h3"/><path stroke="#ff0" d="M28 17h3m-3 1h3"/><path stroke="#0ff" d="M28 22h3m-3 1h3"/></svg>