<svg xmlns="http://www.w3.org/2000/svg" width="32" height="32" shape-rendering="crispEdges" viewBox="0 -0.5 32 32"><path stroke="#000" d="M3 0h20M3 1h1m18 0h2M3 2h1m18 0h1m1 0h1M3 3h1m18 0h1m2 0h1M3 4h1m18 0h1m3 0h1M3 5h1m18 0h1m4 0h1M3 6h1m18 0h7M3 7h1m24 0h1M3 8h1m24 0h1M3 9h1m24 0h1M3 10h1m24 0h1M3 11h1m24 0h1M3 12h1m24 0h1M3 13h1m24 0h1M3 14h1m24 0h1M3 15h1m24 0h1M3 16h1m24 0h1M3 17h1m24 0h1M3 18h1m24 0h1M3 19h1m24 0h1M3 20h1m24 0h1M3 21h1m24 0h1M3 22h1m24 0h1M3 23h1m24 0h1M3 24h1m24 0h1M3 25h1m24 0h1M3 26h1m24 0h1M3 27h1m24 0h1M3 28h1m24 0h1M3 29h1m24 0h1M3 30h1m24 0h1M3 31h26"/><path stroke="#fff" d="M4 1h18M4 2h18m1 0h1M4 3h18m1 0h2M4 4h18m1 0h3M4 5h18m1 0h4M4 6h18M4 7h24M4 8h24M4 9h24M4 10h24M4 11h24M4 12h24M4 13h24M4 14h24M4 15h24M4 16h24M4 17h24M4 18h24M4 19h24M4 20h24M4 21h24M4 22h24M4 23h24M4 24h24M4 25h24M4 26h24M4 27h24M4 28h24M4 29h24M4 30h24"/></svg>