<svg xmlns="http://www.w3.org/2000/svg" viewBox="0 -0.5 16 16" shape-rendering="crispEdges">
<path stroke="#808080" d="M0 0h1M6 0h9M6 1h1M9 5h1M3 7h1M5 8h1M14 8h1M4 10h1M12 10h1" />
<path stroke="#000000" d="M0 0h1M15 0h1M15 1h1M4 2h4M15 2h1M3 3h1M8 3h2M15 3h1M2 4h1M10 4h2M15 4h1M1 5h1M3 5h1M6 5h2M12 5h4M1 6h2M14 6h1M2 7h1M5 7h1M10 7h2M15 7h1M1 8h1M4 8h1M7 8h1M15 8h1M0 9h1M3 9h1M6 9h1M11 9h1M15 9h1M0 10h1M5 10h1M11 10h1M14 10h2M0 11h1M11 11h4M0 12h1M12 12h3M1 13h2M11 13h2M3 14h2M9 14h2M5 15h4" />
<path stroke="#ffffff" d="M0 0h1M7 1h6M8 2h5M5 3h1M7 3h1M13 3h1M6 4h1M8 4h1M10 5h1M7 6h1M12 6h1M4 7h1M8 7h1M13 7h1M3 8h1M12 8h1M1 9h1M7 9h1M3 10h1M8 10h1M5 11h1M7 11h1M1 12h1M3 12h1M5 13h1" />
<path stroke="#ff0000" d="M0 0h1M13 1h1M13 2h1" />
<path stroke="#c0c0c0" d="M0 0h1M14 1h1M14 2h1M14 3h1M4 4h1M12 4h3M5 5h1M4 6h1M6 7h2M9 7h1M2 8h1M10 8h1M13 8h1M4 9h1M9 9h1M13 9h1M1 10h1M6 10h1M2 11h2M4 12h3" />
<path stroke="#ffff00" d="M0 0h1M4 3h1M6 3h1M3 4h1M7 4h1M9 4h1M2 5h1M11 5h1M5 6h2M13 6h1M12 7h1M14 7h1M6 8h1M8 8h2M2 9h1M5 9h1M8 9h1M12 9h1M2 10h1M7 10h1M1 11h1M4 11h1M6 11h1M2 12h1M3 13h2M5 14h1" />
<path stroke="#0000ff" d="M0 0h1M10 3h3" />
<path stroke="#808000" d="M0 0h1M5 4h1M4 5h1M8 5h1M3 6h1M8 6h4M11 8h1M10 9h1M14 9h1M9 10h2M13 10h1M8 11h3M7 12h5M6 13h5M6 14h3" />
</svg>