<svg xmlns="http://www.w3.org/2000/svg" width="16" height="16" shape-rendering="crispEdges" viewBox="0 -0.5 16 16"><path stroke="gray" d="M1 0h11M1 1h1M1 2h1M1 3h1M1 4h1M1 5h1m2 0h11M1 6h1m2 0h2M3 7h1M2 8h1M2 9h1m-1 1h1m0 1h1m4 0h2m-6 1h1m2 0h1"/><path stroke="#000" d="M12 0h1m-1 1h1m-1 1h1m-1 1h1m-1 1h1m2 1h1M6 6h1m8 0h1M1 7h2m4 0h1m7 0h1M8 8h1m6 0h1M8 9h1m6 0h1m-8 1h1m6 0h1m-9 1h1m2 0h6M5 12h2m4 0h1m0 1h1m0 1h1m-1 1h1"/><path stroke="#00f" d="M2 1h2m1 2h5m0 5h3m-4 4h2m-1 1h2m-1 1h2m-1 1h1"/><path stroke="#fff" d="M4 1h6M2 2h8M2 3h3m5 0h1M2 4h9M2 5h2m4 1h5M4 7h1m1 0h1m2 0h4M3 8h1m1 0h1m7 0h1M4 9h1m5 0h4M3 10h1"/><path stroke="red" d="M10 1h1m-1 1h1m2 4h1m-1 1h1"/><path stroke="silver" d="M11 1h1m-1 1h1m-1 1h1m-1 1h1M2 6h2m3 0h1m6 0h1M8 7h1m5 0h1M7 8h1m1 0h1m4 0h1M6 9h1m2 0h1m4 0h1M5 10h1m1 0h1m1 0h6M4 11h1m1 0h1m1 1h1"/><path stroke="#0ff" d="M5 7h1M4 8h1m1 0h1M3 9h1m1 0h1m1 0h1m-4 1h1m1 0h1m-2 1h1m3 2h1m0 1h1m0 1h1"/><path stroke="navy" d="M8 13h1m0 1h1m0 1h1"/></svg>