<svg xmlns="http://www.w3.org/2000/svg" viewBox="0 -0.5 16 16" shape-rendering="crispEdges">
<path stroke="#808000" d="M0 0h1M5 1h10M5 2h1M14 2h1M14 3h1M14 4h1M14 5h1M14 6h1M14 7h1M14 8h1M5 9h1M14 9h1M4 10h1M13 10h2M4 11h1M13 11h1M3 12h1M11 12h2M3 13h3M8 13h3" />
<path stroke="#ffffff" d="M0 0h1M6 2h1M8 2h1M10 2h1M12 2h1M7 3h1M9 3h1M11 3h1M13 3h1M8 4h1M10 4h1M12 4h1M11 5h1M13 5h1M8 6h1M10 6h1M12 6h1M9 7h1M11 7h1M13 7h1M8 8h1M10 8h1M12 8h1M7 9h1M11 9h1M13 9h1M6 10h1M8 10h1M5 11h1M7 11h1M4 12h1M6 12h1" />
<path stroke="#ffff00" d="M0 0h1M7 2h1M9 2h1M11 2h1M13 2h1M8 3h1M10 3h1M12 3h1M9 4h1M11 4h1M13 4h1M10 5h1M12 5h1M9 6h1M11 6h1M13 6h1M8 7h1M10 7h1M12 7h1M7 8h1M9 8h1M11 8h1M13 8h1M6 9h1M8 9h1M12 9h1M5 10h1M7 10h1M6 11h1M10 11h1M12 11h1M5 12h1M9 12h1" />
<path stroke="#000000" d="M0 0h1M15 2h1M1 3h2M5 3h2M15 3h1M0 4h1M3 4h2M7 4h1M15 4h1M0 5h1M3 5h1M5 5h1M7 5h3M15 5h1M0 6h1M3 6h3M7 6h1M15 6h1M1 7h2M4 7h1M6 7h2M15 7h1M4 8h3M15 8h1M9 9h2M15 9h1M9 10h1M11 10h2M15 10h1M8 11h2M14 11h1M7 12h2M13 12h1M6 13h2M11 13h2M4 14h7" />
<path stroke="#00ffff" d="M0 0h1M1 4h2M5 4h2M1 5h1M4 5h1" />
<path stroke="#008080" d="M0 0h1M2 5h1M6 5h1M1 6h2M6 6h1M5 7h1" />
<path stroke="#c0c0c0" d="M0 0h1M10 10h1M11 11h1M10 12h1" />
</svg>