<svg xmlns="http://www.w3.org/2000/svg" width="32" height="32" shape-rendering="crispEdges" viewBox="0 -0.5 32 32"><path stroke="gray" d="M10 3h6M9 4h1m6 0h1M8 5h1m8 0h6M8 6h1M6 7h6M5 8h1m6 0h1M4 9h1m8 0h6M4 10h1m-1 1h1m-1 1h1m24 0h1M4 13h1m-1 1h1m22 0h1m1 0h1M4 15h1m23 0h2M4 16h1m22 0h3M4 17h1m21 0h4M2 18h3m20 0h5M1 19h22m1 0h6M1 20h1m21 0h7M1 21h1m21 0h7M1 22h1m21 0h7M1 23h1m21 0h7M1 24h1m21 0h7M1 25h1m21 0h7M1 26h1m21 0h7M1 27h1m21 0h6M1 28h1m21 0h5M1 29h1m21 0h4M1 30h1m21 0h3"/><path stroke="#fff" d="M10 4h6M9 5h1M9 6h17M6 8h6M5 9h1m-1 1h17M5 11h1m-1 1h1m-1 1h1m-1 1h1m-1 1h1m-1 1h1m-1 1h1m-1 1h1m1 0h1m1 0h1m1 0h1m1 0h1m1 0h1m1 0h1m1 0h1m1 0h1M2 20h21M2 21h1m1 0h1m1 0h1m1 0h1m1 0h1m1 0h1m1 0h1m1 0h1m1 0h1m1 0h1m1 0h1M2 22h2m1 0h1m1 0h1m1 0h1m1 0h1m1 0h1m1 0h1m1 0h1m1 0h1m1 0h1M2 23h1m1 0h1m1 0h1m1 0h1m1 0h1m1 0h1m1 0h1m1 0h1m1 0h1m1 0h1m1 0h1M2 24h2m1 0h1m1 0h1m1 0h1m1 0h1m1 0h1m1 0h1m1 0h1m1 0h1m1 0h1M2 25h1m1 0h1m1 0h1m1 0h1m1 0h1m1 0h1m1 0h1m1 0h1m1 0h1m1 0h1m1 0h1M2 26h2m1 0h1m1 0h1m1 0h1m1 0h1m1 0h1m1 0h1m1 0h1m1 0h1m1 0h1M2 27h1m1 0h1m1 0h1m1 0h1m1 0h1m1 0h1m1 0h1m1 0h1m1 0h1m1 0h1m1 0h1M2 28h2m1 0h1m1 0h1m1 0h1m1 0h1m1 0h1m1 0h1m1 0h1m1 0h1m1 0h1M2 29h1m1 0h1m1 0h1m1 0h1m1 0h1m1 0h1m1 0h1m1 0h1m1 0h1m1 0h1m1 0h1M2 30h1"/><path stroke="silver" d="M10 5h1m1 0h1m1 0h1m-3 2h1m1 0h1m1 0h1m1 0h1m1 0h1m1 0h1m1 0h1M13 8h1m1 0h1m1 0h1m1 0h1m1 0h1m1 0h1m1 0h1M6 9h1m1 0h1m1 0h1m11 0h1m1 0h1m-2 1h1m1 0h1M6 11h1m1 0h1m1 0h1m1 0h1m1 0h1m1 0h1m1 0h1m1 0h1m3 0h1M7 12h1m1 0h1m1 0h1m1 0h1m1 0h1m1 0h1m1 0h1m1 0h1m3 0h1M6 13h1m1 0h1m1 0h1m1 0h1m1 0h1m1 0h1m1 0h1m1 0h1m3 0h1M7 14h1m1 0h1m1 0h1m1 0h1m1 0h1m1 0h1m1 0h1m1 0h1m3 0h1M6 15h1m1 0h1m1 0h1m1 0h1m1 0h1m1 0h1m1 0h1m1 0h1m3 0h1M7 16h1m1 0h1m1 0h1m1 0h1m1 0h1m1 0h1m1 0h1m1 0h1m3 0h1M6 17h1m1 0h1m1 0h1m1 0h1m1 0h1m1 0h1m1 0h1m1 0h1m3 0h1M3 21h1m1 0h1m1 0h1m1 0h1m1 0h1m1 0h1m1 0h1m1 0h1m1 0h1m1 0h1M4 22h1m1 0h1m1 0h1m1 0h1m1 0h1m1 0h1m1 0h1m1 0h1m1 0h1m1 0h1M3 23h1m1 0h1m1 0h1m1 0h1m1 0h1m1 0h1m1 0h1m1 0h1m1 0h1m1 0h1M4 24h1m1 0h1m1 0h1m1 0h1m1 0h1m1 0h1m1 0h1m1 0h1m1 0h1m1 0h1M3 25h1m1 0h1m1 0h1m1 0h1m1 0h1m1 0h1m1 0h1m1 0h1m1 0h1m1 0h1M4 26h1m1 0h1m1 0h1m1 0h1m1 0h1m1 0h1m1 0h1m1 0h1m1 0h1m1 0h1M3 27h1m1 0h1m1 0h1m1 0h1m1 0h1m1 0h1m1 0h1m1 0h1m1 0h1m1 0h1M4 28h1m1 0h1m1 0h1m1 0h1m1 0h1m1 0h1m1 0h1m1 0h1m1 0h1m1 0h1M3 29h1m1 0h1m1 0h1m1 0h1m1 0h1m1 0h1m1 0h1m1 0h1m1 0h1m1 0h1M3 30h20"/><path stroke="#ff0" d="M11 5h1m1 0h1m1 0h1m-3 2h1m1 0h1m1 0h1m1 0h1m1 0h1m1 0h1m1 0h1M14 8h1m1 0h1m1 0h1m1 0h1m1 0h1m1 0h1M7 9h1m1 0h1m1 0h1m11 0h1m1 0h1m-2 1h1M7 11h1m1 0h1m1 0h1m1 0h1m1 0h1m1 0h1m1 0h1m1 0h1m3 0h1M6 12h1m1 0h1m1 0h1m1 0h1m1 0h1m1 0h1m1 0h1m1 0h1m3 0h1M7 13h1m1 0h1m1 0h1m1 0h1m1 0h1m1 0h1m1 0h1m1 0h1m3 0h1M6 14h1m1 0h1m1 0h1m1 0h1m1 0h1m1 0h1m1 0h1m1 0h1m3 0h1M7 15h1m1 0h1m1 0h1m1 0h1m1 0h1m1 0h1m1 0h1m1 0h1m3 0h1M6 16h1m1 0h1m1 0h1m1 0h1m1 0h1m1 0h1m1 0h1m1 0h1m3 0h1M7 17h1m1 0h1m1 0h1m1 0h1m1 0h1m1 0h1m1 0h1m1 0h1"/><path stroke="olive" d="M16 5h1m9 2h1m-1 1h1M12 9h1m13 0h1m-1 1h1m-5 1h1m3 0h1m-5 1h1m3 0h1m-5 1h1m3 0h1m-5 1h1m3 0h1m-5 1h1m3 0h1m-5 1h1m-1 1h1M6 18h1m1 0h1m1 0h1m1 0h1m1 0h1m1 0h1m1 0h1m1 0h1m1 0h1"/><path stroke="#000" d="M23 5h3m0 1h1m0 1h1m-1 1h1m-9 1h3m5 0h1m-6 1h1m4 0h1m-5 1h1m3 0h1m-5 1h1m3 0h2m1 0h1m-8 1h1m3 0h4m-8 1h1m4 0h1m1 0h1m-8 1h1m3 0h1m2 0h1m-8 1h1m2 0h1m3 0h1m-8 1h1m1 0h1m4 0h1m-8 1h2m5 0h1m-8 1h1m6 0h1m-1 1h1m-1 1h1m-1 1h1m-1 1h1m-1 1h1m-1 1h1m-1 1h1m-2 1h1m-2 1h1m-2 1h1m-2 1h1M1 31h25"/></svg>