<svg xmlns="http://www.w3.org/2000/svg" width="32" height="32" shape-rendering="crispEdges" viewBox="0 -0.5 32 32"><path stroke="gray" d="M0 0h23M0 1h1M0 2h1M0 3h1M0 4h1M0 5h1M0 6h1M0 7h1M0 8h1m8 0h23M0 9h1m8 0h1M0 10h1m7 0h5M0 11h1m5 0h2m-8 1h1m4 0h1m-6 1h1m3 0h1m-5 1h1m3 0h1m-2 1h1m-1 1h1m-1 1h1m-1 1h1m-1 1h1m0 1h1m-1 1h1m0 1h1m11 0h1m-1 1h2m-5 1h1m3 0h1m-4 1h1m0 1h1"/><path stroke="#fff" d="M1 1h20M5 2h12m3 0h1M1 3h16m3 0h1M5 4h12m3 0h1M1 5h20M1 6h7m10 0h3M1 7h20M1 8h8M1 9h8m1 0h20M1 10h7m7 0h11m3 0h1M1 11h5m3 0h1m1 0h1m1 0h1m3 0h9m3 0h1M1 12h4m1 0h1m1 0h1m1 0h1m1 0h1m1 0h1m3 0h8m3 0h1M1 13h3m1 0h1m1 0h1m1 0h1m1 0h1m1 0h1m1 0h1m3 0h11M6 14h1m1 0h1m1 0h1m1 0h1m1 0h1m1 0h1m2 0h11M5 15h1m1 0h1m1 0h1m1 0h1m1 0h1m1 0h1m4 0h10M4 16h1m1 0h1m1 0h1m1 0h1m1 0h1m1 0h1m1 0h1m10 0h3M5 17h1m1 0h1m1 0h1m1 0h1m1 0h1m1 0h1m4 0h10M4 18h1m1 0h1m1 0h1m1 0h1m1 0h1m1 0h1m1 0h1m10 0h3M5 19h1m1 0h1m1 0h1m1 0h1m1 0h1m1 0h1m4 0h10M6 20h1m1 0h1m1 0h1m1 0h1m1 0h1m4 0h11M7 21h1m1 0h1m1 0h1m1 0h1m-6 1h1m1 0h1m1 0h1m3 2h1m0 1h1"/><path stroke="silver" d="M21 1h1m-1 1h1m-1 1h1m-1 1h1m-1 1h1m-1 1h1m-1 1h1m8 2h1m-17 1h1m15 0h1m-15 1h1m13 0h1m-14 1h1m12 0h1m-13 1h1m11 0h1M1 14h3m14 0h1m11 0h1m-12 1h1m10 0h1m-1 1h1m-12 1h1m10 0h1m-1 1h1m-12 1h1m10 0h1m-13 1h1m11 0h1M5 21h1m13 0h12M6 22h1m9 1h1m-2 1h1m1 0h1m-2 1h1"/><path stroke="#000" d="M22 1h1m-1 1h1m-1 1h1m-1 1h1m-1 1h1m-1 1h1m-1 1h1m8 2h1m-19 1h1m17 0h1m-18 1h2m15 0h1m-16 1h1m14 0h1m-15 1h1m13 0h1m-15 1h1m13 0h1M0 15h3m15 0h1m12 0h1m-14 1h1m12 0h1m-14 1h1m12 0h1m-14 1h1m12 0h1m-14 1h1m12 0h1m-15 1h1m13 0h1m-15 1h2m12 0h1m-16 1h1m1 0h14M6 23h2m6 0h2m3 0h1M8 24h6m6 0h1m0 1h1m0 1h1m0 1h1m0 1h1m0 1h1m-1 1h1m-1 1h1"/><path stroke="#00f" d="M1 2h4M1 4h4m3 2h10m2 10h7m-7 2h7m-8 6h1m-1 1h2m-4 1h1m2 0h2m-4 1h1m2 0h2m-4 1h1m2 0h2m-4 1h1m2 0h2m-4 1h1m2 0h1m-3 1h1m1 0h1"/><path stroke="maroon" d="M17 2h1m1 0h1m-2 1h1m-2 1h1m1 0h1m6 6h1m1 0h1m-2 1h1m-2 1h1m1 0h1"/><path stroke="red" d="M18 2h1m-2 1h1m1 0h1m-2 1h1m8 6h1m-2 1h1m1 0h1m-2 1h1"/><path stroke="#0ff" d="M8 11h1m1 0h1m1 0h1m-6 1h1m1 0h1m1 0h1m1 0h1m-8 1h1m1 0h1m1 0h1m1 0h1m1 0h1M5 14h1m1 0h1m1 0h1m1 0h1m1 0h1m1 0h1M4 15h1m1 0h1m1 0h1m1 0h1m1 0h1m1 0h1m1 0h1M5 16h1m1 0h1m1 0h1m1 0h1m1 0h1m1 0h1M4 17h1m1 0h1m1 0h1m1 0h1m1 0h1m1 0h1m1 0h1M5 18h1m1 0h1m1 0h1m1 0h1m1 0h1m1 0h1M4 19h1m1 0h1m1 0h1m1 0h1m1 0h1m1 0h1m1 0h1M5 20h1m1 0h1m1 0h1m1 0h1m1 0h1m1 0h1M6 21h1m1 0h1m1 0h1m1 0h1m1 0h1m-8 1h1m1 0h1m1 0h1m1 0h1m4 3h1m-1 1h2m-1 1h2m-1 1h2m-1 1h2m-1 1h2m-1 1h1"/><path stroke="teal" d="M15 12h1m0 1h1m0 2h1m-1 1h1m-1 1h1m-1 1h1m-1 1h1m-2 1h1m-2 1h2m-3 1h2m-8 1h6"/><path stroke="navy" d="M19 16h1m-1 2h1m-3 9h1m0 1h1m0 1h1m0 1h1m0 1h1"/></svg>