<svg xmlns="http://www.w3.org/2000/svg" width="16" height="16" shape-rendering="crispEdges" viewBox="0 -0.5 16 16"><path stroke="gray" d="M4 4h11M4 5h2M3 6h1M2 7h1M2 8h1M2 9h1m0 1h1m4 0h2m-6 1h1m2 0h1"/><path stroke="#000" d="M15 4h1M6 5h1m8 0h1M7 6h1m7 0h1M8 7h1m6 0h1M8 8h1m6 0h1M8 9h1m6 0h1m-9 1h1m2 0h6M5 11h2m4 0h1m0 1h1m0 1h1m-1 1h1m-3 1h2"/><path stroke="silver" d="M7 5h1m6 0h1M8 6h1m5 0h1M7 7h1m1 0h1m4 0h1M6 8h1m2 0h1m4 0h1M5 9h1m1 0h1m1 0h6M4 10h1m1 0h1m1 1h1"/><path stroke="#fff" d="M8 5h5M4 6h1m1 0h1m2 0h4M3 7h1m1 0h1m7 0h1M4 8h1m5 0h4M3 9h1"/><path stroke="red" d="M13 5h1m-1 1h1"/><path stroke="#0ff" d="M5 6h1M4 7h1m1 0h1M3 8h1m1 0h1m1 0h1M4 9h1m1 0h1m-2 1h1m3 2h1m0 1h1m0 1h1"/><path stroke="#00f" d="M10 7h3m-4 4h2m-1 1h2m-1 1h2m-1 1h1"/><path stroke="navy" d="M8 12h1m0 1h1m0 1h1"/></svg>