<svg xmlns="http://www.w3.org/2000/svg" viewBox="0 -0.5 16 16" shape-rendering="crispEdges">
<path stroke="#808080" d="M0 0h1M5 1h4M4 2h1M9 2h4M3 3h4M2 4h1M7 4h4M2 5h1M2 6h1M2 7h1M1 8h2M14 8h1M0 9h12M13 9h2M0 10h1M12 10h3M0 11h1M12 11h3M0 12h1M12 12h3M0 13h1M12 13h2M0 14h1M12 14h1" />
<path stroke="#ffff00" d="M0 0h1M5 2h1M7 2h1M8 3h1M10 3h1M12 3h1M3 4h1M5 4h1M13 4h1M5 6h1M7 6h1M9 6h1M11 6h1M13 6h1M4 7h1M6 7h1M8 7h1M10 7h1M5 8h1M7 8h1M9 8h1M11 8h1" />
<path stroke="#c0c0c0" d="M0 0h1M6 2h1M8 2h1M7 3h1M9 3h1M11 3h1M13 3h1M4 4h1M6 4h1M13 5h1M4 6h1M6 6h1M8 6h1M10 6h1M5 7h1M7 7h1M9 7h1M11 7h1M13 7h1M4 8h1M6 8h1M8 8h1M10 8h1M2 11h1M10 11h1M3 12h1M9 12h1M11 12h1M2 13h1M4 13h1M8 13h1M10 13h1M2 14h10" />
<path stroke="#000000" d="M0 0h1M13 2h1M14 3h1M11 4h2M14 4h1M12 5h1M14 5h1M12 6h1M14 6h1M12 7h1M14 7h2M12 8h2M15 8h1M12 9h1M15 9h1M15 10h1M4 11h5M15 11h1M5 12h3M15 12h1M6 13h1M14 13h1M13 14h1M0 15h13" />
<path stroke="#ffffff" d="M0 0h1M3 5h9M3 6h1M3 7h1M3 8h1M1 10h11M1 11h1M3 11h1M9 11h1M11 11h1M1 12h2M4 12h1M8 12h1M10 12h1M1 13h1M3 13h1M5 13h1M7 13h1M9 13h1M11 13h1M1 14h1" />
</svg>