<svg xmlns="http://www.w3.org/2000/svg" viewBox="0 -0.5 16 16" shape-rendering="crispEdges">
<path stroke="#808080" d="M0 0h1M5 0h4M4 1h1M9 1h4M3 2h4M2 3h1M7 3h4M2 4h1M2 5h1M2 6h1M1 7h2M14 7h1M0 8h12M13 8h2M0 9h1M12 9h3M0 10h1M12 10h3M0 11h1M12 11h3M0 12h1M12 12h2M0 13h1M12 13h1" />
<path stroke="#ffff00" d="M0 0h1M5 1h1M7 1h1M8 2h1M10 2h1M12 2h1M3 3h1M5 3h1M13 3h1M5 5h1M7 5h1M9 5h1M11 5h1M13 5h1M4 6h1M6 6h1M8 6h1M10 6h1M5 7h1M7 7h1M9 7h1M11 7h1" />
<path stroke="#c0c0c0" d="M0 0h1M6 1h1M8 1h1M7 2h1M9 2h1M11 2h1M13 2h1M4 3h1M6 3h1M13 4h1M4 5h1M6 5h1M8 5h1M10 5h1M5 6h1M7 6h1M9 6h1M11 6h1M13 6h1M4 7h1M6 7h1M8 7h1M10 7h1M2 10h1M4 10h1M6 10h1M8 10h1M10 10h1M3 11h1M5 11h1M7 11h1M9 11h1M11 11h1M2 12h1M4 12h1M6 12h1M8 12h1M10 12h1M2 13h10" />
<path stroke="#000000" d="M0 0h1M13 1h1M14 2h1M11 3h2M14 3h1M12 4h1M14 4h1M12 5h1M14 5h2M12 6h1M14 6h2M12 7h2M15 7h1M12 8h1M15 8h1M15 9h1M15 10h1M15 11h1M14 12h1M13 13h1M1 14h12" />
<path stroke="#ffffff" d="M0 0h1M3 4h9M3 5h1M3 6h1M3 7h1M1 9h11M1 10h1M3 10h1M5 10h1M7 10h1M9 10h1M11 10h1M1 11h2M4 11h1M6 11h1M8 11h1M10 11h1M1 12h1M3 12h1M5 12h1M7 12h1M9 12h1M11 12h1M1 13h1" />
</svg>