<svg xmlns="http://www.w3.org/2000/svg" width="16" height="16" shape-rendering="crispEdges" viewBox="0 -0.5 16 16"><path stroke="gray" d="M2 0h9M2 1h1m7 0h1M2 2h1m7 0h1M2 3h1m7 0h1M2 4h1M2 5h1M2 6h1M2 7h1M2 8h1M2 9h1m-1 1h1m-1 1h1m-1 1h1m-1 1h1m-1 1h1"/><path stroke="#000" d="M11 0h1m0 1h1m0 1h1m-3 1h3m-1 1h1m-1 1h1m-1 1h1m-1 1h1m-1 1h1m-1 1h1m-1 1h1m-1 1h1m-1 1h1m-1 1h1m-1 1h1M2 15h12"/><path stroke="#fff" d="M3 1h7M3 2h7m1 0h1M3 3h7M3 4h9M3 5h9M3 6h9M3 7h9M3 8h9M3 9h9m-9 1h9m-9 1h9m-9 1h9m-9 1h9"/><path stroke="silver" d="M11 1h1m0 1h1m-1 2h1m-1 1h1m-1 1h1m-1 1h1m-1 1h1m-1 1h1m-1 1h1m-1 1h1m-1 1h1m-1 1h1M3 14h10"/></svg>