<svg xmlns="http://www.w3.org/2000/svg" width="16" height="16" shape-rendering="crispEdges" viewBox="0 -0.5 16 16"><path stroke="gray" d="M3 0h2m1 0h5M3 1h1m1 0h2m4 0h2M3 2h1m3 0h2m4 0h1M2 3h2m5 0h2M2 4h2M1 5h1m1 0h1M1 6h1m1 0h1M1 7h3m7 0h2M0 8h1m1 0h2M0 9h1m3 0h2m2 0h1m3 0h1M0 10h1m5 0h2m2 0h3M0 11h1m7 0h5m-5 1h5m-5 1h4m-4 1h2"/><path stroke="#fff" d="M4 1h1m2 0h1M6 2h1M6 3h3M6 4h1m1 0h1M4 5h3m1 0h1M4 6h3m1 0h1M4 7h1m1 0h1m1 0h1M1 8h1m2 0h1m1 0h1m1 0h1m3 0h1M2 9h2m2 0h2m2 0h2m-8 1h2m2 0h2m-4 1h2"/><path stroke="silver" d="M8 1h1M5 2h1M4 4h1m4 0h1M9 5h1M2 6h1m6 0h1M9 7h1M9 8h1M1 9h1m-1 1h3m-3 1h5m-4 1h6m-4 1h4m-2 1h2"/><path stroke="teal" d="M9 1h2m0 3h1m-1 1h1m2 1h1"/><path stroke="red" d="M4 2h1M4 3h2M5 4h1"/><path stroke="green" d="M9 2h4m-2 1h3m-2 1h2m-2 1h2"/><path stroke="#000" d="M14 3h1m-5 1h1m3 0h1m-5 1h1m4 0h1m-6 1h1m4 0h1m-6 1h1m4 0h1m-6 1h2m1 0h1m1 0h1M9 9h1m3 0h1m1 0h1m-3 1h1m1 0h1m-3 1h2M0 12h2m11 0h2M2 13h2m8 0h2M4 14h2m4 0h2m-6 1h4"/><path stroke="#00f" d="M7 4h1M2 5h1m4 0h1m6 0h1M7 6h1m3 0h3M5 7h1m1 0h1m5 0h1M5 8h1m1 0h1"/><path stroke="navy" d="M14 7h1m-1 1h1m-1 1h1m-1 1h1"/></svg>