<svg xmlns="http://www.w3.org/2000/svg" width="32" height="32" shape-rendering="crispEdges" viewBox="0 -0.5 32 32"><path stroke="gray" d="M3 0h20M3 1h1m18 0h1M3 2h1m18 0h2M3 3h1m2 0h7m9 0h1m1 0h1M3 4h1m2 0h1m15 0h1m2 0h1M3 5h1m2 0h1m15 0h1m3 0h1M3 6h1m2 0h1m15 0h1M3 7h1m2 0h1M3 8h1m2 0h1M3 9h1m2 0h1m-4 1h1m2 0h1m-4 1h1m2 0h1m-4 1h1m-1 1h1m-1 1h1m-1 1h1m-1 1h1m-1 1h1m-1 1h1m-1 1h1m-1 1h1m-1 1h1m-1 1h1m-1 1h1m-1 1h1m-1 1h1m-1 1h1m-1 1h1m-1 1h1m-1 1h1m-1 1h1"/><path stroke="#fff" d="M4 1h18M4 2h18M4 3h2m8 0h8M4 4h2m1 0h2m5 0h8m1 0h1M4 5h2m1 0h2m5 0h8m1 0h2M4 6h2m1 0h2m5 0h8M4 7h2m1 0h2m5 0h13M4 8h2m8 0h2m8 0h3M4 9h2m1 0h2m5 0h13M4 10h2m8 0h2m8 0h3M4 11h2m4 0h3m1 0h13M4 12h2m8 0h2m8 0h3M4 13h23M4 14h2m18 0h3M4 15h23M4 16h2m18 0h3M4 17h23M4 18h2m14 0h3m1 0h3M4 19h18m3 0h2M4 20h2m12 0h3m4 0h2M4 21h16m2 0h1m2 0h2M4 22h2m10 0h3m2 0h2m2 0h2M4 23h14m7 0h2M4 24h2m8 0h3m8 0h2M4 25h12m2 0h5m2 0h2M4 26h2m6 0h3m3 0h4m3 0h2M4 27h12m3 0h4m3 0h1M4 28h23M4 29h23"/><path stroke="#000" d="M23 1h1m0 1h1M13 3h1m11 0h1M9 4h1m3 0h1m12 0h1M9 5h5m13 0h1M9 6h1m3 0h1m9 0h6M9 7h1m3 0h1m14 0h1M7 8h3m3 0h1m14 0h1M9 9h1m3 0h1m14 0h1M7 10h7m14 0h1M9 11h1m3 0h1m14 0h1M6 12h8m14 0h1m-1 1h1m-1 1h1m-1 1h1m-1 1h1m-1 1h1m-1 1h1m-1 1h1m-1 1h1m-1 1h1m-1 1h1m-1 1h1m-1 1h1m-1 1h1m-1 1h1m-1 1h1m-1 1h1m-1 1h1m-1 1h1M3 31h26"/><path stroke="silver" d="M23 3h1m0 1h1m0 1h1m1 2h1m-1 1h1m-1 1h1m-1 1h1m-1 1h1m-1 1h1m-1 1h1m-1 1h1m-1 1h1m-1 1h1m-1 1h1m-1 1h1m-4 1h1m2 0h1m-6 1h1m1 0h1m2 0h1m-7 1h1m2 0h1m2 0h1m-8 1h1m3 0h1m2 0h1m-4 1h1m2 0h1m-10 1h5m1 0h1m2 0h1m-11 1h1m6 0h1m2 0h1m-1 1h1m-12 1h3m4 0h3m1 0h1m-1 1h1m-1 1h1M4 30h24"/><path stroke="#00f" d="M10 4h3m3 4h8m-8 2h8m-8 2h8M6 14h18M6 16h18M6 18h14M6 20h12M6 22h10M6 24h8m-8 2h6"/><path stroke="#ff0" d="M10 6h3m-3 1h3m-3 1h3m-3 1h3"/><path stroke="red" d="M7 11h2m14 7h1m-2 1h2m-3 1h1m1 0h1m-4 1h1m2 0h1m-5 1h1m3 0h1m-6 1h6m-7 1h1m5 0h1m-8 1h1m6 0h1m-9 1h3m4 0h3"/></svg>