<svg xmlns="http://www.w3.org/2000/svg" width="32" height="32" shape-rendering="crispEdges" viewBox="0 -0.5 32 32"><path stroke="#000" d="M3 0h2m1 0h2m1 0h2m1 0h2m1 0h2m1 0h2m1 0h2m1 0h1m1 1h1M3 2h1m2 0h1m2 0h1m2 0h1m2 0h1m2 0h1m2 0h1m3 0h1m1 0h1M3 3h1m2 0h1m2 0h1m2 0h1m2 0h1m2 0h1m2 0h1m3 0h1m1 0h1m-3 1h1m1 0h1m-3 1h1m1 0h1m-3 1h1m1 0h1m-3 1h1m-1 1h1m-3 4h2m-3 1h2m-2 1h1m1 0h2m-4 1h5m3 0h1m-8 1h5m1 0h1m-6 1h5m-4 1h3m-2 1h2m-4 1h2m1 0h1m-5 1h1m1 0h1m1 0h1m-10 1h5m2 0h1m1 0h1m-13 1h2m8 0h1m1 0h1m-15 1h2m10 0h1m1 0h1m-17 1h2m12 0h1m1 0h1m-3 1h1m1 0h1m-3 1h1m1 0h1m-3 1h1m1 0h1m-3 1h1m1 0h1m-4 1h1m1 0h1M3 31h23"/><path stroke="gray" d="M2 1h1m1 0h2m1 0h2m1 0h2m1 0h2m1 0h2m1 0h2m1 0h2m1 0h1M1 2h1m22 0h1M1 3h1m22 0h1M1 4h1M1 5h1M1 6h1M1 7h1M1 8h1M1 9h1m-1 1h1m-1 1h1m-1 1h1m-1 1h1m-1 1h1m-1 1h1m-1 1h1m-1 1h1m-1 1h1m-1 1h1m-1 1h1m-1 1h1m-1 1h1m15 0h1M1 23h1m15 0h1M1 24h1m-1 1h1m-1 1h1m-1 1h1m-1 1h1m-1 1h1m0 1h1"/><path stroke="#fff" d="M3 1h1m2 0h1m2 0h1m2 0h1m2 0h1m2 0h1m2 0h1m2 0h1M2 2h1m1 0h2m1 0h2m1 0h2m1 0h2m1 0h2m1 0h2m1 0h2M2 3h1m1 0h2m1 0h2m1 0h2m1 0h2m1 0h2m1 0h2m1 0h2M2 4h22M2 5h22M2 6h22m6 1h1M2 8h22M2 9h22m4 0h1m-2 1h1M2 11h22M2 12h21m1 1h1M2 14h20m1 0h1M2 15h19m0 1h1M2 17h17m1 0h1m1 0h1M2 18h16m1 0h1m0 1h1M2 20h14m1 0h1m1 0h1M2 21h13m1 0h1m1 0h1m-3 1h1M2 23h11m1 0h1m3 0h6M2 24h10m3 0h9M2 26h22M2 27h22M2 29h22"/><path stroke="silver" d="M26 2h1m-1 1h1m-3 1h1m1 0h1m-3 1h1m1 0h1m-3 1h1m1 0h1M2 7h23m1 0h1m-3 1h1m-1 1h1M2 10h22M2 13h20M2 16h18m3 1h1m-2 1h1M2 19h15m4 0h1m-2 1h1m5 0h1m-8 1h1m4 0h1m1 0h1M2 22h12m9 0h2m1 0h1m-3 1h1m1 0h1m-3 1h1m1 0h1M2 25h9m2 0h12m1 0h1m-3 1h1m1 0h1m-3 1h1m1 0h1M2 28h23m1 0h1m-3 1h1m1 0h1M3 30h21m1 0h1"/><path stroke="navy" d="M30 4h1m-2 1h1m-2 1h1m-2 1h1m-2 1h1m-2 1h1m-2 1h1m5 0h1m-7 1h1m4 0h1m-2 1h1m-4 1h1m1 0h1m2 0h1m-5 1h1m2 0h2m-4 1h3m-2 1h1m-4 3h1"/><path stroke="#00f" d="M30 5h1m-2 1h2m-3 1h2m-3 1h2m1 0h1m-5 1h2m1 0h2m-6 1h2m1 0h2m-5 1h1m1 0h2m1 0h1m-6 1h3m1 0h2m-5 1h1m1 0h2m-3 1h2"/><path stroke="#ff0" d="M29 8h1m-4 3h1m-5 5h1m-2 1h1m-2 1h2m-4 1h2m-2 1h1m-2 1h1m-3 1h1"/><path stroke="olive" d="M21 15h1m-2 1h1m-2 1h1m-2 1h1m4 0h2m-8 1h1m4 0h3m-9 1h1m4 0h3m-9 1h1m4 0h3m-9 1h1m-2 1h1m-2 1h1"/></svg>