<svg width="10" height="18" xmlns="http://www.w3.org/2000/svg">
 <!-- Created with Method Draw - http://github.com/duopixel/Method-Draw/ -->

 <g>
  <title>background</title>
  <rect x="-1" y="-1" width="12" height="20" id="canvas_background" fill="none"/>
  <g id="canvasGrid" display="none">
   <rect id="svg_2" width="100%" height="100%" x="0" y="0" stroke-width="0" fill="url(#gridpattern)"/>
  </g>
 </g>
 <g>
  <title>Layer 1</title>
  <path fill="#000000" stroke="#000" stroke-width="1.5" stroke-opacity="null" opacity="0.5" d="m190.00003,130.35715" id="svg_3"/>
  <path transform="rotate(-89.98284149169922 4.998364448547364,8.998456954956055) " stroke="#000" id="svg_11" d="m-4.011962,4.006911l0.0142,3.01551l3.01087,0.00956l-0.0102,2.18605l2.02485,0l0.01019,2.81506l2.94168,-0.00956l0,1.97605l2.00044,0c0.0102,0.00956 0.0346,-1.99089 0.0244,-2.00045c0.0102,0.00956 3.01086,0.03396 3.00067,0.0244c0.01019,0.00956 0.01019,-2.84473 0,-2.85429l2.00044,0l0,-2.17122c0.0102,0.00956 3.01087,0.03396 3.00067,0.0244c0.0102,0.00956 -0.0142,-3.0399 -0.0244,-3.02507l-17.99381,0.00956z" fill-opacity="null" stroke-opacity="null" stroke-width="0" fill="#000000"/>
 </g>
</svg>