<svg width="7" height="8" xmlns="http://www.w3.org/2000/svg">
 <!-- Created with Method Draw - http://github.com/duopixel/Method-Draw/ -->

 <g>
  <title>background</title>
  <rect x="-1" y="-1" width="9" height="10" id="canvas_background" fill="none"/>
  <g id="canvasGrid" display="none">
   <rect id="svg_1" width="100%" height="100%" x="0" y="0" stroke-width="0" fill="url(#gridpattern)"/>
  </g>
 </g>
 <g>
  <title>Layer 1</title>
  <path fill="#808080" stroke="null" stroke-width="0" stroke-opacity="null" d="m0.01427,1.89702c0,0 -0.01427,4.00798 -0.01427,4.00798c0,0 0.99844,0 0.99844,0c0,0 0.01426,1.08401 0.01426,1.08401c0,0 0.99843,0 0.99843,0c0,0 0,1.0127 0,1.0127c0,0 0.98417,0 0.98417,0c0,0 0,-0.99843 0,-0.99843c0,0 0.99843,0.01426 0.99843,0.01426c0,0 0.01426,-0.88432 0.01426,-0.88432c0,0 0.98417,0 0.98417,0c0,0 0,-1.1268 0,-1.1268c0,0 0.99843,0 0.99843,0c0,0 0,-1.0127 0,-1.0127c0,0 0.99843,0 0.99843,0c0,0 0.01426,-3.99372 0.01426,-3.99372c0,0 -0.99843,0.01426 -0.99843,0.01426c0,0 0,0.99843 0,0.99843c0,0 -0.99843,-0.01426 -0.99843,-0.01426c0,0 0,1.14106 0,1.14106c0,0 -0.99843,0.01427 -0.99843,0.01427c0,0 0,0.85579 0,0.85579c0,0 -0.99843,0.01427 -0.99843,0.01427c0,0 0,0.98417 0,0.98417c0,0 -1.01269,0 -1.01269,0c0,0 -0.01427,-0.96991 -0.01427,-0.96991c0,0 -0.98416,-0.01426 -0.98416,-0.01426c0,0 -0.01427,-1.11254 -0.01427,-1.11254l-0.9699,-0.01426z" id="svg_14"/>
 </g>
</svg>